<svg width="24" height="24" viewBox="0 0 24 24" fill="none" xmlns="http://www.w3.org/2000/svg">
<path d="M12 24C18.6274 24 24 18.6274 24 12C24 5.37258 18.6274 0 12 0C5.37258 0 0 5.37258 0 12C0 18.6274 5.37258 24 12 24Z" fill="#0A70B4"/>
<path d="M23.5 12C23.5 18.3513 18.3513 23.5 12 23.5C5.64873 23.5 0.5 18.3513 0.5 12C0.5 5.64873 5.64873 0.5 12 0.5C18.3513 0.5 23.5 5.64873 23.5 12Z" stroke="white" stroke-opacity="0.3"/>
<g clip-path="url(#clip0)">
<path d="M17.8484 8.70552V15.4593L11.9995 18.8362V16.7962L16.075 14.4437V7.68115L17.8484 8.70552Z" fill="#0A70B4"/>
<path d="M11.9995 4L11.9918 4.00439L5 8.04152V16.1246L9.0821 18.4815L11.9995 20.165L19 16.1246V8.04152L11.9995 4ZM17.8484 15.4599L11.9995 18.8368V16.7969L16.075 14.4443V7.68179L17.8484 8.70615V15.4599Z" fill="white"/>
<path d="M9.149 10.9233V13.2408H8.72456L7.44794 11.5123V13.2408H7.0235V10.9233H7.44794L8.72456 12.6485V10.9233H9.149Z" fill="#0A70B4"/>
<path d="M11.2679 12.7681H10.1843L9.9979 13.2408H9.55481L10.4816 10.9233H10.9729L11.8997 13.2408H11.4533L11.2679 12.7681ZM10.7272 11.3829L10.3028 12.4588H11.1484L10.7272 11.3829Z" fill="#0A70B4"/>
<path d="M14.4287 10.9233V13.2408H14.0043L12.7266 11.5123V13.2408H12.3021V10.9233H12.7266L14.0032 12.6485V10.9233H14.4287Z" fill="#0A70B4"/>
</g>
<defs>
<clipPath id="clip0">
<rect width="14" height="16.165" fill="white" transform="translate(5 4)"/>
</clipPath>
</defs>
</svg>
