<svg xmlns="http://www.w3.org/2000/svg" xmlns:xlink="http://www.w3.org/1999/xlink" width="256" height="256" viewBox="0 0 256 256"><defs><linearGradient id="a" x1="0.5" y1="1.142" x2="0.5" y2="-0.105" gradientUnits="objectBoundingBox"><stop offset="0" stop-color="#f9a606"/><stop offset="1" stop-color="#fbcc5f"/></linearGradient><clipPath id="c"><rect width="256" height="256"/></clipPath></defs><g id="b" clip-path="url(#c)"><g transform="translate(-289 -666)"><g transform="translate(289 666)"><circle cx="128" cy="128" r="128" transform="translate(0 256) rotate(-90)" fill="#fff"/><path d="M72.737,103.127s65.91,82.99,67.338,84.741c1.083,1.306,2.665,2.043,3.348,1.651,2.2-1.26,3.863-2.15,4.186-3a3.319,3.319,0,0,0-.353-2.934L0,0S154.964,179.118,162.477,186.5a128.129,128.129,0,0,1-21.814,14.4l-.588.174C131.09,191.263,72.737,103.127,72.737,103.127Z" transform="translate(46.867 40.633)" fill="#ff007a"/><g transform="translate(51.2 128)"><g transform="translate(0 0)"><path d="M155.4,50.38V69.367L178.867,36.3Z" transform="translate(-129.799 7.433)" fill="#3b3735"/><path d="M178.014,53.347,155.4,15.8V43.107Z" transform="translate(-129.799 -15.8)" fill="#3b3735"/><path d="M155.4,29.6V52.853L177.8,39.84Z" transform="translate(-129.799 -0.167)" fill="#1f1d19"/><path d="M143.8,53.347,166.413,15.8V43.107Z" transform="translate(-142.947 -15.8)" fill="#959190"/><path d="M166.3,29.6V52.853L143.9,39.84Z" transform="translate(-142.835 -0.167)" fill="#403c3a"/><path d="M166.867,50.38V69.367L143.4,36.3Z" transform="translate(-143.4 7.433)" fill="#959190"/></g></g><g transform="translate(136.533 51.201)"><circle cx="38.4" cy="38.4" r="38.4" fill="url(#a)"/><path d="M188.919,170.538h-4.557c-2.509-6.963-9.254-11.738-18.151-11.738h-14.63v11.738H146.5v4.211h5.082v4.416H146.5v4.211h5.082v11.6h14.63c8.794,0,15.488-4.736,18.061-11.6h4.646v-4.211H185.3a19.1,19.1,0,0,0,.141-2.278v-.1c0-.691-.038-1.37-.1-2.035h3.6v-4.211Zm-33.242-7.987h10.534c6.528,0,11.379,3.213,13.619,7.974H155.678Zm10.534,28.634H155.678v-7.821h24.128C177.553,188.048,172.715,191.184,166.212,191.184ZM181.2,176.976a15.162,15.162,0,0,1-.154,2.176h-25.37v-4.416H181.06a16.676,16.676,0,0,1,.141,2.138Z" transform="translate(-127.748 -138.474)" fill="#fff"/></g></g></g></g></svg>