<svg width="1080" height="1080" viewBox="0 0 1080 1080" fill="none" xmlns="http://www.w3.org/2000/svg">
<rect width="1080" height="1080" fill="white"/>
<path d="M693.163 386.017C693.436 386.017 693.709 386.017 693.982 386.017C693.982 434.955 693.982 483.893 693.912 532.926C693.174 533.522 692.505 534.022 691.836 534.522C681.16 542.503 670.483 550.482 659.807 558.464C650.843 565.164 641.881 571.866 632.917 578.566C632.718 578.715 632.497 578.838 632.144 579.063C632.144 575.613 632.144 572.324 632.144 569.035C632.144 565.766 632.126 562.497 632.149 559.228C632.171 555.932 632.252 552.637 632.275 549.341C632.298 546.039 632.28 542.739 632.28 539.437C632.28 536.169 632.28 532.9 632.28 529.632C632.28 526.33 632.28 523.03 632.28 519.729C632.28 516.428 632.28 513.127 632.28 509.827C632.28 506.557 632.28 503.288 632.28 500.02C632.28 496.72 632.28 493.418 632.28 490.118C632.28 486.816 632.28 483.516 632.28 480.215C632.28 476.946 632.281 473.678 632.28 470.409C632.279 467.129 632.283 463.849 632.277 460.426C611.747 465.362 591.399 470.254 571.022 475.154C571.022 475.717 571.022 476.168 571.022 476.618C571.022 533.446 571.019 590.274 571.045 647.102C571.045 648.009 570.722 648.572 570.011 649.094C566.615 651.584 563.237 654.098 559.857 656.607C551.458 662.84 543.063 669.077 534.66 675.307C527.708 680.461 520.746 685.603 513.797 690.76C512.378 691.814 510.993 692.908 509.593 693.983C509.593 693.983 509.49 693.983 509.429 693.892C509.363 693.575 509.354 693.348 509.355 693.122C509.376 672.318 509.391 651.514 509.425 630.711C509.459 608.713 509.522 586.715 509.556 564.718C509.59 542.943 509.606 521.169 509.626 499.395C509.633 491.241 509.627 483.087 509.627 474.933C509.627 474.585 509.627 474.237 509.627 473.87C489.112 469.303 468.704 464.76 448.296 460.219C448.197 460.197 448.093 460.198 447.992 460.195C447.961 460.194 447.926 460.212 447.897 460.229C447.871 460.244 447.849 460.268 447.754 460.347C447.754 460.638 447.75 460.992 447.754 461.344C447.799 465.545 447.877 469.746 447.885 473.948C447.92 493.555 447.943 513.161 447.956 532.768C447.967 550.37 447.957 567.971 447.964 585.574C447.964 586.215 448.034 586.859 448.092 587.5C448.146 588.079 448.012 588.505 447.47 588.906C445.215 590.576 443.01 592.305 440.79 594.016C431.517 601.169 422.245 608.324 412.97 615.476C409.033 618.512 405.091 621.542 401.152 624.574C396.42 628.219 391.689 631.865 386.948 635.499C386.765 635.64 386.48 635.661 386.267 635.649C386.3 635.172 386.313 634.783 386.313 634.395C386.314 588.072 386.314 541.749 386.314 495.426C386.314 495.07 386.328 494.712 386.29 494.36C386.276 494.227 386.135 494.106 386.052 493.98C386.052 458.283 386.051 422.587 386.064 386.891C386.064 386.607 385.828 386.233 386.41 386.075C389.632 386.702 392.702 387.27 395.77 387.842C399.94 388.618 404.108 389.403 408.28 390.173C412.407 390.936 416.525 391.752 420.659 392.485C424.827 393.224 428.972 394.069 433.14 394.811C437.081 395.513 441.008 396.293 444.944 397.026C449.014 397.784 453.09 398.518 457.159 399.278C461.352 400.063 465.536 400.886 469.736 401.635C473.545 402.315 477.346 403.037 481.147 403.747C485.384 404.539 489.616 405.347 493.853 406.137C497.593 406.835 501.337 407.509 505.077 408.208C513.519 409.786 521.96 411.375 530.402 412.956C533.441 413.525 536.48 414.09 539.522 414.639C539.878 414.702 540.269 414.701 540.625 414.635C544.827 413.852 549.023 413.038 553.226 412.261C557.661 411.441 562.105 410.665 566.541 409.847C570.907 409.042 575.266 408.203 579.63 407.391C587.438 405.938 595.248 404.494 603.057 403.044C607.191 402.276 611.326 401.505 615.459 400.73C619.455 399.982 623.449 399.22 627.446 398.476C635.622 396.955 643.8 395.449 651.976 393.926C660.113 392.409 668.246 390.874 676.383 389.352C681.685 388.36 686.99 387.38 692.29 386.381C692.595 386.323 692.872 386.142 693.163 386.017Z" fill="#276CF6"/>
</svg>
