<svg width="24" height="24" viewBox="0 0 24 24" fill="none" xmlns="http://www.w3.org/2000/svg">
<path d="M12 24C18.6274 24 24 18.6274 24 12C24 5.37258 18.6274 0 12 0C5.37258 0 0 5.37258 0 12C0 18.6274 5.37258 24 12 24Z" fill="#5C2920"/>
<path d="M20.0006 13.7042C19.8955 13.8441 19.9146 14.0177 19.8812 14.1768C19.4943 15.8264 18.4722 16.9695 17.0442 17.7797C15.788 18.4936 14.4221 18.836 12.994 18.9566C11.2412 19.1013 9.53133 18.8891 7.89312 18.2283C6.90924 17.8328 6.03043 17.2733 5.31879 16.4727C4.16775 15.1752 3.82387 13.6463 4.08178 11.963C4.47342 9.37781 5.93491 7.59325 8.19879 6.42604C8.37073 6.33923 8.46625 6.25241 8.50446 6.03537C8.64297 5.15756 9.45969 4.53537 10.3385 4.62219C10.5439 4.64148 10.7063 4.62701 10.8591 4.45338C11.0836 4.19293 11.4227 4.1254 11.7236 4C11.9146 4 12.1057 4 12.2967 4C12.6071 4.1254 12.9463 4.20257 13.1803 4.46785C13.3188 4.62701 13.4669 4.64148 13.6579 4.62219C14.551 4.53537 15.3534 5.12379 15.511 6.00643C15.554 6.23794 15.6495 6.33923 15.8358 6.43569C17.837 7.46302 19.2364 9.00643 19.7952 11.2492C19.8812 11.5868 19.9337 11.9293 20.0054 12.2669C20.0006 12.7444 20.0006 13.2267 20.0006 13.7042ZM9.37849 7.26527C9.11581 7.20257 8.94387 7.02894 8.79103 6.84084C8.70984 6.73955 8.64297 6.7299 8.53312 6.78778C7.64954 7.24116 6.84237 7.791 6.17372 8.53859C5.13252 9.70096 4.5976 11.0756 4.50207 12.6238C4.40178 14.2299 4.95581 15.5659 6.16416 16.627C6.84237 17.2203 7.62088 17.635 8.46148 17.9341C10.1045 18.5177 11.7904 18.6383 13.5098 18.4212C14.7421 18.2669 15.917 17.9148 16.9868 17.2637C18.9833 16.0531 19.8 14.2781 19.4752 12.0305C19.1982 10.135 18.2621 8.6254 16.7098 7.52572C15.96 6.99518 15.1767 6.50322 14.2024 6.38746C14.4269 6.291 14.6322 6.28617 14.8376 6.29582C15.1051 6.31029 15.1242 6.28617 15.0382 6.01608C14.8854 5.53376 14.5654 5.21543 14.0734 5.11897C13.5815 5.02251 13.1468 5.1672 12.8316 5.58682C12.7934 5.63987 12.76 5.69293 12.717 5.74116C12.6836 5.78457 12.6692 5.85209 12.5833 5.86174C12.6358 5.56752 12.7648 5.32154 12.9415 5.1045C13.0274 5.00322 13.0036 4.93569 12.9224 4.86817C12.5307 4.51608 12.0866 4.39068 11.5803 4.57395C11.0979 4.74759 10.8018 5.16238 10.7779 5.68328C10.7731 5.82797 10.7779 5.97267 10.7779 6.15595C10.6346 5.89068 10.5916 5.74116 10.5821 5.51447C10.563 5.08521 10.563 5.08521 10.1283 5.09968C10.1045 5.09968 10.0806 5.09968 10.0567 5.1045C9.60297 5.16238 9.26864 5.40354 9.08237 5.8135C8.8961 6.21383 8.89133 6.61897 9.1779 6.99035C9.23043 7.08199 9.30685 7.17363 9.37849 7.26527Z" fill="#5C2920"/>
<path d="M9.37789 7.26539C9.30625 7.17375 9.23461 7.08211 9.16297 6.98565C8.8764 6.61427 8.88118 6.20912 9.06745 5.8088C9.25849 5.39883 9.59282 5.15768 10.0418 5.0998C10.0657 5.09497 10.0895 5.09498 10.1134 5.09498C10.548 5.08051 10.548 5.08051 10.5671 5.50977C10.5767 5.73645 10.6197 5.88597 10.763 6.15124C10.763 5.96797 10.7582 5.82327 10.763 5.67858C10.7821 5.15768 11.083 4.74289 11.5654 4.56925C12.0716 4.38597 12.5158 4.51137 12.9074 4.86346C12.9886 4.93581 13.0077 4.99851 12.9266 5.0998C12.7498 5.31202 12.6209 5.558 12.5683 5.85703C12.6543 5.84739 12.6686 5.77986 12.7021 5.73645C12.7403 5.68822 12.7785 5.63517 12.8167 5.58211C13.1319 5.1625 13.5666 5.0178 14.0585 5.11427C14.5504 5.21073 14.8704 5.52906 15.0233 6.01137C15.1092 6.28147 15.0901 6.30559 14.8227 6.29112C14.6173 6.28147 14.4119 6.29112 14.1874 6.38276C15.1618 6.50333 15.9451 6.99047 16.6949 7.52102C18.2471 8.6207 19.1833 10.1303 19.4603 12.0258C19.7851 14.2734 18.9731 16.0435 16.9719 17.259C15.9021 17.9101 14.7319 18.2574 13.4949 18.4165C11.7755 18.6336 10.0895 18.513 8.44655 17.9294C7.60595 17.6303 6.82745 17.2156 6.14924 16.6223C4.94088 15.566 4.38685 14.2252 4.48715 12.6191C4.58267 11.0709 5.12237 9.69144 6.15879 8.53388C6.82745 7.78629 7.63461 7.23645 8.51819 6.78308C8.63282 6.7252 8.69969 6.73485 8.7761 6.83613C8.93849 7.02906 9.11043 7.20269 9.37789 7.26539ZM9.43043 12.1416C9.30625 11.9004 8.89551 11.804 8.52774 11.9246C8.04536 12.0837 7.77789 12.5516 7.86386 13.0821C7.94028 13.5403 8.37013 13.8924 8.84774 13.8876C9.33968 13.8828 9.75043 13.5307 9.82685 13.0435C9.88416 12.6577 9.74566 12.2911 9.50685 12.2139C9.64536 12.5082 9.60715 12.7541 9.39222 12.9037C9.21551 13.0291 8.95282 13.0049 8.79998 12.8506C8.64715 12.6963 8.62327 12.4406 8.74267 12.2525C8.89073 12.0451 9.13431 12.0065 9.43043 12.1416ZM14.5409 12.1078C15.1283 12.0548 15.3289 12.1609 15.3337 12.513C15.3385 12.7927 15.1331 12.9953 14.8513 12.9856C14.5122 12.9712 14.4024 12.759 14.4549 12.2236C14.111 12.4647 14.0633 13.0821 14.3594 13.4873C14.6889 13.9358 15.3337 14.0274 15.7731 13.685C16.2125 13.3377 16.2937 12.7011 15.9451 12.2525C15.606 11.8136 14.9707 11.7509 14.5409 12.1078ZM10.3188 15.4455C10.6006 15.6191 10.8585 15.7011 11.1451 15.6625C11.446 15.6191 11.7182 15.3972 11.9904 15.3828C12.2674 15.3683 12.5445 15.6239 12.8549 15.6625C13.1319 15.6963 13.3851 15.6432 13.6048 15.4647C12.9218 15.5902 12.7498 15.566 12.1385 15.2139C12.0334 15.1561 11.9618 15.1512 11.8615 15.2139C11.5319 15.4117 11.188 15.5612 10.7868 15.5371C10.6388 15.5226 10.5098 15.4213 10.3188 15.4455ZM11.8089 7.09658C11.8137 7.49208 11.8137 7.83452 11.7421 8.16732C11.6704 8.50977 11.5319 8.82327 11.3218 9.13678C12.0573 8.81362 12.3104 7.79112 11.8089 7.09658ZM12.2866 7.44385C12.4442 8.17214 12.7928 8.48083 13.3564 8.37472C12.9457 8.09497 12.5827 7.80559 12.2866 7.44385ZM11.4173 7.39079C11.1833 7.79112 10.954 8.16732 10.5433 8.46153C11.0973 8.38919 11.4746 7.90687 11.4173 7.39079ZM12.0048 13.603C11.9092 13.6416 11.7277 13.5258 11.723 13.6995C11.7182 13.8152 11.8901 13.8538 12.0095 13.8442C12.1242 13.8393 12.2913 13.8152 12.2818 13.685C12.2722 13.5258 12.1003 13.6416 12.0048 13.603Z" fill="#FEFAF3"/>
<path d="M9.43045 12.1413C9.13433 12.0014 8.89075 12.0448 8.74747 12.257C8.62329 12.4403 8.64717 12.6959 8.80478 12.8551C8.95762 13.0094 9.21553 13.0336 9.39702 12.9082C9.60717 12.7586 9.65015 12.5127 9.51165 12.2185C9.75045 12.2956 9.88896 12.6622 9.83164 13.048C9.75523 13.5352 9.34926 13.8873 8.85254 13.8921C8.37493 13.8969 7.94508 13.54 7.86866 13.0866C7.78269 12.5609 8.05016 12.0882 8.53254 11.9291C8.89553 11.8037 9.30627 11.9001 9.43045 12.1413Z" fill="#5C2920"/>
<path d="M14.5409 12.1081C14.9707 11.7512 15.6107 11.8139 15.9451 12.2528C16.289 12.7013 16.2125 13.338 15.7731 13.6853C15.3337 14.0277 14.6889 13.9361 14.3594 13.4875C14.0633 13.0824 14.111 12.4698 14.4549 12.2238C14.4024 12.7544 14.517 12.9714 14.8513 12.9859C15.1284 12.9956 15.3385 12.793 15.3337 12.5132C15.329 12.1611 15.1284 12.0599 14.5409 12.1081Z" fill="#5C2920"/>
<path d="M10.3188 15.4455C10.5098 15.4214 10.6388 15.5275 10.7916 15.5372C11.1928 15.5661 11.5367 15.4166 11.8662 15.214C11.9665 15.1513 12.0382 15.1513 12.1433 15.214C12.7546 15.5661 12.9265 15.5902 13.6095 15.4648C13.3898 15.6385 13.1367 15.6963 12.8597 15.6626C12.5492 15.624 12.2722 15.3684 11.9952 15.3828C11.723 15.3973 11.4507 15.6192 11.1498 15.6626C10.8585 15.7012 10.6006 15.6192 10.3188 15.4455Z" fill="#5C2920"/>
<path d="M11.8089 7.09668C12.3104 7.79121 12.0573 8.81372 11.3218 9.13687C11.5319 8.82337 11.6704 8.50986 11.7421 8.16742C11.8137 7.83462 11.8137 7.49218 11.8089 7.09668Z" fill="#5C2920"/>
<path d="M12.2866 7.44336C12.5827 7.8051 12.9457 8.09449 13.3564 8.37423C12.7928 8.48034 12.4442 8.17166 12.2866 7.44336Z" fill="#5C2920"/>
<path d="M11.4173 7.39062C11.4746 7.9067 11.0973 8.38901 10.5433 8.46136C10.954 8.16715 11.1785 7.79094 11.4173 7.39062Z" fill="#5C2920"/>
<path d="M12.0048 13.6036C12.1003 13.6422 12.2675 13.5265 12.2818 13.6856C12.2913 13.8207 12.1242 13.84 12.0096 13.8448C11.8902 13.8496 11.723 13.8159 11.723 13.7001C11.7325 13.5265 11.9093 13.6422 12.0048 13.6036Z" fill="#5C2920"/>
<path d="M23.5 12C23.5 18.3513 18.3513 23.5 12 23.5C5.64873 23.5 0.5 18.3513 0.5 12C0.5 5.64873 5.64873 0.5 12 0.5C18.3513 0.5 23.5 5.64873 23.5 12Z" stroke="white" stroke-opacity="0.3"/>
</svg>
