<svg xmlns="http://www.w3.org/2000/svg" xmlns:xlink="http://www.w3.org/1999/xlink" viewBox="0 0 512 512"><defs><style>.cls-1{isolation:isolate;}.cls-2{fill:url(#linear-gradient);}.cls-3{fill:url(#linear-gradient-2);}.cls-4,.cls-7{opacity:0.43;mix-blend-mode:overlay;}.cls-5,.cls-7{fill:#fff;}.cls-6{fill:url(#linear-gradient-3);}.cls-8{fill:url(#linear-gradient-4);}.cls-9{fill:url(#linear-gradient-5);}.cls-10{fill:url(#linear-gradient-6);}.cls-11{fill:url(#linear-gradient-7);}.cls-12{fill:url(#linear-gradient-8);}.cls-13{fill:url(#linear-gradient-9);}.cls-14{fill:url(#linear-gradient-10);}.cls-15{fill:url(#linear-gradient-11);}.cls-16{fill:url(#linear-gradient-12);}.cls-17{fill:url(#linear-gradient-13);}.cls-18,.cls-19{fill:#30f3ff;}.cls-19{opacity:0.18;}</style><linearGradient id="linear-gradient" x1="47.11" y1="266.07" x2="458.82" y2="266.07" gradientUnits="userSpaceOnUse"><stop offset="0" stop-color="#2e63df"/><stop offset="1" stop-color="#591097"/></linearGradient><linearGradient id="linear-gradient-2" x1="47.4" y1="251.38" x2="459.07" y2="251.38" gradientUnits="userSpaceOnUse"><stop offset="0" stop-color="#0463df"/><stop offset="1" stop-color="#042997"/></linearGradient><linearGradient id="linear-gradient-3" x1="-1080.85" y1="71.97" x2="-1082.21" y2="351.56" gradientTransform="translate(1334.93 42.65) rotate(0.05)" gradientUnits="userSpaceOnUse"><stop offset="0" stop-color="#30f3ff"/><stop offset="1" stop-color="#089cdc"/></linearGradient><linearGradient id="linear-gradient-4" x1="99.29" y1="251.38" x2="407.18" y2="251.38" gradientUnits="userSpaceOnUse"><stop offset="0" stop-color="#44396d"/><stop offset="1" stop-color="#0463df"/></linearGradient><linearGradient id="linear-gradient-5" x1="99.29" y1="253.64" x2="407.18" y2="253.64" gradientUnits="userSpaceOnUse"><stop offset="0" stop-color="#2869cf"/><stop offset="0.78" stop-color="#089cdc"/></linearGradient><linearGradient id="linear-gradient-6" x1="354.93" y1="128.87" x2="356.5" y2="380.87" gradientUnits="userSpaceOnUse"><stop offset="0" stop-color="#0463df"/><stop offset="1" stop-color="#43396f"/></linearGradient><linearGradient id="linear-gradient-7" x1="155.77" y1="130.11" x2="157.34" y2="382.11" xlink:href="#linear-gradient-6"/><linearGradient id="linear-gradient-8" x1="215.49" y1="129.74" x2="217.05" y2="381.74" xlink:href="#linear-gradient-6"/><linearGradient id="linear-gradient-9" x1="288.97" y1="129.28" x2="290.53" y2="381.28" xlink:href="#linear-gradient-6"/><linearGradient id="linear-gradient-10" x1="355.39" y1="128.87" x2="356.95" y2="380.87" gradientUnits="userSpaceOnUse"><stop offset="0" stop-color="#fff"/><stop offset="0.32" stop-color="#f9fdff"/><stop offset="0.73" stop-color="#e9f6ff"/><stop offset="1" stop-color="#dbf0ff"/></linearGradient><linearGradient id="linear-gradient-11" x1="155.26" y1="130.11" x2="156.82" y2="382.11" xlink:href="#linear-gradient-10"/><linearGradient id="linear-gradient-12" x1="215.84" y1="129.73" x2="217.4" y2="381.73" xlink:href="#linear-gradient-10"/><linearGradient id="linear-gradient-13" x1="288.47" y1="129.28" x2="290.03" y2="381.28" xlink:href="#linear-gradient-10"/></defs><g class="cls-1"><g id="Layer_1" data-name="Layer 1"><polygon class="cls-2" points="458.79 147.08 252.93 27.64 47.11 146.62 47.14 385.05 253 504.5 458.82 385.51 458.79 147.08"/><polygon class="cls-3" points="459.07 136.67 253.24 21.58 47.4 136.29 47.4 366.08 253.23 481.18 459.07 366.47 459.07 136.67"/><g class="cls-4"><polygon class="cls-5" points="458.8 137.14 252.97 22.05 47.13 136.75 47.13 366.55 252.97 481.64 458.8 366.94 458.8 137.14"/></g><polygon class="cls-6" points="451.17 141.08 253.24 30.4 55.3 140.7 55.3 361.68 253.23 472.36 451.17 362.05 451.17 141.08"/><polygon class="cls-7" points="333.15 75.09 55.3 228.96 55.3 361.68 57.57 362.95 450.79 140.86 333.15 75.09"/><polygon class="cls-7" points="135.77 406.68 451.17 230.75 451.17 189.65 97.71 385.4 135.77 406.68"/><polygon class="cls-8" points="407.18 165.59 253.24 79.52 99.29 165.3 99.29 337.17 253.23 423.24 407.18 337.45 407.18 165.59"/><polygon class="cls-9" points="402.15 167.41 253.75 84.03 101.91 167.71 99.29 337.17 253.23 423.24 407.18 337.45 402.15 167.41"/><path class="cls-10" d="M328.59,168.26l-1.44,174.61c0,2.68,3.6,4.27,6.24,2.75l49-28.18a3.18,3.18,0,0,0,1.7-2.7l.05-15.41c0-2.3-2.74-3.91-5.33-3.13l-23.39,7c-2.62.78-5.38-.87-5.32-3.19l1-42.8a3.57,3.57,0,0,1,3.35-3.18l19.53-2.55c2-.26,2.5-2.18,2.43-3.84l-.61-16.19c-.07-1.57-2.48-2.44-4.35-2.71l-17,10.82a3.57,3.57,0,0,1-3.32-3.23l-.25-32c0-2.24,2.56-3.84,5.13-3.18l23.27,6c2.55.66,5.13-.91,5.13-3.13l.05-20.24a3.13,3.13,0,0,0-1.39-2.52L335.14,165.8C332.57,164,328.62,165.46,328.59,168.26Z"/><path class="cls-11" d="M129.13,315.49l-1-123.43a3.68,3.68,0,0,1,2.17-3.25l51-25.79c1.18-.59,2.69.15,2.63,1.29l-1.3,29a1.47,1.47,0,0,1-1.06,1.26l-29.71,10.36-.5,21.38a2.52,2.52,0,0,0,2.73,2.28l25.05-1.27a2.82,2.82,0,0,1,3.05,2.57l-.41,20.61c0,1.59-1.8,2.75-3.66,2.41l-21.63-1.41c-1.69-.31-3.29.76-3.28,2.2l.21,71.39c0,1.94-2.57,3.13-4.56,2.09l-18.38-9.61A2.42,2.42,0,0,1,129.13,315.49Z"/><path class="cls-12" d="M227.72,372.2,248.59,385c1.67,1.06,4.06,0,4-1.7l-4.24-250.59c-.11-2.3-3.24-3.59-5.49-2.26l-50.35,27.21a4.89,4.89,0,0,0-2.55,3.93L181.3,341.1a5.24,5.24,0,0,0,2.79,4.68l18.73,11c1.83,1.07,4.34,0,4.38-1.84l2.33-98.41c.05-2,2-3.7,4.41-3.81l7.27.54c2.65-.12,4.9,1.61,5,3.82l-.53,111.77A4.21,4.21,0,0,0,227.72,372.2ZM210.27,224l5.78-50.06c0-.69,1.27-.71,1.35,0l6.44,50a1.71,1.71,0,0,1-1.74,1.77h-9.71A1.82,1.82,0,0,1,210.27,224Z"/><path class="cls-13" d="M256.42,382.81l-1.63-250.58c-.07-1.72,2.14-2.82,3.93-2l18.77,8.9a2.34,2.34,0,0,1,1.24,1.33l13.44,53.37a1.47,1.47,0,0,0,2.65,0l11.84-35.75a2.8,2.8,0,0,1,3.84-1.31L322,162.6a2.17,2.17,0,0,1,1.33,1.91l1.22,182.06a5.4,5.4,0,0,1-2.77,4.56l-9,5.34c-1.92,1.16-4.62,0-4.64-2L306.6,211l-9.09,41.6c-.44,2-2.59,3.46-5.06,3.38l-6.2-.21a4.76,4.76,0,0,1-4.75-3.57l-7.06-42,.1,164.52a5.07,5.07,0,0,1-2.61,4.38l-9.89,6C259.76,386.49,256.52,385.17,256.42,382.81Z"/><path class="cls-14" d="M328.63,160.84l-.74,169.69c0,2.61,3.61,4.17,6.24,2.7L382.94,306a3,3,0,0,0,1.69-2.61l0-15c0-2.23-2.74-3.8-5.33-3.06l-23.35,6.7c-2.61.75-5.38-.87-5.33-3.12l1.28-39.69a3.46,3.46,0,0,1,3.32-3.07L372.85,244c2-.24,3.4-1.64,3.33-3.25l-.6-12.58a3.57,3.57,0,0,0-3.33-3.08L354,219.57a3.55,3.55,0,0,1-3.33-3.15l-.34-20.26c0-2.17,2.55-3.72,5.12-3.06l23.89,5.75c2.55.65,5.12-.87,5.11-3V180.28a3.06,3.06,0,0,0-1.4-2.46l-47.9-19.35C332.59,156.69,328.65,158.12,328.63,160.84Z"/><path class="cls-15" d="M129.13,303.17l-1.46-120a3.53,3.53,0,0,1,2.16-3.15l50.87-24.87c1.18-.57,2.69.15,2.64,1.27l-1.19,28.18a1.4,1.4,0,0,1-1.05,1.22l-29.65,10L151,216.6a2.53,2.53,0,0,0,2.74,2.22l25-1.14c1.69,0,3.07,1.14,3.05,2.51l-.33,20c0,1.54-1.79,2.66-3.65,2.32l-21.61-1.45c-1.7-.31-3.29.73-3.28,2.13l.49,69.38c0,1.89-2.55,3-4.53,2l-18.42-9.41A2.38,2.38,0,0,1,129.13,303.17Z"/><path class="cls-16" d="M227.79,358.53l20.51,12.7c1.67,1,4,0,4-1.65L248.3,126c-.12-2.24-3.26-3.5-5.5-2.22l-50.21,26.28a4.7,4.7,0,0,0-2.53,3.8l-7.92,174.41a5.14,5.14,0,0,0,2.81,4.56l18.76,10.74c1.83,1.05,4.34,0,4.37-1.77L210,246.15c0-2,1.95-3.58,4.39-3.68l7.27.56c2.64-.11,4.9,1.58,5,3.72l-1,108.49A4.14,4.14,0,0,0,227.79,358.53Zm-17.16-144,5.54-55.34c.05-.67,1.27-.68,1.36,0l6.65,55.35a1.67,1.67,0,0,1-1.73,1.72l-9.7,0A1.81,1.81,0,0,1,210.63,214.54Z"/><path class="cls-17" d="M256.36,369.11l-2.61-243.59c-.08-1.66,2.13-2.73,3.92-1.9l18.79,8.73a2.33,2.33,0,0,1,1.24,1.29l13.65,51.94a1.48,1.48,0,0,0,2.64,0l11.69-34.7a2.82,2.82,0,0,1,3.83-1.26L322,155.43a2.16,2.16,0,0,1,1.35,1.86l.92,176.83a5.18,5.18,0,0,1-2.75,4.42l-9,5.17c-1.9,1.13-4.61,0-4.64-1.91l-.69-139.57-8.91,40.39c-.43,2-2.58,3.35-5.05,3.26l-6.2-.22c-2.4-.09-4.41-1.56-4.75-3.49l-7.22-40.88-.63,160a4.87,4.87,0,0,1-2.59,4.25L262,371.35C259.71,372.69,256.47,371.41,256.36,369.11Z"/><polygon class="cls-18" points="99.29 337.17 253.23 422.11 407.18 337.45 253.57 425.28 99.29 337.17"/><path class="cls-19" d="M168.34,161.23l-38.51,18.83a3.53,3.53,0,0,0-2.16,3.15l.45,37.36,2.23-33.79s.39-4.17,4-5.87l34-19.68Z"/><path class="cls-19" d="M190.06,153.85l-2,43.24,4.73-39.41s.09-3.91,2.54-5.57,23.88-16,23.89-16l-26.67,14A4.7,4.7,0,0,0,190.06,153.85Z"/><path class="cls-19" d="M248.86,160.66,248.3,126c-.12-2.24-3.26-3.5-5.5-2.22l-15.06,7.88L242.46,126s3.71-.69,4.11,1.86,2.27,35,2.27,35Z"/><path class="cls-19" d="M253.75,125.52l.53,49.53,2.27-45.12s0-4.6,3.45-3.23,13.25,4.16,13.25,4.16h0l-15.58-7.24C255.88,122.79,253.67,123.86,253.75,125.52Z"/><path class="cls-19" d="M310.53,152.82a81.14,81.14,0,0,1,9.76,1.82l-10.78-5a2.82,2.82,0,0,0-3.83,1.26l-8.95,26.57h0l10-22.89A3.88,3.88,0,0,1,310.53,152.82Z"/><path class="cls-19" d="M334.74,160.6c3.62.39,30.93,10.2,30.94,10.2l-30.52-12.33c-2.57-1.78-6.51-.35-6.53,2.37l-.15,34.68,2.44-31.3S331.12,160.21,334.74,160.6Z"/></g></g></svg>