<?xml version="1.0" encoding="UTF-8"?>
<svg width="28px" height="28px" viewBox="0 0 28 28" version="1.1" xmlns="http://www.w3.org/2000/svg" xmlns:xlink="http://www.w3.org/1999/xlink">
    <!-- Generator: Sketch 52.5 (67469) - http://www.bohemiancoding.com/sketch -->
    <title>RLC</title>
    <desc>Created with Sketch.</desc>
    <defs>
        <path d="M9.0573262,9.59486631 C9.0573262,10.5491123 9.83099465,11.3227807 10.7852406,11.3227807 C11.7396364,11.3227807 12.5131551,10.5491123 12.5131551,9.59486631 C12.5131551,8.64047059 11.7396364,7.86695187 10.7852406,7.86695187 C9.83099465,7.86695187 9.0573262,8.64047059 9.0573262,9.59486631 Z" id="path-1"></path>
    </defs>
    <g id="Wallet" stroke="none" stroke-width="1" fill="none" fill-rule="evenodd">
        <g id="Artboard-Copy" transform="translate(-1578.000000, -47.000000)">
            <g id="RLC" transform="translate(1578.000000, 47.000000)">
                <g id="Group-4">
                    <path d="M17.9828578,12.2825519 C17.0495743,12.3846695 16.3602053,13.2004128 16.4151572,14.137739 C16.4308791,14.3841989 16.3077989,14.6185305 16.0962267,14.7456535 C15.9906652,14.8109369 15.8684834,14.8441775 15.7443551,14.8414824 C15.6208257,14.8402845 15.499692,14.8073433 15.3924834,14.7456535 C15.1097882,14.5831936 14.7904086,14.4951508 14.4641412,14.4896107 L14.2694888,14.4896107 C13.3421947,14.5948727 12.6637561,15.4142096 12.7332321,16.3447979 C12.748954,16.591108 12.6258738,16.8255893 12.4143016,16.9527123 C12.3087401,17.0179957 12.1865583,17.0512364 12.0624299,17.0486909 C11.948184,17.0515358 11.8358845,17.017846 11.7420021,16.9527123 C11.4629005,16.7920492 11.1477134,16.7040064 10.8256385,16.6966695 L10.6249968,16.6966695 C9.66580963,16.8161561 8.98482567,17.6905947 9.1043123,18.6499316 C9.21271872,19.5203273 9.94850481,20.1761561 10.8256385,20.1839422 L10.9753711,20.1839422 C11.8048898,20.106231 12.4629647,19.4513005 12.544569,18.622231 L12.544569,18.3227658 C12.5319914,18.0791508 12.6553711,17.8485626 12.8649968,17.7238353 C12.9705583,17.6584021 13.0927401,17.6251615 13.2168684,17.6280064 C13.3403979,17.6296535 13.4615316,17.6625947 13.5687401,17.7238353 C13.8511358,17.8862952 14.1699166,17.974338 14.495585,17.9798781 L14.6887401,17.9798781 C15.5074781,17.887493 16.1484834,17.2325626 16.2234995,16.4123273 L16.2234995,16.1231936 C16.2077775,15.8768834 16.3316064,15.6425519 16.544077,15.5167765 C16.649339,15.4508941 16.7715209,15.4170545 16.8957989,15.4194503 C17.0097455,15.4172043 17.121446,15.4513433 17.2147294,15.5167765 C17.4980235,15.6780385 17.8172535,15.7654824 18.1430717,15.7713219 L18.3348791,15.7713219 C19.2066225,15.6367123 19.8551144,14.8940385 19.8709861,14.0119636 C19.8775743,13.0497818 19.1052535,12.2633861 18.1430717,12.2526053 C18.0873711,12.2440706 18.0306225,12.2557497 17.9828578,12.2855465" id="Fill-1" fill="#F7DD4B"></path>
                    <path d="M14.3040321,10.075523 C13.3707487,10.1776406 12.6812299,10.993384 12.7361818,11.9307102 C12.7577433,12.296507 12.4787914,12.6103465 12.1131444,12.631908 C12.0972727,12.6328064 12.0814011,12.6331059 12.0653797,12.6329561 C11.9512834,12.6352021 11.8392834,12.601662 11.7451016,12.5371273 C11.4648021,12.3764642 11.1485668,12.2888706 10.8257433,12.2825818 L10.6251016,12.2825818 C9.76937968,12.3920364 9.12672727,13.1177904 9.1217861,13.9805497 C9.11504813,14.9427316 9.88751872,15.729277 10.8497005,15.739908 L11.0099144,15.739908 C11.8418289,15.6608492 12.5000535,15.001277 12.577615,14.1692128 L12.577615,13.8817262 C12.561893,13.635416 12.6849733,13.4009348 12.8965455,13.2738118 C13.002107,13.2085283 13.1242888,13.1752877 13.2484171,13.1779829 C13.3626631,13.1749882 13.4748128,13.2085283 13.5686952,13.2738118 C13.8509412,13.4367209 14.1698717,13.5253626 14.4955401,13.5313519 L14.6886952,13.5313519 C15.6487807,13.4186032 16.335754,12.5489561 16.2231551,11.5888706 C16.1202888,10.7118866 15.3801604,10.0488706 14.4970374,10.0425818 C14.4310053,10.0343465 14.3636257,10.0458759 14.3040321,10.075523" id="Fill-6" fill="#F7DD4B"></path>
                    <mask id="mask-2" fill="white">
                        <use xlink:href="#path-1"></use>
                    </mask>
                    <use id="Clip-14" fill="#F7DD4B" xlink:href="#path-1"></use>
                    <path d="M13.8667529,23.8792984 C8.42292406,23.8792984 4.00985455,19.4662289 4.00985455,14.0224 C4.00985455,8.57857112 8.42292406,4.1655016 13.8667529,4.1655016 C19.3105818,4.1655016 23.7236513,8.57857112 23.7236513,14.0224 C23.7244,19.4653305 19.3128278,23.8785497 13.8697476,23.8792984 L13.8667529,23.8792984 Z M13.8667529,0.14982246 C6.20508449,0.152966845 -0.00327914439,6.36672086 1.49732619e-05,14.0283893 C0.00330909091,21.6902075 6.2170631,27.8985711 13.8787316,27.8951273 C21.538154,27.8919829 27.7454695,21.6818225 27.7454695,14.0224 C27.7445711,6.35998289 21.5323144,0.148924064 13.8697476,0.14982246 L13.8667529,0.14982246 Z" id="Fill-16" fill="#F7DD4B"></path>
                </g>
            </g>
        </g>
    </g>
</svg>