<svg width="24" height="24" viewBox="0 0 24 24" fill="none" xmlns="http://www.w3.org/2000/svg">
<path d="M12 24C18.6274 24 24 18.6274 24 12C24 5.37258 18.6274 0 12 0C5.37258 0 0 5.37258 0 12C0 18.6274 5.37258 24 12 24Z" fill="url(#paint0_linear)"/>
<path d="M23.5 12C23.5 18.3513 18.3513 23.5 12 23.5C5.64873 23.5 0.5 18.3513 0.5 12C0.5 5.64873 5.64873 0.5 12 0.5C18.3513 0.5 23.5 5.64873 23.5 12Z" stroke="black" stroke-opacity="0.097"/>
<path d="M13.7086 19.576C13.4606 19.4332 13.3855 19.2002 13.3705 19.0049C13.3404 18.6517 13.656 18.5615 13.9416 18.4788C15.9555 17.8701 17.436 16.6227 18.3377 14.7214C18.9239 13.4965 19.1268 12.204 18.9239 10.8513C18.9013 10.6785 18.8938 10.453 18.984 10.3178C19.0667 10.19 19.3147 10.0547 19.4424 10.0923C19.6077 10.1374 19.8106 10.2351 19.8557 10.4831C19.976 11.1218 20.0436 11.7831 19.9684 12.4219C19.6077 15.7585 17.8568 18.0655 14.7306 19.313C14.4902 19.4107 14.2422 19.4933 14.0017 19.5835C13.8589 19.6286 13.7537 19.5985 13.7086 19.576Z" fill="white"/>
<path d="M7.15574 6.50884C7.98237 6.63659 8.9142 6.77937 9.85355 6.92215C12.1831 7.29038 14.5202 7.65109 16.8498 8.01931C17.1429 8.0644 17.4435 8.10949 17.7366 8.16209C18.6985 8.32742 19.0441 9.10895 18.5181 9.95061C17.7366 11.1755 16.955 12.3929 16.166 13.6103C15.0613 15.3237 13.9566 17.0371 12.8595 18.7579C12.5964 19.1713 12.2658 19.4343 11.7623 19.4042C11.2438 19.3666 10.8756 19.0811 10.6651 18.6076C9.10959 15.1433 7.54651 11.679 6.00598 8.21469C5.62273 7.35801 6.16379 6.50132 7.15574 6.50884ZM11.7623 18.773C12.2658 18.788 12.5664 18.5701 12.7918 18.2244C14.3324 15.8046 15.8729 13.3924 17.4134 10.9726C17.5412 10.7772 17.6238 10.5518 17.4285 10.4015C17.2857 10.2963 17.0377 10.2437 16.8648 10.2963C16.429 10.4165 16.0157 10.5969 15.5948 10.7622C15.2943 10.8749 15.0463 10.8148 14.8885 10.5292C14.7457 10.2662 14.8584 10.0032 15.1815 9.83037C15.6024 9.60493 16.0307 9.40203 16.4365 9.15404C16.5567 9.07889 16.6845 8.86097 16.6619 8.74073C16.6169 8.50026 16.4891 8.44014 16.3163 8.36499C16.2486 8.33493 16.1509 8.3199 16.0608 8.30487C13.2803 7.84647 10.4923 7.4031 7.70432 6.95973C7.17077 6.87706 6.66728 7.17765 6.48693 7.68114C6.35917 8.03434 6.43432 8.36499 6.58462 8.69564C7.23089 10.1234 7.86965 11.5513 8.5084 12.9716C9.25988 14.6474 10.0189 16.3231 10.7704 17.9989C10.9808 18.4573 11.3114 18.7429 11.7623 18.773Z" fill="white"/>
<path d="M5.07417 8.43993C5.47245 8.4249 5.69038 8.77058 5.52505 9.20643C5.22446 10.0255 5.04411 10.8597 5.04411 11.7314C5.03659 14.6471 6.79505 17.2322 9.5154 18.2918C9.56049 18.3068 9.6131 18.3219 9.65818 18.3444C10.064 18.5022 10.2218 18.7352 10.1166 19.0358C10.0114 19.3514 9.7183 19.4641 9.3125 19.3063C6.69736 18.3144 4.99902 16.4582 4.27008 13.7604C3.8192 12.1222 3.94695 10.4915 4.54813 8.89833C4.64582 8.65034 4.77357 8.44744 5.07417 8.43993Z" fill="white"/>
<path d="M12.0404 3.80284C14.2873 3.84041 16.2036 4.64449 17.7892 6.24514C17.947 6.40295 18.0973 6.57579 18.2251 6.76366C18.4129 7.01916 18.428 7.2897 18.1649 7.50011C17.9019 7.71052 17.6614 7.62786 17.436 7.3949C17.0377 6.99662 16.662 6.56828 16.2186 6.23011C13.8815 4.45662 10.7854 4.33639 8.29051 5.88443C8.17028 5.95958 8.01246 6.04224 7.88471 6.04224C7.65927 6.04224 7.48643 5.90698 7.4188 5.77171C7.30607 5.56881 7.4188 5.34337 7.50897 5.23816C7.59164 5.13295 7.73442 5.05029 7.86217 4.96763C9.1472 4.20112 10.5299 3.79532 12.0404 3.80284Z" fill="white"/>
<path d="M11.6196 16.3596C11.5895 16.3145 11.5745 16.2694 11.567 16.2018L10.9357 14.8416C10.56 13.8046 10.4322 13.6017 10.7328 13.4664C12.0629 12.8953 13.393 12.3242 14.7307 11.7606C14.8284 11.723 14.9561 11.7606 15.0764 11.7681C15.0538 11.8808 15.0764 12.0236 15.0162 12.1063C14.0318 13.5265 13.0398 14.9393 12.0479 16.3521C11.9427 16.5024 11.7172 16.5099 11.6196 16.3596Z" fill="white"/>
<path d="M8.55353 8.64278C10.2894 8.89077 11.9953 9.12373 13.7012 9.37172C13.7989 9.38675 13.8815 9.47692 13.9642 9.53704C13.9041 9.61971 13.859 9.73994 13.7688 9.77752C12.4537 10.3787 11.1236 10.9724 9.80099 11.566C9.59809 11.6562 9.47785 11.5811 9.38767 11.3857C9.04951 10.6041 8.6888 9.83763 8.35063 9.0561C8.2304 8.75551 8.31306 8.62775 8.55353 8.64278Z" fill="white"/>
<defs>
<linearGradient id="paint0_linear" x1="19.5" y1="2" x2="5" y2="21.5" gradientUnits="userSpaceOnUse">
<stop stop-color="#5C00DB"/>
<stop offset="1" stop-color="#920076"/>
</linearGradient>
</defs>
</svg>
