<svg width="400" height="400" viewBox="0 0 400 400" fill="none" xmlns="http://www.w3.org/2000/svg">
<circle cx="200" cy="200" r="200" fill="#131313"/>
<path fill-rule="evenodd" clip-rule="evenodd" d="M324.721 110.734C343.25 129.348 343.25 159.244 343.25 219.037V290.785C343.25 299.568 336.13 306.687 327.347 306.687C318.564 306.687 311.444 299.568 311.444 290.785V259.615C311.444 250.832 304.325 243.712 295.542 243.712C286.759 243.712 279.639 250.832 279.639 259.615V290.785C279.639 299.568 272.439 306.687 263.656 306.687C254.961 306.687 247.833 299.639 247.833 290.944C247.833 282.249 240.785 275.2 232.09 275.2H231.771C223.076 275.2 216.028 282.249 216.028 290.944C216.028 299.639 208.979 306.687 200.284 306.687H199.966C191.271 306.687 184.222 299.639 184.222 290.944C184.222 282.249 177.174 275.2 168.478 275.2L168.16 275.2C159.465 275.2 152.417 282.249 152.417 290.944C152.417 299.639 145.368 306.687 136.673 306.687H136.355C127.66 306.687 120.611 299.639 120.611 290.944C120.611 282.249 113.562 275.2 104.867 275.2H104.549C95.8543 275.2 88.8055 282.249 88.8055 290.944C88.8055 299.639 81.6777 306.687 72.9827 306.687C64.1998 306.687 57 299.568 57 290.785V219.037C57 159.244 57 129.348 75.5286 110.734C75.5969 110.665 75.6655 110.597 75.7342 110.529C94.3476 92 124.244 92 184.037 92H216.213C276.006 92 305.902 92 324.516 110.529C324.584 110.597 324.653 110.665 324.721 110.734ZM295.542 212.543C304.324 212.543 311.444 205.423 311.444 196.64C311.444 187.857 304.324 180.737 295.542 180.737C286.759 180.737 279.639 187.857 279.639 196.64C279.639 205.423 286.759 212.543 295.542 212.543Z" fill="white"/>
</svg>
