<?xml version="1.0" encoding="UTF-8" standalone="no"?>
<!DOCTYPE svg PUBLIC "-//W3C//DTD SVG 1.1//EN" "http://www.w3.org/Graphics/SVG/1.1/DTD/svg11.dtd">
<svg width="100%" height="100%" viewBox="0 0 928 928" version="1.1" xmlns="http://www.w3.org/2000/svg" xmlns:xlink="http://www.w3.org/1999/xlink" xml:space="preserve" xmlns:serif="http://www.serif.com/" style="fill-rule:evenodd;clip-rule:evenodd;stroke-linejoin:round;stroke-miterlimit:2;">
    <g transform="matrix(1,0,0,1,-443.745,-465.211)">
        <path d="M907.483,1392.68C1099.12,1392.68 1263.6,1276.43 1334.28,1110.61C1293.75,1087 1257.75,1057.52 1223.75,1025.41C1203.17,1005.99 1182.93,986.14 1160.64,968.631C1127.05,942.235 1112.06,943.027 1081.47,972.856C1072.67,981.444 1064.53,990.744 1056.37,999.96C1007.42,1055.25 953.012,1103.91 886.154,1136.71C825.541,1166.44 760.887,1183.2 694.441,1193.74C644.087,1201.72 593.583,1208.08 542.587,1209.97C541.312,1210.02 539.979,1209.9 538.737,1210.14C623.466,1321.09 757.104,1392.68 907.483,1392.68" style="fill:rgb(13,115,184);"/>
    </g>
    <g transform="matrix(1,0,0,1,-443.745,-465.211)">
        <path d="M907.483,465.211C651.366,465.211 443.745,672.832 443.745,928.948C443.745,995.752 457.912,1059.23 483.35,1116.61C492.475,1115.78 493.866,1115.78 508.649,1115.73C541.366,1115.42 573.679,1110.85 605.908,1105.91C664.229,1096.96 721.066,1082.64 775.308,1058.75C829.204,1035.02 873.529,999.877 909.454,953.015C953.124,896.057 990.866,835.294 1028.55,774.419C1042.57,751.765 1056.7,729.169 1073.67,708.536C1080.04,700.798 1086.88,693.519 1094.99,687.561C1111.55,675.39 1125.8,676.344 1140.65,690.69C1150.09,699.798 1157.14,710.727 1163.68,721.969C1182.8,754.832 1197.86,789.711 1214.11,823.994C1239.66,877.894 1265.79,931.452 1302.41,979.044C1317.09,998.123 1333.56,1015.51 1352.03,1030.95C1355.34,1033.72 1357.42,1035.37 1358.84,1035.74C1366.92,1001.46 1371.22,965.707 1371.22,928.948C1371.22,672.832 1163.6,465.211 907.483,465.211" style="fill:rgb(12,167,221);"/>
    </g>
    <g transform="matrix(1,0,0,1,-443.745,-465.211)">
        <path d="M1352.03,1030.95C1333.56,1015.51 1317.09,998.122 1302.41,979.047C1265.79,931.456 1239.66,877.893 1214.11,823.993C1197.86,789.71 1182.79,754.835 1163.68,721.968C1157.15,710.727 1150.09,699.802 1140.65,690.689C1125.79,676.343 1111.55,675.393 1094.99,687.56C1086.88,693.522 1080.04,700.797 1073.68,708.535C1056.7,729.172 1042.57,751.764 1028.55,774.418C990.869,835.293 953.123,896.056 909.456,953.014C873.527,999.877 829.202,1035.02 775.306,1058.76C721.069,1082.63 664.227,1096.96 605.906,1105.91C573.677,1110.86 541.369,1115.43 508.648,1115.73C493.865,1115.78 492.477,1115.78 483.348,1116.61C491.348,1134.65 500.485,1152.06 510.623,1168.81C511.977,1168.2 514.114,1167.84 517.269,1167.56C588.827,1161.1 660.398,1154.53 730.073,1135.66C795.956,1117.83 858.227,1091.99 910.773,1047.21C945.602,1017.53 975.494,983.081 1002.52,946.064C1024.7,915.693 1046.43,884.956 1070.39,855.922C1077.21,847.66 1084.61,840.089 1093.65,834.185C1109.43,823.877 1124.13,825.189 1138.15,838.172C1154.45,853.264 1166.31,871.864 1178.74,889.952C1210.46,936.097 1243.8,980.914 1282.98,1021.15C1301.41,1040.08 1320.73,1057.87 1343.53,1071.41C1345.43,1072.53 1346.79,1073.68 1347.74,1074.91C1351.99,1062.09 1355.71,1049.03 1358.84,1035.74C1357.42,1035.36 1355.34,1033.72 1352.03,1030.95" style="fill:white;"/>
    </g>
    <g transform="matrix(1,0,0,1,-443.745,-465.211)">
        <path d="M1347.74,1074.9C1346.79,1073.68 1345.43,1072.53 1343.53,1071.4C1320.73,1057.87 1301.41,1040.08 1282.98,1021.15C1243.8,980.912 1210.46,936.1 1178.74,889.95C1166.31,871.862 1154.45,853.267 1138.15,838.171C1124.13,825.192 1109.42,823.879 1093.65,834.187C1084.62,840.087 1077.21,847.658 1070.39,855.921C1046.42,884.958 1024.7,915.696 1002.52,946.067C975.495,983.079 945.603,1017.53 910.77,1047.22C858.224,1091.99 795.957,1117.83 730.07,1135.67C660.399,1154.53 588.828,1161.1 517.27,1167.55C514.115,1167.84 511.978,1168.2 510.624,1168.81C519.27,1183.1 528.636,1196.92 538.736,1210.14C539.565,1209.98 540.436,1209.98 541.307,1209.98C541.732,1209.98 542.165,1209.99 542.586,1209.98C593.582,1208.08 644.086,1201.73 694.44,1193.74C760.886,1183.2 825.54,1166.44 886.153,1136.71C953.011,1103.91 1007.42,1055.25 1056.37,999.962C1064.53,990.742 1072.66,981.446 1081.47,972.858C1112.06,943.025 1127.04,942.237 1160.64,968.629C1182.93,986.137 1203.17,1005.98 1223.75,1025.41C1228.01,1029.43 1232.3,1033.41 1236.63,1037.35C1266.85,1064.81 1298.82,1089.96 1334.27,1110.61C1339.24,1098.95 1343.72,1087.03 1347.74,1074.9" style="fill:rgb(182,225,245);"/>
    </g>
</svg>
