<svg width="24" height="24" viewBox="0 0 24 24" fill="none" xmlns="http://www.w3.org/2000/svg">
<path d="M12 24C18.6274 24 24 18.6274 24 12C24 5.37258 18.6274 0 12 0C5.37258 0 0 5.37258 0 12C0 18.6274 5.37258 24 12 24Z" fill="#FED700"/>
<path d="M4 18.8077C4.37392 18.7231 4.73445 18.6636 5.08082 18.5582C5.66571 18.3795 5.73773 18.1516 5.83928 17.523C5.93611 16.9247 5.86565 16.3202 5.88966 15.7191C5.91525 15.0788 6.24508 14.6245 6.78628 14.316C7.23537 14.0601 7.73209 14.0845 8.2237 14.116C8.90187 14.1593 9.57885 14.2613 10.2598 14.1723C11.1277 14.0589 11.7102 13.5937 11.9908 12.7581C12.2136 12.0949 12.46 11.4396 12.6383 10.7622C12.6796 10.6047 12.7072 10.4434 12.7402 10.2836C12.7568 10.2029 12.706 10.1478 12.6627 10.0903C12.0483 9.27241 12.1223 8.486 12.6891 7.70392C13.1346 7.08951 13.7593 6.68883 14.4075 6.3283C15.1187 5.93273 15.8693 5.6214 16.6601 5.42381C17.5413 5.20379 18.4305 5.05619 19.335 5.30337C20.2607 5.55645 20.6456 6.28933 20.5283 7.17414C20.3926 8.19789 19.8844 9.04255 19.2425 9.82187C18.7418 10.4296 18.1616 10.944 17.4642 11.314C16.4881 11.8316 15.4777 11.8985 14.4508 11.4829C14.2816 11.4144 14.2276 11.4651 14.1769 11.6001C14.0135 12.0347 13.8541 12.4708 13.6845 12.903C13.3574 13.7366 12.9244 14.4998 12.1963 15.0567C11.868 15.3078 11.491 15.4188 11.0812 15.4385C10.3924 15.472 9.73196 15.2917 9.06285 15.1756C8.57242 15.0906 8.0824 15.0162 7.57977 15.054C7.12359 15.0886 6.89216 15.3684 6.76227 15.7609C6.63868 16.1344 6.59105 16.5252 6.52532 16.9121C6.45566 17.3242 6.37654 17.7336 6.16085 18.104C5.96248 18.4444 5.66295 18.64 5.29336 18.7266C4.87536 18.825 4.4487 18.8431 4 18.8077Z" fill="white"/>
<path d="M23.5 12C23.5 18.3513 18.3513 23.5 12 23.5C5.64873 23.5 0.5 18.3513 0.5 12C0.5 5.64873 5.64873 0.5 12 0.5C18.3513 0.5 23.5 5.64873 23.5 12Z" stroke="black" stroke-opacity="0.097"/>
</svg>
