<svg width="24" height="24" viewBox="0 0 24 24" fill="none" xmlns="http://www.w3.org/2000/svg">
<path d="M12 24C18.6274 24 24 18.6274 24 12C24 5.37258 18.6274 0 12 0C5.37258 0 0 5.37258 0 12C0 18.6274 5.37258 24 12 24Z" fill="#E0E0E0"/>
<path d="M23.5 12C23.5 18.3513 18.3513 23.5 12 23.5C5.64873 23.5 0.5 18.3513 0.5 12C0.5 5.64873 5.64873 0.5 12 0.5C18.3513 0.5 23.5 5.64873 23.5 12Z" stroke="black" stroke-opacity="0.097"/>
<path d="M8.1606 20.1305L8.73874 19.6857L9.31687 19.2855L9.40606 19.2406C10.6034 19.6909 11.8947 19.8332 13.1614 19.6545C14.4281 19.4757 15.6296 18.9817 16.6556 18.2176C17.5282 17.5679 18.2531 16.7403 18.7821 15.7895C19.3112 14.8388 19.6325 13.7867 19.7247 12.7026V12.1244C19.7237 10.084 18.9127 8.12751 17.47 6.68471C16.0273 5.24191 14.0708 4.43087 12.0304 4.42976C10.2855 4.43617 8.59294 5.02651 7.22257 6.10671C5.85219 7.18692 4.88288 8.69479 4.46913 10.39L4.33575 11.1903L3.713 11.6796L3.00148 12.2133C2.97544 10.7745 3.29265 9.35008 3.92686 8.05833C4.56107 6.76658 5.49401 5.64465 6.64834 4.78538C7.80378 3.91952 9.1515 3.3459 10.5766 3.11364C12.0016 2.88137 13.4618 2.99733 14.8324 3.45148L14.0762 4.02957C15.7108 4.44929 17.1802 5.35358 18.2915 6.62358C19.4028 7.89358 20.1041 9.46996 20.3032 11.1458L20.9702 10.6563C21.2055 12.2706 21.0037 13.9185 20.3857 15.4282C19.7678 16.938 18.7563 18.2545 17.4567 19.2406C15.8951 20.3865 14.0085 21.0041 12.0716 21.0036C10.7196 21.0033 9.38434 20.7052 8.1606 20.1305ZM6.33124 19.0577L7.04546 18.0922L7.54623 18.4627L6.83201 19.4281L6.33124 19.0577ZM5.55911 18.3309L6.38577 17.46L6.83736 17.8884L6.01075 18.7596L5.55911 18.3309ZM4.82089 17.5111L5.74738 16.7488L6.14376 17.229L5.21689 17.9913L4.82089 17.5111ZM4.21377 16.5781L5.2268 15.9329L5.56101 16.4581L4.54803 17.1032L4.21377 16.5781ZM3.68402 15.6253L4.76832 15.1085L5.03508 15.6703L3.95082 16.1875L3.68402 15.6253ZM3.33761 14.5963L4.47639 14.2152L4.67416 14.806L3.53542 15.1871L3.33761 14.5963ZM3.0895 13.5383L4.26639 13.299L4.39023 13.9088L3.21335 14.1481L3.0895 13.5383Z" fill="#394245"/>
<path d="M12.03 18.617C13.3191 18.6129 14.5779 18.2265 15.6474 17.5069C16.7168 16.7873 17.5489 15.7666 18.0382 14.5741C18.5276 13.3815 18.6523 12.0706 18.3966 10.8072C18.1408 9.5438 17.5162 8.38459 16.6016 7.4762C15.687 6.56781 14.5236 5.95104 13.2585 5.7039C11.9934 5.45677 10.6834 5.59037 9.49416 6.0878C8.30497 6.58523 7.29 7.42415 6.57762 8.49847C5.86524 9.57278 5.48746 10.8342 5.49205 12.1233C5.50651 13.8487 6.20137 15.4987 7.42562 16.7147C8.64986 17.9306 10.3045 18.6143 12.03 18.617ZM12.1634 8.20923L15.4993 15.1924H13.9428L10.6516 8.20961L12.1634 8.20923ZM10.3844 10.9208L11.1405 12.5215L9.80663 15.1893H8.20596L10.3844 10.9208Z" fill="#394245"/>
</svg>
