<svg width="24" height="24" viewBox="0 0 24 24" fill="none" xmlns="http://www.w3.org/2000/svg">
<path d="M12 24C18.6274 24 24 18.6274 24 12C24 5.37258 18.6274 0 12 0C5.37258 0 0 5.37258 0 12C0 18.6274 5.37258 24 12 24Z" fill="#77D563"/>
<path d="M6.6467 13.3947C6.61353 13.336 6.5389 13.3157 6.48063 13.3493L4.03335 14.7615L3.99946 15.3874C3.92214 16.4593 4.72767 17.4308 5.79969 17.5081L8.90964 17.7323C8.99391 17.7384 9.05105 17.6482 9.00946 17.5746L6.6467 13.3947Z" fill="white"/>
<path d="M6.18808 12.7978C6.24944 12.7624 6.27088 12.6842 6.23601 12.6226L4.63922 9.79803C4.5764 9.68699 4.40773 9.72495 4.39858 9.85228L4.11705 13.7565C4.10966 13.8595 4.22029 13.9289 4.30976 13.8775L6.18808 12.7978Z" fill="white"/>
<path d="M10.6416 10.0594C10.6838 10.1338 10.7787 10.1597 10.8529 10.117L15.2313 7.60007C15.3346 7.54067 15.2987 7.38327 15.1797 7.37469L9.0892 6.93556C8.99294 6.92856 8.92766 7.03173 8.97524 7.11577L10.6416 10.0594Z" fill="white"/>
<path d="M17.1389 12.5098L18.762 15.3411C18.8152 15.4338 18.9563 15.4019 18.9644 15.2953L19.2655 11.333C19.272 11.2463 19.179 11.1874 19.1035 11.2305L17.191 12.319C17.1238 12.3572 17.1006 12.4427 17.1389 12.5098Z" fill="white"/>
<path d="M14.9622 8.64775L16.6881 11.7168C16.7294 11.7901 16.8224 11.8159 16.8955 11.7742L19.3293 10.3857L19.4014 9.63122C19.4786 8.55928 18.6982 7.62789 17.6262 7.55068L16.7205 7.47522L15.0196 8.44145C14.947 8.48273 14.9212 8.57497 14.9622 8.64775Z" fill="white"/>
<path d="M6.96597 12.31L10.0237 10.5915C10.1043 10.5462 10.1328 10.4441 10.0872 10.3637L8.12148 6.89141L6.58109 6.75434C5.56945 6.68134 4.68911 7.35131 4.52667 8.33362L6.7388 12.2466C6.78419 12.3268 6.88573 12.355 6.96597 12.31Z" fill="white"/>
<path d="M13.0132 14.0243L16.1376 12.2381C16.1901 12.208 16.2084 12.1411 16.1785 12.0885L14.3874 8.93331C14.3573 8.88035 14.2899 8.86203 14.2371 8.89253L11.1243 10.6897C11.0722 10.7199 11.0539 10.7863 11.0837 10.8388L12.8633 13.983C12.8932 14.036 12.9605 14.0544 13.0132 14.0243Z" fill="white"/>
<path d="M12.7383 15.0414C12.7049 14.9819 12.6294 14.9612 12.5702 14.9952L9.45212 16.79C9.3935 16.8238 9.37331 16.8987 9.40708 16.9574L9.88324 17.7853L14.2318 18.0973C14.3308 18.1044 14.3979 17.9986 14.3493 17.912L12.7383 15.0414Z" fill="white"/>
<path d="M18.8425 16.7852L16.6033 12.8401C16.5647 12.772 16.478 12.7486 16.4103 12.7878L13.353 14.5636C13.2863 14.6023 13.2632 14.6875 13.3012 14.7546L15.2259 18.1552L16.853 18.2725C17.815 18.3419 18.6211 17.6936 18.8425 16.7852Z" fill="white"/>
<path d="M9.93219 12.9909C9.55244 12.8891 9.1621 13.1144 9.06035 13.4941C8.95858 13.874 9.18396 14.2643 9.56371 14.3661C9.94352 14.4678 10.3338 14.2424 10.4355 13.8626C10.5373 13.4829 10.312 13.0927 9.93219 12.9909Z" fill="white"/>
<path d="M9.52826 6.60298L10.1334 6.6313C10.201 6.63448 10.2627 6.59278 10.285 6.5289L10.3467 6.26589C10.4174 6.06392 10.5786 5.88024 10.7547 5.75869C10.9615 5.61579 11.1835 5.51999 11.4283 5.53536L12.8862 5.62255C13.2147 5.64318 13.6216 5.90788 13.7939 6.23583C13.9041 6.45235 13.9417 6.65846 13.9543 6.77696C13.9607 6.83699 14.0085 6.88412 14.0687 6.88902L14.6565 6.93685C14.7268 6.94251 14.7885 6.88905 14.7914 6.81854C14.7978 6.66206 14.7708 6.35734 14.5685 5.8798C14.3573 5.34635 13.6032 4.84297 12.9691 4.80321L11.5346 4.71319C10.8208 4.66843 10.0853 5.00363 9.73741 5.65467C9.57248 5.90724 9.47093 6.27481 9.42579 6.46772C9.41015 6.53494 9.45926 6.59979 9.52826 6.60298Z" fill="white"/>
<path d="M23.5 12C23.5 18.3513 18.3513 23.5 12 23.5C5.64873 23.5 0.5 18.3513 0.5 12C0.5 5.64873 5.64873 0.5 12 0.5C18.3513 0.5 23.5 5.64873 23.5 12Z" stroke="white" stroke-opacity="0.3"/>
</svg>
