<svg width="24" height="24" viewBox="0 0 24 24" fill="none" xmlns="http://www.w3.org/2000/svg">
<path fill-rule="evenodd" clip-rule="evenodd" d="M0 12C0 5.37259 5.37259 0 12 0C18.6274 0 24 5.37259 24 12C24 18.6274 18.6274 24 12 24C5.37259 24 0 18.6274 0 12Z" fill="#5AC8DC"/>
<path d="M23.5 12C23.5 18.3513 18.3513 23.5 12 23.5C5.64873 23.5 0.5 18.3513 0.5 12C0.5 5.64873 5.64873 0.5 12 0.5C18.3513 0.5 23.5 5.64873 23.5 12Z" stroke="white" stroke-opacity="0.3"/>
<path d="M11.3482 19.0291L10.209 11.4222L5.41204 7.53651C5.41204 7.53651 3.24769 8.06811 2.74141 12.2702L7.65233 14.2954L2.01996 12.7006C2.01996 12.7006 1.56431 8.65033 5.00701 6.37207L11.3608 10.4603V19.0291H11.3482Z" fill="white"/>
<path d="M12.6518 19.0291L13.791 11.4222L18.588 7.53651C18.588 7.53651 20.7523 8.06811 21.2586 12.2702L16.3477 14.2954L21.98 12.7006C21.98 12.7006 22.4357 8.65033 18.993 6.37207L12.6518 10.4603V19.0291Z" fill="white"/>
</svg>
