<svg width="24" height="24" viewBox="0 0 24 24" fill="none" xmlns="http://www.w3.org/2000/svg">
<path d="M12 24C18.6274 24 24 18.6274 24 12C24 5.37258 18.6274 0 12 0C5.37258 0 0 5.37258 0 12C0 18.6274 5.37258 24 12 24Z" fill="url(#paint0_linear)"/>
<path d="M10.3771 5.73717C9.17024 5.73717 8.04565 7.38292 8.04565 8.29723H5.8056C5.8056 5.73717 8.38089 4.07619 9.55425 4H15.9087L16.823 5.73717H10.3771Z" fill="white"/>
<path d="M18.1944 8.29711H9.82855C9.82855 7.29138 10.6514 6.65137 11.2 6.65137H17.3258L18.1944 8.29711Z" fill="white"/>
<path d="M13.6229 18.2632C14.8297 18.2632 15.9543 16.6174 15.9543 15.7031H18.1944C18.1944 18.2632 15.6191 19.9241 14.4458 20.0003H8.09133L7.17703 18.2632H13.6229Z" fill="white"/>
<path d="M5.8056 15.7031H14.1715C14.1715 16.7089 13.3486 17.3489 12.8 17.3489H6.67419L5.8056 15.7031Z" fill="white"/>
<path fill-rule="evenodd" clip-rule="evenodd" d="M9.78864 14.3299C9.81725 14.3311 9.84579 14.3317 9.87425 14.3317H11.7241L15.9841 10.3788C15.5886 10.0678 15.172 9.83394 14.7635 9.7137L9.78864 14.3299ZM14.7367 14.3317H12.7994L16.53 10.87C16.8343 11.18 17.1148 11.5307 17.3556 11.9017L14.7367 14.3317ZM15.8121 14.3317H18.1944C18.1944 13.7685 18.0188 13.1515 17.7268 12.5551L15.8121 14.3317ZM13.7858 9.62305H11.8485L7.76821 13.4092C8.13517 13.722 8.52879 13.9721 8.92609 14.1325L13.7858 9.62305ZM8.9371 9.62305H10.7732L7.24291 12.8988C6.96325 12.5908 6.71017 12.2484 6.49708 11.8872L8.9371 9.62305ZM7.86175 9.62305H5.8056C5.8056 10.1411 5.93371 10.6831 6.1543 11.2074L7.86175 9.62305Z" fill="white"/>
<path d="M23.5 12C23.5 18.3513 18.3513 23.5 12 23.5C5.64873 23.5 0.5 18.3513 0.5 12C0.5 5.64873 5.64873 0.5 12 0.5C18.3513 0.5 23.5 5.64873 23.5 12Z" stroke="white" stroke-opacity="0.3"/>
<defs>
<linearGradient id="paint0_linear" x1="13.4938" y1="0" x2="13.4938" y2="24" gradientUnits="userSpaceOnUse">
<stop stop-color="#E48CAB"/>
<stop offset="1" stop-color="#E20050"/>
</linearGradient>
</defs>
</svg>
