<svg width="24" height="24" viewBox="0 0 24 24" fill="none" xmlns="http://www.w3.org/2000/svg">
<path d="M12 24C18.6274 24 24 18.6274 24 12C24 5.37258 18.6274 0 12 0C5.37258 0 0 5.37258 0 12C0 18.6274 5.37258 24 12 24Z" fill="#A465F9"/>
<path d="M23.5 12C23.5 18.3513 18.3513 23.5 12 23.5C5.64873 23.5 0.5 18.3513 0.5 12C0.5 5.64873 5.64873 0.5 12 0.5C18.3513 0.5 23.5 5.64873 23.5 12Z" stroke="black" stroke-opacity="0.097"/>
<path d="M12.0095 4C16.4148 3.99524 19.9952 7.57569 20 11.9905C20.0048 16.4195 16.4291 19.9952 12.0048 20C7.56615 20 4 16.4243 4 11.9714C4 7.57092 7.58045 4.00477 12.0095 4ZM15.5328 18.2074C15.5995 18.1692 15.671 18.1359 15.7378 18.0977C18.5793 16.3433 19.8331 12.8963 18.7843 9.74494C17.4207 5.64959 12.7628 3.68058 8.8963 5.54947C8.73421 5.62575 8.70083 5.7211 8.70083 5.87843C8.7056 8.20024 8.70083 10.5173 8.7056 12.8391C8.7056 12.9297 8.71514 13.0203 8.7199 13.1108C8.73421 13.1204 8.75328 13.1347 8.76758 13.1442C9.52562 12.2431 10.4791 11.6996 11.6472 11.5948C12.8248 11.4899 13.8784 11.8188 14.7843 12.5912C15.4422 13.1538 15.8856 13.8594 16.1001 14.6985C16.41 15.9476 16.1907 17.1061 15.5328 18.2074ZM15.385 15.7569C15.3802 13.9166 13.8737 12.4148 12.0429 12.4195C10.1979 12.4243 8.6913 13.9356 8.70083 15.7807C8.71037 17.6067 10.2122 19.1037 12.0334 19.1037C13.8927 19.0989 15.3945 17.6019 15.385 15.7569ZM7.86174 6.21216C6.17878 7.28487 4.45292 9.8975 4.92014 13.1299C5.21097 15.1418 7.21335 17.9785 8.62932 18.2598C8.62932 18.2455 8.63409 18.2265 8.62932 18.2169C8.61025 18.1836 8.59118 18.1454 8.57211 18.112C8.05244 17.3302 7.8522 16.472 7.85697 15.5375C7.87127 12.553 7.86174 9.56377 7.86174 6.57927C7.86174 6.47438 7.86174 6.36472 7.86174 6.21216Z" fill="white"/>
</svg>
