<svg xmlns="http://www.w3.org/2000/svg" fill="none" viewBox="0 0 200 200"><path fill="#1E1E1F" fill-rule="evenodd" d="M113.2 170.42a83.51 83.51 0 0 0 70.7-82.6 83.5 83.5 0 0 0-5.78-30.61l13.68-23.87h-28.08a83.1 83.1 0 0 0-63.2-29.06 83.1 83.1 0 0 0-63.2 29.06H8.58L22.7 57.78a83.5 83.5 0 0 0-5.55 30.05 83.51 83.51 0 0 0 70.6 82.57l12.77 22.11 12.67-22.1Z" clip-rule="evenodd"/><path fill="#EAECEF" fill-rule="evenodd" d="M100.53 7.92A78.66 78.66 0 0 0 40.61 35.6l-1.18 1.17H16.65L28.23 57.1l-.68 1.77c-3.4 8.87-6.07 18.1-6.07 28.2 0 39.77 29.03 73.14 66.94 79l1.86.3 10.34 17.79 10.06-17.78 1.87-.3c37.95-5.81 67.03-38.8 67.03-78.61 0-10.3-2.24-20.13-5.78-29.15l-.69-1.78 11.18-19.77h-22.65l-1.18-1.17a78.66 78.66 0 0 0-59.93-27.67ZM35.84 29.04A86.48 86.48 0 0 1 100.54 0a86.48 86.48 0 0 1 64.68 29.04h32.67L181.81 57.2c3.46 9.43 5.65 19.63 5.65 30.26 0 43.12-31.02 78.95-71.83 86.14L100.65 200l-15.3-26.42c-40.77-7.23-71.74-43.44-71.74-86.53 0-10.4 2.62-19.99 5.93-29.25L3 29.04h32.84Z" clip-rule="evenodd"/><path fill="#F6821F" fill-rule="evenodd" d="m31.85 45.41 68.75 120.42 8.06-14.12-27.47-48.13h24.3L72.33 45.4H31.85Zm49.19 0 44.15 77.32 7.67-13.44-28.18-49.34h8.37l23.99 42.02L145 88l-16.02-28.05h16.42l-4.43 7.76 7.81 13.7 20.57-36H81.04ZM56.3 59.95l16.62 29.11h8.67L64.97 59.95H56.3ZM44.2 84.6a56.65 56.65 0 0 0 31.05 54.12l6.32 11.01a64.45 64.45 0 0 1-45.29-61.7c0-4.97.56-9.8 1.6-14.44l6.33 11.02Zm79.65-47.9a55.46 55.46 0 0 0-23.66-5.27 55.45 55.45 0 0 0-23.65 5.26H61.5a63.26 63.26 0 0 1 38.7-13.16c14.54 0 27.95 4.9 38.7 13.16h-15.05Z" clip-rule="evenodd"/><path fill="#F6821F" d="M44.1 88.02c0-1.14.04-2.28.1-3.41l-6.3-11.02a65.26 65.26 0 0 0-1.6 14.43 64.45 64.45 0 0 0 45.28 61.71l-6.31-11a56.65 56.65 0 0 1-31.15-50.7Zm113.12 0c0-1.14-.2-2.28-.27-3.41l6.25-11.02a65.31 65.31 0 0 1 1.84 14.43 64.45 64.45 0 0 1-45.29 61.71l6.31-11a56.65 56.65 0 0 0 31.16-50.7Z"/></svg>