<svg width="24" height="24" viewBox="0 0 24 24" fill="none" xmlns="http://www.w3.org/2000/svg">
<path fill-rule="evenodd" clip-rule="evenodd" d="M0 12C0 5.37259 5.37259 0 12 0C18.6274 0 24 5.37259 24 12C24 18.6274 18.6274 24 12 24C5.37259 24 0 18.6274 0 12Z" fill="black"/>
<path d="M5.49744 15.4274H18.7835V14.3892H5.49744V15.4274Z" fill="white"/>
<path d="M12.0163 20.0017C7.5945 20.0017 4 16.4113 4 11.9978C4 7.58428 7.5945 3.99805 12.0163 3.99805C16.4381 3.99805 20.0326 7.58842 20.0326 11.9978C20.0326 16.4072 16.4339 20.0017 12.0163 20.0017ZM12.0163 5.03628C8.16946 5.03628 5.04237 8.15923 5.04237 11.9978C5.04237 15.8363 8.16946 18.9593 12.0163 18.9593C15.8631 18.9593 18.9902 15.8363 18.9902 11.9978C18.9902 8.15923 15.859 5.03628 12.0163 5.03628Z" fill="white"/>
<path d="M18.0968 5.68162C17.4598 6.5668 16.2313 8.05176 14.0142 10.1034C11.6606 12.2833 9.78267 13.3339 8.62035 13.8303C7.36703 14.3639 6.65971 14.3887 6.65558 14.3887L6.66799 15.4269C6.79622 15.4269 9.89022 15.3483 14.7256 10.8645C18.1009 7.73326 19.3377 5.80157 19.7596 4.99498C19.5238 4.73439 19.2715 4.48621 19.0109 4.25043L18.9654 4.23389C18.9613 4.24216 18.7917 4.71784 18.0968 5.68162Z" fill="white"/>
<path d="M23.5 12C23.5 18.3513 18.3513 23.5 12 23.5C5.64873 23.5 0.5 18.3513 0.5 12C0.5 5.64873 5.64873 0.5 12 0.5C18.3513 0.5 23.5 5.64873 23.5 12Z" stroke="white" stroke-opacity="0.3"/>
</svg>
