<svg width="24" height="24" viewBox="0 0 24 24" fill="none" xmlns="http://www.w3.org/2000/svg">
<path d="M12 24C18.6274 24 24 18.6274 24 12C24 5.37258 18.6274 0 12 0C5.37258 0 0 5.37258 0 12C0 18.6274 5.37258 24 12 24Z" fill="#0971F5"/>
<path d="M23.5 12C23.5 18.3513 18.3513 23.5 12 23.5C5.64873 23.5 0.5 18.3513 0.5 12C0.5 5.64873 5.64873 0.5 12 0.5C18.3513 0.5 23.5 5.64873 23.5 12Z" stroke="white" stroke-opacity="0.3"/>
<path d="M12.0019 18C9.24024 18 7 15.7069 7 12.8735C7 11.3095 8.14845 9.19387 10.4453 6.52672C10.7028 6.20938 11.1277 5.73967 11.72 5.11758C11.7929 5.04251 11.8941 5 12 5C12.1059 5 12.2071 5.04251 12.28 5.11758C12.8246 5.69937 13.2225 6.14138 13.4813 6.43983C15.8297 9.14476 17.0026 11.2855 17 12.8621C17 15.7031 14.7636 18 12.0019 18Z" fill="white"/>
</svg>
