<svg width="512" height="512" viewBox="0 0 512 512" fill="none" xmlns="http://www.w3.org/2000/svg">
<mask id="mask0" mask-type="alpha" maskUnits="userSpaceOnUse" x="0" y="0" width="512" height="512">
<circle cx="256" cy="256" r="256" fill="#C4C4C4"/>
</mask>
<g mask="url(#mask0)">
<path d="M-83.5 196.5L-6 341.5L2.5 356L263 157.5L369.5 18L263 -20.5L74.5 7.5L-83.5 196.5Z" fill="url(#paint0_linear)"/>
<path d="M61.5 282C38.7 308 -1.33333 324.5 -18.5 329.5V337.5L26.5 609L279 519.5L461 136.5V16.9999C389 9.33328 251.3 -3.60005 216.5 5.99995C173 17.9999 90 249.5 61.5 282Z" fill="url(#paint1_linear)"/>
<path d="M202.5 323C208.1 339.4 134.5 440.834 97 489.5L202.5 611.5L484.5 426C519.167 267.834 557.9 -30.7998 435.5 40.0002C282.5 128.5 195.5 302.5 202.5 323Z" fill="url(#paint2_linear)"/>
<path d="M362 421.5C344.5 480.5 271 507.5 179.5 523.5V545.5L569.5 537.5C582 362.167 585.9 35 501.5 129C396 246.5 383.485 349.065 362 421.5Z" fill="#29D9FF"/>
<circle cx="256" cy="256" r="230" fill="white"/>
</g>
<mask id="mask1" mask-type="alpha" maskUnits="userSpaceOnUse" x="95" y="86" width="326" height="351">
<path fill-rule="evenodd" clip-rule="evenodd" d="M420.554 307.657C420.298 306.052 419.374 305.128 418.174 304.235C402.972 292.939 387.774 281.63 372.603 270.283C371.242 269.268 369.81 268.513 368.245 267.899C323.743 250.514 279.238 233.133 234.76 215.684C207.659 205.053 180.688 194.067 152.412 186.778C151.212 186.472 150.075 186.137 148.825 186.239C136.037 187.254 123.246 188.242 110.463 189.272C109.484 189.351 108.441 189.241 107.356 189.925C106.868 192.431 105.33 194.806 105.283 197.8C106.62 197.8 107.733 197.792 108.842 197.8C122.79 197.949 136.741 198.142 150.693 198.213C153.765 198.228 156.605 198.865 159.445 199.967C227.916 226.536 296.379 253.118 364.897 279.561C371.907 282.268 378.42 285.615 384.584 289.91C396.175 297.997 407.975 305.781 419.87 313.809C421.27 311.681 421.207 311.681 420.554 307.657Z" fill="black"/>
<path fill-rule="evenodd" clip-rule="evenodd" d="M414.297 318.191C405.447 312.83 396.597 307.465 387.715 302.151C384.29 300.098 381.045 297.71 377.276 296.263C303.22 267.797 229.156 239.34 155.103 210.847C153.408 210.194 151.709 209.84 149.923 209.659C139.602 208.632 129.285 207.574 118.968 206.536C113.544 205.989 108.116 205.47 102.601 204.923C101.744 207.543 100.493 209.864 100.406 212.621C112.635 214.973 124.667 217.211 136.664 219.622C142.111 220.72 147.72 221.184 152.951 223.178C223.448 250.074 293.937 276.994 364.422 303.933C371.479 306.631 378.736 308.869 385.501 312.232C393.368 316.142 401.034 320.441 408.81 324.532C409.667 324.984 410.426 325.759 411.748 325.598C413.133 323.643 414.592 321.582 415.965 319.639C415.544 318.714 414.848 318.522 414.297 318.191Z" fill="black"/>
<path fill-rule="evenodd" clip-rule="evenodd" d="M176.209 244.059C166.545 240.401 156.971 236.456 147.162 233.254C136.498 229.773 125.607 227 114.81 223.932C109.72 222.489 104.623 221.077 99.2539 219.574C99.2539 222.363 99.2539 224.794 99.2539 227.736C199.715 265.523 300.148 303.299 400.743 341.137C402.761 338.278 404.641 335.615 406.694 332.696C399.551 329.53 392.88 326.203 385.95 323.563C316.058 296.998 246.128 270.534 176.209 244.059Z" fill="black"/>
<path fill-rule="evenodd" clip-rule="evenodd" d="M112.434 181.32C121.229 179.884 130.016 178.39 138.815 176.981C142.846 176.332 146.764 175.51 150.984 176.808C164.373 180.919 177.876 184.651 191.332 188.561C200.725 191.287 210.342 193.344 219.452 196.912C267.564 215.756 315.613 234.77 363.686 253.709C365.043 254.244 366.33 254.822 367.478 255.758C382.169 267.739 396.86 279.72 411.598 291.642C413.809 293.427 415.811 295.528 418.556 296.897C418.875 294.859 417.978 293.18 417.978 291.406C417.978 289.345 416.959 287.936 415.433 286.599C398.028 271.42 380.659 256.198 363.317 240.941C361.944 239.738 360.469 238.892 358.793 238.227C328.42 226.187 298.063 214.116 267.698 202.064C260.055 199.032 252.566 195.425 244.7 193.195C211.644 183.821 178.47 174.881 145.348 165.744C143.778 165.311 142.327 165.319 140.766 165.728C136.569 166.83 132.336 167.797 128.128 168.851C123.077 170.118 118.035 171.428 112.996 172.714C112.06 175.652 111.191 178.378 110.341 181.045C111.112 181.635 111.805 181.426 112.434 181.32Z" fill="black"/>
<path fill-rule="evenodd" clip-rule="evenodd" d="M171.383 266.464C160.877 262.535 150.167 259.109 139.995 254.342C127.114 248.304 114.299 242.121 101.437 236.044C100.619 235.658 99.8439 234.738 98.6089 235.41C98.6089 237.81 98.6089 240.252 98.6089 242.825C99.0062 243.088 99.4388 243.419 99.9108 243.686C113.418 251.447 126.917 259.211 140.44 266.932C141.683 267.644 143.051 268.151 144.401 268.655C181.905 282.563 219.413 296.459 256.921 310.356C298.803 325.869 340.689 341.378 382.748 356.95C386.256 354.618 389.82 352.25 393.867 349.555C392.29 348.95 391.299 348.556 390.3 348.183C317.321 320.952 244.338 293.749 171.383 266.464Z" fill="black"/>
<path fill-rule="evenodd" clip-rule="evenodd" d="M370.546 363.023C359.596 359.007 348.645 354.983 337.695 350.96C272.728 327.073 207.766 303.19 142.791 279.326C140.789 278.591 138.94 277.658 137.174 276.467C125.178 268.368 113.154 260.316 101.13 252.257C100.237 251.659 99.4421 250.857 98.0615 250.605C98.0615 253.264 98.0615 255.781 98.0615 258.66C110.817 268.541 123.589 278.429 136.36 288.326C137.43 289.155 138.646 289.647 139.912 290.111C200.241 312.118 260.559 334.157 320.88 356.183C334.434 361.131 348 366.06 361.586 371.004C365.047 368.585 368.682 366.571 371.824 363.944C371.419 363.224 370.959 363.177 370.546 363.023Z" fill="black"/>
<path fill-rule="evenodd" clip-rule="evenodd" d="M142.894 156.909C180.524 166.887 218.174 176.796 255.792 186.802C263.419 188.831 271.222 190.283 278.578 193.209C303.582 203.145 328.546 213.175 353.539 223.138C355.537 223.94 357.271 225.01 358.849 226.497C376.954 243.583 395.09 260.638 413.239 277.677C414.017 278.413 414.631 279.432 416.086 279.738C415.544 275.486 415.221 271.703 411.768 268.316C393.596 250.49 375.64 232.436 357.791 214.292C353.79 210.233 349.468 207.2 344.107 205.19C325.396 198.177 307.251 189.846 287.652 185.055C238.049 172.941 188.642 160.044 139.149 147.477C137.993 147.182 136.821 146.816 135.562 147.355C130.051 149.707 124.517 152.004 119.011 154.313C117.976 157.487 116.997 160.512 115.829 164.103C123.373 161.609 130.264 159.43 137.076 157.027C139.102 156.319 140.896 156.378 142.894 156.909Z" fill="black"/>
<path fill-rule="evenodd" clip-rule="evenodd" d="M137.977 300.236C136.475 299.693 135.192 298.973 134 297.919C122.948 288.192 111.868 278.496 100.78 268.812C99.8278 267.982 98.931 267.015 97.3892 266.421C97.3892 269.296 97.3892 271.833 97.3892 274.61C108.528 285.525 119.86 296.601 131.133 307.736C132.84 309.424 134.712 310.584 136.978 311.398C195.738 332.497 254.482 353.646 313.234 374.784C322.422 378.088 331.622 381.368 340.925 384.696C344.307 382.458 347.631 380.259 351.564 377.667C347.009 375.995 343.084 374.544 339.155 373.116C272.095 348.808 205.044 324.508 137.977 300.236Z" fill="black"/>
<path fill-rule="evenodd" clip-rule="evenodd" d="M136.073 139.583C147.728 142.494 159.422 145.259 171.092 148.111C218.319 159.643 265.554 171.136 312.762 182.767C323.319 185.367 334.136 187.106 344.146 191.696C345.908 192.506 347.379 193.497 348.701 194.905C365.445 212.715 382.217 230.502 398.984 248.284C403.641 253.217 408.306 258.137 412.967 263.062C412.786 259.408 413.199 255.844 410.517 252.863C389.607 229.64 368.784 206.34 347.977 183.031C346.939 181.87 345.763 181.245 344.323 180.911C317.561 174.641 290.81 168.375 264.052 162.094C221.592 152.127 179.12 142.199 136.691 132.094C132.703 131.142 129.34 131.217 126.158 133.829C125.988 133.966 125.815 134.108 125.481 134.387C124.47 137.569 123.404 140.913 122.142 144.881C125.823 143.052 128.903 141.566 131.932 139.984C133.304 139.269 134.539 139.198 136.073 139.583Z" fill="black"/>
<path fill-rule="evenodd" clip-rule="evenodd" d="M327.929 389.993C263.387 366.913 198.829 343.871 134.268 320.842C132.651 320.267 131.318 319.449 130.154 318.175C120.733 307.885 111.274 297.639 101.822 287.381C100.347 285.784 98.872 284.183 96.8267 281.969C96.8267 285.458 96.8267 288.077 96.8267 291.015C107.191 303.401 117.799 316.039 128.333 328.736C129.568 330.223 131.133 330.832 132.813 331.43C186.007 350.283 239.205 369.135 292.399 387.991C301.812 391.331 311.22 394.682 320.778 398.072C324.11 395.862 327.398 393.675 330.702 391.48C329.951 390.292 328.818 390.312 327.929 389.993Z" fill="black"/>
<path fill-rule="evenodd" clip-rule="evenodd" d="M130.716 340.82C128.872 340.167 127.424 339.191 126.225 337.602C120.116 329.5 113.929 321.46 107.758 313.412C104.115 308.665 100.453 303.933 96.7994 299.193C96.6106 299.244 96.4178 299.288 96.2251 299.339C96.2251 301.962 96.2251 304.586 96.2251 307.721C105.264 320.551 114.657 333.826 123.971 347.16C125.312 349.08 126.921 350.212 129.147 350.991C178.054 368.05 226.933 385.184 275.824 402.297C284.297 405.267 292.789 408.182 301.206 411.096C304.506 408.901 307.629 406.821 311.26 404.406C309.792 403.859 308.963 403.54 308.125 403.245C248.987 382.43 189.858 361.615 130.716 340.82Z" fill="black"/>
<path fill-rule="evenodd" clip-rule="evenodd" d="M231.282 147.237C269.483 155.874 307.675 164.555 345.884 173.153C347.52 173.519 348.657 174.192 349.73 175.446C369.102 198.216 388.509 220.951 407.924 243.69C408.797 244.712 409.56 245.888 410.921 246.588C410.716 241.939 409.501 238.148 406.52 234.545C389.083 213.509 371.812 192.344 354.737 171.018C351.544 167.025 348.196 164.315 343.028 163.961C341.274 163.839 339.563 163.171 337.824 162.797C305.524 155.792 273.219 148.81 240.923 141.781C208.63 134.748 176.35 127.661 144.049 120.647C143.011 120.423 141.961 119.873 140.796 120.286C137.359 121.505 133.909 122.677 129.866 124.073C131.215 124.522 131.907 124.817 132.627 124.978C165.509 132.408 198.404 139.799 231.282 147.237Z" fill="black"/>
<path fill-rule="evenodd" clip-rule="evenodd" d="M153.136 116.891C171.438 120.738 189.747 124.561 208.049 128.4C254.785 138.206 301.52 148.043 348.276 157.751C350.813 158.278 352.402 159.426 353.92 161.369C371.53 183.974 389.206 206.528 406.87 229.093C407.26 229.589 407.492 230.344 408.574 230.139C407.673 227.115 408.235 223.854 406.088 221.018C388.931 198.358 371.868 175.624 354.797 152.901C353.814 151.591 352.701 150.871 351.005 150.533C337.137 147.795 323.295 144.893 309.438 142.092C261.204 132.341 212.962 122.614 164.724 112.867C163.96 112.71 163.233 112.391 162.438 112.675C159.158 113.847 155.874 115.015 152.467 116.226C152.845 116.616 152.971 116.856 153.136 116.891Z" fill="black"/>
<path fill-rule="evenodd" clip-rule="evenodd" d="M127.766 360.274C125.351 359.44 123.64 358.173 122.22 355.955C114.416 343.762 106.439 331.682 98.498 319.579C97.7192 318.392 97.1568 317.031 95.4615 315.764C95.5362 319.119 94.2933 322.164 95.6031 324.555C98.5924 330.007 101.483 335.616 105.44 340.426C110.825 346.971 116.638 353.162 122.243 359.526C123.29 360.718 124.482 361.646 125.878 362.405C137.603 368.777 149.309 375.197 161.01 381.612C162.576 382.469 164.196 383.173 165.888 383.759C196.674 394.372 227.452 405.019 258.234 415.647C266.199 418.396 274.168 421.122 282.094 423.84C285.205 421.496 288.548 419.82 291.51 417.224C290.896 416.929 290.617 416.76 290.318 416.658C236.141 397.853 181.959 379.039 127.766 360.274Z" fill="black"/>
<path fill-rule="evenodd" clip-rule="evenodd" d="M405.348 214.415C405.608 214.305 405.875 214.194 406.139 214.084C405.317 211.162 405.651 208.066 403.692 205.289C388.336 183.554 373.071 161.752 357.83 139.929C356.713 138.336 355.395 137.605 353.507 137.255C337.412 134.289 321.336 131.225 305.257 128.2C286.876 124.743 268.492 121.301 250.116 117.84C229.442 113.946 208.761 110.06 188.095 106.13C183.599 105.277 178.073 106.406 173.778 109.336C234.276 121.144 294.641 132.932 354.699 144.657C371.75 168.143 388.545 191.279 405.348 214.415Z" fill="black"/>
<path fill-rule="evenodd" clip-rule="evenodd" d="M403.268 199.318C403.185 194.028 400.955 189.599 398.327 185.548C385.737 166.109 372.899 146.832 360.198 127.464C359.309 126.111 358.208 125.529 356.693 125.266C335.839 121.659 314.984 118.06 294.146 114.39C265.515 109.355 236.869 104.387 208.281 99.0893C202.881 98.0863 198.645 100.167 194.082 102.283C248.503 112.187 302.921 122.087 357.507 132.019C372.725 154.407 387.999 176.863 403.268 199.318Z" fill="black"/>
<path fill-rule="evenodd" clip-rule="evenodd" d="M385.965 160.748C386.205 160.598 386.437 160.453 386.677 160.303C380.872 143.705 370.578 129.568 361.465 114.606C344.571 111.86 327.642 109.139 310.725 106.354C282.81 101.76 254.884 97.2324 227.012 92.4062C221.875 91.5173 217.816 93.4328 213.481 95.541C262.388 103.848 311.299 112.159 360.096 120.451C368.785 133.989 377.379 147.37 385.965 160.748Z" fill="black"/>
<path fill-rule="evenodd" clip-rule="evenodd" d="M362.778 108.101C362.526 108.022 362.219 107.9 361.901 107.841C341.483 103.86 321.057 99.8839 300.635 95.9191C282.935 92.4814 265.216 89.1774 247.398 86.3808C241.856 85.5115 236.86 86.0307 231.452 88.9807C275.674 96.0056 319.397 102.956 363.148 109.906C363.356 109.347 363.332 108.718 362.778 108.101Z" fill="black"/>
<path fill-rule="evenodd" clip-rule="evenodd" d="M270.935 429.131C253.385 423.105 235.822 417.111 218.284 411.053C217.068 410.636 215.92 410.507 214.236 410.703C228.034 418.239 241.392 425.508 254.714 432.832C257.467 434.35 260.37 435.353 263.466 436.156C266.498 434.118 269.499 432.108 272.477 430.114C272.04 429.241 271.415 429.296 270.935 429.131Z" fill="black"/>
</mask>
<g mask="url(#mask1)">
<path d="M-29.8219 -17.263L-33.8764 147.099L-33.6293 163.905L290.873 119.624L452.303 50.7561L378.624 -35.2431L200.818 -103.809L-29.8219 -17.263Z" fill="url(#paint3_linear)"/>
<path d="M54.1838 128.608C21.5293 139.989 -21.4354 134.609 -38.836 130.496L-42.7799 137.456L-137.473 395.856L126.334 442.466L473.493 198.964L532.405 94.9938C473.542 52.8288 360.113 -26.3074 325.103 -35.1108C281.341 -46.1151 95.0018 114.381 54.1838 128.608Z" fill="url(#paint4_linear)"/>
<path d="M156.647 233.79C153.434 250.82 39.3946 302.787 -17.2237 326.642L14.4215 484.796L351.221 462.425C459.356 341.904 640.276 101.176 498.88 102.434C322.135 104.006 160.663 212.504 156.647 233.79Z" fill="url(#paint5_linear)"/>
<path d="M246.859 398.12C202.548 440.825 125.289 428.082 37.7929 396.894L26.9472 416.035L370.206 601.338C467.518 454.953 632.199 172.228 512.427 212.404C362.713 262.624 301.261 345.69 246.859 398.12Z" fill="#29D9FF"/>
</g>
<circle cx="256" cy="256" r="94" fill="white"/>
<path d="M228.564 302.4C227.596 302.4 226.76 302.048 226.056 301.344C225.352 300.64 225 299.804 225 298.836V213.564C225 212.596 225.352 211.76 226.056 211.056C226.76 210.352 227.596 210 228.564 210H254.964C255.932 210 256.768 210.352 257.472 211.056C258.176 211.76 258.528 212.596 258.528 213.564V275.34H295.092C296.06 275.34 296.896 275.692 297.6 276.396C298.304 277.1 298.656 277.936 298.656 278.904V298.836C298.656 299.804 298.304 300.64 297.6 301.344C296.896 302.048 296.06 302.4 295.092 302.4H228.564Z" fill="black"/>
<defs>
<linearGradient id="paint0_linear" x1="143" y1="-20.5" x2="143" y2="356" gradientUnits="userSpaceOnUse">
<stop stop-color="#CE08A0"/>
<stop offset="1" stop-color="#E30B96"/>
</linearGradient>
<linearGradient id="paint1_linear" x1="221.25" y1="2.59033" x2="221.25" y2="609" gradientUnits="userSpaceOnUse">
<stop stop-color="#CF0899"/>
<stop offset="1" stop-color="#B505BF"/>
</linearGradient>
<linearGradient id="paint2_linear" x1="307.982" y1="29.3237" x2="307.982" y2="611.5" gradientUnits="userSpaceOnUse">
<stop stop-color="#636BF7"/>
<stop offset="1" stop-color="#6439D2"/>
</linearGradient>
<linearGradient id="paint3_linear" x1="274.219" y1="-94.401" x2="88.6112" y2="233.169" gradientUnits="userSpaceOnUse">
<stop stop-color="#CE08A0"/>
<stop offset="1" stop-color="#E30B96"/>
</linearGradient>
<linearGradient id="paint4_linear" x1="330.917" y1="-35.7357" x2="31.9672" y2="491.864" gradientUnits="userSpaceOnUse">
<stop stop-color="#CF0899"/>
<stop offset="1" stop-color="#B505BF"/>
</linearGradient>
<linearGradient id="paint5_linear" x1="393.198" y1="30.2809" x2="106.195" y2="536.797" gradientUnits="userSpaceOnUse">
<stop stop-color="#636BF7"/>
<stop offset="1" stop-color="#6439D2"/>
</linearGradient>
</defs>
</svg>
