<?xml version="1.0" encoding="UTF-8"?>
<svg width="108px" height="108px" viewBox="0 0 108 108" version="1.1" xmlns="http://www.w3.org/2000/svg" xmlns:xlink="http://www.w3.org/1999/xlink">
    <!-- Generator: Sketch 62 (91390) - https://sketch.com -->
    <title>Req</title>
    <desc>Created with Sketch.</desc>
    <g id="Req" stroke="none" stroke-width="1" fill="none" fill-rule="evenodd">
        <circle id="Oval" fill="#FFFFFF" cx="54" cy="54" r="54"></circle>
        <g id="req" fill="#FFFFFF">
            <circle id="Oval" cx="54" cy="54" r="54"></circle>
        </g>
        <g id="Group" transform="translate(21.000000, 19.000000)">
            <path d="M-7.10542736e-15,63.348 L-7.10542736e-15,7.196 C0.046,7.076 0.096,6.96 0.106,6.826 C0.173,5.984 0.38,5.175 0.708,4.397 C1.289,3.018 2.218,1.93 3.474,1.127 C4.452,0.502 5.533,0.168 6.686,0.055 C6.878,0.067 7.069,0.073 7.253,0 L60.459,0 C60.508,0.053 60.577,0.046 60.64,0.058 C61.204,0.169 61.698,0.409 62.092,0.837 C61.998,0.867 61.936,0.939 61.869,1.006 C61.69,1.186 50.821,12.093 49.907,13.007 C49.675,13.24 49.438,13.469 49.204,13.7 C49.17,13.661 49.125,13.651 49.077,13.651 C48.982,13.649 48.888,13.648 48.793,13.648 C37.407,13.648 14.501,13.648 14.435,13.649 C14.397,13.649 14.359,13.65 14.322,13.655 C14.27,13.662 14.235,13.694 14.233,13.747 C14.229,13.87 14.227,46.519 14.227,62.721 C14.227,63.09 14.217,63.457 14.173,63.824 C14.021,65.08 13.564,66.214 12.812,67.229 C12.289,67.935 11.64,68.507 10.887,68.961 C9.925,69.54 8.877,69.86 7.764,69.979 C7.348,69.979 6.932,69.978 6.516,69.978 C6.122,69.932 5.733,69.867 5.348,69.765 C3.156,69.18 1.593,67.855 0.662,65.787 C0.358,65.111 0.178,64.399 0.106,63.66 C0.095,63.548 0.096,63.431 -7.10542736e-15,63.348" id="Fill-1" fill="#00E6A0"></path>
            <path d="M55.9836,69.9275 C54.4866,69.6445 53.1876,68.9875 52.1096,67.8985 C50.9146,66.6895 29.5516,45.3095 28.5946,44.3445 C27.8336,43.5755 27.2486,42.6925 26.8946,41.6655 C26.5386,40.6315 26.4216,39.5705 26.5576,38.4845 C26.7596,36.8725 27.4376,35.4925 28.5886,34.3455 C29.0296,33.9055 59.3406,3.5445 61.3316,1.5485 C61.5116,1.3675 61.6896,1.1855 61.8696,1.0055 C61.9356,0.9385 61.9976,0.8665 62.0926,0.8365 C62.2836,1.0105 62.4226,1.2235 62.5366,1.4525 C62.7626,1.9095 62.8566,2.3935 62.8546,2.9035 C62.8466,5.2355 62.8456,7.5675 62.8416,9.8995 C62.8376,12.1745 62.8346,14.4505 62.8326,16.7255 C62.8316,17.1705 62.8026,17.6115 62.7306,18.0505 C62.4936,19.4925 61.8586,20.7375 60.8466,21.7815 C59.8866,22.7705 43.3516,39.2795 43.3436,39.3645 C43.3966,39.4205 61.3196,57.3695 61.9856,58.0395 C62.6246,58.6815 63.1316,59.4155 63.4876,60.2505 C63.7406,60.8435 63.9246,61.4555 63.9786,62.1025 C63.9466,62.2955 63.9896,62.4815 64.0286,62.6675 L64.0286,63.3475 C63.9936,63.5355 63.9466,63.7215 63.9786,63.9145 C63.9636,64.0455 63.9566,64.1775 63.9326,64.3065 C63.6576,65.7595 62.9946,67.0065 61.9366,68.0385 C60.8776,69.0705 59.6036,69.6795 58.1516,69.9325 C57.9756,69.9635 57.7926,69.9615 57.6256,70.0345 L56.8326,70.0345 C56.7776,70.0275 56.7226,70.0245 56.6686,70.0145 C56.4416,69.9765 56.2156,69.9305 55.9836,69.9275" id="Fill-3" fill="#008C62"></path>
        </g>
    </g>
</svg>