<svg width="24" height="24" viewBox="0 0 24 24" fill="none" xmlns="http://www.w3.org/2000/svg">
<path d="M12 23.9995C18.6274 23.9995 24 18.6269 24 11.9995C24 5.37209 18.6274 -0.000488281 12 -0.000488281C5.37258 -0.000488281 0 5.37209 0 11.9995C0 18.6269 5.37258 23.9995 12 23.9995Z" fill="#1F1F1F"/>
<path d="M19.344 6H4.16943C12.5165 6.2709 13.8132 11.4321 13.4181 13.9788L19.344 6Z" fill="white"/>
<path d="M3.99996 18L19.1746 18C10.8275 17.7291 9.53082 12.5679 9.92588 10.0212L3.99996 18Z" fill="white"/>
<path d="M23.5 11.9995C23.5 18.3508 18.3513 23.4995 12 23.4995C5.64873 23.4995 0.5 18.3508 0.5 11.9995C0.5 5.64824 5.64873 0.499512 12 0.499512C18.3513 0.499512 23.5 5.64824 23.5 11.9995Z" stroke="white" stroke-opacity="0.3"/>
</svg>
