<svg width="24" height="24" viewBox="0 0 24 24" fill="none" xmlns="http://www.w3.org/2000/svg">
<path fill-rule="evenodd" clip-rule="evenodd" d="M0 12C0 5.37259 5.37259 0 12 0C18.6274 0 24 5.37259 24 12C24 18.6274 18.6274 24 12 24C5.37259 24 0 18.6274 0 12Z" fill="black"/>
<path d="M23.5 12C23.5 18.3513 18.3513 23.5 12 23.5C5.64873 23.5 0.5 18.3513 0.5 12C0.5 5.64873 5.64873 0.5 12 0.5C18.3513 0.5 23.5 5.64873 23.5 12Z" stroke="white" stroke-opacity="0.3"/>
<path d="M4.00085 13.4208C3.99365 13.7808 4.03325 14.1408 4.07645 14.4972C4.17725 15.3144 4.39326 16.0956 4.87927 16.7796C5.23567 17.28 5.68568 17.64 6.32289 17.6796C6.5389 17.694 6.7189 17.7552 6.8845 17.8812C6.9565 17.9352 7.0321 17.9856 7.10771 18.0324C8.34613 18.828 9.67815 19.3141 11.1686 19.2781C12.101 19.2565 12.9758 19.0008 13.8038 18.576C13.9298 18.5112 14.0522 18.4572 14.1998 18.4896C14.7974 18.6156 15.3266 18.432 15.8127 18.1008C16.3167 17.7588 16.6515 17.2728 16.9323 16.74C17.0583 16.4988 17.1231 16.4736 17.3751 16.5744C17.8035 16.7472 18.2211 16.7112 18.6243 16.4952C18.9411 16.326 19.2075 16.0956 19.4343 15.822C19.7475 15.4404 19.9563 15.0048 20.1435 14.5548C20.5071 13.6836 20.7087 12.7871 20.5251 11.8367C20.4459 11.4407 20.3199 11.0591 20.1291 10.7063C19.4991 9.53268 18.7611 8.43466 17.8071 7.49865C17.3031 7.00544 16.7487 6.55903 16.1763 6.14142C14.9918 5.27741 13.6778 4.8022 12.1982 4.8562C11.0282 4.8994 9.93375 5.23421 8.91134 5.80662C8.57653 5.99382 8.23453 6.17023 7.85292 6.24583C7.41011 6.33223 7.0105 6.50863 6.6397 6.76064C6.20409 7.05944 5.95569 7.46985 5.89808 7.99906C5.86208 8.35186 5.91969 8.69387 6.03489 9.02507C6.07809 9.14388 6.07809 9.22668 5.94129 9.28068C5.17087 9.59028 4.69566 10.1735 4.41846 10.9331C4.12325 11.7359 4.01165 12.5711 4.00085 13.4208Z" fill="#FBFBFB"/>
<path d="M4.00085 13.4219C4.01165 12.5723 4.11966 11.7371 4.41486 10.9343C4.69567 10.1747 5.17087 9.59147 5.93769 9.28186C6.07449 9.22786 6.07449 9.14506 6.03129 9.02626C5.91609 8.69505 5.85489 8.35664 5.89449 8.00024C5.94849 7.47103 6.20049 7.06062 6.6361 6.76182C7.00691 6.50981 7.40651 6.32981 7.84932 6.24341C8.23093 6.16781 8.57293 5.9914 8.90774 5.8042C9.93016 5.23179 11.0246 4.90058 12.1946 4.85378C13.6742 4.79618 14.9882 5.27499 16.1727 6.14261C16.7451 6.56021 17.2995 7.00662 17.8035 7.49983C18.7575 8.43585 19.4955 9.53387 20.1255 10.7075C20.3163 11.0639 20.4459 11.4419 20.5215 11.8379C20.7051 12.7883 20.5035 13.6847 20.1399 14.556C19.9527 15.006 19.7403 15.4416 19.4307 15.8232C19.2039 16.1004 18.9375 16.3308 18.6207 16.4964C18.2175 16.7124 17.8035 16.7484 17.3715 16.5756C17.1195 16.4748 17.0547 16.5 16.9287 16.7412C16.6479 17.2704 16.3131 17.7564 15.8091 18.102C15.3231 18.4332 14.7938 18.6168 14.1962 18.4908C14.0522 18.4584 13.9262 18.516 13.8002 18.5772C12.9722 18.9984 12.0974 19.2576 11.165 19.2792C9.67455 19.3152 8.33893 18.8292 7.10411 18.0336C7.02851 17.9832 6.9529 17.9364 6.8809 17.8824C6.7153 17.7564 6.5353 17.6952 6.31929 17.6808C5.68208 17.6376 5.23207 17.2776 4.87567 16.7808C4.38966 16.0968 4.17366 15.3192 4.07285 14.4984C4.03325 14.1419 3.99365 13.7855 4.00085 13.4219ZM16.9143 14.6064C16.8207 15.006 16.8567 15.402 16.9539 15.7944C16.9899 15.9384 17.0907 16.0464 17.2131 16.1292C17.4075 16.2624 17.6235 16.3272 17.8539 16.338C18.3255 16.3632 18.6783 16.1256 18.9807 15.798C19.9131 14.7756 20.2515 13.5407 20.2227 12.1907C20.2119 11.7695 20.0931 11.3663 19.8519 11.0099C19.7835 10.8587 19.7223 10.7003 19.6395 10.5527C19.0707 9.53747 18.4083 8.59785 17.5839 7.77343C17.5299 7.71943 17.4903 7.62943 17.3967 7.66903C17.3211 7.70143 17.3391 7.79143 17.3283 7.85984C17.3211 7.90664 17.3247 7.95704 17.3247 8.00384C17.3283 8.64465 17.3283 9.28546 17.3391 9.92627C17.3571 10.8515 17.3571 11.7731 17.2095 12.6875C17.1015 13.3247 16.9647 13.9583 16.9143 14.6064ZM6.13929 15.2508C6.15009 15.816 6.30489 16.3488 6.4777 16.878C6.5713 17.1696 6.7513 17.3928 6.99611 17.5692C7.24091 17.7456 7.50371 17.886 7.76652 18.0336C8.86094 18.6456 10.0238 18.9948 11.2874 18.9264C12.0218 18.8832 12.7346 18.7284 13.397 18.3972C13.5158 18.336 13.5518 18.3 13.4114 18.2208C13.2098 18.1056 13.0298 17.9544 12.8606 17.7888C12.461 17.4 12.1766 16.9284 11.8922 16.4568C11.6726 16.0932 11.4854 15.7116 11.2442 15.3624C10.859 14.5776 10.3874 13.8503 9.73215 13.2599C9.14894 12.7343 8.45773 12.4571 7.66932 12.4607C6.8881 12.4679 6.35529 12.8927 6.16449 13.6487C6.02409 14.1815 6.01689 14.7144 6.13929 15.2508ZM4.96927 16.2264C4.99087 16.3344 5.05567 16.4208 5.11327 16.5144C5.34008 16.878 5.65328 17.1372 6.06009 17.2776C6.09969 17.292 6.15369 17.3136 6.17889 17.2956C6.22569 17.2632 6.18609 17.2092 6.17529 17.166C6.14289 17.04 6.10329 16.914 6.07089 16.7844C5.83689 15.9204 5.66048 15.0492 5.72888 14.1419C5.82249 12.8963 6.36609 12.2987 7.57212 12.1367C7.76292 12.1115 7.81692 12.0431 7.82052 11.8523C7.82412 11.7227 7.76652 11.5931 7.83852 11.4383C7.87812 11.6039 7.91052 11.7407 7.93932 11.8811C7.97892 12.0683 8.09412 12.1583 8.28133 12.1583C8.39293 12.1583 8.49373 12.1835 8.59813 12.2159C9.45135 12.4895 10.1102 13.0331 10.6466 13.7351C11.201 14.4552 11.6114 15.2652 12.065 16.05C12.3998 16.6332 12.7418 17.2092 13.253 17.6664C13.9442 18.2892 14.891 18.3504 15.6327 17.814C16.1331 17.454 16.4715 16.9644 16.7235 16.41C16.7703 16.3056 16.7631 16.2012 16.7127 16.1004C16.5219 15.726 16.4679 15.3264 16.5219 14.9124C16.5975 14.3435 16.6803 13.7747 16.7667 13.2023C16.8279 12.7919 16.8927 12.3851 16.9539 11.9747C16.9755 11.8127 16.9971 11.6471 16.8387 11.5319C16.7127 11.4383 16.5831 11.3555 16.4391 11.2943C16.3095 11.2403 16.1835 11.2331 16.0899 11.3663C15.197 11.7551 14.3294 11.7443 13.5122 11.1719C13.0658 10.8587 12.6374 10.5167 12.1946 10.2035C11.4998 9.70667 10.7402 9.37186 9.86896 9.35386C9.60255 9.35026 9.43695 9.44026 9.32535 9.69587C9.14174 10.1243 8.84654 10.4699 8.44693 10.7147C8.01132 10.9847 7.57212 10.9091 7.24091 10.5203C7.04651 10.2935 6.9205 10.0307 6.8557 9.73907C6.8053 9.50866 6.7189 9.45106 6.4849 9.49066C6.08529 9.55547 5.72888 9.71747 5.43008 9.99107C5.06647 10.3259 4.85047 10.7471 4.69567 11.2079C4.30326 12.3491 4.28886 13.5155 4.45086 14.6928C4.52646 15.2364 4.66326 15.762 4.96927 16.2264ZM16.9539 9.35386C16.9539 9.09106 16.9539 8.85705 16.9539 8.62305C16.9539 8.38905 16.9179 8.14424 16.9719 7.92464C17.0835 7.47103 16.8891 7.16502 16.5759 6.88782C16.5435 6.85902 16.5183 6.82662 16.4859 6.80142C14.5418 5.18139 12.389 4.76738 10.0094 5.6926C9.82215 5.7646 9.63495 5.8402 9.46575 5.959C9.50895 6.013 9.55935 5.9914 9.60615 5.9914C10.0814 5.9698 10.553 5.9986 11.0246 6.0058C12.0182 6.0202 12.9938 6.13901 13.955 6.39821C15.2943 6.75822 16.1799 7.57903 16.5291 8.93625C16.5867 9.15946 16.7307 9.27106 16.9539 9.35386ZM8.22733 8.59425C8.60893 8.58345 8.91494 8.60145 9.21374 8.68065C9.31815 8.70945 9.42255 8.74185 9.47295 8.85345C9.54135 8.99386 9.65655 9.02266 9.80415 9.01186C9.94816 9.00106 9.98776 8.96146 9.90856 8.82825C9.46935 8.06504 9.03374 7.29823 8.59453 6.53501C8.46133 6.30821 8.32093 6.23981 8.06892 6.30461C7.68012 6.40181 7.30211 6.54221 6.9385 6.71862C6.8053 6.78342 6.7837 6.86262 6.8557 6.98862C7.06091 7.35223 7.28051 7.71583 7.45331 8.09744C7.62612 8.48265 7.83132 8.74905 8.22733 8.59425ZM12.821 10.2215C12.8318 10.2071 12.8462 10.1963 12.857 10.1819C12.7706 10.0199 12.6986 9.84707 12.6014 9.69227C11.9714 8.67345 11.4098 7.61503 10.8158 6.57461C10.5278 6.0742 10.535 6.067 9.94816 6.0886C9.70335 6.0958 9.66735 6.15341 9.78255 6.36941C10.229 7.20462 10.6754 8.03984 11.1254 8.87145C11.2946 9.18466 11.5214 9.44386 11.8562 9.58787C12.0506 9.67067 12.227 9.78227 12.3926 9.91187C12.5366 10.0163 12.6806 10.1171 12.821 10.2215ZM12.7346 6.29021C12.7022 6.30461 12.641 6.25421 12.605 6.31181C12.5762 6.36221 12.623 6.40181 12.6446 6.44141C13.6022 7.94984 14.5598 9.45826 15.5175 10.9631C15.6327 11.1467 15.7191 11.1647 15.8847 11.0603C16.0755 10.9415 16.1043 10.8407 15.9963 10.6607C15.9675 10.6139 15.9387 10.5671 15.9099 10.5239C15.0962 9.27466 14.2862 8.01824 13.5158 6.74022C13.343 6.44861 13.091 6.30101 12.7346 6.29021ZM10.7798 6.10661C10.787 6.10661 10.7186 6.09941 10.7006 6.12821C10.6646 6.17861 10.7258 6.22541 10.751 6.26861C11.4602 7.49263 12.1694 8.71665 12.875 9.94067C12.9866 10.1315 13.0838 10.3331 13.2242 10.5059C13.325 10.6283 13.4366 10.7327 13.5806 10.8011C13.6094 10.8155 13.6562 10.8263 13.6814 10.8119C13.7282 10.7831 13.6994 10.7363 13.685 10.7003C13.6634 10.6499 13.6346 10.6067 13.6058 10.5599C13.343 10.1171 13.0766 9.67427 12.8174 9.23146C12.2522 8.26304 11.6942 7.29103 11.1326 6.32261C11.0678 6.19301 10.985 6.09941 10.7798 6.10661ZM7.05731 9.63467C7.06091 9.58787 7.06811 9.55547 7.06811 9.52307C7.08611 9.11986 7.14731 9.04066 7.53611 8.97946C7.96812 8.91105 8.40373 8.86785 8.84294 8.87865C8.88254 8.87865 8.92574 8.87145 9.00494 8.86785C8.87534 8.80665 8.78534 8.78505 8.68814 8.78145C8.22373 8.76345 7.76652 8.79225 7.31291 8.90025C6.9241 8.98666 6.8233 9.26746 7.05731 9.63467Z" fill="black"/>
<path d="M4.96927 16.2266C4.66326 15.7586 4.52646 15.233 4.45086 14.6894C4.28526 13.5122 4.30326 12.3458 4.68847 11.2081C4.84327 10.7473 5.05927 10.3261 5.42288 9.99132C5.72528 9.71771 6.07809 9.55571 6.4777 9.49091C6.7117 9.45131 6.7981 9.50891 6.8485 9.73931C6.9133 10.0309 7.03931 10.2937 7.23371 10.5205C7.56132 10.9093 8.00412 10.9813 8.43973 10.7149C8.83934 10.4665 9.13454 10.1209 9.31815 9.69611C9.42615 9.44051 9.59535 9.35051 9.86176 9.35411C10.7366 9.37211 11.4926 9.70691 12.1874 10.2037C12.6302 10.5205 13.0586 10.8625 13.505 11.1721C14.3222 11.7445 15.1898 11.7553 16.0827 11.3665C16.2411 11.4637 16.3959 11.5717 16.5651 11.6545C16.6839 11.7121 16.7235 11.7877 16.7055 11.9102C16.6659 12.2054 16.6263 12.5006 16.5867 12.7958C16.5183 13.2746 16.4535 13.7498 16.3815 14.2286C16.3275 14.5814 16.2807 14.9414 16.1223 15.269C15.7155 16.1114 14.3762 16.223 13.7894 15.7442C12.983 15.0854 12.3098 14.3006 11.6402 13.5122C11.201 12.9938 10.7978 12.4394 10.265 12.0074C9.97336 11.7697 9.67455 11.5501 9.29295 11.4565C8.92574 11.3665 8.55133 11.3377 8.18413 11.2621C8.00772 11.2261 7.83492 11.0893 7.65852 11.2621C7.65132 11.2693 7.63332 11.2621 7.62252 11.2657C7.43531 11.3017 7.25171 11.3341 7.06811 11.3917C6.39849 11.5969 5.95569 12.0218 5.68568 12.6698C5.33288 13.5194 5.25727 14.387 5.39408 15.287C5.43728 15.5642 5.45528 15.845 5.43728 16.1258C5.42648 16.2914 5.32928 16.3526 5.16727 16.2986C5.10607 16.277 5.03767 16.2518 4.96927 16.2266ZM6.6793 10.3621C6.6721 10.3045 6.6361 10.2793 6.5821 10.2829C6.5353 10.2865 6.5101 10.3189 6.5137 10.3657C6.5137 10.4125 6.5389 10.4449 6.5893 10.4449C6.6433 10.4485 6.6721 10.4161 6.6793 10.3621ZM10.4522 10.7473C10.4126 10.7509 10.373 10.7653 10.3694 10.8193C10.3658 10.8661 10.3838 10.9021 10.4378 10.9093C10.4954 10.9165 10.5314 10.8913 10.535 10.8301C10.5386 10.7797 10.5098 10.7545 10.4522 10.7473ZM6.4921 9.77171C6.4921 9.71771 6.4669 9.68171 6.4093 9.67811C6.35889 9.67451 6.31569 9.68891 6.30849 9.75011C6.30489 9.81132 6.33369 9.85092 6.39849 9.85452C6.4561 9.85812 6.4849 9.82572 6.4921 9.77171ZM9.78615 10.2001C9.82935 10.1965 9.86536 10.1785 9.86896 10.1281C9.87256 10.0741 9.85095 10.0381 9.79335 10.0309C9.74295 10.0273 9.71415 10.0525 9.70695 10.0993C9.70335 10.1569 9.72855 10.1893 9.78615 10.2001ZM11.0066 10.3009C10.9922 10.2577 10.9634 10.2217 10.9058 10.2325C10.859 10.2397 10.8338 10.2721 10.841 10.3189C10.8446 10.3657 10.8734 10.3945 10.9202 10.3945C10.9742 10.3945 10.9994 10.3585 11.0066 10.3009ZM5.97729 10.4737C5.97729 10.4233 5.94849 10.3981 5.90169 10.3909C5.85129 10.3837 5.81888 10.4125 5.81528 10.4593C5.80808 10.5169 5.84049 10.5529 5.89809 10.5529C5.94849 10.5565 5.97009 10.5205 5.97729 10.4737ZM6.35529 10.7149C6.34809 10.6681 6.32649 10.6357 6.27609 10.6321C6.21489 10.6285 6.18609 10.6645 6.18969 10.7221C6.19329 10.7689 6.22209 10.7977 6.27249 10.7941C6.32649 10.7905 6.35169 10.7617 6.35529 10.7149ZM10.2974 9.72131C10.2902 9.67451 10.2578 9.64931 10.211 9.64931C10.1606 9.64931 10.1318 9.68531 10.1354 9.73211C10.1354 9.78611 10.1714 9.82212 10.229 9.81132C10.2794 9.80411 10.2974 9.76811 10.2974 9.72131ZM9.96976 10.7653C9.96976 10.7149 9.94456 10.6861 9.89776 10.6789C9.85096 10.6717 9.81495 10.6969 9.81135 10.7437C9.80415 10.8013 9.83296 10.8373 9.89056 10.8409C9.93016 10.8445 9.95896 10.8121 9.96976 10.7653ZM5.84049 9.93732C5.79368 9.94092 5.76128 9.96972 5.76128 10.0165C5.76128 10.0705 5.79368 10.1065 5.85129 10.0993C5.89809 10.0921 5.92329 10.0597 5.91969 10.0129C5.91969 9.96252 5.89089 9.93732 5.84049 9.93732Z" fill="#FCFCFC"/>
<path d="M4.9693 16.2263C5.0377 16.2515 5.1025 16.2767 5.1709 16.2983C5.32931 16.3523 5.43011 16.2911 5.44091 16.1255C5.45891 15.8447 5.44091 15.5639 5.39771 15.2867C5.2573 14.3867 5.33651 13.5191 5.68931 12.6695C5.95932 12.0214 6.40212 11.6002 7.07174 11.3914C7.25534 11.3338 7.44254 11.3014 7.62614 11.2654C7.63695 11.2618 7.65495 11.269 7.66215 11.2618C7.83855 11.0854 8.01135 11.2258 8.18775 11.2618C8.55496 11.3374 8.92937 11.3662 9.29657 11.4562C9.67818 11.5498 9.97699 11.7694 10.2686 12.007C10.8014 12.4391 11.2046 12.9935 11.6438 13.5119C12.3098 14.3039 12.9866 15.0887 13.7931 15.7439C14.3799 16.2227 15.7191 16.1111 16.1259 15.2687C16.2843 14.9411 16.3311 14.5847 16.3851 14.2283C16.4571 13.7531 16.5219 13.2743 16.5903 12.7955C16.6299 12.5003 16.6695 12.2051 16.7091 11.9098C16.7271 11.7874 16.6875 11.7118 16.5687 11.6542C16.3995 11.5714 16.2483 11.4634 16.0863 11.3662C16.1799 11.2294 16.3059 11.2366 16.4355 11.2942C16.5795 11.3554 16.7091 11.4418 16.8351 11.5318C16.9935 11.647 16.9755 11.8126 16.9503 11.9746C16.8927 12.3851 16.8243 12.7919 16.7631 13.2023C16.6803 13.7711 16.5975 14.3399 16.5183 14.9123C16.4643 15.3263 16.5147 15.7259 16.7091 16.1003C16.7631 16.2047 16.7703 16.3055 16.7199 16.4099C16.4643 16.9643 16.1295 17.4539 15.6291 17.814C14.8839 18.3504 13.9407 18.2856 13.2494 17.6663C12.7418 17.2091 12.3998 16.6331 12.0614 16.0499C11.6078 15.2651 11.1974 14.4587 10.643 13.7351C10.1066 13.0331 9.45138 12.4931 8.59456 12.2159C8.49016 12.1835 8.38936 12.1547 8.27776 12.1583C8.09055 12.1583 7.97535 12.0683 7.93575 11.881C7.90695 11.7406 7.87095 11.6038 7.83495 11.4382C7.76295 11.593 7.82055 11.7226 7.81695 11.8522C7.81335 12.043 7.75935 12.1115 7.56854 12.1367C6.36252 12.2987 5.81891 12.8963 5.72531 14.1419C5.65691 15.0491 5.83331 15.9203 6.06732 16.7843C6.10332 16.9103 6.13932 17.0363 6.17172 17.1659C6.18252 17.2091 6.22572 17.2631 6.17532 17.2955C6.15012 17.3135 6.09612 17.2883 6.05652 17.2775C5.64611 17.1407 5.33651 16.8779 5.1097 16.5143C5.0593 16.4243 4.9945 16.3343 4.9693 16.2263Z" fill="#D8D8D8"/>
<path d="M6.1393 15.2511C6.0169 14.7147 6.0277 14.1819 6.1645 13.6491C6.3589 12.8895 6.88811 12.4683 7.66933 12.4611C8.45774 12.4539 9.14895 12.7347 9.73216 13.2603C10.3874 13.8507 10.859 14.5743 11.2442 15.3627C11.1866 15.4815 11.1758 15.6183 11.0786 15.7227C10.4054 16.4607 9.60256 16.8639 8.57654 16.7739C7.75573 16.7019 7.10772 16.3347 6.58571 15.7119C6.44531 15.5463 6.3409 15.3483 6.1393 15.2511Z" fill="#FCFCFC"/>
<path d="M6.13925 15.25C6.34446 15.3472 6.44526 15.5452 6.58206 15.7072C7.10407 16.33 7.75208 16.6972 8.57289 16.7692C9.59891 16.8592 10.4053 16.4596 11.0749 15.718C11.1721 15.61 11.1829 15.4768 11.2405 15.358C11.4817 15.7072 11.6725 16.0888 11.8886 16.4524C12.173 16.924 12.4574 17.3956 12.857 17.7844C13.0262 17.9464 13.2062 18.0977 13.4078 18.2165C13.5482 18.2957 13.5122 18.3353 13.3934 18.3929C12.7274 18.7241 12.0182 18.8825 11.2837 18.9221C10.0201 18.9941 8.8573 18.6413 7.76288 18.0292C7.50008 17.8816 7.23727 17.7412 6.99247 17.5648C6.74766 17.3884 6.56766 17.1652 6.47406 16.8736C6.30125 16.348 6.14645 15.8152 6.13925 15.25Z" fill="#D8D8D8"/>
<path d="M16.9142 14.6058C16.9646 13.9578 17.1014 13.3278 17.2058 12.687C17.3535 11.7725 17.3535 10.8473 17.3355 9.9257C17.3247 9.28489 17.3247 8.64408 17.3211 8.00327C17.3211 7.95647 17.3211 7.90607 17.3247 7.85927C17.3319 7.79087 17.3175 7.70087 17.3931 7.66847C17.4867 7.62886 17.5299 7.71887 17.5803 7.77287C18.4047 8.59728 19.0707 9.5405 19.6359 10.5521C19.7187 10.6997 19.7763 10.8545 19.8483 11.0093C19.7583 11.0093 19.7727 11.0777 19.7583 11.1353C19.6899 11.4629 19.6467 11.7941 19.5423 12.1109C19.3191 12.7878 18.9987 13.407 18.5343 13.9542C18.1851 14.3682 17.7783 14.6778 17.2563 14.8362C17.1158 14.8794 17.0258 14.847 16.9682 14.7102C16.9574 14.6742 16.961 14.6238 16.9142 14.6058Z" fill="#FCFCFC"/>
<path d="M16.9143 14.6057C16.9611 14.6273 16.9575 14.6741 16.9755 14.7101C17.0295 14.8469 17.1231 14.8793 17.2635 14.8361C17.7855 14.6813 18.1923 14.3681 18.5415 13.9541C19.0059 13.4069 19.3263 12.7841 19.5495 12.1109C19.6539 11.7941 19.6935 11.4593 19.7655 11.1353C19.7763 11.0777 19.7655 11.0093 19.8555 11.0093C20.0967 11.3657 20.2191 11.7725 20.2263 12.1901C20.2551 13.5401 19.9167 14.7749 18.9843 15.7974C18.6855 16.1286 18.3327 16.3626 17.8575 16.3374C17.6271 16.3266 17.4111 16.2582 17.2167 16.1286C17.0943 16.0458 16.9935 15.9378 16.9575 15.7938C16.8603 15.4014 16.8207 15.0053 16.9143 14.6057Z" fill="#D8D8D8"/>
<path d="M16.9539 9.35284C16.7343 9.27004 16.5903 9.15844 16.5291 8.93163C16.1763 7.57441 15.2943 6.75359 13.9551 6.39359C12.9939 6.13798 12.0146 6.01558 11.021 6.00478C10.5494 5.99758 10.0742 5.96878 9.60259 5.99038C9.55939 5.99398 9.50539 6.01198 9.46219 5.95798C9.63139 5.83918 9.8186 5.76358 10.0058 5.69158C12.3854 4.76636 14.5383 5.18037 16.4859 6.8004C16.5183 6.8256 16.5435 6.8616 16.5759 6.8868C16.8891 7.164 17.0835 7.47001 16.9719 7.92362C16.9179 8.14322 16.9539 8.38802 16.9539 8.62203C16.9503 8.85603 16.9539 9.09004 16.9539 9.35284Z" fill="#F8F8F8"/>
<path d="M8.22732 8.59465C7.83131 8.74945 7.62251 8.48305 7.4497 8.09784C7.2805 7.71623 7.0609 7.35263 6.85569 6.98902C6.78369 6.85942 6.80169 6.78022 6.93849 6.71901C7.3021 6.54621 7.67651 6.40221 8.06891 6.30501C8.32092 6.24381 8.46492 6.30861 8.59452 6.53541C9.03373 7.29862 9.46934 8.06544 9.90855 8.82865C9.98415 8.96185 9.94455 9.00145 9.80414 9.01225C9.66014 9.02305 9.54134 8.99425 9.47294 8.85385C9.41894 8.74585 9.31814 8.70985 9.21373 8.68105C8.91493 8.60185 8.61252 8.58385 8.22732 8.59465Z" fill="#FBFBFB"/>
<path d="M12.821 10.2221C12.677 10.1177 12.533 10.0169 12.3926 9.90888C12.2234 9.78287 12.0506 9.67127 11.8562 9.58487C11.5214 9.44087 11.2946 9.18166 11.1254 8.86846C10.6754 8.03684 10.229 7.20163 9.78255 6.36642C9.66735 6.15041 9.70335 6.09281 9.94816 6.08561C10.535 6.06761 10.5278 6.07121 10.8158 6.57162C11.4134 7.61204 11.9714 8.67046 12.6014 9.68927C12.6986 9.84408 12.7742 10.0169 12.857 10.1789C12.8462 10.1969 12.8354 10.2113 12.821 10.2221Z" fill="#F8F8F8"/>
<path d="M12.7346 6.28959C13.091 6.30039 13.343 6.44799 13.5194 6.7396C14.2934 8.01762 15.0998 9.27044 15.9135 10.5233C15.9423 10.5701 15.9711 10.6133 15.9999 10.6601C16.1043 10.8401 16.0755 10.9409 15.8883 11.0597C15.7227 11.1641 15.6363 11.1461 15.5211 10.9625C14.5634 9.45404 13.6058 7.94922 12.6482 6.44079C12.623 6.40119 12.5798 6.36159 12.6086 6.31119C12.641 6.24999 12.7058 6.30399 12.7346 6.28959Z" fill="#F8F8F8"/>
<path d="M10.7798 6.10613C10.985 6.09893 11.0678 6.19253 11.1398 6.31494C11.6978 7.28695 12.2594 8.25537 12.8246 9.22379C13.0838 9.67019 13.3502 10.1094 13.613 10.5522C13.6418 10.599 13.6706 10.6458 13.6922 10.6926C13.7066 10.7286 13.7354 10.779 13.6886 10.8042C13.6634 10.8186 13.6166 10.8078 13.5878 10.7934C13.4438 10.725 13.3286 10.6206 13.2314 10.4982C13.0874 10.3254 12.9902 10.1274 12.8822 9.933C12.173 8.70898 11.4638 7.48496 10.7582 6.26094C10.733 6.21773 10.6754 6.17093 10.7078 6.12053C10.7186 6.09893 10.7834 6.10613 10.7798 6.10613Z" fill="#F8F8F8"/>
<path d="M7.05729 9.63462C6.82688 9.26742 6.92409 8.98661 7.31289 8.89301C7.7665 8.78501 8.22371 8.75981 8.68812 8.77421C8.78532 8.77781 8.87892 8.79941 9.00492 8.86061C8.92572 8.86781 8.88612 8.87501 8.84292 8.87141C8.40371 8.86421 7.9681 8.90741 7.5361 8.97221C7.14369 9.03341 7.08249 9.11261 7.06809 9.51582C7.06449 9.55542 7.06089 9.58782 7.05729 9.63462Z" fill="#D8D8D8"/>
<path d="M6.67927 10.362C6.67207 10.416 6.64327 10.4484 6.58927 10.4484C6.54247 10.4484 6.51727 10.416 6.51367 10.3692C6.51367 10.3224 6.53527 10.2864 6.58207 10.2864C6.63607 10.2792 6.67207 10.3044 6.67927 10.362Z" fill="black"/>
<path d="M10.4522 10.7476C10.5062 10.7548 10.5386 10.78 10.535 10.8304C10.5314 10.888 10.4954 10.9168 10.4378 10.9096C10.3874 10.9024 10.3694 10.8664 10.3694 10.8196C10.3766 10.7656 10.4126 10.7476 10.4522 10.7476Z" fill="black"/>
<path d="M6.4921 9.77185C6.4849 9.82585 6.4561 9.85825 6.3985 9.85465C6.3337 9.85105 6.3049 9.81145 6.3085 9.75025C6.3121 9.68905 6.3553 9.67465 6.4093 9.67825C6.4669 9.68545 6.4921 9.71785 6.4921 9.77185Z" fill="black"/>
<path d="M9.78613 10.2001C9.72853 10.1929 9.69973 10.1569 9.70693 10.1029C9.71053 10.0561 9.74293 10.0309 9.79333 10.0345C9.85093 10.0381 9.87253 10.0777 9.86893 10.1317C9.86533 10.1785 9.82933 10.1929 9.78613 10.2001Z" fill="black"/>
<path d="M11.0066 10.3003C11.003 10.3579 10.9742 10.3939 10.9202 10.3939C10.8734 10.3939 10.8446 10.3651 10.841 10.3183C10.8374 10.2715 10.8626 10.2391 10.9058 10.2319C10.9634 10.2211 10.9886 10.2571 11.0066 10.3003Z" fill="black"/>
<path d="M5.97726 10.4726C5.97006 10.5194 5.94486 10.5554 5.89446 10.5518C5.83686 10.5518 5.80446 10.5122 5.81166 10.4582C5.81526 10.4114 5.84766 10.3826 5.89806 10.3898C5.94846 10.397 5.98086 10.4222 5.97726 10.4726Z" fill="black"/>
<path d="M6.3553 10.7144C6.3517 10.7648 6.3265 10.79 6.27609 10.7936C6.22569 10.7972 6.19689 10.7684 6.19329 10.7216C6.18969 10.664 6.21849 10.628 6.27969 10.6316C6.3265 10.6316 6.3517 10.6676 6.3553 10.7144Z" fill="black"/>
<path d="M10.2974 9.72142C10.2938 9.76822 10.2794 9.80422 10.229 9.81142C10.1678 9.81862 10.1354 9.78622 10.1354 9.73222C10.1354 9.68901 10.1606 9.65301 10.211 9.64941C10.2578 9.64941 10.2902 9.67101 10.2974 9.72142Z" fill="black"/>
<path d="M9.96979 10.7649C9.96259 10.8117 9.93019 10.8441 9.88699 10.8405C9.83299 10.8405 9.80059 10.8009 9.80779 10.7433C9.81499 10.6965 9.84739 10.6713 9.89419 10.6785C9.94099 10.6857 9.96979 10.7181 9.96979 10.7649Z" fill="black"/>
<path d="M5.84049 9.93701C5.89089 9.93701 5.91969 9.96221 5.91969 10.009C5.92329 10.0558 5.89809 10.0882 5.85129 10.0954C5.79369 10.1026 5.76129 10.0666 5.76129 10.0126C5.76129 9.96941 5.79369 9.94061 5.84049 9.93701Z" fill="black"/>
</svg>
