<svg width="24" height="24" viewBox="0 0 24 24" fill="none" xmlns="http://www.w3.org/2000/svg">
<path d="M12 24C18.6274 24 24 18.6274 24 12C24 5.37258 18.6274 0 12 0C5.37258 0 0 5.37258 0 12C0 18.6274 5.37258 24 12 24Z" fill="#BF0000"/>
<path d="M23.5 12C23.5 18.3513 18.3513 23.5 12 23.5C5.64873 23.5 0.5 18.3513 0.5 12C0.5 5.64873 5.64873 0.5 12 0.5C18.3513 0.5 23.5 5.64873 23.5 12Z" stroke="black" stroke-opacity="0.097"/>
<path fill-rule="evenodd" clip-rule="evenodd" d="M5 10.4165H7.63528L10.4315 16.1095H7.79621L5 10.4165Z" fill="white"/>
<path fill-rule="evenodd" clip-rule="evenodd" d="M10.3913 8.94727H13.0064L10.4315 16.1088H7.7962L10.3913 8.94727Z" fill="white"/>
<path fill-rule="evenodd" clip-rule="evenodd" d="M10.3912 8.94727H13.0064L16.0038 16.1088H13.3685L10.3912 8.94727Z" fill="white"/>
<path fill-rule="evenodd" clip-rule="evenodd" d="M16.0038 16.109H13.3685L16.4464 7.37842H19.0414L16.0038 16.109Z" fill="white"/>
</svg>
