<svg version="1.1" id="Layer_1" xmlns="http://www.w3.org/2000/svg" xmlns:xlink="http://www.w3.org/1999/xlink" x="0px" y="0px"
	 viewBox="0 0 209.5 236.9" style="enable-background:new 0 0 209.5 236.9;" xml:space="preserve">
<style type="text/css">
	.st0{fill:#325CE8;}
	.st1{fill:url(#SVGID_1_);}
	.st2{fill:#FFFFFF;}
	.st3{fill:url(#SVGID_00000084496692554690103850000013317597197819623305_);}
</style>
<g>
	<path class="st0" d="M209.2,73.8v84.5c0,5.5-1.4,10.9-4.2,15.5c-2.8,4.7-6.7,8.7-11.5,11.4l-88.7,51.3l-88.7-51.3
		c-4.8-2.8-8.8-6.7-11.5-11.5c-2.7-4.8-4.3-10.1-4.3-15.5V73.8c0-5.5,1.4-10.9,4.2-15.6s6.7-8.7,11.5-11.4L89.1,4.7
		c4.8-2.8,10.2-4.3,15.6-4.3c5.5,0,11,1.5,15.6,4.3l73.3,42.3c4.7,2.7,8.7,6.7,11.4,11.4C207.8,63,209.2,68.4,209.2,73.8"/>
	
		<linearGradient id="SVGID_1_" gradientUnits="userSpaceOnUse" x1="160.541" y1="616.3589" x2="63.7377" y2="623.2919" gradientTransform="matrix(1 0 0 1 0 -474.1102)">
		<stop  offset="0" style="stop-color:#F9F9F9"/>
		<stop  offset="0.75" style="stop-color:#F9F9F9;stop-opacity:0.722"/>
		<stop  offset="1" style="stop-color:#E8EBF8;stop-opacity:0"/>
	</linearGradient>
	<path class="st1" d="M105.8,165.3c-1.1,0-2.2-0.3-3.1-0.9l-39-22.5c-0.3-0.2-0.5-0.4-0.7-0.7c-0.2-0.3-0.3-0.6-0.3-0.9v-10.3
		l38,21.9c1.6,0.9,3.3,1.3,5.1,1.3c1.8,0,3.5-0.5,5.1-1.3l32.7-18.9c2.1-1.1,4.5-1.6,6.9-1.7c3.5,0.1,6.9,1.3,9.6,3.6l-51.1,29.5
		C107.9,165,106.9,165.3,105.8,165.3"/>
	<path class="st2" d="M105.8,186.7c-3.5,0-6.8-0.9-9.8-2.6L54.3,160c-3.1-1.8-5.7-4.4-7.5-7.5c-1.8-3.1-2.7-6.6-2.7-10.2v-32.8
		c0-1,0.3-2.1,0.9-3c0.5-0.9,1.3-1.6,2.2-2.2l55.5-32c1-0.5,2-0.8,3.1-0.8c1.1,0,2.2,0.3,3.1,0.8l51,29.4c-1.4,1.2-3,2.1-4.7,2.7
		c-2.1,0.7-4.2,1-6.4,0.8s-4.3-0.8-6.2-1.9l-13.6-7.9l-18.4-10.6c-1.5-0.9-3.3-1.4-5.1-1.4c-1.8,0-3.5,0.5-5.1,1.4l-46.7,27v30.4
		c0,1.9,0.5,3.7,1.4,5.3c0.9,1.6,2.2,2.9,3.8,3.9l41.8,24.1c1.5,0.8,3.2,1.3,4.9,1.3s3.4-0.5,4.9-1.3l54.5-31.5
		c0.5,3.1,0.1,6.2-1.2,9c-1.3,2.8-3.5,5.1-6.2,6.7l-42.3,24.4C112.6,185.8,109.3,186.7,105.8,186.7"/>
	
		<linearGradient id="SVGID_00000118362146741181967000000000890025995441453477_" gradientUnits="userSpaceOnUse" x1="165.7714" y1="563.4866" x2="50.3909" y2="541.4458" gradientTransform="matrix(1 0 0 1 0 -474.1102)">
		<stop  offset="0" style="stop-color:#F9F9F9"/>
		<stop  offset="0.713" style="stop-color:#F5F6F9;stop-opacity:0.8"/>
		<stop  offset="1" style="stop-color:#E8EBF8;stop-opacity:0"/>
	</linearGradient>
	<path style="fill:url(#SVGID_00000118362146741181967000000000890025995441453477_);" d="M44.1,94.2c0.1-3.5,1.1-7,2.9-10
		c1.8-3,4.3-5.6,7.4-7.4l41.7-24c3-1.7,6.4-2.6,9.8-2.6c3.4,0,6.8,0.9,9.8,2.6l42.3,24.4c2.7,1.5,4.8,3.9,6.1,6.7
		c1.3,2.8,1.7,6,1.2,9l-54.5-31.5c-1.5-0.9-3.2-1.3-4.9-1.3c-1.7,0-3.4,0.4-4.9,1.3L44.1,94.2z"/>
</g>
</svg>
