<svg width="64" height="64" fill="none" xmlns="http://www.w3.org/2000/svg"><path d="m55.41 29.635-7.296 6.147a1.659 1.659 0 0 1-.675 2.39l1.848 9.546c.805-.208 1.536-.702 2.089-1.539a12.816 12.816 0 0 0 1.982-5.289c.17-1.251.564-2.473 1.156-3.586a12.833 12.833 0 0 0 1.482-5.469c.035-.863-.186-1.6-.587-2.2z" fill="url(#a)"/><path d="M45.342 35.906a1.637 1.637 0 0 1 2.183-.63l7.378-6.193c-1.283-1.193-3.459-1.547-5.445-.903l-12.742 4.135c-.31.1-.553.297-.716.542l9.342 3.049z" fill="url(#b)"/><path d="M43.892 45.37c1.149 1.592 2.947 2.572 4.599 2.524l-1.844-9.487a1.644 1.644 0 0 1-1.538-1.68l-9.364-3.055c.004.268.087.54.26.78l7.887 10.919z" fill="url(#c)"/><path d="m41.41 53.223-8.056-5.092a1.631 1.631 0 0 1-2.464.091l-8.438 4.721c.444.708 1.136 1.256 2.097 1.527 1.794.506 3.74.603 5.605.265a10.536 10.536 0 0 1 3.742 0c1.87.339 3.821.24 5.619-.27.826-.233 1.453-.673 1.895-1.242z" fill="url(#d)"/><path d="M32.389 45.438a1.646 1.646 0 0 1 1.27 1.89l8.145 5.134c.734-1.594.397-3.782-.827-5.48L33.123 36.09a1.354 1.354 0 0 0-.734-.516v9.864z" fill="url(#e)"/><path d="M22.97 47.017c-1.151 1.588-1.524 3.608-.969 5.17l8.42-4.692a1.648 1.648 0 0 1 1.117-1.987v-9.884c-.253.087-.485.25-.659.49l-7.908 10.903z" fill="url(#f)"/><path d="m15.886 35.782-7.295-6.147c-.401.6-.622 1.337-.587 2.2a12.83 12.83 0 0 0 1.482 5.469 10.751 10.751 0 0 1 1.156 3.586c.258 1.892.95 3.727 1.982 5.29.553.836 1.284 1.33 2.089 1.538l1.848-9.546a1.659 1.659 0 0 1-.675-2.39z" fill="url(#g)"/><path d="M15.568 47.856c1.649.048 3.445-.932 4.592-2.521l7.875-10.908a1.36 1.36 0 0 0 .26-.78l-9.35 3.052a1.647 1.647 0 0 1-1.536 1.679l-1.84 9.478z" fill="url(#h)"/><path d="M16.745 35.193a1.64 1.64 0 0 1 1.927.74l9.356-3.052a1.357 1.357 0 0 0-.717-.543l-12.761-4.14c-1.99-.644-4.168-.29-5.453.905l7.39 6.2c.08-.044.167-.08.258-.11z" fill="url(#i)"/><path d="m40.571 18.09-3.546-8.892c.689-.198 1.453-.182 2.258.118a12.65 12.65 0 0 1 4.703 3.11 10.614 10.614 0 0 0 3.027 2.216 12.676 12.676 0 0 1 4.38 3.535c.619.788.86 1.641.806 2.477l-9.58-1.179a1.649 1.649 0 0 0-.662-1.126 1.626 1.626 0 0 0-1.386-.26z" fill="url(#j)"/><path d="M39.764 18.79c-.463.64-.4 1.5.104 2.066l-5.773 7.98a1.363 1.363 0 0 1-.292-.85l.021-13.449c.004-2.096 1.012-4.064 2.538-4.92l3.585 8.96a1.66 1.66 0 0 0-.183.213z" fill="url(#k)"/><path d="M52.16 21.548c-.465 1.591-1.95 3.006-3.812 3.61l-12.782 4.155a1.352 1.352 0 0 1-.82.008l5.788-7.996a1.64 1.64 0 0 0 2.067-.949l9.559 1.172z" fill="url(#l)"/><path d="m27.46 9.198-3.547 8.892a1.626 1.626 0 0 0-1.386.26 1.65 1.65 0 0 0-.662 1.125l-9.58 1.179c-.053-.836.187-1.69.806-2.477a12.677 12.677 0 0 1 4.38-3.534 10.616 10.616 0 0 0 3.027-2.217 12.65 12.65 0 0 1 4.703-3.11c.805-.3 1.569-.316 2.258-.118z" fill="url(#m)"/><path d="M16.195 25.143c-1.86-.605-3.342-2.017-3.806-3.607l9.544-1.17a1.636 1.636 0 0 0 2.064.948l5.78 7.987a1.349 1.349 0 0 1-.819-.008l-12.763-4.15z" fill="url(#n)"/><path d="M24.639 20.867a1.654 1.654 0 0 0-.079-2.281l3.59-8.97c1.53.857 2.539 2.828 2.542 4.926l.021 13.462c.001.327-.11.62-.292.852l-5.782-7.989z" fill="url(#o)"/><defs><linearGradient id="h" x1="8" y1="43.467" x2="16.399" y2="37.938" gradientUnits="userSpaceOnUse"><stop stop-color="#9A0A0E"/><stop offset=".869" stop-color="#DA181F"/></linearGradient><linearGradient id="a" x1="45.926" y1="36.053" x2="51.068" y2="43.561" gradientUnits="userSpaceOnUse"><stop offset=".464" stop-color="#EA302A"/><stop offset="1" stop-color="#C5151B"/></linearGradient><linearGradient id="c" x1="45.926" y1="36.053" x2="51.068" y2="43.561" gradientUnits="userSpaceOnUse"><stop offset=".464" stop-color="#EA302A"/><stop offset="1" stop-color="#C5151B"/></linearGradient><linearGradient id="d" x1="31.901" y1="54.933" x2="31.901" y2="47.421" gradientUnits="userSpaceOnUse"><stop stop-color="#9E0B0F"/><stop offset="1" stop-color="#DA181F"/></linearGradient><linearGradient id="e" x1="31.901" y1="54.933" x2="31.901" y2="47.421" gradientUnits="userSpaceOnUse"><stop stop-color="#9E0B0F"/><stop offset="1" stop-color="#DA181F"/></linearGradient><linearGradient id="f" x1="31.901" y1="54.933" x2="31.901" y2="47.421" gradientUnits="userSpaceOnUse"><stop stop-color="#9E0B0F"/><stop offset="1" stop-color="#DA181F"/></linearGradient><linearGradient id="g" x1="8" y1="43.467" x2="16.399" y2="37.938" gradientUnits="userSpaceOnUse"><stop stop-color="#9A0A0E"/><stop offset=".869" stop-color="#DA181F"/></linearGradient><linearGradient id="b" x1="45.926" y1="36.053" x2="51.068" y2="43.561" gradientUnits="userSpaceOnUse"><stop offset=".464" stop-color="#EA302A"/><stop offset="1" stop-color="#C5151B"/></linearGradient><linearGradient id="i" x1="8" y1="43.467" x2="16.399" y2="37.938" gradientUnits="userSpaceOnUse"><stop stop-color="#9A0A0E"/><stop offset=".869" stop-color="#DA181F"/></linearGradient><linearGradient id="j" x1="42.963" y1="12.23" x2="33.865" y2="27.05" gradientUnits="userSpaceOnUse"><stop stop-color="#F9B198"/><stop offset="1" stop-color="#EE1C25"/></linearGradient><linearGradient id="k" x1="42.963" y1="12.23" x2="33.865" y2="27.05" gradientUnits="userSpaceOnUse"><stop stop-color="#F9B198"/><stop offset="1" stop-color="#EE1C25"/></linearGradient><linearGradient id="l" x1="42.963" y1="12.23" x2="33.865" y2="27.05" gradientUnits="userSpaceOnUse"><stop stop-color="#F9B198"/><stop offset="1" stop-color="#EE1C25"/></linearGradient><linearGradient id="m" x1="18.765" y1="13.416" x2="29.545" y2="32.585" gradientUnits="userSpaceOnUse"><stop stop-color="#EE2729"/><stop offset="1" stop-color="#EE1C25"/></linearGradient><linearGradient id="n" x1="18.765" y1="13.416" x2="29.545" y2="32.585" gradientUnits="userSpaceOnUse"><stop stop-color="#EE2729"/><stop offset="1" stop-color="#EE1C25"/></linearGradient><linearGradient id="o" x1="18.765" y1="13.416" x2="29.545" y2="32.585" gradientUnits="userSpaceOnUse"><stop stop-color="#EE2729"/><stop offset="1" stop-color="#EE1C25"/></linearGradient></defs></svg>