<svg width="1287" height="1288" viewBox="0 0 1287 1288" fill="none" xmlns="http://www.w3.org/2000/svg">
<g clip-path="url(#clip0_11_2)">
<circle cx="643.459" cy="643.901" r="643.886" fill="#1E1E1E"/>
<path d="M477.47 249.791C477.727 249.791 477.87 249.791 477.927 249.989C478.028 250.108 478.103 250.247 478.148 250.396C478.192 250.545 478.206 250.701 478.187 250.855C478.168 251.009 478.118 251.158 478.038 251.292C477.96 251.427 477.853 251.544 477.727 251.635C405.083 305.538 343.453 377.174 311.782 462.258C311.747 462.351 311.685 462.432 311.603 462.488C311.522 462.546 311.423 462.577 311.323 462.577C311.223 462.577 311.126 462.546 311.043 462.488C310.962 462.432 310.9 462.351 310.866 462.258C300.623 395.757 293.299 329.597 294.787 262.188C295.816 216.059 302.453 167.914 326.258 127.684C326.631 127.003 327.145 126.947 327.717 127.485C375.299 171.545 420.189 211.179 477.098 249.734L477.499 249.904L477.47 249.791Z" fill="#FDFAFA"/>
<path d="M731.623 251.576C731.491 251.475 731.385 251.346 731.313 251.198C731.24 251.051 731.203 250.889 731.203 250.725C731.203 250.56 731.24 250.399 731.313 250.251C731.385 250.103 731.491 249.974 731.623 249.874C783.614 212.174 833.294 171.437 880.405 127.881C880.505 127.783 880.63 127.711 880.767 127.668C880.905 127.626 881.055 127.613 881.192 127.632C881.329 127.651 881.467 127.701 881.592 127.778C881.717 127.856 881.817 127.958 881.892 128.079C896.708 152.251 903.979 178.181 907.214 207.318C912.187 250.381 912.262 293.863 907.439 336.943C903.379 371.914 897.083 413.695 888.55 462.284C888.388 463.192 888.15 463.22 887.788 462.284C886.614 459.447 885.952 455.617 885.152 453.518C855.057 371.782 799.746 305.14 731.623 251.548V251.576Z" fill="#FDFAFA"/>
<path d="M534.492 748.458C509.143 724.229 484.136 699.604 458.929 675.234C455.655 672.057 452.027 669.258 448.114 666.892C391.482 632.827 329.738 607.927 265.203 593.129C264.059 592.874 263.715 592.193 264.23 591.144C279.421 559.739 300.736 531.632 326.946 508.443C362.607 476.484 402.437 449.422 445.367 427.985C445.81 427.758 446.301 427.64 446.799 427.64C447.296 427.64 447.787 427.758 448.229 427.985C518.813 468.1 578.954 534.459 604.047 612.052C607.097 621.51 610.073 631.051 612.973 640.678C613.02 640.802 613.104 640.909 613.214 640.984C613.324 641.059 613.455 641.099 613.587 641.099C613.721 641.099 613.852 641.059 613.962 640.984C614.071 640.909 614.156 640.802 614.203 640.678C617.465 629.926 621.242 617.046 624.189 608.733C649.509 535.288 699.14 472.496 765.013 430.567C765.334 430.379 765.699 430.28 766.071 430.28C766.444 430.28 766.81 430.379 767.131 430.567C804.014 448.575 838.252 471.482 868.9 498.655C897.821 524.331 921.083 557.212 939.31 591.427C939.709 592.165 939.484 592.618 938.66 592.789C880.806 604.847 822.035 627.174 772.08 659.205C768.397 661.806 765.087 664.887 762.237 668.368C740.188 694.015 717.452 719.076 694.028 743.551C664.129 774.757 623.273 802.532 579.326 780.8C562.799 772.313 547.679 761.368 534.492 748.344M429.775 585.469C441.919 587.131 453.936 589.614 465.739 592.902C498.826 602.691 526.783 624.848 543.705 654.694C543.806 654.883 543.97 655.034 544.169 655.121C544.366 655.208 544.588 655.227 544.8 655.176C545.009 655.123 545.197 655.003 545.329 654.833C545.463 654.664 545.535 654.455 545.535 654.24C546.795 614.748 535.523 574.801 491.547 564.588C472.663 560.191 437.185 561.752 428.946 584.136C428.892 584.279 428.873 584.433 428.888 584.584C428.903 584.737 428.952 584.883 429.032 585.013C429.11 585.145 429.219 585.256 429.348 585.339C429.477 585.423 429.623 585.478 429.775 585.498M790.648 583.995C788.617 574.32 777.973 568.22 769.018 565.78C743.268 558.716 715.314 564.248 696.547 583.171C677.777 602.094 674.944 629.585 676.261 654.977C676.276 655.101 676.33 655.217 676.416 655.309C676.501 655.4 676.613 655.464 676.737 655.489C676.859 655.514 676.988 655.5 677.103 655.449C677.218 655.397 677.313 655.312 677.376 655.205C700.266 613.584 742.009 589.725 789.218 585.867C789.44 585.847 789.655 585.781 789.85 585.673C790.045 585.567 790.216 585.42 790.351 585.244C790.485 585.067 790.581 584.866 790.632 584.651C790.683 584.435 790.69 584.211 790.648 583.995ZM584.447 736.032C625.876 769.821 682.24 710.045 633.859 697.874C617.321 693.428 599.746 694.75 584.076 701.619C567.453 708.882 573.804 727.378 584.447 736.032Z" fill="#FDFAFA"/>
<path d="M850.104 975.457C850.091 975.557 850.109 975.67 850.158 975.77C850.205 975.87 850.28 975.945 850.374 976.007C850.466 976.058 850.575 976.095 850.683 976.095C850.793 976.083 850.9 976.058 850.991 975.995C909.616 941.25 958.037 891.882 991.443 832.808C994.129 828.098 996.053 822.197 998.601 817.062C998.664 816.947 998.764 816.856 998.876 816.801C999.001 816.746 999.139 816.729 999.264 816.754C999.401 816.781 999.513 816.846 999.601 816.941C999.701 817.037 999.751 817.159 999.776 817.289C1003.49 866.171 984.347 912.132 959.374 953.303C959.174 953.628 959.087 953.991 959.087 954.379V955.256C959.087 955.443 959.137 955.619 959.237 955.781C959.337 955.931 959.474 956.057 959.637 956.144C959.799 956.219 959.986 956.257 960.174 956.244C960.361 956.232 960.536 956.157 960.686 956.044C1023.97 908.585 1077.62 842.027 1101.03 765.966C1101.05 765.88 1101.12 765.805 1101.19 765.752C1101.27 765.699 1101.35 765.671 1101.45 765.671C1101.54 765.671 1101.64 765.699 1101.72 765.752C1101.79 765.805 1101.85 765.88 1101.88 765.966C1126.89 838.027 1131.61 918.258 1119.93 992.729C1109.44 1059.77 1069.12 1111.68 1006.21 1137.88C993.092 1143.49 979.075 1146.74 964.809 1147.49C938.749 1148.71 912.689 1149.18 886.616 1148.94C865.704 1148.78 844.912 1145.8 824.812 1140.08C823.936 1139.86 823.008 1139.92 822.18 1140.28C802.152 1149.48 782.868 1151.95 759.549 1152.94C704.215 1155.35 616.894 1143.86 617.666 1068.88C618.438 992.279 670.769 930.937 738.777 900.641C738.845 900.583 738.932 900.552 739.021 900.552C739.111 900.552 739.197 900.583 739.264 900.641C739.324 900.714 739.358 900.804 739.358 900.896C739.358 900.99 739.324 901.08 739.264 901.152C689.824 936.506 654.775 995.007 654.89 1056.54C654.89 1077.53 662.786 1110.44 692.942 1093.96C698.106 1091.11 702.965 1087.75 707.448 1083.95C739.563 1057.05 764.841 1023.03 781.236 984.644C809.133 918.746 794.055 840.524 759.378 779.584C759.22 779.318 759.14 779.013 759.149 778.705C759.149 778.336 759.149 778.052 759.149 777.796C759.155 777.714 759.185 777.635 759.237 777.57C759.288 777.504 759.358 777.455 759.436 777.427C759.515 777.401 759.601 777.397 759.681 777.417C759.763 777.437 759.836 777.481 759.892 777.541C788.381 809.779 812.152 845.832 830.505 884.64C844.382 913.862 851.587 942.915 850.075 975.432M824.955 940.962C823.953 940.724 823.409 940.962 823.324 942.088C819.633 981.815 809.019 1020.05 785.9 1053.36C785.836 1053.46 785.794 1053.57 785.776 1053.68C785.759 1053.8 785.766 1053.92 785.799 1054.03C785.831 1054.15 785.889 1054.25 785.965 1054.33C786.041 1054.43 786.137 1054.5 786.243 1054.55C786.489 1054.67 786.758 1054.73 787.03 1054.73C787.303 1054.73 787.573 1054.67 787.817 1054.55C834.825 1035.03 852.711 986.321 825.985 941.75C825.749 941.388 825.381 941.125 824.955 941.012V940.962Z" fill="#FDFAFA"/>
<path d="M431.32 1084.64C392.294 1055.48 373.096 1005.22 375.328 958.367C378.675 888.182 427.458 818.447 474.809 767.721C474.925 767.613 475.079 767.553 475.239 767.553C475.397 767.553 475.551 767.613 475.667 767.721C475.806 767.809 475.906 767.945 475.948 768.103C475.991 768.259 475.972 768.427 475.896 768.572C446.569 824.803 428.688 891.132 445.54 953.436C457.871 998.832 487.256 1045.69 520.874 1079.31C528.302 1086.66 536.763 1092.9 545.994 1097.84C570.17 1111.03 577.008 1084.26 577.781 1067.37C580.871 999.058 543.991 937.152 489.086 897.885C489.062 897.869 489.043 897.849 489.029 897.824C489.016 897.799 489.009 897.771 489.009 897.742C489.009 897.715 489.016 897.687 489.029 897.662C489.043 897.637 489.062 897.617 489.086 897.601C489.127 897.568 489.177 897.551 489.229 897.551C489.281 897.551 489.332 897.568 489.372 897.601C562.302 929.467 610.312 995.115 607.537 1075.71C606.22 1113.33 578.353 1149.48 538.155 1149.08C487.198 1148.65 437.843 1148.74 387.631 1149.39C381.179 1149.48 374.731 1148.96 368.376 1147.86C348.09 1144.33 364.685 1125.76 372.009 1120.05C389.65 1106.25 409.667 1095.72 431.091 1088.99C431.644 1088.81 432.122 1088.46 432.449 1088C432.776 1087.52 432.933 1086.95 432.893 1086.38C432.893 1085.98 432.35 1085.42 431.32 1084.64ZM398.475 988.957C407.258 1036.64 447.742 1076.13 484.852 1106.03C485.367 1106.47 485.768 1106.53 486.054 1106.21C486.277 1105.93 486.418 1105.61 486.458 1105.27C486.5 1104.92 486.438 1104.57 486.282 1104.26C470.623 1075.69 455.659 1046.69 441.391 1017.27C427.686 989.47 417.215 963.023 412.78 933.885C412.664 932.521 412.2 931.22 411.434 930.081C411.272 929.855 411.051 929.668 410.794 929.542C410.536 929.417 410.251 929.355 409.965 929.367C409.678 929.38 409.401 929.467 409.157 929.617C408.915 929.768 408.714 929.98 408.574 930.231C398.019 947.904 394.422 968.818 398.475 988.957Z" fill="#FDFAFA"/>
</g>
<defs>
<clipPath id="clip0_11_2">
<rect width="1287" height="1288" fill="white"/>
</clipPath>
</defs>
</svg>
