<svg width="24" height="24" viewBox="0 0 24 24" fill="none" xmlns="http://www.w3.org/2000/svg">
<path fill-rule="evenodd" clip-rule="evenodd" d="M0 12C0 5.37259 5.37259 0 12 0C18.6274 0 24 5.37259 24 12C24 18.6274 18.6274 24 12 24C5.37259 24 0 18.6274 0 12Z" fill="black"/>
<path d="M23.5 12C23.5 18.3513 18.3513 23.5 12 23.5C5.64873 23.5 0.5 18.3513 0.5 12C0.5 5.64873 5.64873 0.5 12 0.5C18.3513 0.5 23.5 5.64873 23.5 12Z" stroke="white" stroke-opacity="0.3"/>
<path d="M18 7.57712C17.9941 8.04813 17.8224 8.31055 17.6093 8.55279C16.2776 10.0668 14.9517 11.5874 13.6081 13.088C13.4187 13.3033 13.4069 13.4177 13.6022 13.6397C14.8866 15.0797 16.1533 16.5398 17.4377 17.9865C17.633 18.2018 17.6626 18.3364 17.4495 18.5652C16.9109 19.1438 16.9227 19.1506 16.396 18.5517C15.005 16.9637 13.6081 15.3825 12.2172 13.7945C11.8975 13.4311 11.8975 13.2764 12.2231 12.9063C13.6791 11.2779 15.1293 9.64957 16.5854 8.02122C16.6505 7.95393 16.7156 7.88664 16.7689 7.8059C16.8695 7.66459 16.8695 7.51656 16.757 7.38872C16.6446 7.26087 16.5084 7.25414 16.3841 7.3618C16.3072 7.42909 16.2421 7.51656 16.171 7.59058C13.614 10.531 11.057 13.4782 8.4586 16.3716C8.02652 16.8561 7.57668 16.9301 7.04397 16.6004C6.80129 16.4523 6.59413 16.237 6.43431 15.9813C6.15612 15.5305 6.14428 15.0662 6.40472 14.6087C6.48759 14.4606 6.59413 14.326 6.70067 14.1982C7.74241 13.0072 8.79007 11.8095 9.84365 10.6252C10.0094 10.4368 10.0094 10.3359 9.84365 10.1475C8.60066 8.77484 7.37543 7.37526 6.13837 5.99587C5.95488 5.78728 5.95488 5.65943 6.13245 5.45757C6.65924 4.85198 6.65332 4.84525 7.18602 5.45084C8.49412 6.94462 9.80813 8.43167 11.1162 9.92545C11.4654 10.3224 11.4654 10.4705 11.1221 10.8607C9.94427 12.1998 8.76639 13.5455 7.58852 14.8845C7.51157 14.972 7.41686 15.0393 7.40503 15.1739C7.39319 15.2883 7.44646 15.3623 7.52933 15.4161C7.62995 15.4834 7.74241 15.4901 7.83119 15.4094C7.93182 15.3219 8.0206 15.2142 8.10939 15.1133C10.6427 12.2536 13.176 9.39388 15.7094 6.52744C16.0586 6.13044 16.4433 5.84111 16.9346 6.11698C17.5028 6.43996 17.9112 6.93116 18 7.57712Z" fill="#00F930"/>
</svg>
