<svg width="24" height="24" viewBox="0 0 24 24" fill="none" xmlns="http://www.w3.org/2000/svg">
<path d="M12 24C18.6274 24 24 18.6274 24 12C24 5.37258 18.6274 0 12 0C5.37258 0 0 5.37258 0 12C0 18.6274 5.37258 24 12 24Z" fill="#F5F5F5"/>
<path fill-rule="evenodd" clip-rule="evenodd" d="M14.5013 5C14.111 5 13.7947 5.31632 13.7947 5.70656V13.2321V8.94752C13.7947 8.94752 13.2877 8.61032 12.6133 8.38526C12.1097 8.21714 11.4762 8.1443 11.088 8.1443C8.28408 8.1443 6.00012 10.4283 6.00012 13.2321C6.00012 16.036 8.28408 18.32 11.088 18.32C13.8919 18.32 16.0741 16.036 16.0741 13.2321V5.70656C16.0741 5.31632 15.7578 5 15.3676 5H14.5013ZM11.1077 10.4141C12.6682 10.4141 13.7846 11.6717 13.7846 13.2321C13.7846 13.9605 13.5412 14.623 13.1231 15.1222C12.6455 15.6927 11.9398 16.0501 11.1077 16.0501C9.54726 16.0501 8.28966 14.7926 8.28966 13.2321C8.28966 11.6717 9.54726 10.4141 11.1077 10.4141Z" fill="#393A41"/>
<path fill-rule="evenodd" clip-rule="evenodd" d="M11.0879 8.14441C8.28396 8.14441 6 10.4284 6 13.2323C6 16.0361 8.28396 18.3202 11.0879 18.3202C13.8918 18.3202 16.074 16.0361 16.074 13.2323H13.7946V8.94769C13.7186 8.89783 13.6822 8.87041 13.5622 8.80435C12.8289 8.40073 11.9959 8.14441 11.0879 8.14441ZM11.1076 10.4143C12.668 10.4143 13.7844 11.6718 13.7844 13.2323C13.7844 13.9606 13.5411 14.6231 13.123 15.1223C12.6454 15.6929 11.9396 16.0502 11.1076 16.0502C9.54708 16.0502 8.28954 14.7927 8.28954 13.2323C8.28954 11.6718 9.54714 10.4143 11.1076 10.4143Z" fill="url(#paint0_radial_102_225)"/>
<path d="M23.5 12C23.5 18.3513 18.3513 23.5 12 23.5C5.64873 23.5 0.5 18.3513 0.5 12C0.5 5.64873 5.64873 0.5 12 0.5C18.3513 0.5 23.5 5.64873 23.5 12Z" stroke="black" stroke-opacity="0.097"/>
<defs>
<radialGradient id="paint0_radial_102_225" cx="0" cy="0" r="1" gradientUnits="userSpaceOnUse" gradientTransform="translate(15.0272 8.70391) scale(10.021)">
<stop stop-color="#060606" stop-opacity="0.476377"/>
<stop offset="0.110106" stop-color="#030509" stop-opacity="0.253808"/>
<stop offset="0.45098" stop-color="#00040C" stop-opacity="0"/>
<stop offset="0.659125" stop-color="#144A4C" stop-opacity="0"/>
<stop offset="1" stop-color="#2AFDC5" stop-opacity="0"/>
</radialGradient>
</defs>
</svg>
