<svg width="20" height="20" viewBox="0 0 20 20" fill="none" xmlns="http://www.w3.org/2000/svg">
  <g clip-path="url(#clip0_1769_14184)">
    <path
      d="M0.252652 10.8564C-0.019325 8.92053 0.302103 6.90297 1.29111 5.19581C1.61254 4.64037 1.99166 4.12577 2.43671 3.66834C2.93945 3.14557 3.50814 2.68815 4.05209 2.20622C2.5521 3.52131 1.61254 5.37551 1.34881 7.33592C1.07682 9.30448 1.47243 11.3791 2.3955 13.1435C3.31034 14.8997 4.66198 16.3945 6.35154 17.4482C8.02464 18.4938 9.9779 19.0737 11.9642 19.0247C13.7691 18.9675 15.5411 18.3712 16.9586 17.2522C17.0658 17.1705 17.1729 17.0806 17.2719 16.9908C16.5548 17.6198 15.8625 18.2895 15.0466 18.7878C14.2966 19.2452 13.4642 19.572 12.607 19.7762C10.7032 20.2173 8.68399 19.9967 6.88727 19.2615C5.09056 18.5264 3.50814 17.3012 2.33782 15.7656C1.23342 14.3198 0.499905 12.6289 0.252652 10.8564Z"
      fill="#0E5200" />
    <path
      d="M8.98393 12.6888L9.00385 12.7572L9.07293 12.7399L13.8069 11.5571L13.8822 11.5382L13.8598 11.4639L12.4523 6.79622L12.4324 6.7301L12.365 6.74542L7.64635 7.81855L7.56972 7.83598L7.5917 7.91143L8.98393 12.6888ZM1.55641 10.6959C0.501878 5.46299 3.65657 0.811258 8.59401 0.277056C13.538 -0.25786 18.4195 3.54641 19.4829 8.77507C20.5374 14.008 17.3827 18.6597 12.4453 19.1939C7.49327 19.7288 2.61986 15.9246 1.55641 10.6959Z"
      fill="url(#paint0_linear_1769_14184)" stroke="#2DAE11" stroke-width="0.148026" />
    <path d="M11.6738 7.69342L12.925 11.7034L13.7989 11.5136L12.4257 6.73839L11.6738 7.69342Z" fill="#123E0A" />
    <path d="M7.83777 8.54853L11.6727 7.69942L12.4438 6.73415L7.65051 7.86191L7.83777 8.54853Z" fill="#123E0A" />
    <path opacity="0.5"
      d="M11.4524 18.293C16.0129 17.8188 19.3357 13.9111 18.3056 9.05512C17.2839 4.20727 12.5738 0.675627 7.7973 1.16613C3.78497 1.58306 1.43409 4.91033 1.25964 8.58914C1.06027 4.22362 3.96995 0.934397 8.41426 0.468415C13.4993 -0.0647449 18.3877 3.5904 19.3773 8.26214C20.4405 13.2817 17.2839 17.7698 12.3329 18.2848C11.8843 18.3339 11.4358 18.342 10.9872 18.3257C11.145 18.3175 11.3028 18.3011 11.4524 18.293Z"
      fill="#0F5400" />
    <path
      d="M9.37854 0.830088C9.08431 0.830088 8.79009 0.846693 8.49587 0.871596C6.31038 1.09572 4.42745 2.14992 3.17497 3.8433C2.52772 4.72319 2.0822 5.72759 1.84684 6.82328C1.60307 7.96886 1.61147 9.16415 1.87205 10.3843C2.33438 12.5758 3.57005 14.5929 5.36891 16.0705C7.14255 17.5314 9.30292 18.3366 11.4463 18.3366C11.7406 18.3366 12.0348 18.32 12.329 18.2951C14.5061 18.071 16.3974 17.0168 17.6499 15.3234C18.2972 14.4435 18.7427 13.4391 18.978 12.3434C19.2218 11.1978 19.2134 10.0025 18.9528 8.78229C18.4989 6.59086 17.2549 4.56548 15.4644 3.09622C13.6908 1.63528 11.5304 0.830088 9.37854 0.830088ZM9.37854 0C14.2035 0 18.7427 3.67728 19.785 8.608C20.8946 13.8707 17.5995 18.5774 12.4215 19.1169C12.0936 19.1501 11.7742 19.1667 11.4463 19.1667C6.62141 19.1667 2.0822 15.4894 1.04828 10.5587C-0.0613016 5.29595 3.23381 0.589362 8.41181 0.0498052C8.73122 0.0166017 9.05913 0 9.37854 0Z"
      fill="url(#paint1_linear_1769_14184)" />
  </g>
  <defs>
    <linearGradient id="paint0_linear_1769_14184" x1="10.5196" y1="0.152855" x2="14.6265" y2="18.6336"
      gradientUnits="userSpaceOnUse">
      <stop stop-color="#46A931" />
      <stop offset="1" stop-color="#21880B" />
    </linearGradient>
    <linearGradient id="paint1_linear_1769_14184" x1="10.4167" y1="2.59018e-07" x2="13.9854" y2="19.4749"
      gradientUnits="userSpaceOnUse">
      <stop stop-color="#33C813" />
      <stop offset="1" stop-color="#2CAA11" />
    </linearGradient>
    <clipPath id="clip0_1769_14184">
      <rect width="20" height="20" fill="white" />
    </clipPath>
  </defs>
</svg>