<svg id="Bold_S_Alt_Color" data-name="Bold S Alt Color" xmlns="http://www.w3.org/2000/svg" width="648" height="648" viewBox="0 0 648 648">
  <defs>
    <style>
      .cls-1 {
        fill: #f56618;
      }

      .cls-1, .cls-2 {
        fill-rule: evenodd;
      }

      .cls-2 {
        fill: #ebebeb;
      }
    </style>
  </defs>
  <path class="cls-1" d="M-16.54-17.4H662.727V668.822H-16.54V-17.4Z"/>
  <path id="_" data-name="{" class="cls-2" d="M499.679,445.389a22.336,22.336,0,0,0,8.312-7.605,36.337,36.337,0,0,0,5.2-12.1V334.431q1.455-2.075,3.117-4.839t3.324-5.531l-6.441-10.37V214.14q-4.779-9.673-13.507-12.79v-9.678a65.186,65.186,0,0,1,9.455,3.111,55.7,55.7,0,0,1,18.389,12.271,28.28,28.28,0,0,1,6.026,8.814v90.218l11.014,17.975-11.014,18.666v96.094a36.908,36.908,0,0,1-7.272,6.741,64.68,64.68,0,0,1-8.728,5.185,76.9,76.9,0,0,1-9.143,3.8,36.581,36.581,0,0,1-8.727,1.9V445.389Z"/>
  <path id="_2" data-name="{" class="cls-2" d="M148.321,445.389a22.336,22.336,0,0,1-8.312-7.605,36.337,36.337,0,0,1-5.195-12.1V334.431q-1.455-2.075-3.117-4.839t-3.324-5.531l6.441-10.37V214.14q4.779-9.673,13.507-12.79v-9.678a65.186,65.186,0,0,0-9.455,3.111,55.7,55.7,0,0,0-18.389,12.271,28.28,28.28,0,0,0-6.026,8.814v90.218l-11.014,17.975,11.014,18.666v96.094a36.908,36.908,0,0,0,7.272,6.741,64.68,64.68,0,0,0,8.728,5.185,76.9,76.9,0,0,0,9.143,3.8,36.581,36.581,0,0,0,8.727,1.9V445.389Z"/>
  <path id="S" class="cls-2" d="M361.989,283.108H471.461c-2.949-53.219-63.258-66.454-151.1-66.454-88.5,0-151.755,13.235-151.427,66.73,0.328,44.119,41.3,56.527,92.1,61.215l76.041,7.169c24.254,2.206,29.826,6.618,29.826,14.063s-8.522,11.306-42.937,11.306c-30.482,0-47.853-3.585-49.492-20.957H163.036c2.95,59.009,58.014,72.245,159.621,72.245,103.573,0,159.293-11.03,159.293-69.212,0-41.361-36.054-59.009-92.1-63.421l-81.285-6.342c-22.943-1.654-28.515-4.963-28.515-11.857s7.538-11.305,39-11.305C347.567,266.288,360.678,272.9,361.989,283.108Z"/>
</svg>