<svg width="24" height="24" viewBox="0 0 24 24" fill="none" xmlns="http://www.w3.org/2000/svg">
<path d="M12 24C18.6274 24 24 18.6274 24 12C24 5.37258 18.6274 0 12 0C5.37258 0 0 5.37258 0 12C0 18.6274 5.37258 24 12 24Z" fill="url(#paint0_linear)"/>
<path d="M17.3192 7.79204C16.0949 7.79204 15.5636 8.40527 14.599 8.40527C13.9882 8.40527 13.6079 8.11684 13.1415 7.79831C12.5016 7.35563 11.2547 6 8.95458 6C5.77462 6 2.98023 8.5081 3.00011 11.9994C2.98023 15.4881 5.77064 18 8.95458 18C11.2547 18 12.5016 16.6444 13.1442 16.2029C13.6079 15.8832 13.9882 15.5947 14.6017 15.5947C15.5662 15.5947 16.0976 16.208 17.3218 16.208C19.4339 16.208 21 14.2955 21 11.9893C21 9.68314 19.4299 7.79204 17.3192 7.79204ZM17.404 14.1212C16.9972 14.1212 16.7283 13.9783 16.3824 13.8014C15.8816 13.5506 15.2111 13.2697 14.5169 13.2697C13.3919 13.2697 12.5758 13.7713 11.9623 14.1338C11.4137 14.4636 10.8679 14.7947 9.92844 14.7947C8.44711 14.7947 7.14598 13.5908 7.14598 12.0069C7.14598 10.423 8.44844 9.21789 9.92844 9.21789C10.8679 9.21789 11.4137 9.54896 11.9623 9.87878C12.5758 10.2412 13.3919 10.7353 14.5169 10.7353C15.2111 10.7353 15.8816 10.4594 16.3824 10.2036C16.7283 10.0268 16.9972 9.88379 17.404 9.88379C18.3712 9.88379 19.0894 10.8532 19.0894 11.9994C19.0894 13.1456 18.3699 14.1212 17.404 14.1212Z" fill="white"/>
<path d="M23.5 12C23.5 18.3513 18.3513 23.5 12 23.5C5.64873 23.5 0.5 18.3513 0.5 12C0.5 5.64873 5.64873 0.5 12 0.5C18.3513 0.5 23.5 5.64873 23.5 12Z" stroke="white" stroke-opacity="0.3"/>
<defs>
<linearGradient id="paint0_linear" x1="0.0001407" y1="12.0013" x2="23.9965" y2="12.0013" gradientUnits="userSpaceOnUse">
<stop stop-color="#31EDA9"/>
<stop offset="0.06" stop-color="#71EF74"/>
<stop offset="0.13" stop-color="#AEF043"/>
<stop offset="0.18" stop-color="#DAF11E"/>
<stop offset="0.22" stop-color="#F5F208"/>
<stop offset="0.25" stop-color="#FFF200"/>
<stop offset="0.27" stop-color="#FEDC0E"/>
<stop offset="0.38" stop-color="#FA685A"/>
<stop offset="0.46" stop-color="#F71F89"/>
<stop offset="0.5" stop-color="#F0059E"/>
<stop offset="0.56" stop-color="#BE21AB"/>
<stop offset="0.61" stop-color="#9239B7"/>
<stop offset="0.66" stop-color="#6C4EC1"/>
<stop offset="0.72" stop-color="#4E5FCA"/>
<stop offset="0.78" stop-color="#376CD0"/>
<stop offset="0.84" stop-color="#2675D4"/>
<stop offset="0.91" stop-color="#1C7AD7"/>
<stop offset="1" stop-color="#197CD8"/>
</linearGradient>
</defs>
</svg>
