<svg id="Capa_1" enable-background="new 0 0 512 512" height="512" viewBox="0 0 512 512" width="512" xmlns="http://www.w3.org/2000/svg"><g><path d="m291 351h-30v131h-4.576c-8.077 0-15.027 6.207-15.407 14.275-.406 8.614 6.458 15.725 14.983 15.725h25.228c15.365 0 28.933-10.021 33.452-24.707l35.974-116.912z" fill="#504541"/><g><path d="m511 147c0-3.978-1.58-7.793-4.394-10.606l-25.606-25.607-10-15 7.527-15c-3.762-10.923-11.646-20.117-22.403-25.496l-17.153-8.577-1.663-6.983c-5.571-23.393-26.255-39.731-50.302-39.731-10.143 0-19.979 2.949-28.448 8.529l-47.229 31.116c-74.743 49.241-139.614 110.566-192.921 182.355h-32.408c-46.869 0-85 38.131-85 85 0 22.064 4.629 43.435 13.759 63.518l36.241 79.731v46.751c0 8.284 6.716 15 15 15h50c8.284 0 15-6.716 15-15s-6.716-15-15-15h-5v-38.022c10.547-9.324 19.653-20.042 27.168-31.978h48.598c34.753 0 69.179-8.921 99.557-25.798l35.728-19.848 58.949 75.792v39.854h-5c-8.284 0-15 6.716-15 15s6.716 15 15 15h50c8.284 0 15-6.716 15-15v-162.918c0-38.266-7.491-76.572-21.804-112.082h16.804c41.355 0 75-33.645 75-75z" fill="#7f6d67"/><path d="m511 147c0-3.978-1.58-7.793-4.394-10.606l-25.606-25.607-10-15 7.527-15c-3.762-10.923-11.646-20.117-22.403-25.496l-17.153-8.577-1.663-6.983c-5.571-23.393-26.255-39.731-50.302-39.731-10.143 0-19.979 2.949-28.448 8.529l-47.229 31.116c-26.365 17.369-51.495 36.249-75.329 56.554v309.76c17.522-4.337 34.475-10.953 50.322-19.757l35.728-19.848 58.95 75.792v39.854h-5c-8.284 0-15 6.716-15 15s6.716 15 15 15h50c8.284 0 15-6.716 15-15v-162.918c0-38.266-7.491-76.572-21.804-112.082h16.804c41.355 0 75-33.645 75-75z" fill="#6c5d58"/><path d="m481 95.541c0-5.129-.869-10.096-2.473-14.754h-27.527c-8.284 0-15 6.716-15 15s6.716 15 15 15h30z" fill="#504541"/></g></g></svg>