<svg id="Layer_1" data-name="Layer 1" xmlns="http://www.w3.org/2000/svg" xmlns:xlink="http://www.w3.org/1999/xlink" viewBox="0 0 268.26 268.26"><defs><style>.cls-1,.cls-2,.cls-6,.cls-7,.cls-9{stroke-miterlimit:10;}.cls-1{stroke-width:10px;fill:url(#linear-gradient);stroke:url(#linear-gradient-2);}.cls-2{stroke-width:8px;fill:url(#linear-gradient-3);stroke:url(#linear-gradient-4);}.cls-3{fill:url(#linear-gradient-5);}.cls-4{fill:url(#linear-gradient-6);}.cls-5{fill:#fab44c;}.cls-6,.cls-7,.cls-9{fill:none;}.cls-6,.cls-7{stroke-width:2px;}.cls-6{stroke:url(#linear-gradient-7);}.cls-7{stroke:url(#linear-gradient-8);}.cls-8{fill:url(#linear-gradient-9);}.cls-9{stroke:url(#linear-gradient-12);}</style><linearGradient id="linear-gradient" x1="245.97" y1="198.7" x2="22.28" y2="69.55" gradientUnits="userSpaceOnUse"><stop offset="0" stop-color="#c46e23"/><stop offset="0.57" stop-color="#db8421"/><stop offset="0.95" stop-color="#fde390"/></linearGradient><linearGradient id="linear-gradient-2" x1="250.3" y1="201.2" x2="17.95" y2="67.05" gradientUnits="userSpaceOnUse"><stop offset="0" stop-color="#954921"/><stop offset="0.49" stop-color="#c26a27"/><stop offset="1" stop-color="#fde17c"/></linearGradient><linearGradient id="linear-gradient-3" x1="128.49" y1="74.6" x2="226.87" y2="245" gradientUnits="userSpaceOnUse"><stop offset="0.04" stop-color="#f9a11f"/><stop offset="0.54" stop-color="#b35d24"/><stop offset="0.85" stop-color="#ae5824"/><stop offset="1" stop-color="#954921"/></linearGradient><linearGradient id="linear-gradient-4" x1="72.11" y1="160.59" x2="271.82" y2="160.59" gradientUnits="userSpaceOnUse"><stop offset="0" stop-color="#fcdc3e"/><stop offset="0.49" stop-color="#fee6b1"/><stop offset="1" stop-color="#be621f"/></linearGradient><linearGradient id="linear-gradient-5" x1="158.45" y1="97.85" x2="183.34" y2="140.96" gradientUnits="userSpaceOnUse"><stop offset="0.11" stop-color="#faa41e"/><stop offset="0.34" stop-color="#fcdf6c"/><stop offset="0.66" stop-color="#ec8c23"/><stop offset="0.83" stop-color="#954921"/></linearGradient><linearGradient id="linear-gradient-6" x1="169.72" y1="185.84" x2="174.9" y2="194.8" xlink:href="#linear-gradient-5"/><linearGradient id="linear-gradient-7" x1="78.83" y1="142.68" x2="94.55" y2="142.68" gradientUnits="userSpaceOnUse"><stop offset="0" stop-color="#e68f20"/><stop offset="0.49" stop-color="#fee6b1"/><stop offset="1" stop-color="#be621f"/></linearGradient><linearGradient id="linear-gradient-8" x1="217.49" y1="142.68" x2="233.21" y2="142.68" gradientTransform="matrix(-0.95, 0, 0, 1, 471.42, 0)" xlink:href="#linear-gradient-7"/><linearGradient id="linear-gradient-9" x1="149.01" y1="108.24" x2="198.24" y2="193.51" xlink:href="#linear-gradient-5"/><linearGradient id="linear-gradient-12" x1="228.23" y1="182.02" x2="120.36" y2="119.74" gradientUnits="userSpaceOnUse"><stop offset="0.03" stop-color="#fcde52"/><stop offset="0.65" stop-color="#dc7127"/><stop offset="1" stop-color="#fcdc43"/></linearGradient></defs><circle class="cls-1" cx="134.13" cy="134.13" r="129.13"/><path class="cls-2" d="M174,61.15s-10.6-.38-18,1.59a90.55,90.55,0,0,0-18.57,6.77,73.08,73.08,0,0,0-13.28,8.94,72.13,72.13,0,0,0-9.06,9.64c-1.47,2-7.47,10.38-9.52,16.68s-2.55,8.76-2.76,10.38-.34,3.83-.34,3.83v.76l-8.21,5.49-1.32.77-4.41-.77a6.46,6.46,0,0,0-4,.49c-1.81,1-5.59,3.73-6.42,5.51a23.53,23.53,0,0,0-1.26,5.32l-.53,6.22L76.11,148v2.68A10.34,10.34,0,0,0,78.36,155a19.81,19.81,0,0,0,3.79,3.21,17.34,17.34,0,0,0,2.76,1.07,20.19,20.19,0,0,0,2.15.27l.11,6.19a12.1,12.1,0,0,0,1.36,5.71c1.58,3.27,3.64,6.85,3.64,6.85s3.17,4.51,4.53,5.91a41.52,41.52,0,0,0,5.49,4.41,71.36,71.36,0,0,0,9.11,3.78c3.34,1.07,4.47,1.39,4.47,1.39l1,.21,2.21.15.28.15,2.61,6.91,5,10.92a44,44,0,0,0,2.49,4.36c.74.94,3.63,4.83,3.63,4.83l6.64,8.06,1.75,1.88.85.8a23.71,23.71,0,0,1-3.94,4.83,23.39,23.39,0,0,1-5.57,3.37l-6,2.36s-2.47,1.4-2.64,3a5.39,5.39,0,0,0,1,4.21c1,1.34,4,2.87,7.66,3.87a67.24,67.24,0,0,0,7.28,1.77c3.14.6,9.68,2.89,15.53,3.55,0,0,3,.56,6.68.87s11.29.11,14.44,0c3.85-.12,7.92-.42,7.92-.42S195.49,258.06,202,256s12.68-4,12.68-4,3-1.28,3.39-3.11.4-3.57-.43-4.62-1.91-1.78-4.47-2.42-4.59-.36-7.34-3-3.76-3.77-3.76-3.77l-1.47-1.89a46,46,0,0,0,5.89-6c2.36-3,6.45-8.91,6.45-8.91l3.47-6.07,4.34-8.72,2.23-5.62,1.45-3.72a40,40,0,0,0,11.85-2.7,42.84,42.84,0,0,0,13.06-9.92c2-2.42,5.85-8.17,6.75-12.91a34.08,34.08,0,0,0,.72-7.53v-1.56s3.78.56,7.82-3.25,3-10.6,3-10.6L267,134.91s-1.15-4.57-3.19-6.63a11.33,11.33,0,0,0-7.24-3.15,28.85,28.85,0,0,0-3.83.57l-1.12.56-9.47-5.62-.49-.53-1-6.41s-1.66-6.57-3.42-11.27-6.83-15.15-13-20.39S199.4,60,174,61.15Z" transform="translate(-37.83 -23.6)"/><path class="cls-3" d="M220.68,119.4s-27.32-11.74-52.85-11.74-46.72,11.74-46.72,11.74S164.63,103.86,220.68,119.4Z" transform="translate(-37.83 -23.6)"/><path class="cls-4" d="M163,189.7a9.82,9.82,0,0,0,8.8,5.24,10.45,10.45,0,0,0,9.07-5.24S173.62,194,163,189.7Z" transform="translate(-37.83 -23.6)"/><path class="cls-5" d="M156.13,207.29s.42-.14,1.18-.35a55.81,55.81,0,0,1,30.48.35S172,210.1,156.13,207.29Z" transform="translate(-37.83 -23.6)"/><path class="cls-6" d="M93.53,130l-2.89,26s-5.53.34-8.51-2.72-2.22-4.94-2.22-4.94l1.45-15.06A8.82,8.82,0,0,1,89,129.36C94,129.7,93.53,130,93.53,130Z" transform="translate(-37.83 -23.6)"/><path class="cls-7" d="M250.48,130l2.76,26s5.26.34,8.09-2.72,2.11-4.94,2.11-4.94l-1.38-15.06s-2.51-4.26-7.29-3.92S250.48,130,250.48,130Z" transform="translate(-37.83 -23.6)"/><path class="cls-8" d="M141,173.29H130l-14-46h11l8.43,32.25h.14L144,127.3h11Z" transform="translate(-37.83 -23.6)"/><path class="cls-8" d="M179.77,173.29l-9.67-14.83H170v14.83H159.74v-46H173c1.4,0,2.53,0,3.37.09a24,24,0,0,1,3.37.4,12.51,12.51,0,0,1,6.17,2.82q5.16,4.54,5.16,12.56a16.15,16.15,0,0,1-2.73,9.43,11.38,11.38,0,0,1-7.68,5L192,173.29ZM178.72,139a7.58,7.58,0,0,0-4.84-1.42H170v12.8h3.78q7,0,7-6.58A5.7,5.7,0,0,0,178.72,139Z" transform="translate(-37.83 -23.6)"/><path class="cls-8" d="M221.66,173.29l-2-6.64H205.08l-2.21,6.64h-11.5l16.81-46h8.42l16.67,46Zm-9.17-31.67h-.17L208,157.33h8.79Z" transform="translate(-37.83 -23.6)"/><path class="cls-9" d="M141,173.29H130l-14-46h11l8.43,32.25h.14L144,127.3h11Z" transform="translate(-37.83 -23.6)"/><path class="cls-9" d="M179.77,173.29l-9.67-14.83H170v14.83H159.74v-46H173c1.4,0,2.53,0,3.37.09a24,24,0,0,1,3.37.4,12.51,12.51,0,0,1,6.17,2.82q5.16,4.54,5.16,12.56a16.15,16.15,0,0,1-2.73,9.43,11.38,11.38,0,0,1-7.68,5L192,173.29ZM178.72,139a7.58,7.58,0,0,0-4.84-1.42H170v12.8h3.78q7,0,7-6.58A5.7,5.7,0,0,0,178.72,139Z" transform="translate(-37.83 -23.6)"/><path class="cls-9" d="M221.66,173.29l-2-6.64H205.08l-2.21,6.64h-11.5l16.81-46h8.42l16.67,46Zm-9.17-31.67h-.17L208,157.33h8.79Z" transform="translate(-37.83 -23.6)"/></svg>