<svg width="24" height="24" viewBox="0 0 24 24" fill="none" xmlns="http://www.w3.org/2000/svg">
<path d="M12 24C18.6274 24 24 18.6274 24 12C24 5.37258 18.6274 0 12 0C5.37258 0 0 5.37258 0 12C0 18.6274 5.37258 24 12 24Z" fill="#06803F"/>
<path d="M23.5 12C23.5 18.3513 18.3513 23.5 12 23.5C5.64873 23.5 0.5 18.3513 0.5 12C0.5 5.64873 5.64873 0.5 12 0.5C18.3513 0.5 23.5 5.64873 23.5 12Z" stroke="black" stroke-opacity="0.097"/>
<path fill-rule="evenodd" clip-rule="evenodd" d="M18.958 10.0909C18.9491 10.1208 18.937 10.1507 18.9224 10.18C18.8116 10.7126 17.3105 13.5088 16.8504 14.0039L16.8077 14.0453L16.2159 14.5499L19 15.8888L18.9771 15.9162C17.4155 17.7858 14.8923 19 12.0471 19C9.20064 19 6.67809 17.7858 5.11518 15.9162L5 15.7743L7.70073 14.5455L7.42582 14.3215L7.09236 14.0446C6.70418 13.7086 5.32964 10.9844 5.126 10.2659C5.10627 10.2373 5.08845 10.2086 5.07318 10.1775C5.931 10.7591 8.17864 11.3242 10.9557 11.4362L11.2357 11.4464L11.5176 11.4527L11.9561 11.4565L12.3945 11.4527L12.6065 11.4483L12.8884 11.4394C15.5955 11.3375 17.81 10.8043 18.7404 10.2405L18.832 10.1825L18.9115 10.1253L18.958 10.0903V10.0909ZM8.18182 12L8.35809 12.6408C8.47582 13.0182 8.61009 13.3765 8.76918 13.7405L8.89391 14.0154L9.18473 14.5887C9.21909 14.6568 9.26427 14.7166 9.32218 14.7714L9.38327 14.8242L9.62891 15.0062C10.0476 15.2887 10.5122 15.4905 11.062 15.64L11.272 15.6935L11.8511 15.808L11.9612 15.8182H12.0465L12.1559 15.8074L12.7522 15.6903C13.3077 15.5566 13.7875 15.3721 14.2305 15.1004L14.3953 14.9947L14.6288 14.8197C14.6893 14.7739 14.7408 14.7192 14.7828 14.6562L14.8216 14.59L15.1207 14.0007C15.2875 13.6444 15.4319 13.2893 15.5598 12.9125L15.6534 12.6249L15.8182 12.0267C15.4618 12.7057 14.7555 13.1868 13.9027 13.2702L13.785 13.2791L13.6603 13.2645C13.0265 13.176 12.4684 12.8368 12.1152 12.3417L12.0471 12.2412L12.0102 12.1795L11.9389 12.2902C11.5927 12.7885 11.0429 13.1365 10.3945 13.2485L10.2634 13.2676L10.1444 13.2797L10.0305 13.2702C9.20891 13.1811 8.51718 12.6873 8.18182 12ZM12 5C12.5186 5 13.204 5.40918 14.2171 6.21864L14.3717 6.34273L14.8134 6.70864L15.9906 7.70836L16.8376 7.933C16.9821 7.97245 17.1138 8.00936 17.2335 8.04373L17.46 8.11055L17.6433 8.16782L17.8851 8.24864L18.0295 8.30082L18.1568 8.35109C18.7206 8.57955 19 8.82391 19 9.14655L18.9955 9.21336L18.9822 9.27827L18.9357 9.31645L18.8555 9.37691C17.9812 9.99736 15.6928 10.5987 12.8756 10.7095L12.6103 10.7184L12.3971 10.7235L11.958 10.7273L11.5176 10.7235L11.2345 10.7165C8.31991 10.6267 5.94182 10.0082 5.05218 9.37182C5.01782 9.29864 5 9.22355 5 9.14718C5 8.78955 5.29973 8.50127 5.95264 8.24545C5.84891 8.13536 5.80055 8.03482 5.67391 7.95209C5.87118 7.72555 6.23582 7.53973 6.48591 7.50409C6.98355 7.42136 7.28964 7.56964 7.625 7.59636C7.36536 7.485 6.86518 6.99818 6.68955 6.77673C6.47955 6.30264 6.62909 5.89473 6.757 5.66882L6.78436 5.623L6.83018 5.553L6.88491 5.47918L6.91864 5.47536C7.05673 5.46645 7.58364 5.462 7.74464 5.64145C8.18818 6.27145 8.12582 6.93327 8.28936 7.22409C8.38864 6.88045 8.381 6.58773 8.60055 6.18936C8.82009 5.79164 9.58373 5.24818 10.124 5.35636C10.1507 5.57655 10.2532 5.66564 10.1889 5.90173C10.9844 5.30291 11.5552 5 12 5Z" fill="white"/>
</svg>
