<svg width="24" height="24" viewBox="0 0 24 24" fill="none" xmlns="http://www.w3.org/2000/svg">
<path d="M12 24C18.6274 24 24 18.6274 24 12C24 5.37258 18.6274 0 12 0C5.37258 0 0 5.37258 0 12C0 18.6274 5.37258 24 12 24Z" fill="#2170FB"/>
<path d="M12 24C18.6274 24 24 18.6274 24 12C24 5.37258 18.6274 0 12 0C5.37258 0 0 5.37258 0 12C0 18.6274 5.37258 24 12 24Z" fill="#0065FF"/>
<path d="M18.5193 10.3522H16.1695C16.0138 10.3478 15.8595 10.3821 15.7197 10.4523C15.58 10.5225 15.4591 10.6263 15.3674 10.7548L13.7404 12.8818L12.6305 8.67416C12.5801 8.50401 12.4824 8.35243 12.3493 8.23777C12.2163 8.12312 12.021 8.05031 11.8482 8.02816C11.4801 7.97002 11.1735 8.09944 10.9426 8.39929L7.17357 13.3281C7.17357 13.3281 7.1527 13.3518 7.13864 13.3587C7.12456 13.3656 7.09341 13.3674 7.09341 13.3674H5.1311C5.0451 12.9246 5 12.4669 5 11.9984C5 8.13327 8.0691 5 11.855 5C15.0855 5 17.7941 7.2814 18.5193 10.3522Z" fill="white"/>
<path d="M18.7042 12.2894H16.6799C16.6657 12.2882 16.6516 12.291 16.6389 12.2973C16.6261 12.3037 16.6153 12.3134 16.6076 12.3255L14.1051 15.5905C14.0081 15.7209 13.8803 15.8241 13.7337 15.8904C13.5871 15.9568 13.4264 15.984 13.2667 15.9698C13.1069 15.9556 12.9532 15.9002 12.8201 15.8089C12.687 15.7176 12.5786 15.5935 12.5053 15.4479C12.4547 15.3354 12.4153 15.218 12.3877 15.0974C12.112 14.0925 11.3357 11.1133 11.3357 11.1133L8.41175 14.9267C8.3232 15.0467 8.20797 15.1434 8.07557 15.209C7.94318 15.2745 7.79741 15.307 7.65031 15.3036H5.81157C6.96756 17.5015 9.24035 18.996 11.855 18.996C15.5452 18.996 18.5544 16.0192 18.7042 12.2894Z" fill="white"/>
<path d="M23.5 12C23.5 18.3513 18.3513 23.5 12 23.5C5.64873 23.5 0.5 18.3513 0.5 12C0.5 5.64873 5.64873 0.5 12 0.5C18.3513 0.5 23.5 5.64873 23.5 12Z" stroke="white" stroke-opacity="0.3"/>
</svg>
