<svg width="24" height="24" viewBox="0 0 24 24" fill="none" xmlns="http://www.w3.org/2000/svg">
<path d="M12 24C18.6274 24 24 18.6274 24 12C24 5.37258 18.6274 0 12 0C5.37258 0 0 5.37258 0 12C0 18.6274 5.37258 24 12 24Z" fill="url(#paint0_linear)"/>
<path d="M14.0136 3.02832C14.2157 3.48171 14.4123 4.05527 14.5598 4.77633C15.341 8.53454 17.5697 9.1081 17.7281 9.86739C17.8592 10.4901 16.6083 11.1238 16.4389 11.2822C15.8763 11.8175 16.723 12.1453 16.9633 12.4457C17.2037 12.7516 16.7394 13.2323 16.5482 13.3416C16.5482 13.3416 17.302 13.7512 16.9196 14.2866C16.5373 14.8219 16.2423 15.2753 16.8705 15.9199C17.4987 16.5644 17.1764 17.5477 15.991 17.7935C14.7346 18.0557 13.5438 19.6508 13.8442 21C13.8989 20.9891 13.9535 20.9836 14.0081 20.9727C18.9626 19.9457 22.1527 15.0896 21.1203 10.1351C20.3556 6.45332 17.4768 3.74937 14.0136 3.02832Z" fill="white"/>
<path d="M13.0904 4.25192C13.4283 4.25192 13.7022 3.97801 13.7022 3.64012C13.7022 3.30223 13.4283 3.02832 13.0904 3.02832C12.7525 3.02832 12.4786 3.30223 12.4786 3.64012C12.4786 3.97801 12.7525 4.25192 13.0904 4.25192Z" fill="white"/>
<path d="M11.5336 4.11045C11.2714 4.11045 11.0638 3.89741 11.0638 3.64067C11.0638 3.37847 11.2769 3.1709 11.5336 3.1709C11.7958 3.1709 12.0034 3.38394 12.0034 3.64067C12.0034 3.90288 11.7904 4.11045 11.5336 4.11045Z" fill="white"/>
<path d="M9.97677 3.97404C9.79104 3.97404 9.64355 3.82656 9.64355 3.64083C9.64355 3.45511 9.79104 3.30762 9.97677 3.30762C10.1625 3.30762 10.31 3.45511 10.31 3.64083C10.31 3.82656 10.157 3.97404 9.97677 3.97404Z" fill="white"/>
<path d="M8.41998 3.83666C8.31073 3.83666 8.22333 3.74926 8.22333 3.64001C8.22333 3.53076 8.31073 3.44336 8.41998 3.44336C8.52923 3.44336 8.61663 3.53076 8.61663 3.64001C8.61117 3.74926 8.52377 3.83666 8.41998 3.83666Z" fill="white"/>
<path d="M13.8606 6.97751C14.1986 6.97751 14.4724 6.7036 14.4724 6.36571C14.4724 6.02782 14.1986 5.75391 13.8606 5.75391C13.5228 5.75391 13.2488 6.02782 13.2488 6.36571C13.2488 6.7036 13.5228 6.97751 13.8606 6.97751Z" fill="white"/>
<path d="M12.3748 6.90677C12.6735 6.90677 12.9156 6.66465 12.9156 6.36598C12.9156 6.06731 12.6735 5.8252 12.3748 5.8252C12.0762 5.8252 11.834 6.06731 11.834 6.36598C11.834 6.66465 12.0762 6.90677 12.3748 6.90677Z" fill="white"/>
<path d="M10.889 6.83604C10.6268 6.83604 10.4192 6.623 10.4192 6.36626C10.4192 6.10952 10.6323 5.89648 10.889 5.89648C11.1512 5.89648 11.3588 6.10952 11.3588 6.36626C11.3588 6.623 11.1512 6.83604 10.889 6.83604Z" fill="white"/>
<path d="M9.40328 6.77037C9.17932 6.77037 8.99905 6.5901 8.99905 6.36614C8.99905 6.14218 9.17932 5.96191 9.40328 5.96191C9.62724 5.96191 9.80751 6.14218 9.80751 6.36614C9.80751 6.5901 9.62724 6.77037 9.40328 6.77037Z" fill="white"/>
<path d="M7.91741 6.69963C7.73169 6.69963 7.5842 6.55214 7.5842 6.36642C7.5842 6.18069 7.73169 6.0332 7.91741 6.0332C8.10314 6.0332 8.25062 6.18069 8.25062 6.36642C8.25062 6.55214 8.10314 6.69963 7.91741 6.69963Z" fill="white"/>
<path d="M6.43157 6.62889C6.28409 6.62889 6.16937 6.50872 6.16937 6.36669C6.16937 6.21921 6.28955 6.10449 6.43157 6.10449C6.57906 6.10449 6.69377 6.22467 6.69377 6.36669C6.69924 6.51418 6.57906 6.62889 6.43157 6.62889Z" fill="white"/>
<path d="M4.9458 6.56225C5.05445 6.56225 5.14245 6.4742 5.14245 6.3656C5.14245 6.25699 5.05445 6.16895 4.9458 6.16895C4.8372 6.16895 4.74915 6.25699 4.74915 6.3656C4.74915 6.4742 4.8372 6.56225 4.9458 6.56225Z" fill="white"/>
<path d="M15.554 9.70407C15.8919 9.70407 16.1658 9.43018 16.1658 9.09227C16.1658 8.75441 15.8919 8.48047 15.554 8.48047C15.2162 8.48047 14.9422 8.75441 14.9422 9.09227C14.9422 9.43018 15.2162 9.70407 15.554 9.70407Z" fill="white"/>
<path d="M13.8279 9.64249C13.522 9.64249 13.2762 9.39668 13.2762 9.09078C13.2762 8.78488 13.522 8.53906 13.8279 8.53906C14.1338 8.53906 14.3796 8.78488 14.3796 9.09078C14.3796 9.39668 14.1338 9.64249 13.8279 9.64249Z" fill="white"/>
<path d="M12.1072 9.58384C11.834 9.58384 11.6155 9.36534 11.6155 9.09221C11.6155 8.81909 11.834 8.60059 12.1072 8.60059C12.3803 8.60059 12.5988 8.81909 12.5988 9.09221C12.5988 9.36534 12.3748 9.58384 12.1072 9.58384Z" fill="white"/>
<path d="M10.381 9.52323C10.1407 9.52323 9.94946 9.33205 9.94946 9.0917C9.94946 8.85134 10.1407 8.66016 10.381 8.66016C10.6214 8.66016 10.8125 8.85134 10.8125 9.0917C10.8125 9.33205 10.6214 9.52323 10.381 9.52323Z" fill="white"/>
<path d="M8.65487 9.46263C8.44729 9.46263 8.28342 9.29329 8.28342 9.09118C8.28342 8.8836 8.45275 8.71973 8.65487 8.71973C8.86244 8.71973 9.02632 8.88906 9.02632 9.09118C9.03178 9.29875 8.86244 9.46263 8.65487 9.46263Z" fill="white"/>
<path d="M6.9342 9.40318C6.7594 9.40318 6.61737 9.26116 6.61737 9.08636C6.61737 8.91156 6.7594 8.76953 6.9342 8.76953C7.109 8.76953 7.25102 8.91156 7.25102 9.08636C7.24556 9.26662 7.109 9.40318 6.9342 9.40318Z" fill="white"/>
<path d="M5.20803 9.34844C5.06601 9.34844 4.95129 9.23372 4.95129 9.0917C4.95129 8.94967 5.06601 8.83496 5.20803 8.83496C5.35006 8.83496 5.46477 8.94967 5.46477 9.0917C5.46477 9.23372 5.35006 9.34844 5.20803 9.34844Z" fill="white"/>
<path d="M3.48184 9.28881C3.37259 9.28881 3.28519 9.20141 3.28519 9.09216C3.28519 8.98291 3.37259 8.89551 3.48184 8.89551C3.59109 8.89551 3.67849 8.98291 3.67849 9.09216C3.67849 9.20141 3.59109 9.28881 3.48184 9.28881Z" fill="white"/>
<path d="M14.8384 12.4297C15.1763 12.4297 15.4502 12.1558 15.4502 11.8179C15.4502 11.4799 15.1763 11.2061 14.8384 11.2061C14.5006 11.2061 14.2266 11.4799 14.2266 11.8179C14.2266 12.1558 14.5006 12.4297 14.8384 12.4297Z" fill="white"/>
<path d="M13.145 12.3691C12.8391 12.3691 12.5933 12.1232 12.5933 11.8173C12.5933 11.5114 12.8391 11.2656 13.145 11.2656C13.4509 11.2656 13.6968 11.5114 13.6968 11.8173C13.6968 12.1232 13.4509 12.3691 13.145 12.3691Z" fill="white"/>
<path d="M11.4572 12.3094C11.7287 12.3094 11.9487 12.0893 11.9487 11.8178C11.9487 11.5463 11.7287 11.3262 11.4572 11.3262C11.1856 11.3262 10.9655 11.5463 10.9655 11.8178C10.9655 12.0893 11.1856 12.3094 11.4572 12.3094Z" fill="white"/>
<path d="M9.76922 12.2498C10.0075 12.2498 10.2008 12.0566 10.2008 11.8183C10.2008 11.5799 10.0075 11.3867 9.76922 11.3867C9.53089 11.3867 9.33768 11.5799 9.33768 11.8183C9.33768 12.0566 9.53089 12.2498 9.76922 12.2498Z" fill="white"/>
<path d="M8.08129 12.1892C7.87371 12.1892 7.70984 12.0199 7.70984 11.8177C7.70984 11.6102 7.87918 11.4463 8.08129 11.4463C8.28887 11.4463 8.45274 11.6156 8.45274 11.8177C8.45274 12.0253 8.28887 12.1892 8.08129 12.1892Z" fill="white"/>
<path d="M6.39336 12.1297C6.21856 12.1297 6.07654 11.9877 6.07654 11.8129C6.07654 11.6381 6.21856 11.4961 6.39336 11.4961C6.56816 11.4961 6.71019 11.6381 6.71019 11.8129C6.71019 11.9932 6.56816 12.1297 6.39336 12.1297Z" fill="white"/>
<path d="M4.70547 12.074C4.56344 12.074 4.44873 11.9593 4.44873 11.8173C4.44873 11.6753 4.56344 11.5605 4.70547 11.5605C4.84749 11.5605 4.96221 11.6753 4.96221 11.8173C4.96221 11.9593 4.84749 12.074 4.70547 12.074Z" fill="white"/>
<path d="M3.01754 12.0144C2.90829 12.0144 2.82089 11.927 2.82089 11.8177C2.82089 11.7085 2.90829 11.6211 3.01754 11.6211C3.12679 11.6211 3.21419 11.7085 3.21419 11.8177C3.21419 11.927 3.12679 12.0144 3.01754 12.0144Z" fill="white"/>
<path d="M15.046 15.1543C15.3839 15.1543 15.6578 14.8804 15.6578 14.5425C15.6578 14.2046 15.3839 13.9307 15.046 13.9307C14.7081 13.9307 14.4342 14.2046 14.4342 14.5425C14.4342 14.8804 14.7081 15.1543 15.046 15.1543Z" fill="white"/>
<path d="M13.3963 15.0946C13.0904 15.0946 12.8446 14.8488 12.8446 14.5429C12.8446 14.237 13.0904 13.9912 13.3963 13.9912C13.7022 13.9912 13.948 14.237 13.948 14.5429C13.9425 14.8488 13.6967 15.0946 13.3963 15.0946Z" fill="white"/>
<path d="M11.7412 15.035C11.4681 15.035 11.2496 14.8165 11.2496 14.5434C11.2496 14.2703 11.4681 14.0518 11.7412 14.0518C12.0143 14.0518 12.2328 14.2703 12.2328 14.5434C12.2328 14.8165 12.0143 15.035 11.7412 15.035Z" fill="white"/>
<path d="M10.0915 14.9744C10.3298 14.9744 10.5231 14.7812 10.5231 14.5429C10.5231 14.3045 10.3298 14.1113 10.0915 14.1113C9.85318 14.1113 9.65997 14.3045 9.65997 14.5429C9.65997 14.7812 9.85318 14.9744 10.0915 14.9744Z" fill="white"/>
<path d="M8.44182 14.9148C8.23425 14.9148 8.07037 14.7454 8.07037 14.5433C8.07037 14.3358 8.23971 14.1719 8.44182 14.1719C8.6494 14.1719 8.81328 14.3412 8.81328 14.5433C8.81328 14.7509 8.64394 14.9148 8.44182 14.9148Z" fill="white"/>
<path d="M6.78667 14.8602C6.61187 14.8602 6.46985 14.7182 6.46985 14.5434C6.46985 14.3686 6.61187 14.2266 6.78667 14.2266C6.96148 14.2266 7.1035 14.3686 7.1035 14.5434C7.1035 14.7182 6.96148 14.8602 6.78667 14.8602Z" fill="white"/>
<path d="M5.13699 14.8006C4.99496 14.8006 4.88025 14.6859 4.88025 14.5438C4.88025 14.4018 4.99496 14.2871 5.13699 14.2871C5.27901 14.2871 5.39373 14.4018 5.39373 14.5438C5.39373 14.6859 5.27901 14.8006 5.13699 14.8006Z" fill="white"/>
<path d="M3.48184 14.739C3.37259 14.739 3.28519 14.6516 3.28519 14.5424C3.28519 14.4331 3.37259 14.3457 3.48184 14.3457C3.59109 14.3457 3.67849 14.4331 3.67849 14.5424C3.67849 14.6516 3.59109 14.739 3.48184 14.739Z" fill="white"/>
<path d="M14.7729 17.8808C15.1108 17.8808 15.3847 17.6069 15.3847 17.269C15.3847 16.9312 15.1108 16.6572 14.7729 16.6572C14.435 16.6572 14.1611 16.9312 14.1611 17.269C14.1611 17.6069 14.435 17.8808 14.7729 17.8808Z" fill="white"/>
<path d="M13.0958 17.8101C13.3945 17.8101 13.6366 17.568 13.6366 17.2693C13.6366 16.9707 13.3945 16.7285 13.0958 16.7285C12.7972 16.7285 12.5551 16.9707 12.5551 17.2693C12.5551 17.568 12.7972 17.8101 13.0958 17.8101Z" fill="white"/>
<path d="M11.4134 17.7384C11.1512 17.7384 10.9436 17.5253 10.9436 17.2686C10.9436 17.0064 11.1567 16.7988 11.4134 16.7988C11.6756 16.7988 11.8832 17.0119 11.8832 17.2686C11.8886 17.5308 11.6756 17.7384 11.4134 17.7384Z" fill="white"/>
<path d="M9.73644 17.6727C9.51248 17.6727 9.33221 17.4924 9.33221 17.2685C9.33221 17.0445 9.51248 16.8643 9.73644 16.8643C9.9604 16.8643 10.1407 17.0445 10.1407 17.2685C10.1352 17.4924 9.95494 17.6727 9.73644 17.6727Z" fill="white"/>
<path d="M8.05398 17.602C7.86825 17.602 7.72076 17.4545 7.72076 17.2688C7.72076 17.083 7.86825 16.9355 8.05398 16.9355C8.2397 16.9355 8.38719 17.083 8.38719 17.2688C8.38719 17.4545 8.2397 17.602 8.05398 17.602Z" fill="white"/>
<path d="M6.37151 17.5361C6.22403 17.5361 6.10931 17.4159 6.10931 17.2739C6.10931 17.1264 6.22949 17.0117 6.37151 17.0117C6.519 17.0117 6.63372 17.1319 6.63372 17.2739C6.63918 17.4159 6.519 17.5361 6.37151 17.5361Z" fill="white"/>
<path d="M4.69451 17.4656C4.58526 17.4656 4.49786 17.3782 4.49786 17.2689C4.49786 17.1597 4.58526 17.0723 4.69451 17.0723C4.80377 17.0723 4.89117 17.1597 4.89117 17.2689C4.89117 17.3782 4.80377 17.4656 4.69451 17.4656Z" fill="white"/>
<path d="M12.4786 20.6064C12.8165 20.6064 13.0904 20.3325 13.0904 19.9946C13.0904 19.6567 12.8165 19.3828 12.4786 19.3828C12.1407 19.3828 11.8668 19.6567 11.8668 19.9946C11.8668 20.3325 12.1407 20.6064 12.4786 20.6064Z" fill="white"/>
<path d="M10.9 20.4649C11.1594 20.4649 11.3697 20.2546 11.3697 19.9952C11.3697 19.7357 11.1594 19.5254 10.9 19.5254C10.6405 19.5254 10.4302 19.7357 10.4302 19.9952C10.4302 20.2546 10.6405 20.4649 10.9 20.4649Z" fill="white"/>
<path d="M9.31582 20.3285C9.13009 20.3285 8.9826 20.181 8.9826 19.9953C8.9826 19.8096 9.13009 19.6621 9.31582 19.6621C9.50154 19.6621 9.64903 19.8096 9.64903 19.9953C9.65449 20.181 9.50154 20.3285 9.31582 20.3285Z" fill="white"/>
<path d="M7.73718 20.1921C7.84583 20.1921 7.93383 20.1041 7.93383 19.9955C7.93383 19.8869 7.84583 19.7988 7.73718 19.7988C7.62858 19.7988 7.54053 19.8869 7.54053 19.9955C7.54053 20.1041 7.62858 20.1921 7.73718 20.1921Z" fill="white"/>
<path d="M13.4947 5.61228C13.8325 5.61228 14.1065 5.33836 14.1065 5.00047C14.1065 4.66258 13.8325 4.38867 13.4947 4.38867C13.1568 4.38867 12.8829 4.66258 12.8829 5.00047C12.8829 5.33836 13.1568 5.61228 13.4947 5.61228Z" fill="white"/>
<path d="M11.6975 5.50822C11.4189 5.50822 11.1895 5.28425 11.1895 5.0002C11.1895 4.72161 11.4134 4.49219 11.6975 4.49219C11.9761 4.49219 12.2055 4.71615 12.2055 5.0002C12.2055 5.28425 11.9815 5.50822 11.6975 5.50822Z" fill="white"/>
<path d="M9.90032 5.40513C9.67636 5.40513 9.49609 5.22487 9.49609 5.00091C9.49609 4.77694 9.67636 4.59668 9.90032 4.59668C10.1243 4.59668 10.3045 4.77694 10.3045 5.00091C10.3045 5.22487 10.1243 5.40513 9.90032 5.40513Z" fill="white"/>
<path d="M8.10314 5.3001C8.26909 5.3001 8.40358 5.16558 8.40358 4.99966C8.40358 4.83373 8.26909 4.69922 8.10314 4.69922C7.93725 4.69922 7.8027 4.83373 7.8027 4.99966C7.8027 5.16558 7.93725 5.3001 8.10314 5.3001Z" fill="white"/>
<path d="M6.30596 5.19701C6.19671 5.19701 6.10931 5.10961 6.10931 5.00036C6.10931 4.89111 6.19671 4.80371 6.30596 4.80371C6.41522 4.80371 6.50261 4.89111 6.50261 5.00036C6.50261 5.10961 6.41522 5.19701 6.30596 5.19701Z" fill="white"/>
<path d="M14.5162 8.33884C14.8541 8.33884 15.128 8.06493 15.128 7.72704C15.128 7.38915 14.8541 7.11523 14.5162 7.11523C14.1783 7.11523 13.9044 7.38915 13.9044 7.72704C13.9044 8.06493 14.1783 8.33884 14.5162 8.33884Z" fill="white"/>
<path d="M12.7791 8.26615C13.0777 8.26615 13.3199 8.02403 13.3199 7.72536C13.3199 7.42669 13.0777 7.18457 12.7791 7.18457C12.4804 7.18457 12.2383 7.42669 12.2383 7.72536C12.2383 8.02403 12.4804 8.26615 12.7791 8.26615Z" fill="white"/>
<path d="M11.042 8.19639C11.3015 8.19639 11.5118 7.98607 11.5118 7.72661C11.5118 7.46717 11.3015 7.25684 11.042 7.25684C10.7825 7.25684 10.5722 7.46717 10.5722 7.72661C10.5722 7.98607 10.7825 8.19639 11.042 8.19639Z" fill="white"/>
<path d="M9.30489 8.12974C9.08093 8.12974 8.90067 7.94948 8.90067 7.72552C8.90067 7.50155 9.08093 7.32129 9.30489 7.32129C9.52885 7.32129 9.70912 7.50155 9.70912 7.72552C9.70912 7.94948 9.52339 8.12974 9.30489 8.12974Z" fill="white"/>
<path d="M7.56237 8.06486C7.37664 8.06486 7.22916 7.91738 7.22916 7.73165C7.22916 7.54593 7.37664 7.39844 7.56237 7.39844C7.7481 7.39844 7.89558 7.54593 7.89558 7.73165C7.90105 7.91191 7.7481 8.06486 7.56237 8.06486Z" fill="white"/>
<path d="M5.82528 7.99413C5.67779 7.99413 5.56308 7.87395 5.56308 7.73193C5.56308 7.58444 5.68325 7.46973 5.82528 7.46973C5.97277 7.46973 6.08748 7.5899 6.08748 7.73193C6.09294 7.87395 5.97277 7.99413 5.82528 7.99413Z" fill="white"/>
<path d="M4.08819 7.92357C3.97894 7.92357 3.89154 7.83617 3.89154 7.72692C3.89154 7.61767 3.97894 7.53027 4.08819 7.53027C4.19744 7.53027 4.28484 7.61767 4.28484 7.72692C4.28484 7.83617 4.19744 7.92357 4.08819 7.92357Z" fill="white"/>
<path d="M16.0675 11.0634C16.4054 11.0634 16.6793 10.7896 16.6793 10.4516C16.6793 10.1137 16.4054 9.83984 16.0675 9.83984C15.7296 9.83984 15.4557 10.1137 15.4557 10.4516C15.4557 10.7896 15.7296 11.0634 16.0675 11.0634Z" fill="white"/>
<path d="M14.4506 11.0147C14.1447 11.0147 13.8934 10.7635 13.8934 10.4576C13.8934 10.1517 14.1447 9.90039 14.4506 9.90039C14.7565 9.90039 15.0078 10.1517 15.0078 10.4576C15.0078 10.7635 14.7565 11.0147 14.4506 11.0147Z" fill="white"/>
<path d="M12.8391 10.9604C12.5605 10.9604 12.3311 10.7364 12.3311 10.4524C12.3311 10.1738 12.5551 9.94434 12.8391 9.94434C13.1177 9.94434 13.3471 10.1683 13.3471 10.4524C13.3417 10.7364 13.1177 10.9604 12.8391 10.9604Z" fill="white"/>
<path d="M11.2222 10.9097C10.9709 10.9097 10.7688 10.7076 10.7688 10.4563C10.7688 10.205 10.9709 10.0029 11.2222 10.0029C11.4735 10.0029 11.6756 10.205 11.6756 10.4563C11.6756 10.7021 11.4735 10.9097 11.2222 10.9097Z" fill="white"/>
<path d="M9.6108 10.8553C9.38684 10.8553 9.20657 10.6751 9.20657 10.4511C9.20657 10.2271 9.38684 10.0469 9.6108 10.0469C9.83476 10.0469 10.015 10.2271 10.015 10.4511C10.0096 10.6751 9.8293 10.8553 9.6108 10.8553Z" fill="white"/>
<path d="M7.99389 10.8066C7.79724 10.8066 7.64429 10.6482 7.64429 10.457C7.64429 10.2604 7.8027 10.1074 7.99389 10.1074C8.18508 10.1074 8.34349 10.2658 8.34349 10.457C8.34349 10.6482 8.19054 10.8066 7.99389 10.8066Z" fill="white"/>
<path d="M6.38247 10.7522C6.21859 10.7522 6.08203 10.6157 6.08203 10.4518C6.08203 10.2879 6.21859 10.1514 6.38247 10.1514C6.54634 10.1514 6.68291 10.2879 6.68291 10.4518C6.67744 10.6211 6.54634 10.7522 6.38247 10.7522Z" fill="white"/>
<path d="M4.76553 10.7035C4.62897 10.7035 4.51971 10.5943 4.51971 10.4577C4.51971 10.3212 4.62897 10.2119 4.76553 10.2119C4.90209 10.2119 5.01134 10.3212 5.01134 10.4577C5.01134 10.5943 4.90209 10.7035 4.76553 10.7035Z" fill="white"/>
<path d="M3.15411 10.6482C3.04486 10.6482 2.95746 10.5608 2.95746 10.4515C2.95746 10.3423 3.04486 10.2549 3.15411 10.2549C3.26336 10.2549 3.35076 10.3423 3.35076 10.4515C3.3453 10.5608 3.2579 10.6482 3.15411 10.6482Z" fill="white"/>
<path d="M15.6469 13.789C15.9848 13.789 16.2587 13.5151 16.2587 13.1772C16.2587 12.8393 15.9848 12.5654 15.6469 12.5654C15.309 12.5654 15.0351 12.8393 15.0351 13.1772C15.0351 13.5151 15.309 13.789 15.6469 13.789Z" fill="white"/>
<path d="M14.0791 13.7345C14.3869 13.7345 14.6363 13.485 14.6363 13.1773C14.6363 12.8696 14.3869 12.6201 14.0791 12.6201C13.7714 12.6201 13.522 12.8696 13.522 13.1773C13.522 13.485 13.7714 13.7345 14.0791 13.7345Z" fill="white"/>
<path d="M12.5114 13.686C12.2328 13.686 12.0034 13.462 12.0034 13.1779C12.0034 12.8993 12.2273 12.6699 12.5114 12.6699C12.79 12.6699 13.0194 12.8939 13.0194 13.1779C13.0139 13.462 12.79 13.686 12.5114 13.686Z" fill="white"/>
<path d="M10.9382 13.6353C10.6869 13.6353 10.4848 13.4332 10.4848 13.1819C10.4848 12.9306 10.6869 12.7285 10.9382 12.7285C11.1894 12.7285 11.3916 12.9306 11.3916 13.1819C11.3916 13.4277 11.1894 13.6353 10.9382 13.6353Z" fill="white"/>
<path d="M9.37041 13.5809C9.59367 13.5809 9.77464 13.3999 9.77464 13.1767C9.77464 12.9534 9.59367 12.7725 9.37041 12.7725C9.14716 12.7725 8.96619 12.9534 8.96619 13.1767C8.96619 13.3999 9.14716 13.5809 9.37041 13.5809Z" fill="white"/>
<path d="M7.79723 13.5273C7.99028 13.5273 8.14683 13.3708 8.14683 13.1777C8.14683 12.9846 7.99028 12.8281 7.79723 12.8281C7.60413 12.8281 7.44763 12.9846 7.44763 13.1777C7.44763 13.3708 7.60413 13.5273 7.79723 13.5273Z" fill="white"/>
<path d="M6.22948 13.4778C6.06561 13.4778 5.92905 13.3413 5.92905 13.1774C5.92905 13.0135 6.06561 12.877 6.22948 12.877C6.39336 12.877 6.52992 13.0135 6.52992 13.1774C6.52992 13.3467 6.39336 13.4778 6.22948 13.4778Z" fill="white"/>
<path d="M4.65628 13.4291C4.51971 13.4291 4.41046 13.3199 4.41046 13.1833C4.41046 13.0468 4.51971 12.9375 4.65628 12.9375C4.79284 12.9375 4.90214 13.0468 4.90214 13.1833C4.90761 13.3199 4.79284 13.4291 4.65628 13.4291Z" fill="white"/>
<path d="M3.08856 13.3738C2.97931 13.3738 2.89191 13.2864 2.89191 13.1771C2.89191 13.0679 2.97931 12.9805 3.08856 12.9805C3.19781 12.9805 3.28521 13.0679 3.28521 13.1771C3.28521 13.2864 3.19781 13.3738 3.08856 13.3738Z" fill="white"/>
<path d="M15.4885 16.5205C15.8264 16.5205 16.1003 16.2466 16.1003 15.9087C16.1003 15.5708 15.8264 15.2969 15.4885 15.2969C15.1506 15.2969 14.8766 15.5708 14.8766 15.9087C14.8766 16.2466 15.1506 16.5205 15.4885 16.5205Z" fill="white"/>
<path d="M13.8279 16.455C13.522 16.455 13.2762 16.2092 13.2762 15.9033C13.2762 15.5974 13.522 15.3516 13.8279 15.3516C14.1338 15.3516 14.3796 15.5974 14.3796 15.9033C14.3796 16.2092 14.1338 16.455 13.8279 16.455Z" fill="white"/>
<path d="M12.1673 16.4002C12.4388 16.4002 12.6589 16.1801 12.6589 15.9086C12.6589 15.6371 12.4388 15.417 12.1673 15.417C11.8958 15.417 11.6756 15.6371 11.6756 15.9086C11.6756 16.1801 11.8958 16.4002 12.1673 16.4002Z" fill="white"/>
<path d="M10.5122 16.3406C10.7505 16.3406 10.9437 16.1474 10.9437 15.9091C10.9437 15.6707 10.7505 15.4775 10.5122 15.4775C10.2738 15.4775 10.0807 15.6707 10.0807 15.9091C10.0807 16.1474 10.2738 16.3406 10.5122 16.3406Z" fill="white"/>
<path d="M8.85152 16.28C8.64395 16.28 8.48007 16.1107 8.48007 15.9086C8.48007 15.7064 8.64941 15.5371 8.85152 15.5371C9.05364 15.5371 9.22297 15.7064 9.22297 15.9086C9.22297 16.1107 9.0591 16.28 8.85152 16.28Z" fill="white"/>
<path d="M7.19091 16.2206C7.01611 16.2206 6.87408 16.0785 6.87408 15.9037C6.87408 15.7289 7.01611 15.5869 7.19091 15.5869C7.36571 15.5869 7.50774 15.7289 7.50774 15.9037C7.50774 16.0785 7.36571 16.2206 7.19091 16.2206Z" fill="white"/>
<path d="M5.53576 16.159C5.39374 16.159 5.27902 16.0443 5.27902 15.9022C5.27902 15.7602 5.39374 15.6455 5.53576 15.6455C5.67779 15.6455 5.7925 15.7602 5.7925 15.9022C5.78704 16.0443 5.67779 16.159 5.53576 16.159Z" fill="white"/>
<path d="M3.87512 16.0994C3.76587 16.0994 3.67847 16.012 3.67847 15.9027C3.67847 15.7935 3.76587 15.7061 3.87512 15.7061C3.98437 15.7061 4.07177 15.7935 4.07177 15.9027C4.07177 16.012 3.98437 16.0994 3.87512 16.0994Z" fill="white"/>
<path d="M13.5274 19.247C13.8653 19.247 14.1392 18.9732 14.1392 18.6352C14.1392 18.2974 13.8653 18.0234 13.5274 18.0234C13.1895 18.0234 12.9156 18.2974 12.9156 18.6352C12.9156 18.9732 13.1895 19.247 13.5274 19.247Z" fill="white"/>
<path d="M11.987 19.1592C11.6975 19.1592 11.4626 18.9243 11.4626 18.6348C11.4626 18.3452 11.6975 18.1104 11.987 18.1104C12.2765 18.1104 12.5114 18.3452 12.5114 18.6348C12.5114 18.9243 12.2765 19.1592 11.987 19.1592Z" fill="white"/>
<path d="M10.4411 19.0773C10.6855 19.0773 10.8836 18.8792 10.8836 18.6348C10.8836 18.3905 10.6855 18.1924 10.4411 18.1924C10.1968 18.1924 9.99863 18.3905 9.99863 18.6348C9.99863 18.8792 10.1968 19.0773 10.4411 19.0773Z" fill="white"/>
<path d="M8.90066 18.9945C9.09977 18.9945 9.26118 18.8331 9.26118 18.634C9.26118 18.4349 9.09977 18.2734 8.90066 18.2734C8.70155 18.2734 8.54013 18.4349 8.54013 18.634C8.54013 18.8331 8.70155 18.9945 8.90066 18.9945Z" fill="white"/>
<path d="M7.36022 18.9126C7.5141 18.9126 7.63881 18.7879 7.63881 18.6341C7.63881 18.4802 7.5141 18.3555 7.36022 18.3555C7.20634 18.3555 7.08163 18.4802 7.08163 18.6341C7.08163 18.7879 7.20634 18.9126 7.36022 18.9126Z" fill="white"/>
<path d="M5.81979 18.8308C5.92838 18.8308 6.01644 18.7427 6.01644 18.6342C6.01644 18.5256 5.92838 18.4375 5.81979 18.4375C5.71119 18.4375 5.62314 18.5256 5.62314 18.6342C5.62314 18.7427 5.71119 18.8308 5.81979 18.8308Z" fill="white"/>
<path d="M23.5 12C23.5 18.3513 18.3513 23.5 12 23.5C5.64873 23.5 0.5 18.3513 0.5 12C0.5 5.64873 5.64873 0.5 12 0.5C18.3513 0.5 23.5 5.64873 23.5 12Z" stroke="black" stroke-opacity="0.097"/>
<defs>
<linearGradient id="paint0_linear" x1="82.7676" y1="35.6447" x2="32.7144" y2="-48.6171" gradientUnits="userSpaceOnUse">
<stop offset="9.98612e-09" stop-color="#4EC8FD"/>
<stop offset="1" stop-color="#51C582"/>
</linearGradient>
</defs>
</svg>
