<svg width="24" height="24" viewBox="0 0 24 24" fill="none" xmlns="http://www.w3.org/2000/svg">
<path d="M12 24C18.6274 24 24 18.6274 24 12C24 5.37258 18.6274 0 12 0C5.37258 0 0 5.37258 0 12C0 18.6274 5.37258 24 12 24Z" fill="#00DCB1"/>
<path d="M23.5 12C23.5 18.3513 18.3513 23.5 12 23.5C5.64873 23.5 0.5 18.3513 0.5 12C0.5 5.64873 5.64873 0.5 12 0.5C18.3513 0.5 23.5 5.64873 23.5 12Z" stroke="black" stroke-opacity="0.097"/>
<path d="M5.75982 9.80271C5.75982 8.5952 5.76377 7.3877 5.75586 6.1802C5.75586 6.0006 5.82311 5.98531 5.97343 6.00824C6.80413 6.13434 7.38563 6.78777 7.38563 7.61315C7.38958 9.3862 7.38563 11.1592 7.38563 12.9323C7.38563 15.1104 8.95606 16.9484 11.1752 17.3573C13.7148 17.8273 16.2069 16.1192 16.5946 13.6507C16.6381 13.3679 16.6619 13.0851 16.6619 12.7985C16.6619 11.0714 16.6619 9.34034 16.6619 7.61315C16.6619 6.77631 17.2117 6.15345 18.0661 6.01206C18.2323 5.98531 18.2877 6.01588 18.2877 6.1993C18.2798 8.45 18.2837 10.6969 18.2837 12.9476C18.2837 15.7906 16.2505 18.2361 13.3667 18.8552C10.0755 19.5621 6.79227 17.6094 5.95365 14.4531C5.81915 13.9525 5.75982 13.4443 5.75982 12.9285C5.75982 11.8891 5.75982 10.8459 5.75982 9.80271Z" fill="white"/>
<path d="M9.88963 10.0507C10.1705 9.87496 10.4197 9.71829 10.7006 9.60748C12.7378 8.78974 15.0677 10.0316 15.4356 12.1333C15.76 13.9866 14.4467 15.7367 12.5202 16.0195C10.6412 16.2946 8.84531 14.9954 8.58028 13.1612C8.55654 13.0045 8.54863 12.8441 8.54863 12.6874C8.54468 11.3767 8.54863 10.0698 8.54863 8.75917C8.54863 8.53372 8.56446 8.52225 8.79785 8.57193C9.47428 8.71331 9.88172 9.20625 9.88568 9.87496C9.88963 9.92082 9.88963 9.96285 9.88963 10.0507ZM14.1421 12.6912C14.1421 11.5716 13.1848 10.6507 12.0178 10.6507C10.8509 10.6507 9.9015 11.5639 9.89754 12.695C9.88963 13.8261 10.8548 14.7623 12.0218 14.7585C13.1927 14.7547 14.1421 13.8299 14.1421 12.6912Z" fill="white"/>
<path d="M14.7552 7.33398C15.1785 7.33781 15.5503 7.69318 15.5503 8.09823C15.5543 8.51856 15.1824 8.87776 14.7512 8.87776C14.3121 8.87776 13.9482 8.5262 13.9482 8.10205C13.9482 7.68936 14.3201 7.33398 14.7552 7.33398Z" fill="white"/>
</svg>
