<svg width="24" height="24" viewBox="0 0 24 24" fill="none" xmlns="http://www.w3.org/2000/svg">
<path d="M12 24C18.6274 24 24 18.6274 24 12C24 5.37258 18.6274 0 12 0C5.37258 0 0 5.37258 0 12C0 18.6274 5.37258 24 12 24Z" fill="#2170FB"/>
<path d="M12 24C18.6274 24 24 18.6274 24 12C24 5.37258 18.6274 0 12 0C5.37258 0 0 5.37258 0 12C0 18.6274 5.37258 24 12 24Z" fill="#CE62B5"/>
<path d="M23.5 12C23.5 18.3513 18.3513 23.5 12 23.5C5.64873 23.5 0.5 18.3513 0.5 12C0.5 5.64873 5.64873 0.5 12 0.5C18.3513 0.5 23.5 5.64873 23.5 12Z" stroke="white" stroke-opacity="0.3"/>
<path d="M15.6094 4L8.78561 19.4037H7L13.822 4H15.6094Z" fill="white"/>
<path d="M17.0071 9.84348C18.0296 9.84348 18.8585 9.01457 18.8585 7.99205C18.8585 6.96954 18.0296 6.14062 17.0071 6.14062C15.9845 6.14062 15.1556 6.96954 15.1556 7.99205C15.1556 9.01457 15.9845 9.84348 17.0071 9.84348Z" fill="white"/>
</svg>
