<svg width="24" height="24" viewBox="0 0 24 24" fill="none" xmlns="http://www.w3.org/2000/svg">
<path d="M12 24C18.6274 24 24 18.6274 24 12C24 5.37258 18.6274 0 12 0C5.37258 0 0 5.37258 0 12C0 18.6274 5.37258 24 12 24Z" fill="#2A2B75"/>
<path d="M23.5 12C23.5 18.3513 18.3513 23.5 12 23.5C5.64873 23.5 0.5 18.3513 0.5 12C0.5 5.64873 5.64873 0.5 12 0.5C18.3513 0.5 23.5 5.64873 23.5 12Z" stroke="black" stroke-opacity="0.097"/>
<path d="M6 7.49842C6.08775 7.41199 6.18224 7.35215 6.31724 7.35215C6.82347 7.36545 7.32295 7.41199 7.79543 7.59149C9.20613 8.13 10.5966 8.15659 12.0343 7.65797C13.445 7.17265 14.8759 7.23913 16.2866 7.77099C16.6916 7.9239 17.1236 8.00368 17.5623 8.01698C17.9065 8.02363 18.0145 8.15659 17.9943 8.47571C17.974 8.83471 17.9875 9.20037 17.9875 9.55937C17.9875 9.95827 17.9335 10.0115 17.5151 9.98486C16.7658 9.93167 16.0436 9.75217 15.3349 9.51948C14.3764 9.20702 13.4315 9.24026 12.4865 9.55272C11.2108 9.97821 9.9081 10.1245 8.57165 9.8386C7.98442 9.71228 7.42419 9.49954 6.83697 9.36657C6.56023 9.30009 6.25649 9.36657 6 9.20702C6 8.64191 6 8.07016 6 7.49842Z" fill="white"/>
<path d="M6 10.9225C6.16199 10.8028 6.33749 10.7961 6.53323 10.8094C7.18795 10.856 7.80893 11.0022 8.40966 11.2549C9.10488 11.5407 9.82035 11.5208 10.5493 11.5009C11.1703 11.4876 11.7035 11.1884 12.284 11.0355C13.6407 10.6765 14.9704 10.7097 16.2799 11.2349C16.7118 11.4078 17.1573 11.4942 17.6163 11.5075C17.893 11.5142 18.0213 11.6072 18.001 11.8998C17.9808 12.3053 17.9875 12.7108 18.001 13.1164C18.0078 13.369 17.8998 13.4355 17.6635 13.4421C16.8603 13.4488 16.0976 13.2626 15.3484 12.9834C14.4169 12.6444 13.4585 12.6643 12.5337 13.0034C10.9003 13.5951 9.27362 13.615 7.63344 13.0432C7.21495 12.9103 6.79647 12.784 6.35774 12.7773C6.20924 12.7773 6.108 12.7175 6 12.6377C6 12.066 6 11.4942 6 10.9225Z" fill="white"/>
<path d="M6 14.8122C6.13499 14.7258 6.27674 14.6992 6.43873 14.6992C10.1443 14.7059 13.8499 14.7059 17.5623 14.6992C17.8728 14.6992 18.0145 14.7923 18.001 15.1114C17.9808 15.517 17.9943 15.9225 17.9943 16.328C17.9943 16.4809 17.9673 16.6139 17.7985 16.6671C17.6636 16.6605 17.5286 16.6538 17.4003 16.6538C13.6002 16.6538 9.8001 16.6538 6 16.6538C6 16.0422 6 15.4239 6 14.8122Z" fill="white"/>
</svg>
