<svg width="24" height="24" viewBox="0 0 24 24" fill="none" xmlns="http://www.w3.org/2000/svg">
<path d="M12 24C18.6274 24 24 18.6274 24 12C24 5.37258 18.6274 0 12 0C5.37258 0 0 5.37258 0 12C0 18.6274 5.37258 24 12 24Z" fill="url(#paint0_linear)"/>
<path d="M23.5 12C23.5 18.3513 18.3513 23.5 12 23.5C5.64873 23.5 0.5 18.3513 0.5 12C0.5 5.64873 5.64873 0.5 12 0.5C18.3513 0.5 23.5 5.64873 23.5 12Z" stroke="black" stroke-opacity="0.097"/>
<path fill-rule="evenodd" clip-rule="evenodd" d="M15.8817 10.5492C16.0148 10.4758 16.5646 10.2302 16.8372 11.0025C17.8295 13.7382 16.5925 16.9617 13.9232 18.34C13.0821 18.7744 12.1835 18.9855 11.2946 18.9997L11.1613 19.0003C9.25259 18.9885 7.4035 18.0714 6.28037 16.5073C5.74054 15.7554 6.52719 15.4418 6.52719 15.4418L15.8521 10.5667L15.8817 10.5492Z" fill="white"/>
<path fill-rule="evenodd" clip-rule="evenodd" d="M13.0629 4.92772C14.9245 4.98045 16.7138 5.89087 17.8108 7.41846C18.3506 8.17027 17.5639 8.48392 17.5639 8.48392L8.23903 13.3591C8.23903 13.3591 7.56545 13.8058 7.25389 12.9233L7.20901 12.7947C6.30061 10.0874 7.54026 6.94261 10.1679 5.58575C11.051 5.12973 11.9974 4.91964 12.9298 4.92541L13.0629 4.92772Z" fill="white"/>
<defs>
<linearGradient id="paint0_linear" x1="5" y1="2.5" x2="22" y2="21" gradientUnits="userSpaceOnUse">
<stop stop-color="#B9B1E2"/>
<stop offset="1" stop-color="#E091A6"/>
</linearGradient>
</defs>
</svg>
