<svg width="24" height="24" viewBox="0 0 24 24" fill="none" xmlns="http://www.w3.org/2000/svg">
<path d="M12 24C18.6274 24 24 18.6274 24 12C24 5.37258 18.6274 0 12 0C5.37258 0 0 5.37258 0 12C0 18.6274 5.37258 24 12 24Z" fill="#3D02FE"/>
<path d="M18.9932 6.13502C18.9962 6.19518 18.9993 6.25534 18.9993 6.3155C18.9993 10.3101 18.9993 14.3048 18.9993 18.2964C18.9993 18.3475 19.0023 18.3987 18.9962 18.4468C18.9782 18.5581 18.906 18.5972 18.8007 18.5731C18.7526 18.5611 18.7105 18.531 18.6654 18.5069C16.9207 17.4993 15.1761 16.4916 13.4344 15.4839C13.3953 15.4628 13.3592 15.4358 13.3201 15.4117C13.3592 15.3455 13.4254 15.3275 13.4796 15.2974C13.8465 15.0838 14.2165 14.8733 14.5835 14.6537C14.6617 14.6056 14.7219 14.6056 14.8001 14.6537C15.6092 15.126 16.4214 15.5922 17.2336 16.0614C17.2757 16.0855 17.3178 16.1156 17.3659 16.1336C17.4952 16.1908 17.5945 16.1306 17.6065 15.9862C17.6096 15.9562 17.6065 15.9261 17.6065 15.896C17.6065 13.4896 17.6065 11.0862 17.6065 8.6798C17.6065 8.65874 17.6065 8.64069 17.6065 8.61964C17.6005 8.43314 17.4892 8.36997 17.3238 8.46623C16.641 8.85727 15.9612 9.25432 15.2814 9.64537C13.3322 10.7734 11.386 11.8954 9.43981 13.0264C9.33754 13.0865 9.26535 13.0805 9.16909 13.0234C8.86528 12.8399 8.55546 12.6654 8.24563 12.4879C7.99898 12.3435 7.99597 12.2413 8.23962 12.0999C10.4776 10.8065 12.7155 9.51301 14.9535 8.21957C16.1025 7.5548 17.2516 6.89304 18.4007 6.22526C18.4458 6.2012 18.9932 5.79512 18.9932 6.13502Z" fill="white"/>
<path d="M5.46022 6.13497C5.93248 6.41171 6.40173 6.68845 6.87399 6.96217C8.10426 7.67507 9.33754 8.38797 10.5708 9.09786C10.6761 9.15802 10.6972 9.19111 10.5768 9.25728C10.1888 9.47687 9.80078 9.69946 9.41876 9.92807C9.32852 9.98221 9.26836 9.96717 9.18714 9.91904C8.36295 9.44077 7.53876 8.96551 6.71456 8.48723C6.49799 8.3609 6.39571 8.41805 6.39571 8.66471C6.39571 11.0801 6.39571 13.4956 6.39571 15.911C6.39571 16.1576 6.49799 16.2148 6.71757 16.0885C9.30446 14.5935 11.8883 13.1015 14.4722 11.6005C14.6376 11.5043 14.752 11.4922 14.9144 11.6005C15.1941 11.784 15.4919 11.9404 15.7837 12.1089C15.9943 12.2292 15.9943 12.3435 15.7837 12.4668C13.627 13.7121 11.4732 14.9605 9.31649 16.2058C7.99898 16.9668 6.67847 17.7308 5.36096 18.4919C5.31885 18.5159 5.27373 18.546 5.22861 18.564C5.10528 18.6122 5.01805 18.561 5.00602 18.4317C5.00301 18.3926 5.00301 18.3505 5.00301 18.3114C5 14.3077 5 10.3011 5 6.29741C5 6.24326 5.00602 6.18912 5.00902 6.13197C5.00902 5.98156 5.2617 6.00563 5.46022 6.13497Z" fill="white"/>
<path d="M23.5 12C23.5 18.3513 18.3513 23.5 12 23.5C5.64873 23.5 0.5 18.3513 0.5 12C0.5 5.64873 5.64873 0.5 12 0.5C18.3513 0.5 23.5 5.64873 23.5 12Z" stroke="white" stroke-opacity="0.3"/>
</svg>
