<svg width="24" height="24" viewBox="0 0 24 24" fill="none" xmlns="http://www.w3.org/2000/svg">
<path d="M12 24C18.6274 24 24 18.6274 24 12C24 5.37258 18.6274 0 12 0C5.37258 0 0 5.37258 0 12C0 18.6274 5.37258 24 12 24Z" fill="#2170FB"/>
<path d="M12 24C18.6274 24 24 18.6274 24 12C24 5.37258 18.6274 0 12 0C5.37258 0 0 5.37258 0 12C0 18.6274 5.37258 24 12 24Z" fill="black"/>
<path d="M23.5 12C23.5 18.3513 18.3513 23.5 12 23.5C5.64873 23.5 0.5 18.3513 0.5 12C0.5 5.64873 5.64873 0.5 12 0.5C18.3513 0.5 23.5 5.64873 23.5 12Z" stroke="white" stroke-opacity="0.3"/>
<path fill-rule="evenodd" clip-rule="evenodd" d="M18.8079 9.69024C17.9754 9.21393 16.9497 9.21393 16.1171 9.69024L12.0811 11.9996L16.1171 14.3091C16.9497 14.7855 17.9754 14.7855 18.8079 14.3091C19.6405 13.8327 20.1531 12.9524 20.1531 11.9996C20.1531 11.047 19.6405 10.1665 18.8079 9.69024Z" fill="white"/>
<path fill-rule="evenodd" clip-rule="evenodd" d="M5.35441 9.69024C4.52186 10.1665 4.00903 11.047 4.00903 11.9996C4.00903 12.9524 4.52186 13.8327 5.35441 14.3091C6.18685 14.7855 7.21261 14.7855 8.04506 14.3091L12.0812 11.9996L8.04506 9.69024C7.21261 9.21393 6.18685 9.21393 5.35441 9.69024Z" fill="white"/>
<path fill-rule="evenodd" clip-rule="evenodd" d="M9.75108 18.6667C10.2318 19.4918 11.12 20 12.0814 20C13.0427 20 13.9309 19.4918 14.4115 18.6667C14.8923 17.8417 14.8923 16.8252 14.4115 16.0001L12.0814 12L9.75108 16.0001C9.27045 16.8252 9.27045 17.8417 9.75108 18.6667Z" fill="white"/>
<path fill-rule="evenodd" clip-rule="evenodd" d="M14.4115 5.33335C13.9309 4.50824 13.0427 4 12.0814 4C11.12 4 10.2318 4.50824 9.75108 5.33335C9.27045 6.15835 9.27045 7.17495 9.75108 7.99995L12.0814 11.9999L14.4115 7.99995C14.8923 7.17495 14.8923 6.15835 14.4115 5.33335Z" fill="white"/>
</svg>
