<svg width="400" height="400" xmlns="http://www.w3.org/2000/svg">
    <g fill="none" fill-rule="evenodd">
        <path fill="#5DEB5A" d="M0 0h400v400H0z"/>
        <g fill-rule="nonzero">
            <path d="M200.5 62.4a42.76 42.76 0 0122.498 6.39 42.737 42.737 0 0115.484 16.694l.29.57 80.312 160.622a42.79 42.79 0 01-37.76 61.921l-.512.003H120.188a42.786 42.786 0 01-36.398-20.297 42.788 42.788 0 01-2.113-41.141l.24-.486 80.31-160.622a42.775 42.775 0 0115.78-17.265A42.748 42.748 0 01200.5 62.4zm-.536 8.835c-6.37.099-12.403 1.943-17.559 5.185-5.15 3.24-9.426 7.876-12.279 13.582h0L89.814 250.624l-.234.476c-5.049 10.494-4.418 22.624 1.723 32.562 6.235 10.087 17.033 16.107 28.885 16.107h160.624l.493-.004c11.658-.164 22.244-6.156 28.392-16.103 6.227-10.09 6.782-22.437 1.482-33.038h0L230.867 90.002l-.269-.526c-2.907-5.576-7.191-10.099-12.38-13.25-5.276-3.203-11.494-4.993-18.254-4.99z" stroke="#FFF" stroke-width="10.8"/>
            <path d="M157.508 276.646h13.23V220.48H158.22v34.143l-21.072-34.143h-15.21v56.165h12.437V239.73l23.132 36.915zm46.58-57.353c15.764 0 29.152 11.486 29.152 29.31 0 17.745-13.388 29.231-29.152 29.231-15.844 0-29.231-11.486-29.231-29.23 0-17.825 13.387-29.311 29.23-29.311zm39.846 1.188l13.546 39.53 13.388-39.53h13.309l-20.518 56.165h-12.912L230.15 220.48h13.784zm-39.846 11.011c-7.843 0-16.24 5.308-16.24 17.032s8.397 16.952 16.24 16.952c7.763 0 16.16-5.228 16.16-16.952 0-11.724-8.397-17.032-16.16-17.032z" fill="#FFF"/>
        </g>
        <path d="M139.549 188.909l8.122.054a7.481 7.481 0 01-.33-2.176c0-2.938 1.647-5.224 4.995-5.224 3.183 0 4.775 1.96 4.775 4.19 0 2.34-1.098 3.809-3.897 5.441l-5.817 3.374c-6.531 3.754-8.397 9.086-8.397 15.561h27.056v-7.182h-16.464c.494-1.034 1.372-1.741 2.415-2.394l6.75-3.972c4.555-2.666 7.025-6.42 7.025-10.991 0-6.312-5.05-11.59-13.226-11.59-8.562 0-13.336 5.659-13.336 11.97 0 1.089.164 2.504.329 2.939zm30.02 3.591c0 4.353.658 8.76 3.128 12.46 2.36 3.483 6.311 6.04 12.074 6.04 5.817 0 9.768-2.557 12.128-6.04 2.47-3.7 3.128-8.107 3.128-12.46 0-4.353-.658-8.76-3.128-12.46-2.36-3.537-6.311-6.04-12.128-6.04-5.763 0-9.714 2.503-12.074 6.04-2.47 3.7-3.128 8.107-3.128 12.46zm8.67 0c0-2.83.33-5.604 1.318-7.672.988-1.959 2.58-3.265 5.214-3.265 2.689 0 4.225 1.306 5.213 3.265 1.043 2.068 1.372 4.843 1.372 7.672 0 2.83-.329 5.604-1.372 7.672-.988 1.959-2.524 3.265-5.213 3.265-2.635 0-4.226-1.306-5.214-3.265-.988-2.068-1.317-4.843-1.317-7.672zm26.014-3.591l8.123.054a7.481 7.481 0 01-.33-2.176c0-2.938 1.647-5.224 4.994-5.224 3.184 0 4.775 1.96 4.775 4.19 0 2.34-1.098 3.809-3.896 5.441l-5.818 3.374c-6.53 3.754-8.397 9.086-8.397 15.561h27.057v-7.182h-16.465c.494-1.034 1.372-1.741 2.415-2.394l6.75-3.972c4.556-2.666 7.025-6.42 7.025-10.991 0-6.312-5.049-11.59-13.226-11.59-8.561 0-13.336 5.659-13.336 11.97 0 1.089.165 2.504.33 2.939zm30.24 0l8.122.054a7.481 7.481 0 01-.33-2.176c0-2.938 1.647-5.224 4.995-5.224 3.183 0 4.774 1.96 4.774 4.19 0 2.34-1.097 3.809-3.896 5.441l-5.817 3.374c-6.531 3.754-8.397 9.086-8.397 15.561H261v-7.182h-16.464c.494-1.034 1.372-1.741 2.415-2.394l6.75-3.972c4.555-2.666 7.025-6.42 7.025-10.991 0-6.312-5.05-11.59-13.227-11.59-8.561 0-13.336 5.659-13.336 11.97 0 1.089.165 2.504.33 2.939z" fill="#FFF" fill-rule="nonzero"/>
    </g>
</svg>