<svg width="24" height="24" viewBox="0 0 24 24" fill="none" xmlns="http://www.w3.org/2000/svg">
<path fill-rule="evenodd" clip-rule="evenodd" d="M0 12C0 5.37259 5.37259 0 12 0C18.6274 0 24 5.37259 24 12C24 18.6274 18.6274 24 12 24C5.37259 24 0 18.6274 0 12Z" fill="black"/>
<path d="M23.5 12C23.5 18.3513 18.3513 23.5 12 23.5C5.64873 23.5 0.5 18.3513 0.5 12C0.5 5.64873 5.64873 0.5 12 0.5C18.3513 0.5 23.5 5.64873 23.5 12Z" stroke="white" stroke-opacity="0.3"/>
<g clip-path="url(#clip0)">
<path d="M18.1564 10.1036C18.1147 9.97851 18.0897 9.87846 18.0563 9.78675C17.1053 7.43552 15.3869 6.01812 12.8676 5.61791C12.3837 5.54287 11.8916 5.56788 11.3994 5.55954C11.2659 5.55954 11.2158 5.51786 11.2242 5.38445C11.2325 4.97591 11.2242 4.56736 11.2242 4.16715C11.2242 4.08378 11.2242 4.01707 11.341 4.00874C12.7591 3.96705 14.1356 4.14214 15.4202 4.78414C17.731 5.9264 19.2158 7.75235 19.7914 10.262C20.659 14.064 18.6486 17.8993 15.0448 19.4001C11.1825 21.0093 6.66945 19.3084 4.81752 15.5481C4.27529 14.4392 4 13.2636 4 12.0296C4 11.4376 4 10.854 4 10.262C4 10.2203 4.00834 10.1703 4.00834 10.1036C8.72158 10.1036 13.4181 10.1036 18.1564 10.1036ZM12.7675 17.2656C12.3504 17.2656 11.9666 17.299 11.5829 17.2573C9.67258 17.0822 8.25443 16.1317 7.32847 14.4642C6.878 13.6471 6.69447 12.7633 6.7195 11.8295C6.7195 11.6877 6.68613 11.6377 6.53597 11.6377C6.26069 11.646 5.9854 11.646 5.71011 11.6377C5.60167 11.6377 5.54327 11.6711 5.55162 11.7878C5.5683 12.0713 5.55162 12.3631 5.58498 12.6466C5.76851 14.2557 6.43587 15.6231 7.62878 16.7237C9.06361 18.041 10.7737 18.608 12.7091 18.4079C14.269 18.2495 15.5954 17.5741 16.6715 16.4402C17.8728 15.1729 18.4651 13.6554 18.4567 11.9045C18.4567 11.646 18.4484 11.646 18.1898 11.646C14.9698 11.646 11.7497 11.646 8.52972 11.646C8.48801 11.646 8.4463 11.646 8.40459 11.646C8.29614 11.6377 8.25443 11.6877 8.26277 11.7961C8.27946 12.0296 8.27112 12.263 8.29614 12.4965C8.47967 14.1057 9.84776 15.4981 11.4578 15.6982C11.8248 15.7398 12.2086 15.7398 12.5839 15.7398C12.7508 15.7398 12.7841 15.7899 12.7841 15.9483C12.7758 16.3318 12.7841 16.7237 12.7841 17.1072C12.7675 17.1573 12.7675 17.2156 12.7675 17.2656Z" fill="white"/>
<path d="M11.9833 12.8213C12.4839 12.8213 12.8676 13.1965 12.8759 13.6967C12.8759 14.1887 12.4839 14.5805 11.9917 14.5805C11.4912 14.5805 11.1074 14.197 11.1074 13.6967C11.1074 13.2048 11.4912 12.8213 11.9833 12.8213Z" fill="white"/>
</g>
<defs>
<clipPath id="clip0">
<rect width="16" height="16" fill="white" transform="translate(4 4)"/>
</clipPath>
</defs>
</svg>
