<svg width="40" height="40" viewBox="0 0 40 40" fill="none" xmlns="http://www.w3.org/2000/svg"><rect fill="#D61194" width="40" height="40" rx="12"/><g transform="translate(4 4)"><circle cx="16" cy="16" r="14" fill="#fff"/><svg width="32" height="32" viewBox="0 0 32 32" xmlns="http://www.w3.org/2000/svg"><path fill-rule="evenodd" clip-rule="evenodd" d="M0 16C0 7.163 7.163 0 16 0s16 7.163 16 16-7.163 16-16 16S0 24.837 0 16z" fill="#D61194"/><path fill-rule="evenodd" clip-rule="evenodd" d="M8.89 14.222h3.018c.745-2.16 1.365-3.96 1.471-4.28.19-.571.502-1.075.977-1.43C14.835 8.151 15.403 8 16 8c.598 0 1.166.152 1.645.511.475.356.786.86.976 1.43.107.32.727 2.12 1.472 4.281h3.018a.889.889 0 110 1.778H8.89a.889.889 0 010-1.778zm6.532-4.289c-.117.088-.25.252-.356.57-.1.3-.623 1.821-1.278 3.72h4.424a910.14 910.14 0 01-1.277-3.72c-.106-.318-.24-.482-.357-.57-.113-.085-.286-.155-.578-.155-.291 0-.464.07-.578.155zM8.89 17.778a.889.889 0 100 1.777h1.176l-.475 1.377-.474 1.371-.179.517a.889.889 0 001.68.581l.18-.517.473-1.372.676-1.957h8.106l.677 1.957.652 1.89a.889.889 0 101.68-.582l-.178-.517-.474-1.371-.476-1.377h1.177a.889.889 0 000-1.777H8.89z" fill="#fff"/></svg></g></svg>