<svg width="24" height="24" viewBox="0 0 24 24" fill="none" xmlns="http://www.w3.org/2000/svg">
<path d="M12 24C18.6274 24 24 18.6274 24 12C24 5.37258 18.6274 0 12 0C5.37258 0 0 5.37258 0 12C0 18.6274 5.37258 24 12 24Z" fill="#FE941A"/>
<path d="M23.5 12C23.5 18.3513 18.3513 23.5 12 23.5C5.64873 23.5 0.5 18.3513 0.5 12C0.5 5.64873 5.64873 0.5 12 0.5C18.3513 0.5 23.5 5.64873 23.5 12Z" stroke="black" stroke-opacity="0.097"/>
<path d="M11.999 2.91505C16.9418 2.90699 21.046 6.94911 20.9996 12.0557C20.9553 17.0514 16.8853 21.0794 11.8801 21.0169C7.00386 20.9564 2.95007 16.9506 3.00046 11.8662C3.05086 6.88662 7.08449 2.91102 11.999 2.91505ZM20.5178 11.971C20.5138 11.3017 20.4372 10.6223 20.2961 10.0256C19.8768 8.25751 18.9959 6.75961 17.6393 5.55201C16.1193 4.20127 14.3333 3.49365 12.3054 3.40293C11.6059 3.37269 10.9125 3.43519 10.2271 3.58437C8.6669 3.92306 7.3022 4.63875 6.15117 5.74555C4.52643 7.30797 3.64754 9.22319 3.50039 11.4711C3.44596 12.2875 3.50845 13.102 3.70398 13.8963C4.35912 16.5434 5.90121 18.4929 8.3484 19.6984C9.9671 20.4948 11.6846 20.7105 13.4585 20.4041C15.0893 20.1238 16.5225 19.4202 17.732 18.2953C19.5664 16.5918 20.4735 14.4689 20.5178 11.971Z" fill="#FEFDFC"/>
<path d="M8.15683 10.7859C8.14473 10.7133 8.18908 10.6044 8.26165 10.5036C8.47734 10.2073 8.7273 9.93916 8.98129 9.67909C10.1363 8.4977 11.3539 7.38688 12.6279 6.33653C12.9323 6.08452 13.2407 5.83655 13.5794 5.6289C13.8414 5.46762 13.8737 5.47568 14.0027 5.74986C14.2506 6.28209 14.426 6.84255 14.5993 7.40099C15.071 8.91704 15.4883 10.4472 15.825 11.9975C15.9036 12.3564 15.9741 12.7193 16.0003 13.0882C16.0104 13.2233 15.9802 13.3382 15.9016 13.445C15.7222 13.697 15.5145 13.9248 15.2988 14.1466C14.0773 15.4086 12.7831 16.59 11.4245 17.7009C11.1443 17.9307 10.86 18.1545 10.5476 18.3419C10.3198 18.477 10.2875 18.469 10.1726 18.227C9.93678 17.7371 9.77552 17.219 9.61224 16.7009C9.12643 15.1627 8.69908 13.6063 8.35438 12.0298C8.27173 11.6367 8.19109 11.2435 8.15683 10.7859Z" fill="#FEFEFE"/>
</svg>
