<svg width="679" height="679" viewBox="0 0 679 679" fill="none" xmlns="http://www.w3.org/2000/svg">
<path d="M113.036 339.105L0 339.105L5.92126e-06 452.142L113.036 452.142L113.036 339.105Z" fill="#74E7BF"/>
<path d="M0.00299835 565.18L113.039 565.18L113.039 678.216L0.00299451 678.216L0.00299835 565.18Z" fill="#74E7BF"/>
<path d="M0.00299835 452.145L113.039 452.145L113.039 565.181L0.00299451 565.181L0.00299835 452.145Z" fill="#74E7BF"/>
<path d="M113.036 226.074L0 226.074L5.92126e-06 339.11L113.036 339.11L113.036 226.074Z" fill="#74E7BF"/>
<path d="M113.036 113.035L0 113.035L5.92126e-06 226.071L113.036 226.071L113.036 113.035Z" fill="#74E7BF"/>
<path d="M113.036 -5.92126e-06L0 0L5.92126e-06 113.036L113.036 113.036L113.036 -5.92126e-06Z" fill="#74E7BF"/>
<path d="M226.075 113.035L113.039 113.035L113.039 226.071L226.075 226.071L226.075 113.035Z" fill="#74E7BF"/>
<path d="M339.134 226.074L226.098 226.074L226.098 339.11L339.134 339.11L339.134 226.074Z" fill="#74E7BF"/>
<path d="M452.153 339.105L339.117 339.105L339.117 452.142L452.153 452.142L452.153 339.105Z" fill="#74E7BF"/>
<path d="M565.169 452.145L452.133 452.145L452.133 565.181L565.169 565.181L565.169 452.145Z" fill="#74E7BF"/>
<path d="M678.231 565.18L565.195 565.18L565.195 678.216L678.231 678.216L678.231 565.18Z" fill="#74E7BF"/>
<path d="M678.231 452.148L565.195 452.148L565.195 565.185L678.231 565.184L678.231 452.148Z" fill="#74E7BF"/>
<path d="M678.231 339.105L565.195 339.105L565.195 452.142L678.231 452.142L678.231 339.105Z" fill="#74E7BF"/>
<path d="M678.231 226.074L565.195 226.074L565.195 339.11L678.231 339.11L678.231 226.074Z" fill="#74E7BF"/>
<path d="M678.231 113.035L565.195 113.035L565.195 226.071L678.231 226.071L678.231 113.035Z" fill="#74E7BF"/>
<path d="M678.231 -5.92126e-06L565.195 0L565.195 113.036L678.231 113.036L678.231 -5.92126e-06Z" fill="#74E7BF"/>
</svg>
