<svg width="256" height="256" viewBox="0 0 256 256" fill="none" xmlns="http://www.w3.org/2000/svg">
<g clip-path="url(#clip0)">
<circle cx="127.998" cy="127.946" r="128.002" fill="#EDF0F2"/>
<path d="M209.259 226.845C189.699 242.917 165.812 252.828 140.619 255.324C106.836 258.671 73.1073 248.461 46.8525 226.939C20.5977 205.418 3.96753 174.349 0.620392 140.566C-1.87568 115.373 3.15488 90.0056 15.0759 67.6717C26.997 45.3377 45.2731 27.0404 67.5932 15.0933C89.9133 3.14633 115.275 -1.91371 140.471 0.553076C165.667 3.01987 189.565 12.9027 209.144 28.9518L183.325 60.4499C169.976 49.5073 153.681 42.769 136.502 41.0871C119.323 39.4052 102.031 42.8552 86.813 51.0009C71.5948 59.1466 59.1338 71.6221 51.0058 86.8497C42.8778 102.077 39.4479 119.373 41.1498 136.55C43.4319 159.584 54.7706 180.768 72.6716 195.441C90.5726 210.115 113.569 217.076 136.603 214.794C153.78 213.092 170.067 206.335 183.404 195.377L209.259 226.845Z" fill="url(#paint0_linear)"/>
<path d="M127.998 240.553C190.19 240.553 240.606 190.137 240.606 127.946C240.606 65.7542 190.19 15.3382 127.998 15.3382C65.807 15.3382 15.391 65.7542 15.391 127.946C15.391 190.137 65.807 240.553 127.998 240.553Z" fill="white"/>
<path d="M128 187C160.585 187 187 160.585 187 128C187 95.4151 160.585 68.9999 128 68.9999C95.4152 68.9999 69 95.4151 69 128C69 160.585 95.4152 187 128 187Z" fill="white"/>
<path d="M137.781 126.328C140.079 125.101 141.517 122.942 141.181 119.343C140.728 114.426 136.675 112.777 131.559 112.308L131.558 105.487H127.594L127.593 112.128C126.55 112.128 125.486 112.15 124.428 112.172L124.427 105.488L120.467 105.487L120.466 112.306C119.607 112.325 118.765 112.342 117.941 112.342V112.322L112.474 112.32L112.474 116.753C112.474 116.753 115.402 116.696 115.354 116.752C116.959 116.753 117.483 117.729 117.633 118.572L117.635 126.342V137.257C117.564 137.786 117.267 138.631 116.144 138.632C116.195 138.679 113.261 138.632 113.261 138.632L112.474 143.59H117.632C118.593 143.591 119.538 143.606 120.464 143.614L120.468 150.512L124.427 150.513L124.426 143.688C125.515 143.711 126.567 143.721 127.594 143.72L127.593 150.513H131.557L131.559 143.627C138.223 143.226 142.888 141.467 143.468 134.912C143.935 129.635 141.564 127.279 137.781 126.328ZM124.523 117.053C126.759 117.053 133.79 116.307 133.791 121.199C133.79 125.89 126.761 125.342 124.523 125.342V117.053V117.053ZM124.521 138.666L124.523 129.526C127.209 129.526 135.634 128.717 135.635 134.094C135.637 139.251 127.209 138.664 124.521 138.666Z" fill="#657786"/>
<circle cx="128" cy="128" r="38.8158" stroke="#657786" stroke-width="6.21053"/>
<circle cx="128" cy="128" r="51.2368" stroke="#283947" stroke-width="6.21053"/>
<path d="M156.91 159.829L143.593 146.707M107.588 111.229L96.1713 100.053M99.2036 159.829L112.52 146.707M148.525 111.229L159.829 100.053" stroke="white" stroke-width="4.65789"/>
</g>
<defs>
<linearGradient id="paint0_linear" x1="95.998" y1="13.2772" x2="136.136" y2="235.812" gradientUnits="userSpaceOnUse">
<stop stop-color="#27D3A2"/>
<stop offset="1" stop-color="#9388FD"/>
</linearGradient>
<clipPath id="clip0">
<rect width="256" height="256" fill="white"/>
</clipPath>
</defs>
</svg>
