<svg width="24" height="24" viewBox="0 0 24 24" fill="none" xmlns="http://www.w3.org/2000/svg">
<path fill-rule="evenodd" clip-rule="evenodd" d="M0 12C0 5.37259 5.37259 0 12 0C18.6274 0 24 5.37259 24 12C24 18.6274 18.6274 24 12 24C5.37259 24 0 18.6274 0 12Z" fill="#B97FFB"/>
<path d="M9.7317 11.7598C9.69234 10.9615 9.84976 10.1969 10.3052 9.5166C11.2328 8.13917 12.9026 8.18977 13.7459 9.6178C14.1676 10.3374 14.2969 11.1189 14.2632 11.9398C14.2126 13.1879 13.9652 14.391 13.4311 15.5267C13.3468 15.7066 13.3243 15.9821 13.0938 16.0046C12.8857 16.0215 12.8239 15.7516 12.689 15.6167C12.6608 15.5885 12.6496 15.5548 12.6271 15.5267C12.3573 15.2062 12.3235 14.897 12.4866 14.481C12.9138 13.3959 13.0938 12.2658 12.9476 11.0964C12.9026 10.731 12.762 10.388 12.5315 10.0957C12.2111 9.68527 11.7669 9.69089 11.4465 10.1069C11.1204 10.5342 10.9911 11.0346 10.9911 11.5575C10.9911 13.0136 11.2834 14.4023 12.0537 15.6616C12.3348 16.117 12.6721 16.5331 13.0994 16.8648C14.3138 17.8037 15.7643 17.7194 16.8662 16.6455C17.777 15.7572 18.2774 14.6496 18.5304 13.4296C18.9183 11.5462 18.7553 9.72462 17.9007 7.98737C17.6365 7.44764 17.2767 6.96976 16.8381 6.5481C16.6245 6.34008 16.6413 6.27261 16.9056 6.14892C17.108 6.05335 17.3216 5.98026 17.5184 5.86781C17.7545 5.73288 17.9063 5.80035 18.0694 5.99713C18.834 6.88543 19.3569 7.90304 19.6492 9.0331C20.217 11.2033 20.1102 13.3397 19.2219 15.4086C18.7834 16.4319 18.1481 17.3202 17.2429 17.9836C15.6069 19.1867 13.5042 19.0349 12.0031 17.6069C10.7662 16.4263 10.1421 14.9364 9.84976 13.2835C9.76543 12.7718 9.72045 12.2715 9.7317 11.7598Z" fill="#FDFCFE"/>
<path d="M9.07946 18.7876C7.75263 18.7539 6.67317 18.1299 5.8186 17.1122C4.63794 15.7011 4.12633 14.0369 4.00264 12.2266C3.98577 12.0186 4.04762 11.8949 4.25001 11.8162C4.46928 11.7318 4.6773 11.625 4.89094 11.5294C5.16643 11.4114 5.23952 11.4563 5.25076 11.7599C5.29012 12.845 5.47003 13.902 5.9198 14.8971C6.35271 15.8416 6.92055 16.6793 7.86507 17.1853C8.72526 17.6463 9.59108 17.6295 10.44 17.1516C10.6818 17.0167 10.8223 17.0448 10.9685 17.2697C11.0753 17.4327 11.2046 17.5845 11.3452 17.7194C11.5307 17.8993 11.4801 18.0118 11.2833 18.1299C10.6256 18.5515 9.9003 18.7764 9.07946 18.7876Z" fill="#FDFCFE"/>
<path d="M23.5 12C23.5 18.3513 18.3513 23.5 12 23.5C5.64873 23.5 0.5 18.3513 0.5 12C0.5 5.64873 5.64873 0.5 12 0.5C18.3513 0.5 23.5 5.64873 23.5 12Z" stroke="white" stroke-opacity="0.3"/>
</svg>
