<svg width="27" height="27" viewBox="0 0 27 27" fill="none" xmlns="http://www.w3.org/2000/svg">
<circle cx="13.5" cy="13.5" r="12.75" fill="#951224" stroke="white" stroke-width="1.5"/>
<path d="M4.5 8.5V18.5L13.6844 23.5L22.8688 18.5V8.5L13.6844 3.5L4.5 8.5ZM14.166 4.79735L14.287 4.86239V6.19512C14.287 6.33318 14.3656 6.46098 14.4927 6.53058L19.5653 9.29188C19.627 9.32611 19.6984 9.34322 19.771 9.34322C19.8436 9.34322 19.915 9.32497 19.9779 9.29074L21.0718 8.68827L21.1928 8.62209L21.3138 8.68827L21.7979 8.95185L21.9189 9.01689V9.6319L21.7991 9.69808L20.7257 10.2891C20.5999 10.3587 20.5225 10.4865 20.5225 10.6235V16.3754C20.5225 16.5123 20.5999 16.6401 20.7257 16.7097L21.7991 17.3008L21.9189 17.367V17.982L21.7979 18.047L21.3126 18.3106L21.1916 18.3768L21.0706 18.3106L20.0614 17.7538C19.9985 17.7195 19.9271 17.7013 19.8545 17.7013C19.7831 17.7013 19.7117 17.7195 19.65 17.7526L14.4927 20.5607C14.3656 20.6292 14.287 20.7581 14.287 20.8962V22.1365L14.166 22.2015L13.8042 22.3989L13.6832 22.4639L13.5622 22.3989L13.1132 22.1547L12.9922 22.0897V20.8711C12.9922 20.7319 12.9124 20.6018 12.7853 20.5322L7.6377 17.7298C7.57477 17.6956 7.50338 17.6773 7.43077 17.6773C7.35817 17.6773 7.28557 17.6956 7.22143 17.7309L6.2316 18.2764L6.11059 18.3425L5.98959 18.2764L5.56849 18.047L5.44748 17.982V17.2962L5.56728 17.23L6.60188 16.6595C6.72894 16.5899 6.80759 16.4598 6.80759 16.3206V10.6771C6.80759 10.5379 6.72894 10.4089 6.60188 10.3382L5.56728 9.76769L5.44748 9.70151V9.01575L5.56849 8.95071L5.98959 8.72136L6.11059 8.65518L6.2316 8.72136L7.30735 9.3147C7.37027 9.34893 7.44166 9.36718 7.51427 9.36718C7.58687 9.36718 7.65706 9.34893 7.71998 9.31584L12.7877 6.55682C12.9148 6.48836 12.9934 6.35943 12.9934 6.22136V4.91031L13.1144 4.84528L13.5634 4.6011L13.6844 4.53606L13.8054 4.6011L14.1672 4.79849L14.166 4.79735Z" fill="white"/>
<path d="M13.659 10.6668L16.234 12.0692L18.0817 11.0594L13.659 8.65063L9.20593 11.0753V15.9247L13.659 18.3494L18.0358 15.9669L16.0706 15.021L13.659 16.3343L11.0561 14.9172V12.084L13.659 10.6668Z" fill="white"/>
</svg>
