<svg width="24" height="24" viewBox="0 0 24 24" fill="none" xmlns="http://www.w3.org/2000/svg">
<path d="M12 24C18.6274 24 24 18.6274 24 12C24 5.37258 18.6274 0 12 0C5.37258 0 0 5.37258 0 12C0 18.6274 5.37258 24 12 24Z" fill="#003057"/>
<path d="M9.52024 19C9.37992 18.9999 9.24167 18.967 9.11687 18.9039C8.99206 18.8408 8.88428 18.7493 8.80243 18.6371L5.29028 13.844H3V12.0993H5.74361C5.88381 12.0991 6.02203 12.1319 6.14685 12.1948C6.27167 12.2577 6.37948 12.349 6.46139 12.4611L9.33134 16.376L13.71 6.52223C13.779 6.36687 13.8924 6.2347 14.0364 6.14193C14.1805 6.04917 14.349 5.99984 14.521 6H20V7.74466H15.1007L10.3324 18.4766C10.2696 18.6181 10.1697 18.7407 10.0429 18.8316C9.91616 18.9226 9.76716 18.9787 9.61109 18.9942C9.57964 18.9959 9.54812 18.9959 9.51667 18.9942" fill="#00C389"/>
<path d="M23.5 12C23.5 18.3513 18.3513 23.5 12 23.5C5.64873 23.5 0.5 18.3513 0.5 12C0.5 5.64873 5.64873 0.5 12 0.5C18.3513 0.5 23.5 5.64873 23.5 12Z" stroke="white" stroke-opacity="0.3"/>
</svg>
