<svg width="24" height="24" viewBox="0 0 24 24" fill="none" xmlns="http://www.w3.org/2000/svg">
<path d="M12.0001 24C18.6275 24 24.0001 18.6274 24.0001 12C24.0001 5.37258 18.6275 0 12.0001 0C5.37264 0 6.10352e-05 5.37258 6.10352e-05 12C6.10352e-05 18.6274 5.37264 24 12.0001 24Z" fill="#003057"/>
<path d="M9.5203 19C9.37998 18.9999 9.24174 18.967 9.11693 18.9039C8.99212 18.8408 8.88434 18.7493 8.80249 18.6371L5.29034 13.844H3.00006V12.0993H5.74367C5.88387 12.0991 6.02209 12.1319 6.14691 12.1948C6.27173 12.2577 6.37955 12.349 6.46145 12.4611L9.3314 16.376L13.7101 6.52223C13.779 6.36687 13.8924 6.2347 14.0365 6.14193C14.1806 6.04917 14.349 5.99984 14.5211 6H20.0001V7.74466H15.1007L10.3325 18.4766C10.2696 18.6181 10.1697 18.7407 10.043 18.8316C9.91623 18.9226 9.76722 18.9787 9.61115 18.9942C9.5797 18.9959 9.54819 18.9959 9.51673 18.9942" fill="#00C389"/>
<path d="M-5.24537e-07 12C-8.1423e-07 18.6274 5.37258 24 12 24C18.6274 24 24 18.6274 24 12C24 5.37258 18.6274 -2.34843e-07 12 -5.24537e-07C5.37258 -8.1423e-07 -2.34843e-07 5.37258 -5.24537e-07 12Z" fill="#202336"/>
<path d="M12 23.5C5.64872 23.5 0.499999 18.3513 0.499999 12C0.5 5.64872 5.64872 0.499999 12 0.499999C18.3513 0.5 23.5 5.64873 23.5 12C23.5 18.3513 18.3513 23.5 12 23.5Z" stroke="white" stroke-opacity="0.3"/>
<path d="M7.79762 8.86603L5.46326 10.2171V7.51496L7.79762 8.86603ZM7.81061 11.8957L5.46326 13.2468V10.5447L7.81061 11.8957ZM7.79762 14.9254L5.46326 16.2765V13.5744L7.79762 14.9254ZM7.89255 12.0596V14.7618L5.5452 13.4107L7.89255 12.0596ZM7.89255 6L7.90617 8.70215L5.55819 7.35108L7.89255 6ZM7.89255 9.0297L7.90617 11.7321L5.55819 10.381L7.89255 9.0297ZM7.89255 15.0893L7.90617 17.7915L5.55819 16.4404L7.89255 15.0893ZM8.0973 8.70215V6L10.4308 7.35108L8.0973 8.70215Z" fill="white"/>
<path d="M8.09723 15.0889L10.4308 16.4399L8.09723 17.791V15.0889Z" fill="#00FFFF"/>
<path d="M8.19281 8.86609L10.5263 7.51502V10.2172L8.19281 8.86609ZM10.7175 10.2172V7.51502L13.0512 8.86609L10.7175 10.2172ZM10.7175 10.5447L13.0512 11.8958L10.7175 13.2469V10.5447ZM10.7175 13.5744L13.0512 14.9255L10.7175 16.2766V13.5744ZM10.813 10.381L13.1468 9.02976V11.7321L10.813 10.381ZM13.1468 12.0597V14.7618L10.813 13.4108L13.1468 12.0597ZM15.6263 7.61749V10.3196L13.2928 8.96857L15.6263 7.61749ZM18.1518 8.96857L15.8175 10.3196L15.807 7.61749L18.1518 8.96857ZM15.8175 13.6769L18.1518 15.028L15.807 16.3791L15.8175 13.6769ZM18.1648 11.9983L15.8175 13.3493V10.6472L18.1648 11.9983ZM18.2468 12.1619V14.8641L15.8994 13.513L18.2468 12.1619ZM18.2468 15.2057V17.9081L15.8994 16.557L18.2468 15.2057ZM15.9124 7.45362L18.2468 6.10254V8.80469L15.9124 7.45362ZM18.2468 9.13224V11.8344L15.9124 10.4833L18.2468 9.13224Z" fill="white"/>
</svg>
