<svg width="24" height="24" viewBox="0 0 24 24" fill="none" xmlns="http://www.w3.org/2000/svg">
<path d="M24 12C24 5.37258 18.6274 2.2213e-07 12 1.43099e-07C5.37258 6.40674e-08 2.2213e-07 5.37258 1.43099e-07 12C6.40674e-08 18.6274 5.37258 24 12 24C18.6274 24 24 18.6274 24 12Z" fill="#FC421F"/>
<path d="M12 0.5C18.3513 0.5 23.5 5.64872 23.5 12C23.5 18.3513 18.3513 23.5 12 23.5C5.64873 23.5 0.5 18.3513 0.5 12C0.5 5.64872 5.64873 0.5 12 0.5Z" stroke="black" stroke-opacity="0.097"/>
<g clip-path="url(#clip0)">
<path d="M13.4251 20.9156C13.4644 20.9262 13.4939 20.9367 13.5332 20.9473C13.6315 20.7785 13.7592 20.6202 13.8378 20.4408C14.457 18.9848 15.0663 17.5288 15.6757 16.0727C15.9017 15.5346 16 14.9754 16 14.3846C15.9902 12.5065 15.9705 10.6284 16.0098 8.75035C16.0393 7.62139 15.8133 6.55574 15.43 5.52174C14.742 3.68587 13.484 2.84179 11.656 3.02116C10.4865 3.14777 9.44472 3.55926 8.86487 4.77262C8.3145 5.89103 8 7.07274 8 8.34941C8 10.428 8.00983 12.4959 8.00983 14.5745C8.00983 15.0387 8.09828 15.4713 8.27518 15.8934C8.90418 17.3811 9.51351 18.8688 10.1425 20.3564C10.2506 20.5991 10.3292 21.0423 10.5651 20.9895C10.8206 20.9262 10.6634 20.5042 10.6536 20.2509C10.5553 17.4549 10.4275 14.6695 11.027 11.9156C11.0958 11.5991 10.9287 11.4936 10.7322 11.3986C10.3194 11.1876 9.89681 10.9977 9.4742 10.7972C8.96315 10.5546 8.68796 10.1325 8.67813 9.52057C8.66831 9.20404 8.72727 9.05633 9.06143 9.23569C9.64128 9.53112 10.2211 9.7949 10.8206 10.0376C11.2629 10.2169 11.4398 10.5229 11.371 11.0083C11.3022 11.5464 11.2138 12.0845 11.1744 12.6226C11.1253 13.3084 11.5184 14.0047 11.9607 14.0258C12.4521 14.0469 12.8944 13.3717 12.8452 12.612C12.8059 12.0739 12.7371 11.5358 12.6683 10.9872C12.6192 10.6073 12.688 10.2591 13.0418 10.1009C13.769 9.76324 14.516 9.44671 15.2629 9.11963C15.4202 10.0903 15.1745 10.5229 14.2604 10.9133C12.9337 11.4831 12.9238 11.4831 13.1499 12.9074C13.5135 15.1231 13.4152 17.3494 13.4152 19.5862C13.4251 20.0188 13.4251 20.4725 13.4251 20.9156Z" fill="white"/>
</g>
<defs>
<clipPath id="clip0">
<rect width="8" height="18" fill="white" transform="translate(8 3)"/>
</clipPath>
</defs>
</svg>
