<svg width="24" height="24" viewBox="0 0 24 24" fill="none" xmlns="http://www.w3.org/2000/svg">
<path d="M12 24C18.6274 24 24 18.6274 24 12C24 5.37258 18.6274 0 12 0C5.37258 0 0 5.37258 0 12C0 18.6274 5.37258 24 12 24Z" fill="url(#paint0_linear)"/>
<path d="M23.5 12C23.5 18.3513 18.3513 23.5 12 23.5C5.64873 23.5 0.5 18.3513 0.5 12C0.5 5.64873 5.64873 0.5 12 0.5C18.3513 0.5 23.5 5.64873 23.5 12Z" stroke="black" stroke-opacity="0.097"/>
<path d="M17.1471 15.5308C17.1304 15.6476 17.1054 15.7644 17.0553 15.8729C16.8551 16.3652 16.6715 16.8742 16.3044 17.2914C15.5117 18.2009 14.4937 18.6598 13.3422 18.9018C13.2254 18.9352 13.1002 18.9602 12.975 18.9686C12.174 18.9853 11.3646 19.0103 10.5886 18.7933C9.37035 18.4512 8.26057 17.8838 7.37609 16.9493C7.23424 16.7991 7.29265 16.6823 7.40112 16.5571C7.86005 15.973 8.35236 15.4223 8.77791 14.8132C8.94479 14.4961 9.08664 14.4627 9.37035 14.7464C10.1881 15.5975 11.2228 16.0731 12.3993 16.0898C13.5091 16.1065 14.1933 15.2387 13.9847 14.1123C13.9263 13.8035 13.8261 13.4948 13.6759 13.2111C13.3005 12.5185 12.8248 11.876 12.3993 11.2168C12.2157 10.8998 12.0655 10.566 11.8986 10.2406C11.8068 10.0904 11.907 9.94018 12.0739 10.032C13.192 10.5576 14.4186 10.8664 15.4866 11.5089C17.072 12.4685 17.2973 13.7868 17.1471 15.5308Z" fill="white"/>
<path d="M7.98524 7.47762C9.50388 4.33187 13.7678 4.45703 16.2794 6.31778C16.8801 6.74334 16.8801 6.73499 16.4379 7.32743C16.246 7.57775 16.0624 7.82808 15.8705 8.0784L15.6953 8.3037C15.4533 8.56237 15.3281 8.99626 15.011 9.04633C14.6773 9.09639 14.4019 8.67919 14.0848 8.49561C13.8011 8.32873 13.5007 8.18688 13.2004 8.05337C11.64 7.38584 10.4551 8.73759 10.6137 9.99757C10.7054 10.9321 11.2979 11.6163 11.8236 12.3423C12.0655 12.676 12.4077 12.9347 12.5495 13.3352C12.6079 13.4938 12.6663 13.7107 12.3576 13.6106C11.1477 13.1934 9.93778 12.8012 8.91979 11.9584C7.66816 10.9154 7.35108 9.00461 7.98524 7.47762Z" fill="white"/>
<defs>
<linearGradient id="paint0_linear" x1="20.5" y1="2" x2="5.5" y2="21.5" gradientUnits="userSpaceOnUse">
<stop stop-color="#6607EB"/>
<stop offset="1" stop-color="#AC79F4"/>
</linearGradient>
</defs>
</svg>
