<svg width="24" height="24" viewBox="0 0 24 24" fill="none" xmlns="http://www.w3.org/2000/svg">
<path d="M12 24C18.6274 24 24 18.6274 24 12C24 5.37258 18.6274 0 12 0C5.37258 0 0 5.37258 0 12C0 18.6274 5.37258 24 12 24Z" fill="url(#paint0_linear)"/>
<path d="M23.5 12C23.5 18.3513 18.3513 23.5 12 23.5C5.64873 23.5 0.5 18.3513 0.5 12C0.5 5.64873 5.64873 0.5 12 0.5C18.3513 0.5 23.5 5.64873 23.5 12Z" stroke="black" stroke-opacity="0.097"/>
<path d="M18 13.5715C18 17.1218 15.3193 20 12.0121 20C8.70505 20 6.02417 17.122 6.02417 13.5715V7.47602C6.00835 7.36756 6 7.25622 6 7.14263C6 5.95933 6.89372 5 7.99607 5C9.09842 5 9.99214 5.95933 9.99214 7.14279L9.99199 7.14968V13.5715C9.99199 14.7549 10.923 15.7144 11.9881 15.7144C13.0531 15.7144 13.8621 14.8804 13.9719 13.8084L13.9838 13.5716C13.9838 12.3882 14.8774 11.4287 15.9799 11.4287C17.0823 11.4287 17.976 12.388 17.976 13.5716H18V13.5715ZM17.9758 7.14279C17.9758 8.32641 17.0823 9.28574 15.9798 9.28574C14.8774 9.28574 13.9837 8.32641 13.9837 7.14279C13.9839 5.95933 14.8774 5 15.9798 5C17.0821 5 17.9758 5.95933 17.9758 7.14279Z" fill="white"/>
<defs>
<linearGradient id="paint0_linear" x1="5.41879" y1="18.388" x2="16.2768" y2="-1.3176" gradientUnits="userSpaceOnUse">
<stop stop-color="#53AB85"/>
<stop offset="1" stop-color="#48E89D"/>
</linearGradient>
</defs>
</svg>
