<svg width="40" height="40" viewBox="0 0 40 40" fill="none" xmlns="http://www.w3.org/2000/svg"><rect fill="#F70277" width="40" height="40" rx="12"/><g transform="translate(4 4)"><circle cx="16" cy="16" r="14" fill="#fff"/><svg width="32" height="32" viewBox="0 0 32 32" xmlns="http://www.w3.org/2000/svg"><path fill-rule="evenodd" clip-rule="evenodd" d="M0 16C0 7.163 7.163 0 16 0s16 7.163 16 16-7.163 16-16 16S0 24.837 0 16z" fill="#F70277"/><g clip-path="url(#clip0)"><path fill-rule="evenodd" clip-rule="evenodd" d="M7.476 6.117c.241.262.482.524.723.783l1.764 1.933v.001c1.178 1.29 2.355 2.578 3.522 3.867.47.519.46 1.113-.099 1.513-.35.248-.798.421-1.236.508-.591.119-.832.41-.93.994a11.471 11.471 0 01-.646 2.247c-.438 1.113-.318 1.653.656 2.366.052.04.105.078.158.116.137.1.274.2.4.316.613.54.635 1.318.033 1.89-.722.681-1.641.962-2.758 1.168-.106-.272-.22-.544-.334-.817-.271-.65-.545-1.305-.738-1.982-.197-.659.066-1.307.503-1.858.318-.4.624-.789.93-1.2.493-.658.767-1.404.909-2.214.088-.508.317-1.015.58-1.47.197-.323.153-.561 0-.842-.317-.572-.632-1.148-.947-1.723-.314-.575-.629-1.15-.946-1.723-.088-.152-.165-.303-.175-.486l1.253 1.869 1.253 1.869c.23.335.503.561.941.518.46-.054.547-.227.274-.583-1.86-2.463-3.721-4.916-5.593-7.368-.063-.082-.123-.163-.181-.243l-.125-.168c.016-.01.03-.021.043-.032l.044-.033c.241.26.482.522.722.784zm1.325 14.352l.026.164c.017.11.031.205.061.3.023.09.067.175.11.258.019.037.038.074.054.11.046-.038.098-.072.149-.106.11-.073.216-.144.245-.24.12-.345-.142-.55-.645-.486zm16.033-.183c-.142-1.264-.974-1.794-1.904-2.226-.378-.176-.76-.345-1.143-.513-.695-.306-1.39-.612-2.053-.967-1.007-.53-1.62-1.35-1.456-2.625.822.595 1.752.724 2.676.852.419.058.837.116 1.242.217 1.412.357 2.572 1.016 3 2.507.25.896.174 1.771-.362 2.755zm-2.747-6.126c.744.065 1.434.26 1.937.907-.131-.864-.558-1.588-1.149-2.247-.058.117-.11.228-.159.334-.12.258-.227.486-.366.693-.053.074-.177.102-.3.13-.056.013-.112.025-.16.042a7.354 7.354 0 00-.049-.146c-.04-.12-.08-.238-.104-.361-.007-.034.017-.077.04-.12a.482.482 0 00.037-.075c.306-.95.054-1.523-.854-1.934-.92-.41-1.905-.67-2.911-.54-.865.108-1.478-.075-2.069-.735-.646-.713-1.521-1.123-2.56-1.07 1.258.293 2.133 1.103 2.9 2.064.18.227.36.451.541.675l.542.676c.69.853 1.565 1.372 2.67 1.512.65.085 1.311.138 1.962.19l.052.005zm-.517 3.991c.631.364 1.237.714 1.787 1.13 1.882 1.415 1.587 4.473-.493 5.585a.657.657 0 01-.167.058l-.107.029c.646-1.329.099-2.377-.58-3.414-.394-.594-.788-1.2-1.138-1.837-.35-.605-.416-1.275-.175-2.063.294.179.586.347.873.512zm-5.229 5.56c-.35-.184-.69-.184-.963.14.372-.184.723-.184.985.14.241.303.153.638-.098.875-.307.292-.668.249-1.007.044-.383-.238-.558-.562-.427-1.005.142-.465.624-.767 1.16-.692.668.087 1.127.476 1.434 1.049.105.199.201.404.297.609.133.284.266.568.425.838.602 1.048 1.675 1.264 2.66.508-.12.032-.186.043-.252.054-1.182.26-1.762-.13-1.96-1.297l-.009-.058a14.874 14.874 0 00-.22-1.151c-.263-1.06-.996-1.654-2.047-1.837-1.762-.303-3.173.454-4.487 1.588 1.163.02 1.907.693 2.66 1.375l.001.001.272.245c.274.237.777.313 1.16.302.45-.01.734-.356.81-.81.055-.378-.01-.724-.394-.919zm-.963-10.491c-1.149.292-2.681-1.793-2.408-3.62a1.436 1.436 0 011.445.876c.078.189.133.384.188.58.046.164.092.328.151.49.146.405.296.805.454 1.22l.17.454zm3.765 7.141c1.116-.648 1.379-2.03.558-3.036.285 1.848-.34 2.68-2.134 2.972-.084.014-.169.026-.254.038-.17.024-.34.048-.501.091-.57.151-1.127.313-1.685.475a.6.6 0 01.043.13l.824-.079c.699-.065 1.396-.13 2.087-.223a3.101 3.101 0 001.062-.368zm-4.947-3.933c-.383.032-.645-.12-.645-.562-.011-.54.407-1.012.944-1.001h.022c-.18.2-.298.337-.416.475.05.032.101.075.151.118.102.085.202.17.297.163.114-.015.217-.113.32-.211.047-.044.093-.088.14-.124-.14-.116-.268-.233-.469-.42.486.026.926.452.926.86 0 .4-.525.712-1.27.702zm.344-1.562l-.013-.012-.01.011h.014l.01.001zm8.5-2.797l.35.243.065-.032a8.654 8.654 0 00-.3-.306c-.234-.23-.467-.46-.62-.731-.163-.277-.243-.603-.323-.927a8.772 8.772 0 00-.103-.391c-.03.227-.067.465-.104.713l-.05.324a43.839 43.839 0 01-.493-.167 27.43 27.43 0 00-.568-.19c.687.461 1.006.636 1.176.905.178.28.196.661.302 1.57.027-.215.052-.43.079-.657.026-.22.052-.45.085-.705l.504.351z" fill="#fff"/></g><defs><clipPath id="clip0"><path fill="#fff" transform="translate(5.333 5.333)" d="M0 0h21.333v21.333H0z"/></clipPath></defs></svg></g></svg>