<svg width="24" height="24" viewBox="0 0 24 24" fill="none" xmlns="http://www.w3.org/2000/svg">
<path d="M12 24C18.6274 24 24 18.6274 24 12C24 5.37258 18.6274 0 12 0C5.37258 0 0 5.37258 0 12C0 18.6274 5.37258 24 12 24Z" fill="url(#paint0_linear)"/>
<path d="M19.714 15.7316L18.1859 14.8637L19.3909 14.546C19.696 14.4657 19.8771 14.1572 19.7953 13.8571C19.7136 13.5571 19.4001 13.379 19.095 13.4594L17.7424 13.8159C17.1295 13.9775 16.4765 13.8929 15.927 13.5809C15.3829 13.2719 15.0477 12.7008 15.0477 12.0827V11.9172C15.0477 11.2992 15.3829 10.7281 15.927 10.4191C16.4765 10.107 17.1306 10.0227 17.7434 10.1847C19.2552 10.5845 19.1521 10.5599 19.2433 10.5599C19.4958 10.5599 19.7268 10.3941 19.7953 10.1428C19.877 9.84271 19.696 9.53427 19.3909 9.45389L18.1859 9.13621L19.714 8.26829C19.9875 8.113 20.0812 7.76895 19.9233 7.49992C19.7654 7.2309 19.4157 7.13879 19.1422 7.29404L17.614 8.16201L17.9369 6.97641C18.0186 6.67632 17.8376 6.36788 17.5326 6.2875C17.2277 6.20702 16.914 6.38517 16.8323 6.6852L16.4698 8.01579C16.3056 8.61871 15.9046 9.13279 15.3552 9.44486C14.8111 9.75382 14.1408 9.75382 13.5968 9.44486L13.451 9.36209C12.9069 9.05308 12.5718 8.48203 12.5718 7.86407C12.5718 7.23988 12.8238 6.64129 13.2725 6.19993L14.2627 5.22588C14.486 5.00623 14.486 4.65004 14.2627 4.43038C14.0394 4.21071 13.6773 4.21071 13.454 4.43038L12.5718 5.29825V3.5625C12.5718 3.25186 12.3158 3 12 3C11.6842 3 11.4282 3.25186 11.4282 3.5625V5.29825L10.5459 4.43038C10.3226 4.21071 9.9606 4.21071 9.73731 4.43038C9.51397 4.65004 9.51397 5.00623 9.73731 5.22588L10.7275 6.19993C11.1761 6.64129 11.4282 7.23988 11.4282 7.86407C11.4282 8.48203 11.093 9.05308 10.549 9.36209L10.4032 9.44486C9.8592 9.75387 9.18891 9.75387 8.64486 9.44486C8.09537 9.13279 7.69441 8.61876 7.53017 8.01584L7.16773 6.68525C7.08602 6.38522 6.77252 6.20707 6.46742 6.28755C6.16238 6.36793 5.98134 6.67638 6.06309 6.97646L6.38603 8.16201L4.85778 7.29414C4.58436 7.13879 4.23457 7.23095 4.0767 7.50003C3.91881 7.76905 4.01251 8.11305 4.28599 8.26839L5.81414 9.13626L4.60903 9.45394C4.30398 9.53437 4.12294 9.84277 4.2047 10.1429C4.27319 10.3942 4.5042 10.5599 4.75668 10.5599C4.84798 10.5599 4.74761 10.5838 6.25663 10.1848C6.86942 10.0227 7.52353 10.1072 8.07303 10.4192C8.61713 10.7282 8.9523 11.2993 8.9523 11.9173V12.0828C8.9523 12.7009 8.61713 13.2719 8.07303 13.5809C7.52353 13.893 6.87051 13.9775 6.25761 13.816L4.90501 13.4595C4.60017 13.379 4.28646 13.5572 4.2047 13.8572C4.12298 14.1573 4.30398 14.4657 4.60903 14.5461L5.81414 14.8638L4.28599 15.7317C3.78129 16.0184 3.98846 16.7814 4.57243 16.7814C4.77638 16.7814 4.70189 16.7945 6.38603 15.8381L6.06309 17.0236C5.98134 17.3237 6.16238 17.6322 6.46742 17.7125C6.77309 17.7932 7.08618 17.6141 7.16773 17.3148L7.53017 15.9842C7.69441 15.3813 8.09537 14.8673 8.64486 14.5552C9.18891 14.2462 9.8592 14.2462 10.4032 14.5552L10.549 14.6379C11.093 14.947 11.4282 15.518 11.4282 16.136C11.4282 16.7602 11.1761 17.3587 10.7275 17.8001L9.73731 18.7742C9.51402 18.9938 9.51402 19.3499 9.73731 19.5696C9.9606 19.7893 10.3227 19.7893 10.546 19.5696L11.4282 18.7017V20.4375C11.4282 20.7482 11.6842 21 12 21C12.3158 21 12.5718 20.7482 12.5718 20.4375V18.7017L13.454 19.5696C13.5657 19.6795 13.712 19.7344 13.8584 19.7344C14.3632 19.7344 14.624 19.1295 14.2627 18.7742L13.2725 17.8001C12.8238 17.3587 12.5718 16.7602 12.5718 16.136C12.5718 15.518 12.9069 14.947 13.451 14.6379L13.5968 14.5552C14.1408 14.2462 14.8111 14.2462 15.3552 14.5551C15.9046 14.8672 16.3056 15.3813 16.4698 15.9841L16.8323 17.3148C16.9007 17.5661 17.1317 17.7318 17.3842 17.7318C17.7602 17.7318 18.0342 17.3807 17.9369 17.0236L17.614 15.838L19.1422 16.7059C19.4139 16.8603 19.7645 16.7708 19.9233 16.5001C20.0812 16.231 19.9875 15.8869 19.714 15.7316ZM13.9041 12C13.9041 12.6692 13.5412 13.2877 12.9521 13.6222C12.3629 13.9569 11.6371 13.9569 11.0479 13.6222C10.4588 13.2877 10.0959 12.6692 10.0959 12C10.0959 11.3308 10.4588 10.7124 11.0479 10.3778C11.6371 10.0431 12.3629 10.0431 12.9521 10.3778C13.5412 10.7124 13.9041 11.3308 13.9041 12Z" fill="white"/>
<path d="M23.5 12C23.5 18.3513 18.3513 23.5 12 23.5C5.64873 23.5 0.5 18.3513 0.5 12C0.5 5.64873 5.64873 0.5 12 0.5C18.3513 0.5 23.5 5.64873 23.5 12Z" stroke="black" stroke-opacity="0.097"/>
<defs>
<linearGradient id="paint0_linear" x1="21.4648" y1="-21" x2="-4.49668" y2="-18.236" gradientUnits="userSpaceOnUse">
<stop stop-color="#1ADBC5"/>
<stop offset="1" stop-color="#04D3DD"/>
</linearGradient>
</defs>
</svg>
