<svg width="24" height="24" viewBox="0 0 24 24" fill="none" xmlns="http://www.w3.org/2000/svg">
<path d="M12 24C18.6274 24 24 18.6274 24 12C24 5.37258 18.6274 0 12 0C5.37258 0 0 5.37258 0 12C0 18.6274 5.37258 24 12 24Z" fill="#080B27"/>
<mask id="mask0" mask-type="alpha" maskUnits="userSpaceOnUse" x="3" y="3" width="18" height="18">
<circle cx="12" cy="12" r="9" fill="#C4C4C4"/>
</mask>
<g mask="url(#mask0)">
<path d="M15.7911 9.0851L12.5986 7.25717C12.4118 7.14979 12.2 7.09359 11.9845 7.09424C11.7691 7.0949 11.5576 7.15238 11.3715 7.26089L8.19077 9.11117C8.00502 9.21957 7.85092 9.37474 7.74382 9.56124C7.63671 9.74773 7.58034 9.95904 7.58032 10.1741L7.59274 13.8545C7.59403 14.07 7.6518 14.2814 7.76027 14.4676C7.86874 14.6539 8.02413 14.8084 8.21094 14.9159L11.4025 16.7432C11.5894 16.8507 11.8014 16.9071 12.017 16.9065C12.2326 16.9059 12.4443 16.8484 12.6306 16.7398L15.8122 14.8892C15.9974 14.7799 16.1509 14.6242 16.2574 14.4375C16.3639 14.2507 16.4198 14.0394 16.4196 13.8244L16.4071 10.144C16.4056 9.92912 16.348 9.71838 16.2399 9.53265C16.1318 9.34692 15.9771 9.19264 15.7911 9.0851V9.0851Z" fill="#FFF19F"/>
<path d="M14.3431 10.1982L12.37 9.06851C12.2546 9.00214 12.1237 8.9674 11.9906 8.96778C11.8575 8.96816 11.7268 9.00365 11.6118 9.07068L9.64575 10.2143C9.53094 10.2813 9.43569 10.3772 9.36948 10.4925C9.30327 10.6078 9.26841 10.7384 9.26837 10.8713L9.27613 13.1461C9.2769 13.2793 9.31258 13.41 9.37961 13.5251C9.44664 13.6403 9.54269 13.7358 9.65816 13.8022L11.6307 14.9319C11.7463 14.9983 11.8773 15.033 12.0106 15.0326C12.1439 15.0322 12.2747 14.9966 12.3898 14.9294L14.3562 13.7857C14.4706 13.7182 14.5655 13.622 14.6314 13.5065C14.6972 13.3911 14.7318 13.2604 14.7317 13.1275L14.7239 10.8527C14.723 10.7198 14.6874 10.5895 14.6206 10.4746C14.5538 10.3598 14.4582 10.2644 14.3431 10.1979V10.1982Z" fill="#FFDD0F"/>
<path d="M13.4481 10.887L12.2285 10.1888C12.1571 10.1477 12.0763 10.1262 11.994 10.1265C11.9117 10.1267 11.8309 10.1486 11.7598 10.19L10.5451 10.897C10.4742 10.9384 10.4154 10.9976 10.3745 11.0689C10.3336 11.1401 10.3121 11.2208 10.3121 11.3029L10.3167 12.7088C10.3173 12.7911 10.3393 12.8718 10.3808 12.9429C10.4222 13.014 10.4816 13.073 10.5529 13.1141L11.7719 13.8124C11.8433 13.8535 11.9243 13.8751 12.0067 13.8749C12.0891 13.8747 12.17 13.8527 12.2412 13.8111L13.4565 13.1042C13.5272 13.0625 13.5858 13.003 13.6265 12.9317C13.6673 12.8604 13.6887 12.7797 13.6886 12.6976L13.6837 11.2917C13.6831 11.2096 13.661 11.129 13.6197 11.0579C13.5784 10.9869 13.5192 10.9279 13.4481 10.8867V10.887Z" fill="#FFDD0F"/>
<path d="M25.6275 9.0513L22.435 7.22337C22.2482 7.11601 22.0363 7.05985 21.8209 7.06055C21.6054 7.06126 21.394 7.11882 21.2079 7.22741L18.0271 9.07737C17.8413 9.1858 17.6872 9.34102 17.5801 9.52758C17.473 9.71413 17.4167 9.9255 17.4167 10.1406L17.4291 13.821C17.4304 14.0365 17.4881 14.2479 17.5966 14.4342C17.7051 14.6204 17.8605 14.7749 18.0473 14.8824L21.2392 16.71C21.4261 16.8175 21.638 16.8737 21.8536 16.873C22.0691 16.8724 22.2807 16.8149 22.4669 16.7063L25.6486 14.8557C25.8337 14.7464 25.9871 14.5908 26.0936 14.4041C26.2001 14.2174 26.2561 14.0061 26.2559 13.7912L26.2435 10.1105C26.242 9.8956 26.1843 9.68482 26.0763 9.49904C25.9682 9.31326 25.8135 9.15892 25.6275 9.0513V9.0513Z" fill="#FFF19F"/>
<path d="M24.1792 10.1644L22.2063 9.03475C22.0909 8.96837 21.9599 8.93365 21.8267 8.93409C21.6936 8.93452 21.5629 8.9701 21.4478 9.03723L19.4821 10.1805C19.3672 10.2476 19.2719 10.3435 19.2057 10.4588C19.1395 10.5742 19.1047 10.7049 19.1047 10.8379L19.1125 13.1124C19.1132 13.2456 19.1488 13.3762 19.2158 13.4914C19.2828 13.6065 19.3788 13.702 19.4942 13.7684L21.4668 14.8981C21.5823 14.9646 21.7133 14.9994 21.8466 14.999C21.9799 14.9987 22.1107 14.9631 22.2259 14.8959L24.1922 13.752C24.3067 13.6845 24.4015 13.5883 24.4673 13.4729C24.5332 13.3575 24.5678 13.2269 24.5677 13.0941L24.56 10.8192C24.5591 10.6864 24.5234 10.5561 24.4566 10.4412C24.3899 10.3263 24.2942 10.2309 24.1792 10.1644V10.1644Z" fill="#FFEB6F"/>
<path d="M5.80113 9.11884L2.60861 7.29091C2.42183 7.1835 2.21001 7.12728 1.99456 7.12794C1.7791 7.12859 1.56763 7.18609 1.3815 7.29463L-1.79953 9.14491C-1.98522 9.25335 -2.13926 9.40854 -2.24631 9.59503C-2.35336 9.78152 -2.40968 9.99281 -2.40967 10.2078L-2.39725 13.8882C-2.39596 14.1037 -2.33819 14.3151 -2.22972 14.5014C-2.12125 14.6876 -1.96586 14.8421 -1.77905 14.9496L1.41254 16.7769C1.59939 16.8845 1.81134 16.9409 2.02697 16.9404C2.2426 16.9398 2.45427 16.8824 2.64057 16.7738L5.82223 14.9229C6.00735 14.8137 6.16076 14.658 6.26728 14.4713C6.37379 14.2846 6.42974 14.0734 6.42957 13.8584L6.41716 10.1777C6.41559 9.96287 6.35792 9.75214 6.24987 9.56641C6.14182 9.38069 5.98713 9.2264 5.80113 9.11884V9.11884Z" fill="#FFF19F"/>
<path d="M4.3532 10.2325L2.38003 9.10283C2.26461 9.03637 2.13368 9.00157 2.0005 9.00196C1.86731 9.00234 1.73659 9.03788 1.62155 9.105L-0.344178 10.2486C-0.458966 10.3157 -0.554201 10.4116 -0.620409 10.5268C-0.686616 10.6421 -0.721489 10.7727 -0.721558 10.9056L-0.713799 13.1804C-0.713064 13.3136 -0.677431 13.4443 -0.610453 13.5594C-0.543476 13.6745 -0.447493 13.7701 -0.332075 13.8365L1.64079 14.9662C1.75628 15.0326 1.88725 15.0674 2.02048 15.067C2.1537 15.0666 2.28447 15.0311 2.39958 14.964L4.36593 13.8201C4.48036 13.7526 4.57519 13.6564 4.64105 13.541C4.7069 13.4256 4.74151 13.295 4.74144 13.1621L4.73368 10.8873C4.73283 10.7545 4.69727 10.6242 4.63053 10.5093C4.56379 10.3944 4.46819 10.299 4.3532 10.2325V10.2325Z" fill="#FFEB6F"/>
<path d="M20.6865 0.323965L17.494 -1.50397C17.3072 -1.61141 17.0954 -1.66764 16.8799 -1.66699C16.6645 -1.66633 16.453 -1.60881 16.2669 -1.50024L13.0858 0.350035C12.9002 0.458496 12.7462 0.613694 12.6391 0.800181C12.5321 0.986668 12.4757 1.19794 12.4757 1.41297L12.4881 5.09303C12.4894 5.30855 12.5471 5.51997 12.6556 5.70621C12.7641 5.89244 12.9195 6.04698 13.1063 6.15441L16.2979 7.98234C16.4848 8.08987 16.6968 8.14614 16.9124 8.14549C17.1281 8.14484 17.3397 8.08727 17.5259 7.97862L20.7076 6.12803C20.8928 6.01878 21.0462 5.86307 21.1527 5.67632C21.2593 5.48957 21.3152 5.27824 21.3149 5.06324L21.3025 1.38286C21.301 1.168 21.2433 0.957268 21.1352 0.771541C21.0272 0.585814 20.8725 0.43153 20.6865 0.323965V0.323965Z" fill="#FFF19F"/>
<path d="M19.2385 1.43718L17.2653 0.307213C17.1498 0.240836 17.0189 0.206111 16.8857 0.206547C16.7525 0.206983 16.6218 0.242564 16.5068 0.309695L14.5411 1.45301C14.4262 1.52002 14.3309 1.61598 14.2647 1.73131C14.1985 1.84664 14.1636 1.97732 14.1637 2.11032L14.1715 4.38483C14.1722 4.51801 14.2078 4.64867 14.2748 4.76379C14.3418 4.8789 14.4378 4.97445 14.5532 5.0409L16.526 6.17056C16.6415 6.23698 16.7725 6.27175 16.9057 6.27137C17.039 6.27099 17.1697 6.23547 17.2848 6.16838L19.2512 5.02476C19.3656 4.95728 19.4605 4.86108 19.5263 4.74568C19.5922 4.63029 19.6268 4.4997 19.6267 4.36683L19.6189 2.09201C19.6181 1.95917 19.5825 1.82887 19.5157 1.71402C19.449 1.59916 19.3534 1.50373 19.2385 1.43718V1.43718Z" fill="#FFEB6F"/>
<path d="M10.6776 0.358194L7.48513 -1.46974C7.29837 -1.57721 7.08655 -1.63346 6.87108 -1.63281C6.65561 -1.63215 6.44413 -1.57462 6.25803 -1.46601L3.07761 0.383952C2.89187 0.492351 2.73776 0.647527 2.63066 0.834022C2.52355 1.02052 2.46718 1.23182 2.46716 1.44688L2.47958 5.12757C2.4809 5.34304 2.53867 5.55439 2.64714 5.74057C2.75562 5.92675 2.91099 6.08124 3.09778 6.18864L6.28937 8.01626C6.47625 8.12383 6.68822 8.18016 6.90385 8.17956C7.11947 8.17896 7.33112 8.12146 7.5174 8.01285L10.6991 6.16226C10.8842 6.05301 11.0377 5.8973 11.1442 5.71055C11.2507 5.52379 11.3066 5.31247 11.3064 5.09747L11.294 1.41709C11.2924 1.20223 11.2347 0.991515 11.1267 0.805793C11.0186 0.620071 10.8639 0.465782 10.678 0.358194H10.6776ZM20.6866 17.8455L17.4941 16.0176C17.3073 15.9101 17.0955 15.8538 16.88 15.8545C16.6645 15.8552 16.4531 15.9127 16.267 16.0213L13.0859 17.8713C12.9002 17.9797 12.7462 18.135 12.6391 18.3215C12.5321 18.5081 12.4757 18.7194 12.4758 18.9345L12.4882 22.6149C12.4895 22.8304 12.5472 23.0418 12.6557 23.2281C12.7642 23.4143 12.9196 23.5688 13.1064 23.6763L16.298 25.5039C16.4849 25.6115 16.6968 25.6678 16.9125 25.6672C17.1281 25.6666 17.3397 25.6091 17.526 25.5005L20.7077 23.6496C20.8928 23.5403 21.0462 23.3847 21.1527 23.198C21.2592 23.0113 21.3152 22.8 21.315 22.5851L21.3026 18.9044C21.301 18.6895 21.2433 18.4788 21.1352 18.2931C21.0272 18.1074 20.8725 17.9531 20.6866 17.8455V17.8455Z" fill="#FFF19F"/>
<path d="M19.2385 18.936L17.2653 17.8064C17.1498 17.74 17.0189 17.7052 16.8857 17.7056C16.7526 17.706 16.6219 17.7415 16.5068 17.8086L14.5411 18.9522C14.4262 19.0192 14.331 19.1151 14.2648 19.2304C14.1985 19.3456 14.1637 19.4762 14.1637 19.6092L14.1715 21.884C14.1723 22.0171 14.2079 22.1477 14.2749 22.2628C14.3419 22.3778 14.4378 22.4733 14.5532 22.5398L16.526 23.6694C16.6415 23.7359 16.7725 23.7707 16.9057 23.7703C17.039 23.7699 17.1697 23.7344 17.2848 23.6673L19.2512 22.5233C19.3656 22.4558 19.4604 22.3596 19.5263 22.2442C19.5922 22.1288 19.6268 21.9983 19.6267 21.8654L19.6189 19.5906C19.6181 19.4577 19.5825 19.3274 19.5157 19.2126C19.449 19.0977 19.3534 19.0023 19.2385 18.9357V18.936Z" fill="#FFEB6F"/>
<path d="M10.6966 17.8791L7.50375 16.0512C7.31703 15.9438 7.10526 15.8875 6.88985 15.8882C6.67444 15.8888 6.46302 15.9463 6.27696 16.0549L3.09592 17.9052C2.9102 18.0136 2.75611 18.1688 2.64901 18.3553C2.54191 18.5418 2.48552 18.753 2.48547 18.9681L2.49789 22.6488C2.49922 22.8643 2.55703 23.0758 2.66555 23.262C2.77408 23.4482 2.92953 23.6028 3.1164 23.7102L6.30799 25.5372C6.49485 25.6447 6.70675 25.7009 6.92231 25.7003C7.13787 25.6997 7.34946 25.6423 7.53571 25.5338L10.7174 23.6832C10.9026 23.5739 11.056 23.4182 11.1625 23.2315C11.2691 23.0447 11.325 22.8334 11.3247 22.6184L11.3123 18.938C11.3108 18.7231 11.2532 18.5123 11.1451 18.3265C11.0371 18.1407 10.8823 17.9864 10.6963 17.8788L10.6966 17.8791Z" fill="#FFF19F"/>
<path d="M9.22246 1.43718L7.2496 0.307213C7.13414 0.240836 7.0032 0.206111 6.87002 0.206547C6.73684 0.206983 6.60614 0.242564 6.49111 0.309695L4.52539 1.45301C4.41051 1.52002 4.31522 1.61598 4.249 1.73131C4.18278 1.84664 4.14796 1.97732 4.14801 2.11032L4.15577 4.38483C4.1565 4.51801 4.19214 4.64867 4.25911 4.76379C4.32609 4.8789 4.42208 4.97445 4.53749 5.0409L6.51036 6.17056C6.62584 6.23701 6.75681 6.2718 6.89004 6.27142C7.02328 6.27104 7.15405 6.2355 7.26915 6.16838L9.2358 5.02476C9.35023 4.95725 9.44507 4.86105 9.51092 4.74566C9.57678 4.63027 9.61139 4.49969 9.61132 4.36683L9.60325 2.09201C9.6024 1.95916 9.56684 1.82885 9.5001 1.71399C9.43336 1.59913 9.33775 1.50371 9.22277 1.43718H9.22246ZM9.22246 18.9127L7.2496 17.783C7.13414 17.7167 7.0032 17.6819 6.87002 17.6824C6.73684 17.6828 6.60614 17.7184 6.49111 17.7855L4.52539 18.9288C4.41051 18.9958 4.31522 19.0918 4.249 19.2071C4.18278 19.3225 4.14796 19.4532 4.14801 19.5861L4.15577 21.8607C4.1565 21.9938 4.19214 22.1245 4.25911 22.2396C4.32609 22.3547 4.42208 22.4503 4.53749 22.5167L6.51036 23.6464C6.62585 23.7128 6.75682 23.7476 6.89004 23.7472C7.02327 23.7468 7.15404 23.7113 7.26915 23.6442L9.2358 22.5006C9.35028 22.4331 9.44514 22.3368 9.511 22.2214C9.57686 22.1059 9.61144 21.9753 9.61132 21.8423L9.60325 19.5675C9.6024 19.4347 9.56684 19.3044 9.5001 19.1895C9.43336 19.0746 9.33775 18.9792 9.22277 18.9127H9.22246Z" fill="#FFEB6F"/>
</g>
<path d="M23.5 12C23.5 18.3513 18.3513 23.5 12 23.5C5.64873 23.5 0.5 18.3513 0.5 12C0.5 5.64873 5.64873 0.5 12 0.5C18.3513 0.5 23.5 5.64873 23.5 12Z" stroke="white" stroke-opacity="0.3"/>
</svg>
