<svg width="24" height="24" viewBox="0 0 24 24" fill="none" xmlns="http://www.w3.org/2000/svg">
<path d="M12 24C18.6274 24 24 18.6274 24 12C24 5.37258 18.6274 0 12 0C5.37258 0 0 5.37258 0 12C0 18.6274 5.37258 24 12 24Z" fill="#DF73E7"/>
<path d="M23.5 12C23.5 18.3513 18.3513 23.5 12 23.5C5.64873 23.5 0.5 18.3513 0.5 12C0.5 5.64873 5.64873 0.5 12 0.5C18.3513 0.5 23.5 5.64873 23.5 12Z" stroke="black" stroke-opacity="0.097"/>
<path d="M18.714 7.67447C16.5669 6.48807 14.4323 5.27707 12.2978 4.05993C12.1592 3.98002 12.0711 3.98002 11.9326 4.05993C9.72245 5.31396 7.49975 6.57413 5.27705 7.81586C5.06297 7.9388 5 8.06789 5 8.29533C5.01259 9.51862 5.0063 10.7419 5.0063 11.9713C5.0063 13.2254 5.01259 14.4794 5 15.7396C5 15.9363 5.06297 16.0469 5.24557 16.1514C7.49975 17.4116 9.74764 18.6779 11.9892 19.9565C12.1089 20.0241 12.1655 20.0057 12.2663 19.9504C14.5079 18.6779 16.7495 17.4116 19.0036 16.1453C19.1611 16.0592 19.224 15.9609 19.2177 15.7887C19.2051 15.3707 19.2051 14.9527 19.2177 14.5347C19.224 14.3319 19.1485 14.2274 18.9659 14.129C17.8954 13.5389 16.8313 12.9303 15.7735 12.3279C15.4587 12.1435 15.4524 11.8607 15.7609 11.6824C16.8124 11.08 17.864 10.4837 18.9281 9.8936C19.1233 9.7891 19.2177 9.67845 19.2177 9.451C19.2177 9.44485 19.2177 8.53507 19.2177 8.53507C19.2303 8.06789 19.0855 7.87733 18.714 7.67447ZM12.1215 19.0344C12.1215 19.2557 12.09 19.3418 11.8444 19.2004C10.3962 18.3705 8.94167 17.5591 7.48716 16.7354C6.93935 16.428 6.39155 16.1022 5.83115 15.8072C5.63596 15.7027 5.57299 15.5859 5.57299 15.3769C5.57929 14.2458 5.57929 13.1147 5.57929 11.9775C5.57929 10.8341 5.57929 9.69074 5.57929 8.54737C5.57929 8.39369 5.61077 8.27689 5.75559 8.19083C7.78939 7.05361 9.8232 5.91023 11.8507 4.76071C12.0585 4.64392 12.1215 4.6808 12.1152 4.90824C12.1089 5.4369 12.1089 5.9717 12.1152 6.50036C12.1215 6.66633 12.0522 6.75239 11.9074 6.83231C10.5032 7.63759 9.09909 8.43672 7.68865 9.2297C7.52494 9.32191 7.45567 9.41412 7.46197 9.61083C7.47456 11.1907 7.46827 12.7766 7.46197 14.3564C7.46197 14.5532 7.51864 14.6638 7.69495 14.7622C9.08649 15.5367 10.4717 16.3297 11.8696 17.1042C12.0459 17.2026 12.1278 17.3071 12.1215 17.5038C12.1089 18.014 12.1152 18.5242 12.1215 19.0344ZM14.4134 15.2908C13.6956 15.6842 12.9841 16.0899 12.2726 16.4957C12.1403 16.5694 12.0648 16.551 11.9389 16.4834C10.7047 15.7826 9.47059 15.0818 8.22386 14.3933C8.07274 14.3073 8.03496 14.2151 8.03496 14.0552C8.04126 13.3729 8.03496 12.6906 8.03496 12.0021C8.03496 11.3074 8.04126 10.6128 8.03496 9.91819C8.03496 9.75836 8.07904 9.66615 8.23016 9.58624C9.48318 8.89161 10.7236 8.18469 11.9703 7.47776C12.0774 7.41629 12.1466 7.41014 12.2537 7.47161C12.9715 7.88347 13.6956 8.28919 14.4197 8.6949C14.6653 8.83014 14.5456 8.9162 14.3882 9.00226C13.6012 9.44486 12.8204 9.8936 12.027 10.33C11.8633 10.4223 11.8129 10.5206 11.8192 10.6927C11.8255 11.5595 11.8255 12.4262 11.8192 13.2991C11.8192 13.4897 11.8885 13.5819 12.0585 13.6741C12.8519 14.1044 13.6263 14.5593 14.4197 14.9957C14.6149 15.1064 14.6149 15.1802 14.4134 15.2908Z" fill="white"/>
</svg>
