<svg xmlns="http://www.w3.org/2000/svg" xmlns:xlink="http://www.w3.org/1999/xlink" width="24" height="24" viewBox="0 0 24 24"><defs><style>.a{fill:#fff;}.b{fill:#1b8cfa;}.c{fill:url(#a);}.d{fill:url(#b);}.e{fill:url(#c);}.f{fill:url(#d);}.g{fill:url(#e);}.h{fill:url(#f);}.i{fill:url(#g);}.j{fill:url(#h);}.k{fill:url(#j);}.l{fill:url(#k);}.m{fill:url(#m);}.n{fill:url(#n);}.o{fill:url(#o);}.p{fill:url(#p);}.q{fill:url(#q);}.r{fill:url(#r);}.s{fill:none;}</style><linearGradient id="a" y1="0.5" x2="1" y2="0.5" gradientUnits="objectBoundingBox"><stop offset="0" stop-color="#1be4fa"/><stop offset="1" stop-color="#366cfa"/></linearGradient><linearGradient id="b" y1="0.5" x2="1" y2="0.5" gradientUnits="objectBoundingBox"><stop offset="0.035" stop-color="#0fecca"/><stop offset="1" stop-color="#1be4fa"/></linearGradient><linearGradient id="c" y1="0.5" x2="1" y2="0.5" gradientUnits="objectBoundingBox"><stop offset="0" stop-color="#1be4fa"/><stop offset="1" stop-color="#1b8cfa"/></linearGradient><linearGradient id="d" x1="0" y1="0.5" x2="1" y2="0.5" xlink:href="#a"/><linearGradient id="e" x1="0" y1="0.5" x2="1" y2="0.5" xlink:href="#b"/><linearGradient id="f" x1="0" y1="0.5" x2="1" y2="0.5" xlink:href="#c"/><linearGradient id="g" x1="-0.123" y1="0.294" x2="1.335" y2="0.776" xlink:href="#a"/><linearGradient id="h" x1="0" y1="0.5" x2="1" y2="0.5" xlink:href="#b"/><linearGradient id="j" x1="0" y1="0.5" x2="1" y2="0.5" xlink:href="#a"/><linearGradient id="k" x1="0" y1="0.5" x2="1" y2="0.5" xlink:href="#b"/><linearGradient id="m" x1="0" y1="0.5" x2="1" y2="0.5" xlink:href="#a"/><linearGradient id="n" x1="0" y1="0.5" x2="1" y2="0.5" xlink:href="#b"/><linearGradient id="o" x1="0" y1="0.5" x2="1" y2="0.5" xlink:href="#c"/><linearGradient id="p" x1="0" y1="0.5" x2="1" y2="0.5" xlink:href="#a"/><linearGradient id="q" x1="0" y1="0.5" x2="1" y2="0.5" xlink:href="#b"/><linearGradient id="r" x1="0" y1="0.5" x2="1" y2="0.5" xlink:href="#c"/></defs><g transform="translate(-140 -1386)"><g transform="translate(140.586 1386)"><path class="a" d="M152.425,1386.664a1.67,1.67,0,1,1-.8,2.677A1.669,1.669,0,0,1,152.425,1386.664Z" transform="translate(-145.079 -1386.23)"/><path class="b" d="M159.106,1386.086a7.882,7.882,0,0,1,3.585.4,11.394,11.394,0,0,1,7.609,13.99,1.609,1.609,0,0,1-.8,1.164,1.367,1.367,0,0,1-1.916-.812,2.083,2.083,0,0,1,.137-1.292,8.617,8.617,0,0,0-1.37-7.258,8.8,8.8,0,0,0-6.661-3.593,1.355,1.355,0,0,1-.582-2.6Z" transform="translate(-147.9 -1386)"/><path class="b" d="M144.989,1390.752a1.4,1.4,0,0,1,1.764,1.453,1.749,1.749,0,0,1-.514.945,8.675,8.675,0,0,0,3.127,14.229c.6.263,1.4.24,1.78.864a1.345,1.345,0,0,1-1.2,2.092,11.084,11.084,0,0,1-6.026-3.487,11.3,11.3,0,0,1-.007-15.2A2.98,2.98,0,0,1,144.989,1390.752Z" transform="translate(-140.976 -1387.876)"/><g transform="translate(6.555 4.522)"><path class="b" d="M151.908,1397.485a4.208,4.208,0,0,1,2.555-3.949c.007.872.01,1.745,0,2.62a5.525,5.525,0,0,1,4.15-.842,5.6,5.6,0,0,1,2.233,10.036,5.545,5.545,0,0,1-4.533.919,6.6,6.6,0,0,1-2.2-1.013c-.312.158-.6.431-.975.367a1.387,1.387,0,0,1-1.235-1.5Q151.9,1400.8,151.908,1397.485Zm4.956.287a3.125,3.125,0,0,0,.118,6.107,3.108,3.108,0,1,0-.118-6.107Z" transform="translate(-151.9 -1393.536)"/></g><g transform="translate(18.294 19.631)"><path class="c" d="M172.368,1419.239l0,.9-.9-.52,0-.9Z" transform="translate(-171.466 -1418.719)"/></g><g transform="translate(18.296 19.111)"><path class="d" d="M173.265,1418.372l-.895.52-.9-.52.895-.52Z" transform="translate(-171.47 -1417.852)"/></g><g transform="translate(19.194 19.631)"><path class="e" d="M172.968,1419.239l.894-.52,0,.9-.894.52Z" transform="translate(-172.966 -1418.719)"/></g><g transform="translate(18.294 16.931)"><path class="f" d="M172.368,1414.739l0,.9-.9-.519,0-.9Z" transform="translate(-171.466 -1414.219)"/></g><g transform="translate(18.296 16.412)"><path class="g" d="M173.265,1413.873l-.895.52-.9-.519.895-.52Z" transform="translate(-171.47 -1413.354)"/></g><g transform="translate(19.194 16.931)"><path class="h" d="M172.968,1414.739l.894-.52,0,.9-.894.52Z" transform="translate(-172.966 -1414.219)"/></g><g transform="translate(18.294 22.579)"><path class="i" d="M172.368,1424.152l0,.9-.9-.52,0-.9Z" transform="translate(-171.466 -1423.632)"/></g><g transform="translate(18.296 22.06)"><path class="j" d="M173.265,1423.286l-.895.52-.9-.52.895-.52Z" transform="translate(-171.47 -1422.766)"/></g><g transform="translate(19.194 22.579)"><path class="e" d="M172.968,1424.152l.894-.52,0,.9-.894.52Z" transform="translate(-172.966 -1423.632)"/></g><g transform="translate(15.024 21.538)"><path class="k" d="M166.918,1422.417l0,.9-.9-.52,0-.9Z" transform="translate(-166.016 -1421.897)"/></g><g transform="translate(15.026 21.019)"><path class="l" d="M167.815,1421.551l-.895.519-.9-.519.895-.52Z" transform="translate(-166.02 -1421.031)"/></g><g transform="translate(15.924 21.538)"><path class="e" d="M167.518,1422.417l.894-.52,0,.9-.894.52Z" transform="translate(-167.516 -1421.897)"/></g><g transform="translate(15.024 18.524)"><path class="m" d="M166.918,1417.394l0,.9-.9-.52,0-.9Z" transform="translate(-166.016 -1416.874)"/></g><g transform="translate(15.026 18.005)"><path class="n" d="M167.815,1416.528l-.895.52-.9-.52.895-.52Z" transform="translate(-166.02 -1416.008)"/></g><g transform="translate(15.924 18.524)"><path class="o" d="M167.518,1417.394l.894-.52,0,.9-.894.52Z" transform="translate(-167.516 -1416.874)"/></g><g transform="translate(11.735 20.156)"><path class="p" d="M161.437,1420.113l0,.9-.9-.519,0-.9Z" transform="translate(-160.535 -1419.594)"/></g><g transform="translate(11.738 19.636)"><path class="q" d="M162.333,1419.247l-.894.52-.9-.52.894-.52Z" transform="translate(-160.539 -1418.727)"/></g><g transform="translate(12.635 20.156)"><path class="r" d="M162.037,1420.113l.894-.52,0,.9-.895.52Z" transform="translate(-162.034 -1419.593)"/></g></g><rect class="s" width="24" height="24" transform="translate(140 1386)"/></g></svg>