<svg width="24" height="24" viewBox="0 0 24 24" fill="none" xmlns="http://www.w3.org/2000/svg">
<path d="M12 24C18.6274 24 24 18.6274 24 12C24 5.37258 18.6274 0 12 0C5.37258 0 0 5.37258 0 12C0 18.6274 5.37258 24 12 24Z" fill="#007AFF"/>
<path d="M14.75 7.1V4.53333L12.5 4V6.56667L10.25 6.03333V8.60667L8 8.07333V16.36L10.25 16.9V19.4667L12.5 20V17.4333L14.75 17.9667V15.3933L17 15.9267V7.64L14.75 7.1ZM12.9473 15.8267L9.80267 15.08V10.2067L12.9473 10.96V15.8267Z" fill="white"/>
<path d="M23.5 12C23.5 18.3513 18.3513 23.5 12 23.5C5.64873 23.5 0.5 18.3513 0.5 12C0.5 5.64873 5.64873 0.5 12 0.5C18.3513 0.5 23.5 5.64873 23.5 12Z" stroke="black" stroke-opacity="0.097"/>
</svg>
