<svg width="24" height="24" viewBox="0 0 24 24" fill="none" xmlns="http://www.w3.org/2000/svg">
<path d="M12 24C18.6274 24 24 18.6274 24 12C24 5.37258 18.6274 0 12 0C5.37258 0 0 5.37258 0 12C0 18.6274 5.37258 24 12 24Z" fill="#142D51"/>
<path d="M23.5 12C23.5 18.3513 18.3513 23.5 12 23.5C5.64873 23.5 0.5 18.3513 0.5 12C0.5 5.64873 5.64873 0.5 12 0.5C18.3513 0.5 23.5 5.64873 23.5 12Z" stroke="white" stroke-opacity="0.3"/>
<path d="M5.0655 6.87827C4.62681 6.6943 4.10321 6.82166 3.82726 7.20375C3.76357 7.29573 3.71404 7.38771 3.68574 7.49385C3.55838 7.93962 3.72112 8.39246 4.14566 8.65426C4.71879 9.00097 5.30607 9.32645 5.88628 9.66608C8.9925 11.4492 12.0916 13.2393 15.1979 15.0224C15.8701 15.4045 16.5139 15.27 16.797 14.6757C17.0446 14.1733 16.8394 13.6214 16.2875 13.303C14.8582 12.4751 13.4289 11.6543 11.9997 10.8336C9.78497 9.55995 7.57029 8.28633 5.34853 7.0127C5.25654 6.96317 5.16456 6.92072 5.0655 6.87827Z" fill="white"/>
<path d="M14.8158 8.65385C14.8087 8.18685 14.5398 7.90383 14.1577 7.68448C12.4384 6.70096 10.726 5.71744 9.01373 4.72685C8.75901 4.57826 8.50428 4.43675 8.24956 4.28816C7.6835 3.96268 7.08915 4.10419 6.78489 4.63486C6.49479 5.13724 6.67168 5.71744 7.23066 6.04292C8.45475 6.75049 9.67884 7.45098 10.9029 8.15855C11.7025 8.61847 12.4879 9.08546 13.2945 9.53123C13.9809 9.90624 14.8087 9.4251 14.8158 8.65385Z" fill="white"/>
<path d="M7.01838 14.1802C7.53491 14.1731 7.93115 13.8759 8.06558 13.4655C8.20002 13.041 8.05143 12.5598 7.6552 12.3193C6.60092 11.6966 5.53957 11.081 4.47114 10.4937C3.99707 10.2319 3.43102 10.4301 3.15507 10.89C2.87204 11.357 2.97817 11.9372 3.45932 12.2273C4.52067 12.8641 5.59617 13.4655 6.67168 14.074C6.79904 14.1519 6.9547 14.166 7.01838 14.1802Z" fill="white"/>
<path d="M12.495 3.0005C12.0067 3.0005 11.5822 3.32598 11.4548 3.74345C11.3204 4.17506 11.4973 4.64913 11.9218 4.89678C12.7638 5.39208 13.6129 5.87323 14.462 6.36145C14.653 6.47466 14.8441 6.59495 15.0493 6.69401C15.5375 6.93458 16.0965 6.76476 16.3795 6.31192C16.6555 5.86615 16.5564 5.25057 16.0894 4.96754C15.0139 4.31658 13.9101 3.70807 12.8134 3.08541C12.7002 3.02881 12.5586 3.01465 12.495 3.0005Z" fill="white"/>
<path d="M17.3772 18.4675C17.363 18.142 17.2215 17.8307 16.9031 17.6467C15.8559 17.0311 14.8087 16.4226 13.7544 15.8353C13.2662 15.5664 12.6789 15.7575 12.4101 16.2316C12.1412 16.6985 12.2756 17.3 12.7638 17.5901C13.7969 18.2057 14.837 18.8071 15.8842 19.3873C16.5564 19.7482 17.3701 19.2529 17.3772 18.4675Z" fill="white"/>
<path d="M19.9952 13.2393C20.5329 13.2393 20.9858 12.7935 20.9999 12.2557C21.007 11.7109 20.54 11.2368 19.9881 11.2439C19.4574 11.251 18.9975 11.718 18.9975 12.2487C18.9975 12.7793 19.4645 13.2393 19.9952 13.2393Z" fill="white"/>
<path d="M6.21883 16.4444C6.21883 15.9137 5.75184 15.4538 5.22116 15.4538C4.66926 15.4538 4.20226 15.9279 4.21642 16.4727C4.23057 17.0034 4.69756 17.4562 5.23531 17.4421C5.76599 17.435 6.21883 16.9751 6.21883 16.4444Z" fill="white"/>
<path d="M20.0872 16.1119C20.0872 15.5741 19.6414 15.1213 19.1036 15.1142C18.5517 15.1 18.0777 15.567 18.0847 16.1189C18.0918 16.6496 18.5588 17.1095 19.0895 17.1025C19.6272 17.1025 20.0872 16.6496 20.0872 16.1119Z" fill="white"/>
<path d="M8.31323 17.237C7.77548 17.237 7.31556 17.6899 7.30849 18.2205C7.30141 18.7583 7.78256 19.2394 8.32739 19.2253C8.86514 19.2182 9.31798 18.7583 9.3109 18.2205C9.3109 17.6969 8.84391 17.237 8.31323 17.237Z" fill="white"/>
<path d="M11.1647 14.9651C11.1718 14.4274 10.719 13.9675 10.1883 13.9533C9.64346 13.9392 9.16232 14.4132 9.16232 14.9581C9.16232 15.4958 9.61516 15.9416 10.16 15.9486C10.6977 15.9557 11.1577 15.5029 11.1647 14.9651Z" fill="white"/>
<path d="M19.3937 7.48694C19.4008 6.94919 18.9551 6.49635 18.4102 6.48927C17.8512 6.4822 17.3913 6.93504 17.3984 7.49402C17.3984 8.03177 17.8583 8.47754 18.3961 8.47754C18.9338 8.47754 19.3867 8.0247 19.3937 7.48694Z" fill="white"/>
<path d="M17.6956 10.3311C17.6885 9.79336 17.2357 9.34051 16.6979 9.34051C16.146 9.34051 15.6861 9.80751 15.6932 10.3594C15.7073 10.8901 16.1743 11.3429 16.7121 11.3288C17.2498 11.3217 17.7026 10.8689 17.6956 10.3311Z" fill="white"/>
<path d="M11.4265 21.0151C11.9643 21.008 12.4101 20.5481 12.4101 20.0103C12.4101 19.4726 11.9572 19.0197 11.4195 19.0197C10.8676 19.0197 10.4006 19.4867 10.4147 20.0386C10.4218 20.5693 10.8959 21.0221 11.4265 21.0151Z" fill="white"/>
</svg>
