<svg width="40" height="40" viewBox="0 0 40 40" fill="none" xmlns="http://www.w3.org/2000/svg"><rect fill="#2056E3" width="40" height="40" rx="12"/><g transform="translate(4 4)"><circle cx="16" cy="16" r="14" fill="#fff"/><svg width="32" height="32" viewBox="0 0 32 32" xmlns="http://www.w3.org/2000/svg"><path fill-rule="evenodd" clip-rule="evenodd" d="M0 16C0 7.163 7.163 0 16 0s16 7.163 16 16-7.163 16-16 16S0 24.837 0 16z" fill="#2056E3"/><path fill-rule="evenodd" clip-rule="evenodd" d="M16 5.333L14.025 6.46 8.642 9.54l-1.975 1.126v10.666l1.975 1.126 5.432 3.082 1.975 1.126 1.976-1.126 5.333-3.082 1.975-1.126V10.667L23.358 9.54 17.975 6.46 16 5.333zm-5.383 13.75v-6.166L16 9.835l5.383 3.082v6.165L16 22.166l-5.383-3.082z" fill="#fff"/></svg></g></svg>