<svg width="24" height="24" viewBox="0 0 24 24" fill="none" xmlns="http://www.w3.org/2000/svg">
<path d="M12 24C18.6274 24 24 18.6274 24 12C24 5.37258 18.6274 0 12 0C5.37258 0 0 5.37258 0 12C0 18.6274 5.37258 24 12 24Z" fill="#4D6EB4"/>
<path d="M23.5 12C23.5 18.3513 18.3513 23.5 12 23.5C5.64873 23.5 0.5 18.3513 0.5 12C0.5 5.64873 5.64873 0.5 12 0.5C18.3513 0.5 23.5 5.64873 23.5 12Z" stroke="black" stroke-opacity="0.097"/>
<path d="M11.9875 4.07715C11.9962 4.07715 12.0038 4.07715 12.0125 4.07715C12.0313 4.08968 12.0501 4.10346 12.0689 4.11473C12.7928 4.53318 13.5167 4.95038 14.2407 5.36883C15.81 6.27463 17.3781 7.18044 18.9474 8.08624C18.9862 8.1088 19 8.1326 19 8.17896C18.9987 10.8337 18.9987 13.4898 19 16.1445C19 16.1871 18.9875 16.2109 18.9486 16.2322C18.7971 16.3162 18.6481 16.4039 18.499 16.4916C16.3523 17.7306 14.2056 18.9709 12.0601 20.2113C12.0225 20.2326 11.995 20.2401 11.9537 20.2163C9.83951 18.9922 7.72285 17.7707 5.60744 16.5492C5.4058 16.4327 5.2029 16.3174 5 16.2034C5 13.5098 5 10.8174 5 8.12383C5.02004 8.11255 5.03883 8.10003 5.05887 8.08875C7.35087 6.7645 9.64287 5.44149 11.9349 4.11724C11.9537 4.10596 11.9775 4.10095 11.9875 4.07715ZM10.71 8.11757C10.71 8.73396 10.71 9.34911 10.71 9.96551C10.71 10.0382 10.6999 10.0444 10.6423 10.0119C10.1702 9.74125 9.69673 9.47064 9.22455 9.20127C8.62086 8.85674 8.01843 8.51221 7.416 8.16643C7.3659 8.13761 7.32707 8.13886 7.27822 8.16893C6.96761 8.36062 6.6545 8.54854 6.34264 8.73898C6.28753 8.77155 6.28878 8.77907 6.34389 8.81164C6.81481 9.081 7.28574 9.34911 7.75666 9.61847C8.42297 9.99934 9.09053 10.3802 9.75684 10.7598C10.4194 11.1382 11.0832 11.5165 11.747 11.8949C11.8222 11.9375 11.8259 11.935 11.8247 11.8448C11.8196 11.4714 11.8272 11.0981 11.8146 10.7247C11.7984 10.2474 11.8171 9.76881 11.8021 9.29148C11.7871 8.81415 11.8009 8.33556 11.7908 7.85823C11.7783 7.28693 11.7883 6.71438 11.7758 6.14309C11.7721 5.99274 11.7746 5.8424 11.7746 5.69206C11.7746 5.62316 11.7695 5.6194 11.7094 5.65322C11.4001 5.82361 11.0932 5.99525 10.7826 6.16313C10.7262 6.1932 10.7087 6.22953 10.7087 6.29092C10.7112 6.8973 10.71 7.50743 10.71 8.11757ZM17.6486 10.0883C17.6436 10.0382 17.6373 10.0056 17.6373 9.97177C17.6323 9.72747 17.6286 9.48316 17.6223 9.24011C17.6198 9.1449 17.6135 9.04843 17.611 8.95321C17.6098 8.91062 17.5947 8.90059 17.5572 8.92314C17.4983 8.95822 17.4382 8.9933 17.3793 9.02713C16.5602 9.50321 15.7411 9.97929 14.922 10.4554C14.3947 10.7611 13.8687 11.068 13.3414 11.3737C12.9469 11.603 12.5523 11.8335 12.1578 12.064C12.0977 12.0991 12.0989 12.1029 12.1603 12.1367C12.2918 12.2106 12.4221 12.2845 12.5536 12.3572C12.9995 12.6065 13.4453 12.8571 13.8912 13.1064C14.3283 13.3507 14.7654 13.595 15.2025 13.8393C15.6371 14.0823 16.073 14.3254 16.5076 14.5697C16.857 14.7651 17.2065 14.9606 17.5559 15.1573C17.6048 15.1849 17.6123 15.1686 17.6123 15.1222C17.6123 14.9744 17.616 14.8265 17.621 14.6787C17.6298 14.4707 17.6223 14.2615 17.6248 14.0523C17.626 13.9959 17.611 13.9558 17.5572 13.932C17.5121 13.9107 17.4695 13.8831 17.4257 13.8593C16.8545 13.5336 16.2847 13.2079 15.7135 12.8809C15.2602 12.6215 14.808 12.3634 14.3559 12.1041C14.292 12.0678 14.292 12.0615 14.3534 12.0277C15.4342 11.4075 16.5139 10.7874 17.5947 10.1685C17.6348 10.1447 17.6536 10.1158 17.6486 10.0883ZM9.53766 12.1392C9.45625 12.1868 9.37484 12.2332 9.29343 12.2795C8.27644 12.8646 7.25819 13.4497 6.23994 14.0322C6.20236 14.0535 6.18858 14.0748 6.19109 14.1199C6.20111 14.4156 6.20737 14.7125 6.21489 15.0082C6.21739 15.1047 6.2224 15.2011 6.22616 15.3089C8.06978 14.2364 9.90338 13.1703 11.7432 12.1004C11.7107 12.0816 11.6869 12.0678 11.6631 12.0553C10.7413 11.5391 9.81821 11.0229 8.8964 10.5067C8.02469 10.0194 7.15298 9.53203 6.28252 9.04467C6.24996 9.02588 6.22491 9.00708 6.22491 9.06973C6.22115 9.43305 6.21614 9.79512 6.20862 10.1584C6.20737 10.2123 6.22616 10.2399 6.27125 10.2649C7.3396 10.8738 8.40794 11.484 9.47629 12.0953C9.49758 12.1066 9.52263 12.1129 9.53766 12.1392ZM17.5183 15.4718C17.5021 15.4467 17.477 15.4392 17.4557 15.4267C16.1143 14.6474 14.7717 13.8694 13.4303 13.0914C12.9744 12.827 12.5173 12.5614 12.0614 12.297C12.0038 12.2632 12.0025 12.2632 12.0025 12.3284C12.0038 12.4073 12.0063 12.4875 12.0063 12.5664C12.0113 13.0525 12.015 13.5386 12.0188 14.0247C12.0225 14.5108 12.0276 14.9969 12.0313 15.483C12.0351 15.9691 12.0401 16.4552 12.0438 16.9413C12.0476 17.3924 12.0488 17.8434 12.0514 18.2944C12.0514 18.3884 12.0514 18.4836 12.0514 18.5888C12.0839 18.5713 12.1002 18.5638 12.1165 18.555C12.4271 18.3834 12.7364 18.2117 13.0483 18.0426C13.1009 18.0138 13.1197 17.9837 13.1197 17.9223C13.1172 16.7008 13.1184 15.4793 13.1184 14.2577C13.1184 14.2277 13.1034 14.1838 13.1272 14.1688C13.1523 14.1525 13.1811 14.1888 13.2074 14.2039C14.272 14.829 15.3353 15.453 16.3961 16.0794C16.445 16.1082 16.4788 16.1069 16.5239 16.0769C16.6379 16.003 16.7543 15.9353 16.8708 15.8651C17.0862 15.7336 17.3017 15.6033 17.5183 15.4718ZM12.0025 8.78408C12.0025 9.81141 12.0025 10.8387 12.0025 11.8661C12.0025 11.9337 12.0025 11.9337 12.0589 11.9012C13.8449 10.865 15.6309 9.8302 17.4169 8.79535C17.4632 8.76779 17.4682 8.75526 17.4194 8.72645C17.1125 8.54103 16.8069 8.35435 16.5026 8.16392C16.455 8.13511 16.4224 8.13385 16.3736 8.16142C15.5207 8.64752 14.6665 9.13237 13.8123 9.61722C13.5906 9.7425 13.3702 9.86904 13.1485 9.99432C13.0921 10.0269 13.0921 10.0269 13.0909 9.95924C13.0909 9.94421 13.0909 9.93043 13.0909 9.91539C13.0909 8.71642 13.0909 7.51871 13.0921 6.31974C13.0921 6.26336 13.0746 6.2358 13.0258 6.20949C12.7076 6.03534 12.392 5.85744 12.0739 5.68079C12.0013 5.63944 12.0013 5.6407 12.0013 5.72714C12.0025 6.74696 12.0025 7.76552 12.0025 8.78408ZM11.8259 15.4079C11.8259 14.3893 11.8259 13.3707 11.8259 12.3522C11.8259 12.2732 11.8184 12.2682 11.7508 12.3083C11.1646 12.6491 10.5785 12.9886 9.99105 13.3294C9.46753 13.6326 8.94525 13.937 8.42172 14.2402C7.75416 14.6273 7.08535 15.0145 6.41778 15.4016C6.36518 15.4317 6.36518 15.4417 6.41528 15.4718C6.72339 15.6609 7.03024 15.8489 7.33834 16.038C7.37842 16.0631 7.41099 16.0631 7.45357 16.0393C7.6715 15.9128 7.89193 15.7887 8.11111 15.6634C8.95652 15.1836 9.80193 14.7038 10.6473 14.2239C10.6736 14.2089 10.7012 14.1751 10.73 14.1888C10.7626 14.2064 10.7463 14.249 10.7463 14.2816C10.7475 15.4755 10.7475 16.6695 10.745 17.8634C10.745 17.9286 10.7663 17.9649 10.8227 17.9962C11.127 18.1629 11.4289 18.332 11.7307 18.5011C11.8247 18.5537 11.8259 18.5537 11.8259 18.4447C11.8259 17.4325 11.8259 16.4202 11.8259 15.4079Z" fill="white"/>
</svg>
