<svg width="1000" height="1000" viewBox="0 0 1000 1000" fill="none" xmlns="http://www.w3.org/2000/svg">
    <circle cx="500" cy="500" r="500" fill="#FAFAFA" />
    <path
        d="M475.12 101.703L368.159 163.185C354.666 170.949 343.46 182.116 335.67 195.563C327.879 209.011 323.777 224.266 323.777 239.794V714.883C317.046 718.705 309.428 720.705 301.681 720.683C293.934 720.661 286.328 718.618 279.619 714.759C272.909 710.899 267.331 705.356 263.437 698.681C259.544 692.006 257.471 684.432 257.426 676.712V252.753C257.426 221.697 265.63 191.188 281.211 164.293C296.792 137.398 319.203 115.064 346.19 99.5357L441.922 44.4233C446.969 41.5189 452.694 39.9931 458.521 40.0002C464.349 39.989 470.076 41.515 475.12 44.4233C480.161 47.3289 484.346 51.5046 487.256 56.5316C490.166 61.5586 491.697 67.2598 491.697 73.0632C491.697 78.8665 490.166 84.5678 487.256 89.5948C484.346 94.6217 480.161 98.7975 475.12 101.703Z"
        fill="#23262F" />
    <path
        d="M615.543 180.291L509.701 240.118C496.089 247.811 484.785 258.877 476.926 272.202C469.067 285.527 464.929 300.643 464.928 316.03V635.369L397.994 673.194V328.784C397.995 298.01 406.27 267.779 421.988 241.128C437.707 214.478 460.314 192.347 487.539 176.96L582.053 123.532C587.152 120.675 592.923 119.165 598.798 119.149C604.674 119.159 610.446 120.67 615.543 123.532C620.628 126.411 624.85 130.549 627.785 135.53C630.72 140.512 632.265 146.161 632.265 151.912C632.265 157.662 630.72 163.312 627.785 168.293C624.85 173.274 620.628 177.412 615.543 180.291Z"
        fill="#06CDF9" />
    <path
        d="M659.406 251.714C666.143 247.838 673.784 245.795 681.563 245.789C689.342 245.783 696.986 247.815 703.729 251.68C710.472 255.546 716.077 261.11 719.981 267.814C723.886 274.519 725.954 282.128 725.978 289.88V713.773C725.977 744.824 717.774 775.328 702.193 802.219C686.612 829.11 664.202 851.441 637.215 866.966L541.485 922.026C536.442 924.938 530.716 926.472 524.887 926.472C519.058 926.472 513.332 924.938 508.288 922.026C503.247 919.127 499.06 914.957 496.149 909.934C493.238 904.911 491.706 899.213 491.706 893.413C491.706 887.613 493.238 881.915 496.149 876.892C499.06 871.869 503.247 867.699 508.288 864.8L615.247 803.239C628.74 795.476 639.945 784.311 647.735 770.865C655.526 757.42 659.627 742.168 659.628 726.642L659.406 251.714Z"
        fill="#23262F" />
    <path
        d="M601.021 277.447V621.787C601.028 652.562 592.757 682.797 577.04 709.45C561.323 736.104 538.713 758.237 511.485 773.625L416.935 827.086C411.856 829.971 406.087 831.492 400.214 831.492C394.341 831.492 388.573 829.971 383.493 827.086C378.383 824.239 374.139 820.113 371.197 815.13C368.254 810.148 366.72 804.489 366.75 798.734C366.72 792.979 368.254 787.32 371.197 782.337C374.139 777.355 378.383 773.228 383.493 770.382L489.37 710.523C502.974 702.835 514.272 691.779 522.13 678.465C529.988 665.151 534.13 650.047 534.138 634.671V315.264L601.021 277.447Z"
        fill="#06CDF9" />
</svg>