<svg width="24" height="24" viewBox="0 0 24 24" fill="none" xmlns="http://www.w3.org/2000/svg">
<path d="M12 24C18.6274 24 24 18.6274 24 12C24 5.37258 18.6274 0 12 0C5.37258 0 0 5.37258 0 12C0 18.6274 5.37258 24 12 24Z" fill="url(#paint0_linear)"/>
<path fill-rule="evenodd" clip-rule="evenodd" d="M18.9983 7.40377C18.9983 7.38359 18.9767 7.36419 18.9767 7.36419L18.9559 7.34401C18.9559 7.3315 18.9475 7.32674 18.9362 7.32031C18.9293 7.31636 18.9214 7.3118 18.9135 7.30444L18.8703 7.26409L15.5305 5.07883C15.4241 4.99968 15.2538 4.99968 15.1474 5.07883L11.9563 7.10497L8.87247 5.05937C8.7661 4.98021 8.59574 4.98021 8.48937 5.05937L5.14958 7.24462C5.13867 7.24462 5.13327 7.24977 5.12792 7.25485C5.12268 7.25985 5.11749 7.2648 5.1072 7.2648C5.1072 7.2648 5.08559 7.2648 5.08559 7.28497C5.07499 7.29487 5.06459 7.30944 5.05419 7.32402H5.05419C5.0434 7.33914 5.03261 7.35425 5.02161 7.36412V7.3843C5 7.42388 5 7.46346 5 7.5038V17.4966C5 17.5959 5.06399 17.6953 5.14875 17.755L8.48854 19.9402H8.51014L8.53174 19.9605H8.55335C8.59574 19.9806 8.63812 20 8.7021 20C8.7454 20 8.76891 19.9908 8.79941 19.9788H8.79944L8.79946 19.9787C8.81403 19.973 8.83018 19.9667 8.85085 19.9605H8.87245C8.87245 19.9605 8.89407 19.9605 8.89407 19.9402H8.91567L12.0636 17.873L15.2123 19.9387H15.2331L15.2547 19.9589H15.2763C15.3187 19.979 15.3611 19.9984 15.425 19.9984C15.4553 19.9984 15.4855 19.9881 15.5236 19.9752C15.5389 19.97 15.5554 19.9644 15.5738 19.9589H15.5954C15.5954 19.9589 15.617 19.9589 15.617 19.9387H15.6386L18.9783 17.7534L19 17.7333L18.9983 7.40377ZM5.68125 8.11849L8.0854 9.68758L5.68125 11.2567V8.11849ZM5.68125 17.3369L8.34048 19.065V14.2173L7.36154 13.5818L5.68125 12.4892V17.3369ZM15.02 19.0852L12.3608 17.3571V12.4891L15.02 14.2374V19.0852ZM18.084 11.8737L15.148 9.94686H15.1479C15.0623 9.8871 14.9983 9.78778 14.9983 9.68844C14.9983 9.58911 15.0623 9.48978 15.1471 9.43003L18.0831 7.5032L15.3392 5.71526L12.1481 7.74138C12.0417 7.82054 11.8714 7.82054 11.765 7.74138L8.68027 5.71446L5.93637 7.5024L8.87238 9.42924C8.95714 9.48899 9.02113 9.58832 9.02113 9.68765C9.02113 9.78699 8.95714 9.88631 8.87238 9.94607L5.93637 11.8729L8.53157 13.5817L8.68032 13.681L11.7859 11.6154H11.8075C11.8075 11.5952 11.8291 11.5952 11.8291 11.5952H11.8482C11.8482 11.575 11.8698 11.575 11.8698 11.575H11.8914H11.9338H11.9762H11.9978H12.0194H12.0618H12.1041H12.1258C12.1258 11.5952 12.1474 11.5952 12.1474 11.5952H12.169C12.169 11.6154 12.1906 11.6154 12.1906 11.6154H12.2122L15.3401 13.6818L15.4888 13.5825L18.084 11.8737Z" fill="white"/>
<path d="M23.5 12C23.5 18.3513 18.3513 23.5 12 23.5C5.64873 23.5 0.5 18.3513 0.5 12C0.5 5.64873 5.64873 0.5 12 0.5C18.3513 0.5 23.5 5.64873 23.5 12Z" stroke="black" stroke-opacity="0.097"/>
<defs>
<linearGradient id="paint0_linear" x1="12" y1="0" x2="12" y2="24" gradientUnits="userSpaceOnUse">
<stop stop-color="#8A00FE"/>
<stop offset="1" stop-color="#4500FB"/>
</linearGradient>
</defs>
</svg>
