<svg width="24" height="24" viewBox="0 0 24 24" fill="none" xmlns="http://www.w3.org/2000/svg">
<path d="M12 24C18.6274 24 24 18.6274 24 12C24 5.37258 18.6274 0 12 0C5.37258 0 0 5.37258 0 12C0 18.6274 5.37258 24 12 24Z" fill="#2170FB"/>
<path d="M12 24C18.6274 24 24 18.6274 24 12C24 5.37258 18.6274 0 12 0C5.37258 0 0 5.37258 0 12C0 18.6274 5.37258 24 12 24Z" fill="#2DCA9D"/>
<path d="M16.742 14.3542V13.9365C16.742 13.1453 17.2334 12.5557 18.3685 12.5557C19.5037 12.5557 20 13.1453 20 13.9365V14.3542C20 15.1503 19.5086 15.735 18.3685 15.735C17.2285 15.735 16.742 15.1503 16.742 14.3542Z" fill="white"/>
<path d="M16.742 10.0783V9.66062C16.742 8.86455 17.2334 8.27979 18.3685 8.27979C19.5037 8.27979 20 8.86455 20 9.66062V10.0783C20 10.8744 19.5086 11.4591 18.3685 11.4591C17.2285 11.4591 16.742 10.8744 16.742 10.0783Z" fill="white"/>
<path d="M12.4914 5.80344V5.38575C12.4914 4.58968 12.9828 4 14.1229 4C15.2629 4 15.7494 4.58968 15.7494 5.38575V5.80344C15.7494 6.5946 15.258 7.18428 14.1229 7.18428C12.9877 7.18428 12.4914 6.5946 12.4914 5.80344Z" fill="white"/>
<path d="M12.4914 18.6291V18.2163C12.4914 17.4202 12.9828 16.8306 14.1229 16.8306C15.2629 16.8306 15.7494 17.4202 15.7494 18.2163V18.6291C15.7494 19.4252 15.258 20.0148 14.1229 20.0148C12.9877 20.0148 12.4914 19.4252 12.4914 18.6291Z" fill="white"/>
<path d="M12.4914 14.3542V13.9365C12.4914 13.1453 12.9828 12.5557 14.1229 12.5557C15.2629 12.5557 15.7494 13.1453 15.7494 13.9365V14.3542C15.7494 15.1503 15.258 15.735 14.1229 15.735C12.9877 15.735 12.4914 15.1503 12.4914 14.3542Z" fill="white"/>
<path d="M12.4914 10.0783V9.66062C12.4914 8.86455 12.9828 8.27979 14.1229 8.27979C15.2629 8.27979 15.7494 8.86455 15.7494 9.66062V10.0783C15.7494 10.8744 15.258 11.4591 14.1229 11.4591C12.9877 11.4591 12.4914 10.8744 12.4914 10.0783Z" fill="white"/>
<path d="M8.2457 5.80344V5.38575C8.2457 4.58968 8.7371 4 9.87715 4C11.0172 4 11.5037 4.58968 11.5037 5.38575V5.80344C11.5037 6.5946 11.0123 7.18428 9.87715 7.18428C8.74201 7.18428 8.2457 6.5946 8.2457 5.80344Z" fill="white"/>
<path d="M8.2457 18.6291V18.2163C8.2457 17.4202 8.7371 16.8306 9.87715 16.8306C11.0172 16.8306 11.5037 17.4202 11.5037 18.2163V18.6291C11.5037 19.4252 11.0123 20.0148 9.87715 20.0148C8.74201 20.0148 8.2457 19.4252 8.2457 18.6291Z" fill="white"/>
<path d="M8.2457 14.3542V13.9365C8.2457 13.1453 8.7371 12.5557 9.87715 12.5557C11.0172 12.5557 11.5037 13.1453 11.5037 13.9365V14.3542C11.5037 15.1503 11.0123 15.735 9.87715 15.735C8.74201 15.735 8.2457 15.1503 8.2457 14.3542Z" fill="white"/>
<path d="M8.2457 10.0783V9.66062C8.2457 8.86455 8.7371 8.27979 9.87715 8.27979C11.0172 8.27979 11.5037 8.86455 11.5037 9.66062V10.0783C11.5037 10.8744 11.0123 11.4591 9.87715 11.4591C8.74201 11.4591 8.2457 10.8744 8.2457 10.0783Z" fill="white"/>
<path d="M4 14.3542V13.9365C4 13.1503 4.4914 12.5557 5.62654 12.5557C6.76167 12.5557 7.25799 13.1503 7.25799 13.9365V14.3542C7.25799 15.1503 6.76659 15.735 5.62654 15.735C4.48649 15.735 4 15.1503 4 14.3542Z" fill="white"/>
<path d="M4 10.0783V9.66062C4 8.86455 4.4914 8.27979 5.62654 8.27979C6.76167 8.27979 7.25799 8.86455 7.25799 9.66062V10.0783C7.25799 10.8744 6.76659 11.4591 5.62654 11.4591C4.48649 11.4591 4 10.8744 4 10.0783Z" fill="white"/>
<path d="M23.5 12C23.5 18.3513 18.3513 23.5 12 23.5C5.64873 23.5 0.5 18.3513 0.5 12C0.5 5.64873 5.64873 0.5 12 0.5C18.3513 0.5 23.5 5.64873 23.5 12Z" stroke="white" stroke-opacity="0.3"/>
</svg>
