<svg width="24" height="24" viewBox="0 0 24 24" fill="none" xmlns="http://www.w3.org/2000/svg">
<path d="M12 24C18.6274 24 24 18.6274 24 12C24 5.37258 18.6274 0 12 0C5.37258 0 0 5.37258 0 12C0 18.6274 5.37258 24 12 24Z" fill="#672FD8"/>
<path d="M23.5 12C23.5 18.3513 18.3513 23.5 12 23.5C5.64873 23.5 0.5 18.3513 0.5 12C0.5 5.64873 5.64873 0.5 12 0.5C18.3513 0.5 23.5 5.64873 23.5 12Z" stroke="black" stroke-opacity="0.097"/>
<path d="M16.938 5.12059C16.9173 5.1091 16.6001 5.02176 16.0922 5.12749C16.0002 5.14588 15.9083 5.16197 15.821 5.18725C15.5176 5.27459 15.1705 5.44238 14.9039 5.65844C14.7361 5.79405 14.5729 5.93196 14.435 6.09975C14.3614 6.18709 14.2948 6.28133 14.2465 6.38706C14.2419 6.39855 14.2396 6.41234 14.2235 6.41924C14.2143 6.39625 14.212 6.37557 14.2097 6.35258C14.2005 6.09285 14.2465 5.8745 14.3246 5.62856C14.4097 5.35964 14.5637 5.01946 14.7453 4.76893C14.805 4.68618 15.0027 4.42875 15.0188 4.39657C15.0257 4.38278 15.0188 4.36669 15.005 4.3598C14.9981 4.3552 14.9889 4.3506 14.9797 4.3529C14.5821 4.38738 14.1775 4.52758 13.796 4.86086C13.7592 4.89304 13.5753 5.06313 13.4765 5.18955C13.4075 5.27919 13.2788 5.49754 13.288 5.63545C13.288 5.63775 13.2857 5.63775 13.2857 5.64005C13.2834 5.64005 13.2811 5.64005 13.2811 5.63775C12.98 4.79421 13.0995 3.8955 13.2214 3.48177C13.2949 3.23354 13.3202 3.10712 13.3202 3.10712C13.3248 3.09103 13.334 3.07724 13.3363 3.06115C13.3386 3.05196 13.3386 3.03817 13.3363 3.02897C13.3271 3.00139 13.2926 2.9899 13.2673 3.01059C13.2398 3.03587 13.2076 3.04966 13.1777 3.07264C13.0812 3.1439 12.9846 3.21515 12.895 3.2956C12.5755 3.5875 12.5571 3.63347 12.5571 3.63347C12.325 3.84953 11.8584 4.46093 11.7664 5.27229C11.7549 5.38032 11.7365 5.48835 11.7434 5.59868C11.7434 5.60557 11.7411 5.61017 11.7388 5.62396C11.7228 5.60328 11.7113 5.59178 11.6998 5.57569C11.2286 4.98728 9.81961 4.39427 8.93239 5.19644C8.84735 5.27459 8.7761 5.44238 8.80828 5.46996C8.87263 5.52972 9.87018 5.33205 10.5229 6.24225C10.8103 6.64219 10.8953 7.00995 10.9895 7.3915C10.9918 7.39839 11.0171 7.5294 10.9941 7.5317C10.9918 7.5317 10.9895 7.5317 10.9895 7.5294C10.4977 6.9249 9.99659 6.7755 9.48403 6.90192C9.31854 6.94329 9.16454 7.01225 9.01744 7.09729C8.7761 7.2398 8.40604 7.63054 8.40604 7.63054C8.39685 7.63054 8.39455 7.65122 8.40144 7.65812C8.40604 7.66272 8.41294 7.66731 8.41753 7.67191C8.44052 7.6811 8.4635 7.6811 8.48649 7.67421C8.89102 7.55929 9.97361 8.09253 10.3666 8.76369C10.3988 8.81885 10.4264 8.87861 10.4517 8.93838C10.4862 9.01882 10.5069 9.10387 10.5229 9.18891C10.5252 9.205 10.562 9.45553 10.5321 9.46933C10.2954 9.34521 10.2586 9.29234 10.0747 9.28545C9.90006 9.28085 9.5346 9.22798 9.09788 9.62102C9.08409 9.63252 9.0818 9.65091 9.09099 9.66699C9.09788 9.67849 9.10938 9.68308 9.12087 9.68538C9.46794 9.70147 10.0495 10.0761 10.2448 10.807C10.2448 10.8093 10.2425 10.8139 10.2425 10.8208C10.2104 10.853 10.1736 10.8829 10.1345 10.9082C10.0701 10.9472 10.0173 11.0001 9.97131 11.0599C9.94143 11.0967 9.90695 11.1334 9.87477 11.1702C9.84489 11.2047 9.81041 11.2369 9.78283 11.2713C9.72767 11.3403 9.67251 11.4115 9.61964 11.4828C9.58746 11.5265 9.55069 11.5678 9.51161 11.6069C9.45875 11.6621 9.40358 11.7149 9.35302 11.7724C9.31164 11.8207 9.26797 11.846 9.20132 11.8253C9.15535 11.8115 9.10938 11.8207 9.06571 11.8506C9.01744 11.885 8.97836 11.9264 8.94618 11.977C8.91171 12.0321 8.87953 12.0896 8.85654 12.1517C8.82896 12.2229 8.80368 12.2942 8.78069 12.3677C8.75541 12.4482 8.71404 12.5171 8.67726 12.5907C8.66577 12.6137 8.64508 12.6251 8.6198 12.6251C8.60601 12.6251 8.58992 12.6251 8.57613 12.6251C8.54855 12.6274 8.52556 12.6366 8.50488 12.6596C8.4635 12.7033 8.43592 12.7539 8.40834 12.8044C8.39685 12.8251 8.39225 12.8481 8.38765 12.8711C8.37156 12.9676 8.37386 13.0642 8.37846 13.1607C8.38306 13.2434 8.38765 13.3285 8.38535 13.4112C8.38306 13.5284 8.35777 13.6434 8.321 13.7537C8.29801 13.8273 8.27043 13.8985 8.22446 13.9606C8.19458 14.0019 8.1693 14.0479 8.13022 14.0801C8.12563 14.0847 8.12103 14.0916 8.11643 14.0962C8.09804 14.1375 8.07506 14.1766 8.06816 14.2249C8.05667 14.3168 8.04288 14.4088 8.06587 14.503C8.08425 14.5766 8.09345 14.6524 8.10724 14.7283C8.11184 14.7535 8.11643 14.7788 8.11873 14.8041C8.13252 14.8937 8.13942 14.9857 8.14172 15.0753C8.14172 15.0983 8.14631 15.119 8.14401 15.1397C8.13252 15.2477 8.11184 15.3534 8.06357 15.45C8.0107 15.5557 7.99461 15.6683 8.00151 15.7833C8.0061 15.9074 8.03828 16.0246 8.06816 16.1418C8.09575 16.2522 8.12792 16.3625 8.1601 16.4728C8.19228 16.59 8.18998 16.7073 8.1647 16.8245C8.14861 16.8911 8.13942 16.9601 8.13022 17.029C8.12103 17.0911 8.12563 17.1532 8.15551 17.2106C8.167 17.2313 8.17389 17.2543 8.18539 17.275C8.22446 17.3577 8.26583 17.4428 8.30491 17.5255C8.32789 17.5738 8.33019 17.6243 8.3164 17.6749C8.30031 17.7324 8.27503 17.7875 8.24515 17.8404C8.19688 17.9186 8.1693 18.0013 8.167 18.0932C8.1647 18.1622 8.17389 18.2311 8.18768 18.3001C8.20837 18.3966 8.24515 18.484 8.30491 18.5621C8.33938 18.6081 8.37386 18.6541 8.40144 18.7046C8.41523 18.7299 8.42903 18.7529 8.44512 18.7782C8.49568 18.8517 8.52556 18.9322 8.53016 19.0218C8.53476 19.0816 8.53935 19.1413 8.54165 19.2011C8.55085 19.3712 8.62899 19.5091 8.74162 19.6263C8.79678 19.6861 8.86114 19.739 8.9232 19.7918C8.96917 19.8332 9.01974 19.87 9.068 19.909C9.58746 20.3435 9.70239 20.3986 10.1713 20.594C10.1782 20.5963 10.1851 20.5986 10.192 20.6009C10.2839 20.6331 10.3758 20.6583 10.4701 20.6767C10.8263 20.7457 11.2837 20.8146 11.6492 20.8284C11.7159 20.8307 11.7848 20.8261 11.8515 20.8376C11.8997 20.8468 11.948 20.8537 11.9963 20.8583C12.0675 20.8675 12.1365 20.8744 12.2077 20.8859C12.3433 20.9112 12.479 20.9181 12.6169 20.9135C12.7111 20.9112 12.8053 20.8997 12.8996 20.8905C13.0628 20.8744 13.226 20.856 13.3846 20.8169C13.5202 20.7848 13.6558 20.7503 13.7891 20.7066C13.8948 20.6698 14.0028 20.6354 14.1109 20.6055C14.2511 20.5664 14.3798 20.5066 14.4993 20.4216C14.8418 20.1757 15.1452 19.9573 15.4555 19.4401C15.5153 19.3436 15.5428 19.2379 15.5221 19.123C15.5198 19.1069 15.5175 19.0931 15.5175 19.077C15.5153 19.0448 15.513 19.0126 15.5015 18.9827C15.4693 18.8908 15.4831 18.8035 15.5313 18.7207C15.6049 18.592 15.6853 18.4656 15.7681 18.3415C15.8393 18.2334 15.8968 18.1185 15.9405 17.9944C15.9658 17.9231 15.9589 17.8542 15.9221 17.7875C15.9129 17.7714 15.906 17.7531 15.8991 17.7347C15.8922 17.714 15.8784 17.691 15.8761 17.668C15.8692 17.6129 15.8715 17.5577 15.8945 17.5071C15.9152 17.4543 15.9382 17.3991 15.9612 17.3462C15.9933 17.2773 16.0186 17.2083 16.0416 17.1371C16.0623 17.0727 16.0738 17.0084 16.0761 16.9394C16.0784 16.8865 16.0623 16.8429 16.037 16.7992C16.0255 16.7808 16.0117 16.7624 16.0002 16.744C15.9864 16.7233 15.9749 16.705 15.9635 16.6843C15.9497 16.6567 15.9382 16.6291 15.9244 16.5992C15.9129 16.5716 15.9083 16.5441 15.9152 16.5142C15.929 16.4613 15.9405 16.4084 15.9566 16.3556C15.9795 16.2797 16.0071 16.2039 16.0324 16.128C16.0554 16.0568 16.0738 15.9855 16.0784 15.9097C16.0853 15.7741 16.0968 15.6362 16.0922 15.5005C16.0899 15.4293 16.0807 15.358 16.0623 15.2891C16.0531 15.2523 16.0301 15.2293 15.9979 15.2132C15.9841 15.2063 15.9681 15.2017 15.952 15.1948C15.9106 15.1834 15.8899 15.1535 15.8784 15.1144C15.8646 15.0638 15.8623 15.011 15.8577 14.9581C15.8485 14.8271 15.8646 14.6961 15.883 14.5674C15.8991 14.4639 15.9129 14.3582 15.9083 14.2525C15.906 14.2203 15.9037 14.1881 15.9037 14.1536C15.9037 14.0916 15.8922 14.0295 15.883 13.9698C15.8761 13.9261 15.8554 13.8916 15.8255 13.8617C15.8118 13.8502 15.798 13.8364 15.7842 13.8273C15.7497 13.8043 15.7382 13.7721 15.7405 13.733C15.7428 13.7008 15.7474 13.6687 15.752 13.6365C15.7635 13.5767 15.7773 13.5147 15.7888 13.4549C15.8118 13.3262 15.7934 13.2044 15.7359 13.0894C15.7221 13.0596 15.7037 13.032 15.6876 13.0044C15.6509 12.9354 15.6118 12.8688 15.575 12.7975C15.5405 12.7309 15.529 12.6596 15.5359 12.5861C15.5428 12.524 15.5474 12.462 15.552 12.3999C15.5566 12.3286 15.5612 12.2574 15.5359 12.1884C15.5107 12.1195 15.4854 12.0505 15.4601 11.9839C15.4348 11.9195 15.3934 11.862 15.359 11.8023C15.3383 11.7655 15.3061 11.7379 15.2647 11.7218C15.2394 11.7126 15.2119 11.7035 15.1866 11.6966C15.1728 11.692 15.1521 11.6851 15.1383 11.6828C15.1176 11.6782 15.1038 11.6667 15.09 11.6529C15.0602 11.6207 15.0372 11.5839 15.0188 11.5426C15.0004 11.5035 14.982 11.4621 14.9613 11.4253C14.9268 11.3633 14.8832 11.3081 14.8234 11.269C14.8142 11.2644 14.8073 11.2575 14.7981 11.2506C14.7177 11.1794 14.6372 11.1081 14.5568 11.0369C14.4763 10.9633 14.4005 10.8898 14.3108 10.8277C14.2879 10.8116 14.2626 10.7955 14.2396 10.7772C14.2465 10.7634 14.2511 10.7519 14.258 10.7404C14.2856 10.6944 14.3131 10.6507 14.343 10.6071C14.3936 10.5266 14.4579 10.46 14.5269 10.4002C14.9176 10.0646 15.3291 9.90374 15.6049 9.8049C15.6807 9.77732 15.7612 9.75204 15.8393 9.73365C16.0577 9.68308 16.4094 9.59574 16.5932 9.64171C16.6024 9.64401 16.6139 9.64401 16.6254 9.64171C16.6484 9.63941 16.6645 9.62332 16.6599 9.60264C16.6231 9.44864 16.4829 9.18201 16.3726 9.09237C16.1657 8.92458 16.1037 8.9062 15.8232 8.78438C15.598 8.68784 15.3314 8.61659 15.2739 8.60509C15.0739 8.56832 14.9406 8.55223 14.9406 8.55223C14.9406 8.54304 14.9406 8.53844 14.9429 8.53384C15.1843 7.94083 15.5566 7.6949 15.8278 7.49493C15.8531 7.47654 15.8807 7.45815 15.9083 7.44206C15.9956 7.3892 16.0853 7.33633 16.1726 7.28347C16.2048 7.26508 16.2347 7.24439 16.2623 7.22141C16.2806 7.20762 16.2783 7.18463 16.26 7.17084C16.2117 7.13177 15.8141 7.05822 15.2923 7.13177C15.0303 7.16854 15.0027 7.22141 14.9406 7.20302C14.9521 7.16854 14.9958 7.0789 15.0119 7.05132C15.0464 6.98696 15.0831 6.9249 15.1153 6.86055C15.2348 6.6284 15.6049 6.23996 15.798 6.06067C15.8876 5.97793 15.9772 5.89518 16.0692 5.81474C16.1037 5.78256 16.1427 5.75727 16.1795 5.72509C16.26 5.65384 16.345 5.58719 16.4277 5.52053C16.5772 5.40331 16.7357 5.29988 16.8989 5.20334C16.915 5.19414 16.9288 5.18265 16.9426 5.17116C16.9587 5.15737 16.9564 5.12979 16.938 5.12059ZM12.0767 18.4265C12.0767 18.4265 11.2814 18.0266 10.6907 17.7347C10.5482 17.668 10.4632 17.6588 10.4241 17.7347C10.3666 17.8473 10.4655 17.9576 10.6379 18.045C11.1596 18.3208 11.7664 18.6196 11.7664 18.6196C11.7664 18.6196 11.6354 18.8747 11.4929 19.1643C11.4929 19.1643 10.785 18.7874 10.2862 18.5437C10.1437 18.4702 10.0449 18.4564 10.0012 18.5391C9.94603 18.6472 10.0587 18.7805 10.2379 18.8724C10.7068 19.1161 11.3964 19.4493 11.3964 19.4493C11.3964 19.4493 11.2539 19.7298 11.1274 19.9849C11.1274 19.9849 10.3345 19.5804 9.21511 19.0241C9.21511 19.0241 9.31164 18.8425 9.44266 18.5874C9.44266 18.5874 9.56218 18.6587 9.72537 18.7414C9.56678 18.5391 9.51621 18.3024 9.62654 18.0886C9.74146 17.8611 9.94832 17.8197 10.1598 17.8726C10.0196 17.6956 9.9782 17.468 10.0839 17.2612C10.2333 16.9693 10.5138 16.9831 10.8217 17.1348C11.5021 17.4657 12.341 17.9002 12.341 17.9002C12.341 17.9002 12.2491 18.0771 12.0767 18.4265ZM12.7732 17.0175C12.4813 17.5922 11.9503 17.5186 11.3435 17.2083C10.7735 16.9164 10.431 16.4912 10.6976 15.9694C10.9941 15.3879 11.5779 15.4937 12.2238 15.8729C12.2238 15.8729 12.0537 16.2177 11.7917 16.7486C12.1526 16.9187 12.3296 16.9371 12.3893 16.8176C12.4399 16.7187 12.3502 16.6061 12.1112 16.4751C12.1112 16.4751 12.2537 16.2062 12.3985 15.9419C12.8375 16.22 12.9777 16.6176 12.7732 17.0175ZM14.1683 20.1021C14.166 20.1021 14.166 20.1021 14.1637 20.0998C14.1637 20.0998 14.1614 20.0975 14.1614 20.0952C14.1637 20.0975 14.166 20.0998 14.1683 20.1021C14.1683 20.0998 14.1683 20.1021 14.1683 20.1021ZM13.973 14.4869C13.973 14.4869 13.3156 14.1582 12.7272 13.8663C12.5893 13.802 12.4996 13.7905 12.4606 13.8663C12.4031 13.979 12.5042 14.0893 12.6743 14.1766C13.1961 14.4524 13.8764 14.788 13.8764 14.788C13.8764 14.788 13.75 15.0454 13.6029 15.3328C13.6029 15.3328 12.8076 14.9121 12.3089 14.6685C12.1664 14.5949 12.0675 14.5812 12.0239 14.6639C11.9687 14.7719 12.0813 14.9052 12.2606 14.9972C12.7341 15.2431 13.419 15.5718 13.419 15.5718C13.419 15.5718 13.2719 15.8499 13.1455 16.1073C13.1455 16.1073 12.3755 15.7143 11.2562 15.1604C11.2562 15.1604 11.3527 14.9788 11.4837 14.7237C11.4837 14.7237 11.5917 14.788 11.748 14.8685C11.5894 14.6662 11.5389 14.4295 11.6492 14.2157C11.7664 13.9835 11.9779 13.9468 12.1939 14.0065C12.0583 13.8273 12.0216 13.6066 12.1273 13.3997C12.2767 13.1078 12.5548 13.1216 12.8605 13.271C13.5409 13.602 14.2419 13.9652 14.2419 13.9652C14.2419 13.9652 14.1454 14.1375 13.973 14.4869ZM14.2672 12.0091C14.2672 12.0091 14.0971 12.3539 13.8351 12.8849C14.166 13.0343 14.3062 13.0343 14.366 12.9193C14.4166 12.8205 14.3683 12.7286 14.1293 12.5976C14.1293 12.5976 14.2787 12.3723 14.4465 12.085C14.7981 12.3103 14.9682 12.6872 14.7499 13.1193C14.4993 13.6112 14.058 13.687 13.3593 13.3308C12.8122 13.0527 12.4904 12.6274 12.7548 12.1126C13.0444 11.5357 13.6006 11.6184 14.2672 12.0091Z" fill="white"/>
<path d="M11.0516 16.1558C10.9941 16.2684 11.1458 16.4041 11.4837 16.5925C11.5389 16.4845 11.5871 16.3788 11.64 16.2661C11.3182 16.0938 11.1091 16.0432 11.0516 16.1558Z" fill="white"/>
<path d="M13.1041 12.2966C13.0444 12.4115 13.1731 12.538 13.5225 12.7264C13.5776 12.6184 13.6259 12.5127 13.6788 12.4C13.2719 12.1863 13.1547 12.1955 13.1041 12.2966Z" fill="white"/>
</svg>
