<svg id="Layer_1" data-name="Layer 1" xmlns="http://www.w3.org/2000/svg" viewBox="0 0 1473.23 1500"><defs><style>.cls-1{fill:#22bf5a;}.cls-2{fill:#8cdea6;}</style></defs><path class="cls-1" d="M36.89,883.14,1435.12,3.9c19.28-12.13,43.36,5.95,37.1,27.85L1057.6,1482a24.84,24.84,0,0,1-36.35,14.65l-983.6-571A24.84,24.84,0,0,1,36.89,883.14Z"/><path class="cls-2" d="M8.83,887.27c14.74,6.42,28.06-4.13,28.06-4.13l480-301.85L318.16,199.39c-9.81-18.84-37.21-17.47-45.09,2.25L4.2,874.22S.69,883.73,8.83,887.27Z"/><path class="cls-1" d="M516.93,581.29l-480,301.85s-13.32,10.55-28.06,4.13c-8.14-3.54-4.63-13-4.63-13l-2.42,6.06A24.83,24.83,0,0,0,12.37,911l968.89,562.43Z"/></svg>