<svg width="24" height="24" viewBox="0 0 24 24" fill="none" xmlns="http://www.w3.org/2000/svg">
<path d="M12 24C18.6274 24 24 18.6274 24 12C24 5.37258 18.6274 0 12 0C5.37258 0 0 5.37258 0 12C0 18.6274 5.37258 24 12 24Z" fill="#111111"/>
<path d="M19.6239 11.1156L16.0992 6.53684C15.8368 6.19557 15.4308 6 14.9856 6C14.5404 6 14.1347 6.19557 13.872 6.53684L13.4889 7.03485L13.1056 6.53684C12.8429 6.19557 12.4372 6 11.992 6C11.5468 6 11.1411 6.19557 10.8784 6.53684L10.4997 7.02879L10.1209 6.53657C9.85828 6.19557 9.45226 6 9.00706 6C8.56186 6 8.15613 6.19557 7.89348 6.53684L4.36905 11.1156C3.86754 11.7673 3.86754 12.6426 4.36905 13.2943L7.89348 17.8733C8.15613 18.2144 8.56186 18.4102 9.00706 18.4102C9.45226 18.4102 9.85799 18.2146 10.1206 17.8733L11.9963 15.4365L12.3835 15.9394H12.3832C12.3846 15.9411 12.3861 15.9428 12.3876 15.9447L13.872 17.8733C14.1347 18.2144 14.5404 18.4102 14.9856 18.4102C15.4308 18.4102 15.8365 18.2146 16.0992 17.8733L19.6236 13.2946C20.1254 12.6429 20.1254 11.7673 19.6239 11.1156ZM11.4409 6.9266C11.5709 6.75775 11.7717 6.66107 11.992 6.66107C12.2123 6.66107 12.4131 6.75803 12.5431 6.9266L13.0577 7.5951L11.9966 8.97371L10.9309 7.58932L11.4409 6.9266ZM9.55819 17.4833C9.42817 17.6522 9.22734 17.7488 9.00706 17.7488C8.78678 17.7488 8.58595 17.6519 8.45593 17.4833L4.93149 12.9043C4.60935 12.4859 4.60935 11.9237 4.93149 11.5053L8.45593 6.9266C8.58595 6.75775 8.78678 6.66107 9.00706 6.66107C9.22734 6.66107 9.42817 6.75803 9.55819 6.9266L10.0681 7.58904L7.35367 11.1156C6.85217 11.7673 6.85217 12.6426 7.35484 13.2957L7.56147 13.5615L7.56176 13.5613L9.38116 15.9394C9.61275 16.2405 9.95637 16.4281 10.3398 16.468L9.55819 17.4833ZM11.0467 15.5497L11.0462 15.5494C10.9161 15.7183 10.7153 15.8149 10.495 15.8149C10.2747 15.8149 10.0739 15.718 9.94447 15.55L8.07371 13.1046L8.07284 13.1051L7.91641 12.904C7.59427 12.4856 7.59427 11.9235 7.91641 11.5051L10.4997 8.14958L11.5654 9.53396L10.3479 11.1156C9.84638 11.7673 9.84638 12.6426 10.3479 13.2943L11.5654 14.876L11.0467 15.5497ZM11.9963 10.0942L13.0826 11.5056C13.4048 11.924 13.4048 12.4862 13.0826 12.9046L11.9963 14.316L10.91 12.9046C10.5879 12.4862 10.5879 11.924 10.91 11.5056L11.9963 10.0942ZM13.6454 13.2943C14.1469 12.6426 14.1469 11.7673 13.6454 11.1156L12.4279 9.53396L13.4889 8.15536L16.0678 11.5056C16.39 11.924 16.39 12.4862 16.0664 12.9065L15.6534 13.4513L14.0482 15.5494C13.9182 15.7183 13.7173 15.8149 13.4971 15.8149C13.2791 15.8149 13.0803 15.7202 12.9503 15.5546L12.4279 14.876L13.6454 13.2943ZM19.0615 12.9046L15.5367 17.4833C15.4067 17.6522 15.2059 17.7488 14.9856 17.7488C14.7653 17.7488 14.5645 17.6519 14.4345 17.4833L13.6529 16.4678C14.036 16.4275 14.379 16.24 14.6109 15.9386L15.9901 14.1358L15.9915 14.1369L16.2176 13.8383L16.4817 13.4932L16.48 13.4921L16.6297 13.2943C17.1312 12.6426 17.1312 11.7673 16.6297 11.1156L13.9202 7.5951L14.4348 6.9266C14.5648 6.75775 14.7656 6.66107 14.9859 6.66107C15.2062 6.66107 15.407 6.75803 15.537 6.9266L19.0615 11.5056C19.3833 11.924 19.3833 12.4862 19.0615 12.9046Z" fill="url(#paint0_linear)"/>
<path opacity="0.6" d="M10.4942 16.4763C10.4408 16.4763 10.3879 16.4733 10.336 16.4678L9.5791 17.4577L10.1497 17.8401L11.5334 16.037C11.2723 16.3168 10.8944 16.4763 10.4942 16.4763Z" fill="url(#paint1_linear)"/>
<path opacity="0.6" d="M13.4925 16.4759C13.5459 16.4759 13.5987 16.4728 13.6507 16.4673L14.4076 17.4573L13.837 17.8396L12.4602 16.0385C12.7214 16.3183 13.0923 16.4759 13.4925 16.4759Z" fill="url(#paint2_linear)"/>
<path opacity="0.6" d="M11.5591 14.8716L11.9994 15.4418L11.3301 16.2937L10.8901 15.7401L11.5591 14.8716Z" fill="url(#paint3_linear)"/>
<path d="M10.0673 7.58875L10.5003 8.15368L8.93343 10.1958L8.3855 9.78515L10.0673 7.58875Z" fill="url(#paint4_linear)"/>
<path d="M11.5648 9.53198L11.9932 10.0966L10.9942 11.4072L10.4463 10.9965L11.5648 9.53198Z" fill="url(#paint5_linear)"/>
<path d="M13.0575 7.59424L13.4885 8.15615L12.4289 9.53227L11.9971 8.97119L13.0575 7.59424Z" fill="url(#paint6_linear)"/>
<path d="M23.5 12C23.5 18.3513 18.3513 23.5 12 23.5C5.64873 23.5 0.5 18.3513 0.5 12C0.5 5.64873 5.64873 0.5 12 0.5C18.3513 0.5 23.5 5.64873 23.5 12Z" stroke="white" stroke-opacity="0.3"/>
<defs>
<linearGradient id="paint0_linear" x1="6.54119" y1="16.8942" x2="13.7823" y2="6.61489" gradientUnits="userSpaceOnUse">
<stop stop-color="#FF8506"/>
<stop offset="0.5805" stop-color="#FD3947"/>
<stop offset="1" stop-color="#FB0078"/>
</linearGradient>
<linearGradient id="paint1_linear" x1="11.0952" y1="16.0232" x2="9.99619" y2="17.6619" gradientUnits="userSpaceOnUse">
<stop stop-color="#78005B"/>
<stop offset="0.3483" stop-color="#7A025A" stop-opacity="0.6517"/>
<stop offset="0.51" stop-color="#820955" stop-opacity="0.49"/>
<stop offset="0.6332" stop-color="#8E154E" stop-opacity="0.3668"/>
<stop offset="0.7369" stop-color="#A12643" stop-opacity="0.2631"/>
<stop offset="0.8283" stop-color="#B83C36" stop-opacity="0.1717"/>
<stop offset="0.9111" stop-color="#D65725" stop-opacity="0.0889"/>
<stop offset="0.9857" stop-color="#F87711" stop-opacity="0.0143"/>
<stop offset="1" stop-color="#FF7E0D" stop-opacity="0"/>
</linearGradient>
<linearGradient id="paint2_linear" x1="13.9772" y1="17.4894" x2="12.9435" y2="15.923" gradientUnits="userSpaceOnUse">
<stop stop-color="#FF7E0D" stop-opacity="0"/>
<stop offset="0.00928743" stop-color="#F97811" stop-opacity="0.0127"/>
<stop offset="0.0651" stop-color="#D65825" stop-opacity="0.0888"/>
<stop offset="0.1269" stop-color="#B93D36" stop-opacity="0.1729"/>
<stop offset="0.1949" stop-color="#A12643" stop-opacity="0.2657"/>
<stop offset="0.272" stop-color="#8F154E" stop-opacity="0.3707"/>
<stop offset="0.3632" stop-color="#820955" stop-opacity="0.495"/>
<stop offset="0.4822" stop-color="#7A025A" stop-opacity="0.6573"/>
<stop offset="0.7336" stop-color="#78005B"/>
</linearGradient>
<linearGradient id="paint3_linear" x1="11.1341" y1="16.0149" x2="11.9699" y2="14.7482" gradientUnits="userSpaceOnUse">
<stop stop-color="#FF7E0D" stop-opacity="0"/>
<stop offset="0.0133" stop-color="#F97910" stop-opacity="0.0192"/>
<stop offset="0.1144" stop-color="#D25427" stop-opacity="0.1659"/>
<stop offset="0.219" stop-color="#B1363A" stop-opacity="0.3175"/>
<stop offset="0.3263" stop-color="#981E48" stop-opacity="0.4731"/>
<stop offset="0.4375" stop-color="#860D53" stop-opacity="0.6344"/>
<stop offset="0.5551" stop-color="#7B0359" stop-opacity="0.8048"/>
<stop offset="0.6897" stop-color="#78005B"/>
</linearGradient>
<linearGradient id="paint4_linear" x1="8.47266" y1="9.86766" x2="10.3663" y2="7.87245" gradientUnits="userSpaceOnUse">
<stop stop-color="#FF4630" stop-opacity="0"/>
<stop offset="0.5722" stop-color="#B31F48" stop-opacity="0.5722"/>
<stop offset="1" stop-color="#78005B"/>
</linearGradient>
<linearGradient id="paint5_linear" x1="10.5854" y1="11.1285" x2="11.8467" y2="9.79947" gradientUnits="userSpaceOnUse">
<stop stop-color="#FF4630" stop-opacity="0"/>
<stop offset="0.5722" stop-color="#B31F48" stop-opacity="0.5722"/>
<stop offset="1" stop-color="#78005B"/>
</linearGradient>
<linearGradient id="paint6_linear" x1="12.0757" y1="9.19693" x2="13.3412" y2="7.86354" gradientUnits="userSpaceOnUse">
<stop stop-color="#FF4630" stop-opacity="0"/>
<stop offset="0.5722" stop-color="#B31F48" stop-opacity="0.5722"/>
<stop offset="1" stop-color="#78005B"/>
</linearGradient>
</defs>
</svg>
