<svg width="500" height="500" viewBox="0 0 500 500" fill="none" xmlns="http://www.w3.org/2000/svg">
<circle cx="250" cy="250" r="250" fill="url(#paint0_linear_321_2614)"/>
<path fill-rule="evenodd" clip-rule="evenodd" d="M374.535 150.732C346.303 150.732 323.415 173.644 323.415 201.899C323.415 230.16 346.303 253.067 374.535 253.067C402.774 253.067 425.662 230.16 425.662 201.899C425.662 173.644 402.774 150.732 374.535 150.732ZM374.606 231.943C391.162 231.943 404.588 218.514 404.588 201.944C404.588 185.375 391.162 171.945 374.606 171.945C358.056 171.945 344.631 185.375 344.631 201.944C344.631 218.514 358.056 231.943 374.606 231.943ZM125.393 150.732C153.626 150.732 176.514 173.644 176.514 201.899C176.514 230.16 153.626 253.067 125.393 253.067C97.1543 253.067 74.2663 230.16 74.2663 201.899C74.2663 173.644 97.1543 150.732 125.393 150.732ZM125.316 231.943C108.76 231.943 95.3406 218.514 95.3406 201.944C95.3406 185.375 108.76 171.945 125.316 171.945C141.872 171.945 155.298 185.375 155.298 201.944C155.298 218.514 141.872 231.943 125.316 231.943ZM249.961 122.845C278.2 122.845 301.088 145.751 301.088 174.012C301.088 202.267 278.2 225.18 249.961 225.18C221.728 225.18 198.84 202.267 198.84 174.012C198.84 145.751 221.728 122.845 249.961 122.845ZM249.961 203.94C233.411 203.94 219.986 190.511 219.986 173.941C219.986 157.372 233.411 143.936 249.961 143.936C266.517 143.936 279.943 157.372 279.943 173.941C279.943 190.511 266.517 203.94 249.961 203.94Z" fill="white"/>
<path fill-rule="evenodd" clip-rule="evenodd" d="M250.033 238.351V251.607C249.594 251.6 249.148 251.6 248.696 251.6C242.016 251.6 234.69 252.912 228.422 254.901C227.325 255.25 226.054 255.651 224.963 256.083L221.555 257.414C219.399 258.364 217.282 259.32 215.21 260.437C214.7 260.715 214.222 261.025 213.732 261.283C209.788 263.318 204.147 267.491 200.764 270.644C199.557 271.768 197.44 273.421 196.633 274.636C196.756 275.159 197.156 275.514 197.46 275.934C200.384 279.958 203.837 286.024 205.754 290.656L206.993 293.569C207.116 293.847 207.174 294.067 207.284 294.351C209.278 299.312 210.608 304.17 211.711 309.751C211.937 310.913 212.105 312.076 212.312 313.316C212.538 314.692 212.918 317.47 212.957 318.956C212.97 319.402 213.022 320.371 213.093 320.849C213.241 321.811 213.248 323.82 213.248 324.86C213.248 331.688 212.893 336.255 211.757 342.624C210.492 349.736 207.91 357.805 204.715 364.213L201.203 370.853C200.803 371.57 197.544 376.919 197.118 376.919H178.857C178.599 376.919 178.483 376.602 178.335 376.376C177.644 375.304 176.876 374.283 176.224 373.179C173.668 368.844 171.88 365.776 169.808 360.925C159.506 336.843 160.649 309.744 172.164 286.599L174.41 282.465C175.469 280.624 178.025 276.36 179.438 274.733C178.677 273.596 176.915 272.213 175.837 271.173L172.054 267.905L166.632 263.951C162.127 260.941 156.247 257.802 150.954 256.045C148.605 255.263 146.191 254.455 143.777 253.848C141.343 253.235 138.594 252.614 135.954 252.298C133.165 251.962 130.37 251.6 127.279 251.6C122.915 251.6 119.365 251.691 115.112 252.285C114.234 252.408 113.421 252.537 112.53 252.692C107.495 253.57 102.893 254.849 98.2716 256.703C96.4449 257.44 94.6763 258.15 92.9529 259.022L89.9645 260.573C87.4213 261.82 84.7233 263.641 82.4577 265.243C80.644 266.529 79.0239 267.892 77.2811 269.255C77.0875 269.41 77.0552 269.468 76.8809 269.623L74.8865 271.399C74.0345 272.058 73.3374 272.885 72.5822 273.641C70.549 275.682 68.6319 277.82 66.8505 280.094C65.9533 281.237 65.069 282.368 64.2622 283.595C63.8233 284.254 63.4166 284.758 63.01 285.443C62.797 285.811 61.4931 283.589 61.2737 283.944C61.0671 284.286 60.9574 284.571 60.654 284.777C60.6218 284.442 60.4991 284.047 60.4152 283.653C59.8472 281.076 60.4991 280.973 60.1312 278.331C59.7052 275.307 59.3502 272.071 59.0856 268.828C59.1501 268.57 61.2672 266.361 61.6674 265.902C62.3839 265.082 64.856 262.614 65.4563 262.149L67.1732 260.579C67.909 259.83 69.2645 258.738 70.0971 258.086L73.7956 255.211C75.8547 253.667 78.017 252.246 80.2309 250.922C80.6892 250.644 81.141 250.392 81.6315 250.095C82.1156 249.804 82.4965 249.611 82.9806 249.32C83.9294 248.752 84.8782 248.338 85.84 247.828L91.7718 245.063C93.0562 244.52 100.098 241.84 101.389 241.73L95.0894 237.111C94.8635 236.904 94.7796 236.885 94.5537 236.678C93.6436 235.819 92.2752 234.618 91.2941 233.571H88.4993L88.5638 233.642L88.7316 233.81V233.817C88.8155 233.901 88.8736 233.959 88.9059 234.004C89.7192 235.07 91.1715 236.401 92.3591 237.492L93.1272 238.196L93.1208 238.203C93.3015 238.371 93.4435 238.474 93.5855 238.584L93.663 238.649L93.7533 238.732L96.7741 240.942C94.3213 241.807 91.6749 242.828 90.9585 243.125L84.9557 245.922L84.8653 245.974C84.5361 246.148 84.2263 246.303 83.91 246.458C83.2581 246.781 82.6126 247.104 81.9091 247.524C81.7025 247.647 81.5154 247.75 81.3282 247.86C81.1087 247.976 80.8893 248.099 80.5472 248.306L79.7984 248.745C79.6371 248.835 79.4757 248.932 79.1594 249.12C78.004 249.817 76.8809 250.521 75.803 251.232C74.6606 251.988 73.5697 252.757 72.537 253.525L68.8062 256.426V256.439C68.2834 256.846 67.5798 257.408 66.9925 257.911V257.918C66.4826 258.351 66.0114 258.771 65.6822 259.106L64.1524 260.508C63.791 260.799 63.0422 261.503 62.2806 262.259C61.3963 263.131 60.4798 264.074 60.0925 264.513C59.944 264.688 59.7504 264.888 59.5245 265.133C58.6144 266.115 57.2395 267.595 57.0588 268.299L56.9685 268.66L56.9943 268.996C57.1234 270.579 57.2847 272.22 57.4719 273.899C57.6397 275.488 57.8398 277.065 58.0593 278.615C58.1948 279.616 58.1561 280.191 58.1174 280.721C58.0593 281.619 58.0012 282.439 58.3691 284.106H58.3756L58.4659 284.506C58.5111 284.687 58.5563 284.855 58.5627 284.952L58.8532 288.498L61.2801 286.87C61.4415 287.019 61.6029 287.148 61.7836 287.258C62.9971 287.969 64.0233 287.846 64.8173 286.509C65.0303 286.147 65.2497 285.837 65.4692 285.52C65.6499 285.268 65.8371 285.01 66.0049 284.752C66.4051 284.144 66.7988 283.595 67.1926 283.072C67.4572 282.717 67.9736 282.058 68.5029 281.393C69.3613 280.294 70.2585 279.222 71.188 278.176C72.0981 277.155 73.0534 276.141 74.0667 275.127C74.1506 275.043 74.4476 274.733 74.738 274.422C75.2157 273.925 75.6868 273.428 76.158 273.059L76.2678 272.969L78.2622 271.193H78.2687C78.3332 271.141 78.4236 271.051 78.5011 270.973H78.5075C78.5527 270.928 78.5462 270.928 78.5721 270.902C79.3595 270.288 79.7274 269.991 80.0953 269.7C81.2701 268.764 82.4319 267.834 83.6647 266.961C84.8201 266.148 86.053 265.288 87.2277 264.539C88.4476 263.764 89.6869 263.034 90.881 262.453L90.9197 262.433L93.9147 260.883C94.7215 260.476 95.5477 260.101 96.3933 259.74C97.2775 259.358 98.1618 259.003 99.0526 258.648C101.286 257.756 103.519 256.994 105.811 256.348C108.089 255.709 110.426 255.192 112.878 254.759C113.53 254.649 113.95 254.578 114.143 254.546C114.434 254.501 114.847 254.443 115.402 254.365C117.468 254.074 119.359 253.906 121.25 253.816C123.077 253.726 125.052 253.706 127.279 253.706C130.08 253.706 132.649 254.01 135.205 254.32L135.708 254.378C137.006 254.539 138.29 254.759 139.523 255.011C140.736 255.263 142.021 255.573 143.267 255.883C145.629 256.471 147.908 257.233 150.128 257.97L150.302 258.028C152.684 258.822 155.234 259.927 157.719 261.18C160.462 262.569 163.14 264.145 165.471 265.695L170.783 269.571L174.417 272.717C174.81 273.092 175.165 273.408 175.533 273.738C175.933 274.093 176.36 274.474 176.727 274.829C176.366 275.346 175.979 275.915 175.591 276.509C174.449 278.272 173.255 280.288 172.603 281.425L170.324 285.598L170.286 285.662C164.36 297.574 161.12 310.526 160.707 323.594C160.294 336.494 162.643 349.504 167.878 361.745C168.937 364.213 169.924 366.241 170.989 368.231C172.087 370.272 173.158 372.106 174.417 374.245C174.823 374.929 175.288 375.601 175.746 376.279C176.011 376.654 176.269 377.042 176.573 377.513C176.598 377.552 176.573 377.52 176.598 377.565C177.011 378.282 177.431 379.018 178.857 379.018H197.118C198.105 379.018 199.196 377.894 200.19 376.422C201.307 374.768 202.759 372.358 203.03 371.874L203.056 371.829L206.567 365.188L206.58 365.149C208.219 361.868 209.691 358.199 210.905 354.465C212.163 350.615 213.164 346.675 213.822 342.98C214.403 339.737 214.777 336.94 215.016 334.085C215.255 331.216 215.345 328.316 215.345 324.86C215.345 324.453 215.345 323.814 215.313 322.774C215.294 321.921 215.249 321.075 215.171 320.538C215.145 320.371 215.119 320.132 215.1 319.88C215.074 319.447 215.048 319.079 215.048 318.904C215.029 318.161 214.945 317.231 214.842 316.314C214.7 315.112 214.513 313.82 214.377 312.974L214.19 311.844C214.048 310.939 213.906 310.061 213.764 309.35C213.202 306.501 212.583 303.834 211.847 301.243C211.111 298.666 210.259 296.14 209.226 293.569L209.13 293.285L209.123 293.291C209.072 293.136 209.02 292.988 208.923 292.762V292.749L207.69 289.855C206.722 287.523 205.36 284.803 203.856 282.135C202.346 279.455 200.719 276.871 199.248 274.823C199.757 274.319 200.396 273.764 200.99 273.253C201.384 272.911 201.758 272.581 202.191 272.181C203.882 270.598 206.154 268.757 208.478 267.084C210.653 265.515 212.867 264.087 214.687 263.144C214.958 263.002 215.268 262.821 215.584 262.64C215.746 262.543 215.913 262.44 216.204 262.285C217.25 261.723 218.25 261.225 219.238 260.76C220.109 260.353 221.219 259.856 222.4 259.333L225.718 258.034H225.737C226.673 257.666 227.796 257.304 228.797 256.988V256.981L229.055 256.897V256.91C232.205 255.909 235.606 255.082 239.034 254.527C242.255 254.003 245.54 253.706 248.696 253.706C249.148 253.706 249.594 253.706 250.033 253.706V249.501C249.594 249.501 249.148 249.501 248.696 249.501C245.359 249.501 241.842 249.817 238.363 250.386C234.69 250.987 231.088 251.852 227.79 252.899V252.905L227.538 252.989V252.983C226.467 253.319 225.266 253.7 224.195 254.126V254.132L220.709 255.489C219.735 255.922 218.715 256.38 217.469 256.968C216.339 257.498 215.249 258.041 214.216 258.59C214.035 258.693 213.751 258.861 213.467 259.022C213.248 259.158 213.028 259.281 212.77 259.417C210.776 260.45 208.381 261.994 206.038 263.686C203.553 265.482 201.132 267.433 199.338 269.106C199.106 269.319 198.686 269.687 198.234 270.082C197.027 271.134 195.646 272.336 194.891 273.466L194.387 274.229L194.594 275.107C194.787 275.96 195.188 276.444 195.588 276.942L195.769 277.161H195.762C197.221 279.17 198.789 281.657 200.216 284.19C201.61 286.664 202.888 289.222 203.817 291.463L205.07 294.396L205.076 294.39C205.102 294.454 205.141 294.564 205.179 294.68C205.218 294.803 205.257 294.919 205.341 295.126C206.302 297.516 207.109 299.906 207.813 302.393C208.516 304.867 209.11 307.425 209.652 310.158C209.827 311.043 209.943 311.76 210.059 312.503L210.246 313.652C210.369 314.389 210.543 315.59 210.679 316.792C210.776 317.664 210.853 318.478 210.866 319.008C210.872 319.337 210.898 319.809 210.924 320.177C210.95 320.551 210.982 320.913 211.021 321.159C211.085 321.585 211.118 322.224 211.137 322.87C211.15 323.336 211.15 324.227 211.15 324.86C211.15 328.226 211.06 331.023 210.834 333.736C210.614 336.462 210.246 339.143 209.691 342.263C209.065 345.77 208.116 349.517 206.922 353.167C205.76 356.739 204.379 360.195 202.862 363.237V363.231L199.351 369.878C199.06 370.382 197.769 372.501 196.717 374.07C196.433 374.497 197.789 374.82 197.118 374.82H179.819C179.619 374.522 179.406 374.206 179.187 373.896C178.793 373.321 178.393 372.74 178.025 372.107C176.727 369.91 175.63 368.043 174.675 366.26C173.687 364.413 172.751 362.488 171.732 360.104C166.736 348.419 164.496 336.016 164.883 323.723C165.277 311.275 168.375 298.918 174.036 287.536L176.243 283.466C176.863 282.4 177.98 280.514 179.103 278.796C179.819 277.685 180.516 276.677 181.02 276.102L182.065 274.894L181.175 273.563C180.484 272.53 179.348 271.516 178.315 270.598C177.909 270.237 177.521 269.888 177.289 269.668L173.423 266.316L173.287 266.199L167.794 262.201C165.38 260.586 162.553 258.926 159.61 257.44C156.97 256.109 154.24 254.927 151.613 254.055L151.438 253.997C149.069 253.209 146.636 252.401 144.287 251.813C143.092 251.51 141.789 251.206 140.362 250.909C138.955 250.618 137.541 250.373 136.199 250.211L135.695 250.153C133.004 249.824 130.293 249.501 127.279 249.501C125.142 249.501 123.161 249.527 121.056 249.63C119.017 249.727 117.009 249.901 114.828 250.205C114.498 250.257 114.066 250.321 113.504 250.405C112.846 250.515 112.42 250.58 112.175 250.625C109.593 251.071 107.114 251.633 104.681 252.311C102.261 252.989 99.8852 253.797 97.497 254.759C96.5611 255.134 95.6381 255.502 94.7538 255.883C93.8372 256.277 92.9207 256.691 92.0106 257.149L89.0027 258.706C87.6666 259.365 86.3047 260.166 84.9815 261.012C83.6067 261.891 82.3609 262.75 81.2572 263.531C79.9211 264.474 78.7141 265.437 77.4877 266.419L75.9967 267.607C75.732 267.814 75.6481 267.892 75.5642 267.982V267.989L75.4867 268.053V268.06L73.5633 269.771C72.8468 270.333 72.2788 270.934 71.7108 271.535C71.5753 271.671 71.4462 271.806 71.0976 272.155C70.0713 273.182 69.058 274.261 68.0575 275.385C67.0764 276.49 66.1211 277.627 65.2045 278.796C64.8302 279.274 64.4558 279.752 63.8491 280.559C63.4231 281.128 63.0229 281.683 62.655 282.232L62.5259 282.155C62.442 282.103 62.3645 282.058 62.2806 282.013C62.2548 281.619 62.2741 281.315 62.3 281.005C62.3451 280.269 65.3917 277.355 65.1916 275.915C64.9851 274.448 61.8094 275.03 61.6351 273.441C61.4867 272.084 61.3447 270.656 61.2156 269.171C61.4673 268.886 62.0805 268.544 62.5904 267.995L63.2423 267.291C63.6167 266.865 64.4429 266.012 65.211 265.25C65.8887 264.578 66.5148 263.984 66.7278 263.816L66.7601 263.796C67.3927 263.215 68.0252 262.621 68.6642 262.046C68.9547 261.755 69.3161 261.425 69.6905 261.109H69.697C70.3231 260.573 70.9427 260.082 71.3816 259.74V259.746L75.0737 256.871C76.0935 256.109 77.1069 255.399 78.1138 254.733C79.1852 254.023 80.2503 253.351 81.3024 252.718L81.8962 252.369C82.064 252.272 82.2383 252.175 82.7159 251.884C82.8773 251.788 83.1161 251.652 83.3614 251.516C83.5808 251.394 83.8067 251.271 84.0585 251.122C84.5878 250.799 85.1751 250.515 85.7625 250.218C86.0852 250.056 86.408 249.901 86.7242 249.733L92.6173 246.988C93.4758 246.626 96.3803 245.509 98.704 244.701C100.085 244.223 101.241 243.855 101.563 243.823L107.16 243.364L96.4126 235.483C96.2706 235.354 96.1673 235.283 96.0576 235.205H96.0512L95.9931 235.147H95.9802C95.6703 234.857 95.438 234.637 95.1798 234.404C94.8893 234.14 94.586 233.855 94.2761 233.571H109.78C110.238 233.791 110.71 234.004 111.181 234.204C113.479 235.193 115.886 235.994 117.771 236.368C118.926 236.594 120.166 236.814 121.469 236.975C122.799 237.143 124.193 237.253 125.639 237.253C128.408 237.253 131.203 236.891 133.927 236.233C136.509 235.606 139.013 234.702 141.369 233.571H156.963C156.544 233.972 156.066 234.392 155.634 234.773C155.234 235.121 155.266 235.083 155.079 235.251L155.085 235.257L154.11 236.065H154.104C153.329 236.691 152.542 237.318 151.69 237.931C150.902 238.506 150.089 239.055 149.244 239.54L149.205 239.559L149.198 239.566C148.366 239.947 148.082 240.076 147.759 241.297L147.075 243.861L149.741 243.92C150.238 243.933 153.478 245.115 154.62 245.535L154.879 245.625C156.247 246.122 157.583 246.639 158.867 247.182C160.184 247.737 161.475 248.332 162.727 248.958L165.245 250.224C165.516 250.36 165.651 250.431 165.774 250.509C166.032 250.651 166.29 250.793 166.503 250.903C167.743 251.516 169.143 252.337 170.512 253.202C171.919 254.094 173.287 255.011 174.43 255.806C175.114 256.284 175.824 256.807 176.56 257.362C177.237 257.873 177.928 258.409 178.651 258.977L180.774 260.721L180.82 260.747C180.975 260.87 181.11 260.986 181.246 261.109C181.459 261.296 181.588 261.413 181.704 261.529L181.762 261.581L183.201 262.834L183.627 263.267C183.957 263.596 184.337 263.925 184.725 264.274C185.312 264.785 185.932 265.327 186.203 265.734L187.565 267.769L195.084 260.818C196.001 260.043 196.976 259.261 198.008 258.473C198.957 257.737 200.003 256.968 201.106 256.167C203.746 254.249 206.515 252.505 209.368 250.948C212.299 249.339 215.352 247.905 218.457 246.665H218.45C219.735 246.148 221.051 245.651 222.413 245.173C223.691 244.721 225.027 244.288 226.415 243.887C228.642 243.248 230.83 242.699 233.012 242.24C235.193 241.788 237.433 241.413 239.795 241.123C244.727 240.522 247.205 240.406 250.033 240.451V236.258C247.025 236.207 244.43 236.323 239.286 236.956C236.878 237.247 234.516 237.647 232.16 238.138C229.81 238.629 227.525 239.198 225.273 239.85C223.898 240.244 222.478 240.709 221.032 241.213C219.67 241.691 218.289 242.221 216.907 242.77H216.895C213.667 244.068 210.466 245.573 207.367 247.272C204.321 248.939 201.391 250.773 198.647 252.763C197.627 253.506 196.569 254.288 195.446 255.153C194.432 255.941 193.393 256.768 192.322 257.672L192.251 257.731L188.042 261.619L187.481 261.122C187.158 260.838 186.842 260.56 186.597 260.314L186.1 259.804L186.003 259.714L184.499 258.415C184.299 258.228 184.124 258.066 184.015 257.97C183.834 257.802 183.64 257.64 183.427 257.472L181.271 255.702C180.549 255.134 179.832 254.578 179.09 254.01C178.393 253.487 177.65 252.944 176.805 252.356C175.611 251.529 174.191 250.567 172.745 249.656C171.254 248.719 169.724 247.821 168.356 247.143C168.085 247.007 167.956 246.936 167.827 246.859C167.568 246.717 167.317 246.575 167.097 246.465L164.593 245.212C163.244 244.54 161.875 243.907 160.488 243.325C159.08 242.731 157.686 242.182 156.305 241.685L156.047 241.588C155.685 241.458 155.15 241.265 154.536 241.052C155.259 240.502 155.995 239.921 156.731 239.333L156.757 239.307L157.809 238.429L157.867 238.39L158.383 237.925C159.319 237.105 160.43 236.136 161.14 235.218C161.365 234.928 161.675 234.618 161.979 234.308C162.211 234.075 162.443 233.849 162.689 233.571H159.784C159.681 233.687 159.584 233.81 159.487 233.933C158.771 234.863 157.402 235.994 156.473 236.82L155.421 237.699C153.781 239.017 152.11 240.309 150.283 241.362C149.941 241.555 149.883 241.471 149.786 241.827C150.709 241.853 154.717 243.338 155.595 243.655C158.338 244.65 161.056 245.78 163.663 247.085C164.535 247.524 165.296 247.912 166.174 248.345C166.665 248.59 166.942 248.784 167.426 249.023C170.04 250.315 173.287 252.459 175.617 254.081C177.153 255.147 178.522 256.206 179.981 257.356L182.104 259.094C182.485 259.397 182.788 259.675 183.13 259.998L184.634 261.303C184.815 261.484 184.931 261.606 185.112 261.787C185.951 262.633 187.294 263.609 187.939 264.571L193.664 259.274C195.678 257.582 197.75 256.006 199.874 254.468C205.328 250.515 211.415 247.227 217.676 244.721C220.341 243.648 223.078 242.666 225.847 241.872C230.327 240.58 234.774 239.624 239.537 239.043C244.578 238.422 247.115 238.306 250.033 238.351ZM115.441 233.571H135.676C132.442 234.585 129.034 235.154 125.639 235.154C122.928 235.154 120.392 234.747 118.171 234.308C117.351 234.14 116.422 233.888 115.441 233.571ZM337.241 233.571H340.145C340.249 233.687 340.346 233.81 340.442 233.933C341.159 234.863 342.527 235.994 343.457 236.82L344.509 237.699C346.148 239.017 347.814 240.309 349.647 241.362C349.989 241.555 350.053 241.471 350.144 241.827C349.221 241.853 345.212 243.338 344.334 243.655C341.591 244.65 338.874 245.78 336.266 247.085C335.395 247.524 334.633 247.912 333.755 248.345C333.265 248.59 332.987 248.784 332.497 249.023C329.889 250.315 326.642 252.459 324.312 254.081C322.776 255.147 321.408 256.206 319.955 257.356L317.825 259.094C317.445 259.397 317.141 259.675 316.799 259.998L315.295 261.303C315.114 261.484 314.998 261.606 314.818 261.787C313.978 262.633 312.636 263.609 311.99 264.571L306.259 259.274C304.251 257.582 302.179 256.006 300.056 254.468C294.602 250.515 288.515 247.227 282.254 244.721C279.588 243.648 276.851 242.666 274.082 241.872C269.603 240.58 265.156 239.624 260.392 239.043C255.351 238.422 252.814 238.306 249.897 238.351V251.607C250.336 251.6 250.781 251.6 251.233 251.6C257.914 251.6 265.24 252.912 271.507 254.901C272.604 255.25 273.876 255.651 274.967 256.083L278.375 257.414C280.531 258.364 282.641 259.32 284.72 260.437C285.23 260.715 285.707 261.025 286.198 261.283C290.142 263.318 295.783 267.491 299.165 270.644C300.372 271.768 302.483 273.421 303.296 274.636C303.173 275.159 302.773 275.514 302.47 275.934C299.546 279.958 296.093 286.024 294.176 290.656L292.93 293.569C292.814 293.847 292.756 294.067 292.646 294.351C290.651 299.312 289.322 304.17 288.218 309.751C287.986 310.913 287.824 312.076 287.618 313.316C287.392 314.692 287.011 317.47 286.972 318.956C286.959 319.402 286.908 320.371 286.837 320.849C286.688 321.811 286.682 323.82 286.682 324.86C286.682 331.688 287.037 336.255 288.173 342.624C289.438 349.736 292.02 357.805 295.215 364.213L298.726 370.853C299.126 371.57 302.386 376.919 302.812 376.919H321.072C321.337 376.919 321.446 376.602 321.588 376.376C322.279 375.304 323.054 374.283 323.706 373.179C326.262 368.844 328.049 365.776 330.121 360.925C340.423 336.843 339.281 309.744 327.765 286.599L325.519 282.465C324.461 280.624 321.905 276.36 320.491 274.733C321.253 273.596 323.015 272.213 324.093 271.173L327.875 267.905L333.297 263.951C337.802 260.941 343.683 257.802 348.975 256.045C351.325 255.263 353.739 254.455 356.153 253.848C358.586 253.235 361.336 252.614 363.976 252.298C366.764 251.962 369.559 251.6 372.651 251.6C377.014 251.6 380.571 251.691 384.818 252.285C385.696 252.408 386.509 252.537 387.4 252.692C392.434 253.57 397.036 254.849 401.658 256.703C403.485 257.44 405.253 258.15 406.977 259.022L409.971 260.573C412.508 261.82 415.206 263.641 417.472 265.243C419.285 266.529 420.899 267.892 422.648 269.255C422.842 269.41 422.874 269.468 423.048 269.623L425.043 271.399C425.895 272.058 426.592 272.885 427.347 273.641C429.381 275.682 431.291 277.82 433.079 280.094C433.976 281.237 434.86 282.368 435.667 283.595C436.106 284.254 436.513 284.758 436.913 285.443C437.132 285.811 438.436 283.589 438.656 283.944C438.869 284.286 438.972 284.571 439.275 284.777C439.308 284.442 439.424 284.047 439.514 283.653C440.082 281.076 439.43 280.973 439.798 278.331C440.224 275.307 440.573 272.071 440.844 268.828C440.779 268.57 438.662 266.361 438.262 265.902C437.546 265.082 435.073 262.614 434.467 262.149L432.756 260.579C432.02 259.83 430.671 258.738 429.832 258.086L426.14 255.211C424.075 253.667 421.906 252.246 419.699 250.922C419.24 250.644 418.788 250.392 418.298 250.095C417.814 249.804 417.433 249.611 416.949 249.32C416 248.752 415.051 248.338 414.09 247.828L408.158 245.063C406.873 244.52 399.831 241.84 398.54 241.73L404.84 237.111C405.066 236.904 405.15 236.885 405.376 236.678C406.286 235.819 407.648 234.618 408.635 233.571H411.43L411.366 233.642L411.191 233.81L411.198 233.817C411.114 233.901 411.056 233.959 411.017 234.004C410.21 235.07 408.758 236.401 407.57 237.492L406.802 238.196L406.809 238.203C406.628 238.371 406.486 238.474 406.338 238.584H406.344L406.266 238.649L406.176 238.732L403.155 240.942C405.608 241.807 408.255 242.828 408.971 243.125L414.974 245.922L415.064 245.974C415.387 246.148 415.703 246.303 416.019 246.458C416.671 246.781 417.317 247.104 418.02 247.524C418.227 247.647 418.414 247.75 418.601 247.86C418.821 247.976 419.04 248.099 419.376 248.306L420.131 248.745C420.292 248.835 420.454 248.932 420.77 249.12C421.925 249.817 423.049 250.521 424.126 251.232C425.262 251.988 426.36 252.757 427.392 253.525L431.117 256.426V256.439C431.646 256.846 432.35 257.408 432.937 257.911V257.918C433.447 258.351 433.918 258.771 434.247 259.106L435.777 260.508C436.138 260.799 436.887 261.503 437.649 262.259C438.533 263.131 439.45 264.074 439.837 264.513C439.985 264.688 440.173 264.888 440.405 265.133C441.315 266.115 442.683 267.595 442.871 268.299L442.961 268.66L442.935 268.996C442.806 270.579 442.645 272.22 442.458 273.899C442.283 275.488 442.09 277.065 441.87 278.615C441.735 279.616 441.773 280.191 441.812 280.721C441.87 281.619 441.928 282.439 441.56 284.106H441.554L441.464 284.506C441.418 284.687 441.373 284.855 441.367 284.952L441.076 288.498L438.649 286.87C438.488 287.019 438.32 287.148 438.146 287.258C436.932 287.969 435.9 287.846 435.112 286.509C434.899 286.147 434.68 285.837 434.46 285.52C434.28 285.268 434.092 285.01 433.925 284.752C433.524 284.144 433.124 283.595 432.737 283.072C432.472 282.717 431.949 282.058 431.427 281.393C430.568 280.294 429.671 279.222 428.741 278.176C427.831 277.155 426.87 276.141 425.863 275.127C425.779 275.043 425.482 274.733 425.191 274.422C424.714 273.925 424.243 273.428 423.765 273.059L423.662 272.969L421.667 271.193H421.654C421.596 271.141 421.506 271.051 421.428 270.973H421.415C421.377 270.928 421.383 270.928 421.357 270.902C420.57 270.288 420.202 269.991 419.834 269.7C418.659 268.764 417.504 267.834 416.265 266.961C415.109 266.148 413.87 265.288 412.695 264.539C411.482 263.764 410.243 263.034 409.048 262.453L409.01 262.433L406.015 260.883C405.208 260.476 404.382 260.101 403.536 259.74C402.645 259.358 401.768 259.003 400.877 258.648C398.65 257.756 396.41 256.994 394.119 256.348C391.84 255.709 389.504 255.192 387.051 254.759C386.406 254.649 385.98 254.578 385.786 254.546C385.496 254.501 385.082 254.443 384.527 254.365C382.462 254.074 380.571 253.906 378.679 253.816C376.853 253.726 374.878 253.706 372.651 253.706C369.85 253.706 367.281 254.01 364.725 254.32L364.221 254.378C362.924 254.539 361.639 254.759 360.406 255.011C359.193 255.263 357.902 255.573 356.663 255.883C354.3 256.471 352.022 257.233 349.802 257.97L349.627 258.028C347.239 258.822 344.696 259.927 342.204 261.18C339.461 262.569 336.789 264.145 334.459 265.695L329.14 269.571L325.513 272.717C325.119 273.092 324.764 273.408 324.396 273.738C323.996 274.093 323.57 274.474 323.196 274.829C323.564 275.346 323.951 275.915 324.338 276.509C325.481 278.272 326.675 280.288 327.327 281.425L329.605 285.598L329.644 285.662C335.569 297.574 338.809 310.526 339.222 323.594C339.629 336.494 337.286 349.504 332.051 361.745C330.993 364.213 329.999 366.241 328.94 368.231C327.849 370.272 326.771 372.106 325.513 374.245C325.106 374.929 324.641 375.601 324.183 376.279C323.919 376.654 323.66 377.042 323.351 377.513C323.331 377.552 323.351 377.52 323.331 377.565C322.918 378.282 322.499 379.018 321.072 379.018H302.812C301.824 379.018 300.734 377.894 299.74 376.422C298.623 374.768 297.171 372.358 296.899 371.874L296.874 371.829L293.362 365.188L293.349 365.149C291.71 361.868 290.238 358.199 289.018 354.465C287.766 350.615 286.766 346.675 286.107 342.98C285.526 339.737 285.146 336.94 284.913 334.085C284.674 331.216 284.584 328.316 284.584 324.86C284.584 324.453 284.584 323.814 284.616 322.774C284.636 321.921 284.681 321.075 284.758 320.538C284.784 320.371 284.81 320.132 284.823 319.88C284.862 319.447 284.881 319.079 284.881 318.904C284.9 318.161 284.984 317.231 285.088 316.314C285.223 315.112 285.417 313.82 285.552 312.974L285.739 311.844C285.881 310.939 286.023 310.061 286.159 309.35C286.727 306.501 287.347 303.834 288.082 301.243C288.818 298.666 289.67 296.14 290.703 293.569L290.8 293.285L290.806 293.291C290.858 293.136 290.91 292.988 291.006 292.762V292.749L292.239 289.855C293.207 287.523 294.569 284.803 296.073 282.135C297.584 279.455 299.21 276.871 300.682 274.823C300.166 274.319 299.533 273.764 298.939 273.253C298.545 272.911 298.171 272.581 297.739 272.181C296.041 270.598 293.769 268.757 291.445 267.084C289.277 265.515 287.063 264.087 285.242 263.144C284.965 263.002 284.662 262.821 284.345 262.64C284.184 262.543 284.016 262.44 283.726 262.285C282.68 261.723 281.68 261.225 280.692 260.76C279.821 260.353 278.704 259.856 277.529 259.333L274.212 258.034H274.199C273.256 257.666 272.133 257.304 271.133 256.988V256.981L270.874 256.897V256.91C267.725 255.909 264.323 255.082 260.896 254.527C257.668 254.003 254.389 253.706 251.233 253.706C250.781 253.706 250.336 253.706 249.897 253.706V249.501C250.336 249.501 250.781 249.501 251.233 249.501C254.57 249.501 258.081 249.817 261.573 250.386C265.24 250.987 268.841 251.852 272.14 252.899V252.905L272.391 252.989V252.983C273.463 253.319 274.663 253.7 275.735 254.126V254.132L279.214 255.489C280.195 255.922 281.215 256.38 282.461 256.968C283.59 257.498 284.681 258.041 285.714 258.59C285.894 258.693 286.178 258.861 286.462 259.022C286.682 259.158 286.895 259.281 287.159 259.417C289.154 260.45 291.549 261.994 293.892 263.686C296.377 265.482 298.797 267.433 300.592 269.106C300.817 269.319 301.243 269.687 301.695 270.082C302.902 271.134 304.277 272.336 305.032 273.466L305.542 274.229L305.336 275.107C305.142 275.96 304.742 276.444 304.335 276.942L304.161 277.161C302.709 279.17 301.14 281.657 299.714 284.19C298.32 286.664 297.035 289.222 296.112 291.463L294.86 294.396L294.853 294.39C294.828 294.454 294.789 294.564 294.75 294.68C294.711 294.803 294.673 294.919 294.589 295.126C293.627 297.516 292.82 299.906 292.117 302.393C291.413 304.867 290.819 307.425 290.277 310.158C290.096 311.043 289.987 311.76 289.87 312.503L289.683 313.652C289.561 314.389 289.386 315.59 289.251 316.792C289.154 317.664 289.077 318.478 289.064 319.008C289.057 319.337 289.031 319.809 289.005 320.177C288.98 320.551 288.947 320.913 288.909 321.159C288.844 321.585 288.812 322.224 288.792 322.87C288.78 323.336 288.78 324.227 288.78 324.86C288.78 328.226 288.87 331.023 289.089 333.736C289.315 336.462 289.683 339.143 290.238 342.263C290.858 345.77 291.813 349.517 293.007 353.167C294.169 356.739 295.55 360.195 297.061 363.237L297.067 363.231L300.579 369.878C300.869 370.382 302.154 372.501 303.212 374.07C303.496 374.497 302.141 374.82 302.812 374.82H320.11C320.31 374.522 320.523 374.206 320.743 373.896C321.137 373.321 321.53 372.74 321.905 372.107C323.202 369.91 324.299 368.043 325.255 366.26C326.242 364.413 327.178 362.488 328.198 360.104C333.194 348.419 335.434 336.016 335.046 323.723C334.653 311.275 331.554 298.918 325.887 287.536H325.894L323.68 283.466C323.067 282.4 321.943 280.514 320.827 278.796C320.11 277.685 319.413 276.677 318.91 276.102L317.864 274.894L318.755 273.563C319.445 272.53 320.581 271.516 321.608 270.598C322.014 270.237 322.408 269.888 322.641 269.668L326.507 266.316L326.642 266.199L332.135 262.201C334.549 260.586 337.376 258.926 340.32 257.44C342.96 256.109 345.69 254.927 348.317 254.055L348.485 253.997C350.86 253.209 353.293 252.401 355.643 251.813C356.837 251.51 358.141 251.206 359.567 250.909C360.974 250.618 362.388 250.373 363.731 250.211L364.234 250.153C366.926 249.824 369.637 249.501 372.651 249.501C374.787 249.501 376.769 249.527 378.873 249.63C380.913 249.727 382.92 249.901 385.102 250.205C385.431 250.257 385.863 250.321 386.425 250.405C387.083 250.515 387.509 250.58 387.755 250.625C390.336 251.071 392.815 251.633 395.248 252.311C397.669 252.989 400.044 253.797 402.432 254.759C403.368 255.134 404.291 255.502 405.176 255.883C406.092 256.277 407.009 256.691 407.919 257.149L410.927 258.706C412.263 259.365 413.625 260.166 414.941 261.012C416.323 261.891 417.569 262.75 418.679 263.531C420.008 264.474 421.215 265.437 422.442 266.419L423.933 267.607C424.197 267.814 424.281 267.892 424.372 267.982L424.365 267.989L424.443 268.053L424.436 268.06L426.366 269.771C427.083 270.333 427.651 270.934 428.219 271.535C428.348 271.671 428.483 271.806 428.832 272.155C429.858 273.182 430.872 274.261 431.872 275.385C432.853 276.49 433.802 277.627 434.725 278.796C435.099 279.274 435.474 279.752 436.08 280.559C436.5 281.128 436.907 281.683 437.281 282.232L437.397 282.155C437.481 282.103 437.565 282.058 437.649 282.013C437.675 281.619 437.649 281.315 437.629 281.005C437.578 280.269 437.526 279.48 437.726 278.04C429.471 275.469 437.636 274.972 438.294 273.441C438.449 272.084 438.585 270.656 438.714 269.171C438.462 268.886 437.849 268.544 437.339 267.995L436.687 267.291C436.313 266.865 435.487 266.012 434.712 265.25C434.041 264.578 433.415 263.984 433.202 263.816L433.169 263.796C432.537 263.215 431.904 262.621 431.265 262.046C430.975 261.755 430.613 261.425 430.239 261.109H430.232C429.606 260.573 428.987 260.082 428.548 259.74V259.746L424.856 256.871C423.836 256.109 422.823 255.399 421.816 254.733C420.744 254.023 419.679 253.351 418.621 252.718L418.033 252.369C417.865 252.272 417.691 252.175 417.214 251.884C417.046 251.788 416.813 251.652 416.568 251.516C416.349 251.394 416.123 251.271 415.871 251.122C415.348 250.799 414.754 250.515 414.167 250.218C413.844 250.056 413.521 249.901 413.205 249.733L407.312 246.988C406.454 246.626 403.543 245.509 401.225 244.701C399.851 244.223 398.689 243.855 398.366 243.823L392.77 243.364L403.517 235.483C403.659 235.354 403.762 235.283 403.872 235.205H403.878L403.936 235.147H403.949C404.259 234.857 404.491 234.637 404.75 234.404C405.04 234.14 405.344 233.855 405.653 233.571H390.149C389.685 233.791 389.22 234.004 388.749 234.204C386.451 235.193 384.043 235.994 382.159 236.368C381.003 236.594 379.764 236.814 378.46 236.975C377.13 237.143 375.736 237.253 374.297 237.253C371.521 237.253 368.726 236.891 366.003 236.233C363.421 235.606 360.916 234.702 358.56 233.571H342.96C343.386 233.972 343.863 234.392 344.296 234.773C344.696 235.121 344.664 235.083 344.851 235.251L344.844 235.257L345.819 236.065C346.6 236.691 347.388 237.318 348.233 237.931C349.027 238.506 349.84 239.055 350.686 239.54L350.725 239.559L350.731 239.566C351.564 239.947 351.841 240.076 352.17 241.297L352.848 243.861L350.182 243.92C349.692 243.933 346.452 245.115 345.309 245.535L345.051 245.625C343.683 246.122 342.346 246.639 341.062 247.182C339.745 247.737 338.454 248.332 337.202 248.958L334.678 250.224C334.414 250.36 334.278 250.431 334.149 250.509C333.897 250.651 333.639 250.793 333.426 250.903C332.187 251.516 330.786 252.337 329.418 253.202C328.011 254.094 326.642 255.011 325.5 255.806C324.816 256.284 324.099 256.807 323.363 257.362C322.692 257.873 322.001 258.409 321.279 258.977L319.155 260.721L319.116 260.747C318.955 260.87 318.819 260.986 318.684 261.109C318.471 261.296 318.342 261.413 318.226 261.529L318.161 261.581L316.722 262.834L316.296 263.267C315.973 263.596 315.592 263.925 315.205 264.274C314.617 264.785 313.998 265.327 313.727 265.734L312.365 267.769L304.845 260.818C303.929 260.043 302.954 259.261 301.921 258.473C300.972 257.737 299.927 256.968 298.823 256.167C296.183 254.249 293.414 252.505 290.561 250.948C287.631 249.339 284.578 247.905 281.473 246.665C280.195 246.148 278.878 245.651 277.516 245.173C276.238 244.721 274.902 244.288 273.508 243.887C271.288 243.248 269.099 242.699 266.918 242.24C264.736 241.788 262.496 241.413 260.14 241.123C255.203 240.522 252.724 240.406 249.897 240.451V236.258C252.905 236.207 255.5 236.323 260.644 236.956C263.051 237.247 265.414 237.647 267.77 238.138C270.119 238.629 272.398 239.198 274.657 239.85C276.032 240.244 277.452 240.709 278.898 241.213C280.259 241.691 281.641 242.221 283.022 242.77H283.035C286.262 244.068 289.464 245.573 292.562 247.272C295.609 248.939 298.539 250.773 301.282 252.763C302.308 253.506 303.361 254.288 304.484 255.153C305.497 255.941 306.536 256.768 307.608 257.672L307.679 257.731L311.887 261.619L312.449 261.122C312.771 260.838 313.088 260.56 313.333 260.314L313.83 259.804L313.927 259.714L315.431 258.415C315.631 258.228 315.805 258.066 315.915 257.97C316.096 257.802 316.289 257.64 316.502 257.472H316.496L318.658 255.702C319.381 255.134 320.091 254.578 320.84 254.01C321.537 253.487 322.279 252.944 323.125 252.356C324.319 251.529 325.739 250.567 327.185 249.656C328.676 248.719 330.205 247.821 331.574 247.143C331.845 247.007 331.974 246.936 332.103 246.859C332.361 246.717 332.613 246.575 332.826 246.465L335.337 245.212C336.686 244.54 338.054 243.907 339.442 243.325C340.849 242.731 342.243 242.182 343.624 241.685L343.883 241.588C344.238 241.458 344.78 241.265 345.393 241.052C344.664 240.502 343.934 239.921 343.198 239.333L343.173 239.307L342.121 238.429L342.062 238.39L341.54 237.925C340.61 237.105 339.5 236.136 338.79 235.218C338.564 234.928 338.254 234.618 337.944 234.308C337.718 234.075 337.486 233.849 337.241 233.571ZM364.26 233.571H384.489C383.508 233.888 382.572 234.14 381.758 234.308C379.538 234.747 377.001 235.154 374.297 235.154C370.895 235.154 367.487 234.585 364.26 233.571ZM188.036 367.049C187.765 366.848 187.003 365.537 186.764 365.13C186.351 364.445 185.983 363.838 185.59 363.115C185.189 362.391 184.828 361.777 184.46 361.047C184.105 360.337 183.756 359.633 183.401 358.922C178.954 350.021 175.959 337.947 175.959 327.857C175.959 324.692 175.921 321.947 176.321 318.833L176.644 315.959C177.399 309.144 180.387 299.732 183.369 293.763C183.744 293.014 184.053 292.381 184.428 291.631C184.828 290.837 187.532 285.94 188.036 285.572C194.09 294.622 198.176 306.282 199.506 316.947C199.57 317.509 199.583 317.884 199.654 318.439C199.699 318.788 199.796 319.531 199.822 319.925L200.016 323.019C200.009 324.253 200.106 325.131 200.106 326.307C200.113 327.437 200.009 328.303 200.016 329.505C200.022 330.816 199.686 334.149 199.499 335.57C198.88 340.286 197.963 344.821 196.524 349.136C195.639 351.784 194.929 353.787 193.826 356.306C193.497 357.055 193.18 357.818 192.799 358.567C191.289 361.584 189.901 364.264 188.036 367.049ZM186.797 368.741C186.216 368.315 185.454 367.036 185.073 366.39L184.944 366.164H184.938C184.557 365.537 184.221 364.975 183.75 364.116L183.369 363.444C183.137 363.024 182.911 362.624 182.595 361.984L181.53 359.852C179.212 355.214 177.283 349.749 175.94 344.142C174.617 338.632 173.862 332.986 173.862 327.857H173.868V327.063C173.868 324.169 173.868 321.572 174.242 318.601H174.236L174.565 315.732C174.946 312.302 175.869 308.246 177.07 304.266C178.335 300.093 179.916 295.998 181.497 292.826L182.562 290.695C182.821 290.171 183.995 288.02 184.957 286.405C185.661 285.223 186.351 284.203 186.797 283.88L188.559 282.588L189.772 284.403C192.851 289.009 195.433 294.247 197.414 299.674C199.467 305.287 200.894 311.12 201.584 316.695C201.623 317.011 201.649 317.257 201.668 317.496L201.726 318.174L201.739 318.258C201.791 318.659 201.881 319.363 201.907 319.796L202.107 322.883V323.025C202.107 323.575 202.126 324.117 202.152 324.653C202.178 325.151 202.197 325.655 202.197 326.307C202.197 326.953 202.178 327.431 202.152 327.922C202.126 328.439 202.101 328.968 202.107 329.498C202.107 330.189 202.049 331.191 201.959 332.211C201.855 333.477 201.694 334.944 201.578 335.842C201.255 338.283 200.855 340.654 200.364 342.941C199.867 345.26 199.254 347.547 198.505 349.801C198.066 351.119 197.66 352.295 197.214 353.502C196.769 354.704 196.304 355.867 195.743 357.146L195.594 357.488C195.317 358.128 195.039 358.767 194.671 359.504C193.871 361.099 193.109 362.585 192.386 363.903C191.599 365.33 190.76 366.745 189.772 368.218L188.559 370.033L186.797 368.741ZM187.423 362.113C187.597 362.43 187.791 362.766 188.01 363.134C188.249 362.721 188.481 362.301 188.714 361.881C189.527 360.408 190.224 359.045 190.934 357.63C191.205 357.088 191.483 356.448 191.76 355.815L191.909 355.466C192.457 354.219 192.896 353.128 193.296 352.036C193.703 350.951 194.097 349.801 194.542 348.47C195.226 346.41 195.794 344.272 196.266 342.069C196.75 339.827 197.13 337.573 197.427 335.299C197.524 334.582 197.666 333.225 197.782 331.862C197.866 330.861 197.924 329.957 197.924 329.511C197.918 328.794 197.944 328.251 197.976 327.722C197.995 327.237 198.021 326.753 198.021 326.307C198.021 325.835 197.995 325.332 197.976 324.834C197.95 324.324 197.924 323.807 197.924 323.142L197.731 320.022C197.711 319.718 197.64 319.13 197.595 318.794L197.582 318.704C197.518 318.2 197.498 318.026 197.485 317.858C197.466 317.645 197.447 317.431 197.421 317.205C196.769 311.934 195.42 306.424 193.484 301.121C191.986 297.032 190.153 293.078 188.017 289.467C187.242 290.811 186.487 292.193 186.3 292.568L185.235 294.7C183.756 297.658 182.272 301.521 181.071 305.481C179.942 309.202 179.077 312.994 178.728 316.191L178.399 319.059L178.393 319.092C178.044 321.818 178.051 324.298 178.051 327.063V327.857H178.057C178.057 332.702 178.767 338.012 180.006 343.173C181.271 348.47 183.092 353.625 185.267 357.986L186.332 360.117C186.493 360.44 186.758 360.905 187.023 361.39L187.423 362.113ZM62.5323 286.922C65.0174 283.557 67.8058 280.501 70.8265 277.749L58.6918 269.914C55.7743 272.762 53.057 275.857 50.5848 279.209C50.7914 278.925 50.9786 278.705 51.1593 278.524C50.9592 278.738 50.7591 278.964 50.5848 279.209C45.0855 286.657 57.0782 294.299 62.5323 286.922ZM54.2252 285.817L54.3866 285.934L54.5673 286.024C55.0902 286.289 56.3294 286.825 57.7624 286.851C59.0791 286.877 60.6089 286.399 61.8481 284.635C64.3332 281.108 67.1087 277.891 70.1101 274.997L72.821 276.367C70.0907 279.939 67.5734 283.511 64.8431 286.877C62.6808 289.952 60.1119 290.701 57.6849 290.662C53.1086 290.572 49.139 287.826 48.3838 283.072C48.0288 280.863 48.5065 278.524 49.9006 276.541L49.9458 276.483C52.405 272.995 55.0966 269.759 57.9818 266.781L61.2285 268.977C58.4595 271.793 55.8712 274.849 53.5023 278.15L53.5346 278.176C53.4378 278.285 53.3539 278.376 53.3022 278.44L53.1021 278.712C52.2953 279.862 52.0178 281.212 52.2179 282.478C52.4179 283.737 53.0763 284.913 54.1478 285.759L54.2252 285.817ZM187.952 378.76L188.223 378.766L188.494 378.747C189.282 378.644 191.095 378.308 192.735 377.255C194.245 376.279 195.614 374.581 195.685 371.641C195.833 365.77 200.138 362.152 201.352 356.597L203.107 354.497C201.836 360.04 201.371 365.072 201.223 370.957C201.094 376.073 198.499 379.361 195.523 381.622C193.116 383.172 190.715 384.219 188.004 384.199C177.67 384.122 173.739 373.327 169.75 365.698L173.649 361.125C172.642 366.415 180.265 365.983 180.077 371.512L180.129 371.519C180.097 371.719 180.077 371.88 180.064 371.997L180.045 372.455C180 374.367 181.969 375.227 183.156 376.512C184.331 377.778 185.97 378.611 187.823 378.754L187.952 378.76ZM187.758 382.991C195.949 381.111 199.525 372.559 203.114 365.698L196.782 362.01L195.749 357.294C195.226 361.9 192.638 367.094 192.787 371.512L192.735 371.519C192.767 371.719 192.787 371.88 192.799 371.997L192.819 372.449C192.864 374.367 190.895 375.227 189.708 376.512C189.159 377.1 188.52 377.597 187.797 377.972L187.758 382.991ZM311.894 367.049C312.165 366.848 312.926 365.537 313.165 365.13C313.578 364.445 313.946 363.838 314.34 363.115C314.734 362.391 315.101 361.777 315.469 361.047C315.818 360.337 316.173 359.633 316.528 358.922C320.975 350.021 323.97 337.947 323.97 327.857C323.97 324.692 324.009 321.947 323.609 318.833L323.286 315.959C322.531 309.144 319.542 299.732 316.56 293.763C316.186 293.014 315.876 292.381 315.502 291.631C315.102 290.837 312.397 285.94 311.894 285.572C305.839 294.622 301.753 306.282 300.424 316.947C300.359 317.509 300.346 317.884 300.275 318.439C300.23 318.788 300.127 319.531 300.114 319.925L299.914 323.019C299.92 324.253 299.817 325.131 299.817 326.307C299.817 327.437 299.92 328.303 299.914 329.505C299.907 330.816 300.237 334.149 300.43 335.57C301.05 340.286 301.973 344.821 303.406 349.136C304.29 351.784 305 353.787 306.097 356.306C306.426 357.055 306.749 357.818 307.13 358.567C308.64 361.584 310.028 364.264 311.894 367.049ZM313.133 368.741C313.714 368.315 314.475 367.036 314.856 366.39L314.966 366.209H314.96L314.985 366.164H314.992C315.373 365.537 315.708 364.975 316.179 364.116L316.56 363.444C316.793 363.024 317.019 362.624 317.335 361.984L318.4 359.852C320.717 355.214 322.647 349.749 323.99 344.142C325.306 338.632 326.068 332.986 326.068 327.857H326.055V327.063C326.061 324.169 326.061 321.572 325.687 318.601L325.364 315.732C324.984 312.302 324.061 308.246 322.86 304.266C321.595 300.093 320.013 295.998 318.432 292.826L317.367 290.695C317.109 290.171 315.934 288.02 314.972 286.405C314.269 285.223 313.572 284.203 313.133 283.88L311.371 282.588L310.157 284.403C307.078 289.009 304.497 294.247 302.515 299.674C300.462 305.287 299.036 311.12 298.345 316.695C298.307 317.011 298.287 317.257 298.261 317.496L298.203 318.174L298.19 318.258C298.139 318.659 298.048 319.363 298.023 319.796L297.822 322.883V323.025C297.822 323.575 297.797 324.117 297.777 324.653C297.752 325.151 297.732 325.655 297.726 326.307C297.726 326.953 297.752 327.431 297.777 327.922C297.803 328.439 297.829 328.968 297.822 329.498C297.822 330.189 297.881 331.191 297.965 332.211C298.074 333.477 298.236 334.944 298.352 335.842C298.675 338.283 299.068 340.654 299.559 342.941C300.062 345.26 300.675 347.547 301.424 349.801C301.863 351.119 302.263 352.295 302.715 353.502C303.16 354.704 303.625 355.867 304.18 357.146L304.335 357.488C304.613 358.128 304.89 358.767 305.258 359.504C306.059 361.099 306.82 362.585 307.543 363.903C308.331 365.33 309.176 366.745 310.157 368.218L311.371 370.033L313.133 368.741ZM312.507 362.113C312.332 362.43 312.139 362.766 311.919 363.134C311.681 362.721 311.448 362.301 311.216 361.881C310.403 360.408 309.705 359.045 308.995 357.63C308.724 357.088 308.447 356.448 308.169 355.815L308.014 355.466C307.472 354.219 307.033 353.128 306.627 352.036C306.226 350.951 305.833 349.801 305.387 348.47C304.703 346.41 304.135 344.272 303.657 342.069C303.18 339.827 302.799 337.573 302.502 335.299C302.405 334.582 302.263 333.225 302.147 331.862C302.063 330.861 301.999 329.957 302.005 329.511C302.005 328.794 301.986 328.251 301.953 327.722C301.934 327.237 301.908 326.753 301.908 326.307C301.908 325.835 301.934 325.332 301.953 324.834C301.979 324.324 302.005 323.807 302.005 323.142L302.199 320.022C302.218 319.718 302.289 319.13 302.334 318.794L302.347 318.704C302.412 318.2 302.425 318.026 302.444 317.858C302.463 317.645 302.476 317.431 302.509 317.205C303.16 311.934 304.509 306.424 306.446 301.121C307.937 297.032 309.776 293.078 311.913 289.467C312.687 290.811 313.443 292.193 313.63 292.568L314.695 294.7C316.173 297.658 317.658 301.521 318.858 305.481C319.988 309.202 320.846 312.994 321.201 316.191L321.524 319.059L321.537 319.092C321.885 321.818 321.879 324.298 321.879 327.063V327.857H321.866C321.866 332.702 321.162 338.012 319.923 343.173C318.658 348.47 316.838 353.625 314.663 357.986L313.598 360.117C313.436 360.44 313.172 360.905 312.9 361.39L312.507 362.113ZM447.802 288.453L447.505 288.66L447.228 288.802C445.988 289.403 440.805 291.541 437.397 286.922C434.912 283.557 432.124 280.501 429.103 277.749L441.238 269.914C444.155 272.762 446.873 275.857 449.345 279.209C449.138 278.925 448.944 278.705 448.777 278.524C448.97 278.738 449.17 278.964 449.345 279.209C451.552 282.2 450.849 286.263 447.802 288.453ZM445.704 285.817L445.543 285.934L445.362 286.024C444.839 286.289 443.6 286.825 442.167 286.851C440.85 286.877 439.321 286.399 438.081 284.635C435.596 281.108 432.821 277.891 429.819 274.997L427.108 276.367C429.839 279.939 432.356 283.511 435.08 286.877C437.249 289.952 439.818 290.701 442.245 290.662C444.523 290.617 446.466 289.751 447.208 289.37C447.35 289.299 447.486 289.222 447.628 289.144L447.712 289.086L447.983 288.892L447.989 288.899L448.067 288.834C450.003 287.374 451.191 285.288 451.546 283.072C451.901 280.863 451.423 278.524 450.029 276.541L449.984 276.483C447.524 272.995 444.833 269.759 441.941 266.781L438.701 268.977C441.47 271.793 444.058 274.849 446.427 278.15L446.395 278.176C446.492 278.285 446.576 278.376 446.627 278.44L446.827 278.712C447.634 279.862 447.912 281.212 447.712 282.478C447.512 283.737 446.853 284.913 445.782 285.759L445.704 285.817ZM311.977 378.76L311.706 378.766L311.435 378.747C310.641 378.644 308.834 378.308 307.195 377.255C305.684 376.279 304.316 374.581 304.245 371.641C304.096 365.77 303.393 360.027 302.179 354.471L300.385 358.205C301.663 363.754 298.558 365.072 298.707 370.957C298.829 376.073 301.431 379.361 304.406 381.622C306.814 383.172 309.215 384.219 311.926 384.199C322.26 384.122 326.191 373.327 330.179 365.698L326.636 358.967C327.824 364.904 320.078 367.501 319.852 371.512L319.8 371.519C319.833 371.719 319.852 371.88 319.859 371.997L319.884 372.455C319.93 374.367 317.961 375.227 316.773 376.512C315.599 377.778 313.959 378.611 312.113 378.754L311.977 378.76ZM312.132 382.888C303.941 381.002 300.404 372.559 296.816 365.698L302.134 357.294H304.18C304.703 361.9 307.291 367.094 307.143 371.512L307.195 371.519C307.162 371.719 307.143 371.88 307.13 371.997L307.111 372.449C307.066 374.367 309.034 375.227 310.222 376.512C310.77 377.1 311.416 377.597 312.132 377.972V382.888Z" fill="white"/>
<path d="M252.188 242.608V247.35C253.582 247.376 255.002 247.447 256.442 247.569C258.217 247.724 260.05 247.957 261.915 248.261C263.832 248.571 265.685 248.945 267.447 249.365C268.576 249.63 269.719 249.934 270.855 250.263L270.861 250.237L274.295 251.329V251.335C275.044 251.574 275.805 251.839 276.528 252.13L279.994 253.48L280.085 253.512C280.537 253.713 281.021 253.932 281.627 254.204C282.125 254.43 282.699 254.694 283.383 255.017L283.377 255.024C284.132 255.373 284.719 255.657 285.087 255.838C285.591 256.09 286.139 256.374 286.733 256.691C286.83 256.749 287.14 256.93 287.456 257.11L287.546 257.169H287.559L287.856 257.343C287.934 257.388 288.024 257.44 288.147 257.498C289.16 258.028 290.277 258.68 291.439 259.417C292.639 260.172 293.898 261.031 295.15 261.936C296.454 262.879 297.719 263.841 298.861 264.772C300.043 265.728 301.133 266.664 302.056 267.53C302.308 267.762 302.657 268.066 303.025 268.389L303.108 268.46V268.454C303.702 268.97 304.335 269.526 305.032 270.204C305.716 270.863 306.349 271.561 306.82 272.271L307.853 273.809L307.44 275.598H307.433C307.31 276.128 307.149 276.554 306.968 276.916L306.994 276.935L306.865 277.116C306.607 277.575 306.31 277.937 306.013 278.298L306 278.305L305.91 278.428C305.226 279.377 304.496 280.449 303.767 281.606C302.973 282.865 302.231 284.093 301.585 285.243H301.592C300.882 286.502 300.217 287.755 299.629 288.944C299.061 290.094 298.539 291.224 298.1 292.29C297.68 293.136 297.099 294.467 296.789 295.378L296.583 295.927C296.125 297.07 295.699 298.233 295.298 299.415C294.898 300.591 294.53 301.773 294.188 302.974C293.853 304.163 293.536 305.39 293.233 306.669C292.936 307.923 292.658 309.221 292.394 310.571C292.2 311.527 292.103 312.154 292 312.793C291.929 313.181 291.871 313.594 291.813 313.988V314.001C291.748 314.395 291.664 314.912 291.587 315.474C291.522 315.939 291.458 316.469 291.393 317.024V317.037C291.348 317.431 291.303 317.851 291.271 318.258V318.265C291.238 318.665 291.213 318.943 291.213 319.066C291.206 319.285 291.2 319.505 291.193 319.679C291.18 319.983 291.167 320.215 291.155 320.332C291.148 320.461 291.129 320.668 291.103 320.952C291.077 321.21 291.051 321.404 291.038 321.482C291.019 321.63 291 321.811 290.987 322.005C290.967 322.354 290.954 322.664 290.948 322.922C290.942 323.168 290.935 323.484 290.935 323.814C290.929 324.621 290.942 323.807 290.942 324.86C290.942 326.656 290.961 328.187 291 329.472C291.045 330.809 291.129 332.147 291.245 333.561C291.355 334.95 291.497 336.261 291.677 337.566C291.852 338.858 292.078 340.286 292.362 341.888C292.665 343.58 293.046 345.337 293.498 347.12V347.127C293.949 348.923 294.472 350.725 295.053 352.501C295.634 354.271 296.26 356.002 296.925 357.65C297.235 358.431 297.564 359.2 297.9 359.956L298.384 359.193C298.358 359.032 298.319 358.864 298.28 358.69L298.113 357.96L300.352 353.309C300.236 352.999 300.133 352.695 300.03 352.404C299.823 351.804 299.61 351.164 299.378 350.486V350.473C298.971 349.239 298.616 348.063 298.313 346.952C297.996 345.77 297.706 344.582 297.454 343.399V343.387C297.202 342.23 296.977 341.029 296.77 339.801C296.576 338.645 296.389 337.418 296.221 336.119C296.15 335.577 296.073 334.924 296.002 334.298C295.924 333.568 295.86 332.889 295.815 332.386C295.776 331.921 295.737 331.371 295.705 330.764C295.686 330.318 295.673 329.886 295.673 329.485C295.673 329.272 295.666 329.033 295.66 328.781L295.621 327.935C295.595 327.386 295.569 326.837 295.569 326.307H295.576C295.576 325.926 295.582 325.616 295.595 325.357C295.608 324.996 295.615 324.776 295.628 324.563L295.634 324.44C295.653 323.949 295.673 323.452 295.673 323.025H295.666V322.883L295.873 319.66C295.892 319.363 295.918 319.053 295.95 318.769L296.054 318H296.047L296.06 317.909H296.066L296.125 317.283H296.112C296.125 317.134 296.144 316.979 296.208 316.437H296.202C296.557 313.594 297.099 310.655 297.829 307.69C298.552 304.744 299.442 301.812 300.488 298.944C301.514 296.127 302.708 293.356 304.051 290.669C305.361 288.052 306.8 285.546 308.369 283.201L310.835 279.519L314.404 282.135C314.791 282.426 315.204 282.891 315.624 283.466C316.018 284.002 316.424 284.635 316.818 285.301L316.825 285.307C317.199 285.94 317.67 286.761 318.115 287.555C318.651 288.518 319.122 289.39 319.29 289.732H319.303L320.362 291.864C321.162 293.466 321.975 295.346 322.763 297.38C323.531 299.357 324.26 301.482 324.919 303.64H324.925C325.551 305.726 326.113 307.845 326.565 309.906C326.984 311.844 327.313 313.736 327.507 315.493L327.991 319.75L327.978 319.757C328.075 320.797 328.133 321.798 328.165 322.793C328.198 323.749 328.204 324.705 328.21 325.7H328.223V327.857C328.223 330.435 328.03 333.18 327.668 336.01C327.307 338.858 326.771 341.765 326.08 344.64C325.622 346.565 325.093 348.464 324.518 350.305L327.52 356.015C329.275 351.397 330.599 346.668 331.496 341.901C332.625 335.9 333.084 329.828 332.89 323.794C332.703 317.722 331.844 311.656 330.34 305.707C328.849 299.816 326.713 294.041 323.957 288.498L323.847 288.272L321.795 284.5C321.491 283.976 321.014 283.162 320.394 282.155C319.949 281.418 319.471 280.656 319.026 279.965C318.664 279.416 318.309 278.886 317.973 278.415C317.702 278.04 317.47 277.73 317.283 277.51L315.159 275.062L316.967 272.368C317.399 271.716 317.948 271.096 318.535 270.508C319.122 269.926 319.665 269.442 320.174 268.99C320.807 268.428 320.271 268.919 320.749 268.486V268.473L321.233 268.034L325.093 264.688L325.132 264.662L325.267 264.546L325.377 264.462L330.934 260.411C332.225 259.552 333.607 258.687 335.039 257.853C336.421 257.052 337.867 256.264 339.351 255.515C340.72 254.824 342.14 254.165 343.592 253.545C344.934 252.976 346.29 252.459 347.632 252.014L347.807 251.956H347.813C349.162 251.51 350.524 251.051 351.434 250.773C352.673 250.386 353.906 250.024 355.12 249.72C355.675 249.578 356.301 249.423 357.037 249.255C357.644 249.113 358.334 248.965 359.135 248.797C359.909 248.642 360.645 248.5 361.316 248.383C362.071 248.254 362.801 248.151 363.472 248.067L363.988 248.002C366.751 247.673 369.526 247.343 372.651 247.343C373.457 247.343 374.426 247.35 375.807 247.376C376.904 247.395 377.956 247.427 378.976 247.472C379.996 247.524 381.035 247.595 382.126 247.699C383.236 247.795 384.32 247.918 385.398 248.073L386.012 248.157C386.457 248.228 385.753 248.125 386.754 248.28C386.98 248.28 387.806 248.448 388.116 248.493C389.4 248.719 390.704 248.978 392.034 249.281C393.344 249.572 394.609 249.895 395.829 250.237C397.081 250.586 398.314 250.967 399.547 251.387C400.76 251.801 401.987 252.259 403.232 252.757L404.633 253.319C405.008 253.474 405.453 253.654 406.014 253.9C406.44 254.074 406.905 254.281 407.441 254.533C407.964 254.772 408.448 255.005 408.887 255.224C410.759 256.141 412.676 257.181 414.541 258.144L414.483 258.202C415.09 258.557 415.625 258.887 416.097 259.184V259.197C416.8 259.643 417.471 260.088 418.117 260.521C418.937 261.083 419.492 261.471 419.918 261.768V261.774C420.673 262.31 421.318 262.795 421.912 263.254C422.674 263.841 423.229 264.287 423.784 264.733L425.269 265.915V265.921C425.636 266.206 425.746 266.316 425.869 266.438L425.895 266.451L425.953 266.509L427.586 267.963L427.579 267.969L427.799 268.163C428.186 268.473 428.535 268.783 428.851 269.093C429.193 269.423 429.483 269.739 429.78 270.049L429.987 270.262L430.355 270.637C430.903 271.18 431.426 271.722 431.93 272.258L432.569 272.943L436.435 270.45L436.467 270.114C436.235 269.927 435.996 269.713 435.764 269.461L435.099 268.751L435.067 268.712C434.867 268.486 434.595 268.202 434.311 267.905L434.318 267.898C434.086 267.659 433.698 267.272 433.208 266.787L433.195 266.774C432.879 266.464 432.562 266.154 432.278 265.889C432.104 265.721 431.968 265.598 431.91 265.547L431.794 265.456L431.136 264.856C430.736 264.481 430.323 264.106 429.819 263.654L429.722 263.551C429.58 263.409 429.464 263.292 429.361 263.202C429.27 263.118 429.09 262.963 428.844 262.75H428.838C428.683 262.614 428.405 262.382 428.063 262.11L423.532 258.577C423.009 258.189 422.532 257.84 422.099 257.537C421.589 257.181 421.099 256.846 420.628 256.529C420.066 256.161 419.55 255.825 419.066 255.521C418.543 255.192 418.039 254.882 417.542 254.585L416.949 254.236H416.955C416.671 254.074 416.819 254.165 416.639 254.055C416.439 253.939 416.716 254.1 416.116 253.732H416.109C415.8 253.558 415.483 253.377 415.167 253.202C415.057 253.138 414.922 253.06 414.767 252.97H414.76C414.354 252.724 413.837 252.466 413.321 252.207L413.205 252.149L413.031 252.059C412.779 251.936 412.527 251.813 412.295 251.691L406.402 248.945C405.84 248.713 404.743 248.28 403.562 247.841C402.555 247.46 401.464 247.059 400.522 246.736C399.824 246.491 399.179 246.277 398.682 246.129H398.676L398.185 245.98L386.844 245.037L402.2 233.778C402.303 233.694 402.38 233.629 402.451 233.571H414.283L414.134 233.758L414.218 233.849L412.727 235.341C412.611 235.457 412.759 235.296 412.682 235.373C412.217 235.974 411.604 236.627 410.946 237.273C410.61 237.608 410.21 237.983 409.81 238.351L409.539 238.603L409.661 238.72L407.899 240.102C407.815 240.173 407.744 240.225 407.686 240.27L407.654 240.302C408.738 240.709 409.526 241.019 409.803 241.135L415.884 243.965L415.987 244.023L416.064 244.068H416.071C416.374 244.23 416.658 244.365 416.942 244.507L416.974 244.52C417.239 244.656 417.51 244.792 417.994 245.044C418.375 245.244 418.756 245.457 419.124 245.677L420.015 246.174L420.453 246.445L420.46 246.439L421.473 247.033L421.48 247.04L421.873 247.272C422.48 247.634 423.068 247.996 423.629 248.351C424.242 248.732 424.804 249.094 425.32 249.436C425.817 249.766 426.385 250.16 427.031 250.612C427.721 251.096 428.276 251.49 428.683 251.794C430.226 252.95 431.749 254.184 433.279 255.373V255.399L433.459 255.547L433.466 255.541C433.556 255.612 433.821 255.838 434.331 256.271C434.589 256.49 434.841 256.71 435.099 256.923V256.949L435.105 256.955C435.383 257.207 435.622 257.433 435.79 257.608L437.106 258.816C437.319 258.977 437.629 259.255 437.984 259.591C438.313 259.895 438.726 260.295 439.159 260.721C439.624 261.18 440.088 261.652 440.482 262.059C440.927 262.517 441.276 262.885 441.457 263.086V263.099C441.631 263.299 441.721 263.396 441.825 263.506H441.831L441.992 263.673C442.27 263.984 442.599 264.332 442.915 264.688L443.49 265.276C445 266.839 446.446 268.447 447.815 270.101C449.17 271.735 450.48 273.447 451.745 275.236L451.739 275.243L451.791 275.301C452.636 276.509 453.211 277.82 453.527 279.17V279.177C453.85 280.572 453.895 282.013 453.669 283.414C452.668 288.55 449.254 291.715 444.129 292.639C441.818 293.059 439.817 292.794 437.655 291.896C436.125 291.185 434.66 290.01 433.343 288.149C431.601 285.998 429.961 283.789 428.296 281.548C425.204 277.381 422.629 274.687 418.517 271.399L418.498 271.386L418.407 271.315C417.284 270.424 416.18 269.539 415.025 268.725C414.438 268.312 413.844 267.898 413.276 267.511C412.624 267.065 412.024 266.664 411.54 266.354C410.952 265.98 410.365 265.618 409.79 265.288C409.242 264.972 408.693 264.675 408.164 264.41L408.022 264.352L405.027 262.801C404.614 262.595 404.239 262.414 403.891 262.252C403.562 262.104 403.155 261.923 402.69 261.723C402.025 261.438 401.625 261.27 401.399 261.18L400.076 260.65C399.011 260.224 397.933 259.823 396.829 259.449C395.739 259.074 394.641 258.738 393.538 258.428C392.382 258.105 391.272 257.821 390.188 257.576C389.136 257.343 387.967 257.11 386.683 256.891L386.547 256.865C386.044 256.781 385.708 256.723 385.463 256.684L385.45 256.671L384.23 256.497C383.184 256.348 382.236 256.238 381.345 256.161C380.441 256.077 379.525 256.012 378.576 255.967C377.64 255.922 376.717 255.896 375.781 255.877C375.174 255.87 374.058 255.864 372.651 255.864C371.314 255.864 370.036 255.941 368.784 256.051C367.461 256.167 366.215 256.316 364.976 256.464L364.473 256.523C363.827 256.6 363.22 256.691 362.646 256.787C361.981 256.897 361.387 257.014 360.832 257.123C360.367 257.22 359.741 257.362 359.031 257.53C358.405 257.672 357.786 257.827 357.185 257.976C354.849 258.564 352.661 259.287 350.543 259.991L350.472 260.017V260.024L350.305 260.082L350.298 260.075C349.233 260.424 348.091 260.863 346.903 261.374C345.664 261.897 344.412 262.485 343.179 263.105C341.875 263.764 340.584 264.468 339.338 265.198C338.028 265.96 336.789 266.729 335.659 267.485L330.515 271.231L326.971 274.3C326.732 274.526 326.545 274.7 326.397 274.842L326.029 275.165L326.139 275.34C326.668 276.154 327.184 276.974 327.642 277.73C328.204 278.654 328.772 279.623 329.192 280.353L329.217 280.398L331.431 284.461L331.535 284.616L331.573 284.7C334.594 290.779 336.937 297.122 338.577 303.62C340.223 310.125 341.158 316.805 341.378 323.523C341.584 330.196 341.081 336.882 339.835 343.483C338.615 349.975 336.685 356.384 334.033 362.591C333.49 363.857 332.961 365.014 332.438 366.105C331.935 367.152 331.405 368.185 330.837 369.238L330.36 370.13C326.571 377.733 322.085 386.273 311.932 386.35C310.305 386.363 308.782 386.06 307.317 385.523C305.903 385.007 304.567 384.29 303.244 383.437L303.108 383.333C301.566 382.164 300.107 380.737 298.945 378.954C298.603 378.547 298.274 378.101 297.951 377.623V377.63C297.499 376.958 296.97 376.131 296.486 375.356C295.841 374.316 295.253 373.334 295.04 372.959L294.969 372.836C293.917 370.853 292.232 368.076 291.413 366.112C290.587 364.445 289.793 362.682 289.057 360.854C288.308 359.006 287.611 357.088 286.972 355.137C286.326 353.154 285.746 351.158 285.249 349.187H285.242C284.745 347.217 284.319 345.253 283.983 343.354C283.699 341.772 283.454 340.241 283.248 338.677C283.035 337.114 282.873 335.667 282.764 334.259V334.252C282.647 332.87 282.563 331.391 282.505 329.763C282.447 328.077 282.421 326.469 282.421 324.86C282.421 324.711 282.428 325.034 282.434 324.04V324.027C282.441 323.665 282.447 323.226 282.46 322.722V322.715C282.48 322.179 282.499 321.688 282.518 321.32C282.551 320.894 282.583 320.519 282.628 320.222L282.654 320.035L282.712 319.208L282.731 318.852C282.744 318.381 282.763 317.961 282.796 317.58C282.834 317.115 282.886 316.598 282.944 316.068C283.002 315.545 283.086 314.938 283.17 314.337C283.261 313.672 283.351 313.077 283.428 312.625H283.435L283.648 311.288C283.79 310.371 283.932 309.492 284.042 308.937C284.332 307.49 284.629 306.088 284.958 304.706C285.287 303.317 285.636 301.967 286.01 300.649C286.385 299.325 286.791 298.013 287.237 296.709C289.141 291.114 291.251 286.315 294.201 281.082H294.195C294.95 279.732 295.763 278.376 296.589 277.065C297.002 276.406 297.422 275.76 297.835 275.146L297.499 274.849C297.067 274.474 296.66 274.119 296.273 273.757C295.447 272.988 294.498 272.168 293.478 271.341C292.426 270.489 291.309 269.636 290.193 268.828C289.166 268.085 288.076 267.349 286.972 266.651C285.984 266.018 285.061 265.476 284.255 265.062C284.042 264.953 283.874 264.862 283.738 264.778C283.461 264.617 283.351 264.552 283.261 264.5L283.235 264.487C283.041 264.378 282.847 264.261 282.705 264.184C282.105 263.861 281.621 263.609 281.227 263.409C280.846 263.221 280.349 262.982 279.769 262.711C279.394 262.537 278.904 262.31 278.342 262.052L276.754 261.342L273.824 260.198H273.798L273.411 260.043C272.94 259.856 272.462 259.688 272.004 259.533C271.816 259.475 271.139 259.255 270.48 259.048L269.241 258.654C268.047 258.299 266.775 257.957 265.446 257.64C263.793 257.246 262.147 256.917 260.553 256.652C259.004 256.4 257.41 256.2 255.783 256.064C254.421 255.948 253.072 255.883 251.73 255.87C250.555 255.864 249.38 255.864 248.199 255.87C246.863 255.883 245.507 255.948 244.146 256.064C242.519 256.2 240.925 256.4 239.376 256.652C237.775 256.917 236.135 257.246 234.483 257.64C233.147 257.963 231.875 258.299 230.681 258.654L229.448 259.048C228.79 259.255 228.112 259.468 227.925 259.533C227.499 259.675 227.034 259.843 226.524 260.043L226.144 260.198H226.105L223.174 261.342L221.587 262.052C221.025 262.31 220.535 262.537 220.154 262.711C219.579 262.982 219.082 263.221 218.701 263.409C218.308 263.609 217.824 263.861 217.223 264.184C216.972 264.326 216.823 264.41 216.688 264.487H216.681L216.675 264.494C216.591 264.546 216.475 264.61 216.191 264.778C216.055 264.862 215.887 264.953 215.674 265.062C214.874 265.476 213.951 266.018 212.957 266.645C211.86 267.343 210.769 268.085 209.736 268.828C208.619 269.636 207.503 270.489 206.451 271.341C205.431 272.168 204.482 272.988 203.656 273.757C203.268 274.119 202.862 274.474 202.436 274.842L202.094 275.146C202.513 275.766 202.933 276.412 203.352 277.077C204.172 278.389 204.979 279.739 205.734 281.082H205.728C208.69 286.334 210.775 291.089 212.692 296.709C213.131 298.013 213.538 299.325 213.919 300.649C214.293 301.967 214.641 303.317 214.971 304.706C215.293 306.088 215.597 307.49 215.881 308.937C215.945 309.26 216.023 309.686 216.1 310.171L216.313 311.501L216.5 312.632C216.578 313.116 216.675 313.723 216.759 314.35C216.843 314.951 216.926 315.552 216.985 316.068V316.075C217.043 316.624 217.101 317.141 217.133 317.586C217.165 317.961 217.185 318.387 217.197 318.852C217.217 319.247 217.249 319.641 217.275 320.035L217.301 320.222C217.346 320.519 217.378 320.894 217.411 321.32C217.43 321.688 217.449 322.179 217.469 322.715V322.722C217.482 323.226 217.488 323.665 217.488 324.027V324.04C217.501 325.034 217.501 324.711 217.501 324.86C217.501 326.469 217.475 328.077 217.417 329.763C217.365 331.391 217.281 332.87 217.165 334.252V334.259C217.049 335.667 216.894 337.114 216.681 338.677C216.468 340.241 216.229 341.772 215.945 343.354C215.61 345.253 215.184 347.217 214.68 349.187C214.183 351.158 213.602 353.154 212.957 355.137C212.318 357.088 211.621 359.006 210.872 360.854C210.136 362.675 209.355 364.426 208.529 366.08L208.522 366.099L204.96 372.836L204.908 372.92C204.721 373.25 204.114 374.277 203.443 375.356C202.952 376.137 202.429 376.958 201.978 377.63C201.655 378.108 201.319 378.56 200.971 378.967C199.815 380.743 198.356 382.164 196.82 383.333L196.685 383.437C195.362 384.29 194.025 385.007 192.612 385.523C191.147 386.06 189.623 386.363 187.997 386.35C177.837 386.273 173.351 377.733 169.562 370.117L169.091 369.238C168.523 368.185 167.994 367.152 167.49 366.105C166.968 365.014 166.438 363.857 165.896 362.591C163.243 356.384 161.313 349.975 160.087 343.483C158.848 336.882 158.344 330.196 158.551 323.523C158.764 316.805 159.706 310.132 161.352 303.62C162.992 297.122 165.335 290.779 168.355 284.7L168.375 284.655L168.484 284.474L170.711 280.398L170.737 280.353C171.15 279.629 171.725 278.654 172.286 277.73C172.745 276.974 173.261 276.154 173.79 275.34L173.9 275.165L173.532 274.842C173.377 274.7 173.196 274.526 172.958 274.3L169.414 271.231L164.27 267.485C163.14 266.735 161.901 265.96 160.591 265.198C159.345 264.468 158.054 263.764 156.75 263.105C155.517 262.485 154.265 261.897 153.026 261.374C151.832 260.863 150.689 260.424 149.624 260.069H149.618L149.456 260.017V260.024L149.392 260.004V259.991C147.268 259.287 145.087 258.564 142.743 257.976C142.143 257.827 141.524 257.672 140.897 257.53C140.181 257.362 139.561 257.22 139.09 257.123C138.542 257.014 137.941 256.897 137.283 256.787C136.708 256.691 136.102 256.6 135.456 256.523L134.946 256.464C133.713 256.316 132.468 256.167 131.145 256.051C129.892 255.941 128.608 255.864 127.278 255.864C125.871 255.864 124.754 255.87 124.148 255.877C123.212 255.896 122.289 255.922 121.353 255.967C120.404 256.012 119.487 256.077 118.584 256.161C117.693 256.238 116.744 256.348 115.692 256.497L114.989 256.6C114.53 256.671 114.601 256.658 114.479 256.671L114.466 256.684C114.227 256.716 113.937 256.768 113.491 256.846L113.252 256.884C111.961 257.11 110.793 257.343 109.741 257.576C108.657 257.821 107.546 258.105 106.391 258.428C105.287 258.738 104.19 259.074 103.099 259.449C101.995 259.823 100.918 260.224 99.8526 260.65L98.5294 261.18C98.3034 261.27 97.9033 261.438 97.2384 261.723C96.7737 261.923 96.3671 262.104 96.0314 262.252C95.6893 262.414 95.315 262.595 94.9019 262.801L91.823 264.397L91.7133 264.436C91.1969 264.694 90.6676 264.978 90.1384 265.288C89.5639 265.618 88.9765 265.98 88.3892 266.354C87.8986 266.664 87.3048 267.065 86.6529 267.511C86.0849 267.898 85.491 268.312 84.9037 268.725C83.7354 269.552 82.6058 270.45 81.4698 271.361L81.4311 271.386C81.0115 271.716 80.5855 272.058 80.0692 272.465L79.4043 273.131H79.3333L79.0816 273.357L77.7003 274.584L77.5519 274.707L77.4744 274.765C77.1452 275.023 76.7257 275.462 76.3061 275.902L76.2674 275.953L76.2609 275.947L75.8801 276.347H75.8737C75.6284 276.606 75.6542 276.58 75.5897 276.645C75.1766 277.064 74.7506 277.497 74.331 277.943C73.3499 279.229 72.485 280.391 71.633 281.548C69.9677 283.789 68.3282 286.005 66.5855 288.149C65.2687 290.01 63.8035 291.185 62.2738 291.896C60.7311 292.613 59.1627 292.839 57.6458 292.813C54.8058 292.762 52.14 291.838 50.0875 290.165C48.1123 288.556 46.7117 286.27 46.2599 283.414C46.034 282.006 46.0791 280.566 46.4019 279.17C46.7181 277.82 47.2926 276.509 48.1382 275.301L48.2221 275.191C49.4678 273.421 50.7716 271.722 52.1142 270.101C53.4826 268.447 54.9284 266.839 56.4388 265.276L57.0068 264.688C57.3295 264.332 57.6587 263.977 57.9492 263.667V263.673L58.1235 263.486L58.4849 263.079V263.086C58.7108 262.827 59.0529 262.466 59.4337 262.065C59.8339 261.658 60.3051 261.18 60.7699 260.721C61.2023 260.295 61.6154 259.895 61.9446 259.591C62.2996 259.255 62.6094 258.977 62.8224 258.809L64.1392 257.608C64.307 257.433 64.5458 257.207 64.8234 256.955L64.8298 256.949V256.923C65.0815 256.716 65.3397 256.471 65.5979 256.271C66.1078 255.838 66.3789 255.612 66.4628 255.541H66.4693L66.65 255.399V255.373L71.2134 251.82L71.2586 251.794C71.8331 251.361 72.3753 250.974 72.8787 250.618C73.4274 250.231 74.0083 249.837 74.6085 249.436C75.1185 249.1 75.68 248.739 76.2868 248.357C76.8483 248.002 77.4421 247.64 78.0553 247.272L78.0618 247.266L78.4426 247.04L78.449 247.033L78.7137 246.878H78.7201L79.4689 246.439V246.445L79.9142 246.174C80.2112 246.013 80.5081 245.845 80.805 245.677C81.1729 245.457 81.5473 245.244 81.9345 245.044C82.4186 244.792 82.6897 244.656 82.9544 244.52L82.9802 244.514C83.2642 244.372 83.5547 244.23 83.858 244.068H83.8645L83.9419 244.023L84.0452 243.965L90.1255 241.135C90.403 241.019 91.1905 240.709 92.2748 240.302L92.2426 240.27C92.178 240.225 92.1135 240.173 92.0231 240.102L91.9005 239.999L90.2675 238.72L90.3836 238.603C89.2734 237.583 88.0471 236.413 87.2467 235.38L85.7234 233.894L85.8202 233.791C85.7621 233.72 85.704 233.649 85.6395 233.571H97.4773C97.5676 233.642 97.6644 233.72 97.7806 233.81L113.085 245.037L101.744 245.98C101.731 245.98 101.55 246.032 101.253 246.122C100.75 246.277 100.104 246.491 99.4072 246.736C98.4584 247.066 97.3675 247.466 96.3542 247.847C95.1794 248.286 94.0886 248.713 93.527 248.945L87.634 251.691V251.684L86.9046 252.065H86.8917L86.6335 252.195C86.0849 252.472 85.5362 252.744 85.1618 252.97C85.0005 253.06 84.8714 253.138 84.7617 253.202L83.8257 253.726V253.732L83.29 254.055C83.1286 254.152 83.2577 254.068 82.9737 254.236H82.9802L82.3864 254.585C81.8894 254.882 81.3859 255.192 80.8631 255.521C80.379 255.825 79.8626 256.161 79.3011 256.529C78.8299 256.846 78.3393 257.181 77.8294 257.537C77.3066 257.905 76.8225 258.254 76.3965 258.57V258.577L71.8589 262.11C71.6588 262.272 71.4071 262.485 71.0843 262.756L70.568 263.202C70.4647 263.292 70.3485 263.409 70.2065 263.551L70.1032 263.654C69.5933 264.113 69.1867 264.487 68.78 264.862L68.1668 265.431L68.0442 265.521C68.0119 265.547 67.8699 265.682 67.6569 265.876C67.3729 266.148 67.0502 266.464 66.721 266.787C66.3531 267.149 65.9594 267.543 65.6173 267.905H65.6108C65.3784 268.137 65.1203 268.421 64.8621 268.712L64.8298 268.751L64.165 269.461C63.9326 269.713 63.6938 269.927 63.4614 270.114L63.4937 270.45L67.36 272.943L67.999 272.258C68.5025 271.722 69.0253 271.18 69.5739 270.631L69.9419 270.262L70.1484 270.043C70.7422 269.423 71.3361 268.796 72.13 268.163L72.3817 267.937L72.3753 267.93L74.0728 266.425C74.1309 266.367 74.189 266.309 74.2923 266.219C74.3762 266.148 74.4924 266.051 74.6602 265.921L74.6537 265.915L76.1448 264.733C76.6998 264.287 77.2614 263.841 78.0166 263.254C78.6879 262.737 79.3527 262.233 80.0111 261.768C80.4371 261.464 80.9986 261.077 81.8119 260.521C82.4574 260.088 83.1286 259.643 83.8257 259.197V259.184C84.3034 258.887 84.8391 258.557 85.4459 258.202L85.3878 258.144L87.3241 257.149C87.492 257.059 87.6598 256.968 87.8212 256.891C88.8862 256.335 89.9641 255.754 91.042 255.224C91.4809 255.005 91.965 254.772 92.4878 254.533C93.0236 254.281 93.4883 254.074 93.9143 253.9C94.4759 253.654 94.9148 253.474 95.2956 253.319L96.6898 252.757C97.942 252.259 99.1684 251.801 100.382 251.387C101.615 250.967 102.848 250.586 104.1 250.237H104.106C105.352 249.888 106.617 249.565 107.895 249.281C109.225 248.978 110.528 248.719 111.813 248.493C112.123 248.448 112.949 248.28 113.175 248.28C114.195 248.118 113.472 248.222 113.911 248.157L114.53 248.073C115.608 247.918 116.693 247.795 117.803 247.699C118.894 247.595 119.933 247.524 120.953 247.472C121.973 247.427 123.025 247.395 124.122 247.376C125.503 247.35 126.471 247.343 127.278 247.343C130.402 247.343 133.178 247.673 135.94 248.002C136.076 248.002 136.308 248.047 136.457 248.067C137.128 248.151 137.851 248.254 138.613 248.383C139.284 248.5 140.02 248.642 140.788 248.797C141.595 248.965 142.285 249.113 142.892 249.255C143.628 249.423 144.254 249.578 144.809 249.72C146.022 250.024 147.262 250.386 148.495 250.773C149.411 251.058 150.773 251.51 152.116 251.956H152.122L152.296 252.014H152.29C153.639 252.459 154.988 252.976 156.337 253.545C157.783 254.165 159.209 254.824 160.578 255.515C162.062 256.264 163.508 257.052 164.889 257.853C166.322 258.687 167.703 259.552 168.994 260.411C170.847 261.807 172.777 263.195 174.668 264.546L174.81 264.662L174.829 264.688L178.696 268.034L178.78 268.111C178.941 268.26 179.064 268.383 179.18 268.486L179.748 268.99H179.754C180.264 269.442 180.806 269.926 181.394 270.508C181.981 271.096 182.53 271.716 182.962 272.368L184.77 275.062L182.646 277.51C182.459 277.73 182.22 278.04 181.955 278.415C181.62 278.88 181.265 279.416 180.903 279.965C180.458 280.656 179.98 281.418 179.528 282.155C178.915 283.162 178.438 283.97 178.134 284.5L176.088 288.259L175.972 288.498C173.216 294.041 171.079 299.816 169.588 305.707C168.084 311.656 167.226 317.722 167.032 323.794C166.845 329.828 167.303 335.9 168.433 341.901C169.479 347.437 171.086 352.908 173.287 358.237L176.74 354.187C176.604 353.832 176.475 353.477 176.353 353.121C175.391 350.421 174.545 347.566 173.848 344.64C173.158 341.765 172.622 338.858 172.254 336.003C171.893 333.18 171.705 330.435 171.705 327.857V325.7H171.718C171.718 324.705 171.731 323.749 171.763 322.793C171.796 321.824 171.847 320.849 171.944 319.834L171.931 319.828L172.422 315.493C172.615 313.736 172.938 311.844 173.364 309.906C173.816 307.845 174.371 305.726 175.004 303.64H175.01C175.662 301.482 176.398 299.363 177.166 297.38C177.953 295.346 178.767 293.466 179.567 291.864H179.574L180.632 289.745C180.781 289.435 181.239 288.582 181.794 287.594C182.246 286.786 182.723 285.947 183.104 285.307L183.111 285.301C183.504 284.635 183.911 283.996 184.298 283.466C184.724 282.891 185.137 282.42 185.525 282.135L189.094 279.513L191.56 283.201C193.128 285.546 194.568 288.052 195.878 290.669C197.22 293.349 198.415 296.127 199.441 298.944C200.486 301.805 201.377 304.744 202.1 307.684C202.83 310.655 203.372 313.594 203.727 316.437L203.772 316.915C203.83 317.444 203.804 317.186 203.817 317.309L203.811 317.315L203.869 317.929L203.882 318.013L203.875 318.019L203.972 318.769C204.011 319.053 204.037 319.363 204.056 319.66L204.262 322.883V323.025H204.256C204.256 323.458 204.275 323.962 204.295 324.46L204.308 324.634C204.333 325.196 204.359 325.764 204.359 326.307C204.359 326.494 204.353 326.83 204.333 327.237C204.321 327.612 204.314 327.825 204.301 328.032C204.288 328.329 204.275 328.626 204.269 328.775C204.262 329.033 204.256 329.272 204.256 329.485C204.256 329.886 204.243 330.325 204.224 330.764C204.191 331.378 204.153 331.921 204.114 332.386C204.069 332.889 204.004 333.568 203.927 334.298C203.856 334.924 203.778 335.577 203.707 336.119C203.54 337.418 203.352 338.645 203.159 339.801C202.952 341.029 202.726 342.23 202.475 343.387C202.216 344.601 201.926 345.79 201.616 346.952C201.306 348.096 200.951 349.271 200.545 350.486C200.319 351.164 200.106 351.804 199.893 352.404C199.699 352.979 199.48 353.58 199.234 354.252C198.983 354.93 198.744 355.544 198.524 356.099C198.35 356.519 198.169 356.952 197.982 357.398L198.311 358.916C198.705 358.024 199.028 357.107 199.241 356.138L199.357 355.621L206.412 347.211L206.431 347.133C206.877 345.363 207.264 343.6 207.567 341.888C207.851 340.286 208.077 338.858 208.251 337.566C208.426 336.261 208.568 334.95 208.684 333.561C208.8 332.147 208.878 330.809 208.923 329.472C208.968 328.187 208.987 326.656 208.987 324.86C208.987 323.736 209 324.699 208.994 323.814C208.994 323.491 208.987 323.174 208.981 322.935V322.922C208.974 322.664 208.961 322.354 208.942 322.005C208.929 321.811 208.91 321.63 208.89 321.482C208.871 321.398 208.852 321.21 208.826 320.952C208.8 320.668 208.781 320.467 208.774 320.332C208.761 320.215 208.748 319.983 208.735 319.686C208.729 319.505 208.723 319.285 208.716 319.066C208.716 318.936 208.69 318.652 208.658 318.265C208.619 317.832 208.581 317.418 208.535 317.037V317.024C208.464 316.437 208.4 315.92 208.342 315.48C208.264 314.912 208.187 314.389 208.116 313.995L207.935 312.851V312.858V312.832C207.832 312.18 207.729 311.547 207.535 310.571C207.27 309.221 206.993 307.923 206.696 306.669C206.392 305.39 206.076 304.163 205.741 302.974C205.398 301.773 205.031 300.591 204.63 299.415C204.23 298.233 203.798 297.07 203.346 295.927V295.92C203.204 295.572 203.178 295.501 203.152 295.43L203.081 295.223L201.829 292.29C201.384 291.218 200.867 290.087 200.293 288.931C199.705 287.749 199.041 286.502 198.337 285.243H198.344C197.692 284.086 196.956 282.852 196.155 281.593C195.426 280.449 194.703 279.377 194.019 278.428L193.929 278.311L193.916 278.298C193.619 277.943 193.328 277.581 193.07 277.123L192.709 276.625L192.799 276.561C192.683 276.283 192.58 275.966 192.496 275.598H192.489L192.076 273.809L193.102 272.271C193.58 271.561 194.213 270.863 194.89 270.204C195.594 269.526 196.226 268.97 196.82 268.454V268.46L196.878 268.408C197.33 268.014 197.75 267.646 197.872 267.536L197.866 267.53C198.828 266.632 199.918 265.695 201.055 264.772C202.158 263.88 203.423 262.918 204.779 261.936C206.031 261.031 207.29 260.172 208.49 259.417C209.646 258.68 210.769 258.028 211.782 257.498C211.905 257.44 211.995 257.388 212.073 257.343L212.802 256.917C212.886 256.865 213.008 256.8 213.189 256.703L213.196 256.691C213.789 256.374 214.332 256.09 214.842 255.838C215.209 255.657 215.797 255.373 216.546 255.024V255.017C217.23 254.694 217.804 254.43 218.301 254.204C218.908 253.932 219.392 253.713 219.844 253.512L219.934 253.48L223.045 252.266L223.4 252.13C224.123 251.839 224.885 251.574 225.634 251.335C226.776 250.961 227.919 250.599 229.061 250.237L229.068 250.263C230.21 249.934 231.352 249.63 232.482 249.365C234.244 248.945 236.097 248.571 238.014 248.261C239.879 247.957 241.712 247.724 243.487 247.569C244.927 247.447 246.347 247.376 247.741 247.35V242.608C247.14 242.628 246.514 242.654 245.83 242.699C244.333 242.789 242.519 242.964 240.053 243.267C238.827 243.422 237.71 243.577 236.678 243.752C235.593 243.926 234.515 244.133 233.45 244.352C232.424 244.566 231.359 244.811 230.255 245.089C229.048 245.392 227.97 245.683 227.009 245.961V245.967C226.234 246.187 225.582 246.387 225.027 246.562C224.388 246.768 223.749 246.982 223.129 247.201V247.208C222.419 247.453 221.767 247.692 221.161 247.918C220.754 248.073 220.36 248.228 219.973 248.377L219.257 248.668C217.746 249.268 216.236 249.927 214.745 250.631C213.247 251.335 211.789 252.072 210.394 252.841C209.013 253.59 207.638 254.404 206.276 255.263C204.979 256.083 203.669 256.968 202.371 257.911C201.668 258.422 201.119 258.822 200.777 259.074C200.28 259.449 199.789 259.817 199.318 260.179C198.841 260.541 198.356 260.928 197.853 261.329C197.382 261.71 196.982 262.033 196.665 262.298L187.177 271.063L184.414 266.936C184.376 266.878 184.253 266.755 184.092 266.6C183.84 266.361 183.569 266.122 183.311 265.896L182.704 265.359V265.353C182.472 265.14 182.259 264.946 182.104 264.785L181.781 264.455L180.348 263.215C180.18 263.047 180.006 262.885 179.832 262.724L179.657 262.575V262.582L179.554 262.498L179.477 262.453L177.282 260.65L176.275 259.856C176.082 259.707 175.752 259.455 175.262 259.081C174.855 258.777 174.5 258.506 174.203 258.293C173.822 258.015 173.487 257.769 173.203 257.576C172.635 257.181 172.015 256.762 171.37 256.329C170.744 255.909 170.066 255.47 169.362 255.024C168.717 254.617 168.052 254.21 167.381 253.822C166.78 253.474 166.174 253.144 165.567 252.841C165.289 252.711 165.076 252.589 164.857 252.466L164.863 252.459L164.728 252.388L164.702 252.382L164.547 252.285C164.47 252.246 164.386 252.201 164.295 252.156L164.283 252.149L161.765 250.883C161.184 250.593 160.571 250.295 159.926 250.005C159.293 249.708 158.661 249.43 158.034 249.165C157.512 248.945 156.879 248.693 156.137 248.403V248.396C155.433 248.125 154.775 247.873 154.155 247.653H154.142L153.884 247.556H153.878L153.852 247.55V247.544C152.774 247.149 149.824 246.077 149.702 246.077L144.293 245.954L145.68 240.748C145.932 239.772 146.229 239.172 146.713 238.655C147.191 238.132 147.597 237.925 148.172 237.667C148.624 237.402 148.998 237.176 149.308 236.969C149.689 236.717 150.063 236.459 150.424 236.194V236.181C150.799 235.916 151.193 235.612 151.599 235.296C152.154 234.87 152.49 234.598 152.755 234.385L153.039 234.153L153.407 233.849L153.645 233.636L153.723 233.571H165.496L165.464 233.61L165.47 233.616C165.231 233.881 165.154 233.978 165.076 234.075L165.025 234.14L165.012 234.159L164.605 234.65L164.592 234.669C164.392 234.902 164.199 235.115 164.005 235.315C163.85 235.483 163.676 235.658 163.508 235.826L163.502 235.839C163.372 235.961 163.243 236.09 163.095 236.245C162.992 236.362 162.901 236.459 162.843 236.53C162.017 237.608 160.829 238.642 159.829 239.521C159.609 239.714 159.39 239.908 159.17 240.108L159.067 240.179L158.874 240.341L159.17 240.457C159.79 240.703 160.507 240.993 161.326 241.342C162.049 241.646 162.753 241.956 163.45 242.279C164.134 242.589 164.831 242.925 165.554 243.287V243.28L168.059 244.533V244.54C168.291 244.656 168.413 244.721 168.484 244.759L169.046 245.076C169.124 245.115 169.04 245.069 169.317 245.205V245.212C170.04 245.567 170.757 245.954 171.454 246.355C172.196 246.781 173.029 247.285 173.887 247.834C174.616 248.293 175.352 248.771 176.069 249.249C176.766 249.714 177.431 250.166 178.024 250.58H178.037C178.438 250.864 178.844 251.155 179.264 251.458C179.651 251.736 180.019 252.014 180.387 252.291V252.298C180.948 252.724 181.316 253.002 181.503 253.151L182.639 254.029L184.26 255.36L184.266 255.353L184.421 255.489C185.557 256.426 186.415 257.22 187.461 258.131L187.558 258.221L188.029 258.699L190.792 256.148L190.908 256.045L190.979 255.986L190.985 255.993C191.618 255.457 192.134 255.03 192.554 254.688C193.057 254.281 193.587 253.868 194.129 253.448C194.697 253.015 195.252 252.595 195.8 252.182C196.504 251.658 197.007 251.29 197.382 251.019C198.757 250.018 200.209 249.042 201.719 248.086C203.21 247.15 204.753 246.245 206.334 245.38C207.942 244.501 209.549 243.681 211.143 242.931C212.77 242.163 214.428 241.439 216.094 240.774L216.494 240.612H216.507C217.088 240.38 217.656 240.16 218.217 239.947C218.889 239.695 219.586 239.437 220.322 239.178C221.057 238.92 221.793 238.674 222.523 238.435C223.336 238.177 224.065 237.951 224.678 237.77C225.776 237.46 226.931 237.15 228.164 236.84C229.332 236.549 230.513 236.278 231.72 236.026C232.94 235.774 234.147 235.548 235.348 235.348C236.613 235.134 237.839 234.954 239.021 234.811C241.596 234.495 243.578 234.308 245.333 234.198C246.992 234.101 248.418 234.081 249.961 234.101C251.51 234.081 252.937 234.101 254.596 234.198C256.351 234.308 258.333 234.495 260.908 234.811C262.089 234.954 263.316 235.134 264.581 235.348C265.775 235.548 266.988 235.774 268.208 236.026C269.415 236.278 270.597 236.549 271.765 236.84C272.998 237.15 274.153 237.46 275.25 237.77C275.864 237.951 276.593 238.177 277.406 238.435C278.136 238.674 278.871 238.92 279.601 239.178C280.337 239.437 281.04 239.695 281.711 239.947C282.273 240.16 282.841 240.38 283.422 240.612H283.435L283.835 240.774C285.5 241.439 287.153 242.163 288.786 242.931C290.38 243.681 291.981 244.501 293.594 245.38C295.176 246.245 296.718 247.15 298.209 248.086C299.72 249.042 301.172 250.018 302.547 251.019C302.928 251.297 303.438 251.671 304.128 252.182H304.135C304.516 252.466 305.058 252.879 305.794 253.448C306.342 253.868 306.865 254.281 307.369 254.688C307.795 255.03 308.311 255.457 308.943 255.993L308.95 255.986L309.021 256.045L309.137 256.148L311.9 258.699L312.351 258.234L312.448 258.144L313.455 257.278L313.404 257.214L315.592 255.424L317.586 253.693V253.803L318.425 253.151C318.935 252.757 319.322 252.459 319.542 252.291C319.903 252.014 320.278 251.736 320.665 251.458C320.962 251.245 321.369 250.954 321.904 250.58C322.498 250.166 323.157 249.714 323.86 249.249C324.577 248.771 325.312 248.293 326.042 247.834C326.9 247.285 327.733 246.781 328.475 246.355C329.179 245.954 329.895 245.567 330.618 245.205L330.883 245.076C331.031 244.998 330.909 245.057 331.031 244.985C331.115 244.94 331.244 244.869 331.444 244.759C331.515 244.721 331.644 244.65 331.864 244.54V244.533L334.375 243.28V243.287C335.091 242.925 335.795 242.589 336.479 242.279C337.169 241.956 337.88 241.646 338.602 241.342C339.422 240.993 340.139 240.703 340.758 240.457L341.055 240.341L340.862 240.179L340.752 240.102L340.126 239.546L340.1 239.521C339.099 238.642 337.912 237.608 337.086 236.53L337.073 236.523C336.944 236.349 336.692 236.103 336.447 235.851H336.44L336.408 235.826V235.819C336.066 235.47 335.717 235.121 335.33 234.663V234.65L334.923 234.159L334.904 234.14L334.865 234.094C334.723 233.92 334.581 233.746 334.471 233.616L334.433 233.571H346.206L346.283 233.636L346.509 233.842L346.89 234.159L347.174 234.385C347.439 234.598 347.774 234.87 348.323 235.296C348.736 235.612 349.13 235.916 349.498 236.181V236.194C349.866 236.459 350.24 236.717 350.621 236.969C350.931 237.176 351.305 237.402 351.757 237.667C352.331 237.925 352.738 238.132 353.216 238.655C353.7 239.172 353.99 239.772 354.255 240.748L355.636 245.954L350.227 246.077C350.105 246.077 347.161 247.149 346.077 247.544L345.786 247.653H345.773C345.225 247.854 344.566 248.099 343.785 248.403C343.043 248.693 342.411 248.952 341.894 249.165C341.268 249.43 340.636 249.708 340.003 250.005C339.358 250.295 338.744 250.593 338.163 250.883L335.64 252.149L335.633 252.156C335.543 252.201 335.459 252.246 335.382 252.285L335.22 252.382L335.201 252.388L335.065 252.459V252.466C334.852 252.589 334.633 252.711 334.362 252.841C333.794 253.125 333.187 253.454 332.548 253.822H332.542C331.941 254.171 331.27 254.585 330.56 255.024C330.031 255.36 329.334 255.818 328.553 256.335C327.907 256.762 327.287 257.181 326.726 257.576C326.326 257.853 325.997 258.086 325.725 258.286V258.293C325.429 258.506 325.074 258.777 324.667 259.081C324.17 259.455 323.854 259.701 323.654 259.856L322.647 260.65L320.446 262.453L320.362 262.511L320.097 262.724C320 262.814 319.865 262.944 319.736 263.06L319.581 263.215L318.148 264.455L317.825 264.785C317.67 264.946 317.457 265.14 317.225 265.353V265.359L316.618 265.896C316.36 266.122 316.089 266.361 315.837 266.6C315.676 266.755 315.553 266.878 315.514 266.936L312.752 271.063L303.263 262.298C302.947 262.033 302.547 261.71 302.076 261.329C301.572 260.928 301.082 260.541 300.611 260.179C300.139 259.817 299.649 259.449 299.152 259.074C298.81 258.822 298.261 258.422 297.557 257.911C296.254 256.968 294.95 256.083 293.652 255.263C292.284 254.404 290.909 253.59 289.534 252.841C288.134 252.072 286.681 251.335 285.184 250.631C283.693 249.927 282.183 249.268 280.672 248.668L279.917 248.364C279.543 248.215 279.155 248.067 278.768 247.918C278.161 247.692 277.509 247.453 276.799 247.208L276.806 247.201C276.18 246.982 275.541 246.768 274.895 246.562H274.902C274.398 246.4 273.746 246.206 272.92 245.967V245.961C271.952 245.683 270.881 245.392 269.674 245.089C268.57 244.811 267.505 244.566 266.479 244.352C265.413 244.133 264.336 243.926 263.245 243.752C262.218 243.577 261.102 243.422 259.875 243.267C257.41 242.964 255.596 242.789 254.099 242.699C253.414 242.654 252.788 242.628 252.188 242.608ZM105.281 233.571H145.88L145.79 233.629H145.764L145.267 233.933L144.744 234.243H144.725L144.641 234.288C144.409 234.424 144.235 234.527 144.105 234.592L143.55 234.895H143.544L142.924 235.205C141.549 235.897 140.155 236.497 138.761 237.014C137.373 237.518 135.927 237.964 134.43 238.326C132.939 238.687 131.461 238.959 130.009 239.139C128.55 239.32 127.091 239.417 125.639 239.417C124.903 239.417 124.141 239.385 123.367 239.333C122.592 239.275 121.876 239.204 121.204 239.12C120.572 239.043 119.901 238.939 119.21 238.823C118.513 238.707 117.906 238.597 117.357 238.487C116.344 238.28 115.195 237.97 113.995 237.576C112.781 237.176 111.529 236.704 110.328 236.187C109.179 235.696 108.011 235.128 106.895 234.514C106.333 234.211 105.791 233.894 105.281 233.571ZM354.048 233.571H394.648C394.138 233.894 393.596 234.211 393.034 234.521C391.911 235.128 390.743 235.696 389.6 236.187C388.4 236.704 387.148 237.176 385.934 237.576C384.734 237.97 383.585 238.28 382.571 238.487C382.023 238.597 381.416 238.707 380.719 238.823C380.028 238.939 379.357 239.043 378.724 239.12C378.053 239.204 377.337 239.275 376.562 239.333C375.787 239.385 375.026 239.417 374.296 239.417C372.838 239.417 371.379 239.32 369.92 239.139C368.468 238.959 366.99 238.687 365.492 238.326C364.001 237.964 362.555 237.525 361.168 237.014C359.774 236.497 358.379 235.897 357.005 235.205L356.385 234.895H356.378L355.817 234.592C355.597 234.476 355.423 234.379 355.288 234.301L354.674 233.939L354.681 233.933L354.164 233.629H354.139L354.048 233.571ZM62.0672 276.58L62.1705 277.368L62.6417 276.748C62.4481 276.696 62.2544 276.638 62.0672 276.58ZM88.6925 233.862H88.6861C88.7054 233.875 88.7313 233.901 88.6925 233.862ZM63.0548 276.199L63.0483 276.218L63.0548 276.212V276.199ZM63.0548 276.199C63.0096 275.857 62.9967 276.05 62.9838 276.309L63.0483 276.218L63.0548 276.199ZM182.233 372.656H188.494L185.525 370.479C184.86 369.994 184.214 369.09 183.73 368.328H183.717L183.091 367.281C182.943 367.036 182.794 366.79 182.51 366.306L182.388 366.092L181.278 364.226H181.323L181.219 364.045H181.239C181.065 363.735 180.884 363.392 180.664 362.947L180.671 362.94L179.606 360.815H179.599C178.676 358.98 177.818 357.004 177.024 354.937L175.765 361.525C175.514 362.856 176.669 363.677 177.87 364.529C179.645 365.782 181.478 367.081 182.052 369.574L182.581 369.639L182.265 371.829C182.22 372.1 182.246 371.919 182.226 372.055L182.213 372.126L182.201 372.526C182.201 372.572 182.213 372.61 182.233 372.656ZM189.391 372.656H190.63C190.65 372.61 190.663 372.572 190.663 372.526L190.65 372.126L190.637 372.061C190.624 371.932 190.643 372.113 190.604 371.829L190.482 371.028L189.391 372.656ZM185.622 381.182H183.853C184.414 381.428 185.002 381.622 185.615 381.764L185.622 381.182ZM56.2323 284.396C56.0386 283.505 55.9547 282.814 55.9289 282.219C55.8966 281.548 55.9353 281.076 55.9676 280.579V280.572C55.9999 280.146 56.0257 279.681 55.9224 278.912L55.9031 278.763L55.1285 279.616C55.0252 279.732 54.9607 279.823 54.8639 279.952C54.6315 280.281 54.4766 280.643 54.3862 281.005C54.2959 281.386 54.283 281.774 54.3411 282.142V282.148C54.3991 282.51 54.5282 282.865 54.7283 283.201C54.9155 283.524 55.1608 283.808 55.4577 284.047V284.041C55.5029 284.08 55.5352 284.106 55.5868 284.131C55.7417 284.209 55.9612 284.306 56.2323 284.396ZM188.003 358.631C188.539 357.591 188.817 357.049 189.01 356.668C189.23 356.235 189.501 355.608 189.772 354.982L189.94 354.607C190.198 354.013 190.437 353.444 190.656 352.895C190.901 352.288 191.108 351.765 191.282 351.3L191.276 351.293C191.547 350.563 191.734 350.04 191.87 349.646C192.024 349.207 192.237 348.567 192.496 347.786C192.812 346.842 193.115 345.835 193.399 344.769C193.683 343.722 193.935 342.676 194.161 341.623C194.393 340.538 194.6 339.446 194.794 338.335C194.994 337.159 195.155 336.061 195.291 335.021C195.336 334.692 195.4 334.162 195.465 333.51C195.51 333.09 195.562 332.483 195.626 331.688C195.684 331.074 195.723 330.583 195.736 330.286C195.762 329.918 195.775 329.647 195.775 329.517C195.775 329.117 195.775 328.775 195.788 328.477C195.8 328.09 195.813 327.844 195.82 327.612L195.826 327.573C195.839 327.192 195.859 326.817 195.859 326.307C195.859 325.751 195.839 325.357 195.826 324.957L195.82 324.854C195.794 324.279 195.768 323.684 195.768 323.142L195.575 320.157V320.125C195.575 320.067 195.555 319.88 195.529 319.666L195.458 319.091L195.445 319.001V318.975C195.355 318.245 195.342 318.142 195.336 318.051V318.045C195.291 317.541 195.368 318.31 195.316 317.735L195.278 317.464C194.955 314.88 194.471 312.264 193.838 309.667C193.199 307.063 192.399 304.434 191.456 301.85C190.721 299.835 189.901 297.865 189.01 295.966C188.694 295.287 188.365 294.616 188.023 293.944L187.171 295.662H187.158C186.461 297.064 185.751 298.698 185.06 300.475C184.369 302.27 183.711 304.182 183.13 306.107C182.581 307.91 182.091 309.777 181.684 311.631C181.31 313.336 181.032 314.964 180.871 316.43L180.529 319.408L180.509 319.492C180.251 321.591 180.206 323.581 180.2 325.7H180.219V327.857C180.219 330.202 180.38 332.612 180.69 335.021C181.013 337.56 181.491 340.137 182.097 342.676C182.71 345.228 183.466 347.779 184.343 350.253C185.189 352.637 186.151 354.924 187.196 357.023L188.003 358.631ZM436.429 276.522C436.3 276.386 436.216 276.289 436.138 276.561C436.048 276.838 436.164 276.729 436.429 276.522ZM309.298 372.656H310.538L309.447 371.028L309.324 371.829C309.286 372.126 309.305 371.926 309.292 372.061L309.279 372.126L309.266 372.526C309.266 372.565 309.279 372.61 309.298 372.656ZM311.428 372.656H317.696C317.715 372.61 317.728 372.572 317.728 372.526L317.715 372.184H317.709L317.696 372.048H317.702C317.689 371.939 317.709 372.113 317.664 371.829L317.347 369.639L318.115 369.548C318.761 367.966 320.039 366.674 321.388 365.317C323.105 363.593 324.983 361.7 324.518 359.387L323.376 353.67C322.459 356.196 321.433 358.606 320.329 360.815H320.323L319.258 362.94L319.264 362.947C319.045 363.392 318.864 363.735 318.69 364.045H318.748C318.303 364.801 317.851 365.55 317.418 366.306C317.134 366.79 316.986 367.036 316.837 367.281L316.211 368.328H316.198C316.089 368.502 315.973 368.683 315.85 368.864C315.424 369.484 314.927 370.098 314.404 370.479L311.428 372.656ZM301.424 366.868L301.908 367.778C301.863 367.145 301.811 366.512 301.753 365.873C301.643 366.196 301.527 366.525 301.424 366.868ZM316.069 381.182H314.294V381.77C314.914 381.628 315.508 381.428 316.069 381.182ZM444 282.219C443.955 282.995 443.864 283.628 443.709 284.396C443.787 284.364 444.432 284.022 444.471 284.041C444.561 284.086 445.129 283.318 445.2 283.201C445.4 282.865 445.53 282.51 445.588 282.142C445.646 281.78 445.633 281.393 445.543 281.005C445.452 280.643 445.297 280.281 445.065 279.952C444.749 279.526 444.381 279.145 444.026 278.75L444.006 278.912C443.903 279.681 443.929 280.139 443.961 280.566V280.579C443.993 281.076 444.026 281.548 444 282.219ZM310.919 356.668C311.183 357.185 311.474 357.772 311.925 358.638L312.726 357.023C313.778 354.924 314.74 352.637 315.585 350.253C316.463 347.779 317.218 345.228 317.831 342.676C318.445 340.137 318.916 337.56 319.239 335.015C319.548 332.605 319.71 330.202 319.71 327.857V325.7H319.729C319.723 323.581 319.677 321.591 319.419 319.492L319.4 319.408L319.058 316.43C318.896 314.964 318.612 313.336 318.245 311.631C317.838 309.777 317.347 307.91 316.799 306.107C316.218 304.182 315.559 302.277 314.869 300.481C314.197 298.75 313.487 297.116 312.765 295.662L312.771 295.656L311.913 293.937C311.564 294.609 311.235 295.287 310.912 295.966C310.028 297.865 309.208 299.835 308.472 301.85C307.523 304.434 306.729 307.063 306.09 309.667C305.451 312.264 304.967 314.88 304.651 317.464L304.599 317.871L304.593 317.993H304.599L304.593 318.045C304.587 318.142 304.574 318.245 304.483 318.975V319.001L304.47 319.091H304.464L304.399 319.666C304.374 319.88 304.354 320.067 304.354 320.125V320.157L304.161 323.148C304.161 323.691 304.135 324.279 304.109 324.86L304.077 325.648C304.07 325.751 304.07 325.939 304.07 326.307C304.07 326.83 304.09 327.218 304.102 327.612C304.115 327.844 304.128 328.096 304.141 328.477C304.154 328.775 304.154 329.117 304.154 329.517C304.154 329.647 304.167 329.918 304.186 330.293C304.206 330.583 304.244 331.074 304.296 331.688C304.367 332.476 304.419 333.09 304.464 333.51C304.528 334.162 304.593 334.692 304.632 335.021C304.774 336.061 304.935 337.159 305.135 338.335C305.329 339.446 305.535 340.538 305.768 341.623C305.994 342.676 306.245 343.722 306.529 344.769C306.82 345.861 307.123 346.868 307.427 347.786C307.691 348.567 307.904 349.207 308.059 349.646C308.195 350.04 308.382 350.57 308.653 351.293L308.647 351.3C308.821 351.765 309.027 352.288 309.266 352.895C309.492 353.444 309.731 354.013 309.989 354.607L310.144 354.956C310.234 355.169 310.338 355.408 310.551 355.873C310.712 356.228 310.841 356.519 310.919 356.668Z" fill="white"/>
<defs>
<linearGradient id="paint0_linear_321_2614" x1="418.632" y1="62.5" x2="93.1604" y2="428.066" gradientUnits="userSpaceOnUse">
<stop stop-color="#1BE22F"/>
<stop offset="1" stop-color="#067E28"/>
</linearGradient>
</defs>
</svg>
