<?xml version="1.0" encoding="utf-8"?>
<svg version="1.1" id="Layer_1" xmlns="http://www.w3.org/2000/svg"
    xmlns:xlink="http://www.w3.org/1999/xlink" x="0px" y="0px" viewBox="0 0 256 256"
    style="enable-background:new 0 0 256 256;" xml:space="preserve">
    <g transform="translate(0.000000,256.000000) scale(0.100000,-0.100000)" fill="#00FF00" stroke="none">
        <path d="M861 1615 c-414 -94 -618 -567 -404 -935 76 -129 212 -236 358 -283
        57 -18 93 -22 190 -22 104 1 130 5 193 27 100 36 173 82 246 154 330 331 199
        886 -246 1041 -92 32 -241 40 -337 18z m79 -114 c0 -27 -4 -31 -56 -46 -108
        -31 -173 -95 -194 -191 -19 -83 11 -158 88 -224 l49 -42 -53 -50 c-67 -63
        -105 -138 -70 -138 8 0 17 11 20 25 7 28 64 95 107 126 l28 20 51 -29 50 -29
        -55 -38 c-31 -21 -60 -46 -66 -57 -15 -27 7 -23 50 10 20 16 53 39 74 51 l37
        23 48 -31 c72 -46 104 -83 100 -117 -7 -59 -113 -98 -206 -74 -48 12 -92 43
        -92 67 0 10 -21 13 -84 13 l-84 0 9 -41 c14 -60 33 -93 80 -132 40 -35 113
        -67 151 -67 13 0 18 -8 18 -30 0 -28 -2 -29 -32 -23 -111 20 -207 71 -287 153
        -203 206 -202 538 3 743 80 80 208 145 309 156 4 1 7 -12 7 -28z m225 2 c145
        -44 274 -170 335 -328 20 -50 24 -78 24 -175 0 -97 -4 -125 -24 -175 -61 -158
        -190 -284 -335 -328 -101 -31 -105 -31 -105 0 0 26 5 29 50 40 65 16 126 57
        164 111 25 35 31 55 34 111 5 84 -15 129 -87 193 l-50 45 40 32 c63 51 120
        151 86 151 -8 0 -20 -15 -26 -32 -12 -35 -105 -128 -127 -128 -16 0 -104 42
        -104 49 0 4 19 18 43 33 23 15 53 39 67 53 39 41 -1 32 -62 -15 -29 -22 -63
        -43 -75 -46 -27 -7 -102 35 -142 82 -27 30 -29 37 -19 65 30 87 252 93 290 8
        13 -28 14 -29 90 -29 77 0 78 0 78 25 0 90 -90 183 -208 214 -37 11 -42 15
        -42 42 0 33 3 33 105 2z"/>
    </g>
</svg>