<svg width="24" height="24" viewBox="0 0 24 24" fill="none" xmlns="http://www.w3.org/2000/svg">
<path d="M12 24C18.6274 24 24 18.6274 24 12C24 5.37258 18.6274 0 12 0C5.37258 0 0 5.37258 0 12C0 18.6274 5.37258 24 12 24Z" fill="#F5F5F5"/>
<path d="M20 7.46273L17.3254 9.04111L11.9762 5.91246C11.9762 5.91246 6.65038 8.96716 6.55524 9.03895L4.00173 7.41603L4 7.41473L11.9762 2.78381L20 7.46273Z" fill="#BBAD7F"/>
<path d="M6.55524 9.03901V18.233L4 16.8241V7.41479L4.00173 7.41609C4.07481 7.46625 6.55524 9.03901 6.55524 9.03901Z" fill="#CEC5A5"/>
<path d="M20 7.46277V16.8241L12 21.3784V18.2939L17.3254 15.2543L17.3375 15.2513L17.3254 9.04115L20 7.46277Z" fill="#C1B48B"/>
<path d="M11.9999 18.2939V21.3784L9.26782 19.8649V16.7375L11.9999 18.2939Z" fill="#CEC5A5"/>
<path d="M11.9999 12.1642V15.2872L9.29504 13.7257V10.6027L11.9999 12.1642Z" fill="#CEC5A5"/>
<path d="M14.7043 10.6027L11.9999 12.1642L9.29504 10.6027L11.9999 9.04114L14.7043 10.6027Z" fill="#BBAD7F"/>
<path d="M14.7044 10.6027V13.7257L12 15.2872V12.1642L14.7044 10.6027Z" fill="#C1B48B"/>
<path d="M23.5 12C23.5 18.3513 18.3513 23.5 12 23.5C5.64873 23.5 0.5 18.3513 0.5 12C0.5 5.64873 5.64873 0.5 12 0.5C18.3513 0.5 23.5 5.64873 23.5 12Z" stroke="black" stroke-opacity="0.097"/>
</svg>
