<svg xmlns="http://www.w3.org/2000/svg" viewBox="0 0 404.76 404.76"><defs><style>.d{fill:#fff;}.e{fill:#2f3d84;}</style></defs><g id="a"/><g id="b"><g id="c"><circle class="e" cx="202.38" cy="202.38" r="202.38"/><g><path class="d" d="M177.62,215.24c.9,.01,1.79,.03,2.67,.05,.43,0,.78-.33,.78-.76v-42.79c0-.41-.32-.74-.73-.76h0c-59.61-2.71-60.52-34.32-60.52-34.32v42.64c0,3.52,.86,6.99,2.53,10.1,4.75,8.86,16.46,24.39,55.28,25.84Z"/><path class="d" d="M227.68,219.69c33.42,6.37,41.56,17.65,43.39,21.39,.26,.52,.99,.57,1.31,.09,2.07-3.07,7.32-11.99,7.3-23.23,.63-26.96-19.22-37.88-51.74-42.93-.46-.07-.88,.29-.88,.75v43.18c0,.37,.26,.68,.62,.75Z"/><path class="d" d="M222.98,271.15V131.12c0-.45,.38-.8,.83-.76,16.81,1.49,36.31,4.94,58.76,11.25,.49,.14,.97-.23,.97-.73v-44.43c0-.33-.21-.62-.51-.72-5.84-2-60.54-19.75-121.97-5.95-28.26,7.53-42.86,20.72-34.4,48.96,0,.02,.01,.04,.02,.06,1.51,4.12,4.8,7.94,6.07,9.32,.28,.3,.74,.33,1.06,.06,2.94-2.52,18.04-14.17,50.51-17.71,.45-.05,.85,.31,.85,.76v141.65c0,.43-.36,.78-.79,.76-1.37-.06-2.77-.13-4.18-.22-35.07-3.32-54.16-19.21-59.07-23.87-.49-.46-1.29-.12-1.29,.55v43.37c0,.22,.09,.43,.26,.57,4.07,3.55,55.66,46.53,135.54,14.1,.03-.01,.05-.02,.08-.04,15.56-8.15,22.65-19.21,25.71-25.99,1.39-3.09,2.14-6.42,2.24-9.8l1.31-47.21s-1.66,37.61-61.09,46.79c-.46,.07-.88-.29-.88-.75Z"/></g></g></g></svg>