<?xml version="1.0" encoding="utf-8"?>
<!-- Generator: Adobe Illustrator 24.0.2, SVG Export Plug-In . SVG Version: 6.00 Build 0)  -->
<svg version="1.1" id="Layer_1" xmlns="http://www.w3.org/2000/svg" xmlns:xlink="http://www.w3.org/1999/xlink" x="0px" y="0px"
	 viewBox="0 0 722.83 779.53" style="enable-background:new 0 0 722.83 779.53;" xml:space="preserve">
<style type="text/css">
	.st0{stroke:#000000;stroke-width:5.535;stroke-linecap:round;stroke-linejoin:round;stroke-miterlimit:10;}
	.st1{fill:#FCEE23;}
	.st2{fill:#231F20;}
</style>
<g>
	<path d="M463.29,246.24l69.33,17.61c0,0,4.67,6.77,5.02,12.54l-47.09,6.38c0,0-14.68-9.44-14.85-10.31S463.29,246.24,463.29,246.24
		z"/>
	<path class="st0" d="M555.32,283.82c-11-12.29-24.46-15.87-40.11-12.42c-4.49,0.99-8.76,2.93-13.21,4.13
		c-8.96,2.41-14.18-0.23-17.58-8.79c-1.23-3.11-2.09-6.37-3.09-9.48c-4.05-2.43-7.86-4.71-11.67-6.99
		c23.32-0.11,44.56,6.96,65.57,16.32c-0.41-3.66-1.27-6.52-2.52-9.2c-7.17-15.37-18.67-26.63-33.59-34.39
		c-19.04-9.89-39.62-13.54-60.78-12.78c-32.83,1.18-63.76,9.97-92.42,26.13c-25.93,14.62-47.66,33.82-62.98,59.66
		c-2.28,3.85-3.95,8.07-6.66,13.72c17.94,0.06,34.14,0.99,49.82,5.83c15.64,4.82,29.94,11.8,43,24.9c-2.84-0.54-3.75-0.54-4.48-0.88
		c-21.16-10.08-43.38-15.29-66.87-15.89c-6.32-0.16-10.74,1.42-14.24,6.32c-4.47,6.26-9.27,12.32-13.27,18.87
		c-16.11,26.38-24.64,55.61-31.36,85.46c-0.5,2.23-0.07,4.66-0.07,8.78c30.34-7.67,59.89-12.53,91.54-6.41
		c-2.77,0.43-4.17,0.71-5.59,0.87c-18.23,2.03-35.47,7.52-52.29,14.61c-6.19,2.61-9.55,6.59-10.61,13.65
		c-2.8,18.74-1.58,37.47-1.15,56.23c0.02,0.69,0.93,1.36,1.73,2.46c2.7-1.95,5.18-3.73,7.64-5.53
		c11.98-8.71,24.18-17.06,38.12-22.39c15.67-5.99,31.93-9.7,48.73-8.62c19.32,1.25,37.13,7.69,54.15,17.08
		c11.54,6.36,23.76,11.73,36.16,16.22c18.99,6.88,38.64,10.17,58.98,7.07c15.81-2.41,31.66-4.54,47.49-6.82
		c23.15-3.33,44.76,0.42,64.32,13.82c3.78,2.59,7.62,5.12,13.42,9.02c0.8-12.01-2.77-20.57-10.05-27.21
		c-4.71-4.29-10.17-8.34-16.03-10.68c-15.97-6.4-32.23-12.13-48.56-17.58c-17.83-5.96-35.86-11.38-51.67-21.96
		c-21.6-14.44-31.32-35.1-30.14-60.68c1-21.63,30.68-60.71,71.69-47.05c11.4,3.8,43.83,19.69,43.83,19.69l-1.56-22.47l-30.65-23.9"
		/>
	<path class="st1" d="M453.53,362.67l-31.92,1.61l2.41-2.68c106.75-86.9,167.7,18.26,167.7,18.26c1.34-1.23,2.18-1.73,2.66-2.46
		c21.53-32.82-8.4-65.51-35.5-95.79c-11-12.29-24.46-15.87-40.11-12.42c-4.49,0.99-8.76,2.93-13.21,4.13
		c-8.96,2.41-14.18-0.23-17.58-8.79c-1.23-3.11-2.09-6.37-3.09-9.48c-4.05-2.43-7.86-4.71-11.67-6.99
		c23.32-0.11,44.56,6.96,65.57,16.32c-0.41-3.66-1.27-6.52-2.52-9.2c-7.17-15.37-18.67-26.63-33.59-34.39
		c-19.04-9.89-39.62-13.54-60.78-12.78c-32.83,1.18-63.76,9.97-92.42,26.13c-25.93,14.62-47.66,33.82-62.98,59.66
		c-2.28,3.85-3.95,8.07-6.66,13.72c17.94,0.06,34.14,0.99,49.82,5.83c15.64,4.82,29.94,11.8,43,24.9c-2.84-0.54-3.75-0.54-4.48-0.88
		c-21.16-10.08-43.38-15.29-66.87-15.89c-6.32-0.16-10.74,1.42-14.24,6.32c-4.47,6.26-9.27,12.32-13.27,18.87
		c-16.11,26.38-24.64,55.61-31.36,85.46c-0.5,2.23-0.07,4.66-0.07,8.78c30.34-7.67,59.89-12.53,91.54-6.41
		c-2.77,0.43-4.17,0.71-5.59,0.87c-18.23,2.03-35.47,7.52-52.29,14.61c-6.19,2.61-9.55,6.59-10.61,13.65
		c-2.8,18.74-1.58,37.47-1.15,56.23c0.02,0.69,0.93,1.36,1.73,2.46c2.7-1.95,5.18-3.73,7.64-5.53
		c11.98-8.71,24.18-17.06,38.12-22.39c15.67-5.99,31.93-9.7,48.73-8.62c19.32,1.25,37.13,7.69,54.15,17.08
		c11.54,6.36,23.76,11.73,36.16,16.22c14.97,5.42,30.35,8.6,46.16,8.19C372,455.83,453.53,362.67,453.53,362.67z"/>
	<g>
		<path class="st1" d="M433.99,683.28c-79.27,0-153.8-30.87-209.85-86.92c-27.26-27.26-48.63-58.86-63.5-93.93l-0.44-0.38
			l-0.13-0.32c-12.02-30.42-18.85-62.58-20.33-95.61l-41.38,15.63l-9.2-24.34l50.61-19.12c0.48-10.24,1.51-20.56,3.04-30.72
			l-44.45,16.79l-9.2-24.34l59.82-22.6c13.18-50.69,39.91-97.25,77.36-134.69c56.05-56.05,130.58-86.92,209.85-86.92
			c67.95,0,131.78,22.26,184.59,64.37l1.14,0.91l-21.71,24.35l-1.02-0.8c-46.75-36.79-103.11-56.24-163-56.24
			c-70.57,0-136.91,27.48-186.81,77.38c-27.86,27.86-48.64,60.5-61.8,97.07l47.72-18.02l9.2,24.34l-66.02,24.94
			c-2.32,10.31-4.03,20.89-5.1,31.5l61.93-23.39l9.2,24.34L172,393.92c0.16,32.01,5.92,63.19,17.15,92.7
			c0.5,0.91,0.96,1.86,1.37,2.82c13.24,31.3,32.3,59.52,56.66,83.87c49.9,49.9,116.24,77.38,186.81,77.38
			c56.97,0,111.11-17.75,156.56-51.33l1.23-0.91l0.78,1.31c3.68,6.13,8.83,14.78,15.33,25.72l0.65,1.09l-1.02,0.74
			C556.93,663.93,496.93,683.28,433.99,683.28z"/>
		<path class="st2" d="M436.19,97.18c67.57,0,131.67,22.55,183.73,64.07l-19.87,22.28C553.48,146.88,496.36,127,436.19,127
			c-70.94,0-137.63,27.62-187.79,77.79c-28.79,28.79-50.14,63.04-63.12,100.4l49.21-18.59l8.22,21.75l-65.42,24.71
			c-2.58,11.34-4.42,22.89-5.51,34.61l62.71-23.69l8.22,21.75l-72.09,27.23c0.05,32.55,5.85,64.24,17.28,94.24
			c0.5,0.9,0.95,1.83,1.35,2.78c13.31,31.46,32.47,59.83,56.95,84.31c50.16,50.16,116.85,77.79,187.79,77.79
			c57.42,0,112.05-18.1,157.39-51.6c4.31,7.18,10.01,16.76,15.33,25.72c-49.96,36.16-109.83,55.7-172.71,55.7
			c-78.9,0-153.08-30.73-208.87-86.52c-27.37-27.37-48.69-59.17-63.33-93.78c-0.15-0.13-0.29-0.26-0.43-0.38
			c-12.1-30.64-19.02-63.36-20.31-97.08l-41.88,15.82l-8.22-21.75l50.16-18.95c0.5-11.41,1.66-22.7,3.43-33.83l-45.38,17.14
			l-8.22-21.75l59.2-22.36c13-50.54,39.31-96.88,77.18-134.75C283.11,127.91,357.29,97.18,436.19,97.18 M436.19,94.41
			c-79.64,0-154.52,31.01-210.83,87.33c-37.45,37.45-64.24,83.97-77.54,134.63l-57.86,21.86l-2.59,0.98l0.98,2.59l8.22,21.75
			l0.98,2.59l2.59-0.98l40.96-15.47c-1.31,9.15-2.21,18.42-2.67,27.62l-48.46,18.31l-2.59,0.98l0.98,2.59l8.22,21.75l0.98,2.59
			l2.59-0.98l38.31-14.47c1.66,32.52,8.49,64.18,20.33,94.15l0.25,0.63l0.46,0.39c14.94,35.12,36.36,66.76,63.67,94.08
			c56.31,56.32,131.19,87.33,210.83,87.33c63.23,0,123.52-19.44,174.33-56.22l2.05-1.48l-1.29-2.17
			c-6.45-10.86-11.6-19.51-15.33-25.73l-1.57-2.61l-2.45,1.81c-45.21,33.4-99.07,51.06-155.74,51.06
			c-70.2,0-136.2-27.34-185.83-76.98c-24.23-24.23-43.19-52.3-56.36-83.43c-0.41-0.98-0.88-1.94-1.38-2.86
			c-11.03-29.03-16.75-59.69-17.02-91.17l70.29-26.55l2.59-0.98l-0.98-2.59L237.07,343l-0.98-2.59l-2.59,0.98l-58.53,22.11
			c1.05-9.56,2.61-19.08,4.68-28.38l64.03-24.19l2.59-0.98l-0.98-2.59l-8.22-21.75l-0.98-2.59l-2.59,0.98l-43.59,16.47
			c13.14-35.23,33.45-66.74,60.44-93.73c49.64-49.64,115.64-76.98,185.83-76.98c59.57,0,115.64,19.34,162.14,55.94l2.04,1.61
			l1.73-1.94l19.87-22.28l1.95-2.18l-2.29-1.82c-26.21-20.9-55.43-37.07-86.86-48.05C503.23,100.01,470.06,94.41,436.19,94.41
			L436.19,94.41z"/>
	</g>
</g>
</svg>
