<svg width="24" height="24" viewBox="0 0 24 24" fill="none" xmlns="http://www.w3.org/2000/svg">
<path d="M12 24C18.6274 24 24 18.6274 24 12C24 5.37258 18.6274 0 12 0C5.37258 0 0 5.37258 0 12C0 18.6274 5.37258 24 12 24Z" fill="black"/>
<path d="M23.5 12C23.5 18.3513 18.3513 23.5 12 23.5C5.64873 23.5 0.5 18.3513 0.5 12C0.5 5.64873 5.64873 0.5 12 0.5C18.3513 0.5 23.5 5.64873 23.5 12Z" stroke="white" stroke-opacity="0.397"/>
<path d="M13.2626 11.4138C13.2626 12.8953 12.8515 14.0301 12.0292 14.8181C11.2109 15.606 10.0275 16 8.47874 16H6V7H8.74817C10.1771 7 11.2868 7.38782 12.0771 8.16347C12.8674 8.93912 13.2626 10.0226 13.2626 11.4138ZM11.3347 11.4631C11.3347 9.5301 10.5044 8.56361 8.84396 8.56361H7.85606V14.4241H8.65237C10.4406 14.4241 11.3347 13.4371 11.3347 11.4631Z" fill="white"/>
<path d="M14.9714 12.9871L13.1239 10.1008H14.8996L16.0132 11.9793L17.1371 10.1008H18.9128L17.0447 12.9871L19 16H17.2192L16.0132 13.9791L14.8021 16H13.0264L14.9714 12.9871Z" fill="white"/>
</svg>
