<svg width="192" height="192" viewBox="0 0 192 192" fill="none" xmlns="http://www.w3.org/2000/svg">
<path d="M191 43.6631V148.327C190.99 159.64 186.492 170.486 178.493 178.486C170.495 186.486 159.65 190.987 148.337 191H43.6731C32.3589 190.989 21.5112 186.49 13.5109 178.489C5.51052 170.489 1.01105 159.641 1 148.327V43.6631C1.01314 32.3504 5.51358 21.505 13.5138 13.5067C21.514 5.50838 32.3604 1.01049 43.6731 1H148.337C159.648 1.01258 170.492 5.51144 178.49 13.5096C186.489 21.5077 190.987 32.352 191 43.6631V43.6631Z" fill="#252727" stroke="url(#paint0_linear_712_2772)" stroke-width="0.75" stroke-miterlimit="10"/>
<path d="M136.892 81.7885C136.893 82.5123 136.741 83.2283 136.446 83.8891L135.818 84.938L91.4799 159.049C90.8998 160.018 90.0178 160.771 88.9691 161.191C87.9204 161.611 86.7628 161.676 85.6737 161.375C84.5847 161.075 83.6242 160.425 82.9396 159.526C82.255 158.628 81.884 157.529 81.8835 156.399C81.8831 156.137 81.9031 155.874 81.9432 155.615L81.8835 155.592L87.5686 106.715H60.2801C59.343 106.714 58.4237 106.459 57.6205 105.976C56.8173 105.494 56.1605 104.802 55.7204 103.974C55.2804 103.147 55.0736 102.216 55.1222 101.28C55.1708 100.344 55.473 99.439 55.9964 98.6618L96.6902 33.1584L97.0256 32.6211C97.0314 32.6063 97.0401 32.5927 97.0512 32.5813C97.6889 31.6944 98.5915 31.0326 99.6292 30.6911C100.667 30.3496 101.786 30.3461 102.826 30.681C103.866 31.0159 104.772 31.6721 105.416 32.555C106.059 33.4379 106.406 34.502 106.406 35.5944L106.38 36.1231L106.377 36.1374L104.339 76.6236H131.73C132.408 76.6236 133.08 76.7573 133.706 77.0169C134.333 77.2765 134.902 77.657 135.381 78.1366C135.86 78.6162 136.241 79.1856 136.5 79.8122C136.759 80.4388 136.893 81.1104 136.892 81.7885Z" fill="url(#paint1_linear_712_2772)" stroke="url(#paint2_linear_712_2772)" stroke-width="0.75" stroke-miterlimit="10"/>
<defs>
<linearGradient id="paint0_linear_712_2772" x1="96" y1="1" x2="96" y2="191" gradientUnits="userSpaceOnUse">
<stop stop-color="#373737"/>
<stop offset="1" stop-color="#303030"/>
</linearGradient>
<linearGradient id="paint1_linear_712_2772" x1="96.0037" y1="30.4324" x2="96.0037" y2="161.561" gradientUnits="userSpaceOnUse">
<stop stop-color="#3480F6"/>
<stop offset="1" stop-color="#4CBDFE"/>
</linearGradient>
<linearGradient id="paint2_linear_712_2772" x1="117.376" y1="122.125" x2="33.4588" y2="42.1666" gradientUnits="userSpaceOnUse">
<stop/>
<stop offset="0.71815" stop-color="#585858" stop-opacity="0"/>
</linearGradient>
</defs>
</svg>