<svg width="24" height="24" viewBox="0 0 24 24" fill="none" xmlns="http://www.w3.org/2000/svg">
<path d="M12 24C18.6274 24 24 18.6274 24 12C24 5.37258 18.6274 0 12 0C5.37258 0 0 5.37258 0 12C0 18.6274 5.37258 24 12 24Z" fill="#080B27"/>
<path d="M23.5 12C23.5 18.3513 18.3513 23.5 12 23.5C5.64873 23.5 0.5 18.3513 0.5 12C0.5 5.64873 5.64873 0.5 12 0.5C18.3513 0.5 23.5 5.64873 23.5 12Z" stroke="white" stroke-opacity="0.3"/>
<path d="M9.51791 6.92627V14.5785H13.5253V16.8065H7.05475V6.92627H9.51791Z" fill="white"/>
<path d="M14.7379 16.8065V9.15421H10.7258V6.92627H17.201V16.8065H14.7379Z" fill="#CD3731"/>
<path d="M21 11.9356C21 16.9353 16.9642 21 12 21C7.03579 21 3 16.9353 3 11.9356C3 7.46064 6.23526 3.72992 10.4747 3V4.50278C7.05 5.21839 4.46842 8.27644 4.46842 11.9356C4.46842 16.1195 7.84579 19.5211 12 19.5211C16.1542 19.5211 19.5316 16.1195 19.5316 11.9356C19.5316 8.27644 16.95 5.21839 13.5205 4.50278V3C17.7647 3.72992 21 7.46064 21 11.9356Z" fill="white"/>
</svg>
