<svg width="24" height="24" viewBox="0 0 24 24" fill="none" xmlns="http://www.w3.org/2000/svg">
<path d="M12 24C18.6274 24 24 18.6274 24 12C24 5.37258 18.6274 0 12 0C5.37258 0 0 5.37258 0 12C0 18.6274 5.37258 24 12 24Z" fill="#007AFF"/>
<path d="M23.5 12C23.5 18.3513 18.3513 23.5 12 23.5C5.64873 23.5 0.5 18.3513 0.5 12C0.5 5.64873 5.64873 0.5 12 0.5C18.3513 0.5 23.5 5.64873 23.5 12Z" stroke="black" stroke-opacity="0.097"/>
<path fill-rule="evenodd" clip-rule="evenodd" d="M16.4651 6.54932L15.545 7.08234V7.78732L16.4651 7.25402L18.3742 8.3521V10.5491L13.9435 13.0982V14.1395L14.5559 14.4921V13.4508L18.9866 10.9012V7.99975L16.4651 6.54932Z" fill="white"/>
<path fill-rule="evenodd" clip-rule="evenodd" d="M13.9434 18.1966L12.0343 19.295L10.1252 18.1966V13.6402C10.1252 13.3061 9.9442 12.9939 9.65294 12.8265L9.20407 12.5728L8.58603 12.9288L9.34843 13.3561C9.44966 13.4143 9.51281 13.5233 9.51281 13.6402V18.5492L12.0343 20L14.5561 18.5492V17.4784L13.9434 17.1258V18.1966Z" fill="white"/>
<path fill-rule="evenodd" clip-rule="evenodd" d="M5.69459 15.6475V13.4511L7.60286 12.353L7.60427 12.3539L10.1252 10.9015V9.85312L9.51282 9.50049V10.5491L5.08218 13.0985V16.0002L7.6037 17.4509L8.5319 16.9075V16.2028L7.6037 16.7459L5.69459 15.6475Z" fill="white"/>
<path fill-rule="evenodd" clip-rule="evenodd" d="M10.1252 5.80306L12.0343 4.7047L13.9434 5.80306V10.9015L14.8714 11.4205L15.4871 11.0661L14.5561 10.5491V5.45043L12.0343 4L9.51282 5.45043V6.50215L10.1252 6.85478V5.80306Z" fill="white"/>
<path fill-rule="evenodd" clip-rule="evenodd" d="M6.60821 11.0667L5.69468 10.5489V8.35217L7.60351 7.25409L12.0344 9.80316L12.9544 9.2575V8.55251L12.0344 9.09818L7.60351 6.54883L5.08228 7.99982V10.9012L5.99299 11.4205L6.60821 11.0667Z" fill="white"/>
<path fill-rule="evenodd" clip-rule="evenodd" d="M18.9867 14.1831V13.1027L18.0824 12.5728L17.4633 12.929L18.374 13.4553V14.1831V15.6473L16.4652 16.7456L12.0345 14.1965L11.1227 14.7304V15.4354L12.0345 14.9015L16.4652 17.4506L18.9709 16.0089L18.9867 16.0041V15.9999V14.1831Z" fill="white"/>
</svg>
