<svg width="24" height="24" viewBox="0 0 24 24" fill="none" xmlns="http://www.w3.org/2000/svg">
<path d="M12 24C18.6274 24 24 18.6274 24 12C24 5.37258 18.6274 0 12 0C5.37258 0 0 5.37258 0 12C0 18.6274 5.37258 24 12 24Z" fill="url(#paint0_linear)"/>
<path d="M10.5713 13.5647C10.6381 13.3184 10.6944 13.07 10.7738 12.8278C10.9804 12.1995 10.9825 11.5587 10.9136 10.9116C10.9094 10.8761 10.8927 10.8385 10.876 10.8051C10.5337 10.0975 10.1893 9.38983 9.84694 8.68219C9.83232 8.65297 9.81771 8.62166 9.79266 8.56738C9.84067 8.59869 9.8699 8.61748 9.89495 8.63627C10.3563 8.96399 10.8155 9.29381 11.2789 9.61736C11.3248 9.64867 11.3937 9.66119 11.4522 9.66119C12.0095 9.64867 12.4896 9.8261 12.8633 10.2498C13.1242 10.5483 13.2557 10.9074 13.3329 11.2894C13.3392 11.3228 13.3434 11.3583 13.3496 11.3917C13.3496 11.3938 13.3475 11.3958 13.3455 11.3979C13.2682 11.3061 13.1952 11.2101 13.1117 11.1224C12.976 10.9825 12.8027 10.9136 12.6107 10.8969C12.5543 10.8928 12.5188 10.9011 12.523 10.9721C12.5439 11.6067 12.5606 12.2433 12.7568 12.8549C12.8319 13.0908 12.9509 13.3121 13.0511 13.5396C13.0637 13.5688 13.0887 13.596 13.1096 13.6231C13.1221 13.6148 13.1284 13.6106 13.1304 13.6064C13.2974 13.2369 13.4686 12.8716 13.6293 12.5001C13.6732 12.3999 13.7337 12.3373 13.8339 12.3143C14.0301 12.2684 14.2243 12.2225 14.4226 12.1911C15.8504 11.9678 17.1299 11.3938 18.2697 10.5149C18.6809 10.1977 19.0629 9.84071 19.4553 9.49837C19.4929 9.46497 19.52 9.41696 19.5514 9.37522C19.566 9.38148 19.5785 9.38774 19.5931 9.394C19.6056 9.561 19.6265 9.7259 19.6286 9.8929C19.6536 10.9909 19.3176 11.9678 18.6308 12.8215C18.0255 13.573 17.2635 14.1283 16.4244 14.5833C15.3494 15.1678 14.2034 15.5582 13.024 15.8567C12.88 15.8921 12.7359 15.9297 12.5919 15.9673C12.5856 15.9694 12.5835 15.9777 12.5648 15.9965C12.5877 16.0383 12.6086 16.0925 12.6441 16.1364C12.905 16.4432 13.1659 16.7501 13.4331 17.0507C13.6293 17.2719 13.836 17.4828 14.0447 17.7061C13.7567 18.1173 13.4686 18.5286 13.1701 18.9544C12.738 18.0464 12.3143 17.1509 11.8759 16.2303C11.4334 17.1509 11.0034 18.0485 10.565 18.9607C10.2602 18.5202 9.96592 18.0923 9.67577 17.6706C10.1538 17.0903 10.6255 16.5163 11.0952 15.9422C11.089 15.9297 11.0848 15.9193 11.0785 15.9068C10.9533 15.8775 10.828 15.8441 10.7028 15.817C9.49207 15.5498 8.3085 15.197 7.20008 14.6293C6.41939 14.2285 5.7034 13.74 5.11892 13.0741C4.51566 12.3811 4.13992 11.5858 4.03346 10.6673C3.98754 10.2749 3.98754 9.88663 4.04181 9.47541C4.0773 9.51507 4.10235 9.54012 4.1274 9.56726C4.84338 10.3459 5.64495 11.0118 6.61978 11.4501C7.25436 11.7361 7.92233 11.9156 8.60074 12.0617C9.02449 12.1536 9.44824 12.2433 9.87198 12.3268C9.94504 12.3414 9.97427 12.3769 10.0035 12.4375C10.1538 12.7715 10.3062 13.1054 10.4606 13.4394C10.4836 13.4874 10.5149 13.5292 10.542 13.5751C10.5504 13.5709 10.5608 13.5668 10.5713 13.5647Z" fill="white"/>
<path d="M17.99 5.91211C18.349 6.196 18.6371 6.51746 18.8312 6.91198C19.3384 7.93273 19.2132 8.9013 18.541 9.80098C18.0735 10.4272 17.4347 10.8322 16.7313 11.1453C16.0654 11.4417 15.3661 11.6191 14.6522 11.7444C14.623 11.7506 14.5916 11.7485 14.5708 11.7506C14.7753 11.5294 14.9945 11.3185 15.1824 11.0806C15.3786 10.8343 15.5414 10.5629 15.7209 10.304C15.7523 10.2581 15.7961 10.2164 15.842 10.183C16.1447 9.97632 16.4641 9.79054 16.7521 9.56301C17.2531 9.1664 17.5224 8.61741 17.6894 8.01414C17.8313 7.5069 17.9023 6.98504 17.944 6.45901C17.9587 6.28367 17.9733 6.10833 17.99 5.91211Z" fill="white"/>
<path d="M15.007 4.00781C15.3118 4.19777 15.627 4.3752 15.9213 4.57977C16.4286 4.93045 16.8648 5.35629 17.1842 5.88858C17.7123 6.76738 17.6622 7.64201 17.0381 8.45611C16.7208 8.87151 16.0737 9.40589 15.6082 9.63968C15.6019 9.62924 15.5936 9.62089 15.5873 9.60837C15.4412 9.31821 15.2972 9.02598 15.1427 8.74C15.1051 8.66903 15.1072 8.62937 15.1594 8.57092C15.2909 8.42271 15.4245 8.27659 15.5393 8.11586C15.7627 7.80692 15.8629 7.45415 15.8796 7.07424C15.9088 6.38539 15.723 5.74246 15.4683 5.11623C15.3327 4.78225 15.1698 4.46078 15.0195 4.13306C15.0049 4.10175 14.9903 4.07252 14.9757 4.0433C14.9882 4.03286 14.9966 4.02034 15.007 4.00781Z" fill="white"/>
<path d="M9.97217 20.7347C10.6026 19.4301 11.233 18.1255 11.8759 16.7979C12.5084 18.1255 13.1304 19.4322 13.7525 20.7389C13.7483 20.7431 13.7421 20.7473 13.7379 20.7514C13.6001 20.6679 13.4623 20.5865 13.3246 20.503C12.8653 20.2254 12.404 19.9499 11.9448 19.6701C11.8822 19.6326 11.8383 19.6347 11.7778 19.6722C11.21 20.0187 10.6381 20.3611 10.0682 20.7034C10.0411 20.7201 10.0139 20.7347 9.98887 20.7514C9.9826 20.7452 9.97634 20.7389 9.97217 20.7347Z" fill="white"/>
<path d="M11.3875 20.2283C11.5419 20.1343 11.6901 20.0446 11.8383 19.959C11.8592 19.9465 11.8989 19.9527 11.9218 19.9652C12.0659 20.0487 12.2078 20.1343 12.3623 20.2283C12.2015 20.4829 12.0429 20.7355 11.8759 21.0006C11.7068 20.7355 11.5482 20.485 11.3875 20.2283Z" fill="white"/>
<path d="M9.00779 11.7587C8.84288 11.7274 8.67797 11.7003 8.51307 11.6648C7.71567 11.4978 6.9475 11.2494 6.23987 10.834C5.61155 10.4645 5.08135 9.99693 4.74318 9.33939C4.23385 8.35204 4.37997 7.19561 5.11892 6.36272C5.23999 6.22495 5.37776 6.1018 5.50927 5.97446C5.52806 5.95568 5.5531 5.94315 5.59068 5.91602C5.60111 6.05796 5.60946 6.18529 5.6199 6.31471C5.66791 6.90128 5.74097 7.48576 5.89962 8.05562C6.1188 8.84676 6.56342 9.46672 7.26688 9.89673C7.44431 10.0053 7.64888 10.0867 7.79291 10.2265C7.93903 10.3685 8.02044 10.571 8.13733 10.7421C8.37112 11.0803 8.63414 11.3934 8.94516 11.6648C8.97021 11.6877 8.99944 11.7044 9.02449 11.7253C9.02031 11.7378 9.01405 11.7483 9.00779 11.7587Z" fill="white"/>
<path d="M8.60699 4C8.42538 4.40705 8.25212 4.77652 8.09557 5.15226C7.90561 5.61149 7.76784 6.08742 7.71148 6.58214C7.63425 7.27308 7.7741 7.8993 8.27509 8.4149C8.34815 8.49004 8.45252 8.56728 8.46295 8.65286C8.47339 8.73219 8.37528 8.82403 8.32936 8.9117C8.2062 9.15176 8.08513 9.39181 7.95362 9.65274C7.71357 9.48157 7.46308 9.31666 7.22511 9.13297C6.92035 8.89918 6.65107 8.6299 6.43607 8.30844C5.90586 7.52148 5.91004 6.71782 6.38179 5.90999C6.74918 5.28168 7.27939 4.81201 7.88474 4.42166C8.11018 4.27971 8.35232 4.15029 8.60699 4Z" fill="white"/>
<path d="M23.5 12C23.5 18.3513 18.3513 23.5 12 23.5C5.64873 23.5 0.5 18.3513 0.5 12C0.5 5.64873 5.64873 0.5 12 0.5C18.3513 0.5 23.5 5.64873 23.5 12Z" stroke="white" stroke-opacity="0.3"/>
<defs>
<linearGradient id="paint0_linear" x1="9" y1="0.5" x2="18" y2="22" gradientUnits="userSpaceOnUse">
<stop stop-color="#0F0B2F"/>
<stop offset="1" stop-color="#3C378D"/>
</linearGradient>
</defs>
</svg>
