<?xml version="1.0" encoding="UTF-8"?>
<svg id="Layer_1" data-name="Layer 1" xmlns="http://www.w3.org/2000/svg" viewBox="0 0 584.85 567.12">
  <defs>
    <style>
      .cls-1 {
        fill: #fcfcfd;
      }

      .cls-2 {
        fill: #7e02f5;
      }

      .cls-3 {
        fill: #fff;
      }

      .cls-4 {
        fill: #7d02f2;
      }

      .cls-5 {
        fill: #7d02f3;
      }

      .cls-6 {
        fill: #7d02f4;
      }

      .cls-7 {
        fill: #fdfdfe;
      }

      .cls-8 {
        fill: #130719;
      }

      .cls-9 {
        fill: #7c02f0;
      }

      .cls-10 {
        fill: #fefefe;
      }
    </style>
  </defs>
  <ellipse class="cls-8" cx="292.42" cy="283.56" rx="292.42" ry="283.56"/>
  <path class="cls-10" d="M466.89,248.13c3.21,15.31,4.26,30.52,3.35,45.87-1.16,19.78-5.4,38.86-12.93,57.18-7.38,17.98-17.29,34.42-30.25,48.96-3.97,4.46-8.14,8.75-12.48,13.4-19.23-37.97-38.21-75.44-57.27-113.06,9.42-6.23,17.02-13.92,22.62-24.72-10.55,3.25-20.27,6.25-30,9.25-1.91-1.72-2.02-3.32-.86-5.49,4.8-8.91,9.35-17.95,14.21-26.83,.79-1.44,2.46-2.72,4.02-3.37,15.56-6.46,30.69-13.71,44.16-24,13.2-10.08,23.19-22.76,30.52-38.25,12.23,18.94,20.5,39.07,24.91,61.08Z"/>
  <path class="cls-6" d="M213.15,219.3c3.59,6.98,7.06,13.76,10.84,21.13-54.18,10.86-87.93,42.8-101.32,96.33-6.85-19.56-9.25-39.7-8.28-60.2,2.43-51.45,23.36-94.05,62.13-128.59,12.36,24.08,24.44,47.61,36.63,71.34Z"/>
  <path class="cls-10" d="M333.97,413.48c5.8,12.69,11.52,25.16,17.47,38.14-3.93,1.21-7.7,2.45-11.52,3.52-15.31,4.29-30.96,6.35-46.82,6.37-13.23,.02-26.49-1.01-39.24-4.66-3.81-1.09-6.88-4.89-10.12-7.66-.38-.32,.21-2.07,.64-3.01,14.83-32.14,29.7-64.26,44.56-96.38,1.91-4.12,3.78-8.26,5.78-12.33,.44-.89,1.37-1.53,2.07-2.29,.79,.8,1.88,1.45,2.32,2.41,11.63,25.2,23.18,50.44,34.83,75.89Z"/>
  <path class="cls-6" d="M261.68,107.97c11.67-.91,23.07-2.37,34.48-2.42,12.98-.06,26.03,.94,38.42,5.32,4.41,1.56,8.43,4.27,12.51,6.66,1.67,.98,2.36,2.36,1.34,4.65-7.82,17.56-15.41,35.21-23.22,52.77-.62,1.4-2.19,2.86-3.63,3.35-14.38,4.81-28.82,9.45-43.28,14.01-.76,.24-2.47-.42-2.77-1.09-11.53-25.86-22.94-51.77-34.37-77.67-.04-.08,.02-.2,.11-.98,6.57-1.47,13.36-3,20.41-4.59Z"/>
  <path class="cls-1" d="M168.09,401.13c-6.53-9.79-11.84-19.94-13.98-31.37-3.75-20.07,.72-38.52,11.76-55.51,7.52-11.57,18.3-19.4,30.16-25.9,12.92-7.08,26.55-12.4,40.87-15.99,2.53-.63,3.39,.21,4.81,2.2,3.57,5.02,3.26,9.41,.09,14.57-3.6,5.87-6.44,12.23-9.39,18.47-1.02,2.16-2.46,3.33-4.61,4.14-13.02,4.88-24.26,12.4-32.89,23.37-9.2,11.69-13.7,25.25-14.87,40.01-.69,8.63,0,17.16,1.86,25.54,.78,3.5,.7,6.39-1.23,9.35-.99,1.53-1.68,3.25-2.81,5.47-3.42-5.05-6.52-9.62-9.76-14.37Z"/>
  <path class="cls-2" d="M332,386.87c-10.59-22.84-21.05-45.49-31.7-68.58,13.81-3.84,27.37-7.61,41.07-11.42,5.69,11.4,11.38,22.88,17.14,34.33,7,13.9,14.08,27.75,21.1,41.64,2.64,5.23,.78,8.22-5.07,8.22-11.79,0-23.59,0-35.38,0-3.11,0-5.53-1.19-7.16-4.19Z"/>
  <path class="cls-7" d="M273.96,204.06c2.99,5.85,5.74,11.67,8.43,17.51,1.15,2.51,2.2,5.06,3.46,7.96-3.81,.47-7.39,.81-10.94,1.36-9.59,1.49-19.17,3.02-28.73,4.66-1.8,.31-2.67,0-3.54-1.72-8.81-17.33-17.75-34.6-26.62-51.9-2.76-5.39-.61-8.86,5.47-8.88,10.15-.03,20.3,.01,30.45-.01,6.07-.01,10.46,2.25,12.68,8.31,1.62,4.41,3.77,8.61,5.81,13.2-12.8,3.52-25.31,6.96-37.83,10.4v.59c13.7-.5,27.4-1,41.36-1.48Z"/>
  <path class="cls-5" d="M227.8,363.07c11.7-18.38,28.08-30.31,48.36-37.12,4.86-1.63,9.74-3.2,15.39-5.05-.61,1.62-.89,2.53-1.28,3.38-9.03,19.56-18.15,39.08-27.09,58.68-2.56,5.61-6.28,8.42-12.72,8.2-10.31-.35-20.65-.09-31.38-.09,.22-10.27,3.85-19.21,8.72-27.99Z"/>
  <path class="cls-4" d="M254.84,305.17c-.28-.69-.62-1.56-.34-2.11,3.46-7.03,6.96-14.04,10.57-21,.9-1.73,.97-3.14,0-4.85-1.53-2.66-2.84-5.46-4.48-8.64,26.35-1.33,52.12-4.08,77.95-10.74-3.61,6.95-6.82,13.29-10.21,19.54-.89,1.64-1.01,2.89-.05,4.52,1.4,2.39,2.53,4.95,3.95,7.81-25.88,5.18-51.51,10.31-77.37,15.46Z"/>
  <path class="cls-3" d="M371.11,186.47c2.15-1.06,4.09-2,6.69-3.24-4.83,9.27-9.36,17.97-13.91,26.67-.37,.71-1.05,1.33-1.21,2.07-1.3,5.97-6.01,7.32-11.03,8.19-10.9,1.89-21.8,3.78-32.71,5.57-3.27,.54-6.6,.74-10.25,1.14,1.85-4.37,3.63-8.7,5.5-12.99,2.03-4.67,4-9.37,6.29-13.9,.53-1.05,2.23-1.92,3.5-2.11,15.59-2.29,30.92-5.65,45.83-10.77,.37-.13,.72-.33,1.29-.63Z"/>
  <path class="cls-9" d="M398.02,185.94c5.55-10.63,11.01-21.05,16.57-31.68,2.65,1.8,4.79,3.54,5.12,6.95,1.35,14.23-3.28,26.05-14.57,34.81-5.28,4.1-11.27,7.27-16.94,10.86-.22-.27-.45-.53-.67-.8,3.47-6.64,6.93-13.28,10.5-20.13Z"/>
  <path class="cls-4" d="M297.52,201.61c5.67-.71,11.07-1.36,16.95-2.07-1.06,2.5-1.93,4.57-2.82,6.62-2.77,6.35-5.63,12.66-8.27,19.06-.83,2.03-2.05,2.94-4.12,3-.72,.02-1.44,.1-2.16,.14q-5.12,.31-7.29-4.6c-2.92-6.61-5.85-13.21-9.01-20.35,5.73-.61,11.09-1.18,16.72-1.8Z"/>
</svg>