<svg version="1.0" xmlns="http://www.w3.org/2000/svg"
 width="1250.000000pt" height="1250.000000pt" viewBox="0 0 1250.000000 1250.000000"
 preserveAspectRatio="xMidYMid meet">
<g transform="translate(0.000000,1250.000000) scale(0.100000,-0.100000)"
fill="#000000" stroke="none">
<path d="M0 6250 l0 -6250 6250 0 6250 0 0 6250 0 6250 -6250 0 -6250 0 0
-6250z m6351 2945 c15 -11 37 -35 50 -54 22 -32 24 -48 30 -210 4 -97 7 -637
8 -1201 l1 -1025 773 770 c424 424 811 808 858 853 l87 82 56 0 c63 0 98 -14
137 -57 74 -79 77 -140 12 -231 -26 -36 -403 -425 -845 -871 l-799 -806 1193
-5 c908 -4 1198 -8 1214 -17 66 -38 111 -131 99 -204 -8 -48 -57 -116 -93
-130 -52 -21 -406 -28 -1412 -29 l-1015 0 853 -853 852 -852 0 -63 c0 -96 -35
-154 -113 -187 -48 -20 -100 -19 -145 2 -23 11 -351 331 -868 845 -457 455
-833 828 -836 828 -2 0 -8 -541 -11 -1202 l-6 -1201 -28 -30 c-99 -103 -256
-88 -315 30 l-23 48 -3 1184 -4 1184 -771 -769 c-425 -424 -811 -807 -859
-853 l-88 -83 -63 4 c-75 4 -115 29 -158 96 -38 60 -38 104 0 164 47 73 258
291 980 1013 375 374 681 683 681 687 0 3 -537 8 -1193 10 -1111 3 -1195 4
-1219 20 -136 89 -112 307 37 339 34 8 423 13 1219 16 l1169 5 -769 771 c-423
425 -807 811 -852 858 -82 86 -82 87 -82 140 0 74 30 132 86 165 57 34 112 41
152 20 68 -35 187 -149 945 -905 l787 -785 0 944 c0 520 3 1064 7 1209 6 263
6 263 32 294 46 55 78 68 156 65 51 -2 77 -9 96 -23z"/>
</g>
</svg>
