<svg xmlns="http://www.w3.org/2000/svg" xmlns:xlink="http://www.w3.org/1999/xlink" viewBox="0 0 123.34 128.1"><defs><clipPath id="a" transform="translate(-3.78 0.09)"><path d="M24.2,112.2c0,1.3.1,3.5.9,4.6,0,0,.2.1.2.2,1.4-1.2,2.4-4.9,4.5-7.2,0,1.9-1.7,1.2-2.5,6.7-.3,1.8.4,3.6.9,5.5.1.4.4,1.5.9,1.8.5-4.8.5-6.3,2.1-10.9a21.16,21.16,0,0,1,2.9-4.8c-.1.6-.5,1.1-.6,1.9-.2,1.1-1,5.9-.6,6.6.1-.2.2-.8.3-1.1l.3-1.2c.3-.7.6-1.4.8-2,1.8-5.2,5.8-9.6,6.3-11.1a4.7,4.7,0,0,0,.9-1.2c.3-.5.5-.7.7-1.1-.7,1.5-.9,1-1.2,3.8a23.63,23.63,0,0,0-.2,4.6c.2-.3.4-1.7.6-2.2.4-1.4,2.2-5.1,3-5.5a19.42,19.42,0,0,0,.2,3.5,8.15,8.15,0,0,0,.9,2.5,6.8,6.8,0,0,1,.2-1.5c.4-1.6.7-.9.8-4,.1,1.5,0,4.2.7,5.1.1-1.1.6-1.4.5-2.6-.1-.7-.3-2.1.1-2.7.1.2.3,3.1.4,3.7a4.79,4.79,0,0,0,1.5,2.7,13,13,0,0,1-.2-3.5c.1-1.4.5-2.4.5-3l-3-2.4a45.81,45.81,0,0,0-10.3-5.9c-4.7-1.9-11-4.2-16.1-4.7-.4,0-.4.6-.5,1l-1.2,5.6a7.69,7.69,0,0,0-.3,3c0,.8.2.8.5,1.2a2.3,2.3,0,0,0,1.4-.4c.7-.3.4-.3.2.8a10.54,10.54,0,0,0-.3,3c.2,1.5-.8,4.8,1,3.8.4-.2.6-.6,1.1-.7-.1.3-1.5,9.6.1,9.3.1-.7,1-1.1,1.6-1.2" fill="none"/></clipPath><linearGradient id="b" x1="30.66" y1="-929.8" x2="48.75" y2="-906.32" gradientTransform="matrix(1, 0, 0, -1, -3.78, -819.91)" gradientUnits="userSpaceOnUse"><stop offset="0" stop-color="#f34402"/><stop offset="1" stop-color="#ffec00"/></linearGradient><clipPath id="c" transform="translate(-3.78 0.09)"><path d="M54.4,51.7c-1.4-.3-.8,0-1.5-1.2-.2-.4-.4-.5-.5-.8,1.2.1,1.5,1.3,2.3,1.3a8.64,8.64,0,0,0-2.1-2.9,4,4,0,0,0-2.2-1.4l-.8-.4c.7-.5,2.8.4,3.6,1l.4.3c.4.3.6.6,1,.9a7.54,7.54,0,0,0-1.9-2.6,4.17,4.17,0,0,0-.8-.6c-.2-.1-.2-.1-.3-.3a5.08,5.08,0,0,1,2.6,1.9c0-.4-.4-.7-.8-1.1a9,9,0,0,0-1-.9,2.74,2.74,0,0,0-2.9-.4,9.7,9.7,0,0,1,2.8,1.6c.4.3.1,0,.3.4-.5-.1-.6-.3-1.1-.4-.3-.1-.9-.2-1.2-.3a12,12,0,0,0-2.7.1l-.3.1c1.4.1,4.4,1.3,5.3,2.5a6.08,6.08,0,0,1,1,1.4c-.8-.2-1.2-1.2-2.3-1.1,0,.6.6.8.7,1.4a16.65,16.65,0,0,1-1.2-1.3c-.2-.2-.4-.3-.7-.6-.1-.2-.1-.3-.5-.3-.1,1.1.6.6.3,2.2v.2a18,18,0,0,1-3.8-1.6c-1.5-.7-2.6-1.1-3.2-2.2-.4-.7-1.6-3-1.5-3.9a1.49,1.49,0,0,1,.4-.9c.7-.7.6-1.2,1.3-1.4s.4.2.8-.5c.6.2,1.8,2,2.1,3,.2.5.2,1,.5,1.3.1-.2,0,.1.1-.3a4.86,4.86,0,0,0-1-3.9c-1.6-2.4-.7-2-.2-3.8a4.33,4.33,0,0,1-.5.1c-.7-.2-.3-1.7-.2-2.2-.8,0-.9,1-1.2,1.5-2.5.3,0-3.6.1-4.4-.8.1-.5.6-1.5,2.3A2.17,2.17,0,0,1,41,32c0-.7,1.7-4.2,2.9-4.6a5.34,5.34,0,0,1,4.3-.1,8.65,8.65,0,0,1,1.7.7l1.2.7a.76.76,0,0,0,.4.2,8.29,8.29,0,0,1,2.4,2.2,11.32,11.32,0,0,1,1,1.3c1.3,2.5,2.5,4.9,3.9,7.3a64.06,64.06,0,0,0,3.9,5.2c1,1.4,4,4.5,4.2,4.8a15.38,15.38,0,0,1-1.3,1.2,6.37,6.37,0,0,0-1.1,1.3,48.89,48.89,0,0,1-10.1-.5" fill="none"/></clipPath><linearGradient id="d" x1="66.92" y1="-868.92" x2="36.64" y2="-847.08" gradientTransform="matrix(1, 0, 0, -1, -3.78, -819.91)" gradientUnits="userSpaceOnUse"><stop offset="0" stop-color="#e2000f"/><stop offset="1" stop-color="#ffec00"/></linearGradient><clipPath id="e" transform="translate(-3.78 0.09)"><path d="M67.4,107.7c.2.1.9.7,1.3.9s.9.6,1.4.8a7.38,7.38,0,0,0,4.6.7c1.2-.4,2.7-1.4,2.8-2.7-2.7,0-3.7-1.1-4.9-1.3a10.93,10.93,0,0,1-.8,1.5c-.2.2-.8,1.1-.7,1.3-.1-.4,1-2,1.2-3.1-1.4-.7-2.3-2.7-2.8-3.1a10.09,10.09,0,0,0-1.5,2.1,8.87,8.87,0,0,0-1.4,2.5,1.51,1.51,0,0,1,.8.4m-4.8-5,3.1,3.3c1.1,1.5,1.1.3,2.3-1.7s1.7-2.3,1.2-3.3A12.27,12.27,0,0,0,67,98.3a13.68,13.68,0,0,0-2.2,1.9l-2.2,2ZM80.3,88.1v-.6h0a18.43,18.43,0,0,1-3-.8c-4.4-1.1-8.9.5-12.4,3.1a22.37,22.37,0,0,0-3.6,3.1,16.59,16.59,0,0,0-3,3.4c.4.4.8.7,1.3,1.2a25.13,25.13,0,0,1,2.6,4.6c.4,0,.7-.4.9-.7a6,6,0,0,1,.8-.8c1.1-1.1,2.3-1.8,2.5-2.4.2-.4-.1-.7-.6-1.2a13.39,13.39,0,0,1-.6-1.2c-.6-1.2-1.6-4.7-.2-5.6.4-.2.7-.4,1.1-.6,2.6-1.5,3.7-1.7,7.3-1.4,1.2.1,2.2.1,3.3.3a5,5,0,0,0,3-.1C80,88.2,80.3,88.4,80.3,88.1Z" fill="none"/></clipPath><linearGradient id="f" x1="60.61" y1="-931.78" x2="73.29" y2="-911.81" gradientTransform="matrix(1, 0, 0, -1, -3.78, -819.91)" gradientUnits="userSpaceOnUse"><stop offset="0" stop-color="#ffec00"/><stop offset="1" stop-color="#e74c0a"/></linearGradient><clipPath id="g" transform="translate(-3.78 0.09)"><path d="M80.6,88.2c.2.2.9.1,2,.4,1.3.3,2.1,1.2,3.8,2a17.41,17.41,0,0,0,6.2,1.7c2.3,0,4.2-.1,5.8-1.3a12.43,12.43,0,0,0,2.5-3.5c1.8-3.1,3-7.3-.6-11.7-2.6-8.5.5-8.7-9.2-10.7a2.1,2.1,0,0,0-1.1-.4,9.29,9.29,0,0,1-1.3-.4,64.85,64.85,0,0,0-7.6-1.9l-5.7-1.7a25.71,25.71,0,0,0,1,7c-1.1.3-2.8.4-3.9.6A40.87,40.87,0,0,0,65.4,70c-.9.3-2.9.7-3.2,1.4.8.6,2.2.7,2.1,2.1-.2.5-5.9,2.5-6.5,2.8l-4.7,2.3a5.65,5.65,0,0,0-1.4.9l.3-.1h.2l4-1.2a75.74,75.74,0,0,1,9.7-2c1.3-.2,4-.5,4.7-1.1-.2-.8-2.2-1.7-2.9-2.2-.5-.3-.6-.5-.7-1.2a2.75,2.75,0,0,1,1.5-.8,30.88,30.88,0,0,1,6-.8c.7,0,1.3-.2,2.1-.2s.9.4,1.2,1c1.3,2.3.8,1.1,2.5,2l-1.1-.1c0,.7,1.7,2.2,2.3,2.6s1,.7,1.5,1,1.2.4,1.6.9c-.4,1.3-3.2,1.9-4,7l-.3,1.5v1.6c0,.1-.1.8,0,.8l.5.1" fill="none"/></clipPath><linearGradient id="h" x1="74.13" y1="-885.43" x2="84.15" y2="-915.1" xlink:href="#b"/><clipPath id="i" transform="translate(-3.78 0.09)"><path d="M54,102.8c1.4-.4,1-1,1.6-1,0,.4-.4.9-.2,1.3.9-1,1.5-2,3.8-1.8a7.58,7.58,0,0,0,1.6.3c0-.4-2.1-4.4-3.2-4.7-.4.6-3.4,4.9-3.6,5.9" fill="none"/></clipPath><linearGradient id="j" x1="56.94" y1="-920.92" x2="59.63" y2="-916.29" xlink:href="#b"/><clipPath id="k" transform="translate(-3.78 0.09)"><path d="M51.1,106.2c.3-.5,0-1.7.1-2.4a4.18,4.18,0,0,1,.4-1c.3-.6.2-.6.8-.6a7.67,7.67,0,0,0-.7,2.7,2.91,2.91,0,0,0,1.4-2.4c-.7-.5-1.4-1.7-2.3-2a2.84,2.84,0,0,0-.4,1.2c-.2,1.3,0,3.7.7,4.5" fill="none"/></clipPath><linearGradient id="l" x1="51.14" y1="-923.78" x2="53.86" y2="-921.74" xlink:href="#b"/><clipPath id="m" transform="translate(-3.78 0.09)"><path d="M89.2,69.8c.3-.1.6-.1.9-.2s.3,0,.5.3a4.14,4.14,0,0,1,.5,1.9,9.82,9.82,0,0,1-.3,3.4,4.14,4.14,0,0,1-.9,2,1.39,1.39,0,0,1-1,.5,2,2,0,0,1-.8-.1.78.78,0,0,1-.4-.4,1.43,1.43,0,0,1,.2-.7A9.91,9.91,0,0,0,89,74.8a7.94,7.94,0,0,0,.6-2.2,2.88,2.88,0,0,0-.1-1.3,4.05,4.05,0,0,0-.5-.9.76.76,0,0,1-.2-.5.1.1,0,0,1,.1-.1c.1.1.2,0,.3,0" fill="none"/></clipPath><linearGradient id="n" x1="89.56" y1="-890.48" x2="89.38" y2="-895.65" gradientTransform="matrix(1, 0, 0, -1, -3.78, -819.91)" gradientUnits="userSpaceOnUse"><stop offset="0" stop-color="#a9bba3"/><stop offset="1" stop-color="#6d906e"/></linearGradient><clipPath id="o" transform="translate(-3.78 0.09)"><path d="M80.6,89.3a29,29,0,0,1,.6,4.1,15.36,15.36,0,0,1-.2,4.8,22.43,22.43,0,0,1-1.2,3.5c-.2.6,0,.5.1.6s.1.3,0,.6a3.55,3.55,0,0,1-.4.9,1.45,1.45,0,0,0-.2.7c0,.2.1.5.1.9a1.93,1.93,0,0,1-.3,1,1.46,1.46,0,0,1-.9.6,2.85,2.85,0,0,1-1.6.2,9.82,9.82,0,0,1-3.2-1.3,11.84,11.84,0,0,1-3-2.9,7.45,7.45,0,0,1-1.1-2.4,4.81,4.81,0,0,0-.8-1.6,23.53,23.53,0,0,0-1.6-2.1,10.71,10.71,0,0,1-1.5-2.2,9,9,0,0,1-.8-2.8,1.43,1.43,0,0,1,.6-1.5A16.44,16.44,0,0,1,67.4,89a7.54,7.54,0,0,1,2.4-.8,16.17,16.17,0,0,1,3.8-.2c1.5,0,3.3.2,4.3.2h2.3c.2.1.3.2.4,1.1" fill="none"/></clipPath><linearGradient id="p" x1="72.58" y1="-915.48" x2="74.66" y2="-927.75" gradientTransform="matrix(1, 0, 0, -1, -3.78, -819.91)" gradientUnits="userSpaceOnUse"><stop offset="0" stop-color="#1a1a18"/><stop offset="1" stop-color="#e74c0a"/></linearGradient><clipPath id="q" transform="translate(-3.78 0.09)"><path d="M102.2,82.9a2.77,2.77,0,0,0-.9-.1,7.72,7.72,0,0,0-1.5.2,1,1,0,0,0-.8.6,1.78,1.78,0,0,0,.4,1,2,2,0,0,0,.8.4c.2,0,.3.1.5.1s.2.1.1.2-.1.2-.2.3l-.2.2h-.3c-.1,0-.4-.1-.4,0a2.07,2.07,0,0,0,.2.6,1.27,1.27,0,0,1,.1.6c0,.2,0,.3.1.2a4.68,4.68,0,0,0,.5-.6c.3-.4.9-.8,1.3-1.3a3.1,3.1,0,0,0,.6-1.3,1.39,1.39,0,0,0,0-.9.37.37,0,0,0-.3-.2" fill="none"/></clipPath><linearGradient id="r" x1="100.33" y1="-905.77" x2="102.51" y2="-902.66" gradientTransform="matrix(1, 0, 0, -1, -3.78, -819.91)" gradientUnits="userSpaceOnUse"><stop offset="0" stop-color="#f34402"/><stop offset="1" stop-color="#ee7f1a"/></linearGradient></defs><path d="M77.1,100,100,76.8H50.9V28L28,51.2V100Z" transform="translate(-3.78 0.09)" fill="#fff" opacity="0.5" style="isolation:isolate"/><path d="M50.9,28,28,51.2H77.1V100L100,76.8V28Z" transform="translate(-3.78 0.09)" fill="#fff"/><path d="M67,106.6a12.23,12.23,0,0,1,1.2-1.9,15.94,15.94,0,0,1,1.5-2.1c.5.4,1.3,2.4,2.8,3.1-.1,1.1-1.2,2.7-1.2,3.1-.1-.2.5-1,.7-1.3a5.3,5.3,0,0,0,.8-1.5c1.2.1,2.1,1.3,4.9,1.3-.1,1.4-1.6,2.4-2.8,2.7a6.67,6.67,0,0,1-4.6-.7Zm-.3-.1c-.3.1-.1.5-1.1-.5l-3.1-3.3v-.4l2.2-2a13.68,13.68,0,0,1,2.2-1.9,16,16,0,0,1,2.2,2.7c.5,1-.1,1.3-1.2,3.3a8.78,8.78,0,0,0-1.2,2.1Zm3.4,2.9c-.5-.3-1-.6-1.4-.8a10.14,10.14,0,0,0-1.3-.9,1.76,1.76,0,0,0-.5-.4ZM20.5,86.7a73,73,0,0,1,8.1,1.8,76.41,76.41,0,0,1,8,2.9,45.81,45.81,0,0,1,10.3,5.9l3,2.4a22.58,22.58,0,0,0-.5,3,12.69,12.69,0,0,0,.2,3.5,4.79,4.79,0,0,1-1.5-2.7c-.1-.6-.3-3.5-.4-3.7-.4.6-.2,2-.1,2.7.1,1.1-.4,1.5-.5,2.6-.6-.9-.6-3.6-.7-5.1-.1,3.1-.4,2.4-.8,4-.1.5-.1.9-.2,1.5a8.15,8.15,0,0,1-.9-2.5,19.42,19.42,0,0,1-.2-3.5c-.9.4-2.7,4.1-3,5.5a21.78,21.78,0,0,1-.6,2.2,23.63,23.63,0,0,1,.2-4.6c.3-2.9.6-2.3,1.2-3.8-.2.4-.5.7-.7,1.1a3.78,3.78,0,0,1-.9,1.2c-.5,1.6-4.5,5.9-6.3,11.1-.2.6-.5,1.3-.8,2a5.27,5.27,0,0,0-.3,1.2c-.1.3-.2.9-.3,1.1-.4-.8.4-5.5.6-6.6.2-.8.5-1.3.6-1.9-.6.4-2.6,4.1-2.9,4.8-1.6,4.6-1.6,6.1-2.1,10.9-1-.9-1.9-6.6-1.7-7.3.8-5.4,2.5-4.7,2.5-6.7a30,30,0,0,0-4.1,6.7c-.5.4-.4.5-.8-.1-.7-1.2-.2-3.8-.7-4.2,0,2.3-.4,3.3.6,5.3.1.2.8.8.8.4a4.35,4.35,0,0,1,.8-1.5c.2.4,0,.9,0,1.6a24.35,24.35,0,0,0,1.5,5.9,33.86,33.86,0,0,1,1.5,4.1c1,0,.8-9.7,1.7-12.2a6,6,0,0,1,.6-1.9,29.54,29.54,0,0,0,.7,7.4v-.1c.3-1.2,1.3-5.9,1.6-6.9,1.4-4.3,2.9-6.6,5.3-10.3l.6-.7a41,41,0,0,0,.3,7c.4-.1.3,0,.4-.5a19,19,0,0,1,2.8-8.4,19.15,19.15,0,0,0,1.6,4.8c.3.4,1.1,1.5,1.6,1.5a11.66,11.66,0,0,1-1-2.6c-.1-.4-.1-1.2.3-.8a6.63,6.63,0,0,0,1.9,2.9c.1-.5-.8-1.5-.4-3.2l.2.5v.1c.8,2.2,2.7,4.4,4.5,4.4-1.3-2.5-.7-2.7.7-4.4a3.92,3.92,0,0,1,1-.8c.2-.2.1,0,.4-.3a6,6,0,0,0,.1,2.3c.1.2-.1.2.5.3a3.73,3.73,0,0,1,1.4-3.2c2.1-1.4,3-.6,4.3-.3l.6.4c-.3.5-.9.7-1.1,1.4a7.55,7.55,0,0,0,1.4-1.1,57.62,57.62,0,0,1,4,4.3c.1.2.2.1,0,.5-.5.9-1,1.7-1.5,2.6a2.57,2.57,0,0,0-.5,1.2c.3-.2.3-.3.5-.7V111c.7-1.1,1.4-2.1,2.1-3.2.3,1.2,5.7,2.9,7.1,2.9,2.9.1,3.4-1,5-3,.3-.9-.2-.4.4-1.4,1.4-4.9,1.8-15.6,1.8-17.4-.8-.2.7.1-.5-.3v-.1l.3-.7-.6.3a5.06,5.06,0,0,1-3,.1c-1.1-.2-2.1-.2-3.3-.3-3.5-.3-4.7-.1-7.3,1.4-.4.2-.7.4-1.1.6-1.4,1-.4,4.4.2,5.6l.6,1.2c.4.7,1.4,1.1-.3,2-.2.3-1.4,1.4-1.6,1.6a6,6,0,0,0-.8.8c-.3.3-.5.7-.9.7a32.78,32.78,0,0,0-2.6-4.6A7.41,7.41,0,0,0,58.1,96a24.33,24.33,0,0,1,3-3.4,18.3,18.3,0,0,1,3.6-3.1c3.5-2.6,8.4-4.1,12.9-3a9.89,9.89,0,0,0,2.6.7c.1-.4-.1-.9,0-1.6s.2-1,.3-1.5c.8-5.1,3.6-5.7,4-7-.3-.5-1-.6-1.6-.9s-1-.7-1.5-1a8,8,0,0,1-2.3-2.6l1.1.1c-1.8-.8-1.2.3-2.5-2-.4-.6-.5-.9-1.2-1a14.92,14.92,0,0,0-2.1.2,24.73,24.73,0,0,0-6,.8,2.75,2.75,0,0,0-1.5.8c.1.7.2.9.7,1.2.7.5,2.7,1.5,2.9,2.2-.7.6-3.4.9-4.7,1.1a79.45,79.45,0,0,0-9.7,2l-4,1.2h-.2l-.3.1c.1-.1,1.1-.7,1.4-.9l4.7-2.3c.6-.3,6.2-2.3,6.5-2.8.1-1.4-1.3-1.5-2.1-2.1.3-.7,2.3-1.1,3.2-1.4a35,35,0,0,1,7.1-1.7,22.77,22.77,0,0,0,3.9-.6,26.3,26.3,0,0,1-1-7c29.5,8.6,27.1,23,27.2,22.8,1.8,1.2-1.6,10.4,2.3,5a18.27,18.27,0,0,0,2.3-4.9C108,68,93,35.3,89.9,34c-.8,1.1-1,6.6-1.7,8.1l-1-1.1a3.27,3.27,0,0,0-1.5-1.1l.1-.8V39a49.67,49.67,0,0,1,2.5-5.2l.3-.3c.9-.9,1.8-1.7,2.6-2.6l.4-.5c.8-.6-.3-1-.4-1.6a9,9,0,0,1,2-1.9.22.22,0,0,0,.2-.2l.2-.2c7.2-4.9,13.7-7.3,23-7.3.1,0,9.7.7,9.9.7h.2l.1-.1c.3-.3.2-.1.2-.6-.6-.2-1.2-1.2-1.7-1.7-6-5.1-10.1-8.4-17.7-12.1-2.6-1.1-7.2,3.9-9.7,5.5l-.7.7a.1.1,0,0,1-.1.1l-.1.1c-.2-.8,4.2-5.7,4.9-6.6.4-.5,1.1-.9,1.1-1.6a5.34,5.34,0,0,1-1.8-.5c-1.4-.5-2.4-.6-4-1.1L94,1.1C63.7-3.1,30.8,4.4,13.4,33.3v.1a59.77,59.77,0,0,0-3.7,8.7l-.1.3c-4,15.1,5.3,33.5.5,35.6-.7.3-.5.4-.6,1.1,4.3-2.1,4.9-1.8,8.9-5.6,2.2-2.8,3.8-11.6,6.1-12,.2,0,.8-.1,1.1.2,1.9,2.1,4,1.2,6.4,1.8,3,15-27.6,14.5-28.1,21,.6,0,.8.1,1.1.1,4.6.3,10.9,1.4,15.5,2.1Z" transform="translate(-3.78 0.09)" fill="#1a1a18" fill-rule="evenodd"/><path d="M67,106.6a12.23,12.23,0,0,1,1.2-1.9,15.94,15.94,0,0,1,1.5-2.1c.5.4,1.3,2.4,2.8,3.1-.1,1.1-1.2,2.7-1.2,3.1-.1-.2.5-1,.7-1.3a5.3,5.3,0,0,0,.8-1.5c1.2.1,2.1,1.3,4.9,1.3-.1,1.4-1.6,2.4-2.8,2.7a6.67,6.67,0,0,1-4.6-.7Zm-.3-.1c-.3.1-.1.5-1.1-.5l-3.1-3.3v-.4l2.2-2a13.68,13.68,0,0,1,2.2-1.9,16,16,0,0,1,2.2,2.7c.5,1-.1,1.3-1.2,3.3a8.78,8.78,0,0,0-1.2,2.1Zm3.4,2.9c-.5-.3-1-.6-1.4-.8a10.14,10.14,0,0,0-1.3-.9,1.76,1.76,0,0,0-.5-.4ZM20.5,86.7a73,73,0,0,1,8.1,1.8,76.41,76.41,0,0,1,8,2.9,45.81,45.81,0,0,1,10.3,5.9l3,2.4a22.58,22.58,0,0,0-.5,3,12.69,12.69,0,0,0,.2,3.5,4.79,4.79,0,0,1-1.5-2.7c-.1-.6-.3-3.5-.4-3.7-.4.6-.2,2-.1,2.7.1,1.1-.4,1.5-.5,2.6-.6-.9-.6-3.6-.7-5.1-.1,3.1-.4,2.4-.8,4-.1.5-.1.9-.2,1.5a8.15,8.15,0,0,1-.9-2.5,19.42,19.42,0,0,1-.2-3.5c-.9.4-2.7,4.1-3,5.5a21.78,21.78,0,0,1-.6,2.2,23.63,23.63,0,0,1,.2-4.6c.3-2.9.6-2.3,1.2-3.8-.2.4-.5.7-.7,1.1a3.78,3.78,0,0,1-.9,1.2c-.5,1.6-4.5,5.9-6.3,11.1-.2.6-.5,1.3-.8,2a5.27,5.27,0,0,0-.3,1.2c-.1.3-.2.9-.3,1.1-.4-.8.4-5.5.6-6.6.2-.8.5-1.3.6-1.9-.6.4-2.6,4.1-2.9,4.8-1.6,4.6-1.6,6.1-2.1,10.9-1-.9-1.9-6.6-1.7-7.3.8-5.4,2.5-4.7,2.5-6.7a30,30,0,0,0-4.1,6.7c-.5.4-.4.5-.8-.1-.7-1.2-.2-3.8-.7-4.2,0,2.3-.4,3.3.6,5.3.1.2.8.8.8.4a4.35,4.35,0,0,1,.8-1.5c.2.4,0,.9,0,1.6a24.35,24.35,0,0,0,1.5,5.9,33.86,33.86,0,0,1,1.5,4.1c1,0,.8-9.7,1.7-12.2a6,6,0,0,1,.6-1.9,29.54,29.54,0,0,0,.7,7.4v-.1c.3-1.2,1.3-5.9,1.6-6.9,1.4-4.3,2.9-6.6,5.3-10.3l.6-.7a41,41,0,0,0,.3,7c.4-.1.3,0,.4-.5a19,19,0,0,1,2.8-8.4,19.15,19.15,0,0,0,1.6,4.8c.3.4,1.1,1.5,1.6,1.5a11.66,11.66,0,0,1-1-2.6c-.1-.4-.1-1.2.3-.8a6.63,6.63,0,0,0,1.9,2.9c.1-.5-.8-1.5-.4-3.2l.2.5v.1c.8,2.2,2.7,4.4,4.5,4.4-1.3-2.5-.7-2.7.7-4.4a3.92,3.92,0,0,1,1-.8c.2-.2.1,0,.4-.3a6,6,0,0,0,.1,2.3c.1.2-.1.2.5.3a3.73,3.73,0,0,1,1.4-3.2c2.1-1.4,3-.6,4.3-.3l.6.4c-.3.5-.9.7-1.1,1.4a7.55,7.55,0,0,0,1.4-1.1,57.62,57.62,0,0,1,4,4.3c.1.2.2.1,0,.5-.5.9-1,1.7-1.5,2.6a2.57,2.57,0,0,0-.5,1.2c.3-.2.3-.3.5-.7V111c.7-1.1,1.4-2.1,2.1-3.2.3,1.2,5.7,2.9,7.1,2.9,2.9.1,3.4-1,5-3,.3-.9-.2-.4.4-1.4,1.4-4.9,1.8-15.6,1.8-17.4-.8-.2.7.1-.5-.3v-.1l.3-.7-.6.3a5.06,5.06,0,0,1-3,.1c-1.1-.2-2.1-.2-3.3-.3-3.5-.3-4.7-.1-7.3,1.4-.4.2-.7.4-1.1.6-1.4,1-.4,4.4.2,5.6l.6,1.2c.4.7,1.4,1.1-.3,2-.2.3-1.4,1.4-1.6,1.6a6,6,0,0,0-.8.8c-.3.3-.5.7-.9.7a32.78,32.78,0,0,0-2.6-4.6A7.41,7.41,0,0,0,58.1,96a24.33,24.33,0,0,1,3-3.4,18.3,18.3,0,0,1,3.6-3.1c3.5-2.6,8.4-4.1,12.9-3a9.89,9.89,0,0,0,2.6.7c.1-.4-.1-.9,0-1.6s.2-1,.3-1.5c.8-5.1,3.6-5.7,4-7-.3-.5-1-.6-1.6-.9s-1-.7-1.5-1a8,8,0,0,1-2.3-2.6l1.1.1c-1.8-.8-1.2.3-2.5-2-.4-.6-.5-.9-1.2-1a14.92,14.92,0,0,0-2.1.2,24.73,24.73,0,0,0-6,.8,2.75,2.75,0,0,0-1.5.8c.1.7.2.9.7,1.2.7.5,2.7,1.5,2.9,2.2-.7.6-3.4.9-4.7,1.1a79.45,79.45,0,0,0-9.7,2l-4,1.2h-.2l-.3.1c.1-.1,1.1-.7,1.4-.9l4.7-2.3c.6-.3,6.2-2.3,6.5-2.8.1-1.4-1.3-1.5-2.1-2.1.3-.7,2.3-1.1,3.2-1.4a35,35,0,0,1,7.1-1.7,22.77,22.77,0,0,0,3.9-.6,26.3,26.3,0,0,1-1-7c29.5,8.6,27.1,23,27.2,22.8,1.8,1.2-1.6,10.4,2.3,5a18.27,18.27,0,0,0,2.3-4.9C108,68,93,35.3,89.9,34c-.8,1.1-1,6.6-1.7,8.1l-1-1.1a3.27,3.27,0,0,0-1.5-1.1l.1-.8V39a49.67,49.67,0,0,1,2.5-5.2l.3-.3c.9-.9,1.8-1.7,2.6-2.6l.4-.5c.8-.6-.3-1-.4-1.6a9,9,0,0,1,2-1.9.22.22,0,0,0,.2-.2l.2-.2c7.2-4.9,13.7-7.3,23-7.3.1,0,9.7.7,9.9.7h.2l.1-.1c.3-.3.2-.1.2-.6-.6-.2-1.2-1.2-1.7-1.7-6-5.1-10.1-8.4-17.7-12.1-2.6-1.1-7.2,3.9-9.7,5.5l-.7.7a.1.1,0,0,1-.1.1l-.1.1c-.2-.8,4.2-5.7,4.9-6.6.4-.5,1.1-.9,1.1-1.6a5.34,5.34,0,0,1-1.8-.5c-1.4-.5-2.4-.6-4-1.1L94,1.1C63.7-3.1,30.8,4.4,13.4,33.3v.1a59.77,59.77,0,0,0-3.7,8.7l-.1.3c-4,15.1,5.3,33.5.5,35.6-.7.3-.5.4-.6,1.1,4.3-2.1,4.9-1.8,8.9-5.6,2.2-2.8,3.8-11.6,6.1-12,.2,0,.8-.1,1.1.2,1.9,2.1,4,1.2,6.4,1.8,3,15-27.6,14.5-28.1,21,.6,0,.8.1,1.1.1,4.6.3,10.9,1.4,15.5,2.1Z" transform="translate(-3.78 0.09)" fill="none" stroke="#1a1a18" stroke-miterlimit="22.93" stroke-width="0.22"/><path d="M65.4,5.7c0,1.3.3,6.4.5,7.7.1.6.1.7-.2,1-.1-.4-.3-1.8-.4-2.4s-.4-1.4-.5-2.2a41.75,41.75,0,0,0-.7-5.1,31.37,31.37,0,0,0-7.4,1.5,40,40,0,0,0-7.2,2.9c.1,1.2,1.9,4.2,2.7,5.4a4.33,4.33,0,0,1,.9,1.6c-.5-.1-2-2.3-2.4-2.8a18.33,18.33,0,0,1-2.3-3.8c-2.8-.3-16.2,8-18.3,9.3-.4.2-5.3,4.1-5.4,4.7-.2,1,2.5,2.2,2.9,3.1-1.7-.1-3.5-2-4-2.1a17.89,17.89,0,0,0-3,3.1L18,31.2c-.4.7-1.6,2.3-1.7,3.1a11.13,11.13,0,0,0,2.4,1.6,9.91,9.91,0,0,1,2.3,1,13.2,13.2,0,0,1-3.9-.6c-1.6-.5-1.5-1.5-2.7.9a49,49,0,0,0-2.6,6.7c-1.2,3.5-1.5,9.2-1.5,13.4,0,3,1.7,9.5,2.3,13,.3,1.5.4,4.5-.1,5.7,4.2-.3,5.7-9.6,6.6-12.2a8.49,8.49,0,0,1,1.1-2.6,10.71,10.71,0,0,1,1.9-1.8c1-.7,1.6-.6,3-.7.2-1.5.2-2.8.5-4.3,2.1-9.6,6.1-16,14-22.5,1.7-1.4,1-1.4,2-2.9,1.1-1.7,2.2-2.9,4.7-2.6,2.3.3,1.7.8,3.9-.2,7.2-3.1,17.1-3.9,25.3-2.8,1.6.2,2.9.6,4.5.9a27,27,0,0,1,4,1.4c5,2.2,2.8,2.3,5.1.4a57.12,57.12,0,0,1,4.8-3.8,32.54,32.54,0,0,1,11.7-5.2c7.2-1.8,7.7-.7,15.1-.5-.6-1.2-1.9-1.8-3-2.5-1.5-.9-3.7-2.5-5.2-3.2-.6-.3-1.3-.6-1.9-.9a33.89,33.89,0,0,0-3.9-1.8c-1.7-.8-1.6-.6-3.8.9-1.7,1.2-3.2,2.5-4.9,3.7-.3.2-.5.4-.8.6-.8.6-3.2,3.3-3.8,3.3a7.81,7.81,0,0,1,.9-3.4,15.09,15.09,0,0,1,1.5-2.8c.9-1.4,1.6-2.5,2.6-3.8.3-.4.9-.7.9-1.2a17,17,0,0,0-2.2-.4,59,59,0,0,0-6.6-1.3c-.7.8-1.5,1.5-2.3,2.3L86.6,7.8c-.3.4-.3.5-.7.6A11.18,11.18,0,0,1,87,5.9l1.2-2.4c-1.5-.1-2.5-.5-3.9-.5A94.21,94.21,0,0,0,67.5,4a5.08,5.08,0,0,0-1.7.3c-.5.3-.4.7-.4,1.4" transform="translate(-3.78 0.09)" fill="#e2000f" fill-rule="evenodd"/><path d="M10.8,82.9a27.12,27.12,0,0,0,3.3.4c1,.1,2,.4,3.1.6,2.1.5,4.2.7,6.3,1.2,3,.6,6,1.4,9,2.3a43.09,43.09,0,0,1,8,3.2c5.3,2.9,4.7,2.9,9,6.1.8.6,3.6,3.5,3.9,3.6a70.43,70.43,0,0,1,4.2-6c3.3-3.6,6.8-7.3,11.8-8.7a20,20,0,0,1,4.3-.7c1.3-.2,4.5.6,4.7.5s.2,0,.3-.4a11.3,11.3,0,0,1,1.9-5.8c.4-.6,1-1.1,1.3-1.6-.9-.8-2.1-1.2-3.5-2.7a9.39,9.39,0,0,1-1.2-1.8A10.6,10.6,0,0,0,76.1,71H74.5c.4,1.8,3.3,5.6,5,6.8-.6,1.8-1.1.5-2.5,5.8A21.6,21.6,0,0,0,62.3,88,41.46,41.46,0,0,0,55,95.2a7.84,7.84,0,0,0-1,1.5c-.2.2-.3.5-.5.7-.4.6,0,.2-.7.6-.2-.1-1.9-2.2-2.5-2.7-1.6-1.3-5.8-4.6-7.7-5.4-.4-.2-1.5-.5-1.5-1.1a5.94,5.94,0,0,0,1.6.6c1.9.4,6.2,3.5,7.6,4.8l1.3,1.2a15.38,15.38,0,0,0,1.3,1.2,18.48,18.48,0,0,0,1.9-2.7c3.1-4.1,8.5-8.6,13.5-10a27,27,0,0,1,3.9-.8c.7-.1,1.5-.1,2.1-.2,1-.1,1.4.3,2.1,0,.3-.9.4-1.7.7-2.5s.9-1.4,1.2-2.1a33.43,33.43,0,0,1-3.9-5,17.38,17.38,0,0,0-1-1.9,14.76,14.76,0,0,0-5.3.8c.1.3.5.5.8.7a8.65,8.65,0,0,1,1,.7c.7.5,1.4.9,1.3,2.1-1,1.1-4,1.3-5.6,1.6A78,78,0,0,0,54,80c-1.3.4-4.3,1.7-5.6,1.2-.1-.9.5-1.2,1-1.6a46,46,0,0,1,5.3-3.1A43.48,43.48,0,0,1,60.6,74a3,3,0,0,0,1-.4c.4-.2.7-.2,1-.5l-2.8-1.5c.2-1.2,4.6-2.3,5.5-2.5A34.54,34.54,0,0,1,72,67.6c0-.4-.1-2.3-.1-2.7a6.15,6.15,0,0,1,0-2.7c.1-.7,0-1.6.2-2.9.1-.8.3-1.8.4-2.7L81,58.7c1,.2,2,.4,3,.7,1.9.5,3.6,1.1,5.6,1.6s3.9.9,5.8,1.5c3.7,1.2,4.2.3,4.9,2.2.7,1.7,1.4,3.4,2,5.2a51.49,51.49,0,0,1,1.6,5.6c.2.9.9,5.3,1.2,6,.6-.8-1.8-10.6-2.1-11.9-.8-2.8-1.4-5.7-2.3-8.5-.3-1-.5-1.8-.9-2.8a83.25,83.25,0,0,0-8-17.1c-.3-.5-1-2-1.5-2.2,0,.1-1.1,5.7-1.6,7-.4,1-.7,2.1-1.1,3.2-1.2,3.5-1,2.9-4.9,3.9-2.4.6-5,.8-7.5,1.3-2.9.5-9.3.8-12.3.9a42,42,0,0,1-20.8-5.5c-.8-.5-1.9-1-2.7-1.6-1.1-.9-.9-.6-2.1,1.3a15.09,15.09,0,0,0-1.5,2.8c-.5,1.1-.8,2.2-1.2,3.3a32.6,32.6,0,0,0-.4,8.3c.2,3.3.9,4-.3,7.5a7.74,7.74,0,0,1-4.2,4.5c-1.9.9-4.2,1.7-6.2,2.5-2.2.9-4.1,1.6-6.3,2.5Z" transform="translate(-3.78 0.09)" fill="#ffd040" fill-rule="evenodd"/><g clip-path="url(#a)"><rect x="14.72" y="86.79" width="31.4" height="37" fill="url(#b)"/></g><path d="M51.4,27.8c.2.5.5.3,1,.9.2.3.6.7.9,1.1,2.3,2.7,1.2,2,5.8,1.2a13.55,13.55,0,0,1,2-.2l3-.2a38.06,38.06,0,0,1,9.5,1.2c.8.2,1.5.5,2.4.7a26,26,0,0,1,6.3,3,7.45,7.45,0,0,0,2,1c.7-.6,1.3-2.4,1.8-3.3.3-.5.6-1.1.9-1.6s.9-1.1.9-1.8c-1.1-1-6.3-2.7-7.9-3.3-6.3-1.9-15.8-2-22.3-.7-1,.3-5.9,1.4-6.3,2" transform="translate(-3.78 0.09)" fill="#ffd040" fill-rule="evenodd"/><path d="M57.7,35.6a2.79,2.79,0,0,0,.8,2c1.3,2,3.6,4.9,5.1,6.9.4.6.9,1.1,1.3,1.7l2.9,3.2c.6-.1,1.7-.8,2.7-1,2.5-.5,3.7-.5,6.5-1.1l1.5-.3,1.2-.2c.3-.1.1,0,.4-.2a13.86,13.86,0,0,0-3.6-5.4,15.07,15.07,0,0,0-2.3-2.1,14.63,14.63,0,0,1-1.3-.9,2.51,2.51,0,0,0-.7-.4c-.3-.1-.6-.2-.7-.5.9-.5,4.2.5,5.1.8a22.94,22.94,0,0,1,6.9,4.1,5.5,5.5,0,0,1,.9.7,13.15,13.15,0,0,1,2.2,2.5c.2.2.4.8.6,1a1.53,1.53,0,0,0,.4-1.7,30.92,30.92,0,0,0-4.1-4,32,32,0,0,0-5.1-2.9c-.7-.3-1.3-.5-1.9-.8a39.41,39.41,0,0,0-11.2-2,42,42,0,0,0-6.2.7c-.7-.1-.9-.3-1.4-.1" transform="translate(-3.78 0.09)" fill="#ffd040" fill-rule="evenodd"/><g clip-path="url(#c)"><rect x="37.22" y="26.89" width="26" height="25.6" fill="url(#d)"/></g><path d="M27.8,61a16.68,16.68,0,0,0,3.8.3,23.24,23.24,0,0,1,2.2-11.5,6.89,6.89,0,0,1,.7-1.5A30.7,30.7,0,0,1,37.1,44c1.3-2,5.4-5.7,7.3-6.5a3.38,3.38,0,0,0-.6-1.2,1,1,0,0,1-1.6-.4c-.2-.5-.5-1.3-.8-1.9a8.53,8.53,0,0,0-3,1.9,21.39,21.39,0,0,0-4.6,5.5,21.69,21.69,0,0,0-1.9,3.3,22.13,22.13,0,0,0-1.6,3.5C28.6,52.4,27.5,56,27.8,61" transform="translate(-3.78 0.09)" fill="#ffd040" fill-rule="evenodd"/><path d="M74.8,67.1c-.3-3-.7-1.7-.6-6.1,0-1.2.3-1.1.5-1.8.1.5-.2,0,1.3.3,1.8.3,7.9,2.1,9.7,2.6l8,2.3c1,.3,1.8.6,2.7.9,3.4.9,2.5.3,3.7,3.2A68.66,68.66,0,0,1,104,83.8c.1.6,0,1.2.1,1.8.9-.5.8-3.2.5-4.4-.2-.6-.2-1-.4-1.6-1-4.3-2.6-10.8-4.4-14.7-.5-1.1-.8-.8-2.6-1.3-2-.6-4.1-1-6.1-1.5C86.8,60.9,83.2,60,79,58.9c-.9-.2-5.3-1.7-5.9-1.6-.2,2.1-.7,7-.4,8.9.3,1.5.3.9,2.1.9" transform="translate(-3.78 0.09)" fill="#ffd040" fill-rule="evenodd"/><path d="M66.9,52.2c4.3.4,7.4-.6,11.2-1a31.18,31.18,0,0,0,7.3-1.8,1.63,1.63,0,0,0,1.2-1.7,21.76,21.76,0,0,0-5.7.1c-1.5.2-3.1.7-5.1,1-2.5.4-5.4.4-7.4,1.9a10.61,10.61,0,0,0-1.5,1.5" transform="translate(-3.78 0.09)" fill="#ffd040" fill-rule="evenodd"/><g clip-path="url(#e)"><rect x="54.52" y="85.69" width="22" height="25" fill="url(#f)"/></g><g clip-path="url(#g)"><rect x="47.92" y="60.69" width="52.3" height="31.7" fill="url(#h)"/></g><path d="M81.5,46.3c.8,0,1.4-.1,2.2-.1a16.2,16.2,0,0,0,2.2.1,24.4,24.4,0,0,0-2.8-3.1c-1.5-1.5-6.4-4.7-8.3-5a8.73,8.73,0,0,0,2,1.6A21,21,0,0,1,80.9,45a8.1,8.1,0,0,0,.6,1.3" transform="translate(-3.78 0.09)" fill="#ffd040" fill-rule="evenodd"/><path d="M97.6,59c.2-.4-.5-2.9-.7-3.4a10.41,10.41,0,0,1-.6-1.6,49,49,0,0,0-2.8-6.1,3,3,0,0,0-.4-.8c-.2-.3-.2-.4-.6-.5,0,0-.4,1.5-.5,1.8-.7,2-.5,1.4.3,2.4l2.6,3.4c1,1.5,2.2,4.3,2.7,4.8" transform="translate(-3.78 0.09)" fill="#f8f8f1" fill-rule="evenodd"/><g clip-path="url(#i)"><rect x="50.22" y="97.09" width="6.9" height="6.1" fill="url(#j)"/></g><g clip-path="url(#k)"><rect x="46.42" y="100.69" width="2.9" height="5.6" fill="url(#l)"/></g><path d="M97.9,98.6h-.2c.2.3,0,.2.4.2Z" transform="translate(-3.78 0.09)" fill="#d2d2d2" fill-rule="evenodd"/><path d="M80.2,106.9v-.2c-.4-.1,0,.2,0,.2" transform="translate(-3.78 0.09)" fill="#878787" fill-rule="evenodd"/><path d="M86.7,102.4c.1.1.4-.2,0,0,.2,0-.2-.2,0,0" transform="translate(-3.78 0.09)" fill="#d2d2d2" fill-rule="evenodd"/><polygon points="79.72 94.09 79.72 93.99 79.62 94.09 79.72 94.09" fill="#f8f8f1" fill-rule="evenodd"/><polygon points="94.92 91.29 94.92 91.39 95.12 91.29 94.92 91.29" fill="#e9dccf" fill-rule="evenodd"/><polygon points="56.52 104.49 56.42 104.49 56.52 104.59 56.52 104.49" fill="#979696" fill-rule="evenodd"/><polygon points="76.42 106.99 76.42 107.09 76.52 106.99 76.42 106.99" fill="#d2d2d2" fill-rule="evenodd"/><polygon points="77.42 93.79 77.52 93.79 77.42 93.59 77.42 93.79" fill="#e9dccf" fill-rule="evenodd"/><polygon points="81.72 90.99 81.62 90.99 81.72 91.19 81.72 90.99" fill="#d2d2d2" fill-rule="evenodd"/><polygon points="78.12 95.69 78.12 95.59 78.02 95.69 78.12 95.69" fill="#e9dccf" fill-rule="evenodd"/><polygon points="78.32 95.59 78.32 95.49 78.12 95.59 78.32 95.59" fill="#e9dccf" fill-rule="evenodd"/><polygon points="78.02 95.89 78.02 95.69 77.92 95.89 78.02 95.89" fill="#e9dccf" fill-rule="evenodd"/><polygon points="78.62 95.39 78.62 95.19 78.52 95.39 78.62 95.39" fill="#e9dccf" fill-rule="evenodd"/><polygon points="77.92 91.49 77.82 91.49 77.82 91.69 77.92 91.49" fill="#e9dccf" fill-rule="evenodd"/><path d="M84.4,91.2h0" transform="translate(-3.78 0.09)" fill="#f8f8f1" fill-rule="evenodd"/><path d="M82.5,95.1Z" transform="translate(-3.78 0.09)" fill="#f8f8f1" fill-rule="evenodd"/><path d="M86.6,91.8Z" transform="translate(-3.78 0.09)" fill="#f8f8f1" fill-rule="evenodd"/><path d="M68.2,95.3Z" transform="translate(-3.78 0.09)" fill="#d2d2d2" fill-rule="evenodd"/><path d="M81.7,95.9Z" transform="translate(-3.78 0.09)" fill="#e9dccf" fill-rule="evenodd"/><path d="M99.6,74.9Z" transform="translate(-3.78 0.09)" fill="#e9dccf" fill-rule="evenodd"/><path d="M100.8,74.4Z" transform="translate(-3.78 0.09)" fill="#e9dccf" fill-rule="evenodd"/><path d="M87.1,101.7" transform="translate(-3.78 0.09)" fill="#979696" fill-rule="evenodd"/><path d="M98.6,67.6Z" transform="translate(-3.78 0.09)" fill="#f8f8f1" fill-rule="evenodd"/><path d="M86,92.2Z" transform="translate(-3.78 0.09)" fill="#f8f8f1" fill-rule="evenodd"/><path d="M80.4,106.4Z" transform="translate(-3.78 0.09)" fill="#878787" fill-rule="evenodd"/><path d="M80.3,106.5Z" transform="translate(-3.78 0.09)" fill="#979696" fill-rule="evenodd"/><path d="M85.9,92.3Z" transform="translate(-3.78 0.09)" fill="#e9dccf" fill-rule="evenodd"/><path d="M46.4,28.9c0-.1.4-.2.9-.2a3.14,3.14,0,0,1,1.8.6,14.25,14.25,0,0,1,3,2.5,21.72,21.72,0,0,1,2.4,2.9c.5.7.5.9.5.9a5.2,5.2,0,0,1-.5-.3,5.36,5.36,0,0,0-1.1-.5c-.3-.1-.3-.2-.1,0a6.89,6.89,0,0,1,1.3,1.1,2.73,2.73,0,0,1,.6,1.2,1.7,1.7,0,0,1,.1.7c0,.1-.1-.1-.3-.4a2.38,2.38,0,0,0-.6-1.1A7.55,7.55,0,0,0,53,35.2c-.5-.3-1.1-.7-1.5-.9s-.7-.3-.7-.4h.7a2.92,2.92,0,0,1,.9.2,2.92,2.92,0,0,0,.9.2c.3.1.5.1.6.2s.2.1.1-.1-.3-.4-.8-1-1.1-1.3-1.8-2a12.39,12.39,0,0,0-2.2-1.8,6.79,6.79,0,0,0-2-.7A1.69,1.69,0,0,1,46.4,28.9Z" transform="translate(-3.78 0.09)" fill="#1a1a18" fill-rule="evenodd"/><path d="M46.4,28.9c0-.1.4-.2.9-.2a3.14,3.14,0,0,1,1.8.6,14.25,14.25,0,0,1,3,2.5,21.72,21.72,0,0,1,2.4,2.9c.5.7.5.9.5.9a5.2,5.2,0,0,1-.5-.3,5.36,5.36,0,0,0-1.1-.5c-.3-.1-.3-.2-.1,0a6.89,6.89,0,0,1,1.3,1.1,2.73,2.73,0,0,1,.6,1.2,1.7,1.7,0,0,1,.1.7c0,.1-.1-.1-.3-.4a2.38,2.38,0,0,0-.6-1.1A7.55,7.55,0,0,0,53,35.2c-.5-.3-1.1-.7-1.5-.9s-.7-.3-.7-.4h.7a2.92,2.92,0,0,1,.9.2,2.92,2.92,0,0,0,.9.2c.3.1.5.1.6.2s.2.1.1-.1-.3-.4-.8-1-1.1-1.3-1.8-2a12.39,12.39,0,0,0-2.2-1.8,6.79,6.79,0,0,0-2-.7A1.69,1.69,0,0,1,46.4,28.9Z" transform="translate(-3.78 0.09)" fill="none" stroke="#1a1a18" stroke-miterlimit="22.93" stroke-width="0.22"/><path d="M55.4,38.7a9,9,0,0,0-1-.9,2.84,2.84,0,0,0-1.2-.4H51.5l.6.3a3.55,3.55,0,0,1,.9.4,5,5,0,0,1,.8.7c.2.2.5.4.7.6l.4.4c.1.1,0,0-.2-.1-.4-.1-.8-.3-1.1-.4s-.7-.1-1.1-.2a2,2,0,0,0-.8.1c-.1,0,.1.1.4.2a3.55,3.55,0,0,1,.9.4,3.59,3.59,0,0,1,1,.7,8.34,8.34,0,0,1,.8,1.2,5.64,5.64,0,0,1,.4,1.2c.1.3.1.6.2.9s.1.4.1.2a2.72,2.72,0,0,0,0-.9,3.59,3.59,0,0,0-.2-1.1,4.87,4.87,0,0,0-.4-1.1,2.09,2.09,0,0,0-.4-.6,3,3,0,0,0-.7-.5c-.3-.1-.5-.2-.4-.2.3.1.6.2,1,.3a5.67,5.67,0,0,1,1.3.8,7.51,7.51,0,0,1,.8.7c.1.1.1,0-.1-.3a6.42,6.42,0,0,0-1-1.3,13.47,13.47,0,0,0-1.2-1.2,3.74,3.74,0,0,0-.7-.6,4.71,4.71,0,0,0-.5-.2,1.45,1.45,0,0,1,.7.2,11.73,11.73,0,0,1,1.1.5C55.1,38.6,55.5,38.8,55.4,38.7Z" transform="translate(-3.78 0.09)" fill="#1a1a18" fill-rule="evenodd"/><path d="M55.4,38.7a9,9,0,0,0-1-.9,2.84,2.84,0,0,0-1.2-.4H51.5l.6.3a3.55,3.55,0,0,1,.9.4,5,5,0,0,1,.8.7c.2.2.5.4.7.6l.4.4c.1.1,0,0-.2-.1-.4-.1-.8-.3-1.1-.4s-.7-.1-1.1-.2a2,2,0,0,0-.8.1c-.1,0,.1.1.4.2a3.55,3.55,0,0,1,.9.4,3.59,3.59,0,0,1,1,.7,8.34,8.34,0,0,1,.8,1.2,5.64,5.64,0,0,1,.4,1.2c.1.3.1.6.2.9s.1.4.1.2a2.72,2.72,0,0,0,0-.9,3.59,3.59,0,0,0-.2-1.1,4.87,4.87,0,0,0-.4-1.1,2.09,2.09,0,0,0-.4-.6,3,3,0,0,0-.7-.5c-.3-.1-.5-.2-.4-.2.3.1.6.2,1,.3a5.67,5.67,0,0,1,1.3.8,7.51,7.51,0,0,1,.8.7c.1.1.1,0-.1-.3a6.42,6.42,0,0,0-1-1.3,13.47,13.47,0,0,0-1.2-1.2,3.74,3.74,0,0,0-.7-.6,4.71,4.71,0,0,0-.5-.2,1.45,1.45,0,0,1,.7.2,11.73,11.73,0,0,1,1.1.5C55.1,38.6,55.5,38.8,55.4,38.7Z" transform="translate(-3.78 0.09)" fill="none" stroke="#1a1a18" stroke-miterlimit="22.93" stroke-width="0.22"/><path d="M74.9,26.5a19.72,19.72,0,0,1,3.5.7,54.59,54.59,0,0,1,5.4,1.9c1.2.5,1.2.5,1.3.5s.1,0-.1.2a8.74,8.74,0,0,0-.8,1c-.2.3-.1.2-.1.2s0-.1-1.4-.8-4.1-1.9-5.7-2.6a9.39,9.39,0,0,0-2.5-.9,9.59,9.59,0,0,1-1.5-.3h.6A5.28,5.28,0,0,1,74.9,26.5Z" transform="translate(-3.78 0.09)" fill="#fff" fill-rule="evenodd"/><path d="M74.9,26.5a19.72,19.72,0,0,1,3.5.7,54.59,54.59,0,0,1,5.4,1.9c1.2.5,1.2.5,1.3.5s.1,0-.1.2a8.74,8.74,0,0,0-.8,1c-.2.3-.1.2-.1.2s0-.1-1.4-.8-4.1-1.9-5.7-2.6a9.39,9.39,0,0,0-2.5-.9,9.59,9.59,0,0,1-1.5-.3h.6A5.28,5.28,0,0,1,74.9,26.5Z" transform="translate(-3.78 0.09)" fill="none" stroke="#fff" stroke-miterlimit="22.93" stroke-width="0.57"/><path d="M69.9,37.6a9.06,9.06,0,0,1,2.6,1.3,14.82,14.82,0,0,1,2.6,2.4,14.65,14.65,0,0,1,1.7,2.4c.4.6.5,1,.6,1a4.35,4.35,0,0,0-.6-.7,25.47,25.47,0,0,0-3-2.6,15.29,15.29,0,0,0-2.7-1.7c-.6-.3-.9-.3-1-.4s0-.2,0-.4A2.77,2.77,0,0,0,70,38C69.6,37.8,69.5,37.5,69.9,37.6Z" transform="translate(-3.78 0.09)" fill="#fff" fill-rule="evenodd"/><path d="M69.9,37.6a9.06,9.06,0,0,1,2.6,1.3,14.82,14.82,0,0,1,2.6,2.4,14.65,14.65,0,0,1,1.7,2.4c.4.6.5,1,.6,1a4.35,4.35,0,0,0-.6-.7,25.47,25.47,0,0,0-3-2.6,15.29,15.29,0,0,0-2.7-1.7c-.6-.3-.9-.3-1-.4s0-.2,0-.4A2.77,2.77,0,0,0,70,38C69.6,37.8,69.5,37.5,69.9,37.6Z" transform="translate(-3.78 0.09)" fill="none" stroke="#fff" stroke-miterlimit="22.93" stroke-width="0.57"/><path d="M82.9,68.9a14.62,14.62,0,0,1,.5-2,8.64,8.64,0,0,1,1-1.6c-.1.1-.1.1-.2.1a1.7,1.7,0,0,1-.7-.1c-.3-.1-.7-.4-1.1-.6a8.79,8.79,0,0,1-1-.6c-.2-.1-.3-.2-.5-.3l.6.2c.3.1.7.3,1.1.4s.7.2,1,.3.2-.1,0-.2a3.11,3.11,0,0,1-.6-.4q-.15-.15.3,0c.3.1,1,.4,1.3.5a.1.1,0,0,1,.1.1l.2-.2a4,4,0,0,1,1.5-1,1.1,1.1,0,0,1,.8,0c.1.1.1.2,0,.4a3.55,3.55,0,0,0-.2,1l.1-.1h.4c.1,0,.2.1.3.2a.37.37,0,0,0,.3-.1c.1-.1.2-.2.3-.2l.6.3a1.27,1.27,0,0,0,.6.1c.1,0,.1-.1.2-.2s.2-.1.4-.1a.22.22,0,0,1,.2.2c.1.1.2.2.3.2s.2.1.2.2a.6.6,0,0,1-.1.4c-.1.1-.1.1-.2.1s-.1-.2-.2-.3-.1-.1-.2-.1c-.2.4-.4.5-.6.5s-.6,0-.7.1-.1.1-.2.1-.4-.1-.6-.2-.5-.1-.7-.2h-.3a8.75,8.75,0,0,0,.2,1.6c.1.4.2.9.3,1.3.1.2.1.3.5.2s1.2-.2,1.9-.4a6.13,6.13,0,0,1,1.6-.3q.45-.15.6,0a.59.59,0,0,1,.2.5c0,.3-.1.8-.1,1.5v2.1a6.75,6.75,0,0,0,.2,1.4,6.11,6.11,0,0,0,.7,1.4,6.73,6.73,0,0,0,1.4,1.5,10.92,10.92,0,0,0,1.7,1.3c.6.4,1.1.6,1.5.9a2.29,2.29,0,0,1,.7,1,2,2,0,0,1,.1.8c0,.2.1.3.1.5a1.27,1.27,0,0,1-.1.6c-.1.2-.2.3,0,.4a1.7,1.7,0,0,0,1,0c.4-.1.8-.3,1.1-.4a2.77,2.77,0,0,1,.9-.1.75.75,0,0,1,.5.1.76.76,0,0,1,.2.5c.1.1.1.2.1.4a2.81,2.81,0,0,1-.5-.1,7.57,7.57,0,0,0-1.5.1,2.22,2.22,0,0,0-1.1.5.75.75,0,0,0-.1.8.9.9,0,0,0,.6.6l.9.3c.2.1.4.1.4.2a1.38,1.38,0,0,1-.3.4.76.76,0,0,1-.4.2,1.42,1.42,0,0,1-.6-.2q-.3-.15-.3,0a4.12,4.12,0,0,0,.3.8c.1.2.1.4.2.6s.1.3.2.6a4.87,4.87,0,0,1,.1,1.2,4,4,0,0,1-.3,1.5,2,2,0,0,1-1.1,1.1,9.17,9.17,0,0,1-2.3.9,10.9,10.9,0,0,1-2.6.3,18.41,18.41,0,0,1-3.3-.3,16.81,16.81,0,0,1-3.2-.9l-2.1-.9a1.16,1.16,0,0,0-1-.2,10.84,10.84,0,0,0-1.9.8,2.84,2.84,0,0,0-1,.9c-.1.1-.2-.1-.2-.2a1,1,0,0,1,.2-.7,1.56,1.56,0,0,1,.8-.6,5.73,5.73,0,0,1,1.4-.4c.5-.2.9-.4,1.3-.6a8.14,8.14,0,0,1,2-.4c1.2-.2,3.2-.4,4.4-.6a7.39,7.39,0,0,1,2.1,0c.3,0,.5.1.2.1a17.85,17.85,0,0,0-2.3.2c-1.4.4-3.3.8-4.4,1l-1.5.3c-.1.1-.2.1.2.3a10.09,10.09,0,0,0,1.5.7c.3.1.7.2,1,.3a1.27,1.27,0,0,0,.6-.1c.5-.2.9-.4,1.4-.6a15.54,15.54,0,0,1,2.3-.5,5.7,5.7,0,0,1,1.3-.1h-.1a12,12,0,0,0-1.7.4,21.9,21.9,0,0,0-2.3.7,2,2,0,0,0-.8.4c-.1.1-.1.1,0,.2s.2.1.4.1a1.42,1.42,0,0,0,.6-.2c.3-.1.8-.4,1.4-.6s1.2-.3,1.7-.5a8.11,8.11,0,0,0,1.1-.3,4.33,4.33,0,0,1,.5-.1,1.62,1.62,0,0,0-.5.2c-.4.2-1,.6-1.5.9a6.07,6.07,0,0,0-1,.7q-.3.15,0,.3a2.2,2.2,0,0,0,.8.1h.7c.2,0,.2-.1.6-.4s.9-1,1.4-1.4c.3-.3.6-.5.9-.8.2-.1.2-.1,0,.1a15.56,15.56,0,0,0-1.1,1.2,15.56,15.56,0,0,1-1.1,1.2c-.2.3-.2.3,0,.3a3.4,3.4,0,0,0,1-.1c.7-.1,1.3-.3,2-.4a7.74,7.74,0,0,0,1.6-.7,1.67,1.67,0,0,0,.9-1.1,5.24,5.24,0,0,0,.1-3.5,7.74,7.74,0,0,0-.7-1.6c-.2-.4-.5-.7-.7-1.1a1.61,1.61,0,0,1-.3-.9,6.6,6.6,0,0,1,.1-1.4,2.88,2.88,0,0,0-.1-1.3,2.54,2.54,0,0,0-.8-1,12.13,12.13,0,0,0-1.4-1c-.4-.2-.6-.3-.6-.2s-.1.2-.2.6a6.72,6.72,0,0,1-.6,1.2c-.2.4-.4.7-.5.9a1.76,1.76,0,0,1-.4.5c-.1.1-.2.1-.2,0a7.76,7.76,0,0,1,.4-.7,4.71,4.71,0,0,0,.6-1.5,3.33,3.33,0,0,0,.1-1.4.68.68,0,0,0-.4-.6l-.9-.3a1.7,1.7,0,0,0-1,0,1.61,1.61,0,0,0-.7.4,1.08,1.08,0,0,0-.2.8v1.6a3.59,3.59,0,0,1-.7,1.8,6.12,6.12,0,0,1-1.7,1.5,3.51,3.51,0,0,1-1.4.6,2.14,2.14,0,0,1-.6.1c0-.1.2-.2.3-.4a2.51,2.51,0,0,0,.4-.7,2.66,2.66,0,0,0,.3-1.2,5,5,0,0,0-.2-1.7,5.78,5.78,0,0,0-.5-1.4l-.3-.6a3.39,3.39,0,0,1-.6-.6,9.5,9.5,0,0,1-1-1.7c-.4-.9-.7-1.8-1-2.7s-.3-1.2-.4-1.5a3.55,3.55,0,0,0-.4-.9l-.6-.6a1,1,0,0,1-.4-.5c-.1-.1-.2-.3-.3-.4s-.4-.2-.4-.3c.2,0,.3.1.4.1s.3.2.5.3a2.19,2.19,0,0,1,.5.3C82.8,69.2,82.9,69.2,82.9,68.9Z" transform="translate(-3.78 0.09)" fill="#1a1a18" fill-rule="evenodd"/><path d="M82.9,68.9a14.62,14.62,0,0,1,.5-2,8.64,8.64,0,0,1,1-1.6c-.1.1-.1.1-.2.1a1.7,1.7,0,0,1-.7-.1c-.3-.1-.7-.4-1.1-.6a8.79,8.79,0,0,1-1-.6c-.2-.1-.3-.2-.5-.3l.6.2c.3.1.7.3,1.1.4s.7.2,1,.3.2-.1,0-.2a3.11,3.11,0,0,1-.6-.4q-.15-.15.3,0c.3.1,1,.4,1.3.5a.1.1,0,0,1,.1.1l.2-.2a4,4,0,0,1,1.5-1,1.1,1.1,0,0,1,.8,0c.1.1.1.2,0,.4a3.55,3.55,0,0,0-.2,1l.1-.1h.4c.1,0,.2.1.3.2a.37.37,0,0,0,.3-.1c.1-.1.2-.2.3-.2l.6.3a1.27,1.27,0,0,0,.6.1c.1,0,.1-.1.2-.2s.2-.1.4-.1a.22.22,0,0,1,.2.2c.1.1.2.2.3.2s.2.1.2.2a.6.6,0,0,1-.1.4c-.1.1-.1.1-.2.1s-.1-.2-.2-.3-.1-.1-.2-.1c-.2.4-.4.5-.6.5s-.6,0-.7.1-.1.1-.2.1-.4-.1-.6-.2-.5-.1-.7-.2h-.3a8.75,8.75,0,0,0,.2,1.6c.1.4.2.9.3,1.3.1.2.1.3.5.2s1.2-.2,1.9-.4a6.13,6.13,0,0,1,1.6-.3q.45-.15.6,0a.59.59,0,0,1,.2.5c0,.3-.1.8-.1,1.5v2.1a6.75,6.75,0,0,0,.2,1.4,6.11,6.11,0,0,0,.7,1.4,6.73,6.73,0,0,0,1.4,1.5,10.92,10.92,0,0,0,1.7,1.3c.6.4,1.1.6,1.5.9a2.29,2.29,0,0,1,.7,1,2,2,0,0,1,.1.8c0,.2.1.3.1.5a1.27,1.27,0,0,1-.1.6c-.1.2-.2.3,0,.4a1.7,1.7,0,0,0,1,0c.4-.1.8-.3,1.1-.4a2.77,2.77,0,0,1,.9-.1.75.75,0,0,1,.5.1.76.76,0,0,1,.2.5c.1.1.1.2.1.4a2.81,2.81,0,0,1-.5-.1,7.57,7.57,0,0,0-1.5.1,2.22,2.22,0,0,0-1.1.5.75.75,0,0,0-.1.8.9.9,0,0,0,.6.6l.9.3c.2.1.4.1.4.2a1.38,1.38,0,0,1-.3.4.76.76,0,0,1-.4.2,1.42,1.42,0,0,1-.6-.2q-.3-.15-.3,0a4.12,4.12,0,0,0,.3.8c.1.2.1.4.2.6s.1.3.2.6a4.87,4.87,0,0,1,.1,1.2,4,4,0,0,1-.3,1.5,2,2,0,0,1-1.1,1.1,9.17,9.17,0,0,1-2.3.9,10.9,10.9,0,0,1-2.6.3,18.41,18.41,0,0,1-3.3-.3,16.81,16.81,0,0,1-3.2-.9l-2.1-.9a1.16,1.16,0,0,0-1-.2,10.84,10.84,0,0,0-1.9.8,2.84,2.84,0,0,0-1,.9c-.1.1-.2-.1-.2-.2a1,1,0,0,1,.2-.7,1.56,1.56,0,0,1,.8-.6,5.73,5.73,0,0,1,1.4-.4c.5-.2.9-.4,1.3-.6a8.14,8.14,0,0,1,2-.4c1.2-.2,3.2-.4,4.4-.6a7.39,7.39,0,0,1,2.1,0c.3,0,.5.1.2.1a17.85,17.85,0,0,0-2.3.2c-1.4.4-3.3.8-4.4,1l-1.5.3c-.1.1-.2.1.2.3a10.09,10.09,0,0,0,1.5.7c.3.1.7.2,1,.3a1.27,1.27,0,0,0,.6-.1c.5-.2.9-.4,1.4-.6a15.54,15.54,0,0,1,2.3-.5,5.7,5.7,0,0,1,1.3-.1h-.1a12,12,0,0,0-1.7.4,21.9,21.9,0,0,0-2.3.7,2,2,0,0,0-.8.4c-.1.1-.1.1,0,.2s.2.1.4.1a1.42,1.42,0,0,0,.6-.2c.3-.1.8-.4,1.4-.6s1.2-.3,1.7-.5a8.11,8.11,0,0,0,1.1-.3,4.33,4.33,0,0,1,.5-.1,1.62,1.62,0,0,0-.5.2c-.4.2-1,.6-1.5.9a6.07,6.07,0,0,0-1,.7q-.3.15,0,.3a2.2,2.2,0,0,0,.8.1h.7c.2,0,.2-.1.6-.4s.9-1,1.4-1.4c.3-.3.6-.5.9-.8.2-.1.2-.1,0,.1a15.56,15.56,0,0,0-1.1,1.2,15.56,15.56,0,0,1-1.1,1.2c-.2.3-.2.3,0,.3a3.4,3.4,0,0,0,1-.1c.7-.1,1.3-.3,2-.4a7.74,7.74,0,0,0,1.6-.7,1.67,1.67,0,0,0,.9-1.1,5.24,5.24,0,0,0,.1-3.5,7.74,7.74,0,0,0-.7-1.6c-.2-.4-.5-.7-.7-1.1a1.61,1.61,0,0,1-.3-.9,6.6,6.6,0,0,1,.1-1.4,2.88,2.88,0,0,0-.1-1.3,2.54,2.54,0,0,0-.8-1,12.13,12.13,0,0,0-1.4-1c-.4-.2-.6-.3-.6-.2s-.1.2-.2.6a6.72,6.72,0,0,1-.6,1.2c-.2.4-.4.7-.5.9a1.76,1.76,0,0,1-.4.5c-.1.1-.2.1-.2,0a7.76,7.76,0,0,1,.4-.7,4.71,4.71,0,0,0,.6-1.5,3.33,3.33,0,0,0,.1-1.4.68.68,0,0,0-.4-.6l-.9-.3a1.7,1.7,0,0,0-1,0,1.61,1.61,0,0,0-.7.4,1.08,1.08,0,0,0-.2.8v1.6a3.59,3.59,0,0,1-.7,1.8,6.12,6.12,0,0,1-1.7,1.5,3.51,3.51,0,0,1-1.4.6,2.14,2.14,0,0,1-.6.1c0-.1.2-.2.3-.4a2.51,2.51,0,0,0,.4-.7,2.66,2.66,0,0,0,.3-1.2,5,5,0,0,0-.2-1.7,5.78,5.78,0,0,0-.5-1.4l-.3-.6a3.39,3.39,0,0,1-.6-.6,9.5,9.5,0,0,1-1-1.7c-.4-.9-.7-1.8-1-2.7s-.3-1.2-.4-1.5a3.55,3.55,0,0,0-.4-.9l-.6-.6a1,1,0,0,1-.4-.5c-.1-.1-.2-.3-.3-.4s-.4-.2-.4-.3c.2,0,.3.1.4.1s.3.2.5.3a2.19,2.19,0,0,1,.5.3C82.8,69.2,82.9,69.2,82.9,68.9Z" transform="translate(-3.78 0.09)" fill="none" stroke="#1a1a18" stroke-miterlimit="22.93" stroke-width="0.22"/><path d="M83.7,68.8a4.53,4.53,0,0,1,.3-1.6,8,8,0,0,1,.8-1.6,6.47,6.47,0,0,1,.8-.9,2.19,2.19,0,0,1,.5-.3.6.6,0,0,1,.4-.1c.1,0,.1,0,0,.2a2.77,2.77,0,0,0-.1.9,12.1,12.1,0,0,0,.1,1.9l.3,1.2a3.33,3.33,0,0,0,.3.6c.1.1.1.2-.1.2H85c-.4,0-.7-.1-.9-.1S83.7,69.2,83.7,68.8Z" transform="translate(-3.78 0.09)" fill="#5c0501" fill-rule="evenodd"/><path d="M83.7,68.8a4.53,4.53,0,0,1,.3-1.6,8,8,0,0,1,.8-1.6,6.47,6.47,0,0,1,.8-.9,2.19,2.19,0,0,1,.5-.3.6.6,0,0,1,.4-.1c.1,0,.1,0,0,.2a2.77,2.77,0,0,0-.1.9,12.1,12.1,0,0,0,.1,1.9l.3,1.2a3.33,3.33,0,0,0,.3.6c.1.1.1.2-.1.2H85c-.4,0-.7-.1-.9-.1S83.7,69.2,83.7,68.8Z" transform="translate(-3.78 0.09)" fill="none" stroke="#5c0501" stroke-miterlimit="22.93" stroke-width="0.57"/><path d="M85.2,70.5c-.1.3-.1.6-.2.9a.9.9,0,0,0-.1.5v.2l-.2-.2a2.19,2.19,0,0,1-.3-.5l-.3-.6c-.1-.1-.1-.2-.2-.4s0-.2.1-.2.3-.1.4-.1h.5C85.1,70.2,85.2,70.2,85.2,70.5Z" transform="translate(-3.78 0.09)" fill="#fff" fill-rule="evenodd"/><path d="M85.2,70.5c-.1.3-.1.6-.2.9a.9.9,0,0,0-.1.5v.2l-.2-.2a2.19,2.19,0,0,1-.3-.5l-.3-.6c-.1-.1-.1-.2-.2-.4s0-.2.1-.2.3-.1.4-.1h.5C85.1,70.2,85.2,70.2,85.2,70.5Z" transform="translate(-3.78 0.09)" fill="none" stroke="#fff" stroke-miterlimit="22.93" stroke-width="0.57"/><path d="M84.8,73.9a16.32,16.32,0,0,0,.9,1.9,4.44,4.44,0,0,0,.8,1.1,2.09,2.09,0,0,0,.6.4c.2.1.4.2.3.2a1.19,1.19,0,0,1-.6-.2,4.3,4.3,0,0,1-1-.9,8.26,8.26,0,0,1-.7-1.3,3.55,3.55,0,0,1-.4-.9,2.35,2.35,0,0,1-.2-.8c0-.2-.1-.3-.1-.5A2.18,2.18,0,0,0,84.8,73.9Z" transform="translate(-3.78 0.09)" fill="#fff" fill-rule="evenodd"/><path d="M84.8,73.9a16.32,16.32,0,0,0,.9,1.9,4.44,4.44,0,0,0,.8,1.1,2.09,2.09,0,0,0,.6.4c.2.1.4.2.3.2a1.19,1.19,0,0,1-.6-.2,4.3,4.3,0,0,1-1-.9,8.26,8.26,0,0,1-.7-1.3,3.55,3.55,0,0,1-.4-.9,2.35,2.35,0,0,1-.2-.8c0-.2-.1-.3-.1-.5A2.18,2.18,0,0,0,84.8,73.9Z" transform="translate(-3.78 0.09)" fill="none" stroke="#fff" stroke-miterlimit="22.93" stroke-width="0.57"/><path d="M88.2,70.1c.1,0,.2.2.2.4s-.1.4-.2.4-.2-.2-.2-.4S88.1,70.1,88.2,70.1Z" transform="translate(-3.78 0.09)" fill="#fff" fill-rule="evenodd"/><path d="M88.2,70.1c.1,0,.2.2.2.4s-.1.4-.2.4-.2-.2-.2-.4S88.1,70.1,88.2,70.1Z" transform="translate(-3.78 0.09)" fill="none" stroke="#fff" stroke-miterlimit="22.93" stroke-width="0.57"/><g clip-path="url(#m)"><rect x="83.92" y="69.59" width="3.5" height="8.2" fill="url(#n)"/></g><path d="M89.2,69.8c.3-.1.6-.1.9-.2s.3,0,.5.3a4.14,4.14,0,0,1,.5,1.9,9.82,9.82,0,0,1-.3,3.4,4.14,4.14,0,0,1-.9,2,1.39,1.39,0,0,1-1,.5,2,2,0,0,1-.8-.1.78.78,0,0,1-.4-.4,1.43,1.43,0,0,1,.2-.7A9.91,9.91,0,0,0,89,74.8a7.94,7.94,0,0,0,.6-2.2,2.88,2.88,0,0,0-.1-1.3,4.05,4.05,0,0,0-.5-.9.76.76,0,0,1-.2-.5.1.1,0,0,1,.1-.1C89,69.9,89.1,69.8,89.2,69.8Z" transform="translate(-3.78 0.09)" fill="none" stroke="#1a1a18" stroke-miterlimit="22.93" stroke-width="0.57"/><path d="M87.8,78.6c.1-.1.3,0,.5,0h.8a1.42,1.42,0,0,0,.6-.2c.1-.1.2-.2.2-.1v1a3.17,3.17,0,0,1-.4,1.6,6.89,6.89,0,0,1-1.1,1.3,2.8,2.8,0,0,1-.8.5c-.1,0,0-.3.1-.6s.2-.7.3-1a4.1,4.1,0,0,0,.1-1.1,2.35,2.35,0,0,0-.2-.8A2.18,2.18,0,0,0,87.8,78.6Z" transform="translate(-3.78 0.09)" fill="#5c0501" fill-rule="evenodd"/><path d="M87.8,78.6c.1-.1.3,0,.5,0h.8a1.42,1.42,0,0,0,.6-.2c.1-.1.2-.2.2-.1v1a3.17,3.17,0,0,1-.4,1.6,6.89,6.89,0,0,1-1.1,1.3,2.8,2.8,0,0,1-.8.5c-.1,0,0-.3.1-.6s.2-.7.3-1a4.1,4.1,0,0,0,.1-1.1,2.35,2.35,0,0,0-.2-.8A2.18,2.18,0,0,0,87.8,78.6Z" transform="translate(-3.78 0.09)" fill="none" stroke="#5c0501" stroke-miterlimit="22.93" stroke-width="0.57"/><path d="M91.3,92.7a4,4,0,0,1-.3,1.5,6.57,6.57,0,0,1-1.2,1.7L88.7,97c-.3.2-.3.3-.3.2a2.35,2.35,0,0,0,.2-.8,10.87,10.87,0,0,0,.1-1.8,11,11,0,0,0-.2-1.8,4.05,4.05,0,0,0-.3-1v-.2c.2,0,.4.1.6.1.4.1.9.3,1.3.4a5.07,5.07,0,0,0,.9.2C91.3,92.3,91.3,92.4,91.3,92.7Z" transform="translate(-3.78 0.09)" fill="#1a1a18" fill-rule="evenodd"/><path d="M91.3,92.7a4,4,0,0,1-.3,1.5,6.57,6.57,0,0,1-1.2,1.7L88.7,97c-.3.2-.3.3-.3.2a2.35,2.35,0,0,0,.2-.8,10.87,10.87,0,0,0,.1-1.8,11,11,0,0,0-.2-1.8,4.05,4.05,0,0,0-.3-1v-.2c.2,0,.4.1.6.1.4.1.9.3,1.3.4a5.07,5.07,0,0,0,.9.2C91.3,92.3,91.3,92.4,91.3,92.7Z" transform="translate(-3.78 0.09)" fill="none" stroke="#1a1a18" stroke-miterlimit="22.93" stroke-width="0.57"/><path d="M89.2,92.3a6.6,6.6,0,0,0,.1,1.4,2.85,2.85,0,0,1,0,1.3c-.1.4-.2.7-.1.7s.2,0,.5-.4a8.34,8.34,0,0,0,.8-1.2,1.93,1.93,0,0,0,.3-1v-.5c0-.1,0-.1-.2-.2a3,3,0,0,0-1-.2c-.3,0-.4-.2-.4.1" transform="translate(-3.78 0.09)" fill="#fff" fill-rule="evenodd"/><path d="M92.6,92.8c0,.2.2.7.3,1.2a7.72,7.72,0,0,1,.2,1.5,3.55,3.55,0,0,0,.1.7c0,.1,0,.2.1.1s.4-.5.6-.7a3.1,3.1,0,0,0,.6-1.3,4.87,4.87,0,0,0,.1-1.2c0-.3,0-.4-.1-.4H92.7C92.6,92.6,92.5,92.6,92.6,92.8Z" transform="translate(-3.78 0.09)" fill="#1a1a18" fill-rule="evenodd"/><path d="M92.6,92.8c0,.2.2.7.3,1.2a7.72,7.72,0,0,1,.2,1.5,3.55,3.55,0,0,0,.1.7c0,.1,0,.2.1.1s.4-.5.6-.7a3.1,3.1,0,0,0,.6-1.3,4.87,4.87,0,0,0,.1-1.2c0-.3,0-.4-.1-.4H92.7C92.6,92.6,92.5,92.6,92.6,92.8Z" transform="translate(-3.78 0.09)" fill="none" stroke="#1a1a18" stroke-miterlimit="22.93" stroke-width="0.57"/><path d="M92.9,92.8c0,.2.2.5.2.8s.1.5.2.7a.9.9,0,0,0,.1.5c0,.1,0,.2.1.2s.1-.1.2-.3a1.42,1.42,0,0,0,.2-.6,1.7,1.7,0,0,0,.1-.7v-.5c0-.1,0-.2-.1-.2s-.3-.1-.4-.1a.75.75,0,0,1-.5-.1h-.1v.3" transform="translate(-3.78 0.09)" fill="#fff" fill-rule="evenodd"/><path d="M79,72.4a3,3,0,0,1,1-.2,2.35,2.35,0,0,1,.8.2.54.54,0,0,1,.3.4,1,1,0,0,0-.4-.1,1.1,1.1,0,0,0-.8,0c-.2.1-.3.1-.5.2a.37.37,0,0,1-.3-.1c-.3-.1-.3-.2-.1-.4Z" transform="translate(-3.78 0.09)" fill="#1a1a18" fill-rule="evenodd"/><path d="M79,72.4a3,3,0,0,1,1-.2,2.35,2.35,0,0,1,.8.2.54.54,0,0,1,.3.4,1,1,0,0,0-.4-.1,1.1,1.1,0,0,0-.8,0c-.2.1-.3.1-.5.2a.37.37,0,0,1-.3-.1c-.3-.1-.3-.2-.1-.4Z" transform="translate(-3.78 0.09)" fill="none" stroke="#1a1a18" stroke-miterlimit="22.93" stroke-width="0.57"/><path d="M96.3,66.9a19.27,19.27,0,0,1-.1,2.4c-.1.9-.4,1.6-.4,2.3a4.55,4.55,0,0,0,.5,2c.2.4.4.7.6,1.1a2.19,2.19,0,0,1,.3.5v.2a1.73,1.73,0,0,1-.4-.3,2.18,2.18,0,0,1-.5-.4,2.51,2.51,0,0,1-.4-.7,6.12,6.12,0,0,1-.5-1.2,4.3,4.3,0,0,1,0-1.6c.1-.6.2-1.1.3-1.6a5.16,5.16,0,0,0,.2-1.1v-1c0-.3-.1-.7-.1-1s-.1-.6,0-.6.3,0,.4.1a.22.22,0,0,1,.2.2A2,2,0,0,0,96.3,66.9Z" transform="translate(-3.78 0.09)" fill="#1a1a18" fill-rule="evenodd"/><path d="M96.3,66.9a19.27,19.27,0,0,1-.1,2.4c-.1.9-.4,1.6-.4,2.3a4.55,4.55,0,0,0,.5,2c.2.4.4.7.6,1.1a2.19,2.19,0,0,1,.3.5v.2a1.73,1.73,0,0,1-.4-.3,2.18,2.18,0,0,1-.5-.4,2.51,2.51,0,0,1-.4-.7,6.12,6.12,0,0,1-.5-1.2,4.3,4.3,0,0,1,0-1.6c.1-.6.2-1.1.3-1.6a5.16,5.16,0,0,0,.2-1.1v-1c0-.3-.1-.7-.1-1s-.1-.6,0-.6.3,0,.4.1a.22.22,0,0,1,.2.2A2,2,0,0,0,96.3,66.9Z" transform="translate(-3.78 0.09)" fill="none" stroke="#1a1a18" stroke-miterlimit="22.93" stroke-width="0.22"/><path d="M98.4,75.7a9.43,9.43,0,0,0,1,1,2.34,2.34,0,0,1,.7.7,1.14,1.14,0,0,1,.3.8,2.77,2.77,0,0,1,.1.9v.4a2.18,2.18,0,0,1-.1-.6,2,2,0,0,0-.4-.8c-.2-.3-.6-.5-.8-.8a5.55,5.55,0,0,1-.6-.8,2.35,2.35,0,0,0-.2-.8c-.1-.1-.2-.2-.2-.3S98.2,75.5,98.4,75.7Z" transform="translate(-3.78 0.09)" fill="#1a1a18" fill-rule="evenodd"/><path d="M98.4,75.7a9.43,9.43,0,0,0,1,1,2.34,2.34,0,0,1,.7.7,1.14,1.14,0,0,1,.3.8,2.77,2.77,0,0,1,.1.9v.4a2.18,2.18,0,0,1-.1-.6,2,2,0,0,0-.4-.8c-.2-.3-.6-.5-.8-.8a5.55,5.55,0,0,1-.6-.8,2.35,2.35,0,0,0-.2-.8c-.1-.1-.2-.2-.2-.3S98.2,75.5,98.4,75.7Z" transform="translate(-3.78 0.09)" fill="none" stroke="#1a1a18" stroke-miterlimit="22.93" stroke-width="0.22"/><path d="M98,77.9a1.56,1.56,0,0,1,.8.6,7.46,7.46,0,0,1,.7,1.2c.2.4.3.8.4,1a1,1,0,0,0,.4.5c.2.1.3.2.4.2s-.1.1-.3,0a1.61,1.61,0,0,1-.7-.4,2.18,2.18,0,0,1-.5-.8,3.55,3.55,0,0,1-.4-.9,4.88,4.88,0,0,0-.3-.7c-.1-.2-.2-.3-.3-.5S97.9,77.9,98,77.9Z" transform="translate(-3.78 0.09)" fill="#1a1a18" fill-rule="evenodd"/><path d="M98,77.9a1.56,1.56,0,0,1,.8.6,7.46,7.46,0,0,1,.7,1.2c.2.4.3.8.4,1a1,1,0,0,0,.4.5c.2.1.3.2.4.2s-.1.1-.3,0a1.61,1.61,0,0,1-.7-.4,2.18,2.18,0,0,1-.5-.8,3.55,3.55,0,0,1-.4-.9,4.88,4.88,0,0,0-.3-.7c-.1-.2-.2-.3-.3-.5S97.9,77.9,98,77.9Z" transform="translate(-3.78 0.09)" fill="none" stroke="#1a1a18" stroke-miterlimit="22.93" stroke-width="0.22"/><path d="M94,83.7a.9.9,0,0,0-.5.1c-.2.1-.3.1-.3.2a2.19,2.19,0,0,0,.3.5q.15.3.3.3c.1,0,.2-.1.3-.2s.1-.3,0-.5a.76.76,0,0,0-.1-.4C94.1,83.8,94.1,83.7,94,83.7Z" transform="translate(-3.78 0.09)" fill="#1a1a18" fill-rule="evenodd"/><path d="M94,83.7a.9.9,0,0,0-.5.1c-.2.1-.3.1-.3.2a2.19,2.19,0,0,0,.3.5q.15.3.3.3c.1,0,.2-.1.3-.2s.1-.3,0-.5a.76.76,0,0,0-.1-.4C94.1,83.8,94.1,83.7,94,83.7Z" transform="translate(-3.78 0.09)" fill="none" stroke="#1a1a18" stroke-miterlimit="22.93" stroke-width="0.22"/><path d="M95.6,83.9a1,1,0,0,1,.4.5.66.66,0,0,1-.1.6l-.2.2c-.1,0-.1-.1-.1-.2s-.1-.3-.1-.4a.52.52,0,0,1-.2-.4c0-.1,0-.2.1-.2C95.4,83.8,95.5,83.8,95.6,83.9Z" transform="translate(-3.78 0.09)" fill="#1a1a18" fill-rule="evenodd"/><path d="M95.6,83.9a1,1,0,0,1,.4.5.66.66,0,0,1-.1.6l-.2.2c-.1,0-.1-.1-.1-.2s-.1-.3-.1-.4a.52.52,0,0,1-.2-.4c0-.1,0-.2.1-.2C95.4,83.8,95.5,83.8,95.6,83.9Z" transform="translate(-3.78 0.09)" fill="none" stroke="#1a1a18" stroke-miterlimit="22.93" stroke-width="0.22"/><path d="M91.9,84.2a.35.35,0,0,0-.2.1v.4a.76.76,0,0,0,.1.4.37.37,0,0,0,.3.1h0c.1-.1.1-.2.2-.4v-.4c0-.1,0-.2-.1-.2Z" transform="translate(-3.78 0.09)" fill="#1a1a18" fill-rule="evenodd"/><path d="M91.9,84.2a.35.35,0,0,0-.2.1v.4a.76.76,0,0,0,.1.4.37.37,0,0,0,.3.1h0c.1-.1.1-.2.2-.4v-.4c0-.1,0-.2-.1-.2Z" transform="translate(-3.78 0.09)" fill="none" stroke="#1a1a18" stroke-miterlimit="22.93" stroke-width="0.22"/><g clip-path="url(#o)"><rect x="60.82" y="88.09" width="16.7" height="19.3" fill="url(#p)"/></g><path d="M79.2,104.8a4.35,4.35,0,0,1-.6.7,2.18,2.18,0,0,1-1.5.2,21.72,21.72,0,0,1-2.4-.7,16.18,16.18,0,0,1-1.8-1,5.26,5.26,0,0,1-1.4-1.2,11.08,11.08,0,0,1-.9-1.9c-.3-.7-.6-1.3-.8-1.7a6.15,6.15,0,0,1-.3-1.1,5.94,5.94,0,0,0-.4-.8,4.71,4.71,0,0,0-.3-.9c-.2-.4-.6-.8-.6-1.1s.7-.7,1.3-1.1,1-.9,1.5-1.3a6.63,6.63,0,0,1,1.9-.9c1-.2,2-.3,3-.4a3.06,3.06,0,0,1,2.2.3,6.4,6.4,0,0,1,1.4,2,11.28,11.28,0,0,1,.8,2.4,4.58,4.58,0,0,1,.1,2,12.09,12.09,0,0,1-.5,1.8,3.26,3.26,0,0,0-.3,1v.4c0,.2.1.4.2.4s.3-.1.6-.4a3.79,3.79,0,0,0,.6-1.3c.2-.5.3-1,.6-1.7a15.05,15.05,0,0,1,1.1-2.2,5,5,0,0,1,1.4-1.5,20,20,0,0,1,2.4-1.6,15.12,15.12,0,0,0,1.6-.9c.3-.2.3-.3.2-.3a1.61,1.61,0,0,0-.7.4c-.4.2-.9.4-1.4.6-.3.1-.2-.1.2-.3a5.67,5.67,0,0,1,1.3-.8c.4-.2.5-.2.5-.3s-.2-.3-.4-.3-.3.1-.8.5-1.4,1.1-2.4,2-2.1,1.8-2.6,2.3-.4.3-.4,0a6.1,6.1,0,0,0,0-3.1,2.77,2.77,0,0,1-.1-.9,3.4,3.4,0,0,0-.1-1c-.1-.5-.3-.9-.4-1.4s-.2-.6-.4-.7a2.91,2.91,0,0,0-1.4-.4c-.7-.1-1.7-.1-2.8-.2s-2.2-.2-3-.2H71.5l-1.9.3c-.6.2-1.3.4-1.9.6a7.14,7.14,0,0,0-1.5.8,2.14,2.14,0,0,0-1.2.8c-.2.3-.2.8,0,1.8a20,20,0,0,0,.9,3.5,6.11,6.11,0,0,0,1.3,2.2c.5.5,1,.8,1.4,1.2a4.19,4.19,0,0,1,.9,1.4,8.39,8.39,0,0,0,1,2.3,12.47,12.47,0,0,0,2.3,2.3,5.08,5.08,0,0,0,1.3.9,11.28,11.28,0,0,0,2.4.8,4.12,4.12,0,0,0,2.2-.1,2.36,2.36,0,0,0,.9-.8,1.27,1.27,0,0,0,.1-.6.9.9,0,0,0-.1-.5C79.5,104.9,79.3,104.7,79.2,104.8Z" transform="translate(-3.78 0.09)" fill="#1a1a18" fill-rule="evenodd"/><path d="M79.2,104.8a4.35,4.35,0,0,1-.6.7,2.18,2.18,0,0,1-1.5.2,21.72,21.72,0,0,1-2.4-.7,16.18,16.18,0,0,1-1.8-1,5.26,5.26,0,0,1-1.4-1.2,11.08,11.08,0,0,1-.9-1.9c-.3-.7-.6-1.3-.8-1.7a6.15,6.15,0,0,1-.3-1.1,5.94,5.94,0,0,0-.4-.8,4.71,4.71,0,0,0-.3-.9c-.2-.4-.6-.8-.6-1.1s.7-.7,1.3-1.1,1-.9,1.5-1.3a6.63,6.63,0,0,1,1.9-.9c1-.2,2-.3,3-.4a3.06,3.06,0,0,1,2.2.3,6.4,6.4,0,0,1,1.4,2,11.28,11.28,0,0,1,.8,2.4,4.58,4.58,0,0,1,.1,2,12.09,12.09,0,0,1-.5,1.8,3.26,3.26,0,0,0-.3,1v.4c0,.2.1.4.2.4s.3-.1.6-.4a3.79,3.79,0,0,0,.6-1.3c.2-.5.3-1,.6-1.7a15.05,15.05,0,0,1,1.1-2.2,5,5,0,0,1,1.4-1.5,20,20,0,0,1,2.4-1.6,15.12,15.12,0,0,0,1.6-.9c.3-.2.3-.3.2-.3a1.61,1.61,0,0,0-.7.4c-.4.2-.9.4-1.4.6-.3.1-.2-.1.2-.3a5.67,5.67,0,0,1,1.3-.8c.4-.2.5-.2.5-.3s-.2-.3-.4-.3-.3.1-.8.5-1.4,1.1-2.4,2-2.1,1.8-2.6,2.3-.4.3-.4,0a6.1,6.1,0,0,0,0-3.1,2.77,2.77,0,0,1-.1-.9,3.4,3.4,0,0,0-.1-1c-.1-.5-.3-.9-.4-1.4s-.2-.6-.4-.7a2.91,2.91,0,0,0-1.4-.4c-.7-.1-1.7-.1-2.8-.2s-2.2-.2-3-.2H71.5l-1.9.3c-.6.2-1.3.4-1.9.6a7.14,7.14,0,0,0-1.5.8,2.14,2.14,0,0,0-1.2.8c-.2.3-.2.8,0,1.8a20,20,0,0,0,.9,3.5,6.11,6.11,0,0,0,1.3,2.2c.5.5,1,.8,1.4,1.2a4.19,4.19,0,0,1,.9,1.4,8.39,8.39,0,0,0,1,2.3,12.47,12.47,0,0,0,2.3,2.3,5.08,5.08,0,0,0,1.3.9,11.28,11.28,0,0,0,2.4.8,4.12,4.12,0,0,0,2.2-.1,2.36,2.36,0,0,0,.9-.8,1.27,1.27,0,0,0,.1-.6.9.9,0,0,0-.1-.5C79.5,104.9,79.3,104.7,79.2,104.8Z" transform="translate(-3.78 0.09)" fill="none" stroke="#1a1a18" stroke-miterlimit="22.93" stroke-width="0.22"/><path d="M77.8,88.9c-.4,0-1.3-.1-1.7-.1s-.4,0-.2.2a2.65,2.65,0,0,1,.5.6c.1.2.1.2.2.2l.4-.4c.2-.1.3-.2.5-.2s.3,0,.4-.1S78.1,89,77.8,88.9Z" transform="translate(-3.78 0.09)" fill="#ecb24d" fill-rule="evenodd"/><path d="M77.8,88.9c-.4,0-1.3-.1-1.7-.1s-.4,0-.2.2a2.65,2.65,0,0,1,.5.6c.1.2.1.2.2.2l.4-.4c.2-.1.3-.2.5-.2s.3,0,.4-.1S78.1,89,77.8,88.9Z" transform="translate(-3.78 0.09)" fill="none" stroke="#1a1a18" stroke-miterlimit="22.93" stroke-width="0.22"/><path d="M79.1,89.2a5,5,0,0,0-1.2.2c-.3.1-.5.1-.4.2s.4.3.6.4.5.4.7.5a.31.31,0,0,0,.2.1c.1,0,.2-.1.3-.1s.2,0,.2-.1a.75.75,0,0,0-.1-.5c-.1-.1-.1-.3-.2-.4C79.3,89.3,79.3,89.2,79.1,89.2Z" transform="translate(-3.78 0.09)" fill="#ecb24d" fill-rule="evenodd"/><path d="M79.1,89.2a5,5,0,0,0-1.2.2c-.3.1-.5.1-.4.2s.4.3.6.4.5.4.7.5a.31.31,0,0,0,.2.1c.1,0,.2-.1.3-.1s.2,0,.2-.1a.75.75,0,0,0-.1-.5c-.1-.1-.1-.3-.2-.4C79.3,89.3,79.3,89.2,79.1,89.2Z" transform="translate(-3.78 0.09)" fill="none" stroke="#1a1a18" stroke-miterlimit="22.93" stroke-width="0.22"/><path d="M79.6,90.8h-.4a.19.19,0,0,0,0,.3c.1.1.2.3.3.4s.1.3.2.3.1.1.2,0,.1-.1.2-.2v-.3c0-.1-.1-.1-.1-.2s-.1-.1-.1-.2C79.8,91,79.7,90.9,79.6,90.8Z" transform="translate(-3.78 0.09)" fill="#ecb24d" fill-rule="evenodd"/><path d="M79.6,90.8h-.4a.19.19,0,0,0,0,.3c.1.1.2.3.3.4s.1.3.2.3.1.1.2,0,.1-.1.2-.2v-.3c0-.1-.1-.1-.1-.2s-.1-.1-.1-.2C79.8,91,79.7,90.9,79.6,90.8Z" transform="translate(-3.78 0.09)" fill="none" stroke="#1a1a18" stroke-miterlimit="22.93" stroke-width="0.22"/><path d="M80.3,92.5h-.2c-.1,0-.1.1-.1.2a.22.22,0,0,0,.2.2h.2c0-.1.1-.1.1-.2S80.4,92.5,80.3,92.5Z" transform="translate(-3.78 0.09)" fill="#ecb24d" fill-rule="evenodd"/><path d="M80.3,92.5h-.2c-.1,0-.1.1-.1.2a.22.22,0,0,0,.2.2h.2c0-.1.1-.1.1-.2S80.4,92.5,80.3,92.5Z" transform="translate(-3.78 0.09)" fill="none" stroke="#1a1a18" stroke-miterlimit="22.93" stroke-width="0.22"/><path d="M68.4,92.3a2.61,2.61,0,0,1,.3-.8c.1-.2.1-.5,0-.5a.65.65,0,0,0-.5.2l-.6.6-.3.6a.6.6,0,0,0-.1.4c0,.1.1.3.1.4s.1.2.3.3a2.49,2.49,0,0,0,.8.1,1.88,1.88,0,0,0,.8-.2.55.55,0,0,0,.3-.5c0-.1,0-.2-.1-.2H69a.9.9,0,0,1-.5-.1C68.4,92.6,68.3,92.5,68.4,92.3Z" transform="translate(-3.78 0.09)" fill="#fff" fill-rule="evenodd"/><path d="M68.4,92.3a2.61,2.61,0,0,1,.3-.8c.1-.2.1-.5,0-.5a.65.65,0,0,0-.5.2l-.6.6-.3.6a.6.6,0,0,0-.1.4c0,.1.1.3.1.4s.1.2.3.3a2.49,2.49,0,0,0,.8.1,1.88,1.88,0,0,0,.8-.2.55.55,0,0,0,.3-.5c0-.1,0-.2-.1-.2H69a.9.9,0,0,1-.5-.1C68.4,92.6,68.3,92.5,68.4,92.3Z" transform="translate(-3.78 0.09)" fill="none" stroke="#1a1a18" stroke-miterlimit="22.93" stroke-width="0.71"/><path d="M69.8,95a5,5,0,0,0-1.2-.2c-.4,0-.5,0-.4.1a2.93,2.93,0,0,1,.4.8c.1.3.2.6.3.6s.2-.2.4-.3a.78.78,0,0,1,.4-.4c.1-.1.3-.2.3-.3S70.1,95.1,69.8,95Z" transform="translate(-3.78 0.09)" fill="#fff" fill-rule="evenodd"/><path d="M69.8,95a5,5,0,0,0-1.2-.2c-.4,0-.5,0-.4.1a2.93,2.93,0,0,1,.4.8c.1.3.2.6.3.6s.2-.2.4-.3a.78.78,0,0,1,.4-.4c.1-.1.3-.2.3-.3S70.1,95.1,69.8,95Z" transform="translate(-3.78 0.09)" fill="none" stroke="#1a1a18" stroke-miterlimit="22.93" stroke-width="0.71"/><path d="M71.7,97.5H70.4c-.4,0-.8-.1-.9,0s-.1.2,0,.5a3.11,3.11,0,0,0,.4.6c.1.2.3.2.5.2a1.45,1.45,0,0,0,.7-.2,1.38,1.38,0,0,0,.4-.3c.1-.1.2-.2.2-.3s.1-.2.1-.3C72,97.6,72,97.5,71.7,97.5Z" transform="translate(-3.78 0.09)" fill="#fff" fill-rule="evenodd"/><path d="M71.7,97.5H70.4c-.4,0-.8-.1-.9,0s-.1.2,0,.5a3.11,3.11,0,0,0,.4.6c.1.2.3.2.5.2a1.45,1.45,0,0,0,.7-.2,1.38,1.38,0,0,0,.4-.3c.1-.1.2-.2.2-.3s.1-.2.1-.3C72,97.6,72,97.5,71.7,97.5Z" transform="translate(-3.78 0.09)" fill="none" stroke="#1a1a18" stroke-miterlimit="22.93" stroke-width="0.71"/><path d="M73.3,100.7a2.92,2.92,0,0,1-.9.2h-.8c-.2,0-.2,0-.2.2a1.42,1.42,0,0,0,.2.6c.1.2.2.3.4.3a2.77,2.77,0,0,0,.9-.1,1,1,0,0,0,.5-.4.52.52,0,0,0,.2-.4.37.37,0,0,0-.1-.3C73.6,100.7,73.6,100.7,73.3,100.7Z" transform="translate(-3.78 0.09)" fill="#fff" fill-rule="evenodd"/><path d="M73.3,100.7a2.92,2.92,0,0,1-.9.2h-.8c-.2,0-.2,0-.2.2a1.42,1.42,0,0,0,.2.6c.1.2.2.3.4.3a2.77,2.77,0,0,0,.9-.1,1,1,0,0,0,.5-.4.52.52,0,0,0,.2-.4.37.37,0,0,0-.1-.3C73.6,100.7,73.6,100.7,73.3,100.7Z" transform="translate(-3.78 0.09)" fill="none" stroke="#1a1a18" stroke-miterlimit="22.93" stroke-width="0.71"/><path d="M74.8,101.7a1.85,1.85,0,0,0-.7.2l-.6.3a1.27,1.27,0,0,1-.6.1.52.52,0,0,0-.4.2c-.1.1,0,.2.1.3s.5.2.7.3a1.88,1.88,0,0,0,.8.2,2.09,2.09,0,0,0,.6-.4c.1-.2.2-.3.3-.5s.1-.2,0-.3C75,101.8,75,101.7,74.8,101.7Z" transform="translate(-3.78 0.09)" fill="#fff" fill-rule="evenodd"/><path d="M74.8,101.7a1.85,1.85,0,0,0-.7.2l-.6.3a1.27,1.27,0,0,1-.6.1.52.52,0,0,0-.4.2c-.1.1,0,.2.1.3s.5.2.7.3a1.88,1.88,0,0,0,.8.2,2.09,2.09,0,0,0,.6-.4c.1-.2.2-.3.3-.5s.1-.2,0-.3C75,101.8,75,101.7,74.8,101.7Z" transform="translate(-3.78 0.09)" fill="none" stroke="#1a1a18" stroke-miterlimit="22.93" stroke-width="0.71"/><path d="M76.3,102.2a.48.48,0,0,0-.6.2,1.33,1.33,0,0,0-.3.8.45.45,0,0,0,0,.5,3.13,3.13,0,0,0,1,.5,4.15,4.15,0,0,0,1.6.3,2.38,2.38,0,0,0,1.1-.6,3,3,0,0,0,.5-.7c.1-.1.2-.3.3-.4s0-.2-.2-.2a3.09,3.09,0,0,0-.8.2,2.77,2.77,0,0,1-.9.1,1.45,1.45,0,0,1-.7-.2c-.2-.1-.3-.2-.5-.3A.65.65,0,0,0,76.3,102.2Z" transform="translate(-3.78 0.09)" fill="#fff" fill-rule="evenodd"/><path d="M76.3,102.2a.48.48,0,0,0-.6.2,1.33,1.33,0,0,0-.3.8.45.45,0,0,0,0,.5,3.13,3.13,0,0,0,1,.5,4.15,4.15,0,0,0,1.6.3,2.38,2.38,0,0,0,1.1-.6,3,3,0,0,0,.5-.7c.1-.1.2-.3.3-.4s0-.2-.2-.2a3.09,3.09,0,0,0-.8.2,2.77,2.77,0,0,1-.9.1,1.45,1.45,0,0,1-.7-.2c-.2-.1-.3-.2-.5-.3A.65.65,0,0,0,76.3,102.2Z" transform="translate(-3.78 0.09)" fill="none" stroke="#1a1a18" stroke-miterlimit="22.93" stroke-width="0.71"/><path d="M99,90.9a4.35,4.35,0,0,0,.7-.6,3,3,0,0,0,.4-1,7.84,7.84,0,0,1,.5-1.4,3.59,3.59,0,0,1,.7-1,15.38,15.38,0,0,0,1.2-1.3,3.63,3.63,0,0,0,.7-1.7,4.84,4.84,0,0,0,0-1.7c0-.4-.1-.7-.1-.9V80.2a1.4,1.4,0,0,0-.3-.9.49.49,0,0,0-.7.1h0c-.2.2-.1.6-.1,1a5.85,5.85,0,0,0,.2,1.3,5,5,0,0,1,.2,1.2,5.9,5.9,0,0,1-.2,1.4,4.13,4.13,0,0,1-.7,1.1,6.47,6.47,0,0,0-.8.9c-.2.3-.4.4-.4.5s-.1.1-.1,0a1.49,1.49,0,0,0-.1-.6,1.45,1.45,0,0,1-.2-.7,6.37,6.37,0,0,1-.2-.7c0-.1-.2-.2-.3-.2s-.1,0-.1.2.2.6.3,1,.1.8.1,1.2v.8a3.09,3.09,0,0,1-.2.8c-.1.3-.1.6-.2.9a6.37,6.37,0,0,1-.2.7C98.9,90.8,98.9,91,99,90.9Z" transform="translate(-3.78 0.09)" fill="#1a1a18" fill-rule="evenodd"/><path d="M99,90.9a4.35,4.35,0,0,0,.7-.6,3,3,0,0,0,.4-1,7.84,7.84,0,0,1,.5-1.4,3.59,3.59,0,0,1,.7-1,15.38,15.38,0,0,0,1.2-1.3,3.63,3.63,0,0,0,.7-1.7,4.84,4.84,0,0,0,0-1.7c0-.4-.1-.7-.1-.9V80.2a1.4,1.4,0,0,0-.3-.9.49.49,0,0,0-.7.1h0c-.2.2-.1.6-.1,1a5.85,5.85,0,0,0,.2,1.3,5,5,0,0,1,.2,1.2,5.9,5.9,0,0,1-.2,1.4,4.13,4.13,0,0,1-.7,1.1,6.47,6.47,0,0,0-.8.9c-.2.3-.4.4-.4.5s-.1.1-.1,0a1.49,1.49,0,0,0-.1-.6,1.45,1.45,0,0,1-.2-.7,6.37,6.37,0,0,1-.2-.7c0-.1-.2-.2-.3-.2s-.1,0-.1.2.2.6.3,1,.1.8.1,1.2v.8a3.09,3.09,0,0,1-.2.8c-.1.3-.1.6-.2.9a6.37,6.37,0,0,1-.2.7C98.9,90.8,98.9,91,99,90.9Z" transform="translate(-3.78 0.09)" fill="none" stroke="#1a1a18" stroke-miterlimit="22.93" stroke-width="0.22"/><path d="M98.8,67.1c.1.4.1,1.1.2,1.6s.2,1.1.3,1.6,0,1.2.1,1.8a11.27,11.27,0,0,0,.3,1.8,6.11,6.11,0,0,0,.7,1.4l.9,1.2a3.81,3.81,0,0,1,.9,1.3,14.16,14.16,0,0,1,.7,2.2,6.6,6.6,0,0,1,.1,1.4v.8c0,.2.1.4,0,.4a.75.75,0,0,1-.5.1c-.2,0-.3,0-.3-.2s-.1-.5-.1-.8-.1-.9-.1-1.3a5,5,0,0,0-.2-1.2,6.38,6.38,0,0,0-.8-1.4,23.07,23.07,0,0,0-1.4-1.9,10.92,10.92,0,0,1-1.3-1.7,7.17,7.17,0,0,1-.7-2.5c0-1,0-2,.1-3V67.3a2.49,2.49,0,0,1-.1-.8c0-.2.2-.1.4,0A.78.78,0,0,1,98.8,67.1Z" transform="translate(-3.78 0.09)" fill="#1a1a18" fill-rule="evenodd"/><path d="M98.8,67.1c.1.4.1,1.1.2,1.6s.2,1.1.3,1.6,0,1.2.1,1.8a11.27,11.27,0,0,0,.3,1.8,6.11,6.11,0,0,0,.7,1.4l.9,1.2a3.81,3.81,0,0,1,.9,1.3,14.16,14.16,0,0,1,.7,2.2,6.6,6.6,0,0,1,.1,1.4v.8c0,.2.1.4,0,.4a.75.75,0,0,1-.5.1c-.2,0-.3,0-.3-.2s-.1-.5-.1-.8-.1-.9-.1-1.3a5,5,0,0,0-.2-1.2,6.38,6.38,0,0,0-.8-1.4,23.07,23.07,0,0,0-1.4-1.9,10.92,10.92,0,0,1-1.3-1.7,7.17,7.17,0,0,1-.7-2.5c0-1,0-2,.1-3V67.3a2.49,2.49,0,0,1-.1-.8c0-.2.2-.1.4,0A.78.78,0,0,1,98.8,67.1Z" transform="translate(-3.78 0.09)" fill="none" stroke="#1a1a18" stroke-miterlimit="22.93" stroke-width="0.22"/><path d="M98.8,67.8a3.08,3.08,0,0,0-.1,1,6.6,6.6,0,0,1,.1,1.4,7.75,7.75,0,0,0-.1,2.2,9,9,0,0,0,1.2,2.4c.5.6.8,1,1.1,1.3a2.09,2.09,0,0,1,.4.6c.1.1.1.2.1-.2A17,17,0,0,0,101,74c-.3-1.2-.7-2.9-1-3.9l-.6-1.8-.3-.6c-.1,0-.2-.1-.3.1" transform="translate(-3.78 0.09)" fill="#fff" fill-rule="evenodd"/><path d="M78.9,88.4c.1-.1.2-.1.6-.1a4.85,4.85,0,0,1,1.7,0,8.56,8.56,0,0,1,2.3.5,2.92,2.92,0,0,1,1.2.7,1.76,1.76,0,0,1,.5.4c.1.1.1.1.1.2s0,.1-.1.1-.4-.1-.6-.1-.3-.2-.4-.3a2.18,2.18,0,0,0-.8-.5,6.07,6.07,0,0,0-1.8-.5,6.7,6.7,0,0,0-2,0c-.5,0-.6,0-.7-.1S78.8,88.5,78.9,88.4Z" transform="translate(-3.78 0.09)" fill="#1a1a18" fill-rule="evenodd"/><path d="M78.9,88.4c.1-.1.2-.1.6-.1a4.85,4.85,0,0,1,1.7,0,8.56,8.56,0,0,1,2.3.5,2.92,2.92,0,0,1,1.2.7,1.76,1.76,0,0,1,.5.4c.1.1.1.1.1.2s0,.1-.1.1-.4-.1-.6-.1-.3-.2-.4-.3a2.18,2.18,0,0,0-.8-.5,6.07,6.07,0,0,0-1.8-.5,6.7,6.7,0,0,0-2,0c-.5,0-.6,0-.7-.1S78.8,88.5,78.9,88.4Z" transform="translate(-3.78 0.09)" fill="none" stroke="#1a1a18" stroke-miterlimit="22.93" stroke-width="0.22"/><path d="M91.3,86.6c-.5,0-1.8.1-2.7.2l-1.9.3a4.1,4.1,0,0,1-1.1.1,12.1,12.1,0,0,0-1.9-.1,20,20,0,0,0-2.6.5c-1,.4-2.1.8-3.1,1.2a14.48,14.48,0,0,0-3.4,2A13,13,0,0,0,72.7,93c-.3.4-.4.4,0,0s1.2-1,1.8-1.6a9.51,9.51,0,0,1,2-1.5c.8-.4,1.8-.8,2.4-1.1a9.38,9.38,0,0,1,1.5-.6,16,16,0,0,1,2.1-.5,11,11,0,0,1,1.8-.2h1.2c.2,0,.3,0,0,.2-.5.2-.9.4-1.3.6a4.36,4.36,0,0,0-1.1.9,9.27,9.27,0,0,0-1.4,1.4,27.58,27.58,0,0,0-2.8,3.9c-1.2,1.9-2.6,4.4-3.9,6.8s-2.5,4.9-3.2,6.3a9.81,9.81,0,0,0-.7,1.8c0,.1,0,0,.4-.7s1-1.8,2.1-3.9,2.6-5.1,3.9-7.3a44.34,44.34,0,0,1,2.9-4.6,20,20,0,0,1,1.9-2.2c.6-.6,1.2-1.2,1.8-1.7a12.81,12.81,0,0,1,2-1.1,6.92,6.92,0,0,1,3.5-.4c.9.1,2.4.2,3.2.3s.9.1.2,0-2.3-.4-3.2-.5-.9-.2-.8-.2a1.34,1.34,0,0,0,.5-.1,1.88,1.88,0,0,0,.8-.2,6.89,6.89,0,0,1,.8-.3C91.4,86.6,91.8,86.6,91.3,86.6Z" transform="translate(-3.78 0.09)" fill="#1a1a18" fill-rule="evenodd"/><path d="M91.3,86.6c-.5,0-1.8.1-2.7.2l-1.9.3a4.1,4.1,0,0,1-1.1.1,12.1,12.1,0,0,0-1.9-.1,20,20,0,0,0-2.6.5c-1,.4-2.1.8-3.1,1.2a14.48,14.48,0,0,0-3.4,2A13,13,0,0,0,72.7,93c-.3.4-.4.4,0,0s1.2-1,1.8-1.6a9.51,9.51,0,0,1,2-1.5c.8-.4,1.8-.8,2.4-1.1a9.38,9.38,0,0,1,1.5-.6,16,16,0,0,1,2.1-.5,11,11,0,0,1,1.8-.2h1.2c.2,0,.3,0,0,.2-.5.2-.9.4-1.3.6a4.36,4.36,0,0,0-1.1.9,9.27,9.27,0,0,0-1.4,1.4,27.58,27.58,0,0,0-2.8,3.9c-1.2,1.9-2.6,4.4-3.9,6.8s-2.5,4.9-3.2,6.3a9.81,9.81,0,0,0-.7,1.8c0,.1,0,0,.4-.7s1-1.8,2.1-3.9,2.6-5.1,3.9-7.3a44.34,44.34,0,0,1,2.9-4.6,20,20,0,0,1,1.9-2.2c.6-.6,1.2-1.2,1.8-1.7a12.81,12.81,0,0,1,2-1.1,6.92,6.92,0,0,1,3.5-.4c.9.1,2.4.2,3.2.3s.9.1.2,0-2.3-.4-3.2-.5-.9-.2-.8-.2a1.34,1.34,0,0,0,.5-.1,1.88,1.88,0,0,0,.8-.2,6.89,6.89,0,0,1,.8-.3C91.4,86.6,91.8,86.6,91.3,86.6Z" transform="translate(-3.78 0.09)" fill="none" stroke="#1a1a18" stroke-miterlimit="22.93" stroke-width="0.22"/><path d="M89.3,88.9c-.1-.1-4,.4-6.7.8a18.75,18.75,0,0,0-5.9,1.6,39.2,39.2,0,0,0-7,4.4c-2.4,1.9-4.8,4-7,6.1a34.46,34.46,0,0,0-2.6,2.8c-.3.4-.4.4.5-.4s2.5-2.4,4-3.7,2.7-2.4,3.8-3.3a33.35,33.35,0,0,1,3.2-2.4A31.3,31.3,0,0,1,75,92.7a28.33,28.33,0,0,1,3.6-1.6A30.17,30.17,0,0,1,83.3,90C85.8,89.5,89.4,88.9,89.3,88.9Z" transform="translate(-3.78 0.09)" fill="#1a1a18" fill-rule="evenodd"/><path d="M89.3,88.9c-.1-.1-4,.4-6.7.8a18.75,18.75,0,0,0-5.9,1.6,39.2,39.2,0,0,0-7,4.4c-2.4,1.9-4.8,4-7,6.1a34.46,34.46,0,0,0-2.6,2.8c-.3.4-.4.4.5-.4s2.5-2.4,4-3.7,2.7-2.4,3.8-3.3a33.35,33.35,0,0,1,3.2-2.4A31.3,31.3,0,0,1,75,92.7a28.33,28.33,0,0,1,3.6-1.6A30.17,30.17,0,0,1,83.3,90C85.8,89.5,89.4,88.9,89.3,88.9Z" transform="translate(-3.78 0.09)" fill="none" stroke="#1a1a18" stroke-miterlimit="22.93" stroke-width="0.22"/><path d="M81.5,92.1A37.16,37.16,0,0,1,85.4,90a11.28,11.28,0,0,1,2.4-.8c.4-.1.4-.1-.5.2s-2.9,1-4,1.4a4.46,4.46,0,0,0-1.9,1.1L80.3,93Q80,93.15,81.5,92.1Z" transform="translate(-3.78 0.09)" fill="#1a1a18" fill-rule="evenodd"/><path d="M81.5,92.1A37.16,37.16,0,0,1,85.4,90a11.28,11.28,0,0,1,2.4-.8c.4-.1.4-.1-.5.2s-2.9,1-4,1.4a4.46,4.46,0,0,0-1.9,1.1L80.3,93Q80,93.15,81.5,92.1Z" transform="translate(-3.78 0.09)" fill="none" stroke="#1a1a18" stroke-miterlimit="22.93" stroke-width="0.22"/><path d="M74.6,104.7a43.54,43.54,0,0,1,3.2-4.3c1.3-1.5,2.7-3,4.1-4.4a24.43,24.43,0,0,1,2.9-2.7,14.92,14.92,0,0,1,3-1.8,20.94,20.94,0,0,1,3.5-1.3,23.81,23.81,0,0,1,2.6-.5c.5-.1.5-.1-.1.1a33.74,33.74,0,0,0-3.4.9A15,15,0,0,0,87,92.3a5.6,5.6,0,0,0-1.2.9c-.1.1-.1.2.5-.2a22,22,0,0,1,3.1-1.5c1.1-.4,2.3-.8,3.4-1.1a8.51,8.51,0,0,0,1.5-.4c.2-.1.2,0-.3.1s-1.5.4-2.5.8a24.78,24.78,0,0,0-3,1.3,25.86,25.86,0,0,0-3.3,1.7,7,7,0,0,0-2,1.8A34.57,34.57,0,0,0,81,98.8c-.7,1.2-1.5,2.5-2.1,3.8s-1.3,2.7-1.7,3.4-.4.7.5-1,2.7-5.2,3.5-6.9.8-1.7.2-1.2-1.7,1.8-2.8,3-2.1,2.6-2.9,3.7S74.2,105.3,74.6,104.7Z" transform="translate(-3.78 0.09)" fill="#1a1a18" fill-rule="evenodd"/><path d="M74.6,104.7a43.54,43.54,0,0,1,3.2-4.3c1.3-1.5,2.7-3,4.1-4.4a24.43,24.43,0,0,1,2.9-2.7,14.92,14.92,0,0,1,3-1.8,20.94,20.94,0,0,1,3.5-1.3,23.81,23.81,0,0,1,2.6-.5c.5-.1.5-.1-.1.1a33.74,33.74,0,0,0-3.4.9A15,15,0,0,0,87,92.3a5.6,5.6,0,0,0-1.2.9c-.1.1-.1.2.5-.2a22,22,0,0,1,3.1-1.5c1.1-.4,2.3-.8,3.4-1.1a8.51,8.51,0,0,0,1.5-.4c.2-.1.2,0-.3.1s-1.5.4-2.5.8a24.78,24.78,0,0,0-3,1.3,25.86,25.86,0,0,0-3.3,1.7,7,7,0,0,0-2,1.8A34.57,34.57,0,0,0,81,98.8c-.7,1.2-1.5,2.5-2.1,3.8s-1.3,2.7-1.7,3.4-.4.7.5-1,2.7-5.2,3.5-6.9.8-1.7.2-1.2-1.7,1.8-2.8,3-2.1,2.6-2.9,3.7S74.2,105.3,74.6,104.7Z" transform="translate(-3.78 0.09)" fill="none" stroke="#1a1a18" stroke-miterlimit="22.93" stroke-width="0.22"/><path d="M91.6,91.4a27.86,27.86,0,0,0-4.2,3.5,31.06,31.06,0,0,0-3.9,5.4c-1.2,2.1-2.3,4.5-2.9,5.7s-.6,1.2,0,.1,1.9-3.3,2.8-5a28.9,28.9,0,0,1,5.4-7.2c1-1,1.8-1.7,2.5-2.3S92.4,90.8,91.6,91.4Z" transform="translate(-3.78 0.09)" fill="#1a1a18" fill-rule="evenodd"/><path d="M91.6,91.4a27.86,27.86,0,0,0-4.2,3.5,31.06,31.06,0,0,0-3.9,5.4c-1.2,2.1-2.3,4.5-2.9,5.7s-.6,1.2,0,.1,1.9-3.3,2.8-5a28.9,28.9,0,0,1,5.4-7.2c1-1,1.8-1.7,2.5-2.3S92.4,90.8,91.6,91.4Z" transform="translate(-3.78 0.09)" fill="none" stroke="#1a1a18" stroke-miterlimit="22.93" stroke-width="0.22"/><path d="M95.1,90.2a18.66,18.66,0,0,0-3,3.3,55.91,55.91,0,0,0-4.1,6.6c-1.1,2-1.6,3.2-1.9,3.7s-.2.4.5-.9,2-3.6,3.2-5.6a35.2,35.2,0,0,1,3-4.5,11.23,11.23,0,0,1,1.8-2C95.1,90.3,95.5,89.9,95.1,90.2Z" transform="translate(-3.78 0.09)" fill="#1a1a18" fill-rule="evenodd"/><path d="M95.1,90.2a18.66,18.66,0,0,0-3,3.3,55.91,55.91,0,0,0-4.1,6.6c-1.1,2-1.6,3.2-1.9,3.7s-.2.4.5-.9,2-3.6,3.2-5.6a35.2,35.2,0,0,1,3-4.5,11.23,11.23,0,0,1,1.8-2C95.1,90.3,95.5,89.9,95.1,90.2Z" transform="translate(-3.78 0.09)" fill="none" stroke="#1a1a18" stroke-miterlimit="22.93" stroke-width="0.22"/><path d="M95.3,92.5a4.87,4.87,0,0,1,.1,1.2,18,18,0,0,1-.6,3.2,11.79,11.79,0,0,1-.5,1.8c-.1.2,0,.2.2-.2a8.86,8.86,0,0,0,.8-1.7,17.42,17.42,0,0,0,.5-2.2,12.29,12.29,0,0,1,.2-1.3c.1-.3,0-.3.1-.2a2.82,2.82,0,0,1,.6,1c.3.7.8,1.8,1.1,2.7l.6,1.8q.15.45,0-.6c-.1-.7-.6-2-.8-2.9a13.36,13.36,0,0,0-.7-1.8,2.7,2.7,0,0,0-.7-.8.71.71,0,0,0-.6-.3Q95.15,92.2,95.3,92.5Z" transform="translate(-3.78 0.09)" fill="#1a1a18" fill-rule="evenodd"/><path d="M95.3,92.5a4.87,4.87,0,0,1,.1,1.2,18,18,0,0,1-.6,3.2,11.79,11.79,0,0,1-.5,1.8c-.1.2,0,.2.2-.2a8.86,8.86,0,0,0,.8-1.7,17.42,17.42,0,0,0,.5-2.2,12.29,12.29,0,0,1,.2-1.3c.1-.3,0-.3.1-.2a2.82,2.82,0,0,1,.6,1c.3.7.8,1.8,1.1,2.7l.6,1.8q.15.45,0-.6c-.1-.7-.6-2-.8-2.9a13.36,13.36,0,0,0-.7-1.8,2.7,2.7,0,0,0-.7-.8.71.71,0,0,0-.6-.3Q95.15,92.2,95.3,92.5Z" transform="translate(-3.78 0.09)" fill="none" stroke="#1a1a18" stroke-miterlimit="22.93" stroke-width="0.22"/><g clip-path="url(#q)"><rect x="95.22" y="82.89" width="3.6" height="4.6" fill="url(#r)"/></g><path d="M102.2,82.9a2.77,2.77,0,0,0-.9-.1,7.72,7.72,0,0,0-1.5.2,1,1,0,0,0-.8.6,1.78,1.78,0,0,0,.4,1,2,2,0,0,0,.8.4c.2,0,.3.1.5.1s.2.1.1.2-.1.2-.2.3l-.2.2h-.3c-.1,0-.4-.1-.4,0a2.07,2.07,0,0,0,.2.6,1.27,1.27,0,0,1,.1.6c0,.2,0,.3.1.2a4.68,4.68,0,0,0,.5-.6c.3-.4.9-.8,1.3-1.3a3.1,3.1,0,0,0,.6-1.3,1.39,1.39,0,0,0,0-.9A.37.37,0,0,0,102.2,82.9Z" transform="translate(-3.78 0.09)" fill="none" stroke="#1a1a18" stroke-miterlimit="22.93" stroke-width="0.22"/><path d="M47.9,27.5a2.3,2.3,0,0,1,1.4.4c.8.4,1.6.9,2.4,1.4a12.88,12.88,0,0,1,1.7,1.6,9.06,9.06,0,0,1,1.1,1.6c.3.6.5,1.2.7,1.5s.2.4,0,.1a12.83,12.83,0,0,0-.9-1.4,20,20,0,0,0-1.9-2.2,21.1,21.1,0,0,0-2.3-1.9c-.5-.3-1.1-.6-1.6-.9-.5-.1-.8-.2-.6-.2" transform="translate(-3.78 0.09)" fill="#fff" fill-rule="evenodd"/><path d="M88.7,70.1c0,.2.1.4.1.6l.3.6c.1.2.2.3.2.5v.4a.31.31,0,0,0,.2-.1c.1-.1.2,0,.3,0a.22.22,0,0,0,.2-.2v-.6c-.1-.2-.2-.5-.3-.7a1,1,0,0,0-.4-.5.52.52,0,0,0-.4-.2h-.2c-.1,0,0,0,0,.2" transform="translate(-3.78 0.09)" fill="#fff" fill-rule="evenodd"/></svg>