<svg width="24" height="24" viewBox="0 0 24 24" fill="none" xmlns="http://www.w3.org/2000/svg">
<path d="M12 24C18.6274 24 24 18.6274 24 12C24 5.37258 18.6274 0 12 0C5.37258 0 0 5.37258 0 12C0 18.6274 5.37258 24 12 24Z" fill="#0050FF"/>
<path d="M16.3766 12.0001C17.4256 10.884 18 9.44471 18 7.90419C17.9986 7.48712 17.9534 7.07134 17.8652 6.6637L17.7723 6.22815L17.3369 6.13499C16.9293 6.04673 16.5136 6.00154 16.0966 6.00018C14.5999 6.00018 13.1991 6.54319 12.0972 7.53694C12.0763 7.55661 12.0114 7.61562 12.0002 7.62616C10.884 6.57537 9.4444 6 7.90361 6C7.49987 6 7.08254 6.04541 6.66343 6.13499L6.22788 6.22815L6.13494 6.6637C6.04681 7.07129 6.00164 7.487 6.00018 7.90402C6.00018 9.44471 6.5746 10.8839 7.62354 11.9999H7.62337C6.57442 13.116 6 14.5553 6 16.0958C6 16.5001 6.0454 16.9176 6.13476 17.3363L6.2277 17.7719L6.66307 17.865C7.08147 17.9544 7.49879 17.9998 7.90343 17.9998C9.40008 17.9998 10.8009 17.4568 11.9028 16.4631C11.9237 16.4436 11.9886 16.3844 11.9998 16.3738C13.116 17.4246 14.5556 18 16.0964 18C16.5001 18 16.9175 17.9546 17.3366 17.865L17.7719 17.7719L17.8649 17.3363C17.9542 16.917 17.9996 16.4997 17.9996 16.096C18 14.5555 17.4256 13.1163 16.3766 12.0001ZM16.6258 16.0962C16.6258 16.2594 16.6159 16.4266 16.5961 16.5959C16.4269 16.6156 16.2599 16.6256 16.0966 16.6256C14.8771 16.6256 13.7394 16.1575 12.8688 15.3039C13.2073 14.7752 13.4638 14.1991 13.6203 13.5901L12.2895 13.2476C12.0797 14.0629 11.6413 14.8067 11.0225 15.406C10.1672 16.1941 9.07283 16.6254 7.90343 16.6254C7.73989 16.6254 7.57296 16.6156 7.40371 16.5959C7.38426 16.43 7.37441 16.2631 7.37422 16.096C7.37422 14.8072 7.89574 13.6089 8.84281 12.7217L9.56486 12.0001L8.84281 11.2785C7.89574 10.3913 7.37422 9.19297 7.37422 7.90402C7.37422 7.74077 7.38405 7.5736 7.40389 7.40428C7.57314 7.38461 7.74007 7.3746 7.90343 7.3746C9.12287 7.3746 10.2606 7.84269 11.1312 8.69627C10.7927 9.22497 10.5362 9.80106 10.3797 10.41L11.7105 10.7526C11.9203 9.9373 12.3587 9.1935 12.9775 8.59417C13.8328 7.80603 14.9272 7.37477 16.0966 7.37477C16.2601 7.37477 16.427 7.38461 16.5963 7.40428C16.6159 7.5736 16.6258 7.74059 16.6258 7.90419C16.6258 9.19297 16.1043 10.3913 15.1572 11.2785L14.4351 12.0001L15.1572 12.7217C16.1043 13.6089 16.6258 14.8072 16.6258 16.0962Z" fill="white"/>
<path d="M23.5 12C23.5 18.3513 18.3513 23.5 12 23.5C5.64873 23.5 0.5 18.3513 0.5 12C0.5 5.64873 5.64873 0.5 12 0.5C18.3513 0.5 23.5 5.64873 23.5 12Z" stroke="black" stroke-opacity="0.097"/>
</svg>
