<svg width="24" height="24" viewBox="0 0 24 24" fill="none" xmlns="http://www.w3.org/2000/svg">
<path d="M12 24C18.6274 24 24 18.6274 24 12C24 5.37258 18.6274 0 12 0C5.37258 0 0 5.37258 0 12C0 18.6274 5.37258 24 12 24Z" fill="#F5E74B"/>
<path d="M23.5 12C23.5 18.3513 18.3513 23.5 12 23.5C5.64873 23.5 0.5 18.3513 0.5 12C0.5 5.64873 5.64873 0.5 12 0.5C18.3513 0.5 23.5 5.64873 23.5 12Z" stroke="black" stroke-opacity="0.097"/>
<path d="M9.21201 13.9584L10.3119 9.29176H12.3951L13.495 13.9584L14.795 9.29176H16.8865L16.9031 9.37509L19.153 17.4584C20.4866 15.7122 21.1352 13.5384 20.9765 11.3469C20.8177 9.15542 19.8625 7.0978 18.2911 5.56216C16.7197 4.02653 14.6407 3.11905 12.4462 3.01091C10.2518 2.90277 8.09364 3.60144 6.37887 4.97513L9.21201 13.9584ZM15.8366 12.1834L14.745 16.1L14.7283 16.1834H12.3951L11.3535 12.3501L10.3119 16.1834H7.97876L7.9621 16.1L4.94564 6.40845C3.56586 8.15031 2.87908 10.341 3.01749 12.5589C3.1559 14.7767 4.10972 16.865 5.69536 18.4218C7.281 19.9786 9.38639 20.8938 11.6063 20.9913C13.8262 21.0888 16.0037 20.3618 17.7198 18.95L15.8366 12.1834Z" fill="white"/>
</svg>
