<svg width="24" height="24" viewBox="0 0 24 24" fill="none" xmlns="http://www.w3.org/2000/svg">
<path d="M12 24C18.6274 24 24 18.6274 24 12C24 5.37258 18.6274 0 12 0C5.3726 0 1.52588e-05 5.37258 1.52588e-05 12C1.52588e-05 18.6274 5.3726 24 12 24Z" fill="#0041FF"/>
<path d="M12 24C18.6274 24 24 18.6274 24 12C24 5.37258 18.6274 0 12 0C5.3726 0 1.52588e-05 5.37258 1.52588e-05 12C1.52588e-05 18.6274 5.3726 24 12 24Z" fill="url(#paint0_linear)"/>
<mask id="mask0" mask-type="alpha" maskUnits="userSpaceOnUse" x="0" y="0" width="24" height="24">
<path d="M12 24C18.6274 24 24 18.6274 24 12C24 5.37258 18.6274 0 12 0C5.37258 0 0 5.37258 0 12C0 18.6274 5.37258 24 12 24Z" fill="white"/>
</mask>
<g mask="url(#mask0)">
<path d="M12 24C18.6274 24 24 18.6274 24 12C24 5.37258 18.6274 0 12 0C5.37258 0 0 5.37258 0 12C0 18.6274 5.37258 24 12 24Z" fill="#0054FF"/>
<path fill-rule="evenodd" clip-rule="evenodd" d="M18.5478 18.9712C18.9284 18.5906 19.5455 18.5906 19.9262 18.9712L22.3127 21.3578C22.6933 21.7384 22.6933 22.3555 22.3127 22.7361C21.9321 23.1167 21.315 23.1167 20.9343 22.7361L18.5478 20.3496C18.1672 19.9689 18.1672 19.3518 18.5478 18.9712ZM14.8752 15.5423C15.5413 14.8762 16.6176 14.8725 17.2792 15.5341C17.9408 16.1957 17.9371 17.272 17.271 17.9381C16.605 18.6042 15.5287 18.6079 14.8671 17.9463C14.2055 17.2847 14.2091 16.2084 14.8752 15.5423ZM12.2142 18.988C12.5923 18.61 13.2052 18.61 13.5833 18.988C13.9613 19.3661 13.9613 19.979 13.5833 20.3571L11.1619 22.7785C10.7838 23.1566 10.1709 23.1566 9.7928 22.7785C9.41475 22.4005 9.41475 21.7875 9.7928 21.4095L12.2142 18.988ZM9.8352 10.2586C10.2158 9.87798 10.8329 9.87798 11.2136 10.2586L13.6001 12.6451C13.9807 13.0258 13.9807 13.6429 13.6001 14.0235C13.2195 14.4041 12.6024 14.4041 12.2217 14.0235L9.8352 11.637C9.45457 11.2563 9.45457 10.6392 9.8352 10.2586ZM6.1626 6.82967C6.82869 6.16358 7.90499 6.15994 8.56658 6.82153C9.22818 7.48312 9.22453 8.55942 8.55844 9.22551C7.89235 9.8916 6.81605 9.89525 6.15446 9.23365C5.49287 8.57206 5.49651 7.49576 6.1626 6.82967ZM12.2734 1.50361C12.6515 1.12555 13.2644 1.12555 13.6425 1.50361C14.0205 1.88166 14.0205 2.49461 13.6425 2.87266L11.2211 5.29409C10.843 5.67214 10.2301 5.67214 9.85201 5.29409C9.47395 4.91603 9.47395 4.30309 9.85201 3.92504L12.2734 1.50361ZM1.12259 1.546C1.50322 1.16538 2.12033 1.16538 2.50095 1.546L4.88749 3.93254C5.26811 4.31316 5.26811 4.93028 4.88749 5.3109C4.50687 5.69152 3.88976 5.69152 3.50913 5.3109L1.12259 2.92436C0.74197 2.54374 0.74197 1.92662 1.12259 1.546Z" fill="white"/>
</g>
<path d="M23.5 12C23.5 18.3513 18.3513 23.5 12 23.5C5.64874 23.5 0.500015 18.3513 0.500015 12C0.500015 5.64873 5.64874 0.5 12 0.5C18.3513 0.5 23.5 5.64873 23.5 12Z" stroke="white" stroke-opacity="0.3"/>
<defs>
<linearGradient id="paint0_linear" x1="2.14154" y1="12" x2="22.0491" y2="12" gradientUnits="userSpaceOnUse">
<stop stop-color="#7CB7FF"/>
<stop offset="1" stop-color="#BA6DF6"/>
</linearGradient>
</defs>
</svg>
