<svg width="1.5em" viewBox="0 0 24 25" fill="none" xmlns="http://www.w3.org/2000/svg"><circle cx="12" cy="12.5" r="12" fill="#111618"/><g clip-path="url(#prefix__clip0)"><path d="M15.632 7.134l-2.509 3.699a.264.264 0 00.22.411.268.268 0 00.176-.064l2.47-2.127a.1.1 0 01.166.076v6.658a.098.098 0 01-.066.094.1.1 0 01-.11-.03L8.514 6.98a1.278 1.278 0 00-.976-.45h-.26c-.34 0-.665.134-.905.372S6 7.462 6 7.799v9.378c0 .337.135.66.374.898a1.283 1.283 0 001.994-.233l2.509-3.699a.264.264 0 00-.22-.412.268.268 0 00-.176.064l-2.47 2.127a.1.1 0 01-.15-.02.1.1 0 01-.016-.055v-6.66a.099.099 0 01.066-.094.1.1 0 01.11.03l7.463 8.874a1.277 1.277 0 00.976.45h.26a1.285 1.285 0 001.183-.784c.064-.154.097-.32.097-.486V7.799c0-.337-.135-.66-.374-.898a1.283 1.283 0 00-1.994.233z" fill="#fff"/></g><defs><clipPath id="prefix__clip0"><path fill="var(--bg, white)" transform="translate(6 6.488)" d="M0 0h12v12H0z"/></clipPath></defs></svg>