<svg width="24" height="24" viewBox="0 0 24 24" fill="none" xmlns="http://www.w3.org/2000/svg">
<path d="M12 24C18.6274 24 24 18.6274 24 12C24 5.37258 18.6274 0 12 0C5.37258 0 0 5.37258 0 12C0 18.6274 5.37258 24 12 24Z" fill="#03ABBE"/>
<path d="M12.236 18.9176C10.7078 19.074 9.73539 18.3524 9.11025 16.9214C8.5893 15.7068 7.95258 14.5403 7.35059 13.3017C7.53581 13.4099 7.81366 13.5422 8.01046 13.6504C9.44598 14.4682 10.8468 14.0473 11.6108 12.5441C12.3865 11.0288 13.1042 9.48955 13.8451 7.97432C14.0882 7.48126 14.2851 6.95214 14.7134 6.59137C15.5585 5.86983 16.4731 5.91793 17.4223 6.3268C18.5337 7.20468 18.5916 8.04647 17.8507 9.58575C16.6236 12.1111 15.3617 14.6365 14.1461 17.1739C13.7409 18.0518 13.1505 18.6651 12.236 18.9176Z" fill="white"/>
<path d="M9.34178 12.7848C8.29988 12.9411 7.4895 12.412 6.67913 11.8468C6.54021 11.7506 6.50548 11.5943 6.43602 11.462C6.1003 10.7645 5.77615 10.067 5.40569 9.38156C4.94262 8.52774 4.79213 7.69797 5.40569 6.85618C6.04241 6.00236 6.91067 5.8821 7.85996 6.08654C7.97573 6.11059 8.07992 6.14666 8.19569 6.18274C8.76295 6.57959 9.1334 7.14479 9.42282 7.78215C9.73539 8.46761 10.0827 9.12902 10.4184 9.79043C10.9278 10.8006 10.8352 11.3778 10.0827 12.2196C9.87431 12.4721 9.58489 12.5924 9.34178 12.7848Z" fill="white"/>
<path opacity="0.5" d="M12.236 18.9175C13.1505 18.6649 13.7409 18.0516 14.1577 17.1738C15.3733 14.6364 16.6351 12.111 17.8623 9.58559C18.6147 8.04631 18.4411 7.08426 17.4339 6.32665C17.677 6.26652 17.8391 6.26652 18.0128 6.3507C18.962 6.78362 19.4367 7.87795 19.0431 8.90013C18.7421 9.69382 18.3369 10.4514 17.9664 11.2211C16.9361 13.3376 15.9058 15.4661 14.8523 17.5706C14.2966 18.677 13.22 19.2181 12.236 18.9175Z" fill="white"/>
<path opacity="0.5" d="M9.34178 12.7846C9.58489 12.5922 9.86273 12.4719 10.0827 12.2314C10.8352 11.3896 10.9278 10.8124 10.4184 9.80225C10.0827 9.12881 9.72381 8.4674 9.42281 7.79397C9.13339 7.14458 8.76294 6.5914 8.19568 6.19456C8.93659 6.08633 9.4807 6.48317 9.81642 7.07243C10.4531 8.19081 10.9972 9.3573 11.5761 10.4997C11.6224 10.5959 11.6571 10.7282 11.6571 10.8485C11.6687 11.6542 10.6615 12.8207 9.88588 12.8928C9.70065 12.9169 9.51543 12.9289 9.34178 12.7846Z" fill="white"/>
<path d="M23.5 12C23.5 18.3513 18.3513 23.5 12 23.5C5.64873 23.5 0.5 18.3513 0.5 12C0.5 5.64873 5.64873 0.5 12 0.5C18.3513 0.5 23.5 5.64873 23.5 12Z" stroke="white" stroke-opacity="0.3"/>
</svg>
