<svg width="24" height="24" viewBox="0 0 24 24" fill="none" xmlns="http://www.w3.org/2000/svg">
<path d="M12 24C18.6274 24 24 18.6274 24 12C24 5.37258 18.6274 0 12 0C5.37258 0 0 5.37258 0 12C0 18.6274 5.37258 24 12 24Z" fill="#0000FF"/>
<path d="M23.5 12C23.5 18.3513 18.3513 23.5 12 23.5C5.64873 23.5 0.5 18.3513 0.5 12C0.5 5.64873 5.64873 0.5 12 0.5C18.3513 0.5 23.5 5.64873 23.5 12Z" stroke="black" stroke-opacity="0.097"/>
<path d="M18.5861 9.64112V9.60602C18.0919 8.25543 17.1951 7.08937 16.0172 6.26558C14.8393 5.44178 13.437 5 12 5C10.563 5 9.16072 5.44178 7.98279 6.26558C6.80485 7.08937 5.90813 8.25543 5.41393 9.60602V9.64112C4.86202 11.1652 4.86202 12.8348 5.41393 14.3589V14.394C5.90813 15.7446 6.80485 16.9106 7.98279 17.7344C9.16072 18.5582 10.563 19 12 19C13.437 19 14.8393 18.5582 16.0172 17.7344C17.1951 16.9106 18.0919 15.7446 18.5861 14.394V14.3589C19.138 12.8348 19.138 11.1652 18.5861 9.64112V9.64112ZM6.5572 13.4041C6.31398 12.4839 6.31398 11.5161 6.5572 10.5959H7.86179C7.74959 11.5286 7.74959 12.4714 7.86179 13.4041H6.5572ZM7.13234 14.8082H8.11429C8.27892 15.4343 8.51423 16.0396 8.81568 16.6125C8.12782 16.1434 7.55282 15.5271 7.13234 14.8082ZM8.11429 9.19181H7.13234C7.54677 8.47508 8.11442 7.85895 8.79464 7.38754C8.50044 7.96129 8.2722 8.56658 8.11429 9.19181V9.19181ZM11.2846 17.4058C10.4231 16.773 9.81807 15.8509 9.5802 14.8082H11.2846V17.4058ZM11.2846 13.4041H9.2786C9.14771 12.4726 9.14771 11.5274 9.2786 10.5959H11.2846V13.4041ZM11.2846 9.19181H9.5802C9.81807 8.1491 10.4231 7.227 11.2846 6.59423V9.19181ZM16.8396 9.19181H15.8577C15.693 8.56569 15.4577 7.96037 15.1563 7.38754C15.8441 7.85656 16.4191 8.47287 16.8396 9.19181ZM12.6874 6.59423C13.5488 7.227 14.1539 8.1491 14.3917 9.19181H12.6874V6.59423ZM12.6874 17.4058V14.8082H14.3917C14.1539 15.8509 13.5488 16.773 12.6874 17.4058V17.4058ZM14.6933 13.4041H12.6874V10.5959H14.6933C14.8242 11.5274 14.8242 12.4726 14.6933 13.4041ZM15.1773 16.6125C15.4788 16.0396 15.7141 15.4343 15.8787 14.8082H16.8606C16.4402 15.5271 15.8652 16.1434 15.1773 16.6125ZM17.4147 13.4041H16.1102C16.1672 12.9383 16.1953 12.4693 16.1943 12C16.1951 11.5307 16.167 11.0618 16.1102 10.5959H17.4147C17.658 11.5161 17.658 12.4839 17.4147 13.4041Z" fill="white"/>
</svg>
