<?xml version="1.0" encoding="UTF-8"?><svg id="Layer_2" xmlns="http://www.w3.org/2000/svg" viewBox="0 0 87 87"><defs><style>.cls-1{fill:#fff;}.cls-2{fill:#221536;}.cls-3{fill:#3774ba;}</style></defs><g id="Layer_22"><g><circle class="cls-2" cx="43.5" cy="43.5" r="43.5"/><path class="cls-3" d="M23.74,41.81c3.89-3.73,8.75-4.62,13.9-5.57,4.18-.77,7.35-.77,14.34-2.08,0,0,3.05-.57,6.53-2.62,1.72-1.01,2.59-1.83,3.11-2.96,.61-1.33,.53-2.63,.41-3.36-.92-.93-1.9-1.79-2.95-2.57,.15,1.03,.19,2.49-.53,3.89-1.22,2.39-3.99,3.32-8.26,4.15-3.83,.74-9.25,1.48-16.01,1.37,3.44-.89,6.38-1.74,8.69-2.44,6.33-1.93,8.59-2.94,9.66-5.12,.21-.43,.76-1.6,.44-2.94-.58-2.41-3.46-3.33-3.89-3.46-1.83-.41-3.73-.62-5.68-.62-14.38,0-26.03,11.66-26.03,26.03,0,2.71,.42,5.32,1.19,7.78,.55-2.48,1.83-6.34,5.09-9.47Z"/><path class="cls-3" d="M65.41,29.43c-.35,.76-.92,1.81-1.78,2.93-1.15,1.47-2.5,2.63-4.24,3.72-3.92,2.47-8.04,3.48-9.3,3.78-9.65,2.29-11.61,.52-18.04,3.13-4.58,1.86-6.2,3.82-6.95,4.93-.57,.84-2.42,3.82-1.91,7.58,.26,1.93,1.05,3.29,1.89,4.73,1.41,2.43,3.06,4.08,4.22,5.08h0c-.73-1.07-2.46-3.93-2.3-7.81,.05-1.2,.2-3.95,2.14-6.43,1.45-1.86,3.25-2.74,4.2-3.19,1.58-.75,2.87-.97,4-1.17,3.01-.54,5.98-1.24,8.99-1.78,2.4-.43,5.86-1.2,10.08-2.69-.31,.61-.82,1.47-1.63,2.32-2.12,2.22-4.52,2.53-8.39,3.63-4.68,1.33-7.02,1.99-8.96,3.5-.95,.74-4,3.11-4.55,7.04-.8,5.7,4.37,9.86,4.7,10.13,1.9,.44,3.88,.67,5.91,.67,14.38,0,26.03-11.66,26.03-26.03,0-5.18-1.51-10.01-4.12-14.07Z"/><path class="cls-1" d="M54.36,44.96s.05,.09,.08,.13c.55,.96,.83,2,.97,3.09,.08,.65,.11,1.31,.09,1.96-.07,2.12-.78,4-2.16,5.62-1.25,1.47-2.82,2.46-4.63,3.1-.74,.27-1.5,.45-2.3,.6v4.14c0,.49-.18,.91-.5,1.26-.26,.28-.59,.42-.96,.42-.86,0-1.73,.02-2.59,0-.53-.02-.99-.25-1.32-.68-.15-.19-.24-.42-.24-.66,0-.2,0-.4,0-.6v-3.87c-.34-.06-.65-.11-.96-.18-1.49-.31-2.91-.8-4.22-1.59-.72-.44-1.37-.97-1.98-1.58-.04-.04-.06-.09-.09-.12-1.1-1.22-1.8-2.65-2.19-4.24-.07-.28-.13-.56-.18-.84-.05-.29-.05-.59,.07-.87,.19-.43,.52-.68,.99-.74,.1-.01,.21-.01,.31-.01h2.81c.78,0,1.25,.38,1.44,1.14,.11,.45,.27,.89,.41,1.36,.22,.55,.52,1.02,.9,1.45,.68,.76,1.55,1.23,2.52,1.5,1.44,.39,2.9,.49,4.37,.28,1-.14,1.94-.48,2.77-1.08,1.01-.73,1.69-1.68,1.88-2.92s.09-2.45-.75-3.47c0-.01-.01-.03-.02-.04,.7-.21,1.41-.41,2.11-.64,1.23-.4,2.36-.98,3.33-1.85,0-.01,.03-.02,.07-.04Z"/><path class="cls-1" d="M31.79,37.48c-.12-.74-.14-1.48-.08-2.22,.08-.96,.31-1.87,.72-2.75,.65-1.42,1.64-2.56,2.92-3.46,1.34-.94,2.82-1.51,4.42-1.82,.27-.05,.54-.09,.83-.15v-3.98c0-.47,.18-.88,.48-1.22,.24-.27,.55-.43,.93-.43,.9,0,1.79,0,2.69,0,.7,0,1.37,.55,1.5,1.2,.02,.12,.02,.24,.02,.36v4.26c.74,.08,1.45,.21,2.15,.45-.07,.05-.15,.09-.24,.13-1.58,.63-3.2,1.14-4.83,1.64-2.85,.88-5.73,1.69-8.62,2.45-.06,.01-.12,.04-.19,.06,.27,.11,1.73,.09,5.37-.04-.07,.05-.14,.09-.22,.13-1.06,.52-1.76,1.33-2.04,2.49-.13,.55-.13,1.11-.1,1.67-.83,.16-1.66,.32-2.49,.48-1.08,.21-2.15,.46-3.22,.76Z"/><path class="cls-1" d="M43.7,45.42c-.37-.07-.72-.15-1.08-.19-1.79-.24-3.56-.55-5.28-1.16-1.12-.4-2.18-.92-3.1-1.69-.05-.04-.09-.09-.16-.13,.29-.1,.59-.2,.9-.28,1.36-.34,2.74-.54,4.14-.64,1.27-.09,2.54-.17,3.8-.29,.94-.09,1.87-.23,2.81-.35,.1-.01,.2-.02,.33-.04,.79,.17,1.56,.31,2.32,.5,1.2,.3,2.36,.71,3.42,1.35,.4,.24,.77,.54,1.16,.83-.19,.08-.38,.15-.58,.21-2.16,.61-4.35,1.1-6.56,1.49-.62,.11-1.24,.24-1.86,.36-.08,.02-.16,.03-.26,.04Z"/><path class="cls-1" d="M48.74,34.71c-.04-.09-.07-.18-.1-.26-.7-1.55-1.9-2.47-3.55-2.82-.12-.03-.25-.07-.37-.11,1.09-.17,2.2-.29,3.29-.47,1.32-.22,2.63-.5,3.95-.75,.08-.01,.16-.03,.26-.05,.41,.47,.78,.95,1.09,1.47,.33,.57,.59,1.17,.82,1.8,.09,.34,.17,.66,.25,.99,.06,.24,.06,.48,0,.72-.11,.52-.56,.91-1.1,.95-.07,0-.14,0-.22,0-.91,0-1.82-.01-2.73,0-.67,.01-1.23-.43-1.38-.98-.05-.17-.12-.32-.19-.49Z"/></g></g></svg>