<svg width="24" height="24" viewBox="0 0 24 24" fill="none" xmlns="http://www.w3.org/2000/svg">
<path d="M12 24C18.6274 24 24 18.6274 24 12C24 5.37258 18.6274 0 12 0C5.37258 0 0 5.37258 0 12C0 18.6274 5.37258 24 12 24Z" fill="#FCFCFC"/>
<path d="M23.5 12C23.5 18.3513 18.3513 23.5 12 23.5C5.64873 23.5 0.5 18.3513 0.5 12C0.5 5.64873 5.64873 0.5 12 0.5C18.3513 0.5 23.5 5.64873 23.5 12Z" stroke="black" stroke-opacity="0.097"/>
<path d="M16.7428 3.80917L10.5561 7.42752L7.49487 5.61834L13.5989 2L16.7428 3.80917Z" fill="#F3BE32"/>
<path d="M10.556 7.42743V15.6468L12.304 14.5998V22.2253L17.505 8.33048L14.4009 10.1182L16.7427 3.80908L10.556 7.42743Z" fill="#FFD87D"/>
<path d="M7.49487 5.61816V13.7977L10.5561 15.6467V7.42734L7.49487 5.61816Z" fill="#AF862F"/>
<path d="M14.4009 10.1186L15.4938 7.17676L17.505 8.33083L14.4009 10.1186Z" fill="#EDB92B"/>
<path d="M12.304 22.2251L9.19995 20.3547V14.8261L10.5561 15.6465L12.304 14.5996V22.2251Z" fill="#BE943C"/>
</svg>
