<svg xmlns="http://www.w3.org/2000/svg" xmlns:xlink="http://www.w3.org/1999/xlink" width="256" height="256" viewBox="0 0 256 256"><defs><clipPath id="b"><rect width="256" height="256"/></clipPath></defs><g id="a" clip-path="url(#b)"><g transform="translate(-324 -666)"><g transform="translate(324 666)"><circle cx="128" cy="128" r="128" transform="translate(0 256) rotate(-90)" fill="#fff"/><path d="M72.737,103.127s65.91,82.99,67.338,84.741c1.083,1.306,2.665,2.043,3.348,1.651,2.2-1.26,3.863-2.15,4.186-3a3.319,3.319,0,0,0-.353-2.934L0,0S154.964,179.118,162.477,186.5a128.129,128.129,0,0,1-21.814,14.4l-.588.174C131.09,191.263,72.737,103.127,72.737,103.127Z" transform="translate(46.867 40.633)" fill="#ff007a"/><g transform="translate(51.2 128)"><g transform="translate(0 0)"><path d="M155.4,50.38V69.367L178.867,36.3Z" transform="translate(-129.799 7.433)" fill="#3b3735"/><path d="M178.014,53.347,155.4,15.8V43.107Z" transform="translate(-129.799 -15.8)" fill="#3b3735"/><path d="M155.4,29.6V52.853L177.8,39.84Z" transform="translate(-129.799 -0.167)" fill="#1f1d19"/><path d="M143.8,53.347,166.413,15.8V43.107Z" transform="translate(-142.947 -15.8)" fill="#959190"/><path d="M166.3,29.6V52.853L143.9,39.84Z" transform="translate(-142.835 -0.167)" fill="#403c3a"/><path d="M166.867,50.38V69.367L143.4,36.3Z" transform="translate(-143.4 7.433)" fill="#959190"/></g></g><g transform="translate(136.533 51.2)"><ellipse cx="38.827" cy="38.4" rx="38.827" ry="38.4" transform="translate(0)" fill="#1e1a31"/><g transform="translate(19.783 22.306)"><g transform="translate(0 0)"><g transform="translate(0 0)"><g transform="translate(0)"><path d="M13.929,14.189a1.91,1.91,0,0,1,0,3.82H9.039A8.635,8.635,0,0,1,.464,9.315,8.635,8.635,0,0,1,9.039.621h12.61a1.9,1.9,0,0,1,1.884,1.91,1.9,1.9,0,0,1-1.884,1.91H9.039a4.875,4.875,0,0,0,0,9.748Z" transform="translate(-0.464 -0.621)" fill="#fff" fill-rule="evenodd"/><path d="M13.465,13.568a1.91,1.91,0,0,1,0,3.82H8.575A8.635,8.635,0,0,1,0,8.694,8.635,8.635,0,0,1,8.575,0h12.61a1.9,1.9,0,0,1,1.884,1.91,1.9,1.9,0,0,1-1.884,1.91H8.575a4.875,4.875,0,0,0,0,9.748Z" transform="translate(23.069 30.956) rotate(180)" fill="#fff" fill-rule="evenodd"/><path d="M3.766,30.646.7,28.421,19.965,1.167l3.062,2.225Z" transform="translate(-0.394 -0.46)" fill="rgba(255,255,255,0.5)" fill-rule="evenodd"/></g></g></g></g><path d="M7.484,7.048H2.563V10.38H8.338v2.059H0V0H8.321V2.076H2.563V5.04H7.484ZM19.376,2.076h-3.81V12.439H13V2.076H9.244V0H19.376ZM30.96,12.439H28.4V7.108h-5v5.331H20.837V0H23.4V5.04h5V0H30.96Z" transform="translate(46.525 53.267) rotate(-90)" fill="#fff"/></g></g></g></g></svg>