<?xml version="1.0" encoding="UTF-8"?>
<svg width="51px" height="51px" viewBox="0 0 51 51" version="1.1" xmlns="http://www.w3.org/2000/svg" xmlns:xlink="http://www.w3.org/1999/xlink">
    <!-- Generator: Sketch 57.1 (83088) - https://sketch.com -->
    <title>Plush</title>
    <desc>Created with Sketch.</desc>
    <g id="Plush" stroke="none" stroke-width="1" fill="none" fill-rule="evenodd">
        <circle id="Oval" fill="#936AFF" cx="25.5" cy="25.5" r="25.5"></circle>
        <path d="M38.9816,20.7227629 C38.9816,20.7109099 38.97884,20.7017922 38.97884,20.6899392 C38.97884,20.6498212 38.9724,20.6051444 38.96412,20.5641147 C38.9494,20.4291725 38.931,20.2951421 38.91076,20.1601999 C38.89144,20.027993 38.86936,19.8957861 38.83992,19.7681381 C38.83992,19.7553733 38.83716,19.7444321 38.83348,19.732579 C38.77828,19.4426357 38.70468,19.1608983 38.61544,18.886455 C38.57404,18.7515128 38.5308,18.6129236 38.47928,18.4825402 C38.47928,18.4788931 38.47928,18.4752461 38.47744,18.4734225 C38.42776,18.3412156 38.3744,18.2090088 38.31736,18.0813607 C38.264,17.9518892 38.20512,17.8233294 38.149,17.6993285 C38.149,17.6965931 38.14716,17.6938578 38.1444,17.6911225 C38.0938,17.585357 38.04136,17.4832386 37.98432,17.3811202 L37.93188,17.2808253 C37.92544,17.2717076 37.92268,17.2625899 37.91348,17.2552957 C37.72212,16.9006166 37.50316,16.5605258 37.25936,16.2414057 C37.17288,16.1301696 37.0818,16.0189335 36.99256,15.9104327 C36.90056,15.8010201 36.80948,15.6970781 36.71196,15.5913126 C36.62364,15.4937531 36.53256,15.3980171 36.43596,15.3041046 C36.43228,15.2977222 36.42952,15.2922516 36.42032,15.2858692 C36.41664,15.2813103 36.4056,15.2721926 36.40008,15.2676337 C36.30532,15.1718977 36.21424,15.0843676 36.11948,14.9995729 C36.11672,14.9904552 36.10752,14.9877199 36.10384,14.9904552 C36.02104,14.9120428 35.93364,14.835454 35.8444,14.759777 C35.80576,14.7233061 35.76896,14.6923059 35.72664,14.6658645 C35.65028,14.6075111 35.57944,14.548246 35.50308,14.4926279 C35.4764,14.4661865 35.44696,14.4461275 35.42028,14.4288039 C35.31632,14.3558622 35.21604,14.2820087 35.11024,14.2145376 C34.99432,14.1361252 34.87104,14.0595364 34.75236,13.9865947 C34.64656,13.9182118 34.53432,13.8571231 34.42576,13.7951227 C34.39356,13.7759755 34.3632,13.7604753 34.331,13.745887 C34.22796,13.6902689 34.12768,13.6401215 34.02188,13.5908858 C34.01544,13.5817681 34.00072,13.5790328 33.98876,13.5762975 C33.9768,13.5699151 33.96484,13.5617091 33.94736,13.5553267 C33.84708,13.5060911 33.73852,13.4586789 33.62904,13.4121786 C33.61984,13.4094433 33.61616,13.4094433 33.61432,13.4057962 C33.61432,13.4030609 33.60788,13.4003256 33.60236,13.4003256 C33.49656,13.3565605 33.38156,13.3127955 33.26932,13.2717658 C33.24172,13.2562657 33.21044,13.2444126 33.17456,13.2362067 L33.1212,13.2179713 C33.01172,13.1778533 32.905,13.1422942 32.79644,13.1085587 C32.51952,13.0201168 32.23248,12.9499104 31.94636,12.8897335 C31.80468,12.8623804 31.65748,12.8350272 31.51304,12.8140565 C31.41828,12.8003799 31.32076,12.7848798 31.22416,12.7766738 L30.99876,12.7502324 C30.99048,12.7502324 30.97576,12.7502324 30.96472,12.7465854 C30.8488,12.7383794 30.73656,12.7283499 30.61972,12.7237911 C30.47068,12.7146734 30.31428,12.711938 30.1634,12.711938 L21.9018,12.711938 C21.84844,12.711938 21.79508,12.711938 21.74264,12.7092027 C21.68284,12.7073792 21.62304,12.7037321 21.56508,12.700085 C20.86312,12.648114 20.17404,12.4402301 19.5742,12.0709626 C19.28256,11.8913436 19.01392,11.6761656 18.7738,11.4327225 C18.6542,11.3096334 18.49504,11.1774265 18.4334,11.1300144 C18.26688,11.0005428 18.09392,10.9978075 17.93752,11.0005428 C17.6284,11.0069252 17.46648,11.1828971 17.28432,11.4081047 C17.12792,11.6004885 16.98992,11.8056371 16.85652,12.0171681 C16.8096,12.0992276 16.759,12.1803752 16.7176,12.2633464 C16.68448,12.3189645 16.6532,12.3773179 16.6256,12.4356713 C16.59156,12.4976717 16.5612,12.5614957 16.53452,12.6262315 C16.51704,12.6535847 16.50508,12.6809378 16.4968,12.7110263 C16.4646,12.7812327 16.43148,12.8514391 16.40848,12.9252926 C16.38732,12.9772636 16.36616,13.0337934 16.33948,13.0894115 C16.27876,13.270854 16.22172,13.4550319 16.17572,13.6455921 C16.15456,13.7212692 16.13708,13.797858 16.11868,13.873535 C16.10396,13.9501238 16.09568,14.0267126 16.08004,14.105125 C16.07544,14.14889 16.06348,14.1935668 16.0598,14.2373319 C16.05704,14.272891 16.04508,14.304803 16.04508,14.3376267 C16.03956,14.4032743 16.02668,14.4743925 16.02484,14.5409518 C16.0184,14.6111582 16.01196,14.6850117 16.01196,14.7552181 C16.0046,14.855513 16.00092,14.9548961 16.00092,15.0542792 C16.00092,18.2910682 18.64132,20.9114997 21.90272,20.9114997 L26.90476,20.9114997 C27.13752,20.9114997 27.36936,20.8567934 27.57636,20.7510279 C27.8772,20.598762 28.075,20.3079069 28.33076,20.0936406 C28.62884,19.8410799 29.02996,19.7161671 29.41912,19.7161671 C30.41272,19.7161671 31.21772,20.5139673 31.21772,21.5005041 C31.21772,22.4852174 30.41272,23.2839293 29.41912,23.2839293 C29.05388,23.2839293 28.70152,23.1635754 28.40436,22.9556915 C28.10628,22.7468958 27.91308,22.4177463 27.5828,22.247245 C27.37488,22.1396559 27.14028,22.0831261 26.90476,22.0831261 L21.89352,22.0831261 C21.20812,22.0831261 20.55584,22.2016564 19.94036,22.4168345 C18.80416,22.8125434 17.82344,23.5474312 17.12792,24.5002325 C16.42228,25.4676221 16,26.6556605 16,27.9412584 L16,40.9978271 C16,42.0645998 16.6762,42.0901294 17.72316,41.924187 C18.39292,41.7919801 19.03416,41.5868315 19.6386,41.3142118 C20.47028,40.942209 21.23204,40.3568517 21.9018,39.7587295 C23.7142,38.1512763 24.85224,35.813494 24.85224,33.2122097 C24.85224,33.1456504 24.85224,33.0781793 24.8504,33.0143553 C24.85224,33.0107082 24.85224,31.7488164 24.85224,31.7488164 C24.85224,30.940075 25.51556,30.2845113 26.32884,30.2845113 L30.1634,30.2845113 C30.31428,30.2845113 30.47068,30.2808642 30.61972,30.2726582 C30.73656,30.2671876 30.8488,30.2571581 30.96472,30.2489522 C30.97576,30.2462169 30.99048,30.2462169 30.99876,30.2462169 L31.21772,30.2188637 C31.32076,30.2106578 31.41828,30.1960694 31.51212,30.1814811 C31.65748,30.1614221 31.80468,30.1349807 31.94636,30.105804 C32.23248,30.0474507 32.51952,29.9772443 32.79644,29.8888024 C32.905,29.8532433 33.01172,29.818596 33.1212,29.7775663 L33.17456,29.7593309 C33.21044,29.7511249 33.24264,29.7392719 33.26932,29.7246835 C33.38156,29.6836538 33.49656,29.6398888 33.60236,29.5961237 C33.60788,29.5961237 33.61432,29.5933884 33.61432,29.5897413 C33.61616,29.587006 33.61984,29.587006 33.62904,29.5842707 C33.73852,29.5377704 33.84708,29.49127 33.94736,29.4402108 C33.96484,29.4347402 33.9768,29.4256225 33.98876,29.4210636 C34.00072,29.4174165 34.01544,29.4137694 34.02188,29.4055635 C34.12768,29.3554161 34.22796,29.3052686 34.331,29.2505623 C34.3632,29.235974 34.39356,29.2213856 34.42576,29.2013267 C34.53432,29.1393262 34.64656,29.0773257 34.75236,29.0098546 C34.87104,28.9369129 34.99432,28.8603241 35.11116,28.7819117 C35.21604,28.7144406 35.31632,28.6414989 35.41936,28.5676454 C35.44696,28.54941 35.4764,28.529351 35.50216,28.5038214 C35.57944,28.4472916 35.65028,28.38985 35.72664,28.3305848 C35.76896,28.3032317 35.80576,28.2722314 35.8444,28.2375841 C35.93364,28.1600835 36.02196,28.0844065 36.10384,28.0059941 C36.10752,28.0078177 36.11672,28.0059941 36.11948,27.9968764 C36.21424,27.9120817 36.30532,27.8236398 36.39732,27.7324627 C36.40652,27.723345 36.41664,27.7160508 36.42032,27.7096684 C36.42952,27.7041978 36.43228,27.6978154 36.43596,27.691433 C36.53256,27.5984323 36.62364,27.5017845 36.71196,27.4051367 C36.80948,27.2993712 36.90148,27.1945175 36.99256,27.0860166 C37.0818,26.9775158 37.17288,26.8662797 37.25936,26.7541318 C37.50316,26.4350118 37.72212,26.0958327 37.91256,25.7411536 C37.92176,25.7320359 37.92544,25.7238299 37.93188,25.7147122 L37.98432,25.6162409 C38.04136,25.5132107 38.0938,25.4101805 38.1444,25.304415 C38.14716,25.3025915 38.149,25.2998562 38.149,25.2962091 C38.20512,25.1740317 38.264,25.0445601 38.31736,24.9150886 C38.3744,24.7874406 38.42776,24.6552337 38.47744,24.5230268 C38.47928,24.5202915 38.47928,24.5166444 38.47928,24.5139091 C38.5308,24.382614 38.57404,24.2449365 38.61544,24.1099943 C38.70468,23.8346393 38.77828,23.5538136 38.83348,23.2666056 C38.83716,23.2520172 38.83992,23.2392524 38.83992,23.2283112 C38.86936,23.0997514 38.89144,22.9675445 38.91076,22.8362494 C38.931,22.7013072 38.9494,22.5672768 38.96412,22.4314228 C38.97332,22.3913049 38.97884,22.3466281 38.97884,22.3065101 C38.97884,22.2937453 38.98252,22.2855394 38.98252,22.2736864 L39,22.0831261 L39,20.9114997 L38.9816,20.7218512" id="Path" fill="#FFFFFF" fill-rule="nonzero"></path>
    </g>
</svg>
