<svg width="24" height="24" viewBox="0 0 24 24" fill="none" xmlns="http://www.w3.org/2000/svg">
<path d="M12 24C18.6274 24 24 18.6274 24 12C24 5.37258 18.6274 0 12 0C5.37258 0 0 5.37258 0 12C0 18.6274 5.37258 24 12 24Z" fill="#2A68C2"/>
<path d="M23.5 12C23.5 18.3513 18.3513 23.5 12 23.5C5.64873 23.5 0.5 18.3513 0.5 12C0.5 5.64873 5.64873 0.5 12 0.5C18.3513 0.5 23.5 5.64873 23.5 12Z" stroke="black" stroke-opacity="0.097"/>
<path d="M11.7037 6.0324C11.6019 6.07386 11.5863 6.13794 11.6724 6.1681C11.7037 6.1794 11.7506 6.25856 11.778 6.33772C11.8015 6.42064 11.8446 6.50357 11.8759 6.52618C11.9385 6.57895 11.9463 6.78626 11.8837 6.78626C11.8602 6.78626 11.7506 6.68826 11.6411 6.57141C11.1441 6.03994 11.1323 6.0324 10.9132 6.0324C10.6862 6.0324 10.6353 6.08517 10.7253 6.2284C10.7567 6.27741 10.7958 6.3641 10.8075 6.42441C10.8232 6.48849 10.8741 6.59026 10.921 6.65057C10.968 6.71465 11.0267 6.82019 11.0502 6.88427L11.0932 7.00489L10.9132 6.9295C10.8154 6.88804 10.7058 6.8315 10.6706 6.80134C10.5845 6.72596 10.5727 6.73349 10.4201 6.8805C10.2597 7.03127 10.2557 7.06143 10.3614 7.18958C10.4044 7.24235 10.4397 7.31397 10.4397 7.34789C10.4397 7.38182 10.5179 7.56275 10.6197 7.74367C10.7175 7.92837 10.788 8.10176 10.7762 8.12814C10.7371 8.22238 10.5571 8.18845 9.7744 7.93214C9.67657 7.90198 9.47698 7.84544 9.32436 7.80775C9.17566 7.76629 8.99955 7.71729 8.93303 7.69467C8.72171 7.62305 8.4282 7.53636 8.16992 7.46474C7.83337 7.37051 7.56727 7.28758 7.32855 7.20089C7.22289 7.15943 7.07027 7.1142 6.99592 7.10289C6.92156 7.08781 6.79633 7.04635 6.72198 7.01242C6.64763 6.9785 6.49892 6.92573 6.38935 6.90311C6.28368 6.87673 6.16628 6.8315 6.13498 6.80511C6.08019 6.75988 6.04106 6.76365 5.84539 6.83904C5.5558 6.95212 5.53623 6.97473 5.57537 7.12927C5.61841 7.27628 5.82191 7.4082 6.07628 7.44967C6.16237 7.46097 6.30716 7.50244 6.39717 7.54013C6.49109 7.57782 6.64763 7.62305 6.74937 7.63813C6.96852 7.66829 7.08592 7.71729 7.05462 7.77006C7.01548 7.8266 6.43631 7.80775 6.1115 7.7399C5.85322 7.68713 5.78277 7.68336 5.57145 7.7286C5.44231 7.75498 5.2623 7.7889 5.1762 7.80021C5.00793 7.8266 4.93749 7.93591 5.06663 7.98114C5.10576 7.99245 5.17229 8.04145 5.21534 8.08668C5.30143 8.18091 5.7319 8.31661 6.04497 8.3543C6.31499 8.38446 6.48718 8.44477 6.48718 8.50131C6.48718 8.57669 6.38152 8.59931 5.89235 8.61439C5.35622 8.62946 5.21925 8.66339 5.2036 8.78024C5.19577 8.82924 5.2036 8.88201 5.22316 8.90086C5.23882 8.91593 5.48536 8.95739 5.76321 8.99132C6.31499 9.0554 6.56545 9.10817 6.56545 9.15717C6.56545 9.21371 6.44022 9.24386 6.12324 9.26271C5.95496 9.27402 5.81017 9.3004 5.79843 9.31548C5.78669 9.33433 5.84539 9.40971 5.92366 9.48887C6.06454 9.6208 6.08019 9.62833 6.39326 9.64341C6.80416 9.66603 6.83155 9.68864 6.76894 9.98642C6.70633 10.2767 6.70633 10.288 6.82373 10.3294C6.88243 10.352 6.97244 10.4048 7.03114 10.4463C7.08592 10.4877 7.24637 10.6046 7.38334 10.7064C7.52031 10.8119 7.64553 10.8948 7.66119 10.8948C7.69641 10.8948 8.14253 11.2378 8.27558 11.3622C8.32646 11.4112 8.53778 11.5356 8.74519 11.6374C9.29697 11.905 9.61004 12.2028 10.1736 13.0019C10.2244 13.0697 10.334 13.2054 10.424 13.3034C10.5101 13.3977 10.694 13.6125 10.831 13.7784C10.968 13.9442 11.1402 14.1402 11.2145 14.2156C11.3984 14.4078 11.7702 14.8941 11.7702 14.9468C11.7702 14.9695 11.8133 15.0449 11.868 15.1165C12.0441 15.3464 12.0246 15.3803 11.5471 15.7573C11.3045 15.9495 11.2928 15.9533 10.8467 16.0249C10.5962 16.0626 10.2088 16.1078 9.98572 16.1191C9.75875 16.1342 9.56699 16.1606 9.55134 16.1794C9.5396 16.202 9.54742 16.2548 9.5709 16.2963C9.63352 16.4169 9.69613 16.7524 9.69613 16.9446C9.69613 17.1255 9.70787 17.1406 10.1618 17.6871C10.4358 18.0188 10.5179 18.0339 10.831 17.8304C10.8858 17.7927 11.0267 17.7022 11.1441 17.6268C11.2615 17.5515 11.4024 17.461 11.4571 17.4271C11.5119 17.3931 11.6763 17.2876 11.8211 17.1971L12.0872 17.0275L12.5294 17.0539C12.772 17.069 13.0342 17.0954 13.1047 17.1142C13.179 17.1368 13.3943 17.1632 13.5821 17.1783C13.8991 17.2009 13.9304 17.1934 14.0047 17.1217C14.1574 16.9634 14.2748 17.0577 14.2748 17.3328C14.2748 17.51 14.3217 17.5552 14.5722 17.6155C14.7248 17.6532 14.7796 17.6909 14.8813 17.8304C14.9479 17.9246 15.03 18 15.0574 18C15.0887 18 15.1318 17.9322 15.1553 17.8417C15.2335 17.5401 15.437 17.4346 15.5466 17.6419C15.5936 17.7286 15.6327 17.755 15.7227 17.755C15.8636 17.755 15.9066 17.6947 15.8244 17.608C15.7931 17.5741 15.7501 17.4836 15.7344 17.4082C15.7149 17.3328 15.6444 17.2122 15.574 17.1368C15.4527 17.0049 15.437 17.0011 15.1748 17.0011C14.9518 17.0011 14.8852 16.9861 14.8226 16.9257C14.6035 16.7147 14.8031 16.6355 15.6366 16.6054C15.9497 16.5903 16.4702 16.447 16.5289 16.3566C16.5406 16.3377 16.5758 16.3227 16.611 16.3227C16.6736 16.3227 16.8145 16.2435 17.3389 15.9193C17.4837 15.8326 17.7185 15.6819 17.8672 15.5952C18.012 15.5047 18.2312 15.3652 18.3603 15.2823C18.4855 15.2032 18.6264 15.1127 18.6734 15.0901C18.7947 15.0185 19.0256 15.0298 19.1273 15.1089C19.2095 15.173 19.2134 15.1956 19.1821 15.3652C19.1547 15.5085 19.1625 15.5914 19.2095 15.7309C19.3112 16.0173 19.3426 16.0249 19.5187 15.8326C19.6635 15.6706 19.6713 15.6517 19.6752 15.4067C19.6752 15.1504 19.7104 15.0675 19.9178 14.8338C19.9687 14.7772 19.9843 14.6755 19.9922 14.4041L20 14.0497L19.8082 13.8462C19.6713 13.703 19.5226 13.6012 19.2839 13.4881C18.9943 13.3487 18.9082 13.326 18.6421 13.3147C18.4621 13.3034 18.1607 13.326 17.9103 13.3637C17.202 13.473 16.9906 13.4165 16.9006 13.081C16.8693 12.9529 16.7832 12.346 16.6854 11.4979C16.6306 11.0343 16.6619 11.1172 16.1767 10.2352C16.0945 10.092 15.9653 9.90349 15.8871 9.8168C15.8088 9.73011 15.6797 9.57556 15.6053 9.47756C15.5309 9.37579 15.4449 9.27025 15.4175 9.23632C15.3862 9.20617 15.1866 8.94986 14.9713 8.67093C14.4587 8.01129 14.3569 7.89822 14.1104 7.72106C13.8991 7.56651 13.5234 7.26874 13.4138 7.1632C13.3786 7.12927 13.2808 7.05389 13.1986 6.99358C12.9873 6.8428 12.3572 6.34149 12.0755 6.09648C11.9463 5.99094 11.8524 5.97586 11.7037 6.0324Z" fill="white"/>
</svg>
