<svg width="24" height="24" viewBox="0 0 24 24" fill="none" xmlns="http://www.w3.org/2000/svg">
<path d="M12 24C18.6274 24 24 18.6274 24 12C24 5.37258 18.6274 0 12 0C5.37258 0 0 5.37258 0 12C0 18.6274 5.37258 24 12 24Z" fill="#FFB70A"/>
<path d="M23.5 12C23.5 18.3513 18.3513 23.5 12 23.5C5.64873 23.5 0.5 18.3513 0.5 12C0.5 5.64873 5.64873 0.5 12 0.5C18.3513 0.5 23.5 5.64873 23.5 12Z" stroke="white" stroke-opacity="0.3"/>
<path d="M19.5217 8.6379H16.3981C15.5543 7.08442 14.0498 6.30815 12.1578 6.30815C9.01198 6.30815 6.73221 8.48302 6.73221 11.8772C6.73221 15.2723 9.01198 17.4688 12.1578 17.4688C15.0306 17.4688 16.8311 15.782 17.2188 13.1866H14.884C14.5918 13.1866 14.3546 12.9557 14.3546 12.6713V11.6829C14.3546 11.3985 14.5918 11.1676 14.884 11.1676H20V13.1425C19.5217 16.715 16.4212 19.7544 12.1578 19.7544C7.68983 19.7544 4.06476 16.5151 4.06476 11.8772C4.06572 7.26183 7.68983 4 12.1587 4C15.4636 4 18.3133 5.62012 19.5217 8.6379Z" fill="white"/>
<path d="M8.6069 10.83H2.65963C2.2951 10.83 2 10.5428 2 10.1879C2 9.83313 2.2951 9.5459 2.65963 9.5459H8.6069C8.97143 9.5459 9.26653 9.83313 9.26653 10.1879C9.26653 10.5428 8.97047 10.83 8.6069 10.83Z" fill="white"/>
<path d="M8.6069 14.0224H2.65963C2.2951 14.0224 2 13.7351 2 13.3803C2 13.0255 2.2951 12.7383 2.65963 12.7383H8.6069C8.97143 12.7383 9.26653 13.0255 9.26653 13.3803C9.26653 13.7351 8.97047 14.0224 8.6069 14.0224Z" fill="white"/>
</svg>
