<svg width="24" height="24" viewBox="0 0 24 24" fill="none" xmlns="http://www.w3.org/2000/svg">
<path d="M12 24C18.6274 24 24 18.6274 24 12C24 5.37258 18.6274 0 12 0C5.37258 0 0 5.37258 0 12C0 18.6274 5.37258 24 12 24Z" fill="#E0E0E0"/>
<path d="M23.5 12C23.5 18.3513 18.3513 23.5 12 23.5C5.64873 23.5 0.5 18.3513 0.5 12C0.5 5.64873 5.64873 0.5 12 0.5C18.3513 0.5 23.5 5.64873 23.5 12Z" stroke="black" stroke-opacity="0.097"/>
<g clip-path="url(#clip0)">
<path d="M8.96744 17.788H7V5H8.98837V10.2424C9.19767 9.875 9.53953 9.5712 10.0209 9.32391C10.4953 9.07663 11.0465 8.95652 11.6605 8.95652C12.8953 8.95652 13.8581 9.38043 14.5488 10.2212C15.2326 11.062 15.5814 12.1359 15.5814 13.4429C15.5814 14.7712 15.2186 15.8663 14.493 16.7212C13.7674 17.5761 12.7977 18 11.5907 18C10.3837 18 9.51163 17.5478 8.97442 16.6435V17.788H8.96744ZM12.9023 15.4495C13.3279 14.962 13.5372 14.2978 13.5372 13.4641C13.5372 12.6304 13.3279 11.9734 12.9093 11.4929C12.4907 11.0125 11.9395 10.7793 11.2558 10.7793C10.593 10.7793 10.0488 11.0196 9.61628 11.4929C9.18372 11.9734 8.97442 12.6234 8.97442 13.4641C8.97442 14.2908 9.1907 14.9478 9.61628 15.4424C10.0488 15.937 10.593 16.1842 11.2558 16.1842C11.9326 16.1772 12.4767 15.937 12.9023 15.4495Z" fill="black"/>
<path d="M17.4163 18.0001C18.2871 18.0001 18.993 17.2852 18.993 16.4034C18.993 15.5215 18.2871 14.8066 17.4163 14.8066C16.5455 14.8066 15.8395 15.5215 15.8395 16.4034C15.8395 17.2852 16.5455 18.0001 17.4163 18.0001Z" fill="#219BCE"/>
</g>
<defs>
<clipPath id="clip0">
<rect width="12" height="13" fill="white" transform="translate(7 5)"/>
</clipPath>
</defs>
</svg>
