<svg width="24" height="24" viewBox="0 0 24 24" fill="none" xmlns="http://www.w3.org/2000/svg">
<path d="M12 24C18.6274 24 24 18.6274 24 12C24 5.37258 18.6274 0 12 0C5.37258 0 0 5.37258 0 12C0 18.6274 5.37258 24 12 24Z" fill="#F5F5F5"/>
<path d="M23.5 12C23.5 18.3513 18.3513 23.5 12 23.5C5.64873 23.5 0.5 18.3513 0.5 12C0.5 5.64873 5.64873 0.5 12 0.5C18.3513 0.5 23.5 5.64873 23.5 12Z" stroke="black" stroke-opacity="0.097"/>
<path d="M19.9627 11.2535C19.9006 10.2968 19.6334 9.39493 19.2207 8.53841C19.1658 8.42389 19.1085 8.30937 19.0465 8.19963C19.006 8.12566 18.9654 8.0517 18.9248 7.98013C18.8628 7.87038 18.796 7.76302 18.7292 7.65804C18.6385 7.51728 18.5455 7.38128 18.4477 7.24768C18.4238 7.21428 18.3976 7.18087 18.3737 7.14747C17.8989 6.52 17.3335 5.97126 16.6654 5.50602L16.6583 5.50125C16.6416 5.48693 16.6273 5.46784 16.6106 5.45591C15.0502 4.36797 13.3205 3.90035 11.4285 4.01726C11.4095 4.01726 11.3522 4.02203 11.3498 4.02441C11.3474 4.0268 10.8536 4.08645 10.7152 4.10792C9.73698 4.24868 8.82559 4.58986 7.96908 5.10043L7.95953 5.1052C7.95715 5.1052 7.95715 5.1052 7.95715 5.1052C7.8975 5.13383 7.84024 5.16484 7.78298 5.19824C7.6112 5.29606 7.45135 5.41058 7.30104 5.53942L7.28911 5.54896C6.92885 5.78277 6.61154 6.06907 6.31331 6.37446C6.05802 6.6369 5.81467 6.91127 5.59517 7.19996C5.31125 7.57215 5.06551 7.9682 4.87226 8.40242C4.85556 8.42151 4.83886 8.44298 4.82693 8.46207C4.80069 8.50024 4.7816 8.5408 4.76728 8.58375C4.75774 8.61238 4.7482 8.64339 4.74343 8.67441L4.74104 8.67918C4.74104 8.68156 4.74104 8.68156 4.73865 8.68395L4.73627 8.68872C4.46428 9.19213 4.30682 9.7361 4.18991 10.2896C4.11118 10.6594 4.05153 11.0316 4.0229 11.4062C4.01813 11.4611 4.01575 11.5183 4.01097 11.5732C3.98712 11.9979 4.00143 12.4249 4.06108 12.8544C4.06823 12.9117 4.07778 12.9665 4.08494 13.0238C4.08494 13.0429 4.08494 13.0596 4.08732 13.0787C4.08971 13.1144 4.09209 13.1502 4.09448 13.186C4.10402 13.2767 4.11595 13.365 4.13265 13.4532C4.13981 13.4962 4.14935 13.5391 4.1589 13.5821C4.17321 13.6417 4.18753 13.7014 4.20184 13.7586C4.21138 13.7968 4.22331 13.835 4.23286 13.8731C4.23047 13.8779 4.23047 13.8803 4.23047 13.8851C4.23047 13.8898 4.23047 13.8922 4.23286 13.8946C4.23524 13.8994 4.24001 13.9042 4.24717 13.9089C4.29012 14.2262 4.40464 14.5221 4.51677 14.8203C4.80784 15.6053 5.22059 16.3234 5.74548 16.9795C5.82421 16.9222 5.8266 16.8411 5.85045 16.7743C6.5495 14.744 7.24617 12.7112 7.94045 10.6785C7.96908 10.595 8.00009 10.5163 8.03588 10.4399C8.14086 10.2109 8.28401 10.0057 8.4868 9.84108C8.65381 9.75758 8.82082 9.70747 8.98306 9.69077C9.25504 9.66453 9.51987 9.73849 9.77515 9.9389L9.7847 9.94844C9.8849 10.094 9.96602 10.2347 10.2046 10.1417C10.312 10.0988 10.4169 10.0653 10.5219 10.0367C10.5744 10.0224 10.6269 10.0105 10.6794 10.0009C10.7581 9.98423 10.8345 9.9723 10.9108 9.96514C10.9609 9.96037 11.0134 9.9556 11.0635 9.9556C11.5932 9.94129 12.087 10.1298 12.538 10.5568L12.5427 10.5616C12.9746 11.0531 13.0485 11.6209 12.8911 12.2341C12.8386 12.4393 12.7837 12.6444 12.7288 12.852C12.6739 13.0572 12.6167 13.2624 12.5618 13.4676C12.5618 13.4676 12.557 13.4699 12.5547 13.4723L12.5523 13.4747L12.5547 13.4866C12.3018 14.169 12.0489 14.8513 11.796 15.5313C11.7745 15.5909 11.7125 15.6601 11.7673 15.7126C11.8294 15.7723 11.9081 15.715 11.9725 15.6864C12.1944 15.5862 12.402 15.4669 12.5881 15.3261C12.9006 15.0923 13.1559 14.7988 13.342 14.429C13.342 14.429 13.4804 14.2095 13.4875 14.1833C13.4875 14.1809 13.4899 14.1785 13.4899 14.1738C13.5639 14.064 13.6235 13.9447 13.6808 13.8254C13.6927 13.7992 13.7046 13.7753 13.7189 13.7491C13.7309 13.7252 13.7428 13.699 13.7571 13.6751C13.7667 13.656 13.7762 13.6369 13.7857 13.6202C13.8048 13.5821 13.8263 13.5463 13.8478 13.5105C13.8907 13.4389 13.9384 13.3697 13.9933 13.3053C14.01 13.2886 14.0267 13.2743 14.0434 13.2576C14.0601 13.2433 14.0768 13.229 14.0935 13.217C14.1102 13.2051 14.1245 13.1956 14.1412 13.1836L14.1508 13.1789C14.4729 12.9952 14.7854 12.9999 15.0669 13.2528C15.3556 13.5105 15.3819 13.8397 15.2864 14.1905C15.265 14.2692 15.2339 14.3455 15.2005 14.4171C15.0216 14.7893 14.814 15.1472 14.5898 15.4955C14.2128 16.08 13.7667 16.5954 13.1368 16.9175C12.1347 17.4328 11.0683 17.6428 9.94455 17.5616C9.35286 17.5187 8.78026 17.3732 8.20766 17.23C8.01441 17.1823 7.8975 17.23 7.82115 17.4137C7.71856 17.6571 7.60166 17.8957 7.48714 18.1342C7.41318 18.2846 7.43703 18.3991 7.56826 18.5041C8.04065 18.8762 8.54406 19.1769 9.08326 19.4059C9.2622 19.4822 9.44591 19.5514 9.632 19.6111C9.78708 19.6612 9.94455 19.7065 10.1044 19.7447C10.2022 19.7685 10.2977 19.79 10.3979 19.8115C10.4313 19.8163 10.467 19.8186 10.5004 19.8234C10.5028 19.8258 10.5052 19.8282 10.51 19.8306C10.5195 19.8377 10.5267 19.8473 10.5362 19.8473C12.056 20.1503 13.5352 19.9976 14.9763 19.4393C15.0049 19.4274 15.2005 19.3391 15.2411 19.3272C15.2435 19.3272 15.2459 19.3248 15.2483 19.3248C15.2578 19.3224 15.2673 19.3176 15.2769 19.3128C15.3079 19.2985 15.3389 19.2771 15.3699 19.2651C18.4119 17.8957 20.3158 14.5841 19.9627 11.2535Z" fill="#1D0E6B"/>
<path d="M10.3692 11.5111C10.0161 11.473 9.7155 11.6424 9.58905 11.9979C9.21209 13.0524 8.84228 14.1117 8.48679 15.1734C8.34364 15.5981 8.58938 15.9082 9.04031 15.9082C9.45067 15.9059 9.66539 15.6315 9.799 15.2975C9.88251 15.0851 9.95885 14.8704 10.0304 14.6533C10.0543 14.5817 10.0781 14.5101 10.102 14.4362C10.133 14.3455 10.1616 14.2549 10.1927 14.1642C10.2118 14.1093 10.2285 14.0568 10.2475 14.002C10.2547 13.9972 10.2595 13.99 10.2571 13.9829C10.2571 13.9805 10.2571 13.9781 10.2547 13.9757C10.479 13.3912 10.6865 12.7995 10.8535 12.1983C10.9537 11.838 10.7414 11.5493 10.3692 11.5111Z" fill="#1D0E6B"/>
</svg>
