<svg width="283" height="260" viewBox="0 0 283 260" fill="none" xmlns="http://www.w3.org/2000/svg">
<path fill-rule="evenodd" clip-rule="evenodd" d="M120.869 184.856H270.316C279.398 165.051 283.411 143.25 281.983 121.461C280.556 99.6727 273.735 78.5989 262.148 60.1825C250.562 41.7661 234.583 26.5999 215.686 16.0823C196.789 5.56457 175.58 0.0338723 154.017 7.56267e-05H128.403C109.816 -0.0202574 91.4472 4.0597 74.5748 11.9562C57.7024 19.8527 42.7311 31.3762 30.7021 45.7254H154.017C166.093 45.7268 178.024 48.3904 188.982 53.5312C199.939 58.672 209.66 66.1667 217.469 75.4948C225.279 84.8229 230.989 95.7607 234.204 107.549C237.418 119.336 238.061 131.691 236.085 143.756H82.7307C85.0745 153.343 89.8135 162.159 96.4924 169.356C103.171 176.554 111.566 181.892 120.869 184.856V184.856Z" fill="#0085FF"/>
<path fill-rule="evenodd" clip-rule="evenodd" d="M12.0566 75.1442C-27.1178 160.206 33.7627 260 128.403 260H229.211L191.12 214.275H128.403C116.324 214.267 104.392 211.597 93.4351 206.45C82.4778 201.304 72.7576 193.805 64.9492 184.473C57.1408 175.142 51.4312 164.201 48.2167 152.411C45.0023 140.621 44.3599 128.264 46.3343 116.197H199.642C197.295 106.616 192.554 97.8082 185.875 90.6188C179.196 83.4294 170.803 78.1005 161.503 75.1442H12.0566Z" fill="#0085FF"/>
</svg>
