<svg width="24" height="24" viewBox="0 0 24 24" fill="none" xmlns="http://www.w3.org/2000/svg">
<path fill-rule="evenodd" clip-rule="evenodd" d="M0 12C0 5.37259 5.37259 0 12 0C18.6274 0 24 5.37259 24 12C24 18.6274 18.6274 24 12 24C5.37259 24 0 18.6274 0 12Z" fill="#F880B7"/>
<path d="M17.9577 11.4786C17.8649 11.6707 17.7475 11.8753 17.5991 12.0859C17.494 11.962 17.3826 11.8443 17.2652 11.7389L15.5523 10.1896L12.9058 7.94L12.2257 8.58451L10.9395 9.79916L8.52177 12.0921L8.01473 12.5756L6.11023 11.0014L6.17825 10.9395L8.52177 8.71466L10.9395 6.42167L12.2195 5.20701L12.8996 4.5625L15.5523 6.79971L17.2652 8.34902C17.5063 8.56593 17.7227 8.82001 17.8835 9.10509C17.902 9.13607 17.9144 9.16085 17.933 9.19185C18.2174 9.73721 18.4091 10.5056 17.9577 11.4786Z" fill="#FF97C3" stroke="white" stroke-width="1.26424" stroke-miterlimit="10" stroke-linecap="round" stroke-linejoin="round"/>
<path d="M12.8996 16.6158V19.9995L11.3785 18.7414L8.74431 16.5662L6.11017 14.3848L6.17819 14.3228L8.01467 12.5752L8.74431 13.1825L11.3785 15.3578L12.8996 16.6158Z" fill="#DCE8F2" stroke="white" stroke-width="1.26424" stroke-miterlimit="10" stroke-linecap="round" stroke-linejoin="round"/>
<path d="M17.5989 12.0859C17.4628 12.278 17.3082 12.4701 17.1227 12.6746L16.9558 12.8296L12.8994 16.6161L11.3783 15.358L8.74417 13.1828L8.01453 12.5755L8.52157 12.0921L10.9393 9.7991L12.2192 8.58445L12.8994 7.93994L15.546 10.1895L17.2588 11.7388C17.3824 11.8442 17.4937 11.962 17.5989 12.0859Z" fill="#D96C9F" stroke="white" stroke-width="1.26424" stroke-miterlimit="10" stroke-linecap="round" stroke-linejoin="round"/>
<path d="M17.9577 14.8628C17.7845 15.2346 17.5125 15.6312 17.1229 16.0588L16.9559 16.2138L12.8996 20.0003V16.6166L16.9559 12.8301L17.1229 12.6751C17.3084 12.4706 17.4692 12.2785 17.599 12.0864C17.7041 12.2165 17.8031 12.3529 17.8834 12.4954C17.902 12.5264 17.9144 12.5512 17.9329 12.5822C18.2174 13.1214 18.409 13.896 17.9577 14.8628Z" fill="#DCE8F2" stroke="white" stroke-width="1.26424" stroke-miterlimit="10" stroke-linecap="round" stroke-linejoin="round"/>
<path d="M8.01467 12.5756L6.17819 14.3232L6.11017 14.3851V11.0015L8.01467 12.5756Z" fill="#A9A7D9" stroke="white" stroke-width="1.26424" stroke-miterlimit="10" stroke-linecap="round" stroke-linejoin="round"/>
<path d="M23.5 12C23.5 18.3513 18.3513 23.5 12 23.5C5.64873 23.5 0.5 18.3513 0.5 12C0.5 5.64873 5.64873 0.5 12 0.5C18.3513 0.5 23.5 5.64873 23.5 12Z" stroke="white" stroke-opacity="0.3"/>
</svg>
