<?xml version="1.0" encoding="UTF-8"?>
<svg width="25px" height="25px" viewBox="0 0 25 25" version="1.1" xmlns="http://www.w3.org/2000/svg" xmlns:xlink="http://www.w3.org/1999/xlink">
    <!-- Generator: Sketch 64 (93537) - https://sketch.com -->
    <title>Token / ANT</title>
    <desc>Created with Sketch.</desc>
    <defs>
        <linearGradient x1="50%" y1="34.9912676%" x2="50%" y2="101.314437%" id="linearGradient-1">
            <stop stop-color="#01E8F8" offset="0%"></stop>
            <stop stop-color="#01E8F8" stop-opacity="0" offset="100%"></stop>
        </linearGradient>
        <linearGradient x1="50.1076814%" y1="28.2844845%" x2="53.5235263%" y2="115.891306%" id="linearGradient-2">
            <stop stop-color="#01E8F7" offset="0%"></stop>
            <stop stop-color="#00C2FF" offset="100%"></stop>
        </linearGradient>
        <linearGradient x1="32.3557732%" y1="23.1470486%" x2="74.4155571%" y2="78.1497516%" id="linearGradient-3">
            <stop stop-color="#01E8F7" offset="0%"></stop>
            <stop stop-color="#00B3EC" offset="100%"></stop>
        </linearGradient>
        <linearGradient x1="50.4278117%" y1="32.6312862%" x2="53.1731362%" y2="103.038987%" id="linearGradient-4">
            <stop stop-color="#01E8F7" offset="0%"></stop>
            <stop stop-color="#00C2FF" offset="100%"></stop>
        </linearGradient>
    </defs>
    <g id="Token-/-ANT" stroke="none" stroke-width="1" fill="none" fill-rule="evenodd">
        <g id="ANT" fill-rule="nonzero">
            <ellipse id="Oval" fill="#FFFFFF" cx="12.4559859" cy="12.5" rx="12.4559859" ry="12.5"></ellipse>
            <ellipse id="Oval" fill-opacity="0.05" fill="url(#linearGradient-1)" cx="12.4559859" cy="12.5" rx="12.4559859" ry="12.5"></ellipse>
            <path d="M22.1902289,11.6734155 C22.2766725,9.87244718 21.0231514,8.67764965 19.6086268,7.85737676 L18.6890845,13.2783451 C19.3257042,13.2426056 19.6368838,13.4851232 19.750088,13.5992958 C19.8915493,13.7419014 20.2451585,14.1698944 19.8207746,14.8475352 C20.7049296,14.7048415 22.0858275,13.8489437 22.1902289,11.6734155 Z" id="Path" fill="url(#linearGradient-2)"></path>
            <g id="Group" transform="translate(1.672535, 4.137324)">
                <path d="M8.45607394,1.22473592 L7.35977113,0.11915493 C9.01012324,-0.0829489437 13.3647887,0.176214789 17.5802817,2.82962148 C17.6509683,3.11492958 17.5802817,3.54289613 17.5802817,3.54289613 L17.9338908,3.72121479 C18.2404049,4.16107394 18.7614437,5.41170775 18.393662,6.89533451 C18.0258803,8.37896127 17.3916373,9.01135563 17.1205106,9.14216549 C16.5546655,9.14216549 15.5927817,9.47024648 15.2815141,10.9253521 C14.9703345,12.3804577 14.3738556,12.6966549 14.1145246,12.6728873 L7.89022887,12.7441901 L3.78793134,10.3191021 L3.18672535,5.29040493 L4.35377641,3.72121479 L6.4403081,2.00934859 L7.9256162,1.40305458 L8.45607394,1.22473592 Z M15.8072183,3.30200704 C15.5327465,3.58889965 15.2761444,3.7265493 15.2029049,3.76387324 C13.6001761,3.42175176 13.0227993,2.5896919 13.0227993,2.5896919 C14.534507,2.58033451 15.8989437,2.94117077 16.8971831,3.5515757 C16.8971831,3.5515757 16.3568662,3.37583627 15.8072183,3.30200704 L15.8072183,3.30200704 Z" id="Shape" fill="url(#linearGradient-3)"></path>
                <path d="M15.2786972,10.9257923 C14.1762324,11.4669014 12.8692782,11.7801056 11.4677817,11.7801056 C7.52860915,11.7801056 4.33522887,9.30519366 4.33522887,6.2522007 C4.33522887,3.99698944 6.07776408,2.0571831 8.57623239,1.19741197 C3.82448063,1.47119718 0.00600352113,5.28899648 0.00600352113,9.99982394 C0.00600352113,15.4365317 4.85166373,19.9287852 10.8291373,19.9287852 C15.2926056,19.9287852 19.0080106,17.340581 20.9507042,13.8777289 C18.2776408,14.4789613 15.1132923,13.3359155 15.2786972,10.9257923 Z" id="Path" fill="url(#linearGradient-4)"></path>
            </g>
        </g>
    </g>
</svg>