<svg width="115" height="154" viewBox="0 0 115 154" fill="none" xmlns="http://www.w3.org/2000/svg">
<g clip-path="url(#clip0_2_70)">
<path d="M109.5 115.92C103.74 107.92 94.2098 103.51 82.6598 103.51H57.6598L54.0498 114.29H82.6598C90.6598 114.29 97.0698 117.1 100.75 122.21C104.43 127.32 105.04 134.31 102.5 141.88L102.07 143.17H62.4698C54.4698 143.17 48.0498 140.36 44.3798 135.25C40.7098 130.14 40.0798 123.16 42.6198 115.58L66.7798 43.58C70.6198 32.15 69.4298 21.26 63.4298 12.92C57.4298 4.58001 47.4898 -0.00999451 35.4298 -0.00999451H25.9198L2.18978 70.68C-1.24022 80.91 -0.610233 90.94 3.95977 98.91C7.81976 105.466 14.0185 110.318 21.3098 112.49L24.7398 102.27C19.9443 100.953 15.8467 97.8272 13.3098 93.55C10.3098 88.29 9.96978 81.39 12.4098 74.12L33.6698 10.77H35.4298C43.9298 10.77 50.7698 13.77 54.6898 19.22C58.6098 24.67 59.3098 32.1 56.5598 40.16L32.4098 112.16C28.7298 123.16 29.8698 133.56 35.6198 141.56C41.3698 149.56 50.9098 153.96 62.4698 153.96H109.82L112.72 145.32C116.4 134.36 115.25 123.92 109.5 115.92Z" fill="url(#paint0_linear_2_70)"/>
</g>
<defs>
<linearGradient id="paint0_linear_2_70" x1="0.00732251" y1="153.96" x2="151.217" y2="97.6003" gradientUnits="userSpaceOnUse">
<stop stop-color="#85A2F9"/>
<stop offset="1" stop-color="#0FF1A9"/>
</linearGradient>
<clipPath id="clip0_2_70">
<rect width="114.83" height="153.96" fill="white"/>
</clipPath>
</defs>
</svg>
