<?xml version="1.0" encoding="UTF-8"?><svg id="Layer_2" xmlns="http://www.w3.org/2000/svg" viewBox="0 0 87 87"><defs><style>.cls-1{fill:#fff;}.cls-2{fill:#221536;}.cls-3{fill:#f79521;}</style></defs><g id="orbital-btc"><g id="Logo"><circle class="cls-2" cx="43.5" cy="43.5" r="43.5"/><g><g><path class="cls-3" d="M68.45,36.04c-.25-.84-.56-1.65-.89-2.45-.37-.89-.77-1.77-1.23-2.6-.29-.53-.6-1.05-.93-1.56-.18,.38-.41,.83-.7,1.33-.29,.5-.65,1.04-1.09,1.59-.29,.37-.59,.72-.9,1.05-.31,.33-.65,.65-.99,.95-.7,.61-1.47,1.17-2.34,1.72-.6,.38-1.21,.72-1.81,1.03-.04,.02-.09,.05-.13,.07-.6,.31-1.19,.59-1.76,.83-2.55,1.11-4.75,1.64-5.6,1.85-.54,.13-1.05,.24-1.55,.35-.1,.02-.21,.04-.31,.06-.47,.1-.92,.18-1.35,.26-.08,.01-.15,.03-.23,.04-.39,.07-.76,.13-1.12,.18-.06,0-.13,.02-.2,.03-.39,.06-.76,.11-1.12,.15-.09,.01-.17,.02-.26,.03-3.68,.43-5.9,.26-8.87,1.01-.06,.02-.13,.04-.19,.05-.35,.09-.71,.2-1.09,.32-.11,.04-.22,.07-.34,.11-.45,.15-.92,.32-1.42,.53-1.72,.7-3.02,1.41-4.01,2.09-.17,.11-.32,.22-.47,.33-.6,.44-1.07,.86-1.44,1.25-.47,.48-.79,.91-1.02,1.26-.43,.63-1.58,2.47-1.91,4.93-.06,.41-.09,.84-.09,1.28,0,.44,.02,.9,.09,1.37,.2,1.45,.69,2.57,1.28,3.66,.2,.36,.4,.72,.61,1.08,.88,1.52,1.86,2.73,2.75,3.67,.53,.57,1.04,1.03,1.47,1.41h0c-.46-.67-1.3-2.04-1.83-3.92-.32-1.13-.52-2.44-.47-3.9,0-.15,.01-.32,.03-.52,.09-1.37,.41-3.74,2.11-5.91,1.45-1.86,3.25-2.74,4.2-3.19h0c.35-.17,.68-.3,1-.42,.11-.04,.21-.08,.32-.11,.21-.07,.41-.13,.61-.19,.33-.09,.66-.18,.96-.24,.39-.08,.76-.15,1.11-.22,1.48-.26,2.94-.57,4.41-.87h0c1.22-.25,2.43-.5,3.65-.73,.31-.06,.62-.12,.93-.18,.76-.14,1.63-.31,2.59-.52l.92,2.83c-.25,.07-.49,.15-.75,.22-.63,.17-1.31,.35-2.04,.55-.22,.06-.43,.12-.66,.18l-.11,.03c-.39,.11-.76,.22-1.12,.32-.21,.06-.42,.12-.62,.18-.3,.09-.59,.17-.87,.25-.23,.07-.45,.13-.66,.2-.23,.07-.45,.14-.66,.21-.21,.07-.42,.13-.62,.2-.2,.07-.39,.13-.57,.2-.15,.05-.29,.11-.43,.16h0c-1.34,.5-2.37,1.03-3.31,1.76-.39,.31-1.15,.9-1.94,1.77l-.02,.03c-.3,.33-.6,.7-.89,1.11-.03,.04-.06,.09-.09,.13-.11,.16-.22,.33-.32,.5-.03,.05-.07,.11-.1,.16-.13,.22-.25,.45-.37,.69h0c-.11,.23-.21,.48-.31,.73-.03,.07-.05,.15-.08,.23-.07,.19-.13,.39-.18,.59-.02,.08-.05,.16-.07,.25-.07,.28-.13,.56-.17,.86-.05,.36-.08,.71-.08,1.05-.02,1.38,.28,2.65,.75,3.77s1.1,2.11,1.72,2.92c.31,.4,.62,.76,.91,1.07,.72,.77,1.3,1.23,1.4,1.32,.95,.22,1.92,.39,2.91,.5,.99,.11,1.99,.17,3.01,.17,14.38,0,26.03-11.66,26.03-26.03,0-2.59-.38-5.09-1.08-7.46Z"/><path class="cls-3" d="M62.03,25.22c-.92-.93-1.9-1.79-2.95-2.57,.15,1.03,.19,2.49-.53,3.89-1.22,2.39-3.99,3.32-8.26,4.15-3.37,.65-8,1.29-13.66,1.36l.05-.63c2.42-.66,4.55-1.27,6.29-1.81,6.33-1.93,8.59-2.94,9.66-5.12,.21-.43,.76-1.6,.44-2.94-.58-2.41-3.46-3.33-3.89-3.46-1.83-.41-3.73-.62-5.68-.62-14.38,0-26.03,11.66-26.03,26.03,0,2.71,.42,5.32,1.19,7.78,.55-2.48,1.83-6.34,5.09-9.47,3.89-3.73,8.75-4.62,13.9-5.57,4.18-.77,7.35-.77,14.34-2.08,0,0,3.05-.57,6.53-2.62,1.72-1.01,2.59-1.83,3.11-2.96,.61-1.33,.53-2.63,.41-3.36Z"/></g><path class="cls-1" d="M54.9,42.75h0c.46-.63,.79-1.44,.94-2.47h0c.13-.85,.06-1.6-.16-2.27-2.38,1.03-4.44,1.57-5.41,1.8-.01,.14-.03,.27-.06,.41h0c-.8,3.22-5.76,1.58-7.36,1.18l.08-.33,1.33-5.35h0l.1-.4h0c1.94-.24,4.18-.54,7.09-1.07-.42-.18-.86-.36-1.32-.51l.79-3.18,.37-1.49-2.85-.71-.69,2.78-.44,1.78c-.73-.18-1.47-.35-2.21-.52l-.07-.02,.22-.89,.7-2.82,.22-.88-2.85-.71-.65,2.62-.51,2.05c-.62-.14-1.23-.28-1.82-.43h0l-1.72-.44-2.21-.55-.31,1.24-.12,.49-.33,1.31s2.11,.48,2.07,.51c1.15,.29,1.36,1.05,1.33,1.66-.5,1.99-.99,3.99-1.49,5.98l-1.35,5.41c.39-.08,.76-.15,1.11-.22,1.48-.26,2.94-.57,4.41-.87l.39-1.56c.7,.18,1.98,.42,3.27,.83,1.51,.48,3.03,1.21,3.68,2.35,.32,.55,.44,1.19,.25,1.95h0c-.88,3.54-6.83,1.62-8.76,1.15l.15-.62c-1.34,.5-2.37,1.03-3.31,1.76-.32,.25-.87,.68-1.49,1.29,.29,.08,.59,.15,.88,.23l-1.18,4.73,2.84,.71,1.17-4.68c.78,.21,1.53,.41,2.27,.59l-1.16,4.66,2.85,.71,1.18-4.72c4.85,.92,8.51,.55,10.04-3.84,.96-2.74,.39-4.58-1.1-5.89-.43-.38-.94-.72-1.52-1.02,1.1-.25,2.03-.79,2.69-1.71Z"/></g></g></g></svg>