<svg width="32" height="32" viewBox="0 0 32 32" fill="none" xmlns="http://www.w3.org/2000/svg">
<path d="M16.0314 5.67188C15.5921 5.67188 15.1626 5.80215 14.7973 6.04624C14.432 6.29032 14.1473 6.63725 13.9791 7.04314C13.811 7.44904 13.767 7.89567 13.8527 8.32657C13.9385 8.75747 14.15 9.15327 14.4607 9.46393C14.7713 9.77459 15.1671 9.98615 15.598 10.0719C16.0289 10.1576 16.4756 10.1136 16.8815 9.94545C17.2874 9.77733 17.6343 9.49261 17.8784 9.12731C18.1224 8.76202 18.2527 8.33255 18.2527 7.89321C18.2527 7.30407 18.0187 6.73907 17.6021 6.32249C17.1855 5.90591 16.6205 5.67188 16.0314 5.67188V5.67188Z" fill="black"/>
<path d="M6.76476 7.02881C6.59387 7.02881 6.42683 7.07948 6.28474 7.17442C6.14266 7.26936 6.03192 7.40429 5.96653 7.56217C5.90113 7.72005 5.88402 7.89377 5.91736 8.06137C5.9507 8.22897 6.03298 8.38292 6.15382 8.50375C6.27465 8.62458 6.4286 8.70687 6.5962 8.74021C6.7638 8.77354 6.93752 8.75643 7.0954 8.69104C7.25327 8.62565 7.38821 8.51491 7.48315 8.37282C7.57808 8.23074 7.62876 8.06369 7.62876 7.89281C7.62876 7.66366 7.53773 7.4439 7.3757 7.28187C7.21367 7.11984 6.9939 7.02881 6.76476 7.02881V7.02881Z" fill="black"/>
<path d="M25.3381 7.02881C25.1672 7.02881 25.0002 7.07948 24.8581 7.17442C24.716 7.26936 24.6053 7.40429 24.5399 7.56217C24.4745 7.72005 24.4574 7.89377 24.4907 8.06137C24.5241 8.22897 24.6063 8.38292 24.7272 8.50375C24.848 8.62458 25.002 8.70687 25.1696 8.74021C25.3372 8.77354 25.5109 8.75643 25.6688 8.69104C25.8266 8.62565 25.9616 8.51491 26.0565 8.37282C26.1514 8.23074 26.2021 8.06369 26.2021 7.89281C26.2021 7.66366 26.1111 7.4439 25.9491 7.28187C25.787 7.11984 25.5673 7.02881 25.3381 7.02881V7.02881Z" fill="black"/>
<path d="M11.4394 7.89308C11.4412 6.97373 11.7182 6.07599 12.2349 5.31554C12.7515 4.55508 13.484 3.96677 14.338 3.62641L8.46605 1.06641H8.30338C6.82262 1.06469 5.38666 1.57415 4.23809 2.50873C3.08951 3.4433 2.29874 4.74569 1.99936 6.19587C1.69998 7.64605 1.91035 9.15511 2.59493 10.4681C3.27951 11.7811 4.39633 12.8176 5.75671 13.4024L11.738 9.53574C11.5393 9.01094 11.4381 8.45425 11.4394 7.89308V7.89308ZM6.77271 10.1144C6.33338 10.1144 5.9039 9.98413 5.53861 9.74005C5.17331 9.49597 4.8886 9.14904 4.72047 8.74315C4.55234 8.33725 4.50835 7.89061 4.59406 7.45972C4.67977 7.02882 4.89134 6.63302 5.20199 6.32236C5.51265 6.0117 5.90846 5.80014 6.33935 5.71443C6.77025 5.62872 7.21689 5.67271 7.62278 5.84083C8.02868 6.00896 8.3756 6.29367 8.61969 6.65897C8.86377 7.02427 8.99405 7.45374 8.99405 7.89308C8.99405 8.48221 8.76002 9.04722 8.34343 9.4638C7.92685 9.88038 7.36185 10.1144 6.77271 10.1144Z" fill="#231F20"/>
<path d="M16.0394 3.29308C16.6457 3.29252 17.2462 3.4122 17.806 3.64518C18.3658 3.87816 18.8738 4.21983 19.3007 4.65041L24.7381 1.13841C24.4195 1.09008 24.0976 1.06601 23.7754 1.06641H8.46606L14.3327 3.61841C14.876 3.40329 15.4551 3.29291 16.0394 3.29308V3.29308Z" fill="#00A79D"/>
<path d="M25.338 10.1145C24.7489 10.1145 24.1839 9.88049 23.7673 9.46391C23.3507 9.04733 23.1167 8.48233 23.1167 7.89319C23.1172 7.74463 23.1315 7.59644 23.1594 7.45052L20.3327 6.22119C20.5504 6.78553 20.6547 7.3872 20.6398 7.99187C20.625 8.59653 20.4911 9.19234 20.246 9.74529C20.0008 10.2982 19.6492 10.7975 19.2111 11.2145C18.773 11.6315 18.257 11.9582 17.6927 12.1759C16.553 12.6154 15.2853 12.5842 14.1686 12.0891C13.0519 11.594 12.1776 10.6756 11.738 9.53586L5.75671 13.4025C6.40095 13.6806 7.08655 13.8509 7.78605 13.9065C7.93284 13.9468 8.06239 14.034 8.15486 14.1549C8.24733 14.2758 8.29763 14.4237 8.29805 14.5759V24.9439C8.29805 25.207 8.40256 25.4593 8.5886 25.6453C8.77463 25.8313 9.02695 25.9359 9.29005 25.9359C9.55314 25.9359 9.80546 25.8313 9.9915 25.6453C10.1775 25.4593 10.282 25.207 10.282 24.9439V17.3945C10.2762 17.2993 10.2898 17.2039 10.3222 17.1142C10.3546 17.0245 10.405 16.9423 10.4703 16.8728C10.5357 16.8033 10.6145 16.748 10.7021 16.7101C10.7896 16.6722 10.884 16.6527 10.9794 16.6527C11.0748 16.6527 11.1691 16.6722 11.2567 16.7101C11.3442 16.748 11.4231 16.8033 11.4884 16.8728C11.5538 16.9423 11.6042 17.0245 11.6366 17.1142C11.6689 17.2039 11.6826 17.2993 11.6767 17.3945V17.8905V27.5172C11.6899 27.7717 11.8003 28.0115 11.9852 28.187C12.17 28.3625 12.4152 28.4604 12.67 28.4604C12.9249 28.4604 13.1701 28.3625 13.3549 28.187C13.5398 28.0115 13.6502 27.7717 13.6634 27.5172V16.8159C13.6634 16.6313 13.7367 16.4542 13.8672 16.3237C13.9978 16.1932 14.1748 16.1199 14.3594 16.1199C14.544 16.1199 14.721 16.1932 14.8515 16.3237C14.9821 16.4542 15.0554 16.6313 15.0554 16.8159V30.1625C15.0554 30.2928 15.081 30.4218 15.1309 30.5421C15.1807 30.6625 15.2538 30.7719 15.3459 30.864C15.438 30.9561 15.5474 31.0292 15.6678 31.079C15.7881 31.1289 15.9171 31.1545 16.0474 31.1545C16.1777 31.1545 16.3066 31.1289 16.427 31.079C16.5474 31.0292 16.6567 30.9561 16.7488 30.864C16.8409 30.7719 16.914 30.6625 16.9639 30.5421C17.0137 30.4218 17.0394 30.2928 17.0394 30.1625V17.3332V16.4559C17.0504 16.2784 17.1286 16.1117 17.2582 15.9899C17.3877 15.8681 17.5589 15.8003 17.7367 15.8003C17.9145 15.8003 18.0857 15.8681 18.2153 15.9899C18.3448 16.1117 18.4231 16.2784 18.434 16.4559V25.6985C18.434 25.9616 18.5386 26.2139 18.7246 26.4C18.9106 26.586 19.163 26.6905 19.426 26.6905C19.6891 26.6905 19.9415 26.586 20.1275 26.4C20.3135 26.2139 20.418 25.9616 20.418 25.6985V17.3545C20.429 17.177 20.5073 17.0104 20.6368 16.8886C20.7664 16.7668 20.9376 16.699 21.1154 16.699C21.2932 16.699 21.4643 16.7668 21.5939 16.8886C21.7235 17.0104 21.8017 17.177 21.8127 17.3545V18.1545V23.5225C21.8259 23.7771 21.9363 24.0168 22.1212 24.1923C22.306 24.3679 22.5512 24.4657 22.806 24.4657C23.0609 24.4657 23.3061 24.3679 23.4909 24.1923C23.6758 24.0168 23.7862 23.7771 23.7994 23.5225V14.6265C23.799 14.5349 23.8168 14.4441 23.8516 14.3594C23.8864 14.2746 23.9376 14.1976 24.0023 14.1327C24.067 14.0677 24.1438 14.0162 24.2284 13.9811C24.313 13.9459 24.4038 13.9279 24.4954 13.9279H23.85C25.0553 13.9138 26.2324 13.5613 27.247 12.9107C28.2617 12.26 29.0731 11.3373 29.5887 10.2479L27.1327 9.18119C26.929 9.46788 26.66 9.70201 26.3479 9.86429C26.0359 10.0266 25.6898 10.1123 25.338 10.1145V10.1145Z" fill="#DA1C5C"/>
<path d="M24.7381 1.13818L19.3008 4.65018C19.7452 5.09828 20.0928 5.63288 20.3221 6.22085L23.1488 7.45018C23.2565 6.90851 23.5621 6.42639 24.006 6.09784C24.4499 5.7693 25.0003 5.6179 25.5498 5.67319C26.0993 5.72847 26.6085 5.98647 26.9781 6.39685C27.3477 6.80724 27.5511 7.34058 27.5488 7.89285C27.5491 8.35526 27.4035 8.80598 27.1328 9.18085L29.5888 10.2475C30.0169 9.34106 30.2273 8.34713 30.2032 7.34496C30.1791 6.34279 29.9211 5.36012 29.45 4.47529C28.9788 3.59046 28.3074 2.82796 27.4894 2.24857C26.6713 1.66919 25.7292 1.28895 24.7381 1.13818V1.13818Z" fill="#FBB040"/>
</svg>
