<svg width="24" height="24" viewBox="0 0 24 24" fill="none" xmlns="http://www.w3.org/2000/svg">
<path d="M12.0001 24C18.6275 24 24.0001 18.6274 24.0001 12C24.0001 5.37258 18.6275 0 12.0001 0C5.37264 0 6.10352e-05 5.37258 6.10352e-05 12C6.10352e-05 18.6274 5.37264 24 12.0001 24Z" fill="#003057"/>
<path d="M9.5203 19C9.37998 18.9999 9.24174 18.967 9.11693 18.9039C8.99212 18.8408 8.88434 18.7493 8.80249 18.6371L5.29034 13.844H3.00006V12.0993H5.74367C5.88387 12.0991 6.02209 12.1319 6.14691 12.1948C6.27173 12.2577 6.37955 12.349 6.46145 12.4611L9.3314 16.376L13.7101 6.52223C13.779 6.36687 13.8924 6.2347 14.0365 6.14193C14.1806 6.04917 14.349 5.99984 14.5211 6H20.0001V7.74466H15.1007L10.3325 18.4766C10.2696 18.6181 10.1697 18.7407 10.043 18.8316C9.91623 18.9226 9.76722 18.9787 9.61115 18.9942C9.5797 18.9959 9.54819 18.9959 9.51673 18.9942" fill="#00C389"/>
<path d="M-5.24537e-07 12C-8.1423e-07 18.6274 5.37258 24 12 24C18.6274 24 24 18.6274 24 12C24 5.37258 18.6274 -2.34843e-07 12 -5.24537e-07C5.37258 -8.1423e-07 -2.34843e-07 5.37258 -5.24537e-07 12Z" fill="url(#paint0_linear)"/>
<path d="M12 23.5C5.64872 23.5 0.499999 18.3513 0.499999 12C0.5 5.64872 5.64872 0.499999 12 0.499999C18.3513 0.5 23.5 5.64873 23.5 12C23.5 18.3513 18.3513 23.5 12 23.5Z" stroke="white" stroke-opacity="0.3"/>
<path d="M12.3129 6.91871C12.4767 6.66263 12.3969 6.32259 12.1408 6.15887L10.9822 5.42842C10.1552 4.89527 9.14763 4.85749 8.28284 5.32766C7.42225 5.79784 6.90589 6.66683 6.90589 7.64917V12.8505C6.59524 12.8127 6.2594 12.8715 5.93615 13.0646C5.25607 13.4718 4.979 14.2485 5.31065 14.8026C5.64229 15.3567 6.4609 15.4743 7.14098 15.0713C7.59437 14.8026 7.9554 14.4248 7.98898 14.0008C7.99318 13.9756 8.00158 13.9546 8.00158 13.9294V7.64917C8.00158 7.07404 8.30383 6.56608 8.8076 6.29321C9.31136 6.01614 9.90328 6.04133 10.3902 6.35618L11.5531 7.09083C11.8092 7.25036 12.1492 7.17479 12.3129 6.91871Z" fill="white"/>
<path d="M5.55414 11.9187C5.24768 11.9187 5 11.671 5 11.3646V8.16986C5 7.86341 5.24768 7.61572 5.55414 7.61572C5.86059 7.61572 6.10828 7.86341 6.10828 8.16986V11.3646C6.11247 11.671 5.86059 11.9187 5.55414 11.9187Z" fill="white"/>
<path d="M18.9123 11.9187C18.6058 11.9187 18.3582 11.671 18.3582 11.3646V8.16986C18.3582 7.86341 18.6058 7.61572 18.9123 7.61572C19.2187 7.61572 19.4664 7.86341 19.4664 8.16986V11.3646C19.4664 11.671 19.2187 11.9187 18.9123 11.9187Z" fill="white"/>
<path d="M9.38696 17.7205C9.08051 17.7205 8.83282 17.4728 8.83282 17.1664V7.70404C8.83282 7.39759 9.08051 7.1499 9.38696 7.1499C9.69342 7.1499 9.9411 7.39759 9.9411 7.70404V17.1664C9.9411 17.4728 9.69342 17.7205 9.38696 17.7205Z" fill="white"/>
<path d="M11.3348 19.5127C11.0284 19.5127 10.7807 19.2651 10.7807 18.9586V8.59369C10.7807 8.28723 11.0284 8.03955 11.3348 8.03955C11.6413 8.03955 11.889 8.28723 11.889 8.59369V18.9544C11.889 19.2609 11.6413 19.5127 11.3348 19.5127Z" fill="white"/>
<path d="M15.1088 17.7121C14.8023 17.7121 14.5546 17.4644 14.5546 17.158V7.70404C14.5546 7.39759 14.8023 7.1499 15.1088 7.1499C15.4152 7.1499 15.6629 7.39759 15.6629 7.70404V17.158C15.6629 17.4644 15.4152 17.7121 15.1088 17.7121Z" fill="white"/>
<path d="M16.9811 15.4781C16.6746 15.4781 16.4269 15.2304 16.4269 14.9239V7.24994C16.4269 6.94348 16.6746 6.6958 16.9811 6.6958C17.2875 6.6958 17.5352 6.94348 17.5352 7.24994V14.9239C17.5352 15.2304 17.2875 15.4781 16.9811 15.4781Z" fill="white"/>
<path d="M13.2155 19.5127C12.9091 19.5127 12.6614 19.2651 12.6614 18.9586V8.59369C12.6614 8.28723 12.9091 8.03955 13.2155 8.03955C13.522 8.03955 13.7697 8.28723 13.7697 8.59369V18.9544C13.7739 19.2609 13.522 19.5127 13.2155 19.5127Z" fill="white"/>
<defs>
<linearGradient id="paint0_linear" x1="22" y1="20.5" x2="6" y2="1.5" gradientUnits="userSpaceOnUse">
<stop stop-color="#FF34EB"/>
<stop offset="1" stop-color="#F89D35"/>
</linearGradient>
</defs>
</svg>
