<svg width="24" height="24" viewBox="0 0 24 24" fill="none" xmlns="http://www.w3.org/2000/svg">
<path d="M12 24C18.6274 24 24 18.6274 24 12C24 5.37258 18.6274 0 12 0C5.37258 0 0 5.37258 0 12C0 18.6274 5.37258 24 12 24Z" fill="#F70008"/>
<path d="M23.5 12C23.5 18.3513 18.3513 23.5 12 23.5C5.64873 23.5 0.5 18.3513 0.5 12C0.5 5.64873 5.64873 0.5 12 0.5C18.3513 0.5 23.5 5.64873 23.5 12Z" stroke="white" stroke-opacity="0.3"/>
<path d="M12.8988 11.4562C12.8988 13.5668 12.8983 15.6774 12.9008 17.7882C12.901 17.8724 12.8835 17.8973 12.7949 17.8966C12.2612 17.8918 11.7276 17.8923 11.1941 17.8957C11.12 17.8962 11.1005 17.8796 11.1005 17.8044C11.1005 16.7611 11.0948 15.7177 11.0946 14.6744C11.0941 11.4965 11.0952 8.31863 11.0955 5.14077C11.0955 5.01175 11.0955 5.01175 11.2287 5.01175C11.7534 5.01175 12.2781 5.01354 12.8027 5.00978C12.8802 5.00924 12.9008 5.02642 12.9006 5.10641C12.8983 7.2229 12.8988 9.33956 12.8988 11.4562Z" fill="white"/>
<path d="M14.2721 6.27669C14.2946 7.01899 14.3351 7.76004 14.4134 8.49823C14.5221 9.52095 14.6688 10.5372 15.0201 11.5106C15.4417 12.6789 16.0829 13.7045 17.0258 14.5261C17.8259 15.2233 18.7418 15.6972 19.7821 15.9237C19.8511 15.9388 19.9478 15.9198 19.9821 15.9742C20.0149 16.0257 19.9929 16.1127 19.9929 16.1841C19.9932 16.7208 19.9911 17.2573 19.995 17.794C19.9955 17.8758 19.9705 17.8854 19.8991 17.874C18.0836 17.5812 16.5433 16.7793 15.2966 15.4164C14.5382 14.5873 14.0045 13.6399 13.7094 12.5569C13.5829 12.0929 13.5169 11.6185 13.4664 11.1416C13.2533 9.12403 13.293 7.09916 13.2896 5.07538C13.2894 5.01614 13.3068 4.9995 13.3653 5.00022C13.6366 5.00308 13.9079 5.00362 14.1792 5.00004C14.2475 4.99914 14.2701 5.01435 14.2696 5.08754C14.2667 5.41539 14.2706 5.74341 14.2721 6.07125C14.2722 6.13961 14.2721 6.20815 14.2721 6.27669Z" fill="white"/>
<path d="M10.716 7.52635C10.7206 8.28601 10.6823 9.34935 10.5973 10.4105C10.5436 11.0814 10.4864 11.7532 10.3224 12.4086C9.99531 13.7173 9.31994 14.8176 8.35413 15.7579C7.21491 16.8668 5.86005 17.5361 4.31049 17.837C4.2287 17.8529 4.14585 17.8633 4.06371 17.8776C4.02058 17.8851 3.99982 17.8786 4 17.8253C4.00179 17.2231 4.00179 16.621 4 16.0188C3.99982 15.9728 4.01575 15.9572 4.05798 15.949C6.02003 15.5633 7.43842 14.4377 8.42786 12.7318C8.92195 11.8801 9.21042 10.9562 9.38579 9.9918C9.60358 8.79531 9.69109 7.58719 9.72724 6.37389C9.73994 5.94458 9.7335 5.51545 9.73386 5.08614C9.73386 5.02118 9.74818 4.99899 9.81743 5.00006C10.0857 5.00418 10.3541 5.00435 10.6224 5.00006C10.6957 4.99881 10.7177 5.01706 10.7174 5.09294C10.7149 5.80231 10.716 6.51186 10.716 7.52635Z" fill="white"/>
</svg>
