<svg width="24" height="24" viewBox="0 0 24 24" fill="none" xmlns="http://www.w3.org/2000/svg">
<path d="M12 24C18.6274 24 24 18.6274 24 12C24 5.37258 18.6274 0 12 0C5.37258 0 0 5.37258 0 12C0 18.6274 5.37258 24 12 24Z" fill="#88E095"/>
<path d="M23.5 12C23.5 18.3513 18.3513 23.5 12 23.5C5.64873 23.5 0.5 18.3513 0.5 12C0.5 5.64873 5.64873 0.5 12 0.5C18.3513 0.5 23.5 5.64873 23.5 12Z" stroke="black" stroke-opacity="0.097"/>
<path d="M11.1437 11.0423C10.0302 12.2136 8.07798 11.8232 7.49954 10.3048C7.02715 9.07559 6.56922 7.83677 6.10165 6.60277C6.07755 6.5401 6.06791 6.47744 6.01006 6.43888C6.01006 6.33283 6.02453 6.22678 6.00524 6.12556C5.97632 5.97613 6.07273 6.00987 6.15467 6.00505C6.13539 6.13038 6.21734 6.19304 6.29446 6.27017C7.84178 7.81748 9.38428 9.35998 10.9316 10.9073C10.9894 10.9651 11.0425 11.0423 11.1437 11.0423Z" fill="white"/>
<path d="M17.8054 6.00482C17.8391 6.06748 17.9307 6.0723 17.9452 6.14943C17.844 6.14461 17.7958 6.23137 17.7331 6.28922C16.1858 7.83172 14.6433 9.37904 13.1008 10.9215C13.0381 10.9842 12.961 11.0324 12.961 11.1336C12.3102 10.5793 12.0933 9.50919 12.4452 8.70419C12.7682 7.96187 13.3707 7.59552 14.0986 7.33523C15.2217 6.93514 16.3352 6.50131 17.4487 6.07712C17.4921 6.06266 17.5258 6.0241 17.5644 6C17.6463 6.00482 17.7283 6.00482 17.8054 6.00482Z" fill="white"/>
<path d="M6.14986 17.9054C6.07273 17.9151 6.05345 17.8331 6.00525 17.7994C6.00525 17.7174 6.00525 17.6403 6.00525 17.5584C6.27519 16.9992 6.45836 16.4063 6.68009 15.8279C6.94521 15.1386 7.19587 14.4396 7.46098 13.7503C7.93337 12.5308 9.19629 11.962 10.3821 12.4295C10.6279 12.526 10.8448 12.6754 11.0328 12.8634C11.0377 12.9453 10.975 12.9935 10.9268 13.0417C10.2857 13.6973 9.63012 14.3432 8.99384 15.0036C8.11654 15.9194 7.20069 16.8064 6.30411 17.703C6.25591 17.7656 6.1836 17.8187 6.14986 17.9054Z" fill="white"/>
<path d="M11.1437 11.0421C11.0424 11.0421 10.9894 10.965 10.9316 10.9023C9.38426 9.35982 7.83694 7.8125 6.29444 6.27C6.21731 6.19287 6.13537 6.13021 6.15465 6.00488C6.25105 6.00488 6.34746 6.00488 6.44387 6.00488C7.00302 6.27 7.59592 6.45799 8.17436 6.68455C8.88294 6.9593 9.60599 7.2196 10.3146 7.49918C11.6932 8.03423 12.1704 9.70206 11.2883 10.8879C11.2449 10.9409 11.1919 10.9939 11.1437 11.0421Z" fill="white"/>
<path d="M17.9114 17.8528C17.815 18.0504 17.6608 18.0071 17.5017 17.9492C16.6148 17.6166 15.7278 17.2792 14.8409 16.9418C14.4553 16.7972 14.0648 16.6525 13.6792 16.4983C12.2765 15.944 11.8282 14.2135 12.7778 13.047C12.826 12.9843 12.8742 12.9168 12.961 12.9023C13.0043 12.9554 13.0429 13.018 13.0959 13.0662C14.6481 14.6184 16.1954 16.1657 17.7475 17.7178C17.7957 17.7709 17.8391 17.8287 17.9114 17.8528Z" fill="white"/>
<path d="M6.14984 17.9064C6.17876 17.8196 6.25589 17.7666 6.31855 17.7087C7.21513 16.8073 8.13099 15.9252 9.00829 15.0094C9.64457 14.3442 10.3001 13.7031 10.9412 13.0475C10.9894 12.9945 11.0521 12.9511 11.0473 12.8691C11.8378 13.5343 11.9583 14.8744 11.3269 15.7372C11.0087 16.1711 10.5845 16.4169 10.0977 16.6001C8.92152 17.0435 7.74536 17.4918 6.56921 17.9305C6.42942 17.9738 6.27999 18.0799 6.14984 17.9064Z" fill="white"/>
<path d="M12.9609 11.1387C12.9609 11.0375 13.0381 10.9844 13.1007 10.9266C14.6432 9.37928 16.1905 7.83678 17.733 6.29428C17.7909 6.23643 17.8391 6.14967 17.9451 6.15449C18.0223 6.26536 17.9933 6.38104 17.95 6.49673C17.4631 7.77893 16.9907 9.06114 16.4942 10.3385C15.9302 11.7846 14.0792 12.1992 12.9609 11.1387Z" fill="white"/>
<path d="M17.9114 17.8526C17.8391 17.8333 17.7957 17.7706 17.7427 17.7224C16.1905 16.1703 14.6384 14.623 13.0911 13.0708C13.0429 13.0226 12.9995 12.96 12.9561 12.9069C13.2839 12.502 13.7274 12.3333 14.2239 12.2899C15.3277 12.1935 16.2098 12.825 16.5955 13.9047C17.0293 15.1195 17.4969 16.3245 17.9548 17.5344C18.003 17.6453 18.0415 17.761 17.9114 17.8526Z" fill="white"/>
</svg>
