<?xml version="1.0" encoding="UTF-8" standalone="no"?>
<svg
   xmlns:dc="http://purl.org/dc/elements/1.1/"
   xmlns:cc="http://creativecommons.org/ns#"
   xmlns:rdf="http://www.w3.org/1999/02/22-rdf-syntax-ns#"
   xmlns:svg="http://www.w3.org/2000/svg"
   xmlns="http://www.w3.org/2000/svg"
   xmlns:sodipodi="http://sodipodi.sourceforge.net/DTD/sodipodi-0.dtd"
   xmlns:inkscape="http://www.inkscape.org/namespaces/inkscape"
   width="128"
   height="128"
   viewBox="0 0 128.01 128.01"
   version="1.1"
   id="svg15"
   sodipodi:docname="logo.svg"
   inkscape:version="1.0.2-2 (e86c870879, 2021-01-15)">
  <metadata
     id="metadata21">
    <rdf:RDF>
      <cc:Work
         rdf:about="">
        <dc:format>image/svg+xml</dc:format>
        <dc:type
           rdf:resource="http://purl.org/dc/dcmitype/StillImage" />
      </cc:Work>
    </rdf:RDF>
  </metadata>
  <defs
     id="defs19" />
  <sodipodi:namedview
     pagecolor="#ffffff"
     bordercolor="#666666"
     borderopacity="1"
     objecttolerance="10"
     gridtolerance="10"
     guidetolerance="10"
     inkscape:pageopacity="0"
     inkscape:pageshadow="2"
     inkscape:window-width="1920"
     inkscape:window-height="1121"
     id="namedview17"
     showgrid="false"
     inkscape:zoom="4.8558348"
     inkscape:cx="45.541112"
     inkscape:cy="67.743526"
     inkscape:window-x="-9"
     inkscape:window-y="-9"
     inkscape:window-maximized="1"
     inkscape:current-layer="svg15"
     inkscape:document-rotation="0" />
  <title
     id="title10">logo111111</title>
  <circle
     id="path854"
     cx="64"
     cy="64"
     r="63.869999"
     stroke="#000000"
     stroke-miterlimit="2.54"
     stroke-width="0.28"
     style="fill:#ffffff;stroke:none" />
  <style
     type="text/css"
     id="style937">
	.st0{fill:url(#SVGID_1_);}
	.st1{fill:#FFFFFF;}
</style>
  <g
     id="g950"
     transform="matrix(0.15076402,0,0,0.15076402,-11.131089,-11.639447)">
	<linearGradient
   id="SVGID_1_"
   gradientUnits="userSpaceOnUse"
   x1="785.6449"
   y1="175.36121"
   x2="201.3231"
   y2="839.45392">
		<stop
   offset="0.026"
   style="stop-color:#2C92D0"
   id="stop939" />

		<stop
   offset="0.4824"
   style="stop-color:#533E9D"
   id="stop941" />

		<stop
   offset="1"
   style="stop-color:#671382"
   id="stop943" />

	</linearGradient>

	<path
   class="st0"
   d="m 924.78,500 c 0,40.5 -5.67,79.71 -16.27,116.83 -5.88,20.61 -13.28,40.58 -22.08,59.78 -11.1,24.26 -24.42,47.29 -39.71,68.83 -25.95,36.61 -57.57,68.94 -93.57,95.7 -70.7,52.54 -158.29,83.64 -253.15,83.64 -230.31,0 -417.79,-183.27 -424.58,-411.93 -0.13,-4.26 -0.19,-8.56 -0.19,-12.85 0,-13.82 0.66,-27.48 1.94,-40.95 16.32,-170.57 133.52,-311.7 291.24,-363.04 31.81,-10.37 65.27,-17.07 99.9,-19.62 10.45,-0.78 21.03,-1.17 31.69,-1.17 234.6,0 424.78,190.18 424.78,424.78 z"
   id="path946"
   style="fill:url(#SVGID_1_)" />

	<path
   class="st1"
   d="m 895.73,617.71 c -81.5,11.95 -198.17,48.83 -291.6,86.69 -48.15,19.5 -95.19,41.49 -142.59,62.71 -4.89,2.18 -9.78,4.37 -14.7,6.51 -2.21,0.97 -4.44,1.93 -6.67,2.89 -0.52,0.22 -1.15,0.49 -1.78,0.76 -0.06,0.03 -0.1,0.06 -0.16,0.07 -0.1,0.04 -0.19,0.09 -0.3,0.12 -0.16,0.06 -0.31,0.13 -0.48,0.19 -0.06,0.03 -0.12,0.06 -0.16,0.07 -0.09,0.04 -0.16,0.07 -0.25,0.1 -0.03,0.02 -0.06,0.03 -0.09,0.04 -0.04,0.01 -0.07,0.03 -0.12,0.04 -0.19,0.07 -0.37,0.16 -0.57,0.24 -0.03,0.01 -0.06,0.03 -0.09,0.03 -0.18,0.07 -0.34,0.15 -0.49,0.21 -0.12,0.04 -0.21,0.09 -0.3,0.12 -0.09,0.04 -0.18,0.07 -0.24,0.1 -0.1,0.04 -0.18,0.07 -0.25,0.1 -0.09,0.04 -0.16,0.07 -0.22,0.09 -0.03,0.01 -0.06,0.03 -0.07,0.03 l -0.01,0.02 c -0.03,0.01 -0.04,0.01 -0.04,0.01 -6.97,2.86 -13.95,5.67 -21.04,8.27 -7.3,2.68 -14.67,5.16 -22.17,7.24 -3.29,0.93 -6.63,1.76 -9.98,2.48 -1.51,0.31 -3.04,0.61 -4.56,0.9 -0.73,0.12 -1.48,0.24 -2.21,0.36 -5.04,0.9 4.02,-0.25 4.17,-0.54 -1.02,1.82 -10.35,0.79 -14.55,0.42 -0.06,-0.03 -0.12,-0.06 -0.18,-0.09 1.17,0.03 2.08,0.06 2.75,0.09 -0.99,-0.09 -2.26,-0.25 -3.46,-0.49 0.06,0.04 0.09,0.07 0.13,0.12 -0.1,-0.03 -0.21,-0.09 -0.3,-0.15 0.1,0.12 0.21,0.24 0.3,0.34 0.06,0.03 0.12,0.06 0.19,0.07 0.03,0.01 0.04,0.01 0.06,0.01 0.03,0.01 0.04,0.01 0.04,0.03 0,0 0,0 0.01,0.01 0.42,0.43 0.87,0.91 1.36,1.47 -0.42,-0.46 -0.93,-0.87 -1.42,-1.29 1.42,1.76 0.54,1.62 -0.67,-0.22 -0.21,-0.01 -0.37,-0.03 -0.51,-0.03 0.16,0 0.33,0 0.49,0.01 -0.06,-0.09 -0.12,-0.19 -0.19,-0.3 0.13,0.06 0.27,0.1 0.42,0.15 -0.13,-0.1 -0.25,-0.22 -0.37,-0.34 -0.06,-0.01 -0.12,-0.03 -0.18,-0.04 -0.03,-0.04 -0.06,-0.09 -0.09,-0.15 l -0.09,-0.04 c -0.16,-0.09 -0.33,-0.18 -0.48,-0.28 -0.04,-0.15 -0.1,-0.33 -0.16,-0.52 0,-0.01 -0.01,-0.04 -0.01,-0.06 -0.21,-0.24 -0.4,-0.46 -0.6,-0.7 0.09,0.06 0.19,0.15 0.31,0.24 0.01,0.01 0.03,0.03 0.06,0.06 l 0.13,0.13 c 0,-0.01 0,-0.01 0,-0.03 0.1,0.1 0.22,0.21 0.36,0.31 -0.21,-0.37 -0.42,-0.73 -0.61,-1.11 -0.69,-2.21 -1.33,-4.38 -1.81,-6.66 -0.3,-1.45 -0.43,-2.96 -0.76,-4.41 0.13,0.55 0.24,1.06 0.34,1.54 -0.01,-0.12 -0.01,-0.25 -0.03,-0.37 -0.28,-3.69 -0.37,-7.4 -0.33,-11.1 0.04,-4.23 0.25,-8.47 0.6,-12.68 0.16,-2.24 0.39,-4.49 0.63,-6.72 0.16,-1.45 0.69,-4.64 0.94,-6.16 0.01,-0.12 0.03,-0.24 0.06,-0.34 -0.01,-0.03 0,-0.04 0,-0.06 h 0.01 c 0,-0.06 0,-0.12 0.01,-0.16 4.4,-23.98 9.26,-47.62 15.64,-71.21 19.12,-70.55 43.32,-139.79 68.43,-208.49 37.69,-16.5 73.84,-36.47 107.44,-60.32 40.82,-28.99 76.49,-62.45 108.47,-100.87 C 694.59,267 722.89,209.3 697,157.89 690.54,145.06 680.61,133.6 667.34,127.9 c -11.55,-4.97 -22.5,-8.14 -35.01,-9.54 -19.56,-2.18 -38.68,2.56 -56.27,10.95 -35.36,16.87 -61.34,51.45 -81.31,83.98 -21.31,34.75 -37.62,72.44 -52.6,110.26 -13.75,34.72 -27.1,69.64 -40.01,104.76 -3.57,1.39 -7.16,2.75 -10.77,4.07 -24.37,8.91 -49.28,16.3 -74.58,22.11 -13.27,3.04 -26.62,5.65 -40.07,7.81 -3.19,0.52 -6.37,1 -9.56,1.47 -1.06,0.16 -2.11,0.3 -3.16,0.45 -0.06,0.01 -0.13,0.01 -0.21,0.03 -0.07,0.01 -0.16,0.01 -0.24,0.03 h -0.07 c -6.87,0.78 -13.72,1.63 -20.6,2.26 -27.55,2.56 -55.27,3.23 -82.92,1.99 -13.46,-0.6 -26.91,-1.66 -40.31,-3.17 -1.69,-0.19 -3.38,-0.39 -5.07,-0.6 -0.25,-0.03 -1.05,-0.13 -1.84,-0.22 -0.04,0 -0.1,-0.01 -0.16,-0.01 -0.02,0 -0.05,0 -0.09,-0.01 h -0.03 c -0.03,0 -0.07,0 -0.1,-0.01 -0.03,0 -0.06,-0.01 -0.09,-0.01 -0.12,-0.01 -0.22,-0.03 -0.33,-0.04 -0.04,0 -0.1,-0.01 -0.21,-0.03 -0.07,0 -0.15,-0.01 -0.22,-0.03 -0.96,-0.13 -2.12,-0.28 -2.44,-0.33 -1.69,-0.24 -3.38,-0.49 -5.07,-0.75 -7.24,-1.09 -14.43,-2.35 -21.63,-3.69 -1.7,-0.33 -3.46,-0.49 -5.21,-0.54 -1.29,13.48 -1.94,27.13 -1.94,40.95 0,4.29 0.06,8.59 0.19,12.85 101,17.75 205.63,11.37 303.4,-19.43 -12.06,34.58 -23.63,69.31 -34.67,104.15 -10.35,32.64 -20.13,65.53 -27.8,98.91 -5.49,23.87 -10.2,48.42 -11.17,72.95 -1.32,33.1 8.66,71.06 44.95,80.39 31.5,8.11 66.04,-5.68 94.81,-17.39 45.54,-18.5 89.74,-40.13 134.79,-59.78 6.18,-2.69 12.37,-5.35 18.58,-8 0.12,-0.04 0.24,-0.1 0.36,-0.15 0,0 0.01,0 0.01,-0.01 0.13,-0.04 0.27,-0.1 0.4,-0.16 0.07,-0.03 0.13,-0.06 0.21,-0.09 0.16,-0.07 0.31,-0.13 0.45,-0.18 0.01,-0.01 0.01,-0.01 0.03,-0.01 0.15,-0.07 0.27,-0.12 0.37,-0.15 0.06,-0.04 0.13,-0.06 0.19,-0.09 0.01,-0.01 0.04,-0.01 0.06,-0.03 0.04,-0.01 0.1,-0.04 0.15,-0.06 0.96,-0.4 1.91,-0.81 2.87,-1.2 3.45,-1.44 6.91,-2.86 10.37,-4.28 13.45,-5.49 26.95,-10.78 40.55,-15.85 29.35,-10.93 59.1,-20.78 89.28,-29.11 12.65,-3.49 103.89,-26.73 142.82,-36.64 8.79,-19.2 16.2,-39.17 22.08,-59.78 -3.88,-0.15 -8.15,0.14 -12.77,0.81 z M 652.77,209.73 c 0.04,-0.15 0.12,-0.49 0.21,-0.9 -0.04,0.38 -0.1,0.69 -0.21,0.9 z m 0.4,-15.8 c -0.15,-0.69 -0.28,-1.35 -0.31,-1.51 0.17,0.21 0.26,0.8 0.31,1.51 z m -6.85,-15.92 c 1.46,1.73 1.34,2.06 0,0 z M 486.85,356.47 c 2.72,-7.16 5.5,-14.3 8.33,-21.42 1.54,-3.84 3.1,-7.69 4.68,-11.52 0.75,-1.82 1.59,-3.65 2.29,-5.49 -0.43,1.15 -0.7,1.91 -0.84,2.35 0.49,-1.23 1.66,-4.31 2.12,-5.38 15.06,-34.91 32.28,-69.15 54.86,-99.84 0.16,-0.21 0.3,-0.4 0.42,-0.57 0.03,-0.03 0.04,-0.06 0.07,-0.09 0.1,-0.12 0.21,-0.25 0.33,-0.4 1.36,-1.68 2.71,-3.35 4.1,-5.01 2.9,-3.43 5.89,-6.78 9,-10.01 2.83,-2.95 5.76,-5.79 8.79,-8.53 1.48,-1.33 3.01,-2.6 4.52,-3.9 0.3,-0.27 0.57,-0.48 0.78,-0.67 0.01,-0.01 0.01,-0.01 0.03,-0.03 0.19,-0.12 0.4,-0.27 0.66,-0.45 3.11,-2.17 6.22,-4.28 9.51,-6.18 1.6,-0.91 3.22,-1.79 4.86,-2.63 0.28,-0.15 0.93,-0.45 1.66,-0.79 0.87,-0.34 2.57,-1.05 3.16,-1.24 1.69,-0.57 3.4,-1.09 5.13,-1.54 1.72,-0.46 3.45,-0.81 5.19,-1.2 0.15,-0.03 0.28,-0.06 0.4,-0.09 0.12,0 0.25,-0.01 0.39,-0.01 3.65,-0.19 7.21,-0.16 10.86,-0.04 0.12,0 0.43,0.04 0.79,0.09 H 629 c 1.77,0.36 3.55,0.69 5.29,1.12 1.94,0.49 3.84,1.05 5.74,1.68 0.66,0.21 3.96,1.6 4.62,1.79 0,0.01 0,0.01 0.01,0.01 0.36,0.25 0.76,0.55 1.08,0.91 0.18,0.19 0.34,0.39 0.49,0.55 1.3,2.06 2.54,4.16 3.81,6.25 0.21,0.34 0.37,0.61 0.52,0.84 0.16,0.57 0.31,1.14 0.45,1.54 0.79,2.42 1.29,4.88 1.9,7.34 0.12,0.45 0.21,0.81 0.28,1.09 0.03,1.32 0,2.71 0.02,3.13 0.07,2.59 0.01,5.18 -0.15,7.75 -0.03,0.4 -0.01,1.08 -0.04,1.75 -0.06,0.25 -0.12,0.55 -0.19,0.91 -1.15,5.67 -2.45,11.22 -4.28,16.71 -0.81,2.39 -1.72,4.73 -2.6,7.07 -0.02,0.03 -0.03,0.04 -0.03,0.07 -0.61,1.21 -1.15,2.48 -1.73,3.71 -2.56,5.29 -5.4,10.44 -8.48,15.45 -2.47,3.98 -5.21,7.76 -7.9,11.61 1.41,-2.11 -1.94,2.62 -2.96,3.83 -2.08,2.48 -4.13,4.98 -6.18,7.49 -14.22,17.45 -29.79,33.82 -46.37,49.06 -8.56,7.87 -17.39,15.45 -26.47,22.73 -1.11,0.9 -2.23,1.79 -3.35,2.68 -0.1,0.07 -0.27,0.21 -0.48,0.39 0,0 -0.03,0.01 -0.06,0.04 -0.04,0.03 -0.09,0.06 -0.13,0.1 -0.03,0.01 -0.04,0.03 -0.07,0.06 -0.06,0.03 -0.1,0.06 -0.15,0.12 -0.03,0.03 -0.06,0.04 -0.09,0.06 0,0 -0.01,0.01 -0.03,0.01 -0.04,0.04 -0.09,0.07 -0.15,0.12 -0.06,0.06 -0.13,0.1 -0.21,0.16 -0.02,0.01 -0.04,0.04 -0.07,0.06 -0.04,0.03 -0.09,0.06 -0.13,0.1 -0.03,0.04 -0.06,0.06 -0.07,0.06 -0.55,0.42 -1.15,0.88 -1.39,1.06 -1.15,0.87 -2.3,1.74 -3.46,2.6 -4.92,3.68 -9.92,7.27 -14.97,10.78 -15.73,10.93 -32.01,21.06 -48.73,30.38 4.81,-12.85 9.66,-25.73 14.56,-38.58 z M 360.83,795.16 c 0,0 0,0 0,0.01 l -0.27,-0.27 c 0.09,0.1 0.18,0.17 0.27,0.26 z m 0.08,0.21 c 0.16,0.37 0.31,0.73 0.48,1.08 -1.19,-0.91 -1.57,-1.84 -0.48,-1.08 z"
   id="path948" />

</g>
</svg>
