<?xml version="1.0" encoding="utf-8"?>
<!-- Generator: Adobe Illustrator 26.4.1, SVG Export Plug-In . SVG Version: 6.00 Build 0)  -->
<svg version="1.1" id="O" xmlns="http://www.w3.org/2000/svg" xmlns:xlink="http://www.w3.org/1999/xlink" x="0px" y="0px"
	 viewBox="0 0 113.4 113.4" style="enable-background:new 0 0 113.4 113.4;" xml:space="preserve">
<style type="text/css">
	.st0{fill:url(#SVGID_1_);}
</style>
<circle cx="56.7" cy="56.7" r="56.7"/>
<linearGradient id="SVGID_1_" gradientUnits="userSpaceOnUse" x1="49.0822" y1="22.1833" x2="62.3453" y2="97.4017" gradientTransform="matrix(1 0 0 -1 0 116)">
	<stop  offset="0" style="stop-color:#0099F6"/>
	<stop  offset="0.1716" style="stop-color:#0B8CF7"/>
	<stop  offset="0.4873" style="stop-color:#276BF8"/>
	<stop  offset="0.9091" style="stop-color:#5535FB"/>
	<stop  offset="1" style="stop-color:#6028FC"/>
</linearGradient>
<path class="st0" d="M85.2,27.1c-10.1-9.2-21.2-9.3-23-9.3c-0.4,0-0.8,0-1.2,0c-12,0.2-22.2,8.3-22.2,18.6s7,18.6,17.2,18.6
	c0,0,0,0,0,0c0.1,0,0.2,0,0.3,0c5.9,0,8-2.3,12.8-2.3c4.8,0,4.7,4.6,4.7,4.6c0,6-5.6,17.4-17.9,17.4S38.4,64.5,38.4,62.5
	c0-2,1.6-2.1,2-2.1s1.9,0.3,1.9,2c0,1.7-1.7,1.9-1.7,1.9c0.1,0.9,2.8,3.5,2.8,3.5c3.5-1.4,3.4-5.4,3.4-5.4c-0.6-6.6-6.3-6.5-6.3-6.5
	c-1.4,0-6.5,0.6-6.5,6.3c0.1,5.9,7.7,16.7,22.3,16.7s20-13.5,20-13.5s-0.6-0.7-0.5-2.3c0-2.3,2.3-3.4,3.6-3.4s4,0.8,4,3.8
	c0,3-2.7,3.9-2.7,3.9C79.6,71.9,69.7,85,55.1,83.8C40.4,82.7,32.6,74,29.7,65.7S28.4,51.2,29,49.4c0.6-1.8,1.9-1.7,1.9-1.7
	s1.9-0.1,1.9,1.8c0,2.6-2.6,1.8-2.6,1.8l-0.5,4.5c7.3,0.8,7.6-5.7,7.6-5.7s0.4-6.9-6.5-7c-7.4,0-7.2,10.3-7.2,12.9
	c0,2.6,0,11.8,8.5,21.8s23,10.4,23,10.4c10.1-1,15.7-2.4,24-10.4s8.5-20.5,8.5-20.5s-1.4-1.1-1.4-3.2c0-2.1,1.7-3.7,3.8-3.7
	c2.1,0,3.8,1.9,3.8,3.8c0,1.9-1.3,3-1.3,3C91.6,76.2,79,84.8,79,84.8c-10.7,8.9-23.6,8.3-23.6,8.3c-28.9-1.6-36.6-24.4-36.6-36.8
	s6-20.2,6.9-21.5c0.9-1.3,1.5-2,2.4-2c0.9,0,2,0.4,2,1.8c0,1.4-1.2,1.9-2,1.9c-0.8,0-1.5-0.6-1.5-0.6l-2.2,3.9
	c1.4,1.4,3.8,1.4,3.8,1.4c0.6,0,5.6-0.1,6.4-6.4c0.5-6.4-6.4-6.5-6.4-6.5c-4.3-0.5-10.6,7.6-12.9,18.8s-0.4,27.5,11.9,39.2
	s28.6,11.2,28.6,11.2C84.3,97,95,73.3,96.5,63.1C98,52.8,96.3,37.1,85.2,27.1z"/>
</svg>
