<svg width="24" height="24" viewBox="0 0 24 24" fill="none" xmlns="http://www.w3.org/2000/svg">
<path d="M12 24C18.6274 24 24 18.6274 24 12C24 5.37258 18.6274 0 12 0C5.37258 0 0 5.37258 0 12C0 18.6274 5.37258 24 12 24Z" fill="url(#paint0_linear)"/>
<path d="M23.5 12C23.5 18.3513 18.3513 23.5 12 23.5C5.64873 23.5 0.5 18.3513 0.5 12C0.5 5.64873 5.64873 0.5 12 0.5C18.3513 0.5 23.5 5.64873 23.5 12Z" stroke="black" stroke-opacity="0.097"/>
<path d="M16.188 15.707C16.2239 15.0448 16.2326 14.4002 16.2326 14.3825C16.2326 12.7489 15.9103 11.5833 15.2573 10.8593C15.3303 10.79 15.3989 10.7163 15.4626 10.6386C15.9248 10.135 16.1662 9.47155 16.1341 8.79306C16.148 8.47705 16.0395 8.16766 15.8304 7.92777C15.0874 7.19488 12.9388 5.24431 12.1242 4.54585L12.1152 4.53699L12.1062 4.52813C11.8395 4.30098 11.5195 4.14313 11.1753 4.0689C10.5128 3.83929 9.55495 4.19244 8.84758 4.99596C8.06886 5.88783 7.88072 7.01792 8.39995 7.60069C8.5228 7.83059 8.69003 8.03458 8.89224 8.20118L8.90122 8.21004C8.91021 8.2189 8.92689 8.22776 8.93716 8.23535L10.8172 9.83353L8.80215 13.0051C8.76743 12.9925 8.73134 12.984 8.69461 12.9798C8.4862 12.9507 8.27393 12.9656 8.07178 13.0234C7.86964 13.0813 7.68222 13.1807 7.5219 13.3152C6.71623 13.8721 6.73419 14.94 6.85046 15.4344C6.87768 15.5692 6.9359 15.6961 7.02063 15.8052L6.51038 16.6088C6.46084 16.6883 6.43595 16.7803 6.43877 16.8736C6.42349 16.9745 6.44239 17.0775 6.49256 17.1667C6.54273 17.2559 6.62135 17.3263 6.71623 17.367C6.81085 17.4234 6.91904 17.4539 7.02962 17.4553C7.08479 17.4587 7.13994 17.4484 7.18999 17.4252C7.24005 17.4021 7.2834 17.3669 7.31605 17.3229C7.3696 17.2848 7.41517 17.2368 7.45029 17.1817L7.79037 16.6341C8.33656 17.1196 9.26749 17.5877 10.8162 17.5877C10.9415 17.5877 11.0757 17.5877 11.2102 17.5789C11.224 17.5793 11.2378 17.5768 11.2506 17.5715C11.2634 17.5662 11.2749 17.5583 11.2842 17.5482C11.2936 17.5381 11.3006 17.5262 11.3049 17.5131C11.3091 17.5001 11.3104 17.4864 11.3087 17.4728C11.3085 17.4536 11.3024 17.4349 11.2912 17.4191C11.28 17.4034 11.2643 17.3913 11.2461 17.3844C11.2324 17.3773 11.2169 17.3742 11.2015 17.3756C9.76901 17.4462 8.64122 17.1282 7.9069 16.466C7.88123 16.4407 7.85326 16.4219 7.82631 16.3954C7.86145 16.4048 7.89748 16.4108 7.93385 16.4131H7.99648C8.02244 16.4081 8.04542 16.3934 8.06049 16.3719C8.07555 16.3505 8.0815 16.3241 8.07707 16.2984C8.07675 16.2871 8.0732 16.2762 8.06685 16.2668C8.06049 16.2575 8.05157 16.2501 8.04114 16.2455C8.01572 16.2248 7.98442 16.2124 7.95156 16.21H7.93359C7.8965 16.208 7.86007 16.1995 7.82605 16.1847C7.75751 16.1659 7.69145 16.1392 7.62919 16.1052H7.61122C7.58883 16.0273 7.58883 15.9447 7.61122 15.8668C7.6202 15.8668 7.6202 15.8756 7.62919 15.8756C7.73918 15.9186 7.85305 15.9511 7.96927 15.9728C8.00157 15.9802 8.03472 15.9831 8.06783 15.9817H8.13944C8.15334 15.9796 8.16663 15.9745 8.17843 15.967C8.19023 15.9594 8.20027 15.9495 8.20788 15.9378C8.2155 15.9261 8.22052 15.913 8.22261 15.8993C8.2247 15.8855 8.22383 15.8715 8.22003 15.8582C8.22029 15.8492 8.21803 15.8403 8.2135 15.8326C8.20897 15.8248 8.20235 15.8184 8.19437 15.8141C8.18243 15.8003 8.16709 15.7898 8.14982 15.7836C8.13254 15.7774 8.11394 15.7757 8.09581 15.7787C7.96919 15.7776 7.84418 15.7506 7.72877 15.6992C7.77715 15.6652 7.83197 15.6412 7.88996 15.6285C7.98763 15.6133 8.08656 15.6074 8.18538 15.6108C8.22435 15.6094 8.26337 15.6124 8.30165 15.6197C8.33758 15.6197 8.38224 15.6285 8.41792 15.6285C8.6058 15.6539 8.82089 15.6903 9.05343 15.7257C9.35783 15.7787 9.7069 15.8404 10.0739 15.8759C10.6903 15.9326 11.3107 15.9326 11.9271 15.8759C11.9483 15.8759 11.9694 15.8729 11.9897 15.867C12.0063 15.8666 12.0221 15.8604 12.0343 15.8493C12.0515 15.84 12.0651 15.8256 12.0731 15.808C12.0812 15.7905 12.0832 15.7709 12.079 15.7521C12.0776 15.7386 12.0734 15.7256 12.0667 15.7137C12.0601 15.7019 12.051 15.6915 12.0401 15.6833C12.0292 15.675 12.0168 15.669 12.0035 15.6656C11.9902 15.6623 11.9763 15.6616 11.9627 15.6637C11.9627 15.6637 11.7831 15.6814 11.4971 15.6992C11.0316 15.7246 10.5649 15.7162 10.1006 15.6739C9.74129 15.6384 9.40223 15.5766 9.09809 15.5237C8.90122 15.4883 8.72207 15.462 8.5519 15.4354L8.80266 15.0379C8.94207 15.1287 9.09665 15.1944 9.25927 15.2321C9.33868 15.2492 9.41976 15.2577 9.50105 15.2574C9.60448 15.2628 9.70796 15.2478 9.80546 15.2134C9.83867 15.198 9.86897 15.1771 9.89503 15.1516C10.0026 15.0369 10.0113 14.8602 10.0113 14.5777C10.0113 14.1096 10.0203 13.9595 10.0293 13.7564C10.0439 13.4842 10.0738 13.213 10.1188 12.9441L10.1725 12.6527C10.1982 12.538 10.2261 12.4231 10.2621 12.3172L10.2877 12.2378C10.4252 11.7502 10.6837 11.3042 11.0398 10.9398C11.101 10.8762 11.1668 10.817 11.2366 10.7626C11.3076 10.7076 11.3824 10.6574 11.4604 10.6125C11.5051 10.5872 11.559 10.5596 11.6037 10.533C11.6216 10.5241 11.6293 10.5153 11.6483 10.5077L11.702 10.4824C11.7361 10.464 11.7722 10.4492 11.8095 10.4383C12.2026 10.2845 12.622 10.2065 13.0448 10.2087C13.7445 10.1779 14.4297 10.4116 14.9606 10.8621C14.9863 10.8874 15.0142 10.9062 15.0412 10.9327C15.0675 10.957 15.0915 10.9836 15.1128 11.0122C15.7306 11.6922 16.026 12.8046 16.026 14.3941C16.026 14.403 16.017 15.0387 15.9814 15.6832C15.9814 15.7539 15.9724 15.8245 15.9724 15.8951C15.9634 16.1424 15.9467 16.3807 15.9277 16.5751C15.911 16.7176 15.9398 16.8617 16.0101 16.9872C16.0308 17.0246 16.0548 17.0601 16.0817 17.0933C16.1694 17.1771 16.2732 17.2429 16.3869 17.2869C16.5006 17.3308 16.6221 17.352 16.7442 17.3492C16.5024 17.4816 15.9831 17.6406 14.9626 17.773C14.949 17.7744 14.9358 17.7785 14.9238 17.7851C14.9118 17.7917 14.9012 17.8006 14.8929 17.8114C14.8845 17.8221 14.8784 17.8344 14.875 17.8475C14.8716 17.8607 14.8709 17.8743 14.8731 17.8877C14.8771 17.9128 14.8902 17.9356 14.91 17.9518C14.9298 17.9681 14.9549 17.9767 14.9806 17.9761H14.9986C17.1381 17.7113 17.1381 17.3138 17.1381 17.1814C17.1381 16.9341 16.7711 16.7576 16.4667 16.6515C16.4406 16.6422 16.4118 16.6434 16.3866 16.655C16.3614 16.6666 16.342 16.6876 16.3325 16.7133C16.323 16.7391 16.3242 16.7675 16.336 16.7923C16.3477 16.8171 16.369 16.8363 16.3951 16.8457C16.5869 16.8951 16.7627 16.9924 16.9053 17.1282C16.7907 17.1468 16.6733 17.1398 16.5618 17.1078C16.4502 17.0757 16.3474 17.0194 16.2609 16.9429C16.2201 16.8938 16.1896 16.8372 16.1712 16.7763C16.1527 16.7155 16.1466 16.6517 16.1533 16.5885C16.1713 16.3943 16.1893 16.1559 16.198 15.9085C17.8542 16.1911 18.7942 16.6591 18.7942 17.2065C18.7839 17.3036 18.7511 17.3972 18.6983 17.4798C18.6456 17.5625 18.5742 17.6321 18.4897 17.6832C18.4679 17.7012 18.4539 17.7268 18.4505 17.7547C18.4472 17.7826 18.4548 17.8107 18.4718 17.8333C18.481 17.8461 18.4931 17.8567 18.507 17.8643C18.521 17.8719 18.5365 17.8764 18.5524 17.8773C18.564 17.8778 18.5757 17.8758 18.5865 17.8714C18.5973 17.867 18.607 17.8604 18.615 17.852C18.7257 17.7816 18.8182 17.6867 18.885 17.5748C18.9519 17.4629 18.9912 17.3371 19 17.2075C18.99 16.5457 17.9962 16.0073 16.188 15.707ZM8.63224 7.55689L8.56961 7.49512C8.30114 7.2126 8.24724 6.75337 8.38173 6.26782C8.41985 6.13906 8.46466 6.01231 8.51597 5.88808C8.64047 5.61942 8.80322 5.36965 8.99927 5.14633C9.19227 4.92919 9.41176 4.73642 9.65274 4.57243C9.76819 4.49575 9.89115 4.4307 10.0198 4.37826C10.2417 4.27732 10.4825 4.22317 10.7269 4.21927C10.8643 4.2197 11.0007 4.2436 11.1299 4.28991C11.2181 4.32294 11.2999 4.37073 11.3716 4.43117C11.5065 4.56395 11.6052 4.72825 11.6583 4.90877C11.7115 5.08928 11.7175 5.28013 11.6758 5.46354C11.6668 5.50759 11.6578 5.54303 11.6501 5.58708L11.5069 5.62252C11.4813 5.63198 11.4603 5.65073 11.4482 5.67493C11.436 5.69914 11.4337 5.72699 11.4417 5.75281C11.4497 5.77863 11.4674 5.80047 11.4911 5.81389C11.5149 5.82731 11.5429 5.8313 11.5695 5.82505L11.5875 5.81619C11.4611 6.18997 11.2604 6.53517 10.9972 6.8316C10.6646 7.23452 10.2194 7.5323 9.71691 7.68803C9.54034 7.76196 9.34716 7.78876 9.15677 7.76574C8.96637 7.74272 8.78548 7.67069 8.63224 7.55689ZM9.02622 8.06017C8.97258 8.01612 8.92766 7.97182 8.883 7.92777C9.01065 7.96686 9.14333 7.98766 9.27698 7.98954C9.45008 7.9877 9.62198 7.96092 9.78723 7.91005C10.3279 7.73868 10.8066 7.41651 11.1655 6.98248C11.4489 6.6629 11.6648 6.29087 11.8008 5.88808L11.8264 5.92352C11.8357 5.93634 11.8477 5.94694 11.8617 5.95457C11.8756 5.96219 11.8911 5.96663 11.907 5.96757C11.9187 5.96804 11.9303 5.96601 11.9411 5.96164C11.952 5.95728 11.9617 5.95066 11.9697 5.94226C11.9915 5.92422 12.0055 5.89863 12.0089 5.87072C12.0122 5.84281 12.0046 5.8147 11.9876 5.79214L11.8534 5.63315C11.8624 5.58911 11.8714 5.5448 11.8791 5.49189C11.9376 5.15944 11.8808 4.81722 11.7179 4.52053C11.8027 4.57381 11.8835 4.63303 11.9597 4.69774C11.9686 4.69774 11.9686 4.7066 11.9776 4.71546C12.5595 5.2276 12.3806 6.38427 11.5747 7.31133C10.779 8.22953 9.64966 8.56522 9.05009 8.08827L9.02622 8.06017ZM6.98496 14.8858C6.97246 14.6208 7.02444 14.3566 7.13655 14.1155C7.24867 13.8743 7.41768 13.6631 7.62944 13.4995C7.87136 13.3128 8.16456 13.202 8.47105 13.1815C8.52518 13.1831 8.57909 13.189 8.63224 13.1992C8.6502 13.1992 8.6579 13.2081 8.66817 13.2081C8.7041 13.217 8.73978 13.2334 8.76673 13.2436C8.79774 13.2592 8.82767 13.2769 8.85631 13.2965C8.89768 13.3187 8.93422 13.3487 8.96385 13.3848C8.91998 13.37 8.87513 13.3581 8.82961 13.3494C8.79432 13.3406 8.75835 13.3346 8.72207 13.3316H8.71309C8.68598 13.3292 8.65892 13.3369 8.63735 13.3533C8.61579 13.3697 8.6013 13.3935 8.59682 13.42C8.59308 13.445 8.59954 13.4704 8.61478 13.4906C8.6321 13.5156 8.65727 13.5342 8.68639 13.5435H8.70436C8.81258 13.558 8.91813 13.5878 9.01775 13.6319C9.03745 13.6491 9.06308 13.6581 9.08936 13.6572C9.09349 13.7174 9.08475 13.7778 9.06369 13.8344L9.01005 13.9139C8.88196 13.83 8.73939 13.77 8.58937 13.7367C8.58041 13.735 8.57176 13.7321 8.56371 13.7278C8.53654 13.7233 8.50865 13.729 8.48549 13.7437C8.46232 13.7584 8.44555 13.7811 8.43845 13.8073C8.43413 13.8274 8.43609 13.8483 8.44406 13.8672C8.45204 13.8862 8.46566 13.9023 8.48311 13.9134C8.493 13.9228 8.50553 13.9289 8.51905 13.9311C8.62479 13.9532 8.72714 13.9888 8.82345 14.0372C8.77879 14.0549 8.72489 14.0726 8.67125 14.0901C8.53701 14.1255 8.42049 14.143 8.32219 14.1607C8.28989 14.1681 8.25673 14.171 8.22362 14.1696H8.11608C8.09951 14.1692 8.08363 14.1629 8.07142 14.1519C8.04576 14.143 8.03549 14.1266 8.02676 14.1266C8.005 14.109 7.97733 14.1003 7.9493 14.1021C7.92128 14.1039 7.89498 14.1161 7.8757 14.1362C7.85642 14.1564 7.84558 14.183 7.84537 14.2107C7.84516 14.2384 7.85559 14.2651 7.87456 14.2855C7.89637 14.3057 7.92039 14.3235 7.94617 14.3385C7.95298 14.3394 7.9593 14.3425 7.96414 14.3473C7.9282 14.3914 7.87456 14.4534 7.8299 14.5152C7.72222 14.65 7.62353 14.7915 7.53448 14.9389C7.40024 15.1597 7.24804 15.407 7.15846 15.5483C7.14258 15.5789 7.12466 15.6084 7.10482 15.6366C7.02403 15.3944 6.98355 15.1408 6.98496 14.8858ZM7.12818 17.2257C7.09224 17.2875 6.94851 17.2875 6.8058 17.208C6.6631 17.1285 6.60047 16.9961 6.62614 16.9432L6.63512 16.9343C6.65962 16.9122 6.69146 16.8996 6.7247 16.8989H6.73368C6.80664 16.9001 6.87779 16.9215 6.93901 16.9606C6.98755 16.9813 7.02972 17.0143 7.06126 17.0561C7.0928 17.098 7.1126 17.1473 7.11868 17.1991C7.12219 17.2026 7.12487 17.2067 7.12651 17.2113C7.12815 17.2159 7.12872 17.2209 7.12818 17.2257ZM8.30088 15.4068C8.14608 15.3872 7.98921 15.3902 7.83529 15.4156C7.74699 15.4282 7.66325 15.4623 7.59157 15.5147C7.5199 15.5671 7.46253 15.6362 7.42462 15.7159C7.37679 15.8268 7.35988 15.9483 7.37563 16.0679C7.39137 16.1874 7.43921 16.3007 7.5142 16.3959C7.54458 16.4334 7.57751 16.4688 7.61276 16.5019L7.29937 17.0141C7.24281 16.914 7.15908 16.8314 7.05759 16.7756C6.95596 16.7127 6.83734 16.6819 6.71751 16.6872H6.69954L8.01547 14.621C8.10505 14.5063 8.18564 14.4185 8.2208 14.365H8.22979C8.39039 14.35 8.54925 14.3204 8.70436 14.2767C8.86135 14.2446 9.00667 14.1714 9.12504 14.0648L8.30088 15.4068ZM9.79596 13.7468C9.78698 13.941 9.77799 14.0911 9.77799 14.5858C9.77799 14.7977 9.77799 14.9567 9.72435 15.0096C9.69868 15.045 9.61681 15.0536 9.48257 15.0536C9.41662 15.0521 9.35085 15.0462 9.28571 15.0359C9.14718 15.0062 9.0162 14.9491 8.90071 14.8681L9.83164 13.3846C9.81393 13.4995 9.80494 13.6152 9.79596 13.7468ZM11.5505 10.2148L11.4969 10.3031L11.4789 10.3386C11.461 10.3474 11.4343 10.3639 11.4163 10.374C11.2178 10.486 11.0343 10.622 10.8701 10.7791C10.491 11.1695 10.2144 11.6454 10.0644 12.1654C9.99101 12.3936 9.93414 12.6266 9.89426 12.8628L9.27647 13.8516C9.32434 13.693 9.30835 13.5222 9.23181 13.3749C9.16175 13.2747 9.07373 13.1878 8.97206 13.1187L10.9687 9.99504L11.0223 9.90669L11.076 9.81834L11.2012 9.62417C11.3161 9.61748 11.4307 9.6419 11.5326 9.6948C11.6215 9.75237 11.6903 9.83567 11.7294 9.93327L11.5505 10.2148ZM13.0905 9.98517H12.983C12.5892 9.98882 12.1989 10.0573 11.828 10.1877L11.9712 9.95808L11.9532 9.91403C11.8955 9.75137 11.7855 9.61178 11.6398 9.51658C11.4828 9.42729 11.2977 9.39894 11.1206 9.43709L11.0847 9.44595L10.9325 9.68442L9.53621 8.50142C9.59579 8.5088 9.65585 8.51177 9.71588 8.51028C10.3694 8.51028 11.1393 8.13054 11.7392 7.44196C12.3926 6.70021 12.6524 5.79948 12.4732 5.14608C13.4311 5.99365 15.0425 7.45943 15.6692 8.07764C15.8357 8.28235 15.9215 8.53947 15.911 8.80166C15.9271 9.11065 15.8807 9.4197 15.7746 9.71087C15.6686 10.002 15.505 10.2695 15.2932 10.4978C15.2322 10.5696 15.1665 10.6372 15.0964 10.7003C14.5419 10.2228 13.8261 9.96765 13.0903 9.98517H13.0905ZM8.69512 17.4632C9.45613 17.728 10.9332 17.8958 12.5356 17.8958C12.7235 17.8958 12.9026 17.8958 13.0818 17.8869C13.1102 17.8873 13.1374 17.8986 13.1575 17.9184C13.1776 17.9382 13.189 17.965 13.1893 17.993C13.19 18.0071 13.1877 18.0212 13.1826 18.0344C13.1774 18.0476 13.1695 18.0596 13.1594 18.0696C13.1493 18.0795 13.1371 18.0873 13.1238 18.0924C13.1104 18.0975 13.0961 18.0998 13.0818 18.0991C12.9021 18.0991 12.7148 18.108 12.5266 18.108C10.8973 18.108 9.40224 17.9401 8.61453 17.6576C8.58871 17.6478 8.56775 17.6286 8.55606 17.6039C8.54437 17.5792 8.54288 17.551 8.5519 17.5252C8.56445 17.4998 8.58574 17.4796 8.61197 17.4683C8.6382 17.4569 8.66767 17.4551 8.69512 17.4632ZM16.8237 18.4874C16.8283 18.5142 16.8226 18.5417 16.8077 18.5646C16.7928 18.5874 16.7698 18.604 16.7431 18.611C15.4237 18.8782 14.0795 19.0085 12.7325 18.9996H12.5451C12.5306 19.0003 12.516 18.9981 12.5024 18.993C12.4887 18.988 12.4762 18.9803 12.4657 18.9704C12.4551 18.9605 12.4467 18.9486 12.441 18.9354C12.4353 18.9222 12.4323 18.908 12.4323 18.8936C12.4323 18.8793 12.4353 18.865 12.441 18.8518C12.4467 18.8386 12.4551 18.8267 12.4657 18.8168C12.4762 18.8069 12.4887 18.7992 12.5024 18.7942C12.516 18.7892 12.5306 18.787 12.5451 18.7877H12.733C14.0649 18.7965 15.394 18.6665 16.6982 18.3998C16.7258 18.4002 16.7526 18.4089 16.775 18.4247C16.7974 18.4406 16.8143 18.4628 16.8235 18.4884L16.8237 18.4874ZM9.33063 18.6993C9.32659 18.7244 9.31346 18.7472 9.29368 18.7634C9.27391 18.7797 9.24882 18.7883 9.22308 18.7877H9.20512C8.68901 18.7112 8.17789 18.6051 7.67436 18.4697C7.25329 18.3602 6.84959 18.1938 6.4747 17.9753C6.34627 17.9125 6.23568 17.8191 6.15285 17.7037C6.07001 17.5883 6.01754 17.4544 6.00013 17.3141C5.99942 17.2997 6.00167 17.2854 6.00675 17.2719C6.01182 17.2584 6.01962 17.2461 6.02966 17.2357C6.03971 17.2253 6.05179 17.217 6.06518 17.2114C6.07857 17.2057 6.09298 17.2028 6.10754 17.2028C6.12211 17.2028 6.13652 17.2057 6.14991 17.2114C6.1633 17.217 6.17538 17.2253 6.18542 17.2357C6.19547 17.2461 6.20326 17.2584 6.20834 17.2719C6.21342 17.2854 6.21567 17.2997 6.21496 17.3141C6.21496 17.473 6.34021 17.6409 6.59097 17.7996C6.94522 18.0149 7.33212 18.1729 7.73699 18.2677C8.23044 18.4051 8.73302 18.5084 9.24105 18.5768C9.26856 18.5833 9.29276 18.5994 9.30918 18.6221C9.3256 18.6448 9.33312 18.6726 9.33037 18.7003L9.33063 18.6993ZM11.6134 12.695C11.7481 12.6968 11.8793 12.6523 11.9844 12.5692C12.0895 12.4862 12.1621 12.3696 12.1897 12.2396C12.2174 12.1096 12.1983 11.9741 12.1358 11.8564C12.0733 11.7387 11.9713 11.646 11.8472 11.5944C11.7231 11.5427 11.5847 11.5351 11.4556 11.573C11.3264 11.6109 11.2147 11.6919 11.1395 11.8021C11.0642 11.9124 11.0302 12.0449 11.0431 12.1772C11.0561 12.3094 11.1152 12.4331 11.2104 12.5271C11.2617 12.5817 11.3241 12.6249 11.3935 12.654C11.4629 12.6831 11.5378 12.6974 11.6132 12.696L11.6134 12.695ZM11.3537 11.8836C11.3863 11.8504 11.4252 11.8239 11.4683 11.8057C11.5113 11.7875 11.5576 11.7779 11.6044 11.7775C11.638 11.7783 11.6713 11.7843 11.703 11.7952C11.6516 11.831 11.6099 11.8787 11.5818 11.9342C11.5537 11.9897 11.5399 12.0512 11.5418 12.1132C11.5346 12.1824 11.5498 12.2522 11.5851 12.3124C11.6205 12.3726 11.6742 12.4203 11.7387 12.4486C11.673 12.4752 11.601 12.4827 11.5312 12.4702C11.4614 12.4577 11.3966 12.4257 11.3447 12.378C11.311 12.3459 11.2842 12.3074 11.2657 12.265C11.2473 12.2225 11.2376 12.1769 11.2371 12.1307C11.2536 12.0397 11.2937 11.9546 11.3537 11.8836ZM13.5112 12.696C13.6244 12.6965 13.7353 12.6637 13.8296 12.6019C13.9238 12.54 13.9973 12.4518 14.0405 12.3486C14.0838 12.2453 14.0948 12.1317 14.0723 12.0223C14.0498 11.9128 13.9948 11.8124 13.9142 11.734C13.8885 11.7087 13.8605 11.6899 13.8336 11.6633C13.7622 11.6135 13.6788 11.5831 13.5918 11.575C13.5535 11.5662 13.5138 11.5662 13.4755 11.575C13.3878 11.5808 13.3023 11.6048 13.2248 11.6456C13.1486 11.6882 13.0835 11.7477 13.0346 11.8193C12.9857 11.891 12.9544 11.9728 12.9431 12.0585C12.9318 12.1441 12.9409 12.2312 12.9696 12.3128C12.9983 12.3944 13.0459 12.4683 13.1085 12.5286C13.1599 12.5829 13.2223 12.6259 13.2917 12.6547C13.3611 12.6836 13.4359 12.6976 13.5112 12.696ZM13.2604 11.8836C13.293 11.8504 13.332 11.8239 13.375 11.8057C13.4181 11.7875 13.4644 11.7779 13.5112 11.7775C13.5572 11.7774 13.6027 11.786 13.6454 11.8028C13.5966 11.8399 13.558 11.8884 13.5329 11.9439C13.5079 11.9994 13.4974 12.0602 13.5022 12.1208C13.4966 12.1855 13.5096 12.2505 13.5397 12.3083C13.5698 12.3661 13.6158 12.4144 13.6724 12.4476C13.6056 12.4793 13.5306 12.4904 13.4574 12.4793C13.3841 12.4683 13.3159 12.4357 13.2617 12.3859C13.2281 12.3537 13.2012 12.3153 13.1828 12.2728C13.1643 12.2304 13.1546 12.1847 13.1542 12.1385C13.1537 12.0912 13.1629 12.0442 13.1812 12.0005C13.1994 11.9567 13.2264 11.9169 13.2604 11.8836ZM15.1225 13.738C14.8541 13.2787 14.0215 13.1375 13.9855 13.1286C13.9714 13.1258 13.9568 13.1259 13.9426 13.1288C13.9285 13.1318 13.9152 13.1376 13.9034 13.1459C13.8917 13.1542 13.8818 13.1648 13.8743 13.177C13.8669 13.1892 13.8621 13.2028 13.8603 13.217C13.8557 13.245 13.8626 13.2737 13.8794 13.2969C13.8961 13.32 13.9214 13.3357 13.9498 13.3405C13.9702 13.3464 13.9913 13.3494 14.0125 13.3494C14 13.3601 13.991 13.3741 13.9864 13.3898C13.9819 13.4055 13.982 13.4221 13.9868 13.4377C13.962 13.4327 13.9361 13.4372 13.9145 13.4504C13.8929 13.4635 13.8772 13.4842 13.8705 13.5084C13.8632 13.5353 13.8666 13.5639 13.8798 13.5885C13.8931 13.6131 13.9154 13.6318 13.9421 13.6408C13.9699 13.6462 13.9969 13.6547 14.0227 13.6661V13.6838C14.0242 13.7164 14.0212 13.7491 14.0138 13.781C13.9744 13.7536 13.9324 13.7299 13.8885 13.7104C13.8624 13.6987 13.8326 13.6976 13.8058 13.7076C13.7789 13.7175 13.7572 13.7375 13.7453 13.7633C13.7334 13.789 13.7324 13.8184 13.7424 13.8449C13.7525 13.8714 13.7728 13.8928 13.7989 13.9045C13.849 13.929 13.8945 13.9619 13.9332 14.0018C13.8742 14.1183 13.7835 14.2163 13.6713 14.2849C13.559 14.3535 13.4297 14.39 13.2977 14.3903C13.2046 14.3909 13.1124 14.3732 13.0264 14.3384C12.9404 14.3035 12.8622 14.2521 12.7964 14.1873C12.7307 14.1224 12.6786 14.0453 12.6433 13.9604C12.6079 13.8756 12.59 13.7846 12.5905 13.6929V13.6575C12.5995 13.6486 12.6085 13.6486 12.6162 13.6397L12.8937 13.4013C12.9161 13.3835 12.9336 13.3604 12.9446 13.3342C12.9555 13.3079 12.9595 13.2793 12.9563 13.2511C12.9563 13.2217 12.9479 13.1928 12.932 13.1678C12.9162 13.1429 12.8936 13.1228 12.8667 13.1099C12.7813 13.0664 12.6831 13.0539 12.5893 13.0744C12.5057 13.0789 12.422 13.0789 12.3385 13.0744C12.2544 13.0555 12.1662 13.0644 12.0877 13.0998C12.0613 13.1154 12.0392 13.1373 12.0236 13.1636C12.0079 13.1898 11.9992 13.2195 11.9982 13.2499C11.9948 13.2794 11.9988 13.3093 12.0097 13.3369C12.0206 13.3646 12.0381 13.3893 12.0608 13.4089L12.3562 13.6562H12.3654V13.718C12.3653 13.8755 12.3112 14.0284 12.2118 14.1518C12.1125 14.2751 11.9738 14.3618 11.8182 14.3976C11.6627 14.4334 11.4994 14.4163 11.355 14.349C11.2105 14.2817 11.0934 14.1683 11.0226 14.0271C11.0674 13.9907 11.1153 13.9581 11.1658 13.9299C11.1919 13.9181 11.2122 13.8967 11.2223 13.8702C11.2323 13.8437 11.2313 13.8143 11.2194 13.7886C11.2076 13.7628 11.1858 13.7428 11.1589 13.7329C11.1321 13.723 11.1023 13.724 11.0762 13.7357C11.0323 13.7552 10.9903 13.7789 10.951 13.8063C10.9435 13.7745 10.9405 13.7418 10.942 13.7091V13.6914C10.9707 13.6794 11.0008 13.6709 11.0316 13.6661C11.0451 13.662 11.0577 13.6554 11.0686 13.6466C11.0796 13.6377 11.0886 13.6269 11.0953 13.6146C11.1019 13.6022 11.106 13.5888 11.1074 13.5749C11.1088 13.561 11.1073 13.547 11.1032 13.5337C11.0964 13.5095 11.0807 13.4888 11.059 13.4757C11.0374 13.4627 11.0115 13.4582 10.9866 13.4633C10.9915 13.4463 10.9916 13.4283 10.9871 13.4113C10.9826 13.3942 10.9736 13.3786 10.961 13.3661C10.9785 13.3612 10.9965 13.3582 11.0146 13.3572C11.0429 13.3545 11.0691 13.341 11.0875 13.3196C11.1059 13.2982 11.1151 13.2705 11.1132 13.2425C11.1127 13.2284 11.1093 13.2145 11.103 13.2017C11.0968 13.1889 11.0879 13.1776 11.0769 13.1684C11.066 13.1593 11.0532 13.1525 11.0394 13.1485C11.0256 13.1445 11.0111 13.1434 10.9969 13.1453C10.8195 13.1618 10.6475 13.2143 10.4917 13.2996C10.3358 13.3848 10.1996 13.5009 10.0914 13.6405C10.0757 13.6641 10.0696 13.6927 10.0743 13.7205C10.0791 13.7484 10.0944 13.7734 10.117 13.7906C10.136 13.8017 10.1576 13.8078 10.1797 13.8083C10.1971 13.8085 10.2143 13.8046 10.2298 13.7969C10.2454 13.7893 10.2589 13.7781 10.2693 13.7643C10.3965 13.5953 10.5753 13.4711 10.7795 13.4099C10.7633 13.4558 10.7513 13.5031 10.7436 13.5511C10.539 13.6392 10.3603 13.7768 10.2242 13.9512C10.088 14.1257 9.99882 14.3312 9.96485 14.5488C9.96294 14.5622 9.96376 14.5758 9.96725 14.5888C9.97074 14.6018 9.97684 14.6141 9.98518 14.6247C9.99352 14.6354 10.0039 14.6444 10.0158 14.651C10.0277 14.6577 10.0408 14.6619 10.0544 14.6635H10.0634C10.0891 14.6641 10.1142 14.6555 10.134 14.6393C10.1538 14.623 10.1669 14.6002 10.1709 14.5752C10.1964 14.4122 10.2597 14.2572 10.356 14.1224C10.4524 13.9876 10.579 13.8766 10.7261 13.7982C10.7329 13.8582 10.7449 13.9175 10.7621 13.9754C10.6085 14.1568 10.5013 14.3718 10.4494 14.6025C10.4453 14.6159 10.4441 14.63 10.4461 14.6438C10.448 14.6577 10.453 14.6709 10.4607 14.6827C10.4683 14.6945 10.4785 14.7044 10.4905 14.7119C10.5025 14.7194 10.516 14.7242 10.53 14.726H10.5557C10.5794 14.7242 10.6021 14.7158 10.6212 14.7017C10.6402 14.6876 10.6548 14.6685 10.6632 14.6465C10.6973 14.4806 10.7673 14.324 10.8686 14.1873C10.9502 14.3216 11.0656 14.4328 11.2036 14.5102C11.3416 14.5875 11.4975 14.6284 11.6563 14.6288C11.7694 14.6262 11.8813 14.6054 11.9876 14.5671V14.7172C11.9876 14.846 12.0395 14.9695 12.1319 15.0606C12.2242 15.1517 12.3494 15.2029 12.48 15.2029C12.6106 15.2029 12.7359 15.1517 12.8282 15.0606C12.9206 14.9695 12.9725 14.846 12.9725 14.7172V14.54C13.0754 14.5791 13.1845 14.6 13.2948 14.6017C13.4539 14.6019 13.6102 14.5615 13.7487 14.4844C13.8872 14.4073 14.0031 14.2961 14.0851 14.1617C14.1863 14.2984 14.2564 14.4551 14.2904 14.621C14.2965 14.6443 14.3105 14.6649 14.3301 14.6793C14.3496 14.6938 14.3736 14.7012 14.398 14.7005H14.4236C14.4496 14.6924 14.4719 14.6757 14.4866 14.6531C14.5014 14.6305 14.5076 14.6036 14.5042 14.5769C14.4521 14.3463 14.3446 14.1313 14.1909 13.9501C14.208 13.8922 14.22 13.8329 14.2268 13.7729C14.3739 13.8513 14.5006 13.9623 14.5969 14.0971C14.6932 14.2319 14.7565 14.3868 14.782 14.5498C14.786 14.5749 14.7991 14.5977 14.8189 14.6139C14.8387 14.6302 14.8638 14.6388 14.8895 14.6382H14.8985C14.9121 14.6368 14.9254 14.6327 14.9374 14.6261C14.9494 14.6195 14.9599 14.6106 14.9683 14.5998C14.9766 14.5891 14.9827 14.5768 14.9861 14.5637C14.9895 14.5506 14.9902 14.5369 14.9881 14.5235C14.9541 14.3059 14.8649 14.1004 14.7287 13.9259C14.5926 13.7515 14.4139 13.6139 14.2093 13.5258C14.2016 13.4807 14.1895 13.4364 14.1734 13.3934C14.4654 13.4564 14.7273 13.6149 14.9167 13.843C14.9251 13.8592 14.938 13.8728 14.9538 13.8821C14.9696 13.8915 14.9878 13.8963 15.0063 13.8959C15.0253 13.894 15.0436 13.888 15.0599 13.8782C15.0744 13.8745 15.0878 13.8675 15.0991 13.858C15.1105 13.8484 15.1195 13.8364 15.1255 13.823C15.1315 13.8095 15.1344 13.7949 15.1339 13.7801C15.1334 13.7654 15.1295 13.751 15.1225 13.738ZM12.7761 14.6916C12.776 14.7617 12.7479 14.829 12.6977 14.8787C12.6476 14.9284 12.5795 14.9565 12.5084 14.9569C12.4378 14.9552 12.3705 14.9267 12.3205 14.8774C12.2705 14.8281 12.2417 14.7618 12.2399 14.6921V14.4177C12.2979 14.3723 12.3518 14.3221 12.4011 14.2676V14.6562C12.4015 14.6842 12.4129 14.711 12.433 14.7308C12.4531 14.7506 12.4802 14.7619 12.5087 14.7622C12.5366 14.7604 12.5629 14.7486 12.5826 14.7291C12.6024 14.7096 12.6143 14.6837 12.6162 14.6562V14.2764C12.6611 14.3325 12.7157 14.3803 12.7774 14.4177L12.7761 14.6916Z" fill="white"/>
<defs>
<linearGradient id="paint0_linear" x1="-0.0960001" y1="6.168" x2="19.56" y2="22.968" gradientUnits="userSpaceOnUse">
<stop offset="0.088" stop-color="#F70FFF"/>
<stop offset="0.909" stop-color="#12D6DF"/>
</linearGradient>
</defs>
</svg>
