<svg version="1.1" viewBox="0.0 0.0 960.0 960.0" fill="none" stroke="none" stroke-linecap="square" stroke-miterlimit="10" xmlns:xlink="http://www.w3.org/1999/xlink" xmlns="http://www.w3.org/2000/svg"><clipPath id="p.0"><path d="m0 0l960.0 0l0 960.0l-960.0 0l0 -960.0z" clip-rule="nonzero"/></clipPath><g clip-path="url(#p.0)"><path fill="#000000" fill-opacity="0.0" d="m0 0l960.0 0l0 960.0l-960.0 0z" fill-rule="evenodd"/><defs><radialGradient id="p.1" gradientUnits="userSpaceOnUse" gradientTransform="matrix(26.054222432490278 0.0 0.0 26.054222432490278 0.0 0.0)" spreadMethod="pad" cx="18.423097606668968" cy="18.423115991505664" fx="18.423097606668968" fy="18.423115991505664" r="26.054222106933594"><stop offset="0.0" stop-color="#0972c2"/><stop offset="1.0" stop-color="#000000"/></radialGradient></defs><path fill="url(#p.1)" d="m-5.1706034E-4 -3.8057744E-5l960.0 0l0 960.0l-960.0 0z" fill-rule="evenodd"/><path stroke="#000000" stroke-width="1.0" stroke-linejoin="round" stroke-linecap="butt" d="m-5.1706034E-4 -3.8057744E-5l960.0 0l0 960.0l-960.0 0z" fill-rule="evenodd"/><path fill="#ffffff" d="m281.9696 197.932l396.06036 0l-132.0188 116.84357l-147.198 0l0 130.27795l-116.84357 103.41272z" fill-rule="evenodd"/><path stroke="#ffffff" stroke-width="1.0" stroke-linejoin="round" stroke-linecap="butt" d="m281.9696 197.932l396.06036 0l-132.0188 116.84357l-147.198 0l0 130.27795l-116.84357 103.41272z" fill-rule="evenodd"/><path fill="#ffffff" d="m678.02997 785.6757l-396.06036 0l132.0188 -116.84357l147.19794 0l0 -130.27795l116.84363 -103.41272z" fill-rule="evenodd"/><path stroke="#ffffff" stroke-width="1.0" stroke-linejoin="round" stroke-linecap="butt" d="m678.02997 785.6757l-396.06036 0l132.0188 -116.84357l147.19794 0l0 -130.27795l116.84363 -103.41272z" fill-rule="evenodd"/></g></svg>