<svg width="24" height="24" viewBox="0 0 24 24" fill="none" xmlns="http://www.w3.org/2000/svg">
<path d="M12 24C18.6274 24 24 18.6274 24 12C24 5.37258 18.6274 0 12 0C5.37258 0 0 5.37258 0 12C0 18.6274 5.37258 24 12 24Z" fill="#003057"/>
<path d="M9.52024 19C9.37992 18.9999 9.24167 18.967 9.11687 18.9039C8.99206 18.8408 8.88428 18.7493 8.80243 18.6371L5.29028 13.844H3V12.0993H5.74361C5.88381 12.0991 6.02203 12.1319 6.14685 12.1948C6.27167 12.2577 6.37948 12.349 6.46139 12.4611L9.33134 16.376L13.71 6.52223C13.779 6.36687 13.8924 6.2347 14.0364 6.14193C14.1805 6.04917 14.349 5.99984 14.521 6H20V7.74466H15.1007L10.3324 18.4766C10.2696 18.6181 10.1697 18.7407 10.0429 18.8316C9.91616 18.9226 9.76716 18.9787 9.61109 18.9942C9.57964 18.9959 9.54812 18.9959 9.51667 18.9942" fill="#00C389"/>
<path d="M12 24C18.6274 24 24 18.6274 24 12C24 5.37258 18.6274 0 12 0C5.37258 0 0 5.37258 0 12C0 18.6274 5.37258 24 12 24Z" fill="url(#paint0_linear)"/>
<path d="M23.5 12C23.5 18.3513 18.3513 23.5 12 23.5C5.64873 23.5 0.5 18.3513 0.5 12C0.5 5.64873 5.64873 0.5 12 0.5C18.3513 0.5 23.5 5.64873 23.5 12Z" stroke="white" stroke-opacity="0.3"/>
<path d="M5.25465 3.29248C5.15115 3.36915 5.11665 3.44869 5.11665 3.57136C5.12048 6.4579 5.12431 8.84699 5.12048 11.7335C5.12048 12.1935 5.15115 12.6497 5.24315 13.102C5.47698 14.2942 5.98299 15.3561 6.788 16.2684C6.94134 16.4716 7.12534 16.6518 7.31701 16.8204C8.96153 18.2848 10.8744 18.8713 13.0556 18.5224C14.7001 18.2618 16.0341 17.4453 17.1113 16.1918C17.1343 16.1688 17.1573 16.1496 17.1803 16.1266C18.3418 14.6699 18.8631 13.0177 18.6753 11.1624C18.4836 9.24567 17.6135 7.68932 16.1108 6.4933C14.8803 5.50429 13.4581 5.04428 11.8864 5.02512C11.3382 5.01745 10.79 5.02128 10.2419 5.02512C10.1192 5.02512 10.0732 4.99828 10.077 4.86795C10.0847 4.54978 10.0847 4.23161 10.077 3.91344C10.0732 3.79077 10.1077 3.75243 10.238 3.75243C10.7977 3.7601 11.3612 3.75627 11.9209 3.75627C13.2511 3.75243 14.5199 4.03994 15.6776 4.68778C18.4568 6.24413 19.902 8.62849 19.9978 11.8179C20.0132 12.297 19.9442 12.7685 19.8867 13.2439C19.6988 14.1141 19.4228 14.9459 18.9935 15.7317C16.8775 19.6035 11.9401 21.0525 8.07218 18.9326C7.15217 18.4266 6.3625 17.7634 5.68399 16.9661C5.68015 16.9546 5.67632 16.9431 5.66865 16.9316C4.41514 15.3791 3.82863 13.6081 3.84013 11.6262C3.85163 9.2035 3.84013 7.2907 3.84013 4.868V4.67233L5.25465 3.29248Z" fill="white"/>
<path d="M8.48237 1.62988C8.34054 1.67588 8.28687 1.92865 8.28687 2.08582C8.29454 5.57803 8.2907 8.34092 8.2907 11.837C8.2907 12.0785 8.3137 12.32 8.36354 12.5576C8.75454 14.436 10.5371 15.6703 12.3924 15.4288C14.2516 15.1835 15.7965 13.4776 15.5205 11.3731C15.2751 9.4871 13.7418 8.19142 11.8442 8.19142C11.3076 8.19142 10.7747 8.18758 10.2381 8.19525C10.1116 8.19525 10.0732 8.16075 10.0771 8.03425C10.0847 7.70841 10.0847 7.38257 10.0771 7.06057C10.0771 6.9494 10.1154 6.91873 10.2227 6.92257C10.5141 6.9264 10.8092 6.91873 11.1006 6.9264C11.6794 6.9379 12.2583 6.89957 12.8333 7.00307C16.245 7.61641 17.947 11.6146 16.0303 14.5127C15.6086 15.149 15.0605 15.655 14.4203 16.0652C14.3398 16.1035 14.2593 16.1418 14.1826 16.184C13.4236 16.5789 12.6186 16.7552 11.7637 16.7322C10.9971 16.713 10.2879 16.506 9.60939 16.1687C9.57872 16.1495 9.54422 16.1265 9.51355 16.1073C7.88436 15.126 7.02185 13.6847 7.01035 11.7756C6.99502 8.49809 7.00652 5.60105 7.00652 2.32734V2.23939L8.48237 1.62988Z" fill="white"/>
<path d="M13.7532 11.9021C13.6305 12.8758 12.883 13.5658 11.9323 13.5773C11.02 13.5888 10.2035 12.8988 10.1038 11.9826C10.031 11.3233 10.0923 10.6601 10.077 9.99695C10.0732 9.87812 10.1498 9.88579 10.2303 9.88579C10.5217 9.88579 10.8168 9.88579 11.1772 9.88579C11.5337 9.90879 11.963 9.83979 12.3847 9.94712C13.2549 10.1695 13.8605 11.0358 13.7532 11.9021Z" fill="white"/>
<defs>
<linearGradient id="paint0_linear" x1="12" y1="0" x2="12" y2="24" gradientUnits="userSpaceOnUse">
<stop stop-color="#007CEB"/>
<stop offset="1" stop-color="#005DD2"/>
</linearGradient>
</defs>
</svg>
