<svg width="162" height="163" viewBox="0 0 162 163" fill="none" xmlns="http://www.w3.org/2000/svg">
<g filter="url(#filter0_d)">
<circle cx="81" cy="77" r="72" fill="url(#paint0_linear)"/>
<circle cx="81" cy="77" r="72.6545" stroke="white" stroke-width="1.30909"/>
</g>
<path d="M106.991 11.8357C142.317 25.7713 159.86 65.4045 146.633 100.825L17.255 49.7873C31.7811 14.8793 71.665 -2.09991 106.991 11.8357Z" fill="white" stroke="#4B078A" stroke-width="2.61818"/>
<path d="M65.9456 43.0647L80.6675 51.7279L95.3908 43.0647L80.6679 18.7455L80.6674 18.7472L65.9456 43.0647Z" fill="#460782"/>
<path d="M65.9456 47.8372L80.6683 68.4909L95.4001 47.8372L80.6683 56.4965L65.9456 47.8372Z" fill="#460782"/>
<path d="M49.0615 92.0863C47.9125 91.5968 46.9791 90.1966 46.9767 88.959L46.9636 82.2363L67.7686 91.1001L67.8208 116.317C67.8208 122.157 67.8208 122.444 71.9905 124.245L84.4735 129.564L84.4909 138.527L63.6859 129.663C61.3878 128.684 59.521 125.884 59.5162 123.409L59.4988 114.445L55.3378 112.673C53.0398 111.694 51.1729 108.893 51.1681 106.418L51.1594 101.936L59.4814 105.482L59.464 96.5182L49.0615 92.0863Z" fill="white"/>
<path d="M84.4561 120.6L80.2982 118.829C76.1285 116.796 76.1285 117.179 76.1285 112.571L76.0906 82.2759L80.2485 84.0473C82.5478 85.0269 84.4151 87.8294 84.4182 90.3052L84.4561 120.6Z" fill="white"/>
<path d="M101.504 68.7637V64.8273L109.674 56.7231C110.644 55.7748 111.361 54.9148 111.824 54.1429C112.309 53.349 112.552 52.489 112.552 51.5628C112.552 50.6807 112.287 49.986 111.758 49.4788C111.229 48.9716 110.291 48.718 108.946 48.718H102.066V44.8809C103.124 44.6824 104.293 44.506 105.572 44.3516C106.873 44.1752 108.318 44.087 109.906 44.087C111.824 44.087 113.324 44.3516 114.404 44.8809C115.507 45.4102 116.29 46.171 116.753 47.1633C117.216 48.1557 117.447 49.3575 117.447 50.7689C117.447 52.4228 117.117 53.8673 116.455 55.1022C115.794 56.3371 114.812 57.5941 113.511 58.8732L108.02 64.3311H118.208V68.7637H101.504ZM120.654 68.7637L126.674 59.634L120.654 51.0005H125.583L129.519 56.6238L133.025 51.0005H137.987L131.967 60.1632L137.987 68.7637H133.025L129.122 63.1734L125.616 68.7637H120.654Z" fill="#460782"/>
<defs>
<filter id="filter0_d" x="0.0743889" y="0.83472" width="161.851" height="161.851" filterUnits="userSpaceOnUse" color-interpolation-filters="sRGB">
<feFlood flood-opacity="0" result="BackgroundImageFix"/>
<feColorMatrix in="SourceAlpha" type="matrix" values="0 0 0 0 0 0 0 0 0 0 0 0 0 0 0 0 0 0 127 0"/>
<feMorphology radius="1.90413" operator="erode" in="SourceAlpha" result="effect1_dropShadow"/>
<feOffset dy="4.76033"/>
<feGaussianBlur stdDeviation="4.76033"/>
<feColorMatrix type="matrix" values="0 0 0 0 0.227451 0 0 0 0 0.0196078 0 0 0 0 0.423529 0 0 0 0.25 0"/>
<feBlend mode="normal" in2="BackgroundImageFix" result="effect1_dropShadow"/>
<feBlend mode="normal" in="SourceGraphic" in2="effect1_dropShadow" result="shape"/>
</filter>
<linearGradient id="paint0_linear" x1="81" y1="44.5924" x2="81" y2="149" gradientUnits="userSpaceOnUse">
<stop stop-color="#3A056C"/>
<stop offset="1" stop-color="#4D078D"/>
</linearGradient>
</defs>
</svg>
