<svg width="24" height="24" viewBox="0 0 24 24" fill="none" xmlns="http://www.w3.org/2000/svg">
<path fill-rule="evenodd" clip-rule="evenodd" d="M0 12C0 5.37259 5.37259 0 12 0C18.6274 0 24 5.37259 24 12C24 18.6274 18.6274 24 12 24C5.37259 24 0 18.6274 0 12Z" fill="#5957D5"/>
<path d="M6.98444 9.03378C7.22673 9.31785 7.43206 9.63145 7.59556 9.96711C7.71729 10.2053 7.89499 10.4104 8.11339 10.5648C8.3318 10.7192 8.5844 10.8183 8.84953 10.8537C9.11466 10.889 9.38441 10.8596 9.63565 10.7678C9.88689 10.676 10.1121 10.5246 10.292 10.3267C10.4899 10.1468 10.6413 9.92155 10.7331 9.67032C10.8249 9.41908 10.8544 9.14933 10.819 8.8842C10.7837 8.61906 10.6845 8.36646 10.5301 8.14806C10.3757 7.92965 10.1706 7.75196 9.93244 7.63022C9.60696 7.45302 9.30504 7.23561 9.03378 6.98311L12.0178 4L15.0022 6.98444C15.2599 6.69074 15.4775 6.3642 15.6493 6.01333C15.7711 5.77516 15.9488 5.57008 16.1672 5.41566C16.3856 5.26125 16.6382 5.16211 16.9033 5.12676C17.1684 5.0914 17.4382 5.12089 17.6894 5.21268C17.9407 5.30447 18.1659 5.45583 18.3458 5.65378C18.5148 5.80344 18.6515 5.98613 18.7472 6.19059C18.843 6.39506 18.8959 6.61697 18.9026 6.84265C18.9094 7.06834 18.8698 7.29301 18.7864 7.50283C18.7031 7.71265 18.5776 7.90318 18.4178 8.06267L17.9862 8.38622C17.6355 8.55812 17.3091 8.77572 17.0156 9.03333L20 12.0178L17.0156 15.0022C16.7579 14.7087 16.5403 14.3823 16.3684 14.0316C16.2467 13.7934 16.069 13.5883 15.8506 13.4339C15.6322 13.2795 15.3796 13.1803 15.1145 13.145C14.8493 13.1096 14.5796 13.1391 14.3284 13.2309C14.0771 13.3227 13.8519 13.4741 13.672 13.672C13.4741 13.8519 13.3227 14.0771 13.2309 14.3284C13.1391 14.5796 13.1096 14.8493 13.145 15.1145C13.1803 15.3796 13.2795 15.6322 13.4339 15.8506C13.5883 16.069 13.7934 16.2467 14.0316 16.3684C14.3823 16.5403 14.7087 16.7579 15.0022 17.0156L12.0178 20L9.03333 17.0156C8.77583 17.3093 8.55839 17.6358 8.38667 17.9867C8.26493 18.2248 8.08724 18.4299 7.86883 18.5843C7.65043 18.7388 7.39782 18.8379 7.13269 18.8732C6.86756 18.9086 6.59781 18.8791 6.34657 18.7873C6.09534 18.6955 5.87011 18.5442 5.69022 18.3462C5.49227 18.1663 5.34091 17.9411 5.24912 17.6899C5.15733 17.4386 5.12785 17.1689 5.1632 16.9038C5.19855 16.6386 5.29769 16.386 5.45211 16.1676C5.60652 15.9492 5.81161 15.7715 6.04978 15.6498C6.40114 15.4779 6.72814 15.2601 7.02222 15.0022L4 12.0178L6.98444 9.03378Z" fill="white"/>
<path d="M23.5 12C23.5 18.3513 18.3513 23.5 12 23.5C5.64873 23.5 0.5 18.3513 0.5 12C0.5 5.64873 5.64873 0.5 12 0.5C18.3513 0.5 23.5 5.64873 23.5 12Z" stroke="white" stroke-opacity="0.3"/>
</svg>
