<svg width="24" height="24" viewBox="0 0 24 24" fill="none" xmlns="http://www.w3.org/2000/svg">
<path d="M12 24C18.6274 24 24 18.6274 24 12C24 5.37258 18.6274 0 12 0C5.37258 0 0 5.37258 0 12C0 18.6274 5.37258 24 12 24Z" fill="#384850"/>
<path d="M23.5 12C23.5 18.3513 18.3513 23.5 12 23.5C5.64873 23.5 0.5 18.3513 0.5 12C0.5 5.64873 5.64873 0.5 12 0.5C18.3513 0.5 23.5 5.64873 23.5 12Z" stroke="white" stroke-opacity="0.3"/>
<path d="M11.989 21.0009C7.00705 20.9846 2.97329 16.9371 3.00013 11.9806C3.02698 6.99407 7.07909 2.96358 12.0283 3.00025C17.0103 3.03692 21.0054 7.04646 21.0002 12.0042C20.9956 16.9816 16.9533 21.0167 11.989 21.0009ZM20.4547 11.9996C20.454 7.31494 16.6763 3.54114 11.9916 3.54703C7.3181 3.55227 3.55609 7.31167 3.54692 11.9852C3.5371 16.6699 7.30828 20.4509 11.9936 20.4548C16.6789 20.4587 20.4547 16.6856 20.4547 11.9996Z" fill="white"/>
<path d="M6.91596 12.001C6.51258 12.001 6.10921 11.9905 5.70648 12.0056C5.50938 12.0128 5.44324 11.967 5.45765 11.7555C5.62856 9.25204 6.80726 7.38969 9.00684 6.18742C9.85943 5.72118 10.79 5.50705 11.7604 5.45924C11.9372 5.45073 12.0073 5.48216 12.0047 5.67992C11.9935 6.50763 11.9962 7.336 12.0034 8.16436C12.0047 8.33462 11.9464 8.387 11.7814 8.39944C10.382 8.5016 9.37355 9.19965 8.73771 10.4392C8.53798 10.8289 8.4057 11.2486 8.40636 11.6906C8.40636 11.9526 8.30813 12.0207 8.0593 12.0069C7.6795 11.986 7.29773 12.001 6.91596 12.001Z" fill="white"/>
<path d="M12.0479 9.28124C13.5848 9.35655 14.793 10.6197 14.7223 12.0577C14.6411 13.704 13.3347 14.7707 11.9373 14.7124C10.3971 14.6489 9.21906 13.3988 9.27865 11.9628C9.34283 10.4331 10.6053 9.21052 12.0479 9.28124Z" fill="white"/>
</svg>
