<svg width="24" height="24" viewBox="0 0 24 24" fill="none" xmlns="http://www.w3.org/2000/svg">
<path d="M12 24C18.6274 24 24 18.6274 24 12C24 5.37258 18.6274 0 12 0C5.37258 0 0 5.37258 0 12C0 18.6274 5.37258 24 12 24Z" fill="#FDFFA0"/>
<path d="M13.5075 7.97736C13.3806 7.96005 13.2719 7.96005 13.145 7.96005C12.2568 7.96005 11.3867 8.30626 10.6072 8.96405C10.2447 9.27563 9.90029 9.65646 9.59214 10.0719C9.53776 8.46205 9.44712 6.74834 9.26585 5H7C7.48942 9.91611 7.43504 14.2091 7.34441 17.9827V18H9.61026C9.68277 14.2264 10.6616 11.8029 12.1299 10.5566C12.5287 10.2277 12.9093 10.0719 13.2538 10.1065C15.0483 10.2969 14.7583 15.6285 14.6314 18H16.8973C16.9879 16.2517 17.0966 14.1225 16.8429 12.2876C16.4803 9.60453 15.3383 8.16778 13.5075 7.97736Z" fill="url(#paint0_linear)"/>
<path d="M23.5 12C23.5 18.3513 18.3513 23.5 12 23.5C5.64873 23.5 0.5 18.3513 0.5 12C0.5 5.64873 5.64873 0.5 12 0.5C18.3513 0.5 23.5 5.64873 23.5 12Z" stroke="black" stroke-opacity="0.097"/>
<defs>
<linearGradient id="paint0_linear" x1="12.0121" y1="18.4175" x2="12.0121" y2="7.53213" gradientUnits="userSpaceOnUse">
<stop stop-color="#0000B4"/>
<stop offset="0.01" stop-color="#0000B4"/>
<stop offset="1" stop-color="#000050"/>
</linearGradient>
</defs>
</svg>
