<svg version="1.1" id="Layer_1" xmlns="http://www.w3.org/2000/svg" xmlns:xlink="http://www.w3.org/1999/xlink" x="0px" y="0px"
	 width="100%" viewBox="0 0 640 640" enable-background="new 0 0 640 640" xml:space="preserve">
<path fill="#131413" opacity="1.000000" stroke="none" 
	d="
M641.000000,214.000000 
	C641.000000,356.666656 641.000000,498.833282 641.000000,641.000000 
	C427.666718,641.000000 214.333466,641.000000 1.000143,641.000000 
	C1.000095,427.666779 1.000095,214.333542 1.000048,1.000229 
	C214.333191,1.000153 427.666382,1.000153 640.999756,1.000076 
	C641.000000,71.833336 641.000000,142.666672 641.000000,214.000000 
M469.513000,598.985229 
	C469.513000,598.985229 469.976013,598.887390 470.723724,598.887268 
	C482.899750,591.588013 495.591370,585.014526 507.129974,576.817932 
	C524.072876,564.782349 539.222595,550.638855 553.458069,535.329407 
	C566.549683,521.250061 578.177917,506.261017 587.798889,489.775787 
	C595.215759,477.067139 601.380737,463.633728 608.320679,450.639221 
	C614.825012,438.460541 618.526733,425.313965 622.397766,412.185577 
	C627.156189,396.047638 630.413391,379.673096 631.669983,362.871063 
	C632.437439,352.610168 635.011658,342.331726 634.544556,332.163635 
	C633.639038,312.454376 632.013000,292.687531 629.044983,273.194336 
	C626.918945,259.230713 622.468994,245.569794 618.390076,231.973557 
	C615.893433,223.651367 612.330444,215.624710 608.910461,207.608673 
	C599.954224,186.616440 588.521851,167.019653 574.903320,148.714813 
	C572.565247,145.572174 569.747314,142.786560 566.934753,139.182327 
	C558.475037,129.673431 550.434143,119.747200 541.464722,110.746185 
	C524.957886,94.181221 506.337585,80.287010 486.424377,67.920258 
	C464.009216,53.999702 439.897369,44.077557 415.079193,35.766335 
	C405.269623,32.481270 394.939148,30.391413 384.680023,28.891060 
	C368.092102,26.465137 351.401398,23.966898 334.689636,23.400446 
	C320.499939,22.919481 306.162903,24.639393 291.995056,26.282045 
	C278.652344,27.829025 265.366180,30.168575 252.214447,32.920673 
	C246.232162,34.172508 240.634018,37.259998 234.440109,40.028439 
	C234.364395,40.236568 234.288681,40.444698 234.085464,40.561577 
	C234.085464,40.561577 233.984787,40.681770 233.152069,40.537201 
	C232.608383,40.670647 232.064682,40.804092 231.362595,40.342369 
	C230.628510,40.067371 229.760773,39.388123 229.180969,39.579803 
	C223.281067,41.530182 217.262329,43.251560 211.608047,45.778160 
	C205.825317,48.362156 200.412796,51.774639 194.072754,54.942501 
	C185.157394,59.729305 176.237198,64.507233 167.344498,69.335793 
	C166.994415,69.525887 166.906631,70.199097 165.999252,70.830605 
	C160.797623,73.999802 155.455200,76.965424 150.454178,80.424652 
	C147.978134,82.137337 146.130707,84.758812 143.716461,87.203949 
	C143.716461,87.203949 143.379791,87.350746 142.634460,87.244362 
	C141.431061,88.510300 140.227676,89.776237 138.786514,91.302727 
	C138.786514,91.302727 138.487793,91.490311 137.760956,91.353485 
	C135.613739,93.361885 133.466522,95.370285 131.091934,97.819870 
	C130.728806,98.144043 130.365662,98.468216 129.477692,98.558380 
	C124.641975,102.385666 119.713326,106.104202 115.028076,110.107590 
	C113.651329,111.283981 112.964630,113.267952 111.668503,115.136215 
	C111.668503,115.136215 111.319763,115.306671 110.614326,115.287354 
	C109.573471,116.042236 108.359535,116.641823 107.520119,117.577431 
	C102.440331,123.239418 97.135048,128.738510 92.501953,134.751892 
	C86.704720,142.276169 81.483345,150.244141 76.028030,158.509598 
	C76.028030,158.509598 75.994400,158.997681 75.421982,159.331100 
	C71.935829,164.490234 68.198456,169.500061 65.022652,174.843628 
	C60.302109,182.786392 55.541935,190.759140 51.606964,199.100464 
	C47.530048,207.742676 44.176617,216.753433 40.947826,225.761108 
	C37.515034,235.337860 34.506199,245.071808 31.555298,254.810745 
	C31.089302,256.348694 31.906412,258.275391 32.070580,260.652161 
	C31.967453,261.060303 31.864326,261.468414 31.182440,262.153473 
	C30.857994,263.149170 30.533550,264.144836 29.593456,265.558289 
	C29.127947,270.711487 28.662436,275.864655 28.149271,281.658173 
	C28.018120,282.064240 27.886969,282.470337 27.214096,283.059387 
	C27.208298,284.043365 27.202499,285.027313 27.201225,286.682831 
	C27.139547,287.125946 27.077871,287.569031 26.423901,288.313080 
	C26.529659,290.251068 26.635418,292.189026 26.757360,294.799744 
	C26.707569,295.470520 26.657780,296.141296 25.936510,296.978638 
	C25.131603,298.722565 23.820713,300.409119 23.615400,302.221008 
	C22.964920,307.961395 22.670732,313.745911 22.393051,319.520752 
	C22.352606,320.361847 23.153889,321.243408 23.598064,322.984314 
	C23.580641,325.615570 23.563219,328.246826 23.110687,331.237701 
	C23.301306,332.604736 23.491926,333.971741 23.700518,335.880585 
	C23.743811,336.240021 23.787104,336.599457 23.511326,337.715515 
	C23.496258,343.798187 23.242975,349.895386 23.612978,355.954529 
	C23.722319,357.745117 25.590696,359.428253 26.739643,361.837250 
	C26.748259,362.518799 26.756872,363.200317 26.200071,364.227966 
	C26.475512,366.146118 26.750952,368.064240 27.168255,370.639862 
	C27.201746,371.086456 27.235237,371.533051 26.844986,372.360901 
	C27.180552,373.267059 27.516119,374.173187 28.115814,375.685425 
	C28.209946,376.114838 28.304077,376.544250 27.781887,377.502930 
	C27.573620,383.531281 26.502081,389.741669 31.667938,395.336975 
	C31.826168,396.013855 31.984396,396.690704 31.673071,398.199799 
	C31.834654,399.115875 31.996237,400.031982 31.864323,401.666626 
	C33.009052,405.450928 34.153782,409.235229 35.246891,413.814148 
	C35.389713,414.861084 35.532539,415.908020 35.459942,417.601288 
	C36.345505,418.656708 37.231068,419.712128 38.102188,421.615906 
	C39.355602,425.343872 40.368126,429.174561 41.905930,432.781250 
	C47.335484,445.515625 52.519180,458.380981 58.583797,470.812378 
	C68.216415,490.557617 80.922569,508.308044 94.964264,525.206543 
	C105.924973,538.397217 117.917282,550.471863 130.899338,561.597473 
	C133.340607,563.689636 136.422577,565.034180 139.261276,566.740051 
	C139.261276,566.740051 139.279327,566.791870 139.318985,567.466492 
	C143.541351,571.111633 147.363861,575.411194 152.060226,578.280579 
	C166.782043,587.275330 181.722183,595.931580 196.816727,604.287231 
	C202.116547,607.221008 208.108444,608.904541 214.178436,611.694885 
	C216.171921,612.601196 218.165390,613.507507 221.012985,614.480957 
	C221.547958,614.304077 222.082932,614.127197 223.144226,614.152100 
	C223.481674,614.316711 223.819138,614.481323 224.479263,615.264709 
	C238.404205,623.280090 254.092072,625.694092 269.450043,628.699585 
	C283.271332,631.404297 297.352570,633.050415 311.397034,634.256348 
	C321.952087,635.162659 332.646149,635.030029 343.248962,634.613037 
	C351.518280,634.287903 359.757690,632.927429 367.982422,631.819336 
	C376.540192,630.666260 385.180756,629.770569 393.573608,627.841919 
	C404.024719,625.440369 414.411102,622.535095 424.541901,619.028198 
	C433.560852,615.906189 442.193207,611.667480 451.743103,607.873352 
	C452.692169,607.038208 453.641266,606.203125 454.750061,605.142639 
	C454.750061,605.142639 455.000183,605.025452 455.563629,605.182800 
	C456.285217,604.922241 457.006805,604.661682 458.038727,604.784912 
	C458.672333,604.141113 459.305908,603.497253 460.464355,602.447998 
	C462.447052,601.443604 464.429749,600.439209 467.079590,599.627075 
	C467.734344,599.433838 468.389130,599.240662 469.513000,598.985229 
z"/>
<path fill="#67EB9C" opacity="1.000000" stroke="none" 
	d="
M26.607990,296.812073 
	C26.657780,296.141296 26.707569,295.470520 26.916988,294.050476 
	C27.056477,291.538177 27.036335,289.775177 27.016193,288.012146 
	C27.077871,287.569031 27.139547,287.125946 27.438684,286.099915 
	C27.702700,284.636810 27.729256,283.756622 27.755814,282.876404 
	C27.886969,282.470337 28.018120,282.064240 28.454300,281.110596 
	C29.438112,277.361816 30.116894,274.160614 30.897175,270.582123 
	C31.210369,268.175171 31.422062,266.145508 31.758781,263.750763 
	C31.842937,262.882660 31.802067,262.379608 31.761200,261.876556 
	C31.864326,261.468414 31.967453,261.060303 32.346218,260.284973 
	C32.776974,259.465698 32.932095,259.013580 33.301399,258.370605 
	C33.591309,257.815430 33.667030,257.451141 33.895550,256.720825 
	C34.916336,252.981918 35.534466,249.520248 36.696434,246.251923 
	C41.237789,233.478241 45.325783,220.490524 50.775475,208.107452 
	C56.283878,195.591019 63.204762,183.696213 69.506485,171.528900 
	C71.669716,167.352127 73.831787,163.174759 75.994400,158.997681 
	C75.994400,158.997681 76.028030,158.509598 76.288109,158.064209 
	C81.278297,152.009689 85.931984,146.333862 90.757034,140.807678 
	C97.442062,133.151230 104.255920,125.607269 111.402313,118.005745 
	C116.281395,117.870537 118.080498,115.316856 118.136108,110.975479 
	C118.251366,110.864006 118.566116,110.802612 118.932755,110.780792 
	C120.486565,109.438179 121.673744,108.117393 122.867638,106.832977 
	C122.874344,106.869339 122.801369,106.857323 123.160431,106.824799 
	C124.780365,105.353188 126.041237,103.914101 127.296066,102.388969 
	C127.290039,102.302925 127.458290,102.264832 127.836380,102.372009 
	C131.703583,102.405914 133.565048,100.503838 134.507538,97.103004 
	C136.908340,95.007896 138.966064,92.993500 141.201202,90.811020 
	C141.780960,90.367645 142.183273,90.092346 142.959137,89.788094 
	C147.598419,87.321823 153.644531,87.132484 154.831177,80.800186 
	C154.906433,80.888153 154.728592,80.739899 155.125778,80.792145 
	C158.749924,79.328064 162.219284,78.172928 165.145813,76.208939 
	C169.312485,73.412697 173.080643,70.022614 177.205383,66.759918 
	C177.614136,66.431305 177.822723,66.215645 178.400375,65.982086 
	C180.508331,64.876427 182.233429,63.775330 184.039825,62.611645 
	C184.121109,62.549061 184.287323,62.669380 184.703033,62.693314 
	C186.088272,62.508049 187.117188,62.441666 188.018005,62.067169 
	C195.604538,58.913197 203.251648,55.883442 210.696609,52.420845 
	C213.687912,51.029606 216.219910,48.650791 219.025604,46.644436 
	C219.090271,46.567402 219.284576,46.619354 219.721100,46.695518 
	C223.459183,45.422138 226.760727,44.072594 230.140778,42.668083 
	C230.219284,42.613113 230.365540,42.736977 230.766022,42.769165 
	C232.105927,42.094830 233.045349,41.388302 233.984787,40.681770 
	C233.984787,40.681770 234.085464,40.561577 234.616425,40.689850 
	C241.432449,39.543266 247.757782,38.437340 253.992554,36.951447 
	C262.064423,35.027725 270.064026,32.800934 278.360046,30.567459 
	C279.401550,30.277750 280.177734,30.125204 281.215485,30.164330 
	C282.665833,29.918592 283.854614,29.481186 285.351501,28.971790 
	C286.080170,28.896942 286.500824,28.894085 287.266266,29.119205 
	C289.072998,29.552013 290.547211,29.997757 291.994843,29.923670 
	C303.892700,29.314796 315.788330,28.650644 327.675659,27.867044 
	C328.823273,27.791397 329.910065,26.793009 331.468567,26.148430 
	C334.599457,26.172091 337.286865,26.270285 340.194366,26.660196 
	C346.079041,27.595741 351.733429,28.371901 357.413971,28.808083 
	C359.278107,28.951223 361.209961,28.212563 363.519348,27.849375 
	C365.266144,28.041323 366.604523,28.261038 368.081909,28.709290 
	C369.160797,28.940672 370.100647,28.943520 371.425171,28.937805 
	C374.534607,29.579763 377.259338,30.230282 380.292969,31.104540 
	C384.717438,32.395931 388.796936,33.642788 392.958496,34.482891 
	C397.488373,35.397350 402.094452,35.934200 406.958557,36.589012 
	C407.813812,36.697681 408.377869,36.853016 409.028564,37.252033 
	C409.785522,37.592724 410.455811,37.689732 411.440918,37.830399 
	C412.151917,38.021255 412.548096,38.168457 413.040344,38.526573 
	C413.770142,38.781082 414.403870,38.824669 415.363464,38.877647 
	C416.111664,38.984180 416.534027,39.081314 417.108521,39.472691 
	C421.080688,42.709545 424.863770,45.782490 430.545898,43.532219 
	C445.829681,50.394638 461.198059,56.334290 475.576477,64.105553 
	C500.312195,77.474747 522.560974,94.482048 542.279602,114.596451 
	C550.740356,123.226990 558.670837,132.377411 566.933594,141.617371 
	C576.619568,156.792160 586.768066,171.317276 595.684204,186.563080 
	C610.570312,212.016998 619.528015,239.845505 625.573303,268.559875 
	C630.182922,290.454651 631.601135,312.679535 631.393188,335.093719 
	C631.129944,363.468903 626.362976,391.094910 618.231079,418.079681 
	C612.586670,436.809845 605.010376,454.880127 595.539368,472.146362 
	C585.644409,490.185608 574.854553,507.642181 561.095276,522.894958 
	C549.229797,536.048401 536.480164,548.463318 523.500183,560.536926 
	C508.427765,574.556702 491.028656,585.455139 472.794617,595.444336 
	C471.990540,595.949402 471.471558,596.455444 470.972473,596.982178 
	C470.992371,597.002930 470.971741,596.949768 470.640472,596.974731 
	C469.384674,597.563843 468.460144,598.127930 467.308838,598.751587 
	C466.762146,598.915100 466.538940,599.123047 466.412445,599.434814 
	C464.429749,600.439209 462.447052,601.443604 459.960815,602.601379 
	C459.457306,602.754761 458.998352,602.931396 458.642883,602.937988 
	C457.191650,603.638184 456.095917,604.331848 455.000183,605.025452 
	C455.000183,605.025452 454.750061,605.142639 454.385071,605.203125 
	C453.679077,605.433105 453.338104,605.602600 452.672241,605.794189 
	C451.586060,606.217712 450.824707,606.619141 449.680908,607.033630 
	C446.718109,608.162476 444.169403,609.359192 441.552521,610.381409 
	C417.652405,619.717224 393.022552,626.480469 367.569489,629.628662 
	C334.351044,633.737366 301.181732,632.616699 268.278442,626.325378 
	C260.485809,624.835388 252.876587,622.378540 245.192413,620.331055 
	C238.173813,618.461060 231.168015,616.542908 224.156586,614.645996 
	C223.819138,614.481323 223.481674,614.316711 222.804138,613.777100 
	C221.605652,613.093384 220.747269,612.784546 219.641861,612.212158 
	C218.032684,611.555969 216.670517,611.163513 215.081177,610.515625 
	C204.634979,605.247192 194.131454,600.731934 184.269455,595.094360 
	C172.127289,588.153320 160.517410,580.280701 148.682907,572.802124 
	C145.538162,570.814880 142.413315,568.796143 139.279327,566.791870 
	C139.279327,566.791870 139.261276,566.740051 139.198364,566.395386 
	C131.905777,559.525146 124.481216,553.201111 117.482834,546.436279 
	C96.198555,525.862305 77.709496,502.893768 63.926525,476.751434 
	C54.310455,458.512512 47.187305,438.959259 38.911644,419.638763 
	C38.680275,418.851654 38.487881,418.418854 38.336529,417.670807 
	C37.806309,415.840698 37.235050,414.325867 36.608437,412.450867 
	C36.092266,410.713348 35.631451,409.335938 35.182846,407.721985 
	C35.195053,407.485413 35.046864,407.035400 35.048016,406.646545 
	C34.634560,404.509033 34.219955,402.760345 33.851696,400.699829 
	C33.312904,399.381165 32.727772,398.374390 32.142632,397.367584 
	C31.984396,396.690704 31.826168,396.013855 31.620083,394.578491 
	C30.514221,388.204559 29.456217,382.589111 28.398211,376.973663 
	C28.304077,376.544250 28.209946,376.114838 28.124802,375.068176 
	C27.845436,373.627197 27.557083,372.803406 27.268730,371.979645 
	C27.235237,371.533051 27.201746,371.086456 27.236691,369.889343 
	C27.125248,367.386475 26.945368,365.634186 26.765488,363.881866 
	C26.756872,363.200317 26.748259,362.518799 26.814705,361.067535 
	C26.697651,358.531128 26.505537,356.764435 26.402050,354.585449 
	C26.081829,351.570801 25.672981,348.968414 25.366278,345.961182 
	C25.357876,342.703888 25.247332,339.851471 25.258432,336.765198 
	C25.220249,335.711121 25.060419,334.890839 24.976612,333.688354 
	C25.019451,332.530304 24.986269,331.754456 25.113226,330.635956 
	C25.173622,327.538055 25.073877,324.782776 25.039013,321.584045 
	C25.334793,317.393890 25.565695,313.647217 25.963406,309.574341 
	C26.106089,307.513733 26.081961,305.779297 26.207893,303.612793 
	C26.441298,301.057800 26.524643,298.934937 26.607990,296.812073 
M577.124023,214.819260 
	C576.707336,214.209595 576.290649,213.599915 575.827942,212.252380 
	C571.673706,204.375595 567.717834,196.386230 563.324463,188.645172 
	C553.822998,171.903671 542.598816,156.300644 528.925781,142.790710 
	C516.734436,130.744736 504.057434,119.043228 490.565857,108.507233 
	C479.960175,100.224922 468.196198,93.150902 456.198608,86.999275 
	C442.833496,80.146469 428.825439,74.389359 414.709259,69.213516 
	C404.813843,65.585274 394.268188,63.730587 383.438019,60.751446 
	C382.582123,60.603828 381.726196,60.456211 380.282349,59.895290 
	C378.847321,59.738117 377.412262,59.580948 375.113342,59.171162 
	C372.431244,59.046837 369.749146,58.922508 366.748901,58.637581 
	C366.748901,58.637581 366.393127,58.615833 366.018951,58.086796 
	C364.986908,57.959038 363.954865,57.831280 362.219604,57.398907 
	C361.461365,57.350014 360.703094,57.301121 359.333466,56.844013 
	C357.865906,56.769306 356.398346,56.694595 354.168976,56.319927 
	C353.081268,56.292343 351.993530,56.264755 350.316071,55.826416 
	C348.870911,55.756035 347.425781,55.685654 345.072174,55.388485 
	C333.721130,55.497868 322.370087,55.607250 310.310669,55.497570 
	C308.916809,55.763741 307.522919,56.029907 305.283997,56.129883 
	C303.881439,56.334305 302.478912,56.538727 300.367218,56.483761 
	C299.217834,56.822365 298.068451,57.160973 296.361969,57.531971 
	C296.007660,57.641212 295.653351,57.750458 294.613373,57.449669 
	C292.971436,57.867859 291.329529,58.286053 289.291016,58.688934 
	C289.291016,58.688934 288.906494,58.787411 288.018433,58.528015 
	C281.315552,59.664360 274.506592,60.379501 267.934418,62.034809 
	C257.835175,64.578476 247.628342,67.075127 237.956741,70.847054 
	C223.669846,76.418961 209.303040,82.168945 195.914948,89.555328 
	C182.383102,97.021034 169.733459,106.205307 157.222214,115.354477 
	C150.218811,120.475906 144.280487,127.053825 137.461914,133.117203 
	C137.211075,133.279190 137.048660,133.504822 136.339264,133.996872 
	C135.622681,135.037186 134.906097,136.077499 133.739990,137.374146 
	C133.534225,137.647034 133.328461,137.919922 132.471863,138.181168 
	C131.634445,139.117905 130.797043,140.054642 129.366730,141.291382 
	C116.040382,154.345596 104.784775,169.141418 95.442833,185.139603 
	C87.298615,199.086685 79.789024,213.602722 73.899940,228.613159 
	C67.861908,244.003281 63.327274,260.112183 59.585907,276.243073 
	C54.441978,298.421112 54.169312,321.147949 54.960579,343.842041 
	C55.801743,367.967133 60.693310,391.410583 68.030746,414.273590 
	C73.812355,432.288757 81.112976,449.868042 91.338509,465.832092 
	C100.298012,479.819702 110.619919,492.934570 120.696236,507.025238 
	C126.828796,513.669373 132.793747,520.480225 139.165222,526.886780 
	C142.311798,530.050720 146.208405,532.468689 149.843842,535.100586 
	C149.843842,535.100586 149.801941,535.240662 149.902054,535.915894 
	C150.484879,536.719971 150.931076,537.688049 151.670456,538.304260 
	C170.966110,554.386230 191.931595,567.956726 214.790619,578.302002 
	C231.548538,585.886169 248.823486,592.487366 267.064484,595.586487 
	C283.756287,598.422485 300.529877,601.446533 317.385498,602.501099 
	C347.163116,604.364319 376.585632,600.699097 405.005707,591.451721 
	C420.709930,586.341919 436.293243,580.515686 451.254150,573.557068 
	C468.506989,565.532349 484.556702,555.130981 499.118164,542.777161 
	C507.903442,535.323792 516.034607,527.099304 525.097900,519.080200 
	C539.622681,504.651611 551.717163,488.310944 562.493469,470.987762 
	C565.670654,465.880371 568.036377,460.268250 571.013733,454.379181 
	C571.093689,454.014160 571.173584,453.649109 571.851746,453.074463 
	C572.512634,452.020172 573.173523,450.965851 574.320496,449.416687 
	C579.728638,435.885132 586.266846,422.676178 590.246643,408.736816 
	C594.785339,392.839478 597.622864,376.381134 600.166687,360.006104 
	C604.688599,330.897034 602.408569,301.901672 596.249573,273.242950 
	C593.640991,261.104858 590.137634,249.132034 586.469299,237.260757 
	C584.795959,231.845367 581.737305,226.858047 579.236633,221.028458 
	C579.031494,220.411758 578.826355,219.795059 578.766235,218.478683 
	C578.263184,217.438629 577.760132,216.398590 577.124023,214.819260 
z"/>
<path fill="#205334" opacity="1.000000" stroke="none" 
	d="
M473.079712,595.445312 
	C491.028656,585.455139 508.427765,574.556702 523.500183,560.536926 
	C536.480164,548.463318 549.229797,536.048401 561.095276,522.894958 
	C574.854553,507.642181 585.644409,490.185608 595.539368,472.146362 
	C605.010376,454.880127 612.586670,436.809845 618.231079,418.079681 
	C626.362976,391.094910 631.129944,363.468903 631.393188,335.093719 
	C631.601135,312.679535 630.182922,290.454651 625.573303,268.559875 
	C619.528015,239.845505 610.570312,212.016998 595.684204,186.563080 
	C586.768066,171.317276 576.619568,156.792160 567.018799,141.254883 
	C567.058716,140.323105 567.104858,140.079559 567.151001,139.836029 
	C569.747314,142.786560 572.565247,145.572174 574.903320,148.714813 
	C588.521851,167.019653 599.954224,186.616440 608.910461,207.608673 
	C612.330444,215.624710 615.893433,223.651367 618.390076,231.973557 
	C622.468994,245.569794 626.918945,259.230713 629.044983,273.194336 
	C632.013000,292.687531 633.639038,312.454376 634.544556,332.163635 
	C635.011658,342.331726 632.437439,352.610168 631.669983,362.871063 
	C630.413391,379.673096 627.156189,396.047638 622.397766,412.185577 
	C618.526733,425.313965 614.825012,438.460541 608.320679,450.639221 
	C601.380737,463.633728 595.215759,477.067139 587.798889,489.775787 
	C578.177917,506.261017 566.549683,521.250061 553.458069,535.329407 
	C539.222595,550.638855 524.072876,564.782349 507.129974,576.817932 
	C495.591370,585.014526 482.899750,591.588013 470.483459,598.650452 
	C470.486023,597.925659 470.728882,597.437744 470.971741,596.949768 
	C470.971741,596.949768 470.992371,597.002930 471.250305,596.949829 
	C472.032074,596.412903 472.555878,595.929077 473.079712,595.445312 
z"/>
<path fill="#386B4C" opacity="1.000000" stroke="none" 
	d="
M567.042847,139.509186 
	C567.104858,140.079559 567.058716,140.323105 566.927368,140.929138 
	C558.670837,132.377411 550.740356,123.226990 542.279602,114.596451 
	C522.560974,94.482048 500.312195,77.474747 475.576477,64.105553 
	C461.198059,56.334290 445.829681,50.394638 430.222961,43.388824 
	C425.344940,41.824043 421.150665,40.501247 416.956421,39.178448 
	C416.534027,39.081314 416.111664,38.984180 415.134735,38.713001 
	C414.034912,38.464523 413.489594,38.390087 412.944305,38.315651 
	C412.548096,38.168457 412.151917,38.021255 411.215118,37.631668 
	C410.096985,37.262299 409.519440,37.135319 408.941895,37.008347 
	C408.377869,36.853016 407.813812,36.697681 406.718201,36.272655 
	C397.452454,34.295574 388.718292,32.588184 379.984100,30.880798 
	C377.259338,30.230282 374.534607,29.579763 371.157532,28.746025 
	C369.651093,28.535458 368.796997,28.508106 367.942871,28.480755 
	C366.604523,28.261038 365.266144,28.041323 363.130188,27.695726 
	C354.879822,27.169392 347.427032,26.768936 339.974274,26.368481 
	C337.286865,26.270285 334.599457,26.172091 331.008789,26.039776 
	C316.981842,26.616978 303.856964,27.204145 290.736511,27.877676 
	C289.450867,27.943670 288.192474,28.540689 286.921448,28.891228 
	C286.500824,28.894085 286.080170,28.896942 284.992584,28.915697 
	C283.201721,29.278618 282.077850,29.625641 280.953949,29.972664 
	C280.177734,30.125204 279.401550,30.277750 277.893860,30.536152 
	C271.451385,31.669392 265.708832,32.548927 260.036774,33.758957 
	C251.618851,35.554764 243.250870,37.584606 234.861618,39.514832 
	C240.634018,37.259998 246.232162,34.172508 252.214447,32.920673 
	C265.366180,30.168575 278.652344,27.829025 291.995056,26.282045 
	C306.162903,24.639393 320.499939,22.919481 334.689636,23.400446 
	C351.401398,23.966898 368.092102,26.465137 384.680023,28.891060 
	C394.939148,30.391413 405.269623,32.481270 415.079193,35.766335 
	C439.897369,44.077557 464.009216,53.999702 486.424377,67.920258 
	C506.337585,80.287010 524.957886,94.181221 541.464722,110.746185 
	C550.434143,119.747200 558.475037,129.673431 567.042847,139.509186 
z"/>
<path fill="#215D39" opacity="1.000000" stroke="none" 
	d="
M224.317932,614.955322 
	C231.168015,616.542908 238.173813,618.461060 245.192413,620.331055 
	C252.876587,622.378540 260.485809,624.835388 268.278442,626.325378 
	C301.181732,632.616699 334.351044,633.737366 367.569489,629.628662 
	C393.022552,626.480469 417.652405,619.717224 441.552521,610.381409 
	C444.169403,609.359192 446.718109,608.162476 449.926697,607.082764 
	C450.720276,607.144531 450.885559,607.170166 451.034424,607.377075 
	C451.017975,607.558289 450.996155,607.921509 450.996155,607.921509 
	C442.193207,611.667480 433.560852,615.906189 424.541901,619.028198 
	C414.411102,622.535095 404.024719,625.440369 393.573608,627.841919 
	C385.180756,629.770569 376.540192,630.666260 367.982422,631.819336 
	C359.757690,632.927429 351.518280,634.287903 343.248962,634.613037 
	C332.646149,635.030029 321.952087,635.162659 311.397034,634.256348 
	C297.352570,633.050415 283.271332,631.404297 269.450043,628.699585 
	C254.092072,625.694092 238.404205,623.280090 224.317932,614.955322 
z"/>
<path fill="#30754C" opacity="1.000000" stroke="none" 
	d="
M38.950607,419.993103 
	C47.187305,438.959259 54.310455,458.512512 63.926525,476.751434 
	C77.709496,502.893768 96.198555,525.862305 117.482834,546.436279 
	C124.481216,553.201111 131.905777,559.525146 139.172180,566.387207 
	C136.422577,565.034180 133.340607,563.689636 130.899338,561.597473 
	C117.917282,550.471863 105.924973,538.397217 94.964264,525.206543 
	C80.922569,508.308044 68.216415,490.557617 58.583797,470.812378 
	C52.519180,458.380981 47.335484,445.515625 41.905930,432.781250 
	C40.368126,429.174561 39.355602,425.343872 38.238178,421.054565 
	C38.547836,420.305237 38.739983,420.138519 38.950607,419.993103 
z"/>
<path fill="#356547" opacity="1.000000" stroke="none" 
	d="
M33.087212,258.561493 
	C32.932095,259.013580 32.776974,259.465698 32.376060,259.970062 
	C31.906412,258.275391 31.089302,256.348694 31.555298,254.810745 
	C34.506199,245.071808 37.515034,235.337860 40.947826,225.761108 
	C44.176617,216.753433 47.530048,207.742676 51.606964,199.100464 
	C55.541935,190.759140 60.302109,182.786392 65.022652,174.843628 
	C68.198456,169.500061 71.935829,164.490234 75.708191,159.164398 
	C73.831787,163.174759 71.669716,167.352127 69.506485,171.528900 
	C63.204762,183.696213 56.283878,195.591019 50.775475,208.107452 
	C45.325783,220.490524 41.237789,233.478241 36.696434,246.251923 
	C35.534466,249.520248 34.916336,252.981918 33.751320,256.947784 
	C33.331936,257.881042 33.209576,258.221252 33.087212,258.561493 
z"/>
<path fill="#30754C" opacity="1.000000" stroke="none" 
	d="
M139.299149,567.129150 
	C142.413315,568.796143 145.538162,570.814880 148.682907,572.802124 
	C160.517410,580.280701 172.127289,588.153320 184.269455,595.094360 
	C194.131454,600.731934 204.634979,605.247192 214.701111,610.616577 
	C214.293579,611.034973 214.038940,611.096985 213.784302,611.158997 
	C208.108444,608.904541 202.116547,607.221008 196.816727,604.287231 
	C181.722183,595.931580 166.782043,587.275330 152.060226,578.280579 
	C147.363861,575.411194 143.541351,571.111633 139.299149,567.129150 
z"/>
<path fill="#2E583C" opacity="1.000000" stroke="none" 
	d="
M111.014618,118.015152 
	C104.255920,125.607269 97.442062,133.151230 90.757034,140.807678 
	C85.931984,146.333862 81.278297,152.009689 76.280785,157.819702 
	C81.483345,150.244141 86.704720,142.276169 92.501953,134.751892 
	C97.135048,128.738510 102.440331,123.239418 107.520119,117.577431 
	C108.359535,116.641823 109.573471,116.042236 110.974083,115.639511 
	C111.227432,116.666161 111.121025,117.340652 111.014618,118.015152 
z"/>
<path fill="#2F583F" opacity="1.000000" stroke="none" 
	d="
M230.365540,42.736977 
	C230.365540,42.736977 230.219284,42.613113 229.725403,42.649353 
	C225.915878,43.996845 222.600235,45.308098 219.284576,46.619354 
	C219.284576,46.619354 219.090271,46.567402 218.626923,46.666145 
	C215.389221,47.685425 212.571869,48.495094 209.849945,49.550850 
	C205.004028,51.430439 200.215866,53.458908 195.262085,55.275070 
	C195.120621,55.125031 194.838226,54.824455 194.838226,54.824455 
	C200.412796,51.774639 205.825317,48.362156 211.608047,45.778160 
	C217.262329,43.251560 223.281067,41.530182 229.180969,39.579803 
	C229.760773,39.388123 230.628510,40.067371 231.326477,40.881027 
	C230.982086,41.858784 230.673813,42.297878 230.365540,42.736977 
z"/>
<path fill="#2F583F" opacity="1.000000" stroke="none" 
	d="
M184.287323,62.669376 
	C184.287323,62.669380 184.121109,62.549061 183.680115,62.665428 
	C181.498581,63.850071 179.758041,64.918350 178.017517,65.986633 
	C177.822723,66.215645 177.614136,66.431305 176.828781,66.725830 
	C173.257095,68.295792 170.248352,69.773544 167.103424,71.100662 
	C166.967224,70.950035 166.696609,70.647186 166.696609,70.647186 
	C166.906631,70.199097 166.994415,69.525887 167.344498,69.335793 
	C176.237198,64.507233 185.157394,59.729305 194.455490,54.883476 
	C194.838226,54.824455 195.120621,55.125031 195.074219,55.559349 
	C191.447632,58.218899 187.867477,60.444138 184.287323,62.669376 
z"/>
<path fill="#6DD198" opacity="1.000000" stroke="none" 
	d="
M234.650864,39.771637 
	C243.250870,37.584606 251.618851,35.554764 260.036774,33.758957 
	C265.708832,32.548927 271.451385,31.669392 277.628601,30.673317 
	C270.064026,32.800934 262.064423,35.027725 253.992554,36.951447 
	C247.757782,38.437340 241.432449,39.543266 234.680176,40.735477 
	C234.288681,40.444698 234.364395,40.236568 234.650864,39.771637 
z"/>
<path fill="#2F583F" opacity="1.000000" stroke="none" 
	d="
M143.998871,86.969101 
	C146.130707,84.758812 147.978134,82.137337 150.454178,80.424652 
	C155.455200,76.965424 160.797623,73.999802 166.347931,70.738892 
	C166.696609,70.647186 166.967224,70.950035 166.932434,71.389191 
	C162.841278,74.798859 158.784943,77.769379 154.728592,80.739899 
	C154.728592,80.739899 154.906433,80.888153 154.494171,80.872009 
	C150.720886,82.893608 147.359879,84.931358 143.998871,86.969101 
z"/>
<path fill="#356547" opacity="1.000000" stroke="none" 
	d="
M25.796597,309.900574 
	C25.565695,313.647217 25.334793,317.393890 24.686749,321.600464 
	C24.034966,322.075714 23.800323,322.090973 23.565681,322.106262 
	C23.153889,321.243408 22.352606,320.361847 22.393051,319.520752 
	C22.670732,313.745911 22.964920,307.961395 23.615400,302.221008 
	C23.820713,300.409119 25.131603,298.722565 26.272249,296.895355 
	C26.524643,298.934937 26.441298,301.057800 26.013264,303.834290 
	C25.711246,306.292114 25.753922,308.096344 25.796597,309.900574 
z"/>
<path fill="#2E583C" opacity="1.000000" stroke="none" 
	d="
M118.566116,110.802612 
	C118.566116,110.802612 118.251366,110.864006 117.800613,111.013214 
	C115.553810,112.402222 113.757744,113.642014 111.961685,114.881805 
	C112.964630,113.267952 113.651329,111.283981 115.028076,110.107590 
	C119.713326,106.104202 124.641975,102.385666 129.594986,98.956970 
	C128.960953,100.325317 128.209625,101.295074 127.458298,102.264832 
	C127.458290,102.264832 127.290039,102.302925 127.011215,102.519287 
	C125.422043,104.109543 124.111710,105.483437 122.801376,106.857330 
	C122.801369,106.857323 122.874344,106.869339 122.528656,106.894440 
	C120.977341,108.213898 119.771729,109.508255 118.566116,110.802612 
z"/>
<path fill="#356547" opacity="1.000000" stroke="none" 
	d="
M26.313423,354.997742 
	C26.505537,356.764435 26.697651,358.531128 26.771374,360.729248 
	C25.590696,359.428253 23.722319,357.745117 23.612978,355.954529 
	C23.242975,349.895386 23.496258,343.798187 23.997681,337.349304 
	C24.701618,336.988434 24.919201,336.993744 25.136786,336.999054 
	C25.247332,339.851471 25.357876,342.703888 25.310026,346.424896 
	C25.538897,349.861572 25.926161,352.429657 26.313423,354.997742 
z"/>
<path fill="#356547" opacity="1.000000" stroke="none" 
	d="
M28.090050,377.238281 
	C29.456217,382.589111 30.514221,388.204559 31.489658,394.255798 
	C26.502081,389.741669 27.573620,383.531281 28.090050,377.238281 
z"/>
<path fill="#356547" opacity="1.000000" stroke="none" 
	d="
M30.795677,270.959381 
	C30.116894,274.160614 29.438112,277.361816 28.478127,280.790466 
	C28.662436,275.864655 29.127947,270.711487 29.890686,265.335846 
	C30.187918,265.113403 30.207314,265.125732 30.173939,265.503113 
	C30.358934,267.573486 30.577307,269.266418 30.795677,270.959381 
z"/>
<path fill="#6DD198" opacity="1.000000" stroke="none" 
	d="
M143.857666,87.086525 
	C147.359879,84.931358 150.720886,82.893608 154.418915,80.784042 
	C153.644531,87.132484 147.598419,87.321823 143.047058,89.473495 
	C142.967575,88.575485 143.173676,87.963112 143.379791,87.350746 
	C143.379791,87.350746 143.716461,87.203949 143.857666,87.086525 
z"/>
<path fill="#356547" opacity="1.000000" stroke="none" 
	d="
M35.170639,407.958557 
	C35.631451,409.335938 36.092266,410.713348 36.266262,412.500336 
	C35.752468,412.946442 35.525494,412.982971 35.298515,413.019531 
	C34.153782,409.235229 33.009052,405.450928 32.201977,401.307556 
	C32.961536,400.969543 33.383442,400.990601 33.805351,401.011658 
	C34.219955,402.760345 34.634560,404.509033 34.965584,406.757996 
	C34.806137,407.555725 34.902351,407.789154 35.170639,407.958557 
z"/>
<path fill="#6DD198" opacity="1.000000" stroke="none" 
	d="
M111.815094,115.009010 
	C113.757744,113.642014 115.553810,112.402222 117.685364,111.124687 
	C118.080498,115.316856 116.281395,117.870537 111.402313,118.005737 
	C111.121025,117.340652 111.227432,116.666161 111.326797,115.649170 
	C111.319763,115.306671 111.668503,115.136215 111.815094,115.009010 
z"/>
<path fill="#6DD198" opacity="1.000000" stroke="none" 
	d="
M127.836388,102.372009 
	C128.209625,101.295074 128.960953,100.325317 129.857391,99.073975 
	C130.365662,98.468216 130.728806,98.144043 131.522369,97.568466 
	C132.553406,97.110413 133.154007,96.903755 133.857086,96.818741 
	C133.959564,96.940376 134.164459,97.183716 134.164459,97.183716 
	C133.565048,100.503838 131.703583,102.405914 127.836388,102.372009 
z"/>
<path fill="#6DD198" opacity="1.000000" stroke="none" 
	d="
M141.023773,90.979111 
	C138.966064,92.993500 136.908340,95.007896 134.507538,97.103004 
	C134.164459,97.183716 133.959564,96.940376 134.026520,96.542542 
	C135.558258,94.593239 137.023026,93.041771 138.487793,91.490311 
	C138.487793,91.490311 138.786514,91.302727 139.239532,91.185318 
	C140.136307,91.038307 140.580032,91.008705 141.023773,90.979111 
z"/>
<path fill="#30754C" opacity="1.000000" stroke="none" 
	d="
M23.581873,322.545288 
	C23.800323,322.090973 24.034966,322.075714 24.621870,322.043976 
	C25.073877,324.782776 25.173622,327.538055 24.761261,330.612976 
	C24.014704,330.914459 23.780249,330.896271 23.545795,330.878082 
	C23.563219,328.246826 23.580641,325.615570 23.581873,322.545288 
z"/>
<path fill="#2F583F" opacity="1.000000" stroke="none" 
	d="
M138.124374,91.421898 
	C137.023026,93.041771 135.558258,94.593239 133.924042,96.420898 
	C133.154007,96.903755 132.553406,97.110413 131.636063,97.347870 
	C133.466522,95.370285 135.613739,93.361885 138.124374,91.421898 
z"/>
<path fill="#215D39" opacity="1.000000" stroke="none" 
	d="
M213.981369,611.426941 
	C214.038940,611.096985 214.293579,611.034973 214.928284,610.871948 
	C216.670517,611.163513 218.032684,611.555969 219.659439,612.458374 
	C220.002304,613.450073 220.080582,613.932007 220.158859,614.413879 
	C218.165390,613.507507 216.171921,612.601196 213.981369,611.426941 
z"/>
<path fill="#30754C" opacity="1.000000" stroke="none" 
	d="
M35.272705,413.416840 
	C35.525494,412.982971 35.752468,412.946442 36.321617,412.860474 
	C37.235050,414.325867 37.806309,415.840698 38.108315,417.603180 
	C37.117825,417.552216 36.396591,417.253571 35.675362,416.954956 
	C35.532539,415.908020 35.389713,414.861084 35.272705,413.416840 
z"/>
<path fill="#2F583F" opacity="1.000000" stroke="none" 
	d="
M141.201202,90.811028 
	C140.580032,91.008705 140.136307,91.038307 139.358429,91.055046 
	C140.227676,89.776237 141.431061,88.510300 143.007126,87.297554 
	C143.173676,87.963112 142.967575,88.575485 142.673523,89.502441 
	C142.183273,90.092346 141.780960,90.367645 141.201202,90.811028 
z"/>
<path fill="#356547" opacity="1.000000" stroke="none" 
	d="
M26.482780,364.054932 
	C26.945368,365.634186 27.125248,367.386475 27.165760,369.560608 
	C26.750952,368.064240 26.475512,366.146118 26.482780,364.054932 
z"/>
<path fill="#356547" opacity="1.000000" stroke="none" 
	d="
M35.567650,417.278137 
	C36.396591,417.253571 37.117825,417.552216 38.067272,417.918457 
	C38.487881,418.418854 38.680275,418.851654 38.911636,419.638763 
	C38.739983,420.138519 38.547836,420.305237 38.245399,420.630402 
	C37.231068,419.712128 36.345505,418.656708 35.567650,417.278137 
z"/>
<path fill="#356547" opacity="1.000000" stroke="none" 
	d="
M26.720047,288.162598 
	C27.036335,289.775177 27.056477,291.538177 26.908897,293.714111 
	C26.635418,292.189026 26.529659,290.251068 26.720047,288.162598 
z"/>
<path fill="#356547" opacity="1.000000" stroke="none" 
	d="
M23.328241,331.057892 
	C23.780249,330.896271 24.014704,330.914459 24.601122,330.955627 
	C24.986269,331.754456 25.019451,332.530304 24.755703,333.879486 
	C24.200033,334.748138 23.941290,335.043457 23.682549,335.338776 
	C23.491926,333.971741 23.301306,332.604736 23.328241,331.057892 
z"/>
<path fill="#30754C" opacity="1.000000" stroke="none" 
	d="
M33.851692,400.699829 
	C33.383442,400.990601 32.961536,400.969543 32.348724,400.948273 
	C31.996237,400.031982 31.834654,399.115875 31.907852,397.783691 
	C32.727772,398.374390 33.312904,399.381165 33.851692,400.699829 
z"/>
<path fill="#30754C" opacity="1.000000" stroke="none" 
	d="
M220.585922,614.447388 
	C220.080582,613.932007 220.002304,613.450073 219.906448,612.721985 
	C220.747269,612.784546 221.605652,613.093384 222.540985,613.676270 
	C222.082932,614.127197 221.547958,614.304077 220.585922,614.447388 
z"/>
<path fill="#205334" opacity="1.000000" stroke="none" 
	d="
M451.369629,607.897461 
	C450.996155,607.921509 451.017975,607.558289 451.316864,607.255127 
	C452.076202,606.558655 452.536652,606.165344 452.997101,605.772034 
	C453.338104,605.602600 453.679077,605.433105 454.305206,605.315796 
	C453.641266,606.203125 452.692169,607.038208 451.369629,607.897461 
z"/>
<path fill="#296F46" opacity="1.000000" stroke="none" 
	d="
M455.281921,605.104126 
	C456.095917,604.331848 457.191650,603.638184 458.450317,603.197449 
	C458.318329,603.767273 458.023376,604.084229 457.728394,604.401123 
	C457.006805,604.661682 456.285217,604.922241 455.281921,605.104126 
z"/>
<path fill="#356547" opacity="1.000000" stroke="none" 
	d="
M27.484955,282.967896 
	C27.729256,283.756622 27.702700,284.636810 27.436424,285.764160 
	C27.202499,285.027313 27.208298,284.043365 27.484955,282.967896 
z"/>
<path fill="#356547" opacity="1.000000" stroke="none" 
	d="
M27.056858,372.170288 
	C27.557083,372.803406 27.845436,373.627197 27.992737,374.765137 
	C27.516119,374.173187 27.180552,373.267059 27.056858,372.170288 
z"/>
<path fill="#30754C" opacity="1.000000" stroke="none" 
	d="
M23.691532,335.609680 
	C23.941290,335.043457 24.200033,334.748138 24.679682,334.261719 
	C25.060419,334.890839 25.220249,335.711121 25.258432,336.765198 
	C24.919201,336.993744 24.701618,336.988434 24.157215,336.971008 
	C23.787104,336.599457 23.743811,336.240021 23.691532,335.609680 
z"/>
<path fill="#6DD198" opacity="1.000000" stroke="none" 
	d="
M230.766022,42.769165 
	C230.673813,42.297878 230.982086,41.858784 231.405670,41.178616 
	C232.064682,40.804092 232.608383,40.670647 233.568420,40.609486 
	C233.045349,41.388302 232.105927,42.094830 230.766022,42.769165 
z"/>
<path fill="#356547" opacity="1.000000" stroke="none" 
	d="
M31.471819,262.015015 
	C31.802067,262.379608 31.842937,262.882660 31.571953,263.862823 
	C30.909168,264.601868 30.558241,264.863800 30.207314,265.125732 
	C30.207314,265.125732 30.187918,265.113403 30.198513,265.126953 
	C30.533550,264.144836 30.857994,263.149170 31.471819,262.015015 
z"/>
<path fill="#296F46" opacity="1.000000" stroke="none" 
	d="
M470.640503,596.974731 
	C470.728882,597.437744 470.486023,597.925659 470.109589,598.650513 
	C469.976013,598.887390 469.513000,598.985229 468.900482,598.930908 
	C468.037201,598.815125 467.786407,598.753601 467.535645,598.692078 
	C468.460144,598.127930 469.384674,597.563843 470.640503,596.974731 
z"/>
<path fill="#205334" opacity="1.000000" stroke="none" 
	d="
M457.883575,604.593018 
	C458.023376,604.084229 458.318329,603.767273 458.805817,603.190857 
	C458.998352,602.931396 459.457306,602.754761 459.698395,602.804077 
	C459.305908,603.497253 458.672333,604.141113 457.883575,604.593018 
z"/>
<path fill="#205334" opacity="1.000000" stroke="none" 
	d="
M467.308838,598.751587 
	C467.786407,598.753601 468.037201,598.815125 468.665924,598.962036 
	C468.389130,599.240662 467.734344,599.433838 466.746033,599.530945 
	C466.538940,599.123047 466.762146,598.915100 467.308838,598.751587 
z"/>
<path fill="#131514" opacity="1.000000" stroke="none" 
	d="
M295.299042,57.859703 
	C295.653351,57.750458 296.007660,57.641212 296.752319,57.823555 
	C298.408112,58.300026 299.673584,58.484909 301.400024,58.735596 
	C309.317200,58.478691 316.773438,57.895390 324.229614,57.896511 
	C334.505737,57.898056 344.781830,58.341003 355.462006,58.684044 
	C357.242188,58.819607 358.618317,58.865990 360.220642,59.070839 
	C361.312439,59.176964 362.177979,59.124622 363.471436,59.099167 
	C364.730560,58.955978 365.561859,58.785908 366.393127,58.615837 
	C366.393127,58.615833 366.748901,58.637581 367.017822,59.061146 
	C373.518707,60.633312 379.750732,61.781914 386.327271,63.067329 
	C399.354645,67.143250 412.103699,70.882820 424.704346,75.069283 
	C442.606354,81.017105 459.348969,89.672943 474.732056,100.350548 
	C489.522064,110.616478 503.607208,122.051643 517.106689,133.985886 
	C536.033813,150.718414 550.599915,171.152542 563.323853,192.888977 
	C567.241577,199.581665 570.981934,206.378143 574.834473,213.472046 
	C575.543274,214.936111 576.221191,216.055206 576.974487,217.448227 
	C577.573730,218.207550 578.097473,218.692963 578.621216,219.178360 
	C578.826355,219.795059 579.031494,220.411758 579.161804,221.763046 
	C579.565002,224.394958 579.974548,226.312637 580.531738,228.186417 
	C585.298096,244.215363 590.933228,260.042603 594.675293,276.305969 
	C600.036438,299.606140 599.981140,323.482300 599.006226,347.264343 
	C598.050354,370.582703 593.248779,393.249084 585.667114,415.275238 
	C581.781433,426.563782 577.141418,437.592651 572.557495,448.969116 
	C571.932861,450.560913 571.593201,451.922516 571.253540,453.284088 
	C571.173584,453.649109 571.093689,454.014160 570.558594,454.682007 
	C568.594666,456.908600 566.963074,458.749359 565.597107,460.769653 
	C556.625000,474.039673 547.962219,487.527924 538.670898,500.569092 
	C534.007080,507.115234 528.233765,512.870911 522.670044,519.145142 
	C521.459595,520.017944 520.450134,520.638977 519.636475,521.455078 
	C504.937958,536.198242 488.931946,549.397217 470.903412,559.771729 
	C458.167999,567.100220 444.675812,573.117188 431.497711,579.671936 
	C418.162567,586.304810 403.909576,590.155029 389.424133,593.184387 
	C383.778229,594.365112 377.997864,594.888245 372.315796,595.915710 
	C368.282166,596.645081 364.328430,598.413940 360.308319,598.516785 
	C342.864471,598.962830 325.405060,599.286377 307.959473,599.050293 
	C287.213837,598.769714 267.016022,594.591370 247.488358,587.846130 
	C233.600143,583.048767 219.632584,577.979370 206.639771,571.224609 
	C191.981628,563.604004 178.340744,554.014771 164.331421,545.164551 
	C159.376144,542.034119 154.638794,538.558655 149.801941,535.240662 
	C149.801941,535.240662 149.843842,535.100586 149.765686,534.819702 
	C149.398865,533.952698 149.238007,533.240662 148.802719,532.799011 
	C139.791977,523.656799 130.750061,514.545288 121.581940,505.111633 
	C118.290047,500.765717 114.831894,496.932343 112.027008,492.669159 
	C103.648598,479.934692 94.553223,467.535461 87.574814,454.054382 
	C80.459000,440.307892 75.140320,425.573883 69.779373,410.998352 
	C66.701698,402.630646 64.545036,393.818665 62.973721,385.027954 
	C60.787327,372.796051 58.948765,360.439087 58.058205,348.056732 
	C57.215416,336.338654 57.124252,324.473541 57.920818,312.755920 
	C58.762493,300.374756 60.427887,287.968231 62.863560,275.798981 
	C65.456505,262.843994 68.697601,249.925873 72.918228,237.417664 
	C76.556267,226.636017 81.769630,216.359222 86.641472,206.026596 
	C94.676804,188.984589 105.002403,173.378525 117.027031,158.876648 
	C121.864334,153.042801 126.523811,147.061523 131.521057,140.978790 
	C132.226166,139.937759 132.674438,139.065292 133.122711,138.192810 
	C133.328461,137.919922 133.534225,137.647034 134.291748,137.214050 
	C135.555145,136.550079 136.266769,136.046204 137.276794,135.510071 
	C138.135712,134.696564 138.696243,133.915314 139.552612,132.987411 
	C153.957474,122.111732 167.778046,110.973824 182.252655,100.763069 
	C198.286194,89.452599 215.899307,80.974976 234.450180,74.468735 
	C249.034103,69.353813 263.507050,64.006111 279.094635,62.512421 
	C282.453400,62.190563 285.640381,60.076126 288.906494,58.787411 
	C288.906494,58.787411 289.291016,58.688934 289.859192,58.837814 
	C292.051239,58.611034 293.675140,58.235371 295.299042,57.859703 
M182.996918,231.000259 
	C182.996918,231.000259 182.916061,230.920792 183.655746,230.937088 
	C186.996887,228.167557 190.338013,225.398010 193.824081,222.914032 
	C193.824081,222.914032 193.706192,222.616608 194.460098,222.772217 
	C195.996063,222.223389 197.740723,221.973907 199.031799,221.073822 
	C204.590042,217.198700 210.033096,213.156876 215.481293,209.126022 
	C218.273590,207.060120 220.618790,206.035675 220.559860,211.413528 
	C215.299911,221.093216 210.874451,230.979126 210.971603,242.382202 
	C210.995972,245.242416 209.681259,248.118713 208.949875,250.979416 
	C208.180298,253.989410 206.950424,256.948578 206.653717,260.001099 
	C205.342392,273.491730 210.241806,286.242126 211.676331,299.420410 
	C212.836990,310.082794 214.145096,320.732422 215.607773,331.357452 
	C216.637039,338.834045 217.847565,346.298645 219.373901,353.686646 
	C219.887070,356.170624 222.479080,358.340454 222.653137,360.759491 
	C223.470581,372.119843 229.449112,380.282806 237.442642,387.710449 
	C239.651505,389.762939 243.949951,391.504822 242.499100,395.981384 
	C241.130524,400.204102 239.438889,404.322357 237.879044,408.482727 
	C235.607544,414.541199 232.900223,420.474945 231.137100,426.677460 
	C227.234497,440.406464 224.914764,454.557251 218.765182,467.670990 
	C215.974548,473.621887 214.117401,480.143097 212.771683,486.600433 
	C211.514755,492.631775 211.241165,498.915802 211.113281,505.100555 
	C211.082047,506.611847 212.991974,508.771271 214.557129,509.607483 
	C223.723160,514.504517 233.003983,519.197815 242.390457,523.655823 
	C243.477921,524.172302 246.310791,523.288269 246.888641,522.249329 
	C252.308701,512.504517 260.060638,503.897156 261.873199,492.349518 
	C262.619019,487.598022 263.156799,482.794922 264.273682,478.131348 
	C264.643188,476.588440 266.529968,475.408936 267.723022,474.063263 
	C268.584442,475.455109 270.262573,476.900177 270.175934,478.230286 
	C269.574493,487.462738 269.304688,496.808350 267.531860,505.843628 
	C266.146454,512.904419 262.615631,519.526917 260.362915,526.449890 
	C259.926575,527.790771 260.674683,530.851929 261.410339,531.040833 
	C274.088013,534.297180 286.386536,539.382141 299.812195,539.217529 
	C303.880249,539.167603 305.590790,537.412781 305.474762,533.462158 
	C305.067078,519.582153 307.276703,506.054657 311.121246,492.764679 
	C311.369873,491.905212 311.927094,490.739868 312.607727,490.511139 
	C313.294250,490.280426 314.891602,490.831818 315.095825,491.398621 
	C316.754913,496.004120 320.090820,501.063751 319.274323,505.279785 
	C317.639252,513.722778 318.814423,521.838318 319.117218,530.091553 
	C319.528625,541.303406 325.667877,543.076233 335.477539,540.220703 
	C337.051117,539.762756 338.697357,539.216919 340.299591,539.248047 
	C354.163391,539.517029 367.886688,538.791199 381.486908,535.621277 
	C388.309601,534.031006 389.235260,533.015503 388.411499,526.075439 
	C388.053406,523.058472 388.421478,519.023132 390.187103,516.860718 
	C395.515167,510.335449 395.909882,502.876953 394.552887,495.557068 
	C393.685486,490.878021 394.655273,487.965851 398.591492,487.062225 
	C402.875702,486.078705 407.504883,486.504364 411.980560,486.560760 
	C412.573700,486.568237 413.370850,487.937653 413.693970,488.815948 
	C415.181976,492.860840 416.777466,496.894409 417.823486,501.060364 
	C418.269989,502.838593 418.207275,505.752472 417.108673,506.738922 
	C411.956726,511.364990 414.950439,517.755554 411.950928,524.005249 
	C415.164124,522.844299 417.249603,522.366333 419.065247,521.387756 
	C427.641998,516.765076 436.271332,512.218384 444.645844,507.246887 
	C458.816193,498.834778 471.282501,488.222137 482.648865,476.349396 
	C496.787781,461.580627 508.548187,445.019867 517.694153,426.771179 
	C522.284546,417.612061 525.647095,407.829926 529.352661,398.247437 
	C529.703308,397.340607 528.896118,395.301605 528.010132,394.708008 
	C520.064392,389.383942 512.239563,383.787933 503.852417,379.244171 
	C497.538452,375.823608 490.460449,373.806641 483.705780,371.208435 
	C478.147827,369.070496 472.721985,366.189819 466.959412,365.070618 
	C456.583160,363.055389 446.156525,361.725220 437.118225,355.537292 
	C432.759369,352.553070 427.829071,351.277710 422.440674,351.934296 
	C415.535767,352.775726 408.609802,353.446960 401.689941,354.162750 
	C399.046387,354.436249 396.387238,354.880676 393.748230,354.803284 
	C389.489075,354.678345 388.420441,352.909363 389.891815,349.040955 
	C390.304779,347.955261 390.871887,346.915070 391.169830,345.800903 
	C393.044189,338.791504 394.350220,331.580566 396.821503,324.792084 
	C400.382050,315.011536 403.030151,305.196808 403.019196,294.708038 
	C403.002014,278.287872 403.179047,261.996368 399.169312,245.748062 
	C396.173279,233.607727 396.532562,220.692398 391.222504,208.962601 
	C389.739929,205.687546 388.386444,202.252319 387.692719,198.748230 
	C386.868805,194.586182 386.914032,190.259415 386.408813,186.024765 
	C385.956970,182.237122 388.205261,180.211105 391.234924,179.533203 
	C393.490509,179.028519 396.655243,179.039703 398.352325,180.277847 
	C402.756653,183.491104 406.440674,187.670441 410.666412,191.156036 
	C414.412109,194.245697 417.816895,197.128494 419.279480,202.268265 
	C421.565002,210.299850 425.054810,217.787964 434.023376,220.864594 
	C436.637604,221.761414 439.019562,223.449554 441.366211,224.990799 
	C448.271332,229.526001 457.929291,227.997681 463.310028,221.614014 
	C470.384491,213.220901 468.919373,203.215622 465.964691,194.672073 
	C462.147278,183.633911 456.779388,173.130432 453.878906,161.644775 
	C453.005798,158.187454 450.619507,154.339615 447.762085,152.309189 
	C440.786346,147.352325 433.441681,142.670090 425.675598,139.126297 
	C413.477661,133.560211 400.891479,128.803955 388.307068,124.143929 
	C382.416687,121.962708 376.185242,120.626793 370.023621,119.301750 
	C368.262360,118.922997 365.780243,119.348877 364.360504,120.397057 
	C359.722168,123.821518 354.932953,127.261696 351.097168,131.505203 
	C344.092285,139.254715 343.954865,139.572830 335.254608,134.213318 
	C334.692902,133.867310 334.271790,133.285263 333.700348,132.964172 
	C327.435333,129.443863 321.122070,126.894524 313.532623,126.863632 
	C301.643250,126.815231 291.382233,130.664001 282.021790,137.387009 
	C276.936432,141.039490 272.398254,141.001404 267.032227,137.896423 
	C258.316681,132.853317 248.197372,131.915604 239.501511,135.765915 
	C226.422867,141.556824 213.875366,148.910019 201.963135,156.885208 
	C185.296265,168.043610 172.277863,183.333511 159.298904,198.441025 
	C154.932343,203.523666 151.106766,209.202957 147.834534,215.057037 
	C144.502625,221.017944 144.239090,230.805679 156.186554,239.006256 
	C161.006012,242.477158 166.263199,241.568085 171.231598,239.886093 
	C174.037552,238.936172 176.375824,236.604782 178.970688,234.979691 
	C178.970688,234.979691 178.895340,234.920609 179.581863,234.852097 
	C180.695419,233.539871 181.808990,232.227661 182.996918,231.000259 
z"/>
<path fill="#325F44" opacity="1.000000" stroke="none" 
	d="
M149.851990,535.578247 
	C154.638794,538.558655 159.376144,542.034119 164.331421,545.164551 
	C178.340744,554.014771 191.981628,563.604004 206.639771,571.224609 
	C219.632584,577.979370 233.600143,583.048767 247.488358,587.846130 
	C267.016022,594.591370 287.213837,598.769714 307.959473,599.050293 
	C325.405060,599.286377 342.864471,598.962830 360.308319,598.516785 
	C364.328430,598.413940 368.282166,596.645081 372.315796,595.915710 
	C377.997864,594.888245 383.778229,594.365112 389.424133,593.184387 
	C403.909576,590.155029 418.162567,586.304810 431.497711,579.671936 
	C444.675812,573.117188 458.167999,567.100220 470.903412,559.771729 
	C488.931946,549.397217 504.937958,536.198242 519.636475,521.455078 
	C520.450134,520.638977 521.459595,520.017944 523.044800,519.202637 
	C523.961121,519.139893 524.210449,519.180664 524.459717,519.221375 
	C516.034607,527.099304 507.903442,535.323792 499.118164,542.777161 
	C484.556702,555.130981 468.506989,565.532349 451.254150,573.557068 
	C436.293243,580.515686 420.709930,586.341919 405.005707,591.451721 
	C376.585632,600.699097 347.163116,604.364319 317.385498,602.501099 
	C300.529877,601.446533 283.756287,598.422485 267.064484,595.586487 
	C248.823486,592.487366 231.548538,585.886169 214.790619,578.302002 
	C191.931595,567.956726 170.966110,554.386230 151.670456,538.304260 
	C150.931076,537.688049 150.484879,536.719971 149.851990,535.578247 
z"/>
<path fill="#245A39" opacity="1.000000" stroke="none" 
	d="
M131.264221,141.147339 
	C126.523811,147.061523 121.864334,153.042801 117.027031,158.876648 
	C105.002403,173.378525 94.676804,188.984589 86.641472,206.026596 
	C81.769630,216.359222 76.556267,226.636017 72.918228,237.417664 
	C68.697601,249.925873 65.456505,262.843994 62.863560,275.798981 
	C60.427887,287.968231 58.762493,300.374756 57.920818,312.755920 
	C57.124252,324.473541 57.215416,336.338654 58.058205,348.056732 
	C58.948765,360.439087 60.787327,372.796051 62.973721,385.027954 
	C64.545036,393.818665 66.701698,402.630646 69.779373,410.998352 
	C75.140320,425.573883 80.459000,440.307892 87.574814,454.054382 
	C94.553223,467.535461 103.648598,479.934692 112.027008,492.669159 
	C114.831894,496.932343 118.290047,500.765717 121.368484,505.291321 
	C120.971588,506.003021 120.655800,506.218994 120.340012,506.434967 
	C110.619919,492.934570 100.298012,479.819702 91.338509,465.832092 
	C81.112976,449.868042 73.812355,432.288757 68.030746,414.273590 
	C60.693310,391.410583 55.801743,367.967133 54.960579,343.842041 
	C54.169312,321.147949 54.441978,298.421112 59.585907,276.243073 
	C63.327274,260.112183 67.861908,244.003281 73.899940,228.613159 
	C79.789024,213.602722 87.298615,199.086685 95.442833,185.139603 
	C104.784775,169.141418 116.040382,154.345596 129.989532,141.179047 
	C130.829651,141.093613 131.046936,141.120483 131.264221,141.147339 
z"/>
<path fill="#296B44" opacity="1.000000" stroke="none" 
	d="
M574.803528,213.127090 
	C570.981934,206.378143 567.241577,199.581665 563.323853,192.888977 
	C550.599915,171.152542 536.033813,150.718414 517.106689,133.985886 
	C503.607208,122.051643 489.522064,110.616478 474.732056,100.350548 
	C459.348969,89.672943 442.606354,81.017105 424.704346,75.069283 
	C412.103699,70.882820 399.354645,67.143250 386.139893,62.873692 
	C385.076263,62.056782 384.544586,61.570324 384.012909,61.083858 
	C394.268188,63.730587 404.813843,65.585274 414.709259,69.213516 
	C428.825439,74.389359 442.833496,80.146469 456.198608,86.999275 
	C468.196198,93.150902 479.960175,100.224922 490.565857,108.507233 
	C504.057434,119.043228 516.734436,130.744736 528.925781,142.790710 
	C542.598816,156.300644 553.822998,171.903671 563.324463,188.645172 
	C567.717834,196.386230 571.673706,204.375595 575.583435,212.655258 
	C575.160461,213.081131 574.981995,213.104111 574.803528,213.127090 
z"/>
<path fill="#2D6041" opacity="1.000000" stroke="none" 
	d="
M572.842346,448.738861 
	C577.141418,437.592651 581.781433,426.563782 585.667114,415.275238 
	C593.248779,393.249084 598.050354,370.582703 599.006226,347.264343 
	C599.981140,323.482300 600.036438,299.606140 594.675293,276.305969 
	C590.933228,260.042603 585.298096,244.215363 580.531738,228.186417 
	C579.974548,226.312637 579.565002,224.394958 579.197021,222.087097 
	C581.737305,226.858047 584.795959,231.845367 586.469299,237.260757 
	C590.137634,249.132034 593.640991,261.104858 596.249573,273.242950 
	C602.408569,301.901672 604.688599,330.897034 600.166687,360.006104 
	C597.622864,376.381134 594.785339,392.839478 590.246643,408.736816 
	C586.266846,422.676178 579.728638,435.885132 573.893555,449.486359 
	C573.258606,449.283630 573.050476,449.011230 572.842346,448.738861 
z"/>
<path fill="#22603B" opacity="1.000000" stroke="none" 
	d="
M288.462463,58.657715 
	C285.640381,60.076126 282.453400,62.190563 279.094635,62.512421 
	C263.507050,64.006111 249.034103,69.353813 234.450180,74.468735 
	C215.899307,80.974976 198.286194,89.452599 182.252655,100.763069 
	C167.778046,110.973824 153.957474,122.111732 139.203705,132.946472 
	C138.326721,133.026611 138.094482,133.001038 137.862259,132.975479 
	C144.280487,127.053825 150.218811,120.475906 157.222214,115.354477 
	C169.733459,106.205307 182.383102,97.021034 195.914948,89.555328 
	C209.303040,82.168945 223.669846,76.418961 237.956741,70.847054 
	C247.628342,67.075127 257.835175,64.578476 267.934418,62.034809 
	C274.506592,60.379501 281.315552,59.664360 288.462463,58.657715 
z"/>
<path fill="#305F42" opacity="1.000000" stroke="none" 
	d="
M524.778809,519.150757 
	C524.210449,519.180664 523.961121,519.139893 523.337036,519.041626 
	C528.233765,512.870911 534.007080,507.115234 538.670898,500.569092 
	C547.962219,487.527924 556.625000,474.039673 565.597107,460.769653 
	C566.963074,458.749359 568.594666,456.908600 570.438721,454.936096 
	C568.036377,460.268250 565.670654,465.880371 562.493469,470.987762 
	C551.717163,488.310944 539.622681,504.651611 524.778809,519.150757 
z"/>
<path fill="#22603B" opacity="1.000000" stroke="none" 
	d="
M355.057922,58.594864 
	C344.781830,58.341003 334.505737,57.898056 324.229614,57.896511 
	C316.773438,57.895390 309.317200,58.478691 301.415558,58.497196 
	C301.005524,57.709713 301.040955,57.226425 301.076355,56.743145 
	C302.478912,56.538727 303.881439,56.334305 305.975739,56.361263 
	C308.118011,56.300640 309.568512,56.008636 311.019043,55.716633 
	C322.370087,55.607250 333.721130,55.497868 345.705139,55.739956 
	C347.860657,56.140007 349.383240,56.188587 350.905823,56.237167 
	C351.993530,56.264755 353.081268,56.292343 354.561768,56.718578 
	C354.989014,57.609776 355.023468,58.102322 355.057922,58.594864 
z"/>
<path fill="#325F44" opacity="1.000000" stroke="none" 
	d="
M120.518127,506.730103 
	C120.655800,506.218994 120.971588,506.003021 121.500839,505.607361 
	C130.750061,514.545288 139.791977,523.656799 148.802719,532.799011 
	C149.238007,533.240662 149.398865,533.952698 149.726593,534.881531 
	C146.208405,532.468689 142.311798,530.050720 139.165222,526.886780 
	C132.793747,520.480225 126.828796,513.669373 120.518127,506.730103 
z"/>
<path fill="#6DD198" opacity="1.000000" stroke="none" 
	d="
M287.266266,29.119205 
	C288.192474,28.540689 289.450867,27.943670 290.736511,27.877676 
	C303.856964,27.204145 316.981842,26.616978 330.565308,26.114311 
	C329.910065,26.793009 328.823273,27.791397 327.675659,27.867044 
	C315.788330,28.650644 303.892700,29.314796 291.994843,29.923670 
	C290.547211,29.997757 289.072998,29.552013 287.266266,29.119205 
z"/>
<path fill="#6DD198" opacity="1.000000" stroke="none" 
	d="
M184.703033,62.693314 
	C187.867477,60.444138 191.447632,58.218899 195.215668,55.709389 
	C200.215866,53.458908 205.004028,51.430439 209.849945,49.550850 
	C212.571869,48.495094 215.389221,47.685425 218.562271,46.743179 
	C216.219910,48.650791 213.687912,51.029606 210.696609,52.420845 
	C203.251648,55.883442 195.604538,58.913197 188.018005,62.067169 
	C187.117188,62.441666 186.088272,62.508049 184.703033,62.693314 
z"/>
<path fill="#6DD198" opacity="1.000000" stroke="none" 
	d="
M155.125778,80.792145 
	C158.784943,77.769379 162.841278,74.798859 167.068634,71.539818 
	C170.248352,69.773544 173.257095,68.295792 176.642426,66.852135 
	C173.080643,70.022614 169.312485,73.412697 165.145813,76.208939 
	C162.219284,78.172928 158.749924,79.328064 155.125778,80.792145 
z"/>
<path fill="#6DD198" opacity="1.000000" stroke="none" 
	d="
M380.292969,31.104538 
	C388.718292,32.588184 397.452454,34.295574 406.427002,36.319321 
	C402.094452,35.934200 397.488373,35.397350 392.958496,34.482891 
	C388.796936,33.642788 384.717438,32.395931 380.292969,31.104538 
z"/>
<path fill="#22603B" opacity="1.000000" stroke="none" 
	d="
M383.725464,60.917656 
	C384.544586,61.570324 385.076263,62.056782 385.795349,62.736877 
	C379.750732,61.781914 373.518707,60.633312 367.176880,59.141445 
	C369.749146,58.922508 372.431244,59.046837 375.704315,59.560074 
	C377.820282,60.068855 379.345306,60.188725 380.870300,60.308594 
	C381.726196,60.456211 382.582123,60.603828 383.725464,60.917656 
z"/>
<path fill="#6DD198" opacity="1.000000" stroke="none" 
	d="
M340.194366,26.660196 
	C347.427032,26.768936 354.879822,27.169392 362.721741,27.723495 
	C361.209961,28.212563 359.278107,28.951223 357.413971,28.808083 
	C351.733429,28.371901 346.079041,27.595741 340.194366,26.660196 
z"/>
<path fill="#6DD198" opacity="1.000000" stroke="none" 
	d="
M417.108521,39.472691 
	C421.150665,40.501247 425.344940,41.824043 429.862122,43.290234 
	C424.863770,45.782490 421.080688,42.709545 417.108521,39.472691 
z"/>
<path fill="#6DD198" opacity="1.000000" stroke="none" 
	d="
M219.721100,46.695518 
	C222.600235,45.308098 225.915878,43.996845 229.646912,42.704323 
	C226.760727,44.072594 223.459183,45.422138 219.721100,46.695518 
z"/>
<path fill="#30754C" opacity="1.000000" stroke="none" 
	d="
M26.402050,354.585449 
	C25.926161,352.429657 25.538897,349.861572 25.207882,346.829773 
	C25.672981,348.968414 26.081829,351.570801 26.402050,354.585449 
z"/>
<path fill="#296B44" opacity="1.000000" stroke="none" 
	d="
M355.462006,58.684044 
	C355.023468,58.102322 354.989014,57.609776 354.942688,56.868561 
	C356.398346,56.694595 357.865906,56.769306 359.658936,57.324448 
	C359.987762,58.174042 359.991089,58.543209 359.994415,58.912373 
	C358.618317,58.865990 357.242188,58.819607 355.462006,58.684044 
z"/>
<path fill="#296B44" opacity="1.000000" stroke="none" 
	d="
M300.721802,56.613449 
	C301.040955,57.226425 301.005524,57.709713 300.954590,58.431396 
	C299.673584,58.484909 298.408112,58.300026 297.030884,57.807358 
	C298.068451,57.160973 299.217834,56.822365 300.721802,56.613449 
z"/>
<path fill="#30754C" opacity="1.000000" stroke="none" 
	d="
M25.963406,309.574341 
	C25.753922,308.096344 25.711246,306.292114 25.863203,304.266388 
	C26.081961,305.779297 26.106089,307.513733 25.963406,309.574341 
z"/>
<path fill="#6DD198" opacity="1.000000" stroke="none" 
	d="
M123.160431,106.824799 
	C124.111710,105.483437 125.422043,104.109543 127.017242,102.605331 
	C126.041237,103.914101 124.780365,105.353188 123.160431,106.824799 
z"/>
<path fill="#6DD198" opacity="1.000000" stroke="none" 
	d="
M178.400375,65.982086 
	C179.758041,64.918350 181.498581,63.850071 183.598816,62.728012 
	C182.233429,63.775330 180.508331,64.876427 178.400375,65.982086 
z"/>
<path fill="#296B44" opacity="1.000000" stroke="none" 
	d="
M310.664856,55.607101 
	C309.568512,56.008636 308.118011,56.300640 306.398254,56.444359 
	C307.522919,56.029907 308.916809,55.763741 310.664856,55.607101 
z"/>
<path fill="#296B44" opacity="1.000000" stroke="none" 
	d="
M380.576324,60.101944 
	C379.345306,60.188725 377.820282,60.068855 376.136261,59.686386 
	C377.412262,59.580948 378.847321,59.738117 380.576324,60.101944 
z"/>
<path fill="#296B44" opacity="1.000000" stroke="none" 
	d="
M294.956207,57.654686 
	C293.675140,58.235371 292.051239,58.611034 290.057465,58.845470 
	C291.329529,58.286053 292.971436,57.867859 294.956207,57.654686 
z"/>
<path fill="#6DD198" opacity="1.000000" stroke="none" 
	d="
M118.932755,110.780792 
	C119.771729,109.508255 120.977341,108.213898 122.521942,106.858078 
	C121.673744,108.117393 120.486565,109.438179 118.932755,110.780792 
z"/>
<path fill="#296B44" opacity="1.000000" stroke="none" 
	d="
M350.610962,56.031792 
	C349.383240,56.188587 347.860657,56.140007 346.159363,55.853348 
	C347.425781,55.685654 348.870911,55.756035 350.610962,56.031792 
z"/>
<path fill="#305F42" opacity="1.000000" stroke="none" 
	d="
M572.557495,448.969116 
	C573.050476,449.011230 573.258606,449.283630 573.650513,449.733765 
	C573.173523,450.965851 572.512634,452.020172 571.552612,453.179260 
	C571.593201,451.922516 571.932861,450.560913 572.557495,448.969116 
z"/>
<path fill="#22603B" opacity="1.000000" stroke="none" 
	d="
M360.220642,59.070839 
	C359.991089,58.543209 359.987762,58.174042 359.964661,57.528557 
	C360.703094,57.301121 361.461365,57.350014 362.585449,57.779137 
	C362.984222,58.463444 363.014984,58.767750 363.043549,59.072281 
	C362.177979,59.124622 361.312439,59.176964 360.220642,59.070839 
z"/>
<path fill="#30754C" opacity="1.000000" stroke="none" 
	d="
M30.173939,265.503113 
	C30.558241,264.863800 30.909168,264.601868 31.446926,264.227875 
	C31.422062,266.145508 31.210369,268.175171 30.897177,270.582123 
	C30.577307,269.266418 30.358934,267.573486 30.173939,265.503113 
z"/>
<path fill="#6DD198" opacity="1.000000" stroke="none" 
	d="
M281.215485,30.164331 
	C282.077850,29.625641 283.201721,29.278618 284.684509,28.987686 
	C283.854614,29.481186 282.665833,29.918592 281.215485,30.164331 
z"/>
<path fill="#22603B" opacity="1.000000" stroke="none" 
	d="
M131.521057,140.978790 
	C131.046936,141.120483 130.829651,141.093613 130.285995,141.029053 
	C130.797043,140.054642 131.634445,139.117905 132.797287,138.186996 
	C132.674438,139.065292 132.226166,139.937759 131.521057,140.978790 
z"/>
<path fill="#22603B" opacity="1.000000" stroke="none" 
	d="
M136.978394,135.542328 
	C136.266769,136.046204 135.555145,136.550079 134.516510,137.085876 
	C134.906097,136.077499 135.622681,135.037186 136.663208,134.189484 
	C136.984222,134.768829 136.981308,135.155579 136.978394,135.542328 
z"/>
<path fill="#296B44" opacity="1.000000" stroke="none" 
	d="
M363.471436,59.099167 
	C363.014984,58.767750 362.984222,58.463444 362.937042,57.931442 
	C363.954865,57.831280 364.986908,57.959038 366.206055,58.351318 
	C365.561859,58.785908 364.730560,58.955978 363.471436,59.099167 
z"/>
<path fill="#6DD198" opacity="1.000000" stroke="none" 
	d="
M368.081909,28.709290 
	C368.796997,28.508106 369.651093,28.535458 370.772888,28.754589 
	C370.100647,28.943520 369.160797,28.940672 368.081909,28.709290 
z"/>
<path fill="#2D6041" opacity="1.000000" stroke="none" 
	d="
M574.834473,213.472046 
	C574.981995,213.104111 575.160461,213.081131 575.606445,213.024200 
	C576.290649,213.599915 576.707336,214.209595 577.099060,215.543274 
	C577.015747,216.569641 576.957397,216.871979 576.899048,217.174316 
	C576.221191,216.055206 575.543274,214.936111 574.834473,213.472046 
z"/>
<path fill="#296B44" opacity="1.000000" stroke="none" 
	d="
M576.974487,217.448242 
	C576.957397,216.871979 577.015747,216.569641 577.165588,215.812912 
	C577.760132,216.398590 578.263184,217.438629 578.693726,218.828522 
	C578.097473,218.692963 577.573730,218.207550 576.974487,217.448242 
z"/>
<path fill="#245A39" opacity="1.000000" stroke="none" 
	d="
M137.276794,135.510071 
	C136.981308,135.155579 136.984222,134.768829 136.980896,134.088074 
	C137.048660,133.504822 137.211075,133.279190 137.662079,133.046341 
	C138.094482,133.001038 138.326721,133.026611 138.907852,133.093109 
	C138.696243,133.915314 138.135712,134.696564 137.276794,135.510071 
z"/>
<path fill="#6DD198" opacity="1.000000" stroke="none" 
	d="
M409.028564,37.252029 
	C409.519440,37.135319 410.096985,37.262299 410.900330,37.588005 
	C410.455811,37.689732 409.785522,37.592724 409.028564,37.252029 
z"/>
<path fill="#296F46" opacity="1.000000" stroke="none" 
	d="
M472.794617,595.444336 
	C472.555878,595.929077 472.032074,596.412903 471.230408,596.929077 
	C471.471558,596.455444 471.990540,595.949402 472.794617,595.444336 
z"/>
<path fill="#6DD198" opacity="1.000000" stroke="none" 
	d="
M413.040344,38.526573 
	C413.489594,38.390087 414.034912,38.464523 414.808899,38.703606 
	C414.403870,38.824669 413.770142,38.781082 413.040344,38.526573 
z"/>
<path fill="#296F46" opacity="1.000000" stroke="none" 
	d="
M452.672241,605.794189 
	C452.536652,606.165344 452.076202,606.558655 451.333313,607.073975 
	C450.885559,607.170166 450.720276,607.144531 450.309174,607.069702 
	C450.824707,606.619141 451.586060,606.217712 452.672241,605.794189 
z"/>
<path fill="#30754C" opacity="1.000000" stroke="none" 
	d="
M33.301399,258.370605 
	C33.209576,258.221252 33.331936,257.881042 33.598518,257.313843 
	C33.667030,257.451141 33.591309,257.815430 33.301399,258.370605 
z"/>
<path fill="#30754C" opacity="1.000000" stroke="none" 
	d="
M35.182846,407.721985 
	C34.902351,407.789154 34.806137,407.555725 34.964432,407.146820 
	C35.046864,407.035400 35.195053,407.485413 35.182846,407.721985 
z"/>
<path fill="#67ED9D" opacity="1.000000" stroke="none" 
	d="
M155.958466,238.322906 
	C144.239090,230.805679 144.502625,221.017944 147.834534,215.057037 
	C151.106766,209.202957 154.932343,203.523666 159.298904,198.441025 
	C172.277863,183.333511 185.296265,168.043610 201.963135,156.885208 
	C213.875366,148.910019 226.422867,141.556824 239.501511,135.765915 
	C248.197372,131.915604 258.316681,132.853317 267.032227,137.896423 
	C272.398254,141.001404 276.936432,141.039490 282.021790,137.387009 
	C291.382233,130.664001 301.643250,126.815231 313.532623,126.863632 
	C321.122070,126.894524 327.435333,129.443863 333.700348,132.964172 
	C334.271790,133.285263 334.692902,133.867310 335.254608,134.213318 
	C343.954865,139.572830 344.092285,139.254715 351.097168,131.505203 
	C354.932953,127.261696 359.722168,123.821518 364.360504,120.397057 
	C365.780243,119.348877 368.262360,118.922997 370.023621,119.301750 
	C376.185242,120.626793 382.416687,121.962708 388.307068,124.143929 
	C400.891479,128.803955 413.477661,133.560211 425.675598,139.126297 
	C433.441681,142.670090 440.786346,147.352325 447.762085,152.309189 
	C450.619507,154.339615 453.005798,158.187454 453.878906,161.644775 
	C456.779388,173.130432 462.147278,183.633911 465.964691,194.672073 
	C468.919373,203.215622 470.384491,213.220901 463.310028,221.614014 
	C457.929291,227.997681 448.271332,229.526001 441.366211,224.990799 
	C439.019562,223.449554 436.637604,221.761414 434.023376,220.864594 
	C425.054810,217.787964 421.565002,210.299850 419.279480,202.268265 
	C417.816895,197.128494 414.412109,194.245697 410.666412,191.156036 
	C406.440674,187.670441 402.756653,183.491104 398.352325,180.277847 
	C396.655243,179.039703 393.490509,179.028519 391.234924,179.533203 
	C388.205261,180.211105 385.956970,182.237122 386.408813,186.024765 
	C386.914032,190.259415 386.868805,194.586182 387.692719,198.748230 
	C388.386444,202.252319 389.739929,205.687546 391.222504,208.962601 
	C396.532562,220.692398 396.173279,233.607727 399.169312,245.748062 
	C403.179047,261.996368 403.002014,278.287872 403.019196,294.708038 
	C403.030151,305.196808 400.382050,315.011536 396.821503,324.792084 
	C394.350220,331.580566 393.044189,338.791504 391.169830,345.800903 
	C390.871887,346.915070 390.304779,347.955261 389.891815,349.040955 
	C388.420441,352.909363 389.489075,354.678345 393.748230,354.803284 
	C396.387238,354.880676 399.046387,354.436249 401.689941,354.162750 
	C408.609802,353.446960 415.535767,352.775726 422.440674,351.934296 
	C427.829071,351.277710 432.759369,352.553070 437.118225,355.537292 
	C446.156525,361.725220 456.583160,363.055389 466.959412,365.070618 
	C472.721985,366.189819 478.147827,369.070496 483.705780,371.208435 
	C490.460449,373.806641 497.538452,375.823608 503.852417,379.244171 
	C512.239563,383.787933 520.064392,389.383942 528.010132,394.708008 
	C528.896118,395.301605 529.703308,397.340607 529.352661,398.247437 
	C525.647095,407.829926 522.284546,417.612061 517.694153,426.771179 
	C508.548187,445.019867 496.787781,461.580627 482.648865,476.349396 
	C471.282501,488.222137 458.816193,498.834778 444.645844,507.246887 
	C436.271332,512.218384 427.641998,516.765076 419.065247,521.387756 
	C417.249603,522.366333 415.164124,522.844299 411.950928,524.005249 
	C414.950439,517.755554 411.956726,511.364990 417.108673,506.738922 
	C418.207275,505.752472 418.269989,502.838593 417.823486,501.060364 
	C416.777466,496.894409 415.181976,492.860840 413.693970,488.815948 
	C413.370850,487.937653 412.573700,486.568237 411.980560,486.560760 
	C407.504883,486.504364 402.875702,486.078705 398.591492,487.062225 
	C394.655273,487.965851 393.685486,490.878021 394.552887,495.557068 
	C395.909882,502.876953 395.515167,510.335449 390.187103,516.860718 
	C388.421478,519.023132 388.053406,523.058472 388.411499,526.075439 
	C389.235260,533.015503 388.309601,534.031006 381.486908,535.621277 
	C367.886688,538.791199 354.163391,539.517029 340.299591,539.248047 
	C338.697357,539.216919 337.051117,539.762756 335.477539,540.220703 
	C325.667877,543.076233 319.528625,541.303406 319.117218,530.091553 
	C318.814423,521.838318 317.639252,513.722778 319.274323,505.279785 
	C320.090820,501.063751 316.754913,496.004120 315.095825,491.398621 
	C314.891602,490.831818 313.294250,490.280426 312.607727,490.511139 
	C311.927094,490.739868 311.369873,491.905212 311.121246,492.764679 
	C307.276703,506.054657 305.067078,519.582153 305.474762,533.462158 
	C305.590790,537.412781 303.880249,539.167603 299.812195,539.217529 
	C286.386536,539.382141 274.088013,534.297180 261.410339,531.040833 
	C260.674683,530.851929 259.926575,527.790771 260.362915,526.449890 
	C262.615631,519.526917 266.146454,512.904419 267.531860,505.843628 
	C269.304688,496.808350 269.574493,487.462738 270.175934,478.230286 
	C270.262573,476.900177 268.584442,475.455109 267.723022,474.063293 
	C266.529968,475.408936 264.643188,476.588440 264.273682,478.131348 
	C263.156799,482.794922 262.619019,487.598022 261.873199,492.349518 
	C260.060638,503.897156 252.308701,512.504517 246.888641,522.249329 
	C246.310791,523.288269 243.477921,524.172302 242.390457,523.655823 
	C233.003983,519.197815 223.723160,514.504517 214.557129,509.607483 
	C212.991974,508.771271 211.082047,506.611847 211.113281,505.100555 
	C211.241165,498.915802 211.514755,492.631775 212.771683,486.600433 
	C214.117401,480.143097 215.974548,473.621887 218.765182,467.670990 
	C224.914764,454.557251 227.234497,440.406464 231.137100,426.677460 
	C232.900223,420.474945 235.607544,414.541199 237.879044,408.482727 
	C239.438889,404.322357 241.130524,400.204102 242.499100,395.981384 
	C243.949951,391.504822 239.651505,389.762939 237.442642,387.710449 
	C229.449112,380.282806 223.470581,372.119843 222.653137,360.759491 
	C222.479080,358.340454 219.887070,356.170624 219.373901,353.686646 
	C217.847565,346.298645 216.637039,338.834045 215.607773,331.357452 
	C214.145096,320.732422 212.836990,310.082794 211.676331,299.420410 
	C210.241806,286.242126 205.342392,273.491730 206.653717,260.001099 
	C206.950424,256.948578 208.180298,253.989410 208.949875,250.979416 
	C209.681259,248.118713 210.995972,245.242416 210.971603,242.382202 
	C210.874451,230.979126 215.299911,221.093216 221.204163,211.126602 
	C222.148590,209.195953 222.448700,207.552246 222.748795,205.908524 
	C221.061905,205.865173 218.970779,205.155609 217.757050,205.892059 
	C212.046585,209.356964 206.539490,213.164520 201.037933,216.962921 
	C198.501801,218.713928 196.144547,220.723999 193.706192,222.616608 
	C193.706192,222.616608 193.824081,222.914032 193.397659,222.790344 
	C189.619507,225.418015 186.267776,228.169403 182.916046,230.920776 
	C182.916061,230.920792 182.996918,231.000259 182.632660,231.014984 
	C181.144058,232.326691 180.019699,233.623657 178.895340,234.920609 
	C178.895340,234.920609 178.970688,234.979691 178.560883,234.942017 
	C176.893204,235.250519 175.409500,235.281662 174.414688,235.994797 
	C168.644547,240.131180 162.354874,239.516541 155.958466,238.322906 
M289.832520,310.915283 
	C285.104065,304.960205 279.930237,300.758942 271.316925,302.543823 
	C266.744843,303.491302 261.675598,304.109619 259.735321,308.065155 
	C257.582092,312.454865 261.769043,316.250824 264.060486,320.082428 
	C265.495422,322.481812 266.092529,325.444458 266.758942,328.227783 
	C268.005005,333.431824 263.199646,335.420380 260.982208,338.831116 
	C258.368835,342.850891 255.985092,347.084229 254.117950,351.486328 
	C253.545074,352.836975 254.997421,355.046661 255.522369,356.862946 
	C257.063049,355.826263 258.734161,354.937073 260.113159,353.717560 
	C262.082184,351.976288 263.653107,349.738403 265.758301,348.216461 
	C266.876221,347.408264 269.533600,346.912628 270.169037,347.566162 
	C273.027802,350.506439 275.383301,353.931610 277.985626,357.128784 
	C278.631317,357.922119 279.568237,359.133728 280.289093,359.078583 
	C281.958679,358.950745 284.496582,358.599792 284.995667,357.542847 
	C285.689850,356.072784 285.132996,353.783539 284.582184,352.009308 
	C283.817963,349.547516 281.043121,346.461639 281.788910,345.002411 
	C284.539520,339.620483 279.997253,338.007477 277.833038,335.066833 
	C276.725189,333.561554 275.295410,331.922150 275.073181,330.205841 
	C274.408325,325.070923 282.141571,315.783081 287.235352,315.024506 
	C289.306427,314.716034 292.035858,314.804260 289.832520,310.915283 
M239.659164,258.402893 
	C239.596741,262.645355 238.430054,267.268524 239.730728,271.040985 
	C241.680664,276.696472 245.394455,281.737427 248.294220,287.074463 
	C249.687943,289.639648 251.479187,289.701782 254.131714,288.933472 
	C261.011658,286.940735 268.188690,272.256683 265.858826,264.821991 
	C265.092590,262.376862 265.473511,259.308777 266.134979,256.732239 
	C267.706360,250.611496 266.290833,248.487198 260.342682,249.011307 
	C257.170288,242.729416 257.153534,242.987167 251.328888,245.928635 
	C246.044342,248.597336 242.979614,253.014496 239.659164,258.402893 
M329.492798,245.929550 
	C329.837463,243.776382 330.182129,241.623230 330.526794,239.470047 
	C328.774658,239.235565 326.657349,238.251892 325.333923,238.896957 
	C319.748016,241.619583 313.647644,244.545624 311.742554,250.878204 
	C308.910553,260.292023 305.603882,269.744293 307.031311,279.981842 
	C307.415497,282.737183 308.402863,284.234344 310.895844,283.826843 
	C315.753143,283.032959 320.856537,282.449310 325.206818,280.397705 
	C327.367462,279.378754 327.757324,275.061554 329.517883,272.652740 
	C335.029144,265.111969 332.512848,258.109863 328.781921,250.934601 
	C328.199799,249.815033 328.897278,248.030106 329.492798,245.929550 
z"/>
<path fill="#164E2D" opacity="1.000000" stroke="none" 
	d="
M194.083145,222.694412 
	C196.144547,220.723999 198.501801,218.713928 201.037933,216.962921 
	C206.539490,213.164520 212.046585,209.356964 217.757050,205.892059 
	C218.970779,205.155609 221.061905,205.865173 222.748795,205.908524 
	C222.448700,207.552246 222.148590,209.195953 221.474518,210.892715 
	C220.618790,206.035675 218.273590,207.060120 215.481293,209.126022 
	C210.033096,213.156876 204.590042,217.198700 199.031799,221.073822 
	C197.740723,221.973907 195.996063,222.223389 194.083145,222.694412 
z"/>
<path fill="#164E2D" opacity="1.000000" stroke="none" 
	d="
M156.072510,238.664581 
	C162.354874,239.516541 168.644547,240.131180 174.414688,235.994797 
	C175.409500,235.281662 176.893204,235.250519 178.537918,234.899994 
	C176.375824,236.604782 174.037552,238.936172 171.231598,239.886093 
	C166.263199,241.568085 161.006012,242.477158 156.072510,238.664581 
z"/>
<path fill="#164E2D" opacity="1.000000" stroke="none" 
	d="
M183.285889,230.928925 
	C186.267776,228.169403 189.619507,225.418015 193.325195,222.647552 
	C190.338013,225.398010 186.996887,228.167557 183.285889,230.928925 
z"/>
<path fill="#164E2D" opacity="1.000000" stroke="none" 
	d="
M179.238602,234.886353 
	C180.019699,233.623657 181.144058,232.326691 182.595490,230.972595 
	C181.808990,232.227661 180.695419,233.539871 179.238602,234.886353 
z"/>
<path fill="#060E07" opacity="1.000000" stroke="none" 
	d="
M290.174988,311.095276 
	C292.035858,314.804260 289.306427,314.716034 287.235352,315.024506 
	C282.141571,315.783081 274.408325,325.070923 275.073181,330.205841 
	C275.295410,331.922150 276.725189,333.561554 277.833038,335.066833 
	C279.997253,338.007477 284.539520,339.620483 281.788910,345.002411 
	C281.043121,346.461639 283.817963,349.547516 284.582184,352.009308 
	C285.132996,353.783539 285.689850,356.072784 284.995667,357.542847 
	C284.496582,358.599792 281.958679,358.950745 280.289093,359.078583 
	C279.568237,359.133728 278.631317,357.922119 277.985626,357.128784 
	C275.383301,353.931610 273.027802,350.506439 270.169037,347.566162 
	C269.533600,346.912628 266.876221,347.408264 265.758301,348.216461 
	C263.653107,349.738403 262.082184,351.976288 260.113159,353.717560 
	C258.734161,354.937073 257.063049,355.826263 255.522369,356.862946 
	C254.997421,355.046661 253.545074,352.836975 254.117950,351.486328 
	C255.985092,347.084229 258.368835,342.850891 260.982208,338.831116 
	C263.199646,335.420380 268.005005,333.431824 266.758942,328.227783 
	C266.092529,325.444458 265.495422,322.481812 264.060486,320.082428 
	C261.769043,316.250824 257.582092,312.454865 259.735321,308.065155 
	C261.675598,304.109619 266.744843,303.491302 271.316925,302.543823 
	C279.930237,300.758942 285.104065,304.960205 290.174988,311.095276 
z"/>
<path fill="#040B06" opacity="1.000000" stroke="none" 
	d="
M239.845184,258.062714 
	C242.979614,253.014496 246.044342,248.597336 251.328888,245.928635 
	C257.153534,242.987167 257.170288,242.729416 260.342682,249.011307 
	C266.290833,248.487198 267.706360,250.611496 266.134979,256.732239 
	C265.473511,259.308777 265.092590,262.376862 265.858826,264.821991 
	C268.188690,272.256683 261.011658,286.940735 254.131714,288.933472 
	C251.479187,289.701782 249.687943,289.639648 248.294220,287.074463 
	C245.394455,281.737427 241.680664,276.696472 239.730728,271.040985 
	C238.430054,267.268524 239.596741,262.645355 239.845184,258.062714 
z"/>
<path fill="#050B06" opacity="1.000000" stroke="none" 
	d="
M329.247925,246.241196 
	C328.897278,248.030106 328.199799,249.815033 328.781921,250.934601 
	C332.512848,258.109863 335.029144,265.111969 329.517883,272.652740 
	C327.757324,275.061554 327.367462,279.378754 325.206818,280.397705 
	C320.856537,282.449310 315.753143,283.032959 310.895844,283.826843 
	C308.402863,284.234344 307.415497,282.737183 307.031311,279.981842 
	C305.603882,269.744293 308.910553,260.292023 311.742554,250.878204 
	C313.647644,244.545624 319.748016,241.619583 325.333923,238.896957 
	C326.657349,238.251892 328.774658,239.235565 330.526794,239.470062 
	C330.182129,241.623230 329.837463,243.776382 329.247925,246.241196 
z"/>
</svg>