<svg version="1.1" id="Artwork" xmlns="http://www.w3.org/2000/svg" xmlns:xlink="http://www.w3.org/1999/xlink" x="0px" y="0px"
	 viewBox="0 0 160 160" style="enable-background:new 0 0 160 160;" xml:space="preserve">
<style type="text/css">
	.st0{fill:#FFFFFF;}
	.st1{fill:#4B11F2;}
</style>
<g>
	<circle class="st0" cx="80" cy="80" r="40"/>
	<g>
		<path class="st1" d="M98.38,63.07c0,0,2.39-5.94,2.08-7.3c-0.29-1.32-0.31-1.73-2.47-3.34c-0.87,0.39-2.41,0.95-3.67,0.7
			c-1.86-0.35-2.81-0.99-3.69-1.77c-0.89-0.78-1.36-1.94-1.44-2.62c-0.02-0.17,0.17-0.29,0.31-0.19c0.76,0.56,1.38,1.57,3.55,2.29
			c1.24,0.41,2.25,0.29,2.87,0.08c-2.74-1.9-6.72-4.5-9.1-5.28c-3.03-0.99-4.39,0.95-4.39,0.95l-2.85,4.5c0,0,4.78,0.7,9.67,3.44
			C94.11,57.26,98.38,63.07,98.38,63.07z"/>
		<path class="st1" d="M106.01,69.82c-0.6,0.08-1.51,0.08-2.72-0.23c-4.76-1.34-7.69-9.2-15.94-14.15
			c-13.18-6.81-20.25-0.66-20.25-0.66c-0.91,0.62,0.02,1.01,0.02,1.01l4.33,2.19l2.04,1.07c0,0-1.3,1.67-3.94,0.39
			c-0.87-0.37-2.6-0.47-3.94,0.72c-1.46,0.8-0.83,3.13-1.9,4.62c-1.05,1.49-3.16,1.24-3.38,3.38c-0.19,2.19,1.55,2.6,1.59,4.23
			c0.04,1.63-0.56,2.56-0.72,2.99c-0.06,0.19-0.1,0.41-0.1,0.64c0.02,0.31,0.17,0.62,0.37,0.87c0.17,0.19,0.31,0.31,0.47,0.41
			c0.7,0.47,1.3,1.09,1.69,1.84c0.06,0.12,0.12,0.25,0.21,0.37c0.06,0.1,0.12,0.23,0.21,0.37c0.45,0.8,0.64,1.75,0.47,2.68
			c-0.04,0.25-0.02,0.54,0.06,0.8c0.17,0.49,0.6,0.87,1.11,1.01c0.76,0.19,1.42,0.64,1.88,1.28c0.04,0.04,0.06,0.1,0.1,0.14
			c0.62,0.87,0.49,2.23,0.74,3.22c0.25,0.99,1.07,1.3,2.27,1.98c1.2,0.68,1.44,1.75,0.95,2.27c-0.5,0.52-3.42-0.74-4.6,0.66
			c-0.87,0.8-0.5,1.32-0.93,2.85c-0.43,1.55-1.75,0.41-2.45,1.49c-0.7,1.07-0.8,2.23-0.45,4.52c0.35,2.29,2.58,5.44,2.58,5.44
			s-1.2-4.17,1.4-7.73c2.21-2.6,3.9-2.95,6.39-2.99c2.52-0.06,6.23,2.21,6.99,6.66c0.39,2.95-1.22,4.66-1.34,4.83
			c-0.29,0.33-2.66,2.95-5.82,1.2c-0.87-0.6-1.63-1.22-2.15-2.41c-0.37-1.09-0.47-2.56,0.14-3.55c0.52-0.82,1.34-1.07,1.59-1.09
			c0.37-0.04,1.18-0.02,1.69,0.37c0.52,0.39,1.07,0.97,0.97,1.96c-0.1,0.99-1.13,1.28-1.53,1.2c-0.33-0.06-0.1-0.02-0.02,0
			c-0.64-0.04-0.93-0.54-1.05-0.89c-0.02-0.08-0.14-0.06-0.17,0.02c-0.19,1.36,0.85,2.23,1.46,2.37c0.68,0.14,1.69,0.12,2.52-0.72
			c0.72-0.72,1.11-1.34,1.11-2.93c0-1.3-0.54-2.21-1.42-2.99c-1.15-1.07-2.68-1.49-3.73-1.4c-0.99,0.08-2.72,0.5-3.86,2.29
			c-1.05,1.65-1.51,3.92-0.62,6.46l0.04,0.08c2.02,4.72,6.74,5.92,10,5.92c0.66,0,1.26-0.04,1.75-0.12c0.1-0.02,2.43-0.37,4.7-1.77
			c2.8-1.86,4.48-4.54,4.48-8.68c0-5.51-2.41-9.18-7.36-14.91c-0.95-1.18-4.81-5.94-5.51-6.87c-3.44-4.46-7.3-9.69-5.38-13.67
			c0.06-0.12,0.12-0.23,0.19-0.35c2.87-5.26,10.95-3.96,9.18-3.63c-3.07,0.52-4.91,1.88-5.47,2.48c-0.56,0.6-0.87,1.11-1.24,2.08
			c-0.64,1.59-0.12,4.04,1.24,6.19c5.92,8.39,14.66,18.85,15.74,21.37c1.38,3.18,1.59,5.69,1.57,7.24s-0.39,4.02-0.39,4.02
			s2.04-1.63,3.01-3.61c0.97-1.98,1.13-2.93,0.85-3.67c-0.31-0.74-1.07-0.76-1.38-1.98c-0.31-1.22,0.56-2.29-0.35-4.23
			c-0.39-0.85-2.47-2.08-3.55-3.44c-1.07-1.36-3.03-3.8-4.5-5.75c-2.64-3.51-3.51-4.7-5.03-6.68c1.65,0.49,3.71,1.18,8.46-1.03
			c4.39,2.25,7.4,2.12,8.46,2.06c1.05-0.06,2.04-0.54,2.81-1.13c0.5-0.39,0.87-1.18,1.09-1.69c0.08-0.19-0.1-0.35-0.29-0.29
			c-3.69,1.53-7.1,0.29-11.28-2.04l-0.74-0.41l-0.74,0.39c-4.39,2.35-9.01,0.52-9.43,0.35c-0.17-0.08-1.42-0.74-1.98-1.86
			c-0.56-1.11-0.68-2.29-0.27-3.28c0.33-0.8,1.11-1.34,2.39-1.61c1.05-0.12,2.41,0.27,3.51,0.7c0.25,0.1,0.47-0.14,0.37-0.37
			c-0.12-0.33-0.21-0.68-0.21-1.05c0-0.62,0.21-1.18,0.54-1.63l1.46,0.68c-0.25,0.25-0.39,0.62-0.35,1.03
			c0.06,0.54,0.52,0.99,1.05,1.05c0.72,0.1,1.32-0.43,1.38-1.11l1.38,0.64c-0.25,1.01-1.03,1.79-2.04,2.04
			c-0.21,0.04-0.23,0.31-0.02,0.37c1.88,0.89,7.36,3.44,7.36,3.44s3.18,1.77,5.96,1.42c2.68-0.14,3.88-2.27,2.29-2.06
			c-1.59,0.21-5.34-1.42-5.34-1.42l-2.52-1.18l1.05-1.63c0,0,3.59,2.04,6.77,2.74c2.1,0.45,3.53-0.74,4.25-1.61
			C106.53,70.15,106.32,69.78,106.01,69.82z M76.64,62.66c-1.34,0.17-3.38,0.78-4.54,1.34c-0.43,0.21-0.8,0.41-1.11,0.6
			c-1.01,0.66-1.92,1.65-2.64,3.01c-2.83,5.49,2.35,12.21,6.52,17.61c0.7,0.91,1.34,1.75,1.92,2.54c0.89,1.22,1.86,2.41,2.8,3.55
			c2.43,2.99,5.12,6.17,6.27,9.69c0.31,1.24,0.35,2.39,0.21,3.32c-0.49,2.89-3.01,3.88-3.01,3.88c0.37-1.2,0.58-2.74,0.35-4.52
			v-0.04c-0.76-4.15-4.12-7.82-4.12-7.82c-0.8-1.07-1.67-2.19-2.37-3.09c-7.07-9.1-7.78-10.13-9.45-13.16l-0.02-0.04
			c-0.04-0.08-0.1-0.19-0.17-0.29c-0.97-1.63-3.57-5.98-2.43-10.54c0.27-1.05,0.74-2,1.42-2.83C70.41,60.5,78.35,62.33,76.64,62.66z
			"/>
	</g>
</g>
</svg>