<?xml version="1.0" encoding="UTF-8"?> <svg xmlns="http://www.w3.org/2000/svg" width="719" height="580" viewBox="0 0 719 580" fill="none"><g opacity="0.1" filter="url(#filter0_f)"><path d="M92.0898 208.741L40.0682 238.585L92.0898 269.732L143.971 238.715L92.0898 208.741Z" fill="#0A3D6F"></path></g><path d="M57.6393 192.77V232.634L92.0985 252.904V213.378L57.6393 192.77Z" fill="#EEF7FA"></path><path d="M66.0651 211.851V216.772L77.3343 223.129V218.545L66.0651 211.851Z" fill="#EEF7FA"></path><path d="M70.3918 216.483V225.764C70.3918 226.187 70.6176 226.577 70.9842 226.789L77.4971 230.541C78.2865 230.996 79.273 230.427 79.273 229.517V220.311C79.273 219.892 79.0509 219.504 78.6893 219.291L72.1764 215.464C71.387 215 70.3918 215.569 70.3918 216.483Z" fill="#EEF7FA"></path><path d="M126.533 192.866V232.73L92.0737 253V213.474L126.533 192.866Z" fill="#C8E3EC"></path><path d="M92.0663 173L57.5329 192.811L92.0663 213.488L126.507 192.898L92.0663 173Z" fill="white"></path><g opacity="0.1" filter="url(#filter1_f)"><path d="M313.283 204.472L84.8399 334.294L313.283 469.783L541.11 334.86L313.283 204.472Z" fill="#0A3D6F"></path></g><path d="M162 135V308.408L313.321 396.582V224.643L162 135Z" fill="white"></path><path d="M204 229.971V282.914C204 288.633 207.053 293.918 212.008 296.775L246.508 316.667C257.175 322.817 270.5 315.118 270.5 302.806V250.259C270.5 244.589 267.499 239.342 262.611 236.467L228.111 216.179C217.444 209.906 204 217.597 204 229.971Z" fill="#2B3381"></path><path d="M199 218V239.408L248.487 267.059V247.12L199 218Z" fill="white"></path><path d="M218 238.153V278.524C218 280.363 218.992 282.062 220.602 282.981L249.202 299.304C252.668 301.283 257 298.807 257 294.848V254.801C257 252.978 256.025 251.292 254.437 250.367L225.837 233.718C222.37 231.7 218 234.173 218 238.153Z" fill="white"></path><path d="M464.533 135.418V308.826L313.212 397V225.061L464.533 135.418Z" fill="#DCDDF9"></path><path d="M313.18 49L161.533 135.179L313.18 225.121L464.418 135.555L313.18 49Z" fill="#F7F7FF"></path><g opacity="0.1" filter="url(#filter2_f)"><path d="M485.115 420.316L379.564 480.75L485.115 543.823L590.382 481.014L485.115 420.316Z" fill="#0A3D6F"></path></g><path d="M415.216 387.975V468.7L485.133 509.746V429.706L415.216 387.975Z" fill="#EEF7FA"></path><path d="M432.312 426.613V436.579L455.177 449.451V440.169L432.312 426.613Z" fill="#EEF7FA"></path><path d="M441.09 435.995V454.788C441.09 455.644 441.549 456.435 442.292 456.863L455.507 464.462C457.109 465.383 459.11 464.23 459.11 462.387V443.745C459.11 442.896 458.66 442.111 457.926 441.681L444.711 433.93C443.11 432.991 441.09 434.142 441.09 435.995Z" fill="#EEF7FA"></path><path d="M555 388.17V468.895L485.083 509.941V429.9L555 388.17Z" fill="#C8E3EC"></path><path d="M485.068 347.941L415 388.059L485.068 429.928L554.947 388.234L485.068 347.941Z" fill="white"></path><g opacity="0.1" filter="url(#filter3_f)"><path d="M630.058 261.188L577.282 291.405L630.058 322.941L682.691 291.536L630.058 261.188Z" fill="#0A3D6F"></path></g><path d="M595.108 245.017V285.38L630.067 305.903V265.882L595.108 245.017Z" fill="#EEF7FA"></path><path d="M603.656 264.336V269.319L615.088 275.755V271.114L603.656 264.336Z" fill="#EEF7FA"></path><path d="M608.045 269.027V278.424C608.045 278.852 608.274 279.247 608.646 279.461L615.253 283.26C616.054 283.721 617.055 283.145 617.055 282.223V272.902C617.055 272.478 616.83 272.085 616.463 271.87L609.856 267.995C609.055 267.525 608.045 268.101 608.045 269.027Z" fill="#EEF7FA"></path><path d="M665 245.115V285.477L630.041 306V265.98L665 245.115Z" fill="#C8E3EC"></path><path d="M630.034 225L595 245.059L630.034 265.994L664.973 245.146L630.034 225Z" fill="white"></path><path d="M313 134L313 449" stroke="url(#paint0_linear)" stroke-width="2"></path><path d="M162 84L162 400" stroke="url(#paint1_linear)" stroke-width="2"></path><path d="M464 60L464 424" stroke="url(#paint2_linear)" stroke-width="2"></path><path d="M555 81L246.862 264.761" stroke="url(#paint3_linear)" stroke-width="2"></path><path d="M519.959 166.5L229 1.00003" stroke="url(#paint4_linear)" stroke-width="2"></path><path d="M403 279L109 105" stroke="url(#paint5_linear)" stroke-width="2"></path><path d="M378 433L112 281" stroke="url(#paint6_linear)" stroke-width="2"></path><path d="M541 265L259 427" stroke="url(#paint7_linear)" stroke-width="2"></path><path d="M385 6L75.9595 187.5" stroke="url(#paint8_linear)" stroke-width="2"></path><defs><filter id="filter0_f" x="20.0682" y="188.741" width="143.903" height="100.991" color-interpolation-filters="sRGB"><feFlood flood-opacity="0" result="BackgroundImageFix"></feFlood><feBlend mode="normal" in="SourceGraphic" in2="BackgroundImageFix" result="shape"></feBlend><feGaussianBlur stdDeviation="10" result="effect1_foregroundBlur"></feGaussianBlur></filter><filter id="filter1_f" x="0.83989" y="120.472" width="624.27" height="433.311" color-interpolation-filters="sRGB"><feFlood flood-opacity="0" result="BackgroundImageFix"></feFlood><feBlend mode="normal" in="SourceGraphic" in2="BackgroundImageFix" result="shape"></feBlend><feGaussianBlur stdDeviation="42" result="effect1_foregroundBlur"></feGaussianBlur></filter><filter id="filter2_f" x="343.564" y="384.316" width="282.818" height="195.507" color-interpolation-filters="sRGB"><feFlood flood-opacity="0" result="BackgroundImageFix"></feFlood><feBlend mode="normal" in="SourceGraphic" in2="BackgroundImageFix" result="shape"></feBlend><feGaussianBlur stdDeviation="18" result="effect1_foregroundBlur"></feGaussianBlur></filter><filter id="filter3_f" x="541.282" y="225.188" width="177.409" height="133.753" color-interpolation-filters="sRGB"><feFlood flood-opacity="0" result="BackgroundImageFix"></feFlood><feBlend mode="normal" in="SourceGraphic" in2="BackgroundImageFix" result="shape"></feBlend><feGaussianBlur stdDeviation="18" result="effect1_foregroundBlur"></feGaussianBlur></filter><linearGradient id="paint0_linear" x1="313.5" y1="134" x2="313.5" y2="449" gradientUnits="userSpaceOnUse"><stop stop-color="#2B3381" stop-opacity="0"></stop><stop offset="0.541667" stop-color="#2B3381"></stop><stop offset="1" stop-color="#2B3381" stop-opacity="0"></stop></linearGradient><linearGradient id="paint1_linear" x1="162.5" y1="84" x2="162.5" y2="400" gradientUnits="userSpaceOnUse"><stop stop-color="#2B3381" stop-opacity="0"></stop><stop offset="0.541667" stop-color="#2B3381"></stop><stop offset="1" stop-color="#2B3381" stop-opacity="0"></stop></linearGradient><linearGradient id="paint2_linear" x1="464.5" y1="60" x2="464.5" y2="424" gradientUnits="userSpaceOnUse"><stop stop-color="#2B3381" stop-opacity="0"></stop><stop offset="0.541667" stop-color="#2B3381"></stop><stop offset="1" stop-color="#2B3381" stop-opacity="0"></stop></linearGradient><linearGradient id="paint3_linear" x1="555.256" y1="81.4294" x2="247.118" y2="265.191" gradientUnits="userSpaceOnUse"><stop stop-color="#2B3381" stop-opacity="0"></stop><stop offset="0.541667" stop-color="#2B3381"></stop><stop offset="1" stop-color="#2B3381" stop-opacity="0"></stop></linearGradient><linearGradient id="paint4_linear" x1="519.712" y1="166.935" x2="228.753" y2="1.43464" gradientUnits="userSpaceOnUse"><stop stop-color="#2B3381" stop-opacity="0"></stop><stop offset="0.541667" stop-color="#2B3381"></stop><stop offset="1" stop-color="#2B3381" stop-opacity="0"></stop></linearGradient><linearGradient id="paint5_linear" x1="402.745" y1="279.43" x2="108.745" y2="105.43" gradientUnits="userSpaceOnUse"><stop stop-color="#2B3381" stop-opacity="0"></stop><stop offset="0.541667" stop-color="#2B3381"></stop><stop offset="1" stop-color="#2B3381" stop-opacity="0"></stop></linearGradient><linearGradient id="paint6_linear" x1="377.752" y1="433.434" x2="111.752" y2="281.434" gradientUnits="userSpaceOnUse"><stop stop-color="#2B3381" stop-opacity="0"></stop><stop offset="0.541667" stop-color="#2B3381"></stop><stop offset="1" stop-color="#2B3381" stop-opacity="0"></stop></linearGradient><linearGradient id="paint7_linear" x1="541.249" y1="265.434" x2="259.249" y2="427.434" gradientUnits="userSpaceOnUse"><stop stop-color="#2B3381" stop-opacity="0"></stop><stop offset="0.541667" stop-color="#2B3381"></stop><stop offset="1" stop-color="#2B3381" stop-opacity="0"></stop></linearGradient><linearGradient id="paint8_linear" x1="385.253" y1="6.43114" x2="76.2127" y2="187.931" gradientUnits="userSpaceOnUse"><stop stop-color="#2B3381" stop-opacity="0"></stop><stop offset="0.541667" stop-color="#2B3381"></stop><stop offset="1" stop-color="#2B3381" stop-opacity="0"></stop></linearGradient></defs></svg> 