<svg width="24" height="24" viewBox="0 0 24 24" fill="none" xmlns="http://www.w3.org/2000/svg">
<path d="M12 24C18.6274 24 24 18.6274 24 12C24 5.37258 18.6274 0 12 0C5.37258 0 0 5.37258 0 12C0 18.6274 5.37258 24 12 24Z" fill="#E0E0E0"/>
<path d="M23.5 12C23.5 18.3513 18.3513 23.5 12 23.5C5.64873 23.5 0.5 18.3513 0.5 12C0.5 5.64873 5.64873 0.5 12 0.5C18.3513 0.5 23.5 5.64873 23.5 12Z" stroke="black" stroke-opacity="0.097"/>
<path d="M12.4255 5.91933C12.256 5.20411 11.9103 4.66176 11.3544 4.27195C11.0595 4.06179 10.7205 3.97365 10.3409 4.00755C10.1172 4.02789 9.90021 4.04145 9.69344 4.13636C9.27651 4.32957 8.96805 4.64142 8.74433 5.03123C8.21554 5.95323 8.16469 6.92607 8.4901 7.92602C8.51722 8.00737 8.53756 8.06839 8.47316 8.15313C8.28672 8.39041 8.10368 8.63446 7.9342 8.8853C7.16135 10.0242 6.48002 11.2072 6.16139 12.5631C6.14444 12.6377 6.09699 12.6716 6.03598 12.7055C5.81565 12.8309 5.60888 12.9868 5.37838 13.0851C5.05297 13.2241 5.02585 13.4681 5.06653 13.7597C5.06992 13.7868 5.0767 13.8139 5.08347 13.841C5.11398 13.9427 5.08686 13.9969 4.97839 14.0444C4.54452 14.2274 4.25978 14.5528 4.11064 15.0003C3.96488 15.4342 3.97844 15.8748 4.06318 16.3189C4.24283 17.2578 4.66654 18.0985 5.12754 18.9221C5.17161 19.0001 5.22584 18.9967 5.29364 18.9967C5.88344 18.9967 6.47663 18.9967 7.06644 18.9967C10.5748 18.9967 14.0865 18.9967 17.5948 19.0001C17.7202 19.0001 17.7846 18.9696 17.8321 18.851C17.9202 18.6205 18.0253 18.4001 18.1202 18.173C18.5269 17.1934 18.893 16.2002 19.0456 15.1427C19.0998 14.7698 19.1168 14.3901 18.9846 14.0241C18.8896 13.7597 18.7269 13.5461 18.4388 13.4783C18.2965 13.4444 18.1507 13.4071 17.9914 13.4173C18.0083 13.3631 18.0185 13.3258 18.0321 13.2885C18.2693 12.6512 18.4761 12.0072 18.6015 11.336C18.6795 10.9089 18.7439 10.4818 18.6558 10.0446C18.6388 9.95305 18.6049 9.90898 18.5066 9.89543C18.0253 9.83102 17.5473 9.77001 17.0626 9.75645C16.8152 9.74967 16.8186 9.74967 16.7914 9.49544C16.7474 9.07851 16.6796 8.66497 16.5542 8.26499C16.3914 7.75993 16.1304 7.32605 15.6457 7.06165C15.5881 7.03115 15.5813 6.99386 15.5813 6.93962C15.5813 6.86166 15.5813 6.78031 15.5711 6.70235C15.4762 5.94984 15.1203 5.38037 14.4017 5.07869C14.1814 4.98717 13.9509 5.00412 13.7136 5.02106C13.3712 5.04479 13.0899 5.15326 12.856 5.39732C12.7103 5.55324 12.5476 5.68883 12.4255 5.91933Z" fill="#FEFEFE"/>
<path d="M12.4266 5.91884C12.5486 5.68834 12.7147 5.54937 12.8605 5.39683C13.0944 5.15616 13.3757 5.0443 13.7181 5.02058C13.9553 5.00363 14.1892 4.98668 14.4062 5.0782C15.1248 5.37988 15.4807 5.94935 15.5756 6.70186C15.5858 6.77982 15.5824 6.85778 15.5858 6.93914C15.5858 6.99337 15.5926 7.03066 15.6502 7.06116C16.1315 7.32556 16.3959 7.75944 16.5586 8.2645C16.6874 8.66448 16.7552 9.07802 16.7959 9.49496C16.823 9.74918 16.8162 9.75257 17.0671 9.75596C17.5518 9.76952 18.0297 9.83053 18.5111 9.89494C18.6094 9.9085 18.6399 9.95256 18.6602 10.0441C18.745 10.478 18.6839 10.9085 18.606 11.3356C18.4839 12.0033 18.2738 12.6507 18.0365 13.288C18.023 13.3253 18.0128 13.3626 17.9958 13.4168C18.1551 13.4066 18.3009 13.4439 18.4433 13.4778C18.7314 13.5456 18.8941 13.7592 18.989 14.0236C19.1212 14.3897 19.1043 14.7693 19.05 15.1422C18.8941 16.1997 18.5314 17.1929 18.1246 18.1725C18.0297 18.3996 17.9247 18.6234 17.8365 18.8505C17.7925 18.9691 17.7247 18.9996 17.5992 18.9996C14.0909 18.9962 10.5792 18.9962 7.07089 18.9962C6.48109 18.9962 5.88789 18.9962 5.29809 18.9962C5.2303 18.9962 5.17606 18.9996 5.132 18.9217C4.66761 18.098 4.24729 17.2573 4.06764 16.3184C3.98289 15.8777 3.96934 15.4371 4.11509 14.9998C4.26424 14.5524 4.54897 14.2269 4.98285 14.0439C5.09132 13.9998 5.11844 13.9456 5.08793 13.8405C5.08115 13.8134 5.07437 13.7863 5.07098 13.7592C5.03031 13.4677 5.05742 13.2236 5.38283 13.0846C5.61333 12.9863 5.8201 12.8304 6.04043 12.705C6.10144 12.6711 6.1489 12.6338 6.16585 12.5626C6.48109 11.2034 7.16242 10.0204 7.93865 8.88481C8.10814 8.63398 8.29118 8.38992 8.47761 8.15264C8.54202 8.07129 8.52168 8.01027 8.49456 7.92553C8.16915 6.92558 8.22339 5.95274 8.74879 5.03075C8.9725 4.64093 9.28097 4.32569 9.6979 4.13587C9.90128 4.04096 10.1216 4.0274 10.3453 4.00706C10.7216 3.97317 11.0605 4.0613 11.3555 4.27146C11.9114 4.66127 12.2571 5.20362 12.4266 5.91884ZM9.49113 15.1727C9.50129 15.1727 9.51146 15.1761 9.52163 15.1794C9.54536 15.2676 9.56909 15.3557 9.59282 15.4438C9.60976 15.515 9.62332 15.5862 9.64705 15.654C9.95212 16.576 10.4029 17.4268 10.9148 18.2505C11.0233 18.4234 11.1351 18.4878 11.3216 18.4335C11.6368 18.4403 11.9486 18.4674 12.2639 18.42C12.474 18.1997 12.6503 17.9522 12.8266 17.7082C13.3791 16.9319 13.8774 16.1252 14.1553 15.2066C14.1689 15.2066 14.1791 15.2032 14.1926 15.2032C14.2197 15.4201 14.2231 15.6371 14.196 15.8506C14.196 15.8608 14.1926 15.8743 14.1926 15.8845C14.1791 15.9625 14.1655 16.0404 14.1553 16.1184C13.9553 16.8675 13.596 17.5353 13.1486 18.1624C13.091 18.2471 12.9486 18.3386 12.9994 18.4166C13.0503 18.4946 13.2062 18.4437 13.3181 18.4335C13.7621 18.4369 14.2028 18.4369 14.6468 18.4403C14.6977 18.4403 14.7485 18.4437 14.7722 18.3793C14.9587 18.098 15.1553 17.8234 15.2807 17.5082C15.3451 17.4912 15.3587 17.4302 15.3858 17.3827C15.5993 17.0065 15.8197 16.6336 16.0298 16.254C16.7417 14.949 17.3925 13.6134 17.8331 12.1898C17.9958 11.6644 18.1179 11.1254 18.1585 10.5729C18.1687 10.4169 18.1009 10.3831 17.9721 10.3661C17.2501 10.2814 16.5247 10.278 15.7993 10.2949C15.6468 10.2983 15.4943 10.278 15.3451 10.3186C15.2129 10.3322 15.0807 10.3593 14.9485 10.3627C14.3824 10.3763 13.8299 10.4814 13.2774 10.5864C11.5826 10.9051 9.9589 11.444 8.38609 12.1457C7.4641 12.5558 6.56583 13.0067 5.71163 13.5422C5.63367 13.566 5.60316 13.6134 5.62011 13.6948C5.63706 13.7829 5.64723 13.871 5.66757 13.9592C5.83705 14.7523 6.19975 15.4608 6.63024 16.1387C7.04717 16.7963 7.51155 17.42 8.01661 18.0132C8.10475 18.1183 8.22677 18.1997 8.28779 18.3251C8.32847 18.4098 8.39287 18.4369 8.47422 18.4369C9.11148 18.4369 9.74535 18.4369 10.3826 18.4369C10.5216 18.4369 10.4741 18.3861 10.4199 18.3251C10.3962 18.2742 10.3724 18.2234 10.3453 18.1759C9.92839 17.4471 9.60977 16.6811 9.49452 15.8404C9.49452 15.6133 9.49452 15.3896 9.49452 15.1625L9.49113 15.1727ZM14.1214 5.57648C13.6231 5.40361 12.9757 5.80698 12.8435 6.37984C12.9689 6.3595 13.0876 6.33916 13.2062 6.32221C13.7825 6.27476 14.3553 6.26459 14.9553 6.38662C14.7756 5.97647 14.5485 5.67478 14.1214 5.57648ZM5.12522 14.5964C4.80659 14.7388 4.65744 15.0066 4.58626 15.3252C4.49135 15.7625 4.5727 16.1862 4.68795 16.6099C4.85065 17.2065 5.132 17.7522 5.40317 18.3013C5.44046 18.3759 5.48113 18.4471 5.58621 18.4471C6.22686 18.4437 6.8709 18.4437 7.51155 18.4403C7.54206 18.4403 7.58951 18.4607 7.5929 18.4132C7.5929 18.3895 7.55562 18.3624 7.53528 18.3352C7.34207 18.0946 7.14886 17.8573 6.95903 17.6132C6.24381 16.6912 5.62689 15.7082 5.23369 14.5998C5.20318 14.4778 5.1625 14.5659 5.12522 14.5964ZM16.8569 18.4369C16.9111 18.4403 16.9688 18.4403 17.023 18.4505C17.3111 18.5081 17.4569 18.3929 17.5653 18.1115C17.9484 17.1319 18.3382 16.1557 18.4975 15.1083C18.5416 14.8201 18.5619 14.5252 18.4806 14.2371C18.4229 14.0405 18.3382 13.9829 18.145 13.9863C17.8026 13.9727 17.7619 13.9998 17.6264 14.3083C17.1891 15.2981 16.684 16.254 16.1451 17.1929C15.9315 17.5624 15.718 17.9319 15.5044 18.3013C15.4705 18.342 15.4197 18.3725 15.4298 18.4369C15.9078 18.4369 16.3823 18.4369 16.8569 18.4369ZM10.2708 4.54263C9.94534 4.56975 9.68773 4.73584 9.47418 4.96973C9.10809 5.36293 8.92505 5.84088 8.86064 6.37984C9.07419 6.33577 9.26402 6.2951 9.45723 6.25442C10.2436 6.14256 11.0334 6.10527 11.8232 6.21374C11.9317 6.2273 11.9317 6.17646 11.9114 6.09511C11.8266 5.7358 11.691 5.39683 11.4605 5.10871C11.1555 4.72906 10.786 4.47823 10.2708 4.54263ZM15.4739 7.7052C15.4434 7.76622 15.4163 7.82723 15.3858 7.88825C15.0909 8.4611 14.657 8.85092 13.9892 8.89159C13.2605 8.93566 12.7622 8.56957 12.4164 7.95604C12.4029 7.92892 12.4029 7.88486 12.3486 7.89503C12.2808 8.10858 12.1859 8.31535 12.0639 8.50517C11.6571 9.13226 11.125 9.55597 10.3352 9.52885C9.72162 9.50851 9.26402 9.18988 8.89793 8.71872C8.84709 8.65431 8.81997 8.58652 8.73862 8.70177C8.01323 9.69156 7.36919 10.7254 6.93192 11.8779C6.88446 11.9999 6.82684 12.122 6.82006 12.2677C7.18953 12.0914 7.54206 11.922 7.89798 11.7559C7.97255 11.722 7.97255 11.6711 7.9556 11.6033C7.89798 11.3559 7.87764 11.1017 7.90476 10.8508C7.94204 10.4949 8.02678 10.1593 8.40982 10.0034C8.65049 9.90511 8.89115 9.81358 9.14538 9.75596C9.34876 9.7085 9.52163 9.74579 9.69112 9.85426C9.99619 10.0441 10.2131 10.3153 10.3826 10.6237C10.4368 10.7186 10.4775 10.7457 10.5894 10.7085C11.125 10.5322 11.6673 10.3797 12.213 10.2475C13.0571 10.0407 13.9113 9.89155 14.7756 9.81019C15.0061 9.78986 15.2332 9.75257 15.4637 9.74918C15.6976 9.7424 15.9349 9.73562 16.1688 9.73223C16.24 9.73223 16.2637 9.71867 16.2569 9.63732C16.2196 9.21022 16.1518 8.7899 16.0095 8.38314C15.9213 8.12552 15.8061 7.88147 15.6027 7.69164C15.5688 7.65436 15.5078 7.56623 15.4739 7.7052ZM11.2843 6.72559C11.3622 6.99676 11.3419 7.06455 11.1216 7.30522C10.9555 7.48826 10.5962 7.53911 10.3216 7.41708C10.0877 7.31539 9.96568 7.10523 9.98941 6.84084C9.99619 6.77643 9.9928 6.7527 9.91823 6.75609C9.64027 6.76287 9.37249 6.83067 9.10131 6.87473C9.02674 6.88829 8.88098 6.89507 8.85387 7.00015C8.82675 7.09845 8.83353 7.21709 8.86403 7.31539C8.92844 7.53911 8.99623 7.76283 9.09114 7.9696C9.20639 8.22043 9.35893 8.4611 9.56909 8.64415C9.74196 8.79329 9.9589 8.8882 10.1725 8.96955C10.3385 9.03396 10.5216 9.03057 10.6775 8.96955C11.169 8.77295 11.5317 8.42721 11.7317 7.9357C11.8673 7.60351 12.0029 7.26793 11.9825 6.89507C11.9792 6.8205 11.9622 6.77982 11.8842 6.77304C11.691 6.75948 11.4978 6.71542 11.2843 6.72559ZM12.7283 7.10184C12.8232 7.58317 12.9655 8.03061 13.4774 8.25433C13.8672 8.42382 14.3689 8.34585 14.6468 8.03061C14.8536 7.79672 14.9824 7.51199 15.0299 7.20014C15.0604 6.98998 15.0366 6.93236 14.8333 6.90524C14.7587 6.89507 14.5926 6.82389 14.5858 6.95269C14.5723 7.23065 14.4129 7.35607 14.1926 7.45098C13.9079 7.57301 13.4604 7.3764 13.3825 7.09506C13.3621 7.02388 13.4299 6.9188 13.3384 6.88829C13.2638 6.86456 13.1723 6.89846 13.0876 6.91202C13.0028 6.92558 12.9215 6.94591 12.8367 6.95269C12.7452 6.96286 12.7113 7.00693 12.7283 7.10184ZM8.44371 11.2101C8.43694 11.3932 8.50134 11.4915 8.60642 11.4474C8.98945 11.2847 9.37588 11.1356 9.77247 11.0169C9.89111 10.983 9.94534 10.9118 9.8606 10.7966C9.74874 10.6474 9.64366 10.4983 9.49113 10.3864C9.4335 10.3458 9.37249 10.3186 9.30469 10.3186C9.04708 10.3288 8.79963 10.4102 8.59964 10.5559C8.43693 10.6746 8.47422 10.8915 8.46405 11.0745C8.45388 11.122 8.4471 11.1661 8.44371 11.2101Z" fill="#394D61"/>
<path d="M14.1509 16.1186C14.1644 16.0406 14.178 15.9627 14.1882 15.8847C14.1916 15.8813 14.2017 15.8779 14.2017 15.8745C14.2017 15.8644 14.1949 15.8576 14.1949 15.8474C14.2187 15.6305 14.2187 15.4135 14.1916 15.2C14.178 15.1796 14.1644 15.1797 14.1543 15.2034C13.8763 16.1254 13.378 16.9321 12.8255 17.705C12.6493 17.9524 12.473 18.1965 12.2628 18.4168C12.2188 18.3626 12.1611 18.3829 12.1069 18.3829C11.8425 18.3795 11.5815 18.3829 11.3171 18.3829C11.2832 18.3388 11.2459 18.2948 11.2154 18.2473C10.6968 17.427 10.2324 16.5728 9.77819 15.7152C9.72735 15.6169 9.68328 15.5118 9.59176 15.4407C9.56803 15.3525 9.5443 15.2644 9.52058 15.1763C9.5138 15.1491 9.50702 15.1424 9.49007 15.1695H9.48329C9.45617 15.1797 9.42906 15.1932 9.42906 15.2237C9.42906 15.4135 9.42906 15.6034 9.42906 15.7932C9.42906 15.8237 9.45617 15.8372 9.48668 15.844C9.60193 16.6847 9.92056 17.4507 10.3375 18.1795C10.3646 18.227 10.3883 18.2778 10.4121 18.3287C10.3849 18.3863 10.3307 18.3795 10.2799 18.3795C9.8731 18.3795 9.46973 18.3795 9.06297 18.3795C8.9884 18.3795 8.93755 18.3456 8.88671 18.2982C8.66299 18.0914 8.46978 17.8575 8.28673 17.6168C7.53422 16.627 6.89696 15.5661 6.26648 14.4983C6.07666 14.1797 5.92074 13.8441 5.7038 13.5424C6.558 13.0035 7.45965 12.556 8.37825 12.1459C9.95107 11.4442 11.5747 10.9053 13.2696 10.5866C13.8221 10.4816 14.3746 10.3799 14.9407 10.3629C15.0729 10.3595 15.2051 10.3358 15.3373 10.3188C15.3983 10.3866 15.483 10.3833 15.5644 10.4002C15.9406 10.4646 16.3169 10.5392 16.6525 10.7358C16.7677 10.8036 16.8558 10.8917 16.8626 11.0408C16.8728 11.251 16.8558 11.4578 16.8152 11.6612C16.7033 12.234 16.5677 12.7967 16.4254 13.3628C16.1169 14.5797 15.7576 15.783 15.4085 16.9864C15.3576 17.1558 15.2695 17.3185 15.2796 17.505C15.1508 17.8202 14.9542 18.0948 14.7712 18.3761C14.2966 18.3761 13.8221 18.3761 13.3475 18.3761C13.3577 18.3558 13.3679 18.3354 13.378 18.3185C13.8119 17.7355 14.0594 17.0779 14.1814 16.3694C14.1916 16.2915 14.2187 16.1999 14.1509 16.1186Z" fill="#9CCE57"/>
<path d="M15.4694 9.74906C15.2389 9.75245 15.0084 9.78973 14.7813 9.81007C13.917 9.89142 13.0628 10.0406 12.2187 10.2473C11.673 10.3795 11.1306 10.5321 10.5951 10.7083C10.4866 10.7456 10.4425 10.7185 10.3883 10.6236C10.2188 10.3151 10.0019 10.044 9.6968 9.85414C9.52732 9.74906 9.35106 9.70838 9.15107 9.75584C8.89684 9.81346 8.65617 9.90498 8.4155 10.0033C8.03247 10.1626 7.94773 10.4948 7.91044 10.8507C7.88332 11.1015 7.90366 11.3558 7.96129 11.6032C7.97824 11.671 7.97824 11.7185 7.90366 11.7557C7.54775 11.9218 7.19183 12.0947 6.82574 12.2676C6.83252 12.1218 6.89015 11.9998 6.9376 11.8778C7.37487 10.7253 8.01891 9.69143 8.7443 8.70164C8.82905 8.58639 8.85616 8.65419 8.90362 8.71859C9.2697 9.18976 9.72392 9.50839 10.3408 9.52873C11.1272 9.55245 11.6628 9.13213 12.0696 8.50504C12.1916 8.31522 12.2831 8.11184 12.3543 7.8949C12.4085 7.88473 12.4085 7.9288 12.4221 7.95591C12.7679 8.56945 13.2661 8.93553 13.9949 8.89147C14.6627 8.85079 15.0966 8.46098 15.3915 7.88812C15.422 7.82711 15.4491 7.76609 15.4796 7.70508C15.5372 7.74914 15.5135 7.82033 15.5271 7.87795C15.5915 8.14574 15.6118 8.4203 15.5982 8.69147C15.5813 9.044 15.5135 9.39653 15.4694 9.74906Z" fill="#9CCE57"/>
<path d="M15.2762 17.5154C15.2661 17.3289 15.3576 17.1662 15.405 16.9967C15.7576 15.7934 16.1135 14.5901 16.4219 13.3732C16.5643 12.8105 16.7033 12.2444 16.8118 11.6716C16.8524 11.4682 16.8694 11.2614 16.8592 11.0512C16.8524 10.9021 16.7643 10.814 16.6491 10.7462C16.3135 10.5496 15.9372 10.475 15.561 10.4106C15.4796 10.397 15.3949 10.4004 15.3339 10.3292C15.483 10.2886 15.6355 10.3089 15.7881 10.3055C16.5135 10.2852 17.2389 10.292 17.9609 10.3767C18.0897 10.3903 18.1609 10.4242 18.1473 10.5835C18.1066 11.136 17.988 11.6716 17.8219 12.2003C17.3812 13.624 16.7304 14.9595 16.0186 16.2646C15.8118 16.6442 15.5915 17.0171 15.3745 17.3933C15.3542 17.4374 15.3406 17.4984 15.2762 17.5154Z" fill="#89B44C"/>
<path d="M15.5034 18.3015C15.7169 17.9321 15.9305 17.5626 16.144 17.1931C16.683 16.2542 17.188 15.2983 17.6253 14.3085C17.7609 14.0034 17.8016 13.9729 18.1439 13.9865C18.1541 14.1424 18.2151 14.2915 18.2151 14.4509C18.2151 14.9593 18.0795 15.4373 17.927 15.9118C17.649 16.7694 17.2694 17.5863 16.8626 18.3863C16.466 18.3863 16.0694 18.3863 15.6728 18.3863C15.605 18.3863 15.5135 18.4168 15.5034 18.3015Z" fill="#9CCE57"/>
<path d="M11.2832 6.72563C11.4934 6.71546 11.6866 6.75953 11.8832 6.77309C11.9612 6.77986 11.9781 6.82054 11.9815 6.89511C12.0018 7.26798 11.8663 7.60356 11.7307 7.93575C11.5273 8.43064 11.168 8.77639 10.6765 8.9696C10.5205 9.03061 10.3375 9.034 10.1714 8.9696C9.95447 8.88825 9.74092 8.79333 9.56805 8.64419C9.35789 8.46115 9.20874 8.22048 9.0901 7.96964C8.9918 7.75948 8.92401 7.53576 8.86299 7.31543C8.83588 7.21713 8.8291 7.09849 8.85282 7.00019C8.87994 6.89511 9.0257 6.88833 9.10027 6.87478C9.37145 6.83071 9.63923 6.76292 9.91718 6.75614C9.99176 6.75275 9.99515 6.77648 9.98837 6.84088C9.96464 7.10527 10.0901 7.31204 10.3206 7.41712C10.5951 7.53915 10.9544 7.48831 11.1205 7.30527C11.3442 7.0646 11.3646 6.9968 11.2832 6.72563Z" fill="#FBFBFC"/>
<path d="M5.2326 14.6005C5.6258 15.709 6.24272 16.6886 6.95794 17.614C7.14777 17.858 7.34098 18.0953 7.53419 18.336C7.50368 18.3936 7.45284 18.3868 7.40199 18.3868C6.90032 18.3868 6.40204 18.3868 5.90036 18.3868C5.82579 18.3868 5.77833 18.3665 5.74105 18.2953C5.41564 17.7123 5.11735 17.1123 4.94786 16.4649C4.78516 15.8412 4.70042 15.2175 5.12074 14.6446C5.12752 14.6344 5.12413 14.6107 5.12413 14.5938L5.12752 14.5971C5.16141 14.5971 5.1987 14.6005 5.2326 14.6005Z" fill="#9CCE57"/>
<path d="M10.2697 4.5428C10.7849 4.47839 11.1544 4.72923 11.4561 5.10548C11.6899 5.39361 11.8221 5.73257 11.9069 6.09188C11.9272 6.17323 11.9272 6.22408 11.8188 6.21052C11.029 6.10205 10.2392 6.13595 9.45276 6.25119C9.57479 5.75291 9.73071 5.26819 10.0222 4.8377C10.0968 4.72923 10.2188 4.66821 10.2697 4.5428Z" fill="#9CCE57"/>
<path d="M5.70037 13.5493C5.91731 13.851 6.07324 14.1866 6.26306 14.5052C6.89354 15.573 7.5308 16.6373 8.28331 17.6237C8.46635 17.8644 8.65956 18.0983 8.88328 18.305C8.93413 18.3525 8.98497 18.3864 9.05954 18.3864C9.46631 18.383 9.86968 18.3864 10.2764 18.3864C10.3273 18.3864 10.3815 18.3932 10.4086 18.3355C10.4629 18.3932 10.5103 18.4474 10.3713 18.4474C9.73409 18.4474 9.10022 18.4474 8.46296 18.4474C8.38161 18.4474 8.3172 18.4203 8.27653 18.3355C8.21551 18.2101 8.09348 18.1288 8.00535 18.0237C7.50029 17.4305 7.0359 16.8068 6.61897 16.1492C6.18848 15.4713 5.82579 14.7628 5.6563 13.9696C5.63597 13.8815 5.6258 13.7934 5.60885 13.7052C5.5919 13.6239 5.62241 13.573 5.70037 13.5493Z" fill="#AADB62"/>
<path d="M12.7272 7.10172C12.7103 7.00342 12.7442 6.96274 12.8391 6.95257C12.9238 6.94579 13.0052 6.92207 13.0899 6.9119C13.1747 6.89834 13.2662 6.86783 13.3407 6.88817C13.4323 6.91529 13.3645 7.02376 13.3848 7.09494C13.4628 7.37628 13.9102 7.57289 14.1949 7.45086C14.4187 7.35595 14.578 7.23053 14.5881 6.95257C14.5949 6.82038 14.761 6.89495 14.8356 6.90512C15.039 6.93224 15.0627 6.98986 15.0322 7.20002C14.9847 7.51187 14.8593 7.79321 14.6492 8.03049C14.3712 8.34573 13.8695 8.4237 13.4797 8.25421C12.9645 8.03388 12.8187 7.58644 12.7272 7.10172Z" fill="#FBFBFC"/>
<path d="M16.8593 18.3863C17.2694 17.5829 17.6457 16.7694 17.9236 15.9118C18.0762 15.4373 18.2151 14.9559 18.2117 14.4509C18.2117 14.2915 18.1541 14.1424 18.1406 13.9865C18.3338 13.9831 18.4185 14.0407 18.4761 14.2373C18.5575 14.5254 18.5371 14.8203 18.4931 15.1085C18.3338 16.1559 17.9406 17.1321 17.5609 18.1117C17.4525 18.3931 17.3067 18.5049 17.0186 18.4507C16.9643 18.4405 16.9067 18.4405 16.8525 18.4371C16.8559 18.4202 16.8593 18.4032 16.8593 18.3863Z" fill="#89B44C"/>
<path d="M5.12417 14.5938C5.12417 14.6107 5.12756 14.631 5.12078 14.6446C4.70046 15.2175 4.7852 15.8412 4.94791 16.4649C5.11739 17.1157 5.41568 17.7123 5.74109 18.2953C5.77838 18.3631 5.82584 18.3868 5.90041 18.3868C6.40208 18.3834 6.90036 18.3868 7.40204 18.3868C7.45288 18.3868 7.50712 18.3936 7.53424 18.336C7.55457 18.3631 7.59186 18.3868 7.59186 18.4139C7.58847 18.4614 7.54101 18.441 7.51051 18.441C6.86986 18.4444 6.22582 18.4444 5.58517 18.4478C5.48009 18.4478 5.43602 18.3732 5.40213 18.3021C5.13095 17.7529 4.84961 17.2072 4.6869 16.6106C4.57165 16.1903 4.4903 15.7632 4.58521 15.3259C4.6564 15.0073 4.80893 14.7395 5.12417 14.5938Z" fill="#AADB62"/>
<path d="M8.44266 11.2102C8.44605 11.1661 8.45283 11.122 8.45622 11.078C8.46978 10.8949 8.43249 10.6746 8.5918 10.5593C8.79519 10.4136 9.03924 10.3322 9.29686 10.3221C9.36804 10.3187 9.42906 10.3458 9.48329 10.3899C9.63583 10.5017 9.7443 10.6509 9.85277 10.8C9.93751 10.9153 9.88327 10.9864 9.76463 11.0203C9.36804 11.139 8.98162 11.2881 8.59858 11.4508C8.50028 11.4915 8.43249 11.3932 8.44266 11.2102Z" fill="#FBFBFC"/>
<path d="M15.4694 9.7494C15.5135 9.39687 15.5779 9.04435 15.5948 8.68843C15.605 8.41726 15.5847 8.14269 15.5237 7.87491C15.5101 7.81728 15.5338 7.7461 15.4762 7.70203C15.5101 7.56306 15.5711 7.65119 15.6118 7.68848C15.8152 7.8783 15.9304 8.12235 16.0186 8.37997C16.1609 8.78673 16.2253 9.20705 16.266 9.63415C16.2728 9.7155 16.249 9.72906 16.1779 9.72906C15.9406 9.73584 15.7067 9.74262 15.4694 9.7494Z" fill="#89B44C"/>
<path d="M10.2697 4.54297C10.2189 4.66839 10.0968 4.7294 10.0223 4.83787C9.73074 5.26836 9.5782 5.75309 9.45278 6.25137C9.26296 6.29204 9.06975 6.33272 8.8562 6.37679C8.92061 5.83783 9.10704 5.36327 9.46973 4.96668C9.69006 4.73618 9.94429 4.57009 10.2697 4.54297Z" fill="#89B44C"/>
<path d="M14.1204 5.57666C14.5475 5.67496 14.7712 5.98003 14.9542 6.38679C14.3542 6.26477 13.778 6.27493 13.2051 6.32239C13.4424 6.01732 13.7 5.74275 14.0898 5.6309C14.1068 5.62751 14.1136 5.59361 14.1204 5.57666Z" fill="#9CCE57"/>
<path d="M9.59174 15.4443C9.68326 15.5155 9.72732 15.6206 9.77817 15.7189C10.2324 16.5765 10.6968 17.4307 11.2154 18.251C11.2459 18.2984 11.2832 18.3391 11.3171 18.3866C11.3205 18.4035 11.3205 18.4205 11.3239 18.434C11.1374 18.4883 11.0222 18.4239 10.9171 18.251C10.4086 17.4273 9.95782 16.5765 9.64936 15.6545C9.62224 15.5867 9.60868 15.5155 9.59174 15.4443Z" fill="#89B44C"/>
<path d="M14.1509 16.1187C14.2186 16.1966 14.1881 16.2881 14.1746 16.3729C14.0559 17.0847 13.8051 17.7423 13.3712 18.3219C13.3577 18.3389 13.3509 18.3626 13.3407 18.3796C13.317 18.3897 13.3102 18.4101 13.3136 18.4338C13.2017 18.4406 13.0458 18.4914 12.995 18.4169C12.9441 18.3389 13.0865 18.244 13.1441 18.1626C13.5916 17.5389 13.9509 16.8678 14.1509 16.1187Z" fill="#89B44C"/>
<path d="M14.1204 5.57674C14.1102 5.59708 14.1034 5.62759 14.0899 5.63098C13.7001 5.74284 13.4424 6.0174 13.2052 6.32247C13.0865 6.34281 12.9679 6.35976 12.8425 6.3801C12.9747 5.80385 13.6255 5.40387 14.1204 5.57674Z" fill="#89B44C"/>
<path d="M16.8593 18.386C16.8593 18.4029 16.8559 18.4199 16.8559 18.4334C16.3813 18.4334 15.9068 18.4334 15.4288 18.4334C15.4186 18.369 15.4695 18.3385 15.5034 18.2979C15.5136 18.4131 15.6017 18.3826 15.6695 18.3826C16.0661 18.386 16.4627 18.386 16.8593 18.386Z" fill="#AADB62"/>
<path d="M13.3136 18.4405C13.3136 18.4167 13.317 18.3964 13.3407 18.3862C13.8153 18.3862 14.2898 18.3862 14.7644 18.3862C14.744 18.4472 14.6932 18.4472 14.639 18.4472C14.1983 18.4439 13.7576 18.4405 13.3136 18.4405Z" fill="#AADB62"/>
<path d="M11.3205 18.434C11.3171 18.4171 11.3171 18.4001 11.3137 18.3865C11.5781 18.3865 11.8391 18.3865 12.1035 18.3865C12.1578 18.3865 12.2188 18.3662 12.2594 18.4204C11.9476 18.4713 11.6357 18.4442 11.3205 18.434Z" fill="#AADB62"/>
<path d="M9.48328 15.8508C9.45278 15.844 9.42566 15.8305 9.42566 15.8C9.42566 15.6101 9.42566 15.4203 9.42566 15.2305C9.42566 15.2 9.45278 15.1864 9.47989 15.1763C9.48328 15.4 9.48328 15.6237 9.48328 15.8508Z" fill="#AADB62"/>
<path d="M5.23262 14.5999C5.19533 14.5999 5.16143 14.5965 5.12415 14.5965C5.16143 14.566 5.20211 14.4779 5.23262 14.5999Z" fill="#AADB62"/>
<path d="M9.49005 15.1725C9.507 15.1454 9.51717 15.1522 9.52056 15.1793C9.51039 15.1759 9.50022 15.1759 9.49005 15.1725Z" fill="#89B44C"/>
<path d="M14.1542 15.2036C14.1644 15.1832 14.178 15.1798 14.1915 15.2002C14.178 15.2036 14.1678 15.2036 14.1542 15.2036Z" fill="#89B44C"/>
<path d="M14.195 15.8511C14.1983 15.8612 14.2017 15.868 14.2017 15.8782C14.2017 15.8816 14.195 15.885 14.1882 15.8884C14.1916 15.8748 14.195 15.8612 14.195 15.8511Z" fill="#89B44C"/>
</svg>
