<svg width="24" height="24" viewBox="0 0 24 24" fill="none" xmlns="http://www.w3.org/2000/svg">
<path d="M12 24C18.6274 24 24 18.6274 24 12C24 5.37258 18.6274 0 12 0C5.37258 0 0 5.37258 0 12C0 18.6274 5.37258 24 12 24Z" fill="#EB5C20"/>
<path d="M19.925 15.5292C19.6384 15.9566 19.3148 16.3583 18.9579 16.7298C18.5343 17.1726 18.0588 17.5634 17.5416 17.8938C17.0093 18.2343 16.4348 18.505 15.8326 18.699C15.2004 18.9021 14.5396 19.0037 13.8752 18.9999C12.716 18.9999 11.6478 18.8322 10.6708 18.4968C9.69375 18.1614 8.85071 17.6879 8.14166 17.0763C6.88334 15.9925 6.09139 14.4711 5.92883 12.8251H4.29932C4.26002 12.8251 4.22109 12.8174 4.18478 12.8025C4.14846 12.7875 4.11546 12.7656 4.08767 12.738C4.05987 12.7104 4.03783 12.6777 4.02278 12.6416C4.00774 12.6056 4 12.5669 4 12.5279V11.472C4 11.433 4.00774 11.3943 4.02278 11.3583C4.03783 11.3222 4.05987 11.2895 4.08767 11.2619C4.11546 11.2343 4.14846 11.2124 4.18478 11.1974C4.22109 11.1825 4.26002 11.1748 4.29932 11.1748H5.93173C6.0013 10.4915 6.17684 9.82295 6.45213 9.19286C6.82019 8.351 7.36369 7.59609 8.04686 6.97785C8.73244 6.35638 9.55382 5.87137 10.511 5.52282C11.4682 5.17427 12.5263 5 13.6856 5C14.4608 5 15.1699 5.09043 15.8127 5.27128C16.4288 5.44099 17.0188 5.69321 17.5664 6.02098C18.0877 6.33582 18.5626 6.72092 18.9773 7.16528C19.3481 7.56374 19.6801 7.99615 19.9688 8.45671C19.997 8.50336 20.0066 8.55882 19.9955 8.61211C19.9845 8.66539 19.9537 8.71262 19.9092 8.74443L18.8539 9.4777C18.809 9.50901 18.7535 9.5216 18.6993 9.51276C18.6452 9.50393 18.5966 9.47437 18.5641 9.43043C18.3135 9.093 18.0431 8.77048 17.7544 8.46452C17.4305 8.11902 17.0726 7.80672 16.6858 7.53232C16.3179 7.27098 15.917 7.05872 15.4935 6.90099C15.078 6.74613 14.6378 6.66691 14.1939 6.66711C13.5888 6.66497 12.9893 6.78234 12.4303 7.01237C11.87 7.24299 11.3667 7.5913 10.9548 8.03336C10.53 8.48521 10.1918 9.0427 9.94008 9.70582C9.76529 10.1792 9.65245 10.6729 9.60433 11.1748H11.2367C11.3161 11.1748 11.3923 11.2061 11.4484 11.2619C11.5045 11.3176 11.5361 11.3932 11.5361 11.472V12.5267C11.5361 12.6055 11.5045 12.6811 11.4484 12.7368C11.3923 12.7925 11.3161 12.8238 11.2367 12.8238H9.60557C9.65597 13.3307 9.77517 13.8284 9.95996 14.3035C10.2249 14.968 10.576 15.5255 11.0132 15.976C11.439 16.4194 11.9536 16.7694 12.5239 17.0036C13.0881 17.2361 13.6932 17.3551 14.3041 17.3537C14.7546 17.3574 15.2016 17.2754 15.621 17.1121C16.0316 16.9485 16.4163 16.727 16.7632 16.4544C17.1273 16.1689 17.462 15.8483 17.7622 15.4971C18.0288 15.1878 18.2858 14.8634 18.5331 14.5238C18.5495 14.5016 18.5701 14.4827 18.5939 14.4684C18.6176 14.4541 18.644 14.4445 18.6714 14.4403C18.6989 14.4361 18.7269 14.4373 18.7539 14.4439C18.7809 14.4505 18.8063 14.4623 18.8287 14.4786L19.8736 15.2398C19.9172 15.2728 19.9467 15.3209 19.9563 15.3746C19.9658 15.4282 19.9546 15.4834 19.925 15.5292Z" fill="white"/>
<path d="M23.5 12C23.5 18.3513 18.3513 23.5 12 23.5C5.64873 23.5 0.5 18.3513 0.5 12C0.5 5.64873 5.64873 0.5 12 0.5C18.3513 0.5 23.5 5.64873 23.5 12Z" stroke="black" stroke-opacity="0.097"/>
</svg>
