<svg width="24" height="24" viewBox="0 0 24 24" fill="none" xmlns="http://www.w3.org/2000/svg">
<path d="M12 24C18.6274 24 24 18.6274 24 12C24 5.37258 18.6274 0 12 0C5.37258 0 0 5.37258 0 12C0 18.6274 5.37258 24 12 24Z" fill="#2251F0"/>
<path d="M23.5 12C23.5 18.3513 18.3513 23.5 12 23.5C5.64873 23.5 0.5 18.3513 0.5 12C0.5 5.64873 5.64873 0.5 12 0.5C18.3513 0.5 23.5 5.64873 23.5 12Z" stroke="white" stroke-opacity="0.3"/>
<path d="M5.99988 15.2367C7.94086 11.8975 9.87448 8.5656 11.8302 5.23926C11.8578 5.24846 11.867 5.27237 11.8817 5.29445C12.3527 5.99725 12.8237 6.70189 13.2965 7.40469C13.8264 8.19396 14.3544 8.98323 14.8861 9.76883C14.9394 9.8461 14.921 9.87185 14.8566 9.92337C14.2992 10.3465 13.7454 10.7752 13.1898 11.202C12.671 11.6013 12.1503 11.9968 11.6315 12.396C11.0041 12.8781 10.3786 13.3638 9.75121 13.8458C9.24895 14.2322 8.74485 14.6148 8.24258 15.0012C8.20579 15.0288 8.16531 15.0527 8.13404 15.084C8.00341 15.2201 7.84703 15.2459 7.66305 15.2422C7.12399 15.2312 6.58493 15.2385 6.04403 15.2385C6.03299 15.2385 6.02196 15.2385 5.99988 15.2367Z" fill="white"/>
<path d="M9.40533 15.2931C12.6158 12.8259 15.806 10.3753 18.998 7.92285C19.0072 8.06636 18.9815 8.20618 18.9741 8.346C18.9649 8.51342 18.941 8.67901 18.9263 8.84459C18.895 9.19047 18.8637 9.53635 18.8343 9.88223C18.8122 10.1343 18.7956 10.3863 18.7736 10.6384C18.7404 11.0174 18.7018 11.3964 18.6687 11.7735C18.6466 12.0201 18.6319 12.2648 18.6098 12.5113C18.5822 12.8296 18.5491 13.1479 18.5215 13.4661C18.4994 13.709 18.4829 13.9518 18.4626 14.1947C18.4332 14.5461 18.4019 14.8975 18.3725 15.2507C18.3706 15.2802 18.3596 15.2967 18.3283 15.2949C18.3099 15.2931 18.2915 15.2949 18.2731 15.2949C15.3515 15.2949 12.4318 15.2949 9.5102 15.2949C9.48445 15.2931 9.45869 15.2931 9.40533 15.2931Z" fill="white"/>
<path d="M11.8909 17.6692C9.77334 17.6692 7.65574 17.6692 5.53814 17.6711C5.44247 17.6711 5.42407 17.6453 5.42407 17.5552C5.42959 17.1081 5.42775 16.661 5.42407 16.2121C5.42407 16.1404 5.44063 16.1201 5.51422 16.1201C9.76414 16.122 14.0159 16.122 18.2658 16.1201C18.3413 16.1201 18.3541 16.144 18.3541 16.2139C18.3523 16.6647 18.3504 17.1154 18.3541 17.5662C18.3541 17.649 18.3357 17.6729 18.2511 17.6729C16.1317 17.6692 14.0122 17.6692 11.8909 17.6692Z" fill="white"/>
<path d="M5.44429 14.4383C5.42405 14.212 5.40565 13.9857 5.38542 13.7594C5.35598 13.4411 5.32654 13.1228 5.29895 12.8045C5.27687 12.5617 5.26215 12.3188 5.24007 12.076C5.21248 11.7632 5.17752 11.4523 5.1536 11.1395C5.14256 10.985 5.12785 10.8304 5.11497 10.6759C5.08369 10.33 5.05241 9.98414 5.02298 9.63826C5.00274 9.40829 4.98434 9.17648 4.96594 8.9465C4.93283 8.55279 4.89971 8.15723 4.86292 7.74512C4.93651 7.79479 4.99906 7.83711 5.06161 7.88126C5.45533 8.15907 5.8472 8.43504 6.24092 8.71285C6.77814 9.09368 7.31352 9.47452 7.85074 9.85352C7.89857 9.88664 7.94641 9.91791 7.99608 9.94919C8.04208 9.97678 8.04575 10.0099 8.01816 10.0559C7.84338 10.3521 7.67228 10.6501 7.4975 10.9464C7.26384 11.3474 7.02835 11.7503 6.79286 12.1514C6.41202 12.8027 6.03118 13.454 5.65219 14.1053C5.58779 14.2157 5.52708 14.3279 5.46453 14.4383C5.45717 14.4401 5.45165 14.4401 5.44429 14.4383Z" fill="white"/>
</svg>
