<svg width="200" height="200" viewBox="0 0 200 200" fill="none" xmlns="http://www.w3.org/2000/svg">
<path d="M0.0012207 126.271L128.714 69.9208L154.58 11.5688L0.0012207 126.271Z" fill="#00AFD8"/>
<path d="M44.002 34.7909L154.58 11.5688L0.0012207 126.271L44.002 34.7909Z" fill="#46C6EA"/>
<path d="M128.714 69.9203L101.925 194.784L0.0012207 126.271L128.714 69.9203Z" fill="#2C4E9C"/>
<path d="M154.581 11.5688L200 99.6356L128.561 69.9208L154.581 11.5688Z" fill="#268AC9"/>
<path d="M199.999 99.6352L101.925 194.784L128.714 69.9203L199.999 99.6352Z" fill="#1F6EB7"/>
<path d="M44.0021 34.7909L83.6031 4.48613L154.58 11.5684L44.0021 34.7909Z" fill="#9FDCF1"/>
<path d="M199.999 99.6353L116.551 126.271L101.925 194.784L199.999 99.6353Z" fill="#223F82"/>
<path d="M0.0012207 126.271L101.925 194.784L116.551 126.271H0.0012207Z" fill="#1E204F"/>
<path d="M128.714 69.9201L94.2265 56.3714L0.0012207 126.271L128.714 69.9201Z" fill="#1C96CE"/>
<path d="M94.2265 56.3721L43.7267 35.5871L0.0012207 126.271L94.2265 56.3721Z" fill="#44AAD9"/>
<path d="M179.368 91.0131L130.562 69.1504L151.655 18.3427L127.944 67.9187L63.126 43.4386L125.019 69.9202L22.0179 116.571L126.559 72.3836L109.315 159.835L129.484 71.9217L179.368 91.0131Z" fill="#EEF9FE"/>
</svg>
