<svg width="256" height="256" viewBox="0 0 256 256" fill="none" xmlns="http://www.w3.org/2000/svg">
<g clip-path="url(#clip0)">
<circle cx="127.998" cy="127.946" r="128.002" fill="#EDF0F2"/>
<path d="M209.259 226.845C189.699 242.917 165.812 252.828 140.619 255.324C106.836 258.671 73.1073 248.461 46.8525 226.939C20.5977 205.418 3.96753 174.349 0.620392 140.566C-1.87568 115.373 3.15488 90.0056 15.0759 67.6717C26.997 45.3377 45.2731 27.0404 67.5932 15.0933C89.9133 3.14633 115.275 -1.91371 140.471 0.553076C165.667 3.01987 189.565 12.9027 209.144 28.9518L183.325 60.4499C169.976 49.5073 153.681 42.769 136.502 41.0871C119.323 39.4052 102.031 42.8552 86.813 51.0009C71.5948 59.1466 59.1338 71.6221 51.0058 86.8497C42.8778 102.077 39.4479 119.373 41.1498 136.55C43.4319 159.584 54.7706 180.768 72.6716 195.441C90.5726 210.115 113.569 217.076 136.603 214.794C153.78 213.092 170.067 206.335 183.404 195.377L209.259 226.845Z" fill="url(#paint0_linear)"/>
<path d="M127.998 240.553C190.19 240.553 240.606 190.137 240.606 127.946C240.606 65.7542 190.19 15.3382 127.998 15.3382C65.807 15.3382 15.391 65.7542 15.391 127.946C15.391 190.137 65.807 240.553 127.998 240.553Z" fill="white"/>
<path fill-rule="evenodd" clip-rule="evenodd" d="M123.484 104.596L92.6552 155.324L104.918 148.244C104.947 148.194 104.976 148.144 105.007 148.094L123.484 118.01V104.596ZM158.08 162.32H98.4885L109.595 155.907H146.56C146.691 155.907 146.821 155.903 146.949 155.893L158.08 162.32ZM162.936 154.76L132.46 104.612V118.022L150.677 147.682L162.936 154.76ZM132.35 87.1495C130.352 83.8626 125.582 83.8626 123.584 87.1495L77.1814 163.503C75.1042 166.921 77.5647 171.295 81.5643 171.295H174.37C178.369 171.295 180.83 166.921 178.753 163.503L132.35 87.1495ZM127.968 127.859L116.254 146.932H139.683L127.968 127.859Z" fill="#283947"/>
</g>
<defs>
<linearGradient id="paint0_linear" x1="95.998" y1="13.2772" x2="136.136" y2="235.812" gradientUnits="userSpaceOnUse">
<stop stop-color="#27D3A2"/>
<stop offset="1" stop-color="#9388FD"/>
</linearGradient>
<clipPath id="clip0">
<rect width="256" height="256" fill="white"/>
</clipPath>
</defs>
</svg>
