<svg width="24" height="24" viewBox="0 0 24 24" fill="none" xmlns="http://www.w3.org/2000/svg">
<path d="M24 12C24 5.37258 18.6274 2.2213e-07 12 1.43099e-07C5.37258 6.40674e-08 2.2213e-07 5.37258 1.43099e-07 12C6.40674e-08 18.6274 5.37258 24 12 24C18.6274 24 24 18.6274 24 12Z" fill="#FC421F"/>
<path d="M11.9567 4.00004C11.8022 4.00055 11.6477 4.01017 11.4943 4.02884C10.7541 4.11724 10.1209 4.42404 9.59196 4.94524C9.35119 5.18244 9.1132 5.42324 8.87561 5.66404C8.7403 5.80084 8.60498 5.93804 8.46927 6.07404C8.19469 6.34941 7.91809 6.62275 7.63949 6.89404C7.41875 7.10731 7.20129 7.324 6.98721 7.54403L6.98632 7.54495C6.89787 7.63544 6.80981 7.72553 6.72057 7.81483C6.59918 7.93643 6.4774 8.05683 6.35522 8.17723C6.18449 8.34603 6.01376 8.51483 5.84542 8.68523C5.69976 8.83243 5.55728 8.98243 5.41441 9.13203C5.33601 9.21443 5.25761 9.29683 5.17881 9.37843C5.13344 9.42523 5.08767 9.47083 5.0419 9.51643L5.04178 9.51654C4.95387 9.60331 4.86636 9.68967 4.7872 9.78323C4.25988 10.4052 4.01035 11.1304 4.00239 12.0952C3.97891 12.4632 4.13093 12.9424 4.3538 13.3976C4.46539 13.6259 4.61476 13.8368 4.76238 14.0452L4.76491 14.0488L4.79118 14.0856C4.89863 14.2372 4.97743 14.236 5.1215 14.1184C5.14418 14.1004 5.16448 14.0796 5.18438 14.0584L5.19632 14.046L5.34715 13.888L5.61658 13.6076L5.85497 13.3632C6.09301 13.1209 6.32836 12.876 6.56098 12.6284L6.86185 12.3112C6.91159 12.2596 6.96254 12.2092 7.01387 12.1592C7.06681 12.1072 7.11974 12.0548 7.17147 12.0012C7.2646 11.9036 7.35693 11.8048 7.44926 11.7064C7.57184 11.5756 7.69402 11.4448 7.81858 11.3168C7.93279 11.1988 8.049 11.0828 8.1652 10.9668L8.16522 10.9668L8.16566 10.9664C8.2662 10.8661 8.36634 10.7663 8.46569 10.6648C8.57713 10.5504 8.68776 10.4348 8.798 10.3188C8.92376 10.1868 9.04992 10.0552 9.17727 9.92523C9.28353 9.81763 9.39178 9.71163 9.50003 9.60563C9.61624 9.49203 9.73245 9.37843 9.84587 9.26243C9.99989 9.10563 10.1511 8.94723 10.3024 8.78843C10.4353 8.64963 10.5682 8.51043 10.7027 8.37243C10.801 8.27125 10.9017 8.17207 11.0023 8.0729L11.0024 8.07283C11.0812 7.9962 11.1594 7.91887 11.2368 7.84083C11.3439 7.73323 11.4493 7.62443 11.5552 7.51603L11.556 7.51519C11.6887 7.37907 11.8209 7.24336 11.9551 7.10923C12.0602 7.00403 12.1673 6.90084 12.2739 6.79724C12.3779 6.69762 12.481 6.59708 12.5832 6.49564C12.9803 6.09885 13.3763 5.70047 13.7723 5.30209L13.7723 5.30204L13.9701 5.10284C13.9996 5.07284 14.0274 5.04124 14.0537 5.00884C14.1655 4.86924 14.1751 4.83684 14.0358 4.73684L14.0111 4.71844L14.0058 4.71462C13.7958 4.56305 13.5825 4.40913 13.3505 4.30044C12.9193 4.10015 12.4496 3.99759 11.9746 4.00004H11.9567Z" fill="white"/>
<path d="M15.5135 6.89524C15.0828 6.91164 14.7095 7.04563 14.4286 7.39043C14.4131 7.40963 14.3943 7.42683 14.3756 7.44402L14.3756 7.44403C14.2895 7.5272 14.2033 7.61027 14.117 7.69323C13.9454 7.85883 13.7735 8.02443 13.6036 8.19163C13.4488 8.34443 13.2951 8.49843 13.1415 8.65243L13.141 8.65292C13.0389 8.75556 12.9368 8.85819 12.8339 8.96043L12.5736 9.21843C12.4466 9.34323 12.3201 9.46803 12.1943 9.59443C12.0957 9.694 11.9978 9.79478 11.8999 9.89555L11.8998 9.89563L11.8717 9.92456C11.7601 10.0393 11.6487 10.1539 11.5353 10.2664C11.4103 10.3908 11.2834 10.5124 11.156 10.6348C11.047 10.7396 10.9375 10.8444 10.8293 10.9508C10.6339 11.1436 10.4404 11.338 10.2462 11.5324L9.98676 11.7924L9.36353 12.4144L8.42948 13.3472L7.89539 13.8812L7.89509 13.8815C7.38658 14.3898 6.87806 14.8981 6.36876 15.406C6.23862 15.536 6.23384 15.554 6.36995 15.6916C6.56132 15.8852 6.75348 16.0771 6.94565 16.269L6.94582 16.2692L7.36171 16.686C7.56428 16.89 7.80266 17.0296 8.08562 17.0792C8.35545 17.1268 8.62807 17.1292 8.89352 17.0528C9.08852 16.9964 9.27438 16.916 9.42442 16.7712L9.6823 16.5232C9.86776 16.3444 10.0528 16.1656 10.2387 15.9872C10.3111 15.918 10.3839 15.8488 10.4572 15.78C10.577 15.6672 10.6967 15.554 10.8141 15.4384C10.9885 15.2664 11.1616 15.0936 11.3347 14.9204C11.5365 14.7192 11.7386 14.518 11.9416 14.318C12.1251 14.138 12.3109 13.96 12.4964 13.782C12.623 13.6608 12.7495 13.5392 12.8757 13.4168C13.2098 13.0929 13.5435 12.7678 13.8769 12.4431L13.8845 12.4356L14.1512 12.1764L14.5603 11.7776C14.8242 11.5208 15.0876 11.264 15.3519 11.008C15.5274 10.8376 15.6913 10.8556 15.8179 11.058C16.0467 11.424 16.1749 11.8208 16.122 12.2556C16.0774 12.6228 15.9488 12.9664 15.6929 13.2388C15.4703 13.4727 15.2426 13.7017 15.01 13.9256L14.7752 14.1552C14.6725 14.2568 14.5691 14.3572 14.4656 14.4572C14.3486 14.5704 14.2316 14.6836 14.1162 14.7984C13.8758 15.0368 13.6378 15.2768 13.399 15.5168C13.358 15.5588 13.3166 15.6004 13.2748 15.642C13.2511 15.6665 13.228 15.6916 13.2056 15.7172C13.1865 15.7384 13.167 15.76 13.1471 15.7808C13.0556 15.8764 12.9636 15.9716 12.8701 16.0656C12.7885 16.1468 12.7061 16.2276 12.6241 16.3084C12.4972 16.4328 12.371 16.5572 12.2465 16.6836C12.1139 16.8176 11.9829 16.9533 11.8521 17.0888L11.8135 17.1288C11.7398 17.2056 11.6658 17.2824 11.5918 17.3584C11.5811 17.3696 11.5691 17.3796 11.5572 17.3896L11.5572 17.3896C11.548 17.3976 11.5385 17.4056 11.5293 17.4144L11.3936 17.546C11.2042 17.7304 11.0143 17.9144 10.8253 18.0996C10.7521 18.1712 10.6796 18.2444 10.6076 18.3172C10.518 18.4082 10.4278 18.4986 10.337 18.5884L10.321 18.6044C10.1934 18.7314 10.066 18.8583 9.94298 18.9896C9.83393 19.1052 9.83473 19.176 9.96407 19.2672L10.0293 19.3132L10.0359 19.3179C10.2339 19.4579 10.4341 19.5995 10.6518 19.7012C11.0987 19.9108 11.5659 19.9992 12.0463 20H12.0566C12.2198 19.9996 12.3842 19.9896 12.5501 19.9704C13.2108 19.894 13.7838 19.622 14.2753 19.19C14.5264 18.9702 14.7598 18.7292 14.9931 18.4884L15.0001 18.4812C15.1004 18.378 15.2002 18.2744 15.3017 18.1728C15.443 18.0312 15.5835 17.8892 15.7244 17.7472L16.0547 17.4144C16.2914 17.1776 16.5278 16.9406 16.7639 16.7032L16.9689 16.4968C17.1165 16.3476 17.2642 16.1988 17.4138 16.0512C17.524 15.9429 17.6354 15.8357 17.7468 15.7285L17.7469 15.7284L17.7482 15.7272C17.8827 15.598 18.0167 15.4692 18.1485 15.338C18.3969 15.0933 18.6406 14.8438 18.8795 14.5896C19.1732 14.2732 19.3153 14.11 19.4208 13.9532C19.7258 13.4919 19.9168 12.9641 19.9779 12.4136C20.0245 11.998 19.9847 11.6792 19.9728 11.5912C19.9521 11.4376 19.8617 10.86 19.4546 10.23C19.3038 9.99603 19.2258 9.89723 18.7673 9.44283C18.0876 8.76883 17.409 8.09323 16.7444 7.40483C16.4181 7.06643 16.042 6.89364 15.5851 6.89364C15.5612 6.89364 15.5373 6.89444 15.5135 6.89524Z" fill="white"/>
<path d="M12 0.5C18.3513 0.5 23.5 5.64872 23.5 12C23.5 18.3513 18.3513 23.5 12 23.5C5.64873 23.5 0.5 18.3513 0.5 12C0.5 5.64872 5.64873 0.5 12 0.5Z" stroke="black" stroke-opacity="0.097"/>
</svg>
