<svg width="24" height="24" viewBox="0 0 24 24" fill="none" xmlns="http://www.w3.org/2000/svg">
<path d="M12 24C18.6274 24 24 18.6274 24 12C24 5.37258 18.6274 0 12 0C5.37258 0 0 5.37258 0 12C0 18.6274 5.37258 24 12 24Z" fill="#F9F9F9"/>
<path d="M23.5 12C23.5 18.3513 18.3513 23.5 12 23.5C5.64873 23.5 0.5 18.3513 0.5 12C0.5 5.64873 5.64873 0.5 12 0.5C18.3513 0.5 23.5 5.64873 23.5 12Z" stroke="black" stroke-opacity="0.097"/>
<path fill-rule="evenodd" clip-rule="evenodd" d="M11.7623 4.02119C11.6618 4.04154 10.8775 4.47649 9.62419 5.20702C8.53554 5.84159 7.17797 6.6305 6.60734 6.96019C5.37945 7.66962 5.2461 7.76531 5.10532 8.03799L5.00028 8.24145V11.9312C5.00028 16.1236 4.9786 15.8297 5.31437 16.1876C5.4667 16.35 5.70171 16.5059 6.44447 16.9375C7.57112 17.5922 9.26802 18.5793 9.91427 18.956C11.8053 20.0584 11.6894 19.9997 11.9736 19.9994C12.2761 19.999 12.3569 19.9561 15.4669 18.1464C18.7326 16.2462 18.812 16.1934 18.9296 15.8444C19.018 15.5817 19.0258 8.41514 18.9379 8.16306C18.8659 7.95654 18.7522 7.80661 18.565 7.67121C18.4478 7.58645 14.6854 5.3749 12.8234 4.29627C12.3701 4.03364 12.0767 3.95761 11.7623 4.02119ZM12.4715 6.75454C13.6087 7.4194 13.7135 7.51718 13.7656 7.96197C13.8522 8.70217 12.7608 9.28315 11.8245 8.99528C11.6847 8.95231 9.68226 7.81203 9.56729 7.70997C9.39586 7.55772 9.55213 7.20794 9.79157 7.20794C9.84228 7.20794 10.3422 7.47368 10.9025 7.79848C12.1603 8.52772 12.4217 8.59582 12.9165 8.32328C13.3857 8.06491 13.2898 7.93031 12.1778 7.28682C11.1103 6.66902 11.0365 6.59364 11.2493 6.33784C11.407 6.1481 11.4718 6.17022 12.4715 6.75454ZM7.91769 12.1377C8.24212 12.323 8.82831 12.6572 9.22031 12.8804C10.1055 13.3845 10.2073 13.5044 9.98884 13.7855C9.84536 13.9701 9.72746 13.9579 9.30242 13.7149C9.09221 13.5947 8.62482 13.3286 8.26377 13.1235L7.60732 12.7505L7.59655 13.329C7.58429 13.9902 7.54486 13.9088 7.9977 14.1567C9.59013 15.0282 9.61418 15.0444 9.61418 15.2491C9.61418 15.4155 9.45119 15.5965 9.30129 15.5965C9.22038 15.5965 8.93331 15.4576 8.39911 15.16C7.96818 14.9199 7.60953 14.7235 7.60207 14.7235C7.59464 14.7235 7.58856 15.0114 7.58856 15.3632C7.58856 15.9897 7.58665 16.0051 7.49659 16.1034C7.36035 16.2522 7.14165 16.2448 7.01048 16.0871L6.91336 15.9703V13.9965V12.0227L7.02301 11.9117C7.18622 11.7466 7.26983 11.7677 7.91769 12.1377ZM16.8135 11.975L16.9289 12.0732V13.5899V15.1065L16.8368 15.1997C16.6737 15.3648 16.5128 15.3127 16.2537 15.0111C16.1608 14.903 15.9161 14.6172 15.7098 14.3758L15.3347 13.9371L15.3159 14.985C15.2961 16.0922 15.2906 16.1308 15.1433 16.1987C15.0029 16.2634 14.9185 16.2514 14.8022 16.1502L14.697 16.0587L14.6864 14.5059L14.6758 12.9532L14.769 12.8514C14.9796 12.6215 15.0678 12.6771 15.7514 13.472L16.3099 14.1214L16.3287 13.078C16.339 12.5042 16.3559 12.0277 16.3662 12.019C16.5651 11.8528 16.6591 11.8435 16.8135 11.975Z" fill="#EC1966"/>
</svg>
