<svg xmlns="http://www.w3.org/2000/svg" xmlns:xlink="http://www.w3.org/1999/xlink" width="256" height="256" viewBox="0 0 256 256"><defs><linearGradient id="a" y1="0.5" x2="1" y2="0.5" gradientUnits="objectBoundingBox"><stop offset="0" stop-color="#01aec9"/><stop offset="1" stop-color="#1e8fca"/></linearGradient><clipPath id="c"><rect width="256" height="256"/></clipPath></defs><g id="b" clip-path="url(#c)"><g transform="translate(-113 -117)"><g transform="translate(113 117)"><g transform="translate(0)"><circle cx="128" cy="128" r="128" transform="translate(0 256) rotate(-90)" fill="#fff"/><path d="M72.737,103.127s65.91,82.99,67.338,84.741c1.083,1.306,2.665,2.043,3.348,1.651,2.2-1.26,3.863-2.15,4.186-3a3.319,3.319,0,0,0-.353-2.934L0,0S154.964,179.118,162.477,186.5a128.129,128.129,0,0,1-21.814,14.4l-.588.174C131.09,191.263,72.737,103.127,72.737,103.127Z" transform="translate(46.867 40.633)" fill="#ff007a"/><g transform="translate(51.2 128)"><g transform="translate(0 0)"><path d="M155.4,50.38V69.367L178.867,36.3Z" transform="translate(-129.799 7.433)" fill="#3b3735"/><path d="M178.014,53.347,155.4,15.8V43.107Z" transform="translate(-129.799 -15.8)" fill="#3b3735"/><path d="M155.4,29.6V52.853L177.8,39.84Z" transform="translate(-129.799 -0.167)" fill="#1f1d19"/><path d="M143.8,53.347,166.413,15.8V43.107Z" transform="translate(-142.947 -15.8)" fill="#959190"/><path d="M166.3,29.6V52.853L143.9,39.84Z" transform="translate(-142.835 -0.167)" fill="#403c3a"/><path d="M166.867,50.38V69.367L143.4,36.3Z" transform="translate(-143.4 7.433)" fill="#959190"/></g></g><g transform="translate(136.533 51.201)"><circle cx="38.4" cy="38.4" r="38.4" fill="url(#a)"/><g transform="translate(21.507 10.523)"><path d="M457.5,136.494l-4.7-4.694-15.7,15.7,15.7,15.7,4.7-4.7-11-11Z" transform="translate(-423.712 -131.8)" fill="#fff"/><path d="M289.8,452.6l-15.7-15.7-4.7,4.7,11,11-11,11,4.7,4.694Z" transform="translate(-269.4 -412.543)" fill="#fff"/></g><rect width="22.202" height="6.618" transform="translate(32.89 28.205) rotate(45)" fill="#fff"/></g></g></g></g></g></svg>