<svg version="1.1" xmlns="http://www.w3.org/2000/svg" viewBox="-307.2 -1086.7 3986.4 3973.35"><desc>Created with Snap</desc><defs></defs><g><rect x="-307.2" y="-1086.7" width="3986.4" height="3973.35" style="" fill="#0ead69"></rect><g transform="matrix(44.4808,0,0,44.4808,573.9186,411.0545)"><g><path fill="#292929" d="M8.923,41.177c0,1.501,0.069,2.207,0.645,3.552c0.159,0.375,0.394,0.758,0.612,1.082   c0.418,0.603,0.504,0.592,0.768,0.922c0.227,0.291,0.575,0.552,0.882,0.776c0.235,0.185,0.505,0.358,0.767,0.498   c0.043,0.019,0.087,0.042,0.129,0.07c0.427,0.218,0.908,0.427,1.405,0.504l1.527,0.167h0.479c1.614-0.07,4.126-0.811,5.556-1.203   c0.374-0.105,0.775-0.193,1.178-0.288l2.598-0.323c1.274-0.078,3.646,0.438,4.938,0.813c1.467,0.436,3.228,0.924,4.743,1.002h0.795   c1.484-0.078,2.861-0.609,3.977-1.534c1.441-1.179,2.348-2.627,2.627-4.526c0.365-2.565-0.628-5.139-2.146-7.152   c-0.123-0.157-0.219-0.288-0.34-0.438c-0.461-0.592-0.969-1.15-1.535-1.648c-0.42-0.365-0.813-0.774-1.223-1.149   c-0.793-0.698-1.918-2.208-2.457-3.036c-0.324-0.479-0.664-0.951-0.959-1.447c-0.387-0.646-0.83-1.272-1.248-1.902   c-0.332-0.497-1.162-1.56-1.613-1.927c-0.256-0.2-0.498-0.48-0.873-0.725c-0.088-0.061-0.149-0.104-0.234-0.157   c-0.309-0.208-0.665-0.409-1.013-0.548c-1.115-0.455-2.103-0.603-3.341-0.655c-1.79-0.07-3.088,0.655-4.256,1.561   c-0.201,0.157-0.392,0.341-0.577,0.524c-0.427,0.427-0.583,0.628-0.941,1.013c-0.07,0.068-0.07,0.095-0.131,0.156   c-0.958,1.099-1.719,2.363-2.582,3.533c-0.48,0.636-0.942,1.279-1.44,1.908l-0.62,0.741c-0.366,0.472-0.82,0.873-1.238,1.3   c-0.375,0.367-0.785,0.68-1.16,1.057l-0.811,0.847c-0.812,0.915-1.432,1.899-1.989,3.052c-0.123,0.254-0.218,0.516-0.315,0.785   C9.194,39.214,8.923,40.209,8.923,41.177L8.923,41.177z" style=""></path><path fill="#292929" d="M3.941,13.488c-2.747,4.1-0.765,6.074,1.111,7.149C3.989,17.897,3.941,13.488,3.941,13.488z" style=""></path><path fill="#292929" d="M15.923,1.895c-2.747,4.1-0.764,6.075,1.111,7.147C15.972,6.303,15.923,1.895,15.923,1.895z" style=""></path><path fill="#292929" d="M36.307,1.251c-3.258,3.706-1.55,5.922,0.17,7.23C35.779,5.628,36.307,1.251,36.307,1.251z" style=""></path><path fill="#292929" d="M49.161,15.387c-4.644,1.673-4.218,4.438-3.341,6.414C46.587,18.966,49.161,15.387,49.161,15.387z" style=""></path><ellipse transform="matrix(-0.509 -0.8608 0.8608 -0.509 -9.8785 41.4652)" fill="#292929" cx="6.887" cy="23.55" rx="6.867" ry="5.732" style=""></ellipse><ellipse transform="matrix(-0.0797 -0.9968 0.9968 -0.0797 5.4627 30.9823)" fill="#292929" cx="17.033" cy="12.969" rx="6.867" ry="5.732" style=""></ellipse><ellipse transform="matrix(0.2088 -0.978 0.978 0.2088 15.2458 43.4306)" fill="#292929" cx="34.463" cy="12.293" rx="6.867" ry="5.732" style=""></ellipse><ellipse transform="matrix(0.2089 -0.9779 0.9779 0.2089 10.9559 61.3114)" fill="#292929" cx="43.374" cy="23.884" rx="6.865" ry="5.731" style=""></ellipse></g><desc>Created with Snap</desc><defs></defs></g><g><g transform="matrix(0.5,0,0,-0.5,0,0)"><path d="M748 -16Q664 -16 624 19Q584 54 584 131L584 1401Q552 1398 504 1389Q457 1381 405 1365Q353 1349 301 1326Q249 1304 208 1274Q167 1245 141 1208Q115 1171 115 1126Q115 1094 123 1075Q132 1056 143 1046Q154 1037 165 1034Q177 1032 182 1032Q207 1032 223 1040Q239 1049 252 1058Q265 1068 276 1076Q288 1085 303 1085Q315 1085 328 1079Q342 1074 353 1062Q365 1050 373 1030Q381 1011 381 983Q381 943 365 914Q350 885 325 865Q301 846 269 836Q238 827 207 827Q159 827 120 843Q82 860 55 889Q28 918 14 957Q0 996 0 1040Q0 1157 64 1242Q129 1328 241 1384Q353 1441 502 1468Q651 1495 821 1495Q902 1495 979 1493Q1056 1492 1119 1489Q1183 1486 1229 1482Q1275 1478 1296 1473Q1316 1468 1328 1458Q1340 1449 1346 1437Q1352 1425 1354 1411Q1356 1398 1356 1384Q1356 1373 1353 1358Q1350 1344 1344 1331Q1338 1318 1329 1309Q1320 1300 1307 1300Q1299 1300 1290 1307Q1282 1314 1267 1324Q1252 1334 1226 1347Q1201 1360 1159 1371Q1118 1382 1057 1391Q997 1400 911 1403L911 131Q911 54 871 19Q831 -16 748 -16ZM1837 1178Q1837 1143 1848 1120Q1859 1098 1875 1082Q1892 1067 1911 1057Q1930 1047 1946 1036Q1963 1025 1974 1011Q1985 997 1985 975Q1985 938 1959 918Q1933 899 1899 899Q1867 899 1839 919Q1812 939 1791 973Q1771 1008 1759 1054Q1747 1101 1747 1153Q1747 1217 1767 1275Q1787 1334 1826 1378Q1865 1423 1922 1449Q1980 1475 2054 1475Q2104 1475 2163 1458Q2222 1442 2280 1406Q2339 1370 2393 1313Q2448 1256 2490 1174Q2533 1092 2558 984Q2583 876 2583 739Q2583 562 2530 422Q2478 282 2388 184Q2299 87 2181 35Q2063 -16 1931 -16Q1800 -16 1681 29Q1562 74 1471 166Q1381 259 1327 401Q1274 544 1274 739Q1274 890 1314 1014Q1355 1138 1423 1234Q1492 1330 1583 1395Q1674 1461 1776 1495L1810 1452Q1781 1423 1756 1392Q1731 1361 1710 1321Q1689 1282 1672 1230Q1656 1179 1645 1109Q1634 1040 1628 949Q1622 858 1622 739Q1622 585 1638 476Q1655 367 1681 293Q1708 220 1741 176Q1775 133 1809 111Q1843 89 1875 82Q1907 76 1931 76Q1955 76 1986 82Q2018 89 2051 111Q2085 133 2118 176Q2151 220 2176 293Q2202 367 2218 476Q2234 585 2234 739Q2234 874 2222 974Q2210 1074 2190 1145Q2171 1216 2145 1261Q2120 1307 2092 1333Q2065 1360 2037 1370Q2010 1380 1987 1380Q1951 1380 1923 1363Q1895 1346 1876 1317Q1857 1289 1847 1252Q1837 1216 1837 1178ZM3501 1356L3501 899Q3590 1027 3663 1126Q3737 1225 3799 1298Q3861 1372 3914 1422Q3968 1472 4018 1502Q4069 1533 4119 1546Q4169 1559 4224 1559Q4355 1559 4355 1475Q4355 1464 4353 1449Q4351 1434 4345 1420Q4340 1406 4330 1396Q4320 1386 4305 1386Q4294 1386 4279 1397Q4265 1408 4246 1421Q4227 1435 4202 1446Q4177 1458 4146 1458Q4112 1458 4068 1430Q4025 1402 3974 1354Q3924 1306 3869 1242Q3815 1179 3759 1108Q3909 766 4023 515Q4138 264 4232 99Q4327 -65 4407 -145Q4487 -225 4568 -225Q4582 -225 4596 -221Q4610 -217 4621 -212Q4634 -207 4647 -199L4668 -238Q4651 -248 4621 -262Q4592 -276 4551 -289Q4511 -301 4462 -310Q4413 -319 4357 -319Q4280 -319 4214 -295Q4148 -271 4085 -218Q4023 -164 3962 -78Q3902 9 3836 134Q3771 259 3698 425Q3625 591 3539 805L3501 748L3501 131Q3501 54 3460 19Q3420 -16 3337 -16Q3253 -16 3213 19Q3173 54 3173 131L3173 1335Q3173 1357 3168 1370Q3163 1383 3154 1390Q3145 1398 3132 1400Q3120 1403 3105 1403Q3083 1403 3050 1396Q3018 1389 2982 1375Q2946 1361 2909 1340Q2873 1320 2844 1294Q2816 1268 2798 1236Q2780 1204 2780 1167Q2780 1135 2788 1116Q2797 1097 2808 1087Q2819 1078 2830 1075Q2842 1073 2847 1073Q2872 1073 2888 1081Q2904 1090 2917 1099Q2930 1109 2941 1117Q2953 1126 2968 1126Q2980 1126 2993 1120Q3007 1115 3018 1103Q3030 1091 3038 1071Q3046 1052 3046 1024Q3046 984 3030 955Q3015 926 2990 906Q2966 887 2934 877Q2903 868 2872 868Q2824 868 2785 884Q2747 901 2720 930Q2693 959 2679 998Q2665 1037 2665 1081Q2665 1150 2690 1207Q2715 1265 2758 1311Q2802 1357 2860 1391Q2919 1426 2987 1449Q3055 1472 3129 1483Q3203 1495 3277 1495Q3359 1495 3404 1479Q3450 1464 3471 1442Q3493 1420 3497 1396Q3501 1372 3501 1356ZM4340 1061Q4340 1178 4404 1260Q4469 1342 4581 1394Q4693 1447 4842 1471Q4991 1495 5161 1495Q5242 1495 5319 1493Q5396 1492 5459 1489Q5523 1486 5569 1482Q5615 1478 5636 1473Q5656 1468 5668 1462Q5680 1456 5686 1448Q5692 1440 5694 1429Q5696 1419 5696 1405Q5696 1393 5693 1378Q5690 1364 5684 1351Q5678 1339 5669 1330Q5660 1321 5647 1321Q5639 1321 5629 1328Q5620 1335 5602 1346Q5585 1357 5555 1369Q5526 1381 5476 1392Q5427 1403 5353 1410Q5280 1417 5176 1417L5176 776L5591 776L5591 688L5176 688L5176 297Q5176 250 5190 216Q5204 183 5230 161Q5256 139 5292 129Q5329 119 5374 119Q5425 119 5476 129Q5527 140 5572 156Q5618 172 5655 192Q5693 212 5716 231L5755 188Q5730 168 5688 133Q5646 99 5585 66Q5525 33 5444 8Q5364 -16 5262 -16Q5228 -16 5184 -13Q5141 -9 5095 1Q5049 12 5004 32Q4960 53 4925 87Q4891 121 4869 170Q4848 220 4848 289L4848 688L4692 688L4692 776L4848 776L4848 1405Q4816 1402 4774 1393Q4733 1385 4689 1369Q4646 1354 4604 1333Q4562 1312 4529 1284Q4496 1256 4475 1221Q4455 1187 4455 1147Q4455 1115 4463 1096Q4472 1077 4483 1067Q4494 1058 4505 1055Q4517 1053 4522 1053Q4547 1053 4563 1061Q4579 1070 4592 1079Q4605 1089 4616 1097Q4628 1106 4643 1106Q4655 1106 4668 1100Q4682 1095 4693 1083Q4705 1071 4713 1051Q4721 1032 4721 1004Q4721 964 4705 934Q4690 905 4665 886Q4641 867 4609 857Q4578 848 4547 848Q4499 848 4460 864Q4422 881 4395 910Q4368 939 4354 977Q4340 1016 4340 1061ZM6191 -145Q6231 -145 6270 -131Q6309 -116 6339 -83Q6370 -49 6389 5Q6408 59 6408 137Q6408 221 6366 300Q6325 379 6262 455Q6200 532 6127 607Q6055 683 5992 761Q5930 840 5888 923Q5847 1007 5847 1098Q5847 1189 5880 1262Q5914 1336 5971 1387Q6029 1439 6105 1467Q6182 1495 6269 1495Q6362 1495 6434 1475Q6507 1456 6557 1422Q6608 1389 6634 1343Q6660 1298 6660 1247Q6660 1223 6653 1197Q6646 1172 6631 1151Q6616 1130 6593 1116Q6570 1102 6539 1102Q6502 1102 6484 1124Q6467 1147 6458 1180Q6450 1213 6444 1252Q6438 1292 6425 1325Q6412 1358 6386 1380Q6360 1403 6310 1403Q6283 1403 6256 1391Q6230 1379 6208 1354Q6187 1330 6174 1292Q6161 1254 6161 1202Q6161 1142 6186 1085Q6211 1028 6252 972Q6293 917 6345 861Q6398 806 6452 749Q6507 693 6559 633Q6612 574 6653 510Q6694 446 6719 376Q6744 306 6744 229Q6744 116 6700 27Q6657 -61 6582 -122Q6508 -182 6408 -214Q6308 -246 6195 -246Q6093 -246 6014 -221Q5936 -195 5882 -153Q5828 -111 5800 -58Q5773 -4 5773 53Q5773 77 5780 104Q5788 132 5802 155Q5817 178 5839 193Q5861 209 5890 209Q5920 209 5938 194Q5957 179 5968 154Q5979 129 5986 97Q5993 65 6001 32Q6009 -1 6021 -33Q6033 -65 6054 -90Q6075 -115 6108 -130Q6141 -145 6191 -145Z" style="" fill="#292929"></path></g></g></g></svg>