<?xml version="1.0" encoding="utf-8"?>
<!-- Generator: Adobe Illustrator 26.0.3, SVG Export Plug-In . SVG Version: 6.00 Build 0)  -->
<svg version="1.1" xmlns="http://www.w3.org/2000/svg" xmlns:xlink="http://www.w3.org/1999/xlink" x="0px" y="0px"
	 viewBox="0 0 1920 1920" style="enable-background:new 0 0 1920 1920;" xml:space="preserve">
<style type="text/css">
	.st0{fill:#00B398;}
</style>
<g id="Warstwa_8">
	<circle class="st0" cx="960" cy="960" r="960"/>
</g>
<g id="Warstwa_4">
	<g>
		<path d="M1463,1395.7H379.9c-30.3,0-49.7-32.3-35.5-59.1l283.5-531.7c7-13.1,20.6-21.3,35.4-21.3h516.2c14.8,0,28.5,8.2,35.4,21.3
			l283.5,531.7C1512.7,1363.4,1493.3,1395.7,1463,1395.7z"/>
		<path d="M1402.1,577.1l105.3,9.8l-105.3,9.8c-40.7,3.8-72.9,36-76.6,76.6l-9.8,105.3l-9.8-105.3c-3.8-40.7-36-72.9-76.6-76.6
			l-105.3-9.8l105.3-9.8c40.7-3.8,72.9-36,76.6-76.6l9.8-105.3l9.8,105.3C1329.3,541.2,1361.5,573.4,1402.1,577.1z"/>
		<path d="M1518,745l52.4,4.9l-52.4,4.9c-20.2,1.9-36.3,17.9-38.1,38.1l-4.9,52.4l-4.9-52.4c-1.9-20.2-17.9-36.3-38.1-38.1
			l-52.4-4.9l52.4-4.9c20.2-1.9,36.3-17.9,38.1-38.1l4.9-52.4l4.9,52.4C1481.7,727.1,1497.8,743.1,1518,745z"/>
		<g>
			<path class="st0" d="M674.2,1112.4l14.9,17.2l-21.9,35.2h-26.6L674.2,1112.4z M678.7,1125.6l-36.7-55.7h27.6l22.8,38.3l37.2,56.6
				h-27.5L678.7,1125.6z M683,1103.5l17.6-33.6h27.6l-30.4,51.2L683,1103.5z"/>
			<path class="st0" d="M843,1090.4v26c0,9.9-2,18.6-6,26.1c-4,7.5-9.6,13.4-17,17.5c-7.3,4.1-15.8,6.2-25.4,6.2
				c-9.7,0-18.2-1.9-25.6-5.8c-7.4-3.9-13.1-9.3-17.2-16.4c-4.1-7.1-6.1-15.3-6.1-24.6v-39.2c0-9.9,2-18.6,6-26.1
				c4-7.5,9.6-13.3,17-17.4c7.3-4.1,15.8-6.2,25.4-6.2c7.9,0,15.2,1.6,21.9,4.9c6.7,3.3,12.3,7.9,16.8,13.9c4.5,6,7.5,12.9,9.1,20.8
				h-27.1c-0.9-2.8-2.4-5.2-4.5-7.3c-2.1-2-4.6-3.6-7.4-4.7c-2.8-1.1-5.8-1.6-8.8-1.6c-4.5,0-8.4,1-11.7,2.9c-3.4,2-6,4.7-7.9,8.3
				c-1.9,3.6-2.8,7.7-2.8,12.4v39.2c0,4.1,0.9,7.8,2.8,11c1.9,3.2,4.6,5.6,8,7.3c3.5,1.7,7.5,2.6,12.1,2.6c4.5,0,8.5-0.9,11.8-2.8
				c3.4-1.9,6-4.6,7.8-8.1c1.8-3.5,2.7-7.7,2.7-12.5v-2.2h-20.1v-24.1H843z"/>
			<path class="st0" d="M889.8,1160.1c-7.3-4.1-13-9.8-17.1-17.2s-6-16-6-25.7v-37.7c0-9.8,2-18.3,6-25.7c4-7.4,9.7-13.1,17.1-17.2
				c7.3-4.1,15.8-6.1,25.5-6.1c9.6,0,18.1,2,25.5,6.1c7.3,4.1,13,9.8,17.1,17.2c4,7.4,6,16,6,25.7v37.7c0,9.8-2,18.3-6,25.7
				c-4,7.4-9.7,13.1-17.1,17.2c-7.3,4.1-15.8,6.1-25.5,6.1C905.7,1166.2,897.2,1164.1,889.8,1160.1z M927.2,1138.2
				c3.4-1.9,6-4.6,7.9-8.2c1.9-3.5,2.8-7.6,2.8-12.3v-39c0-4.6-0.9-8.7-2.8-12.3c-1.9-3.5-4.5-6.3-7.9-8.2
				c-3.4-1.9-7.4-2.9-11.9-2.9c-4.5,0-8.5,1-11.9,2.9c-3.4,1.9-6.1,4.6-7.9,8.2c-1.9,3.5-2.8,7.6-2.8,12.3v39
				c0,4.6,0.9,8.7,2.8,12.3c1.9,3.5,4.5,6.3,7.9,8.2c3.4,1.9,7.4,2.9,11.9,2.9C919.8,1141.1,923.8,1140.1,927.2,1138.2z"/>
			<path class="st0" d="M990.4,1031.8h25.1v133h-25.1V1031.8z M1001.5,1140.6h77.9v24.1h-77.9V1140.6z"/>
			<path class="st0" d="M1097.7,1031.8h25.1v133h-25.1V1031.8z M1110.3,1140.6h31.9c8.2,0,14.6-2,19.1-5.9c4.5-4,6.8-9.6,6.8-16.8
				v-39.1c0-7.3-2.3-12.9-6.8-16.8c-4.5-4-10.9-5.9-19.1-5.9h-31.9v-24.1h31.4c11.1,0,20.6,1.9,28.4,5.6c7.8,3.7,13.8,9.1,17.9,16.3
				c4.1,7.1,6.1,15.7,6.1,25.8v37.7c0,9.6-2,17.9-5.9,25.1c-3.9,7.1-9.8,12.7-17.7,16.6c-7.9,4-17.5,5.9-28.9,5.9h-31.3V1140.6z"/>
		</g>
	</g>
	<g>
	</g>
	<g>
	</g>
	<g>
	</g>
	<g>
	</g>
	<g>
	</g>
	<g>
	</g>
</g>
</svg>
