<svg width="24" height="24" viewBox="0 0 24 24" fill="none" xmlns="http://www.w3.org/2000/svg">
<path d="M12 24C18.6274 24 24 18.6274 24 12C24 5.37258 18.6274 0 12 0C5.37258 0 0 5.37258 0 12C0 18.6274 5.37258 24 12 24Z" fill="black"/>
<path d="M21 11.9997L15.8932 7L11.9996 10.8117L8.10673 7L3 11.9997L8.10673 17L11.9996 13.1883L15.8932 17L21 11.9997ZM8.10673 14.7407L5.30767 11.9997L8.10673 9.25927L10.9058 11.9997L8.10673 14.7407ZM15.8932 9.25927L18.6923 11.9997L15.8932 14.7407L13.0935 11.9997L15.8932 9.25927Z" fill="white"/>
<path d="M23.5 12C23.5 18.3513 18.3513 23.5 12 23.5C5.64873 23.5 0.5 18.3513 0.5 12C0.5 5.64873 5.64873 0.5 12 0.5C18.3513 0.5 23.5 5.64873 23.5 12Z" stroke="white" stroke-opacity="0.3"/>
</svg>
