<svg width="24" height="24" viewBox="0 0 24 24" fill="none" xmlns="http://www.w3.org/2000/svg">
<path d="M12 24C18.6274 24 24 18.6274 24 12C24 5.37258 18.6274 0 12 0C5.37258 0 0 5.37258 0 12C0 18.6274 5.37258 24 12 24Z" fill="black"/>
<path d="M11.0805 16.1024C10.6069 15.9455 10.2336 15.6977 9.93309 15.3482C8.91963 14.1707 9.19085 12.3784 10.5274 11.4835C10.7068 11.3632 10.765 11.2523 10.7633 11.0372C10.7506 9.53908 10.7544 8.04057 10.7604 6.54248C10.7612 6.36648 10.731 6.33162 10.5516 6.38604C9.24654 6.78139 8.11702 7.45604 7.17837 8.4508C7.05424 8.58258 7.0011 8.70374 7.00153 8.88696C7.00961 10.7808 7.00535 12.6751 7.00705 14.569C7.00748 14.9541 7.00961 15.3359 7.07635 15.7219C7.18305 16.3392 7.34587 16.9296 7.63239 17.4878C7.78161 17.779 7.98268 18.0035 8.26453 18.1752C8.96554 18.6029 9.71289 18.8983 10.521 19.048C10.7034 19.0815 10.768 19.0667 10.7621 18.8571C10.7468 18.2993 10.7663 17.7403 10.7536 17.1822C10.7442 16.7902 10.7922 16.4229 11.0805 16.1024ZM16.9912 11.7841C16.9912 10.7528 16.9806 9.72103 16.9955 8.69014C17.0035 8.11284 16.8688 7.56317 16.748 7.00797C16.72 6.87832 16.6469 6.80987 16.5223 6.75971C15.539 6.36436 14.5209 6.12672 13.4632 6.05403C13.2927 6.04255 13.2345 6.07358 13.2358 6.26105C13.2439 7.73746 13.2468 9.21387 13.2341 10.6903C13.232 10.9445 13.2694 11.1077 13.5538 11.1294C13.6146 11.1341 13.6724 11.1719 13.7319 11.1936C15.2202 11.7348 16.3208 13.2563 16.3187 14.8381C16.3161 16.7094 15.4128 18.0558 13.7638 18.8707C13.3255 19.0871 13.1593 19.3077 13.24 19.7554C13.2439 19.7758 13.2417 19.7979 13.24 19.8187C13.2298 19.9339 13.2762 19.9428 13.3778 19.9118C14.1906 19.6652 14.9048 19.2529 15.5025 18.6488C16.5002 17.6404 16.9478 16.3978 16.9857 15.0052C17.0146 13.9322 16.9912 12.8579 16.9912 11.7841ZM12.3639 14.3386C12.1628 14.5813 11.9809 14.6362 11.7696 14.518C11.577 14.41 11.4822 14.1783 11.5464 13.9734C11.617 13.7485 11.8678 13.5955 12.1143 13.6274C12.4659 13.6724 12.7256 13.9624 12.7205 14.3042C12.7154 14.6574 12.4157 14.975 12.0531 15.0107C11.5642 15.0591 11.1251 14.7705 10.9755 14.3029C10.8254 13.8348 11.0469 13.3064 11.4971 13.0573C12.4136 12.5506 13.6477 13.2822 13.7004 14.3658C13.7315 15.0052 13.4619 15.5008 12.9497 15.8681C12.837 15.9489 12.7992 15.9923 12.9161 16.1134C13.1457 16.3519 13.2426 16.6516 13.2409 16.9845C13.2383 17.5146 13.24 18.0447 13.2405 18.5744C13.2409 18.8048 13.2409 18.8031 13.4594 18.7079C14.1472 18.409 14.7164 17.9588 15.1777 17.3692C16.8365 15.2492 15.9654 12.2487 13.4445 11.3917C13.2889 11.339 13.2115 11.3399 13.1406 11.5235C12.8132 12.3716 11.7092 12.565 11.0805 11.9019C10.9967 11.8134 10.9746 11.6183 10.8228 11.651C10.703 11.677 10.6039 11.7981 10.4959 11.8776C10.4734 11.8942 10.4526 11.9138 10.4317 11.9329C9.085 13.1508 9.47822 15.2696 11.1536 15.8286C11.2735 15.8686 11.3755 15.872 11.4945 15.8116C11.7708 15.6713 12.0646 15.6649 12.3592 15.7538C12.4361 15.7772 12.502 15.7878 12.5811 15.7512C13.2464 15.4439 13.578 14.6357 13.3089 13.9679C13.0466 13.3175 12.2308 12.9893 11.662 13.306C11.3568 13.476 11.1787 13.8255 11.2373 14.1392C11.2951 14.4474 11.5434 14.6846 11.8546 14.7284C12.1403 14.7688 12.3902 14.5779 12.3639 14.3386ZM7.03341 8.09541C7.06444 8.09541 7.08017 8.09966 7.09165 8.09456C7.10993 8.08563 7.12694 8.07203 7.14139 8.05757C8.12297 7.07599 9.29713 6.42982 10.6294 6.06465C10.7531 6.03064 10.7578 5.96603 10.7578 5.86698C10.7553 5.21698 10.7565 4.56656 10.7565 3.91614C10.7565 3.60794 10.7561 3.60624 10.4641 3.70699C8.84949 4.26176 7.78628 5.35897 7.25745 6.97779C7.13969 7.33701 7.10951 7.71578 7.03341 8.09541ZM16.5444 6.46043C16.3582 6.01194 16.1265 5.64379 15.8523 5.30243C15.2096 4.50195 14.3861 3.97268 13.4114 3.66108C13.2643 3.61431 13.2354 3.61006 13.2375 3.77075C13.2447 4.37824 13.246 4.98572 13.2366 5.5932C13.2345 5.74284 13.2902 5.76367 13.4194 5.76835C13.8428 5.78365 14.2624 5.84104 14.679 5.91799C15.3027 6.03362 15.9076 6.21727 16.5444 6.46043ZM10.7565 19.953C10.7565 19.8042 10.7451 19.6699 10.7595 19.5381C10.7757 19.3953 10.7093 19.3557 10.5852 19.3413C10.2196 19.2984 9.86805 19.1976 9.51818 19.0837C9.21891 18.9863 8.93536 18.8499 8.63523 18.7504C9.22146 19.343 9.93267 19.7145 10.7565 19.953Z" fill="white"/>
<path d="M11.0794 16.1028C10.7911 16.4233 10.7431 16.7906 10.752 17.183C10.7652 17.7411 10.7452 18.2997 10.7605 18.8579C10.7665 19.0679 10.7019 19.0828 10.5195 19.0488C9.71137 18.8991 8.96402 18.6037 8.26301 18.176C7.98117 18.0043 7.78051 17.7798 7.63087 17.4886C7.34435 16.9305 7.18153 16.34 7.07483 15.7231C7.00809 15.3371 7.00596 14.9554 7.00554 14.5702C7.00384 12.6759 7.00809 10.7821 7.00001 8.88778C6.99916 8.70456 7.0523 8.58298 7.17686 8.45162C8.1155 7.45686 9.24502 6.78221 10.5501 6.38685C10.7295 6.33244 10.7597 6.3673 10.7588 6.5433C10.7529 8.04139 10.7495 9.5399 10.7618 11.038C10.7635 11.2531 10.7053 11.3641 10.5259 11.4844C9.18933 12.3792 8.91811 14.1715 9.93157 15.349C10.2326 15.6981 10.6058 15.9463 11.0794 16.1028Z" fill="white"/>
<path d="M16.9902 11.7829C16.9902 12.8568 17.0135 13.931 16.9842 15.004C16.9464 16.3967 16.4987 17.6393 15.501 18.6476C14.9033 19.2517 14.1891 19.6641 13.3763 19.9106C13.2747 19.9417 13.2283 19.9327 13.2385 19.8175C13.2402 19.7967 13.2186 19.1459 13.2186 19.125C13.2186 19.0825 13.3244 19.0859 13.7627 18.8695C15.4117 18.0546 16.3151 16.7083 16.3176 14.8369C16.3198 13.2551 15.2191 11.7332 13.7308 11.1925C13.6713 11.1708 13.6131 11.1329 13.5527 11.1283C13.2683 11.1066 13.2309 10.9433 13.233 10.6891C13.2458 9.21272 13.2428 7.73631 13.2347 6.2599C13.2339 6.07285 13.2917 6.04139 13.4622 6.05287C14.5203 6.12556 15.538 6.3632 16.5213 6.75855C16.6454 6.80871 16.7185 6.87716 16.747 7.00682C16.8677 7.56201 17.0025 8.11168 16.9944 8.68898C16.9795 9.71987 16.9902 10.7516 16.9902 11.7829Z" fill="white"/>
<path d="M12.3628 14.3392C12.3896 14.5785 12.1392 14.7694 11.8526 14.729C11.5415 14.6852 11.2932 14.448 11.2354 14.1398C11.1767 13.8261 11.3548 13.4766 11.6601 13.3066C12.2289 12.9899 13.0451 13.3177 13.3069 13.9685C13.576 14.6364 13.2445 15.4445 12.5792 15.7518C12.5001 15.7884 12.4338 15.7778 12.3572 15.7544C12.0626 15.6655 11.7689 15.6715 11.4926 15.8122C11.3735 15.8726 11.2715 15.8692 11.1516 15.8292C9.47627 15.2706 9.08304 13.1519 10.4298 11.9335C10.4506 11.9144 10.4715 11.8948 10.494 11.8782C10.602 11.7987 10.701 11.6776 10.8209 11.6516C10.9722 11.6189 10.9943 11.814 11.0785 11.9025C11.7077 12.5656 12.8113 12.3722 13.1386 11.5241C13.2096 11.3409 13.287 11.3396 13.4426 11.3923C15.9635 12.2494 16.8345 15.2498 15.1757 17.3698C14.7145 17.9594 14.1453 18.4096 13.4574 18.7085C13.2389 18.8033 13.2389 18.805 13.2385 18.575C13.2377 18.0449 13.2364 17.5148 13.2389 16.9851C13.2406 16.6522 13.1437 16.3529 12.9141 16.114C12.7977 15.9929 12.8355 15.9495 12.9477 15.8687C13.46 15.5015 13.7295 15.0062 13.6985 14.3664C13.6458 13.2828 12.4117 12.5512 11.4951 13.0579C11.0449 13.307 10.8239 13.8354 10.9735 14.3035C11.1231 14.7711 11.5623 15.0593 12.0512 15.0113C12.4134 14.9756 12.7131 14.658 12.7186 14.3048C12.7237 13.963 12.4639 13.6731 12.1124 13.628C11.8658 13.5961 11.615 13.7491 11.5444 13.974C11.4802 14.1789 11.575 14.4106 11.7676 14.5186C11.9793 14.6368 12.1617 14.5819 12.3628 14.3392Z" fill="white"/>
<path d="M7.03168 8.09558C7.10777 7.71595 7.13795 7.3376 7.25529 6.97796C7.78455 5.35914 8.84775 4.26193 10.4623 3.70673C10.7544 3.60641 10.7548 3.60768 10.7548 3.91589C10.7548 4.56631 10.7535 5.2163 10.7561 5.86672C10.7565 5.96577 10.7514 6.03081 10.6277 6.0644C9.29539 6.42999 8.12124 7.07616 7.13966 8.05774C7.1252 8.0722 7.1082 8.0858 7.08992 8.09473C7.07886 8.09983 7.06314 8.09558 7.03168 8.09558Z" fill="white"/>
<path d="M16.5433 6.46128C15.9065 6.21811 15.302 6.03447 14.678 5.91926C14.2613 5.84232 13.8418 5.7845 13.4184 5.76962C13.2891 5.76495 13.233 5.74411 13.2356 5.59448C13.2449 4.98699 13.2436 4.37951 13.2364 3.77203C13.2347 3.61091 13.2636 3.61516 13.4103 3.66235C14.3851 3.97395 15.2085 4.50322 15.8513 5.3037C16.125 5.64464 16.3571 6.01236 16.5433 6.46128Z" fill="white"/>
<path d="M10.7554 19.9536C9.93153 19.7151 9.22032 19.3436 8.63452 18.751C8.93465 18.8505 9.2182 18.9869 9.51748 19.0843C9.86692 19.1978 10.2189 19.2989 10.5845 19.3419C10.7086 19.3563 10.7745 19.3963 10.7588 19.5387C10.7439 19.6705 10.7554 19.8048 10.7554 19.9536Z" fill="white"/>
<path d="M23.5 12C23.5 18.3513 18.3513 23.5 12 23.5C5.64873 23.5 0.5 18.3513 0.5 12C0.5 5.64873 5.64873 0.5 12 0.5C18.3513 0.5 23.5 5.64873 23.5 12Z" stroke="white" stroke-opacity="0.3"/>
</svg>
