<svg width="40" height="40" viewBox="0 0 40 40" fill="none" xmlns="http://www.w3.org/2000/svg"><rect fill="#663FC0" width="40" height="40" rx="12"/><g transform="translate(4 4)"><circle cx="16" cy="16" r="14" fill="#fff"/><svg width="32" height="32" viewBox="0 0 32 32" xmlns="http://www.w3.org/2000/svg"><path fill-rule="evenodd" clip-rule="evenodd" d="M0 16C0 7.163 7.163 0 16 0s16 7.163 16 16-7.163 16-16 16S0 24.837 0 16z" fill="#663FC0"/><path fill-rule="evenodd" clip-rule="evenodd" d="M6.213 8.939a.433.433 0 00.596-.153.439.439 0 00-.152-.6.433.433 0 00-.596.153.439.439 0 00.152.6zm3.692.813a.867.867 0 001.191-.305.878.878 0 00-.303-1.2.867.867 0 00-1.192.306.878.878 0 00.304 1.2zm12.067 1.055C20.54 9.23 18.56 8.29 16.396 8.157a8.413 8.413 0 00-1.572.053c-.18.014-.354.038-.521.066l-.154.02.016.005a6.86 6.86 0 00-1.33.394l-.004.002c-.825.39-1.279 1.037-1.279 1.821 0 1.08.907 1.96 2.022 1.96.232 0 .952-.236.959-.238a4.192 4.192 0 011.611-.213c1.406.086 2.654.85 3.34 2.046l.001.003c.381.667.557 1.421.508 2.184-.143 2.195-2.098 3.869-4.365 3.73a4.11 4.11 0 01-3.156-1.758v-.001l-.024-.03-.164-.24c-.56-.931-.488-2.213-.466-2.48l.003-.025v-.01c-.04-1.061-.928-1.893-2.023-1.893-.912 0-1.715.596-1.953 1.45-.049.173-.07.634-.063.686-.18 4.24 3.228 7.904 7.595 8.17a8.2 8.2 0 001.418-.036l.003.001.043-.005.643-.073-.045-.018c3.598-.674 6.31-3.626 6.545-7.225.136-2.097-.579-4.12-2.012-5.696zM7.508 12.316a1.3 1.3 0 001.788-.458 1.317 1.317 0 00-.456-1.799 1.3 1.3 0 00-1.787.458 1.317 1.317 0 00.455 1.799z" fill="#fff"/></svg></g></svg>