<svg width="252.000000pt" height="242.000000pt" viewBox="0 0 252.000000 242.000000" xmlns="http://www.w3.org/2000/svg">
  <g transform="translate(0.000000,242.000000) scale(0.100000,-0.100000)" fill="#fefefe" stroke="none">
    <path d="M0 1210 l0 -1210 1260 0 1260 0 0 1210 0 1210 -1260 0 -1260 0 0
-1210z m1640 1097 c122 -32 268 -89 345 -135 64 -38 146 -98 210 -155 l40 -36
-62 -63 c-35 -35 -63 -68 -63 -73 0 -6 21 -35 46 -65 144 -174 234 -418 234
-641 0 -188 -50 -370 -146 -531 -57 -95 -192 -242 -279 -302 -76 -53 -179
-106 -272 -139 -209 -75 -447 -76 -662 -2 -101 34 -219 99 -304 167 -40 32
-79 58 -87 58 -8 0 -43 -28 -78 -62 l-63 -63 -35 40 c-107 122 -183 243 -238
382 -51 127 -75 246 -82 393 -5 92 -2 151 10 225 21 125 74 285 128 387 58
108 153 232 243 316 123 115 341 238 506 286 126 36 211 46 364 42 118 -3 170
-10 245 -29z" />
    <path d="M1217 1794 c-82 -19 -191 -73 -265 -129 -119 -90 -214 -233 -253
-382 -30 -111 -30 -280 0 -386 12 -43 33 -102 47 -130 37 -72 83 -137 97 -137
7 0 93 81 191 179 l179 179 -6 28 c-3 16 -11 48 -18 71 -10 33 -10 50 0 84 17
56 74 113 130 130 34 10 51 10 84 0 93 -28 76 -38 275 156 100 98 182 183 182
190 0 17 -78 69 -156 104 -35 16 -92 36 -127 44 -79 19 -282 18 -360 -1z" />
  </g>
  <g transform="translate(0.000000,242.000000) scale(0.100000,-0.100000)" fill="#4777bb" stroke="none">
    <path d="M1156 2335 c-44 -9 -104 -23 -135 -31 -165 -48 -383 -171 -506 -286
-90 -84 -185 -208 -243 -316 -54 -102 -107 -262 -128 -387 -12 -75 -15 -134
-10 -235 6 -157 30 -272 82 -403 56 -142 134 -266 242 -387 l40 -45 71 70 c39
38 69 75 67 82 -3 7 45 61 106 121 l111 108 -36 50 c-50 71 -84 142 -108 231
-29 105 -29 257 0 366 53 203 197 374 388 463 39 19 100 41 135 49 81 19 255
19 335 0 79 -19 181 -65 245 -110 l49 -36 47 40 c26 22 76 69 112 105 41 42
70 64 80 61 10 -3 41 21 85 66 l70 70 -45 41 c-66 59 -147 119 -215 160 -76
46 -223 103 -345 135 -77 20 -126 26 -255 29 -114 2 -183 -1 -239 -11z" />
    <path d="M1700 1499 c-12 -8 -9 -14 18 -39 17 -16 32 -34 32 -39 0 -5 3 -11 8
-13 12 -5 60 -113 67 -152 5 -22 13 -36 22 -36 12 0 14 8 8 38 -8 46 -55 152
-66 152 -5 0 -9 7 -9 15 0 8 -4 15 -10 15 -5 0 -10 6 -10 13 0 8 -10 23 -23
35 -16 15 -26 18 -37 11z" />
    <path d="M1285 1301 c-48 -22 -79 -54 -100 -103 -20 -49 -19 -92 4 -158 21
-60 53 -92 111 -109 48 -14 88 -14 131 1 52 17 88 46 109 88 27 54 35 112 20
163 -17 63 -48 96 -110 118 -68 24 -114 24 -165 0z" />
    <path d="M1840 1135 c0 -51 3 -65 15 -65 12 0 15 14 15 65 0 51 -3 65 -15 65
-12 0 -15 -14 -15 -65z" />
    <path d="M1821 1001 c-7 -27 -28 -75 -47 -107 -19 -31 -34 -61 -34 -66 0 -5 8
-8 18 -6 20 4 88 135 98 191 5 28 3 37 -8 37 -9 0 -19 -19 -27 -49z" />
    <path d="M993 789 c-10 -10 -8 -18 9 -36 12 -13 27 -23 35 -23 7 0 13 -4 13
-10 0 -5 7 -10 15 -10 8 0 15 -4 15 -9 0 -9 110 -61 129 -61 6 0 11 6 11 13 0
6 -32 26 -70 42 -38 17 -70 33 -70 38 0 4 -5 7 -10 7 -6 0 -23 14 -38 31 -21
24 -30 28 -39 18z" />
    <path d="M1693 785 c-3 -9 -3 -18 0 -22 10 -10 37 6 37 22 0 20 -29 20 -37 0z" />
    <path d="M1592 715 c-30 -19 -76 -39 -103 -46 -30 -8 -49 -18 -49 -27 0 -11 9
-13 38 -8 55 10 186 78 190 99 2 9 -2 17 -10 16 -7 -1 -37 -16 -66 -34z" />
    <path d="M1230 645 c0 -8 9 -15 20 -15 11 0 20 7 20 15 0 8 -9 15 -20 15 -11
0 -20 -7 -20 -15z" />
    <path d="M1280 635 c0 -12 14 -15 70 -15 56 0 70 3 70 15 0 12 -14 15 -70 15
-56 0 -70 -3 -70 -15z" />
  </g>
  <g transform="translate(0.000000,242.000000) scale(0.100000,-0.100000)" fill="#9b8bc1" stroke="none">
    <path d="M485 1988 l-70 -73 73 70 c39 38 72 71 72 72 0 8 -11 -2 -75 -69z" />
    <path d="M1972 1759 c-68 -65 -118 -107 -125 -103 -7 4 -8 3 -4 -1 4 -5 -25
-42 -65 -82 l-72 -72 19 -22 c11 -11 20 -28 20 -37 0 -10 5 -16 11 -15 7 1 11
-5 10 -15 0 -9 4 -16 11 -15 8 2 10 -4 6 -14 -5 -12 -3 -14 7 -8 8 5 11 4 7
-3 -9 -14 3 -43 14 -36 5 3 6 -3 2 -12 -4 -11 -3 -15 4 -11 7 5 9 -1 5 -15 -3
-15 -2 -19 7 -14 9 6 10 0 5 -20 -5 -18 -3 -25 4 -20 7 4 9 -5 5 -30 -4 -27
-3 -35 5 -30 9 5 12 -9 12 -49 0 -40 -3 -54 -12 -49 -8 5 -9 -3 -5 -30 4 -25
2 -34 -5 -30 -7 5 -9 -2 -4 -20 4 -17 3 -25 -3 -22 -12 8 -25 -30 -15 -45 5
-8 3 -9 -6 -4 -10 6 -12 4 -7 -9 4 -9 3 -15 -2 -12 -10 7 -23 -22 -16 -34 3
-5 0 -12 -6 -16 -8 -5 -9 -3 -4 6 5 9 4 11 -4 6 -6 -4 -10 -14 -9 -21 2 -8 -1
-14 -7 -15 -19 -3 -45 -33 -43 -49 2 -10 -3 -15 -13 -13 -15 2 -56 -34 -52
-47 1 -3 -4 -5 -12 -3 -7 1 -17 -3 -21 -9 -5 -8 -3 -9 6 -4 9 5 11 4 6 -4 -4
-6 -11 -9 -16 -6 -12 7 -41 -6 -34 -16 3 -5 -3 -6 -12 -2 -13 5 -15 3 -9 -7 5
-9 4 -11 -4 -6 -15 10 -53 -3 -45 -15 3 -6 -5 -7 -22 -3 -18 5 -25 3 -20 -4 4
-7 -5 -9 -30 -5 -27 4 -35 3 -30 -5 5 -9 -10 -12 -54 -12 -44 0 -59 3 -54 12
5 8 -2 9 -25 5 -23 -5 -30 -3 -25 5 5 7 -1 9 -19 6 -16 -3 -24 -1 -20 5 4 6
-2 8 -15 5 -14 -4 -20 -2 -15 5 4 7 0 8 -11 4 -9 -4 -15 -3 -12 2 7 11 -22 23
-36 14 -7 -4 -8 -1 -3 7 6 10 4 12 -8 7 -10 -4 -16 -2 -14 6 1 7 -6 11 -15 11
-10 -1 -16 3 -15 10 1 6 -6 11 -15 11 -10 0 -25 9 -35 20 l-18 19 25 -19 25
-20 -19 22 c-13 16 -23 20 -35 13 -9 -5 -45 -38 -80 -74 -55 -55 -67 -63 -80
-53 -14 10 -14 10 -3 -4 10 -14 -4 -32 -104 -128 -86 -84 -113 -116 -105 -125
8 -9 -7 -29 -54 -76 l-65 -64 -27 24 -28 24 27 -29 28 -30 69 69 69 69 25 -19
c13 -10 48 -38 78 -61 115 -89 274 -158 432 -188 102 -19 273 -19 377 1 146
27 301 93 425 180 87 60 222 207 279 302 62 104 111 235 131 347 8 48 15 135
15 194 0 240 -87 475 -245 664 -31 37 -60 67 -63 67 -4 -1 -58 -50 -120 -111z" />
    <path d="M1353 1803 c26 -2 68 -2 95 0 26 2 4 3 -48 3 -52 0 -74 -1 -47 -3z" />
    <path d="M1645 1450 c-27 -27 -46 -53 -42 -57 4 -4 29 14 55 40 l48 47 19 -17
c11 -10 9 -6 -4 10 -14 15 -25 27 -26 27 0 0 -23 -22 -50 -50z" />
    <path d="M1550 1355 c-13 -14 -20 -28 -17 -32 8 -7 57 35 57 49 0 15 -16 8
-40 -17z" />
    <path d="M1487 1296 c-14 -11 -15 -15 -4 -19 15 -5 37 10 37 25 0 12 -12 9
-33 -6z" />
    <path d="M134 1130 c0 -69 1 -97 3 -62 2 34 2 90 0 125 -2 34 -3 6 -3 -63z" />
    <path d="M1173 1125 c0 -27 2 -38 4 -22 2 15 2 37 0 50 -2 12 -4 0 -4 -28z" />
  </g>
  <g transform="translate(0.000000,242.000000) scale(0.100000,-0.100000)" fill="#112649" stroke="none">
    <path d="M1591 1386 l-104 -104 25 -33 c53 -71 58 -140 17 -220 -22 -45 -59
-72 -117 -90 -35 -10 -53 -10 -90 0 -26 7 -62 24 -80 38 l-34 26 -106 -106
-106 -106 29 -31 c17 -17 67 -50 113 -72 l82 -41 104 -5 c86 -4 116 -1 173 16
76 23 171 81 220 133 87 94 133 213 133 343 0 92 -15 158 -53 233 -26 51 -82
123 -96 123 -3 0 -53 -47 -110 -104z" />
  </g>
</svg>