<svg id="svg" version="1.1" xmlns="http://www.w3.org/2000/svg" xmlns:xlink="http://www.w3.org/1999/xlink" width="400" height="400" viewBox="0, 0, 400,400"><g id="svgg"><path id="path0" d="M104.312 116.373 C 101.895 119.145,99.539 121.826,99.076 122.331 C 98.614 122.837,97.564 124.027,96.743 124.977 C 93.191 129.086,92.361 130.041,91.417 131.111 C 90.867 131.734,88.876 134.008,86.993 136.163 C 85.110 138.319,81.998 141.879,80.077 144.073 C 78.155 146.267,75.871 148.884,75.000 149.889 C 74.129 150.894,72.742 152.485,71.917 153.425 C 68.704 157.085,66.364 159.765,65.167 161.156 C 64.000 162.511,57.132 170.365,50.591 177.823 C 49.028 179.605,47.038 181.881,46.167 182.883 C 45.296 183.884,43.908 185.472,43.083 186.411 C 42.258 187.351,40.876 188.937,40.012 189.935 C 39.148 190.933,37.977 192.275,37.409 192.917 C 36.841 193.558,33.693 197.158,30.413 200.917 C 27.133 204.675,24.030 208.226,23.516 208.807 C 23.003 209.388,22.335 210.156,22.030 210.512 L 21.477 211.161 25.947 215.533 C 28.405 217.937,31.020 220.507,31.758 221.244 C 34.342 223.824,40.542 229.898,55.500 244.507 C 63.796 252.609,71.189 259.841,71.929 260.577 C 73.996 262.636,86.201 274.595,100.663 288.734 C 107.857 295.767,113.770 301.441,113.802 301.344 C 113.834 301.247,113.151 300.205,112.284 299.029 C 107.611 292.693,104.421 286.814,101.642 279.417 C 99.150 272.784,97.000 262.159,97.000 256.477 L 97.000 255.667 125.292 255.667 L 153.583 255.667 153.881 257.805 C 156.489 276.547,173.143 290.982,195.833 294.169 C 213.818 296.694,232.531 292.977,243.337 284.733 C 258.244 273.360,257.942 251.875,242.750 242.916 C 234.423 238.006,211.670 229.866,191.750 224.670 C 190.650 224.383,187.762 223.559,185.333 222.838 C 182.904 222.118,179.979 221.256,178.833 220.923 C 177.688 220.590,174.762 219.678,172.333 218.897 C 169.904 218.116,167.317 217.284,166.583 217.050 C 161.068 215.285,148.580 210.605,144.585 208.805 C 131.986 203.131,119.430 193.091,112.035 182.778 C 98.780 164.294,97.630 133.926,109.400 113.192 C 109.730 112.611,110.000 112.081,110.000 112.015 C 110.000 111.915,108.946 111.333,108.765 111.333 C 108.733 111.333,106.729 113.601,104.312 116.373 M294.250 111.950 C 293.792 112.183,293.394 112.393,293.367 112.417 C 293.340 112.441,293.743 113.238,294.262 114.188 C 299.327 123.463,302.527 133.644,304.001 145.167 C 304.325 147.706,304.665 151.646,304.666 152.875 L 304.667 153.500 277.353 153.500 L 250.039 153.500 249.938 153.125 C 249.883 152.919,249.837 152.514,249.836 152.225 C 249.827 150.238,248.284 143.635,247.179 140.857 C 240.735 124.655,225.032 115.426,203.000 114.892 C 174.509 114.201,157.128 124.906,156.552 143.500 C 156.195 155.020,162.785 163.737,177.250 170.881 C 180.592 172.532,192.330 176.675,200.175 178.973 C 201.408 179.335,204.517 180.269,207.083 181.050 C 211.313 182.336,214.015 183.105,225.083 186.173 C 239.947 190.292,256.841 196.298,266.083 200.750 C 281.594 208.220,295.433 220.890,301.401 233.083 C 310.649 251.976,310.217 276.209,300.290 295.500 L 299.475 297.083 300.696 295.816 C 301.367 295.119,303.154 293.209,304.667 291.572 C 306.179 289.935,308.617 287.314,310.083 285.748 C 311.550 284.182,314.625 280.879,316.917 278.409 C 319.208 275.938,321.683 273.279,322.417 272.500 C 323.150 271.721,326.638 267.974,330.167 264.173 C 333.696 260.372,337.821 255.941,339.333 254.326 C 340.846 252.712,343.396 249.974,345.000 248.242 C 346.604 246.510,348.967 243.975,350.250 242.610 C 351.533 241.244,353.069 239.592,353.662 238.938 C 354.255 238.285,355.905 236.509,357.329 234.992 C 360.507 231.605,363.219 228.695,366.251 225.417 C 367.522 224.042,371.027 220.273,374.039 217.042 L 379.515 211.167 376.293 207.375 C 374.521 205.290,372.286 202.653,371.327 201.515 C 370.368 200.378,368.811 198.540,367.867 197.432 C 366.923 196.324,365.554 194.704,364.826 193.833 C 364.097 192.963,362.695 191.301,361.709 190.142 C 358.676 186.574,351.167 177.712,349.583 175.832 C 348.758 174.853,347.333 173.170,346.417 172.093 C 344.640 170.005,342.584 167.579,339.973 164.489 C 339.088 163.441,336.362 160.221,333.915 157.333 C 331.469 154.446,328.770 151.258,327.917 150.250 C 327.064 149.242,325.601 147.517,324.665 146.417 C 323.730 145.317,322.391 143.736,321.690 142.905 C 320.990 142.073,317.979 138.510,314.999 134.988 C 312.019 131.465,309.319 128.273,308.999 127.895 C 308.679 127.516,307.442 126.061,306.250 124.662 C 305.058 123.263,303.633 121.578,303.083 120.918 C 301.298 118.777,295.626 112.091,295.351 111.804 C 295.101 111.544,295.028 111.553,294.250 111.950 " stroke="none" fill="#0c2454" fill-rule="evenodd"></path><path id="path1" d="M10.173 172.375 L 10.179 280.917 10.881 281.358 C 11.267 281.600,12.783 282.419,14.250 283.177 C 15.717 283.935,17.592 284.948,18.417 285.428 C 19.242 285.908,20.742 286.713,21.750 287.218 C 22.758 287.723,24.071 288.417,24.667 288.761 C 26.573 289.861,28.387 290.833,28.533 290.833 C 28.611 290.833,29.254 291.163,29.962 291.565 C 33.899 293.802,34.804 294.292,35.332 294.476 C 35.653 294.587,36.178 294.851,36.499 295.062 C 37.017 295.403,39.247 296.665,41.300 297.778 C 41.695 297.992,42.089 298.167,42.176 298.167 C 42.315 298.167,45.693 300.017,47.083 300.854 C 47.358 301.020,47.921 301.316,48.333 301.512 C 49.671 302.148,50.741 302.713,51.167 303.008 C 51.396 303.166,53.046 304.061,54.833 304.996 C 56.621 305.932,58.608 306.997,59.250 307.363 C 59.892 307.730,61.167 308.409,62.083 308.873 C 63.000 309.336,64.500 310.143,65.417 310.666 C 66.333 311.189,68.358 312.274,69.917 313.077 C 71.475 313.880,72.862 314.629,73.000 314.742 C 73.363 315.038,75.526 316.191,75.828 316.249 C 75.969 316.276,76.534 316.558,77.084 316.875 C 80.504 318.850,82.629 320.000,82.858 320.000 C 83.003 320.000,83.301 320.137,83.519 320.305 C 83.738 320.473,84.667 321.008,85.583 321.494 C 86.500 321.980,87.593 322.592,88.012 322.854 C 88.431 323.116,89.031 323.418,89.345 323.526 C 89.660 323.634,90.179 323.886,90.500 324.086 C 91.242 324.548,94.795 326.489,96.750 327.500 C 97.575 327.927,98.962 328.674,99.833 329.161 C 100.704 329.648,102.242 330.471,103.250 330.991 C 104.258 331.510,105.608 332.238,106.250 332.608 C 106.892 332.978,108.610 333.896,110.068 334.648 C 111.526 335.400,112.913 336.151,113.151 336.319 C 113.389 336.486,115.008 337.356,116.750 338.251 C 118.492 339.147,120.106 340.012,120.338 340.175 C 120.570 340.337,121.922 341.071,123.344 341.806 C 124.766 342.541,126.451 343.449,127.090 343.823 C 128.133 344.435,129.840 345.314,130.500 345.580 C 130.637 345.636,131.650 346.199,132.750 346.832 C 133.850 347.465,135.612 348.423,136.667 348.961 C 137.721 349.498,139.371 350.376,140.333 350.912 C 141.296 351.447,142.871 352.289,143.833 352.782 C 145.638 353.707,148.900 355.531,149.708 356.068 C 149.960 356.235,150.167 356.324,150.167 356.266 C 150.167 356.128,151.215 356.663,153.083 357.753 C 153.908 358.234,155.783 359.245,157.250 359.999 C 158.717 360.754,160.029 361.466,160.167 361.582 C 160.304 361.698,161.842 362.525,163.583 363.420 C 165.325 364.315,166.940 365.180,167.172 365.343 C 167.405 365.505,169.092 366.419,170.922 367.373 C 172.753 368.327,174.588 369.321,175.000 369.582 C 175.412 369.843,176.275 370.304,176.917 370.605 C 177.558 370.907,178.946 371.642,180.000 372.239 C 181.054 372.836,182.742 373.740,183.750 374.246 C 185.376 375.063,186.519 375.686,189.167 377.196 C 189.579 377.431,190.142 377.735,190.417 377.871 C 191.909 378.608,192.781 379.065,194.689 380.109 C 195.847 380.742,196.897 381.343,197.022 381.443 C 197.148 381.544,197.438 381.681,197.667 381.748 C 197.896 381.815,198.986 382.386,200.090 383.018 C 201.193 383.650,202.262 384.167,202.465 384.167 L 202.833 384.167 202.833 339.591 L 202.833 295.015 202.292 294.933 C 201.994 294.887,201.037 294.805,200.167 294.751 C 175.439 293.194,155.229 276.864,153.557 257.092 L 153.451 255.833 125.299 255.833 L 97.146 255.833 97.234 256.542 C 97.282 256.931,97.367 258.037,97.423 259.000 C 98.250 273.159,104.259 288.600,113.532 300.390 C 113.881 300.834,114.167 301.302,114.167 301.432 C 114.167 302.021,113.439 301.492,111.100 299.205 C 109.716 297.852,105.208 293.448,101.083 289.419 C 96.958 285.390,92.975 281.492,92.232 280.755 C 89.069 277.623,83.411 272.075,76.083 264.920 C 71.775 260.714,66.637 255.688,64.667 253.752 C 62.696 251.816,59.321 248.511,57.167 246.408 C 55.013 244.304,52.611 241.946,51.830 241.167 C 51.049 240.387,48.721 238.100,46.659 236.083 C 44.596 234.067,39.535 229.120,35.412 225.090 C 25.523 215.423,21.333 211.281,21.335 211.172 C 21.337 211.049,23.322 208.735,28.500 202.818 C 30.929 200.042,33.667 196.911,34.583 195.861 C 35.500 194.810,36.887 193.220,37.667 192.328 C 38.446 191.435,39.983 189.679,41.083 188.426 C 42.183 187.173,43.449 185.721,43.895 185.199 C 44.342 184.677,45.402 183.463,46.251 182.500 C 48.184 180.310,49.946 178.294,57.325 169.833 C 62.816 163.537,64.383 161.747,67.521 158.191 C 68.197 157.425,69.275 156.180,69.917 155.423 C 70.558 154.667,71.548 153.531,72.116 152.899 C 72.684 152.267,75.046 149.575,77.366 146.916 C 79.685 144.257,82.858 140.624,84.417 138.842 C 85.975 137.060,87.731 135.036,88.319 134.343 C 88.908 133.650,89.808 132.630,90.319 132.075 C 91.216 131.104,92.487 129.653,95.500 126.162 C 97.869 123.417,99.848 121.148,101.019 119.833 C 103.584 116.953,108.500 111.255,108.500 111.163 C 108.500 111.059,106.518 110.074,65.917 89.995 C 27.243 70.869,13.833 64.197,13.833 64.082 C 13.833 64.022,28.297 64.029,45.974 64.096 C 70.172 64.187,78.145 64.170,78.234 64.025 C 78.324 63.881,69.954 63.833,44.260 63.833 L 10.167 63.833 10.173 172.375 M388.154 64.458 L 387.750 64.917 388.250 64.500 C 388.525 64.271,388.781 64.065,388.819 64.042 C 388.858 64.019,388.814 64.000,388.723 64.000 C 388.633 64.000,388.376 64.206,388.154 64.458 M382.458 67.426 C 380.740 68.293,379.333 69.039,379.333 69.085 C 379.333 69.131,380.758 68.455,382.500 67.583 C 384.242 66.712,385.667 65.961,385.667 65.916 C 385.667 65.801,385.900 65.691,382.458 67.426 M375.125 71.093 C 373.956 71.685,373.000 72.207,373.000 72.252 C 373.000 72.327,377.317 70.222,377.486 70.064 C 377.749 69.820,376.959 70.165,375.125 71.093 M361.500 78.000 C 361.179 78.176,360.977 78.323,361.050 78.326 C 361.227 78.336,362.167 77.847,362.167 77.746 C 362.167 77.637,362.157 77.640,361.500 78.000 M354.000 81.750 C 353.037 82.245,352.308 82.653,352.378 82.658 C 352.555 82.670,355.833 81.016,355.833 80.915 C 355.833 80.802,355.935 80.755,354.000 81.750 M346.125 85.676 C 344.681 86.406,343.500 87.040,343.500 87.085 C 343.500 87.160,348.817 84.555,348.986 84.398 C 349.259 84.144,348.393 84.531,346.125 85.676 M339.125 89.177 C 338.598 89.449,338.167 89.709,338.167 89.755 C 338.167 89.830,340.150 88.885,340.319 88.730 C 340.538 88.531,339.957 88.748,339.125 89.177 M325.000 96.333 C 324.313 96.691,323.808 96.987,323.879 96.992 C 324.056 97.003,326.333 95.849,326.333 95.748 C 326.333 95.635,326.388 95.611,325.000 96.333 M317.625 100.010 C 315.815 100.922,314.333 101.706,314.333 101.752 C 314.333 101.797,315.833 101.084,317.667 100.167 C 319.500 99.249,321.000 98.461,321.000 98.416 C 321.000 98.301,321.249 98.184,317.625 100.010 M309.792 103.927 C 308.806 104.427,308.000 104.874,308.000 104.920 C 308.000 104.994,311.650 103.221,311.819 103.064 C 312.074 102.829,311.337 103.142,309.792 103.927 M110.010 112.375 C 109.635 112.971,107.356 117.604,106.629 119.250 C 98.412 137.853,100.195 164.391,110.744 180.509 C 116.442 189.217,127.799 199.706,136.833 204.607 C 137.521 204.979,138.946 205.759,140.000 206.339 C 147.056 210.220,169.581 218.315,185.583 222.720 C 187.050 223.123,189.938 223.944,192.000 224.544 C 194.063 225.143,196.763 225.899,198.001 226.223 C 199.238 226.546,200.832 226.996,201.542 227.221 L 202.833 227.631 202.833 203.821 L 202.833 180.011 199.625 179.006 C 180.082 172.887,173.984 170.214,167.029 164.721 C 157.644 157.308,154.353 147.780,157.346 136.686 C 157.528 136.009,157.652 135.429,157.620 135.398 C 157.547 135.325,110.375 112.000,110.301 112.000 C 110.271 112.000,110.140 112.169,110.010 112.375 M288.667 114.583 C 287.337 115.261,286.307 115.820,286.377 115.825 C 286.554 115.837,291.167 113.517,291.167 113.416 C 291.167 113.301,291.331 113.224,288.667 114.583 M280.792 118.510 C 279.531 119.147,278.500 119.706,278.500 119.752 C 278.500 119.827,283.150 117.555,283.319 117.398 C 283.586 117.150,282.770 117.509,280.792 118.510 M273.458 122.177 C 272.931 122.449,272.500 122.709,272.500 122.755 C 272.500 122.830,274.483 121.885,274.653 121.730 C 274.871 121.531,274.291 121.748,273.458 122.177 M259.833 129.083 C 259.054 129.487,258.475 129.820,258.545 129.825 C 258.723 129.836,261.333 128.516,261.333 128.415 C 261.333 128.302,261.404 128.270,259.833 129.083 M255.458 131.262 C 254.835 131.600,254.873 131.741,255.500 131.417 C 255.775 131.274,256.000 131.123,256.000 131.079 C 256.000 130.972,255.982 130.978,255.458 131.262 M251.792 133.093 C 250.256 133.868,249.000 134.539,249.000 134.585 C 249.000 134.660,254.650 131.889,254.819 131.731 C 255.095 131.475,254.205 131.875,251.792 133.093 M245.958 136.011 C 245.615 136.193,245.333 136.379,245.333 136.424 C 245.333 136.498,246.650 135.883,246.819 135.730 C 247.011 135.556,246.511 135.720,245.958 136.011 M263.708 153.458 C 271.202 153.482,283.465 153.482,290.958 153.458 C 298.452 153.434,292.321 153.415,277.333 153.415 C 262.346 153.415,256.215 153.434,263.708 153.458 M288.660 216.708 C 289.350 217.444,289.500 217.577,289.500 217.451 C 289.500 217.425,289.144 217.068,288.708 216.660 L 287.917 215.917 288.660 216.708 M360.075 232.208 L 359.417 232.917 360.125 232.258 C 360.784 231.645,360.910 231.500,360.784 231.500 C 360.757 231.500,360.438 231.819,360.075 232.208 M353.410 239.375 L 352.583 240.250 353.458 239.423 C 353.940 238.968,354.333 238.574,354.333 238.548 C 354.333 238.424,354.179 238.562,353.410 239.375 M346.824 246.458 L 346.250 247.083 346.875 246.509 C 347.219 246.193,347.500 245.912,347.500 245.884 C 347.500 245.757,347.359 245.877,346.824 246.458 M312.991 282.792 L 312.417 283.417 313.042 282.842 C 313.623 282.308,313.743 282.167,313.616 282.167 C 313.588 282.167,313.307 282.448,312.991 282.792 M306.500 289.750 C 306.095 290.162,305.801 290.500,305.847 290.500 C 305.893 290.500,306.262 290.162,306.667 289.750 C 307.072 289.337,307.365 289.000,307.319 289.000 C 307.274 289.000,306.905 289.337,306.500 289.750 M209.542 294.948 C 209.702 294.990,209.965 294.990,210.125 294.948 C 210.285 294.906,210.154 294.872,209.833 294.872 C 209.512 294.872,209.381 294.906,209.542 294.948 M299.906 296.875 L 299.417 297.417 299.958 296.927 C 300.463 296.471,300.577 296.333,300.448 296.333 C 300.419 296.333,300.175 296.577,299.906 296.875 " stroke="none" fill="#2493fb" fill-rule="evenodd"></path><path id="path2" d="M388.334 64.416 C 388.021 64.792,385.276 66.191,357.083 80.336 C 342.783 87.510,327.858 95.010,323.917 97.001 C 319.975 98.993,312.025 102.993,306.250 105.890 C 300.475 108.788,295.645 111.228,295.516 111.313 C 295.332 111.435,295.507 111.728,296.349 112.702 C 296.936 113.380,298.542 115.280,299.917 116.923 C 301.292 118.567,302.719 120.250,303.089 120.664 C 303.738 121.390,305.823 123.851,308.250 126.756 C 308.892 127.524,310.327 129.224,311.441 130.535 C 313.287 132.708,316.042 135.963,321.554 142.484 C 322.670 143.804,323.904 145.252,324.296 145.702 C 324.688 146.152,325.738 147.387,326.629 148.446 C 329.574 151.946,331.368 154.066,335.917 159.426 C 340.534 164.866,342.133 166.757,344.084 169.083 C 345.117 170.315,345.933 171.275,350.092 176.149 C 351.652 177.977,361.816 189.997,363.583 192.103 C 364.133 192.759,365.333 194.177,366.250 195.254 C 367.167 196.332,368.592 198.013,369.417 198.991 C 370.242 199.969,372.154 202.224,373.667 204.003 C 378.214 209.352,379.660 211.079,379.662 211.167 C 379.663 211.213,377.328 213.762,374.472 216.833 C 371.616 219.904,368.335 223.434,367.181 224.678 C 360.645 231.723,358.461 234.068,357.178 235.421 C 356.392 236.248,353.912 238.907,351.667 241.329 C 349.421 243.752,346.421 246.975,345.000 248.492 C 343.579 250.009,341.935 251.775,341.346 252.417 C 340.757 253.058,339.257 254.672,338.012 256.003 C 336.768 257.333,334.358 259.921,332.656 261.753 C 330.954 263.585,327.396 267.408,324.750 270.250 C 319.181 276.229,318.976 276.450,314.678 281.088 C 312.896 283.011,310.796 285.261,310.011 286.090 C 309.226 286.918,306.783 289.540,304.583 291.915 C 302.383 294.290,300.147 296.687,299.614 297.242 L 298.644 298.250 300.230 295.167 C 311.930 272.425,310.008 242.694,295.650 224.333 C 288.809 215.584,278.789 207.471,267.772 201.760 C 261.092 198.297,243.066 191.529,232.667 188.579 C 231.796 188.333,229.208 187.571,226.917 186.888 C 224.625 186.205,221.213 185.242,219.333 184.748 C 217.454 184.254,214.867 183.538,213.583 183.156 C 208.945 181.778,207.880 181.465,205.667 180.833 C 204.429 180.479,203.285 180.139,203.125 180.077 C 202.848 179.970,202.833 181.167,202.833 203.785 L 202.833 227.605 206.458 228.718 C 235.574 237.659,246.561 243.124,251.204 250.976 C 255.617 258.440,255.535 268.721,251.001 276.440 C 243.912 288.508,228.196 294.995,206.042 294.999 L 202.833 295.000 202.833 339.500 C 202.833 363.975,202.878 384.000,202.933 384.000 C 202.987 384.000,203.231 383.858,203.474 383.686 C 203.718 383.513,205.154 382.716,206.667 381.916 C 208.179 381.116,210.017 380.103,210.750 379.666 C 211.483 379.229,212.496 378.669,213.000 378.422 C 213.504 378.174,214.104 377.866,214.333 377.736 C 214.563 377.607,215.500 377.083,216.417 376.573 C 217.333 376.063,218.523 375.388,219.059 375.073 C 219.596 374.758,220.112 374.500,220.206 374.500 C 220.368 374.500,222.056 373.551,225.053 371.775 C 225.803 371.331,226.688 370.869,227.019 370.749 C 227.351 370.629,228.176 370.197,228.853 369.790 C 229.530 369.383,230.608 368.764,231.250 368.415 C 231.892 368.065,232.529 367.688,232.667 367.576 C 232.804 367.464,233.104 367.316,233.333 367.247 C 233.717 367.131,234.251 366.841,237.083 365.210 C 237.633 364.893,239.096 364.106,240.333 363.460 C 241.571 362.815,242.958 362.049,243.417 361.758 C 243.875 361.468,244.813 360.943,245.500 360.592 C 246.188 360.241,246.938 359.851,247.167 359.726 C 247.396 359.601,248.296 359.111,249.167 358.637 C 250.037 358.163,250.787 357.727,250.833 357.669 C 250.968 357.499,253.122 356.333,253.303 356.333 C 253.460 356.333,254.236 355.898,258.095 353.646 C 259.018 353.107,259.880 352.664,260.011 352.660 C 260.143 352.657,260.662 352.399,261.167 352.087 C 261.952 351.601,264.465 350.164,265.833 349.418 C 266.063 349.293,266.813 348.913,267.500 348.572 C 268.188 348.232,268.862 347.862,269.000 347.749 C 269.137 347.636,269.925 347.173,270.750 346.720 C 272.358 345.836,272.365 345.833,274.000 344.994 C 274.596 344.688,275.533 344.165,276.083 343.830 C 276.633 343.496,278.546 342.448,280.333 341.503 C 282.121 340.557,283.621 339.733,283.667 339.672 C 283.833 339.448,286.298 338.167,286.562 338.167 C 286.711 338.167,286.833 338.092,286.833 338.000 C 286.833 337.908,286.903 337.833,286.988 337.833 C 287.073 337.833,287.617 337.559,288.196 337.224 C 288.776 336.888,289.925 336.222,290.750 335.744 C 291.575 335.266,292.775 334.616,293.417 334.299 C 294.951 333.542,298.060 331.809,298.168 331.651 C 298.215 331.582,298.965 331.184,299.835 330.765 C 300.705 330.347,302.317 329.479,303.417 328.838 C 304.517 328.196,305.942 327.420,306.583 327.113 C 307.225 326.806,308.263 326.239,308.890 325.853 C 309.516 325.468,311.391 324.435,313.056 323.558 C 314.721 322.681,316.196 321.867,316.333 321.748 C 316.471 321.630,317.483 321.064,318.583 320.491 C 321.209 319.124,323.472 317.870,324.039 317.469 C 324.290 317.292,325.115 316.849,325.873 316.485 C 326.630 316.120,328.075 315.338,329.083 314.746 C 330.092 314.154,331.667 313.291,332.583 312.829 C 333.500 312.367,335.150 311.465,336.250 310.823 C 337.350 310.182,338.776 309.409,339.419 309.106 C 340.062 308.803,341.075 308.254,341.669 307.887 C 343.021 307.051,344.156 306.426,346.818 305.049 C 347.972 304.452,349.029 303.872,349.167 303.759 C 349.445 303.530,350.704 302.835,353.362 301.444 C 354.340 300.931,355.615 300.223,356.195 299.869 C 357.154 299.285,358.583 298.523,359.667 298.019 C 359.896 297.912,360.833 297.389,361.750 296.857 C 365.354 294.763,365.831 294.500,366.037 294.488 C 366.154 294.481,366.475 294.335,366.750 294.163 C 367.025 293.991,367.813 293.534,368.500 293.147 C 369.188 292.761,370.358 292.082,371.101 291.639 C 371.844 291.196,372.546 290.833,372.661 290.833 C 372.776 290.833,373.481 290.470,374.227 290.026 C 374.973 289.582,376.108 288.933,376.750 288.583 C 377.392 288.233,378.096 287.809,378.314 287.640 C 378.533 287.471,378.818 287.333,378.947 287.333 C 379.167 287.333,380.216 286.773,382.583 285.389 C 383.133 285.068,384.521 284.315,385.667 283.717 C 386.813 283.118,387.994 282.481,388.292 282.301 L 388.833 281.973 388.833 173.070 C 388.833 110.709,388.771 64.167,388.687 64.167 C 388.607 64.167,388.448 64.279,388.334 64.416 M288.917 114.572 C 286.717 115.695,276.067 121.059,265.250 126.491 C 254.433 131.924,245.528 136.402,245.461 136.443 C 245.393 136.484,245.635 137.108,245.999 137.831 C 247.955 141.721,249.585 147.514,250.091 152.375 L 250.191 153.333 277.345 153.333 L 304.500 153.333 304.499 152.958 C 304.479 145.183,301.406 130.598,298.108 122.631 C 296.575 118.927,293.333 112.473,293.027 112.515 C 292.966 112.524,291.117 113.449,288.917 114.572 " stroke="none" fill="#2cbbfb" fill-rule="evenodd"></path><path id="path3" d="M140.600 63.792 C 94.019 63.823,78.392 63.882,78.219 64.026 C 78.045 64.170,70.018 64.187,45.911 64.096 C 28.268 64.029,13.833 64.022,13.833 64.081 C 13.833 64.195,29.350 71.916,64.750 89.417 C 96.609 105.168,108.403 111.014,108.482 111.093 C 108.521 111.132,108.411 111.334,108.236 111.541 C 107.935 111.897,107.942 111.896,108.366 111.522 L 108.814 111.127 109.615 111.577 C 110.056 111.824,121.026 117.273,133.993 123.685 C 146.960 130.097,157.614 135.415,157.669 135.503 C 157.723 135.591,157.866 135.383,157.987 135.040 C 160.528 127.834,168.412 120.946,177.500 117.991 C 193.171 112.897,215.234 113.758,227.417 119.938 C 230.016 121.257,232.794 122.842,233.254 123.269 C 233.470 123.469,233.720 123.659,233.809 123.691 C 235.472 124.293,244.000 133.286,244.000 134.438 C 244.000 134.564,244.066 134.667,244.146 134.667 C 244.227 134.667,244.501 135.066,244.757 135.553 L 245.221 136.440 250.235 133.912 C 274.025 121.916,295.167 111.350,295.169 111.456 C 295.171 111.526,295.227 111.501,295.294 111.399 C 295.413 111.221,303.797 106.983,342.083 87.750 C 381.508 67.945,387.770 64.769,388.297 64.310 L 388.845 63.833 296.019 63.833 C 244.965 63.833,203.094 63.815,202.972 63.792 C 202.850 63.769,174.783 63.769,140.600 63.792 M108.200 115.592 C 107.907 116.186,107.670 116.728,107.675 116.795 C 107.679 116.862,107.947 116.403,108.269 115.775 C 108.591 115.147,108.828 114.605,108.794 114.572 C 108.760 114.538,108.493 114.997,108.200 115.592 M103.740 116.708 L 103.250 117.250 103.792 116.760 C 104.297 116.304,104.410 116.167,104.281 116.167 C 104.252 116.167,104.009 116.410,103.740 116.708 M100.240 120.708 L 99.750 121.250 100.292 120.760 C 100.590 120.491,100.833 120.248,100.833 120.219 C 100.833 120.090,100.696 120.203,100.240 120.708 M99.240 121.875 L 98.750 122.417 99.292 121.927 C 99.590 121.658,99.833 121.414,99.833 121.385 C 99.833 121.257,99.696 121.370,99.240 121.875 M104.600 124.267 C 104.439 124.778,104.337 125.226,104.374 125.263 C 104.410 125.299,104.572 124.911,104.733 124.400 C 104.894 123.889,104.996 123.441,104.960 123.404 C 104.923 123.367,104.761 123.756,104.600 124.267 M96.824 124.625 L 96.250 125.250 96.875 124.676 C 97.457 124.141,97.577 124.000,97.449 124.000 C 97.422 124.000,97.140 124.281,96.824 124.625 M95.740 125.875 L 95.250 126.417 95.792 125.927 C 96.090 125.658,96.333 125.414,96.333 125.385 C 96.333 125.257,96.196 125.370,95.740 125.875 M93.406 128.542 L 92.917 129.083 93.458 128.594 C 93.963 128.138,94.077 128.000,93.948 128.000 C 93.919 128.000,93.675 128.244,93.406 128.542 M89.824 132.625 L 89.250 133.250 89.875 132.676 C 90.457 132.141,90.577 132.000,90.449 132.000 C 90.422 132.000,90.140 132.281,89.824 132.625 M88.740 133.875 L 88.250 134.417 88.792 133.927 C 89.090 133.658,89.333 133.414,89.333 133.385 C 89.333 133.257,89.196 133.370,88.740 133.875 M157.429 136.262 C 157.367 136.506,157.349 136.738,157.389 136.777 C 157.428 136.817,157.510 136.649,157.571 136.405 C 157.633 136.161,157.651 135.929,157.611 135.889 C 157.572 135.850,157.490 136.018,157.429 136.262 M86.406 136.542 L 85.917 137.083 86.458 136.594 C 86.756 136.325,87.000 136.081,87.000 136.052 C 87.000 135.923,86.862 136.037,86.406 136.542 M84.240 139.042 L 83.750 139.583 84.292 139.094 C 84.797 138.638,84.910 138.500,84.781 138.500 C 84.752 138.500,84.509 138.744,84.240 139.042 M101.542 140.250 C 101.544 140.617,101.578 140.747,101.618 140.540 C 101.658 140.332,101.656 140.032,101.615 139.873 C 101.573 139.714,101.540 139.883,101.542 140.250 M83.073 140.375 L 82.583 140.917 83.125 140.427 C 83.630 139.971,83.743 139.833,83.615 139.833 C 83.586 139.833,83.342 140.077,83.073 140.375 M101.400 145.000 C 101.400 146.421,101.426 147.002,101.457 146.292 C 101.488 145.581,101.488 144.419,101.457 143.708 C 101.426 142.998,101.400 143.579,101.400 145.000 M77.240 147.042 L 76.750 147.583 77.292 147.094 C 77.797 146.638,77.910 146.500,77.781 146.500 C 77.752 146.500,77.509 146.744,77.240 147.042 M74.906 149.708 L 74.417 150.250 74.958 149.760 C 75.463 149.304,75.577 149.167,75.448 149.167 C 75.419 149.167,75.175 149.410,74.906 149.708 M101.545 150.167 C 101.545 150.579,101.578 150.748,101.618 150.542 C 101.657 150.335,101.657 149.998,101.618 149.792 C 101.578 149.585,101.545 149.754,101.545 150.167 M73.740 151.042 L 73.250 151.583 73.792 151.094 C 74.297 150.638,74.410 150.500,74.281 150.500 C 74.252 150.500,74.009 150.744,73.740 151.042 M71.324 153.792 L 70.750 154.417 71.375 153.842 C 71.957 153.308,72.077 153.167,71.949 153.167 C 71.922 153.167,71.640 153.448,71.324 153.792 M67.991 157.625 L 67.417 158.250 68.042 157.676 C 68.623 157.141,68.743 157.000,68.616 157.000 C 68.588 157.000,68.307 157.281,67.991 157.625 M161.667 159.719 C 161.667 159.748,161.910 159.991,162.208 160.260 L 162.750 160.750 162.260 160.208 C 161.804 159.703,161.667 159.590,161.667 159.719 M64.491 161.625 L 63.917 162.250 64.542 161.676 C 65.123 161.141,65.243 161.000,65.116 161.000 C 65.088 161.000,64.807 161.281,64.491 161.625 M164.500 162.583 C 164.811 162.904,165.103 163.167,165.149 163.167 C 165.195 163.167,164.978 162.904,164.667 162.583 C 164.356 162.262,164.064 162.000,164.018 162.000 C 163.972 162.000,164.189 162.262,164.500 162.583 M62.406 164.042 L 61.917 164.583 62.458 164.094 C 62.963 163.638,63.077 163.500,62.948 163.500 C 62.919 163.500,62.675 163.744,62.406 164.042 M61.073 165.542 L 60.583 166.083 61.125 165.594 C 61.630 165.138,61.743 165.000,61.615 165.000 C 61.586 165.000,61.342 165.244,61.073 165.542 M52.906 174.875 L 52.417 175.417 52.958 174.927 C 53.256 174.658,53.500 174.414,53.500 174.385 C 53.500 174.257,53.362 174.370,52.906 174.875 M51.906 176.042 L 51.417 176.583 51.958 176.094 C 52.463 175.638,52.577 175.500,52.448 175.500 C 52.419 175.500,52.175 175.744,51.906 176.042 M45.991 182.792 L 45.417 183.417 46.042 182.842 C 46.623 182.308,46.743 182.167,46.616 182.167 C 46.588 182.167,46.307 182.448,45.991 182.792 M44.906 184.042 L 44.417 184.583 44.958 184.094 C 45.256 183.825,45.500 183.581,45.500 183.552 C 45.500 183.423,45.362 183.537,44.906 184.042 M42.491 186.792 L 41.917 187.417 42.542 186.842 C 43.123 186.308,43.243 186.167,43.116 186.167 C 43.088 186.167,42.807 186.448,42.491 186.792 M41.406 188.042 L 40.917 188.583 41.458 188.094 C 41.756 187.825,42.000 187.581,42.000 187.552 C 42.000 187.423,41.862 187.537,41.406 188.042 M119.664 191.375 C 120.901 192.635,121.932 193.667,121.956 193.667 C 122.076 193.667,121.837 193.419,119.708 191.331 L 117.417 189.083 119.664 191.375 M39.158 190.625 L 38.583 191.250 39.208 190.676 C 39.790 190.141,39.910 190.000,39.783 190.000 C 39.755 190.000,39.474 190.281,39.158 190.625 M37.906 192.042 L 37.417 192.583 37.958 192.094 C 38.256 191.825,38.500 191.581,38.500 191.552 C 38.500 191.423,38.362 191.537,37.906 192.042 M35.658 194.625 L 35.083 195.250 35.708 194.676 C 36.290 194.141,36.410 194.000,36.283 194.000 C 36.255 194.000,35.974 194.281,35.658 194.625 M123.000 194.583 C 123.311 194.904,123.603 195.167,123.649 195.167 C 123.695 195.167,123.478 194.904,123.167 194.583 C 122.856 194.262,122.564 194.000,122.518 194.000 C 122.472 194.000,122.689 194.262,123.000 194.583 M33.573 197.042 L 33.083 197.583 33.625 197.094 C 33.923 196.825,34.167 196.581,34.167 196.552 C 34.167 196.423,34.029 196.537,33.573 197.042 M32.240 198.542 L 31.750 199.083 32.292 198.594 C 32.590 198.325,32.833 198.081,32.833 198.052 C 32.833 197.923,32.696 198.037,32.240 198.542 M29.906 201.208 L 29.417 201.750 29.958 201.260 C 30.256 200.991,30.500 200.748,30.500 200.719 C 30.500 200.590,30.362 200.703,29.906 201.208 M131.000 200.901 C 131.000 200.946,131.337 201.216,131.750 201.500 C 132.162 201.784,132.500 201.979,132.500 201.933 C 132.500 201.887,132.162 201.617,131.750 201.333 C 131.337 201.050,131.000 200.855,131.000 200.901 M136.667 204.575 C 136.667 204.621,136.892 204.774,137.167 204.917 C 137.442 205.059,137.667 205.138,137.667 205.092 C 137.667 205.046,137.442 204.892,137.167 204.750 C 136.892 204.608,136.667 204.529,136.667 204.575 M24.073 207.875 L 23.583 208.417 24.125 207.927 C 24.423 207.658,24.667 207.414,24.667 207.385 C 24.667 207.257,24.529 207.370,24.073 207.875 M144.333 208.583 C 144.563 208.714,144.825 208.822,144.917 208.822 C 145.008 208.822,144.896 208.714,144.667 208.583 C 144.438 208.452,144.175 208.345,144.083 208.345 C 143.992 208.345,144.104 208.452,144.333 208.583 M25.167 215.083 C 26.585 216.504,27.783 217.667,27.829 217.667 C 27.875 217.667,26.752 216.504,25.333 215.083 C 23.915 213.662,22.717 212.500,22.671 212.500 C 22.625 212.500,23.748 213.662,25.167 215.083 M377.406 213.542 L 376.917 214.083 377.458 213.594 C 377.963 213.138,378.077 213.000,377.948 213.000 C 377.919 213.000,377.675 213.244,377.406 213.542 M162.583 215.589 C 162.858 215.715,163.196 215.816,163.333 215.813 C 163.471 215.810,163.321 215.707,163.000 215.583 C 162.239 215.290,161.940 215.295,162.583 215.589 M163.833 215.972 C 163.971 216.057,164.271 216.176,164.500 216.238 C 164.790 216.315,164.840 216.302,164.667 216.195 C 164.529 216.110,164.229 215.990,164.000 215.929 C 163.710 215.851,163.660 215.865,163.833 215.972 M175.083 219.667 C 175.267 219.745,175.529 219.810,175.667 219.810 C 175.824 219.810,175.793 219.757,175.583 219.667 C 175.400 219.588,175.137 219.523,175.000 219.523 C 174.842 219.523,174.873 219.576,175.083 219.667 M370.573 220.875 L 370.083 221.417 370.625 220.927 C 371.130 220.471,371.243 220.333,371.115 220.333 C 371.086 220.333,370.842 220.577,370.573 220.875 M33.083 222.833 C 34.364 224.117,35.450 225.167,35.496 225.167 C 35.541 225.167,34.531 224.117,33.250 222.833 C 31.969 221.550,30.884 220.500,30.838 220.500 C 30.792 220.500,31.802 221.550,33.083 222.833 M368.573 223.042 L 368.083 223.583 368.625 223.094 C 369.130 222.638,369.243 222.500,369.115 222.500 C 369.086 222.500,368.842 222.744,368.573 223.042 M185.583 222.833 C 185.767 222.912,186.029 222.977,186.167 222.977 C 186.324 222.977,186.293 222.924,186.083 222.833 C 185.900 222.755,185.637 222.690,185.500 222.690 C 185.342 222.690,185.373 222.743,185.583 222.833 M198.583 226.500 C 198.767 226.579,199.029 226.643,199.167 226.643 C 199.324 226.643,199.293 226.590,199.083 226.500 C 198.900 226.421,198.637 226.357,198.500 226.357 C 198.342 226.357,198.373 226.410,198.583 226.500 M200.917 227.167 C 201.100 227.245,201.362 227.310,201.500 227.310 C 201.658 227.310,201.627 227.257,201.417 227.167 C 201.233 227.088,200.971 227.023,200.833 227.023 C 200.676 227.023,200.707 227.076,200.917 227.167 M364.075 227.875 L 363.417 228.583 364.125 227.925 C 364.784 227.312,364.910 227.167,364.784 227.167 C 364.757 227.167,364.438 227.485,364.075 227.875 M40.664 230.208 C 42.752 232.337,43.000 232.576,43.000 232.456 C 43.000 232.432,41.969 231.401,40.708 230.164 L 38.417 227.917 40.664 230.208 M357.324 235.125 L 356.750 235.750 357.375 235.176 C 357.719 234.860,358.000 234.578,358.000 234.551 C 358.000 234.423,357.859 234.543,357.324 235.125 M48.417 237.833 C 49.514 238.933,50.449 239.833,50.495 239.833 C 50.541 239.833,49.680 238.933,48.583 237.833 C 47.486 236.733,46.551 235.833,46.505 235.833 C 46.459 235.833,47.320 236.733,48.417 237.833 M52.326 241.708 C 52.735 242.144,53.091 242.500,53.118 242.500 C 53.243 242.500,53.111 242.350,52.375 241.660 L 51.583 240.917 52.326 241.708 M350.573 242.375 L 350.083 242.917 350.625 242.427 C 351.130 241.971,351.243 241.833,351.115 241.833 C 351.086 241.833,350.842 242.077,350.573 242.375 M56.000 245.250 C 57.143 246.396,58.116 247.333,58.162 247.333 C 58.207 247.333,57.310 246.396,56.167 245.250 C 55.024 244.104,54.051 243.167,54.005 243.167 C 53.959 243.167,54.857 244.104,56.000 245.250 M59.667 248.917 C 60.257 249.512,60.778 250.000,60.824 250.000 C 60.870 250.000,60.424 249.512,59.833 248.917 C 59.243 248.321,58.722 247.833,58.676 247.833 C 58.630 247.833,59.076 248.321,59.667 248.917 M63.583 252.667 C 64.589 253.675,65.448 254.500,65.494 254.500 C 65.540 254.500,64.755 253.675,63.750 252.667 C 62.745 251.658,61.885 250.833,61.839 250.833 C 61.793 250.833,62.578 251.658,63.583 252.667 M67.000 256.083 C 67.775 256.862,68.447 257.500,68.493 257.500 C 68.538 257.500,67.942 256.862,67.167 256.083 C 66.392 255.304,65.720 254.667,65.674 254.667 C 65.628 254.667,66.225 255.304,67.000 256.083 M153.542 256.917 C 153.544 257.283,153.578 257.414,153.618 257.206 C 153.658 256.999,153.656 256.699,153.615 256.540 C 153.573 256.380,153.540 256.550,153.542 256.917 M97.220 257.500 C 97.220 258.096,97.250 258.340,97.287 258.042 C 97.324 257.744,97.324 257.256,97.287 256.958 C 97.250 256.660,97.220 256.904,97.220 257.500 M97.379 259.833 C 97.379 260.246,97.411 260.415,97.451 260.208 C 97.491 260.002,97.491 259.665,97.451 259.458 C 97.411 259.252,97.379 259.421,97.379 259.833 M73.417 262.333 C 74.789 263.708,75.950 264.833,75.996 264.833 C 76.042 264.833,74.956 263.708,73.583 262.333 C 72.211 260.958,71.050 259.833,71.004 259.833 C 70.958 259.833,72.044 260.958,73.417 262.333 M97.539 261.667 C 97.539 261.987,97.573 262.119,97.615 261.958 C 97.657 261.798,97.657 261.535,97.615 261.375 C 97.573 261.215,97.539 261.346,97.539 261.667 M81.167 269.917 C 82.493 271.246,83.617 272.333,83.662 272.333 C 83.708 272.333,82.660 271.246,81.333 269.917 C 80.007 268.587,78.883 267.500,78.838 267.500 C 78.792 267.500,79.840 268.587,81.167 269.917 M156.833 268.560 C 156.833 268.741,157.828 270.667,157.921 270.667 C 157.967 270.667,157.770 270.198,157.483 269.625 C 156.938 268.539,156.833 268.367,156.833 268.560 M323.573 271.375 L 323.083 271.917 323.625 271.427 C 324.130 270.971,324.243 270.833,324.115 270.833 C 324.086 270.833,323.842 271.077,323.573 271.375 M88.664 277.208 C 90.752 279.337,91.000 279.576,91.000 279.456 C 91.000 279.432,89.969 278.401,88.708 277.164 L 86.417 274.917 88.664 277.208 M100.523 275.833 C 100.523 275.971,100.588 276.233,100.667 276.417 C 100.757 276.627,100.810 276.658,100.810 276.500 C 100.810 276.362,100.745 276.100,100.667 275.917 C 100.576 275.707,100.523 275.676,100.523 275.833 M316.991 278.458 L 316.417 279.083 317.042 278.509 C 317.385 278.193,317.667 277.912,317.667 277.884 C 317.667 277.757,317.526 277.877,316.991 278.458 M163.500 278.379 C 163.500 278.404,164.081 278.986,164.792 279.671 L 166.083 280.917 164.838 279.625 C 163.680 278.425,163.500 278.257,163.500 278.379 M92.583 281.167 C 93.035 281.625,93.442 282.000,93.487 282.000 C 93.533 282.000,93.201 281.625,92.750 281.167 C 92.299 280.708,91.892 280.333,91.846 280.333 C 91.800 280.333,92.132 280.708,92.583 281.167 M246.500 282.083 C 246.095 282.496,245.801 282.833,245.847 282.833 C 245.893 282.833,246.262 282.496,246.667 282.083 C 247.072 281.671,247.365 281.333,247.319 281.333 C 247.274 281.333,246.905 281.671,246.500 282.083 M96.500 284.917 C 97.827 286.246,98.950 287.333,98.996 287.333 C 99.042 287.333,97.993 286.246,96.667 284.917 C 95.340 283.587,94.217 282.500,94.171 282.500 C 94.125 282.500,95.173 283.587,96.500 284.917 M310.240 285.708 L 309.750 286.250 310.292 285.760 C 310.797 285.304,310.910 285.167,310.781 285.167 C 310.752 285.167,310.509 285.410,310.240 285.708 M100.000 288.417 C 100.498 288.921,100.943 289.333,100.989 289.333 C 101.034 289.333,100.665 288.921,100.167 288.417 C 99.669 287.912,99.224 287.500,99.178 287.500 C 99.132 287.500,99.502 287.912,100.000 288.417 M179.333 289.750 C 179.563 289.881,179.825 289.988,179.917 289.988 C 180.008 289.988,179.896 289.881,179.667 289.750 C 179.438 289.619,179.175 289.512,179.083 289.512 C 178.992 289.512,179.104 289.619,179.333 289.750 M105.167 293.417 C 107.044 295.296,108.618 296.833,108.664 296.833 C 108.709 296.833,107.211 295.296,105.333 293.417 C 103.456 291.537,101.882 290.000,101.836 290.000 C 101.791 290.000,103.289 291.537,105.167 293.417 M303.491 292.958 L 302.917 293.583 303.542 293.009 C 303.885 292.693,304.167 292.412,304.167 292.384 C 304.167 292.257,304.026 292.377,303.491 292.958 M111.000 299.046 C 111.000 299.071,111.581 299.652,112.292 300.338 L 113.583 301.583 112.338 300.292 C 111.180 299.092,111.000 298.924,111.000 299.046 " stroke="none" fill="#2b6beb" fill-rule="evenodd"></path><path id="path4" d="M107.666 112.375 L 106.630 113.583 107.700 112.438 L 108.770 111.292 109.343 111.586 C 109.659 111.748,109.972 111.963,110.039 112.065 C 110.125 112.195,110.162 112.189,110.164 112.045 C 110.166 111.878,109.040 111.167,108.774 111.167 C 108.734 111.167,108.235 111.710,107.666 112.375 M294.125 111.844 C 293.188 112.328,292.999 112.543,293.331 112.749 C 293.422 112.805,293.458 112.751,293.411 112.629 C 293.249 112.206,295.057 111.468,295.430 111.805 C 295.724 112.070,295.724 112.065,295.427 111.708 C 295.255 111.502,295.108 111.337,295.099 111.341 C 295.090 111.346,294.652 111.572,294.125 111.844 M296.395 113.048 C 296.842 113.572,297.243 114.000,297.286 114.000 C 297.398 114.000,296.009 112.359,295.777 112.216 C 295.670 112.150,295.949 112.525,296.395 113.048 M293.750 113.500 C 293.892 113.775,294.046 114.000,294.092 114.000 C 294.138 114.000,294.059 113.775,293.917 113.500 C 293.774 113.225,293.621 113.000,293.575 113.000 C 293.529 113.000,293.608 113.225,293.750 113.500 M105.991 114.292 L 105.417 114.917 106.042 114.342 C 106.623 113.808,106.743 113.667,106.616 113.667 C 106.588 113.667,106.307 113.948,105.991 114.292 M297.500 114.385 C 297.500 114.414,297.744 114.658,298.042 114.927 L 298.583 115.417 298.094 114.875 C 297.638 114.370,297.500 114.257,297.500 114.385 M194.750 114.852 C 191.621 115.049,191.336 115.146,194.250 115.023 C 195.625 114.964,199.075 114.919,201.917 114.921 C 205.007 114.924,206.481 114.880,205.583 114.814 C 203.551 114.662,197.410 114.684,194.750 114.852 M104.824 115.625 L 104.250 116.250 104.875 115.676 C 105.457 115.141,105.577 115.000,105.449 115.000 C 105.422 115.000,105.140 115.281,104.824 115.625 M209.000 115.150 C 211.203 115.415,212.298 115.493,211.583 115.336 C 211.217 115.255,210.242 115.151,209.417 115.105 C 208.159 115.034,208.092 115.041,209.000 115.150 M190.544 115.286 C 190.797 115.325,191.172 115.324,191.377 115.284 C 191.582 115.244,191.375 115.213,190.917 115.214 C 190.458 115.216,190.291 115.248,190.544 115.286 M189.127 115.451 C 189.334 115.491,189.634 115.490,189.794 115.448 C 189.953 115.406,189.783 115.374,189.417 115.375 C 189.050 115.377,188.920 115.411,189.127 115.451 M214.750 116.000 C 215.455 116.179,216.060 116.179,215.500 116.000 C 215.271 115.927,214.896 115.868,214.667 115.870 C 214.292 115.872,214.301 115.886,214.750 116.000 M103.658 116.958 L 103.083 117.583 103.708 117.009 C 104.052 116.693,104.333 116.412,104.333 116.384 C 104.333 116.257,104.192 116.377,103.658 116.958 M107.198 117.425 C 106.696 118.458,106.752 118.603,107.269 117.609 C 107.500 117.164,107.661 116.772,107.626 116.737 C 107.591 116.702,107.399 117.012,107.198 117.425 M218.417 116.833 C 218.600 116.912,218.862 116.977,219.000 116.977 C 219.158 116.977,219.127 116.924,218.917 116.833 C 218.733 116.755,218.471 116.690,218.333 116.690 C 218.176 116.690,218.207 116.743,218.417 116.833 M219.583 117.141 C 220.099 117.362,220.963 117.532,220.667 117.355 C 220.529 117.272,220.154 117.158,219.833 117.102 C 219.440 117.032,219.358 117.045,219.583 117.141 M300.167 117.552 C 300.167 117.581,300.410 117.825,300.708 118.094 L 301.250 118.583 300.760 118.042 C 300.304 117.537,300.167 117.423,300.167 117.552 M102.491 118.292 L 101.917 118.917 102.542 118.342 C 103.123 117.808,103.243 117.667,103.116 117.667 C 103.088 117.667,102.807 117.948,102.491 118.292 M176.371 118.368 C 175.888 118.558,175.520 118.742,175.554 118.776 C 175.588 118.810,176.096 118.653,176.683 118.427 C 177.270 118.201,177.637 118.017,177.500 118.019 C 177.362 118.020,176.854 118.177,176.371 118.368 M296.233 118.167 C 296.372 118.664,297.386 120.836,297.450 120.773 C 297.485 120.737,297.210 120.080,296.839 119.312 C 296.467 118.545,296.194 118.029,296.233 118.167 M106.527 118.924 C 106.248 119.537,106.301 119.667,106.603 119.110 C 106.744 118.850,106.828 118.606,106.790 118.568 C 106.752 118.530,106.634 118.690,106.527 118.924 M225.651 119.245 C 226.330 119.571,226.921 119.802,226.963 119.759 C 227.006 119.716,226.627 119.498,226.121 119.274 C 224.642 118.619,224.303 118.599,225.651 119.245 M301.167 118.719 C 301.167 118.748,301.410 118.991,301.708 119.260 L 302.250 119.750 301.760 119.208 C 301.304 118.703,301.167 118.590,301.167 118.719 M101.240 119.708 L 100.750 120.250 101.292 119.760 C 101.797 119.304,101.910 119.167,101.781 119.167 C 101.752 119.167,101.509 119.410,101.240 119.708 M227.500 120.080 C 227.500 120.125,228.100 120.465,228.833 120.833 C 229.567 121.202,230.167 121.466,230.167 121.420 C 230.167 121.375,229.567 121.035,228.833 120.667 C 228.100 120.298,227.500 120.034,227.500 120.080 M100.240 120.875 L 99.750 121.417 100.292 120.927 C 100.797 120.471,100.910 120.333,100.781 120.333 C 100.752 120.333,100.509 120.577,100.240 120.875 M170.958 120.845 C 170.615 121.026,170.333 121.212,170.333 121.257 C 170.333 121.303,170.633 121.187,171.000 121.000 C 171.367 120.813,171.667 120.624,171.667 120.580 C 171.667 120.471,171.665 120.471,170.958 120.845 M169.164 121.939 C 168.172 122.596,167.604 123.088,168.417 122.586 C 169.781 121.743,170.339 121.333,170.123 121.333 C 170.099 121.333,169.667 121.606,169.164 121.939 M99.158 122.125 L 98.583 122.750 99.208 122.176 C 99.790 121.641,99.910 121.500,99.783 121.500 C 99.755 121.500,99.474 121.781,99.158 122.125 M230.343 121.558 C 230.554 121.786,233.387 123.502,233.449 123.440 C 233.485 123.403,233.043 123.075,232.466 122.711 C 231.408 122.044,230.171 121.372,230.343 121.558 M303.833 121.885 C 303.833 121.914,304.077 122.158,304.375 122.427 L 304.917 122.917 304.427 122.375 C 303.971 121.870,303.833 121.757,303.833 121.885 M233.750 123.786 C 233.842 123.874,234.667 124.551,235.583 125.289 C 238.336 127.506,241.362 130.718,243.150 133.321 C 243.617 134.002,244.000 134.481,244.000 134.384 C 244.000 133.501,238.592 127.531,235.500 125.000 C 234.209 123.944,233.157 123.214,233.750 123.786 M96.740 124.875 L 96.250 125.417 96.792 124.927 C 97.090 124.658,97.333 124.414,97.333 124.385 C 97.333 124.257,97.196 124.370,96.740 124.875 M164.577 125.542 L 163.750 126.417 164.625 125.590 C 165.438 124.821,165.576 124.667,165.452 124.667 C 165.426 124.667,165.032 125.060,164.577 125.542 M307.500 126.167 C 307.976 126.717,308.404 127.167,308.450 127.167 C 308.495 127.167,308.143 126.717,307.667 126.167 C 307.190 125.617,306.763 125.167,306.717 125.167 C 306.671 125.167,307.024 125.617,307.500 126.167 M95.658 126.125 L 95.083 126.750 95.708 126.176 C 96.290 125.641,96.410 125.500,96.283 125.500 C 96.255 125.500,95.974 125.781,95.658 126.125 M103.848 126.348 C 103.736 126.725,103.674 127.063,103.712 127.101 C 103.749 127.138,103.872 126.861,103.985 126.485 C 104.098 126.109,104.159 125.770,104.122 125.733 C 104.084 125.695,103.961 125.972,103.848 126.348 M162.132 128.042 C 161.322 129.015,160.837 129.672,161.114 129.417 C 161.427 129.130,163.016 127.167,162.936 127.167 C 162.894 127.167,162.532 127.560,162.132 128.042 M300.026 127.667 C 300.026 127.804,300.164 128.292,300.333 128.750 C 300.502 129.208,300.641 129.471,300.641 129.333 C 300.641 129.196,300.502 128.708,300.333 128.250 C 300.164 127.792,300.026 127.529,300.026 127.667 M103.250 128.500 C 103.187 128.788,103.170 129.059,103.212 129.101 C 103.255 129.143,103.337 128.939,103.396 128.646 C 103.454 128.353,103.471 128.083,103.434 128.045 C 103.396 128.007,103.313 128.212,103.250 128.500 M93.239 128.875 C 92.172 130.047,91.758 130.547,91.941 130.443 C 92.046 130.384,92.522 129.885,92.999 129.334 C 93.909 128.284,94.087 127.944,93.239 128.875 M310.333 129.500 C 310.810 130.050,311.237 130.500,311.283 130.500 C 311.329 130.500,310.976 130.050,310.500 129.500 C 310.024 128.950,309.596 128.500,309.550 128.500 C 309.505 128.500,309.857 128.950,310.333 129.500 M300.692 129.833 C 300.692 129.971,300.793 130.346,300.917 130.667 C 301.040 130.987,301.141 131.137,301.141 131.000 C 301.141 130.862,301.040 130.487,300.917 130.167 C 300.793 129.846,300.692 129.696,300.692 129.833 M159.078 132.510 C 158.604 133.447,158.257 134.299,158.415 134.141 C 158.573 133.983,159.663 131.667,159.580 131.667 C 159.539 131.667,159.313 132.046,159.078 132.510 M89.824 132.792 L 89.250 133.417 89.875 132.842 C 90.457 132.308,90.577 132.167,90.449 132.167 C 90.422 132.167,90.140 132.448,89.824 132.792 M314.000 133.833 C 314.476 134.383,314.904 134.833,314.950 134.833 C 314.995 134.833,314.643 134.383,314.167 133.833 C 313.690 133.283,313.263 132.833,313.217 132.833 C 313.171 132.833,313.524 133.283,314.000 133.833 M88.740 134.042 L 88.250 134.583 88.792 134.094 C 89.090 133.825,89.333 133.581,89.333 133.552 C 89.333 133.423,89.196 133.537,88.740 134.042 M244.197 134.750 C 244.326 135.135,245.677 137.667,245.754 137.667 C 245.848 137.667,244.616 135.220,244.328 134.833 C 244.225 134.696,244.166 134.658,244.197 134.750 M157.853 135.350 C 157.750 135.643,157.672 135.966,157.678 136.067 C 157.685 136.167,157.798 135.957,157.929 135.598 C 158.060 135.239,158.139 134.917,158.103 134.881 C 158.068 134.845,157.955 135.056,157.853 135.350 M87.406 135.542 L 86.917 136.083 87.458 135.594 C 87.756 135.325,88.000 135.081,88.000 135.052 C 88.000 134.923,87.862 135.037,87.406 135.542 M315.833 136.052 C 315.833 136.081,316.077 136.325,316.375 136.594 L 316.917 137.083 316.427 136.542 C 315.971 136.037,315.833 135.923,315.833 136.052 M86.324 136.792 L 85.750 137.417 86.375 136.842 C 86.719 136.526,87.000 136.245,87.000 136.217 C 87.000 136.090,86.859 136.210,86.324 136.792 M317.667 138.167 C 318.143 138.717,318.570 139.167,318.616 139.167 C 318.662 139.167,318.310 138.717,317.833 138.167 C 317.357 137.617,316.930 137.167,316.884 137.167 C 316.838 137.167,317.190 137.617,317.667 138.167 M85.240 138.042 L 84.750 138.583 85.292 138.094 C 85.590 137.825,85.833 137.581,85.833 137.552 C 85.833 137.423,85.696 137.537,85.240 138.042 M245.845 137.917 C 245.845 138.008,245.952 138.271,246.083 138.500 C 246.214 138.729,246.322 138.842,246.322 138.750 C 246.322 138.658,246.214 138.396,246.083 138.167 C 245.952 137.938,245.845 137.825,245.845 137.917 M101.539 139.167 C 101.539 139.487,101.573 139.619,101.615 139.458 C 101.657 139.298,101.657 139.035,101.615 138.875 C 101.573 138.715,101.539 138.846,101.539 139.167 M82.333 141.333 C 81.764 141.975,81.337 142.500,81.382 142.500 C 81.428 142.500,81.931 141.975,82.500 141.333 C 83.069 140.692,83.497 140.167,83.451 140.167 C 83.405 140.167,82.902 140.692,82.333 141.333 M319.500 140.385 C 319.500 140.414,319.744 140.658,320.042 140.927 L 320.583 141.417 320.094 140.875 C 319.638 140.370,319.500 140.257,319.500 140.385 M101.383 141.667 C 101.383 142.171,101.415 142.377,101.453 142.125 C 101.491 141.873,101.491 141.460,101.453 141.208 C 101.415 140.956,101.383 141.162,101.383 141.667 M321.659 142.895 C 322.218 143.570,322.837 144.264,323.034 144.436 C 323.231 144.609,322.807 144.056,322.091 143.208 C 321.375 142.360,320.757 141.667,320.717 141.667 C 320.676 141.667,321.101 142.219,321.659 142.895 M80.491 143.458 L 79.917 144.083 80.542 143.509 C 81.123 142.974,81.243 142.833,81.116 142.833 C 81.088 142.833,80.807 143.115,80.491 143.458 M156.393 144.333 C 156.393 145.204,156.422 145.560,156.456 145.125 C 156.490 144.690,156.490 143.977,156.456 143.542 C 156.422 143.106,156.393 143.462,156.393 144.333 M303.705 143.667 C 303.705 143.987,303.740 144.119,303.782 143.958 C 303.823 143.798,303.823 143.535,303.782 143.375 C 303.740 143.215,303.705 143.346,303.705 143.667 M248.178 143.667 C 248.172 143.712,248.392 144.639,248.667 145.726 C 248.942 146.813,249.175 147.863,249.186 148.059 C 249.200 148.327,249.224 148.346,249.280 148.134 C 249.321 147.979,249.167 147.079,248.939 146.134 C 248.570 144.611,248.206 143.431,248.178 143.667 M79.324 144.792 L 78.750 145.417 79.375 144.842 C 79.957 144.308,80.077 144.167,79.949 144.167 C 79.922 144.167,79.640 144.448,79.324 144.792 M303.869 144.917 C 303.865 145.192,303.921 145.792,303.992 146.250 C 304.098 146.931,304.124 146.977,304.132 146.500 C 304.137 146.179,304.082 145.579,304.009 145.167 C 303.911 144.621,303.873 144.553,303.869 144.917 M78.240 146.042 L 77.750 146.583 78.292 146.094 C 78.797 145.638,78.910 145.500,78.781 145.500 C 78.752 145.500,78.509 145.744,78.240 146.042 M325.000 146.833 C 325.383 147.291,325.784 147.719,325.890 147.784 C 325.996 147.850,325.718 147.475,325.271 146.952 C 324.825 146.428,324.424 146.000,324.381 146.000 C 324.338 146.000,324.616 146.375,325.000 146.833 M77.158 147.292 L 76.583 147.917 77.208 147.342 C 77.790 146.808,77.910 146.667,77.783 146.667 C 77.755 146.667,77.474 146.948,77.158 147.292 M304.285 148.917 C 304.333 149.925,304.402 150.781,304.436 150.819 C 304.542 150.935,304.473 149.151,304.330 148.083 C 304.236 147.373,304.222 147.615,304.285 148.917 M101.387 148.500 C 101.387 149.096,101.417 149.340,101.454 149.042 C 101.491 148.744,101.491 148.256,101.454 147.958 C 101.417 147.660,101.387 147.904,101.387 148.500 M74.229 150.617 C 73.599 151.323,73.169 151.848,73.273 151.785 C 73.510 151.641,75.564 149.333,75.454 149.333 C 75.410 149.333,74.859 149.911,74.229 150.617 M328.666 151.166 C 329.050 151.624,329.450 152.052,329.557 152.118 C 329.663 152.183,329.385 151.808,328.938 151.285 C 328.492 150.762,328.091 150.333,328.048 150.333 C 328.004 150.333,328.283 150.708,328.666 151.166 M101.542 151.417 C 101.544 151.783,101.578 151.914,101.618 151.706 C 101.658 151.499,101.656 151.199,101.615 151.040 C 101.573 150.880,101.540 151.050,101.542 151.417 M304.555 152.417 C 304.555 153.058,304.586 153.300,304.622 152.955 C 304.658 152.609,304.657 152.084,304.620 151.788 C 304.583 151.492,304.554 151.775,304.555 152.417 M249.875 152.417 C 249.877 152.783,249.911 152.914,249.951 152.706 C 249.991 152.499,249.990 152.199,249.948 152.040 C 249.906 151.880,249.874 152.050,249.875 152.417 M72.406 152.708 L 71.917 153.250 72.458 152.760 C 72.963 152.304,73.077 152.167,72.948 152.167 C 72.919 152.167,72.675 152.410,72.406 152.708 M70.833 154.500 C 70.264 155.142,69.837 155.667,69.882 155.667 C 69.928 155.667,70.431 155.142,71.000 154.500 C 71.569 153.858,71.997 153.333,71.951 153.333 C 71.905 153.333,71.402 153.858,70.833 154.500 M158.183 153.750 C 158.183 153.842,158.438 154.404,158.750 155.000 C 159.062 155.596,159.317 156.008,159.317 155.917 C 159.317 155.825,159.062 155.262,158.750 154.667 C 158.438 154.071,158.183 153.658,158.183 153.750 M67.229 158.617 C 66.690 159.232,66.336 159.682,66.441 159.618 C 66.677 159.475,68.397 157.500,68.287 157.500 C 68.243 157.500,67.767 158.003,67.229 158.617 M335.167 158.833 C 335.643 159.383,336.070 159.833,336.116 159.833 C 336.162 159.833,335.810 159.383,335.333 158.833 C 334.857 158.283,334.430 157.833,334.384 157.833 C 334.338 157.833,334.690 158.283,335.167 158.833 M102.703 160.333 C 102.701 160.563,102.760 160.938,102.833 161.167 C 103.013 161.727,103.013 161.122,102.833 160.417 C 102.719 159.968,102.706 159.959,102.703 160.333 M163.250 161.333 C 163.608 161.700,163.938 162.000,163.984 162.000 C 164.030 162.000,163.775 161.700,163.417 161.333 C 163.059 160.967,162.728 160.667,162.682 160.667 C 162.637 160.667,162.892 160.967,163.250 161.333 M337.000 161.052 C 337.000 161.081,337.244 161.325,337.542 161.594 L 338.083 162.083 337.594 161.542 C 337.138 161.037,337.000 160.923,337.000 161.052 M64.406 161.875 C 63.339 163.047,62.925 163.547,63.108 163.443 C 63.213 163.384,63.689 162.885,64.166 162.334 C 65.076 161.284,65.253 160.944,64.406 161.875 M164.826 162.708 C 165.235 163.144,165.591 163.500,165.618 163.500 C 165.743 163.500,165.611 163.350,164.875 162.660 L 164.083 161.917 164.826 162.708 M338.000 162.219 C 338.000 162.248,338.244 162.491,338.542 162.760 L 339.083 163.250 338.594 162.708 C 338.138 162.203,338.000 162.090,338.000 162.219 M103.194 162.750 C 103.192 163.105,103.622 164.532,103.646 164.250 C 103.654 164.158,103.556 163.708,103.428 163.250 C 103.301 162.792,103.196 162.567,103.194 162.750 M62.073 164.542 L 61.583 165.083 62.125 164.594 C 62.630 164.138,62.743 164.000,62.615 164.000 C 62.586 164.000,62.342 164.244,62.073 164.542 M340.667 165.333 C 341.143 165.883,341.570 166.333,341.616 166.333 C 341.662 166.333,341.310 165.883,340.833 165.333 C 340.357 164.783,339.930 164.333,339.884 164.333 C 339.838 164.333,340.190 164.783,340.667 165.333 M167.707 165.097 C 167.761 165.185,168.163 165.513,168.599 165.827 C 169.035 166.140,169.347 166.324,169.293 166.236 C 169.239 166.148,168.837 165.820,168.401 165.507 C 167.965 165.194,167.653 165.009,167.707 165.097 M103.857 165.333 C 103.857 165.471,103.921 165.733,104.000 165.917 C 104.090 166.127,104.143 166.158,104.143 166.000 C 104.143 165.862,104.079 165.600,104.000 165.417 C 103.910 165.207,103.857 165.176,103.857 165.333 M60.333 166.500 C 59.764 167.142,59.337 167.667,59.382 167.667 C 59.428 167.667,59.931 167.142,60.500 166.500 C 61.069 165.858,61.497 165.333,61.451 165.333 C 61.405 165.333,60.902 165.858,60.333 166.500 M343.299 168.458 C 343.664 168.894,344.278 169.587,344.662 170.000 C 345.047 170.412,344.788 170.056,344.086 169.208 C 343.385 168.360,342.771 167.667,342.723 167.667 C 342.675 167.667,342.934 168.023,343.299 168.458 M58.658 168.458 L 58.083 169.083 58.708 168.509 C 59.290 167.974,59.410 167.833,59.283 167.833 C 59.255 167.833,58.974 168.115,58.658 168.458 M172.917 168.623 C 173.008 168.719,173.533 169.042,174.083 169.342 C 174.633 169.642,175.008 169.812,174.917 169.719 C 174.825 169.626,174.300 169.303,173.750 169.000 C 173.200 168.697,172.825 168.528,172.917 168.623 M57.491 169.792 L 56.917 170.417 57.542 169.842 C 58.123 169.308,58.243 169.167,58.116 169.167 C 58.088 169.167,57.807 169.448,57.491 169.792 M56.324 171.125 L 55.750 171.750 56.375 171.176 C 56.957 170.641,57.077 170.500,56.949 170.500 C 56.922 170.500,56.640 170.781,56.324 171.125 M55.158 172.458 L 54.583 173.083 55.208 172.509 C 55.790 171.974,55.910 171.833,55.783 171.833 C 55.755 171.833,55.474 172.115,55.158 172.458 M179.667 172.083 C 179.896 172.214,180.158 172.322,180.250 172.322 C 180.342 172.322,180.229 172.214,180.000 172.083 C 179.771 171.952,179.508 171.845,179.417 171.845 C 179.325 171.845,179.438 171.952,179.667 172.083 M347.167 173.000 C 347.643 173.550,348.070 174.000,348.116 174.000 C 348.162 174.000,347.810 173.550,347.333 173.000 C 346.857 172.450,346.430 172.000,346.384 172.000 C 346.338 172.000,346.690 172.450,347.167 173.000 M106.345 172.583 C 106.345 172.675,106.452 172.938,106.583 173.167 C 106.714 173.396,106.822 173.508,106.822 173.417 C 106.822 173.325,106.714 173.063,106.583 172.833 C 106.452 172.604,106.345 172.492,106.345 172.583 M53.906 173.875 L 53.417 174.417 53.958 173.927 C 54.463 173.471,54.577 173.333,54.448 173.333 C 54.419 173.333,54.175 173.577,53.906 173.875 M106.848 173.750 C 106.848 173.842,107.029 174.254,107.250 174.667 C 107.471 175.079,107.652 175.342,107.652 175.250 C 107.652 175.158,107.471 174.746,107.250 174.333 C 107.029 173.921,106.848 173.658,106.848 173.750 M52.906 175.042 L 52.417 175.583 52.958 175.094 C 53.463 174.638,53.577 174.500,53.448 174.500 C 53.419 174.500,53.175 174.744,52.906 175.042 M188.349 175.231 C 188.478 175.369,191.342 176.337,191.573 176.321 C 191.670 176.314,191.126 176.092,190.362 175.828 C 188.527 175.193,188.231 175.105,188.349 175.231 M51.742 176.375 L 51.083 177.083 51.792 176.425 C 52.450 175.812,52.577 175.667,52.450 175.667 C 52.423 175.667,52.105 175.985,51.742 176.375 M108.417 177.000 C 108.559 177.275,108.713 177.500,108.759 177.500 C 108.804 177.500,108.726 177.275,108.583 177.000 C 108.441 176.725,108.287 176.500,108.241 176.500 C 108.196 176.500,108.274 176.725,108.417 177.000 M50.491 177.792 L 49.917 178.417 50.542 177.842 C 51.123 177.308,51.243 177.167,51.116 177.167 C 51.088 177.167,50.807 177.448,50.491 177.792 M350.833 177.385 C 350.833 177.414,351.077 177.658,351.375 177.927 L 351.917 178.417 351.427 177.875 C 350.971 177.370,350.833 177.257,350.833 177.385 M48.833 179.667 C 48.264 180.308,47.837 180.833,47.882 180.833 C 47.928 180.833,48.431 180.308,49.000 179.667 C 49.569 179.025,49.997 178.500,49.951 178.500 C 49.905 178.500,49.402 179.025,48.833 179.667 M200.917 179.333 C 201.100 179.412,201.362 179.477,201.500 179.477 C 201.658 179.477,201.627 179.424,201.417 179.333 C 201.233 179.255,200.971 179.190,200.833 179.190 C 200.676 179.190,200.707 179.243,200.917 179.333 M202.333 179.750 C 202.654 179.874,203.029 179.975,203.167 179.975 C 203.304 179.975,203.154 179.874,202.833 179.750 C 202.512 179.626,202.137 179.525,202.000 179.525 C 201.862 179.525,202.012 179.626,202.333 179.750 M353.667 180.667 C 354.143 181.217,354.570 181.667,354.616 181.667 C 354.662 181.667,354.310 181.217,353.833 180.667 C 353.357 180.117,352.930 179.667,352.884 179.667 C 352.838 179.667,353.190 180.117,353.667 180.667 M204.250 180.333 C 204.433 180.412,204.696 180.477,204.833 180.477 C 204.991 180.477,204.960 180.424,204.750 180.333 C 204.567 180.255,204.304 180.190,204.167 180.190 C 204.009 180.190,204.040 180.243,204.250 180.333 M110.782 181.013 C 110.948 181.295,111.190 181.614,111.320 181.721 C 111.450 181.829,111.346 181.598,111.090 181.208 C 110.550 180.390,110.337 180.255,110.782 181.013 M45.395 183.617 C 44.765 184.323,44.335 184.848,44.440 184.785 C 44.677 184.641,46.730 182.333,46.621 182.333 C 46.577 182.333,46.025 182.911,45.395 183.617 M213.250 183.000 C 213.433 183.079,213.696 183.143,213.833 183.143 C 213.991 183.143,213.960 183.090,213.750 183.000 C 213.567 182.921,213.304 182.857,213.167 182.857 C 213.009 182.857,213.040 182.910,213.250 183.000 M355.500 182.885 C 355.500 182.914,355.744 183.158,356.042 183.427 L 356.583 183.917 356.094 183.375 C 355.638 182.870,355.500 182.757,355.500 182.885 M214.417 183.333 C 214.600 183.412,214.862 183.477,215.000 183.477 C 215.158 183.477,215.127 183.424,214.917 183.333 C 214.733 183.255,214.471 183.190,214.333 183.190 C 214.176 183.190,214.207 183.243,214.417 183.333 M215.583 183.667 C 215.767 183.745,216.067 183.808,216.250 183.805 C 216.518 183.801,216.502 183.774,216.167 183.667 C 215.597 183.484,215.159 183.484,215.583 183.667 M113.167 184.333 C 113.457 184.700,113.732 185.000,113.778 185.000 C 113.824 185.000,113.624 184.700,113.333 184.333 C 113.043 183.967,112.768 183.667,112.722 183.667 C 112.676 183.667,112.876 183.967,113.167 184.333 M357.750 185.500 C 358.450 186.325,359.060 187.000,359.106 187.000 C 359.152 187.000,358.617 186.325,357.917 185.500 C 357.217 184.675,356.607 184.000,356.561 184.000 C 356.515 184.000,357.050 184.675,357.750 185.500 M114.522 185.997 C 114.923 186.499,115.764 187.437,116.393 188.080 C 117.487 189.200,117.479 189.186,116.202 187.750 C 114.138 185.428,113.732 185.005,114.522 185.997 M225.750 186.500 C 225.933 186.579,226.196 186.643,226.333 186.643 C 226.491 186.643,226.460 186.590,226.250 186.500 C 226.067 186.421,225.804 186.357,225.667 186.357 C 225.509 186.357,225.540 186.410,225.750 186.500 M42.406 187.042 L 41.917 187.583 42.458 187.094 C 42.756 186.825,43.000 186.581,43.000 186.552 C 43.000 186.423,42.862 186.537,42.406 187.042 M227.583 187.002 C 228.133 187.182,228.658 187.325,228.750 187.319 C 229.017 187.304,227.793 186.885,227.161 186.775 C 226.843 186.720,227.033 186.822,227.583 187.002 M359.167 187.219 C 359.167 187.248,359.410 187.491,359.708 187.760 L 360.250 188.250 359.760 187.708 C 359.304 187.203,359.167 187.090,359.167 187.219 M229.250 187.500 C 229.433 187.579,229.696 187.643,229.833 187.643 C 229.991 187.643,229.960 187.590,229.750 187.500 C 229.567 187.421,229.304 187.357,229.167 187.357 C 229.009 187.357,229.040 187.410,229.250 187.500 M41.406 188.208 L 40.917 188.750 41.458 188.260 C 41.756 187.991,42.000 187.748,42.000 187.719 C 42.000 187.590,41.862 187.703,41.406 188.208 M119.164 191.042 C 120.125 192.027,120.931 192.833,120.955 192.833 C 121.076 192.833,120.872 192.620,119.208 190.997 L 117.417 189.250 119.164 191.042 M361.799 190.292 C 362.164 190.727,362.778 191.421,363.163 191.833 C 363.548 192.246,363.284 191.890,362.577 191.042 C 361.870 190.194,361.256 189.500,361.213 189.500 C 361.171 189.500,361.434 189.856,361.799 190.292 M238.917 190.500 C 239.375 190.669,239.862 190.807,240.000 190.807 C 240.137 190.807,239.875 190.669,239.417 190.500 C 238.958 190.331,238.471 190.193,238.333 190.193 C 238.196 190.193,238.458 190.331,238.917 190.500 M38.395 191.617 C 37.857 192.232,37.503 192.682,37.608 192.618 C 37.843 192.475,39.564 190.500,39.454 190.500 C 39.410 190.500,38.934 191.003,38.395 191.617 M122.660 194.375 C 123.350 195.111,123.500 195.243,123.500 195.118 C 123.500 195.091,123.144 194.735,122.708 194.326 L 121.917 193.583 122.660 194.375 M249.000 193.917 C 249.761 194.210,250.060 194.205,249.417 193.911 C 249.142 193.785,248.804 193.684,248.667 193.687 C 248.529 193.690,248.679 193.793,249.000 193.917 M365.500 194.666 C 365.883 195.124,366.284 195.552,366.390 195.618 C 366.496 195.683,366.218 195.308,365.771 194.785 C 365.325 194.262,364.924 193.833,364.881 193.833 C 364.838 193.833,365.116 194.208,365.500 194.666 M250.417 194.398 C 250.692 194.523,251.104 194.671,251.333 194.728 C 251.668 194.810,251.652 194.785,251.250 194.602 C 250.975 194.477,250.563 194.329,250.333 194.272 C 249.999 194.190,250.015 194.215,250.417 194.398 M35.572 194.875 C 34.338 196.230,34.110 196.500,34.198 196.500 C 34.250 196.500,34.721 196.012,35.244 195.417 C 36.212 194.313,36.470 193.889,35.572 194.875 M123.667 195.219 C 123.667 195.248,123.910 195.491,124.208 195.760 L 124.750 196.250 124.260 195.708 C 123.804 195.203,123.667 195.090,123.667 195.219 M124.833 196.219 C 124.833 196.248,125.077 196.491,125.375 196.760 L 125.917 197.250 125.427 196.708 C 124.971 196.203,124.833 196.090,124.833 196.219 M33.240 197.542 L 32.750 198.083 33.292 197.594 C 33.590 197.325,33.833 197.081,33.833 197.052 C 33.833 196.923,33.696 197.037,33.240 197.542 M257.847 197.233 C 257.991 197.371,260.059 198.163,260.119 198.104 C 260.153 198.069,259.690 197.844,259.089 197.604 C 258.058 197.191,257.689 197.081,257.847 197.233 M127.333 198.332 C 128.003 198.935,128.833 199.556,128.833 199.453 C 128.833 199.414,128.365 199.028,127.792 198.594 C 127.219 198.161,127.013 198.043,127.333 198.332 M368.333 198.052 C 368.333 198.081,368.577 198.325,368.875 198.594 L 369.417 199.083 368.927 198.542 C 368.471 198.037,368.333 197.923,368.333 198.052 M31.500 199.500 C 30.931 200.142,30.503 200.667,30.549 200.667 C 30.595 200.667,31.098 200.142,31.667 199.500 C 32.236 198.858,32.663 198.333,32.618 198.333 C 32.572 198.333,32.069 198.858,31.500 199.500 M29.824 201.458 L 29.250 202.083 29.875 201.509 C 30.457 200.974,30.577 200.833,30.449 200.833 C 30.422 200.833,30.140 201.115,29.824 201.458 M372.000 202.333 C 372.383 202.791,372.784 203.219,372.890 203.284 C 372.996 203.350,372.718 202.975,372.271 202.452 C 371.825 201.928,371.424 201.500,371.381 201.500 C 371.338 201.500,371.616 201.875,372.000 202.333 M268.667 202.077 C 268.667 202.122,268.967 202.313,269.333 202.500 C 269.700 202.687,270.000 202.803,270.000 202.757 C 270.000 202.711,269.700 202.520,269.333 202.333 C 268.967 202.146,268.667 202.031,268.667 202.077 M28.000 203.500 C 27.431 204.142,27.003 204.667,27.049 204.667 C 27.095 204.667,27.598 204.142,28.167 203.500 C 28.736 202.858,29.163 202.333,29.118 202.333 C 29.072 202.333,28.569 202.858,28.000 203.500 M133.250 202.586 C 133.433 202.736,133.733 202.931,133.917 203.021 L 134.250 203.185 133.917 202.914 C 133.733 202.764,133.433 202.569,133.250 202.479 L 132.917 202.315 133.250 202.586 M273.152 204.618 C 273.374 204.782,273.861 205.089,274.236 205.299 C 274.610 205.509,274.736 205.547,274.514 205.382 C 274.293 205.218,273.805 204.911,273.431 204.701 C 273.056 204.491,272.931 204.453,273.152 204.618 M26.324 205.458 L 25.750 206.083 26.375 205.509 C 26.957 204.974,27.077 204.833,26.949 204.833 C 26.922 204.833,26.640 205.115,26.324 205.458 M137.333 205.075 C 137.333 205.121,137.558 205.274,137.833 205.417 C 138.108 205.559,138.333 205.638,138.333 205.592 C 138.333 205.546,138.108 205.392,137.833 205.250 C 137.558 205.108,137.333 205.029,137.333 205.075 M138.833 205.912 C 138.833 205.958,139.283 206.222,139.833 206.500 C 140.383 206.778,140.833 206.967,140.833 206.921 C 140.833 206.876,140.383 206.611,139.833 206.333 C 139.283 206.056,138.833 205.866,138.833 205.912 M25.073 206.875 L 24.583 207.417 25.125 206.927 C 25.423 206.658,25.667 206.414,25.667 206.385 C 25.667 206.257,25.529 206.370,25.073 206.875 M376.667 207.833 C 377.143 208.383,377.570 208.833,377.616 208.833 C 377.662 208.833,377.310 208.383,376.833 207.833 C 376.357 207.283,375.930 206.833,375.884 206.833 C 375.838 206.833,376.190 207.283,376.667 207.833 M23.395 208.784 C 22.857 209.399,22.503 209.849,22.608 209.785 C 22.843 209.641,24.564 207.667,24.454 207.667 C 24.410 207.667,23.934 208.169,23.395 208.784 M278.000 207.727 C 278.000 207.773,278.225 207.971,278.500 208.167 C 278.775 208.362,279.000 208.485,279.000 208.439 C 279.000 208.394,278.775 208.196,278.500 208.000 C 278.225 207.804,278.000 207.681,278.000 207.727 M279.167 208.553 C 279.167 208.593,279.598 208.950,280.125 209.346 C 280.652 209.741,280.993 209.953,280.883 209.816 C 280.656 209.536,279.167 208.439,279.167 208.553 M145.167 209.083 C 145.396 209.214,145.658 209.322,145.750 209.322 C 145.842 209.322,145.729 209.214,145.500 209.083 C 145.271 208.952,145.008 208.845,144.917 208.845 C 144.825 208.845,144.938 208.952,145.167 209.083 M377.667 209.052 C 377.667 209.081,377.910 209.325,378.208 209.594 L 378.750 210.083 378.260 209.542 C 377.804 209.037,377.667 208.923,377.667 209.052 M146.333 209.583 C 146.563 209.714,146.825 209.822,146.917 209.822 C 147.008 209.822,146.896 209.714,146.667 209.583 C 146.438 209.452,146.175 209.345,146.083 209.345 C 145.992 209.345,146.104 209.452,146.333 209.583 M21.662 210.755 L 21.265 211.177 22.005 211.880 L 22.744 212.583 22.091 211.877 L 21.437 211.172 21.831 210.752 C 22.048 210.522,22.187 210.333,22.141 210.333 C 22.096 210.333,21.880 210.523,21.662 210.755 M282.667 211.219 C 282.667 211.265,283.042 211.616,283.500 212.000 C 283.958 212.384,284.333 212.660,284.333 212.614 C 284.333 212.569,283.958 212.217,283.500 211.833 C 283.042 211.450,282.667 211.173,282.667 211.219 M378.329 212.458 L 377.250 213.583 378.375 212.505 C 379.420 211.503,379.576 211.333,379.454 211.333 C 379.428 211.333,378.922 211.840,378.329 212.458 M23.833 213.583 C 24.424 214.179,24.945 214.667,24.990 214.667 C 25.036 214.667,24.591 214.179,24.000 213.583 C 23.409 212.987,22.889 212.500,22.843 212.500 C 22.797 212.500,23.243 212.987,23.833 213.583 M284.500 212.719 C 284.500 212.748,284.744 212.991,285.042 213.260 L 285.583 213.750 285.094 213.208 C 284.638 212.703,284.500 212.590,284.500 212.719 M155.250 213.064 C 155.525 213.190,155.938 213.338,156.167 213.394 C 156.501 213.476,156.485 213.452,156.083 213.269 C 155.808 213.144,155.396 212.995,155.167 212.939 C 154.832 212.857,154.848 212.882,155.250 213.064 M286.493 214.542 C 287.184 215.278,287.333 215.410,287.333 215.285 C 287.333 215.258,286.977 214.902,286.542 214.493 L 285.750 213.750 286.493 214.542 M374.814 216.208 C 373.679 217.423,372.882 218.313,373.043 218.187 C 373.429 217.884,377.061 214.000,376.958 214.000 C 376.914 214.000,375.949 214.994,374.814 216.208 M27.750 217.500 C 29.123 218.875,30.283 220.000,30.329 220.000 C 30.375 220.000,29.289 218.875,27.917 217.500 C 26.544 216.125,25.383 215.000,25.338 215.000 C 25.292 215.000,26.377 216.125,27.750 217.500 M289.998 217.875 C 291.234 219.135,292.265 220.167,292.289 220.167 C 292.409 220.167,292.170 219.919,290.042 217.831 L 287.750 215.583 289.998 217.875 M166.741 217.096 C 167.377 217.318,167.977 217.494,168.074 217.488 C 168.171 217.481,167.729 217.293,167.093 217.071 C 166.456 216.849,165.856 216.672,165.759 216.679 C 165.662 216.686,166.104 216.873,166.741 217.096 M371.578 219.708 L 370.583 220.750 371.625 219.755 C 372.198 219.208,372.667 218.739,372.667 218.714 C 372.667 218.590,372.502 218.741,371.578 219.708 M176.000 220.083 C 176.321 220.207,176.696 220.308,176.833 220.308 C 176.971 220.308,176.821 220.207,176.500 220.083 C 176.179 219.960,175.804 219.859,175.667 219.859 C 175.529 219.859,175.679 219.960,176.000 220.083 M30.591 220.167 C 30.695 220.405,32.000 221.612,32.000 221.471 C 32.000 221.433,31.658 221.068,31.241 220.660 C 30.823 220.251,30.530 220.029,30.591 220.167 M292.917 221.000 C 293.275 221.367,293.605 221.667,293.651 221.667 C 293.697 221.667,293.441 221.367,293.083 221.000 C 292.725 220.633,292.395 220.333,292.349 220.333 C 292.303 220.333,292.559 220.633,292.917 221.000 M177.917 220.667 C 178.100 220.745,178.362 220.810,178.500 220.810 C 178.658 220.810,178.627 220.757,178.417 220.667 C 178.233 220.588,177.971 220.523,177.833 220.523 C 177.676 220.523,177.707 220.576,177.917 220.667 M179.083 221.000 C 179.267 221.079,179.529 221.143,179.667 221.143 C 179.824 221.143,179.793 221.090,179.583 221.000 C 179.400 220.921,179.137 220.857,179.000 220.857 C 178.842 220.857,178.873 220.910,179.083 221.000 M369.078 222.375 L 368.083 223.417 369.125 222.422 C 369.698 221.875,370.167 221.406,370.167 221.380 C 370.167 221.257,370.002 221.407,369.078 222.375 M35.667 225.250 C 37.177 226.762,38.450 228.000,38.496 228.000 C 38.542 228.000,37.344 226.762,35.833 225.250 C 34.323 223.737,33.050 222.500,33.004 222.500 C 32.958 222.500,34.156 223.737,35.667 225.250 M188.083 223.667 C 188.267 223.745,188.529 223.810,188.667 223.810 C 188.824 223.810,188.793 223.757,188.583 223.667 C 188.400 223.588,188.137 223.523,188.000 223.523 C 187.842 223.523,187.873 223.576,188.083 223.667 M367.161 224.458 L 366.250 225.417 367.208 224.506 C 368.099 223.659,368.243 223.500,368.119 223.500 C 368.093 223.500,367.662 223.931,367.161 224.458 M189.250 224.000 C 189.433 224.079,189.696 224.143,189.833 224.143 C 189.991 224.143,189.960 224.090,189.750 224.000 C 189.567 223.921,189.304 223.857,189.167 223.857 C 189.009 223.857,189.040 223.910,189.250 224.000 M296.494 225.292 C 296.978 225.956,297.407 226.500,297.448 226.500 C 297.563 226.500,296.149 224.526,295.866 224.293 C 295.727 224.177,296.009 224.627,296.494 225.292 M191.083 224.500 C 191.267 224.579,191.529 224.643,191.667 224.643 C 191.824 224.643,191.793 224.590,191.583 224.500 C 191.400 224.421,191.137 224.357,191.000 224.357 C 190.842 224.357,190.873 224.410,191.083 224.500 M364.910 226.875 L 364.083 227.750 364.958 226.923 C 365.771 226.154,365.910 226.000,365.785 226.000 C 365.759 226.000,365.365 226.394,364.910 226.875 M199.917 227.000 C 200.100 227.079,200.362 227.143,200.500 227.143 C 200.658 227.143,200.627 227.090,200.417 227.000 C 200.233 226.921,199.971 226.857,199.833 226.857 C 199.676 226.857,199.707 226.910,199.917 227.000 M202.500 227.750 C 202.821 227.874,203.196 227.975,203.333 227.975 C 203.471 227.975,203.321 227.874,203.000 227.750 C 202.679 227.626,202.304 227.525,202.167 227.525 C 202.029 227.525,202.179 227.626,202.500 227.750 M203.917 228.167 C 204.100 228.245,204.362 228.310,204.500 228.310 C 204.658 228.310,204.627 228.257,204.417 228.167 C 204.233 228.088,203.971 228.023,203.833 228.023 C 203.676 228.023,203.707 228.076,203.917 228.167 M362.494 229.458 L 361.583 230.417 362.542 229.506 C 363.432 228.659,363.576 228.500,363.453 228.500 C 363.427 228.500,362.995 228.931,362.494 229.458 M43.417 232.833 C 45.065 234.483,46.451 235.833,46.497 235.833 C 46.542 235.833,45.231 234.483,43.583 232.833 C 41.935 231.183,40.549 229.833,40.503 229.833 C 40.458 229.833,41.769 231.183,43.417 232.833 M300.454 231.485 C 300.892 232.302,301.277 232.944,301.310 232.911 C 301.383 232.839,299.849 230.000,299.736 230.000 C 299.693 230.000,300.015 230.668,300.454 231.485 M360.661 231.458 L 359.750 232.417 360.708 231.506 C 361.599 230.659,361.743 230.500,361.619 230.500 C 361.593 230.500,361.162 230.931,360.661 231.458 M214.159 231.346 C 214.934 231.614,215.647 231.828,215.742 231.821 C 215.838 231.814,215.283 231.589,214.508 231.321 C 213.733 231.053,213.020 230.839,212.924 230.846 C 212.828 230.853,213.384 231.078,214.159 231.346 M358.078 234.208 L 357.083 235.250 358.125 234.255 C 358.698 233.708,359.167 233.239,359.167 233.214 C 359.167 233.090,359.002 233.241,358.078 234.208 M224.583 234.898 C 224.858 235.023,225.271 235.171,225.500 235.228 C 225.835 235.310,225.818 235.285,225.417 235.102 C 225.142 234.977,224.729 234.829,224.500 234.772 C 224.165 234.690,224.182 234.715,224.583 234.898 M226.167 235.472 C 226.304 235.557,226.604 235.676,226.833 235.738 C 227.123 235.815,227.174 235.802,227.000 235.695 C 226.862 235.610,226.563 235.490,226.333 235.429 C 226.044 235.351,225.993 235.365,226.167 235.472 M355.744 236.708 C 353.650 238.898,353.099 239.500,353.189 239.500 C 353.241 239.500,354.088 238.637,355.073 237.583 C 356.057 236.529,356.835 235.667,356.801 235.667 C 356.768 235.667,356.292 236.135,355.744 236.708 M51.000 240.250 C 52.602 241.854,53.951 243.167,53.996 243.167 C 54.042 243.167,52.769 241.854,51.167 240.250 C 49.564 238.646,48.216 237.333,48.170 237.333 C 48.124 237.333,49.398 238.646,51.000 240.250 M233.500 238.417 C 233.729 238.548,233.992 238.655,234.083 238.655 C 234.175 238.655,234.063 238.548,233.833 238.417 C 233.604 238.286,233.342 238.178,233.250 238.178 C 233.158 238.178,233.271 238.286,233.500 238.417 M234.667 238.917 C 234.896 239.048,235.158 239.155,235.250 239.155 C 235.342 239.155,235.229 239.048,235.000 238.917 C 234.771 238.786,234.508 238.678,234.417 238.678 C 234.325 238.678,234.438 238.786,234.667 238.917 M303.930 239.208 C 304.250 240.217,304.644 241.231,304.654 241.074 C 304.671 240.833,303.989 238.833,303.890 238.833 C 303.847 238.833,303.864 239.002,303.930 239.208 M351.162 241.625 L 350.083 242.750 351.208 241.671 C 352.253 240.670,352.410 240.500,352.287 240.500 C 352.261 240.500,351.755 241.006,351.162 241.625 M239.014 240.897 C 239.184 241.053,241.500 242.162,241.500 242.088 C 241.500 241.994,239.241 240.833,239.060 240.833 C 238.996 240.833,238.976 240.862,239.014 240.897 M241.750 242.288 C 241.842 242.375,242.217 242.615,242.583 242.821 C 242.950 243.027,243.100 243.071,242.917 242.918 C 242.544 242.609,241.488 242.038,241.750 242.288 M348.995 243.958 L 347.917 245.083 349.042 244.005 C 350.087 243.003,350.243 242.833,350.120 242.833 C 350.095 242.833,349.588 243.340,348.995 243.958 M58.583 247.667 C 60.323 249.408,61.784 250.833,61.830 250.833 C 61.876 250.833,60.490 249.408,58.750 247.667 C 57.010 245.925,55.549 244.500,55.503 244.500 C 55.457 244.500,56.843 245.925,58.583 247.667 M346.994 246.125 L 346.083 247.083 347.042 246.172 C 347.932 245.326,348.076 245.167,347.953 245.167 C 347.927 245.167,347.495 245.598,346.994 246.125 M247.667 246.750 C 248.257 247.346,248.778 247.833,248.824 247.833 C 248.870 247.833,248.424 247.346,247.833 246.750 C 247.243 246.154,246.722 245.667,246.676 245.667 C 246.630 245.667,247.076 246.154,247.667 246.750 M344.494 248.792 C 342.597 250.767,341.928 251.500,342.024 251.500 C 342.075 251.500,342.922 250.637,343.906 249.583 C 344.890 248.529,345.668 247.667,345.635 247.667 C 345.602 247.667,345.088 248.173,344.494 248.792 M66.667 255.583 C 68.636 257.554,70.285 259.167,70.330 259.167 C 70.376 259.167,68.803 257.554,66.833 255.583 C 64.864 253.612,63.215 252.000,63.170 252.000 C 63.124 252.000,64.697 253.612,66.667 255.583 M251.847 252.417 C 251.847 252.508,251.991 252.846,252.167 253.167 C 252.342 253.487,252.486 253.675,252.486 253.583 C 252.486 253.492,252.342 253.154,252.167 252.833 C 251.991 252.512,251.847 252.325,251.847 252.417 M307.205 252.833 C 307.205 253.154,307.240 253.285,307.282 253.125 C 307.323 252.965,307.323 252.702,307.282 252.542 C 307.240 252.381,307.205 252.512,307.205 252.833 M340.245 253.375 L 339.250 254.417 340.292 253.422 C 340.865 252.875,341.333 252.406,341.333 252.380 C 341.333 252.257,341.169 252.407,340.245 253.375 M307.372 254.167 C 307.372 254.487,307.406 254.619,307.448 254.458 C 307.490 254.298,307.490 254.035,307.448 253.875 C 307.406 253.715,307.372 253.846,307.372 254.167 M337.911 255.875 C 335.600 258.276,334.930 259.000,335.021 259.000 C 335.071 259.000,336.032 258.025,337.154 256.833 C 338.276 255.642,339.168 254.667,339.135 254.667 C 339.102 254.667,338.551 255.210,337.911 255.875 M307.548 255.917 C 307.549 256.375,307.581 256.543,307.620 256.289 C 307.658 256.036,307.657 255.661,307.617 255.456 C 307.578 255.251,307.546 255.458,307.548 255.917 M97.033 256.875 L 97.065 258.083 97.124 256.958 L 97.182 255.833 125.329 255.833 C 151.995 255.833,153.480 255.849,153.552 256.125 C 153.609 256.344,153.633 256.324,153.647 256.042 L 153.667 255.667 125.333 255.667 L 97.000 255.667 97.033 256.875 M307.798 259.750 C 307.843 261.400,307.907 262.781,307.940 262.819 C 308.044 262.939,307.965 259.140,307.838 257.917 C 307.771 257.269,307.753 258.084,307.798 259.750 M97.212 259.167 C 97.212 259.579,97.245 259.748,97.284 259.542 C 97.324 259.335,97.324 258.998,97.284 258.792 C 97.245 258.585,97.212 258.754,97.212 259.167 M70.850 259.625 C 70.860 259.694,71.253 260.085,71.725 260.494 L 72.583 261.238 71.756 260.369 C 70.911 259.481,70.821 259.407,70.850 259.625 M333.411 260.708 L 332.417 261.750 333.458 260.755 C 334.031 260.208,334.500 259.739,334.500 259.714 C 334.500 259.590,334.336 259.741,333.411 260.708 M97.372 261.000 C 97.372 261.321,97.406 261.452,97.448 261.292 C 97.490 261.131,97.490 260.869,97.448 260.708 C 97.406 260.548,97.372 260.679,97.372 261.000 M254.209 261.250 C 254.211 261.617,254.245 261.747,254.285 261.540 C 254.324 261.332,254.323 261.032,254.281 260.873 C 254.239 260.714,254.207 260.883,254.209 261.250 M154.604 262.167 C 154.662 262.487,154.776 262.900,154.856 263.083 C 154.956 263.312,154.968 263.234,154.896 262.833 C 154.838 262.512,154.724 262.100,154.644 261.917 C 154.544 261.688,154.532 261.766,154.604 262.167 M75.915 264.627 C 77.472 266.207,78.764 267.500,78.785 267.500 C 78.975 267.500,78.204 266.691,75.847 264.419 L 73.083 261.754 75.915 264.627 M331.246 263.042 L 330.083 264.250 331.292 263.088 C 332.414 262.008,332.576 261.833,332.454 261.833 C 332.428 261.833,331.885 262.377,331.246 263.042 M307.869 265.016 C 307.850 266.079,307.800 267.654,307.759 268.516 L 307.684 270.083 307.844 268.583 C 307.932 267.758,307.982 266.183,307.955 265.083 L 307.905 263.083 307.869 265.016 M155.012 263.595 C 154.995 263.847,155.524 265.365,155.602 265.287 C 155.637 265.252,155.521 264.817,155.345 264.320 C 155.169 263.823,155.019 263.497,155.012 263.595 M327.737 266.792 C 326.557 268.052,325.767 268.933,325.981 268.750 C 326.490 268.315,330.061 264.500,329.960 264.500 C 329.917 264.500,328.917 265.531,327.737 266.792 M254.205 265.500 C 254.205 265.821,254.240 265.952,254.282 265.792 C 254.323 265.631,254.323 265.369,254.282 265.208 C 254.240 265.048,254.205 265.179,254.205 265.500 M324.578 270.208 L 323.583 271.250 324.625 270.255 C 325.198 269.708,325.667 269.239,325.667 269.214 C 325.667 269.090,325.502 269.241,324.578 270.208 M83.583 272.167 C 85.140 273.725,86.450 275.000,86.496 275.000 C 86.542 275.000,85.306 273.725,83.750 272.167 C 82.194 270.608,80.883 269.333,80.837 269.333 C 80.791 269.333,82.027 270.608,83.583 272.167 M307.548 270.917 C 307.549 271.375,307.581 271.543,307.620 271.289 C 307.658 271.036,307.657 270.661,307.617 270.456 C 307.578 270.251,307.546 270.458,307.548 270.917 M158.449 271.500 C 158.706 271.959,159.057 272.502,159.228 272.709 L 159.540 273.083 159.297 272.667 C 159.164 272.438,158.848 271.894,158.595 271.458 C 158.342 271.023,158.100 270.667,158.058 270.667 C 158.015 270.667,158.191 271.042,158.449 271.500 M252.867 271.950 C 252.763 272.289,252.705 272.594,252.739 272.628 C 252.773 272.661,252.890 272.416,253.000 272.083 C 253.110 271.750,253.167 271.445,253.128 271.406 C 253.088 271.366,252.971 271.611,252.867 271.950 M307.375 272.417 C 307.377 272.783,307.411 272.914,307.451 272.706 C 307.491 272.499,307.490 272.199,307.448 272.040 C 307.406 271.880,307.374 272.050,307.375 272.417 M322.078 272.875 L 321.083 273.917 322.125 272.922 C 322.698 272.375,323.167 271.906,323.167 271.880 C 323.167 271.757,323.002 271.907,322.078 272.875 M99.437 272.500 C 99.496 272.821,99.609 273.233,99.689 273.417 C 99.789 273.645,99.802 273.567,99.729 273.167 C 99.671 272.846,99.558 272.433,99.478 272.250 C 99.377 272.021,99.365 272.100,99.437 272.500 M307.205 273.667 C 307.205 273.987,307.240 274.119,307.282 273.958 C 307.323 273.798,307.323 273.535,307.282 273.375 C 307.240 273.215,307.205 273.346,307.205 273.667 M251.947 274.258 C 251.555 275.079,251.610 275.219,252.019 274.443 C 252.205 274.090,252.328 273.772,252.292 273.736 C 252.256 273.700,252.100 273.935,251.947 274.258 M99.857 274.000 C 99.857 274.137,99.921 274.400,100.000 274.583 C 100.090 274.793,100.143 274.824,100.143 274.667 C 100.143 274.529,100.079 274.267,100.000 274.083 C 99.910 273.873,99.857 273.842,99.857 274.000 M320.078 275.042 L 319.083 276.083 320.125 275.089 C 320.698 274.541,321.167 274.073,321.167 274.047 C 321.167 273.924,321.002 274.074,320.078 275.042 M100.190 275.167 C 100.190 275.304,100.255 275.567,100.333 275.750 C 100.424 275.960,100.477 275.991,100.477 275.833 C 100.477 275.696,100.412 275.433,100.333 275.250 C 100.243 275.040,100.190 275.009,100.190 275.167 M161.856 276.331 C 162.602 277.326,165.653 280.480,166.910 281.556 C 167.463 282.029,166.782 281.292,165.397 279.917 C 164.012 278.542,162.523 277.004,162.087 276.500 C 161.483 275.801,161.429 275.761,161.856 276.331 M317.745 277.542 L 316.750 278.583 317.792 277.589 C 318.365 277.041,318.833 276.573,318.833 276.547 C 318.833 276.424,318.669 276.574,317.745 277.542 M91.250 279.667 C 92.806 281.225,94.117 282.500,94.163 282.500 C 94.209 282.500,92.973 281.225,91.417 279.667 C 89.860 278.108,88.550 276.833,88.504 276.833 C 88.458 276.833,89.694 278.108,91.250 279.667 M248.988 279.125 C 248.592 279.652,248.380 279.993,248.517 279.883 C 248.798 279.656,249.894 278.167,249.780 278.167 C 249.740 278.167,249.383 278.598,248.988 279.125 M315.411 280.042 C 313.043 282.518,312.600 283.000,312.691 283.000 C 312.745 283.000,313.630 282.100,314.660 281.000 C 315.689 279.900,316.504 279.000,316.469 279.000 C 316.435 279.000,315.959 279.469,315.411 280.042 M246.414 282.042 L 244.583 283.917 246.458 282.086 C 248.200 280.386,248.409 280.167,248.289 280.167 C 248.264 280.167,247.421 281.010,246.414 282.042 M103.348 283.750 C 103.348 283.842,103.529 284.254,103.750 284.667 C 103.971 285.079,104.152 285.342,104.152 285.250 C 104.152 285.158,103.971 284.746,103.750 284.333 C 103.529 283.921,103.348 283.658,103.348 283.750 M243.220 284.805 C 241.755 285.963,241.477 286.250,242.561 285.487 C 243.388 284.906,244.651 283.842,244.500 283.854 C 244.454 283.858,243.878 284.286,243.220 284.805 M310.828 284.958 L 309.917 285.917 310.875 285.006 C 311.402 284.505,311.833 284.073,311.833 284.047 C 311.833 283.924,311.674 284.068,310.828 284.958 M98.833 287.083 C 100.436 288.688,101.784 290.000,101.830 290.000 C 101.876 290.000,100.602 288.688,99.000 287.083 C 97.398 285.479,96.049 284.167,96.004 284.167 C 95.958 284.167,97.231 285.479,98.833 287.083 M170.500 284.407 C 170.500 284.452,171.044 284.854,171.708 285.299 C 173.083 286.219,173.500 286.467,173.250 286.214 C 172.987 285.948,170.500 284.314,170.500 284.407 M308.661 287.292 C 306.335 289.715,305.765 290.333,305.856 290.333 C 305.908 290.333,306.831 289.396,307.907 288.250 C 308.983 287.104,309.836 286.167,309.802 286.167 C 309.768 286.167,309.255 286.673,308.661 287.292 M303.769 287.269 C 303.622 287.702,303.530 288.085,303.565 288.121 C 303.600 288.156,303.750 287.830,303.897 287.397 C 304.045 286.964,304.137 286.581,304.102 286.546 C 304.066 286.511,303.917 286.836,303.769 287.269 M176.333 288.083 C 176.333 288.194,179.020 289.535,179.094 289.461 C 179.127 289.428,178.519 289.087,177.744 288.702 C 176.968 288.317,176.333 288.039,176.333 288.083 M236.833 288.833 C 236.146 289.191,235.641 289.487,235.712 289.492 C 235.890 289.503,238.167 288.349,238.167 288.248 C 238.167 288.135,238.222 288.111,236.833 288.833 M106.250 289.667 C 106.392 289.942,106.546 290.167,106.592 290.167 C 106.638 290.167,106.559 289.942,106.417 289.667 C 106.274 289.392,106.121 289.167,106.075 289.167 C 106.029 289.167,106.108 289.392,106.250 289.667 M107.083 291.167 C 107.226 291.442,107.379 291.667,107.425 291.667 C 107.471 291.667,107.392 291.442,107.250 291.167 C 107.108 290.892,106.954 290.667,106.908 290.667 C 106.862 290.667,106.941 290.892,107.083 291.167 M304.078 292.208 L 303.083 293.250 304.125 292.255 C 305.093 291.331,305.243 291.167,305.120 291.167 C 305.094 291.167,304.625 291.635,304.078 292.208 M106.583 294.667 C 108.231 296.317,109.617 297.667,109.663 297.667 C 109.709 297.667,108.398 296.317,106.750 294.667 C 105.102 293.017,103.716 291.667,103.670 291.667 C 103.624 291.667,104.935 293.017,106.583 294.667 M185.417 292.000 C 185.600 292.079,185.862 292.143,186.000 292.143 C 186.158 292.143,186.127 292.090,185.917 292.000 C 185.733 291.921,185.471 291.857,185.333 291.857 C 185.176 291.857,185.207 291.910,185.417 292.000 M228.083 292.167 C 227.873 292.257,227.842 292.310,228.000 292.310 C 228.137 292.310,228.400 292.245,228.583 292.167 C 228.793 292.076,228.824 292.023,228.667 292.023 C 228.529 292.023,228.267 292.088,228.083 292.167 M186.583 292.333 C 186.767 292.412,187.029 292.477,187.167 292.477 C 187.324 292.477,187.293 292.424,187.083 292.333 C 186.900 292.255,186.637 292.190,186.500 292.190 C 186.342 292.190,186.373 292.243,186.583 292.333 M226.833 292.500 C 226.498 292.607,226.482 292.634,226.750 292.638 C 226.933 292.641,227.233 292.579,227.417 292.500 C 227.841 292.317,227.403 292.317,226.833 292.500 M188.083 292.755 C 188.450 292.876,188.900 292.973,189.083 292.972 C 189.267 292.971,189.042 292.866,188.583 292.738 C 187.541 292.448,187.188 292.460,188.083 292.755 M225.500 292.833 C 225.165 292.941,225.149 292.968,225.417 292.972 C 225.600 292.974,225.900 292.912,226.083 292.833 C 226.508 292.651,226.070 292.651,225.500 292.833 M302.324 294.125 L 301.750 294.750 302.375 294.176 C 302.719 293.860,303.000 293.578,303.000 293.551 C 303.000 293.423,302.859 293.543,302.324 294.125 M300.449 294.919 C 300.297 295.238,300.206 295.500,300.248 295.500 C 300.362 295.500,300.868 294.480,300.792 294.403 C 300.756 294.367,300.602 294.599,300.449 294.919 M200.625 294.784 C 200.831 294.824,201.169 294.824,201.375 294.784 C 201.581 294.745,201.412 294.712,201.000 294.712 C 200.588 294.712,200.419 294.745,200.625 294.784 M211.625 294.784 C 211.831 294.824,212.169 294.824,212.375 294.784 C 212.581 294.745,212.412 294.712,212.000 294.712 C 211.588 294.712,211.419 294.745,211.625 294.784 M204.875 294.957 C 205.677 294.988,206.990 294.988,207.792 294.957 C 208.594 294.927,207.938 294.902,206.333 294.902 C 204.729 294.902,204.073 294.927,204.875 294.957 M110.111 296.003 C 110.275 296.279,110.583 296.710,110.796 296.961 C 111.009 297.212,110.906 296.985,110.568 296.458 C 109.927 295.460,109.595 295.128,110.111 296.003 M300.182 296.375 C 299.840 296.705,299.661 296.803,299.722 296.625 C 299.908 296.087,299.677 296.326,299.319 297.042 L 298.965 297.750 299.899 296.839 C 300.413 296.338,300.833 295.907,300.833 295.881 C 300.833 295.771,300.714 295.862,300.182 296.375 M112.417 300.333 C 113.053 300.975,113.612 301.500,113.658 301.500 C 113.704 301.500,113.220 300.975,112.583 300.333 C 111.947 299.692,111.388 299.167,111.342 299.167 C 111.296 299.167,111.780 299.692,112.417 300.333 M113.280 300.325 C 113.388 300.467,113.594 300.809,113.737 301.084 C 113.881 301.359,113.998 301.468,113.999 301.327 C 114.000 301.186,113.794 300.844,113.542 300.568 C 113.290 300.291,113.172 300.182,113.280 300.325 " stroke="none" fill="#174e88" fill-rule="evenodd"></path></g></svg>