<svg width="24" height="24" viewBox="0 0 24 24" fill="none" xmlns="http://www.w3.org/2000/svg">
<path d="M12.0001 24C18.6275 24 24.0001 18.6274 24.0001 12C24.0001 5.37258 18.6275 0 12.0001 0C5.37264 0 6.10352e-05 5.37258 6.10352e-05 12C6.10352e-05 18.6274 5.37264 24 12.0001 24Z" fill="#003057"/>
<path d="M9.5203 19C9.37998 18.9999 9.24174 18.967 9.11693 18.9039C8.99212 18.8408 8.88434 18.7493 8.80249 18.6371L5.29034 13.844H3.00006V12.0993H5.74367C5.88387 12.0991 6.02209 12.1319 6.14691 12.1948C6.27173 12.2577 6.37955 12.349 6.46145 12.4611L9.3314 16.376L13.7101 6.52223C13.779 6.36687 13.8924 6.2347 14.0365 6.14193C14.1806 6.04917 14.349 5.99984 14.5211 6H20.0001V7.74466H15.1007L10.3325 18.4766C10.2696 18.6181 10.1697 18.7407 10.043 18.8316C9.91623 18.9226 9.76722 18.9787 9.61115 18.9942C9.5797 18.9959 9.54819 18.9959 9.51673 18.9942" fill="#00C389"/>
<path d="M-5.24537e-07 12C-8.1423e-07 18.6274 5.37258 24 12 24C18.6274 24 24 18.6274 24 12C24 5.37258 18.6274 -2.34843e-07 12 -5.24537e-07C5.37258 -8.1423e-07 -2.34843e-07 5.37258 -5.24537e-07 12Z" fill="#58B8E4"/>
<path d="M12 23.5C5.64872 23.5 0.499999 18.3513 0.499999 12C0.5 5.64872 5.64872 0.499999 12 0.499999C18.3513 0.5 23.5 5.64873 23.5 12C23.5 18.3513 18.3513 23.5 12 23.5Z" stroke="white" stroke-opacity="0.3"/>
<path d="M17.464 16.7616C17.048 17.0682 16.5881 17.2812 16.1352 17.5051C14.7734 18.1785 13.3675 18.7041 11.8991 19.0096C11.5178 19.0891 11.1335 19.1491 10.747 19.1913C10.7273 19.1933 10.7054 19.1897 10.6853 19.1925C10.545 19.212 10.4048 19.2327 10.2634 19.2327H9.51897C9.03827 19.2327 8.56013 19.171 8.08819 19.0692C8.03998 19.0587 7.99213 19.0473 7.94428 19.0335C7.19072 18.8165 6.49962 18.4733 5.93417 17.8621C5.38553 17.2686 5.07322 16.5486 5.01149 15.6992C4.91944 14.4312 5.38991 13.379 6.0832 12.4392C7.47965 10.5469 9.30383 9.45377 11.4575 9.03151C12.2545 8.87534 13.0621 8.82667 13.8639 9.04327C15.0883 9.37427 15.2987 10.5035 14.9539 11.4868C14.7113 12.1784 14.2387 12.6522 13.6714 13.0111C12.7703 13.5819 11.8074 13.8062 10.7762 13.5973C10.6871 13.579 10.6002 13.547 10.5129 13.5186C9.62892 13.2314 9.50509 12.2019 10.0059 11.5671C10.5399 10.8901 11.2241 10.5323 12.0419 10.519C12.1617 10.5169 12.2848 10.5405 12.4017 10.5733C12.6563 10.6451 12.8642 10.7907 12.9317 11.0954C13.0088 11.4422 12.9609 11.7638 12.7487 12.0453C12.6859 12.1285 12.6063 12.1334 12.5186 12.1334C11.8615 12.1346 11.2043 12.1386 10.5472 12.1423C10.3573 12.1435 10.3346 12.1841 10.4157 12.3775C10.5005 12.5791 10.6462 12.7118 10.8296 12.7811C11.772 13.1373 13.3796 12.8331 13.9695 11.3898C14.3011 10.5782 14.0224 9.90402 13.2488 9.66551C12.8254 9.5349 12.3948 9.5495 11.9656 9.5852C11.2274 9.64685 10.5304 9.85859 9.91676 10.3417C9.47368 10.6901 9.13872 11.1351 8.94074 11.6989C8.56743 12.7625 9.03133 13.9011 10.019 14.3217C10.8077 14.6572 11.6182 14.656 12.4189 14.402C13.9676 13.9112 15.2143 12.943 16.0808 11.417C16.3722 10.9039 16.5552 10.3421 16.5932 9.72757C16.6593 8.65914 16.2291 7.89818 15.4203 7.37249C14.7997 6.96889 14.1119 6.80217 13.4084 6.7101C12.8649 6.63911 12.3181 6.61923 11.7702 6.62897C10.0388 6.65899 8.34462 6.91737 6.72572 7.64061C6.67531 7.66292 6.62637 7.69496 6.55112 7.65886C6.93356 7.39034 7.32075 7.15548 7.71269 6.93116C9.22018 6.06961 10.8051 5.46116 12.4832 5.17682C13.6729 4.97522 14.8644 4.92735 16.0486 5.24496C16.888 5.47009 17.6741 5.81568 18.2885 6.52067C18.9555 7.28609 19.1779 8.22471 19.0815 9.25988C18.9562 10.6041 18.306 11.6446 17.4465 12.5341C15.9865 14.0447 14.2526 14.9565 12.283 15.2827C11.4071 15.4275 10.5246 15.4027 9.6702 15.0742C8.66934 14.6896 8.14919 13.8784 8.15212 12.7008C8.15248 12.5755 8.15212 12.4502 8.13276 12.3187C7.92747 12.5755 7.80255 12.8761 7.71415 13.1953C7.25537 14.8511 7.98628 16.446 9.48171 17.1632C10.3905 17.5988 11.3479 17.6905 12.3214 17.6528C13.3313 17.6138 14.3256 17.4272 15.3177 17.2264C15.9807 17.0922 16.6404 16.9397 17.296 16.7677C17.3483 16.7539 17.4041 16.7579 17.4586 16.7539C17.4582 16.7543 17.464 16.7616 17.464 16.7616ZM10.6583 11.6649C10.6966 11.6815 10.7116 11.6941 10.7269 11.6941C11.2299 11.6957 11.7325 11.6961 12.2355 11.6965C12.2845 11.6965 12.3243 11.6912 12.3528 11.6288C12.4824 11.3456 12.3319 11.0296 12.0478 11.0025C11.8838 10.9866 11.7208 10.9996 11.5616 11.0483C11.2124 11.1558 10.914 11.3529 10.6583 11.6649Z" fill="white"/>
<path d="M17.4582 16.7543C17.4702 16.7449 17.4823 16.7344 17.4954 16.7271C17.4973 16.7263 17.5057 16.7393 17.5108 16.7462C17.4951 16.7514 17.4794 16.7563 17.464 16.7616L17.4582 16.7543Z" fill="white"/>
</svg>
