<svg width="24" height="24" viewBox="0 0 24 24" fill="none" xmlns="http://www.w3.org/2000/svg">
<path d="M12 24C18.6274 24 24 18.6274 24 12C24 5.37258 18.6274 0 12 0C5.37258 0 0 5.37258 0 12C0 18.6274 5.37258 24 12 24Z" fill="#37C2D5"/>
<path d="M23.5 12C23.5 18.3513 18.3513 23.5 12 23.5C5.64873 23.5 0.5 18.3513 0.5 12C0.5 5.64873 5.64873 0.5 12 0.5C18.3513 0.5 23.5 5.64873 23.5 12Z" stroke="white" stroke-opacity="0.3"/>
<path d="M18.2808 14.2175C16.9631 14.2788 15.8461 14.8304 14.8695 15.6884C13.5785 16.8189 12.7692 18.283 12.107 19.8493C11.9464 20.2306 11.7926 20.612 11.6387 21.0001C11.6187 21.0001 11.5919 21.0001 11.5719 21.0001C11.5317 20.7958 11.3913 20.6392 11.2976 20.469C10.408 18.855 10.3077 17.207 11.0836 15.5114C11.418 14.7827 11.6053 14.0064 11.6856 13.2028C11.7123 12.9441 11.5986 12.6989 11.5652 12.372C11.9264 12.7806 11.9331 13.2233 11.9264 13.6591C11.9197 14.4627 11.7525 15.2458 11.505 16.0085C11.1973 16.9551 11.2107 17.9084 11.525 18.9231C11.913 18.1332 12.2742 17.3977 12.7692 16.744C13.719 15.4705 14.8628 14.449 16.3745 13.9247C16.6889 13.8157 17.0099 13.7068 17.3377 13.6999C17.6521 13.6931 17.6922 13.5569 17.6922 13.2845C17.6989 11.8409 17.1839 10.6015 16.2942 9.50507C15.5183 8.54488 14.5083 7.89794 13.4448 7.31911C13.3712 7.27825 13.2909 7.23058 13.204 7.1761C15.1103 6.75389 17.3912 7.29868 18.2273 9.40292C18.2407 9.43016 18.2875 9.56636 18.2875 9.61403C18.1337 9.62765 18.0802 9.49826 18.0066 9.40973C17.2909 8.60617 16.3879 8.1431 15.3377 7.95242C15.4648 8.12948 15.6253 8.25887 15.7658 8.41549C16.8227 9.57998 17.6855 10.867 18.0534 12.4401C18.1471 12.8487 18.2139 13.2709 18.2942 13.6795C18.2808 13.8566 18.2808 14.0404 18.2808 14.2175Z" fill="white"/>
<path d="M14.5752 13.7143C14.3678 12.3319 13.5986 11.3785 12.5016 10.6431C12.3478 10.5409 12.2809 10.5341 12.1672 10.7044C11.5786 11.5624 10.7558 12.0187 9.7391 12.1004C9.4381 12.1276 9.26419 12.1549 9.27757 12.5226C9.28426 12.7133 9.21068 12.9244 9.1371 13.1083C8.81603 13.8641 8.09363 13.8846 7.51169 13.4215C7.37792 13.3125 7.47156 13.1627 7.42474 13.0333C7.39798 13.047 7.35785 13.047 7.34447 13.0674C6.98327 13.4692 6.79598 13.4487 6.51505 12.9721C6.10702 12.2979 6.13378 11.4739 6.58862 10.8269C7.28427 9.8327 8.16052 8.98828 8.97657 8.103C9.18392 7.88508 9.19061 7.7625 8.98994 7.53097C8.04012 6.46182 7.11705 5.36543 6.18729 4.27585C6.1204 4.20094 6.06689 4.10561 6 4.01708C6.12709 3.9626 6.1806 4.05113 6.24749 4.10561C7.41805 5.01813 8.58192 5.93065 9.75248 6.84317C9.84612 6.91127 9.92639 7.04066 10.0669 6.97256C10.2006 6.90446 10.1605 6.75464 10.1672 6.63888C10.2207 5.53568 11.1973 4.77978 12 4.49377C12.1605 4.43929 12.1404 4.5823 12.1605 4.67082C12.3076 5.29052 12.3545 5.91703 12.3344 6.55035C12.321 6.84998 12.408 7.01342 12.6622 7.17005C13.8795 7.91913 14.5953 9.05638 14.9966 10.4252C15.01 10.4592 14.9966 10.5069 14.9966 10.6363C14.6755 10.1187 14.428 9.65565 14.107 9.24706C13.505 8.48435 12.7892 7.87827 11.8929 7.52416C11.6789 7.43563 11.6187 7.32667 11.6187 7.10195C11.6187 6.69335 11.5786 6.29157 11.5652 5.88298C11.5585 5.65145 11.4582 5.65826 11.3311 5.78083C11.0501 6.0328 10.7959 6.31881 10.7558 6.70697C10.7157 7.10195 10.4749 7.31305 10.2073 7.54459C9.15717 8.43668 8.16052 9.39687 7.35116 10.5409C7.2642 10.6567 7.19732 10.7929 7.09698 10.895C6.64882 11.3513 6.7826 11.8484 6.97658 12.366C7.03678 12.5362 7.13043 12.5635 7.28427 12.509C7.37792 12.4749 7.47825 12.4613 7.57189 12.4341C7.85952 12.3387 8.04012 12.4613 8.15383 12.7269C8.19396 12.8154 8.1739 12.938 8.31436 12.9448C8.45483 12.9516 8.50834 12.8427 8.54848 12.7405C8.60868 12.5839 8.66888 12.4273 8.70232 12.2638C8.79597 11.8144 9.0167 11.6373 9.47155 11.6441C9.74579 11.6509 10.0267 11.6782 10.301 11.6373C11.1572 11.5079 11.5852 11.0176 11.699 10.0847C11.699 10.0642 11.699 10.037 11.7056 10.0166C11.7792 9.32196 11.7792 9.32196 12.3946 9.60117C13.7725 10.2345 14.7959 12.0732 14.6153 13.5986C14.6086 13.6394 14.5886 13.6803 14.5752 13.7143Z" fill="white"/>
<path d="M10.2541 8.34766C10.1671 8.7903 10.1069 9.15803 9.75913 9.38957C9.63204 9.47128 9.51164 9.49852 9.39793 9.37595C9.28421 9.25337 9.35779 9.14441 9.43806 9.04907C9.6521 8.7903 9.87953 8.53152 10.2541 8.34766Z" fill="white"/>
</svg>
