<svg width="24" height="24" viewBox="0 0 24 24" fill="none" xmlns="http://www.w3.org/2000/svg">
<path d="M12 24C18.6274 24 24 18.6274 24 12C24 5.37258 18.6274 0 12 0C5.37258 0 0 5.37258 0 12C0 18.6274 5.37258 24 12 24Z" fill="#0B0E21"/>
<path d="M23.5 12C23.5 18.3513 18.3513 23.5 12 23.5C5.64873 23.5 0.5 18.3513 0.5 12C0.5 5.64873 5.64873 0.5 12 0.5C18.3513 0.5 23.5 5.64873 23.5 12Z" stroke="white" stroke-opacity="0.3"/>
<path d="M14.2015 18.3095C14.0807 18.3096 13.9637 18.2671 13.871 18.1896C13.7784 18.112 13.716 18.0044 13.6948 17.8854C13.6735 17.7664 13.6949 17.6438 13.7551 17.539C13.8152 17.4342 13.9103 17.354 14.0238 17.3123C14.9171 16.9833 15.7103 16.4291 16.3265 15.7034C16.9426 14.9777 17.3609 14.1051 17.5406 13.1703C17.5683 13.0382 17.6467 12.9222 17.759 12.8475C17.8713 12.7727 18.0085 12.745 18.1411 12.7705C18.2736 12.7959 18.3908 12.8724 18.4674 12.9834C18.5441 13.0945 18.574 13.2312 18.5508 13.3642C18.3376 14.4728 17.8418 15.5076 17.1114 16.3684C16.3809 17.2292 15.4406 17.8868 14.3814 18.2776C14.3239 18.2991 14.2629 18.3099 14.2015 18.3095Z" fill="white"/>
<path d="M13.2321 5.68398C10.1511 5.15101 7.11075 6.88981 6.00135 9.81866C5.42111 11.3529 5.43822 13.0492 6.04928 14.5714C6.66034 16.0937 7.82079 17.331 9.30082 18.0382C9.42273 18.0995 9.56398 18.1098 9.69349 18.0669C9.823 18.024 9.93015 17.9314 9.99139 17.8094C10.0526 17.6875 10.0629 17.5463 10.02 17.4168C9.97711 17.2873 9.88452 17.1801 9.7626 17.1189L9.74332 17.1098C7.17773 15.8867 5.95647 12.8453 6.96454 10.1805C7.89863 7.71205 10.4611 6.2464 13.0568 6.69556C13.1908 6.7177 13.328 6.68599 13.4387 6.60735C13.5493 6.5287 13.6244 6.4095 13.6476 6.27573C13.6707 6.14195 13.64 6.00446 13.5622 5.89321C13.4844 5.78197 13.3657 5.706 13.2321 5.68188V5.68398ZM13.4495 6.30636C13.4252 6.37073 13.3824 6.42646 13.3264 6.46648C13.2705 6.50651 13.2039 6.52904 13.1351 6.53121C13.0663 6.53339 12.9984 6.51512 12.9401 6.47871C12.8817 6.4423 12.8354 6.3894 12.8071 6.32668C12.7788 6.26397 12.7697 6.19427 12.781 6.1264C12.7923 6.05852 12.8235 5.99553 12.8706 5.94538C12.9177 5.89524 12.9786 5.86019 13.0457 5.84468C13.1127 5.82917 13.1829 5.83389 13.2472 5.85824C13.3333 5.8908 13.403 5.95622 13.4408 6.04012C13.4787 6.12403 13.4817 6.21954 13.4492 6.30565L13.4495 6.30636Z" fill="white"/>
<path d="M13.7502 7.83905C12.6809 7.43337 11.4985 7.44212 10.4353 7.86359C10.3085 7.91381 10.2068 8.01236 10.1526 8.13756C10.0984 8.26276 10.0962 8.40436 10.1464 8.5312C10.1966 8.65805 10.2952 8.75975 10.4204 8.81393C10.5456 8.86811 10.6871 8.87034 10.814 8.82013C11.5743 8.51957 12.4148 8.48948 13.1947 8.73489C13.9745 8.9803 14.6463 9.4863 15.0975 10.1681C15.5486 10.8499 15.7518 11.666 15.6728 12.4798C15.5938 13.2935 15.2375 14.0553 14.6637 14.6377C14.0898 15.22 13.3333 15.5873 12.5208 15.6782C11.7083 15.7691 10.8892 15.5779 10.2009 15.1368C9.51261 14.6956 8.99684 14.0313 8.74006 13.2551C8.48327 12.4789 8.50107 11.6381 8.79048 10.8734C8.80486 10.8356 8.81993 10.7974 8.83571 10.7595C8.88631 10.634 8.88542 10.4936 8.83325 10.3688C8.78107 10.2439 8.6818 10.1447 8.55695 10.0925C8.4321 10.0404 8.29173 10.0395 8.16624 10.0901C8.04075 10.1407 7.94027 10.2387 7.88655 10.3629C7.86621 10.4113 7.84692 10.4604 7.82834 10.5095C6.93177 12.8784 8.12989 15.5348 10.4988 16.431C11.638 16.862 12.9018 16.8229 14.0122 16.3222C15.1226 15.8216 15.9887 14.9004 16.4199 13.7613C17.3155 11.392 16.1173 8.73562 13.7502 7.83905ZM8.22736 10.9043C8.16306 10.88 8.1074 10.8372 8.06742 10.7813C8.02744 10.7254 8.00494 10.6589 8.00276 10.5902C8.00057 10.5215 8.01881 10.4537 8.05516 10.3954C8.09152 10.3371 8.14435 10.2908 8.20698 10.2625C8.26961 10.2342 8.33923 10.2252 8.40703 10.2364C8.47483 10.2477 8.53776 10.2788 8.58787 10.3259C8.63798 10.3729 8.67302 10.4337 8.68855 10.5007C8.70408 10.5676 8.69941 10.6377 8.67512 10.702C8.64249 10.7881 8.57702 10.8578 8.49308 10.8957C8.40913 10.9337 8.31358 10.9367 8.22736 10.9043Z" fill="#1BC3F0"/>
<path d="M14.1272 10.5326C13.7476 10.079 13.2246 9.76852 12.6447 9.65227C12.0648 9.53603 11.4626 9.621 10.9375 9.89318C10.4124 10.1654 9.9958 10.6084 9.75649 11.1493C9.51717 11.6902 9.46945 12.2965 9.6212 12.8681C9.63856 12.9334 9.66861 12.9947 9.70963 13.0484C9.75066 13.102 9.80185 13.1471 9.8603 13.181C9.91874 13.2149 9.98329 13.2369 10.0503 13.2459C10.1172 13.2548 10.1853 13.2505 10.2506 13.2332C10.3159 13.2158 10.3771 13.1857 10.4308 13.1447C10.4845 13.1037 10.5296 13.0525 10.5634 12.9941C10.5973 12.9356 10.6194 12.8711 10.6283 12.8041C10.6373 12.7371 10.633 12.6691 10.6156 12.6038C10.5229 12.2532 10.5543 11.8814 10.7046 11.5514C10.8548 11.2214 11.1146 10.9536 11.4399 10.7933C11.7652 10.6331 12.1359 10.5904 12.4891 10.6724C12.8423 10.7544 13.1562 10.9561 13.3776 11.2433C13.599 11.5304 13.7142 11.8853 13.7037 12.2478C13.6932 12.6102 13.5576 12.9579 13.3199 13.2317C13.0822 13.5055 12.757 13.6886 12.3997 13.75C12.0423 13.8114 11.6747 13.7472 11.3593 13.5684C11.2422 13.4983 11.1021 13.4777 10.9698 13.511C10.8375 13.5442 10.7238 13.6287 10.6538 13.7458C10.5838 13.8629 10.5631 14.003 10.5964 14.1353C10.6297 14.2676 10.7142 14.3812 10.8312 14.4513C10.8379 14.4555 10.8449 14.4593 10.8523 14.4632C11.3823 14.7634 12.001 14.868 12.6003 14.7587C13.1996 14.6494 13.7415 14.3331 14.1314 13.8651C14.5213 13.397 14.7345 12.8069 14.7337 12.1977C14.7329 11.5885 14.5183 10.9989 14.1272 10.5319V10.5326ZM11.4361 14.1494C11.4118 14.2137 11.369 14.2695 11.313 14.3095C11.257 14.3495 11.1904 14.372 11.1217 14.3742C11.0529 14.3764 10.985 14.3581 10.9266 14.3217C10.8682 14.2853 10.8219 14.2324 10.7936 14.1697C10.7653 14.107 10.7562 14.0373 10.7676 13.9694C10.7789 13.9015 10.81 13.8385 10.8572 13.7884C10.9043 13.7382 10.9652 13.7032 11.0322 13.6877C11.0993 13.6722 11.1694 13.6769 11.2338 13.7013C11.2765 13.7173 11.3156 13.7417 11.3489 13.7729C11.3822 13.8041 11.409 13.8416 11.4278 13.8832C11.4466 13.9248 11.457 13.9697 11.4584 14.0153C11.4598 14.0609 11.4522 14.1063 11.4361 14.149V14.1494Z" fill="white"/>
<path d="M17.7986 5.56447C14.1709 2.43015 8.68768 2.83092 5.55336 6.45929C2.41904 10.0877 2.81982 15.5702 6.44818 18.7052C7.02166 19.2005 7.6575 19.6186 8.3395 19.9489C8.46258 20.0082 8.60419 20.0162 8.73317 19.9712C8.79703 19.9488 8.85588 19.9142 8.90634 19.8691C8.9568 19.824 8.99789 19.7695 9.02727 19.7085C9.05665 19.6476 9.07373 19.5815 9.07755 19.5139C9.08137 19.4464 9.07185 19.3787 9.04953 19.3149C9.02721 19.251 8.99253 19.1922 8.94747 19.1417C8.90241 19.0912 8.84785 19.0501 8.78691 19.0208C5.25392 17.3163 3.57578 13.1017 4.9664 9.42741C6.46501 5.47295 10.8858 3.4824 14.8403 4.98137C15.6758 5.29796 16.4494 5.7584 17.126 6.34183C17.2299 6.42449 17.3618 6.46378 17.494 6.45149C17.6261 6.43919 17.7485 6.37626 17.8353 6.27586C17.9222 6.17546 17.9669 6.04536 17.96 5.91277C17.9532 5.78019 17.8953 5.65539 17.7986 5.56447ZM17.767 6.06903C17.7427 6.13341 17.6999 6.18914 17.6439 6.22916C17.5879 6.26919 17.5214 6.29171 17.4526 6.29389C17.3838 6.29607 17.3159 6.2778 17.2575 6.24139C17.1992 6.20498 17.1529 6.15208 17.1246 6.08936C17.0962 6.02665 17.0872 5.95695 17.0985 5.88907C17.1098 5.8212 17.141 5.75821 17.1881 5.70806C17.2352 5.65791 17.2961 5.62287 17.3632 5.60736C17.4302 5.59185 17.5003 5.59657 17.5647 5.62092C17.6508 5.65348 17.7205 5.7189 17.7583 5.8028C17.7962 5.88671 17.7992 5.98222 17.7667 6.06833L17.767 6.06903Z" fill="#24C3EF"/>
</svg>
