<svg width="24" height="24" viewBox="0 0 24 24" fill="none" xmlns="http://www.w3.org/2000/svg">
<path fill-rule="evenodd" clip-rule="evenodd" d="M0 12C0 5.37259 5.37259 0 12 0C18.6274 0 24 5.37259 24 12C24 18.6274 18.6274 24 12 24C5.37259 24 0 18.6274 0 12Z" fill="black"/>
<path d="M23.5 12C23.5 18.3513 18.3513 23.5 12 23.5C5.64873 23.5 0.5 18.3513 0.5 12C0.5 5.64873 5.64873 0.5 12 0.5C18.3513 0.5 23.5 5.64873 23.5 12Z" stroke="white" stroke-opacity="0.3"/>
<path d="M3.89909 16.9989C3.88437 16.979 3.9054 16.9674 3.91276 16.9548C5.01686 15.0599 6.12096 13.1651 7.22612 11.2702C7.81918 10.2534 8.41224 9.23659 9.00319 8.21977C9.02317 8.18507 9.0442 8.1735 9.08416 8.1735C9.68353 8.1756 10.2818 8.1756 10.8812 8.17666C11.1998 8.17666 11.5184 8.17876 11.8371 8.17981C11.856 8.17981 11.8749 8.17981 11.8949 8.17981C11.898 8.15247 11.8812 8.13775 11.8718 8.11987C11.4133 7.32808 10.9538 6.53628 10.4943 5.74553C10.4785 5.71924 10.4732 5.69926 10.49 5.66982C11.0074 4.78444 11.5237 3.89905 12.04 3.01367C12.0432 3.00946 12.0453 3.00526 12.0484 3C12.0673 3.00421 12.0694 3.02208 12.0757 3.0347C13.3334 5.3428 14.591 7.65089 15.8486 9.95899C16.2482 10.693 16.6478 11.428 17.0495 12.1609C17.0705 12.1998 17.0705 12.225 17.0474 12.2629C16.5521 13.0736 16.0589 13.8854 15.5647 14.6972C15.5563 14.7119 15.5426 14.7234 15.5437 14.7487C15.5605 14.7487 15.5773 14.7487 15.5941 14.7487C16.3229 14.7497 17.0505 14.7497 17.7792 14.7508C17.9895 14.7508 18.1998 14.7529 18.4091 14.7518C18.448 14.7518 18.4669 14.7645 18.4848 14.7981C18.8749 15.5163 19.2661 16.2334 19.6562 16.9506C19.6636 16.9642 19.673 16.9769 19.6814 16.9895C19.6793 16.9926 19.6867 17 19.6762 17C19.6625 17 19.6478 17 19.6341 17C16.2146 17 12.7939 17 9.37438 17C9.37543 16.9832 9.36281 16.9716 9.35545 16.9579C8.95167 16.2618 8.54788 15.5657 8.1441 14.8696C8.12307 14.8328 8.10098 14.796 8.0768 14.756C8.06734 14.7708 8.06208 14.7792 8.05682 14.7886C7.6951 15.3838 7.33232 15.979 6.9706 16.5741C6.88437 16.7161 6.80025 16.858 6.71508 17C5.77606 16.9989 4.83705 16.9989 3.89909 16.9989ZM11.9086 8.18507C10.6331 10.3743 9.36176 12.5563 8.08732 14.7413C10.5542 14.7413 13.0148 14.7413 15.4806 14.7413C14.2892 12.5552 13.102 10.3743 11.9086 8.18507Z" fill="white"/>
</svg>
