<svg width="24" height="24" viewBox="0 0 24 24" fill="none" xmlns="http://www.w3.org/2000/svg">
<path fill-rule="evenodd" clip-rule="evenodd" d="M0 12C0 5.37259 5.37259 0 12 0C18.6274 0 24 5.37259 24 12C24 18.6274 18.6274 24 12 24C5.37259 24 0 18.6274 0 12Z" fill="#D70068"/>
<path d="M13.2573 20C13.2573 19.9488 13.2573 19.9165 13.2573 19.8862C13.2573 18.9945 13.2593 18.1028 13.2553 17.2111C13.2553 17.1238 13.2812 17.0764 13.3627 17.0327C14.2616 16.5413 15.1566 16.0462 16.0535 15.5529C16.2544 15.4428 16.4512 15.3271 16.6561 15.2209C16.8231 15.1336 16.8908 14.997 16.9067 14.8281C16.9146 14.7427 16.9106 14.6574 16.9106 14.572C16.9106 13.0314 16.9106 11.4928 16.9106 9.95221C16.9106 9.69798 16.8033 9.51395 16.5606 9.38304C15.8308 8.99221 15.1088 8.5862 14.3829 8.18778C13.7386 7.833 13.0922 7.47821 12.4459 7.12533C12.3206 7.05703 12.1953 6.98114 12.066 6.92042C11.9348 6.85971 11.8075 6.87489 11.6782 6.94699C11.2208 7.20122 10.7594 7.44786 10.3 7.70019C9.66562 8.04928 9.0332 8.39837 8.40078 8.74747C7.97121 8.98462 7.54362 9.22367 7.11008 9.45703C6.95495 9.54051 6.88734 9.65435 6.88734 9.8251C6.89131 11.4624 6.88932 13.1016 6.89131 14.739C6.89131 14.8224 6.89529 14.9135 6.9291 14.9875C6.96092 15.0615 7.01859 15.1412 7.0882 15.181C7.84393 15.6041 8.60363 16.0215 9.36333 16.4408C9.73324 16.6438 10.1031 16.8468 10.4691 17.0555C10.5029 17.0745 10.5387 17.1276 10.5387 17.1655C10.5427 18.0952 10.5427 19.0248 10.5407 19.9545C10.5407 19.964 10.5367 19.9734 10.5327 19.9981C10.3855 19.9165 10.2424 19.8406 10.1012 19.7628C9.1386 19.2335 8.17406 18.7023 7.2115 18.173C6.3106 17.6778 5.41168 17.1826 4.51078 16.6874C4.33577 16.5907 4.26417 16.4408 4.26616 16.253C4.26616 14.4506 4.26616 12.6482 4.26616 10.8458C4.26616 10.0262 4.27213 9.2085 4.26218 8.38889C4.2602 8.18399 4.35566 8.06446 4.5247 7.97149C5.32815 7.53134 6.12962 7.08928 6.93308 6.64722C7.81608 6.16153 8.69909 5.67773 9.58209 5.19014C10.2463 4.82397 10.9106 4.45781 11.5728 4.08974C11.7817 3.97401 11.9905 3.97021 12.1953 4.07836C12.5692 4.27567 12.9371 4.48057 13.307 4.68358C14.192 5.17117 15.077 5.65876 15.962 6.14825C16.7217 6.56754 17.4794 6.98493 18.2391 7.40422C18.5374 7.56928 18.8338 7.73434 19.1341 7.89371C19.4025 8.036 19.5338 8.25229 19.5338 8.54256C19.5338 11.1038 19.5338 13.6651 19.5338 16.2264C19.5338 16.4427 19.4304 16.6077 19.2355 16.7159C18.4241 17.1636 17.6127 17.6095 16.8013 18.0553C15.6557 18.6871 14.5082 19.3189 13.3627 19.9507C13.3329 19.9658 13.303 19.9772 13.2573 20Z" fill="white"/>
<path d="M8.38885 12.3125C8.38885 11.749 8.39283 11.1874 8.38686 10.6239C8.38487 10.4665 8.43857 10.3716 8.58574 10.29C9.63978 9.71706 10.6898 9.13461 11.7379 8.55216C11.8552 8.48576 11.9606 8.50093 12.072 8.56164C13.0028 9.0758 13.9335 9.58805 14.8642 10.1003C14.9836 10.1667 15.1029 10.235 15.2242 10.2995C15.3475 10.3659 15.3972 10.4684 15.3992 10.5974C15.4012 10.7909 15.4012 10.9825 15.4012 11.176C15.4012 12.1285 15.3992 13.079 15.4032 14.0314C15.4032 14.1964 15.3395 14.2989 15.1884 14.3805C14.1662 14.9383 13.1459 15.5018 12.1277 16.0671C11.9626 16.1601 11.8234 16.1544 11.6584 16.0614C10.9205 15.6478 10.1748 15.2418 9.43295 14.8339C9.13265 14.6689 8.83234 14.5019 8.53005 14.3368C8.44056 14.2875 8.39482 14.2154 8.39482 14.1206C8.39084 13.7885 8.38885 13.4565 8.38885 13.1245C8.38686 12.857 8.38885 12.5838 8.38885 12.3125Z" fill="white"/>
<path d="M23.5 12C23.5 18.3513 18.3513 23.5 12 23.5C5.64873 23.5 0.5 18.3513 0.5 12C0.5 5.64873 5.64873 0.5 12 0.5C18.3513 0.5 23.5 5.64873 23.5 12Z" stroke="white" stroke-opacity="0.3"/>
</svg>
