<?xml version="1.0" encoding="utf-8"?>
<!-- Generator: Adobe Illustrator 26.0.1, SVG Export Plug-In . SVG Version: 6.00 Build 0)  -->
<svg version="1.1" id="Layer_1" xmlns="http://www.w3.org/2000/svg" xmlns:xlink="http://www.w3.org/1999/xlink" x="0px" y="0px"
	 viewBox="0 0 244.7 244.7" style="enable-background:new 0 0 244.7 244.7;" xml:space="preserve">
<style type="text/css">
	.st0{filter:url(#Adobe_OpacityMaskFilter);}
	.st1{fill-rule:evenodd;clip-rule:evenodd;fill:#FFFFFF;}
	.st2{mask:url(#mask-2_00000114065059921497855020000016972885014968445611_);fill:#02325A;}
	.st3{fill:none;}
	.st4{opacity:0.38;}
	.st5{fill:#FFFFFF;}
</style>
<g id="path-1_00000051375573624629936790000003931469064543248777_">
</g>
<g>
	<g id="defi_pulse_index_set_00000036223747139003158510000009485036249798712488_">
		<g transform="translate(0.144928, 0.000000)">
			<g id="Fill-1-Clipped_00000147211765273612482110000008252689108401222818_" transform="translate(0.100966, 0.104348)">
				<g id="path-1_00000001621534770713408500000008781133250954826381_">
				</g>
				<defs>
					<filter id="Adobe_OpacityMaskFilter" filterUnits="userSpaceOnUse" x="3.2" y="2.9" width="237.8" height="238.7">
						<feColorMatrix  type="matrix" values="1 0 0 0 0  0 1 0 0 0  0 0 1 0 0  0 0 0 1 0"/>
					</filter>
				</defs>
				
					<mask maskUnits="userSpaceOnUse" x="3.2" y="2.9" width="237.8" height="238.7" id="mask-2_00000114065059921497855020000016972885014968445611_">
					<g class="st0">
						<polygon id="path-1_00000114759759830788632520000013672081170613781392_" class="st1" points="3.2,2.9 241.1,2.9 
							241.1,241.6 3.2,241.6 						"/>
					</g>
				</mask>
				<path id="Fill-1_00000151521057211618859250000007387285002185103744_" class="st2" d="M241.1,122.2
					c0,65.9-53.2,119.3-118.9,119.3S3.2,188.1,3.2,122.2S56.5,2.9,122.2,2.9S241.1,56.3,241.1,122.2"/>
			</g>
		</g>
	</g>
	<g id="defi_pulse_index_set_00000072974840461833873670000009223074769223038903_">
		<g transform="translate(0.144928, 0.000000)">
			<g id="Fill-1-Clipped_00000030474898011005147230000009393293604499222697_" transform="translate(0.100966, 0.104348)">
				<g id="path-1_00000149378195300249070840000005427608717428236699_">
				</g>
				<path id="Fill-1_00000165198163886279700660000002798947055090544029_" class="st3" d="M241.1,122.2
					c0,65.9-53.2,119.3-118.9,119.3S3.2,188.1,3.2,122.2S56.5,2.9,122.2,2.9S241.1,56.3,241.1,122.2"/>
			</g>
		</g>
	</g>
	<path class="st4" d="M241.3,122.3c0,64.6-51.2,117.1-115.1,119.1l-86.6-86.6l13.1-41.6l-13.1-12.8l7.1-4.1l8.8-11.7l16.5,16.9
		l15.5-16.9l58.3,59.1l13.9,0.5l-24.2-24.6l3.9-17.6l3.2-8l31.3-6.1l23.4,23.8l5.2,3.2l0.3-1.2l-13.4-13.2l7.6-5.8l7.3-0.2l0.9-9.8
		l36.1,36.3C241.3,121.4,241.3,121.9,241.3,122.3z"/>
	<g>
		<path class="st5" d="M189.4,84.3h15.8v70.5h-15.8V84.3z"/>
		<g>
			<g>
				<path class="st5" d="M118.6,141.3v13.6H71.6V84.6h15.8v56.6H118.6z"/>
				<path class="st5" d="M149.6,142.8c2.2,0,4.1-0.2,5.5-0.6c1.4-0.4,2.6-0.9,3.5-1.5c0.9-0.6,1.5-1.4,1.8-2.3
					c0.3-0.9,0.5-1.9,0.5-2.9c0-2.3-1.1-4.2-3.2-5.7c-2.2-1.5-5.9-3.2-11.1-4.9c-2.3-0.8-4.6-1.7-6.9-2.8c-2.3-1-4.4-2.4-6.2-3.9
					c-1.8-1.6-3.3-3.5-4.5-5.8c-1.1-2.3-1.7-5-1.7-8.3c0-3.2,0.6-6.2,1.8-8.8c1.2-2.6,2.9-4.8,5.2-6.6c2.2-1.8,4.9-3.2,8.1-4.2
					c3.2-1,6.8-1.5,10.7-1.5c4.7,0,8.8,0.5,12.3,1.5c3.4,1,6.3,2.1,8.5,3.3l-4.6,12.5c-2-1-4.1-1.9-6.5-2.7
					c-2.4-0.8-5.3-1.2-8.7-1.2c-3.8,0-6.5,0.5-8.2,1.6c-1.7,1-2.5,2.7-2.5,4.8c0,1.3,0.3,2.4,0.9,3.2c0.6,0.9,1.5,1.7,2.6,2.4
					c1.1,0.7,2.4,1.4,3.9,1.9c1.4,0.6,3.1,1.2,4.8,1.8c3.6,1.4,6.8,2.7,9.5,4s4.9,2.9,6.7,4.6c1.8,1.8,3.1,3.8,4,6.2
					c0.9,2.4,1.3,5.2,1.3,8.6c0,6.6-2.3,11.6-6.9,15.3c-4.6,3.6-11.5,5.4-20.8,5.4c-3.1,0-5.9-0.2-8.4-0.6c-2.5-0.4-4.7-0.8-6.6-1.4
					c-1.9-0.5-3.6-1.1-5-1.7c-1.4-0.6-2.6-1.2-3.5-1.7l4.5-12.6c2.1,1.1,4.7,2.2,7.7,3.1C141.3,142.3,145.1,142.8,149.6,142.8z"/>
			</g>
		</g>
		<path class="st5" d="M39.6,84.6h15.8v70.2H39.6V84.6z"/>
	</g>
</g>
<g id="path-1_00000054250748294345674480000005218018632913127584_">
</g>
</svg>
