<svg width="24" height="24" viewBox="0 0 24 24" fill="none" xmlns="http://www.w3.org/2000/svg">
<path fill-rule="evenodd" clip-rule="evenodd" d="M0 12C0 5.37259 5.37259 0 12 0C18.6274 0 24 5.37259 24 12C24 18.6274 18.6274 24 12 24C5.37259 24 0 18.6274 0 12Z" fill="#010631"/>
<path d="M23.5 12C23.5 18.3513 18.3513 23.5 12 23.5C5.64873 23.5 0.5 18.3513 0.5 12C0.5 5.64873 5.64873 0.5 12 0.5C18.3513 0.5 23.5 5.64873 23.5 12Z" stroke="white" stroke-opacity="0.3"/>
<path d="M19.1271 15.5663C19.1267 15.5661 19.1263 15.5661 19.1258 15.5658C19.1256 15.5658 19.1256 15.5658 19.1254 15.5658C19.1254 15.5656 19.1254 15.5656 19.1254 15.5654C19.1256 15.5654 19.1265 15.5658 19.1269 15.5661C19.1271 15.5663 19.1271 15.5663 19.1271 15.5663Z" fill="#FD3F4A"/>
<path d="M19.978 17.2345C19.9074 17.1065 19.8466 16.973 19.7803 16.8426C19.5868 16.4621 19.3926 16.0819 19.1986 15.7016C19.1319 15.6785 19.1294 15.6211 19.1255 15.5649C19.1255 15.5647 19.1255 15.5647 19.1255 15.5645C19.1257 15.5645 19.1264 15.5649 19.1268 15.5651C19.1148 15.5364 19.1045 15.5074 19.0905 15.4796C18.7442 14.7947 18.3973 14.1101 18.051 13.4251C17.6216 12.5758 17.1925 11.7263 16.7632 10.8769C16.0693 9.50404 15.3755 8.13133 14.6812 6.75881C14.5727 6.54437 14.4842 6.31605 14.3483 6.12054C14.0907 5.74995 13.7751 5.42847 13.4064 5.16398C12.6877 4.64811 11.9159 4.52571 11.0867 4.86237C10.6621 5.03464 10.2932 5.29482 9.96307 5.60936C9.73963 5.82212 9.51168 6.03225 9.38665 6.3258C9.33904 6.43752 9.28075 6.54475 9.22713 6.65384C8.62148 7.88577 8.01564 9.1177 7.40998 10.3496C6.7867 11.6179 6.16343 12.8862 5.54053 14.1547C5.32196 14.6001 5.10526 15.0462 4.88782 15.492C4.8792 15.5049 4.86926 15.5169 4.86251 15.5308C4.58471 16.0963 4.30747 16.6621 4.02948 17.2274C3.98355 17.321 3.98318 17.3225 4.08721 17.3225C4.9553 17.3226 5.82358 17.317 6.69166 17.3268C6.92635 17.3294 7.10762 17.2471 7.27127 17.0941C7.5575 16.8266 7.76839 16.5025 7.96371 16.1679C8.29756 15.5962 8.56543 14.9902 8.87154 14.4038C8.88653 14.375 8.90359 14.3474 8.92552 14.3094C8.94596 14.3425 8.96002 14.3624 8.97089 14.384C9.10173 14.6428 9.22957 14.9034 9.36341 15.1608C9.46707 15.3597 9.54374 15.575 9.6772 15.7557C9.92801 16.0952 10.2203 16.3972 10.5605 16.6488C11.26 17.1661 12.0205 17.3153 12.8481 17.0051C13.3569 16.8145 13.7837 16.4975 14.1642 16.1158C14.3071 15.9726 14.4585 15.8337 14.5508 15.6496C14.7465 15.2594 14.9363 14.8661 15.1298 14.4747C15.1493 14.4351 15.1534 14.3671 15.2033 14.3682C15.2507 14.3693 15.2597 14.4361 15.2809 14.4762C15.5872 15.0588 15.8635 15.6569 16.1846 16.2317C16.3692 16.5618 16.5728 16.8799 16.8495 17.1434C16.9734 17.2615 17.1115 17.3283 17.293 17.326C17.9425 17.3181 18.5922 17.323 19.2417 17.323C19.4697 17.323 19.6978 17.321 19.9257 17.3238C20.0058 17.3249 20.0176 17.3061 19.978 17.2345ZM12.6884 12.304C12.4792 12.719 12.2689 13.1335 12.0592 13.5481C12.044 13.5779 12.0273 13.6068 12.0089 13.6405C11.9647 13.6057 11.9517 13.5599 11.9307 13.52C11.512 12.726 11.0936 11.9319 10.6748 11.1379C10.6495 11.0895 10.6231 11.0419 10.5972 10.9939C10.7168 10.7506 10.8349 10.5067 10.9566 10.2645C11.2514 9.67631 11.548 9.08865 11.8441 8.50099C11.8931 8.40389 11.9439 8.30773 12.0031 8.19319C12.0878 8.3529 12.1662 8.49949 12.2432 8.64664C12.6211 9.36795 12.9987 10.0895 13.3766 10.8108C13.3867 10.8301 13.3996 10.8479 13.4112 10.8663C13.1704 11.3456 12.9299 11.8251 12.6884 12.304Z" fill="#FF3F4A"/>
<path d="M19.1271 15.5663C19.1267 15.5661 19.1263 15.5661 19.1258 15.5658C19.1256 15.5658 19.1256 15.5658 19.1254 15.5658C19.1254 15.5656 19.1254 15.5656 19.1254 15.5654C19.1256 15.5654 19.1265 15.5658 19.1269 15.5661C19.1271 15.5663 19.1271 15.5663 19.1271 15.5663Z" fill="#FD2134"/>
<path d="M19.1985 15.7025C19.1318 15.6794 19.1294 15.622 19.1254 15.5658C19.1254 15.5656 19.1254 15.5656 19.1254 15.5654C19.1256 15.5656 19.1256 15.5656 19.1258 15.5658C19.1588 15.6065 19.1824 15.6524 19.1985 15.7025Z" fill="#FD3F4A"/>
<path d="M13.4111 10.8674C13.1703 11.3467 12.9298 11.8262 12.6883 12.3051C12.4791 12.7202 12.2688 13.1346 12.059 13.5493C12.0439 13.5791 12.0272 13.6079 12.0088 13.6417C11.9646 13.6068 11.9516 13.5611 11.9306 13.5211C11.5119 12.7271 11.0935 11.9331 10.6747 11.139C10.6494 11.0906 10.623 11.043 10.5971 10.995C10.7167 10.7517 10.8348 10.5079 10.9565 10.2657C11.2513 9.67745 11.5479 9.08979 11.844 8.50213C11.893 8.40503 11.9438 8.30887 12.003 8.19434C12.0877 8.35404 12.1661 8.50063 12.2431 8.64778C12.621 9.36909 12.9985 10.0906 13.3764 10.8119C13.3866 10.8312 13.3995 10.849 13.4111 10.8674Z" fill="#010631"/>
</svg>
