<svg width="40" height="40" viewBox="0 0 40 40" fill="none" xmlns="http://www.w3.org/2000/svg"><rect fill="#262437" width="40" height="40" rx="12"/><g transform="translate(4 4)"><circle cx="16" cy="16" r="14" fill="#fff"/><svg width="32" height="32" viewBox="0 0 32 32" xmlns="http://www.w3.org/2000/svg"><path fill-rule="evenodd" clip-rule="evenodd" d="M0 16C0 7.163 7.163 0 16 0s16 7.163 16 16-7.163 16-16 16S0 24.837 0 16z" fill="#262437"/><path fill-rule="evenodd" clip-rule="evenodd" d="M18.118 9.167C16.025 8.314 13.874 8.014 12.484 8h-.069C10.165 8.032 8 10.152 8 15.774 8.204 18.95 10.18 24 12.445 24c1.28 0 2.423-1.143 3.175-2.933a.683.683 0 01.303-.339c1.21-.65 1.619-.77 3.167-1.064a2.165 2.165 0 01.267-.036c.177-.025 2.17-.315 2.935-.812 1.337-.774 1.518-1.966 1.667-2.564a3.88 3.88 0 00.038-.476c.044-1.261-.418-2.369-1.19-3.323-.756-1.016-1.843-1.929-3.174-2.58-.542-.264-1.057-.52-1.515-.706z" fill="#fff"/></svg></g></svg>