<svg width="256" height="256" viewBox="0 0 256 256" fill="none" xmlns="http://www.w3.org/2000/svg"><circle cx="128" cy="128" r="128" fill="#82e3d9"/><path fill-rule="evenodd" clip-rule="evenodd" d="M135.312 212.947C178.975 209.238 213.256 172.623 213.256 128 213.256 80.9142 175.086 42.7436 128 42.7436 80.9142 42.7436 42.7436 80.9142 42.7436 128 42.7436 174.273 79.6072 211.935 125.569 213.222V149.438C114.446 147.184 106.074 137.352 106.074 125.564 106.074 112.111 116.98 101.205 130.433 101.205 143.886 101.205 154.792 112.111 154.792 125.564 154.792 137.346 146.427 147.174 135.312 149.434V212.947zM128 223C180.467 223 223 180.467 223 128 223 75.5329 180.467 33 128 33c-52.4671.0-95 42.5329-95 95C33 180.467 75.5329 223 128 223zM130.433 140.18C138.504 140.18 145.048 133.636 145.048 125.564 145.048 117.492 138.504 110.949 130.433 110.949 122.361 110.949 115.817 117.492 115.817 125.564 115.817 133.636 122.361 140.18 130.433 140.18zM169.418 130.437C174.799 130.437 179.161 126.074 179.161 120.693 179.161 115.312 174.799 110.95 169.418 110.95 164.036 110.95 159.674 115.312 159.674 120.693 159.674 126.074 164.036 130.437 169.418 130.437zM203.513 110.949c0 5.381-4.3629999999999995 9.744-9.744 9.744C188.388 120.693 184.026 116.33 184.026 110.949 184.026 105.568 188.388 101.205 193.769 101.205c5.381.0 9.744 4.3629999999999995 9.744 9.744zM91.4605 130.437C86.0792 130.437 81.7169 126.074 81.7169 120.693 81.7169 115.312 86.0792 110.95 91.4605 110.95 96.8417 110.95 101.204 115.312 101.204 120.693 101.204 126.074 96.8417 130.437 91.4605 130.437zM57.3552 110.949C57.3552 116.33 61.7176 120.693 67.0988 120.693 72.4801 120.693 76.8424 116.33 76.8424 110.949c0-5.381-4.362300000000005-9.744-9.7436-9.744C61.7176 101.205 57.3552 105.568 57.3552 110.949z" fill="#000"/></svg>