<?xml version="1.0" encoding="UTF-8"?>
<svg width="28px" height="28px" viewBox="0 0 28 28" version="1.1" xmlns="http://www.w3.org/2000/svg" xmlns:xlink="http://www.w3.org/1999/xlink">
    <!-- Generator: Sketch 63.1 (92452) - https://sketch.com -->
    <title>fuse_28</title>
    <desc>Created with Sketch.</desc>
    <defs>
        <linearGradient x1="49.0702523%" y1="20.4222778%" x2="50.2561195%" y2="55.4536508%" id="linearGradient-1">
            <stop stop-color="#B7FDBC" offset="0%"></stop>
            <stop stop-color="#FAFD89" offset="100%"></stop>
        </linearGradient>
        <linearGradient x1="50.6209428%" y1="29.0979479%" x2="49.4350469%" y2="65.4521187%" id="linearGradient-2">
            <stop stop-color="#B7FDBC" offset="0%"></stop>
            <stop stop-color="#FAFD89" offset="100%"></stop>
        </linearGradient>
        <linearGradient x1="50.175015%" y1="39.5561692%" x2="49.3839589%" y2="87.9690196%" id="linearGradient-3">
            <stop stop-color="#B7FDBC" offset="0%"></stop>
            <stop stop-color="#FAFD89" offset="100%"></stop>
        </linearGradient>
    </defs>
    <g id="fuse_28" stroke="none" stroke-width="1" fill="none" fill-rule="evenodd">
        <g id="fuse-token-01" fill-rule="nonzero">
            <circle id="Ellipse_375_1_" fill="#0A2336" cx="14.0026475" cy="13.9987393" r="13.9901666"></circle>
            <path d="M13.9228456,19.2819271 C13.1639081,19.2812967 12.4121567,19.1339217 11.709068,18.8478703 L8.01044575,17.3481495 L6.16264746,18.1710041 C5.66227825,18.3942729 5.43774876,18.9808735 5.66101756,19.4812427 C5.76515083,19.714597 5.95513733,19.8986583 6.1916434,19.9953534 L11.9748222,22.5193877 C13.2304728,23.030851 14.6361459,23.0326159 15.8929311,22.5240522 L21.7019541,20.0063215 C22.2967492,19.765403 22.583683,19.0877803 22.3427645,18.4929851 C22.2246376,18.2013868 21.9934264,17.9701756 21.7019541,17.8521747 L20.1589914,17.2252319 L16.1241423,18.8488789 C15.4248357,19.1329131 14.6774966,19.27991 13.9228456,19.2819271 Z" id="Path_3973_2_" fill="url(#linearGradient-1)"></path>
            <path d="M21.7042233,13.0757857 L19.7396848,12.2811706 L16.1256551,13.7355065 C15.4266006,14.0179018 14.6798919,14.1633859 13.9259973,14.1641423 C13.1670599,14.1635119 12.4153084,14.0161369 11.7122197,13.7300855 L8.41311121,12.3923638 L6.16567312,13.3929761 C5.66530392,13.6162449 5.44077443,14.2028456 5.66404322,14.7032148 C5.7681765,14.9365691 5.95816299,15.1206303 6.19466907,15.2173255 L9.64266547,16.6223683 L12.1901486,17.6809725 C13.2994327,18.1335615 14.5415939,18.1352004 15.6522647,17.6856371 L18.4615939,16.5406754 L21.7049797,15.2289239 C22.2995227,14.9882575 22.5863305,14.3111391 22.345538,13.7167222 C22.2274111,13.4249977 21.9959478,13.1936605 21.7042233,13.0757857 Z" id="Path_3974_2_" fill="url(#linearGradient-2)"></path>
            <path d="M21.7042233,7.95169743 L15.2323278,5.33361549 C14.403548,4.99814498 13.4739127,5.01428186 12.6573615,5.37824403 L6.1649167,8.26510581 C5.6645475,8.48837461 5.44001801,9.07497524 5.66328681,9.57534444 C5.76742008,9.80857271 5.95740657,9.99263395 6.19391265,10.0893291 L10.050878,11.6605313 L12.1886357,12.5616749 C13.2980459,13.0141378 14.540081,13.0157767 15.6507519,12.5663395 L18.0282936,11.5867807 L21.7027105,10.0979018 C22.2956146,9.85206664 22.5770014,9.1721747 22.3311661,8.57939667 C22.2132913,8.29548852 21.9878793,8.06969833 21.7042233,7.95169743 Z" id="Path_3975_2_" fill="url(#linearGradient-3)"></path>
        </g>
    </g>
</svg>