<svg width="24" height="24" viewBox="0 0 24 24" fill="none" xmlns="http://www.w3.org/2000/svg">
<path fill-rule="evenodd" clip-rule="evenodd" d="M0 12C0 5.37259 5.37259 0 12 0C18.6274 0 24 5.37259 24 12C24 18.6274 18.6274 24 12 24C5.37259 24 0 18.6274 0 12Z" fill="black"/>
<path d="M18.1408 5.40433C17.6879 5.66029 16.0341 5.73904 15.9159 5.77842C15.7584 5.8178 12.7854 5.8178 12.7263 5.77842C12.687 5.75873 12.2538 5.4634 12.0569 5.32557C11.9978 5.2862 11.9781 5.26651 11.9781 5.26651C11.9781 5.26651 12.2735 5.18775 12.7066 5.06962C13.8092 4.79397 15.8372 4.28206 16.2113 4.34113C16.4475 4.3805 16.7823 4.43957 17.117 4.55771C17.2548 4.65615 17.3926 4.75459 17.5304 4.85304C17.7076 4.99086 17.8651 5.12868 18.0227 5.26651C18.062 5.32557 18.1014 5.36495 18.1408 5.40433Z" fill="url(#paint0_linear)"/>
<path d="M3.27564 9.79422C5.89427 9.2823 8.5129 8.65226 11.1512 8.19941C13.8092 7.74657 16.8807 7.17559 19.6765 7.47092C19.7159 7.47092 19.7553 7.47092 19.7947 7.49061C19.8537 7.60875 19.9325 7.72688 19.9915 7.84501C20.4444 8.71133 20.7594 9.63671 20.8972 10.6408C20.9169 10.7984 20.9366 10.9756 20.9563 11.1331C20.8579 11.2512 20.7397 11.3693 20.6413 11.4875C20.2278 11.4678 19.834 11.4678 19.4206 11.4875C19.3812 11.4875 19.3221 11.4875 19.2827 11.5072C18.8693 10.5227 16.6444 10.7787 15.6797 10.9362C14.518 11.0937 13.3564 11.2906 12.1947 11.5072C12.0963 11.5268 11.9781 11.5465 11.8797 11.5662C11.289 11.6647 10.6787 11.7828 10.088 11.8812C7.54814 12.3144 5.658 12.7082 4.12226 12.9248C4.10257 12.8263 4.0632 12.7476 4.04351 12.6491C4.00413 12.5113 3.96475 12.3538 3.90569 12.216C3.84662 12.0584 3.80724 11.9009 3.74817 11.7434C3.63004 11.4284 3.53159 11.0937 3.43315 10.7787C3.35439 10.5424 3.29533 10.3061 3.25595 10.0699" fill="url(#paint1_linear)"/>
<path d="M17.5107 4.8724C16.0144 4.518 14.3802 4.77396 12.8445 5.14805C12.5885 5.20711 12.3129 5.28587 12.0569 5.34494C11.7419 5.42369 11.4269 5.50245 11.1315 5.60089C10.1077 5.87654 9.08387 6.19156 8.06004 6.44752C7.43 6.60503 6.7212 6.86098 6.05178 6.78223C5.67769 6.74285 5.20515 6.64441 4.9295 6.44752C5.91395 5.18742 7.23311 4.20298 8.76885 3.61231C9.77298 3.21853 10.8756 3.00195 12.0175 3.00195C13.9077 3.00195 15.66 3.59262 17.117 4.57707C17.2548 4.67551 17.3729 4.77396 17.5107 4.8724Z" fill="url(#paint2_linear)"/>
<path d="M19.1646 17.4533C18.8693 17.8471 18.5542 18.2015 18.1998 18.5362C17.8454 18.8709 17.4714 19.1663 17.0776 19.4419C16.2506 20.0129 15.3253 20.4264 14.3408 20.702C14.2227 20.7414 14.1045 20.7611 13.9864 20.7808C13.3564 20.9186 12.6869 20.9973 11.9978 20.9973C11.0921 20.9973 10.2258 20.8595 9.39889 20.6232C9.22169 20.5642 9.04449 20.5051 8.88698 20.4461C8.21755 20.1901 7.58751 19.8751 6.99684 19.4813C6.78026 19.3238 6.56369 19.1663 6.34711 19.0088C6.38648 19.0284 6.42586 19.0284 6.46524 19.0481C7.98128 19.4222 9.63516 19.1663 11.2103 18.7922C11.8009 18.6544 12.3916 18.4772 12.9429 18.3393C13.9667 18.0637 14.9905 17.729 16.0341 17.4533C16.6641 17.2761 17.3926 17.0399 18.0423 17.1186C18.1998 17.1383 18.3574 17.158 18.5346 17.1974C18.7708 17.2564 19.0071 17.3352 19.1646 17.4533Z" fill="#61C0E2"/>
<path d="M12.116 11.4876C12.0372 11.5073 11.9585 11.5467 11.8797 11.5664C11.86 11.5664 11.8403 11.5664 11.8403 11.5861C10.344 12.0586 8.82792 12.4918 7.29219 12.8068C6.24867 13.0234 5.16578 13.2596 4.10258 12.9643C3.72849 12.8658 3.3544 12.6886 3.01969 12.4327C3.01969 12.2949 3 12.1374 3 11.9995C3 11.3301 3.07876 10.6607 3.21658 10.0306C3.23627 9.95188 3.25596 9.87313 3.27565 9.79437C3.39378 9.75499 3.49222 9.7353 3.61036 9.69592C5.18547 9.36121 6.89841 9.77468 8.39477 10.2669C9.61548 10.6607 10.8559 11.0938 12.116 11.4876Z" fill="url(#paint3_linear)"/>
<path d="M20.976 11.1138C20.9957 11.4092 21.0154 11.6848 21.0154 11.9802C21.0154 12.3542 20.9957 12.7086 20.9563 13.0631C20.7397 13.1024 20.5035 13.1024 20.2672 13.0827C17.5108 12.9055 14.8331 12.2755 12.1948 11.4879C12.1751 11.4879 12.1357 11.4682 12.116 11.4682C12.1948 11.4486 12.2538 11.4289 12.3326 11.3895C14.1636 10.7594 15.9947 9.99158 17.9242 9.83407C18.7709 9.75531 19.7159 9.79469 20.4838 10.2475C20.6019 10.3263 20.7791 10.4444 20.917 10.6019C20.9366 10.7988 20.9563 10.9563 20.976 11.1138Z" fill="url(#paint4_linear)"/>
<path d="M20.7398 14.2244C20.4444 15.4254 19.8931 16.5083 19.1646 17.4533C18.8693 17.8471 18.5543 18.2015 18.1999 18.5362C18.3377 18.3197 18.4362 18.1228 18.5149 17.9259C18.574 17.7487 18.633 17.5715 18.5937 17.3943C18.574 17.3155 18.5543 17.2565 18.5346 17.1974C18.1605 16.3508 16.6445 16.587 15.975 16.7249C14.6165 17.0005 13.2777 17.3352 11.9388 17.6502C9.24142 18.3 7.54817 18.8316 6.20933 18.8906C5.34301 18.1622 4.61452 17.2565 4.06323 16.2326C4.61452 16.1539 5.28394 16.0357 6.0715 15.8192C8.29635 15.2482 10.4818 14.5394 12.7067 14.0078C14.774 13.5156 17.1958 12.8855 19.3222 13.3777C19.9128 13.5156 20.3854 13.8109 20.7398 14.2244Z" fill="url(#paint5_linear)"/>
<path d="M17.0776 19.4418C16.2507 20.0128 15.3253 20.4262 14.3408 20.7019C14.2227 20.7412 14.1046 20.7609 13.9864 20.7806L9.41858 20.6231C9.24138 20.564 9.06419 20.505 8.90668 20.4459C9.69423 20.3672 10.659 20.2293 11.7419 19.9931C12.0372 19.934 12.3522 19.8552 12.6869 19.7568C15.0693 19.1268 16.4475 19.0086 17.0776 19.4418Z" fill="url(#paint6_linear)"/>
<path d="M14.3408 20.7023C14.2227 20.7417 14.1045 20.7614 13.9864 20.7811C13.3564 20.9189 12.6869 20.9977 11.9978 20.9977C11.0921 20.9977 10.2258 20.8598 9.39888 20.6236C9.22168 20.5645 9.04448 20.5054 8.88696 20.4464C8.21754 20.1904 7.58749 19.8754 6.99683 19.4816C7.78438 19.3438 9.20199 19.3832 11.7222 19.9935C12.49 20.1707 13.3563 20.407 14.3408 20.7023Z" fill="url(#paint7_linear)"/>
<path d="M19.7947 7.49134C19.8537 7.60947 19.9325 7.72761 19.9915 7.84574C19.8931 7.70792 19.775 7.58978 19.6765 7.47165C16.9988 4.7152 11.7222 6.58565 10.7968 6.80223C9.79267 7.03849 5.99271 8.21983 3.74817 8.37734C4.06319 7.66854 4.45697 7.01881 4.9295 6.40845C5.91395 5.14836 7.23311 4.16391 8.76885 3.57324C9.79267 3.90795 10.7968 4.32142 11.7222 4.7152C12.0372 4.85302 12.3719 4.97116 12.6869 5.0696C12.746 5.08929 12.7854 5.10898 12.8445 5.10898C13.7895 5.40431 14.774 5.58151 15.7978 5.58151C16.4475 5.58151 17.3926 5.6012 18.0226 5.26649C18.062 5.30587 18.1014 5.34525 18.1605 5.38462C18.7905 6.01467 19.3615 6.72347 19.7947 7.49134Z" fill="url(#paint8_linear)"/>
<path d="M23.5 12C23.5 18.3513 18.3513 23.5 12 23.5C5.64873 23.5 0.5 18.3513 0.5 12C0.5 5.64873 5.64873 0.5 12 0.5C18.3513 0.5 23.5 5.64873 23.5 12Z" stroke="white" stroke-opacity="0.3"/>
<defs>
<linearGradient id="paint0_linear" x1="11.9732" y1="5.08078" x2="18.1441" y2="5.08078" gradientUnits="userSpaceOnUse">
<stop offset="0.211" stop-color="#61BFE1"/>
<stop offset="0.9997" stop-color="#736C94"/>
</linearGradient>
<linearGradient id="paint1_linear" x1="-0.978902" y1="10.1356" x2="20.9682" y2="10.1356" gradientUnits="userSpaceOnUse">
<stop offset="0.3795" stop-color="#078B7B"/>
<stop offset="0.9091" stop-color="#4DB0B7"/>
</linearGradient>
<linearGradient id="paint2_linear" x1="4.93153" y1="4.88603" x2="17.5138" y2="4.88603" gradientUnits="userSpaceOnUse">
<stop stop-color="#F1E931"/>
<stop offset="0.1119" stop-color="#ECE735"/>
<stop offset="0.2515" stop-color="#DCE242"/>
<stop offset="0.4059" stop-color="#C3D957"/>
<stop offset="0.571" stop-color="#9FCD74"/>
<stop offset="0.7427" stop-color="#72BD99"/>
<stop offset="0.8663" stop-color="#4DB0B7"/>
</linearGradient>
<linearGradient id="paint3_linear" x1="3.10289" y1="11.3481" x2="21.337" y2="11.2178" gradientUnits="userSpaceOnUse">
<stop stop-color="#61BFE1"/>
<stop offset="0.0931388" stop-color="#63B4D7"/>
<stop offset="0.2566" stop-color="#6A97BC"/>
<stop offset="0.4519" stop-color="#736C94"/>
</linearGradient>
<linearGradient id="paint4_linear" x1="20.3786" y1="11.3859" x2="9.56138" y2="12.3278" gradientUnits="userSpaceOnUse">
<stop stop-color="#804C88"/>
<stop offset="0.2619" stop-color="#6C5F8B"/>
<stop offset="0.658" stop-color="#51788F"/>
<stop offset="0.8911" stop-color="#61C1E3"/>
</linearGradient>
<linearGradient id="paint5_linear" x1="4.05878" y1="16.0468" x2="20.7348" y2="16.0468" gradientUnits="userSpaceOnUse">
<stop stop-color="#F1E931"/>
<stop offset="0.1373" stop-color="#EDE834"/>
<stop offset="0.2777" stop-color="#E1E33E"/>
<stop offset="0.4194" stop-color="#CCDC4F"/>
<stop offset="0.5622" stop-color="#AFD267"/>
<stop offset="0.7058" stop-color="#8AC585"/>
<stop offset="0.8481" stop-color="#5EB6A9"/>
<stop offset="0.8963" stop-color="#4DB0B7"/>
</linearGradient>
<linearGradient id="paint6_linear" x1="8.89061" y1="19.9854" x2="17.071" y2="19.9854" gradientUnits="userSpaceOnUse">
<stop offset="0.2004" stop-color="#F1E931"/>
<stop offset="0.9285" stop-color="#4DB0B7"/>
</linearGradient>
<linearGradient id="paint7_linear" x1="7.00614" y1="20.2139" x2="14.3314" y2="20.2139" gradientUnits="userSpaceOnUse">
<stop stop-color="#804C88"/>
<stop offset="0.2619" stop-color="#6C5F8B"/>
<stop offset="0.658" stop-color="#51788F"/>
<stop offset="0.8911" stop-color="#61C1E3"/>
</linearGradient>
<linearGradient id="paint8_linear" x1="11.8741" y1="3.37051" x2="11.8741" y2="9.65084" gradientUnits="userSpaceOnUse">
<stop offset="0.1684" stop-color="#44518C"/>
<stop offset="0.9831" stop-color="#008181"/>
</linearGradient>
</defs>
</svg>
