<svg width="24" height="24" viewBox="0 0 24 24" fill="none" xmlns="http://www.w3.org/2000/svg">
<path fill-rule="evenodd" clip-rule="evenodd" d="M0 12C0 5.37259 5.37259 0 12 0C18.6274 0 24 5.37259 24 12C24 18.6274 18.6274 24 12 24C5.37259 24 0 18.6274 0 12Z" fill="#30B6F3"/>
<path d="M23.5 12C23.5 18.3513 18.3513 23.5 12 23.5C5.64873 23.5 0.5 18.3513 0.5 12C0.5 5.64873 5.64873 0.5 12 0.5C18.3513 0.5 23.5 5.64873 23.5 12Z" stroke="white" stroke-opacity="0.3"/>
<path d="M7.61654 15.3616L5 18.5278V12.2031L7.61654 15.3616Z" fill="white"/>
<path d="M19.1743 12.2031V18.5278L16.5562 15.3616L19.1743 12.2031Z" fill="white"/>
<path d="M7.68391 8.1875V15.0971L5 11.865L5.07196 11.7181V11.7165L7.68391 8.1875Z" fill="white"/>
<path d="M10.5653 11.7944L7.90283 15.0173V8.16895L10.5653 11.7944Z" fill="white"/>
<path d="M11.8683 9.17023L10.6833 11.5816L8.08356 8.04492L11.8683 9.17023Z" fill="white"/>
<path d="M19.1743 11.865L16.4904 15.0971V8.1875L19.1023 11.7181L19.1743 11.865Z" fill="white"/>
<path d="M16.2715 8.16895V15.0173L13.6075 11.7944L16.2715 8.16895Z" fill="white"/>
<path d="M16.5547 7.90669L16.5741 7.93285L16.5119 7.83932L16.6527 7.64947H16.6497L16.9375 7.25293L18.5834 10.6472L16.5547 7.90669Z" fill="white"/>
<path d="M7.5686 7.97558L7.61961 7.90669L5.59097 10.6472L7.23685 7.25293L7.52467 7.64947H7.52161L7.66093 7.83932L7.5686 7.97558Z" fill="white"/>
<path d="M16.0908 8.04492L13.4896 11.5816L12.3015 9.17176L16.0908 8.04492Z" fill="white"/>
<path d="M16.1843 7.78935L12.3 8.94529L14.1648 5.39941L15.0559 6.45429L15.3453 6.79573L16.1843 7.78935Z" fill="white"/>
<path d="M16.8135 7.05096L16.3772 7.6557L16.3726 7.66183L16.2185 7.49197L16.2716 7.55466L14.9595 6.00372L14.9396 5.97922L14.8599 5.88584L14.2934 5.21676L14.2736 5.19226L14.1299 5.02174L14.1434 5.03611H14.1419L13.3304 4.06543L16.8135 7.05096Z" fill="white"/>
<path d="M13.7973 4.96432L12.0902 4.61218L12.081 4.61065L10.3678 4.97504L11.9034 3.15617L12.0871 3L12.2678 3.15463V3.15617L13.7973 4.96432Z" fill="white"/>
<path d="M13.9459 5.23095L12.1393 8.77223L12.1224 8.80745L12.0888 8.89471L12.049 8.80286L10.227 5.22942L12.0719 4.83594L13.9459 5.23095Z" fill="white"/>
<path d="M11.8667 8.94375L7.98853 7.78935L9.1169 6.45428L10.0386 5.36572L11.8667 8.94375Z" fill="white"/>
<path d="M10.0172 5.04838L10.0274 5.03615L9.92988 5.15249L9.78597 5.32396L9.79056 5.32243L9.72778 5.39746L7.90279 7.55469L7.9247 7.52879L7.8002 7.66186L7.79561 7.65573L7.36081 7.05097L10.8301 4.07617L10.0172 5.04838Z" fill="white"/>
</svg>
