<?xml version="1.0" standalone="no"?>
<!DOCTYPE svg PUBLIC "-//W3C//DTD SVG 20010904//EN"
 "http://www.w3.org/TR/2001/REC-SVG-20010904/DTD/svg10.dtd">
<svg version="1.0" xmlns="http://www.w3.org/2000/svg"
 width="350.000000pt" height="350.000000pt" viewBox="0 0 350.000000 350.000000"
 preserveAspectRatio="xMidYMid meet">

<g transform="translate(0.000000,350.000000) scale(0.100000,-0.100000)"
fill="#000000" stroke="none">
<path d="M1460 3330 c-213 -38 -424 -123 -610 -248 -124 -83 -157 -109 -149
-116 3 -3 142 -82 310 -176 167 -94 314 -178 327 -186 43 -28 64 -15 83 51
166 580 191 677 178 686 -17 11 -12 11 -139 -11z m39 -83 c8 -10 -6 -72 -55
-248 -80 -288 -86 -304 -107 -303 -9 1 -127 64 -262 140 l-246 139 31 26 c98
83 324 188 505 235 106 27 119 28 134 11z"/>
<path d="M1870 3338 c1 -7 47 -177 103 -378 83 -297 105 -365 120 -368 10 -2
64 22 120 54 56 31 199 111 317 177 118 65 221 125 228 131 20 20 6 37 -71 92
-213 152 -467 255 -724 293 -90 14 -93 14 -93 -1z m214 -93 c111 -29 220 -67
311 -110 87 -42 237 -133 248 -152 6 -9 -501 -301 -513 -295 -8 4 -149 504
-150 533 0 45 10 47 104 24z"/>
<path d="M1632 3012 c-56 -175 -102 -327 -102 -338 0 -19 7 -20 178 -20 97 1
194 -3 216 -7 38 -8 38 -8 32 20 -13 60 -210 663 -216 663 -4 0 -52 -143 -108
-318z m167 -82 c28 -91 54 -173 57 -182 5 -16 -3 -18 -81 -18 -108 0 -125 8
-125 61 0 46 84 319 95 307 1 -2 26 -77 54 -168z"/>
<path d="M616 2861 c-5 -8 324 -640 334 -641 3 0 18 19 35 42 45 64 149 171
213 219 31 24 61 46 65 50 7 5 -619 339 -636 339 -3 0 -8 -4 -11 -9z m342
-241 c89 -46 162 -88 162 -91 0 -9 -170 -152 -174 -148 -2 2 -40 71 -85 153
-74 136 -94 183 -73 174 4 -1 80 -41 170 -88z"/>
<path d="M2523 2699 l-313 -160 73 -58 c72 -58 183 -170 213 -216 9 -14 24
-25 33 -25 11 0 65 95 174 304 86 167 157 306 157 310 0 16 -45 -5 -337 -155z
m83 -185 c-49 -96 -92 -172 -96 -167 -68 73 -149 177 -144 185 8 12 317 166
324 161 2 -2 -36 -83 -84 -179z"/>
<path d="M2795 2493 c-232 -409 -222 -390 -208 -404 12 -12 704 -208 736 -209
10 0 20 7 23 15 8 21 -40 237 -77 350 -56 169 -179 395 -282 518 l-24 28 -168
-298z m308 -43 c60 -115 96 -208 127 -329 24 -94 25 -130 6 -137 -8 -3 -113
22 -233 56 -297 84 -313 89 -313 107 0 8 64 127 141 264 l142 250 38 -53 c21
-29 63 -100 92 -158z"/>
<path d="M467 2728 c-139 -171 -257 -432 -306 -675 -27 -132 -28 -173 -1 -173
16 0 223 57 676 185 29 8 55 22 58 31 4 10 -49 114 -141 277 -80 144 -163 291
-183 327 -20 36 -43 66 -52 68 -9 2 -31 -15 -51 -40z m188 -326 c75 -133 135
-250 133 -259 -2 -14 -64 -34 -277 -90 -151 -41 -276 -71 -279 -69 -9 10 29
186 59 273 17 48 47 119 66 157 54 107 144 249 153 239 4 -4 69 -117 145 -251z"/>
<path d="M1629 2571 c-203 -29 -402 -140 -528 -296 -174 -215 -232 -497 -155
-762 171 -593 908 -797 1356 -375 167 158 253 338 265 559 20 347 -165 656
-480 803 -127 60 -322 90 -458 71z m346 -104 c118 -39 199 -90 301 -192 77
-77 98 -105 138 -185 64 -131 80 -200 80 -340 0 -143 -19 -224 -81 -350 -40
-80 -61 -109 -138 -185 -102 -102 -183 -153 -300 -191 -206 -66 -435 -41 -620
68 -84 50 -217 181 -264 260 -125 215 -145 457 -55 678 73 180 231 339 414
415 105 44 171 55 315 51 107 -2 144 -8 210 -29z"/>
<path d="M1590 2425 c-36 -8 -108 -35 -160 -61 -80 -39 -109 -61 -182 -134
-72 -73 -93 -102 -131 -181 -59 -123 -72 -181 -71 -314 2 -190 67 -340 208
-481 147 -145 320 -212 525 -201 184 9 314 68 447 201 138 139 193 264 201
461 6 144 -9 222 -67 340 -83 170 -218 288 -405 351 -100 33 -263 42 -365 19z
m340 -85 c195 -66 364 -243 415 -436 20 -76 20 -231 0 -309 -55 -213 -223
-386 -440 -451 -82 -25 -248 -25 -329 0 -116 35 -187 77 -271 161 -92 91 -136
165 -165 281 -24 93 -26 226 -5 309 54 215 239 401 455 460 80 22 255 14 340
-15z"/>
<path d="M1622 2058 c-9 -9 -12 -91 -12 -310 0 -290 1 -298 21 -308 13 -7 78
-10 185 -8 178 3 184 5 184 60 0 49 -21 58 -134 58 -87 0 -105 3 -119 18 -15
16 -17 49 -17 248 0 166 -3 233 -12 242 -7 7 -28 12 -48 12 -20 0 -41 -5 -48
-12z"/>
<path d="M2641 1918 c10 -73 10 -293 -1 -348 -4 -25 -7 -46 -5 -48 7 -7 685
214 685 223 0 6 -150 57 -332 115 -183 57 -338 105 -344 107 -7 3 -8 -13 -3
-49z m286 -114 c96 -31 172 -58 170 -60 -2 -3 -82 -29 -177 -60 -119 -37 -177
-51 -184 -44 -11 11 -22 181 -13 205 4 8 11 15 18 15 6 0 90 -25 186 -56z"/>
<path d="M473 1857 c-178 -55 -323 -106 -323 -112 0 -9 649 -216 675 -215 6 0
10 79 10 215 0 209 -1 215 -20 214 -11 0 -165 -46 -342 -102z m280 -72 c3 -41
2 -87 -2 -102 -12 -45 -59 -42 -232 13 -82 26 -147 49 -145 52 7 6 339 110
357 111 13 1 17 -14 22 -74z"/>
<path d="M137 1583 c45 -315 152 -583 321 -808 25 -33 48 -64 52 -68 10 -12
393 671 386 688 -2 7 -20 18 -38 23 -18 5 -181 51 -363 101 -181 51 -338 94
-347 97 -14 4 -16 -1 -11 -33z m355 -137 c303 -85 298 -84 298 -102 0 -12
-262 -489 -278 -506 -9 -9 -98 125 -141 209 -49 99 -90 208 -116 312 -31 126
-38 161 -31 161 3 0 123 -33 268 -74z"/>
<path d="M2942 1510 c-189 -54 -349 -103 -355 -109 -9 -9 -6 -23 14 -59 15
-26 94 -168 177 -317 179 -320 174 -314 199 -299 36 21 134 171 203 309 74
149 128 311 152 455 18 103 15 120 -21 119 -14 -1 -181 -45 -369 -99z m305
-17 c16 -40 -58 -285 -128 -425 -52 -104 -141 -241 -150 -230 -12 13 -279 493
-279 501 0 20 39 35 226 86 110 30 219 61 244 69 60 19 79 19 87 -1z"/>
<path d="M776 949 c-93 -176 -164 -324 -160 -329 7 -6 476 234 636 326 15 8 7
17 -51 62 -74 56 -169 153 -217 220 -16 23 -31 42 -34 42 -3 0 -81 -144 -174
-321z m250 112 c39 -28 94 -86 94 -99 0 -4 -72 -44 -160 -90 -129 -67 -161
-81 -166 -68 -7 17 99 223 134 261 29 32 50 31 98 -4z"/>
<path d="M2497 1231 c-38 -57 -128 -152 -207 -216 -38 -31 -68 -61 -65 -65 6
-10 603 -320 616 -320 5 0 9 7 9 15 0 17 -312 625 -321 625 -4 0 -18 -17 -32
-39z m53 -163 c19 -20 150 -268 150 -283 0 -3 -76 34 -170 82 -93 48 -170 93
-170 100 0 20 122 123 146 123 13 0 33 -10 44 -22z"/>
<path d="M1324 878 c-166 -91 -624 -353 -624 -357 0 -11 151 -117 241 -169
173 -100 352 -164 554 -197 73 -12 92 -12 102 -2 11 11 -5 79 -88 372 -55 198
-106 366 -113 373 -10 10 -24 6 -72 -20z m33 -100 c17 -22 155 -526 148 -538
-11 -17 -88 -5 -204 31 -180 57 -494 229 -459 252 89 57 468 265 484 266 12 1
26 -5 31 -11z"/>
<path d="M2072 873 c-6 -16 -43 -143 -82 -283 -39 -140 -80 -284 -91 -319 -23
-76 -24 -117 -4 -125 20 -7 155 17 275 49 118 32 281 102 383 163 83 50 227
153 227 163 0 3 -35 25 -77 49 -43 24 -192 108 -331 187 -139 79 -261 143
-271 143 -11 0 -23 -11 -29 -27z m363 -235 c110 -62 200 -119 200 -127 0 -36
-242 -168 -415 -225 -140 -46 -229 -63 -240 -46 -4 7 2 51 15 99 73 269 126
445 136 452 15 9 39 -3 304 -153z"/>
<path d="M1519 844 c0 -15 216 -704 221 -704 3 0 54 154 112 343 83 264 104
345 95 353 -9 9 -32 9 -82 2 -66 -9 -273 -3 -322 9 -13 3 -23 1 -24 -3z m328
-100 c7 -19 -99 -366 -109 -356 -14 15 -110 342 -105 357 9 23 205 22 214 -1z"/>
</g>
</svg>
