<svg width="24" height="24" viewBox="0 0 24 24" fill="none" xmlns="http://www.w3.org/2000/svg">
<path d="M12 24C18.6274 24 24 18.6274 24 12C24 5.37258 18.6274 0 12 0C5.37258 0 0 5.37258 0 12C0 18.6274 5.37258 24 12 24Z" fill="#3F72AB"/>
<path d="M23.5 12C23.5 18.3513 18.3513 23.5 12 23.5C5.64873 23.5 0.5 18.3513 0.5 12C0.5 5.64873 5.64873 0.5 12 0.5C18.3513 0.5 23.5 5.64873 23.5 12Z" stroke="black" stroke-opacity="0.097"/>
<path d="M20.118 8.06013C20.158 8.16021 20.108 8.23527 20.0829 8.31033C19.2923 10.7923 18.5017 13.2743 17.716 15.7613C17.661 15.9315 17.5909 15.9965 17.4058 15.9965C16.7703 15.9865 16.1398 15.9815 15.5043 15.9965C15.3141 16.0015 15.234 15.9365 15.174 15.7563C14.5435 13.8097 13.898 11.8632 13.2725 9.91162C13.2124 9.72146 13.1324 9.66642 12.9422 9.67643C12.3567 9.69144 11.7763 9.69144 11.1908 9.69644C11.0907 9.69644 10.9906 9.70145 10.8956 9.73648C10.5002 9.88159 10.4352 10.2369 10.7605 10.5121C11.0307 10.7373 11.3709 10.8524 11.6762 11.0175C12.0465 11.2127 12.4268 11.3828 12.7871 11.588C13.8279 12.1784 14.1232 13.3043 13.7178 14.3852C13.3926 15.2559 12.672 15.6712 11.8163 15.8914C11.5261 15.9665 11.2258 15.9965 10.9256 15.9965C9.45941 15.9915 7.99324 15.9965 6.52706 15.9915C6.457 15.9915 6.35192 16.0265 6.31689 15.9565C6.27686 15.8664 6.37694 15.8164 6.43198 15.7563C7.04247 15.0858 7.83811 14.7355 8.6938 14.5053C9.39937 14.3152 10.1199 14.2401 10.8455 14.2251C11.0307 14.2201 11.2108 14.2001 11.386 14.13C11.7663 13.9749 11.8513 13.6146 11.5761 13.3043C11.471 13.1842 11.3309 13.1092 11.1858 13.0391C10.6954 12.8089 10.2 12.5888 9.71962 12.3386C8.43859 11.678 8.01826 10.1218 8.8189 8.98087C9.24424 8.37538 9.85473 8.05513 10.5853 8.04512C11.9864 8.0201 13.3876 8.04011 14.7837 8.03511C14.9488 8.03511 15.0089 8.09015 15.0539 8.24528C15.4993 9.92663 15.9496 11.608 16.4 13.2893C16.41 13.3344 16.395 13.3944 16.47 13.3994C16.5701 13.4044 16.5651 13.3294 16.5751 13.2643C16.6452 12.834 16.7453 12.4136 16.8854 12.0033C17.3708 10.5521 18.2164 9.36618 19.4424 8.45044C19.6526 8.29532 19.8628 8.1502 20.118 8.06013Z" fill="#FBFCFC"/>
<path d="M8.33348 14.2702C7.97819 14.4553 7.62291 14.6254 7.27263 14.8156C6.82227 15.0558 6.53704 15.4411 6.25181 15.8314C6.17675 15.9365 6.1117 15.9915 5.97659 15.9915C5.39612 15.9815 4.81065 15.9815 4.22518 15.9915C4.05004 15.9965 4 15.9365 4 15.7664C4.005 13.2694 4.005 10.7673 4 8.27034C4 8.12022 4.02002 8.04016 4.19516 8.04016C4.79564 8.04516 5.39612 8.04516 5.9916 8.03516C6.16174 8.03516 6.14672 8.13524 6.14672 8.24532C6.15173 9.091 6.15173 9.93168 6.15173 10.7724C6.15173 11.8482 6.15173 12.9191 6.14172 13.9949C6.13672 14.2101 6.18676 14.2852 6.41194 14.2752C7.04745 14.2602 7.68796 14.2702 8.33348 14.2702Z" fill="#FBFCFC"/>
<path d="M19.8978 8.005C19.1822 8.32526 18.5567 8.7506 18.0463 9.33107C17.8812 9.51622 17.731 9.71138 17.5759 9.90153C17.5409 9.94156 17.5159 10.0216 17.4458 9.9916C17.3707 9.96158 17.4058 9.89653 17.4208 9.84148C17.5659 9.28103 17.711 8.71558 17.8511 8.15513C17.8761 8.05504 17.9162 8 18.0313 8C18.6568 8.005 19.2773 8.005 19.8978 8.005Z" fill="#FBFCFC"/>
</svg>
