<svg width="24" height="24" viewBox="0 0 24 24" fill="none" xmlns="http://www.w3.org/2000/svg">
<path d="M12 24C18.6274 24 24 18.6274 24 12C24 5.37258 18.6274 0 12 0C5.37258 0 0 5.37258 0 12C0 18.6274 5.37258 24 12 24Z" fill="#303030"/>
<path d="M23.5 12C23.5 18.3513 18.3513 23.5 12 23.5C5.64873 23.5 0.5 18.3513 0.5 12C0.5 5.64873 5.64873 0.5 12 0.5C18.3513 0.5 23.5 5.64873 23.5 12Z" stroke="white" stroke-opacity="0.3"/>
<path d="M11.9085 20.1636C11.0463 20.1143 10.2372 19.6252 9.80161 18.6435C9.36316 17.6553 9.5248 16.7177 10.2273 15.8854C10.3083 15.7891 10.3998 15.701 10.4889 15.6119C11.0425 15.0601 11.0316 14.205 10.4633 13.669C9.91774 13.1542 9.04748 13.2135 8.54221 13.7898C7.87151 14.5544 7.02211 14.8658 6.03193 14.6492C5.03512 14.4311 4.3739 13.7993 4.09472 12.8087C3.77667 11.6806 4.28005 10.4889 5.29772 9.90734C6.30638 9.33096 7.5781 9.49781 8.39337 10.3292C8.69626 10.6382 9.01762 10.8814 9.47361 10.8838C10.058 10.8871 10.5439 10.5695 10.7501 10.0415C10.9596 9.50445 10.8145 8.92807 10.3756 8.53465C9.55703 7.80091 9.28116 6.89511 9.56888 5.83763C9.87982 4.6934 10.9634 3.95302 12.2109 4.00232C13.3234 4.04593 14.3425 4.93893 14.5529 6.07178C14.7302 7.02546 14.4363 7.8303 13.74 8.49389C13.3599 8.85602 13.2073 9.29115 13.3267 9.80259C13.4466 10.314 13.7708 10.6529 14.2799 10.7857C14.8264 10.9278 15.289 10.7695 15.6607 10.342C16.42 9.46795 17.6514 9.20962 18.6999 9.7021C19.6138 10.1315 20.2153 11.0914 20.1688 12.0806C20.1162 13.1988 19.5706 14.0098 18.5335 14.416C17.5159 14.8146 16.5726 14.6065 15.7863 13.8363C15.5275 13.5827 15.2791 13.341 14.9056 13.2841C14.3065 13.1931 13.7528 13.4704 13.4822 13.996C13.2148 14.515 13.313 15.1398 13.7486 15.5626C14.1519 15.9536 14.4837 16.3812 14.6278 16.9386C15.0544 18.5904 13.8244 20.1764 11.9085 20.1636ZM19.126 12.0408C19.1341 11.19 18.4567 10.5013 17.6078 10.4965C16.7736 10.4918 16.0839 11.1682 16.0726 12.0019C16.0612 12.8489 16.7342 13.5438 17.5808 13.5585C18.4231 13.5732 19.1184 12.8902 19.126 12.0408ZM12.0199 8.09384C12.8665 8.10474 13.5542 7.42408 13.5613 6.569C13.5684 5.74804 12.8906 5.05696 12.0664 5.04321C11.2098 5.02899 10.5169 5.69495 10.5008 6.54625C10.4851 7.39233 11.1629 8.08294 12.0199 8.09384ZM5.0446 12.1465C5.05029 12.9954 5.73474 13.6718 6.58508 13.6694C7.41552 13.6671 8.09618 12.984 8.10281 12.146C8.10992 11.3028 7.42405 10.615 6.57229 10.6122C5.72858 10.6089 5.03844 11.3018 5.0446 12.1465ZM12.1474 16.0721C11.2928 16.0707 10.6102 16.7532 10.614 17.6041C10.6178 18.4454 11.2961 19.1208 12.1384 19.1227C12.9821 19.1246 13.667 18.4501 13.6708 17.6131C13.6746 16.7556 13.0006 16.0735 12.1474 16.0721Z" fill="#FCFCFC"/>
<path d="M19.1261 12.0404C19.118 12.8898 18.4231 13.5728 17.5808 13.5581C16.7343 13.5434 16.0612 12.8486 16.0726 12.0015C16.084 11.1678 16.7736 10.4914 17.6079 10.4961C18.4573 10.5013 19.1341 11.1896 19.1261 12.0404ZM18.6369 12.0233C18.636 11.4432 18.1819 10.9938 17.597 10.9948C17.0173 10.9957 16.5594 11.4541 16.5618 12.0319C16.5641 12.6073 17.0267 13.0637 17.6055 13.0618C18.1866 13.059 18.6378 12.6049 18.6369 12.0233Z" fill="#303030"/>
<path d="M12.0199 8.09382C11.1629 8.08292 10.4851 7.39231 10.5008 6.54623C10.5164 5.69446 11.2098 5.02897 12.0664 5.04319C12.8911 5.05646 13.5684 5.74802 13.5613 6.56898C13.5538 7.42454 12.866 8.10472 12.0199 8.09382ZM12.0256 7.6075C12.5949 7.60845 13.0717 7.14441 13.0798 6.58036C13.0878 6.0291 12.601 5.53046 12.0479 5.52287C11.4762 5.51529 10.9857 5.99971 10.9885 6.56945C10.9913 7.14157 11.4559 7.60655 12.0256 7.6075Z" fill="#303030"/>
<path d="M5.04459 12.1466C5.0389 11.302 5.72856 10.6095 6.57275 10.6123C7.42452 10.6152 8.11039 11.3029 8.10328 12.1462C8.09617 12.9842 7.41551 13.6672 6.58555 13.6696C5.73473 13.6719 5.05028 12.9956 5.04459 12.1466ZM7.60843 12.149C7.61032 11.565 7.16619 11.1114 6.58792 11.1076C5.99874 11.1038 5.52901 11.5622 5.52806 12.1428C5.52712 12.7003 6.00822 13.1804 6.5699 13.1818C7.13775 13.1833 7.60653 12.7173 7.60843 12.149Z" fill="#303030"/>
<path d="M12.1474 16.0713C13.0001 16.0727 13.6746 16.7548 13.6708 17.6127C13.6675 18.4493 12.9826 19.1243 12.1384 19.1224C11.2961 19.1205 10.6178 18.4451 10.614 17.6037C10.6102 16.7524 11.2933 16.0699 12.1474 16.0713ZM11.1065 17.6023C11.1075 18.1744 11.5705 18.6365 12.1427 18.6365C12.7091 18.6365 13.1859 18.1654 13.1888 17.6028C13.1916 17.0416 12.7167 16.56 12.155 16.5538C11.5772 16.5472 11.1056 17.0188 11.1065 17.6023Z" fill="#303030"/>
<path d="M18.6369 12.0232C18.6378 12.6048 18.1866 13.0589 17.6055 13.0612C17.0267 13.0631 16.5641 12.6071 16.5617 12.0312C16.5593 11.4534 17.0172 10.9951 17.5969 10.9941C18.1818 10.9937 18.6359 11.4425 18.6369 12.0232Z" fill="#FCFCFC"/>
<path d="M12.0256 7.60718C11.4558 7.60623 10.9913 7.14124 10.9885 6.56913C10.9856 5.99939 11.4762 5.51496 12.0479 5.52255C12.601 5.53013 13.0878 6.02877 13.0797 6.58003C13.0717 7.14408 12.5948 7.6086 12.0256 7.60718Z" fill="#FCFCFC"/>
<path d="M7.60842 12.1488C7.60653 12.7171 7.13775 13.1826 6.56943 13.1816C6.00822 13.1807 5.52664 12.7005 5.52759 12.1426C5.52901 11.562 5.99827 11.1037 6.58744 11.1074C7.16571 11.1117 7.61032 11.5648 7.60842 12.1488Z" fill="#FCFCFC"/>
<path d="M11.1065 17.6027C11.1056 17.0192 11.5772 16.5476 12.155 16.5538C12.7167 16.5599 13.1916 17.042 13.1888 17.6027C13.1859 18.1654 12.7091 18.636 12.1427 18.6365C11.5705 18.637 11.1075 18.1748 11.1065 17.6027Z" fill="#FCFCFC"/>
</svg>
