<svg width="24" height="24" viewBox="0 0 24 24" fill="none" xmlns="http://www.w3.org/2000/svg">
<path d="M12 24C18.6274 24 24 18.6274 24 12C24 5.37258 18.6274 0 12 0C5.37258 0 0 5.37258 0 12C0 18.6274 5.37258 24 12 24Z" fill="url(#paint0_linear)"/>
<path d="M23.5 12C23.5 18.3513 18.3513 23.5 12 23.5C5.64873 23.5 0.5 18.3513 0.5 12C0.5 5.64873 5.64873 0.5 12 0.5C18.3513 0.5 23.5 5.64873 23.5 12Z" stroke="black" stroke-opacity="0.097"/>
<path d="M16.4279 7.01945C16.3296 7.01945 16.2313 7.01945 16.133 7.01945C13.8916 6.97925 12.2598 8.44656 11.5913 10.3762L11.552 10.336L8.30788 7.01945C5.6143 6.77825 3.25496 8.80836 3.01903 11.542C2.78309 14.2957 4.76887 16.7077 7.44279 16.9489C7.61974 16.969 7.79669 16.969 7.97364 16.969C10.215 17.0092 11.8469 15.5218 12.5154 13.5922L12.5547 13.6324L15.8184 16.9891L16.4476 15.361L12.8889 11.7028C13.0069 10.8787 13.2822 10.2355 13.6557 9.79326L13.7147 9.71286C14.3439 9.00936 15.2089 8.62746 16.133 8.62746C20.3208 8.78826 20.5764 14.8183 16.4476 15.361L15.8184 16.9891C18.512 17.17 20.832 15.0796 20.9893 12.3259C21.1663 9.57216 19.1215 7.20035 16.4279 7.01945ZM8.28822 15.361C8.17025 15.361 8.07195 15.3811 7.97364 15.3811C3.78581 15.2203 3.53022 9.17016 7.65906 8.62746L11.2177 12.2656C11.0211 13.552 10.1954 15.2404 8.28822 15.361Z" fill="white"/>
<defs>
<linearGradient id="paint0_linear" x1="4" y1="2.5" x2="18" y2="22.5" gradientUnits="userSpaceOnUse">
<stop stop-color="#FFC113"/>
<stop offset="1" stop-color="#FF443B"/>
</linearGradient>
</defs>
</svg>
