<svg width="24" height="24" viewBox="0 0 24 24" fill="none" xmlns="http://www.w3.org/2000/svg">
<path d="M12 24C18.6274 24 24 18.6274 24 12C24 5.37258 18.6274 0 12 0C5.37258 0 0 5.37258 0 12C0 18.6274 5.37258 24 12 24Z" fill="#C44181"/>
<path d="M23.5 12C23.5 18.3513 18.3513 23.5 12 23.5C5.64873 23.5 0.5 18.3513 0.5 12C0.5 5.64873 5.64873 0.5 12 0.5C18.3513 0.5 23.5 5.64873 23.5 12Z" stroke="white" stroke-opacity="0.3"/>
<path d="M16.1627 6.39503L15.3227 8.30311L16.76 9.1677V14.9118L12 17.4758L7.27733 14.7727V9.1677L11.0573 6.95155L9.77867 13.3416L12.3173 12.9143L11.72 16.005L15.0147 10.8472L12.672 11.0559L14.7813 5.55031L12 4L5 7.89565V15.9652L12 20L19 15.9652V7.9354L16.1627 6.39503Z" fill="white"/>
</svg>
