<svg width="24" height="24" viewBox="0 0 24 24" fill="none" xmlns="http://www.w3.org/2000/svg">
<path d="M12 24C18.6274 24 24 18.6274 24 12C24 5.37258 18.6274 0 12 0C5.37258 0 0 5.37258 0 12C0 18.6274 5.37258 24 12 24Z" fill="url(#paint0_linear)"/>
<path d="M14.5533 6.44107V17.5589H9.44665V6.44107H14.5533ZM15.2767 5H8.72333C8.44123 5.28101 8.2821 5.43953 8 5.72054V18.2795C8.2821 18.5605 8.44123 18.719 8.72333 19H15.2767C15.5588 18.719 15.7179 18.5605 16 18.2795V5.72054C15.7179 5.43953 15.5588 5.28101 15.2767 5Z" fill="white"/>
<path d="M12.7161 8.58838H11.2839V10.0078H10.0687V11.4345H13.9313V10.0078H12.7161V8.58838Z" fill="white"/>
<path d="M13.9313 12.688H10.0687V14.1146H11.2839V15.5413H12.7161V14.1146H13.9313V12.688Z" fill="white"/>
<path d="M23.5 12C23.5 18.3513 18.3513 23.5 12 23.5C5.64873 23.5 0.5 18.3513 0.5 12C0.5 5.64873 5.64873 0.5 12 0.5C18.3513 0.5 23.5 5.64873 23.5 12Z" stroke="black" stroke-opacity="0.097"/>
<defs>
<linearGradient id="paint0_linear" x1="0" y1="12" x2="24" y2="12" gradientUnits="userSpaceOnUse">
<stop stop-color="#28BBE5"/>
<stop offset="1" stop-color="#35EBBC"/>
</linearGradient>
</defs>
</svg>
