<svg width="24" height="24" viewBox="0 0 24 24" fill="none" xmlns="http://www.w3.org/2000/svg">
<path d="M12 24C18.6274 24 24 18.6274 24 12C24 5.37258 18.6274 0 12 0C5.37258 0 0 5.37258 0 12C0 18.6274 5.37258 24 12 24Z" fill="#2289C3"/>
<path d="M23.5 12C23.5 18.3513 18.3513 23.5 12 23.5C5.64873 23.5 0.5 18.3513 0.5 12C0.5 5.64873 5.64873 0.5 12 0.5C18.3513 0.5 23.5 5.64873 23.5 12Z" stroke="black" stroke-opacity="0.097"/>
<path d="M11.6782 4.13771C11.7204 4.09405 11.7706 4.05942 11.8258 4.03579C11.881 4.01216 11.9402 4 12 4C12.0598 4 12.119 4.01216 12.1742 4.03579C12.2294 4.05942 12.2796 4.09405 12.3218 4.13771C12.8045 4.63643 13.9618 6.0726 15 7.79656C16.0273 9.50272 17 11.5932 17 13.3753C17 15.104 16.52 16.5176 15.6273 17.5038C14.7336 18.4928 13.4691 19 12 19C10.5318 19 9.26727 18.4928 8.37273 17.5038C7.47909 16.5176 7 15.104 7 13.3753C7 11.5923 7.97273 9.50365 9 7.79656C10.0382 6.07166 11.1955 4.63736 11.6782 4.13771Z" fill="white"/>
</svg>
