<svg xmlns="http://www.w3.org/2000/svg" xmlns:xlink="http://www.w3.org/1999/xlink" viewBox="0 0 28.36 28.36"><defs><style>.cls-1{isolation:isolate;}.cls-2{fill:#242057;}.cls-3{fill:url(#linear-gradient);}.cls-4{fill:url(#linear-gradient-2);}.cls-5{fill:url(#linear-gradient-3);}.cls-6{fill:url(#linear-gradient-4);}.cls-7{fill:url(#linear-gradient-5);}.cls-10,.cls-11,.cls-8,.cls-9{mix-blend-mode:multiply;opacity:0.4;}.cls-8{fill:url(#linear-gradient-6);}.cls-9{fill:url(#linear-gradient-7);}.cls-10{fill:url(#linear-gradient-8);}.cls-11{fill:url(#linear-gradient-9);}.cls-12{fill:url(#linear-gradient-10);}</style><linearGradient id="linear-gradient" x1="19.8" y1="-12.97" x2="17.64" y2="18.85" gradientUnits="userSpaceOnUse"><stop offset="0" stop-color="#eb1b62"/><stop offset="0.29" stop-color="#a8268a"/><stop offset="0.53" stop-color="#77459b"/><stop offset="0.77" stop-color="#4b5eaa"/><stop offset="1" stop-color="#238fcf"/></linearGradient><linearGradient id="linear-gradient-2" x1="17.07" y1="2.42" x2="22.64" y2="22.86" xlink:href="#linear-gradient"/><linearGradient id="linear-gradient-3" x1="13" y1="2.57" x2="14.42" y2="26.62" gradientUnits="userSpaceOnUse"><stop offset="0" stop-color="#eb1b62"/><stop offset="0.13" stop-color="#a8268a"/><stop offset="0.27" stop-color="#77459b"/><stop offset="0.77" stop-color="#238fcf"/><stop offset="1" stop-color="#1b364e"/></linearGradient><linearGradient id="linear-gradient-4" x1="21.23" y1="5.71" x2="17.65" y2="19.82" gradientUnits="userSpaceOnUse"><stop offset="0" stop-color="#eb1b62"/><stop offset="0.29" stop-color="#a8268a"/><stop offset="0.53" stop-color="#77459b"/><stop offset="0.77" stop-color="#238fcf"/><stop offset="1" stop-color="#1b364e"/></linearGradient><linearGradient id="linear-gradient-5" x1="11.76" y1="-0.49" x2="20.55" y2="26.57" xlink:href="#linear-gradient-4"/><linearGradient id="linear-gradient-6" x1="21.45" y1="8.3" x2="20.68" y2="9.78" gradientUnits="userSpaceOnUse"><stop offset="0" stop-color="#010101"/><stop offset="1" stop-color="#010101" stop-opacity="0"/></linearGradient><linearGradient id="linear-gradient-7" x1="18.36" y1="15.78" x2="16.36" y2="17.19" xlink:href="#linear-gradient-6"/><linearGradient id="linear-gradient-8" x1="20.41" y1="15.03" x2="21.25" y2="13.96" xlink:href="#linear-gradient-6"/><linearGradient id="linear-gradient-9" x1="15.36" y1="26.15" x2="14.73" y2="24.27" xlink:href="#linear-gradient-6"/><linearGradient id="linear-gradient-10" x1="21.1" y1="15.45" x2="21.1" y2="15.45" xlink:href="#linear-gradient-4"/></defs><g class="cls-1"><g id="Layer_1" data-name="Layer 1"><circle class="cls-2" cx="14.18" cy="14.18" r="14.18"/><path class="cls-3" d="M18.27,7.34H18.2l.07,0a2.65,2.65,0,0,1,.3.06h.07A3,3,0,0,0,18.27,7.34Z" transform="translate(-1.33 -1.36)"/><path class="cls-4" d="M18.27,7.34H18.2l.07,0a2.65,2.65,0,0,1,.3.06h.07A3,3,0,0,0,18.27,7.34Z" transform="translate(-1.33 -1.36)"/><path class="cls-5" d="M16,23.7l-2.65,0H12.11s-.48,0-.46-.29V20.29a.72.72,0,0,1,.53-.58c3.52-1.43,6.72-2.94,6.72-2.94h0a11,11,0,0,0-1.61-1l-.5.21C15.48,16.49,11,17.8,11,17.8a2.82,2.82,0,0,0-1.84,2.53v4s-.1,1.4,1.94,1.47c.06,0,5.83,0,5.83,0l2.38-2.43A9.57,9.57,0,0,1,16,23.7Z" transform="translate(-1.33 -1.36)"/><path class="cls-6" d="M23,10.66v0l0-.17a4,4,0,0,0-.17-.74l0-.05,0,0a.85.85,0,0,0-.13-.23v0c-.9-1.64-3.21-2-4.5-2.12l-.71,0,1.15.28.3.11h0a3.85,3.85,0,0,1,2.3,4.53,3.71,3.71,0,0,1-.84,1.68,4,4,0,0,1-.49.52.62.62,0,0,1-.51.21,6.62,6.62,0,0,0,.79.73c.14,0,.9.19.9.19l.05,0,.5-.48a7.53,7.53,0,0,0,.67-.92A4.35,4.35,0,0,0,22.81,13,5.13,5.13,0,0,0,23,10.66ZM22.23,14Z" transform="translate(-1.33 -1.36)"/><path class="cls-7" d="M21.1,15.45h0a19.22,19.22,0,0,0-4-2.28c-2.06-.89-4.58-1.85-5-2a.82.82,0,0,1-.45-.74l0-2.76a.27.27,0,0,1,.1-.21.24.24,0,0,1,.12-.07h5.4a1.4,1.4,0,0,1,.23,0c1.42,0,4.83.49,5.49,3.54a6.13,6.13,0,0,0-4.78-5.5,4.28,4.28,0,0,0-.84-.12c-1,0-3.28,0-4.88,0l-1.65,0h0c-1.79.06-1.7,1.44-1.7,1.44s0,3.76,0,4A2.62,2.62,0,0,0,9.8,12.4a4.34,4.34,0,0,0,1.4.95l5.34,2.07h0l.28.11c1.25.59,4,2,4,4.69,0,2.42-2.14,4.76-8.3,5.57l4.91,0A6.08,6.08,0,0,0,22.86,22C23.12,21.29,24.05,17.62,21.1,15.45Z" transform="translate(-1.33 -1.36)"/><path class="cls-8" d="M22.91,12.73s0,0,0-.05a5.08,5.08,0,0,0,.13-1.79v0c-.59-2.71-3.35-3.36-5-3.51l.49.12.31.11h0a3.73,3.73,0,0,1,2.08,2,6.28,6.28,0,0,1,1.85,3.26,1.54,1.54,0,0,0,0-.17Z" transform="translate(-1.33 -1.36)"/><path class="cls-9" d="M18.89,16.77a10.2,10.2,0,0,0-1.59-1l-.5.21-1.28.44c.29.45.68,1,1,1.44C17.94,17.22,18.89,16.77,18.89,16.77Z" transform="translate(-1.33 -1.36)"/><path class="cls-10" d="M20.36,13.84a6,6,0,0,1-.49.52.68.68,0,0,1-.18.13,12.21,12.21,0,0,1,1.37.95h0l.1-.08.05,0,0,0,.19-.18L21.6,15a6.15,6.15,0,0,0,.5-.67,7.15,7.15,0,0,0-1.39-1A5.62,5.62,0,0,1,20.36,13.84Z" transform="translate(-1.33 -1.36)"/><path class="cls-11" d="M12.55,25.79c3.29-.43,5.44-1.3,6.72-2.39a9.58,9.58,0,0,1-3.26.3h-.43a36.25,36.25,0,0,1-5.21,2,3.22,3.22,0,0,0,.76.11" transform="translate(-1.33 -1.36)"/><path class="cls-12" d="M21.1,15.45" transform="translate(-1.33 -1.36)"/></g></g></svg>