<svg width="40" height="40" viewBox="0 0 40 40" fill="none" xmlns="http://www.w3.org/2000/svg"><rect fill="#FF2D55" width="40" height="40" rx="12"/><g transform="translate(4 4)"><circle cx="16" cy="16" r="14" fill="#fff"/><svg width="32" height="32" viewBox="0 0 32 32" xmlns="http://www.w3.org/2000/svg"><path fill-rule="evenodd" clip-rule="evenodd" d="M0 16C0 7.163 7.163 0 16 0s16 7.163 16 16-7.163 16-16 16S0 24.837 0 16z" fill="#FF2D55"/><path fill-rule="evenodd" clip-rule="evenodd" d="M16 26.667c5.891 0 10.667-4.776 10.667-10.667S21.89 5.333 16 5.333 5.333 10.11 5.333 16 10.11 26.667 16 26.667zm-1.776-17.6a1.333 1.333 0 11-2.667 0 1.333 1.333 0 012.667 0zm5.419 5.6a2.667 2.667 0 100-5.334 2.667 2.667 0 000 5.334zm-12.25 4.32l5.447-6.478a.267.267 0 01.408 0l3.711 4.413a.203.203 0 010 .261l-1.832 2.17a.203.203 0 01-.155.071H7.598a.267.267 0 01-.204-.438zm7.705 1.908l3.839-4.568a.267.267 0 01.408 0l3.844 4.568a.267.267 0 01-.204.438h-7.683a.267.267 0 01-.204-.438zm7.035 1.772H9.867a.267.267 0 00-.16.48c1.938 1.456 3.954 2.186 6.293 2.186 2.34 0 4.355-.73 6.294-2.186a.267.267 0 00-.16-.48zm0 .266H9.867h12.266z" fill="#fff"/></svg></g></svg>