<svg xmlns="http://www.w3.org/2000/svg" xmlns:xlink="http://www.w3.org/1999/xlink" width="288" viewBox="0 0 288 288" height="288" version="1.0"><defs><clipPath id="a"><path d="M 6.058594 5.335938 L 284.546875 5.335938 L 284.546875 283.824219 L 6.058594 283.824219 Z M 6.058594 5.335938"/></clipPath><clipPath id="b"><path d="M 6.058594 144.578125 C 6.058594 142.300781 6.113281 140.023438 6.226562 137.746094 C 6.339844 135.472656 6.503906 133.199219 6.730469 130.929688 C 6.953125 128.664062 7.230469 126.402344 7.566406 124.148438 C 7.898438 121.894531 8.289062 119.648438 8.734375 117.414062 C 9.179688 115.179688 9.675781 112.957031 10.230469 110.746094 C 10.785156 108.535156 11.394531 106.339844 12.054688 104.160156 C 12.714844 101.976562 13.429688 99.816406 14.199219 97.667969 C 14.964844 95.523438 15.785156 93.398438 16.65625 91.292969 C 17.53125 89.1875 18.453125 87.105469 19.425781 85.042969 C 20.402344 82.984375 21.425781 80.949219 22.5 78.941406 C 23.574219 76.929688 24.699219 74.949219 25.867188 72.992188 C 27.039062 71.039062 28.257812 69.113281 29.523438 67.21875 C 30.792969 65.324219 32.101562 63.460938 33.460938 61.632812 C 34.816406 59.800781 36.21875 58.003906 37.664062 56.242188 C 39.109375 54.480469 40.597656 52.757812 42.128906 51.070312 C 43.660156 49.378906 45.230469 47.730469 46.84375 46.117188 C 48.453125 44.507812 50.101562 42.9375 51.792969 41.40625 C 53.480469 39.875 55.207031 38.386719 56.96875 36.941406 C 58.730469 35.496094 60.523438 34.09375 62.355469 32.738281 C 64.183594 31.378906 66.046875 30.066406 67.941406 28.800781 C 69.835938 27.535156 71.761719 26.316406 73.71875 25.144531 C 75.671875 23.972656 77.652344 22.851562 79.664062 21.777344 C 81.671875 20.703125 83.707031 19.679688 85.769531 18.703125 C 87.828125 17.730469 89.910156 16.804688 92.015625 15.933594 C 94.121094 15.0625 96.246094 14.242188 98.394531 13.472656 C 100.539062 12.707031 102.703125 11.992188 104.882812 11.332031 C 107.0625 10.667969 109.257812 10.0625 111.46875 9.507812 C 113.679688 8.953125 115.902344 8.453125 118.136719 8.011719 C 120.371094 7.566406 122.617188 7.175781 124.871094 6.84375 C 127.125 6.507812 129.386719 6.230469 131.65625 6.003906 C 133.921875 5.78125 136.195312 5.613281 138.46875 5.503906 C 140.746094 5.390625 143.023438 5.335938 145.304688 5.335938 C 147.582031 5.335938 149.859375 5.390625 152.136719 5.503906 C 154.410156 5.613281 156.683594 5.78125 158.953125 6.003906 C 161.21875 6.230469 163.480469 6.507812 165.734375 6.84375 C 167.988281 7.175781 170.234375 7.566406 172.46875 8.011719 C 174.703125 8.453125 176.925781 8.953125 179.136719 9.507812 C 181.347656 10.0625 183.542969 10.667969 185.722656 11.332031 C 187.90625 11.992188 190.066406 12.707031 192.214844 13.472656 C 194.359375 14.242188 196.484375 15.0625 198.589844 15.933594 C 200.695312 16.804688 202.777344 17.730469 204.835938 18.703125 C 206.898438 19.679688 208.933594 20.703125 210.941406 21.777344 C 212.953125 22.851562 214.933594 23.972656 216.890625 25.144531 C 218.84375 26.316406 220.769531 27.535156 222.664062 28.800781 C 224.558594 30.066406 226.421875 31.378906 228.25 32.738281 C 230.082031 34.09375 231.878906 35.496094 233.640625 36.941406 C 235.402344 38.386719 237.125 39.875 238.8125 41.40625 C 240.503906 42.9375 242.152344 44.507812 243.765625 46.117188 C 245.375 47.730469 246.945312 49.378906 248.476562 51.070312 C 250.007812 52.757812 251.496094 54.480469 252.941406 56.242188 C 254.386719 58.003906 255.789062 59.800781 257.144531 61.632812 C 258.503906 63.460938 259.816406 65.324219 261.082031 67.21875 C 262.347656 69.113281 263.566406 71.039062 264.738281 72.992188 C 265.910156 74.949219 267.03125 76.929688 268.105469 78.941406 C 269.179688 80.949219 270.203125 82.984375 271.179688 85.042969 C 272.152344 87.105469 273.078125 89.1875 273.949219 91.292969 C 274.820312 93.398438 275.640625 95.523438 276.40625 97.667969 C 277.175781 99.816406 277.890625 101.976562 278.550781 104.160156 C 279.214844 106.339844 279.820312 108.535156 280.375 110.746094 C 280.929688 112.957031 281.425781 115.179688 281.871094 117.414062 C 282.316406 119.648438 282.707031 121.894531 283.039062 124.148438 C 283.375 126.402344 283.652344 128.664062 283.878906 130.929688 C 284.101562 133.199219 284.269531 135.472656 284.378906 137.746094 C 284.492188 140.023438 284.546875 142.300781 284.546875 144.578125 C 284.546875 146.859375 284.492188 149.136719 284.378906 151.410156 C 284.269531 153.6875 284.101562 155.960938 283.878906 158.226562 C 283.652344 160.496094 283.375 162.757812 283.039062 165.011719 C 282.707031 167.265625 282.316406 169.507812 281.871094 171.746094 C 281.425781 173.980469 280.929688 176.203125 280.375 178.414062 C 279.820312 180.625 279.214844 182.820312 278.550781 185 C 277.890625 187.179688 277.175781 189.34375 276.40625 191.488281 C 275.640625 193.636719 274.820312 195.761719 273.949219 197.867188 C 273.078125 199.972656 272.152344 202.054688 271.179688 204.113281 C 270.203125 206.175781 269.179688 208.210938 268.105469 210.21875 C 267.03125 212.230469 265.910156 214.210938 264.738281 216.164062 C 263.566406 218.121094 262.347656 220.042969 261.082031 221.941406 C 259.816406 223.835938 258.503906 225.695312 257.144531 227.527344 C 255.789062 229.359375 254.386719 231.152344 252.941406 232.914062 C 251.496094 234.675781 250.007812 236.402344 248.476562 238.089844 C 246.945312 239.777344 245.375 241.429688 243.765625 243.039062 C 242.152344 244.652344 240.503906 246.222656 238.8125 247.753906 C 237.125 249.285156 235.402344 250.769531 233.640625 252.21875 C 231.878906 253.664062 230.082031 255.0625 228.25 256.421875 C 226.421875 257.777344 224.558594 259.089844 222.664062 260.355469 C 220.769531 261.625 218.84375 262.84375 216.890625 264.011719 C 214.933594 265.183594 212.953125 266.308594 210.941406 267.382812 C 208.933594 268.457031 206.898438 269.480469 204.835938 270.453125 C 202.777344 271.429688 200.695312 272.351562 198.589844 273.226562 C 196.484375 274.097656 194.359375 274.917969 192.214844 275.683594 C 190.066406 276.453125 187.90625 277.167969 185.722656 277.828125 C 183.542969 278.488281 181.347656 279.097656 179.136719 279.652344 C 176.925781 280.203125 174.703125 280.703125 172.46875 281.148438 C 170.234375 281.59375 167.988281 281.984375 165.734375 282.316406 C 163.480469 282.652344 161.21875 282.929688 158.953125 283.152344 C 156.683594 283.375 154.410156 283.542969 152.136719 283.65625 C 149.859375 283.769531 147.582031 283.824219 145.304688 283.824219 C 143.023438 283.824219 140.746094 283.769531 138.46875 283.65625 C 136.195312 283.542969 133.921875 283.375 131.65625 283.152344 C 129.386719 282.929688 127.125 282.652344 124.871094 282.316406 C 122.617188 281.984375 120.371094 281.59375 118.136719 281.148438 C 115.902344 280.703125 113.679688 280.203125 111.46875 279.652344 C 109.257812 279.097656 107.0625 278.488281 104.882812 277.828125 C 102.703125 277.167969 100.539062 276.453125 98.394531 275.683594 C 96.246094 274.917969 94.121094 274.097656 92.015625 273.226562 C 89.910156 272.351562 87.828125 271.429688 85.769531 270.453125 C 83.707031 269.480469 81.671875 268.457031 79.664062 267.382812 C 77.652344 266.308594 75.671875 265.183594 73.71875 264.011719 C 71.761719 262.84375 69.835938 261.625 67.941406 260.355469 C 66.046875 259.089844 64.183594 257.777344 62.355469 256.421875 C 60.523438 255.0625 58.730469 253.664062 56.96875 252.21875 C 55.207031 250.769531 53.480469 249.285156 51.792969 247.753906 C 50.105469 246.222656 48.453125 244.652344 46.84375 243.039062 C 45.230469 241.429688 43.660156 239.777344 42.128906 238.089844 C 40.597656 236.402344 39.109375 234.675781 37.664062 232.914062 C 36.21875 231.152344 34.816406 229.359375 33.460938 227.527344 C 32.101562 225.695312 30.792969 223.835938 29.523438 221.941406 C 28.257812 220.042969 27.039062 218.121094 25.867188 216.164062 C 24.699219 214.210938 23.574219 212.230469 22.5 210.21875 C 21.425781 208.210938 20.402344 206.175781 19.425781 204.113281 C 18.453125 202.054688 17.53125 199.972656 16.65625 197.867188 C 15.785156 195.761719 14.964844 193.636719 14.199219 191.488281 C 13.429688 189.34375 12.714844 187.179688 12.054688 185 C 11.394531 182.820312 10.785156 180.625 10.230469 178.414062 C 9.675781 176.203125 9.179688 173.980469 8.734375 171.746094 C 8.289062 169.507812 7.898438 167.265625 7.566406 165.011719 C 7.230469 162.757812 6.953125 160.496094 6.730469 158.226562 C 6.503906 155.960938 6.339844 153.6875 6.226562 151.410156 C 6.113281 149.136719 6.058594 146.859375 6.058594 144.578125 Z M 6.058594 144.578125"/></clipPath><clipPath id="d"><path d="M 4.1875 3.464844 L 286.1875 3.464844 L 286.1875 285.464844 L 4.1875 285.464844 Z M 4.1875 3.464844"/></clipPath><linearGradient x1="1770.926" gradientTransform="rotate(-90 1870.839 2256.975) scale(2.17061)" xmlns:xlink="http://www.w3.org/1999/xlink" y1="244.834" x2="1899.226" gradientUnits="userSpaceOnUse" y2="244.834" xlink:type="simple" xlink:actuate="onLoad" id="c" xlink:show="other"><stop stop-color="#1053B7" offset="0"/><stop stop-color="#1153B7" offset=".004"/><stop stop-color="#1353B6" offset=".008"/><stop stop-color="#1454B6" offset=".012"/><stop stop-color="#1654B5" offset=".016"/><stop stop-color="#1754B5" offset=".02"/><stop stop-color="#1955B5" offset=".023"/><stop stop-color="#1A55B4" offset=".027"/><stop stop-color="#1B55B4" offset=".031"/><stop stop-color="#1D56B3" offset=".035"/><stop stop-color="#1E56B3" offset=".039"/><stop stop-color="#2056B3" offset=".043"/><stop stop-color="#2156B2" offset=".047"/><stop stop-color="#2257B2" offset=".051"/><stop stop-color="#2457B1" offset=".055"/><stop stop-color="#2557B1" offset=".059"/><stop stop-color="#2758B1" offset=".063"/><stop stop-color="#2858B0" offset=".066"/><stop stop-color="#2958B0" offset=".07"/><stop stop-color="#2B59AF" offset=".074"/><stop stop-color="#2C59AF" offset=".078"/><stop stop-color="#2E59AF" offset=".082"/><stop stop-color="#2F59AE" offset=".086"/><stop stop-color="#305AAE" offset=".09"/><stop stop-color="#325AAD" offset=".094"/><stop stop-color="#335AAD" offset=".098"/><stop stop-color="#355BAD" offset=".102"/><stop stop-color="#365BAC" offset=".105"/><stop stop-color="#385BAC" offset=".109"/><stop stop-color="#395BAB" offset=".113"/><stop stop-color="#3A5CAB" offset=".117"/><stop stop-color="#3C5CAA" offset=".121"/><stop stop-color="#3D5CAA" offset=".125"/><stop stop-color="#3F5DAA" offset=".129"/><stop stop-color="#405DA9" offset=".133"/><stop stop-color="#415DA9" offset=".137"/><stop stop-color="#435EA8" offset=".141"/><stop stop-color="#445EA8" offset=".145"/><stop stop-color="#465EA8" offset=".148"/><stop stop-color="#475EA7" offset=".152"/><stop stop-color="#485FA7" offset=".156"/><stop stop-color="#4A5FA6" offset=".16"/><stop stop-color="#4B5FA6" offset=".164"/><stop stop-color="#4D60A6" offset=".168"/><stop stop-color="#4E60A5" offset=".172"/><stop stop-color="#4F60A5" offset=".176"/><stop stop-color="#5161A4" offset=".18"/><stop stop-color="#5261A4" offset=".184"/><stop stop-color="#5461A4" offset=".188"/><stop stop-color="#5561A3" offset=".191"/><stop stop-color="#5662A3" offset=".195"/><stop stop-color="#5862A2" offset=".199"/><stop stop-color="#5962A2" offset=".203"/><stop stop-color="#5B63A2" offset=".207"/><stop stop-color="#5C63A1" offset=".211"/><stop stop-color="#5E63A1" offset=".215"/><stop stop-color="#5F63A0" offset=".219"/><stop stop-color="#6064A0" offset=".223"/><stop stop-color="#6264A0" offset=".227"/><stop stop-color="#63649F" offset=".23"/><stop stop-color="#65659F" offset=".234"/><stop stop-color="#66659E" offset=".238"/><stop stop-color="#67659E" offset=".242"/><stop stop-color="#69669D" offset=".246"/><stop stop-color="#6A669D" offset=".25"/><stop stop-color="#6C669D" offset=".254"/><stop stop-color="#6D669C" offset=".258"/><stop stop-color="#6E679C" offset=".262"/><stop stop-color="#70679B" offset=".266"/><stop stop-color="#71679B" offset=".27"/><stop stop-color="#73689B" offset=".273"/><stop stop-color="#74689A" offset=".277"/><stop stop-color="#75689A" offset=".281"/><stop stop-color="#776999" offset=".285"/><stop stop-color="#786999" offset=".289"/><stop stop-color="#7A6999" offset=".293"/><stop stop-color="#7B6998" offset=".297"/><stop stop-color="#7D6A98" offset=".301"/><stop stop-color="#7E6A97" offset=".305"/><stop stop-color="#7F6A97" offset=".309"/><stop stop-color="#816B97" offset=".313"/><stop stop-color="#826B96" offset=".316"/><stop stop-color="#846B96" offset=".32"/><stop stop-color="#856B95" offset=".324"/><stop stop-color="#866C95" offset=".328"/><stop stop-color="#886C95" offset=".332"/><stop stop-color="#896C94" offset=".336"/><stop stop-color="#8B6D94" offset=".34"/><stop stop-color="#8C6D93" offset=".344"/><stop stop-color="#8D6D93" offset=".348"/><stop stop-color="#8F6E93" offset=".352"/><stop stop-color="#906E92" offset=".355"/><stop stop-color="#926E92" offset=".359"/><stop stop-color="#936E91" offset=".363"/><stop stop-color="#946F91" offset=".367"/><stop stop-color="#966F90" offset=".371"/><stop stop-color="#976F90" offset=".375"/><stop stop-color="#997090" offset=".379"/><stop stop-color="#9A708F" offset=".383"/><stop stop-color="#9C708F" offset=".387"/><stop stop-color="#9D718E" offset=".391"/><stop stop-color="#9E718E" offset=".395"/><stop stop-color="#A0718E" offset=".398"/><stop stop-color="#A1718D" offset=".402"/><stop stop-color="#A3728D" offset=".406"/><stop stop-color="#A4728C" offset=".41"/><stop stop-color="#A5728C" offset=".414"/><stop stop-color="#A7738C" offset=".418"/><stop stop-color="#A8738B" offset=".422"/><stop stop-color="#AA738B" offset=".426"/><stop stop-color="#AB738A" offset=".43"/><stop stop-color="#AC748A" offset=".434"/><stop stop-color="#AE748A" offset=".438"/><stop stop-color="#AF7489" offset=".441"/><stop stop-color="#B17589" offset=".445"/><stop stop-color="#B27588" offset=".449"/><stop stop-color="#B37588" offset=".453"/><stop stop-color="#B57688" offset=".457"/><stop stop-color="#B67687" offset=".461"/><stop stop-color="#B87687" offset=".465"/><stop stop-color="#B97686" offset=".469"/><stop stop-color="#BB7786" offset=".473"/><stop stop-color="#BC7786" offset=".477"/><stop stop-color="#BD7785" offset=".48"/><stop stop-color="#BF7885" offset=".484"/><stop stop-color="#C07884" offset=".488"/><stop stop-color="#C27884" offset=".492"/><stop stop-color="#C37983" offset=".496"/><stop stop-color="#C47983" offset=".5"/><stop stop-color="#C67983" offset=".504"/><stop stop-color="#C77982" offset=".508"/><stop stop-color="#C97A82" offset=".512"/><stop stop-color="#CA7A81" offset=".516"/><stop stop-color="#CB7A81" offset=".52"/><stop stop-color="#CD7B81" offset=".523"/><stop stop-color="#CE7B80" offset=".527"/><stop stop-color="#D07B80" offset=".531"/><stop stop-color="#D17B7F" offset=".535"/><stop stop-color="#D27C7F" offset=".539"/><stop stop-color="#D47C7F" offset=".543"/><stop stop-color="#D57C7E" offset=".547"/><stop stop-color="#D77D7E" offset=".551"/><stop stop-color="#D87D7D" offset=".555"/><stop stop-color="#D97D7D" offset=".559"/><stop stop-color="#DB7E7D" offset=".563"/><stop stop-color="#DC7E7C" offset=".566"/><stop stop-color="#DE7E7C" offset=".57"/><stop stop-color="#DF7E7B" offset=".574"/><stop stop-color="#E17F7B" offset=".578"/><stop stop-color="#E27F7B" offset=".582"/><stop stop-color="#E37F7A" offset=".586"/><stop stop-color="#E5807A" offset=".59"/><stop stop-color="#E68079" offset=".594"/><stop stop-color="#E88079" offset=".598"/><stop stop-color="#E98179" offset=".602"/><stop stop-color="#EA8178" offset=".605"/><stop stop-color="#EC8178" offset=".609"/><stop stop-color="#ED8177" offset=".613"/><stop stop-color="#EF8277" offset=".617"/><stop stop-color="#F08276" offset=".621"/><stop stop-color="#F18276" offset=".625"/><stop stop-color="#F38376" offset=".629"/><stop stop-color="#F48375" offset=".633"/><stop stop-color="#F58476" offset=".637"/><stop stop-color="#F58476" offset=".641"/><stop stop-color="#F58577" offset=".645"/><stop stop-color="#F58677" offset=".648"/><stop stop-color="#F68778" offset=".652"/><stop stop-color="#F68879" offset=".656"/><stop stop-color="#F6897A" offset=".66"/><stop stop-color="#F68A7A" offset=".664"/><stop stop-color="#F68B7B" offset=".668"/><stop stop-color="#F68C7C" offset=".672"/><stop stop-color="#F68D7C" offset=".676"/><stop stop-color="#F68E7D" offset=".68"/><stop stop-color="#F68F7E" offset=".684"/><stop stop-color="#F7907E" offset=".688"/><stop stop-color="#F7917F" offset=".691"/><stop stop-color="#F79280" offset=".695"/><stop stop-color="#F79381" offset=".699"/><stop stop-color="#F79381" offset=".703"/><stop stop-color="#F79482" offset=".707"/><stop stop-color="#F79583" offset=".711"/><stop stop-color="#F79683" offset=".715"/><stop stop-color="#F79784" offset=".719"/><stop stop-color="#F79885" offset=".723"/><stop stop-color="#F89985" offset=".727"/><stop stop-color="#F89A86" offset=".73"/><stop stop-color="#F89B87" offset=".734"/><stop stop-color="#F89C88" offset=".738"/><stop stop-color="#F89D88" offset=".742"/><stop stop-color="#F89E89" offset=".746"/><stop stop-color="#F89F8A" offset=".75"/><stop stop-color="#F8A08A" offset=".754"/><stop stop-color="#F8A18B" offset=".758"/><stop stop-color="#F9A28C" offset=".762"/><stop stop-color="#F9A38C" offset=".766"/><stop stop-color="#F9A38D" offset=".77"/><stop stop-color="#F9A48E" offset=".773"/><stop stop-color="#F9A58F" offset=".777"/><stop stop-color="#F9A68F" offset=".781"/><stop stop-color="#F9A790" offset=".785"/><stop stop-color="#F9A891" offset=".789"/><stop stop-color="#F9A991" offset=".793"/><stop stop-color="#FAAA92" offset=".797"/><stop stop-color="#FAAB93" offset=".801"/><stop stop-color="#FAAC93" offset=".805"/><stop stop-color="#FAAD94" offset=".809"/><stop stop-color="#FAAE95" offset=".813"/><stop stop-color="#FAAF96" offset=".816"/><stop stop-color="#FAB096" offset=".82"/><stop stop-color="#FAB197" offset=".824"/><stop stop-color="#FAB298" offset=".828"/><stop stop-color="#FBB298" offset=".832"/><stop stop-color="#FBB399" offset=".836"/><stop stop-color="#FBB49A" offset=".84"/><stop stop-color="#FBB59A" offset=".844"/><stop stop-color="#FBB69B" offset=".848"/><stop stop-color="#FBB79C" offset=".852"/><stop stop-color="#FBB89D" offset=".855"/><stop stop-color="#FBB99D" offset=".859"/><stop stop-color="#FBBA9E" offset=".863"/><stop stop-color="#FCBB9F" offset=".867"/><stop stop-color="#FCBC9F" offset=".871"/><stop stop-color="#FCBDA0" offset=".875"/><stop stop-color="#FCBEA1" offset=".879"/><stop stop-color="#FCBFA1" offset=".883"/><stop stop-color="#FCC0A2" offset=".887"/><stop stop-color="#FCC1A3" offset=".891"/><stop stop-color="#FCC2A4" offset=".895"/><stop stop-color="#FCC2A4" offset=".898"/><stop stop-color="#FDC3A5" offset=".902"/><stop stop-color="#FDC4A6" offset=".906"/><stop stop-color="#FDC5A6" offset=".91"/><stop stop-color="#FDC6A7" offset=".914"/><stop stop-color="#FDC7A8" offset=".918"/><stop stop-color="#FDC8A8" offset=".922"/><stop stop-color="#FDC9A9" offset=".926"/><stop stop-color="#FDCAAA" offset=".93"/><stop stop-color="#FDCBAB" offset=".934"/><stop stop-color="#FDCCAB" offset=".938"/><stop stop-color="#FECDAC" offset=".941"/><stop stop-color="#FECEAD" offset=".945"/><stop stop-color="#FECFAD" offset=".949"/><stop stop-color="#FED0AE" offset=".953"/><stop stop-color="#FED1AF" offset=".957"/><stop stop-color="#FED2AF" offset=".961"/><stop stop-color="#FED2B0" offset=".965"/><stop stop-color="#FED3B1" offset=".969"/><stop stop-color="#FED4B2" offset=".973"/><stop stop-color="#FFD5B2" offset=".977"/><stop stop-color="#FFD6B3" offset=".98"/><stop stop-color="#FFD7B4" offset=".984"/><stop stop-color="#FFD8B4" offset=".988"/><stop stop-color="#FFD9B5" offset=".992"/><stop stop-color="#FFD9B5" offset="1"/></linearGradient></defs><g clip-path="url(#a)"><g clip-path="url(#b)"><path fill="url(#c)" d="M 6.058594 283.824219 L 284.546875 283.824219 L 284.546875 5.335938 L 6.058594 5.335938 Z M 6.058594 283.824219"/></g></g><g fill="#032364"><g><g><path d="M 58.785156 -74.867188 L 40.761719 -24.679688 L 22.460938 -74.867188 L 0.832031 -74.867188 L 31.332031 0 L 50.050781 0 L 79.71875 -74.867188 Z M 58.785156 -74.867188" transform="translate(37.169 182.393)"/></g></g></g><g fill="#032364"><g><g><path d="M 129.910156 0 L 114.933594 -97.050781 L 93.863281 -97.050781 L 67.519531 -37.433594 L 41.175781 -97.050781 L 20.242188 -97.050781 L 4.992188 0 L 26.34375 0 L 35.910156 -63.222656 L 64.886719 -0.136719 L 70.015625 -0.136719 L 98.992188 -63.222656 L 108.558594 0 Z M 129.910156 0" transform="translate(118.13 182.393)"/></g></g></g><g clip-path="url(#d)"><path fill="#032364" d="M 145.140625 285.464844 C 67.457031 285.464844 4.1875 222.191406 4.1875 144.417969 C 4.1875 66.640625 67.457031 3.464844 145.140625 3.464844 C 222.820312 3.464844 286.09375 66.734375 286.09375 144.417969 C 286.1875 222.191406 222.917969 285.464844 145.140625 285.464844 Z M 145.140625 5.851562 C 68.699219 5.851562 6.574219 67.976562 6.574219 144.417969 C 6.574219 220.855469 68.796875 283.078125 145.140625 283.078125 C 221.484375 283.078125 283.800781 220.855469 283.800781 144.417969 C 283.800781 67.976562 221.582031 5.851562 145.140625 5.851562 Z M 145.140625 5.851562"/></g></svg>