<svg width="24" height="24" viewBox="0 0 24 24" fill="none" xmlns="http://www.w3.org/2000/svg">
<path d="M12 24C18.6274 24 24 18.6274 24 12C24 5.37258 18.6274 0 12 0C5.37258 0 0 5.37258 0 12C0 18.6274 5.37258 24 12 24Z" fill="#424242"/>
<path d="M23.5 12C23.5 18.3513 18.3513 23.5 12 23.5C5.64873 23.5 0.5 18.3513 0.5 12C0.5 5.64873 5.64873 0.5 12 0.5C18.3513 0.5 23.5 5.64873 23.5 12Z" stroke="black" stroke-opacity="0.2"/>
<path d="M7.70916 7.72079L6.12427 6.13983C8.94367 3.24888 13.9981 2.71074 17.4932 5.87197C21.0842 9.11889 21.0942 14.6315 17.6979 17.9046C14.1926 21.2832 8.97853 20.7656 6.12845 17.829L7.70741 16.2512C7.72484 16.2665 7.74959 16.286 7.77365 16.309C8.05605 16.5618 8.34158 16.8116 8.66127 17.0178C9.23337 17.3879 9.86347 17.6596 10.5254 17.8217C11.8956 18.1553 13.3396 17.9964 14.6044 17.3731C15.1579 17.1001 15.6661 16.744 16.1116 16.317C17.1243 15.3475 17.766 14.0548 17.9256 12.6626C18.0222 11.8073 17.934 10.9412 17.6668 10.1229C17.3996 9.30463 16.9597 8.55316 16.3769 7.91932C15.5601 7.03114 14.5612 6.44354 13.3915 6.14992C12.0413 5.81931 10.6182 5.96449 9.36273 6.56092C8.80059 6.8222 8.28603 7.17536 7.84025 7.60585C7.80538 7.64067 7.76668 7.67551 7.72938 7.70755C7.72312 7.71267 7.71635 7.71711 7.70916 7.72079Z" fill="white"/>
<path d="M14.8811 13.3947L13.4915 12.0057H17.4474C17.4925 14.0328 16.168 16.4713 13.5079 17.2589C12.2214 17.6384 10.8404 17.5355 9.62446 16.9695C8.40853 16.4034 7.44139 15.4133 6.90476 14.1849C6.36814 12.9567 6.29899 11.5749 6.71031 10.2992C7.12164 9.02357 7.98513 7.94193 9.13848 7.25756C11.5113 5.85039 14.2927 6.49789 15.8162 8.08129L14.2327 9.66087C13.6459 9.08337 12.9285 8.77059 12.0952 8.7288C11.4213 8.69144 10.7531 8.87037 10.1882 9.23942C9.7638 9.51078 9.40814 9.87677 9.1492 10.3086C8.89025 10.7405 8.73506 11.2265 8.69582 11.7283C8.65659 12.2303 8.73438 12.7344 8.92308 13.2011C9.11179 13.668 9.40626 14.0847 9.78336 14.4186C10.1605 14.7525 10.6099 14.9945 11.0964 15.1255C11.583 15.2566 12.0933 15.2731 12.5873 15.1739C13.0813 15.0747 13.5455 14.8624 13.9435 14.5537C14.3416 14.245 14.6625 13.8482 14.8811 13.3947Z" fill="white"/>
<path d="M11.4335 14.6921C10.7967 14.5726 10.2225 14.2321 9.81245 13.7309C9.40236 13.2296 9.18268 12.5998 9.19219 11.9523C9.21311 10.4588 10.3521 9.45605 11.4325 9.284L11.4335 14.6921Z" fill="white"/>
</svg>
