<svg width="24" height="24" viewBox="0 0 24 24" fill="none" xmlns="http://www.w3.org/2000/svg">
<path fill-rule="evenodd" clip-rule="evenodd" d="M0 12C0 5.37259 5.37259 0 12 0C18.6274 0 24 5.37259 24 12C24 18.6274 18.6274 24 12 24C5.37259 24 0 18.6274 0 12Z" fill="url(#paint0_linear)"/>
<path fill-rule="evenodd" clip-rule="evenodd" d="M12.0002 3C12.4211 3 12.8174 3.12571 13.1887 3.32555L18.8107 6.6349C19.5466 7.05899 20.0009 7.85421 20 8.7162V15.3091C20.0009 16.1707 19.5466 16.9659 18.8107 17.39L13.1887 20.674C12.8174 20.8996 12.4207 21 12.0002 21C11.5789 21 11.1826 20.8996 10.8109 20.674L5.18891 17.39C4.45336 16.9663 3.99956 16.1707 4 15.3091V8.7162C3.99912 7.85421 4.45336 7.05899 5.18935 6.6349L10.8109 3.32601C11.1822 3.10038 11.5789 3 11.9998 3H12.0002ZM12.0002 3.77726C11.7207 3.77772 11.4468 3.85554 11.2076 4.00289L5.56063 7.28692C5.06515 7.5876 4.74301 8.13878 4.74301 8.7162V15.2843C4.74301 15.8856 5.06515 16.4119 5.56063 16.7131L11.1826 19.9971C11.431 20.1445 11.7128 20.2223 12.0002 20.2227C12.2877 20.2255 12.5703 20.1472 12.8174 19.9971L18.4398 16.7384C18.9353 16.4373 19.257 15.8856 19.257 15.3091V8.7162C19.257 8.11437 18.9353 7.58806 18.4398 7.28692L12.8174 4.00289C12.5699 3.85232 12.2728 3.77726 12.0002 3.77726ZM12.0397 5.91704C12.2622 5.91704 12.4856 5.96677 12.6835 6.11688L16.7168 8.46202C17.1122 8.68627 17.3597 9.11036 17.3597 9.58418V14.2745C17.3597 14.7234 17.1122 15.1724 16.7163 15.3971L12.6831 17.7422C12.4856 17.867 12.2622 17.9167 12.0397 17.9167C11.8172 17.9167 11.5947 17.867 11.3968 17.7418L7.36352 15.3971C6.96722 15.1724 6.72014 14.7487 6.72014 14.2745V9.55931C6.72014 9.11036 6.96722 8.66141 7.36309 8.43624L11.3963 6.09156C11.5947 5.96723 11.8172 5.91658 12.0397 5.91658V5.91704ZM12.0397 6.56537C11.941 6.56537 11.8172 6.5907 11.7185 6.66575L7.70936 9.01044C7.51186 9.13522 7.3881 9.35993 7.3881 9.58418V14.2993C7.3881 14.5489 7.51186 14.7483 7.7098 14.8735L11.743 17.2182C11.8418 17.2928 11.9405 17.3181 12.0647 17.3181C12.1881 17.3181 12.2877 17.2679 12.386 17.2182L16.4197 14.8731C16.6158 14.7497 16.7365 14.5337 16.7409 14.2993V9.58418C16.7409 9.33506 16.6176 9.13522 16.4197 9.01044L12.3614 6.66529C12.2622 6.5907 12.1635 6.56537 12.0397 6.56537ZM12.0805 8.83362C12.2034 8.83362 12.3026 8.85802 12.4013 8.93308L14.479 10.1317C14.6747 10.2551 14.7958 10.4715 14.7998 10.7059V13.1274C14.7998 13.377 14.6765 13.5764 14.4785 13.7021L12.4013 14.9002C12.3026 14.9748 12.2039 15.0002 12.0801 15.0002C11.9809 15.0002 11.8576 14.95 11.7588 14.9002L9.68165 13.7021C9.48372 13.5769 9.35996 13.3522 9.35996 13.1274V10.7054C9.35996 10.4563 9.48372 10.2565 9.68165 10.1317L11.7588 8.93308C11.8576 8.85802 11.9563 8.83362 12.0801 8.83362H12.0805ZM12.1047 9.43222H12.0555L9.97833 10.6304L9.95375 13.1021L12.0555 14.3509L14.1819 13.1523L14.2064 10.6805L12.1047 9.43268V9.43222Z" fill="white"/>
<path d="M23.5 12C23.5 18.3513 18.3513 23.5 12 23.5C5.64873 23.5 0.5 18.3513 0.5 12C0.5 5.64873 5.64873 0.5 12 0.5C18.3513 0.5 23.5 5.64873 23.5 12Z" stroke="white" stroke-opacity="0.3"/>
<defs>
<linearGradient id="paint0_linear" x1="24" y1="12" x2="0" y2="12" gradientUnits="userSpaceOnUse">
<stop stop-color="#5346E6"/>
<stop offset="1" stop-color="#EF359C"/>
</linearGradient>
</defs>
</svg>
