<svg width="24" height="24" viewBox="0 0 24 24" fill="none" xmlns="http://www.w3.org/2000/svg">
<path d="M12 24C18.6274 24 24 18.6274 24 12C24 5.37258 18.6274 0 12 0C5.37258 0 0 5.37258 0 12C0 18.6274 5.37258 24 12 24Z" fill="#1770E0"/>
<path d="M12.942 15.2349C13.0058 14.3471 13.0647 13.4593 13.1284 12.5714C13.1873 11.7621 13.2535 10.9527 13.3124 10.1434C13.3541 9.58667 13.3884 9.02749 13.4301 8.47076C13.435 8.40699 13.4276 8.38492 13.3541 8.38983C12.9298 8.4119 12.5202 8.49283 12.1302 8.66206C12.0542 8.6964 11.988 8.7013 11.9095 8.66696C11.5269 8.50264 11.1271 8.4168 10.7126 8.38983C10.6219 8.38247 10.5998 8.40945 10.6047 8.49529C10.6366 8.90486 10.6661 9.31689 10.6955 9.72892C10.7494 10.4696 10.8009 11.2103 10.8573 11.9509C10.8819 12.2722 10.9089 12.5935 10.9334 12.9148C10.9383 12.9074 10.9456 12.8976 10.9505 12.8903C10.9432 12.9001 10.9383 12.9074 10.9334 12.9148C10.9334 12.9565 10.9309 12.9957 10.9334 13.0374C10.9922 13.8713 11.0486 14.7076 11.1124 15.5415C11.1271 15.7279 11.1198 15.9167 11.1615 16.1007C11.1615 16.1522 11.1517 16.2037 11.1737 16.2527C11.1811 16.6598 11.2203 17.067 11.2596 17.4716C11.262 17.4913 11.2669 17.5084 11.2694 17.5281C11.2547 17.7243 11.2841 17.9156 11.3037 18.1093C11.3037 18.1412 11.3062 18.1755 11.3062 18.2074C11.3307 18.5262 11.3552 18.8451 11.3773 19.1639C11.3797 19.1884 11.3846 19.213 11.3871 19.2399C11.3846 19.3233 11.4288 19.392 11.4705 19.4582C11.6471 19.8506 11.8212 20.243 12.0076 20.6551C12.0346 20.6036 12.0517 20.5766 12.064 20.5471C12.2381 20.1695 12.4098 19.7918 12.5839 19.4141C12.6919 19.1762 12.6771 18.926 12.6722 18.6758C12.6722 18.6415 12.6722 18.6072 12.6722 18.5728C12.6943 18.5434 12.7213 18.5164 12.7017 18.4747C12.7017 18.4551 12.7017 18.4355 12.7041 18.4159C12.7066 18.4134 12.7115 18.411 12.7115 18.4085C12.7115 18.4012 12.709 18.3963 12.7066 18.3889C12.7213 18.3546 12.7188 18.3178 12.7115 18.2834C12.7605 17.8591 12.7851 17.4349 12.8096 17.0106C12.8096 16.986 12.8096 16.9615 12.8096 16.9394C12.8439 16.7383 12.8415 16.5348 12.8513 16.3312C12.8758 16.2723 12.8684 16.2135 12.866 16.1522C12.866 16.1375 12.866 16.1203 12.8684 16.1056C12.893 15.8137 12.9199 15.5243 12.942 15.2349Z" fill="white"/>
<path d="M10.6832 16.6297C10.6146 16.019 10.5263 15.4083 10.4772 14.7952C10.46 14.5671 10.3718 14.4543 10.1805 14.3513C9.33187 13.8926 8.43669 13.564 7.49736 13.3555C7.26437 13.304 7.02892 13.2501 6.78857 13.2329C6.78121 13.2329 6.7714 13.2304 6.76405 13.2304L6.75669 13.2231L6.74688 13.228C6.72726 13.2231 6.71009 13.2182 6.69047 13.2133C6.57765 13.201 6.46483 13.1887 6.35202 13.1765C6.31032 13.1593 6.26618 13.1642 6.22203 13.1642C6.07242 13.1421 5.92282 13.1323 5.77321 13.1274C5.66285 13.1225 5.62851 13.1544 5.68983 13.255C5.69473 13.2721 5.69964 13.2893 5.70454 13.3065C5.82472 13.7749 5.96206 14.2409 6.10676 14.702C6.11167 14.7191 6.11657 14.7388 6.11902 14.7559L6.11657 14.7657L6.12638 14.7706V14.7731C6.15336 14.9153 6.19505 15.0551 6.24656 15.19C6.25146 15.2072 6.25637 15.2244 6.26372 15.2391C6.2907 15.396 6.3373 15.5481 6.39616 15.6977C6.39616 15.7075 6.39861 15.7173 6.39861 15.7296C6.40843 15.7786 6.41088 15.8302 6.44276 15.8694C6.44031 15.8988 6.45012 15.9258 6.46729 15.9528C6.6267 16.5169 6.78857 17.0785 6.94553 17.6426C6.96025 17.6965 6.98478 17.7113 7.03628 17.7186C7.32813 17.7554 7.61508 17.8167 7.89713 17.8952C8.19143 17.9761 8.48084 18.0693 8.77269 18.1576H8.77514C8.7874 18.1723 8.79967 18.1822 8.81929 18.1772C9.34904 18.3833 9.86408 18.6261 10.3644 18.8958C10.5606 19.0185 10.7544 19.1387 10.9677 19.2711C10.9358 19.0013 10.9064 18.7511 10.8794 18.501C10.8157 17.878 10.7519 17.2526 10.6832 16.6297Z" fill="white"/>
<path d="M8.64761 8.79896C8.81929 8.77934 8.94682 8.6518 8.97625 8.47522C8.99097 8.44334 8.99587 8.41145 8.98606 8.37712C8.99833 8.3109 8.9689 8.24713 8.96644 8.18091C8.96154 8.19317 8.95909 8.20544 8.95418 8.22015C8.95663 8.20789 8.96154 8.19563 8.96644 8.18091C8.97625 8.17846 8.98606 8.17601 8.99833 8.17355C9.13812 8.14903 9.27546 8.1245 9.41526 8.09998C9.43243 8.09753 9.45205 8.09507 9.46922 8.09017C9.52808 8.09262 9.58939 8.09507 9.6458 8.073H9.65316C9.84936 8.06809 10.0431 8.06074 10.2393 8.05583C10.5704 8.04602 10.8991 8.08036 11.2252 8.11224C11.2571 8.13186 11.2939 8.12941 11.3307 8.12941C11.5073 8.16865 11.6888 8.19317 11.8605 8.24958C11.9953 8.29128 12.1131 8.27411 12.2357 8.22751C12.2308 8.22506 12.2259 8.22015 12.221 8.21525C12.2259 8.22015 12.2308 8.22261 12.2357 8.22751C12.2529 8.22261 12.2676 8.2177 12.2848 8.2128C12.3093 8.21034 12.3338 8.21034 12.3559 8.20544C12.9396 8.07055 13.5331 8.03621 14.1291 8.06074C14.4136 8.073 14.6956 8.11224 14.9777 8.15884C15.0635 8.17355 15.0831 8.21034 15.0561 8.28392C15.0316 8.35504 15.039 8.42862 15.0586 8.49974C15.1027 8.66652 15.2474 8.78915 15.4191 8.79896C15.5908 8.80877 15.7527 8.71066 15.8213 8.5537C15.8925 8.39183 15.8532 8.21525 15.7232 8.10243C15.6595 8.01904 15.5638 7.99697 15.4731 7.96263L15.4706 7.95773L15.4657 7.96018L15.4633 7.95282L15.4584 7.95773C15.4387 7.95037 15.4191 7.94056 15.4019 7.9332C15.0929 7.7885 14.7765 7.66342 14.4455 7.58494C14.4136 7.57513 14.3841 7.56532 14.3523 7.55306C14.313 7.53098 14.2713 7.51627 14.2247 7.51627C13.977 7.43534 13.7219 7.38383 13.4644 7.34704H13.4595C13.3835 7.33233 13.3075 7.30535 13.2265 7.31516C13.2069 7.31271 13.1873 7.3078 13.1701 7.30535C13.0181 7.28573 12.866 7.2563 12.7115 7.24894C12.6257 7.24404 12.6011 7.21461 12.5962 7.13612C12.5692 6.63335 12.5423 6.13058 12.5104 5.6278C12.5079 5.57875 12.5226 5.54196 12.5521 5.50763C12.5594 5.50763 12.5619 5.50272 12.5619 5.49536C12.7164 5.36047 12.7753 5.18389 12.7851 4.98523C12.8047 4.54622 12.4491 4.1857 12.0076 4.19551C11.5588 4.20532 11.2277 4.57075 11.2669 5.01466C11.2694 5.03428 11.2743 5.05145 11.2768 5.07107C11.2694 5.1005 11.2718 5.12748 11.2866 5.15446L11.289 5.16182C11.3111 5.26482 11.3503 5.36047 11.4288 5.43405C11.4337 5.44141 11.4411 5.44876 11.446 5.45612C11.5122 5.52234 11.5367 5.59592 11.5269 5.69402C11.4901 6.18698 11.4607 6.6775 11.4313 7.17046C11.4288 7.22932 11.4067 7.24649 11.3503 7.24894C11.2498 7.25385 11.1468 7.26611 11.0462 7.27837C10.2933 7.36666 9.56487 7.5457 8.86344 7.83265C8.67949 7.90868 8.48329 7.96263 8.32633 8.09017C8.19389 8.19563 8.15219 8.39428 8.22087 8.54634C8.29689 8.73028 8.45631 8.82103 8.64761 8.79896ZM8.94437 8.2692C8.94437 8.26185 8.94682 8.25204 8.94927 8.24468C8.94437 8.25449 8.94437 8.26185 8.94437 8.2692Z" fill="white"/>
<path d="M8.99586 12.7893C9.44222 12.9732 9.88614 13.167 10.3153 13.4147C10.3153 13.3754 10.3178 13.3558 10.3153 13.3362C10.2516 12.7697 10.1878 12.2007 10.1265 11.6341C10.0627 11.0578 9.9965 10.4839 9.93764 9.90753C9.93028 9.8266 9.8984 9.80698 9.82727 9.79717C9.08415 9.69171 8.35329 9.52248 7.63959 9.29194C7.27907 9.17667 6.9259 9.04178 6.56783 8.91425C6.18523 8.74011 5.80263 8.56844 5.42003 8.3943C5.40777 8.3894 5.3955 8.38204 5.38324 8.37714C5.37343 8.36242 5.36362 8.35261 5.344 8.35752L5.3391 8.35016H5.33174L5.32929 8.34525L5.33174 8.35016C5.31212 8.34035 5.29495 8.33054 5.27533 8.32073C4.89518 8.10736 4.51258 7.89644 4.14225 7.66589C4.10546 7.63156 4.06867 7.59722 4 7.58496C4.14225 8.05095 4.27714 8.50467 4.41448 8.95594C4.64502 9.74321 4.87311 10.5305 5.10365 11.3178C5.13553 11.4502 5.16987 11.5826 5.22137 11.7102C5.22873 11.8058 5.27778 11.8892 5.29004 11.9799C5.30721 12.0903 5.36607 12.1075 5.46663 12.1075C6.21466 12.1099 6.95043 12.2154 7.67883 12.3871C8.1252 12.495 8.5593 12.6446 8.99586 12.7893Z" fill="white"/>
<path d="M18.0949 13.1407C18.0703 13.1431 18.0434 13.1456 18.0188 13.1481C17.8815 13.153 17.7417 13.1481 17.6068 13.1848C17.5308 13.1848 17.4547 13.1897 17.3812 13.2094C17.364 13.2094 17.3493 13.2069 17.3321 13.2094C16.0691 13.3933 14.8747 13.7735 13.7563 14.3964C13.6018 14.4822 13.538 14.5853 13.5576 14.752C13.5503 14.8182 13.5184 14.882 13.5331 14.9507C13.5233 14.9973 13.511 15.0463 13.5061 15.0929C13.4595 15.5368 13.4105 15.9832 13.3663 16.4271C13.3418 16.6773 13.2928 16.925 13.2903 17.1776C13.2903 17.1899 13.2879 17.2021 13.2879 17.2144C13.2829 17.2267 13.278 17.2389 13.2707 17.2512C13.1971 17.9183 13.126 18.5854 13.05 19.277C13.3761 19.0489 13.6999 18.8797 14.0187 18.6982C14.4455 18.4922 14.8771 18.3033 15.3186 18.1341C15.3382 18.1267 15.3578 18.1218 15.3774 18.1145L15.3848 18.1169L15.3897 18.112H15.3921C15.3921 18.0998 15.3971 18.085 15.402 18.0728C15.3971 18.085 15.3946 18.0998 15.3921 18.112C15.6153 18.0409 15.8385 17.9698 16.0617 17.9011C16.0053 17.8864 15.9513 17.8864 15.8974 17.8938C15.9489 17.8864 16.0028 17.8864 16.0617 17.9011C16.356 17.8447 16.6479 17.7613 16.9471 17.727C17.0256 17.7172 17.0574 17.6902 17.0795 17.6166C17.2095 17.158 17.3444 16.7018 17.4744 16.2456C17.6362 15.684 17.7957 15.1224 17.9551 14.5583C17.9575 14.5485 17.9575 14.5387 17.96 14.5288C18.0188 14.3866 18.0581 14.2419 18.09 14.0923V14.0874L18.0973 14.0825L18.0924 14.0776C18.0973 14.058 18.1047 14.0383 18.1096 14.0163C18.1733 13.8029 18.2371 13.5871 18.3033 13.3737C18.3867 13.1015 18.3892 13.1015 18.0949 13.1407ZM15.4093 18.0605C15.4142 18.0532 15.4191 18.0458 15.424 18.0434C15.4191 18.0458 15.4142 18.0532 15.4093 18.0605ZM15.7478 17.933C15.7846 17.9183 15.8238 17.906 15.8606 17.8962C15.8238 17.906 15.7846 17.9207 15.7478 17.933Z" fill="white"/>
<path d="M19.998 7.59638C19.9858 7.58657 19.9784 7.59883 19.9735 7.60864C19.7233 7.75825 19.4732 7.9054 19.2255 8.05746C19.1151 8.12368 18.9851 8.15802 18.8968 8.25857C18.8404 8.26348 18.7914 8.28555 18.7472 8.31988C18.4357 8.46704 18.1243 8.61664 17.8128 8.7638C17.7907 8.77361 17.7686 8.78342 17.7466 8.79078C17.494 8.88888 17.2438 8.98943 16.9912 9.08753H16.9887C16.9152 9.11206 16.844 9.13659 16.7705 9.16111C16.5007 9.25186 16.2333 9.34015 15.9636 9.43089L15.9587 9.43825C15.9513 9.4407 15.9439 9.44561 15.939 9.45297C15.8777 9.44561 15.8189 9.45787 15.76 9.47259C15.2891 9.60012 14.8158 9.70313 14.3326 9.77425C14.0825 9.81104 14.0825 9.81104 14.0677 10.0686C14.0383 10.147 14.0432 10.228 14.0432 10.3114C14.0383 10.3531 14.0334 10.3947 14.026 10.4364C13.9819 10.7381 13.9451 11.0398 13.9255 11.3439C13.9328 11.3439 13.9378 11.3414 13.9427 11.339C13.9525 11.3365 13.9598 11.3316 13.9647 11.3267C13.9598 11.3316 13.9525 11.3365 13.9427 11.339C13.9378 11.3414 13.9328 11.3414 13.9255 11.3439C13.9255 11.3611 13.923 11.3782 13.923 11.3954C13.8274 12.06 13.7734 12.732 13.6876 13.4237C14.0309 13.2348 14.3522 13.068 14.6882 12.9331C14.7029 12.9258 14.7128 12.9037 14.725 12.889C14.7348 12.889 14.7446 12.889 14.752 12.889C15.0095 12.813 15.2597 12.71 15.5123 12.6168C15.5466 12.607 15.5785 12.5947 15.6128 12.5849C15.6227 12.5824 15.6325 12.5775 15.6423 12.5751C15.657 12.5726 15.6717 12.5677 15.6864 12.5653C15.711 12.5702 15.7306 12.5579 15.7502 12.5432H15.7575C15.8949 12.5039 16.0347 12.4647 16.172 12.4255C16.2113 12.4328 16.2432 12.4206 16.275 12.4009C16.3314 12.3911 16.3879 12.3813 16.4418 12.3691C17.0991 12.217 17.7637 12.1312 18.4382 12.1115C18.5167 12.1091 18.605 12.1312 18.6663 12.0993C18.7325 12.0649 18.7325 11.9717 18.7325 11.8908C18.7325 11.8712 18.7644 11.854 18.7693 11.8344C18.9336 11.2728 19.0955 10.7087 19.2573 10.1446C19.3407 9.86745 19.4241 9.59276 19.5051 9.31562C19.6669 8.75399 19.8288 8.1899 19.9907 7.62826C19.998 7.616 20.0029 7.59883 19.998 7.59638Z" fill="white"/>
<path d="M15.6479 12.5732C15.6378 12.5758 15.6278 12.5808 15.6177 12.5833C15.6328 12.5883 15.6428 12.5858 15.6479 12.5732Z" fill="white"/>
<path d="M23.5 12C23.5 18.3513 18.3513 23.5 12 23.5C5.64873 23.5 0.5 18.3513 0.5 12C0.5 5.64873 5.64873 0.5 12 0.5C18.3513 0.5 23.5 5.64873 23.5 12Z" stroke="white" stroke-opacity="0.3"/>
</svg>
