<svg width="64" height="64" viewBox="0 0 64 64" fill="none" xmlns="http://www.w3.org/2000/svg">
<g clip-path="url(#clip0)">
<g filter="url(#filter0_d)">
<circle cx="32.0024" cy="31.9983" r="30.2292" transform="rotate(-5.6583 32.0024 31.9983)" fill="#EDF0F2"/>
</g>
<path d="M51.1931 55.3546C46.5737 59.1502 40.9325 61.4907 34.9828 62.0802C27.0046 62.8706 19.0392 60.4594 12.8388 55.3769C6.6384 50.2944 2.71098 42.957 1.92051 34.9788C1.33103 29.0291 2.51906 23.0383 5.33436 17.7639C8.14967 12.4894 12.4658 8.16829 17.737 5.34685C23.0081 2.52542 28.9976 1.33043 34.9479 1.91299C40.8982 2.49555 46.5421 4.82951 51.166 8.61971L45.0685 16.0584C41.9158 13.4741 38.0677 11.8828 34.0107 11.4856C29.9536 11.0884 25.8699 11.9032 22.276 13.8269C18.682 15.7506 15.7392 18.6968 13.8196 22.293C11.9001 25.8892 11.0901 29.9739 11.492 34.0304C12.031 39.4701 14.7088 44.4729 18.9363 47.9383C23.1638 51.4036 28.5948 53.0476 34.0345 52.5087C38.0911 52.1067 41.9374 50.5109 45.087 47.9231L51.1931 55.3546Z" fill="url(#paint0_linear)"/>
<path d="M32.0025 58.5915C46.6897 58.5915 58.5961 46.6852 58.5961 31.9979C58.5961 17.3107 46.6897 5.4043 32.0025 5.4043C17.3152 5.4043 5.40886 17.3107 5.40886 31.9979C5.40886 46.6852 17.3152 58.5915 32.0025 58.5915Z" fill="white"/>
<path d="M34.2481 32.763V32.7601C34.1219 32.7689 33.4703 32.8071 32.0205 32.8071C30.8613 32.8071 30.0484 32.7748 29.7608 32.7601V32.763C25.3028 32.5664 21.9777 31.7916 21.9777 30.8613C21.9777 29.9339 25.3057 29.1562 29.7608 28.9595V31.9912C30.0513 32.0117 30.8877 32.0616 32.0411 32.0616C33.4263 32.0616 34.1189 32.0029 34.2481 31.9912V28.9625C38.6972 29.162 42.0135 29.9368 42.0135 30.8642C42.0135 31.7916 38.6943 32.5664 34.2481 32.766V32.763ZM34.2481 28.6485V25.9367H40.4552V21.8016H23.5566V25.9367H29.7637V28.6485C24.7188 28.8803 20.927 29.8781 20.927 31.0755C20.927 32.2729 24.7217 33.2708 29.7637 33.5055V42.1984H34.251V33.5055C39.2871 33.2737 43.073 32.2759 43.073 31.0785C43.073 29.884 39.2871 28.8832 34.251 28.6514" fill="#283947"/>
</g>
<defs>
<filter id="filter0_d" x="-3.05995" y="-2.10403" width="70.1247" height="70.1247" filterUnits="userSpaceOnUse" color-interpolation-filters="sRGB">
<feFlood flood-opacity="0" result="BackgroundImageFix"/>
<feColorMatrix in="SourceAlpha" type="matrix" values="0 0 0 0 0 0 0 0 0 0 0 0 0 0 0 0 0 0 127 0"/>
<feOffset dy="0.96"/>
<feGaussianBlur stdDeviation="1"/>
<feColorMatrix type="matrix" values="0 0 0 0 0 0 0 0 0 0 0 0 0 0 0 0 0 0 0.08 0"/>
<feBlend mode="normal" in2="BackgroundImageFix" result="effect1_dropShadow"/>
<feBlend mode="normal" in="SourceGraphic" in2="effect1_dropShadow" result="shape"/>
</filter>
<linearGradient id="paint0_linear" x1="24.4451" y1="4.91795" x2="33.9242" y2="57.4723" gradientUnits="userSpaceOnUse">
<stop stop-color="#27D3A2"/>
<stop offset="1" stop-color="#9388FD"/>
</linearGradient>
<clipPath id="clip0">
<rect width="64" height="64" fill="white"/>
</clipPath>
</defs>
</svg>
