<svg width="24" height="24" viewBox="0 0 24 24" fill="none" xmlns="http://www.w3.org/2000/svg">
<path d="M12 24C18.6274 24 24 18.6274 24 12C24 5.37258 18.6274 0 12 0C5.37258 0 0 5.37258 0 12C0 18.6274 5.37258 24 12 24Z" fill="black"/>
<path d="M12.1934 18.4167C15.2365 18.4292 17.9268 16.8979 19.5552 14.5731C20.2145 13.632 20.6998 12.5584 20.9639 11.3999C20.9789 11.6126 20.9866 11.8272 20.9866 12.0437C20.9866 16.9827 17.004 20.9865 12.0914 20.9865C6.75375 20.9865 3.00011 17.2818 3.00011 12.7119C3.00011 9.15369 5.27566 6.12007 8.46883 4.95121C9.24488 4.68508 10.0378 4.54005 10.8644 4.54005C14.7042 4.54005 18.0215 7.66946 18.0215 11.5298C18.0215 12.193 17.9296 12.8346 17.5535 13.4425C17.6946 13.0675 17.7148 12.7893 17.7148 12.5063C17.7148 9.29881 15.0262 6.80143 11.8357 6.80143C8.64532 6.80143 6.05897 9.4016 6.05897 12.6091C6.05897 15.3254 7.91386 17.6061 10.4197 18.2409C10.9305 18.3436 11.4527 18.4143 12.1934 18.4167Z" fill="url(#paint0_linear)"/>
<path d="M11.7931 5.56975C8.75002 5.55723 6.05972 7.08858 4.43141 9.41336C3.77204 10.3545 3.28674 11.4281 3.0227 12.5865C3.00765 12.3739 3 12.1592 3 11.9427C3 7.0038 6.98253 3 11.8952 3C17.2328 3 20.9865 6.70466 20.9865 11.2746C20.9865 14.8328 18.7109 17.8664 15.5177 19.0352C14.7417 19.3014 13.9488 19.4464 13.1221 19.4464C9.28234 19.4464 5.96507 16.317 5.96507 12.4567C5.96507 11.7935 6.05695 11.1518 6.43309 10.5439C6.29194 10.9189 6.2718 11.1972 6.2718 11.4802C6.2718 14.6876 8.9604 17.185 12.1508 17.185C15.3413 17.185 17.9276 14.5849 17.9276 11.3774C17.9276 8.66108 16.0727 6.38033 13.5669 5.74551C13.0561 5.64283 12.5339 5.57218 11.7931 5.56975Z" fill="url(#paint1_linear)"/>
<path d="M23.5 12C23.5 18.3513 18.3513 23.5 12 23.5C5.64873 23.5 0.5 18.3513 0.5 12C0.5 5.64873 5.64873 0.5 12 0.5C18.3513 0.5 23.5 5.64873 23.5 12Z" stroke="white" stroke-opacity="0.3"/>
<defs>
<linearGradient id="paint0_linear" x1="20.9866" y1="12.7633" x2="3.00011" y2="12.7633" gradientUnits="userSpaceOnUse">
<stop stop-color="#929297"/>
<stop offset="0.780357" stop-color="#88878D"/>
<stop offset="1" stop-color="#BAB9C6"/>
</linearGradient>
<linearGradient id="paint1_linear" x1="3" y1="11.2232" x2="20.9865" y2="11.2232" gradientUnits="userSpaceOnUse">
<stop stop-color="#919FB7"/>
<stop offset="1" stop-color="#F8FAFE"/>
</linearGradient>
</defs>
</svg>
