<svg width="24" height="24" viewBox="0 0 24 24" fill="none" xmlns="http://www.w3.org/2000/svg">
<path d="M12 24C18.6274 24 24 18.6274 24 12C24 5.37258 18.6274 0 12 0C5.37258 0 0 5.37258 0 12C0 18.6274 5.37258 24 12 24Z" fill="url(#paint0_linear)"/>
<path d="M23.5 12C23.5 18.3513 18.3513 23.5 12 23.5C5.64873 23.5 0.5 18.3513 0.5 12C0.5 5.64873 5.64873 0.5 12 0.5C18.3513 0.5 23.5 5.64873 23.5 12Z" stroke="black" stroke-opacity="0.097"/>
<path d="M17.9915 12.0859C17.9915 12.0777 18 12.0696 18 12.0696C18 12.0614 18 12.0532 18 12.0532C18 12.045 18 12.0368 18 12.0368C18 12.0286 18 12.0205 18 12.0205C18 12.0123 18 12.0041 18 12.0041C18 11.9959 18 11.9877 18 11.9877C18 11.9795 18 11.9714 18 11.9714C18 11.9632 18 11.955 17.9915 11.955C17.9915 11.9468 17.9915 11.9468 17.983 11.9386C17.983 11.9304 17.9745 11.9223 17.9745 11.9141C17.9745 11.9059 17.9745 11.9059 17.966 11.8977L17.9575 11.8895C17.949 11.8813 17.949 11.8731 17.9405 11.865L12.2465 4.11458C12.2465 4.10639 12.238 4.10639 12.238 4.10639C12.2295 4.09821 12.2295 4.09003 12.221 4.08184C12.2125 4.07366 12.204 4.06547 12.1955 4.06547C12.187 4.05729 12.1785 4.05729 12.1785 4.0491C12.17 4.04092 12.1615 4.04092 12.153 4.03274C12.1445 4.03274 12.1445 4.02455 12.136 4.02455H12.1275C12.119 4.02455 12.1105 4.01637 12.102 4.01637C12.0935 4.01637 12.085 4.00818 12.0765 4.00818C12.068 4.00818 12.0595 4.00818 12.051 4C12.0425 4 12.034 4 12.0255 4C12.017 4 12.0085 4 12 4C11.9915 4 11.983 4 11.9745 4C11.966 4 11.9575 4 11.949 4C11.9405 4 11.932 4 11.9235 4.00818C11.915 4.00818 11.9065 4.01637 11.898 4.01637C11.8895 4.01637 11.881 4.02455 11.8725 4.02455H11.864C11.8555 4.02455 11.8555 4.03274 11.8555 4.03274C11.847 4.04092 11.8385 4.04092 11.83 4.0491C11.8215 4.05729 11.813 4.05729 11.813 4.06547C11.8045 4.06547 11.796 4.07366 11.7875 4.08184C11.779 4.09003 11.779 4.09821 11.7705 4.10639L11.762 4.11458L6.05949 11.8404C6.05099 11.8486 6.05099 11.8568 6.04249 11.865L6.03399 11.8731C6.03399 11.8813 6.03399 11.8813 6.0255 11.8895C6.0255 11.8977 6.017 11.9059 6.017 11.9141C6.017 11.9223 6.017 11.9223 6.0085 11.9304C6.0085 11.9386 6 11.9468 6 11.9468C6 11.955 6 11.9632 6 11.9632C6 11.9714 6 11.9795 6 11.9795C6 11.9877 6 11.9959 6 11.9959C6 12.0041 6 12.0123 6 12.0123C6 12.0205 6 12.0286 6 12.0286C6 12.0368 6 12.045 6 12.045C6 12.0532 6 12.0614 6.0085 12.0614C6.0085 12.0696 6.0085 12.0696 6.017 12.0777C6.017 12.0859 6.0255 12.0941 6.0255 12.1023C6.0255 12.1105 6.0255 12.1105 6.03399 12.1187L6.04249 12.1269C6.05099 12.135 6.05099 12.1432 6.05949 12.1514L11.762 19.8854L11.7705 19.8936C11.779 19.91 11.796 19.9182 11.8045 19.9263L11.813 19.9345C11.83 19.9509 11.847 19.9591 11.864 19.9673C11.881 19.9754 11.898 19.9836 11.915 19.9836C11.9235 19.9836 11.9235 19.9836 11.932 19.9918C11.9405 19.9918 11.949 19.9918 11.9575 19.9918C11.9745 19.9918 11.9915 20 12 20C12.017 20 12.034 20 12.0425 19.9918C12.051 19.9918 12.0595 19.9918 12.068 19.9918C12.0765 19.9918 12.0765 19.9918 12.085 19.9836C12.102 19.9754 12.119 19.9754 12.136 19.9673C12.153 19.9591 12.17 19.9427 12.187 19.9345C12.1955 19.9345 12.1955 19.9263 12.1955 19.9263C12.204 19.9182 12.221 19.9018 12.2295 19.8936L12.238 19.8854L17.9405 12.1514C17.949 12.1432 17.949 12.135 17.9575 12.1269L17.966 12.1187C17.966 12.1105 17.9745 12.1105 17.9745 12.1023C17.9745 12.0941 17.983 12.0859 17.983 12.0777C17.983 12.0941 17.9915 12.0941 17.9915 12.0859ZM17.1246 11.7176H15.0595L13.0028 6.11969L17.1246 11.7176ZM12.0085 18.8788L9.47592 12.0041L12.0085 5.12941L14.5411 12.0041L12.0085 18.8788ZM11.0057 6.11969L8.94901 11.7176H6.88385L11.0057 6.11969ZM6.88385 12.2905H8.94901L11.0142 17.8885L6.88385 12.2905ZM13.0028 17.8967L15.068 12.2987H17.1331L13.0028 17.8967Z" fill="#FEFEFE"/>
<defs>
<linearGradient id="paint0_linear" x1="12" y1="0" x2="12" y2="24" gradientUnits="userSpaceOnUse">
<stop stop-color="#009FE8"/>
<stop offset="1" stop-color="#1D2087"/>
</linearGradient>
</defs>
</svg>
