<svg xmlns="http://www.w3.org/2000/svg" xmlns:xlink="http://www.w3.org/1999/xlink" width="256" height="256" viewBox="0 0 256 256"><defs><clipPath id="b"><rect width="256" height="256"/></clipPath></defs><g id="a" clip-path="url(#b)"><g transform="translate(-254 -666)"><g transform="translate(254 666)"><circle cx="128" cy="128" r="128" transform="translate(0 256) rotate(-90)" fill="#fff"/><path d="M72.737,103.127s65.91,82.99,67.338,84.741c1.083,1.306,2.665,2.043,3.348,1.651,2.2-1.26,3.863-2.15,4.186-3a3.319,3.319,0,0,0-.353-2.934L0,0S154.964,179.118,162.477,186.5a128.129,128.129,0,0,1-21.814,14.4l-.588.174C131.09,191.263,72.737,103.127,72.737,103.127Z" transform="translate(46.867 40.633)" fill="#ff007a"/><g transform="translate(51.2 128)"><g transform="translate(0 0)"><path d="M155.4,50.38V69.367L178.867,36.3Z" transform="translate(-129.799 7.433)" fill="#3b3735"/><path d="M178.014,53.347,155.4,15.8V43.107Z" transform="translate(-129.799 -15.8)" fill="#3b3735"/><path d="M155.4,29.6V52.853L177.8,39.84Z" transform="translate(-129.799 -0.167)" fill="#1f1d19"/><path d="M143.8,53.347,166.413,15.8V43.107Z" transform="translate(-142.947 -15.8)" fill="#959190"/><path d="M166.3,29.6V52.853L143.9,39.84Z" transform="translate(-142.835 -0.167)" fill="#403c3a"/><path d="M166.867,50.38V69.367L143.4,36.3Z" transform="translate(-143.4 7.433)" fill="#959190"/></g></g><g transform="translate(127.153 51.2)"><g transform="translate(0 0)"><path d="M38.4,76.8A38.4,38.4,0,1,0,0,38.4,38.308,38.308,0,0,0,38.4,76.8Z" fill="#2775ca"/><path d="M738.11,533.29c0-5.6-3.36-7.52-10.08-8.32-4.8-.64-5.761-1.92-5.761-4.16s1.6-3.68,4.8-3.68c2.88,0,4.48.96,5.28,3.36a1.2,1.2,0,0,0,1.12.8h2.56a1.094,1.094,0,0,0,1.12-1.12v-.16a8,8,0,0,0-7.2-6.56v-3.84c0-.64-.48-1.12-1.279-1.28h-2.4c-.64,0-1.12.48-1.28,1.28v3.68c-4.8.641-7.84,3.84-7.84,7.84,0,5.28,3.2,7.36,9.92,8.16,4.48.8,5.92,1.76,5.92,4.32s-2.24,4.32-5.28,4.32c-4.16,0-5.6-1.761-6.081-4.161a1.168,1.168,0,0,0-1.12-.96h-2.72a1.093,1.093,0,0,0-1.12,1.12v.16c.64,4,3.2,6.88,8.479,7.68v3.84c0,.64.48,1.12,1.28,1.28h2.4c.64,0,1.12-.479,1.28-1.28v-3.84C734.911,540.97,738.11,537.61,738.11,533.29Z" transform="translate(-689.151 -488.81)" fill="#fff"/><path d="M268.684,341.75a23.943,23.943,0,0,1,0-44.96,1.606,1.606,0,0,0,.96-1.6v-2.24a1.216,1.216,0,0,0-.96-1.28.964.964,0,0,0-.64.16,28.792,28.792,0,0,0,0,54.88.973.973,0,0,0,1.44-.64c.16-.16.16-.32.16-.64v-2.24A2.132,2.132,0,0,0,268.684,341.75Zm16.96-49.92a.973.973,0,0,0-1.44.64c-.16.16-.16.32-.16.64v2.24a2.122,2.122,0,0,0,.96,1.6,23.943,23.943,0,0,1,0,44.96,1.606,1.606,0,0,0-.96,1.6v2.24a1.215,1.215,0,0,0,.96,1.28.965.965,0,0,0,.64-.159,28.916,28.916,0,0,0,0-55.041Z" transform="translate(-238.444 -280.47)" fill="#fff"/></g></g></g></g></g></svg>