<svg width="24" height="24" viewBox="0 0 24 24" fill="none" xmlns="http://www.w3.org/2000/svg">
<path d="M12 24C18.6274 24 24 18.6274 24 12C24 5.37258 18.6274 0 12 0C5.37258 0 0 5.37258 0 12C0 18.6274 5.37258 24 12 24Z" fill="black"/>
<path d="M23.5 12C23.5 18.3513 18.3513 23.5 12 23.5C5.64873 23.5 0.5 18.3513 0.5 12C0.5 5.64873 5.64873 0.5 12 0.5C18.3513 0.5 23.5 5.64873 23.5 12Z" stroke="white" stroke-opacity="0.307"/>
<path d="M6.39953 7.03418L3.52417 8.79391V11.7984L6.39953 10.382V7.03418Z" fill="#F3F3F3"/>
<path d="M6.39953 10.3818L3.52417 11.7982L5.11206 14.5022L7.77281 12.9571L6.39953 10.3818Z" fill="#F3F3F3"/>
<path d="M7.77275 12.957L5.112 14.5022L7.77275 16.2189L10.3477 14.5022L7.77275 12.957Z" fill="#F3F3F3"/>
<path d="M10.3478 14.5029L7.77283 16.2197H10.8627L13.4806 14.5029H10.3478Z" fill="#F3F3F3"/>
<path d="M6.39953 7.03526L7.77281 4.5459L4.94037 6.13394L3.52417 8.795L6.39953 7.03526Z" fill="#F3F3F3"/>
<path d="M10.8627 19.1816H7.77283L10.3478 20.8126H13.4806L10.8627 19.1816Z" fill="#F3F3F3"/>
<path d="M13.4806 17.6357L10.8627 19.1809L13.4806 20.8118L16.2272 19.1809L13.4806 17.6357Z" fill="#F3F3F3"/>
<path d="M13.4805 17.6357L16.2272 19.1808L17.7721 16.6056L15.1113 14.9746L13.4805 17.6357Z" fill="#F3F3F3"/>
<path d="M15.1113 11.9707V14.9751L17.7721 16.6061V13.5158L15.1113 11.9707Z" fill="#F3F3F3"/>
<path d="M15.1114 11.9707L17.7722 13.5158L16.313 10.8548L13.6523 9.39551L15.1114 11.9707Z" fill="#F3F3F3"/>
<path d="M20.4758 8.79595L19.0167 6.26367V9.39684L20.4758 11.8862V8.79595Z" fill="#F3F3F3"/>
<path d="M19.0167 9.39589V6.26272L16.313 4.5459V7.67907L19.0167 9.39589Z" fill="#F3F3F3"/>
<path d="M13.1372 7.67907H16.3129V4.5459H13.1372V7.67907Z" fill="#F3F3F3"/>
<path d="M13.1373 4.5459L10.4765 5.96225V9.26711L13.1373 7.67907V4.5459Z" fill="#F3F3F3"/>
<path d="M10.4764 5.96191L8.88861 8.62297V11.7991L10.4764 9.26678V5.96191Z" fill="#F3F3F3"/>
<path d="M16.313 7.6783V4.54513M6.39953 7.03449L7.77281 4.54513L6.39953 7.03449ZM6.39953 7.03449L8.88864 8.62254L6.39953 7.03449ZM6.39953 7.03449L3.52417 8.79423L6.39953 7.03449ZM6.39953 7.03449V10.3823V7.03449ZM7.77281 4.54513L10.4765 5.96148L7.77281 4.54513ZM7.77281 4.54513L4.94037 6.13317L3.52417 8.79423L7.77281 4.54513ZM7.77281 4.54513L10.4765 3L7.77281 4.54513ZM10.4765 5.96148L8.88864 8.62254L10.4765 5.96148ZM10.4765 5.96148L13.1373 4.54513L10.4765 5.96148ZM10.4765 5.96148V9.26635V5.96148ZM8.88864 8.62254V11.7987V8.62254ZM3.52417 8.79423V11.7987V8.79423ZM10.4765 3L13.1373 4.54513L10.4765 3ZM10.4765 3H13.6523L16.313 4.54513L10.4765 3ZM13.1373 4.54513V7.6783V4.54513ZM13.1373 4.54513H16.313H13.1373ZM10.4765 9.26635L8.88864 11.7987L10.4765 9.26635ZM10.4765 9.26635L13.6523 9.39513L10.4765 9.26635ZM10.4765 9.26635L13.1373 7.6783L10.4765 9.26635ZM8.88864 11.7987L6.39953 10.3823L8.88864 11.7987ZM8.88864 11.7987L10.3477 14.5026L8.88864 11.7987ZM6.39953 10.3823L3.52417 11.7987L6.39953 10.3823ZM6.39953 10.3823L7.77281 12.9575L6.39953 10.3823ZM3.52417 11.7987L5.11206 14.5026L3.52417 11.7987ZM3.52417 11.7987V15.0606L5.11206 17.6358L3.52417 11.7987ZM5.11206 14.5026L7.77281 12.9575L5.11206 14.5026ZM5.11206 14.5026V17.6358V14.5026ZM5.11206 14.5026L7.77281 16.2194L5.11206 14.5026ZM7.77281 12.9575L10.3477 14.5026L7.77281 12.9575ZM10.3477 14.5026L7.77281 16.2194L10.3477 14.5026ZM10.3477 14.5026H13.4806H10.3477ZM5.11206 17.6358L7.77281 19.1809L5.11206 17.6358ZM7.77281 16.2194V19.1809V16.2194ZM7.77281 16.2194H10.8627H7.77281ZM7.77281 19.1809H10.8627H7.77281ZM7.77281 19.1809L10.3477 20.8119H13.4806L7.77281 19.1809ZM10.8627 16.2194L13.4806 14.5026L10.8627 16.2194ZM10.8627 16.2194V19.1809V16.2194ZM13.4806 14.5026V17.6358V14.5026ZM13.4806 14.5026L15.1114 11.9703L13.4806 14.5026ZM10.8627 19.1809L13.4806 17.6358L10.8627 19.1809ZM10.8627 19.1809L13.4806 20.8119L10.8627 19.1809ZM13.4806 17.6358L16.2272 19.1809L13.4806 17.6358ZM13.4806 17.6358L15.1114 14.9748L13.4806 17.6358ZM13.4806 20.8119L16.2272 19.1809L13.4806 20.8119ZM16.2272 19.1809L17.7722 16.6057L16.2272 19.1809ZM16.2272 19.1809L18.9308 17.6358L20.4758 14.9748L16.2272 19.1809ZM15.1114 14.9748V11.9703V14.9748ZM15.1114 14.9748L17.7722 16.6057L15.1114 14.9748ZM15.1114 11.9703L17.7722 13.5154L15.1114 11.9703ZM15.1114 11.9703L13.6523 9.39513L15.1114 11.9703ZM17.7722 13.5154V16.6057V13.5154ZM17.7722 13.5154L20.4758 11.8845L17.7722 13.5154ZM17.7722 13.5154L16.313 10.8544L17.7722 13.5154ZM17.7722 16.6057L20.4758 14.9748L17.7722 16.6057ZM20.4758 14.9748V11.8845V14.9748ZM19.0167 6.26195L20.4758 8.79423V11.8845L19.0167 6.26195ZM19.0167 6.26195V9.39513V6.26195ZM19.0167 6.26195L16.313 4.54513L19.0167 6.26195ZM19.0167 9.39513L20.4758 11.8845L19.0167 9.39513ZM19.0167 9.39513L16.313 10.8544L19.0167 9.39513ZM19.0167 9.39513L16.313 7.6783L19.0167 9.39513ZM16.313 10.8544L13.6523 9.39513L16.313 10.8544ZM16.313 7.6783L13.6523 9.39513L16.313 7.6783ZM16.313 7.6783H13.1373H16.313Z" stroke="black" stroke-width="0.151806"/>
<path d="M5.11206 14.5028L3.52417 11.7988V15.0607L5.11206 17.636V14.5028Z" fill="white"/>
<path d="M5.112 14.5029V17.6361L7.77275 19.1812V16.2197L5.112 14.5029Z" fill="white"/>
<path d="M7.77283 16.2197V19.1813H10.8627V16.2197H7.77283Z" fill="white"/>
<path d="M13.4806 14.5029L10.8627 16.2197V19.1812L13.4806 17.6361V14.5029Z" fill="white"/>
<path d="M13.4805 14.503V17.6362L15.1113 14.9751V11.9707L13.4805 14.503Z" fill="white"/>
<path d="M17.7722 16.6056L16.2272 19.1808L18.9308 17.6357L20.4758 14.9746L17.7722 16.6056Z" fill="white"/>
<path d="M17.7722 13.5157V16.606L20.4758 14.975V11.8848L17.7722 13.5157Z" fill="white"/>
<path d="M20.4758 11.8849L19.0167 9.39551L16.313 10.8548L17.7721 13.5158L20.4758 11.8849Z" fill="white"/>
<path d="M16.313 10.8548L19.0167 9.39553L16.313 7.67871L13.6523 9.39553L16.313 10.8548Z" fill="white"/>
<path d="M13.6523 9.39553L16.313 7.67871H13.1373L10.4765 9.26675L13.6523 9.39553Z" fill="white"/>
<path d="M10.4765 3L13.1373 4.54513H16.313L13.6523 3H10.4765Z" fill="white"/>
<path d="M7.77283 4.54513L10.4765 5.96148L13.1373 4.54513L10.4765 3L7.77283 4.54513Z" fill="white"/>
<path d="M7.77282 4.5459L6.39954 7.03526L8.88865 8.6233L10.4765 5.96225L7.77282 4.5459Z" fill="white"/>
<path d="M8.88865 8.62222L6.39954 7.03418V10.382L8.88865 11.7984V8.62222Z" fill="white"/>
<path d="M8.88865 11.7982L6.39954 10.3818L7.77282 12.9571L10.3478 14.5022L8.88865 11.7982Z" fill="white"/>
<path d="M16.313 7.6783V4.54513M6.39953 7.03449L7.77281 4.54513L6.39953 7.03449ZM6.39953 7.03449L8.88864 8.62254L6.39953 7.03449ZM6.39953 7.03449L3.52417 8.79423L6.39953 7.03449ZM6.39953 7.03449V10.3823V7.03449ZM7.77281 4.54513L10.4765 5.96148L7.77281 4.54513ZM7.77281 4.54513L4.94037 6.13317L3.52417 8.79423L7.77281 4.54513ZM7.77281 4.54513L10.4765 3L7.77281 4.54513ZM10.4765 5.96148L8.88864 8.62254L10.4765 5.96148ZM10.4765 5.96148L13.1373 4.54513L10.4765 5.96148ZM10.4765 5.96148V9.26635V5.96148ZM8.88864 8.62254V11.7987V8.62254ZM3.52417 8.79423V11.7987V8.79423ZM10.4765 3L13.1373 4.54513L10.4765 3ZM10.4765 3H13.6523L16.313 4.54513L10.4765 3ZM13.1373 4.54513V7.6783V4.54513ZM13.1373 4.54513H16.313H13.1373ZM10.4765 9.26635L8.88864 11.7987L10.4765 9.26635ZM10.4765 9.26635L13.6523 9.39513L10.4765 9.26635ZM10.4765 9.26635L13.1373 7.6783L10.4765 9.26635ZM8.88864 11.7987L6.39953 10.3823L8.88864 11.7987ZM8.88864 11.7987L10.3477 14.5026L8.88864 11.7987ZM6.39953 10.3823L3.52417 11.7987L6.39953 10.3823ZM6.39953 10.3823L7.77281 12.9575L6.39953 10.3823ZM3.52417 11.7987L5.11206 14.5026L3.52417 11.7987ZM3.52417 11.7987V15.0606L5.11206 17.6358L3.52417 11.7987ZM5.11206 14.5026L7.77281 12.9575L5.11206 14.5026ZM5.11206 14.5026V17.6358V14.5026ZM5.11206 14.5026L7.77281 16.2194L5.11206 14.5026ZM7.77281 12.9575L10.3477 14.5026L7.77281 12.9575ZM10.3477 14.5026L7.77281 16.2194L10.3477 14.5026ZM10.3477 14.5026H13.4806H10.3477ZM5.11206 17.6358L7.77281 19.1809L5.11206 17.6358ZM7.77281 16.2194V19.1809V16.2194ZM7.77281 16.2194H10.8627H7.77281ZM7.77281 19.1809H10.8627H7.77281ZM7.77281 19.1809L10.3477 20.8119H13.4806L7.77281 19.1809ZM10.8627 16.2194L13.4806 14.5026L10.8627 16.2194ZM10.8627 16.2194V19.1809V16.2194ZM13.4806 14.5026V17.6358V14.5026ZM13.4806 14.5026L15.1114 11.9703L13.4806 14.5026ZM10.8627 19.1809L13.4806 17.6358L10.8627 19.1809ZM10.8627 19.1809L13.4806 20.8119L10.8627 19.1809ZM13.4806 17.6358L16.2272 19.1809L13.4806 17.6358ZM13.4806 17.6358L15.1114 14.9748L13.4806 17.6358ZM13.4806 20.8119L16.2272 19.1809L13.4806 20.8119ZM16.2272 19.1809L17.7722 16.6057L16.2272 19.1809ZM16.2272 19.1809L18.9308 17.6358L20.4758 14.9748L16.2272 19.1809ZM15.1114 14.9748V11.9703V14.9748ZM15.1114 14.9748L17.7722 16.6057L15.1114 14.9748ZM15.1114 11.9703L17.7722 13.5154L15.1114 11.9703ZM15.1114 11.9703L13.6523 9.39513L15.1114 11.9703ZM17.7722 13.5154V16.6057V13.5154ZM17.7722 13.5154L20.4758 11.8845L17.7722 13.5154ZM17.7722 13.5154L16.313 10.8544L17.7722 13.5154ZM17.7722 16.6057L20.4758 14.9748L17.7722 16.6057ZM20.4758 14.9748V11.8845V14.9748ZM19.0167 6.26195L20.4758 8.79423V11.8845L19.0167 6.26195ZM19.0167 6.26195V9.39513V6.26195ZM19.0167 6.26195L16.313 4.54513L19.0167 6.26195ZM19.0167 9.39513L20.4758 11.8845L19.0167 9.39513ZM19.0167 9.39513L16.313 10.8544L19.0167 9.39513ZM19.0167 9.39513L16.313 7.6783L19.0167 9.39513ZM16.313 10.8544L13.6523 9.39513L16.313 10.8544ZM16.313 7.6783L13.6523 9.39513L16.313 7.6783ZM16.313 7.6783H13.1373H16.313Z" stroke="black" stroke-width="0.151806"/>
</svg>
