<svg width="24" height="24" viewBox="0 0 24 24" fill="none" xmlns="http://www.w3.org/2000/svg">
<path fill-rule="evenodd" clip-rule="evenodd" d="M0 12C0 5.37259 5.37259 0 12 0C18.6274 0 24 5.37259 24 12C24 18.6274 18.6274 24 12 24C5.37259 24 0 18.6274 0 12Z" fill="black"/>
<path fill-rule="evenodd" clip-rule="evenodd" d="M12.0428 9.25476C13.5314 9.25476 14.8682 9.88788 15.7864 10.8929H20.1798C19.6228 10.0642 18.8224 9.40524 17.8768 9.01426C16.9533 8.59173 16.1811 7.90705 15.6622 7.05726C15.6601 7.05806 15.6581 7.05911 15.6561 7.05995C14.915 5.82759 13.543 5 11.9728 5C10.3865 5 9.00246 5.84441 8.26682 7.09767C7.73572 7.94865 6.95026 8.63199 6.01234 9.04516C6.01244 9.04536 6.01249 9.04556 6.01254 9.04581C5.11339 9.4458 4.35297 10.0908 3.82018 10.8929H8.29906C9.21734 9.88788 10.5541 9.25476 12.0428 9.25476Z" fill="white"/>
<path fill-rule="evenodd" clip-rule="evenodd" d="M6.99788 18.8666H17.0022V16.6714H6.99788V18.8666Z" fill="white"/>
<path fill-rule="evenodd" clip-rule="evenodd" d="M9.43123 15.9768C9.43016 15.9465 9.42888 15.9163 9.42888 15.8857C9.42888 14.4885 10.5905 13.3558 12.0234 13.3558C13.4563 13.3558 14.6179 14.4885 14.6179 15.8857C14.6179 15.9163 14.6166 15.9465 14.6155 15.9768H17.0008C17.0014 15.9465 17.002 15.9162 17.002 15.8857C17.002 13.1919 14.7625 11.0083 12 11.0083C9.23749 11.0083 6.99795 13.1919 6.99795 15.8857C6.99795 15.9162 6.99861 15.9465 6.99917 15.9768H9.43123Z" fill="white"/>
<path d="M23.5 12C23.5 18.3513 18.3513 23.5 12 23.5C5.64873 23.5 0.5 18.3513 0.5 12C0.5 5.64873 5.64873 0.5 12 0.5C18.3513 0.5 23.5 5.64873 23.5 12Z" stroke="white" stroke-opacity="0.3"/>
</svg>
