<svg width="24" height="24" viewBox="0 0 24 24" fill="none" xmlns="http://www.w3.org/2000/svg">
<path d="M12 24C18.6274 24 24 18.6274 24 12C24 5.37258 18.6274 0 12 0C5.37258 0 0 5.37258 0 12C0 18.6274 5.37258 24 12 24Z" fill="url(#paint0_linear)"/>
<path d="M12.0003 19C11.8543 19 11.71 18.9679 11.5769 18.906C11.4438 18.8441 11.3248 18.7537 11.2279 18.6408L4.26118 10.5168C4.09316 10.3211 4.00024 10.0685 4 9.80669C3.99976 9.54491 4.0922 9.2921 4.25986 9.09605L6.59501 6.36058C6.69193 6.24722 6.81102 6.15645 6.94439 6.09429C7.07776 6.03213 7.22237 5.99999 7.36865 6H16.6315C16.9274 6 17.2091 6.13171 17.4052 6.36092L19.7407 9.09639C19.908 9.29247 20.0002 9.54511 20 9.80669C19.9998 10.0683 19.907 10.3207 19.7393 10.5165L18.3749 12.0823C18.2848 12.1873 18.1756 12.2729 18.0536 12.3342C17.9315 12.3956 17.799 12.4314 17.6635 12.4396C17.5281 12.4479 17.3924 12.4284 17.2642 12.3824C17.136 12.3363 17.0179 12.2646 16.9165 12.1712C16.7117 11.9825 16.5876 11.7175 16.5714 11.4342C16.5552 11.1509 16.6483 10.8725 16.8302 10.6602L17.5864 9.80421L16.166 8.14055H7.83449L6.41383 9.80421L12.0003 16.3179L13.3892 14.7439C13.4792 14.6387 13.5884 14.553 13.7104 14.4916C13.8325 14.4302 13.9651 14.3943 14.1006 14.386C14.2361 14.3777 14.3719 14.3972 14.5001 14.4433C14.6283 14.4893 14.7465 14.5612 14.8479 14.6546C15.0527 14.8433 15.1769 15.1084 15.193 15.3917C15.2091 15.675 15.1159 15.9534 14.9338 16.1657L12.7722 18.6404C12.6755 18.7535 12.5566 18.844 12.4235 18.9059C12.2905 18.9679 12.1462 19 12.0003 19Z" fill="white"/>
<path d="M23.5 12C23.5 18.3513 18.3513 23.5 12 23.5C5.64873 23.5 0.5 18.3513 0.5 12C0.5 5.64873 5.64873 0.5 12 0.5C18.3513 0.5 23.5 5.64873 23.5 12Z" stroke="black" stroke-opacity="0.097"/>
<defs>
<linearGradient id="paint0_linear" x1="-0.0902663" y1="12" x2="22.8244" y2="12" gradientUnits="userSpaceOnUse">
<stop offset="0.001" stop-color="#944BCA"/>
<stop offset="1" stop-color="#14D7CE"/>
</linearGradient>
</defs>
</svg>
