<svg width="24" height="24" viewBox="0 0 24 24" fill="none" xmlns="http://www.w3.org/2000/svg">
<path fill-rule="evenodd" clip-rule="evenodd" d="M6.10352e-05 12C6.10352e-05 5.37259 5.37265 0 12.0001 0C18.6275 0 24.0001 5.37259 24.0001 12C24.0001 18.6274 18.6275 24 12.0001 24C5.37265 24 6.10352e-05 18.6274 6.10352e-05 12Z" fill="#FBCC5C"/>
<path d="M19.9401 10.3764C19.9401 6.85822 17.0985 4.0166 13.5803 4.0166C10.9823 4.0166 8.73602 5.58625 7.76176 7.83248C5.54259 8.83381 4 11.053 4 13.624C4 17.1422 6.84161 19.9838 10.3598 19.9838C12.9579 19.9838 15.2041 18.4141 16.1783 16.1679C18.4246 15.1936 19.9401 12.9745 19.9401 10.3764ZM14.6087 14.5712C14.2839 14.6524 13.9592 14.6794 13.6344 14.6794C11.2529 14.6794 9.33141 12.7309 9.33141 10.3764C9.33141 10.0516 9.35847 9.75395 9.43966 9.45626C9.76442 9.37507 10.0892 9.34801 10.4139 9.34801C12.7955 9.34801 14.7169 11.2695 14.7169 13.651C14.6899 13.9758 14.6628 14.2735 14.6087 14.5712ZM6.08385 13.651C6.08385 12.4873 6.54392 11.4589 7.27462 10.6741C7.437 13.9758 10.0892 16.6009 13.3909 16.7362C12.606 17.494 11.5506 17.9811 10.3869 17.9811C8.00532 17.954 6.08385 16.0326 6.08385 13.651ZM16.7467 13.3533C16.5843 10.0516 13.9321 7.42654 10.6304 7.29122C11.4153 6.53346 12.4707 6.04633 13.6344 6.04633C16.016 6.04633 17.9374 7.9678 17.9374 10.3493C17.9104 11.5401 17.4503 12.5956 16.7467 13.3533Z" fill="#F9B73E"/>
<path d="M19.7236 10.3763C19.7236 7.02047 16.9903 4.28711 13.6345 4.28711C11.0905 4.28711 8.9255 5.8297 8.00536 8.04887C5.84032 8.96901 4.29773 11.134 4.29773 13.6509C4.29773 17.0067 7.03109 19.7401 10.3869 19.7401C12.9308 19.7401 15.0959 18.1975 16.016 15.9783C18.154 15.0582 19.7236 12.8931 19.7236 10.3763ZM10.3869 18.2245C7.87004 18.2245 5.81326 16.1678 5.81326 13.6509C5.81326 12.2166 6.48983 10.9175 7.54529 10.0786C7.54529 10.1868 7.54529 10.2951 7.54529 10.3763C7.54529 13.7321 10.2787 16.4655 13.6345 16.4655C13.7698 16.4655 13.878 16.4655 14.0133 16.4655C13.1473 17.548 11.8483 18.2245 10.3869 18.2245ZM14.8252 14.7875C14.4464 14.8958 14.0404 14.9499 13.6345 14.9499C11.1176 14.9499 9.06082 12.8931 9.06082 10.3763C9.06082 9.97034 9.11494 9.59145 9.22319 9.23964C9.60207 9.13138 10.008 9.07726 10.414 9.07726C12.9308 9.07726 14.9876 11.134 14.9876 13.6509C14.9605 14.0568 14.9064 14.4357 14.8252 14.7875ZM16.4761 13.9486C16.4761 13.8403 16.4761 13.7321 16.4761 13.6509C16.4761 10.2951 13.7427 7.56173 10.3869 7.56173C10.2516 7.56173 10.1433 7.56173 10.008 7.56173C10.847 6.47921 12.146 5.80264 13.6074 5.80264C16.1243 5.80264 18.181 7.85942 18.181 10.3763C18.181 11.8377 17.5045 13.1096 16.4761 13.9486Z" fill="white"/>
<path d="M23.5001 12C23.5001 18.3513 18.3513 23.5 12.0001 23.5C5.64879 23.5 0.500061 18.3513 0.500061 12C0.500061 5.64873 5.64879 0.5 12.0001 0.5C18.3513 0.5 23.5001 5.64873 23.5001 12Z" stroke="black" stroke-opacity="0.097"/>
</svg>
