<svg width="40" height="40" viewBox="0 0 40 40" fill="none" xmlns="http://www.w3.org/2000/svg"><rect fill="#0167E1" width="40" height="40" rx="12"/><g transform="translate(4 4)"><circle cx="16" cy="16" r="14" fill="#fff"/><svg width="32" height="32" viewBox="0 0 32 32" xmlns="http://www.w3.org/2000/svg"><path fill-rule="evenodd" clip-rule="evenodd" d="M0 16C0 7.163 7.163 0 16 0s16 7.163 16 16-7.163 16-16 16S0 24.837 0 16z" fill="#0167E1"/><path d="M15.36 15.975c.214-.966.066-1.685-.835-2.214-.768-.454-1.14-1.239-1.264-2.131a3.25 3.25 0 011.611-3.272 3.232 3.232 0 013.668.339c1.09.917 1.396 2.255 1.033 3.594-.017.066-.033.149-.107.157-.1.016-.157-.066-.174-.14-.083-.265-.165-.521-.231-.794-.24-.917-.273-.933-1.182-.62-.24.083-.28.174-.214.414.33 1.132.66 2.271.966 3.412.075.28.174.305.43.214.95-.355 1.908-.693 2.875-1.024.85-.297.867-.322.487-1.157-.008-.024-.024-.05-.033-.074-.066-.198-.165-.24-.372-.157-.404.157-.817.29-1.305.454.058-.256.107-.437.14-.62.463-2.114-.371-4.08-2.147-5.097-1.917-1.09-4.313-.644-5.75 1.074a4.478 4.478 0 000 5.734c.669.801 1.553 1.314 2.404 1.908zm-1.62 3.47c.157.38.14.744.19 1.09.14.877.124.86.992.711.297-.05.38-.157.338-.446-.165-1.14-.313-2.288-.446-3.437-.033-.28-.132-.322-.388-.297-1.206.149-2.363.512-3.56.702-.091.017-.207.025-.199.157.017.347.058.686.174 1.016.057.174.19.116.314.091.28-.058.561-.124.842-.182.149-.033.33-.132.43-.033.116.116-.05.273-.1.405-.255.686-.479 1.372-.388 2.123.314 2.628 2.908 4.37 5.28 3.916 1.916-.363 3.601-2.073 3.758-4.023.174-2.098-1.073-4.081-3.098-4.932-.123.818-.19 1.62.727 2.065.025.009.042.033.066.058a3.19 3.19 0 01.794 3.627c-.579 1.338-1.892 2.09-3.404 1.958-1.256-.116-2.429-1.14-2.735-2.412-.198-.752-.124-1.48.413-2.157zm2.231-3.486c-.008 1.677-.008 3.362-.008 5.04 0 .958 0 .958.966.9.025 0 .058-.008.083 0 .198.008.248-.091.248-.281.008-3.52.033-7.047.025-10.566 0-.918-.034-.91-.959-.91-.297 0-.363.092-.363.373.016 1.809.008 3.626.008 5.444z" fill="#fff"/></svg></g></svg>