<svg width="24" height="24" viewBox="0 0 24 24" fill="none" xmlns="http://www.w3.org/2000/svg">
<path d="M12 24C18.6274 24 24 18.6274 24 12C24 5.37258 18.6274 0 12 0C5.37258 0 0 5.37258 0 12C0 18.6274 5.37258 24 12 24Z" fill="white"/>
<path fill-rule="evenodd" clip-rule="evenodd" d="M8.33344 12.2647C8.46743 12.6264 8.72713 12.9729 8.92662 13.2991C10.4257 15.7498 13.5472 17.0503 16.4707 14.9362C21.1967 11.5199 20.4657 8.13354 14.6244 7.48339C8.7831 6.83344 6.42182 9.01442 8.33344 12.2647Z" fill="#5CC2EF"/>
<path fill-rule="evenodd" clip-rule="evenodd" d="M6.63543 15.1953C7.30112 20.9021 10.6806 21.5529 14.2639 16.9991C16.9818 13.5452 16.1874 8.03351 10.5013 9.30109C8.21188 9.81164 6.21715 11.6098 6.63543 15.1953Z" fill="#FCB125"/>
<path fill-rule="evenodd" clip-rule="evenodd" d="M15.0839 15.6894C15.4945 14.8462 15.7262 13.9543 15.7636 13.1086C15.2334 13.6921 14.8051 14.0448 14.0044 14.6229C13.2036 15.2005 12.7468 15.5168 12.2036 15.8397C13.1065 16.0808 14.09 16.0597 15.0839 15.6894Z" fill="#518A3F"/>
<path fill-rule="evenodd" clip-rule="evenodd" d="M5.91508 12.4738C8.2594 17.7413 9.17928 18.0733 14.004 14.6227C18.8287 11.1719 16.7868 8.98673 11.6974 6.8246C6.3058 4.53427 3.57076 7.20633 5.91508 12.4738Z" fill="#D34E9C"/>
<path fill-rule="evenodd" clip-rule="evenodd" d="M15.7631 13.1086C17.8906 10.7565 16.3773 9.02668 12.9124 7.37055C9.12134 7.31193 7.29389 8.71248 7.75308 10.8508V10.851L7.75923 10.8787L7.75711 10.8686C8.19596 12.87 10.132 15.2894 12.2019 15.8393C12.4604 15.9025 15.4377 13.6902 15.7631 13.1086Z" fill="#53479D"/>
<path fill-rule="evenodd" clip-rule="evenodd" d="M7.75302 10.8512C7.0937 11.5981 6.65358 12.609 6.58765 13.9205C8.19144 17.1735 9.2841 17.6445 12.2029 15.8397L12.2017 15.8393C10.1257 15.2879 8.18423 12.8559 7.75302 10.8512Z" fill="#EE2A26"/>
<path fill-rule="evenodd" clip-rule="evenodd" d="M12.203 15.8398C12.2257 15.8451 12.2687 15.8333 12.329 15.807C12.9601 15.5295 15.4662 13.6393 15.763 13.1087C15.9843 9.70881 13.3194 8.49114 10.4029 9.25791C9.36899 9.52985 8.47328 10.035 7.75269 10.8511C8.18411 12.856 10.1271 15.2884 12.203 15.8398Z" fill="#1D174A"/>
<path fill-rule="evenodd" clip-rule="evenodd" d="M13.3159 14.0458C13.3243 14.0812 13.3273 14.1185 13.3311 14.1544C13.3911 14.7256 13.5179 15.3764 12.6063 15.7774C12.2137 15.9501 11.6718 15.8012 11.0818 15.4493C10.1973 14.9215 9.22994 13.9435 8.63697 13.0119C6.53201 9.70458 11.4458 8.1518 13.1774 9.93842C13.8899 10.6735 14.0112 11.9181 13.3061 12.8035C13.0246 13.1571 13.2018 13.5719 13.3159 14.0458Z" fill="white"/>
<path d="M23.5 12C23.5 18.3513 18.3513 23.5 12 23.5C5.64873 23.5 0.5 18.3513 0.5 12C0.5 5.64873 5.64873 0.5 12 0.5C18.3513 0.5 23.5 5.64873 23.5 12Z" stroke="black" stroke-opacity="0.097"/>
</svg>
