<svg width="24" height="24" viewBox="0 0 24 24" fill="none" xmlns="http://www.w3.org/2000/svg">
<path fill-rule="evenodd" clip-rule="evenodd" d="M0 12C0 5.37259 5.37259 0 12 0C18.6274 0 24 5.37259 24 12C24 18.6274 18.6274 24 12 24C5.37259 24 0 18.6274 0 12Z" fill="black"/>
<path d="M23.5 12C23.5 18.3513 18.3513 23.5 12 23.5C5.64873 23.5 0.5 18.3513 0.5 12C0.5 5.64873 5.64873 0.5 12 0.5C18.3513 0.5 23.5 5.64873 23.5 12Z" stroke="white" stroke-opacity="0.3"/>
<path d="M12 4L5.8717 10.1283L12 16L18.1283 10.1283L12 4Z" fill="url(#paint0_linear)"/>
<path d="M8.91593 15.3436C9.0509 15.1629 9.17878 14.9914 9.33191 14.8247C7.49005 15.2685 6.22164 16.1981 6.22164 17.2739C6.22164 17.3141 6.22381 17.3539 6.22724 17.3935C6.40792 17.3249 6.59854 17.2429 6.80105 17.1433C8.01768 16.5456 8.49492 15.907 8.91593 15.3436ZM10.8344 17.321C11.2027 16.8281 11.5207 16.4025 12.4198 15.9611C13.3188 15.5196 13.8502 15.5278 14.4654 15.5373C14.8775 15.5438 15.322 15.5506 15.8641 15.4345C15.203 15.0793 14.353 14.8106 13.3922 14.6665L12 15.9999L11.0269 15.0676C10.3335 15.5346 9.97817 16.0094 9.65556 16.4404C9.28723 16.9333 8.96919 17.359 8.07014 17.8003C7.43953 18.11 6.98995 18.1984 6.56528 18.2202C6.90024 18.6644 7.46422 19.0544 8.18648 19.3543C8.3547 19.2891 8.5316 19.2118 8.71845 19.12C9.93578 18.523 10.413 17.8844 10.8344 17.321ZM16.4063 16.0444C15.703 16.033 14.906 16.0207 13.6892 16.6185C12.4725 17.2163 11.9952 17.8548 11.5742 18.4184C11.2059 18.9111 10.8879 19.3368 9.98869 19.7783C9.948 19.7983 9.90869 19.8172 9.86892 19.8354C10.4963 19.9461 11.1322 20.0011 11.7692 19.9998C11.9097 19.9998 12.0488 19.9972 12.1864 19.9921C12.4114 19.754 12.5864 19.5204 12.7521 19.2985C13.1203 18.8056 13.4385 18.38 14.3375 17.9386C15.2366 17.4972 15.7681 17.5055 16.3832 17.515C16.6664 17.5194 16.9649 17.524 17.2998 17.489C17.3111 17.418 17.3168 17.3462 17.3168 17.2743C17.3168 16.8328 17.103 16.416 16.724 16.0472C16.619 16.0477 16.5141 16.0456 16.4063 16.0444ZM13.9934 19.7712C15.4467 19.4583 16.5746 18.8482 17.0587 18.0973C16.643 18.1732 16.1701 18.3189 15.6073 18.5956C14.8228 18.9813 14.3462 19.3835 13.9934 19.7712Z" fill="white"/>
<path opacity="0.5" d="M12 10.1283H5.8717L12 4V10.1283Z" fill="url(#paint1_linear)"/>
<defs>
<linearGradient id="paint0_linear" x1="14.9537" y1="7.17461" x2="9.26562" y2="12.8627" gradientUnits="userSpaceOnUse">
<stop offset="0.09" stop-color="#FF6D41"/>
<stop offset="0.5" stop-color="#FA297F"/>
<stop offset="1" stop-color="#FA297F"/>
</linearGradient>
<linearGradient id="paint1_linear" x1="13.3781" y1="5.6861" x2="7.6666" y2="11.3975" gradientUnits="userSpaceOnUse">
<stop stop-color="#652CB4"/>
<stop offset="0.07" stop-color="#652CB4" stop-opacity="0.82"/>
<stop offset="0.19" stop-color="#652CB4" stop-opacity="0.53"/>
<stop offset="0.3" stop-color="#652CB4" stop-opacity="0.3"/>
<stop offset="0.4" stop-color="#652CB4" stop-opacity="0.14"/>
<stop offset="0.49" stop-color="#652CB4" stop-opacity="0.04"/>
<stop offset="0.55" stop-color="#652CB4" stop-opacity="0"/>
</linearGradient>
</defs>
</svg>
