<?xml version="1.0" encoding="UTF-8"?>
<svg width="40px" height="40px" viewBox="0 0 40 40" version="1.1" xmlns="http://www.w3.org/2000/svg" xmlns:xlink="http://www.w3.org/1999/xlink">
    <title>defi_pulse_index_set</title>
    <defs>
        <polygon id="path-1" points="0 0 39.6531262 0 39.6531262 39.7913043 0 39.7913043"></polygon>
    </defs>
    <g id="defi_pulse_index_set" stroke="none" stroke-width="1" fill="none" fill-rule="evenodd">
        <g transform="translate(0.144928, 0.000000)">
            <g id="Fill-1-Clipped" transform="translate(0.100966, 0.104348)">
                <mask id="mask-2" fill="white">
                    <use xlink:href="#path-1"></use>
                </mask>
                <g id="path-1"></g>
                <path d="M39.6531262,19.8956522 C39.6531262,30.8837565 30.7765074,39.7913043 19.8265562,39.7913043 C8.87660497,39.7913043 -1.38647343e-05,30.8837565 -1.38647343e-05,19.8956522 C-1.38647343e-05,8.90754783 8.87660497,0 19.8265562,0 C30.7765074,0 39.6531262,8.90754783 39.6531262,19.8956522" id="Fill-1" fill="#8150E6" fill-rule="nonzero" mask="url(#mask-2)"></path>
            </g>
            <path d="M39.0131194,25.405287 L24.8977107,11.4665043 L16.8542238,9.95944348 L12.1467306,27.7347478 L24.0247871,39.469287 C31.2513639,37.9453913 37.0292146,32.4733913 39.0131194,25.405287" id="Fill-4" fill="#3C176B" fill-rule="nonzero"></path>
            <path d="M18.2159626,26.1765426 L18.2159626,15.1775861 L20.9861365,15.1775861 C21.917292,15.1775861 22.7723301,15.2961252 23.5515283,15.5333426 C24.3301717,15.77056 25.004691,16.1395339 25.574809,16.6402643 C25.6530061,16.7088557 25.7282916,16.7810643 25.8019133,16.8556383 C25.81148,15.3647165 25.2733896,13.8789426 24.5119384,12.53536 C23.6668829,12.2954991 22.7971481,12.1733426 21.9014862,12.1733426 L15.1808336,12.1733426 L15.1808336,26.1627687 C16.2022486,26.1744557 17.1996775,26.2577948 18.2159626,26.1765426" id="Fill-6" fill="#6B42BD" fill-rule="nonzero"></path>
            <path d="M29.8505128,17.378087 C29.3687132,16.2099478 28.7262214,15.2393739 27.9234533,14.466087 C27.1202693,13.6932174 26.1970167,13.1180522 25.1532794,12.7400348 C24.9412877,12.6632348 24.7272161,12.5964522 24.5118968,12.5353739 C25.273348,13.8789565 25.8114384,15.3647304 25.8018717,16.8556522 C26.2641219,17.3241043 26.5594407,19.1405913 26.8367355,19.8376348 L18.215921,27.7350957 L18.215921,26.1765565 C17.1996359,26.2578087 16.202207,26.1744696 15.1809306,26.1627826 L15.1809306,30.7392 L21.5401297,30.7392 C22.5676451,30.7392 23.615403,30.5506783 24.6835422,30.1726609 C25.7514041,29.7950609 26.7227674,29.2239304 27.5981867,28.459687 C28.4733287,27.6954435 29.1880558,26.7294609 29.7420906,25.5609043 C30.2961254,24.3927652 30.5731428,23.0092522 30.5731428,21.4103652 C30.5731428,19.8291478 30.3323123,18.5466435 29.8505128,17.378087" id="Fill-8" fill="#9B74EC" fill-rule="nonzero"></path>
            <path d="M17.4456517,24.7266504 C18.3930291,24.7266504 19.2884136,24.6081113 20.1313894,24.3708939 C20.9745039,24.1336765 21.7091962,23.7647026 22.3354662,23.2641113 C22.9617364,22.7633809 23.4555981,22.1136417 23.8169132,21.31392 C24.1782281,20.5147548 24.3588857,19.5441809 24.3588857,18.40192 C24.3588857,17.2778852 24.1981933,16.4034504 23.8770861,15.5951026 C23.5557016,14.7871722 23.110089,14.1325635 22.5402484,13.631833 C21.9699919,13.1311026 21.2956112,12.7621287 20.5168291,12.5250504 C19.7377697,12.287833 18.8825929,12.1692939 17.9514372,12.1692939 L15.181402,12.1692939 L15.181402,24.7266504 L17.4456517,24.7266504 Z M12.146273,9.16505043 L18.8667871,9.16505043 C19.9906625,9.16505043 21.0746074,9.35398957 22.1187604,9.73158957 C23.162359,10.109607 24.0856117,10.6847722 24.8887958,11.4577809 C25.6917025,12.2310678 26.3341943,13.2015026 26.8158552,14.3696417 C27.2976546,15.5381983 27.5384851,16.8208417 27.5384851,18.40192 C27.5384851,20.000807 27.2614677,21.38432 26.7074329,22.5524591 C26.1533981,23.7211548 25.4386712,24.6869983 24.5636677,25.4513809 C23.6882484,26.2156243 22.7167465,26.7866157 21.6490233,27.1642157 C20.5807455,27.542233 19.5329875,27.7308939 18.505472,27.7308939 L12.146273,27.7308939 L12.146273,9.16505043 Z" id="Fill-10" fill="#FFFFFF" fill-rule="nonzero"></path>
        </g>
    </g>
</svg>