<svg width="24" height="24" viewBox="0 0 24 24" fill="none" xmlns="http://www.w3.org/2000/svg">
<path d="M12 24C18.6274 24 24 18.6274 24 12C24 5.37258 18.6274 0 12 0C5.37258 0 0 5.37258 0 12C0 18.6274 5.37258 24 12 24Z" fill="url(#paint0_linear)"/>
<path d="M23.5 12C23.5 18.3513 18.3513 23.5 12 23.5C5.64873 23.5 0.5 18.3513 0.5 12C0.5 5.64873 5.64873 0.5 12 0.5C18.3513 0.5 23.5 5.64873 23.5 12Z" stroke="black" stroke-opacity="0.097"/>
<path d="M12.0877 15.6061C11.8288 16.1705 11.6023 16.6828 11.3596 17.1777C11.0359 17.855 10.5586 18.1416 9.86279 17.9332C9.45017 17.8116 9.02946 17.5772 8.69774 17.2906C8.10713 16.7783 8.0424 16.2573 8.37412 15.5279C8.6492 14.9201 8.94046 14.3297 9.26409 13.6263C8.68156 13.6263 8.18803 13.635 7.69451 13.6263C6.42428 13.609 5.80939 12.8101 6.05211 11.4555C6.18965 10.7088 6.46473 10.0489 7.53269 10.101C7.98577 10.127 8.43884 10.101 8.95664 10.101C8.71393 9.67548 8.50357 9.31079 8.3013 8.9461C7.86441 8.16461 7.92913 7.49601 8.58448 6.90555C8.88383 6.63637 9.26409 6.42798 9.63626 6.3151C10.3159 6.1067 10.777 6.34115 11.1411 6.9837C11.3677 7.37444 11.578 7.77387 11.8288 8.23408C12.0715 7.73914 12.2819 7.28761 12.5003 6.85345C12.8563 6.13275 13.277 5.85489 14.0133 6.07197C14.4583 6.20221 14.9033 6.48876 15.2512 6.81872C15.6719 7.20946 15.7447 7.7565 15.4696 8.32091C15.324 8.61614 15.1945 8.92005 15.0651 9.21528C14.9275 9.5105 14.79 9.80573 14.6282 10.1617C14.7738 10.1791 14.8871 10.1965 15.0003 10.2052C15.5667 10.2138 16.133 10.2138 16.6994 10.2138C17.2738 10.2138 17.646 10.5264 17.8402 11.0735C18.0586 11.69 18.0505 12.3239 17.8321 12.9404C17.6055 13.5742 17.2657 13.8087 16.6266 13.8087C16.3596 13.8087 16.0845 13.7913 15.8175 13.7913C15.5505 13.7913 15.2835 13.7913 14.9356 13.7913C15.1298 14.156 15.3078 14.486 15.4777 14.8159C15.8903 15.58 15.866 16.101 15.3968 16.6828C14.879 17.334 14.0133 17.664 13.4065 17.3601C13.1314 17.2212 12.9049 16.9433 12.7107 16.6741C12.4761 16.3615 12.3062 15.9968 12.0877 15.6061Z" fill="black"/>
<defs>
<linearGradient id="paint0_linear" x1="12" y1="0" x2="12" y2="24" gradientUnits="userSpaceOnUse">
<stop stop-color="#CCF95E"/>
<stop offset="1" stop-color="#ECFF82"/>
</linearGradient>
</defs>
</svg>
