<svg width="24" height="24" viewBox="0 0 24 24" fill="none" xmlns="http://www.w3.org/2000/svg">
<path d="M12 24C18.6274 24 24 18.6274 24 12C24 5.37258 18.6274 0 12 0C5.37258 0 0 5.37258 0 12C0 18.6274 5.37258 24 12 24Z" fill="url(#paint0_linear)"/>
<path d="M23.5 12C23.5 18.3513 18.3513 23.5 12 23.5C5.64873 23.5 0.5 18.3513 0.5 12C0.5 5.64873 5.64873 0.5 12 0.5C18.3513 0.5 23.5 5.64873 23.5 12Z" stroke="black" stroke-opacity="0.097"/>
<path d="M11.7681 4.66602C15.0641 4.75218 17.4701 5.96809 19.0154 8.53395C21.1085 12.0093 19.7588 16.3177 16.052 18.2995C12.7461 20.0707 8.77526 19.525 6.0954 16.94C3.99259 14.9007 3.37642 11.6934 4.68701 9.08924C6.18343 6.13085 8.73614 4.79048 11.7681 4.66602ZM5.53791 12.1721C5.67484 14.4699 6.8974 16.2507 9.12736 17.3038C11.2399 18.2995 13.3917 18.1942 15.4064 17.0262C17.4603 15.839 18.5753 14.0295 18.4384 11.6647C18.321 9.41476 17.0398 7.82546 15.0543 6.77231C13.3917 5.88192 11.6214 5.88192 9.87068 6.4085C8.59921 6.79146 7.57226 7.51909 6.75069 8.61054C5.95847 9.65411 5.5966 10.7551 5.53791 12.1721Z" fill="white"/>
<path d="M11.1034 12.7182C10.2134 12.7182 9.32335 12.7373 8.42355 12.7086C8.04211 12.699 8.03233 12.8235 8.14969 13.1203C8.48223 13.982 9.03972 14.6426 9.83194 15.1308C10.3992 15.4755 10.5068 15.7723 10.2623 16.1553C9.99821 16.5574 9.42116 16.6819 8.98103 16.3755C6.89779 14.9489 5.86105 12.9384 6.67284 10.4108C7.24989 8.6109 8.70718 7.51945 10.585 7.04075C13.0008 6.42801 15.5633 7.40456 16.8641 9.41512C17.3238 10.1236 17.2945 10.3917 16.6489 10.9183C16.3066 11.1959 16.0719 11.5597 15.7491 11.8469C15.5829 11.9905 15.6122 12.1054 15.7687 12.2395C16.0034 12.431 16.2088 12.6607 16.4631 12.8426C17.2847 13.4458 17.3825 13.9149 16.8152 14.7C16.2284 15.5042 15.4459 16.0978 14.5657 16.567C14.2625 16.7297 13.9789 16.5191 13.8126 16.2319C13.5583 15.8106 13.5974 15.4755 13.9789 15.2457C14.4092 14.9872 14.7907 14.6713 15.1525 14.3458C15.4655 14.0586 15.3873 13.8862 15.1134 13.5798C14.4581 12.8235 13.6757 12.5937 12.7074 12.7086C12.1793 12.766 11.6315 12.7182 11.1034 12.7182ZM11.0741 11.2916C11.9445 11.2916 12.8248 11.2916 13.6952 11.2916C13.8713 11.2916 14.0376 11.3108 14.194 11.1672C14.5168 10.8608 14.8591 10.564 15.2014 10.2864C15.4362 10.0949 15.4068 9.94169 15.2308 9.73106C14.419 8.74493 13.3236 8.32367 12.0815 8.2758C11.2012 8.24708 10.3894 8.47686 9.63633 9.00343C8.91257 9.51086 8.43333 10.1236 8.12035 10.9087C8.01276 11.1768 8.06167 11.3012 8.40398 11.2916C9.29401 11.2725 10.184 11.2916 11.0741 11.2916Z" fill="white"/>
<defs>
<linearGradient id="paint0_linear" x1="20.5" y1="1.5" x2="6" y2="24" gradientUnits="userSpaceOnUse">
<stop stop-color="#DB2238"/>
<stop offset="1" stop-color="#6A3294"/>
</linearGradient>
</defs>
</svg>
