<svg width="24" height="24" viewBox="0 0 24 24" fill="none" xmlns="http://www.w3.org/2000/svg">
<path d="M12 24C18.6274 24 24 18.6274 24 12C24 5.37258 18.6274 0 12 0C5.37258 0 0 5.37258 0 12C0 18.6274 5.37258 24 12 24Z" fill="black"/>
<path d="M12 24C18.6274 24 24 18.6274 24 12C24 5.37258 18.6274 0 12 0C5.37258 0 0 5.37258 0 12C0 18.6274 5.37258 24 12 24Z" fill="#FF007A"/>
<path style="mix-blend-mode:soft-light" d="M12 24C18.6274 24 24 18.6274 24 12C24 5.37258 18.6274 0 12 0C5.37258 0 0 5.37258 0 12C0 18.6274 5.37258 24 12 24Z" fill="url(#paint0_linear)"/>
<path d="M23.5001 12.0001C23.5001 18.3514 18.3514 23.5002 12 23.5002C5.64871 23.5002 0.499939 18.3514 0.499939 12.0001C0.499939 5.64877 5.64871 0.5 12 0.5C18.3514 0.5 23.5001 5.64877 23.5001 12.0001Z" stroke="black" stroke-opacity="0.097"/>
<g filter="url(#filter0_d)">
<path d="M9.00894 3.81408C8.78094 3.77888 8.77134 3.77408 8.87854 3.75808C9.08414 3.72608 9.57054 3.77008 9.90574 3.84928C10.6873 4.03568 11.3985 4.51168 12.1585 5.35728L12.3601 5.58128L12.6481 5.53568C13.8641 5.33968 15.1017 5.49568 16.1361 5.97328C16.4209 6.10448 16.8697 6.36608 16.9257 6.43408C16.9441 6.45488 16.9769 6.59328 16.9985 6.74048C17.0753 7.25008 17.0369 7.64048 16.8817 7.93248C16.7969 8.09088 16.7921 8.14048 16.8489 8.27648C16.8759 8.33265 16.9181 8.38013 16.9707 8.41351C17.0233 8.44689 17.0842 8.46482 17.1465 8.46528C17.4041 8.46528 17.6809 8.04928 17.8089 7.47088L17.8601 7.24128L17.9609 7.35568C18.5145 7.98288 18.9489 8.83808 19.0233 9.44608L19.0433 9.60528L18.9497 9.46128C18.7897 9.21328 18.6297 9.04368 18.4233 8.90688C18.0521 8.66128 17.6593 8.57808 16.6193 8.52288C15.6801 8.47328 15.1481 8.39328 14.6217 8.22128C13.7249 7.92928 13.2729 7.53968 12.2073 6.14208C11.7345 5.52128 11.4417 5.17808 11.1513 4.90208C10.4897 4.27328 9.84014 3.94368 9.00894 3.81408Z" fill="white"/>
<path d="M17.1381 5.20021C17.1621 4.78421 17.2181 4.50981 17.3317 4.25941C17.3765 4.16021 17.4189 4.07861 17.4253 4.07861C17.4181 4.13477 17.4033 4.18968 17.3813 4.24181C17.2989 4.48501 17.2853 4.81781 17.3421 5.20421C17.4141 5.69541 17.4557 5.76581 17.9741 6.29621C18.2181 6.54501 18.5013 6.85861 18.6037 6.99381L18.7901 7.23861L18.6037 7.06341C18.3757 6.84981 17.8509 6.43141 17.7349 6.37221C17.6573 6.33221 17.6453 6.33301 17.5973 6.38021C17.5533 6.42501 17.5437 6.49061 17.5381 6.80341C17.5285 7.28981 17.4621 7.60341 17.3013 7.91541C17.2149 8.08341 17.2013 8.04821 17.2797 7.85701C17.3381 7.71461 17.3437 7.65221 17.3437 7.18101C17.3437 6.23381 17.2309 6.00661 16.5709 5.61621C16.3723 5.50098 16.1683 5.39526 15.9597 5.29941C15.8566 5.25806 15.7566 5.20941 15.6605 5.15381C15.6789 5.13541 16.3221 5.32261 16.5805 5.42261C16.9661 5.57061 17.0293 5.58981 17.0765 5.57141C17.1077 5.55941 17.1229 5.46821 17.1381 5.20021ZM9.45247 6.82021C8.98927 6.18261 8.70287 5.20421 8.76447 4.47301L8.78367 4.24661L8.88927 4.26581C9.08767 4.30181 9.42927 4.42901 9.58927 4.52661C10.0277 4.79301 10.2181 5.14421 10.4109 6.04501C10.4677 6.30901 10.5421 6.60741 10.5765 6.70901C10.6309 6.87141 10.8389 7.25141 11.0085 7.49861C11.1301 7.67621 11.0485 7.76021 10.7797 7.73621C10.3685 7.69861 9.81167 7.31461 9.45247 6.82021ZM16.5765 11.5682C14.4109 10.6962 13.6485 9.93941 13.6485 8.66261C13.6485 8.47461 13.6549 8.32101 13.6621 8.32101C13.6701 8.32101 13.7541 8.38261 13.8485 8.45861C14.2877 8.81061 14.7797 8.96101 16.1405 9.15941C16.9413 9.27701 17.3925 9.37141 17.8085 9.50901C19.1301 9.94741 19.9477 10.837 20.1429 12.0482C20.1989 12.4002 20.1661 13.0602 20.0741 13.4082C20.0021 13.6834 19.7805 14.1786 19.7221 14.1978C19.7061 14.2026 19.6901 14.141 19.6853 14.0554C19.6629 13.601 19.4333 13.1578 19.0469 12.8258C18.6077 12.449 18.0181 12.1482 16.5757 11.5682H16.5765ZM15.0565 11.9298C15.0309 11.7753 14.9959 11.6225 14.9517 11.4722L14.8957 11.3074L14.9989 11.4226C15.1405 11.5826 15.2533 11.7858 15.3477 12.0578C15.4205 12.265 15.4285 12.3266 15.4277 12.6634C15.4277 12.9946 15.4189 13.0634 15.3517 13.2506C15.2582 13.5251 15.1018 13.7739 14.8949 13.977C14.4989 14.3802 13.9909 14.6026 13.2565 14.6954C13.1285 14.7114 12.7573 14.7386 12.4301 14.7554C11.6061 14.7986 11.0645 14.8866 10.5773 15.0578C10.5333 15.0775 10.4861 15.0889 10.4381 15.0914C10.4189 15.0714 10.7501 14.8738 11.0245 14.7418C11.4109 14.5554 11.7949 14.4538 12.6565 14.3106C13.0821 14.2394 13.5221 14.1538 13.6333 14.1194C14.6877 13.7962 15.2293 12.9626 15.0557 11.9298H15.0565Z" fill="white"/>
<path d="M16.0477 13.6933C15.7597 13.0749 15.6941 12.4773 15.8517 11.9205C15.8685 11.8613 15.8957 11.8125 15.9117 11.8125C15.9659 11.8321 16.0168 11.8596 16.0629 11.8941C16.1957 11.9837 16.4613 12.1341 17.1693 12.5197C18.0533 13.0021 18.5573 13.3757 18.9005 13.8013C19.2005 14.1749 19.3861 14.6005 19.4757 15.1189C19.5261 15.4125 19.4965 16.1189 19.4213 16.4149C19.1837 17.3477 18.6309 18.0805 17.8437 18.5077C17.7694 18.5507 17.6925 18.5889 17.6133 18.6221C17.6021 18.6221 17.6437 18.5157 17.7069 18.3845C17.9709 17.8309 18.0021 17.2917 17.8013 16.6917C17.6789 16.3245 17.4285 15.8757 16.9237 15.1189C16.3365 14.2389 16.1925 14.0037 16.0477 13.6933ZM7.91413 17.0301C8.71813 16.3517 9.71733 15.8701 10.6285 15.7221C11.0205 15.6581 11.6749 15.6837 12.0381 15.7765C12.6205 15.9253 13.1421 16.2597 13.4133 16.6573C13.6773 17.0461 13.7917 17.3853 13.9093 18.1389C13.9573 18.4365 14.0077 18.7349 14.0229 18.8029C14.1109 19.1933 14.2845 19.5061 14.4989 19.6629C14.8389 19.9117 15.4253 19.9269 16.0013 19.7029C16.0615 19.6753 16.1249 19.6554 16.1901 19.6437C16.2109 19.6645 15.9213 19.8589 15.7165 19.9613C15.4749 20.0906 15.2042 20.1562 14.9301 20.1517C14.4021 20.1517 13.9637 19.8837 13.5981 19.3357C13.5261 19.2277 13.3645 18.9053 13.2381 18.6181C12.8525 17.7381 12.6621 17.4693 12.2141 17.1757C11.8229 16.9197 11.3197 16.8741 10.9413 17.0597C10.4437 17.3037 10.3053 17.9397 10.6613 18.3421C10.8029 18.5021 11.0669 18.6405 11.2829 18.6669C11.3772 18.6794 11.473 18.6715 11.5639 18.6438C11.6548 18.616 11.7387 18.5691 11.8099 18.5062C11.8811 18.4432 11.938 18.3657 11.9767 18.2789C12.0154 18.1921 12.035 18.0979 12.0341 18.0029C12.0341 17.7373 11.9317 17.5869 11.6757 17.4709C11.3261 17.3133 10.9501 17.4973 10.9517 17.8261C10.9525 17.9661 11.0133 18.0541 11.1541 18.1181C11.2445 18.1581 11.2461 18.1621 11.1725 18.1469C10.8517 18.0797 10.7765 17.6933 11.0349 17.4365C11.3445 17.1277 11.9853 17.2637 12.2053 17.6845C12.2981 17.8613 12.3085 18.2141 12.2277 18.4269C12.0477 18.9029 11.5213 19.1525 10.9877 19.0165C10.6245 18.9237 10.4765 18.8237 10.0389 18.3725C9.27813 17.5885 8.98293 17.4365 7.88533 17.2653L7.67493 17.2325L7.91493 17.0301H7.91413Z" fill="white"/>
<path fill-rule="evenodd" clip-rule="evenodd" d="M4.66334 2.50041C7.37934 5.83162 8.76814 7.54042 8.83054 7.62522C8.99054 7.84762 8.93054 8.04682 8.65534 8.20362C8.50254 8.29082 8.18734 8.37882 8.03054 8.37882C7.85214 8.37882 7.65134 8.29322 7.50494 8.15482C7.40174 8.05642 6.98494 7.43402 6.02254 5.94042C5.57187 5.23449 5.11532 4.53233 4.65294 3.83402C4.61374 3.79721 4.61454 3.79801 5.94734 6.18282C6.78414 7.68042 7.06734 8.20922 7.06734 8.28042C7.06734 8.42442 7.02734 8.49962 6.84974 8.69802C6.55374 9.02842 6.42174 9.39962 6.32574 10.1676C6.21854 11.0292 5.91774 11.6372 5.08254 12.678C4.59454 13.2876 4.51454 13.3996 4.39054 13.6452C4.23534 13.954 4.19294 14.1276 4.17534 14.518C4.15694 14.9308 4.19294 15.198 4.31934 15.5924C4.42974 15.938 4.54494 16.1668 4.83934 16.6228C5.09374 17.0172 5.24014 17.31 5.24014 17.4244C5.24014 17.5156 5.25774 17.5156 5.65214 17.4268C6.59534 17.214 7.36094 16.8388 7.79214 16.3796C8.05854 16.0956 8.12094 15.9388 8.12334 15.5492C8.12414 15.2948 8.11534 15.2412 8.04654 15.0948C7.93454 14.8564 7.73054 14.658 7.28094 14.3508C6.69134 13.9476 6.44014 13.6228 6.37054 13.1772C6.31294 12.8116 6.37934 12.5532 6.70574 11.87C7.04254 11.1628 7.12654 10.862 7.18334 10.1492C7.21934 9.68842 7.26974 9.50682 7.40254 9.36122C7.54014 9.20922 7.66494 9.15722 8.00654 9.11082C8.56334 9.03482 8.91774 8.89082 9.20894 8.62282C9.46174 8.38922 9.56734 8.16442 9.58334 7.82682L9.59614 7.57082L9.45454 7.40602C9.32654 7.25642 7.79774 5.56922 4.86894 2.34521L4.66414 2.50041H4.66334ZM5.52734 14.9852C5.58316 14.8864 5.59982 14.7702 5.57404 14.6597C5.54826 14.5492 5.48192 14.4523 5.38814 14.3884C5.20574 14.2668 4.92174 14.3244 4.92174 14.4828C4.92174 14.5308 4.94814 14.566 5.00814 14.5972C5.10974 14.6492 5.11694 14.7084 5.03774 14.8276C4.95694 14.9492 4.96334 15.0564 5.05614 15.1292C5.20494 15.246 5.41614 15.1812 5.52814 14.9852H5.52734ZM9.94734 9.24522C9.68574 9.32522 9.43214 9.60282 9.35294 9.89322C9.30494 10.07 9.33214 10.3812 9.40414 10.4772C9.52014 10.6324 9.63294 10.6732 9.93694 10.6708C10.5321 10.6668 11.0489 10.4116 11.1097 10.0924C11.1593 9.83082 10.9313 9.46842 10.6185 9.30842C10.4569 9.22682 10.1137 9.19402 9.94734 9.24522ZM10.6433 9.78922C10.7353 9.65882 10.6945 9.51722 10.5393 9.42282C10.2417 9.24122 9.79214 9.39082 9.79214 9.67242C9.79214 9.81162 10.0265 9.96442 10.2409 9.96442C10.3849 9.96442 10.5801 9.87882 10.6433 9.78922Z" fill="white"/>
</g>
<defs>
<filter id="filter0_d" x="3.17084" y="1.84521" width="17.9995" height="19.8067" filterUnits="userSpaceOnUse" color-interpolation-filters="sRGB">
<feFlood flood-opacity="0" result="BackgroundImageFix"/>
<feColorMatrix in="SourceAlpha" type="matrix" values="0 0 0 0 0 0 0 0 0 0 0 0 0 0 0 0 0 0 127 0"/>
<feOffset dy="0.5"/>
<feGaussianBlur stdDeviation="0.5"/>
<feColorMatrix type="matrix" values="0 0 0 0 0 0 0 0 0 0 0 0 0 0 0 0 0 0 0.204257 0"/>
<feBlend mode="normal" in2="BackgroundImageFix" result="effect1_dropShadow"/>
<feBlend mode="normal" in="SourceGraphic" in2="effect1_dropShadow" result="shape"/>
</filter>
<linearGradient id="paint0_linear" x1="12" y1="0" x2="12" y2="24" gradientUnits="userSpaceOnUse">
<stop stop-color="white" stop-opacity="0.5"/>
<stop offset="1" stop-opacity="0.5"/>
</linearGradient>
</defs>
</svg>
