<svg xmlns="http://www.w3.org/2000/svg" width="400" height="400">
  <g fill-rule="evenodd">
    <path d="M245.2 94.65c-4.24.61-6.4 1.08-6.4 1.39 0 .2-.34.36-.75.36-1.05 0-4.85 1.26-4.85 1.6 0 .16-.85.61-1.9 1-1.05.4-1.99.84-2.1.97-.11.14-.96.59-1.89 1-.93.4-1.99 1.08-2.36 1.48-.37.41-.9.75-1.18.75-.28 0-.75.23-1.04.52-.3.28-.93.79-1.42 1.13a51.67 51.67 0 0 0-11.8 12.1c-2.27 3.4-2.25 3.39-2.8 1.94-.27-.71-.61-1.29-.77-1.29-.15 0-.48-.62-.73-1.37-.45-1.36-2.03-3.67-3.6-5.24-.45-.45-.81-1.04-.81-1.3 0-.27-.16-.49-.36-.49-.2 0-1.15-.79-2.13-1.75a29.62 29.62 0 0 0-6.26-4.62 8.35 8.35 0 0 1-1.51-1.04 7.03 7.03 0 0 0-1.8-1 6.02 6.02 0 0 1-1.54-.8c-.11-.15-1.19-.6-2.4-.98-1.21-.4-2.38-.86-2.6-1.03-2.62-2.04-20.95-2.04-23.6 0-.22.17-1.25.63-2.3 1.02-1.05.39-1.9.86-1.9 1.05 0 .2-.22.35-.5.36-.28 0-1.22.63-2.1 1.4a8.55 8.55 0 0 1-1.89 1.39c-1.14 0-6.63 6.85-8.53 10.65-.65 1.3-1.3 2.4-1.46 2.48-.15.06-.57 1.05-.93 2.2-.36 1.14-.9 2.61-1.19 3.27-.3.66-.75 2.33-1.02 3.71s-.64 2.6-.83 2.72c-.2.12-.35.64-.35 1.17 0 1.22-1 2.2-2.23 2.2-.53 0-.97.14-.97.3 0 .17-1.17.64-2.6 1.06-1.43.4-2.6.87-2.6 1.04 0 .16-.83.53-1.83.8-1.01.3-2.05.72-2.3.96-.27.24-1.2.8-2.08 1.24-.87.44-1.83 1.02-2.12 1.3-.29.27-.77.5-1.08.5-.3 0-.78.31-1.07.7a7.48 7.48 0 0 1-1.92 1.48c-3.73 2.08-11.38 11.3-12.22 14.72-.15.6-.4 1.1-.57 1.1-.39 0-1.61 4.32-1.61 5.7 0 .58-.18 1.16-.4 1.3-.51.32-.53 8.34-.02 9.97.22.68.7 2.63 1.06 4.33.38 1.7.8 3.1.93 3.1.14 0 .5.82.8 1.82.29 1 .74 2.04 1 2.3.26.27.83 1.1 1.25 1.87.9 1.62.73 1.36 3.73 5.21 2.13 2.73 6.47 7.2 7 7.2.12 0 .72.46 1.33 1.03 2.2 2.02 2.4 2.17 2.75 2.17.2 0 .89.44 1.52.99.63.54 1.66 1.22 2.3 1.5.63.28 1.15.6 1.15.73 0 .12 1.53.94 3.39 1.8 4.3 2.01 4.3 2.27-.09 3.38-.93.24-1.7.6-1.7.81 0 .22-.24.39-.54.39-.6 0-3.14 1.18-3.46 1.6-.11.15-.97.6-1.9 1.01-.94.41-1.7.9-1.7 1.08 0 .18-.4.48-.9.67-1.99.76-11.1 10.24-11.1 11.56 0 .2-.34.67-.76 1.05s-1 1.26-1.28 1.96-.63 1.36-.76 1.47c-.14.11-.49.83-.79 1.6-.3.77-.86 2.15-1.27 3.06-1.49 3.4-3.11 16.14-2.05 16.14.19 0 .38.59.43 1.3.13 1.74 1.23 6.02 1.62 6.28.17.12.62 1 1 1.94.69 1.76.98 2.22 2.56 3.94.5.54.9 1.13.9 1.3 0 .48 4.27 4.57 5.2 5 .44.2.8.51.8.7 0 .17.58.62 1.3.99a7.7 7.7 0 0 1 1.5.92c.11.14 1.01.6 2 1.03.99.43 1.89.9 2 1.04.26.35 3.86 1.56 4.61 1.56.33 0 .59.16.59.35 0 .2 1.57.66 3.5 1.03 1.92.38 3.78.83 4.12 1 .33.18 1.7.45 3.02.6 3.03.35 3.04.36 3.89 3.1.79 2.57 4.04 9.1 4.84 9.72.28.22.63.76.77 1.2.14.44.9 1.52 1.7 2.4.8.88 1.9 2.19 2.45 2.9.55.72 1.25 1.3 1.56 1.3.3 0 .55.27.55.6 0 .33.14.6.31.6.17 0 1.27.72 2.44 1.6 1.17.88 2.3 1.6 2.52 1.6.21 0 .62.23.9.52.3.28 1.31.77 2.28 1.08.96.31 1.84.7 1.95.85 1.4 1.96 20.44 1.98 22.95.02.25-.2.99-.49 1.65-.64 1.67-.39 7.13-3.08 7.52-3.71.18-.29.54-.52.8-.52.5 0 3.5-2.2 4.9-3.59.44-.45 1.01-.81 1.27-.81.25 0 .57-.36.71-.8.14-.44.51-.8.83-.8.31 0 .57-.13.58-.3 0-.16.74-1.11 1.64-2.1.9-.99 2.11-2.52 2.7-3.4.57-.88 1.16-1.69 1.3-1.8.36-.28 1.8-2.7 2.74-4.6.44-.88.8-1.29.8-.9 0 .38.17.7.36.7.19 0 .66.85 1.06 1.9.4 1.05.83 1.99.96 2.1.14.11.57.7.97 1.33 1.8 2.83 8.3 9.47 9.26 9.47.33 0 .6.16.6.37 0 .51 4.9 3.19 6.37 3.48.68.14 1.23.39 1.23.56 0 .17 1.3.6 2.9.97 1.6.37 3.62.84 4.5 1.07 3.82.96 18.87-.57 19.78-2 .12-.2 1.03-.63 2.02-.97 1.97-.67 5.49-2.54 6.33-3.37.3-.28.9-.7 1.33-.94.86-.46 1.27-.8 3.75-3.09 2.01-1.85 4.59-5.01 4.59-5.62 0-.25.18-.46.4-.46.23 0 .71-.63 1.08-1.4.37-.77.81-1.4 1-1.4.17 0 .32-.18.32-.4 0-.22.44-1.32.98-2.44 1.38-2.85 3.07-8.9 3.32-11.82l.2-2.46 2.45-.69c1.35-.37 2.63-.81 2.85-.97.22-.17 1.35-.63 2.5-1.04 1.16-.4 2.1-.86 2.1-1.02 0-.15.9-.6 2-1s2-.85 2-1.01c0-.16.4-.42.9-.58.82-.26 3.64-2.07 5.3-3.4.73-.6 6.3-6.12 7.2-7.17.3-.33.77-1.14 1.06-1.8.3-.66.85-1.55 1.24-1.97.38-.43.7-.97.7-1.21s.34-1.07.76-1.84c2.66-4.97 2.69-17.83.05-23.78a51.3 51.3 0 0 1-1.24-3.1c-.3-.82-.66-1.5-.81-1.5-.16 0-.48-.57-.72-1.27-.64-1.84-2.96-5.45-4.74-7.39-.5-.53-.9-1.14-.9-1.33 0-.58-6.86-7.21-7.46-7.21-.3 0-.54-.18-.54-.39 0-.21-.59-.69-1.3-1.06a7 7 0 0 1-1.5-.94 15.2 15.2 0 0 0-2.3-1.4c-2.6-1.4-2.6-1.35.3-2.95 1.32-.72 2.4-1.46 2.4-1.64 0-.19.4-.44.9-.56.86-.22 2.22-1.27 4.99-3.86a5.3 5.3 0 0 1 1.67-1.2c.21 0 .5-.36.64-.8.14-.44.47-.8.73-.8s1.01-.66 1.67-1.47c.66-.81 1.5-1.8 1.89-2.19.76-.8 2.6-3.5 3.48-5.1.31-.56.8-1.26 1.07-1.53.27-.28.71-1.18.98-2 .27-.83.66-1.73.87-2 .34-.42 1.12-3.04 2.37-7.91.57-2.2.25-13.5-.38-13.7-.26-.1-.48-.38-.48-.63 0-1.27-.94-3.53-2.01-4.92a184.3 184.3 0 0 1-1.9-2.48 21.1 21.1 0 0 0-1.59-1.85c-.5-.5-.9-1.1-.9-1.34s-.32-.67-.7-.96a7.46 7.46 0 0 1-1.43-1.65c-1.86-2.9-3.34-4.3-6.08-5.73-1.2-.63-2.19-1.28-2.19-1.44 0-.16-.19-.3-.42-.3-.23 0-1.57-.54-2.98-1.2a20.09 20.09 0 0 0-2.92-1.2c-.2 0-1.42-.36-2.72-.8a47.24 47.24 0 0 0-5.52-1.4c-1.74-.32-3.2-.63-3.27-.7-.23-.22-1.44-3.77-1.82-5.3-.46-1.9-4.7-10.6-5.17-10.6-.18 0-.43-.32-.55-.7-.22-.68-1.12-1.8-3.93-4.87-1.52-1.66-7.27-5.57-8.68-5.89a7.74 7.74 0 0 1-1.97-.83c-2-1.25-11.14-2.1-15.65-1.46m11.86 8.58c9.6 2.93 17.06 13.4 18.78 26.38.14 1.1.47 1.99.72 1.99 3.9 0 12.96 2.08 17.74 4.07 22.16 9.23 22.32 34.44.3 50.02-8 5.66-13.7 6.95-37 8.31-4.07.24-9.71.7-12.54 1.02-2.82.32-7.28.58-9.9.58-4.58 0-4.8.04-5.13.9-2.18 5.5-2.23 5.7-2.23 9.5v3.8l2.1.12 2.1.12v-3.64h3.55l.13 1.7.12 1.7 2.09.12c1.97.11 2.1.06 2.35-.94.48-1.9-.18-6.86-1.24-9.37a26.8 26.8 0 0 1-1-2.6c0-.46 15.37-.17 21.6.4 24.63 2.27 37.68 8.73 45.7 22.64 11.92 20.66 2.92 35.98-26.1 44.43l-1.8.52-.26 4.4c-1.67 28.06-34.34 40.89-52.43 20.58-6.29-7.06-7.54-12.46-8.3-35.9-.6-18.5-1.92-33.38-3.04-34.43-.15-.14-.14.64.01 1.72.68 4.68.33 23.8-.56 30.83-3.27 25.72-12.4 41.57-27.85 48.35-14.94 6.55-29.01.73-36.33-15.02a42 42 0 0 1-3.2-8.74l-.61-2.21-5.08-.5c-27.8-2.65-39.02-21.06-25.4-41.67 7.9-11.94 21.91-17.7 49.65-20.4 8.99-.87 16-2.03 20.1-3.32l2.69-.84 1.03.97c.99.93 1.3.98 5.91.98h4.87v-7.2l-2.1-.12-2.1-.12v1.78c0 2-.58 2.48-2.22 1.85-.97-.37-1.01-.5-.9-3.29l.12-2.9 2.59-.12c3.11-.15 3.69-.55 3.53-2.45l-.12-1.43h-4.34c-6 0-6.26.3-6.26 6.97v4.73l-1.9.24c-28.4 3.7-57.57-5.42-69.95-21.89-14.86-19.77-2.97-40.96 27.02-48.16l1.37-.32.67-3.99c2.05-12.06 7.08-21.34 13.96-25.76 13.99-8.98 37.05.24 42.4 16.94 1.93 6.03 2.1 8.24 2.43 30.84.32 22.17.61 25.81 2.31 29.37l.69 1.43.09-5.2c.44-26.06 3.15-43.87 8.35-54.84 7.46-15.75 28.82-27.19 42.82-22.92m-53.84 94.2a20.82 20.82 0 0 0-2.02 9.25v3.35l2.1-.12 2.1-.12.12-1.7.13-1.7h3.5l.13 1.7.12 1.7 2.1.12 2.1.12v-3.67c0-2.91-.2-4.25-1-6.45-1.65-4.56-1.36-4.32-5.2-4.32h-3.36l-.82 1.85m11.43-1.23c-.81 2.11.03 3.38 2.23 3.38h1.52V210h4.4v-10.4h1.55c1.87 0 2.55-.7 2.38-2.47l-.13-1.33-5.85-.11c-5.08-.1-5.89-.03-6.1.53m-6.29 4.64c.64 1.83.58 1.94-.96 1.94-1.51 0-1.7-.38-1.01-2.17.53-1.4 1.44-1.3 1.97.23m26.45-.23c.68 1.79.5 2.17-1.01 2.17-1.54 0-1.6-.11-.96-1.94.53-1.52 1.44-1.63 1.97-.23" fill="#289419"/>
    <path d="M243.2 103.25c-12.71 3.41-23.93 12.28-28.96 22.9-5.2 10.98-7.91 28.8-8.35 54.85l-.09 5.2-.69-1.43c-1.7-3.56-1.99-7.2-2.3-29.37-.34-22.6-.51-24.8-2.44-30.84-5.35-16.7-28.41-25.92-42.4-16.94-6.88 4.41-11.9 13.7-13.96 25.76l-.67 3.99-1.37.32c-30 7.2-41.88 28.4-27.02 48.16 12.38 16.47 41.55 25.6 69.95 21.9l1.9-.25v-4.73c0-6.67.27-6.97 6.26-6.97h4.34l.12 1.43c.16 1.9-.42 2.3-3.53 2.45l-2.59.12-.12 2.9c-.11 2.79-.07 2.92.9 3.3 1.64.62 2.22.13 2.22-1.86v-1.78l2.1.12 2.1.12v7.2h-4.87c-4.61 0-4.92-.05-5.9-.98l-1.04-.97-2.7.84c-4.09 1.29-11.1 2.45-20.09 3.32-27.74 2.7-41.76 8.46-49.65 20.4-13.62 20.61-2.4 39.02 25.4 41.68l5.08.49.61 2.2a42 42 0 0 0 3.2 8.75c13.3 28.63 48.53 21 59.74-12.93 4.35-13.17 6.84-38.63 5-51.23-.15-1.08-.16-1.86-.01-1.72 1.12 1.05 2.43 15.93 3.04 34.44.21 6.54.66 14.5 1 17.71 4.06 38.67 57.41 36.53 59.73-2.4l.26-4.4 1.8-.52c29.02-8.45 38.02-23.78 26.1-44.43-8.02-13.91-21.07-20.38-45.7-22.64-6.23-.57-21.6-.86-21.6-.4 0 .12.45 1.29 1 2.6 1.06 2.5 1.72 7.47 1.24 9.36-.25 1.01-.38 1.06-2.35.95l-2.09-.12-.12-1.7-.13-1.7H232v3.64l-2.1-.12-2.1-.12V206c0-3.8.05-4 2.23-9.5.34-.86.55-.9 5.12-.9 2.63 0 7.09-.26 9.91-.58 2.83-.32 8.47-.78 12.54-1.02 23.3-1.36 29-2.65 37-8.3 22.02-15.6 21.86-40.8-.3-50.03-4.78-2-13.85-4.07-17.74-4.07-.25 0-.58-.9-.72-1.99-2.59-19.5-16.45-30.7-32.64-26.36m-32.02 93.12a21.58 21.58 0 0 1 2.42 10v3.67l-2.1-.12-2.1-.12-.12-1.7-.13-1.7h-3.5l-.13 1.7-.12 1.7-2.1.12-2.1.12v-3.35c0-3.4.55-5.92 2.02-9.24l.82-1.85h3.37c2.9 0 3.42.1 3.77.77m15.55.76c.17 1.77-.5 2.47-2.38 2.47h-1.55V210h-4.4v-10.4h-1.52c-1.73 0-2.48-.56-2.48-1.85 0-2.17.04-2.18 6.35-2.06l5.85.11.13 1.33m-20.34 3.5c-.68 1.79-.5 2.17 1.01 2.17 1.54 0 1.6-.11.96-1.94-.53-1.52-1.44-1.63-1.97-.23m26.45.23c-.64 1.83-.58 1.94.96 1.94 1.51 0 1.7-.38 1.01-2.17-.53-1.4-1.44-1.3-1.97.23" fill="#fbfbfb"/>
  </g>
</svg>
