<svg width="24" height="24" viewBox="0 0 24 24" fill="none" xmlns="http://www.w3.org/2000/svg">
<path d="M12 24C18.6274 24 24 18.6274 24 12C24 5.37258 18.6274 0 12 0C5.3726 0 1.52588e-05 5.37258 1.52588e-05 12C1.52588e-05 18.6274 5.3726 24 12 24Z" fill="#0041FF"/>
<path d="M12 24C18.6274 24 24 18.6274 24 12C24 5.37258 18.6274 0 12 0C5.3726 0 1.52588e-05 5.37258 1.52588e-05 12C1.52588e-05 18.6274 5.3726 24 12 24Z" fill="#0041FF"/>
<path d="M23.5 12C23.5 18.3513 18.3513 23.5 12 23.5C5.64874 23.5 0.500015 18.3513 0.500015 12C0.500015 5.64873 5.64874 0.5 12 0.5C18.3513 0.5 23.5 5.64873 23.5 12Z" stroke="white" stroke-opacity="0.3"/>
<path fill-rule="evenodd" clip-rule="evenodd" d="M12.105 8.31055C14.0832 8.31055 15.6936 9.91556 15.6936 11.8938C15.6936 13.8721 14.0886 15.4824 12.105 15.4824C10.1267 15.4824 8.52173 13.8774 8.52173 11.8938C8.52173 9.92089 10.1267 8.31055 12.105 8.31055Z" fill="white"/>
<path fill-rule="evenodd" clip-rule="evenodd" d="M5.2904 12.4268C6.00492 12.4268 6.5808 13.0026 6.5808 13.7171C6.5808 14.4317 6.00492 15.0076 5.2904 15.0076C4.57588 15.0076 4 14.4317 4 13.7171C4 13.008 4.57588 12.4268 5.2904 12.4268Z" fill="white"/>
<path fill-rule="evenodd" clip-rule="evenodd" d="M14.5152 3C15.7683 3 16.7814 4.01312 16.7814 5.2662C16.7814 6.51927 15.7683 7.53242 14.5152 7.53242C13.2622 7.53242 12.249 6.51927 12.249 5.2662C12.249 4.01312 13.2622 3 14.5152 3Z" fill="white"/>
<path fill-rule="evenodd" clip-rule="evenodd" d="M15.1337 16.4053C16.1628 16.4053 17 17.2425 17 18.2715C17 19.3007 16.1628 20.1378 15.1337 20.1378C14.1046 20.1378 13.2674 19.3007 13.2674 18.2715C13.2621 17.2425 14.0993 16.4053 15.1337 16.4053Z" fill="white"/>
</svg>
