<?xml version="1.0" encoding="UTF-8" standalone="no"?>
<!-- Created with Inkscape (http://www.inkscape.org/) -->

<svg
   width="33.866665mm"
   height="33.866665mm"
   viewBox="0 0 33.866665 33.866665"
   version="1.1"
   id="svg1189"
   inkscape:version="1.1.2 (76b9e6a115, 2022-02-25)"
   sodipodi:docname="logo.svg"
   xmlns:inkscape="http://www.inkscape.org/namespaces/inkscape"
   xmlns:sodipodi="http://sodipodi.sourceforge.net/DTD/sodipodi-0.dtd"
   xmlns="http://www.w3.org/2000/svg"
   xmlns:svg="http://www.w3.org/2000/svg">
  <sodipodi:namedview
     id="namedview1191"
     pagecolor="#ffffff"
     bordercolor="#666666"
     borderopacity="1.0"
     inkscape:pageshadow="2"
     inkscape:pageopacity="0.0"
     inkscape:pagecheckerboard="0"
     inkscape:document-units="mm"
     showgrid="false"
     inkscape:zoom="0.47304293"
     inkscape:cx="58.134259"
     inkscape:cy="284.32937"
     inkscape:window-width="1366"
     inkscape:window-height="703"
     inkscape:window-x="0"
     inkscape:window-y="0"
     inkscape:window-maximized="1"
     inkscape:current-layer="layer1" />
  <defs
     id="defs1186" />
  <g
     inkscape:label="Слой 1"
     inkscape:groupmode="layer"
     id="layer1"
     transform="translate(-89.337854,-73.117517)">
    <circle
       style="fill:#ffffff;stroke-width:0.118438"
       id="path810"
       cx="106.27119"
       cy="90.05085"
       r="16.933332" />
    <path
       style="fill:#000000;stroke-width:0.134428"
       d="m 104.13733,104.87284 c -1.76544,-0.23876 -4.339804,-1.25079 -6.011984,-2.36342 -3.211301,-2.13673 -5.22473,-4.936793 -6.1859,-8.602709 -0.385106,-1.468792 -0.417118,-4.428617 -0.06211,-5.742598 0.652325,-2.41444 1.604939,-4.047236 3.454929,-5.921775 1.668312,-1.69046 3.056797,-2.645441 5.471895,-3.763515 1.55673,-0.720686 1.72332,-0.831564 1.75468,-1.167886 0.14858,-1.59331 0.38241,-2.051953 1.04613,-2.051953 0.51682,0 1.28177,0.444282 1.94726,1.130974 0.50186,0.517849 0.68398,0.619525 1.13725,0.634901 0.30916,0.01048 0.4105,0.04319 0.23724,0.07656 -0.30965,0.05964 -0.40898,0.361147 -0.16804,0.510059 0.25139,0.155366 0.13531,0.279629 -0.59645,0.63852 -0.40199,0.197152 -1.15958,0.762869 -1.68354,1.257147 -0.52396,0.494274 -0.91685,0.805387 -0.87309,0.691354 0.0438,-0.11403 0.0169,-0.24606 -0.0597,-0.293394 -0.0791,-0.04886 -0.34461,0.321715 -0.61428,0.857216 -0.26127,0.518803 -0.62905,1.044191 -0.81728,1.167527 -0.28513,0.186827 -0.32747,0.291544 -0.25368,0.627499 0.0795,0.362037 0.0596,0.395663 -0.19527,0.32902 -0.44407,-0.116126 -0.33711,0.16474 0.2909,0.763825 0.54848,0.523219 1.18995,0.820716 2.4835,1.151776 0.31423,0.08042 0.57132,0.22252 0.57132,0.315775 0,0.442574 0.76842,1.325576 1.43955,1.654196 1.07105,0.52445 1.17811,0.316151 0.24047,-0.467868 -0.25709,-0.214963 -0.0486,-0.559675 0.33849,-0.559675 0.13091,0 0.27686,-0.101243 0.32434,-0.224981 0.11814,-0.307861 -0.0469,-1.322231 -0.26307,-1.617347 -0.16824,-0.229627 -0.19521,-0.226571 -0.55697,0.06306 -0.79622,0.637476 -0.85457,0.638897 -2.00596,0.04889 -0.58453,-0.299527 -1.21401,-0.664573 -1.39885,-0.811207 l -0.33607,-0.266616 0.53772,-0.215506 c 0.29574,-0.118528 1.08652,-0.487037 1.75729,-0.818909 0.75655,-0.374308 1.30711,-0.56982 1.45011,-0.514942 0.1268,0.04866 0.31776,0.297203 0.42436,0.552336 0.10659,0.255127 0.24925,0.429606 0.317,0.387733 0.0677,-0.04188 0.16658,-0.566367 0.21962,-1.165537 0.16758,-1.893152 0.27125,-1.957877 0.4645,-0.289996 0.0964,0.831776 0.23078,1.512318 0.2987,1.512318 0.0679,0 0.18718,-0.182755 0.26504,-0.406122 0.26263,-0.753359 0.51727,-0.755933 2.03497,-0.02058 0.7545,0.365577 1.55154,0.736909 1.77119,0.825185 l 0.39935,0.160499 -0.33214,0.256167 c -0.18268,0.140887 -0.80778,0.505663 -1.3891,0.810609 -1.14537,0.600821 -1.20884,0.599614 -2.00276,-0.03806 -0.33318,-0.267615 -0.39218,-0.277063 -0.57687,-0.09238 -0.12949,0.12949 -0.21612,0.497461 -0.23378,0.992981 -0.0263,0.738386 -0.007,0.792361 0.30801,0.869492 0.42413,0.103788 0.44993,0.557856 0.0419,0.736968 -0.16181,0.07103 -0.32394,0.24288 -0.3603,0.381894 -0.0563,0.215197 -0.0126,0.23957 0.2942,0.163989 0.8429,-0.207682 1.89492,-1.177142 1.94099,-1.788652 0.0191,-0.254064 0.46651,-0.513527 0.62029,-0.359749 0.034,0.03404 -0.009,0.06188 -0.0949,0.06188 -0.0863,0 -0.15683,0.08222 -0.15683,0.182718 0,0.100492 -0.24926,0.465889 -0.55391,0.811988 l -0.55391,0.629272 0.23781,0.633121 c 0.39682,1.056402 1.49951,3.183163 1.89268,3.650427 0.36066,0.42862 0.38996,0.437608 1.14732,0.35192 1.03312,-0.116885 1.52246,0.131641 1.8885,0.95913 0.3421,0.773391 0.25187,0.842315 -1.10643,0.845072 -1.84056,0.0038 -3.73832,-0.711621 -5.33288,-2.010225 -0.80559,-0.656072 -2.23619,-2.48602 -2.69397,-3.445992 -0.34516,-0.723826 -0.46916,-0.542739 -0.41687,0.608793 0.0448,0.987587 0.10579,1.179021 0.83464,2.621947 0.43244,0.856118 0.95749,1.739887 1.16678,1.963931 0.36829,0.39425 0.40798,0.404537 1.23438,0.31987 0.79168,-0.08111 0.88466,-0.06155 1.27702,0.2686 0.42068,0.353978 0.82101,1.222653 0.64431,1.398106 -0.20281,0.201374 -2.68821,0.08144 -3.42947,-0.165492 -2.4369,-0.811791 -4.37143,-2.493801 -5.85772,-5.093104 l -0.32275,-0.564439 -0.002,0.810882 c -10e-4,0.721141 0.20044,1.769605 0.45279,2.351622 0.0732,0.168913 -0.11808,0.233307 -1.08477,0.365125 -1.400199,0.190937 -2.637047,0.748075 -3.275833,1.47561 -0.7317,0.833353 -1.39087,2.389273 -1.449279,3.420909 -0.05629,0.994207 0.226017,2.08043 0.637484,2.452796 0.235114,0.212776 0.239371,0.194242 0.108014,-0.470101 -0.533255,-2.696948 1.945457,-5.718656 4.916294,-5.993286 0.83037,-0.07676 0.94076,-0.05653 1.24347,0.227857 0.41206,0.387106 0.42014,0.533151 0.0297,0.537271 -0.48025,0.0051 -1.7772,0.589976 -2.39745,1.081217 -0.709971,0.562308 -1.524115,1.805842 -1.797117,2.744938 -0.436089,1.50009 -0.112157,3.236894 0.754158,4.043544 0.330409,0.30765 0.400018,0.33529 0.316317,0.1256 -0.05902,-0.14787 -0.196765,-0.60157 -0.306097,-1.00821 -0.523898,-1.9486 0.850755,-4.602196 2.904659,-5.607076 0.83446,-0.408262 2.06295,-0.565859 2.3773,-0.304964 0.17519,0.145392 0.10504,0.204484 -0.47635,0.401305 -0.9015,0.305191 -1.58042,0.868246 -2.11723,1.755912 -0.57108,0.944332 -0.70164,1.447557 -0.70255,2.707953 -0.001,1.46561 0.36243,2.37256 1.34447,3.3546 0.55851,0.5585 0.94103,0.81625 1.42324,0.959 0.36271,0.10737 0.68971,0.16415 0.72668,0.12619 0.037,-0.038 -0.0236,-0.0988 -0.13443,-0.13515 -0.11091,-0.0364 -0.51136,-0.38163 -0.88991,-0.76726 -0.9945,-1.0131 -1.30172,-1.90015 -1.235,-3.56594 0.0437,-1.090136 0.10657,-1.378368 0.42979,-1.969116 0.61379,-1.121797 1.94203,-2.198167 2.71255,-2.198167 0.5031,0 0.46299,0.159044 -0.1877,0.744067 -0.35302,0.317391 -0.81629,0.92642 -1.03482,1.3604 -0.36246,0.71982 -0.39579,0.904171 -0.3972,2.197246 -0.001,1.28468 0.0325,1.47793 0.37691,2.15085 0.62493,1.22089 1.50466,1.97099 2.57788,2.19802 l 0.40329,0.0853 -0.33607,-0.23053 c -1.67644,-1.14997 -2.3873,-3.33771 -1.75788,-5.409963 0.24778,-0.81576 0.41678,-1.095367 1.05994,-1.753692 0.65338,-0.66879 0.81915,-0.77261 1.13483,-0.710713 0.43658,0.08561 0.45954,0.187012 0.11325,0.500401 -0.92679,0.838732 -1.17829,3.121507 -0.5048,4.581817 0.6649,1.44167 2.02214,2.48259 3.24094,2.48561 l 0.5305,0.001 -0.69704,-0.34735 c -0.88333,-0.44018 -1.6853,-1.34707 -2.05286,-2.32145 -0.3982,-1.05554 -0.32128,-2.618055 0.17675,-3.590563 0.60625,-1.183841 1.11017,-1.339437 0.88262,-0.272539 -0.27181,1.274453 0.48725,3.298932 1.56938,4.185662 0.86292,0.7071 1.62269,0.99592 2.6225,0.99695 1.10532,10e-4 1.47324,-0.19121 0.5958,-0.31147 -1.41905,-0.1945 -2.87238,-1.41304 -3.41499,-2.86327 -0.37342,-0.998077 -0.34779,-2.533464 0.0423,-2.533464 0.16472,0 0.30437,0.164692 0.4167,0.491447 0.68365,1.988595 2.369,3.263077 4.30941,3.258827 0.71439,-0.002 1.07048,-0.0733 1.47871,-0.29796 l 0.53771,-0.29589 -0.63375,0.0831 c -1.03905,0.13622 -2.33865,-0.332916 -3.2633,-1.177998 -0.66192,-0.604994 -1.41287,-1.729224 -1.41287,-2.115222 0,-0.07141 0.12151,-0.168405 0.27003,-0.215546 0.20328,-0.06452 0.41966,0.06392 0.87521,0.519465 1.21465,1.214649 3.03219,1.721688 4.44872,1.241065 1.26283,-0.42848 1.2178,-0.550299 -0.20343,-0.550299 -1.10076,0 -1.37939,-0.04709 -1.89539,-0.320352 -0.68628,-0.363432 -1.61315,-1.062371 -1.61315,-1.216451 0,-0.0565 0.25569,-0.217768 0.56818,-0.358384 1.59231,-0.716505 3.17332,-2.054103 4.16508,-3.523837 0.60858,-0.901864 0.69403,-0.97922 0.82923,-0.750654 0.0964,0.16293 0.14787,1.078976 0.14281,2.540111 -0.009,2.588148 -0.16627,3.270683 -1.13145,4.909327 -1.59862,2.714045 -5.13205,4.907795 -8.98792,5.580205 -1.04137,0.1816 -4.03131,0.24225 -5.06313,0.1027 z m 2.34776,-22.07703 c 0.17403,-0.32516 0.17502,-0.412121 0.005,-0.412121 -0.0739,0 -0.13443,0.09074 -0.13443,0.201642 0,0.11095 -0.11902,0.201644 -0.26463,0.201644 -0.1715,0 -0.23925,-0.06619 -0.19248,-0.188047 0.11338,-0.295458 -0.23334,-0.421473 -0.42783,-0.155496 -0.26178,0.357997 -0.0856,0.612397 0.4241,0.612397 0.30869,0 0.49538,-0.0822 0.59054,-0.260019 z m 3.60962,-0.09929 c -0.0527,-0.445486 -0.37025,-0.575471 -0.47038,-0.192566 -0.0899,0.343935 -0.38279,0.368496 -0.56959,0.04777 -0.1128,-0.193656 -0.13775,-0.198408 -0.14111,-0.0269 -0.006,0.331923 0.28257,0.530993 0.77108,0.530993 0.41151,0 0.44868,-0.03257 0.41,-0.359312 z m -5.70746,-3.374048 c 0.0353,-0.05708 -0.16715,-0.447876 -0.44984,-0.868418 -0.80251,-1.193836 -0.85215,-2.401568 -0.0978,-2.379981 l 0.29774,0.0085 -0.28871,0.116488 c -0.15879,0.06407 -0.33035,0.18387 -0.38125,0.266225 -0.13393,0.216698 0.1831,0.541245 0.52871,0.541245 0.25364,0 0.28769,0.05886 0.23636,0.408589 -0.0866,0.590211 0.27373,0.936935 0.96754,0.930932 0.30277,-0.0026 0.68594,-0.08002 0.8515,-0.171989 l 0.30101,-0.167222 -0.45046,-0.668191 c -0.24775,-0.367506 -0.72968,-0.925284 -1.07097,-1.239512 -0.51358,-0.472861 -0.71288,-0.57132 -1.1565,-0.57132 -0.63929,0 -0.8143,0.238532 -0.8143,1.109859 0,0.7894 0.32098,1.686462 0.82011,2.291987 0.40656,0.493237 0.5839,0.591775 0.70688,0.392785 z m 7.05122,5.389099 c 0.097,-0.03883 0.21299,-0.03406 0.25766,0.01061 0.0447,0.04467 -0.0347,0.07644 -0.17644,0.0706 -0.1566,-0.0065 -0.18846,-0.0383 -0.0812,-0.08122 z m 1.23506,-0.36921 c 0,-0.03697 0.12099,-0.131964 0.26886,-0.2111 0.14787,-0.07914 0.26886,-0.113644 0.26886,-0.07668 0,0.03697 -0.12099,0.131964 -0.26886,0.211103 -0.14787,0.07914 -0.26886,0.113642 -0.26886,0.07667 z m 0.941,-0.681604 c 0.17365,-0.184838 0.34597,-0.336071 0.38294,-0.336071 0.037,0 -0.0749,0.151233 -0.24851,0.336071 -0.17365,0.184841 -0.34597,0.336074 -0.38293,0.336074 -0.037,0 0.0749,-0.151233 0.2485,-0.336074 z m 0.45766,-0.584155 c 0.0629,-0.101719 -0.0215,-0.155202 -0.24475,-0.155202 -0.31421,0 -0.33001,-0.02808 -0.2033,-0.361346 0.12189,-0.32058 0.0916,-0.397203 -0.26864,-0.679117 -0.22332,-0.174771 -0.59219,-0.707829 -0.81972,-1.184577 -0.40847,-0.855858 -0.7767,-1.180528 -0.61693,-0.543938 0.0627,0.249796 -0.10896,0.133959 -0.75839,-0.511786 -0.46168,-0.45906 -1.20238,-1.037683 -1.646,-1.285825 -0.44361,-0.248146 -0.83031,-0.470077 -0.85933,-0.49318 -0.029,-0.02311 0.0292,-0.140759 0.12935,-0.261448 0.15594,-0.187895 0.14534,-0.246332 -0.0738,-0.406535 -0.23614,-0.172675 -0.21885,-0.187095 0.22437,-0.187095 0.38705,0 0.54709,-0.08764 0.82473,-0.45165 0.18947,-0.248409 0.64689,-0.645701 1.0165,-0.882875 0.82978,-0.532473 1.40195,-0.524208 1.81106,0.02617 0.41099,0.552889 0.37314,1.959164 -0.0793,2.947475 l -0.33904,0.740564 0.54801,1.049917 c 0.34463,0.660291 0.68776,1.129175 0.9246,1.263483 0.24643,0.139742 0.34803,0.283265 0.29393,0.415205 -0.24376,0.594524 -0.23247,0.704818 0.0626,0.611174 0.20805,-0.06603 0.28854,-0.03501 0.28854,0.111192 0,0.111521 -0.0698,0.24593 -0.15519,0.298685 -0.0962,0.05943 -0.11871,0.03688 -0.0593,-0.05928 z m -1.84082,-4.784568 c 0.38859,-0.763537 0.55316,-2.036751 0.31966,-2.473063 -0.11545,-0.215715 -0.28106,-0.291131 -0.63932,-0.291131 -0.81817,0 -1.37085,0.449528 -2.3788,1.934821 -0.33276,0.490354 -0.34009,0.533416 -0.11928,0.701036 0.12939,0.09822 0.52121,0.180515 0.8707,0.182864 0.5315,0.0036 0.67135,-0.05053 0.85499,-0.330816 0.13758,-0.209973 0.18798,-0.460941 0.13497,-0.67214 -0.0727,-0.289559 -0.0392,-0.337052 0.23758,-0.337052 0.36492,0 0.65532,-0.2741 0.51544,-0.486496 -0.0512,-0.07778 -0.21412,-0.210016 -0.36199,-0.293868 -0.26078,-0.147883 -0.25967,-0.152584 0.0369,-0.156547 0.73985,-0.0099 0.62534,1.462032 -0.18962,2.437479 -0.24873,0.297712 -0.45224,0.616228 -0.45224,0.707814 0,0.601384 0.65992,0.08127 1.17098,-0.922901 z"
       id="path688-3" />
  </g>
</svg>
