<svg width="24" height="24" viewBox="0 0 24 24" fill="none" xmlns="http://www.w3.org/2000/svg">
<path d="M12 24C18.6274 24 24 18.6274 24 12C24 5.37258 18.6274 0 12 0C5.37258 0 0 5.37258 0 12C0 18.6274 5.37258 24 12 24Z" fill="#F5F5F5"/>
<path d="M23.5 12C23.5 18.3513 18.3513 23.5 12 23.5C5.64873 23.5 0.5 18.3513 0.5 12C0.5 5.64873 5.64873 0.5 12 0.5C18.3513 0.5 23.5 5.64873 23.5 12Z" stroke="black" stroke-opacity="0.097"/>
<g clip-path="url(#clip0)">
<path d="M16.7613 10.6143C17.773 11.9698 17.6383 13.4931 17.2751 14.4969C17.0121 15.1673 16.5681 15.7515 15.9927 16.1846C15.2288 16.7556 14.2433 17.0456 13.0614 17.0456H12.8445H12.2118L12.5293 15.6274H12.8502C12.9164 15.6274 12.9975 15.6274 13.0614 15.6274H13.7466C14.4348 15.6056 15.0875 15.3164 15.5661 14.8213C16.0446 14.3262 16.3114 13.664 16.3098 12.9754C16.3082 12.2868 16.0382 11.626 15.5573 11.1331C15.0764 10.6403 14.4224 10.3542 13.734 10.3357H11.9275H11.8476C11.7457 10.328 11.6508 10.281 11.5829 10.2046C11.515 10.1282 11.4794 10.0284 11.4837 9.9263C11.488 9.8242 11.5318 9.72776 11.6059 9.65735C11.68 9.58693 11.7785 9.54805 11.8807 9.54892H16.5032L17.0296 7.40439H14.3575L14.675 5.96899H18.5301L17.5024 10.6166L16.7613 10.6143Z" fill="#1D1D1B"/>
<path d="M7.9754 15.0714H3.98666C3.83736 15.0714 3.69416 15.012 3.58859 14.9065C3.48301 14.8009 3.4237 14.6577 3.4237 14.5084C3.4237 14.3591 3.48301 14.2159 3.58859 14.1103C3.69416 14.0047 3.83736 13.9454 3.98666 13.9454H7.9754C8.1247 13.9454 8.2679 14.0047 8.37347 14.1103C8.47905 14.2159 8.53836 14.3591 8.53836 14.5084C8.53836 14.6577 8.47905 14.8009 8.37347 14.9065C8.2679 15.012 8.1247 15.0714 7.9754 15.0714V15.0714ZM6.69188 9.70432C6.75756 9.70432 6.8226 9.69138 6.88328 9.66625C6.94396 9.64111 6.9991 9.60427 7.04554 9.55783C7.09199 9.51138 7.12883 9.45625 7.15397 9.39556C7.1791 9.33488 7.19204 9.26984 7.19204 9.20416V9.19274C7.19204 9.12706 7.1791 9.06202 7.15397 9.00134C7.12883 8.94065 7.09199 8.88552 7.04554 8.83907C6.9991 8.79263 6.94396 8.75579 6.88328 8.73065C6.8226 8.70552 6.75756 8.69258 6.69188 8.69258C6.6261 8.69243 6.56094 8.70526 6.50012 8.73032C6.43931 8.75539 6.38404 8.79221 6.33747 8.83867C6.29091 8.88513 6.25396 8.94032 6.22875 9.00107C6.20355 9.06183 6.19057 9.12696 6.19057 9.19274V9.20416C6.19072 9.26984 6.20381 9.33485 6.22908 9.39548C6.25436 9.4561 6.29132 9.51116 6.33787 9.55749C6.38442 9.60383 6.43965 9.64055 6.50039 9.66554C6.56113 9.69054 6.62619 9.70333 6.69188 9.70318V9.70432ZM11.48 15.6286H10.3255H5.35012C5.25392 15.6248 5.15793 15.6404 5.06791 15.6746C4.9779 15.7087 4.89571 15.7607 4.82629 15.8274C4.75686 15.8941 4.70162 15.9742 4.66389 16.0627C4.62616 16.1513 4.60671 16.2466 4.60671 16.3429C4.60671 16.4392 4.62616 16.5344 4.66389 16.623C4.70162 16.7116 4.75686 16.7916 4.82629 16.8584C4.89571 16.9251 4.9779 16.9771 5.06791 17.0112C5.15793 17.0454 5.25392 17.061 5.35012 17.0572H11.1614L11.48 15.6286ZM12.0875 13.3916H13.323C13.4374 13.3858 13.5451 13.3363 13.624 13.2533C13.7029 13.1703 13.7469 13.0602 13.7469 12.9457C13.7469 12.8312 13.7029 12.721 13.624 12.638C13.5451 12.555 13.4374 12.5055 13.323 12.4997H11.6273C10.8066 12.4853 10.1804 12.2215 9.7488 11.7084C9.31715 11.1953 9.18241 10.4854 9.34456 9.57871C9.7861 8.11933 10.8576 7.38965 12.5591 7.38965H13.2888L13.6313 5.9691H12.5591C10.2353 5.9691 8.6103 7.11102 7.98453 9.16648L7.94685 9.31949C7.93885 9.3686 7.92744 9.42683 7.91373 9.49307C7.84065 9.78311 7.61797 10.3369 6.98992 10.3369H6.44294C6.27364 10.3369 6.11128 10.4042 5.99157 10.5239C5.87186 10.6436 5.8046 10.806 5.8046 10.9753C5.8046 11.1446 5.87186 11.3069 5.99157 11.4267C6.11128 11.5464 6.27364 11.6136 6.44294 11.6136H7.45354H8.51096C8.62847 11.6136 8.74116 11.6603 8.82425 11.7434C8.90734 11.8265 8.95402 11.9392 8.95402 12.0567C8.95402 12.1742 8.90734 12.2869 8.82425 12.37C8.74116 12.4531 8.62847 12.4997 8.51096 12.4997H5.79318C5.67942 12.5055 5.57222 12.5548 5.49374 12.6373C5.41525 12.7199 5.37149 12.8295 5.37149 12.9434C5.37149 13.0573 5.41525 13.1669 5.49374 13.2494C5.57222 13.332 5.67942 13.3812 5.79318 13.387H6.4064H12.0875V13.3916ZM3.76171 13.3836C3.84719 13.3752 3.93016 13.3499 4.00587 13.3094C4.08157 13.2688 4.14851 13.2136 4.20284 13.1471C4.25717 13.0806 4.29781 13.004 4.32244 12.9217C4.34708 12.8394 4.35521 12.753 4.34637 12.6676C4.32125 12.413 4.30754 12.1526 4.30754 11.8945C4.30996 9.88309 5.11007 7.95473 6.53237 6.53243C7.95467 5.11013 9.88303 4.31002 11.8945 4.3076C12.9568 4.30495 14.0076 4.52758 14.9777 4.96078C15.0567 4.99978 15.1427 5.02242 15.2307 5.02736C15.3186 5.03229 15.4067 5.0194 15.4896 4.98948C15.5724 4.95956 15.6484 4.91321 15.7129 4.85321C15.7774 4.79322 15.8291 4.72081 15.865 4.64034C15.9008 4.55986 15.9201 4.47297 15.9215 4.38489C15.923 4.2968 15.9066 4.20932 15.8735 4.12771C15.8403 4.04609 15.791 3.97201 15.7285 3.90991C15.666 3.84782 15.5916 3.79898 15.5098 3.76633C14.0853 3.13358 12.5195 2.88616 10.9693 3.04884C9.41902 3.21151 7.93873 3.77857 6.67656 4.69325C5.4144 5.60792 4.41467 6.83812 3.77746 8.26066C3.14025 9.68321 2.88791 11.2482 3.04572 12.7989C3.06079 12.9609 3.13574 13.1114 3.25591 13.221C3.37608 13.3306 3.53282 13.3914 3.69547 13.3916L3.76171 13.3836Z" fill="url(#paint0_linear)"/>
<path d="M3.76171 13.3836C3.84719 13.3752 3.93016 13.3499 4.00587 13.3094C4.08157 13.2688 4.14851 13.2136 4.20284 13.1471C4.25717 13.0806 4.29781 13.004 4.32244 12.9217C4.34708 12.8394 4.35521 12.753 4.34637 12.6676C4.32125 12.413 4.30754 12.1526 4.30754 11.8945C4.30996 9.88309 5.11007 7.95473 6.53237 6.53243C7.95467 5.11013 9.88303 4.31002 11.8945 4.3076C12.9568 4.30495 14.0076 4.52758 14.9777 4.96078C15.0567 4.99978 15.1427 5.02242 15.2307 5.02736C15.3186 5.03229 15.4067 5.0194 15.4896 4.98948C15.5724 4.95956 15.6484 4.91321 15.7129 4.85321C15.7774 4.79322 15.8291 4.72081 15.865 4.64034C15.9008 4.55986 15.9201 4.47297 15.9215 4.38489C15.923 4.2968 15.9066 4.20932 15.8735 4.12771C15.8403 4.04609 15.791 3.97201 15.7285 3.90991C15.666 3.84782 15.5916 3.79898 15.5098 3.76633C14.0853 3.13358 12.5195 2.88616 10.9693 3.04884C9.41902 3.21151 7.93873 3.77857 6.67656 4.69325C5.4144 5.60792 4.41467 6.83812 3.77746 8.26066C3.14025 9.68321 2.88791 11.2482 3.04572 12.7989C3.06079 12.9609 3.13574 13.1114 3.25591 13.221C3.37608 13.3306 3.53282 13.3914 3.69547 13.3916L3.76171 13.3836Z" fill="url(#paint1_linear)"/>
<path d="M20.79 11.8943C20.7927 10.5327 20.48 9.18897 19.8765 7.96842C19.7998 7.8129 19.6646 7.69419 19.5004 7.63841C19.3363 7.58262 19.1567 7.59432 19.0012 7.67095C18.8457 7.74757 18.727 7.88283 18.6712 8.04698C18.6154 8.21113 18.6271 8.39071 18.7037 8.54623C19.2175 9.58737 19.4833 10.7333 19.4802 11.8943C19.4797 13.3431 19.0645 14.7614 18.2837 15.9817C17.5028 17.202 16.3889 18.1733 15.0737 18.7807C13.7584 19.3881 12.2967 19.6063 10.8614 19.4096C9.42611 19.2128 8.07712 18.6092 6.97389 17.6702C6.84199 17.5577 6.67081 17.5022 6.49799 17.5159C6.32517 17.5296 6.16487 17.6114 6.05236 17.7433C5.93985 17.8752 5.88434 18.0463 5.89804 18.2192C5.91175 18.392 5.99355 18.5523 6.12544 18.6648C7.4185 19.7671 9.00024 20.4759 10.6835 20.7075C12.3668 20.939 14.0812 20.6836 15.6238 19.9713C17.1665 19.2591 18.4729 18.1199 19.3884 16.6885C20.3039 15.2571 20.7903 13.5935 20.79 11.8943V11.8943Z" fill="#1D1D1B"/>
</g>
<defs>
<linearGradient id="paint0_linear" x1="3.00004" y1="10.0298" x2="15.8992" y2="10.0298" gradientUnits="userSpaceOnUse">
<stop offset="0.31" stop-color="#F39200"/>
<stop offset="0.51" stop-color="#EF7B09"/>
<stop offset="0.82" stop-color="#EB5B16"/>
<stop offset="1" stop-color="#E94F1B"/>
</linearGradient>
<linearGradient id="paint1_linear" x1="3.36089" y1="13.3117" x2="13.5697" y2="1.97466" gradientUnits="userSpaceOnUse">
<stop stop-color="#F39200"/>
<stop offset="0.11" stop-color="#F6A72D"/>
<stop offset="0.23" stop-color="#F9BA55"/>
<stop offset="0.34" stop-color="#FBC772"/>
<stop offset="0.43" stop-color="#FDCF84"/>
<stop offset="0.5" stop-color="#FDD28A"/>
<stop offset="0.58" stop-color="#FBC27D"/>
<stop offset="0.74" stop-color="#F49A5B"/>
<stop offset="0.97" stop-color="#EB5823"/>
<stop offset="1" stop-color="#E94E1B"/>
</linearGradient>
<clipPath id="clip0">
<rect width="17.79" height="17.79" fill="white" transform="translate(3 3)"/>
</clipPath>
</defs>
</svg>
