<svg width="24" height="24" viewBox="0 0 24 24" fill="none" xmlns="http://www.w3.org/2000/svg">
<path d="M12 24C18.6274 24 24 18.6274 24 12C24 5.37258 18.6274 0 12 0C5.37258 0 0 5.37258 0 12C0 18.6274 5.37258 24 12 24Z" fill="#0630FF"/>
<path d="M23.5 12C23.5 18.3513 18.3513 23.5 12 23.5C5.64873 23.5 0.5 18.3513 0.5 12C0.5 5.64873 5.64873 0.5 12 0.5C18.3513 0.5 23.5 5.64873 23.5 12Z" stroke="black" stroke-opacity="0.097"/>
<path d="M18 9.42938V14.2919C18.0004 14.6061 17.9179 14.9149 17.761 15.1871C17.604 15.4593 17.3781 15.6853 17.106 15.8425L11.9988 18.7885L6.89401 15.8425C6.62189 15.6853 6.39598 15.4593 6.23903 15.1871C6.08208 14.9149 5.99964 14.6061 6.00001 14.2919V9.42938C5.99903 9.11438 6.08117 8.80471 6.23814 8.53161C6.3951 8.25852 6.62134 8.03166 6.89401 7.87396L11.1048 5.45118C11.3769 5.2938 11.6857 5.21094 12 5.21094C12.3143 5.21094 12.6231 5.2938 12.8952 5.45118L17.1036 7.87396C17.3767 8.03136 17.6034 8.25808 17.7608 8.53119C17.9182 8.80431 18.0007 9.11415 18 9.42938Z" fill="white"/>
</svg>
