<svg width="40" height="40" viewBox="0 0 40 40" fill="none" xmlns="http://www.w3.org/2000/svg"><rect fill="#1B314F" width="40" height="40" rx="12"/><g transform="translate(4 4)"><circle cx="16" cy="16" r="14" fill="#fff"/><svg width="32" height="32" viewBox="0 0 32 32" xmlns="http://www.w3.org/2000/svg"><path fill-rule="evenodd" clip-rule="evenodd" d="M0 16C0 7.163 7.163 0 16 0s16 7.163 16 16-7.163 16-16 16S0 24.837 0 16z" fill="#1B314F"/><path fill-rule="evenodd" clip-rule="evenodd" d="M21.202 8.39s.852.034 1.736.135c-1.993-1.554-3.88-2.008-5.412-2.008-2.045 0-3.451.81-3.615.905l-.012.007.665-1.048s-2.655-.255-3.592 2.532c-.24-.59-.458-1.453-.458-1.453s-1.38 1.201-.733 3.192C8.197 10.08 5.935 9.284 5.848 9.27c-.12-.017-.155.035-.155.035s-.035.049.067.136c.19.147 3.765 2.766 4.55 3.273-.17.607-.17.894 0 1.18.239.388.253.59.221.877-.035.287-.341 2.77-.408 3.073-.027.124-.161.375-.309.651-.216.405-.46.863-.441 1.054.035.321.475 1.687.87 1.84.288.102 1.003.322 1.479.322.169 0 .324-.035.39-.102.29-.251.374-.303.579-.303h.05c.038 0 .08.003.126.007.055.005.114.01.18.01.27 0 .63-.052.884-.287.175-.173.41-.377.633-.57.25-.216.484-.418.592-.544.257-.32.391-.758.324-1.198-.052-.405.17-.76.426-1.114.324-.422.92-1.18.92-1.18 1.175.873 1.908 2.207 1.908 3.692 0 2.633-2.314 4.76-5.174 4.76-.444 0-.867-.049-1.293-.15 1.31.454 2.417.607 3.321.607 1.923 0 2.944-.691 2.944-.691s-.356.457-.936.978h.017c3.184-.44 4.733-3.038 4.733-3.038s-.12.845-.271 1.418c4.134-3.083 3.55-6.922 3.503-7.225l-.002-.016c.017.024.125.154.256.312.142.171.31.375.424.516.683-6.957-5.054-9.203-5.054-9.203zm-6.519 11.109a6.458 6.458 0 01-.437.413l-.123.11c-.066.061-.135.121-.203.181-.14.124-.278.246-.392.36-.067.067-.204.102-.409.102h-.51c.257-.339 1.004-1.114 1.26-1.282.307-.203.461-.405.272-.758-.187-.356-.68-.27-.68-.27s.289-.118.546-.118c-.324-.084-.733 0-.92.185-.136.124-.166.458-.195.791a4.61 4.61 0 01-.058.474c-.077.395-.318.613-.688.947l-.13.118c-.239.22-.408.286-.545.286a5.853 5.853 0 01-.87-.22c-.169-.22-.426-.946-.493-1.25.036-.122.154-.343.255-.533.038-.07.073-.138.101-.193l.03-.056c.186-.353.296-.562.329-.754.067-.287.289-2.06.373-2.802.222.287.529.761.459 1.065.493-.691.137-1.369-.035-1.638-.152-.269-.356-.81-.187-1.383.17-.573.782-2.161.782-2.161s.204.355.493.286c.289-.067 2.62-3.545 2.62-3.545s.63 1.366-.035 2.364c-.68.996-1.345 1.181-1.345 1.181s.937.168 1.803-.457c.356.827.698 1.687.715 1.806l-.122.287c-.213.502-.626 1.475-.677 1.553-.035.035-.271.101-.444.136-.289.084-.458.136-.528.185-.12.101-.665 1.586-.919 2.312a1.413 1.413 0 00-.835.59c.12-.083.494-.135.768-.167.24-.017.969.37 1.158 1.097v.034c.038.267-.046.521-.184.724zm-1.599.202c.122-.172.137-.438.147-.601.002-.045.004-.082.008-.108.018-.12.05-.338.187-.37.137-.035.46.017.46.252 0 .15-.111.22-.236.3a1.203 1.203 0 00-.172.122c-.122.116-.361.37-.394.405zm6.79-3.226c.17-.86.187-1.603.138-2.211a6.172 6.172 0 011.19 3.038c.018.136.152.27.289.405.12.102.257.238.257.322 0 .387-.035.775-.102 1.166-.018.05-.17.136-.29.203-.168.083-.323.167-.355.303a6.29 6.29 0 01-2.247 3.259c1.581-1.638 2.346-4.34 1.12-6.485zm-1.07 6.635c1.106-.845 1.958-2.025 2.331-3.36.014-.04.116-.104.21-.162l.061-.04c.17-.084.342-.185.374-.321.067-.388.102-.793.102-1.198 0-.15-.155-.304-.306-.455a2.085 2.085 0 00-.073-.08c-.073-.08-.15-.161-.15-.224a6.59 6.59 0 00-1.394-3.36c-.336-1.993-1.658-2.63-1.733-2.666l-.003-.001.002.003c.06.087.908 1.336.304 2.798-.566 1.349-1.927 1.297-2.298 1.283a.845.845 0 00-.086-.001c-.137 0-.662.674-1.327 1.924-.085-.034-.444-.118-.852-.049.306-.845.767-2.043.852-2.144.03-.03.214-.081.374-.126l.087-.025c.324-.084.475-.136.528-.202.035-.052.204-.44.373-.845.155 0 .546-.035.578-.052.035-.035.359-.86.359-.961 0-.084-.662-1.714-.917-2.342l-.002-.005c.12-.136.24-.304.356-.49 3.49.374 6.215 3.311 6.215 6.87 0 2.735-1.616 5.117-3.965 6.231zm-7.712-3.985l.137-.674s-.563.978-.613 1.114c-.053.153.035.423.254.405.222-.017.493-.338.493-.573 0-.304-.271-.272-.271-.272zm3.183-5.13c.324-.371.155-1.063-.444-1.181.155-.353.374-1.062.374-1.062s-1.736 2.7-1.888 2.752c-.155.052-.306-.541-.306-.541-.324 1.232.545 1.4.647 1.012.476-.121 1.293-.628 1.617-.98zm-1.482.656l.884-1.502s.51.255.254.66c-.321.472-1.138.842-1.138.842zm-1.751-2.937c.102.084.204.237.085.457-.068.119-.17.102-.324.035-.205-.101-1.43-.81-2.536-1.537 1.26.44 2.536.912 2.74 1.013 0 0 .017.018.035.032zm2.518-4.743c-1.532.912-1.226 3.088-1.226 3.088-1.394-2.102.868-2.953 1.192-3.075a.963.963 0 00.034-.013zm7.42.894c-2.535-.471-4.17-.237-5.345.203-.035-.136-.155-.405-.257-.625-.353.422-.73.929-.966 1.25-.648.44-.919.862-.919.862.373-1.267 1.465-2.21 2.792-2.448a6.995 6.995 0 011.226-.101 8.067 8.067 0 013.47.86zm.546 3.007c2.399 1.568 3.487 3.308 4.254 5.35-.032-2.161-.764-4.016-2.176-5.5l-.035-.035c-1.243-1.303-3.064-1.91-4.87-1.653-.683.084-1.363.22-1.891.388-.085.015-.17.032-.254.067h.035c.137-.018 2.623-.136 4.937 1.383zm1.328 11.766a9.9 9.9 0 00.884-1.03c1.465-2.026 1.26-4.812-.423-6.667l-.03-.033c-.129-.142-.27-.297-.414-.44.085.151 2.177 3.983-.017 8.17zM10.307 8.62c-.059.216-.654 2.421 1.295 2.486-1.158-.691-1.293-2.48-1.293-2.497l-.002.011z" fill="#fff"/></svg></g></svg>