<svg width="24" height="24" viewBox="0 0 24 24" fill="none" xmlns="http://www.w3.org/2000/svg">
<path d="M12 24C18.6274 24 24 18.6274 24 12C24 5.37258 18.6274 0 12 0C5.37258 0 0 5.37258 0 12C0 18.6274 5.37258 24 12 24Z" fill="#111111"/>
<path fill-rule="evenodd" clip-rule="evenodd" d="M17.7739 12.3122C17.7729 12.3334 17.7725 12.355 17.7713 12.376C17.7543 12.4382 17.7009 12.4842 17.6341 12.4864C17.611 12.4816 17.5875 12.4764 17.5641 12.4712C17.4049 12.4362 17.2427 12.3982 17.0735 12.3534C14.6827 11.7218 13.2989 12.0928 12.8295 12.2726C12.8257 12.2742 12.8215 12.2752 12.8179 12.277C12.7299 12.3158 12.6639 12.395 12.6445 12.4914V12.6114V13.8478V13.9676C12.6721 14.1046 12.7933 14.2078 12.9383 14.2078C12.9583 14.2078 12.9779 14.2056 12.9965 14.2018C13.0003 14.2008 13.0035 14.1998 13.0073 14.199C13.7139 14.014 15.3571 13.7126 17.0735 14.3078L17.1389 14.33L17.1503 14.3338C17.1534 14.3348 17.1567 14.3358 17.1599 14.3368C17.2103 14.361 17.2457 14.4116 17.2457 14.4712C17.2457 14.4808 17.2421 14.489 17.2405 14.498C17.2287 14.5234 17.2165 14.5484 17.2043 14.5736C16.2407 16.5986 14.1791 18 11.7871 18C8.4735 18 5.78711 15.3138 5.78711 12C5.78711 8.6862 8.4735 6 11.7871 6C14.1297 6 16.1565 7.3438 17.1447 9.30158C17.1561 9.31701 17.1643 9.334 17.1693 9.35324C17.1723 9.36544 17.1767 9.37697 17.1767 9.39044C17.1767 9.47315 17.1097 9.54044 17.0267 9.54044C17.0129 9.54044 17.0005 9.53585 16.9877 9.53243C16.9807 9.53038 16.9731 9.53018 16.9663 9.52696C14.703 8.9504 13.3603 9.27804 12.8651 9.4588C12.8413 9.46759 12.8211 9.4754 12.8015 9.48341C12.7219 9.52462 12.6625 9.59883 12.6445 9.68897V9.80878V11.0554V11.1752C12.6721 11.3122 12.7933 11.4154 12.9383 11.4154C12.9427 11.4154 12.9467 11.4142 12.9511 11.414C12.9883 11.4038 13.0287 11.3932 13.0721 11.3826C13.8105 11.1972 15.4071 10.93 17.0735 11.5078L17.1503 11.5338C17.3285 11.5928 17.5053 11.6406 17.6807 11.6816C17.6861 11.6832 17.6919 11.6834 17.6971 11.6856C17.7427 11.7056 17.7739 11.7484 17.7823 11.799C17.7829 11.8132 17.7831 11.8274 17.7835 11.8416C17.7849 11.8944 17.7871 11.947 17.7871 12C17.7871 12.1052 17.7793 12.2084 17.7739 12.3122ZM21.189 9.68955C21.169 9.68955 21.1493 9.6916 21.1301 9.69541C21.1111 9.70137 21.0921 9.70742 21.0713 9.71357C20.7652 9.80341 20.2873 9.89823 19.6328 9.90517C19.6248 9.90536 19.6168 9.90536 19.6086 9.90556C19.554 9.90097 19.5084 9.86904 19.4859 9.82216C19.4813 9.81259 19.4792 9.80214 19.4771 9.7916C18.4701 6.28039 15.1255 3.7572 11.2346 4.01859C7.28746 4.28379 4.08926 7.46799 3.80827 11.414C3.47467 16.0972 7.17527 20 11.7872 20C15.2351 20 18.1719 17.8186 19.2964 14.7612C19.2995 14.7518 19.3023 14.7428 19.3067 14.7342C19.3298 14.6899 19.3737 14.6594 19.4263 14.655C19.433 14.6548 19.4399 14.6544 19.4468 14.6542C20.2526 14.6306 20.9011 14.4821 21.2369 14.387C21.2651 14.379 21.2901 14.3716 21.3138 14.3646C21.4129 14.3197 21.4827 14.223 21.4894 14.1088V14.0722V12.845V12.7404C21.4647 12.5978 21.3411 12.489 21.1913 12.489C21.1713 12.489 21.152 12.4914 21.1333 12.4948C21.1165 12.5 21.0972 12.5056 21.0791 12.511C20.8221 12.5874 20.4421 12.668 19.9343 12.6962C19.9242 12.6968 19.9139 12.6972 19.9038 12.6976C19.8282 12.6914 19.7691 12.6309 19.7666 12.5544C19.7668 12.55 19.7673 12.5456 19.7675 12.5412C19.7792 12.3622 19.7872 12.1822 19.7872 12C19.7872 11.9946 19.787 11.9892 19.787 11.9836C19.787 11.975 19.7868 11.9668 19.7868 11.9582C19.792 11.8954 19.8353 11.8452 19.8943 11.8284C19.9129 11.8268 19.9317 11.8252 19.95 11.8236C20.5141 11.7692 20.9642 11.6638 21.2283 11.5894C21.2629 11.5796 21.2936 11.5706 21.3216 11.5622C21.4144 11.5172 21.4797 11.4264 21.4894 11.319V11.2648V9.99755V9.98339C21.4859 9.8206 21.3531 9.68955 21.189 9.68955Z" fill="white"/>
<path d="M23.5 12C23.5 18.3513 18.3513 23.5 12 23.5C5.64873 23.5 0.5 18.3513 0.5 12C0.5 5.64873 5.64873 0.5 12 0.5C18.3513 0.5 23.5 5.64873 23.5 12Z" stroke="white" stroke-opacity="0.3"/>
</svg>
