<?xml version="1.0" standalone="no"?>
<!DOCTYPE svg PUBLIC "-//W3C//DTD SVG 1.0//EN" "http://www.w3.org/TR/2001/REC-SVG-20010904/DTD/svg10.dtd">
<svg xmlns="http://www.w3.org/2000/svg" xmlns:xlink="http://www.w3.org/1999/xlink" id="body_1" width="96" height="96">

<g transform="matrix(0.16126892 0 0 0.16126892 -0 -19.75375)">
    <path d="M373.428 640.919C 374.359 640.204 374.534 638.87 373.82 637.939C 373.586 637.63403 373.273 637.398 372.91602 637.257L372.91602 637.257L368.40002 635.53C 369.03503 634.94 369.73502 634.42505 370.48703 633.99304C 388.00003 626.5361 403.82303 615.93005 420.25403 606.55707C 423.61203 604.6611 430.86002 601.85205 426.85703 592.1191C 421.26 578.4391 426.09802 571.07806 437.90002 557.6811C 448.278 545.91907 458.48602 533.6241 466.359 520.1541C 473 508.7691 473.019 494.6911 474.385 481.54312C 477.648 449.9731 469.737 419.78613 458.333 391.21313C 446.07602 360.49612 422.64502 337.48114 395.72202 318.56512C 386.67203 312.20914 374.85202 313.0631 364.549 309.76114C 353.28702 305.86414 341.62 303.25513 329.772 301.98215C 320.646 301.29913 313.87302 296.76416 307.365 291.43314C 303.00198 287.82812 299.416 287.77115 295.261 292.17313C 288.658 299.15512 282.473 304.67612 270.59598 304.18314C 259.07898 303.70914 248.83398 313.10013 238.66397 319.36212C 229.84196 324.8261 221.49297 331.0501 212.57597 336.4381C 204.22697 341.3901 200.24298 348.92212 196.69498 357.93512C 196.27098 359.0291 196.81497 360.26013 197.90997 360.6841C 198.32097 360.8431 198.77197 360.87112 199.19997 360.76212C 205.06197 359.26312 209.33197 355.81012 213.97997 353.3431C 240.33397 339.3031 268.05298 336.4761 296.92996 342.96512C 301.14197 343.91412 301.17896 344.86212 298.18198 348.6571C 291.27597 357.5551 281.35297 364.9361 272.39798 367.7441C 268.33698 369.0151 266.554 371.06412 270.59497 375.3331C 272.15997 376.9241 272.45697 379.3711 271.31598 381.2911C 269.41898 384.1181 267.52197 380.6271 265.434 380.64612C 241.547 380.8351 217.64099 380.94913 195.234 390.81512C 191.978 392.17612 189.77399 395.26212 189.543 398.78412C 188.645 405.67413 186.846 412.4171 184.192 418.83813C 183.725 420.21613 183.457 421.65314 183.395 423.10812C 192.274 425.19412 187.19 431.30313 186.905 435.76212C 186.772 438.19012 187.171 438.98712 189.618 439.36713C 196.164 440.35312 195.101 445.34412 194.305 449.63113C 193.29999 455.15213 190.359 453.42615 186.71599 451.52713C 183.58499 450.00912 183.54698 453.29312 183.14899 455.32214L183.14899 455.32214L180.66399 468.26114C 180.30399 470.15915 180.03798 472.17114 177.41998 472.05615C 168.74898 471.44916 169.22398 477.27515 169.24199 483.17514C 169.07098 486.62213 168.646 490.05414 167.971 493.43915C 167.808 494.33014 167.55399 495.20114 167.21199 496.03915C 156.81499 493.51614 160.15298 502.51016 158.465 506.81616C 156.07399 512.9432 154.481 519.3752 152.773 525.7892C 151.73799 528.7662 151.09999 531.8652 150.877 535.0102C 150.877 542.0492 149.074 546.7742 140.707 545.9572C 139.192 546.03723 137.755 546.6482 136.646 547.6842C 137.823 554.6102 130.708 556.8482 129.17 560.5862C 126.571 566.99817 126.798996 573.4692 117.994995 575.00616C 116.421 575.2892 118.43199 578.7992 118.963 580.8672C 119.494 582.9352 120.613 584.6622 118.963 586.1622C 116.895 588.05817 114.864 586.5782 112.948 585.47815C 111.811 584.92316 110.736 584.24817 109.742 583.4661C 102.815994 577.2431 96.232994 573.6951 88.871994 583.37213C 86.145996 586.66315 81.71999 588.01514 77.619995 586.80615C 61.075996 582.2142 45.934998 575.0051 36.429996 559.93915C 27.588997 545.95715 19.031996 531.72614 11.347996 517.0991C 3.4939957 502.09113 -2.3130045 485.3001 1.1209955 468.81213C 7.0209956 439.80212 2.5819955 410.01514 9.962996 381.27014C 12.618996 370.91113 6.793996 360.39914 5.5419955 349.69916C 3.1129956 329.20816 1.4249954 309.02115 5.8839955 288.54916C 9.013996 274.14917 15.009996 261.15216 21.479996 248.17416C 23.661995 243.77217 26.431995 244.38016 29.770996 245.87816C 34.608997 248.07916 31.876995 250.24216 29.979996 252.91716C 27.816996 255.91516 25.995996 259.21616 29.504995 262.93515C 30.548996 264.05414 30.490995 266.48315 30.396996 268.28516C 30.245996 271.45316 26.830996 276.61417 30.643995 277.22217C 34.456997 277.82916 40.129997 279.51718 44.398994 275.76117C 50.958996 270.32617 57.197994 264.51617 63.086994 258.36316C 94.867 222.59915 131.067 191.76816 168.27399 161.96115C 181.95398 150.97615 198.78299 148.83215 214.73999 144.52515C 241.758 137.25815 268.927 130.65614 296.513 125.666145C 310.591 123.124146 323.474 127.14615 336.698 129.21414C 384.13098 136.65215 428.642 154.06914 470.63 176.24915C 500.986 192.26215 527.454 214.80215 542.215 247.62515C 559.291 285.57117 578.52905 322.68317 587.56104 363.62616C 596.43506 404.78815 597.721 447.22516 591.356 488.84814C 587.56104 514.65314 581.62305 539.6022 567.468 561.9321C 559.096 574.57513 549.306 586.2171 538.288 596.63513C 519.01105 615.60815 503.30103 638.14716 481.48203 654.7111C 463.37302 668.13513 443.2 678.5221 421.75403 685.4671C 415.29303 687.5901 409.13803 690.5491 403.44504 694.2701C 377.79303 711.34607 349.14304 718.3661 318.59705 716.9241C 310.57104 716.54504 302.35605 717.9491 294.67206 710.89105C 290.46005 707.09607 280.76505 708.7861 273.51706 708.63306C 254.90506 708.19507 236.25406 709.543 217.71706 706.73505C 213.37206 706.09 207.88905 706.86804 208.74205 700.22705C 209.63405 693.26404 214.90906 697.43805 218.22905 697.53406C 220.33405 697.53406 223.35104 700.85406 223.65504 696.22504C 223.82605 693.83405 226.00804 689.60205 220.75305 688.88104C 218.85605 688.6351 217.07104 688.00806 215.23206 687.59204C 210.48906 686.5101 211.02005 682.27905 211.43706 679.41406C 211.98805 675.31604 215.82005 677.15607 218.30505 677.51807C 220.01305 677.7071 221.53105 679.22504 223.23906 679.64307C 227.83006 680.7621 232.99106 679.81305 234.45206 675.7151C 235.55305 672.6211 230.50606 670.7051 227.43106 669.4731C 220.25906 666.5511 213.84706 662.7001 210.24207 655.5841C 208.51506 652.1881 202.27307 649.7401 207.09306 644.5801C 211.91206 639.4181 216.25706 640.9551 220.37407 646.34406C 223.01106 649.85406 225.70506 654.4081 231.75807 652.71906C 231.70207 651.75604 231.47107 650.81104 231.07507 649.93005C 229.04507 647.21704 224.56708 644.61707 226.31207 641.46704C 228.41208 638.27203 232.70508 637.38104 235.90207 639.481C 236.02907 639.563 236.15207 639.651 236.27307 639.741C 238.17007 640.97504 239.59308 638.98303 240.88307 637.559C 246.57507 631.356 250.36908 631.508 255.17007 638.034C 263.23306 648.90497 272.9091 656.761 287.42407 657.007C 291.15607 657.13605 294.78607 658.263 297.93506 660.271C 304.35406 664.445 312.35306 665.386 319.56406 662.814C 324.70505 661.025 330.23605 660.677 335.55905 661.80804C 342.25604 663.0231 353.18506 659.91205 356.77106 654.73206C 361.171 648.394 367.281 645.568 373.428 640.919z" stroke="none" fill="#C62034" fill-rule="nonzero" />
    <path d="M178.347 530.476C 173.622 530.628 169.98 530.476 170.53 525.412C 171.043 520.705 173.244 517.045 178.518 516.74C 183.166 516.455 186.658 518.277 186.449 523.513C 186.221 529.205 181.743 530.06 178.347 530.476z" stroke="none" fill="#C62034" fill-rule="nonzero" />
    <path d="M202.861 493.46C 203.209 493.86798 203.368 494.40698 203.297 494.94C 202.804 498.563 200.129 499.323 197.606 499.549C 193.811 499.89102 190.585 498.449 190.149 494.143C 189.688 491.776 191.232 489.48502 193.597 489.02402C 193.862 488.97302 194.13 488.946 194.399 488.94403C 197.796 488.941 200.971 490.636 202.861 493.46z" stroke="none" fill="#C62034" fill-rule="nonzero" />
    <path d="M199.806 465.703C 203.296 465.324 205.175 466.596 204.89 469.764C 204.606 472.932 203.467 475.19 199.863 475.342C 196.979 475.475 194.81601 474.299 194.436 471.547C 193.848 467.296 197.206 466.519 199.806 465.703z" stroke="none" fill="#C62034" fill-rule="nonzero" />
</g>
</svg>