<svg width="24" height="24" viewBox="0 0 24 24" fill="none" xmlns="http://www.w3.org/2000/svg">
<path d="M12 24C18.6274 24 24 18.6274 24 12C24 5.37258 18.6274 0 12 0C5.37258 0 0 5.37258 0 12C0 18.6274 5.37258 24 12 24Z" fill="#E0E0E0"/>
<path fill-rule="evenodd" clip-rule="evenodd" d="M7.29234 16.5841C7.03875 16.5163 6.94289 16.4483 6.82103 16.2486C6.78309 16.1864 6.74258 16.1113 6.70196 16.0261C6.61229 15.8379 6.52202 15.6002 6.45722 15.3415C6.41562 15.1754 6.38445 15.0006 6.35909 14.821C6.3271 14.5942 6.30441 14.3596 6.2818 14.1249C6.23729 14.1124 6.26398 14.0841 6.34105 14.0159C6.46289 13.9081 6.71057 13.7003 6.8164 13.4947C6.92227 13.2889 6.88636 13.0851 6.66863 12.6218C6.45098 12.1585 6.05152 11.4356 5.84578 10.9462C5.6401 10.457 5.62811 10.2013 5.69801 9.94167C5.7679 9.68202 5.91974 9.41852 6.31912 9.02897C6.71861 8.63958 7.36566 8.12413 8.16449 7.585L8.19695 7.56322L8.21784 7.61802C8.4525 8.2361 8.48844 8.30601 8.61224 8.33993C8.66322 8.35386 8.72907 8.36186 8.80295 8.36171C8.74273 8.30646 8.68785 8.19109 8.57112 7.9218C8.39603 7.5179 8.08164 6.76784 7.89099 6.07245C7.72418 5.46398 7.65209 4.89729 7.65326 4.40332C4.88089 5.91618 3 8.85791 3 12.2386C3 16.2995 5.71359 19.7266 9.42637 20.8055C9.43816 20.2753 9.44997 19.745 9.51882 19.2392C9.56453 18.9035 9.63534 18.5785 9.71617 18.2702C9.75708 18.114 9.80057 17.962 9.84473 17.8149C9.96368 17.4185 10.0871 17.0585 10.2108 16.7019C9.69934 16.7721 9.03525 16.7797 8.4986 16.7499C7.95741 16.72 7.54599 16.6521 7.29234 16.5841Z" fill="#FF3369"/>
<path fill-rule="evenodd" clip-rule="evenodd" d="M9.38297 3.73183C9.81048 3.58105 10.628 3.35222 11.6588 3.3266C12.6896 3.30112 13.9337 3.47887 15.1075 3.93431C16.2814 4.38978 17.3848 5.12293 17.9986 5.58195C18.6125 6.04111 18.7367 6.22626 18.7809 6.33467C18.8254 6.44295 18.79 6.4745 18.502 6.72259C18.214 6.97068 17.6735 7.43531 17.2722 7.6369C16.871 7.83835 16.6088 7.77657 16.4355 7.68919C16.2622 7.60179 16.1777 7.48864 15.9213 7.14161C15.665 6.79472 15.2367 6.21396 14.9953 5.71259C14.7538 5.21136 14.6993 4.78939 14.5875 4.60232C14.4757 4.41511 14.3065 4.46293 13.5394 4.80627C12.7725 5.14974 11.4075 5.78901 10.6748 6.14702C9.94205 6.505 9.8415 6.58189 9.70045 6.40311C9.55938 6.22433 9.37776 5.78991 9.2344 5.35148C9.0909 4.91306 8.98573 4.47065 8.95183 4.21308C8.91799 3.95549 8.95554 3.88278 9.38297 3.73183Z" fill="#FF3369"/>
<path fill-rule="evenodd" clip-rule="evenodd" d="M19.0119 8.96655C19.0518 9.18267 19.1144 9.5965 18.917 10.0388C18.7195 10.481 18.262 10.9516 18.0157 11.2006C17.7691 11.4496 17.7337 11.477 17.7848 11.6563C17.8357 11.8357 17.9734 12.1672 17.8951 12.4477C17.8171 12.7284 17.5234 12.958 17.3881 13.0895C17.2531 13.2209 17.2762 13.2542 17.349 13.3505C17.4218 13.4466 17.5441 13.6058 17.3881 13.7863C17.2322 13.9668 16.7982 14.1686 16.3807 14.3352C15.9631 14.5018 15.5623 14.6332 15.3126 14.7515C15.0629 14.8698 14.9642 14.9749 14.7706 15.3526C14.5772 15.7303 14.2888 16.3807 14.1801 16.9914C14.0712 17.602 14.1422 18.1731 14.2065 18.4727C14.2709 18.7723 14.3288 18.8004 14.6222 18.7189C14.9155 18.6374 15.4444 18.4464 15.7789 18.3823C16.1133 18.3181 16.2533 18.3809 16.3428 18.4132C16.4319 18.4454 16.4706 18.4471 16.6283 18.3789C16.7861 18.3106 17.0627 18.1723 17.2575 18.0995C17.4523 18.0266 17.5651 18.0192 17.6641 18.0553C17.7632 18.0914 17.8485 18.171 17.8695 18.2916C17.8906 18.4124 17.8471 18.5741 17.9939 18.5155C18.1407 18.4569 18.4774 18.1781 18.8506 17.7718C19.224 17.3654 19.6339 16.8317 19.9695 15.9645C20.3054 15.0975 20.567 13.8971 20.6929 12.9047C20.8188 11.9124 20.8089 11.128 20.6351 10.3501C20.4615 9.5722 20.1241 8.80067 19.9394 8.38579C19.7547 7.97093 19.7226 7.91271 19.6201 7.99937C19.5175 8.08601 19.3446 8.31782 19.2193 8.46105C19.0938 8.60412 19.0161 8.65877 18.9857 8.69536C18.9552 8.73194 18.9722 8.7503 19.0119 8.96655Z" fill="#FF3369"/>
<path fill-rule="evenodd" clip-rule="evenodd" d="M16.4508 9.14465C16.1773 9.24255 15.7258 9.2584 15.0448 9.36031C14.3639 9.46207 13.4531 9.64988 12.5544 9.99543C11.6557 10.341 10.7689 10.8443 10.1738 11.2956C9.5786 11.7469 9.27503 12.1464 9.03733 12.5338C8.79971 12.9213 8.62794 13.2966 8.41428 13.5624C8.20055 13.828 7.94492 13.9837 7.78316 14.0616C7.62146 14.1395 7.55353 14.1395 7.30983 14.1395C7.06619 14.1395 6.64678 14.1395 6.43513 14.1356C6.35737 14.1341 6.30768 14.132 6.28186 14.1248C6.30461 14.3594 6.32724 14.594 6.35923 14.8209C6.38457 15.0005 6.41574 15.1753 6.45736 15.3413C6.52222 15.6001 6.61241 15.8378 6.70208 16.026C6.74272 16.1112 6.78315 16.1862 6.82117 16.2485C6.94301 16.4482 7.03889 16.5161 7.29248 16.584C7.54613 16.6519 7.95755 16.7198 8.49874 16.7497C8.91683 16.7729 9.41239 16.7735 9.85274 16.7393C9.9825 16.7293 10.1075 16.7162 10.2243 16.6998C10.7376 16.628 11.0931 16.4922 11.5944 16.2505C12.0956 16.0089 12.7428 15.6613 13.4297 15.3757C13.9417 15.1629 14.4759 14.9845 14.9977 14.8172C15.1758 14.7601 15.3527 14.7042 15.5267 14.6488C16.2099 14.4311 16.849 14.2194 17.1704 14.0157C17.4613 13.8314 17.4924 13.6537 17.3832 13.4308C17.3717 13.4073 17.3586 13.3831 17.3441 13.3585C17.1924 13.101 16.8848 12.7815 16.6552 12.4119C16.6021 12.3266 16.5533 12.2388 16.5086 12.1486C16.36 11.8487 16.2589 11.5253 16.2099 11.1997C16.1564 10.8465 16.1644 10.4903 16.2267 10.1644C16.2392 10.0998 16.2535 10.0363 16.2703 9.97439C16.3707 9.59995 16.5474 9.27826 16.7243 8.95654C16.668 9.0352 16.5788 9.09888 16.4508 9.14465ZM13.8927 12.1138C13.799 12.4013 13.595 12.7082 13.2967 12.9431C13.1582 13.0519 12.9994 13.1454 12.8341 13.2218C12.6435 13.3101 12.4444 13.3757 12.2584 13.4167C11.9112 13.4933 11.6097 13.484 11.3495 13.4387C11.0893 13.3933 10.8708 13.312 10.7448 13.2501C10.6189 13.1885 10.5858 13.1463 10.6111 13.0167C10.6157 12.9933 10.6222 12.9671 10.631 12.938C10.6709 12.8064 10.7588 12.6178 10.9339 12.3804C11.1475 12.0907 11.4909 11.7284 11.8718 11.4889C11.8797 11.484 11.8877 11.479 11.8957 11.4741C12.177 11.3017 12.4773 11.1952 12.753 11.1368C12.8442 11.1176 12.9328 11.1035 13.0171 11.094C13.3628 11.0555 13.636 11.0952 13.78 11.1408C13.9241 11.1867 13.9389 11.2387 13.9545 11.3987C13.97 11.5585 13.9865 11.8264 13.8927 12.1138Z" fill="#FFD27F"/>
<path fill-rule="evenodd" clip-rule="evenodd" d="M13.5648 15.3283C12.9279 15.5931 12.328 15.9152 11.8632 16.1392C11.3986 16.3633 11.069 16.4892 10.5931 16.5558C10.4849 16.5709 10.369 16.5831 10.2487 16.5924C10.1123 16.985 9.97585 17.3777 9.84469 17.8147C9.71353 18.2518 9.58763 18.7331 9.51878 19.239C9.44993 19.7448 9.43812 20.275 9.42633 20.8053C10.2177 21.0352 11.0546 21.1586 11.9201 21.1586C13.0298 21.1586 14.0921 20.956 15.0721 20.5857C14.8905 20.3768 14.709 20.1678 14.5572 19.8856C14.4053 19.6034 14.2831 19.2479 14.222 18.8128C14.2189 18.7902 14.2157 18.7673 14.2129 18.7442C14.1609 18.3242 14.163 17.8369 14.2017 17.3612C14.2424 16.8595 14.3239 16.3707 14.4667 15.9477C14.6096 15.5248 14.814 15.1676 15.0182 14.8105C14.5346 14.9655 14.0393 15.131 13.5648 15.3283Z" fill="#FFE3BA"/>
<path fill-rule="evenodd" clip-rule="evenodd" d="M10.5103 6.17477C11.1905 5.79767 12.4963 5.07679 13.2714 4.72384C14.0465 4.37087 14.2907 4.38569 14.4263 4.43857C14.5618 4.49129 14.5885 4.58209 14.661 4.83537C14.7338 5.08864 14.8523 5.50455 15.1556 6.00726C15.4591 6.50997 15.9473 7.09961 16.2477 7.50899C16.548 7.9184 16.6606 8.14753 16.721 8.32467C16.7816 8.50182 16.79 8.62682 16.7336 8.77864C16.6773 8.93076 16.556 9.10954 16.0363 9.2415C15.5166 9.37348 14.5981 9.45865 13.6057 9.72525C12.6133 9.99201 11.547 10.4399 10.6879 11.0565C9.8289 11.673 9.17713 12.4581 8.78642 12.9968C8.39582 13.5355 8.26623 13.8282 7.9774 13.9966C7.68857 14.1651 7.24053 14.2096 6.93492 14.211C6.62925 14.2124 6.46609 14.1708 6.38145 14.1398C6.29681 14.109 6.29085 14.0887 6.42796 13.9725C6.56515 13.8562 6.8454 13.6441 6.80416 13.1233C6.76284 12.6024 6.39997 11.7731 6.15592 11.2489C5.91192 10.7247 5.7869 10.5061 5.69983 10.2598C5.61286 10.0136 5.56391 9.73976 5.91344 9.31408C6.26295 8.8884 7.01101 8.31074 7.47195 7.96638C7.93295 7.62201 8.10699 7.51091 8.22733 7.53314C8.34768 7.55536 8.41433 7.71089 8.50691 7.91824C8.59948 8.12559 8.71804 8.38481 8.95739 8.4328C9.19681 8.48078 9.55703 8.31741 9.82548 8.14531C10.0939 7.97304 10.2706 7.79205 10.3016 7.65593C10.3327 7.51981 10.218 7.42843 10.097 7.26314C9.97591 7.09784 9.8484 6.85834 9.81194 6.72177C9.77549 6.58534 9.83018 6.55187 10.5103 6.17477Z" fill="#FFE3BA"/>
<path fill-rule="evenodd" clip-rule="evenodd" d="M13.5648 15.3283C12.928 15.5931 12.3281 15.9152 11.8633 16.1392C11.3986 16.3633 11.069 16.4892 10.5932 16.5558C10.485 16.5709 10.3691 16.5831 10.2488 16.5924C10.1123 16.985 9.97591 17.3777 9.84477 17.8147C9.80061 17.9617 9.7571 18.1137 9.71619 18.2699C10.1642 18.2675 10.7905 18.2122 11.3512 18.0232C12.0437 17.79 12.6362 17.353 13.3508 17.0124C13.6562 16.8667 13.9842 16.7387 14.2992 16.607C14.3421 16.3757 14.3971 16.1539 14.4667 15.9477C14.6096 15.5248 14.814 15.1676 15.0183 14.8105C14.5347 14.9655 14.0394 15.131 13.5648 15.3283Z" fill="#F0C87F"/>
<path fill-rule="evenodd" clip-rule="evenodd" d="M12.7795 21.1176C13.5792 21.0412 14.3482 20.8592 15.0722 20.5857C14.8906 20.3767 14.709 20.1678 14.5572 19.8856C14.4054 19.6034 14.2832 19.2479 14.222 18.8128C14.2189 18.7901 14.2158 18.7673 14.213 18.7442C14.161 18.3242 14.163 17.8368 14.2017 17.3612C14.2424 16.8595 14.3239 16.3707 14.4667 15.9477C14.6096 15.5248 14.814 15.1676 15.0183 14.8105C14.7054 14.9107 14.3879 15.0155 14.074 15.1302C13.7588 15.8236 13.4431 16.5897 13.2175 17.2197C12.8065 18.3676 12.6954 19.0637 12.6954 19.9302C12.6954 20.3122 12.717 20.7272 12.7795 21.1176Z" fill="#F0C87F"/>
<path fill-rule="evenodd" clip-rule="evenodd" d="M16.5373 12.5581C16.7341 12.8748 16.9978 13.1485 17.1278 13.3694C17.1402 13.3905 17.1515 13.411 17.1613 13.4313C17.3623 13.2247 17.5633 13.018 17.7065 12.7914C17.8499 12.5649 17.9355 12.3185 17.9245 12.1007C17.9134 11.883 17.806 11.694 17.6985 11.5049C17.621 11.5637 17.5446 11.6195 17.4704 11.6721C17.0739 11.9535 16.7428 12.143 16.4118 12.3324C16.45 12.4096 16.4919 12.4849 16.5373 12.5581Z" fill="#70CC81"/>
<path fill-rule="evenodd" clip-rule="evenodd" d="M16.4117 12.3319C16.7427 12.1424 17.0738 11.953 17.4703 11.6716C17.5445 11.619 17.6209 11.5632 17.6984 11.5044C18.0343 11.2495 18.3859 10.9406 18.6336 10.6083C18.9382 10.1992 19.0855 9.75407 19.1305 9.42941C19.1755 9.10474 19.1185 8.9002 19.0613 8.6958C18.8565 8.90716 18.6262 9.10814 18.3803 9.30055C17.9318 9.65143 17.4321 9.9733 17.0551 10.1901C16.6783 10.4071 16.4241 10.5192 16.17 10.6315C16.1165 10.9107 16.1098 11.2158 16.1554 11.5187C16.1977 11.7978 16.2843 12.0747 16.4117 12.3319Z" fill="#91F7A4"/>
<path fill-rule="evenodd" clip-rule="evenodd" d="M16.4117 12.3319C16.7427 12.1424 17.0737 11.953 17.4703 11.6716C17.5445 11.619 17.6209 11.5632 17.6984 11.5043C18.0343 11.2494 18.3859 10.9406 18.6335 10.6082C18.881 10.2759 19.0246 9.91996 19.0939 9.62402C18.9887 9.78576 18.7812 10.055 18.4977 10.3082C18.1793 10.5923 17.7651 10.8559 17.3541 10.9662C16.9432 11.0766 16.5356 11.0336 16.1437 10.9037L16.1337 10.9003C16.1175 11.1015 16.124 11.3106 16.1554 11.5187C16.1976 11.7978 16.2843 12.0747 16.4117 12.3319Z" fill="#83DE93"/>
<path fill-rule="evenodd" clip-rule="evenodd" d="M17.0551 10.1904C17.4321 9.97359 17.9318 9.65172 18.3803 9.30085C18.6262 9.10843 18.8565 8.90745 19.0613 8.69609C19.2077 8.54515 19.341 8.38905 19.4576 8.22715C19.4753 8.20242 19.4928 8.17738 19.51 8.15236C19.7941 7.73482 19.9652 7.27951 20.0473 6.8276C20.1296 6.37571 20.1226 5.92736 20.0799 5.67571C20.0371 5.42422 19.9583 5.3694 19.7787 5.51145C19.5989 5.65349 19.3182 5.99238 18.9057 6.37068C18.7607 6.50369 18.5994 6.64158 18.4279 6.77622C18.1118 7.02446 17.8551 7.2142 17.4146 7.43725C16.9742 7.66047 16.8558 7.67646 16.3314 7.80028C16.4911 8.00097 16.5865 8.11562 16.773 8.37675C16.9594 8.63787 16.6456 9.16931 16.6598 9.32128C16.6743 9.47339 16.6514 9.52005 16.5964 9.59663C16.4449 9.87226 16.2934 10.1479 16.2073 10.4689C16.1931 10.522 16.1806 10.5764 16.17 10.6318C16.4242 10.5195 16.6783 10.4074 17.0551 10.1904Z" fill="#C7FFD1"/>
<path fill-rule="evenodd" clip-rule="evenodd" d="M17.0553 10.1905C17.4322 9.97371 17.932 9.65186 18.3805 9.30097C18.6264 9.10858 18.8567 8.90757 19.0615 8.69622C19.2079 8.5453 19.3412 8.38917 19.4577 8.22729C19.4755 8.20254 19.493 8.17752 19.5102 8.15248C19.7943 7.73494 19.9653 7.27963 20.0475 6.82774C20.0949 6.56707 20.1127 6.30771 20.1111 6.08643C20.0982 6.0996 20.0849 6.11605 20.0711 6.13649C19.9513 6.31453 19.8014 6.77619 19.4491 7.22617C19.0969 7.67629 18.5424 8.11443 17.9716 8.31941C17.4009 8.52455 17.0903 8.49685 16.8657 8.49582C16.641 8.49479 16.7369 8.49597 16.6814 8.49803L16.7068 8.53345C16.9549 8.88092 16.6458 9.16946 16.66 9.32141C16.6745 9.47353 16.6515 9.52019 16.5966 9.59677C16.4451 9.87241 16.2936 10.148 16.2075 10.469C16.1981 10.5037 16.1897 10.5389 16.182 10.5746C16.2038 10.5825 16.2261 10.5899 16.2493 10.5968C16.4782 10.4954 16.7174 10.385 17.0553 10.1905Z" fill="#91F7A4"/>
<path fill-rule="evenodd" clip-rule="evenodd" d="M14.5761 18.6982C14.8444 18.5697 15.4089 18.4127 15.7303 18.3596C16.0519 18.3066 16.1301 18.3575 16.1781 18.4082C16.2261 18.4589 16.2437 18.5094 16.3934 18.4441C16.5432 18.3787 16.825 18.1976 17.0611 18.1063C17.2972 18.015 17.4876 18.0135 17.6255 18.0526C17.7632 18.0918 17.8485 18.1714 17.8328 18.3578C17.8171 18.5442 17.7004 18.8375 17.4536 19.1161C17.2069 19.3947 16.8302 19.6587 16.4117 19.9012C15.9931 20.1437 15.5326 20.3649 15.2952 20.4671C15.0577 20.5694 15.0432 20.5526 14.9268 20.3651C14.8104 20.1776 14.5919 19.8192 14.481 19.5678C14.37 19.3164 14.3666 19.1719 14.3511 19.0495C14.3355 18.9271 14.3077 18.8269 14.5761 18.6982Z" fill="#FFD27F"/>
<path fill-rule="evenodd" clip-rule="evenodd" d="M13.2966 12.9432C13.5949 12.7083 13.7989 12.4014 13.8926 12.1139C13.9864 11.8266 13.9699 11.5587 13.9544 11.3988C13.9388 11.2389 13.924 11.1869 13.7799 11.141C13.6359 11.0953 13.3627 11.0556 13.0169 11.0942C12.9327 11.1036 12.8441 11.1177 12.7529 11.137C12.9065 11.3468 13.0186 11.5921 13.0743 11.8635C13.1744 12.3496 13.0757 12.8305 12.834 13.222C12.9993 13.1456 13.1581 13.0521 13.2966 12.9432Z" fill="white"/>
<path fill-rule="evenodd" clip-rule="evenodd" d="M11.9696 12.3668C11.9696 12.8598 11.6392 13.2757 11.1878 13.405C11.2394 13.4176 11.2933 13.4288 11.3492 13.4386C11.6094 13.4839 11.911 13.4932 12.2582 13.4167C12.4442 13.3756 12.6432 13.31 12.8339 13.2218C13.0756 12.8303 13.1743 12.3494 13.0741 11.8632C13.0184 11.5919 12.9063 11.3466 12.7527 11.1367C12.4694 11.1969 12.1597 11.3076 11.8716 11.4888C11.8046 11.5309 11.7389 11.5768 11.6749 11.6254C11.8575 11.8188 11.9696 12.0796 11.9696 12.3668Z" fill="#91F7A4"/>
<path d="M10.6111 13.0166C10.6364 12.887 10.7201 12.67 10.9337 12.3803C11.1473 12.0906 11.4908 11.7283 11.8717 11.4888C12.1598 11.3076 12.4695 11.1969 12.7529 11.1367C12.9065 11.3465 13.0184 11.5919 13.0744 11.8632C13.1744 12.3494 13.0758 12.8303 12.8342 13.2217C12.6435 13.3099 12.4443 13.3756 12.2583 13.4167C11.9111 13.4932 11.6096 13.4839 11.3494 13.4386C11.0892 13.3933 10.8707 13.312 10.7447 13.25C10.6189 13.1884 10.5857 13.1462 10.6111 13.0166Z" stroke="#0F172A" stroke-width="0.417215" stroke-miterlimit="22.9256" stroke-linecap="round"/>
<path d="M10.611 13.0167C10.6364 12.8871 10.7202 12.6701 10.9338 12.3804C11.1099 12.1417 11.3742 11.8536 11.6751 11.6255C11.8577 11.8189 11.9698 12.0797 11.9698 12.367C11.9698 12.8599 11.6394 13.2758 11.188 13.4051C10.9996 13.3593 10.8436 13.2988 10.7447 13.2502C10.6189 13.1885 10.5858 13.1463 10.611 13.0167Z" stroke="#0F172A" stroke-width="0.417215" stroke-miterlimit="22.9256" stroke-linecap="round"/>
<path fill-rule="evenodd" clip-rule="evenodd" d="M12.1453 11.8823C12.3131 11.8823 12.4493 12.0183 12.4493 12.1861C12.4493 12.3539 12.3131 12.49 12.1453 12.49C11.9775 12.49 11.8416 12.3539 11.8416 12.1861C11.8416 12.0183 11.9775 11.8823 12.1453 11.8823Z" fill="white"/>
<path d="M7.85187 18.0928C7.85187 18.3159 7.85187 18.539 7.85187 18.7622" stroke="white" stroke-width="0.312911" stroke-miterlimit="22.9256" stroke-linecap="round"/>
<path d="M7.60321 18.4272C7.76897 18.4272 7.93474 18.4272 8.1005 18.4272" stroke="white" stroke-width="0.312911" stroke-miterlimit="22.9256" stroke-linecap="round"/>
<path d="M4.92163 14.7729C4.92163 15.1282 4.92163 15.4834 4.92163 15.8386" stroke="white" stroke-width="0.312911" stroke-miterlimit="22.9256" stroke-linecap="round"/>
<path d="M4.526 15.3057C4.78983 15.3057 5.05371 15.3057 5.31756 15.3057" stroke="white" stroke-width="0.312911" stroke-miterlimit="22.9256" stroke-linecap="round"/>
<path d="M16.1633 16.0947C16.1633 16.2724 16.1633 16.45 16.1633 16.6278" stroke="white" stroke-width="0.312911" stroke-miterlimit="22.9256" stroke-linecap="round"/>
<path d="M15.9651 16.3608C16.0971 16.3608 16.2291 16.3608 16.3611 16.3608" stroke="white" stroke-width="0.312911" stroke-miterlimit="22.9256" stroke-linecap="round"/>
<path d="M18.5344 15.3154C18.5344 15.5386 18.5344 15.7618 18.5344 15.9849" stroke="white" stroke-width="0.312911" stroke-miterlimit="22.9256" stroke-linecap="round"/>
<path d="M18.2859 15.6499C18.4517 15.6499 18.6176 15.6499 18.7832 15.6499" stroke="white" stroke-width="0.312911" stroke-miterlimit="22.9256" stroke-linecap="round"/>
<path d="M19.4238 11.9375C19.4238 12.0898 19.4238 12.242 19.4238 12.3941" stroke="white" stroke-width="0.312911" stroke-miterlimit="22.9256" stroke-linecap="round"/>
<path d="M19.2542 12.1655C19.3672 12.1655 19.4804 12.1655 19.5934 12.1655" stroke="white" stroke-width="0.312911" stroke-miterlimit="22.9256" stroke-linecap="round"/>
<path d="M4.36407 10.7236C4.36407 10.9012 4.36407 11.079 4.36407 11.2567" stroke="white" stroke-width="0.312911" stroke-miterlimit="22.9256" stroke-linecap="round"/>
<path d="M4.1662 10.9893C4.29817 10.9893 4.43014 10.9893 4.56212 10.9893" stroke="white" stroke-width="0.312911" stroke-miterlimit="22.9256" stroke-linecap="round"/>
<path d="M6.38837 6.70361C6.38837 6.94712 6.38837 7.19076 6.38837 7.43427" stroke="white" stroke-width="0.312911" stroke-miterlimit="22.9256" stroke-linecap="round"/>
<path d="M6.11719 7.06885C6.29804 7.06885 6.47898 7.06885 6.65983 7.06885" stroke="white" stroke-width="0.312911" stroke-miterlimit="22.9256" stroke-linecap="round"/>
<path d="M10.4305 4.3916C10.4305 4.68962 10.4305 4.98761 10.4305 5.28563" stroke="white" stroke-width="0.312911" stroke-miterlimit="22.9256" stroke-linecap="round"/>
<path d="M10.0982 4.83838C10.3196 4.83838 10.5409 4.83838 10.7624 4.83838" stroke="white" stroke-width="0.312911" stroke-miterlimit="22.9256" stroke-linecap="round"/>
<path d="M5.34583 12.7451C5.34583 12.9227 5.34583 13.1005 5.34583 13.2782" stroke="white" stroke-width="0.312911" stroke-miterlimit="22.9256" stroke-linecap="round"/>
<path d="M5.14771 13.0117C5.27972 13.0117 5.4117 13.0117 5.54367 13.0117" stroke="white" stroke-width="0.312911" stroke-miterlimit="22.9256" stroke-linecap="round"/>
<path d="M16.7356 5.98291C16.7356 6.13517 16.7356 6.28743 16.7356 6.43969" stroke="white" stroke-width="0.312911" stroke-miterlimit="22.9256" stroke-linecap="round"/>
<path d="M16.566 6.21143C16.679 6.21143 16.7922 6.21143 16.9052 6.21143" stroke="white" stroke-width="0.312911" stroke-miterlimit="22.9256" stroke-linecap="round"/>
<path fill-rule="evenodd" clip-rule="evenodd" d="M9.44053 8.38344C9.6407 8.32909 9.83003 8.22215 9.97547 8.11181C10.1208 8.00161 10.2225 7.88814 10.2722 7.82075C10.3221 7.75321 10.32 7.73174 10.16 7.43994C10.0822 7.29805 9.96715 7.09247 9.84234 6.85489C9.71038 6.60369 9.56752 6.31665 9.44648 6.03196C9.24989 5.56925 9.11097 5.1126 9.00648 4.65953C8.98593 4.57021 8.96667 4.48104 8.94857 4.39203C8.8387 3.85125 8.77158 3.31508 8.73224 2.93798C8.69277 2.56088 8.68119 2.34285 8.65145 2.2174C8.62173 2.09194 8.574 2.05906 8.44848 2.16763C8.32301 2.2762 8.11976 2.52637 7.95971 2.87118C7.79979 3.21614 7.6831 3.65604 7.65821 4.19622C7.64324 4.52267 7.66169 4.88571 7.72077 5.27524C7.75948 5.53044 7.81549 5.7972 7.891 6.07254C8.08162 6.76796 8.39601 7.51801 8.57116 7.92192C8.68443 8.1832 8.73947 8.2996 8.79761 8.35679C8.82931 8.38789 8.86201 8.40151 8.90564 8.41128C9.02911 8.43929 9.24033 8.43766 9.44053 8.38344Z" fill="white"/>
<path fill-rule="evenodd" clip-rule="evenodd" d="M9.66332 8.30086C9.77886 8.24695 9.88549 8.17999 9.9754 8.11186C10.1207 8.00166 10.2224 7.88821 10.2722 7.82082C10.322 7.75328 10.3199 7.73179 10.1599 7.44001C10.0821 7.29812 9.96706 7.09254 9.84227 6.85496C9.71029 6.60376 9.56743 6.3167 9.44641 6.03203C9.24982 5.56932 9.11088 5.11267 9.00639 4.65958C8.98586 4.57028 8.9666 4.48111 8.94848 4.39208C8.83861 3.85132 8.77151 3.31514 8.73215 2.93804C8.69268 2.56094 8.68112 2.34291 8.65138 2.21746C8.63327 2.14103 8.60845 2.09897 8.56349 2.10223C8.48041 2.41801 8.40218 2.79303 8.371 3.1928C8.31616 3.89754 8.40768 4.67854 8.58463 5.39692C8.76154 6.11541 9.02387 6.77127 9.28933 7.41497C9.41678 7.7241 9.54494 8.03041 9.66332 8.30086Z" fill="#DEDEDE"/>
<path d="M9.88492 6.51848C10.1915 6.34252 10.4991 6.17248 10.7989 6.0134C11.6836 5.54417 12.5025 5.1687 13.0577 4.92045C13.613 4.67236 13.9045 4.55165 14.1376 4.51062C14.3707 4.46973 14.5453 4.5087 14.6153 4.67281C14.6852 4.83706 14.6504 5.12678 14.7268 5.41131C14.8032 5.69584 14.991 5.97548 15.3044 6.37894C15.618 6.78242 16.0575 7.30957 16.347 7.71495C16.6366 8.12035 16.7764 8.40399 16.7983 8.63563C16.8203 8.86744 16.7244 9.04711 16.4509 9.145C16.1773 9.2429 15.7258 9.25876 15.0448 9.36066C14.3638 9.46242 13.4532 9.65023 12.5544 9.99578C11.6558 10.3413 10.7689 10.8446 10.1738 11.2959C9.57863 11.7473 9.27504 12.1467 9.03736 12.5342C8.79974 12.9217 8.62798 13.297 8.41431 13.5627C8.20057 13.8284 7.94496 13.9841 7.7832 14.062C7.62149 14.1399 7.55356 14.1399 7.30986 14.1399C7.06622 14.1399 6.64687 14.1399 6.43517 14.1359C6.22346 14.1319 6.2194 14.1239 6.3412 14.0161C6.46306 13.9083 6.71074 13.7005 6.81656 13.4949C6.92245 13.2891 6.88653 13.0853 6.66878 12.622C6.45113 12.1587 6.05168 11.4358 5.84595 10.9464C5.64027 10.4572 5.62829 10.2015 5.69818 9.94187C5.76808 9.68222 5.91989 9.41873 6.31929 9.02918C6.71879 8.63978 7.36581 8.12433 8.16465 7.5852C8.17547 7.57794 8.18635 7.57069 8.19711 7.56343" stroke="#0F172A" stroke-width="0.417215" stroke-miterlimit="22.9256" stroke-linecap="round"/>
<path d="M6.28186 14.1248C6.32254 14.5451 6.36318 14.9654 6.45736 15.3413C6.55155 15.7173 6.69938 16.0488 6.82117 16.2485C6.94301 16.4482 7.03889 16.5161 7.29248 16.584C7.54613 16.6519 7.95755 16.7199 8.49874 16.7498C9.04001 16.7798 9.71104 16.7718 10.2243 16.6998C10.7376 16.628 11.0931 16.4922 11.5944 16.2505C12.0956 16.0089 12.7428 15.6613 13.4297 15.3758C14.1167 15.0902 14.8438 14.8665 15.5267 14.6488C16.2099 14.4311 16.849 14.2194 17.1704 14.0157C17.4919 13.812 17.4959 13.6162 17.3441 13.3585C17.1924 13.101 16.8848 12.7815 16.6552 12.4119C16.4255 12.0425 16.2737 11.6231 16.2099 11.1998C16.1459 10.7763 16.1699 10.349 16.2703 9.97439C16.3707 9.59995 16.5474 9.27826 16.7243 8.95654" stroke="#0F172A" stroke-width="0.417215" stroke-miterlimit="22.9256" stroke-linecap="round"/>
<path d="M15.0183 14.8105C14.8141 15.1677 14.6096 15.5248 14.4667 15.9477C14.3239 16.3707 14.2425 16.8595 14.2017 17.3612C14.161 17.8629 14.161 18.3777 14.222 18.8128C14.2832 19.2479 14.4054 19.6034 14.5572 19.8856C14.709 20.1678 14.8906 20.3768 15.0722 20.5857" stroke="#0F172A" stroke-width="0.417215" stroke-miterlimit="22.9256" stroke-linecap="round"/>
<path d="M10.2487 16.5928C10.1123 16.9854 9.97585 17.3781 9.84469 17.8151C9.71352 18.2521 9.58763 18.7335 9.51878 19.2393C9.44993 19.7452 9.43812 20.2754 9.42633 20.8057" stroke="#0F172A" stroke-width="0.417215" stroke-miterlimit="22.9256" stroke-linecap="round"/>
<path d="M14.2131 18.7448C14.6105 18.6387 15.0077 18.5325 15.3137 18.4405C15.6199 18.3486 15.8346 18.2708 15.9734 18.256C16.1124 18.2412 16.1753 18.2893 16.2086 18.4087C16.2419 18.5282 16.2457 18.7189 16.2169 18.8901C16.1883 19.0614 16.1272 19.2132 16.0661 19.365" stroke="#0F172A" stroke-width="0.417215" stroke-miterlimit="22.9256" stroke-linecap="round"/>
<path d="M16.2612 18.5597C16.7089 18.3596 17.1568 18.1595 17.4418 18.0687C17.7268 17.9779 17.849 17.9964 17.9026 18.0687C17.9564 18.1409 17.9415 18.2667 17.8964 18.4363C17.8515 18.6059 17.7761 18.8192 17.7009 19.0326" stroke="#0F172A" stroke-width="0.417215" stroke-miterlimit="22.9256" stroke-linecap="round"/>
<path d="M16.4141 7.8108C16.7443 7.73527 17.0746 7.65972 17.5118 7.41311C17.9491 7.16649 18.4934 6.74895 18.9057 6.37066C19.3182 5.99238 19.5989 5.65349 19.7787 5.51145C19.9584 5.36941 20.0372 5.42421 20.08 5.67572C20.1227 5.92736 20.1296 6.3757 20.0474 6.8276C19.9652 7.27951 19.7941 7.73482 19.51 8.15234C19.2258 8.57004 18.8287 8.94996 18.3804 9.30083C17.9319 9.65172 17.4321 9.97357 17.0552 10.1904C16.6784 10.4074 16.4242 10.5195 16.17 10.6318" stroke="#0F172A" stroke-width="0.417215" stroke-miterlimit="22.9256" stroke-linecap="round"/>
<path d="M19.0614 8.6958C19.1186 8.9002 19.1756 9.10476 19.1305 9.42943C19.0855 9.75409 18.9383 10.1992 18.6336 10.6083C18.3291 11.0172 17.8668 11.3905 17.4946 11.6578C17.1223 11.9252 16.8398 12.0868 16.5572 12.2484" stroke="#0F172A" stroke-width="0.417215" stroke-miterlimit="22.9256" stroke-linecap="round"/>
<path d="M17.6984 11.5049C17.806 11.694 17.9134 11.883 17.9245 12.1007C17.9354 12.3185 17.8498 12.5649 17.7296 12.7676C17.6093 12.9703 17.4544 13.1293 17.2994 13.2882" stroke="#0F172A" stroke-width="0.417215" stroke-miterlimit="22.9256" stroke-linecap="round"/>
<path d="M10.6111 13.0168C10.6364 12.8872 10.7202 12.6703 10.9338 12.3805C11.1474 12.0908 11.4908 11.7285 11.8718 11.489C12.2527 11.2495 12.6712 11.1328 13.017 11.0942C13.3629 11.0556 13.636 11.0953 13.78 11.1411C13.9241 11.1869 13.9389 11.2389 13.9544 11.3988C13.97 11.5587 13.9864 11.8266 13.8927 12.1139C13.7989 12.4014 13.595 12.7085 13.2967 12.9432C12.9983 13.1778 12.6055 13.3403 12.2584 13.4169C11.9112 13.4935 11.6096 13.4841 11.3494 13.4388C11.0893 13.3935 10.8707 13.3122 10.7448 13.2503C10.6189 13.1887 10.5858 13.1464 10.6111 13.0168Z" stroke="#0F172A" stroke-width="0.417215" stroke-miterlimit="22.9256" stroke-linecap="round"/>
<path fill-rule="evenodd" clip-rule="evenodd" d="M11.1881 13.4051C11.6394 13.2758 11.9699 12.8599 11.9699 12.367C11.9699 12.0798 11.8578 11.8189 11.6751 11.6255C11.3743 11.8536 11.1099 12.1417 10.9338 12.3804C10.7203 12.6701 10.6364 12.8871 10.6111 13.0167C10.5858 13.1463 10.6189 13.1885 10.7448 13.2502C10.8437 13.2988 10.9997 13.3593 11.1881 13.4051Z" fill="#0F172A"/>
<path d="M6.7019 16.0268C7.10616 16.0081 7.51036 15.9894 7.95216 16.0759C8.39397 16.1625 8.87325 16.3543 9.38726 16.4441C9.9012 16.5339 10.4499 16.5218 10.9292 16.4202C11.4087 16.3186 11.8189 16.1274 12.1038 15.8558C12.3887 15.5842 12.5483 15.2323 12.7078 14.8804" stroke="#0F172A" stroke-width="0.417215" stroke-miterlimit="22.9256" stroke-linecap="round"/>
<path d="M7.73077 15.2056C7.78274 15.1257 7.83465 15.0458 7.87358 14.961C7.91252 14.8761 7.9385 14.7862 7.96447 14.6963" stroke="#0F172A" stroke-width="0.417215" stroke-miterlimit="22.9256" stroke-linecap="round"/>
<path d="M6.72294 15.1492C6.63512 15.0902 6.54721 15.0311 6.48653 14.9764C6.42596 14.9217 6.39252 14.8712 6.35913 14.8208" stroke="#0F172A" stroke-width="0.417215" stroke-miterlimit="22.9256" stroke-linecap="round"/>
<path d="M8.90566 8.41128C9.02913 8.43929 9.24035 8.43766 9.44054 8.38344C9.64072 8.32909 9.83005 8.22215 9.97543 8.11181C10.1208 8.0016 10.2225 7.88814 10.2722 7.82061C10.3221 7.7532 10.32 7.73174 10.16 7.43994C9.99997 7.14816 9.68193 6.58576 9.4465 6.03196C9.21115 5.47801 9.05851 4.9328 8.94857 4.39203C8.8387 3.85125 8.7716 3.31508 8.73226 2.93798C8.69285 2.56088 8.68121 2.34285 8.65147 2.2174C8.62175 2.09194 8.57402 2.05906 8.44851 2.16763C8.32298 2.2762 8.11978 2.52636 7.95973 2.87118C7.79981 3.21614 7.68312 3.65604 7.65824 4.19622C7.63335 4.7364 7.70037 5.37699 7.891 6.07254C8.08171 6.76795 8.39604 7.51801 8.57118 7.92192C8.74631 8.32583 8.78213 8.38344 8.90566 8.41128Z" stroke="#0F172A" stroke-width="0.417215" stroke-miterlimit="22.9256" stroke-linecap="round"/>
<path d="M7.65332 4.40316C4.88095 5.91602 3.00006 8.85773 3.00006 12.2385C3.00006 17.165 6.9938 21.1587 11.9202 21.1587C16.8467 21.1587 20.8405 17.165 20.8405 12.2385C20.8405 10.6452 20.4225 9.14923 19.6905 7.85455M18.7545 6.50566C17.1183 4.55705 14.6639 3.31836 11.9202 3.31836C10.8424 3.31836 9.80914 3.50942 8.8527 3.85987" stroke="#0F172A" stroke-width="0.417215" stroke-miterlimit="22.9256" stroke-linecap="round"/>
<path d="M23.5 12C23.5 18.3513 18.3513 23.5 12 23.5C5.64873 23.5 0.5 18.3513 0.5 12C0.5 5.64873 5.64873 0.5 12 0.5C18.3513 0.5 23.5 5.64873 23.5 12Z" stroke="black" stroke-opacity="0.097"/>
</svg>
