<?xml version="1.0" encoding="utf-8"?>
<!-- Generator: Adobe Illustrator 25.0.0, SVG Export Plug-In . SVG Version: 6.00 Build 0)  -->
<!DOCTYPE svg PUBLIC "-//W3C//DTD SVG 1.1//EN" "http://www.w3.org/Graphics/SVG/1.1/DTD/svg11.dtd" [
	<!ENTITY ns_extend "http://ns.adobe.com/Extensibility/1.0/">
	<!ENTITY ns_ai "http://ns.adobe.com/AdobeIllustrator/10.0/">
	<!ENTITY ns_graphs "http://ns.adobe.com/Graphs/1.0/">
	<!ENTITY ns_vars "http://ns.adobe.com/Variables/1.0/">
	<!ENTITY ns_imrep "http://ns.adobe.com/ImageReplacement/1.0/">
	<!ENTITY ns_sfw "http://ns.adobe.com/SaveForWeb/1.0/">
	<!ENTITY ns_custom "http://ns.adobe.com/GenericCustomNamespace/1.0/">
	<!ENTITY ns_adobe_xpath "http://ns.adobe.com/XPath/1.0/">
]>
<svg version="1.1" id="Layer_1" xmlns:x="&ns_extend;" xmlns:i="&ns_ai;" xmlns:graph="&ns_graphs;"
	 xmlns="http://www.w3.org/2000/svg" xmlns:xlink="http://www.w3.org/1999/xlink" x="0px" y="0px" viewBox="0 0 512 512"
	 style="enable-background:new 0 0 512 512;" xml:space="preserve">
<style type="text/css">
	.st0{fill:#2113FB;}
	.st1{fill:#FB13BE;}
	.st2{fill:#7E13FB;}
	.st3{fill:#DC15FB;}
	.st4{fill:#FB1362;}
</style>
<metadata>
	<sfw  xmlns="&ns_sfw;">
		<slices></slices>
		<sliceSourceBounds  bottomLeftOrigin="true" height="496" width="496.3" x="7.9" y="-504"></sliceSourceBounds>
	</sfw>
</metadata>
<g id="COIN_Icon">
	<g>
		<path class="st0" d="M111.7,457.7C111.7,457.7,111.7,457.7,111.7,457.7c0,0,0.1,0,0.1,0.1C152.4,486.9,202.2,504,256,504
			c8.9,0,17.7-0.5,26.4-1.4c0,0,8-17.4,15.5-44.9C236.4,457.7,174.1,457.7,111.7,457.7z"/>
		<path class="st0" d="M391.8,463.6c0.1-0.1,0.4-0.3,0.5-0.3c2.7-1.8,5.4-3.6,8-5.5c0,0,0,0,0,0c-16.8,0-35.2,0-50.8,0
			c-2.2,10-4.8,20.4-7.9,31C358.7,482,376.3,473.7,391.8,463.6z"/>
	</g>
	<g>
		<path class="st1" d="M501.8,221.8c0-0.1,0-0.2,0-0.3c-66,0-132.6,0-198.1,0c21.1,26.1,40,60.5,49,104.5c47.2,0,94.2,0,141.5,0
			c1.6-5.4,3-10.9,4.2-16.4c3.9-17.7,5.8-35.8,5.8-53.9C504.1,244.3,503.4,233,501.8,221.8z"/>
		<path class="st1" d="M126.7,318c-11.7-13.5-15.7-28.7-8.7-45.7c4.6-11.1,10.3-21.6,17.6-31.2c4.6-6.1,8.6-12.7,13.4-19.8
			c-34,0-66.6,0-99.7,0c-2.7,4-5.5,8.2-8.3,12.4c-0.2-0.1-0.5-0.3-0.7-0.4c1.3-3.8,2.6-7.7,4.1-11.9c-11.5,0-22.5,0-33.9,0
			c-0.8,5.2-1.3,10.4-1.8,15.6c-1.7,21.5-0.5,43.1,3.4,64.3c1.5,8,3.4,15.9,5.6,23.7c0.1,0.4,0.2,0.7,0.3,1.1c39,0,77.9,0,115.6,0
			C131.5,323.6,129.1,320.8,126.7,318z"/>
		<path class="st1" d="M260.8,221.3c-19.1,0-37.2,0-55.5,0c-0.3,1.1-0.6,1.9-0.8,2.8c-3.6,14.8-10.2,28.1-19.3,40.4
			c-6.8,9.2-13.7,18.5-20,28.1c-6.5,10-11.1,20.7-8.1,33.4c9.4,0,36.5,0,65.3,0c4-6,10.8-9.9,18.6-9.9c7.7,0,14.6,3.9,18.6,9.9
			c22.1,0,40.9,0,48.2,0c-3.1-20.2-8.8-40.6-18-60.5C282.1,249.8,272.5,234.9,260.8,221.3z M240.8,304.4
			c-12,0.4-22.2-10.3-22.2-22.6c0-12.4,10-22.4,22.4-22.4c12.2,0,22.8,10.2,22.4,22.5C262.9,294.6,254.1,304,240.8,304.4z"/>
	</g>
	<g>
		<path class="st2" d="M411.6,449.2C411.6,449.2,411.6,449.2,411.6,449.2c16-12.6,29.8-26.9,42.5-43.8c0,0,0,0,0,0
			c-32.3,0-65.3,0-96.9,0c-1,13.9-2.9,28.5-5.9,43.8C370.7,449.2,392.2,449.2,411.6,449.2z"/>
		<path class="st2" d="M262.2,405.4C262.2,405.5,262.2,405.5,262.2,405.4l-0.5,0c-3.3,8.2-11.4,13.9-20.7,13.9
			c-9.3,0-17.3-5.7-20.7-13.7c0,0-109.1,0-161.3,0c13.1,16.9,27.2,31.6,43,43.5c66.4,0,132,0,198.1,0c3.2-13,6.2-27.8,8.1-43.8
			C292.3,405.4,277.2,405.4,262.2,405.4z"/>
		<path class="st2" d="M240.9,411.8c5,0,9.4-2.5,12.1-6.2l-24,0.1C231.6,409.4,236,411.8,240.9,411.8z"/>
	</g>
	<g>
		<g>
			<path class="st3" d="M357.9,393.7c0.1,1.3,0.2,2.5,0.2,3.8c33,0,67.8,0,101.7,0c0.1-0.1,0.3-0.5,0.4-0.6
				c13.3-19.1,23.8-39.7,31.3-62.1c-0.1,0-0.3,0-0.2,0c0.2,0-135,0.5-137,0.5C357.3,353.2,358.7,372.6,357.9,393.7z"/>
			<path class="st3" d="M308.8,334.8c-6.9,0-24.8,0-45.9,0c0.2,1.2,0.3,2.5,0.3,3.8c0,12.4-10,22.4-22.4,22.4s-22.4-10-22.4-22.4
				c0-1.3,0.1-2.6,0.3-3.9c-26.8,0-51.1,0-59.1,0c1.4,2.7,2.7,5,4.7,8.8c-4.1-2.1-6.8-3.2-9.3-4.8c-5.4-3.4-11-4.4-17.4-4.4
				c-36.3,0.2-114.1,0.1-117.1,0.1c0,0.1,0.1,0.2,0.1,0.3c3.9,11.8,8.7,23.1,14.3,34.1c5.1,10.2,10.9,19.9,17.5,29.2c0,0,0,0,0,0
				c0.1,0,165.5-0.8,166-0.8c0,0,0,0,0,0c0-1.3,0.1-2.6,0.3-3.9c0.6-3.2,1.8-6.1,3.5-8.6c4-6,10.8-9.9,18.6-9.9
				c7.7,0,14.6,3.9,18.6,9.9c1.7,2.6,2.9,5.5,3.5,8.7c0.2,1.2,0.3,2.5,0.3,3.8c0,0.1,0,0.1,0,0.2c18.6,0.1,37.7,0.2,45.8,0.2
				C311.1,377.7,311.4,356.5,308.8,334.8z"/>
		</g>
		<path class="st3" d="M255.7,397c0-0.9-0.1-1.7-0.2-2.5c-0.4-2.1-1.2-4-2.3-5.7c-2.7-3.9-7.1-6.5-12.2-6.5c-5.1,0-9.6,2.6-12.2,6.5
			c-1.1,1.7-1.9,3.6-2.3,5.7c-0.1,0.8-0.2,1.7-0.2,2.6c0,0,0,0,0,0c7.1,0,17.9,0.1,29.5,0.1C255.7,397.1,255.7,397.1,255.7,397z"/>
	</g>
	<g>
		<path class="st4" d="M176.5,160.4c-18.6,2.9-36.1,5.8-53.7,8.5c-29.1,4.4-51.7,18.6-67.3,43.8c32.5,0,65.1,0,98.1,0
			C162.9,196.4,174.8,181.3,176.5,160.4z"/>
		<path class="st4" d="M207.1,212.6c15.5,0,30.3,0,46.1,0c-14.6-15.9-30.3-28.8-49.2-40.6C208,186.1,208.4,198.9,207.1,212.6z"/>
		<path class="st4" d="M256.3,8C134.4,8,33,96,12.1,211.9c0,0,0,0,0,0c-0.1,0.3-0.1,0.5-0.1,0.6c0,0,0,0.1,0,0.1h33.6
			c4-9.3,7.7-18.5,11.9-27.3c6-12.3,13.4-23.8,22.8-33.8c10-10.6,22-15.5,36.9-12.9c12.1,2.1,35.6,5.1,44,6.1c1.7,0.2,2.7,0.3,3,0.4
			c-3-3.2-6-6.5-8.6-9.1c-4.9-4.9-9.2-10.2-12.8-15.8c-4.6-7-8.2-14.6-11-22.9c-7.6-22,5.2-37.2,20-43c21.6-8.4,44.1-13.1,67.1-15.7
			c7-0.8,27.4-2.4,27.7-2.4c2.9-0.2,6.1-0.2,7.8-0.1c3.7,0.4-16.3,3.8-17.3,4c-9.1,2.2-18.6,3.5-27.1,7.1
			c-12.4,5.2-20,14.8-19.2,29.1c0.8,14.3,1.8,28.6,3,42.9c0.5,6,1.9,12,2.9,18c4.4-5.9,7.8-11.8,10.7-17.8
			c6.3-12.7,15.7-22.4,28.5-28.3c10.2-4.7,20.7-8.9,31.5-12.1c18.6-5.4,37.6-7.5,57.1-5.5c22.6,2.3,43.6,9,63.3,20.1
			c7,3.9,13.6,8.5,20.4,12.8c-12.2-1.6-24.4-3.1-36.6-5c-16-2.4-32-3-47.8-0.2c-22.1,3.8-43.5,10.4-63.2,21.3
			c-15.2,8.4-45.8,27.8-46,28.5c0,0,42.8,17.5,81.6,61.4l204.6,0C480.1,96.3,378.5,8,256.3,8z M408.6,106.8c-0.1,0-0.2-0.1-0.3-0.1
			l0.1-0.1v0l0,0C408.5,106.7,408.5,106.8,408.6,106.8C408.9,107,408.8,106.9,408.6,106.8C408.7,107,408.8,107.1,408.6,106.8z"/>
	</g>
</g>
</svg>
