<svg id="Layer_1" data-name="Layer 1" xmlns="http://www.w3.org/2000/svg" xmlns:xlink="http://www.w3.org/1999/xlink" viewBox="0 0 800 568.11"><defs><style>.cls-1{fill:url(#linear-gradient);}.cls-2{fill:url(#linear-gradient-2);}.cls-3{fill:url(#linear-gradient-3);}</style><linearGradient id="linear-gradient" x1="180.35" y1="174.54" x2="180.35" y2="528.04" gradientUnits="userSpaceOnUse"><stop offset="0" stop-color="#fbcc5c"/><stop offset="0.52" stop-color="#fbcc5c"/><stop offset="1" stop-color="#36cf7d"/></linearGradient><linearGradient id="linear-gradient-2" x1="687.64" y1="734.03" x2="687.64" y2="168.12" gradientUnits="userSpaceOnUse"><stop offset="0" stop-color="#36cf7d"/><stop offset="0.48" stop-color="#fbcc5c"/><stop offset="1" stop-color="#fbcc5c"/></linearGradient><linearGradient id="linear-gradient-3" x1="369.64" y1="731.83" x2="369.64" y2="165.92" xlink:href="#linear-gradient-2"/></defs><path class="cls-1" d="M170.42,521.22,57.92,291a80.9,80.9,0,0,1,145.37-71L311,440.42c-3.55,7.41-32.43,66.32-61.33,80.77C219.41,536.3,172.26,521.79,170.42,521.22Z" transform="translate(-49.7 -165.92)"/><path class="cls-2" d="M849.7,249.06a80.67,80.67,0,0,1-5.85,30.13L681.56,683.26A80.89,80.89,0,0,1,531.43,623L693.72,218.88a80.91,80.91,0,0,1,156,30.18Z" transform="translate(-49.7 -165.92)"/><path class="cls-3" d="M558.7,277,396.41,681.05a80.88,80.88,0,0,1-152-5.13L174.74,530s48.48,15.43,79.34,0l1.4-.73,1.67-1c25.41-15.39,50.12-62.59,56.83-76.16a.11.11,0,0,0,0-.09l94.53-235.38A80.9,80.9,0,1,1,558.7,277Z" transform="translate(-49.7 -165.92)"/></svg>