<svg width="24" height="24" viewBox="0 0 24 24" fill="none" xmlns="http://www.w3.org/2000/svg">
<path fill-rule="evenodd" clip-rule="evenodd" d="M0 12C0 5.37259 5.37259 0 12 0C18.6274 0 24 5.37259 24 12C24 18.6274 18.6274 24 12 24C5.37259 24 0 18.6274 0 12Z" fill="black"/>
<path d="M23.5 12C23.5 18.3513 18.3513 23.5 12 23.5C5.64873 23.5 0.5 18.3513 0.5 12C0.5 5.64873 5.64873 0.5 12 0.5C18.3513 0.5 23.5 5.64873 23.5 12Z" stroke="white" stroke-opacity="0.3"/>
<path d="M12.2007 6.66243C12.2007 6.66243 13.8425 7.31915 15.2654 10.5662C15.4387 11.1362 15.5488 11.7235 15.5937 12.3175C15.5937 12.3175 15.6667 14.4701 14.0979 15.1268C13.898 15.1844 13.7255 15.3118 13.6117 15.4859C13.4978 15.66 13.4503 15.8692 13.4776 16.0754C13.5506 16.8415 13.6965 18.0455 13.6965 18.3009C13.6743 18.509 13.5767 18.7018 13.4221 18.843C13.2676 18.9841 13.0667 19.0638 12.8574 19.0671C12.3129 19.1449 11.7601 19.1449 11.2156 19.0671C10.6684 18.9211 10.5954 18.6293 10.5954 18.6293C10.5954 18.6293 10.34 18.2644 10.5224 16.6591C10.5224 16.6591 10.8873 15.5281 9.82921 15.0903C8.77117 14.6525 8.40633 12.7188 8.40633 12.7188C8.40633 12.7188 8.07797 10.8216 10.1211 8.15829C10.1211 8.15829 11.398 6.55298 12.1642 6.62595" fill="url(#paint0_linear)"/>
<path d="M10.3035 7.71729L10.194 7.82674L10.3035 7.71729Z" fill="url(#paint1_linear)"/>
<path d="M9.42786 8.85174C8.86743 8.45485 8.23563 8.16993 7.56717 8.0126C6.89546 7.86959 6.2108 7.79624 5.52405 7.79369H5.04975C4.8915 7.78783 4.73394 7.81757 4.58871 7.88071C4.44347 7.94386 4.31427 8.0388 4.21062 8.15854C4.11865 8.26822 4.05413 8.39824 4.02241 8.53782C3.99069 8.6774 3.99267 8.82253 4.0282 8.96119C4.2476 10.4686 4.90764 11.8775 5.92538 13.0109C6.43666 13.5535 7.01254 14.0314 7.64013 14.4338C8.28766 14.8073 8.9892 15.0781 9.71974 15.2365C8.62521 14.7622 8.26037 12.792 8.26037 12.792C7.20232 12.1353 6.50912 11.1502 5.99834 9.69087H6.03483C6.96175 9.71139 7.86232 10.0031 8.62521 10.53C8.80174 9.93143 9.0727 9.36488 9.42786 8.85174V8.85174Z" fill="url(#paint2_linear)"/>
<path d="M15.3748 10.5298C16.1355 9.99837 17.0374 9.70618 17.9652 9.69065H18.0017C17.4909 11.15 16.7612 12.1351 15.7032 12.7918V12.5729C15.6667 13.1567 15.4478 14.7255 14.1708 15.2727C14.9397 15.1084 15.6782 14.8253 16.3599 14.4336C17.0172 14.0733 17.5993 13.5903 18.0747 13.0107C19.0645 11.8591 19.7206 10.4586 19.9718 8.96097C20.0074 8.82231 20.0093 8.67718 19.9776 8.5376C19.9459 8.39802 19.8814 8.268 19.7894 8.15831C19.6806 8.04511 19.5504 7.95459 19.4063 7.89197C19.2623 7.82935 19.1073 7.79587 18.9503 7.79347H18.476C17.789 7.79225 17.104 7.86564 16.4329 8.01238C15.7461 8.16796 15.0997 8.46629 14.5357 8.888C14.8694 9.40592 15.1505 9.95592 15.3748 10.5298V10.5298Z" fill="url(#paint3_linear)"/>
<defs>
<linearGradient id="paint0_linear" x1="8.36985" y1="12.8757" x2="15.5755" y2="12.8757" gradientUnits="userSpaceOnUse">
<stop stop-color="#29DCE8"/>
<stop offset="1" stop-color="#29DC93"/>
</linearGradient>
<linearGradient id="paint1_linear" x1="12.0536" y1="11.4496" x2="12.0821" y2="11.4496" gradientUnits="userSpaceOnUse">
<stop stop-color="#29DCE8"/>
<stop offset="1" stop-color="#29DC93"/>
</linearGradient>
<linearGradient id="paint2_linear" x1="4.80076" y1="185.321" x2="93.857" y2="185.321" gradientUnits="userSpaceOnUse">
<stop stop-color="#29DCE8"/>
<stop offset="1" stop-color="#29DC93"/>
</linearGradient>
<linearGradient id="paint3_linear" x1="176.863" y1="185.8" x2="269.373" y2="185.8" gradientUnits="userSpaceOnUse">
<stop stop-color="#29DCE8"/>
<stop offset="1" stop-color="#29DC93"/>
</linearGradient>
</defs>
</svg>
