<svg width="24" height="24" viewBox="0 0 24 24" fill="none" xmlns="http://www.w3.org/2000/svg">
<path d="M12 24C18.6274 24 24 18.6274 24 12C24 5.37258 18.6274 0 12 0C5.37258 0 0 5.37258 0 12C0 18.6274 5.37258 24 12 24Z" fill="#23004D"/>
<path d="M23.5 12C23.5 18.3513 18.3513 23.5 12 23.5C5.64873 23.5 0.5 18.3513 0.5 12C0.5 5.64873 5.64873 0.5 12 0.5C18.3513 0.5 23.5 5.64873 23.5 12Z" stroke="black" stroke-opacity="0.097"/>
<path fill-rule="evenodd" clip-rule="evenodd" d="M7.8527 4.99698C7.82164 4.71103 7.97259 4.67964 8.05195 4.69969C8.05195 4.69969 9.36469 5.25731 11.9862 5.30307C14.6077 5.34883 16.0504 4.71923 16.0504 4.71923C16.1299 4.69957 16.2807 4.73171 16.2482 5.01749C16.2157 5.30328 16.1661 6.12901 16.1453 6.50615L17.654 6.50983C17.8393 6.50367 18.1819 6.61038 18.0695 7.08655C18.0466 7.18342 18.0131 7.34914 17.9701 7.5619C17.7486 8.65643 17.2751 10.9959 16.7085 11.6095C16.3103 12.0849 15.7738 12.3219 15.3566 12.4201C15.0092 12.5234 14.6468 12.5053 14.5215 12.499C14.5035 12.4981 14.4904 12.4974 14.483 12.4974C14.204 12.9136 13.4911 13.8131 12.871 14.0816C12.6689 14.1545 12.6705 14.228 12.6718 14.2857C12.6719 14.2905 12.672 14.295 12.672 14.2995C12.7038 14.8355 12.8385 16.035 13.1231 16.5439C13.1609 16.6198 13.1715 16.6776 13.1788 16.7172C13.1867 16.7606 13.1907 16.7823 13.2218 16.7824L13.599 16.7833C13.6387 16.7833 13.734 16.7836 13.7973 16.8632C13.8311 16.9057 13.8906 16.9047 13.9551 16.9037C14.0416 16.9022 14.1375 16.9007 14.194 17.0031C14.2546 17.1127 14.242 17.2298 14.2355 17.2901C14.2341 17.3033 14.2329 17.3137 14.2329 17.3208L14.8285 17.3223C14.9013 17.3224 15.0468 17.3585 15.0464 17.5015L15.0435 18.6926C15.0435 18.7143 15.0419 18.732 15.0406 18.7465C15.0349 18.8116 15.0349 18.8116 15.2021 18.8121L15.7182 18.8133C15.7513 18.8135 15.8174 18.8176 15.817 18.9923L15.8157 19.5282C15.8156 19.568 15.8154 19.6474 15.6367 19.6469L8.39266 19.6292C8.21399 19.6288 8.21419 19.5494 8.21428 19.5097L8.2156 18.9737C8.21602 18.799 8.28216 18.7952 8.31529 18.7952L8.83144 18.7965C8.99855 18.7969 8.99855 18.7969 8.99316 18.7317C8.99196 18.7172 8.99049 18.6995 8.99055 18.6778L8.99346 17.4867C8.9938 17.3438 9.13947 17.3084 9.21227 17.3085L9.80782 17.31C9.80784 17.3029 9.80677 17.2925 9.80542 17.2793C9.79923 17.219 9.7872 17.1018 9.8483 16.9925C9.90537 16.8903 10.0012 16.8924 10.0877 16.8942C10.1523 16.8956 10.2116 16.8968 10.2457 16.8545C10.3094 16.7752 10.4047 16.7755 10.4444 16.7755L10.8216 16.7764C10.8527 16.7766 10.8568 16.7549 10.8649 16.7116C10.8724 16.672 10.8833 16.6143 10.9214 16.5385C11.2085 16.031 11.3491 14.8323 11.3835 14.2964C11.3835 14.2919 11.3836 14.2873 11.3838 14.2827C11.3853 14.2249 11.3873 14.1514 11.1855 14.0775C10.5668 13.806 9.85829 12.903 9.58138 12.4854C9.57396 12.4854 9.56096 12.486 9.54313 12.4868H9.54303H9.54284C9.41752 12.4925 9.05506 12.5089 8.7081 12.4039C8.29145 12.3036 7.75603 12.0641 7.36015 11.5867C6.79654 10.9703 6.33455 8.62856 6.11841 7.53293C6.07639 7.31997 6.04367 7.15409 6.02129 7.05711C5.91128 6.5804 6.25432 6.47536 6.43958 6.48243L7.94832 6.48611C7.9294 6.10888 7.88377 5.28293 7.8527 4.99698ZM6.84603 7.14613C6.61393 7.14208 6.66904 7.41343 6.71098 7.61989C6.71642 7.64671 6.72164 7.67236 6.72598 7.69626C6.76377 7.90397 6.93933 8.76025 7.40124 10.1378C7.86314 11.5154 8.75598 11.6156 9.14466 11.4936C8.87859 10.9183 8.31711 9.07699 8.20398 8.43996C8.09084 7.80293 7.95011 7.16539 7.7845 7.16251L6.84603 7.14613ZM17.3667 7.70189C17.4122 7.49616 17.472 7.22581 17.2399 7.22581H16.3013C16.1357 7.22581 15.9839 7.86075 15.8596 8.49569C15.7354 9.13064 15.1418 10.9619 14.8657 11.5325C15.2522 11.6612 16.1467 11.5766 16.6326 10.2073C17.1184 8.83801 17.3089 7.985 17.3503 7.77791C17.3551 7.75415 17.3608 7.72857 17.3667 7.70189ZM13.3844 9.83674L12.0312 10.6884L10.6838 9.82736L12.0272 11.7862V11.7867L12.0274 11.7865L12.0276 11.7867V11.7862L13.3844 9.83674ZM12.0445 6.95339V6.95213L12.0441 6.95276L12.0437 6.95214L12.0437 6.95337L10.677 9.2888L12.0328 10.139L12.0327 10.1394L12.0331 10.1392L12.0335 10.1394V10.139L13.395 9.29825L12.0445 6.95339Z" fill="white"/>
<path d="M16.1923 4.72699C16.1889 5.10814 14.3447 5.40106 12.073 5.38123C9.80135 5.3614 7.90729 5.03538 7.91062 4.65423C7.91395 4.27308 9.8134 3.98113 12.0851 4.00095C14.3568 4.02078 16.1956 4.34583 16.1923 4.72699Z" fill="white" fill-opacity="0.78"/>
</svg>
