<svg width="24" height="24" viewBox="0 0 24 24" fill="none" xmlns="http://www.w3.org/2000/svg">
<path d="M12 24C18.6274 24 24 18.6274 24 12C24 5.37258 18.6274 0 12 0C5.37258 0 0 5.37258 0 12C0 18.6274 5.37258 24 12 24Z" fill="#06CFC1"/>
<path d="M23.5 12C23.5 18.3513 18.3513 23.5 12 23.5C5.64873 23.5 0.5 18.3513 0.5 12C0.5 5.64873 5.64873 0.5 12 0.5C18.3513 0.5 23.5 5.64873 23.5 12Z" stroke="black" stroke-opacity="0.097"/>
<path d="M13.6022 10.8329C13.7131 10.8395 13.8253 10.837 13.9342 10.8551C14.0392 10.8727 14.1412 10.9089 14.2429 10.9412C14.3088 10.9622 14.3723 10.9907 14.4361 11.0174C14.4547 11.0252 14.4703 11.0395 14.4886 11.0486C14.5035 11.0559 14.5233 11.0675 14.5347 11.0627C14.5458 11.058 14.5528 11.0351 14.5543 11.0193C14.558 10.9816 14.5538 10.9428 14.5589 10.9054C14.577 10.7771 14.5917 10.6475 14.6198 10.5213C14.6381 10.4392 14.6737 10.3603 14.7086 10.283C14.7465 10.1988 14.7867 10.1145 14.8362 10.0368C14.9196 9.90572 15.0181 9.78593 15.1493 9.69813C15.2224 9.64918 15.295 9.59928 15.3702 9.55395C15.4104 9.52977 15.4544 9.51053 15.4992 9.49625C15.5818 9.46996 15.6649 9.44044 15.75 9.42787C15.974 9.39511 16.1999 9.39245 16.4233 9.42825C16.5214 9.44387 16.616 9.48425 16.7107 9.51777C16.7577 9.53434 16.8017 9.56005 16.8468 9.58214C17.0083 9.66118 17.1358 9.78021 17.2531 9.91448C17.335 10.0086 17.395 10.1152 17.4517 10.2234C17.4887 10.2937 17.5041 10.3748 17.5338 10.4491C17.5927 10.5969 17.605 10.7538 17.6229 10.9087C17.6399 11.0551 17.6342 11.2031 17.6022 11.3486C17.5919 11.3949 17.5923 11.4438 17.5793 11.4892C17.5506 11.5903 17.5188 11.6907 17.4839 11.7899C17.4658 11.8417 17.4392 11.8905 17.4155 11.9402C17.3523 12.0725 17.2651 12.1883 17.1582 12.2874C17.0834 12.3567 17.0028 12.4207 16.9194 12.4795C16.8674 12.5161 16.8068 12.5416 16.7478 12.567C16.6728 12.5989 16.5972 12.633 16.5185 12.6527C16.436 12.6732 16.3496 12.677 16.2652 12.6898C16.0837 12.717 15.9035 12.6938 15.7253 12.6671C15.6352 12.6536 15.5495 12.6098 15.4619 12.5797C15.4483 12.5751 15.4354 12.5692 15.4217 12.5656C15.3756 12.5538 15.3636 12.5626 15.363 12.61C15.3622 12.7003 15.3601 12.7909 15.3634 12.881C15.3693 13.045 15.3242 13.2015 15.2897 13.3587C15.2666 13.4638 15.2263 13.5676 15.1783 13.6644C15.1093 13.8034 15.0314 13.9377 14.9274 14.0567C14.8267 14.1721 14.7137 14.2717 14.5894 14.3588C14.5395 14.3936 14.4829 14.4195 14.4279 14.4467C14.3646 14.4782 14.302 14.5128 14.2353 14.5351C14.1487 14.5641 14.0595 14.5898 13.9693 14.6033C13.72 14.6406 13.4689 14.6389 13.2202 14.6012C13.1215 14.5863 13.0263 14.5471 12.9309 14.5147C12.8745 14.4955 12.8208 14.4685 12.7663 14.4439C12.6504 14.3917 12.5429 14.3239 12.4525 14.2357C12.3571 14.1424 12.2656 14.0434 12.1845 13.9377C12.1268 13.8626 12.0868 13.7733 12.0432 13.6882C12.0104 13.624 11.9845 13.5564 11.9558 13.4903C11.952 13.4815 11.9474 13.4729 11.9455 13.4638C11.9213 13.3497 11.892 13.2364 11.875 13.1212C11.8556 12.9898 11.8367 12.8568 11.8367 12.7245C11.8367 12.5953 11.8565 12.4654 11.876 12.3373C11.8929 12.2253 11.912 12.1118 11.9476 12.0049C11.9841 11.8954 12.0356 11.7895 12.0919 11.6884C12.1491 11.5857 12.2127 11.4846 12.2873 11.3943C12.3542 11.3138 12.4367 11.2448 12.5184 11.1783C12.5852 11.1241 12.6593 11.078 12.734 11.0346C12.7881 11.0031 12.8467 10.978 12.9059 10.9576C13.0042 10.9241 13.104 10.8949 13.2044 10.8675C13.2484 10.8555 13.2945 10.8483 13.34 10.8466C13.427 10.8433 13.5143 10.8456 13.6015 10.8456C13.6021 10.841 13.6022 10.8369 13.6022 10.8329ZM14.7276 12.7972C14.7168 12.4797 14.6863 12.2394 14.5606 12.0226C14.5143 11.9428 14.4629 11.8644 14.4031 11.7945C14.3262 11.7046 14.2355 11.6295 14.1247 11.5789C14.0224 11.5322 13.9226 11.4829 13.8083 11.4741C13.7895 11.4726 13.7704 11.4695 13.7519 11.4654C13.5889 11.4278 13.4276 11.4591 13.2724 11.4981C13.1617 11.5259 13.049 11.5707 12.9597 11.6491C12.8842 11.715 12.8088 11.7832 12.7462 11.8607C12.6926 11.927 12.6502 12.0049 12.6155 12.0832C12.5763 12.1719 12.537 12.2647 12.5229 12.3595C12.4923 12.5664 12.4841 12.7745 12.5069 12.9848C12.5199 13.1048 12.5481 13.22 12.5898 13.3292C12.6347 13.4469 12.7022 13.5556 12.7873 13.6533C12.9358 13.824 13.1175 13.9323 13.3377 13.9792C13.364 13.9847 13.3905 13.9906 13.4164 13.9976C13.532 14.0291 13.6493 14.031 13.7643 14.0032C13.8636 13.9792 13.9674 13.9689 14.0588 13.9165C14.1064 13.8893 14.162 13.8735 14.205 13.8407C14.2763 13.7864 14.3445 13.7264 14.4065 13.6621C14.5269 13.5373 14.6109 13.3865 14.6545 13.2217C14.6974 13.0606 14.7385 12.8955 14.7276 12.7972ZM15.1261 11.0464C15.1287 11.0464 15.1312 11.0465 15.1339 11.0465C15.1339 11.0924 15.1366 11.1385 15.1333 11.1842C15.1244 11.313 15.1785 11.4294 15.2023 11.5514C15.2034 11.5575 15.207 11.5633 15.2101 11.5688C15.243 11.6293 15.2718 11.6931 15.3106 11.7497C15.3521 11.8103 15.3973 11.871 15.4521 11.9188C15.5129 11.972 15.583 12.0169 15.6552 12.0539C15.7287 12.0916 15.8075 12.1314 15.8875 12.1417C16.0595 12.1636 16.2328 12.1773 16.4025 12.1074C16.4829 12.0742 16.5608 12.0407 16.6339 11.9935C16.8093 11.88 16.9103 11.7099 16.9863 11.5246C17.0205 11.441 17.0365 11.3475 17.0472 11.2568C17.0586 11.1597 17.0518 11.0605 17.0569 10.9626C17.0641 10.8264 17.0123 10.7011 16.9895 10.5706C16.988 10.5615 16.9832 10.5527 16.9788 10.5443C16.9466 10.4832 16.9194 10.4186 16.8806 10.3619C16.8364 10.2973 16.7886 10.2322 16.7301 10.1809C16.6671 10.1257 16.5939 10.0779 16.5181 10.0421C16.4337 10.0023 16.3431 9.964 16.2517 9.95277C16.0923 9.93315 15.9325 9.93124 15.774 9.99086C15.6734 10.0286 15.5788 10.0733 15.4938 10.1347C15.3931 10.2074 15.3228 10.3116 15.2617 10.418C15.2009 10.5238 15.1674 10.6426 15.1466 10.762C15.1307 10.8553 15.1324 10.9515 15.1261 11.0464Z" fill="white"/>
<path d="M10.8261 14.1822C10.7566 14.2407 10.6903 14.3037 10.6166 14.3567C10.5414 14.4106 10.4602 14.4563 10.3795 14.502C10.3208 14.535 10.2608 14.5673 10.1978 14.5902C10.1193 14.6186 10.0386 14.6464 9.95649 14.6572C9.76413 14.6826 9.56949 14.6864 9.3777 14.657C9.28076 14.6422 9.18763 14.602 9.09392 14.5698C9.04669 14.5536 9.00231 14.5289 8.95603 14.5093C8.76882 14.4304 8.61569 14.3041 8.47971 14.1577C8.38105 14.0514 8.29477 13.9354 8.22545 13.8063C8.15136 13.668 8.09023 13.5269 8.05194 13.3738C7.98567 13.109 7.94929 12.8428 7.9769 12.5702C7.98757 12.4662 7.99709 12.3613 8.01938 12.2596C8.03975 12.1663 8.07537 12.0762 8.10699 11.9857C8.12451 11.9356 8.1485 11.8876 8.16888 11.8383C8.24164 11.6629 8.34943 11.5092 8.47723 11.3715C8.56789 11.2738 8.66673 11.1837 8.78386 11.114C8.89509 11.0477 9.00803 10.9898 9.12973 10.9437C9.36304 10.8554 9.60244 10.8236 9.84736 10.8556C9.96335 10.8708 10.0822 10.8881 10.1904 10.9416C10.2367 10.9645 10.2864 10.9803 10.3338 11.0013C10.4913 11.0712 10.6275 11.1729 10.7549 11.2871C10.7619 11.2934 10.769 11.3001 10.7766 11.3054C10.7943 11.3178 10.8126 11.3296 10.8385 11.3471C10.8406 11.3176 10.8434 11.2949 10.8434 11.2725C10.8436 10.7634 10.8434 10.2545 10.844 9.7454C10.844 9.69474 10.8478 9.64408 10.8503 9.59342C10.8556 9.4839 10.917 9.41344 11.0036 9.35249C11.0901 9.29154 11.1825 9.29764 11.2723 9.31764C11.3413 9.33306 11.3933 9.38772 11.4375 9.44543C11.4889 9.51247 11.4967 9.58923 11.4967 9.6696C11.4963 11.2077 11.4963 12.7458 11.4969 14.2841C11.4969 14.3668 11.4898 14.4481 11.4333 14.5115C11.3977 14.5513 11.3521 14.5849 11.3057 14.6119C11.2712 14.6321 11.2278 14.6483 11.1889 14.6473C11.0756 14.645 10.9815 14.6016 10.9065 14.5096C10.8471 14.4367 10.8522 14.354 10.8442 14.2718C10.8415 14.2439 10.8412 14.216 10.8398 14.1881C10.8353 14.1859 10.8307 14.184 10.8261 14.1822ZM10.8438 12.7653C10.8438 12.5401 10.8442 12.315 10.8433 12.0897C10.8431 12.0634 10.8444 12.0305 10.8303 12.0124C10.7928 11.9644 10.7497 11.9198 10.7038 11.8796C10.6471 11.8299 10.5877 11.7823 10.525 11.7402C10.4507 11.6905 10.3751 11.6404 10.294 11.604C10.2127 11.5677 10.1231 11.5503 10.0388 11.5204C9.90164 11.4717 9.75994 11.4743 9.61996 11.4892C9.51864 11.5001 9.41541 11.5223 9.32095 11.5595C9.2301 11.5953 9.14306 11.6486 9.06574 11.709C8.99203 11.7667 8.92632 11.8383 8.86976 11.9133C8.82024 11.9789 8.77986 12.0543 8.74996 12.1308C8.71035 12.2329 8.67092 12.3386 8.65607 12.4462C8.62655 12.6601 8.63112 12.8769 8.65569 13.0915C8.66578 13.1801 8.68863 13.2705 8.72406 13.352C8.76882 13.4553 8.82671 13.5545 8.88995 13.6478C8.92975 13.7065 8.98555 13.7568 9.04193 13.8008C9.10592 13.8507 9.17563 13.896 9.24857 13.9314C9.3259 13.9687 9.40817 14.0089 9.4914 14.0181C9.70814 14.0421 9.92488 14.0571 10.1397 13.9823C10.2479 13.9446 10.3513 13.8998 10.4482 13.8428C10.5749 13.7684 10.688 13.6737 10.789 13.5661C10.8253 13.5273 10.8463 13.4848 10.8453 13.4267C10.8415 13.2062 10.8438 12.9856 10.8438 12.7653Z" fill="white"/>
<path d="M3.65498 14.1869C3.65269 14.2387 3.65021 14.2906 3.64812 14.3425C3.64298 14.4759 3.56508 14.5799 3.43824 14.6202C3.40091 14.632 3.36148 14.6528 3.32511 14.6492C3.21236 14.6379 3.11427 14.5989 3.04952 14.4928C3.01238 14.4319 3.00133 14.3705 3.00114 14.3035C3.00133 12.7528 3.0019 11.2021 3 9.65164C2.99981 9.49623 3.07333 9.38729 3.20264 9.32653C3.28778 9.28635 3.3891 9.28863 3.48128 9.34158C3.54318 9.37719 3.5866 9.42728 3.62088 9.48632C3.63536 9.51127 3.64221 9.54251 3.64507 9.57184C3.64964 9.61907 3.64926 9.66688 3.64926 9.7143C3.64945 10.2169 3.64926 10.7195 3.64964 11.2221C3.64964 11.2621 3.65364 11.3021 3.6565 11.3545C3.69383 11.325 3.7203 11.3036 3.74716 11.2829C3.81686 11.229 3.88428 11.1715 3.95742 11.1225C4.03569 11.07 4.11759 11.0225 4.20082 10.9785C4.25205 10.9515 4.30709 10.9294 4.36309 10.9142C4.58668 10.8534 4.81428 10.8212 5.04492 10.8582C5.15157 10.8753 5.2567 10.9086 5.3586 10.9452C5.46182 10.9823 5.56333 11.0271 5.6597 11.0791C5.73113 11.1176 5.79836 11.1679 5.85835 11.2227C5.94748 11.3042 6.03414 11.3899 6.11146 11.4825C6.17165 11.5543 6.21755 11.6383 6.26707 11.7186C6.2983 11.7693 6.32706 11.8221 6.35258 11.876C6.37734 11.9285 6.40191 11.9822 6.41695 12.038C6.44514 12.143 6.47295 12.2489 6.48857 12.3561C6.50894 12.4953 6.53047 12.6366 6.52723 12.7764C6.52342 12.9467 6.50723 13.1193 6.47219 13.2857C6.44324 13.4226 6.40572 13.5619 6.33239 13.6859C6.26764 13.7954 6.21241 13.9117 6.13756 14.0136C6.06728 14.1094 5.98234 14.1968 5.89339 14.2763C5.8094 14.3513 5.71379 14.4143 5.61895 14.4761C5.56676 14.51 5.50677 14.5332 5.44811 14.5557C5.36602 14.5871 5.28184 14.6136 5.19842 14.6414C5.17443 14.6494 5.14986 14.6574 5.1251 14.6602C4.92893 14.6827 4.73181 14.6873 4.53678 14.6579C4.44327 14.6438 4.35337 14.604 4.26329 14.5717C4.20444 14.5505 4.14597 14.5263 4.09188 14.4953C4.01684 14.4522 3.9439 14.405 3.87457 14.3536C3.80315 14.3005 3.73725 14.2397 3.66888 14.1824C3.66431 14.1835 3.65955 14.1852 3.65498 14.1869ZM3.64926 12.765C3.64926 12.9823 3.65231 13.1996 3.64736 13.4167C3.64583 13.4828 3.67078 13.5287 3.71268 13.5712C3.82848 13.6883 3.95285 13.7948 4.1014 13.8695C4.14483 13.8914 4.18768 13.9155 4.23282 13.9331C4.31471 13.9649 4.39604 14.0051 4.48136 14.0192C4.6522 14.0475 4.82646 14.0466 4.99806 14.0214C5.07367 14.0104 5.14833 13.9832 5.21918 13.9533C5.27956 13.9279 5.33707 13.8927 5.38983 13.8536C5.4502 13.8091 5.50886 13.7601 5.55972 13.7051C5.64371 13.6144 5.70713 13.5101 5.75284 13.3933C5.79626 13.2825 5.83816 13.1711 5.84483 13.0526C5.85378 12.8913 5.8534 12.7294 5.85225 12.5679C5.85111 12.4159 5.80731 12.2734 5.75093 12.1329C5.70675 12.0226 5.64713 11.924 5.56867 11.8369C5.4304 11.6834 5.2668 11.5693 5.05901 11.5301C5.04358 11.5272 5.02835 11.5223 5.01311 11.5177C4.84646 11.4665 4.67753 11.4726 4.51012 11.5076C4.4166 11.5272 4.32423 11.5581 4.23605 11.5952C4.14959 11.6316 4.06426 11.6756 3.98751 11.7291C3.89876 11.7908 3.82067 11.8676 3.7363 11.9358C3.67593 11.9845 3.64679 12.0428 3.64812 12.123C3.65174 12.3369 3.64945 12.5509 3.64926 12.765Z" fill="white"/>
<path d="M18.6358 11.5096C18.6593 11.4954 18.6854 11.4839 18.7057 11.4662C18.8071 11.3782 18.9011 11.2807 19.0091 11.2019C19.1204 11.1207 19.2382 11.0493 19.3708 11.0002C19.6049 10.9133 19.8439 10.883 20.0886 10.9149C20.1901 10.928 20.2892 10.9668 20.3871 11.0004C20.4493 11.0217 20.5124 11.0474 20.5661 11.0844C20.6398 11.135 20.7126 11.1914 20.7722 11.2575C20.848 11.3413 20.916 11.4335 20.9761 11.5293C21.0158 11.5923 21.0394 11.6664 21.0628 11.738C21.0958 11.8382 21.1297 11.9391 21.1483 12.0423C21.1645 12.1321 21.1636 12.2254 21.1637 12.3172C21.1649 13.0038 21.1628 13.6902 21.1658 14.3768C21.1664 14.4846 21.1325 14.5687 21.0573 14.6428C20.9645 14.7342 20.7922 14.7518 20.6808 14.6849C20.5619 14.6135 20.5141 14.5097 20.5156 14.3764C20.5166 14.2891 20.5152 14.2019 20.5152 14.1147C20.5152 13.5502 20.5187 12.9857 20.5128 12.4214C20.5112 12.2833 20.492 12.1423 20.4579 12.0084C20.4227 11.8698 20.3417 11.7483 20.221 11.6651C20.1667 11.6275 20.0976 11.6121 20.0364 11.5837C19.8972 11.519 19.7494 11.5335 19.6056 11.5479C19.5037 11.5582 19.4039 11.5913 19.308 11.6357C19.0613 11.7496 18.877 11.9344 18.7027 12.1351C18.6427 12.2042 18.6193 12.2758 18.6196 12.3665C18.6223 13.015 18.6212 13.6635 18.6208 14.312C18.6208 14.3594 18.6196 14.4072 18.6137 14.4543C18.5876 14.6615 18.3785 14.774 18.1833 14.7112C18.1128 14.6883 18.0588 14.6331 18.015 14.5661C17.9555 14.4754 17.967 14.3773 17.9668 14.281C17.9652 13.1108 17.9656 11.9406 17.9656 10.7707C17.9656 10.4488 17.9654 10.1269 17.9658 9.80507C17.9658 9.75746 17.9675 9.71003 17.9696 9.66242C17.9742 9.56072 18.0273 9.48492 18.1008 9.42016C18.1928 9.33903 18.3043 9.34265 18.4063 9.37483C18.5078 9.40683 18.5861 9.48244 18.6069 9.59576C18.6176 9.65461 18.6206 9.71556 18.6206 9.77536C18.6216 10.3303 18.6212 10.8851 18.6212 11.4401C18.6212 11.4603 18.6212 11.4805 18.6212 11.5007C18.6263 11.5035 18.6311 11.5066 18.6358 11.5096Z" fill="white"/>
<path d="M6.92657 12.6917C6.92657 12.2207 6.92657 11.7499 6.92657 11.2789C6.92657 11.2393 6.92829 11.1997 6.92734 11.1601C6.92391 11.0068 7.01628 10.914 7.14141 10.8601C7.21949 10.8266 7.30901 10.8321 7.39243 10.8811C7.52175 10.9567 7.56974 11.0662 7.56955 11.2113C7.56784 12.2007 7.56765 13.1901 7.56993 14.1797C7.57012 14.2999 7.53413 14.4007 7.43928 14.4694C7.35681 14.529 7.25168 14.5698 7.14122 14.5222C7.05627 14.4856 6.99533 14.4302 6.95191 14.3529C6.93914 14.3302 6.93305 14.3022 6.93076 14.2761C6.92677 14.2289 6.92696 14.1811 6.92696 14.1335C6.92657 13.6526 6.92677 13.1722 6.92657 12.6917Z" fill="white"/>
<path d="M7.62481 9.78234C7.63947 9.91527 7.58195 10.016 7.48882 10.093C7.43873 10.1343 7.37798 10.169 7.30522 10.172C7.21038 10.1758 7.11896 10.1724 7.03782 10.1151C6.95078 10.0535 6.88889 9.97451 6.87403 9.86671C6.86813 9.82309 6.87194 9.77815 6.87194 9.73396C6.87175 9.62312 6.93174 9.5437 7.01154 9.47742C7.13534 9.37476 7.27875 9.38619 7.41588 9.43285C7.47339 9.45247 7.52215 9.51037 7.56348 9.56046C7.61623 9.62407 7.63833 9.70235 7.62481 9.78234Z" fill="white"/>
</svg>
