<svg width="24" height="24" viewBox="0 0 24 24" fill="none" xmlns="http://www.w3.org/2000/svg">
<path d="M12 24C18.6274 24 24 18.6274 24 12C24 5.37258 18.6274 0 12 0C5.37258 0 0 5.37258 0 12C0 18.6274 5.37258 24 12 24Z" fill="#171D2C"/>
<path d="M11.7517 4C11.7694 4.0278 11.7835 4.04691 11.7948 4.06763C11.9536 4.35844 12.1121 4.64939 12.2705 4.94034C12.4819 5.32899 12.6931 5.7179 12.9045 6.10654C13.1116 6.48744 13.3191 6.8682 13.5266 7.24896C13.7426 7.64535 13.9586 8.04162 14.1745 8.43788C14.4513 8.94547 14.7284 9.4528 15.0049 9.96052C15.2165 10.3492 15.4271 10.7382 15.6386 11.1269C15.8715 11.5545 16.1051 11.9818 16.3383 12.4092C16.3925 12.5088 16.4441 12.6098 16.5009 12.7079C16.5234 12.7467 16.5191 12.7762 16.4972 12.812C16.2987 13.1364 16.1013 13.4614 15.9037 13.7862C15.7199 14.0882 15.5363 14.3904 15.3525 14.6923C15.275 14.8195 15.1972 14.9465 15.1197 15.0737C15.105 15.0978 15.0914 15.1225 15.0732 15.1539C15.0967 15.1575 15.111 15.1601 15.1256 15.1617C15.1344 15.1626 15.1433 15.1618 15.1523 15.1619C16.0177 15.1638 16.8832 15.1658 17.7485 15.1677C17.7596 15.1677 17.7708 15.1686 17.7819 15.1675C17.8252 15.1633 17.8505 15.1826 17.8711 15.2211C17.9938 15.4505 18.1187 15.6786 18.2432 15.9071C18.4802 16.3426 18.7175 16.778 18.9546 17.2134C18.9693 17.2404 18.9826 17.2683 19 17.3024C18.9769 17.3064 18.9603 17.3108 18.9436 17.3119C18.9214 17.3134 18.8991 17.3124 18.8769 17.3124C15.6976 17.3124 12.5181 17.3124 9.3388 17.3124C9.21156 17.3124 9.2113 17.3126 9.14795 17.2031C8.81583 16.6298 8.48386 16.0563 8.15188 15.4829C8.10617 15.4041 8.06046 15.3252 8.01422 15.2467C8.00433 15.2298 7.9919 15.2143 7.97626 15.192C7.9617 15.2118 7.94927 15.2262 7.93938 15.2422C7.67355 15.6791 7.408 16.1163 7.14244 16.5533C7.00265 16.7832 6.86152 17.0123 6.72399 17.2436C6.69446 17.2933 6.66171 17.3138 6.60224 17.3136C5.7612 17.3118 4.92016 17.3123 4.07925 17.3122C4.0556 17.3122 4.03181 17.3092 4 17.3071C4.00936 17.2838 4.0139 17.2674 4.02219 17.2532C4.30177 16.7728 4.58163 16.2924 4.86149 15.8123C5.09885 15.4049 5.3362 14.9975 5.57369 14.5903C5.88068 14.064 6.18793 13.538 6.49465 13.0115C6.82944 12.4371 7.16342 11.8623 7.49821 11.2879C7.87884 10.6348 8.25973 9.98177 8.64049 9.32864C8.70985 9.20956 8.78082 9.09128 8.84724 8.9706C8.86889 8.93144 8.89535 8.91914 8.93772 8.91941C9.11119 8.92101 9.2848 8.91995 9.45841 8.92008C9.66316 8.92021 9.86777 8.92061 10.0725 8.92101C10.5508 8.92208 11.0292 8.92329 11.5075 8.92409C11.5354 8.92409 11.5632 8.92088 11.6009 8.91861C11.5744 8.87237 11.5537 8.83602 11.5327 8.7998C11.2755 8.35529 11.0183 7.91064 10.7609 7.46613C10.5994 7.18721 10.438 6.90802 10.2745 6.63017C10.2509 6.59008 10.252 6.56027 10.2751 6.52085C10.5125 6.11617 10.7478 5.71028 10.984 5.3048C11.2268 4.88782 11.4698 4.47097 11.7129 4.05426C11.7221 4.03822 11.7347 4.02352 11.7517 4ZM15.0003 15.1568C14.7154 14.6287 14.4334 14.1149 14.1536 13.6003C13.8722 13.0826 13.5901 12.5654 13.3082 12.048C13.0275 11.5325 12.7473 11.0167 12.466 10.5015C12.1844 9.98605 11.9056 9.46897 11.6196 8.95042C11.5613 9.03448 8.01663 15.1007 8.00994 15.157C10.3339 15.1568 12.6574 15.1568 15.0003 15.1568Z" fill="white"/>
<path d="M23.5 12C23.5 18.3513 18.3513 23.5 12 23.5C5.64873 23.5 0.5 18.3513 0.5 12C0.5 5.64873 5.64873 0.5 12 0.5C18.3513 0.5 23.5 5.64873 23.5 12Z" stroke="white" stroke-opacity="0.3"/>
</svg>
