<svg width="24" height="24" viewBox="0 0 24 24" fill="none" xmlns="http://www.w3.org/2000/svg">
<path d="M12 24C18.6274 24 24 18.6274 24 12C24 5.37258 18.6274 0 12 0C5.37258 0 0 5.37258 0 12C0 18.6274 5.37258 24 12 24Z" fill="#4285F4"/>
<path d="M23.5 12C23.5 18.3513 18.3513 23.5 12 23.5C5.64873 23.5 0.5 18.3513 0.5 12C0.5 5.64873 5.64873 0.5 12 0.5C18.3513 0.5 23.5 5.64873 23.5 12Z" stroke="white" stroke-opacity="0.3"/>
<path d="M18.6226 5.03718C18.5131 4.99488 18.396 4.97589 18.2788 4.9814C17.3366 4.9814 15.4521 6.13134 13.2801 7.95986H7.97828V13.2701C7.33705 14.0251 6.73708 14.8141 6.18102 15.6339C5.22284 17.0792 4.84744 18.0533 5.05577 18.6044C5.09248 18.6962 5.14753 18.7796 5.21756 18.8495C5.28758 18.9193 5.37111 18.9742 5.46305 19.0107C5.56959 19.0402 5.67994 19.0537 5.79046 19.0507C6.73285 19.0507 8.61733 17.9008 10.7894 16.0721H9.94292C7.97046 17.6693 6.44529 18.5076 5.79046 18.5076C5.71935 18.514 5.64836 18.4942 5.59089 18.4518C5.45508 18.316 5.49509 17.6134 6.62893 15.9124C7.00401 15.3455 7.45942 14.7387 7.97047 14.0995V16.0718H9.9348C12.1844 14.2242 14.249 12.1623 16.0994 9.91513V7.94313H14.1263C16.0988 6.34606 17.624 5.50775 18.2787 5.50775C18.3498 5.50151 18.4208 5.52135 18.4784 5.56355C18.6142 5.69937 18.5742 6.40202 17.4403 8.10302C17.0653 8.66986 16.6098 9.27671 16.0988 9.91591V10.7703C16.7402 10.0155 17.3401 9.22645 17.8961 8.40668C18.8622 6.96136 19.2296 5.98707 19.0213 5.43617C18.9405 5.25971 18.799 5.11812 18.6226 5.03718Z" fill="white"/>
<path d="M10.7975 16.0728H16.1077V10.7627C15.3491 11.6649 14.4947 12.5993 13.5684 13.5255C12.6183 14.4679 11.6833 15.3303 10.7975 16.0728Z" fill="white"/>
</svg>
