<svg width="24" height="24" viewBox="0 0 24 24" fill="none" xmlns="http://www.w3.org/2000/svg">
<path d="M12 24C18.6274 24 24 18.6274 24 12C24 5.37258 18.6274 0 12 0C5.37258 0 0 5.37258 0 12C0 18.6274 5.37258 24 12 24Z" fill="#3A88EE"/>
<path d="M23.5 12C23.5 18.3513 18.3513 23.5 12 23.5C5.64873 23.5 0.5 18.3513 0.5 12C0.5 5.64873 5.64873 0.5 12 0.5C18.3513 0.5 23.5 5.64873 23.5 12Z" stroke="black" stroke-opacity="0.097"/>
<path d="M4.55039 12.5057C5.39317 12.5315 6.22735 12.5229 7.07013 12.4111C7.37973 12.3681 7.49152 12.2477 7.49152 11.9209C7.47432 10.2095 7.49152 8.49817 7.47432 6.78681C7.47432 6.43422 7.56892 6.32242 7.93011 6.33102C8.92769 6.35682 9.92527 6.34822 10.9228 6.33102C11.2066 6.33102 11.2926 6.42562 11.284 6.70081C11.2754 7.88759 11.2754 9.06576 11.2754 10.2525C11.2754 10.4073 11.2754 10.5621 11.2754 10.7599C11.7398 10.5535 12.058 10.2611 12.3934 9.98594C13.0126 9.47855 13.5458 8.88517 14.0532 8.26598C14.2338 8.03378 14.2424 7.86179 14.0876 7.62959C13.8382 7.2426 13.6146 6.82981 13.3394 6.34822C14.0102 6.34822 14.5864 6.34822 15.1712 6.34822C15.9881 6.34822 16.7965 6.35682 17.6049 6.33962C17.9403 6.33102 18.0693 6.37402 17.8973 6.75241C16.2719 10.3041 13.5544 12.4799 9.71027 13.1937C7.76672 13.5549 5.84896 13.3485 4 12.6089C4.1634 12.3423 4.36979 12.5057 4.55039 12.5057Z" fill="#FEFEFE"/>
<path d="M7.48318 15.9887C7.48318 15.4469 7.49178 14.9051 7.48318 14.3633C7.47458 14.1311 7.55198 14.0365 7.80137 14.0365C10.1921 14.0537 12.3851 13.4002 14.3716 12.0758C14.5608 11.9468 14.6468 11.964 14.7672 12.1618C15.8164 14.0107 16.8656 15.8511 17.9234 17.7001C18.0437 17.9065 18.0437 18.0011 17.7686 18.0011C16.7022 17.9925 15.6272 17.9925 14.5608 18.0011C14.3028 18.0011 14.2168 17.8549 14.1222 17.6743C13.589 16.6681 13.0387 15.6705 12.5141 14.6557C12.3851 14.3977 12.2647 14.3031 11.9637 14.4149C11.3015 14.6643 11.3015 14.6385 11.3015 15.3437C11.3015 16.1177 11.2929 16.8831 11.3101 17.6571C11.3187 17.9151 11.2327 18.0097 10.9661 18.0011C9.92552 17.9925 8.88495 17.9925 7.84437 18.0011C7.58638 18.0011 7.49178 17.9151 7.50038 17.6571C7.49178 17.1067 7.48318 16.5477 7.48318 15.9887Z" fill="#FEFEFE"/>
</svg>
