<svg width="24" height="24" viewBox="0 0 24 24" fill="none" xmlns="http://www.w3.org/2000/svg">
<path d="M12 24C18.6274 24 24 18.6274 24 12C24 5.37258 18.6274 0 12 0C5.37258 0 0 5.37258 0 12C0 18.6274 5.37258 24 12 24Z" fill="#37EB77"/>
<path d="M12.0148 20.4724L15.5031 18.7329L7.52147 14.75L4.05365 16.4783L12.0148 20.4724Z" fill="white"/>
<path d="M16.5219 18.2226L19.9984 16.4892L7.51734 10.2656L4.0408 11.999L16.5219 18.2226Z" fill="white"/>
<path d="M16.509 13.7345L19.9887 11.999L16.5121 10.2656L13.0325 12.0011L16.509 13.7345Z" fill="white"/>
<path d="M7.50557 5.77637L4.02698 7.50875L12.0143 11.4916L15.4934 9.75615L7.50557 5.77637Z" fill="white"/>
<path d="M16.5116 9.2523L20 7.51275L16.5214 5.77832L13.0305 7.51787L16.5116 9.2523Z" fill="white"/>
<path d="M12.0142 3.52832L8.52591 5.2689L12.0168 7.00846L15.5052 5.2689L12.0142 3.52832Z" fill="white"/>
<path d="M23.5 12C23.5 18.3513 18.3513 23.5 12 23.5C5.64873 23.5 0.5 18.3513 0.5 12C0.5 5.64873 5.64873 0.5 12 0.5C18.3513 0.5 23.5 5.64873 23.5 12Z" stroke="white" stroke-opacity="0.3"/>
</svg>
