<svg width="256" height="256" viewBox="0 0 256 256" fill="none" xmlns="http://www.w3.org/2000/svg">
<circle cx="128" cy="128" r="128" fill="url(#paint0_linear)"/>
<path d="M129.943 35.0238C158.992 35.0238 182.54 58.9657 182.54 88.4995V119.248C182.54 148.782 158.992 172.724 129.943 172.724C125.38 172.724 120.953 172.133 116.731 171.023L116.732 174.653C116.732 196.258 99.4216 213.813 77.9359 214.162L77.2835 214.167V96.5208L77.3438 96.5194L77.3454 88.4995C77.3454 58.9657 100.894 35.0238 129.943 35.0238ZM129.943 75.1306C122.681 75.1306 116.794 81.116 116.794 88.4995V119.248C116.794 126.631 122.681 132.617 129.943 132.617C137.205 132.617 143.092 126.631 143.092 119.248V88.4995C143.092 81.116 137.205 75.1306 129.943 75.1306Z" fill="white"/>
<defs>
<linearGradient id="paint0_linear" x1="128" y1="0" x2="128" y2="256" gradientUnits="userSpaceOnUse">
<stop stop-color="#7E46F2"/>
<stop offset="1" stop-color="#46279A"/>
</linearGradient>
</defs>
</svg>
