<svg width="24" height="24" viewBox="0 0 24 24" fill="none" xmlns="http://www.w3.org/2000/svg">
<path d="M12 24C18.6274 24 24 18.6274 24 12C24 5.37258 18.6274 0 12 0C5.37258 0 0 5.37258 0 12C0 18.6274 5.37258 24 12 24Z" fill="#F5F5F5"/>
<path d="M23.5 12C23.5 18.3513 18.3513 23.5 12 23.5C5.64873 23.5 0.5 18.3513 0.5 12C0.5 5.64873 5.64873 0.5 12 0.5C18.3513 0.5 23.5 5.64873 23.5 12Z" stroke="black" stroke-opacity="0.097"/>
<path d="M14.322 13.2448L11.972 14.6156L9.62201 13.2448V10.4975L11.972 9.12109L14.322 10.4975V13.2448Z" fill="#00B5D1"/>
<path d="M11.9999 3L4.36243 7.43704V16.2999L11.9999 20.737L19.6375 16.2999V7.43704L11.9999 3ZM8.27911 14.0171V9.69752L11.972 7.54335L15.6648 9.69752V14.0171L11.972 16.1712L8.27911 14.0171ZM8.27911 16.5069V15.0074L13.2757 17.9281L11.9999 18.6723L8.27911 16.5069ZM17.847 15.2704L14.1261 17.4358L12.8057 16.6636L16.5097 14.4982V9.21633L11.9776 6.56977L7.44541 9.21633V9.40657V14.4982V16.0202L6.1585 15.2704V8.46656L12.0055 5.07024L17.847 8.46656V15.2704Z" fill="#0D285A"/>
</svg>
