<svg width="24" height="24" viewBox="0 0 24 24" fill="none" xmlns="http://www.w3.org/2000/svg">
<path d="M12 24C18.6274 24 24 18.6274 24 12C24 5.37258 18.6274 0 12 0C5.37258 0 0 5.37258 0 12C0 18.6274 5.37258 24 12 24Z" fill="url(#paint0_linear)"/>
<path fill-rule="evenodd" clip-rule="evenodd" d="M13.6662 5.00659L12.5169 5.66604V11.1889L13.1444 11.545V7.33443L15.301 8.5544L15.7171 8.7918L16.0672 8.59397V8.26425L13.1477 6.61564V6.02873L13.6695 5.73198L16.6947 7.44654V8.97315L15.2416 9.79086L15.192 9.76778C15.108 9.72537 15.0153 9.70281 14.9212 9.70184C14.8367 9.7018 14.753 9.71872 14.6751 9.7516C14.5973 9.78447 14.5268 9.83264 14.468 9.89323C14.4092 9.95382 14.3631 10.0256 14.3326 10.1043C14.3021 10.183 14.2877 10.267 14.2904 10.3514C14.29 10.4341 14.3058 10.5161 14.3371 10.5926C14.3684 10.6692 14.4146 10.7389 14.4728 10.7977C14.5311 10.8565 14.6004 10.9032 14.6768 10.9353C14.7531 10.9673 14.8351 10.984 14.9179 10.9845C15.0739 10.9834 15.2239 10.9245 15.3387 10.819C15.4535 10.7135 15.5249 10.5692 15.5388 10.414V10.358L17.0052 9.53038L18.3659 10.3019V13.708L17.0052 14.4795L11.4765 11.3406V5.65944L10.3272 5L6.67775 7.08055V8.96985L5 9.91945V14.074L6.67775 15.0268V16.9195L10.3272 18.9901L11.4765 18.3307V12.7979L10.849 12.4418V16.6656L8.27624 15.2082L7.92616 15.406V15.7358L10.8457 17.3844V17.968L10.3239 18.2647L7.29866 16.5502V15.0203L8.75183 14.2025L8.80137 14.2256C8.88534 14.2681 8.97803 14.2907 9.07219 14.2916C9.15643 14.292 9.23991 14.2756 9.3177 14.2434C9.39549 14.2111 9.46602 14.1636 9.52512 14.1037C9.58423 14.0437 9.63071 13.9726 9.66182 13.8944C9.69294 13.8163 9.70806 13.7327 9.7063 13.6486C9.70673 13.5659 9.69085 13.4839 9.65955 13.4074C9.62825 13.3308 9.58215 13.2611 9.52388 13.2023C9.46561 13.1435 9.39631 13.0968 9.31994 13.0647C9.24357 13.0327 9.16163 13.016 9.07879 13.0155C8.92279 13.0166 8.77277 13.0756 8.65797 13.181C8.54318 13.2865 8.47185 13.4308 8.45789 13.586V13.642L6.99151 14.4696L5.63411 13.6981V10.292L6.99481 9.52049L12.5202 12.6594V18.3406L13.6695 19L17.3222 16.9293V15.0301L19 14.0805V9.92605L17.3222 8.97315V7.08055L13.6662 5.00659ZM7.30526 7.44984L10.3305 5.73528L10.8523 6.03203V6.60575L7.30526 8.61375V7.44984ZM7.63553 9.1578L10.8556 7.33443V10.9845L7.63553 9.1578ZM13.151 13.0155L16.3711 14.8422L13.151 16.6656V13.0155ZM13.151 17.9614V17.3943L16.698 15.3862V16.5502L13.6662 18.2647L13.1444 17.968L13.151 17.9614Z" fill="white"/>
<path d="M23.5 12C23.5 18.3513 18.3513 23.5 12 23.5C5.64873 23.5 0.5 18.3513 0.5 12C0.5 5.64873 5.64873 0.5 12 0.5C18.3513 0.5 23.5 5.64873 23.5 12Z" stroke="black" stroke-opacity="0.097"/>
<defs>
<linearGradient id="paint0_linear" x1="12" y1="0" x2="12" y2="24" gradientUnits="userSpaceOnUse">
<stop stop-color="#01C28C"/>
<stop offset="1" stop-color="#21A386"/>
</linearGradient>
</defs>
</svg>
