<svg width="24" height="24" viewBox="0 0 24 24" fill="none" xmlns="http://www.w3.org/2000/svg">
<path d="M12 24C18.6274 24 24 18.6274 24 12C24 5.37258 18.6274 0 12 0C5.37258 0 0 5.37258 0 12C0 18.6274 5.37258 24 12 24Z" fill="#F5F5F5"/>
<path d="M23.5 12C23.5 18.3513 18.3513 23.5 12 23.5C5.64873 23.5 0.5 18.3513 0.5 12C0.5 5.64873 5.64873 0.5 12 0.5C18.3513 0.5 23.5 5.64873 23.5 12Z" stroke="black" stroke-opacity="0.097"/>
<path d="M6.30817 9.97335C6.3068 10.0074 6.27184 10.0362 6.30338 10.1116C6.34428 10.059 6.37102 10.0186 6.4037 9.98386C6.507 9.87416 6.63247 9.80103 6.78124 9.77224C6.83769 9.76127 6.89482 9.76172 6.94327 9.79943C6.98624 9.8328 7.02189 9.87256 7.00566 9.94844C7.0484 9.90479 7.05434 9.86731 7.06554 9.83211C7.10485 9.72127 7.13798 9.60929 7.11879 9.48954C7.09936 9.36864 7.00155 9.30031 6.88363 9.31677C6.62675 9.35219 6.33926 9.7151 6.30817 9.97335ZM9.85618 7.86351C10.012 7.87768 10.167 7.86329 10.3215 7.84637C11.0519 7.76616 11.585 7.4149 11.8675 6.72016C11.9002 6.63971 11.9283 6.55698 11.9562 6.47471C11.9656 6.44683 11.9774 6.41026 11.9493 6.39061C11.9228 6.3721 11.9029 6.40569 11.8817 6.41918C11.8277 6.45391 11.7736 6.48888 11.721 6.52544C11.5684 6.63171 11.3878 6.68313 11.229 6.77683C10.9218 6.88401 10.6161 6.99371 10.3244 7.13975C10.1832 7.21059 10.0607 7.30315 9.9581 7.42221C9.84955 7.54837 9.80453 7.74582 9.85618 7.86351ZM15.3723 4.47823C15.3757 4.48349 15.3801 4.48806 15.3847 4.49217C15.3549 4.58107 15.2836 4.6414 15.2293 4.71271C14.6234 5.50687 13.875 6.11888 12.9407 6.49025C12.8881 6.51105 12.8664 6.54167 12.8504 6.59309C12.7277 6.98526 12.5403 7.33994 12.2384 7.62652C12.2227 7.64138 12.2007 7.65441 12.2044 7.68229C12.2112 7.68457 12.2188 7.69029 12.2245 7.68891C12.2428 7.68434 12.2604 7.67749 12.278 7.6704C12.8264 7.45398 13.348 7.18682 13.8354 6.85362C13.9415 6.78117 14.0354 6.69045 14.1529 6.63468C14.3558 6.66142 14.5596 6.68222 14.7614 6.71581C15.7085 6.87396 16.603 7.18499 17.4538 7.63064C18.3837 8.11787 19.2076 8.74177 19.9261 9.50462C20.0084 9.59192 20.1204 9.66323 20.1535 9.79212C20.1018 9.81246 20.0815 9.76401 20.0529 9.74161C19.5536 9.34968 19.0312 8.99225 18.4763 8.68304C18.2665 8.56626 18.0553 8.45176 17.8103 8.34138C17.9184 8.52718 18.0119 8.6883 18.1056 8.84941C17.082 8.34709 16.012 8.06714 14.8814 8.04223C14.894 8.04863 14.9098 8.05845 14.9271 8.06463C14.9413 8.06965 14.9568 8.07011 14.9719 8.07217C15.7944 8.18781 16.5641 8.45519 17.2868 8.86473C17.5045 8.98813 17.7041 9.13942 17.9214 9.26283C17.9285 9.27175 17.9337 9.28272 17.9426 9.28911C18.4664 9.66185 18.9119 10.1162 19.2935 10.6297C20.0344 11.6273 20.4677 12.7455 20.5726 13.9869C20.5804 14.0776 20.5902 14.1681 20.5996 14.2643C20.6208 14.2536 20.6314 14.2517 20.6332 14.2467C20.6423 14.222 20.6501 14.1967 20.6565 14.1711C20.8517 13.3927 20.9349 12.6031 20.9157 11.8005C20.8921 10.8164 20.7111 9.86411 20.3701 8.94128C19.9709 7.86032 19.3801 6.89476 18.6052 6.04415C18.2315 5.63393 17.8243 5.25708 17.377 4.9257C16.9161 4.58427 16.4334 4.27941 15.913 4.03602C15.9578 3.84428 16.0065 3.65345 16.0467 3.46102C16.1473 2.98041 16.1859 2.49272 16.1916 2C16.0524 2.48244 15.8769 2.95048 15.6402 3.39452C15.4013 3.84245 15.1116 4.25495 14.7614 4.65832C14.9831 4.59295 15.1778 4.53559 15.3723 4.47823ZM3.15942 12.0416C3.16377 12.6929 3.22067 13.3394 3.3779 13.9722C4.16703 17.1457 6.11392 19.2875 9.17171 20.4169C10.2426 20.8125 11.3615 20.9382 12.5022 20.8877C13.3694 20.8493 14.2175 20.7165 15.0334 20.4146C16.0259 20.0474 16.8857 19.4847 17.5187 18.6236C18.3979 17.4272 18.6522 16.0764 18.4292 14.6286C18.2329 13.3543 17.6906 12.2345 16.8169 11.2881C15.4089 9.76287 13.6323 9.11428 11.5834 9.13805C11.4628 9.13942 11.3421 9.13828 11.2217 9.13828C12.1159 9.60312 12.6278 10.2005 12.7538 10.4926C12.5783 10.4469 12.4119 10.3975 12.2428 10.3607C11.2569 10.1454 10.2637 10.054 9.25559 10.1733C8.14102 10.3052 7.12541 10.6889 6.21105 11.3395C6.17494 11.3654 6.12923 11.3827 6.11461 11.4314C5.97337 11.5139 5.8575 11.6286 5.73067 11.7296C5.67285 11.7758 5.64382 11.7769 5.62988 11.6938C5.59949 11.5107 5.55584 11.3295 5.53024 11.1457C5.45963 10.6393 5.48202 10.1413 5.68108 9.6614C5.93703 9.04435 6.38473 8.58797 6.90579 8.19192C6.93207 8.17204 6.96293 8.15604 6.98898 8.17067C7.02235 8.18918 7.00246 8.22506 6.99309 8.25202C6.95858 8.35281 6.93116 8.45542 6.92568 8.56215C6.91014 8.87227 7.09045 9.04138 7.39851 9.00596C7.54729 8.98882 7.6867 8.93991 7.8213 8.87547C8.17896 8.70384 8.47583 8.45176 8.7519 8.17227C8.79166 8.13204 8.81977 8.07422 8.89747 8.13296C9.10704 8.29133 9.34312 8.28379 9.60296 8.22323C9.56937 8.2166 9.55474 8.21363 9.53988 8.21066C9.01334 8.10485 8.76584 7.66652 8.95918 7.16648C9.09744 6.80906 9.36985 6.57824 9.71814 6.44043C10.2225 6.24092 10.7301 6.04963 11.2027 5.77974C11.7464 5.46939 12.2713 5.13732 12.5643 4.54908C12.5933 4.4908 12.621 4.51182 12.6434 4.55342C12.6921 4.64346 12.7444 4.73213 12.7855 4.82583C12.8893 5.06168 12.9432 5.3117 12.97 5.57337C13.7842 5.05117 14.4995 4.43595 15.1033 3.68544C15.0517 3.66739 15.0158 3.65482 14.9799 3.64225C13.7895 3.22997 12.5664 3.07251 11.3108 3.17444C10.4769 3.24209 9.66923 3.42811 8.88719 3.72521C7.77651 4.14708 6.7945 4.77418 5.93086 5.58708C5.53481 5.95982 5.1799 6.37004 4.86132 6.81157C3.89393 8.15193 3.33768 9.64449 3.2001 11.292C3.17931 11.5413 3.17268 11.7916 3.15942 12.0416ZM12.1833 7.69508C12.1811 7.69394 12.1781 7.69097 12.1765 7.69166C12.1664 7.69486 12.1662 7.69988 12.1758 7.70423C12.1774 7.70491 12.1813 7.70308 12.1829 7.70148C12.184 7.70034 12.1833 7.69714 12.1833 7.69508Z" fill="#FEFEFE"/>
<path d="M6.11438 11.4312C6.12923 11.3825 6.17471 11.3649 6.21082 11.3393C7.12519 10.6887 8.14079 10.305 9.25536 10.1731C10.2634 10.0538 11.2566 10.1452 12.2425 10.3605C12.4117 10.3975 12.578 10.4466 12.7535 10.4923C12.6278 10.2003 12.1157 9.60312 11.2214 9.13805C11.3421 9.13805 11.4628 9.1392 11.5832 9.13782C13.632 9.11429 15.4087 9.76264 16.8167 11.2879C17.6903 12.2345 18.2327 13.3543 18.429 14.6284C18.652 16.0759 18.3977 17.427 17.5185 18.6234C16.8857 19.4845 16.0257 20.0472 15.0332 20.4144C14.2173 20.7163 13.369 20.8491 12.5019 20.8875C11.3613 20.938 10.2424 20.8123 9.17149 20.4167C6.11369 19.2873 4.1668 17.1455 3.37767 13.972C3.22067 13.3394 3.16377 12.6929 3.15942 12.0416C3.26204 12.1483 3.29312 12.2925 3.35254 12.4205C3.86514 13.5275 4.53383 14.5191 5.49345 15.2902C6.66857 16.2345 8.00664 16.65 9.51383 16.4982C10.2214 16.4269 10.8869 16.221 11.508 15.8769C12.0193 15.5937 12.4638 15.2317 12.8045 14.7504C13.0769 14.366 13.2463 13.9421 13.2513 13.4697C13.2568 12.9749 13.0813 12.5357 12.7782 12.1447C12.6361 11.9614 12.4729 11.8151 12.2537 11.7232C11.5805 11.4403 10.8777 11.3018 10.1519 11.2717C9.83675 11.2586 9.52114 11.2678 9.20897 11.3178C8.9121 11.3654 8.61775 11.4282 8.35996 11.5946C8.04641 11.7968 8.00185 12.0699 8.22855 12.3679C8.27266 12.4258 8.31974 12.4813 8.38076 12.5567C7.83684 12.5019 7.3359 12.3947 6.87791 12.1341C6.56916 11.9591 6.30886 11.7308 6.11438 11.4312Z" fill="#262F71"/>
<path d="M6.11438 11.4313C6.30886 11.7309 6.56939 11.9593 6.87814 12.1348C7.33612 12.3951 7.83707 12.5025 8.38098 12.5573C8.31997 12.4819 8.27266 12.4264 8.22878 12.3686C8.00207 12.0705 8.04664 11.7974 8.36019 11.5952C8.61798 11.4291 8.91256 11.3662 9.20919 11.3184C9.52137 11.2684 9.83698 11.259 10.1521 11.2723C10.8782 11.3024 11.5807 11.4412 12.254 11.7239C12.4729 11.816 12.6363 11.962 12.7785 12.1453C13.0815 12.5361 13.257 12.9753 13.2515 13.4703C13.2463 13.9425 13.0769 14.3664 12.8047 14.751C12.464 15.2321 12.0193 15.5943 11.5083 15.8775C10.8871 16.2217 10.2216 16.4278 9.51406 16.4989C8.00687 16.6506 6.6688 16.2351 5.49368 15.2908C4.53383 14.5195 3.86514 13.5279 3.35254 12.4209C3.29312 12.2927 3.26226 12.1485 3.15942 12.042C3.17268 11.792 3.17931 11.5415 3.2001 11.2922C3.33768 9.64488 3.89393 8.15209 4.86132 6.81174C5.1799 6.37021 5.53481 5.95999 5.93086 5.58725C6.7945 4.77435 7.77651 4.14725 8.88719 3.72537C9.66924 3.42828 10.4771 3.24248 11.3108 3.17461C12.5664 3.07268 13.7895 3.23014 14.9799 3.64242C15.0158 3.65476 15.0517 3.66755 15.1033 3.68561C14.4995 4.43612 13.7842 5.05133 12.97 5.57353C12.9432 5.31186 12.8895 5.06207 12.7855 4.826C12.7444 4.73253 12.6921 4.64363 12.6434 4.55358C12.621 4.51199 12.5933 4.49097 12.5643 4.54924C12.2713 5.13749 11.7464 5.46955 11.2027 5.7799C10.7301 6.0498 10.2225 6.24108 9.71814 6.44059C9.36985 6.5784 9.09744 6.80922 8.95918 7.16665C8.76561 7.66691 9.01334 8.10524 9.53988 8.21082C9.55474 8.2138 9.56937 8.21677 9.60296 8.22339C9.34312 8.28373 9.10704 8.29127 8.89747 8.13312C8.81977 8.07462 8.79189 8.13221 8.7519 8.17243C8.47583 8.45193 8.17896 8.704 7.8213 8.87563C7.68692 8.94008 7.54729 8.98899 7.39851 9.00612C7.09045 9.04155 6.91014 8.87243 6.92568 8.56231C6.93116 8.45559 6.95836 8.35297 6.99309 8.25219C7.00246 8.22499 7.02235 8.18934 6.98898 8.17083C6.9627 8.1562 6.93207 8.1722 6.90579 8.19208C6.38473 8.58814 5.93703 9.04429 5.68108 9.66156C5.48202 10.1415 5.45963 10.6395 5.53024 11.1459C5.55584 11.3296 5.59949 11.5109 5.62988 11.6939C5.6436 11.7771 5.67285 11.776 5.73067 11.7298C5.85705 11.6288 5.97314 11.5138 6.11438 11.4313Z" fill="#418AC9"/>
<path d="M15.9126 4.03613C16.433 4.27952 16.9156 4.58439 17.3766 4.92582C17.8238 5.25719 18.2311 5.63405 18.6047 6.04427C19.3797 6.89487 19.9705 7.86043 20.3697 8.9414C20.7107 9.86422 20.8917 10.8165 20.9152 11.8006C20.9344 12.6032 20.8512 13.3928 20.6561 14.1712C20.6497 14.1968 20.6417 14.2219 20.6328 14.2468C20.6309 14.2519 20.6204 14.2537 20.5992 14.2644C20.5898 14.1684 20.58 14.0777 20.5722 13.987C20.4671 12.7454 20.034 11.6271 19.2931 10.6298C18.9114 10.1161 18.466 9.66197 17.9422 9.28923C17.9333 9.28283 17.928 9.27186 17.921 9.26295C18.4086 9.30591 18.8851 9.4051 19.3534 9.54656C19.6699 9.64209 19.9686 9.77967 20.2609 9.93233C20.2685 9.94101 20.2765 9.95084 20.2865 9.93598C20.2874 9.93461 20.2776 9.92593 20.2726 9.92067C20.2488 9.89553 20.225 9.8704 20.2015 9.84526C20.1871 9.82446 20.188 9.79041 20.1524 9.78767L20.1533 9.79224C20.1201 9.66334 20.0084 9.59204 19.9259 9.50474C19.2074 8.74212 18.3833 8.11799 17.4536 7.63076C16.6028 7.18511 15.7083 6.87408 14.7612 6.71593C14.5594 6.68234 14.3556 6.66154 14.1526 6.6348C14.4207 6.41038 14.6769 6.17316 14.9043 5.90715C15.3749 5.35615 15.7012 4.72699 15.9126 4.03613Z" fill="#418AC9"/>
<path d="M15.9126 4.0365C15.7012 4.72736 15.3748 5.35652 14.9043 5.90706C14.6769 6.17307 14.4209 6.41029 14.1526 6.63471C14.0349 6.69048 13.9412 6.78098 13.8352 6.85365C13.3477 7.18663 12.8262 7.45401 12.2777 7.67043C12.2601 7.67729 12.2425 7.68415 12.2243 7.68895C12.2185 7.69032 12.2108 7.68483 12.2041 7.68232C12.2005 7.65466 12.2224 7.64164 12.2382 7.62656C12.5401 7.33997 12.7275 6.98529 12.8502 6.59312C12.8662 6.54193 12.8881 6.51131 12.9405 6.49028C13.8747 6.11891 14.6232 5.5069 15.229 4.71274C15.2834 4.64144 15.3545 4.5811 15.3844 4.4922C15.3899 4.48832 15.3956 4.4842 15.4011 4.48032C15.3913 4.47963 15.3817 4.47895 15.3719 4.47826C15.1774 4.53562 14.9829 4.59299 14.7605 4.65858C15.1106 4.25544 15.4004 3.84271 15.6392 3.39478C15.8765 2.95096 16.0517 2.48293 16.1912 2.00049C16.1854 2.49321 16.147 2.9809 16.0463 3.46151C16.006 3.65417 15.9574 3.84499 15.9126 4.0365Z" fill="#262F71"/>
<path d="M20.2607 9.93246C19.9684 9.77957 19.6699 9.64222 19.3534 9.5467C18.8851 9.40523 18.4086 9.30605 17.9209 9.26308C17.7036 9.13967 17.5043 8.98861 17.2863 8.86498C16.5637 8.45544 15.794 8.18806 14.9715 8.07242C14.9564 8.07036 14.9406 8.06968 14.9267 8.06488C14.9095 8.05871 14.8936 8.04888 14.881 8.04248C16.0115 8.06739 17.0815 8.34735 18.1051 8.84966C18.0114 8.68855 17.918 8.52766 17.8099 8.34163C18.0549 8.45201 18.266 8.56628 18.4758 8.68329C19.0307 8.9925 19.5529 9.34993 20.0525 9.74186C20.0811 9.76426 20.1014 9.81248 20.153 9.79237L20.1521 9.7878C20.1291 9.84059 20.1839 9.82688 20.2013 9.84539C20.225 9.87053 20.2488 9.89567 20.2723 9.92081C20.2685 9.92446 20.2646 9.92835 20.2607 9.93246Z" fill="#262F71"/>
<path d="M11.229 6.77694C11.3878 6.68301 11.5686 6.63182 11.721 6.52555C11.7738 6.48876 11.8278 6.45402 11.8817 6.41928C11.9027 6.40557 11.9228 6.3722 11.9494 6.39072C11.9775 6.41037 11.9656 6.44694 11.9562 6.47482C11.9286 6.55732 11.9004 6.63982 11.8675 6.72026C11.5851 7.41478 11.0519 7.76627 10.3215 7.84648C10.1668 7.86339 10.0121 7.87779 9.8562 7.86362C10.0363 7.79643 10.228 7.76489 10.4038 7.68376C10.8074 7.49774 11.1088 7.22007 11.229 6.77694Z" fill="#262F71"/>
<path d="M11.2289 6.77686C11.1087 7.21998 10.8073 7.49743 10.4039 7.68345C10.2282 7.76458 10.0364 7.79612 9.85636 7.86331C9.80448 7.74561 9.8495 7.54793 9.95806 7.42247C10.0609 7.3034 10.1832 7.21084 10.3244 7.14C10.616 6.99373 10.9218 6.88404 11.2289 6.77686Z" fill="#418AC9"/>
<path d="M7.06552 9.83184C7.05433 9.86703 7.04838 9.90451 7.00565 9.94816C7.0221 9.87229 6.98645 9.83275 6.94326 9.79916C6.89504 9.76168 6.8379 9.76122 6.78123 9.77196C6.63222 9.80076 6.50699 9.87389 6.40369 9.98359C6.37101 10.0183 6.34427 10.0588 6.30336 10.1113C6.27182 10.0357 6.30679 10.0071 6.30816 9.97307C6.35455 9.96805 6.36301 9.92645 6.38266 9.8956C6.47956 9.74362 6.59314 9.60696 6.76432 9.53589C6.90875 9.47578 7.07558 9.50115 7.05364 9.72123C7.04998 9.75802 7.04381 9.79687 7.06552 9.83184Z" fill="#418AC9"/>
<path d="M7.06553 9.83148C7.04382 9.79651 7.04999 9.75766 7.05365 9.72087C7.07559 9.50056 6.90876 9.47542 6.76432 9.53552C6.59315 9.6066 6.47957 9.74326 6.38267 9.89524C6.36301 9.92609 6.35456 9.96768 6.30817 9.97271C6.33925 9.71447 6.62674 9.35155 6.88362 9.3159C7.00177 9.29945 7.09935 9.36778 7.11878 9.48867C7.1382 9.60865 7.10484 9.72064 7.06553 9.83148Z" fill="#262F71"/>
<path d="M12.1829 7.69484C12.1827 7.69706 12.1834 7.69995 12.1823 7.70106C12.1807 7.70262 12.1769 7.70462 12.1754 7.70373C12.1661 7.69951 12.1665 7.69462 12.1761 7.69151C12.1781 7.69085 12.1807 7.69351 12.1829 7.69484Z" fill="#262F71"/>
<path d="M20.2013 9.84519C20.1841 9.82668 20.1293 9.84039 20.1522 9.7876C20.188 9.79034 20.1869 9.82439 20.2013 9.84519Z" fill="#FEFEFE"/>
<path d="M20.2725 9.92041C20.2774 9.92576 20.2877 9.9346 20.2867 9.936C20.2765 9.95112 20.2684 9.94112 20.2607 9.93227C20.2646 9.92809 20.2686 9.92413 20.2725 9.92041Z" fill="#262F71"/>
<path d="M15.3724 4.47852C15.3824 4.47921 15.3921 4.47991 15.4022 4.48061C15.3966 4.48456 15.3908 4.48875 15.3852 4.49271C15.3801 4.48852 15.3759 4.48363 15.3724 4.47852Z" fill="#FEFEFE"/>
</svg>
