<svg width="24" height="24" viewBox="0 0 24 24" fill="none" xmlns="http://www.w3.org/2000/svg">
<path d="M12 24C18.6274 24 24 18.6274 24 12C24 5.37258 18.6274 0 12 0C5.37258 0 0 5.37258 0 12C0 18.6274 5.37258 24 12 24Z" fill="#8129FA"/>
<path d="M11.9829 5.27C11.0526 5.28756 10.052 5.19101 9.0777 4.91014C8.75295 4.81359 8.43697 4.70826 8.18243 4.48006C7.93667 4.26063 7.93667 4.03242 8.18243 3.81299C8.3843 3.63745 8.62129 3.52334 8.87583 3.45313C10.9999 2.8475 13.124 2.8475 15.2393 3.4619C15.6079 3.56723 16.0907 3.69011 16.0907 4.1553C16.0907 4.62049 15.5991 4.72582 15.2393 4.8487C14.2123 5.19979 13.1415 5.27878 11.9829 5.27Z" fill="#08F284"/>
<path d="M14.0017 22.7279C17 22.5 19.5 20 19.2943 20.1737C19.11 20.3493 18.9696 20.3405 18.7677 20.2176C17.1352 19.2609 16.8104 17.6108 17.969 16.0572C18.1972 15.75 18.4079 15.4428 18.5307 15.083C18.7589 14.3896 18.285 13.6874 17.5652 13.7401C17.1001 13.7752 17.1878 13.5645 17.2405 13.2924C17.8549 9.90445 15.2305 6.771 11.7811 6.771C8.25266 6.771 5.62829 10.0449 6.40068 13.4768C6.41823 13.547 6.43579 13.6172 6.45334 13.6786C6.35679 13.7927 6.26024 13.705 6.17247 13.6874C5.4703 13.5119 4.98755 13.9068 5.04899 14.6441C5.14554 15.8466 5.56685 16.9437 6.25147 17.9268C7.46272 19.6822 9.17427 20.7794 11.0965 21.5781C11.9303 21.9292 12.7905 22.1837 13.677 22.3856C13.8964 22.4383 14.107 22.526 14.3177 22.5962C14.2387 22.7367 14.1158 22.7103 14.0017 22.7279ZM10.0432 11.9671C9.68334 12.248 9.27081 12.3972 8.82318 12.1777C8.35799 11.9495 8.22633 11.5019 8.24389 11.0367C8.26144 10.3872 8.51598 9.81668 9.02505 9.39537C9.38492 9.08817 9.79745 8.90385 10.2714 9.10572C10.7629 9.32515 10.877 9.77279 10.8946 10.2643C10.8419 10.9489 10.6049 11.537 10.0432 11.9671ZM14.3704 12.2216C13.8525 12.4235 13.4224 12.1953 13.0713 11.8266C12.5535 11.2737 12.3165 10.6242 12.4833 9.86934C12.6588 9.06184 13.3873 8.77219 14.0895 9.21983C14.6512 9.57969 15.0374 10.3345 15.0286 11.142C15.0023 11.5458 14.8882 12.0197 14.3704 12.2216Z" fill="#FDFCFE"/>
<path d="M12.0357 4.71693C11.4827 4.7257 10.9297 4.68182 10.4031 4.4975C10.2276 4.43606 10.0169 4.36584 10.0169 4.13763C10.0169 3.93576 10.21 3.85676 10.3768 3.8041C11.4915 3.47057 12.6062 3.46179 13.7209 3.81288C13.8876 3.86554 14.072 3.94454 14.0632 4.15519C14.0544 4.35706 13.8613 4.42728 13.7033 4.48872C13.1679 4.6906 12.6062 4.7257 12.0357 4.71693Z" fill="#8129FA"/>
<path d="M23.5 12C23.5 18.3513 18.3513 23.5 12 23.5C5.64873 23.5 0.5 18.3513 0.5 12C0.5 5.64873 5.64873 0.5 12 0.5C18.3513 0.5 23.5 5.64873 23.5 12Z" stroke="black" stroke-opacity="0.097"/>
</svg>
