<svg xmlns="http://www.w3.org/2000/svg" xmlns:xlink="http://www.w3.org/1999/xlink" viewBox="0 0 140.26 140.26"><defs><style>.cls-1{fill:#fff;}.cls-2{fill:url(#linear-gradient);}.cls-3{fill:url(#linear-gradient-2);}.cls-4{fill:#393d3f;}</style><linearGradient id="linear-gradient" y1="70.13" x2="140.26" y2="70.13" gradientUnits="userSpaceOnUse"><stop offset="0" stop-color="#00e8d2"/><stop offset="1" stop-color="#008a7d"/></linearGradient><linearGradient id="linear-gradient-2" x1="35.41" y1="35.85" x2="94.41" y2="94.85" xlink:href="#linear-gradient"/></defs><g id="Layer_2" data-name="Layer 2"><g id="gradient"><circle class="cls-1" cx="70.13" cy="70.13" r="70.13"/><path class="cls-2" d="M70.13,5A65.13,65.13,0,1,1,5,70.13,65.2,65.2,0,0,1,70.13,5m0-5a70.13,70.13,0,1,0,70.13,70.13A70.13,70.13,0,0,0,70.13,0Z"/><polygon class="cls-3" points="87.63 87.63 55.63 87.63 55.63 94.63 94.63 94.63 94.63 35.63 35.63 35.63 35.63 95.51 42.63 102.51 42.63 42.63 87.63 42.63 87.63 55.63 87.63 87.63"/><polygon class="cls-4" points="104.63 44.75 97.63 37.75 97.63 97.63 52.63 97.63 52.63 84.63 52.63 52.63 84.63 52.63 84.63 45.63 45.63 45.63 45.63 104.63 104.63 104.63 104.63 44.75"/></g></g></svg>