<?xml version="1.0" encoding="iso-8859-1"?>
<!-- Generator: Adobe Illustrator 19.0.0, SVG Export Plug-In . SVG Version: 6.00 Build 0)  -->
<svg version="1.1" id="Capa_1" xmlns="http://www.w3.org/2000/svg" xmlns:xlink="http://www.w3.org/1999/xlink" x="0px" y="0px"
	 viewBox="0 0 511.604 511.604" style="enable-background:new 0 0 511.604 511.604;" xml:space="preserve">
<path style="fill:#D32F2F;" d="M265.125,5.066c-3.33-5.143-10.198-6.613-15.341-3.283c-1.314,0.851-2.432,1.969-3.283,3.283
	C240.335,16.095,95.802,275.978,95.802,351.604c0,88.366,71.634,160,160,160s160-71.634,160-160
	C415.802,275.978,271.269,16.095,265.125,5.066z"/>
<path style="fill:#E57373;" d="M255.802,447.604c-53.019,0-96-42.981-96-96c0-5.891,4.776-10.667,10.667-10.667
	c5.891,0,10.667,4.776,10.667,10.667c0,41.237,33.429,74.667,74.667,74.667c5.891,0,10.667,4.776,10.667,10.667
	C266.469,442.829,261.693,447.604,255.802,447.604z"/>
<g>
</g>
<g>
</g>
<g>
</g>
<g>
</g>
<g>
</g>
<g>
</g>
<g>
</g>
<g>
</g>
<g>
</g>
<g>
</g>
<g>
</g>
<g>
</g>
<g>
</g>
<g>
</g>
<g>
</g>
</svg>
