<svg width="108" height="108" viewBox="0 0 108 108" fill="none" xmlns="http://www.w3.org/2000/svg">
<circle cx="54" cy="54" r="54" fill="#CFB342"/>
<circle cx="54" cy="54" r="48" fill="#1C3858"/>
<path d="M35.4188 72.776C36.5708 72.7333 37.4454 72.6053 38.0428 72.392C38.6401 72.136 39.1094 71.624 39.4508 70.856C39.7921 70.088 39.9628 68.872 39.9628 67.208V42.696C39.9628 40.3067 40.0481 38.3867 40.2188 36.936L35.4188 37.128V32.2L54.0428 32.136C59.3761 32.136 63.8774 33.2027 67.5468 35.336C71.2588 37.4267 74.0108 40.1573 75.8028 43.528C77.6374 46.8987 78.5548 50.44 78.5548 54.152C78.5548 57.9067 77.6801 61.5333 75.9308 65.032C74.2241 68.488 71.4934 71.3467 67.7388 73.608C64.0268 75.8693 59.3548 77 53.7228 77H35.4188V72.776ZM55.0668 72.328C58.0534 72.328 60.5494 71.5387 62.5548 69.96C64.5601 68.3813 66.0321 66.3333 66.9708 63.816C67.9521 61.256 68.4428 58.4827 68.4428 55.496C68.4428 49.0107 67.1201 44.2107 64.4748 41.096C61.8294 37.9813 58.0961 36.424 53.2748 36.424C51.8241 36.424 50.7788 36.7867 50.1388 37.512C49.5414 38.2373 49.2428 39.688 49.2428 41.864V66.504C49.2428 68.8933 49.1574 70.8133 48.9868 72.264C49.2001 72.2213 49.6054 72.2 50.2028 72.2L52.9548 72.264C53.5094 72.3067 54.2134 72.328 55.0668 72.328Z" fill="white"/>
<rect x="47" y="37" width="35" height="4" transform="rotate(90 47 37)" fill="#B7321F"/>
</svg>
