<svg width="277" height="100" viewBox="0 0 277 100" fill="none" xmlns="http://www.w3.org/2000/svg">
<path d="M143.044 37.184C145.552 39.6523 146.806 43.2704 146.806 48.0383V67.342H140.736V48.7341C140.736 45.4862 139.955 43.0381 138.396 41.3925C136.836 39.7469 134.602 38.9241 131.693 38.9241C128.405 38.9241 125.812 39.8847 123.916 41.8045C122.019 43.7244 121.07 46.4778 121.07 50.0635V67.342H115V33.7982H120.818V38.862C122.039 37.1326 123.694 35.8032 125.781 34.875C127.868 33.9469 130.239 33.4821 132.895 33.4821C137.152 33.4807 140.534 34.7156 143.044 37.184Z" fill="#2E2D2C"/>
<path d="M166.788 30.8867V33.7982H176.526V38.7971H166.914V67.3407H160.844V38.7971H155.153V33.7982H160.844V30.8232C160.844 27.4902 161.813 24.853 163.753 22.9115C165.691 20.9714 168.41 20 171.91 20C173.258 20 174.523 20.1689 175.704 20.5066C176.884 20.8444 177.895 21.3294 178.74 21.9617L176.907 26.5823C175.515 25.5285 173.956 25.0002 172.227 25.0002C168.6 25.0002 166.788 26.9619 166.788 30.8867Z" fill="#2E2D2C"/>
<path d="M207.396 65.3803C206.511 66.1396 205.415 66.7206 204.108 67.1205C202.801 67.5204 201.452 67.7217 200.061 67.7217C196.688 67.7217 194.075 66.8151 192.22 65.0007C190.364 63.1876 189.438 60.5922 189.438 57.216V38.7971H183.747V33.7982H189.438V26.4553H195.508V33.7982H205.12V38.7971H195.508V56.962C195.508 58.7764 195.96 60.1693 196.868 61.1394C197.773 62.1108 199.07 62.5945 200.756 62.5945C202.611 62.5945 204.192 62.0676 205.498 61.0124L207.396 65.3803Z" fill="#2E2D2C"/>
<path d="M225.082 30.8867V33.7982H234.819V38.7971H225.207V67.3407H219.137V38.7971H213.446V33.7982H219.137V30.8232C219.137 27.4902 220.106 24.853 222.046 22.9115C223.984 20.9714 226.703 20 230.203 20C231.551 20 232.816 20.1689 233.997 20.5066C235.177 20.8444 236.188 21.3294 237.033 21.9617L235.2 26.5823C233.808 25.5285 232.249 25.0002 230.52 25.0002C226.893 25.0002 225.082 26.9619 225.082 30.8867Z" fill="#2E2D2C"/>
<path d="M276.458 33.7982L260.208 70.6967C258.774 74.1148 257.098 76.5197 255.181 77.9113C253.263 79.3042 250.955 80 248.256 80C246.612 80 245.021 79.7365 243.482 79.2083C241.943 78.68 240.668 77.9113 239.657 76.898L242.25 72.3409C243.978 73.9865 245.981 74.8093 248.256 74.8093C249.732 74.8093 250.964 74.4188 251.955 73.6379C252.944 72.857 253.841 71.5181 254.642 69.6185L255.717 67.2772L240.922 33.7982H247.245L258.944 60.6341L270.514 33.7982H276.458Z" fill="#2E2D2C"/>
<path d="M0 72.5257L18.851 83.1392C19.3414 78.2899 20.7897 73.4654 22.7456 68.8949L6.1062 56.4326C1.74218 66.3203 0.00190819 72.5181 0 72.5257Z" fill="url(#paint0_linear)"/>
<path d="M9.29272 49.5722L25.7623 62.8634C29.51 55.8215 34.1164 49.7383 37.532 45.6587L20.5758 29.2658C15.9389 36.6706 12.2218 43.5635 9.29272 49.5722Z" fill="url(#paint1_linear)"/>
<path d="M42.4268 64.1812C43.1233 65.0961 43.8445 66.0797 44.5677 67.1244C48.2009 72.3691 50.6969 77.3712 51.9334 81.8461C48.4395 84.2335 45.5104 86.3497 43.1347 88.1565L42.4268 88.5996L41.7188 88.1565C39.3431 86.3497 36.4141 84.2335 32.9202 81.8461C34.1567 77.3712 36.6526 72.3691 40.2858 67.1244C41.009 66.0816 41.7284 65.0961 42.4268 64.1812ZM42.4401 50.9359C42.4401 50.9359 42.4363 50.9397 42.4268 50.9492C42.4172 50.9397 42.4134 50.9359 42.4134 50.9359C42.4134 50.9359 42.4134 50.9454 42.4134 50.9626C41.6826 51.6884 24.7073 68.7192 23.4136 85.8665C36.0801 94.1881 41.3658 98.8731 42.4134 99.9713C42.4134 99.9809 42.4134 99.9905 42.4134 100C42.4172 99.9962 42.4229 99.9904 42.4268 99.9866C42.4306 99.9904 42.4363 99.9962 42.4401 100C42.4401 99.9905 42.4401 99.9809 42.4401 99.9713C43.4858 98.875 48.7715 94.1881 61.44 85.8665C60.1481 68.7192 43.171 51.6884 42.4401 50.9626C42.4401 50.9454 42.4401 50.9359 42.4401 50.9359Z" fill="url(#paint2_linear)"/>
<path d="M84.7808 72.5257L65.9298 83.1392C65.4394 78.2899 63.9911 73.4654 62.0352 68.8949L78.6727 56.4345C83.0386 66.3203 84.7789 72.5181 84.7808 72.5257Z" fill="url(#paint3_linear)"/>
<path d="M75.4859 49.5722L59.0163 62.8634C55.2686 55.8215 50.6622 49.7383 47.2466 45.6587L64.2027 29.2658C68.8416 36.6706 72.5587 43.5635 75.4859 49.5722Z" fill="url(#paint4_linear)"/>
<path d="M59.4364 21.968C54.6373 14.9223 49.0311 7.54612 42.5165 0.124145L42.4039 0H42.3772L42.2646 0.124145C35.7501 7.54612 30.1457 14.9223 25.3447 21.968C25.8523 22.5906 26.3713 23.1388 26.898 23.6334L42.3772 40.2441H42.4039L57.8832 23.6334C58.4098 23.1388 58.9269 22.5906 59.4364 21.968Z" fill="url(#paint5_linear)"/>
<defs>
<linearGradient id="paint0_linear" x1="11.6052" y1="100.029" x2="10.8123" y2="0.217153" gradientUnits="userSpaceOnUse">
<stop stop-color="#FE8464"/>
<stop offset="1" stop-color="#FE6E9A"/>
</linearGradient>
<linearGradient id="paint1_linear" x1="23.8279" y1="99.9317" x2="23.035" y2="0.120068" gradientUnits="userSpaceOnUse">
<stop stop-color="#FE8464"/>
<stop offset="1" stop-color="#FE6E9A"/>
</linearGradient>
<linearGradient id="paint2_linear" x1="42.5366" y1="99.7831" x2="41.7437" y2="-0.028564" gradientUnits="userSpaceOnUse">
<stop stop-color="#FE8464"/>
<stop offset="1" stop-color="#FE6E9A"/>
</linearGradient>
<linearGradient id="paint3_linear" x1="73.1785" y1="99.5995" x2="73.9714" y2="-0.2121" gradientUnits="userSpaceOnUse">
<stop stop-color="#FE8464"/>
<stop offset="1" stop-color="#FE6E9A"/>
</linearGradient>
<linearGradient id="paint4_linear" x1="60.9555" y1="99.5024" x2="61.7484" y2="-0.309188" gradientUnits="userSpaceOnUse">
<stop stop-color="#FE8464"/>
<stop offset="1" stop-color="#FE6E9A"/>
</linearGradient>
<linearGradient id="paint5_linear" x1="43.0073" y1="99.7793" x2="42.2145" y2="-0.0322833" gradientUnits="userSpaceOnUse">
<stop stop-color="#FE8464"/>
<stop offset="1" stop-color="#FE6E9A"/>
</linearGradient>
</defs>
</svg>
