<svg width="537" height="537" fill="none" xmlns="http://www.w3.org/2000/svg"><path fill="#FFD704" d="M0 0h537v537H0z"/><path d="m420.327 315.456-.66.825c-7.784 9.72-11.686 14.592-17.211 16.696-5.526 2.105-11.679 1.055-23.97-1.016l-12.946-2.204c22.898-15.945 42.942-36.735 59.068-55.32l2.114-2.408.493-.569c5.312 8.446 7.919 13.669 7.636 19.304-.358 7.004-5.083 12.904-14.524 24.692ZM194.279 134.431l-.661.825c-7.784 9.72-11.685 14.592-12.531 20.444-.847 5.852 1.523 11.626 6.23 23.169l4.991 12.159c10.544-25.838 26.452-49.94 41.064-69.738l1.887-2.589.459-.597c-9.414-3.347-15.081-4.749-20.518-3.241-6.756 1.88-11.489 7.791-20.921 19.568Z" fill="#252525"/><path fill-rule="evenodd" clip-rule="evenodd" d="M415.471 192a381.81 381.81 0 0 0-46.33-43.54c-20.152-16.138-38.188-27.669-52.611-35.695-2.827-1.574-5.449-3.105-7.905-4.538-10.239-5.976-17.581-10.26-24.736-8.998-7.306 2.088-16.074 13.351-26.968 28.112-37.399 50.709-75.964 120.594-22.666 172.18l-13.734 17.15.878.067 1.331 3.611 7.274-1.199 2.256 5.227 12.299-2.976 6.649-8.303c61.987 40.736 121.757-12.148 163.065-59.745 3.647-4.203 7.204-7.89 10.39-11.191 7.317-7.584 12.671-13.133 12.635-18.222-.05-7.305-10.691-19.461-21.827-31.94ZM217.88 349.74v24.022h-20.707a14.475 14.475 0 0 0-14.19 11.641l-2.751 13.699H141.86a10.86 10.86 0 0 0-7.679 18.539 10.86 10.86 0 0 0 7.679 3.18h173.76a10.863 10.863 0 0 0 10.86-10.86 10.863 10.863 0 0 0-10.86-10.859h-38.372l-2.752-13.699a14.472 14.472 0 0 0-14.19-11.641H239.6v-37.087l-.481-.395-7.578 10.495-6.173-2.003-3.455 4.464-4.033.504Z" fill="#252525"/><path stroke="#252525" stroke-width="4" d="m203.515 340.671-24.003 6.261M179.181 324.22l24.003 2.087M286.963 342.632l-21.712-10.443M181.823 303.478l24.003 9.392M277.153 361.098l-19.128-17.276"/></svg>