<svg width="24" height="24" viewBox="0 0 24 24" fill="none" xmlns="http://www.w3.org/2000/svg">
<path d="M12 24C18.6274 24 24 18.6274 24 12C24 5.37258 18.6274 0 12 0C5.37258 0 0 5.37258 0 12C0 18.6274 5.37258 24 12 24Z" fill="#080B27"/>
<path d="M15.1037 18.2479C14.9012 18.1777 14.6821 18.137 14.4984 18.0331C13.3961 17.4099 12.3004 16.7752 11.2059 16.1379C10.6002 15.7855 10.4201 15.0755 10.7773 14.454C11.7354 12.788 12.6979 11.1247 13.6586 9.46005C13.9207 9.00597 14.1806 8.55146 14.4445 8.09826C14.8289 7.43819 15.5231 7.2563 16.188 7.64068C17.247 8.25254 18.3054 8.86397 19.3639 9.4767C20.042 9.86898 20.2331 10.5523 19.8439 11.229C18.6276 13.3425 17.4069 15.4533 16.1872 17.565C15.9496 17.9753 15.6012 18.2019 15.1037 18.2479ZM18.9497 10.5483C18.8809 10.4988 18.8371 10.4611 18.788 10.4326C17.7484 9.83128 16.7061 9.23389 15.67 8.62729C15.51 8.53393 15.4491 8.58389 15.3689 8.72415C14.1793 10.7942 12.9867 12.863 11.7875 14.9278C11.6938 15.0895 11.7205 15.1579 11.8761 15.2464C12.8881 15.8228 13.8949 16.4083 14.9034 16.9908C15.1515 17.1342 15.1515 17.1337 15.2948 16.8852C16.0408 15.5927 16.7867 14.3001 17.5327 13.0076C18.0013 12.195 18.4694 11.382 18.9497 10.5483Z" fill="white"/>
<path d="M5.08817 10.8286C5.41733 11.3988 5.73685 11.9528 6.0568 12.5068C6.95969 14.0707 7.86565 15.6332 8.76152 17.201C8.86321 17.3794 8.9421 17.4096 9.11085 17.2882C9.36506 17.1059 9.63329 16.9433 9.89802 16.7758C10.1974 16.5865 10.527 16.6483 10.7023 16.9222C10.8732 17.1896 10.8 17.5074 10.5121 17.7007C10.2097 17.9036 9.90197 18.0991 9.59429 18.2937C8.96971 18.6886 8.23557 18.508 7.86389 17.8659C7.05393 16.4668 6.24658 15.0665 5.43837 13.6661C5.02681 12.9535 4.617 12.2399 4.20413 11.5281C3.81755 10.8619 3.98805 10.176 4.64768 9.77934C5.38358 9.33666 6.12123 8.89573 6.86195 8.46007C7.12844 8.30316 7.4142 8.35269 7.59259 8.56657C7.76615 8.77389 7.77361 9.06229 7.59916 9.27004C7.53999 9.3406 7.45891 9.39714 7.37914 9.44536C6.68619 9.86174 5.99106 10.2742 5.29724 10.6888C5.22974 10.7287 5.16706 10.7756 5.08817 10.8286Z" fill="white"/>
<path d="M8.60989 10.874C8.60989 9.6709 8.60901 8.46821 8.61033 7.26509C8.6112 6.51605 9.12226 6.00236 9.87086 6.00105C11.0735 5.9993 12.2762 6.00017 13.4789 6.00061C13.8839 6.00061 14.1438 6.2237 14.1416 6.5647C14.1394 6.90306 13.8778 7.12177 13.4697 7.12221C12.3109 7.12309 11.1516 7.12834 9.99271 7.11739C9.77225 7.1152 9.70957 7.1713 9.71045 7.39658C9.71878 9.73708 9.71571 12.0771 9.71571 14.4176C9.71571 14.4904 9.71746 14.5636 9.71483 14.6363C9.70081 14.9725 9.46237 15.2118 9.14943 15.2053C8.83342 15.1982 8.6112 14.9585 8.61076 14.6144C8.60857 13.3675 8.60989 12.1205 8.60989 10.874Z" fill="white"/>
<path d="M23.5 12C23.5 18.3513 18.3513 23.5 12 23.5C5.64873 23.5 0.5 18.3513 0.5 12C0.5 5.64873 5.64873 0.5 12 0.5C18.3513 0.5 23.5 5.64873 23.5 12Z" stroke="white" stroke-opacity="0.3"/>
</svg>
