<svg width="24" height="24" viewBox="0 0 24 24" fill="none" xmlns="http://www.w3.org/2000/svg">
<path d="M12 24C18.6274 24 24 18.6274 24 12C24 5.37258 18.6274 0 12 0C5.37258 0 0 5.37258 0 12C0 18.6274 5.37258 24 12 24Z" fill="#5C37F1"/>
<path d="M23.5 12C23.5 18.3513 18.3513 23.5 12 23.5C5.64873 23.5 0.5 18.3513 0.5 12C0.5 5.64873 5.64873 0.5 12 0.5C18.3513 0.5 23.5 5.64873 23.5 12Z" stroke="white" stroke-opacity="0.3"/>
<path d="M4.80036 16.1827C4.95316 16.1827 5.11323 16.1903 5.26603 16.1827C5.55707 16.16 5.84811 16.0994 6.13188 16.0237C6.69213 15.8646 7.21601 15.592 7.6744 15.221C7.80537 15.115 7.93633 15.0014 8.06003 14.8803C8.32196 14.6077 8.54752 14.2972 8.72942 13.964C8.8895 13.6687 9.00591 13.3507 9.09322 13.0251C9.1005 13.0024 9.1005 12.9721 9.10778 12.9494H8.82401C8.54025 12.9494 8.2492 12.9494 7.96544 12.9494C7.72533 12.9494 7.4925 12.9191 7.25966 12.8661C7.23784 12.8585 7.21601 12.8509 7.19418 12.8509C7.17963 12.8434 7.17235 12.8358 7.16508 12.8282C7.23056 12.6768 7.28877 12.5329 7.34698 12.3814L7.79081 11.3138C7.80537 11.2608 7.82719 11.2153 7.8563 11.1699C7.8854 11.1396 7.92906 11.1245 7.97272 11.1245C8.32924 11.1169 8.67849 11.1245 9.03502 11.1245H9.1296C9.11505 11.0639 9.11505 11.0185 9.1005 10.9655C8.96953 10.4505 8.74398 9.9735 8.43111 9.55703C8.27831 9.35258 8.11096 9.16327 7.92906 8.98154C7.7035 8.76195 7.45612 8.57265 7.17963 8.41363C6.89586 8.24704 6.59754 8.11074 6.29195 8.00473C6.03729 7.92144 5.77535 7.86086 5.50614 7.823C5.29513 7.80028 5.09141 7.79271 4.8804 7.77757C4.82947 7.77757 4.77854 7.77 4.7276 7.76242C4.70578 7.75485 4.69122 7.73971 4.68395 7.71699C4.61119 7.54283 4.53843 7.37624 4.46567 7.20208C4.37835 6.99763 4.29832 6.79318 4.21101 6.59631C4.14552 6.42972 4.07276 6.27071 4 6.09655C4.05093 6.0814 4.10186 6.06626 4.1528 6.05111C4.47294 6.00568 4.80036 5.99053 5.12779 6.00568C5.64438 6.02082 6.16098 6.10412 6.6703 6.24042C6.99045 6.33128 7.3106 6.44487 7.61619 6.58116C8.04548 6.77047 8.45293 7.00521 8.83129 7.28538C8.99864 7.4141 9.16598 7.5504 9.32606 7.6867C9.39882 7.74728 9.47158 7.81543 9.54434 7.88358C9.90814 8.24704 10.2283 8.66351 10.4975 9.11027C10.7667 9.55703 10.9632 10.0416 11.0941 10.549C11.1378 10.7156 11.1669 10.8897 11.2033 11.0563C11.2106 11.079 11.2324 11.1018 11.2615 11.1018C11.749 11.1018 12.2437 11.1018 12.7385 11.1018C12.7676 10.9806 12.7895 10.8594 12.8113 10.7383C12.8986 10.3824 13.015 10.0416 13.1605 9.71604C13.2769 9.44345 13.4225 9.17842 13.5898 8.93611C13.7426 8.71652 13.9027 8.49692 14.0773 8.29247C14.2083 8.13346 14.3465 7.98202 14.492 7.84572C14.7976 7.55797 15.1251 7.30052 15.4816 7.07336C15.8454 6.83862 16.2237 6.64931 16.6239 6.49787C16.9004 6.39943 17.1769 6.30857 17.4534 6.23284C17.6644 6.17984 17.8681 6.14198 18.0864 6.11169C18.261 6.0814 18.4429 6.06626 18.6248 6.05111C18.7412 6.04354 18.8504 6.03597 18.9668 6.03597C19.1414 6.03597 19.3088 6.0284 19.4761 6.03597C19.6435 6.04354 19.8108 6.0814 19.9782 6.11169C19.9854 6.11169 19.9854 6.11926 20 6.13441L19.8763 6.43729C19.7453 6.75532 19.6144 7.07336 19.4761 7.39896C19.4252 7.51254 19.3743 7.62612 19.3306 7.74728C19.3015 7.823 19.2287 7.79271 19.1778 7.80786C19.1342 7.81543 19.0978 7.81543 19.0541 7.80786C18.5957 7.81543 18.1446 7.88358 17.708 8.0123C17.4316 8.0956 17.1623 8.20161 16.9077 8.33034C16.5948 8.48935 16.3038 8.68623 16.0346 8.92097C15.9254 9.0194 15.8017 9.11784 15.6999 9.23142C15.4379 9.50402 15.2124 9.81448 15.0305 10.1552C14.8849 10.4354 14.7685 10.7307 14.6812 11.0412C14.6739 11.0639 14.6739 11.0942 14.6667 11.1169H14.7467C15.1251 11.1169 15.5107 11.1093 15.889 11.1169C16.1146 11.1169 16.3402 11.1548 16.5584 11.2305C16.5657 11.238 16.573 11.238 16.5803 11.2456L16.3693 11.7454C16.2237 12.1013 16.0709 12.4572 15.9254 12.8206C15.8818 12.9266 15.8527 12.9494 15.7362 12.9494H14.6739C14.703 13.0554 14.7249 13.1462 14.754 13.2371C14.8558 13.5551 15.0014 13.858 15.1833 14.1382C15.2924 14.3048 15.4088 14.4562 15.5325 14.6077C15.6053 14.6985 15.6853 14.7894 15.7653 14.8651C16.0346 15.1377 16.3402 15.3725 16.6676 15.5618C16.9441 15.7283 17.2424 15.8646 17.548 15.9707C17.839 16.0767 18.1446 16.1448 18.4575 16.1751C18.6467 16.1903 18.8431 16.2054 19.0323 16.2205C19.105 16.2281 19.1778 16.2281 19.2506 16.2357C19.2651 16.2433 19.2797 16.2508 19.287 16.266C19.4106 16.5689 19.5343 16.8717 19.6653 17.1746C19.7672 17.4169 19.869 17.6593 19.9782 17.9167C19.8763 17.9394 19.7817 17.9621 19.6799 17.9697C19.4325 17.9849 19.1778 18 18.9304 18C18.7049 18 18.4793 17.9773 18.261 17.947C17.9627 17.9016 17.6571 17.8486 17.3588 17.7804C17.0023 17.6895 16.653 17.5684 16.3111 17.4169C15.9036 17.2352 15.5252 17.0156 15.1614 16.7506C14.9723 16.6067 14.7904 16.4553 14.6085 16.3038C14.492 16.2054 14.3756 16.0918 14.2738 15.9782C14.0409 15.7283 13.8226 15.4633 13.6335 15.1756C13.4516 14.903 13.2915 14.6152 13.1533 14.3124C12.9859 13.9489 12.8695 13.5627 12.7895 13.169C12.7749 13.1311 12.7676 13.0857 12.7603 13.0478C12.7603 12.9721 12.724 12.9569 12.6585 12.9569C12.1928 12.9569 11.7344 12.9569 11.2688 12.9569H11.1887C11.116 13.3658 10.9995 13.7672 10.8395 14.1533C10.7085 14.4789 10.5484 14.7894 10.352 15.0771C10.1992 15.2967 10.0391 15.5163 9.86448 15.7208C9.74079 15.8798 9.60255 16.0237 9.45703 16.16C9.23147 16.3644 8.99136 16.5537 8.75125 16.743C8.46021 16.955 8.15462 17.1443 7.83447 17.2958C7.44884 17.4851 7.04866 17.6365 6.6412 17.7425C6.40837 17.8031 6.17553 17.8486 5.9427 17.8864C5.71714 17.9243 5.49159 17.947 5.26603 17.9697C5.13506 17.9773 5.00409 17.9773 4.8804 17.9697C4.69122 17.9697 4.50205 17.9621 4.32015 17.9546C4.25466 17.947 4.18918 17.9394 4.12369 17.9243C4.08731 17.9167 4.07276 17.9016 4.09459 17.8561C4.24011 17.5078 4.39291 17.1595 4.53843 16.8112C4.62574 16.5991 4.70578 16.4023 4.80036 16.1827Z" fill="white"/>
</svg>
