<svg width="24" height="24" viewBox="0 0 24 24" fill="none" xmlns="http://www.w3.org/2000/svg">
<path d="M12 24C18.6274 24 24 18.6274 24 12C24 5.37258 18.6274 0 12 0C5.37258 0 0 5.37258 0 12C0 18.6274 5.37258 24 12 24Z" fill="black"/>
<path d="M23.5 12C23.5 18.3513 18.3513 23.5 12 23.5C5.64873 23.5 0.5 18.3513 0.5 12C0.5 5.64873 5.64873 0.5 12 0.5C18.3513 0.5 23.5 5.64873 23.5 12Z" stroke="black" stroke-opacity="0.097"/>
<path d="M12.0094 2.00001C17.4914 2.00947 21.9905 6.5085 21.9999 11.9905C22.0094 17.482 17.4631 22.0188 11.9905 21.9999C6.48959 21.9716 2 17.4725 2 12.0094C2 6.49905 6.50849 1.99056 12.0094 2.00001ZM11.9905 21.8298C17.4347 21.8298 21.8392 17.4253 21.8298 11.9716C21.8298 6.58412 17.4158 2.17015 12.0378 2.17015C6.5652 2.16069 2.17013 6.56522 2.17013 12.0472C2.17013 17.4158 6.59356 21.8298 11.9905 21.8298Z" fill="white"/>
<path d="M8.16252 20.7713C8.37991 20.2325 8.55004 19.8356 8.72963 19.4008C8.26649 19.1172 7.82226 18.8337 7.35912 18.5785C7.29296 18.5407 7.15118 18.673 6.93379 18.777C7.40638 19.0794 7.78445 19.3157 8.20033 19.5804C8.03965 19.8734 7.87897 20.1475 7.66158 20.5445C6.89598 19.9963 6.15875 19.4764 5.40261 18.9377C5.79013 18.5218 6.09258 18.1815 6.41394 17.8318C6.05478 17.397 5.69561 16.9622 5.30809 16.5086C5.21357 16.5747 5.11905 16.6409 4.98673 16.7259C5.27973 17.0946 5.54438 17.4348 5.83739 17.8129C5.59164 18.0303 5.3459 18.2382 4.99618 18.5312C4.46688 17.7656 3.95649 17.0284 3.41774 16.2534C3.91868 15.9887 4.31565 15.7808 4.74098 15.5634C4.57085 15.0624 4.41017 14.5709 4.22114 14.0984C4.18333 14.0133 3.99429 13.9944 3.758 13.9093C3.93758 14.4764 4.06991 14.9018 4.21168 15.3554C3.89032 15.4783 3.58787 15.5917 3.18144 15.743C2.94515 14.8356 2.71831 13.9849 2.48201 13.0681C3.03021 12.9925 3.47445 12.9263 3.97539 12.8507C3.97539 12.3403 3.98484 11.8394 3.96594 11.3384C3.95649 11.2439 3.80526 11.1589 3.71074 11.0643C3.66348 11.0927 3.61622 11.1211 3.57842 11.1494C3.57842 11.5653 3.57842 11.9906 3.57842 12.4443C3.2098 12.4443 2.88844 12.4443 2.43475 12.4443C2.51982 11.5558 2.60489 10.6768 2.68995 9.7411C3.2476 9.85452 3.70129 9.94903 4.15497 10.0436C4.33456 9.56151 4.52359 9.10783 4.66537 8.65414C4.70318 8.55017 4.60866 8.4084 4.5803 8.27607C4.52359 8.27607 4.45743 8.27607 4.40072 8.27607C4.23059 8.69195 4.06046 9.09838 3.88087 9.56151C3.55951 9.44809 3.25706 9.33467 2.84118 9.19289C3.23815 8.35169 3.61622 7.55774 4.02265 6.69763C4.50469 6.99063 4.89221 7.23638 5.29864 7.49158C5.66726 7.05679 6.01697 6.64092 6.40449 6.18723C6.33833 6.11162 6.26272 6.02655 6.1493 5.89423C5.83739 6.23449 5.54438 6.55585 5.20412 6.92447C4.94892 6.71653 4.68427 6.50859 4.34401 6.23449C5.01508 5.57287 5.64835 4.94905 6.31943 4.28743C6.66914 4.73166 6.9527 5.10028 7.23625 5.4689C7.67103 5.22315 8.10581 4.99631 8.51224 4.73166C8.60675 4.6655 8.62566 4.48592 8.68237 4.36304C8.63511 4.33469 8.58785 4.30633 8.54059 4.27798C8.15307 4.47646 7.775 4.6844 7.34022 4.91125C7.17009 4.61824 6.99995 4.33469 6.77311 3.95662C7.63322 3.5691 8.43662 3.20048 9.29673 2.81295C9.46686 3.3517 9.60864 3.77703 9.75042 4.23072C10.2608 4.14565 10.7712 4.07004 11.2721 3.96607C11.3572 3.94717 11.4045 3.77703 11.4706 3.67306C11.4423 3.63526 11.4139 3.59745 11.3856 3.5691C10.9602 3.62581 10.5255 3.68252 10.0434 3.74868C9.98671 3.43677 9.92055 3.11541 9.83548 2.67118C10.7523 2.59556 11.6502 2.51995 12.567 2.44434C12.567 3.02089 12.567 3.47458 12.567 3.93771C13.0585 4.03223 13.5311 4.1362 14.0037 4.21182C14.1171 4.23072 14.24 4.10785 14.3629 4.05114C14.3534 3.99442 14.344 3.94717 14.3251 3.89046C13.8903 3.78649 13.4555 3.68252 12.9829 3.57855C13.0396 3.24774 13.0869 2.93583 13.153 2.49159C14.051 2.73734 14.9016 2.97363 15.8184 3.22883C15.6105 3.74868 15.4309 4.17401 15.2513 4.61824C15.7523 4.91125 16.2249 5.18535 16.7258 5.47835C16.792 5.39329 16.8676 5.30822 16.9716 5.17589C16.5746 4.9207 16.206 4.69385 15.7995 4.42921C15.9508 4.14565 16.1115 3.8621 16.3288 3.46513C17.0944 4.01333 17.8317 4.52372 18.5973 5.07193C18.2097 5.49725 17.8884 5.83752 17.5765 6.17778C17.9451 6.62201 18.3043 7.03789 18.6729 7.48212C18.7674 7.43487 18.8619 7.37815 19.0131 7.29309C18.7201 6.91502 18.446 6.55585 18.153 6.17778C18.4177 5.96039 18.6634 5.743 18.9942 5.4689C19.5235 6.23449 20.0245 6.96228 20.5632 7.74677C20.0623 8.01142 19.6559 8.21936 19.24 8.43675C19.4101 8.92824 19.5613 9.39138 19.7409 9.83561C19.7787 9.93958 19.9489 9.98684 20.0623 10.0625C20.1001 10.0246 20.1474 9.98684 20.1852 9.94903C20.0528 9.5237 19.9205 9.09838 19.7693 8.63524C20.0812 8.51237 20.3836 8.39894 20.7995 8.23827C21.0358 9.13618 21.2627 9.99629 21.499 10.9131C20.9508 10.9982 20.4876 11.0643 20.0056 11.14C20.0056 11.6598 19.9961 12.1418 20.015 12.6333C20.0245 12.7373 20.1663 12.8318 20.2513 12.9358C20.2986 12.9074 20.3553 12.8885 20.4025 12.8602C20.4025 12.4254 20.4025 11.9906 20.4025 11.5275C20.7806 11.5275 21.1114 11.5275 21.5557 11.5275C21.4706 12.4254 21.3855 13.3044 21.291 14.2401C20.7428 14.1267 20.2986 14.0322 19.8354 13.9377C19.6464 14.4197 19.4574 14.8829 19.3061 15.3554C19.2778 15.45 19.3912 15.6012 19.4385 15.7241C19.4857 15.7146 19.533 15.7052 19.5897 15.6957C19.7598 15.2987 19.9205 14.8923 20.1095 14.4386C20.4309 14.552 20.7428 14.6655 21.1492 14.8072C20.7428 15.6579 20.3553 16.4518 19.9583 17.2931C19.4857 16.9906 19.0982 16.7543 18.6918 16.4991C18.3232 16.9433 17.964 17.3687 17.5859 17.8129C17.6521 17.898 17.7277 17.9736 17.8317 18.1059C18.153 17.7562 18.4555 17.4254 18.7863 17.0662C19.0415 17.2741 19.2967 17.4821 19.6464 17.7562C18.9753 18.4178 18.3326 19.0416 17.6615 19.7033C17.3213 19.2496 17.0377 18.8904 16.7542 18.5218C16.3099 18.7675 15.8657 19.0038 15.4498 19.2685C15.3648 19.3252 15.3648 19.5237 15.327 19.656C15.3742 19.6749 15.412 19.6938 15.4593 19.7127C15.8468 19.5048 16.2343 19.3063 16.6502 19.0794C16.8203 19.3724 16.9905 19.656 17.2079 20.0341C16.3761 20.4216 15.5727 20.7902 14.6937 21.1872C14.5897 20.8753 14.5236 20.6579 14.4479 20.4405C14.3723 20.2136 14.3062 19.9963 14.2305 19.76C13.7202 19.845 13.2192 19.9112 12.7372 20.0246C12.6332 20.0435 12.567 20.2136 12.4914 20.3176C12.5292 20.3554 12.5576 20.3932 12.5954 20.431C13.0302 20.3743 13.4555 20.3082 13.9281 20.242C13.9943 20.5634 14.051 20.8753 14.1455 21.3195C13.2287 21.3951 12.3497 21.4802 11.4328 21.5558C11.4328 20.9981 11.4328 20.5445 11.4328 20.0624C10.9224 19.9584 10.4215 19.845 9.9111 19.7694C9.82603 19.76 9.71261 19.9112 9.50467 20.0719C10.0812 20.2042 10.5255 20.3082 10.998 20.4216C10.9413 20.7618 10.8846 21.0832 10.8185 21.4991C9.93 21.2533 9.07934 21.017 8.16252 20.7713ZM17.8317 18.5407C17.5859 18.276 17.378 18.0397 17.17 17.8223C17.671 17.2269 18.153 16.6503 18.6351 16.0738C19.0226 16.3195 19.4007 16.5653 19.8543 16.8488C20.1474 16.225 20.4404 15.6201 20.7428 14.9868C20.5538 14.9207 20.4309 14.8829 20.3175 14.845C20.1095 15.2987 19.93 15.7146 19.7315 16.1588C19.4007 15.9793 19.1171 15.828 18.8525 15.6863C19.1171 14.9585 19.3723 14.2685 19.6275 13.5596C20.0717 13.6541 20.5254 13.7392 21.0547 13.8526C21.102 13.2288 21.1492 12.6711 21.187 12.104C21.2154 11.7543 21.0358 11.7543 20.7995 11.8583C20.7617 12.3309 20.7145 12.7751 20.6767 13.2571C20.2986 13.2004 19.9961 13.1626 19.7031 13.1154C19.7031 12.3309 19.7031 11.6031 19.7031 10.847C20.1568 10.7808 20.601 10.7146 21.1398 10.639C20.9602 9.95849 20.7901 9.31577 20.6105 8.64469C20.4215 8.72976 20.3175 8.78647 20.2135 8.83373C20.3458 9.29686 20.4593 9.73164 20.5916 10.2137C20.2324 10.2893 19.9205 10.3555 19.6275 10.4122C19.3534 9.66548 19.0982 8.98495 18.843 8.27607C19.2494 8.05868 19.6653 7.84129 20.1284 7.58609C19.722 7.00008 19.344 6.46133 18.9564 5.90368C18.8052 6.036 18.7201 6.12107 18.6256 6.19668C18.9092 6.59366 19.1833 6.97173 19.4574 7.3687C19.136 7.56719 18.8808 7.73732 18.6256 7.898C18.1247 7.30254 17.6521 6.72598 17.1606 6.14943C17.4631 5.81861 17.7655 5.47835 18.1341 5.08138C17.567 4.67495 17.0283 4.29688 16.4612 3.89046C16.3666 4.07004 16.3099 4.17401 16.2438 4.27798C16.6502 4.55208 17.0283 4.81673 17.4347 5.10028C17.1984 5.40274 16.9905 5.65793 16.8203 5.87532C16.1493 5.4878 15.5065 5.11918 14.8544 4.73166C15.0245 4.31578 15.2041 3.881 15.4026 3.38951C14.7126 3.20048 14.0793 3.03035 13.4744 2.86967C13.3043 3.19103 13.3421 3.3328 13.6634 3.38951C14.0226 3.44622 14.3818 3.55964 14.7598 3.66361C14.637 4.03223 14.533 4.32524 14.4385 4.59934C13.6729 4.46701 12.9546 4.33469 12.1984 4.20236C12.2173 3.75813 12.2362 3.30445 12.2646 2.7657C11.6597 2.81295 11.102 2.84131 10.5444 2.90747C10.2041 2.94528 10.2041 2.97363 10.3553 3.3517C10.7996 3.30445 11.2438 3.26664 11.7258 3.21938C11.7447 3.588 11.7636 3.89991 11.7825 4.20236C11.017 4.33469 10.2986 4.46701 9.53303 4.59934C9.39125 4.16456 9.24947 3.72978 9.08879 3.20993C8.44607 3.50293 7.85061 3.77703 7.21734 4.07949C7.33077 4.24962 7.40638 4.35359 7.47254 4.44811C7.91677 4.24017 8.3232 4.04168 8.75798 3.8432C8.89976 4.18346 9.01318 4.47646 9.13605 4.75057C8.47443 5.13809 7.82226 5.51616 7.16063 5.89423C6.87708 5.52561 6.59353 5.15699 6.17765 4.62769C5.77122 5.10973 5.41206 5.54451 5.03399 5.96984C4.8166 6.21559 4.89221 6.33846 5.18522 6.45188C5.50658 6.12107 5.82794 5.78081 6.1682 5.43109C6.4234 5.71464 6.63134 5.95094 6.82982 6.16833C6.31943 6.77324 5.84684 7.34035 5.37425 7.90745C4.97728 7.66171 4.58975 7.41596 4.14552 7.13241C3.84307 7.77513 3.56896 8.36114 3.27596 8.99441C3.465 9.06057 3.58787 9.09838 3.70129 9.13618C3.90923 8.6825 4.08881 8.26662 4.29675 7.82239C4.62756 8.00197 4.91111 8.1532 5.16631 8.28552C4.90166 9.01331 4.64647 9.70329 4.39127 10.4122C3.93758 10.3177 3.49335 10.2326 2.9546 10.1192C2.90734 10.7524 2.86008 11.3101 2.82228 11.8677C2.80337 12.1702 2.9546 12.208 3.2098 12.1229C3.25706 11.6598 3.29486 11.1967 3.34212 10.7052C3.72019 10.7619 4.02265 10.8091 4.31565 10.847C4.31565 11.6314 4.31565 12.3687 4.31565 13.1154C3.86197 13.1815 3.41774 13.2477 2.87899 13.3233C3.05857 14.0038 3.2287 14.6466 3.38938 15.2704C3.7769 15.242 3.84307 15.1191 3.72964 14.8261C3.59732 14.4953 3.53116 14.1456 3.42719 13.7486C3.79581 13.673 4.10771 13.6069 4.39127 13.5502C4.66537 14.2968 4.92057 14.9774 5.17576 15.6768C4.75989 15.9036 4.35346 16.121 3.89032 16.3668C4.29675 16.9528 4.67482 17.4821 5.06234 18.0492C5.21357 17.9074 5.29864 17.8318 5.39315 17.7467C5.1096 17.3498 4.8355 16.9717 4.55195 16.5747C4.87331 16.3668 5.13796 16.2061 5.39315 16.0454C5.8941 16.6409 6.37614 17.2174 6.85818 17.794C6.55572 18.1248 6.24381 18.4651 5.88465 18.8715C6.45175 19.2779 6.9905 19.656 7.55761 20.0624C7.65213 19.8828 7.70884 19.7789 7.775 19.6749C7.36857 19.4008 6.9905 19.1361 6.58408 18.862C6.82037 18.5596 7.02831 18.3044 7.19844 18.087C7.87897 18.484 8.51224 18.8431 9.16441 19.2212C8.99428 19.6465 8.82414 20.0813 8.62566 20.5728C9.31564 20.7618 9.93945 20.932 10.5538 21.0927C10.7239 20.7713 10.6672 20.6295 10.3648 20.5728C10.0056 20.5067 9.64645 20.3932 9.26838 20.2987C9.39125 19.9395 9.49522 19.6465 9.58028 19.363C10.3459 19.4953 11.0642 19.6276 11.792 19.76C11.792 20.2136 11.792 20.6673 11.792 21.1966C12.4631 21.1494 13.1058 21.1021 13.8147 21.0454C13.7674 20.8469 13.7391 20.724 13.7107 20.6106C13.2287 20.6579 12.775 20.7051 12.2929 20.7524C12.274 20.3743 12.2551 20.0719 12.2457 19.76C13.0113 19.6276 13.7296 19.4953 14.4952 19.363C14.637 19.7978 14.7788 20.242 14.9394 20.7524C15.5916 20.4405 16.1965 20.1664 16.792 19.8828C16.7825 19.8072 16.7636 19.7316 16.7542 19.656C16.6029 19.6465 16.4328 19.5898 16.3005 19.6465C15.9602 19.7789 15.6294 19.9584 15.2702 20.1286C15.1285 19.7789 15.015 19.4953 14.8922 19.2212C15.5632 18.8337 16.206 18.4556 16.8676 18.0775C17.1511 18.4462 17.4441 18.8148 17.7939 19.2779C18.3232 18.7864 18.7957 18.3422 19.3061 17.8696C19.0509 17.6522 18.9659 17.5766 18.9375 17.5482C18.5406 17.898 18.2097 18.2004 17.8317 18.5407Z" fill="white"/>
<path d="M19.4007 12.0093C19.4007 16.1114 16.0832 19.4006 11.9716 19.4006C7.89794 19.3911 4.58982 16.0736 4.60872 11.9904C4.61817 7.89781 7.92629 4.58969 11.9905 4.59914C16.1021 4.59914 19.4007 7.89781 19.4007 12.0093ZM11.9905 19.2494C15.9981 19.2399 19.259 15.998 19.2495 12.0188C19.2495 7.99232 15.9886 4.72201 11.9905 4.74092C7.9641 4.76927 4.72214 8.03013 4.74105 12.0471C4.7694 16.0074 8.03026 19.2588 11.9905 19.2494Z" fill="white"/>
<path d="M9.32514 10.0249C8.51228 11.2726 7.69943 12.5202 6.84877 13.8245C7.7845 13.8245 8.66351 13.8245 9.54253 13.8245C9.55198 13.8624 9.57088 13.9002 9.58033 13.938C9.43856 13.9852 9.29678 14.0608 9.155 14.0608C8.23818 14.0419 7.32136 14.0136 6.39509 13.9852C6.31948 13.9852 6.23441 14.023 6.00757 14.0892C6.91494 12.7092 7.74669 11.4427 8.61625 10.1289C7.73724 10.1289 6.92439 10.1289 6.10209 10.1289C6.21551 9.86426 6.21551 9.86426 7.61437 9.86426C8.16257 9.86426 8.71077 9.86426 9.26843 9.86426C9.29678 9.92097 9.30623 9.96823 9.32514 10.0249Z" fill="white"/>
<path d="M10.2325 9.88299C10.2325 10.6013 10.2325 11.3102 10.2325 12.0285C10.2797 12.0285 10.3364 12.0285 10.3837 12.0285C10.3837 11.3197 10.3837 10.6202 10.3837 9.91134C10.4215 9.91134 10.4498 9.90189 10.4877 9.90189C10.5066 9.9775 10.5444 10.0437 10.5444 10.1193C10.5444 10.9227 10.5255 11.7261 10.5538 12.5295C10.5822 13.4747 11.4801 14.089 12.378 13.8055C12.9262 13.6353 13.1058 13.399 13.1058 12.8225C13.1058 11.8584 13.1058 10.8849 13.1058 9.87354C13.1909 9.92079 13.3043 9.9586 13.3043 9.98696C13.3137 11.3291 13.3137 12.6713 13.2098 14.0418C13.153 13.9378 13.0963 13.8338 13.0207 13.7015C12.482 14.0512 11.9054 14.2781 11.2532 14.0701C10.6767 13.8905 10.1663 13.5503 10.119 12.9359C10.0434 11.934 10.1001 10.9132 10.1001 9.90189C10.1474 9.90189 10.1946 9.89244 10.2325 9.88299Z" fill="white"/>
<path d="M15.6956 10.0628C15.119 10.0628 14.5803 10.0628 14.051 10.0628C14.051 10.025 14.051 9.97775 14.051 9.93994C15.3364 9.93994 16.6124 9.93994 17.8978 9.93994C17.8978 9.9872 17.8978 10.0345 17.8978 10.0912C17.6332 10.0912 17.3685 10.0912 17.1039 10.0912C16.8392 10.0912 16.5746 10.0912 16.2627 10.0912C16.2627 11.4144 16.2627 12.7282 16.2627 14.0326C16.0547 14.0326 15.8941 14.0326 15.6861 14.0326C15.6956 12.7377 15.6956 11.4239 15.6956 10.0628Z" fill="white"/>
<path d="M13.569 9.88281C13.569 11.31 13.569 12.6711 13.569 14.0983C13.3232 13.7202 13.3327 10.1475 13.569 9.88281Z" fill="white"/>
</svg>
