<svg width="24" height="24" viewBox="0 0 24 24" fill="none" xmlns="http://www.w3.org/2000/svg">
<path d="M12 24C18.6274 24 24 18.6274 24 12C24 5.37258 18.6274 0 12 0C5.3726 0 1.52588e-05 5.37258 1.52588e-05 12C1.52588e-05 18.6274 5.3726 24 12 24Z" fill="#0041FF"/>
<path d="M12 24C18.6274 24 24 18.6274 24 12C24 5.37258 18.6274 0 12 0C5.3726 0 1.52588e-05 5.37258 1.52588e-05 12C1.52588e-05 18.6274 5.3726 24 12 24Z" fill="#FF0540"/>
<path d="M23.5 12C23.5 18.3513 18.3513 23.5 12 23.5C5.64874 23.5 0.500015 18.3513 0.500015 12C0.500015 5.64873 5.64874 0.5 12 0.5C18.3513 0.5 23.5 5.64873 23.5 12Z" stroke="white" stroke-opacity="0.3"/>
<path d="M18.0475 6.8796L12 18.6086L5.95252 6.8796L18.0475 6.8796Z" stroke="white" stroke-width="1.27525"/>
</svg>
