<?xml version="1.0" encoding="UTF-8"?>
<svg xmlns="http://www.w3.org/2000/svg" xmlns:xlink="http://www.w3.org/1999/xlink" viewBox="0 0 242.77 242.77">
  <defs>
    <style>
      .cls-1 {
        opacity: .9;
      }

      .cls-1, .cls-2 {
        fill: none;
      }

      .cls-3 {
        fill: url(#linear-gradient);
      }

      .cls-2 {
        isolation: isolate;
      }

      .cls-4 {
        fill: #8c5c23;
      }

      .cls-5 {
        fill: url(#linear-gradient-4);
        fill-opacity: .9;
      }

      .cls-5, .cls-6 {
        mix-blend-mode: multiply;
      }

      .cls-7 {
        fill: url(#linear-gradient-3);
      }

      .cls-8 {
        fill: url(#linear-gradient-2);
      }

      .cls-6 {
        fill: rgba(29, 29, 27, .9);
      }

      .cls-9 {
        fill: rgba(203, 187, 160, .3);
        opacity: .6;
      }
    </style>
    <linearGradient id="linear-gradient" x1="47.41" y1="53.35" x2="193.98" y2="188.15" gradientUnits="userSpaceOnUse">
      <stop offset="0" stop-color="#b57419"/>
      <stop offset=".15" stop-color="#d6a649"/>
      <stop offset=".26" stop-color="#edc869"/>
      <stop offset=".33" stop-color="#f6d576"/>
      <stop offset=".38" stop-color="#f7d987"/>
      <stop offset=".49" stop-color="#fae2a9"/>
      <stop offset=".56" stop-color="#fce6b6"/>
      <stop offset=".78" stop-color="#d8ad67"/>
      <stop offset="1" stop-color="#b57419"/>
    </linearGradient>
    <linearGradient id="linear-gradient-2" x1="0" y1="121.39" x2="242.77" y2="121.39" gradientUnits="userSpaceOnUse">
      <stop offset="0" stop-color="#b57419"/>
      <stop offset=".03" stop-color="#bc7e23"/>
      <stop offset=".25" stop-color="#f0cd6f"/>
      <stop offset=".35" stop-color="#f6d992"/>
      <stop offset=".43" stop-color="#fae2ac"/>
      <stop offset=".48" stop-color="#fce6b6"/>
      <stop offset=".53" stop-color="#fae2a9"/>
      <stop offset=".63" stop-color="#f7d987"/>
      <stop offset=".67" stop-color="#f6d576"/>
      <stop offset=".73" stop-color="#edc869"/>
      <stop offset=".85" stop-color="#d6a649"/>
      <stop offset="1" stop-color="#b57419"/>
    </linearGradient>
    <linearGradient id="linear-gradient-3" x1="72.23" y1="39.95" x2="154.1" y2="188.12" gradientUnits="userSpaceOnUse">
      <stop offset="0" stop-color="#edd381"/>
      <stop offset=".5" stop-color="#b6863f"/>
      <stop offset="1" stop-color="#f8e7ba"/>
    </linearGradient>
    <linearGradient id="linear-gradient-4" x1="211.37" y1="208.06" x2="28.66" y2="57.25" gradientUnits="userSpaceOnUse">
      <stop offset="0" stop-color="#f6d678"/>
      <stop offset=".2" stop-color="#e5c36b"/>
      <stop offset=".6" stop-color="#bb9349"/>
      <stop offset="1" stop-color="#8c5c23"/>
    </linearGradient>
  </defs>
  <g class="cls-2">
    <g id="Layer_2" data-name="Layer 2">
      <g id="Layer_1-2" data-name="Layer 1">
        <g>
          <g>
            <g>
              <circle class="cls-3" cx="121.39" cy="121.39" r="101.26"/>
              <path class="cls-4" d="m121.39,234.23c-62.22,0-112.85-50.62-112.85-112.85S59.16,8.54,121.39,8.54s112.85,50.62,112.85,112.85-50.62,112.85-112.85,112.85Zm0-214.03c-55.79,0-101.19,45.39-101.19,101.19s45.39,101.18,101.19,101.18,101.18-45.39,101.18-101.18S177.18,20.2,121.39,20.2Z"/>
              <path class="cls-8" d="m121.39,0C54.35,0,0,54.35,0,121.39s54.35,121.39,121.39,121.39,121.39-54.35,121.39-121.39S188.43,0,121.39,0Zm0,233.57c-61.96,0-112.19-50.23-112.19-112.19S59.43,9.2,121.39,9.2s112.19,50.23,112.19,112.19-50.23,112.19-112.19,112.19Z"/>
            </g>
            <path class="cls-9" d="m116.33,3.16c-18.42,0-35.9,4.07-51.61,11.34-.02,1.09-.04,2.18-.04,3.28,0,88.38,71.9,160.28,160.28,160.28,1.1,0,2.19-.02,3.28-.04,7.27-15.71,11.34-33.19,11.34-51.61C239.58,58.45,184.29,3.16,116.33,3.16Z"/>
          </g>
          <g>
            <g class="cls-1">
              <path class="cls-6" d="m132.98,78.33s-2.23-4.6-7.41-8.91c-5.18-4.31-8.25-10.18-8.25-10.18-.1,1.53-.09,5.75,2.46,10.26,2.55,4.51,13.2,8.83,13.2,8.83Z"/>
              <path class="cls-6" d="m183.57,121.51c-1.46-5.06-4.02-9.14-6.75-12.32-2.2-2.56-4.52-4.54-6.46-5.97-2.58-1.9-4.49-2.82-4.55-2.85,1.89,3.86,2.54,5.82,3.39,9.69.58-.68.86-1.02,1.44-1.72.89,4.06,1.07,6.06.97,9.89,1.22-.41,1.87-.61,3.01-.97.03.13.05.27.07.4.08.41.15.83.21,1.24-.03,8.26-3.54,15.03-3.59,15.13,2.52-1.49,3.23-1.97,4.03-2.99,0,.03,0,.05,0,.08,0,.05-.01.11-.02.16-.02.12-.03.24-.05.35-.02.14-.04.29-.06.43-.02.11-.03.21-.05.32-.01.09-.03.17-.04.26-.02.15-.05.29-.08.44-.03.17-.06.34-.1.5-.06.3-.12.59-.19.89-.08.37-.17.74-.26,1.1-.03.11-.06.22-.09.33-.27,1.03-.59,2.05-.95,3.04-5.58,15.52-20.99,26.06-38.23,24.75-23.3-1.77-40.99-27.77-32.54-49.98,1.2-3.16,2.86-6.05,4.97-8.69.03-.04.07-.09.1-.13,2.05-2.48,4.78-3.35,7.98-2.81-.04.14-.07.29-.09.43,0,0,0,0,0,0-.01.07-.02.15-.03.22-.02.12-.04.24-.05.35-.13,1.52.33,3.02,1.39,4.17.09.1.2.19.29.29.44.45.9.87,1.39,1.27.24.2.47.41.73.58,3.09,2.04,6.07,4.73,8.11,7.83.28.42.53.85.77,1.28.48.87.91,1.76,1.21,2.69.08.22.14.45.21.68.67,2.13,1.14,4.3,1.59,6.37.07.29.14.58.21.87.06.24.12.49.17.72h0c.12-.04.24-.08.36-.12.12-.04.23-.08.35-.12,1.25-.43,2.62-.86,3.99-1.3.34-.11.67-.21,1.01-.32,3.35-1.08,6.71-5.22,7.02-8.72.06-.75-.06-1.49-.1-2.24h0c-.13-.04-.25-.11-.38-.15-.51.65-.95,1.35-1.54,1.95-1.4,1.41-2.44,1.93-3.57,1.57-.2-.06-.4-.17-.6-.28-.03-.02-.06-.02-.09-.04-.47-.29-.97-.71-1.52-1.28-1.98-2.01-4.05-3.94-5.95-6.02-.54-.6-1.03-1.23-1.47-1.88-1.63-2.39-2.51-5.12-2.03-8.07.57-.02,1.11-.04,1.64-.05.88-.03,1.74-.07,2.59-.17,2.66-.3,5.32-.79,7.98-1.02.83-.08,1.56.02,2.21.22,1.25.38,2.17,1.19,2.59,2.3.3.79.33,1.74.11,2.75-.06.29-.11.57-.22.86-.02.04-.03.09-.05.13-.09.24-.18.5-.3.85-.04.11-.08.22-.13.35,0,0,0,0,0,0,0,0,0,0,0,0,.33-.18.59-.31.86-.45.38-.2.73-.37,1.04-.56,1.54-.93,3.06-1.94,4.63-2.81.25-.14.49-.24.71-.32.26-.09.5-.16.73-.17,0,0,.02,0,.03,0,.56-.02,1.05.2,1.49.73.11.13.22.29.33.46.03.05.05.1.08.15.47.81.77,1.74,1.07,2.66.13.41.27.81.42,1.21,0,0,0,0,0,0,0,0,0,0,0,0,1.67-.62,3.05-1.7,4.08-3.07.41-.55.77-1.14,1.06-1.76,1.32-2.81,1.42-6.32-.07-9.49-.12-.26-.26-.51-.4-.76-.05-.08-.08-.17-.13-.25-.08-.13-.16-.26-.23-.39-.5-.84-1.03-1.62-1.99-1.79-.31-.06-.66-.06-1.08.04-.06.01-.12.01-.18.01-.35.01-.76-.13-1.09-.29-1.68-.88-3.41-1.71-5-2.72-.66-.41-1.34-.78-2.02-1.12-1.53-.77-3.12-1.34-4.88-1.55-.94-.11-1.81-.37-2.59-.8-.39-.22-.75-.47-1.09-.77-.04-.03-.07-.08-.11-.12-.29-.27-.58-.56-.83-.9-.75-1.03-1.62-1.84-2.59-2.53-1.36-.96-2.91-1.65-4.58-2.23-9.72-3.38-18.45-8.26-24.89-16.58,0,0,0,0,0,0h0s-.02,0-.03,0c-.05-.03-.17,0-.37,0h0s0,0,0,0c-.37,5.17-.63,10.29,3,14.73.24.3.5.59.78.88-.94-.05-1.86-.05-2.77-.02-13.61.48-23.76,9.33-23.76,9.33h0,0s5.3-.05,7.74,2.9c0,0-.69.15-1.83.51-.32.1-.68.23-1.07.37-.28.1-.57.21-.88.33-.18.07-.37.15-.56.22-.64.26-1.32.56-2.04.91-.03.01-.05.02-.08.04-.37.18-.76.38-1.14.59-.54.29-1.1.61-1.66.96-1.71,1.05-3.49,2.35-5.17,3.96-.05.05-.1.09-.14.13-.7.68-1.38,1.42-2.04,2.2-.31.37-.61.76-.91,1.16-.51.69-1,1.42-1.46,2.19-.26.44-.51.9-.76,1.36-.23.44-.44.89-.65,1.35-.49,1.09-.92,2.25-1.28,3.49h0s0,0,0,0c0,0,2.62-2.76,6.69-3.3.49-.07.99-.11,1.52-.11,0,0-22.65,16.73-12.19,38.83h0s1.63-4.66,5.61-7.86c0,0-.05.19-.12.55-.73,3.5-3.99,22.93,9.11,39.29,0,0,.05-1.8.25-4.49.16-2.1.41-4.74.81-7.5,3.48,4.93,7.75,9.29,12.63,12.88.81.6,1.65,1.17,2.49,1.73,7.63,4.99,16.59,8.18,26.33,8.92,6.59.5,13.21-.19,19.53-1.99.22-.06.45-.12.67-.18h0c.45-.13.89-.3,1.34-.44,4.03-1.31,7.93-3.05,11.58-5.26,9.68-5.85,17.53-14.66,22.13-25,.02-.05.05-.11.08-.16.02-.04.04-.09.06-.13,5.14-11.72,6.15-25.13,2.73-37.46,1.02.8,1.85,1.53,3.1,2.7Zm-48.06-32.8c.56.66.95,1.34,1.14,2.01-.05-.02-.13-.05-.19-.07-1.49-.59-4.91-1.64-6.19-2.25-.85-.41-1.22-.77-1.46-1.24-.31-.61-.39-1.41-.92-2.78,2.81.78,5.19,2.04,6.78,3.48.31.28.6.56.85.86Zm20.45,8.4s.08.11.13.16c.36.44.64,1.27.47,1.5-.05.06-.12.11-.18.17-.35.32-.9.55-1.38.58-.09,0-.18.02-.26.01-.25-.02-.51-.37-.71-.75-.05-.1-.11-.2-.15-.3-.05-.12-.11-.24-.15-.34-.08-.25-.09-.54-.09-.86,0-.32.03-.69.01-1.12.81.3,1.63.47,2.24.9.03.02.06.03.09.05Z"/>
            </g>
            <g>
              <g>
                <g>
                  <path class="cls-4" d="m131.34,73.4s-2.23-4.6-7.41-8.91c-5.18-4.31-8.25-10.18-8.25-10.18-.1,1.53-.09,5.75,2.46,10.26,2.55,4.51,13.2,8.83,13.2,8.83Z"/>
                  <path class="cls-7" d="m181.93,116.58c-1.46-5.06-4.02-9.14-6.75-12.32-2.2-2.56-4.52-4.54-6.46-5.97-2.58-1.9-4.49-2.82-4.55-2.85,1.89,3.86,2.54,5.82,3.39,9.69.58-.68.86-1.02,1.44-1.72.89,4.06,1.07,6.06.97,9.89,1.22-.41,1.87-.61,3.01-.97.03.13.05.27.07.4.08.41.15.83.21,1.24-.03,8.26-3.54,15.03-3.59,15.13,2.52-1.49,3.23-1.97,4.03-2.99,0,.03,0,.05,0,.08,0,.05-.01.11-.02.16-.02.12-.03.24-.05.35-.02.14-.04.29-.06.43-.02.11-.03.21-.05.32-.01.09-.03.17-.04.26-.02.15-.05.29-.08.44-.03.17-.06.34-.1.5-.06.3-.12.59-.19.89-.08.37-.17.74-.26,1.1-.03.11-.06.22-.09.33-.27,1.03-.59,2.05-.95,3.04-5.58,15.52-20.99,26.06-38.23,24.75-23.3-1.77-40.99-27.77-32.54-49.98,1.2-3.16,2.86-6.05,4.97-8.69.03-.04.07-.09.1-.13,2.05-2.48,4.78-3.35,7.98-2.81-.04.14-.07.29-.09.43-.03.19-.06.39-.08.58-.13,1.52.33,3.02,1.39,4.17.74.78,1.53,1.54,2.41,2.13,4.34,2.87,8.52,7.01,10.1,11.8.8,2.35,1.3,4.76,1.8,7.05.13.54.26,1.08.39,1.6.25-.09.47-.15.71-.24,1.56-.53,3.3-1.08,4.99-1.62,3.35-1.08,6.71-5.22,7.02-8.72.06-.75-.06-1.49-.1-2.24-.13-.04-.25-.11-.38-.15-.51.65-.95,1.35-1.54,1.95-2.24,2.26-3.56,2.24-5.78-.03-1.97-2.01-4.05-3.94-5.95-6.02-2.54-2.8-4.11-6.2-3.5-9.94,1.5-.06,2.87-.05,4.23-.22,2.66-.3,5.32-.79,7.98-1.02,3.84-.36,6.01,2.55,4.69,6.14-.13.36-.25.7-.48,1.34.81-.44,1.37-.69,1.9-1.01,1.54-.93,3.06-1.94,4.62-2.81,1.43-.79,2.45-.69,3.29.7.73,1.2,1.04,2.67,1.56,4.03,5.35-1.99,7.73-8.68,5.07-14.32-.16-.34-.34-.68-.54-1.01-.75-1.25-1.4-2.58-3.3-2.15-.38.09-.89-.09-1.27-.27-1.68-.88-3.41-1.71-5-2.72-2.14-1.34-4.35-2.38-6.9-2.67-1.88-.22-3.48-1.06-4.62-2.6-1.8-2.48-4.33-3.77-7.17-4.76-9.71-3.38-18.45-8.26-24.89-16.58-.02-.05-.17-.01-.4,0-.39,5.52-.66,10.97,3.77,15.61-14.98-.75-26.53,9.31-26.53,9.31,0,0,5.3-.05,7.74,2.9,0,0-17.01,3.61-21.66,19.77,0,0,3.28-3.49,8.21-3.4,0,0-22.65,16.73-12.19,38.83,0,0,1.63-4.66,5.61-7.86,0,0-5.47,21.8,8.99,39.84,0,0,.16-5.68,1.06-11.99,9.28,13.15,24.14,22.21,41.45,23.53,6.82.52,13.68-.23,20.2-2.17h0c4.51-1.34,8.86-3.25,12.91-5.7,9.73-5.88,17.61-14.75,22.21-25.16.02-.04.04-.09.06-.13,5.14-11.72,6.15-25.13,2.73-37.46,1.02.8,1.85,1.53,3.1,2.7Zm-29.94-25.36c.85.31,1.71.48,2.32.95.42.36.79,1.41.6,1.67-.36.47-1.23.83-1.83.76-.4-.03-.81-.86-1.01-1.4-.16-.51-.04-1.12-.08-1.97Zm-18.12-7.45c.56.66.95,1.34,1.14,2.01-1.38-.57-5.05-1.68-6.38-2.33-1.94-.93-1.43-1.58-2.38-4.02,3.36.93,6.11,2.55,7.63,4.33Zm-16.9,14.2s.05.02.08.03c-.03.03-.05.02-.08-.03Z"/>
                </g>
                <path class="cls-4" d="m178.83,113.88c3.41,12.33,2.4,25.75-2.73,37.46-.02.04-.04.09-.06.13-1.27,2.8-4.36,6.3-8.21,9.92-34.17,32.23-90.23,4.54-84.83-42.12.59-5.11,1.92-9.75,3.75-13.55,5.39-11.16,17.19-17.05,31.94-15.43-2.66,2.2-4.01,4.94-4.69,7.31.03-.14.06-.29.09-.43-3.2-.54-5.93.33-7.98,2.81-.03.04-.07.08-.1.13-2.11,2.63-3.77,5.53-4.97,8.69-8.45,22.21,9.24,48.21,32.54,49.98,17.24,1.31,32.66-9.23,38.23-24.75.36-.99.68-2.01.95-3.04.03-.11.06-.22.09-.33.09-.37.18-.73.26-1.1.07-.29.13-.59.19-.89.03-.17.07-.34.1-.5.03-.15.05-.29.08-.44.01-.09.03-.17.04-.26.02-.11.03-.21.05-.32.02-.14.04-.29.06-.43.02-.12.03-.24.05-.35,0-.05.01-.11.02-.16,0-.03,0-.05.01-.08h0c-.8,1.01-1.52,1.5-4.03,2.98.05-.11,3.56-6.87,3.59-15.13-.07-.42-.14-.83-.21-1.24-.02-.13-.05-.27-.07-.4-1.14.35-1.79.56-3.01.97.09-3.83-.08-5.83-.97-9.89-.57.7-.85,1.04-1.44,1.72-.86-3.87-1.5-5.83-3.39-9.69.06.03,1.96.95,4.55,2.85,1.94,1.42,4.25,3.4,6.46,5.97,2.73,3.18,5.29,7.26,6.75,12.32-1.25-1.17-2.08-1.9-3.1-2.7Z"/>
              </g>
              <path class="cls-5" d="m167.83,161.39c-34.17,32.23-90.23,4.54-84.83-42.12.59-5.11,1.92-9.75,3.75-13.55,5.39-11.16,17.19-17.05,31.94-15.43-2.65,2.2-4.01,4.94-4.69,7.31-.03.19-.06.39-.08.58-.13,1.52.33,3.02,1.39,4.17.74.78,1.53,1.54,2.41,2.13,4.34,2.87,8.52,7.01,10.1,11.8.8,2.35,1.3,4.76,1.8,7.05.13.54.26,1.08.39,1.6.24-.09.47-.15.71-.24,1.56-.53,3.3-1.08,4.99-1.61,3.35-1.08,6.71-5.22,7.02-8.72.06-.75-.06-1.49-.1-2.24-.13-.04-.25-.11-.38-.15-.51.65-.95,1.35-1.54,1.95-2.24,2.26-3.56,2.24-5.78-.03-1.98-2.01-4.05-3.94-5.95-6.02-2.54-2.8-4.11-6.2-3.5-9.94,1.5-.06,2.87-.06,4.23-.22,2.66-.3,5.32-.79,7.98-1.02,3.84-.36,6.02,2.55,4.69,6.14-.13.36-.25.7-.48,1.34.81-.44,1.37-.69,1.9-1,1.54-.93,3.06-1.94,4.63-2.81,1.43-.79,2.45-.69,3.29.7.73,1.2,1.04,2.67,1.56,4.03,5.35-1.99,7.73-8.68,5.07-14.32-.16-.34-.34-.68-.54-1.01-.75-1.25-1.4-2.58-3.31-2.15-.38.09-.89-.09-1.27-.27-1.68-.88-3.41-1.71-5-2.72-2.14-1.34-4.35-2.38-6.9-2.67-1.88-.22-3.48-1.06-4.61-2.6-1.81-2.48-4.33-3.77-7.17-4.76-9.72-3.38-18.45-8.26-24.89-16.58-.02-.05-.18-.01-.4,0-.39,5.52-.66,10.97,3.77,15.61-14.98-.76-26.53,9.31-26.53,9.31,0,0,5.3-.05,7.74,2.9,0,0-17.01,3.61-21.66,19.77,0,0,3.28-3.49,8.21-3.4,0,0-22.65,16.73-12.19,38.83,0,0,1.63-4.66,5.61-7.86,0,0-5.47,21.8,8.99,39.84,0,0,.16-5.68,1.06-11.99,9.28,13.15,24.14,22.21,41.45,23.53,6.82.52,13.68-.23,20.2-2.17h0c4.51-1.34,8.86-3.25,12.91-5.7,9.73-5.88,17.61-14.75,22.21-25.16-1.27,2.8-4.36,6.3-8.21,9.92Zm-50.86-63.42s.05.02.08.03c-.03.03-.05.02-.08-.03Zm35.02-6.75c.85.31,1.71.48,2.32.95.42.36.79,1.41.6,1.67-.36.47-1.23.83-1.83.76-.4-.03-.81-.86-1.01-1.4-.16-.51-.04-1.12-.08-1.98Zm-18.12-7.45c.56.66.95,1.34,1.14,2.01-1.38-.57-5.05-1.68-6.38-2.33-1.94-.93-1.43-1.58-2.38-4.02,3.36.93,6.11,2.55,7.63,4.33Z"/>
            </g>
          </g>
        </g>
      </g>
    </g>
  </g>
</svg>