<svg width="24" height="24" viewBox="0 0 24 24" fill="none" xmlns="http://www.w3.org/2000/svg">
<path d="M12 24C18.6274 24 24 18.6274 24 12C24 5.37258 18.6274 0 12 0C5.37258 0 0 5.37258 0 12C0 18.6274 5.37258 24 12 24Z" fill="#C9C6DC"/>
<path d="M7 11.9849C7 10.0731 7 8.17634 7 6.26452C7 5.27097 7.25044 5 8.14091 5C10.1305 5 12.1202 5.01505 14.1098 5C14.6107 5 15.0003 5.16559 15.3342 5.55699C15.9325 6.23441 16.5447 6.86667 17.1429 7.52903C17.6995 8.14624 17.7134 8.50753 17.1569 9.12473C16.6977 9.62151 16.2525 10.1333 15.7794 10.6151C15.4872 10.9161 15.4038 11.1118 15.8072 11.4129C16.6699 12.0753 17.4908 12.8129 18.3256 13.5204C19.1882 14.243 19.216 14.5742 18.4508 15.4022C17.5186 16.4108 16.5586 17.4344 15.6264 18.4581C15.2785 18.8495 14.889 19 14.3881 19C12.3289 18.9849 10.2697 19 8.21047 19C7.27827 19 7 18.6989 7 17.7054C7 15.7935 7 13.8968 7 11.9849ZM8.53048 11.714C8.53048 12.9634 8.53048 14.2129 8.53048 15.4624C8.53048 15.6129 8.48874 15.7785 8.61397 15.8839C8.76701 16.0043 8.86441 15.8387 8.9618 15.7333C10.2418 14.3634 11.508 12.9785 12.788 11.5935C13.0524 11.3075 12.9689 11.0667 12.7045 10.8409C11.4801 9.80215 10.2418 8.76344 9.00354 7.72473C8.89224 7.63441 8.78093 7.49892 8.64179 7.55914C8.447 7.64946 8.5444 7.87527 8.5444 8.02581C8.53048 9.26022 8.53048 10.4796 8.53048 11.714ZM12.1619 17.3441C12.7602 17.3441 13.3585 17.3441 13.9707 17.3441C14.235 17.3441 14.4576 17.2989 14.6802 17.1183C15.4177 16.471 16.0577 15.7183 16.7534 15.0108C17.0734 14.6796 17.0455 14.4688 16.6838 14.1828C16.002 13.6409 15.3203 13.0688 14.6663 12.4667C14.402 12.2258 14.235 12.3011 14.0263 12.5269C12.7045 13.972 11.3828 15.4022 10.061 16.8323C9.96357 16.9376 9.81053 17.043 9.86618 17.1935C9.93575 17.4043 10.1445 17.329 10.2975 17.329C10.9097 17.3441 11.5358 17.3441 12.1619 17.3441ZM10.4784 6.67097C10.4505 6.73118 10.4366 6.80645 10.4088 6.86667C11.4106 7.69462 12.4123 8.52258 13.4141 9.35054C14.235 10.043 14.235 10.043 14.9307 9.27527C15.7516 8.3871 15.7655 8.37204 14.9168 7.49892C14.6107 7.1828 14.402 6.67097 13.9011 6.67097C12.7602 6.65591 11.6193 6.67097 10.4784 6.67097Z" fill="white"/>
<path d="M23.5 12C23.5 18.3513 18.3513 23.5 12 23.5C5.64873 23.5 0.5 18.3513 0.5 12C0.5 5.64873 5.64873 0.5 12 0.5C18.3513 0.5 23.5 5.64873 23.5 12Z" stroke="white" stroke-opacity="0.3"/>
</svg>
