<?xml version="1.0" encoding="UTF-8"?>
<svg width="108px" height="108px" viewBox="0 0 108 108" version="1.1" xmlns="http://www.w3.org/2000/svg" xmlns:xlink="http://www.w3.org/1999/xlink">
    <!-- Generator: Sketch 62 (91390) - https://sketch.com -->
    <title>ampl</title>
    <desc>Created with Sketch.</desc>
    <g id="ampl" stroke="none" stroke-width="1" fill="none" fill-rule="evenodd">
        <circle id="Oval" fill="#FFFFFF" cx="54" cy="54" r="54"></circle>
        <g transform="translate(16.000000, 8.000000)" fill="#000000" fill-rule="nonzero" id="Path">
            <path d="M0.0499942534,78 C-0.0134749288,76.9171856 -0.0165145473,75.8317175 0.0408893273,74.74857 C0.403699939,74.6373144 0.776190793,74.5599074 1.15351129,74.5173572 C2.25048541,74.3278304 3.33477395,74.0720573 4.40032791,73.7514648 C4.69168555,73.6575346 4.9812222,73.5581853 5.26711687,73.4461916 C6.67157998,72.9043574 7.90754436,72.0053926 8.85081576,70.8396285 C9.5037331,70.02386 10.0774664,69.1487061 10.5643628,68.2258401 C11.2489817,66.9549746 11.8623725,65.6475976 12.4017369,64.3096732 C13.494328,61.6085778 14.5814562,58.9026655 15.6631214,56.1919363 C19.3767173,46.8747829 23.0884921,37.5564253 26.798446,28.2368634 C30.3190174,19.3761145 33.7728193,10.491883 37.1598518,1.58416896 C37.2272283,1.40353396 37.3037096,1.22289896 37.380191,1.04226396 C38.6293869,0.691832056 39.8640148,0.335981103 41.1387045,0 C41.2151859,0.180635002 41.2862043,0.341400153 41.3444758,0.503971654 C42.7794122,4.47794169 44.2131345,8.45612654 45.6456429,12.4385262 C50.5349882,26.0006021 55.4425433,39.5554526 60.4739254,53.0651444 C61.8493762,56.7585281 63.23636,60.4470948 64.6348766,64.1308446 C65.185473,65.6358819 65.8338906,67.1039127 66.5760469,68.5256942 C66.9020032,69.1326278 67.2570953,69.7269169 67.6358602,70.3013362 C68.8014323,72.1006994 70.6087119,73.397366 72.6963781,73.9320998 C73.8196987,74.2272283 74.9606941,74.4516627 76.1125464,74.604062 L76.9319897,74.7232811 C77.0485328,75.0845511 76.9775144,75.4331766 76.9884403,75.7799958 C77,76.126815 76.9884403,76.5169866 76.9884403,76.885482 C77,77.2414415 76.9930637,77.5977395 76.9684094,77.9530349 C76.8518664,77.9710984 76.7608171,77.9927746 76.6679469,77.9981936 C76.5386569,77.9981936 76.409367,77.9981936 76.280077,77.9981936 L47.850856,77.9981936 C47.8198931,77.9359011 47.7978293,77.8696335 47.7853005,77.8013015 C47.7853005,76.8246683 47.7853005,75.848035 47.7853005,74.8714018 C47.7933863,74.8274178 47.8062066,74.7844214 47.8235412,74.7431509 C48.0618932,74.6770136 48.3056199,74.6316821 48.5519353,74.6076747 C49.7358187,74.4524657 50.9089353,74.2250367 52.0646157,73.9266807 C52.528967,73.7984299 52.9860342,73.6322457 53.4376386,73.4642551 C53.6629346,73.3759413 53.8809063,73.2702472 54.0895513,73.1481439 C55.227667,72.5105023 55.6847343,71.5224288 55.5882221,70.2579838 C55.5371006,69.6835354 55.4347245,69.1147157 55.2822966,68.5582085 C55.0546734,67.6893541 54.736001,66.847595 54.4373595,66.0040296 C48.4681699,49.4783354 42.5639289,32.9291587 36.7246363,16.3564994 C36.6627228,16.1758644 36.642692,15.9771659 36.4587725,15.8145944 C36.400501,15.8507214 36.3203776,15.8778166 36.276674,15.9320071 C36.2297771,16.0156986 36.193681,16.1049103 36.1692359,16.1975406 C33.315752,24.3459855 30.2728857,32.4275955 27.2464083,40.5164308 C25.0120595,46.5044811 22.7740687,52.4925314 20.6908616,58.5329659 C19.8550294,60.9552813 19.0519749,63.3920474 18.2653093,65.8270072 C17.960032,66.7590448 17.7346431,67.7149897 17.5915448,68.684653 C17.4779234,69.3324503 17.4583009,69.9930393 17.5332732,70.6463491 C17.6297199,71.5016563 18.0835755,72.2775606 18.7842901,72.7850675 C19.2447696,73.1111521 19.7509117,73.3685793 20.2866029,73.5491536 C21.1392966,73.8475554 22.0167315,74.0711955 22.9088216,74.2175031 C23.8939746,74.3981381 24.8827695,74.5336143 25.8715645,74.6907668 C25.935299,74.7016049 25.9972125,74.7142493 26.0827988,74.7305065 C26.1080731,74.8018353 26.1251765,74.8757585 26.1337864,74.9508812 C26.1337864,75.8962043 26.1337864,76.8409254 26.1337864,77.7850443 C26.1263495,77.8415111 26.1135456,77.8971536 26.0955457,77.9512285 C26.0071732,77.9704697 25.9178137,77.9849418 25.8278609,77.9945809 C25.6985709,77.9945809 25.569281,77.9945809 25.439991,77.9945809 L0.0499942534,77.9945809 L0.0499942534,78 Z"></path>
        </g>
    </g>
</svg>