<?xml version="1.0" encoding="UTF-8"?>
<svg width="40px" height="40px" viewBox="0 0 40 40" version="1.1" xmlns="http://www.w3.org/2000/svg" xmlns:xlink="http://www.w3.org/1999/xlink">
    <title>eth_usd_lp_yield_set</title>
    <defs>
        <linearGradient x1="50%" y1="1.70181381%" x2="50%" y2="100%" id="linearGradient-1">
            <stop stop-color="#6F3385" offset="0%"></stop>
            <stop stop-color="#0E1B68" offset="100%"></stop>
        </linearGradient>
        <circle id="path-2" cx="20" cy="20" r="20"></circle>
        <linearGradient x1="50%" y1="0%" x2="50%" y2="98.5003278%" id="linearGradient-4">
            <stop stop-color="#FF5997" offset="0%"></stop>
            <stop stop-color="#71249A" offset="100%"></stop>
        </linearGradient>
    </defs>
    <g id="eth_usd_lp_yield_set" stroke="none" stroke-width="1" fill="none" fill-rule="evenodd">
        <g id="Oval-Copy-3-+-Oval-Copy-2-Mask">
            <mask id="mask-3" fill="white">
                <use xlink:href="#path-2"></use>
            </mask>
            <use id="Mask" fill="url(#linearGradient-1)" xlink:href="#path-2"></use>
            <g id="Group" mask="url(#mask-3)" fill="#FFFFFF" fill-rule="nonzero">
                <g transform="translate(4.674359, 9.837884)" id="Path">
                    <polygon fill-opacity="0.602" points="6.24313315 1.68886986e-14 6.24313315 7.36505645 12.4854337 10.146673"></polygon>
                    <polygon points="6.24313315 1.68886986e-14 2.83488869e-14 10.146673 6.24313315 7.36505645"></polygon>
                    <polygon fill-opacity="0.602" points="6.24313315 14.9194289 6.24313315 19.9238477 12.4895969 11.3058183"></polygon>
                    <polygon points="6.24313315 19.9238477 6.24313315 14.9185986 2.83488869e-14 11.3058183"></polygon>
                    <polygon fill-opacity="0.2" points="6.24313315 13.7611139 12.4854337 10.146673 6.24313315 7.36671712"></polygon>
                    <polygon fill-opacity="0.602" points="2.83488869e-14 10.146673 6.24313315 13.7611139 6.24313315 7.36671712"></polygon>
                </g>
            </g>
            <path d="M20,40 C31.045695,40 40,31.045695 40,20 C40,8.954305 31.045695,0 20,0 C19.960858,0 20.0256298,40 20,40 Z" id="Oval-Copy-2" fill="url(#linearGradient-4)" mask="url(#mask-3)"></path>
            <path d="M33.9900116,13.0270876 C34.654758,13.0270876 35.1936415,13.565971 35.1936415,14.2307174 C35.1936415,14.8563611 34.7162914,15.3705137 34.1059292,15.4288374 L33.9900116,15.4343473 L24.5493396,15.4341734 L24.5493396,18.4263972 L33.7777431,18.4266664 C34.8413374,18.4266664 35.7116061,19.2543914 35.7795258,20.3008178 L35.7837928,20.4327162 L35.7837928,24.662176 C35.7837928,25.7257702 34.9560679,26.5960389 33.9096414,26.6639587 L33.7777431,26.6682257 L24.1775113,26.6682257 C23.0696007,26.6682257 22.1714616,25.7700867 22.1714616,24.662176 C22.1714616,24.0416614 22.4586186,23.4560742 22.9492152,23.0761356 C23.4747828,22.6691141 24.2307956,22.7652146 24.6378171,23.2907822 C24.8532991,23.5690238 24.9277676,23.9118539 24.8721518,24.2332946 L24.8654931,24.2607922 L33.3759584,24.2607922 L33.3759584,20.8336568 L24.1487045,20.8339261 C23.0851102,20.8339261 22.2148415,20.0062012 22.1469217,18.9597747 L22.1426547,18.8278764 L22.1426547,15.0331373 C22.1426547,13.9695431 22.9703797,13.0992744 24.0168061,13.0313546 L24.1487045,13.0270876 L33.9900116,13.0270876 Z" id="Path-6-Copy" fill="#FFFFFF" fill-rule="nonzero" mask="url(#mask-3)"></path>
            <path d="M28.9632238,10.7841502 C29.5888675,10.7841502 30.1030201,11.2615002 30.1613437,11.8718624 L30.1668536,11.98778 L30.1668536,28.1334759 C30.1668536,28.7982223 29.6279702,29.3371057 28.9632238,29.3371057 C28.3375801,29.3371057 27.8234275,28.8597557 27.7651038,28.2493935 L27.759594,28.1334759 L27.759594,11.98778 C27.759594,11.3230336 28.2984774,10.7841502 28.9632238,10.7841502 Z" id="Path-34-Copy" fill="#FFFFFF" fill-rule="nonzero" mask="url(#mask-3)"></path>
        </g>
    </g>
</svg>