<svg width="24" height="24" viewBox="0 0 24 24" fill="none" xmlns="http://www.w3.org/2000/svg">
<circle cx="12" cy="12" r="11.25" stroke="url(#paint0_linear_941_1940)" stroke-width="1.5"/>
<path d="M15.369 9.66764C15.1221 9.52521 14.8048 9.52521 14.5227 9.66764L12.548 10.8427L11.208 11.5905L9.26856 12.7656C9.02173 12.908 8.70436 12.908 8.42226 12.7656L6.90598 11.8397C6.65914 11.6973 6.48283 11.4124 6.48283 11.092V9.31156C6.48283 9.02669 6.62388 8.74182 6.90598 8.56378L8.42226 7.67358C8.6691 7.53114 8.98646 7.53114 9.26856 7.67358L10.7848 8.59939C11.0317 8.74182 11.208 9.02669 11.208 9.34717V10.5222L12.548 9.73886V8.52817C12.548 8.24331 12.4069 7.95844 12.1248 7.7804L9.30383 6.10681C9.05699 5.96438 8.73963 5.96438 8.45753 6.10681L5.56601 7.81601C5.28391 7.95844 5.14286 8.24331 5.14286 8.52817V11.8754C5.14286 12.1602 5.28391 12.4451 5.56601 12.6231L8.42226 14.2967C8.6691 14.4392 8.98646 14.4392 9.26856 14.2967L11.208 13.1573L12.548 12.3739L14.4874 11.2344C14.7342 11.092 15.0516 11.092 15.3337 11.2344L16.85 12.1246C17.0968 12.267 17.2731 12.5519 17.2731 12.8724V14.6528C17.2731 14.9377 17.1321 15.2225 16.85 15.4006L15.369 16.2908C15.1221 16.4332 14.8048 16.4332 14.5227 16.2908L13.0064 15.4006C12.7595 15.2581 12.5832 14.9733 12.5832 14.6528V13.5133L11.2433 14.2967V15.4718C11.2433 15.7567 11.3843 16.0415 11.6664 16.2196L14.5227 17.8932C14.7695 18.0356 15.0869 18.0356 15.369 17.8932L18.2252 16.2196C18.4721 16.0771 18.6484 15.7923 18.6484 15.4718V12.089C18.6484 11.8041 18.5073 11.5193 18.2252 11.3412L15.369 9.66764Z" fill="#794DDD"/>
<defs>
<linearGradient id="paint0_linear_941_1940" x1="12" y1="0" x2="12" y2="24" gradientUnits="userSpaceOnUse">
<stop stop-color="#A57BFF"/>
<stop offset="0.239583" stop-color="#FF66D4"/>
<stop offset="0.5" stop-color="#FF5B78"/>
<stop offset="0.739583" stop-color="#FF9E57"/>
<stop offset="1" stop-color="#FFD595"/>
</linearGradient>
</defs>
</svg>
