<svg width="24" height="24" viewBox="0 0 24 24" fill="none" xmlns="http://www.w3.org/2000/svg">
<path d="M12 24C18.6274 24 24 18.6274 24 12C24 5.37258 18.6274 0 12 0C5.37258 0 0 5.37258 0 12C0 18.6274 5.37258 24 12 24Z" fill="#F5F5F5"/>
<path d="M12 3C7.03594 3 3 7.02187 3 12C3 16.9781 7.02187 21 12 21C16.9781 21 21 16.9781 21 12C21 7.02187 16.9641 3 12 3ZM12 19.65C7.76719 19.65 4.33594 16.2188 4.33594 11.9859C4.33594 7.75313 7.76719 4.32187 12 4.32187C16.2328 4.32187 19.6641 7.75313 19.6641 11.9859C19.6641 16.2188 16.2328 19.65 12 19.65Z" fill="#82C34D"/>
<path d="M8.41409 5.32031C8.41409 5.32031 9.0469 4.88438 10.5516 4.56094L10.2422 3.07031C10.2422 3.07031 8.68127 3.32344 7.6969 4.02656L8.41409 5.32031Z" fill="#606D4A"/>
<path d="M4.70154 9.91797C4.70154 9.91797 4.84216 9.15859 5.68591 7.86484L4.42029 7.03516C4.42029 7.03516 3.50623 8.31484 3.29529 9.49609L4.70154 9.91797Z" fill="#606D4A"/>
<path d="M5.44692 15.8387C5.44692 15.8387 5.01099 15.2059 4.65942 13.7012L3.18286 14.0387C3.18286 14.0387 3.46411 15.5855 4.16724 16.5699L5.44692 15.8387Z" fill="#606D4A"/>
<path d="M10.1438 19.3977C10.1438 19.3977 9.3844 19.2852 8.04846 18.5117L7.27502 19.8195C7.27502 19.8195 8.5969 20.6773 9.79221 20.8461L10.1438 19.3977Z" fill="#606D4A"/>
<path d="M15.1781 18.8633C15.1781 18.8633 14.5172 19.257 12.9984 19.4961L13.2234 21.0008C13.2234 21.0008 14.7844 20.832 15.8109 20.1992L15.1781 18.8633Z" fill="#606D4A"/>
<path d="M19.1437 14.5312C19.1437 14.5312 18.9609 15.2766 18.075 16.5422L19.3125 17.4281C19.3125 17.4281 20.2828 16.1906 20.55 15.0094L19.1437 14.5312Z" fill="#606D4A"/>
<path d="M18.8063 8.63867C18.8063 8.63867 19.2141 9.29961 19.4672 10.8184L20.9719 10.5793C20.9719 10.5793 20.7891 9.01836 20.1422 8.00586L18.8063 8.63867Z" fill="#606D4A"/>
<path d="M14.3484 4.78672C14.3484 4.78672 15.0937 4.95547 16.3734 5.82734L17.2453 4.58984C17.2453 4.58984 15.9937 3.63359 14.8125 3.39453L14.3484 4.78672Z" fill="#606D4A"/>
<path d="M16.7109 8.87891L13.0687 6.76953L15.2203 9.82109L16.7109 8.87891Z" fill="#DCD1C6"/>
<path d="M9.04688 10.7922L11.2266 6.60156L7.21875 8.92188L9.04688 10.7922Z" fill="#DCD1C6"/>
<path d="M9.76404 10.9184L14.5172 10.0465L12.0422 6.54492L9.76404 10.9184Z" fill="#C0AB98"/>
<path d="M9.62341 11.6496L12.014 17.148L14.5594 10.7637L9.62341 11.6496Z" fill="#82C34D"/>
<path d="M15.1359 11.2285L12.6609 17.4441L16.739 15.0816L15.1359 11.2285Z" fill="#617835"/>
<path d="M8.68123 11.4383L6.95154 9.65234V14.1945L8.68123 11.4383Z" fill="#617835"/>
<path d="M15.5577 10.4402L17.0484 13.998V9.49805L15.5577 10.4402Z" fill="#82C34D"/>
<path d="M9.07498 12.127L7.23279 15.066L11.3812 17.4566L9.07498 12.127Z" fill="#617835"/>
<path d="M23.5 12C23.5 18.3513 18.3513 23.5 12 23.5C5.64873 23.5 0.5 18.3513 0.5 12C0.5 5.64873 5.64873 0.5 12 0.5C18.3513 0.5 23.5 5.64873 23.5 12Z" stroke="black" stroke-opacity="0.097"/>
</svg>
