<svg width="24" height="24" viewBox="0 0 24 24" fill="none" xmlns="http://www.w3.org/2000/svg">
<path d="M12 24C18.6274 24 24 18.6274 24 12C24 5.37258 18.6274 0 12 0C5.37258 0 0 5.37258 0 12C0 18.6274 5.37258 24 12 24Z" fill="#E3242D"/>
<path d="M23.5 12C23.5 18.3513 18.3513 23.5 12 23.5C5.64873 23.5 0.5 18.3513 0.5 12C0.5 5.64873 5.64873 0.5 12 0.5C18.3513 0.5 23.5 5.64873 23.5 12Z" stroke="black" stroke-opacity="0.097"/>
<path d="M7.71827 11.9907V10.839H11.4211V9.65635H7.71827V8.51084H16.2755V9.66254H12.5728V10.8452H16.2755V11.9969H12.5728L16.2941 17.5325C17.9412 16.2508 19 14.2508 19 12.0031C19 8.13313 15.8669 5 12.0031 5C8.13313 5 5 8.13313 5 12.0031C5 14.2508 6.05882 16.2508 7.70588 17.5325L11.4272 11.9969C11.4272 11.9907 7.71827 11.9907 7.71827 11.9907Z" fill="white"/>
<path d="M8.66562 18.1578C9.65633 18.6965 10.7895 18.9999 11.9969 18.9999C13.2043 18.9999 14.3374 18.6965 15.3282 18.1578L11.9969 13.1919L8.66562 18.1578Z" fill="white"/>
</svg>
