<svg width="256" height="256" viewBox="0 0 256 256" fill="none" xmlns="http://www.w3.org/2000/svg">
<g clip-path="url(#clip0)">
<circle cx="127.998" cy="127.946" r="128.002" fill="#EDF0F2"/>
<path d="M209.259 226.845C189.699 242.917 165.812 252.828 140.619 255.324C106.836 258.671 73.1073 248.461 46.8525 226.939C20.5977 205.418 3.96753 174.349 0.620392 140.566C-1.87568 115.373 3.15488 90.0056 15.0759 67.6717C26.997 45.3377 45.2731 27.0404 67.5932 15.0933C89.9133 3.14633 115.275 -1.91371 140.471 0.553076C165.667 3.01987 189.565 12.9027 209.144 28.9518L183.325 60.4499C169.976 49.5073 153.681 42.769 136.502 41.0871C119.323 39.4052 102.031 42.8552 86.813 51.0009C71.5948 59.1466 59.1338 71.6221 51.0058 86.8497C42.8778 102.077 39.4479 119.373 41.1498 136.55C43.4319 159.584 54.7706 180.768 72.6716 195.441C90.5726 210.115 113.569 217.076 136.603 214.794C153.78 213.092 170.067 206.335 183.404 195.377L209.259 226.845Z" fill="url(#paint0_linear)"/>
<path d="M127.998 240.553C190.19 240.553 240.606 190.137 240.606 127.946C240.606 65.7542 190.19 15.3382 127.998 15.3382C65.807 15.3382 15.391 65.7542 15.391 127.946C15.391 190.137 65.807 240.553 127.998 240.553Z" fill="white"/>
<mask id="path-4-outside-1" maskUnits="userSpaceOnUse" x="87.942" y="79.6843" width="81" height="97" fill="black">
<rect fill="white" x="87.942" y="79.6843" width="81" height="97"/>
<path fill-rule="evenodd" clip-rule="evenodd" d="M145.325 129.345C144.298 126.356 142.538 123.716 140.24 121.674L139.36 120.927L139.311 120.878C139.018 120.629 138.724 120.429 138.431 120.23L138.382 120.18C138.089 119.981 137.796 119.782 137.453 119.583C137.404 119.583 137.404 119.533 137.356 119.533C137.062 119.334 136.72 119.184 136.427 119.035C136.378 119.035 136.378 118.985 136.329 118.985C136.035 118.836 135.693 118.686 135.351 118.537C135.302 118.537 135.302 118.487 135.253 118.487C134.96 118.387 134.667 118.238 134.373 118.138C133.591 117.839 132.76 117.59 131.929 117.441C131.293 118.686 130.413 119.782 129.435 120.728C130.951 120.828 132.418 121.226 133.738 121.774C134.52 122.123 135.302 122.521 135.987 122.969C136.035 122.969 136.084 123.019 136.084 123.019C136.28 123.119 136.427 123.268 136.622 123.418C136.72 123.467 136.769 123.517 136.867 123.617C137.013 123.716 137.209 123.866 137.356 124.015C137.453 124.115 137.551 124.165 137.649 124.264C137.796 124.414 137.942 124.513 138.089 124.663L138.382 124.962L138.773 125.36L139.067 125.659C139.164 125.808 139.311 125.958 139.409 126.057C139.507 126.157 139.604 126.306 139.702 126.406L139.996 126.854C140.093 127.004 140.191 127.103 140.24 127.253L140.533 127.701C140.631 127.85 140.68 128 140.778 128.099C140.876 128.249 140.924 128.398 141.022 128.548C141.12 128.697 141.169 128.846 141.267 128.996C141.316 129.145 141.413 129.295 141.462 129.444C141.56 129.643 141.609 129.843 141.707 129.992C142.098 130.988 142.391 132.034 142.538 133.18L142.978 134.923C143.173 135.67 144.933 142.045 149.04 144.187C153.734 146.677 159.943 149.765 162.387 150.96L130.169 170.584V157.136C130.169 154.994 134.324 152.504 136.231 151.658L136.329 151.608C136.72 151.408 137.111 151.209 137.502 150.96L137.649 150.861C138.48 150.363 139.262 149.765 139.996 149.117C140.044 149.068 140.142 149.018 140.191 148.918C140.289 148.868 140.338 148.769 140.436 148.719C140.68 148.52 140.876 148.271 141.12 148.071L141.218 147.972C141.462 147.723 141.707 147.474 141.902 147.175C141.951 147.075 142.049 147.026 142.098 146.926C142.293 146.727 142.44 146.478 142.636 146.229C142.684 146.179 142.733 146.079 142.782 146.029L143.369 145.133C143.369 145.083 143.418 145.083 143.418 145.033C143.662 144.635 143.907 144.187 144.151 143.788C143.173 142.593 142.44 141.298 141.853 140.103C141.609 140.85 141.267 141.597 140.924 142.244C140.778 142.543 140.582 142.842 140.436 143.141C140.387 143.191 140.387 143.24 140.338 143.24C140.191 143.489 139.996 143.738 139.849 143.938C139.8 143.987 139.751 144.087 139.702 144.137C139.556 144.386 139.36 144.585 139.164 144.784C139.116 144.834 139.116 144.884 139.067 144.884C137.893 146.229 136.475 147.374 134.862 148.171L134.569 148.321C133.738 148.669 126.551 152.006 126.551 157.037V170.484L94.2837 150.91C96.386 149.615 102.448 145.93 107.435 144.336C109.391 143.689 113.546 146.378 115.893 148.321L116.04 148.47C116.333 148.769 116.675 149.068 117.017 149.317L117.115 149.416C117.849 150.014 118.631 150.612 119.511 151.06L120.097 151.359C120.146 151.359 120.195 151.408 120.195 151.408C120.733 151.707 121.271 151.956 121.857 152.205C121.955 152.255 122.004 152.255 122.102 152.305C122.151 152.305 122.2 152.355 122.297 152.355C123.129 152.654 123.96 152.903 124.791 153.102C125.426 151.857 126.355 150.761 127.333 149.815C125.915 149.715 124.595 149.416 123.324 148.918C123.275 148.868 123.178 148.868 123.129 148.819C122.982 148.769 122.835 148.719 122.689 148.619C122.64 148.57 122.542 148.57 122.493 148.52C122.346 148.47 122.2 148.37 122.102 148.321C121.124 147.822 120.244 147.275 119.413 146.577L118.142 145.382C118.093 145.332 116.529 143.888 114.328 142.593C111.151 140.75 108.462 140.152 106.408 140.8C102.155 142.194 97.3149 144.834 94.3815 146.577L126.6 87.6073V113.457C126.6 114.353 125.28 116.744 120.831 118.786L120.537 118.935C120.097 119.134 119.706 119.383 119.266 119.632L119.169 119.682C118.337 120.18 117.555 120.778 116.773 121.425C116.284 121.824 115.844 122.272 115.453 122.72L115.404 122.77C114.964 123.218 114.573 123.667 114.231 124.165L114.182 124.215C113.986 124.464 113.84 124.713 113.644 124.962C113.644 125.011 113.595 125.011 113.595 125.061C113.448 125.31 113.302 125.509 113.155 125.759C113.155 125.808 113.106 125.808 113.106 125.858L112.666 126.605C112.617 126.655 112.617 126.705 112.568 126.804C112.422 127.053 112.324 127.302 112.226 127.502C112.226 127.552 112.177 127.601 112.177 127.601C112.08 127.85 111.982 128.05 111.884 128.299C111.835 128.398 111.835 128.448 111.786 128.548L111.493 129.295C111.444 129.394 111.444 129.444 111.395 129.544C111.346 129.743 111.297 129.892 111.2 130.092C111.151 130.191 111.151 130.291 111.102 130.39C111.053 130.639 110.955 130.889 110.906 131.088C110.857 131.187 110.857 131.337 110.808 131.436C110.76 131.586 110.76 131.785 110.711 131.934C110.662 132.084 110.662 132.233 110.613 132.383C110.564 132.582 110.564 132.781 110.515 132.98C110.515 133.13 110.466 133.229 110.466 133.379C110.466 133.578 110.417 133.727 110.417 133.927C110.417 134.126 110.417 134.275 110.368 134.475V135.222C110.368 136.118 110.417 137.064 110.564 137.911C111.835 138.21 113.155 138.758 114.573 139.455C114.182 138.16 113.986 136.815 113.937 135.421V135.172C113.937 134.823 113.937 134.524 113.986 134.176V133.927C113.986 133.628 114.035 133.379 114.084 133.08V132.98C114.133 132.682 114.182 132.383 114.231 132.034C114.231 131.934 114.28 131.885 114.28 131.785C114.328 131.536 114.426 131.287 114.475 131.038C114.475 130.988 114.524 130.938 114.524 130.889L114.817 129.992C114.866 129.942 114.866 129.843 114.915 129.793C115.013 129.544 115.111 129.295 115.208 129.096C115.257 129.046 115.257 128.996 115.306 128.896C115.453 128.597 115.551 128.348 115.746 128.099C115.795 128.05 115.795 128 115.844 127.95C115.991 127.701 116.089 127.502 116.235 127.253C116.284 127.203 116.284 127.153 116.333 127.103C116.48 126.854 116.675 126.605 116.871 126.356C116.871 126.356 116.871 126.306 116.92 126.306C117.115 126.057 117.262 125.858 117.457 125.609C117.506 125.559 117.506 125.509 117.555 125.46C118.435 124.464 119.413 123.617 120.537 122.87L122.053 122.123C122.884 121.774 130.022 118.337 130.022 113.307V87.6073L162.534 147.075C159.649 145.631 154.516 143.041 150.556 140.949C148.258 139.754 146.742 135.52 146.302 133.976L145.862 132.183C145.862 131.237 145.618 130.291 145.325 129.345ZM167.325 148.071L131.489 82.5769C130.853 81.3816 129.68 80.6843 128.36 80.6843C127.04 80.6843 125.866 81.3816 125.231 82.5769L89.3948 148.071C88.4659 149.765 89.0036 151.956 90.6659 152.952L126.551 174.817C127.138 175.166 127.773 175.315 128.409 175.315C129.044 175.315 129.68 175.166 130.267 174.817L166.103 153.002C167.716 151.956 168.303 149.765 167.325 148.071Z"/>
</mask>
<path fill-rule="evenodd" clip-rule="evenodd" d="M145.325 129.345C144.298 126.356 142.538 123.716 140.24 121.674L139.36 120.927L139.311 120.878C139.018 120.629 138.724 120.429 138.431 120.23L138.382 120.18C138.089 119.981 137.796 119.782 137.453 119.583C137.404 119.583 137.404 119.533 137.356 119.533C137.062 119.334 136.72 119.184 136.427 119.035C136.378 119.035 136.378 118.985 136.329 118.985C136.035 118.836 135.693 118.686 135.351 118.537C135.302 118.537 135.302 118.487 135.253 118.487C134.96 118.387 134.667 118.238 134.373 118.138C133.591 117.839 132.76 117.59 131.929 117.441C131.293 118.686 130.413 119.782 129.435 120.728C130.951 120.828 132.418 121.226 133.738 121.774C134.52 122.123 135.302 122.521 135.987 122.969C136.035 122.969 136.084 123.019 136.084 123.019C136.28 123.119 136.427 123.268 136.622 123.418C136.72 123.467 136.769 123.517 136.867 123.617C137.013 123.716 137.209 123.866 137.356 124.015C137.453 124.115 137.551 124.165 137.649 124.264C137.796 124.414 137.942 124.513 138.089 124.663L138.382 124.962L138.773 125.36L139.067 125.659C139.164 125.808 139.311 125.958 139.409 126.057C139.507 126.157 139.604 126.306 139.702 126.406L139.996 126.854C140.093 127.004 140.191 127.103 140.24 127.253L140.533 127.701C140.631 127.85 140.68 128 140.778 128.099C140.876 128.249 140.924 128.398 141.022 128.548C141.12 128.697 141.169 128.846 141.267 128.996C141.316 129.145 141.413 129.295 141.462 129.444C141.56 129.643 141.609 129.843 141.707 129.992C142.098 130.988 142.391 132.034 142.538 133.18L142.978 134.923C143.173 135.67 144.933 142.045 149.04 144.187C153.734 146.677 159.943 149.765 162.387 150.96L130.169 170.584V157.136C130.169 154.994 134.324 152.504 136.231 151.658L136.329 151.608C136.72 151.408 137.111 151.209 137.502 150.96L137.649 150.861C138.48 150.363 139.262 149.765 139.996 149.117C140.044 149.068 140.142 149.018 140.191 148.918C140.289 148.868 140.338 148.769 140.436 148.719C140.68 148.52 140.876 148.271 141.12 148.071L141.218 147.972C141.462 147.723 141.707 147.474 141.902 147.175C141.951 147.075 142.049 147.026 142.098 146.926C142.293 146.727 142.44 146.478 142.636 146.229C142.684 146.179 142.733 146.079 142.782 146.029L143.369 145.133C143.369 145.083 143.418 145.083 143.418 145.033C143.662 144.635 143.907 144.187 144.151 143.788C143.173 142.593 142.44 141.298 141.853 140.103C141.609 140.85 141.267 141.597 140.924 142.244C140.778 142.543 140.582 142.842 140.436 143.141C140.387 143.191 140.387 143.24 140.338 143.24C140.191 143.489 139.996 143.738 139.849 143.938C139.8 143.987 139.751 144.087 139.702 144.137C139.556 144.386 139.36 144.585 139.164 144.784C139.116 144.834 139.116 144.884 139.067 144.884C137.893 146.229 136.475 147.374 134.862 148.171L134.569 148.321C133.738 148.669 126.551 152.006 126.551 157.037V170.484L94.2837 150.91C96.386 149.615 102.448 145.93 107.435 144.336C109.391 143.689 113.546 146.378 115.893 148.321L116.04 148.47C116.333 148.769 116.675 149.068 117.017 149.317L117.115 149.416C117.849 150.014 118.631 150.612 119.511 151.06L120.097 151.359C120.146 151.359 120.195 151.408 120.195 151.408C120.733 151.707 121.271 151.956 121.857 152.205C121.955 152.255 122.004 152.255 122.102 152.305C122.151 152.305 122.2 152.355 122.297 152.355C123.129 152.654 123.96 152.903 124.791 153.102C125.426 151.857 126.355 150.761 127.333 149.815C125.915 149.715 124.595 149.416 123.324 148.918C123.275 148.868 123.178 148.868 123.129 148.819C122.982 148.769 122.835 148.719 122.689 148.619C122.64 148.57 122.542 148.57 122.493 148.52C122.346 148.47 122.2 148.37 122.102 148.321C121.124 147.822 120.244 147.275 119.413 146.577L118.142 145.382C118.093 145.332 116.529 143.888 114.328 142.593C111.151 140.75 108.462 140.152 106.408 140.8C102.155 142.194 97.3149 144.834 94.3815 146.577L126.6 87.6073V113.457C126.6 114.353 125.28 116.744 120.831 118.786L120.537 118.935C120.097 119.134 119.706 119.383 119.266 119.632L119.169 119.682C118.337 120.18 117.555 120.778 116.773 121.425C116.284 121.824 115.844 122.272 115.453 122.72L115.404 122.77C114.964 123.218 114.573 123.667 114.231 124.165L114.182 124.215C113.986 124.464 113.84 124.713 113.644 124.962C113.644 125.011 113.595 125.011 113.595 125.061C113.448 125.31 113.302 125.509 113.155 125.759C113.155 125.808 113.106 125.808 113.106 125.858L112.666 126.605C112.617 126.655 112.617 126.705 112.568 126.804C112.422 127.053 112.324 127.302 112.226 127.502C112.226 127.552 112.177 127.601 112.177 127.601C112.08 127.85 111.982 128.05 111.884 128.299C111.835 128.398 111.835 128.448 111.786 128.548L111.493 129.295C111.444 129.394 111.444 129.444 111.395 129.544C111.346 129.743 111.297 129.892 111.2 130.092C111.151 130.191 111.151 130.291 111.102 130.39C111.053 130.639 110.955 130.889 110.906 131.088C110.857 131.187 110.857 131.337 110.808 131.436C110.76 131.586 110.76 131.785 110.711 131.934C110.662 132.084 110.662 132.233 110.613 132.383C110.564 132.582 110.564 132.781 110.515 132.98C110.515 133.13 110.466 133.229 110.466 133.379C110.466 133.578 110.417 133.727 110.417 133.927C110.417 134.126 110.417 134.275 110.368 134.475V135.222C110.368 136.118 110.417 137.064 110.564 137.911C111.835 138.21 113.155 138.758 114.573 139.455C114.182 138.16 113.986 136.815 113.937 135.421V135.172C113.937 134.823 113.937 134.524 113.986 134.176V133.927C113.986 133.628 114.035 133.379 114.084 133.08V132.98C114.133 132.682 114.182 132.383 114.231 132.034C114.231 131.934 114.28 131.885 114.28 131.785C114.328 131.536 114.426 131.287 114.475 131.038C114.475 130.988 114.524 130.938 114.524 130.889L114.817 129.992C114.866 129.942 114.866 129.843 114.915 129.793C115.013 129.544 115.111 129.295 115.208 129.096C115.257 129.046 115.257 128.996 115.306 128.896C115.453 128.597 115.551 128.348 115.746 128.099C115.795 128.05 115.795 128 115.844 127.95C115.991 127.701 116.089 127.502 116.235 127.253C116.284 127.203 116.284 127.153 116.333 127.103C116.48 126.854 116.675 126.605 116.871 126.356C116.871 126.356 116.871 126.306 116.92 126.306C117.115 126.057 117.262 125.858 117.457 125.609C117.506 125.559 117.506 125.509 117.555 125.46C118.435 124.464 119.413 123.617 120.537 122.87L122.053 122.123C122.884 121.774 130.022 118.337 130.022 113.307V87.6073L162.534 147.075C159.649 145.631 154.516 143.041 150.556 140.949C148.258 139.754 146.742 135.52 146.302 133.976L145.862 132.183C145.862 131.237 145.618 130.291 145.325 129.345ZM167.325 148.071L131.489 82.5769C130.853 81.3816 129.68 80.6843 128.36 80.6843C127.04 80.6843 125.866 81.3816 125.231 82.5769L89.3948 148.071C88.4659 149.765 89.0036 151.956 90.6659 152.952L126.551 174.817C127.138 175.166 127.773 175.315 128.409 175.315C129.044 175.315 129.68 175.166 130.267 174.817L166.103 153.002C167.716 151.956 168.303 149.765 167.325 148.071Z" fill="#283947"/>
<path fill-rule="evenodd" clip-rule="evenodd" d="M145.325 129.345C144.298 126.356 142.538 123.716 140.24 121.674L139.36 120.927L139.311 120.878C139.018 120.629 138.724 120.429 138.431 120.23L138.382 120.18C138.089 119.981 137.796 119.782 137.453 119.583C137.404 119.583 137.404 119.533 137.356 119.533C137.062 119.334 136.72 119.184 136.427 119.035C136.378 119.035 136.378 118.985 136.329 118.985C136.035 118.836 135.693 118.686 135.351 118.537C135.302 118.537 135.302 118.487 135.253 118.487C134.96 118.387 134.667 118.238 134.373 118.138C133.591 117.839 132.76 117.59 131.929 117.441C131.293 118.686 130.413 119.782 129.435 120.728C130.951 120.828 132.418 121.226 133.738 121.774C134.52 122.123 135.302 122.521 135.987 122.969C136.035 122.969 136.084 123.019 136.084 123.019C136.28 123.119 136.427 123.268 136.622 123.418C136.72 123.467 136.769 123.517 136.867 123.617C137.013 123.716 137.209 123.866 137.356 124.015C137.453 124.115 137.551 124.165 137.649 124.264C137.796 124.414 137.942 124.513 138.089 124.663L138.382 124.962L138.773 125.36L139.067 125.659C139.164 125.808 139.311 125.958 139.409 126.057C139.507 126.157 139.604 126.306 139.702 126.406L139.996 126.854C140.093 127.004 140.191 127.103 140.24 127.253L140.533 127.701C140.631 127.85 140.68 128 140.778 128.099C140.876 128.249 140.924 128.398 141.022 128.548C141.12 128.697 141.169 128.846 141.267 128.996C141.316 129.145 141.413 129.295 141.462 129.444C141.56 129.643 141.609 129.843 141.707 129.992C142.098 130.988 142.391 132.034 142.538 133.18L142.978 134.923C143.173 135.67 144.933 142.045 149.04 144.187C153.734 146.677 159.943 149.765 162.387 150.96L130.169 170.584V157.136C130.169 154.994 134.324 152.504 136.231 151.658L136.329 151.608C136.72 151.408 137.111 151.209 137.502 150.96L137.649 150.861C138.48 150.363 139.262 149.765 139.996 149.117C140.044 149.068 140.142 149.018 140.191 148.918C140.289 148.868 140.338 148.769 140.436 148.719C140.68 148.52 140.876 148.271 141.12 148.071L141.218 147.972C141.462 147.723 141.707 147.474 141.902 147.175C141.951 147.075 142.049 147.026 142.098 146.926C142.293 146.727 142.44 146.478 142.636 146.229C142.684 146.179 142.733 146.079 142.782 146.029L143.369 145.133C143.369 145.083 143.418 145.083 143.418 145.033C143.662 144.635 143.907 144.187 144.151 143.788C143.173 142.593 142.44 141.298 141.853 140.103C141.609 140.85 141.267 141.597 140.924 142.244C140.778 142.543 140.582 142.842 140.436 143.141C140.387 143.191 140.387 143.24 140.338 143.24C140.191 143.489 139.996 143.738 139.849 143.938C139.8 143.987 139.751 144.087 139.702 144.137C139.556 144.386 139.36 144.585 139.164 144.784C139.116 144.834 139.116 144.884 139.067 144.884C137.893 146.229 136.475 147.374 134.862 148.171L134.569 148.321C133.738 148.669 126.551 152.006 126.551 157.037V170.484L94.2837 150.91C96.386 149.615 102.448 145.93 107.435 144.336C109.391 143.689 113.546 146.378 115.893 148.321L116.04 148.47C116.333 148.769 116.675 149.068 117.017 149.317L117.115 149.416C117.849 150.014 118.631 150.612 119.511 151.06L120.097 151.359C120.146 151.359 120.195 151.408 120.195 151.408C120.733 151.707 121.271 151.956 121.857 152.205C121.955 152.255 122.004 152.255 122.102 152.305C122.151 152.305 122.2 152.355 122.297 152.355C123.129 152.654 123.96 152.903 124.791 153.102C125.426 151.857 126.355 150.761 127.333 149.815C125.915 149.715 124.595 149.416 123.324 148.918C123.275 148.868 123.178 148.868 123.129 148.819C122.982 148.769 122.835 148.719 122.689 148.619C122.64 148.57 122.542 148.57 122.493 148.52C122.346 148.47 122.2 148.37 122.102 148.321C121.124 147.822 120.244 147.275 119.413 146.577L118.142 145.382C118.093 145.332 116.529 143.888 114.328 142.593C111.151 140.75 108.462 140.152 106.408 140.8C102.155 142.194 97.3149 144.834 94.3815 146.577L126.6 87.6073V113.457C126.6 114.353 125.28 116.744 120.831 118.786L120.537 118.935C120.097 119.134 119.706 119.383 119.266 119.632L119.169 119.682C118.337 120.18 117.555 120.778 116.773 121.425C116.284 121.824 115.844 122.272 115.453 122.72L115.404 122.77C114.964 123.218 114.573 123.667 114.231 124.165L114.182 124.215C113.986 124.464 113.84 124.713 113.644 124.962C113.644 125.011 113.595 125.011 113.595 125.061C113.448 125.31 113.302 125.509 113.155 125.759C113.155 125.808 113.106 125.808 113.106 125.858L112.666 126.605C112.617 126.655 112.617 126.705 112.568 126.804C112.422 127.053 112.324 127.302 112.226 127.502C112.226 127.552 112.177 127.601 112.177 127.601C112.08 127.85 111.982 128.05 111.884 128.299C111.835 128.398 111.835 128.448 111.786 128.548L111.493 129.295C111.444 129.394 111.444 129.444 111.395 129.544C111.346 129.743 111.297 129.892 111.2 130.092C111.151 130.191 111.151 130.291 111.102 130.39C111.053 130.639 110.955 130.889 110.906 131.088C110.857 131.187 110.857 131.337 110.808 131.436C110.76 131.586 110.76 131.785 110.711 131.934C110.662 132.084 110.662 132.233 110.613 132.383C110.564 132.582 110.564 132.781 110.515 132.98C110.515 133.13 110.466 133.229 110.466 133.379C110.466 133.578 110.417 133.727 110.417 133.927C110.417 134.126 110.417 134.275 110.368 134.475V135.222C110.368 136.118 110.417 137.064 110.564 137.911C111.835 138.21 113.155 138.758 114.573 139.455C114.182 138.16 113.986 136.815 113.937 135.421V135.172C113.937 134.823 113.937 134.524 113.986 134.176V133.927C113.986 133.628 114.035 133.379 114.084 133.08V132.98C114.133 132.682 114.182 132.383 114.231 132.034C114.231 131.934 114.28 131.885 114.28 131.785C114.328 131.536 114.426 131.287 114.475 131.038C114.475 130.988 114.524 130.938 114.524 130.889L114.817 129.992C114.866 129.942 114.866 129.843 114.915 129.793C115.013 129.544 115.111 129.295 115.208 129.096C115.257 129.046 115.257 128.996 115.306 128.896C115.453 128.597 115.551 128.348 115.746 128.099C115.795 128.05 115.795 128 115.844 127.95C115.991 127.701 116.089 127.502 116.235 127.253C116.284 127.203 116.284 127.153 116.333 127.103C116.48 126.854 116.675 126.605 116.871 126.356C116.871 126.356 116.871 126.306 116.92 126.306C117.115 126.057 117.262 125.858 117.457 125.609C117.506 125.559 117.506 125.509 117.555 125.46C118.435 124.464 119.413 123.617 120.537 122.87L122.053 122.123C122.884 121.774 130.022 118.337 130.022 113.307V87.6073L162.534 147.075C159.649 145.631 154.516 143.041 150.556 140.949C148.258 139.754 146.742 135.52 146.302 133.976L145.862 132.183C145.862 131.237 145.618 130.291 145.325 129.345ZM167.325 148.071L131.489 82.5769C130.853 81.3816 129.68 80.6843 128.36 80.6843C127.04 80.6843 125.866 81.3816 125.231 82.5769L89.3948 148.071C88.4659 149.765 89.0036 151.956 90.6659 152.952L126.551 174.817C127.138 175.166 127.773 175.315 128.409 175.315C129.044 175.315 129.68 175.166 130.267 174.817L166.103 153.002C167.716 151.956 168.303 149.765 167.325 148.071Z" stroke="#283947" mask="url(#path-4-outside-1)"/>
</g>
<defs>
<linearGradient id="paint0_linear" x1="95.998" y1="13.2772" x2="136.136" y2="235.812" gradientUnits="userSpaceOnUse">
<stop stop-color="#27D3A2"/>
<stop offset="1" stop-color="#9388FD"/>
</linearGradient>
<clipPath id="clip0">
<rect width="256" height="256" fill="white"/>
</clipPath>
</defs>
</svg>
