<svg width="64" height="64" viewBox="0 0 64 64" fill="none" xmlns="http://www.w3.org/2000/svg">
<path d="M63.0422 39.7412C58.7677 56.884 41.4029 67.3169 24.256 63.042C7.11622 58.768 -3.31789 41.4042 0.958563 24.2624C5.23102 7.11752 22.5959 -3.31637 39.7377 0.957586C56.8835 5.23154 67.3166 22.5974 63.0422 39.7412Z" fill="#F7931A"/>
<path d="M31.9659 4.37988L56.0354 18.2764V46.0694L31.9659 59.966L7.89641 46.0694L7.89641 18.2764L31.9659 4.37988Z" fill="white"/>
<path d="M46.919 28.0807C47.564 23.8777 44.2811 21.6182 39.7922 20.111L41.2484 14.4174L37.6931 13.5537L36.2755 19.0972C35.3408 18.8702 34.3809 18.656 33.427 18.4437L34.8548 12.8637L31.3015 12L29.8444 17.6916C29.0707 17.5198 28.3113 17.35 27.5741 17.1714L27.5782 17.1536L22.6751 15.9602L21.7293 19.6618C21.7293 19.6618 24.3672 20.2511 24.3115 20.2876C25.7514 20.6381 26.0117 21.5669 25.9681 22.3033L24.3095 28.7895C24.4087 28.8142 24.5373 28.8497 24.6791 28.905C24.5606 28.8763 24.434 28.8448 24.3034 28.8142L21.9784 37.9004C21.8022 38.3268 21.3557 38.9664 20.3492 38.7236C20.3846 38.7739 17.765 38.0948 17.765 38.0948L16 42.0619L20.6266 43.1862C21.4873 43.3965 22.3308 43.6166 23.1612 43.8239L21.6898 49.5826L25.2411 50.4463L26.6982 44.7488C27.6683 45.0055 28.61 45.2424 29.5315 45.4654L28.0794 51.1363L31.6347 52L33.106 46.2522C39.1685 47.3705 43.7272 46.9194 45.6461 41.5743C47.1924 37.2706 45.5692 34.788 42.3795 33.1692C44.7024 32.647 46.4522 31.1575 46.919 28.0807V28.0807ZM38.7958 39.1846C37.6972 43.4883 30.2636 41.1617 27.8536 40.5783L29.8059 32.9491C32.2159 33.5354 39.9441 34.6962 38.7958 39.1846ZM39.8955 28.0186C38.893 31.9334 32.706 29.9444 30.699 29.4568L32.4691 22.5372C34.4761 23.0248 40.9395 23.935 39.8955 28.0186V28.0186Z" fill="#F7931A"/>
</svg>
