<?xml version="1.0" encoding="utf-8"?>
<!-- Generator: Adobe Illustrator 26.0.3, SVG Export Plug-In . SVG Version: 6.00 Build 0)  -->
<svg version="1.1" id="Layer_1" xmlns="http://www.w3.org/2000/svg" xmlns:xlink="http://www.w3.org/1999/xlink" x="0px" y="0px"
	 viewBox="0 0 286 286" style="enable-background:new 0 0 286 286;" xml:space="preserve">
<style type="text/css">
	.st0{fill:#5500FC;}
	.st1{opacity:0.2;fill-rule:evenodd;clip-rule:evenodd;fill:#FFFFFF;enable-background:new    ;}
	.st2{fill:#FFFFFF;}
</style>
<circle class="st0" cx="143" cy="143" r="134"/>
<path class="st1" d="M143,277c74,0,134-60,134-134C277,69,217,9,143,9V277z"/>
<path class="st2" d="M96.1,143l57.4-57.6c2.6-2.6,6.8-2.6,9.4,0l52.7,52.9c2.6,2.6,2.6,6.8,0,9.4l-52.7,52.9c-2.6,2.6-6.8,2.6-9.4,0
	L96.1,143z"/>
<path class="st2" d="M94.7,144.4c-2.6,2.6-2.6,6.8,0,9.4l24.8,24.9l-5.9,5.9c-2.6,2.6-6.8,2.6-9.4,0l-33.8-33.9
	c-2.6-2.6-2.6-6.8,0-9.4l33.8-33.9c2.6-2.6,6.8-2.6,9.4,0l8.9,9L94.7,144.4z"/>
</svg>
