<svg width="480" height="480" viewBox="0 0 480 480" fill="none" xmlns="http://www.w3.org/2000/svg">
<mask id="mask0-787354" mask-type="alpha" maskUnits="userSpaceOnUse" x="0" y="0" width="480" height="480">
<circle cx="240" cy="240" r="240" fill="url(#paint0_linear-692540)"/>
</mask>
<g mask="url(#mask0-787354)">
<circle cx="240" cy="240" r="240" fill="#31D8A4"/>
<circle cx="240" cy="240" r="208" fill="white"/>
</g>
<circle cx="240" cy="240" r="184" fill="#0E052F"/>
<circle cx="240" cy="240" r="184" fill="#0E052F"/>
<path d="M221.485 147.256L246.56 122.181L271.648 147.269L286.239 132.679L246.56 93L206.894 132.666L221.485 147.256ZM182 157.56L196.591 142.97L211.181 157.56L196.591 172.151L182 157.56ZM221.485 167.864L246.56 192.939L271.648 167.851L286.239 182.435L246.56 222.12L206.894 182.455L206.875 182.435L221.485 167.864ZM281.939 157.56L296.53 142.97L311.12 157.56L296.53 172.151L281.939 157.56ZM261.357 157.547H261.37V157.56L246.56 172.37L231.769 157.586L231.744 157.56L231.769 157.541L234.358 154.945L235.617 153.687L246.56 142.75L261.364 157.554L261.357 157.547Z" fill="#F3BA2F"/>
<rect x="142.255" y="245" width="83.7316" height="28.2043" fill="#02A6C2"/>
<rect x="142.256" y="282.018" width="59.9342" height="28.2043" fill="#5FCADE"/>
<rect x="142.255" y="319.037" width="28.2043" height="28.2043" fill="#ABEBF4"/>
<rect x="107" y="282.018" width="28.2043" height="28.2043" fill="#5FCADE"/>
<path d="M289.268 259.733C300.961 252.207 313.884 246.601 327.376 243.093C337.87 240.364 361.617 236.946 371.931 239.435C367.493 245.012 362.636 250.918 357.989 256.315C347.255 267.798 336.041 278.952 323.389 288.307C305.279 302.009 284.351 313.192 261.504 315.831C261.084 307.136 261.774 298.291 264.652 290.016C267.141 282.52 271.308 275.594 276.855 269.987C280.483 266.03 284.651 262.492 289.268 259.733Z" fill="#709B30"/>
<path d="M372.082 239.831C382.935 293.71 345.577 366.059 279.615 343.632C274.158 341.773 269.54 337.785 265.703 333.437C289.299 329.869 308.998 317.636 326.418 301.955C345.997 284.326 358.649 262.198 372.082 239.831Z" fill="#98C455"/>
<defs>
<linearGradient id="paint0_linear-692540" x1="240" y1="0" x2="240" y2="701.818" gradientUnits="userSpaceOnUse">
<stop stop-color="#08021E"/>
<stop offset="1" stop-color="#1F0777"/>
</linearGradient>
</defs>
</svg>