<svg width="24" height="24" viewBox="0 0 24 24" fill="none" xmlns="http://www.w3.org/2000/svg">
<path d="M12 24C18.6274 24 24 18.6274 24 12C24 5.37258 18.6274 0 12 0C5.37258 0 0 5.37258 0 12C0 18.6274 5.37258 24 12 24Z" fill="#7E6CFF"/>
<path d="M23.5 12C23.5 18.3513 18.3513 23.5 12 23.5C5.64873 23.5 0.5 18.3513 0.5 12C0.5 5.64873 5.64873 0.5 12 0.5C18.3513 0.5 23.5 5.64873 23.5 12Z" stroke="black" stroke-opacity="0.097"/>
<path d="M15.7989 7.88623C15.8267 7.88596 15.8332 7.90219 15.8135 7.92167L14.6554 9.08275C14.6297 9.10845 14.588 9.10845 14.5626 9.08275L14.3473 8.86741C14.2888 8.80898 14.2096 8.77625 14.1268 8.77625C14.1268 8.77625 13.5587 8.77517 13.3788 8.77381C13.3596 8.77354 13.3512 8.74974 13.3658 8.73729C14.018 8.18002 14.9289 7.89408 15.7989 7.88623Z" fill="white"/>
<path d="M10.8924 14.7018H10.1644C10.0592 14.7018 9.96014 14.6612 9.88575 14.5866L9.37094 14.0718C9.29655 13.9976 9.25543 13.8984 9.25543 13.7934V13.0651C9.25543 12.9599 9.29655 12.8609 9.37094 12.7868L9.88575 12.272C9.96014 12.1976 10.0592 12.1567 10.1644 12.1567H10.8924C10.9976 12.1567 11.0966 12.1976 11.171 12.272L11.6858 12.7868C11.7602 12.8609 11.8013 12.9605 11.8013 13.0651V13.7934C11.8013 13.8986 11.7602 13.9976 11.6858 14.0718L11.171 14.5866C11.0966 14.661 10.9976 14.7018 10.8924 14.7018Z" fill="white"/>
<path d="M7.3131 7.81029C7.33366 7.80596 7.35259 7.82165 7.35124 7.84275C7.34367 7.9515 7.33961 8.06134 7.33961 8.17198C7.33961 8.24069 7.34123 8.30913 7.34421 8.37703C7.34529 8.40598 7.33474 8.43411 7.31418 8.45467L4.05305 11.679C4.03303 11.699 3.99894 11.6839 4.00003 11.6549C4.07469 9.74939 5.58311 8.16981 7.3131 7.81029Z" fill="white"/>
<path d="M7.39913 9.08224C7.41672 9.06493 7.44648 9.07386 7.45134 9.0982C7.54224 9.54294 7.71673 9.96468 7.92394 10.354C7.9326 10.3699 7.92963 10.3897 7.91691 10.4024L5.06778 13.2415C4.89167 13.419 4.68878 13.6235 4.54676 13.7669C4.50645 13.8077 4.43801 13.7958 4.41339 13.7441C4.2289 13.3573 4.10229 12.9374 4.0463 12.4954C4.04224 12.464 4.05333 12.4326 4.07578 12.4102L7.39913 9.08224Z" fill="white"/>
<path d="M8.73146 13.3035C8.75093 13.2841 8.78421 13.2979 8.78421 13.3255V14.0369C8.78421 14.12 8.81694 14.1992 8.87537 14.2571L9.06041 14.4754C9.07285 14.4876 9.07258 14.5076 9.07691 14.5036L7.56254 15.9782C7.52223 16.018 7.48868 16.0282 7.45595 16.0226C7.08128 15.959 6.72446 15.8446 6.39172 15.6871C6.37251 15.6779 6.36819 15.6522 6.38333 15.6368L8.73146 13.3035Z" fill="white"/>
<path d="M7.68213 13.6419L7.68806 13.6362C7.68477 13.6395 7.68213 13.6419 7.68213 13.6419Z" fill="white"/>
<path d="M8.2253 16.0742C8.19771 16.0745 8.19121 16.0582 8.21069 16.039L9.36906 14.8777C9.39449 14.852 9.43615 14.852 9.46158 14.8777L9.67719 15.093C9.73562 15.1514 9.81461 15.1842 9.89739 15.1842C9.89739 15.1842 10.4655 15.1853 10.6454 15.1869C10.6646 15.1869 10.673 15.2107 10.6586 15.2234C10.0061 15.7804 9.09556 16.0663 8.2253 16.0742Z" fill="white"/>
<path d="M4.76805 14.1907C5.08781 13.8715 6.5938 12.3669 6.90219 12.0585C6.92573 12.035 6.96333 12.0493 6.96928 12.0823C7.01689 12.3469 7.14323 12.5925 7.33584 12.7854H7.33611C7.53792 12.9872 7.79843 13.1171 8.07734 13.159C8.11034 13.1639 8.12549 13.2012 8.10195 13.225C7.80113 13.5258 6.38225 14.9458 5.92101 15.4076C5.90694 15.4086 5.89883 15.4094 5.88476 15.4105C5.44327 15.1224 5.05967 14.7524 4.75696 14.3214C4.72856 14.2808 4.73315 14.2259 4.76805 14.1907Z" fill="white"/>
<path d="M9.18182 10.8923V10.1643C9.18182 10.0588 9.22267 9.96008 9.29734 9.88569L9.81214 9.37061C9.88626 9.29649 9.98527 9.25537 10.0905 9.25537H10.8187C10.924 9.25537 11.023 9.29649 11.0974 9.37061L11.6122 9.88569C11.6866 9.96008 11.7274 10.0588 11.7274 10.1643V10.8923C11.7274 10.9975 11.6866 11.0965 11.6122 11.1709L11.0974 11.6857C11.023 11.7601 10.924 11.801 10.8187 11.801H10.0905C9.98527 11.801 9.88626 11.7601 9.81214 11.6857L9.29707 11.1709C9.22267 11.0963 9.18182 10.9975 9.18182 10.8923Z" fill="white"/>
<path d="M16.0737 7.3131C16.078 7.33366 16.0623 7.35259 16.0412 7.35097C15.9325 7.34339 15.8226 7.33961 15.712 7.33961C15.6433 7.33961 15.5748 7.34123 15.5069 7.34394C15.478 7.34529 15.4499 7.33474 15.4293 7.31445L12.2052 4.05305C12.1849 4.03276 12.2004 3.99894 12.229 4.00003C14.1346 4.07442 15.7142 5.58284 16.0737 7.3131Z" fill="white"/>
<path d="M14.8017 7.39925C14.819 7.41656 14.8101 7.44659 14.7857 7.45146C14.341 7.54236 13.9193 7.71657 13.53 7.92406C13.514 7.93245 13.4943 7.92974 13.4816 7.91703L10.6424 5.0679C10.4647 4.89179 10.2605 4.6889 10.1168 4.54661C10.076 4.5063 10.0879 4.43813 10.1395 4.41351C10.5264 4.22847 10.9465 4.10241 11.3883 4.04614C11.4199 4.04235 11.4513 4.05345 11.4738 4.07563L14.8017 7.39925Z" fill="white"/>
<path d="M10.5799 8.73077C10.5994 8.75025 10.5856 8.78352 10.558 8.78352H9.84654C9.76376 8.78352 9.68449 8.81652 9.62633 8.87495L9.40802 9.05999C9.39585 9.07216 9.37583 9.07217 9.38016 9.07622L7.90555 7.56212C7.86551 7.52154 7.8555 7.48799 7.86091 7.45526C7.92475 7.08086 8.03918 6.72404 8.19663 6.3913C8.20583 6.37182 8.23153 6.3675 8.24667 6.38264L10.5799 8.73077Z" fill="white"/>
<path d="M7.80957 8.22562C7.8093 8.19775 7.82553 8.19153 7.84501 8.21101L9.00609 9.36938C9.03179 9.39481 9.03179 9.43647 9.00609 9.4619L8.79075 9.67723C8.73232 9.73594 8.69959 9.81493 8.69959 9.89771C8.69959 9.89771 8.69851 10.4658 8.69715 10.6457C8.69688 10.6649 8.67308 10.6736 8.66063 10.659C8.10336 10.0065 7.81742 9.09588 7.80957 8.22562Z" fill="white"/>
<path d="M12.4319 8.67C12.301 8.80093 12.1233 8.87451 11.9382 8.87451C11.7529 8.87451 11.5752 8.8012 11.4445 8.67H11.4443C11.3133 8.53906 11.2397 8.36133 11.2397 8.17602C11.2397 7.99072 11.3133 7.81326 11.4443 7.68232L11.4445 7.68205C11.5752 7.55112 11.7529 7.47754 11.938 7.47754H11.9382C12.1235 7.47754 12.3013 7.55139 12.4319 7.68232H12.4322C12.5631 7.81326 12.6364 7.99099 12.6364 8.17602C12.6364 8.36133 12.5629 8.53879 12.4319 8.67Z" fill="white"/>
<path d="M9.69286 4.76802C10.0121 5.0875 11.5167 6.59349 11.8251 6.90216C11.8486 6.92569 11.8343 6.9633 11.8013 6.96925C11.537 7.01686 11.2911 7.14319 11.0985 7.3358H11.0982C10.8964 7.53788 10.7668 7.79839 10.7249 8.0773C10.72 8.1103 10.6824 8.12545 10.6589 8.10165C10.3578 7.80083 8.93784 6.38222 8.47606 5.92098C8.47498 5.90691 8.47417 5.89852 8.47308 5.88473C8.76146 5.44297 9.13126 5.05964 9.56247 4.75693C9.60278 4.72852 9.6577 4.73285 9.69286 4.76802Z" fill="white"/>
<path d="M8.66979 11.4511C8.80072 11.582 8.8743 11.7598 8.8743 11.9448C8.8743 12.1301 8.80072 12.3078 8.66979 12.4385V12.4388C8.53885 12.5697 8.36112 12.6433 8.17582 12.6433C7.99051 12.6433 7.81305 12.57 7.68211 12.4388V12.4385C7.55118 12.3081 7.4776 12.1301 7.4776 11.9451V11.9448C7.4776 11.7595 7.55118 11.582 7.68211 11.4511L7.68238 11.4508C7.81305 11.3199 7.99078 11.2466 8.17582 11.2466C8.36112 11.2469 8.53885 11.3204 8.66979 11.4511Z" fill="white"/>
<path d="M13.1196 9.26807H13.8475C13.953 9.26807 14.0518 9.30892 14.1262 9.38331L14.6412 9.89838C14.7154 9.9725 14.7565 10.0715 14.7565 10.1767V10.9047C14.7565 11.0102 14.7154 11.1087 14.6412 11.1831L14.1262 11.6979C14.0518 11.7723 13.953 11.8134 13.8475 11.8134H13.1196C13.0143 11.8134 12.9153 11.7726 12.8409 11.6979L12.3261 11.1834C12.2517 11.1087 12.2109 11.0097 12.2109 10.9047V10.1767C12.2109 10.0715 12.2517 9.9725 12.3261 9.89838L12.8409 9.38331C12.9153 9.30892 13.0143 9.26807 13.1196 9.26807Z" fill="white"/>
<path d="M16.6989 16.1591C16.6783 16.1634 16.6594 16.1475 16.661 16.1266C16.6686 16.0179 16.6723 15.9078 16.6723 15.7971C16.6723 15.7284 16.6707 15.66 16.668 15.5918C16.6667 15.5631 16.6772 15.5347 16.6978 15.5144L19.9589 12.2904C19.9792 12.2704 20.013 12.2855 20.0119 12.3142C19.9373 14.22 18.4291 15.7996 16.6989 16.1591Z" fill="white"/>
<path d="M16.6128 14.8868C16.5955 14.9044 16.5655 14.8952 16.5606 14.8709C16.4697 14.4261 16.2955 14.0044 16.088 13.6154C16.0796 13.5994 16.0823 13.5797 16.095 13.5667L18.9442 10.7273C19.1203 10.5498 19.3232 10.3453 19.4655 10.2017C19.5058 10.1611 19.5739 10.1727 19.5986 10.2244C19.7833 10.6115 19.9097 11.0314 19.9659 11.4734C19.9697 11.5048 19.9586 11.5364 19.9364 11.5586L16.6128 14.8868Z" fill="white"/>
<path d="M15.2808 10.6655C15.2613 10.685 15.228 10.6712 15.228 10.6436V9.93215C15.228 9.84937 15.195 9.77011 15.1366 9.71167L14.9518 9.49363C14.9394 9.48146 14.9394 9.46144 14.9353 9.4655L16.4494 7.99089C16.49 7.95112 16.5235 7.94057 16.5563 7.94625C16.9307 8.0101 17.2875 8.12453 17.6202 8.28197C17.6397 8.29117 17.644 8.3166 17.6289 8.33174L15.2808 10.6655Z" fill="white"/>
<path d="M16.3285 10.3257L16.3226 10.3316C16.3259 10.3283 16.3285 10.3257 16.3285 10.3257Z" fill="white"/>
<path d="M15.7866 7.89551C15.8145 7.89524 15.8207 7.9112 15.8012 7.93068L14.6429 9.09203C14.6174 9.11773 14.5758 9.11773 14.5503 9.09203L14.335 8.87669C14.2763 8.81826 14.1973 8.78553 14.1145 8.78553C14.1145 8.78553 13.5464 8.78444 13.3665 8.78282C13.3473 8.78282 13.3389 8.75901 13.3533 8.74657C14.0058 8.1893 14.9164 7.90336 15.7866 7.89551Z" fill="white"/>
<path d="M19.2439 9.77837C18.9241 10.0979 17.4181 11.6025 17.1097 11.9106C17.0859 11.9342 17.0486 11.9198 17.0427 11.8871C16.995 11.6225 16.8687 11.3766 16.6758 11.184C16.474 10.9819 16.2135 10.8523 15.9343 10.8104C15.9016 10.8053 15.8864 10.7679 15.91 10.7444C16.2108 10.4433 17.6294 9.02335 18.0909 8.56157C18.1047 8.56049 18.1131 8.55995 18.1272 8.55859C18.5687 8.84697 18.9523 9.21677 19.255 9.64798C19.2834 9.68856 19.2788 9.74348 19.2439 9.77837Z" fill="white"/>
<path d="M14.8304 13.0774V13.8053C14.8304 13.9111 14.7892 14.0096 14.7148 14.084L14.2 14.5988C14.1257 14.6729 14.0266 14.7143 13.9217 14.7143H13.1934C13.0882 14.7143 12.9892 14.6732 12.9148 14.5988L12.4 14.084C12.3256 14.0096 12.2845 13.9108 12.2845 13.8053V13.0774C12.2845 12.9721 12.3256 12.8734 12.4 12.799L12.9148 12.2842C12.9892 12.2101 13.0882 12.1689 13.1934 12.1689H13.9217C14.0266 12.1689 14.1257 12.2098 14.2 12.2842L14.7148 12.799C14.7892 12.8734 14.8304 12.9721 14.8304 13.0774Z" fill="white"/>
<path d="M7.93827 16.6564C7.93395 16.6358 7.94991 16.6169 7.97074 16.6182C8.07949 16.6258 8.18932 16.6299 8.30023 16.6299C8.36894 16.6299 8.43711 16.6282 8.50529 16.625C8.53423 16.6239 8.56237 16.6345 8.58265 16.655L11.807 19.9162C11.8273 19.9364 11.8116 19.9703 11.7832 19.9692C9.87737 19.8951 8.2978 18.3866 7.93827 16.6564Z" fill="white"/>
<path d="M9.21023 16.57C9.19265 16.5525 9.20185 16.5227 9.22619 16.5181C9.67093 16.4272 10.0927 16.2527 10.4817 16.0452C10.4979 16.0371 10.5174 16.0395 10.5304 16.0523L13.3695 18.9014C13.547 19.0772 13.7515 19.2801 13.8951 19.4224C13.9357 19.4627 13.9241 19.5312 13.8724 19.5558C13.4853 19.7405 13.0654 19.8666 12.6234 19.9226C12.592 19.9269 12.5604 19.9158 12.5382 19.8934L9.21023 16.57Z" fill="white"/>
<path d="M13.432 15.2385C13.4126 15.2193 13.4263 15.186 13.4539 15.186H14.1654C14.2482 15.186 14.3275 15.1528 14.3859 15.0943L14.6042 14.9093C14.6161 14.8971 14.6361 14.8971 14.6318 14.8931L16.1064 16.4072C16.1464 16.4475 16.1567 16.4813 16.151 16.514C16.0872 16.8884 15.9728 17.2452 15.8153 17.5783C15.8061 17.5975 15.7807 17.6021 15.7655 17.5869L13.432 15.2385Z" fill="white"/>
<path d="M16.2024 15.7442C16.2027 15.7718 16.1867 15.7783 16.1673 15.7591L15.0059 14.6007C14.9802 14.575 14.9802 14.5336 15.0059 14.5079L15.2212 14.2923C15.2797 14.2339 15.3124 14.1549 15.3124 14.0724C15.3124 14.0724 15.3135 13.504 15.3151 13.3244C15.3151 13.3052 15.3392 13.2965 15.3514 13.3109C15.9086 13.9633 16.1946 14.8739 16.2024 15.7442Z" fill="white"/>
<path d="M11.58 15.3002C11.711 15.1693 11.8884 15.0957 12.0737 15.0957C12.259 15.0957 12.4365 15.169 12.5674 15.3002C12.6986 15.4309 12.7722 15.6089 12.7722 15.7942C12.7722 15.9795 12.6986 16.157 12.5674 16.2876C12.4368 16.4186 12.259 16.4921 12.0737 16.4921C11.8884 16.4921 11.7107 16.4188 11.58 16.2876L11.5798 16.2873C11.4488 16.157 11.3752 15.979 11.3752 15.7942C11.3752 15.6086 11.4488 15.4309 11.58 15.3002Z" fill="white"/>
<path d="M14.3193 19.2015C13.9998 18.8817 12.4954 17.376 12.1871 17.0673C12.1635 17.0438 12.1779 17.0062 12.2106 17.0003C12.4752 16.9526 12.7211 16.8263 12.9137 16.634V16.6337C13.1158 16.4319 13.2453 16.1714 13.2873 15.8925C13.2921 15.8595 13.3297 15.8443 13.3533 15.8679C13.6544 16.1687 15.0743 17.5873 15.5361 18.0488C15.5372 18.0631 15.538 18.071 15.5391 18.0853C15.2507 18.5268 14.8809 18.9104 14.4497 19.2129C14.4094 19.2413 14.3539 19.2369 14.3193 19.2015Z" fill="white"/>
<path d="M15.3421 12.5174C15.2112 12.3867 15.1376 12.2087 15.1376 12.0237C15.1376 11.8386 15.2112 11.6606 15.3421 11.5297C15.4731 11.3988 15.6508 11.3252 15.8361 11.3252C16.0214 11.3252 16.1989 11.3988 16.3298 11.5297H16.3301C16.461 11.6606 16.5346 11.8384 16.5346 12.0234V12.0237C16.5346 12.209 16.4608 12.3867 16.3298 12.5174C16.1989 12.6483 16.0212 12.7219 15.8361 12.7219C15.6508 12.7219 15.4734 12.6486 15.3421 12.5174Z" fill="white"/>
</svg>
