<?xml version="1.0" encoding="utf-8"?>
<!-- Generator: Adobe Illustrator 26.2.1, SVG Export Plug-In . SVG Version: 6.00 Build 0)  -->
<svg version="1.1"
	 id="svg5" inkscape:version="1.1 (c68e22c387, 2021-05-23)" xmlns:inkscape="http://www.inkscape.org/namespaces/inkscape" xmlns:sodipodi="http://sodipodi.sourceforge.net/DTD/sodipodi-0.dtd" xmlns:svg="http://www.w3.org/2000/svg"
	 xmlns="http://www.w3.org/2000/svg" xmlns:xlink="http://www.w3.org/1999/xlink" x="0px" y="0px" viewBox="0 0 1920 1920"
	 style="enable-background:new 0 0 1920 1920;" xml:space="preserve">
<style type="text/css">
	.st0{fill:#00B398;}
</style>
<sodipodi:namedview  bordercolor="#666666" borderopacity="1.0" id="namedview7" inkscape:current-layer="layer2" inkscape:cx="820.24386" inkscape:cy="806.10173" inkscape:document-units="mm" inkscape:pagecheckerboard="0" inkscape:pageopacity="0.0" inkscape:pageshadow="2" inkscape:window-height="1346" inkscape:window-maximized="1" inkscape:window-width="2560" inkscape:window-x="-11" inkscape:window-y="-11" inkscape:zoom="0.35355339" pagecolor="#ffffff" showgrid="false" units="px">
	</sodipodi:namedview>
<g id="layer3" inkscape:groupmode="layer" inkscape:label="Warstwa 3">
	<circle id="path2631" class="st0" cx="960.8" cy="962.5" r="960"/>
</g>
<g id="layer2" inkscape:groupmode="layer" inkscape:label="Warstwa 2">
	<g id="g2607" transform="matrix(2.1966263,0,0,2.1966263,527.95783,-2.2009842)">
		<g id="path1444">
			<path d="M47.9,494.1c-19.1,0-37.6-3.7-55-11.1c-16.8-7.1-31.9-17.3-44.9-30.3c-13-13-23.2-28.1-30.3-44.9
				c-7.4-17.4-11.1-36-11.1-55c0-19.1,3.7-37.6,11.1-55c7.1-16.8,17.3-31.9,30.3-44.9c13-13,28.1-23.2,44.9-30.3
				c17.4-7.4,36-11.1,55-11.1s37.6,3.7,55,11.1c16.8,7.1,31.9,17.3,44.9,30.3c13,13,23.2,28.1,30.3,44.9c7.4,17.4,11.1,36,11.1,55
				c0,19.1-3.7,37.6-11.1,55c-7.1,16.8-17.3,31.9-30.3,44.9c-13,13-28.1,23.2-44.9,30.3C85.5,490.3,67,494.1,47.9,494.1z
				 M47.9,268.1c-46.7,0-84.6,38-84.6,84.6s38,84.6,84.6,84.6s84.6-38,84.6-84.6S94.6,268.1,47.9,268.1z"/>
		</g>
		<path d="M111.8,544.4c0,35.6-28.3,63.8-63.9,63.8h0c-35.6,0-63.8-28.2-63.9-63.8l-56.7,0c0,66.2,54.3,120.5,120.5,120.5
			s120.5-54.3,120.5-120.5L111.8,544.4z"/>
		<g id="circle2418">
			<path d="M345.4,664.6c-19.1,0-37.6-3.7-55-11.1c-16.8-7.1-31.9-17.3-44.9-30.3c-13-13-23.2-28.1-30.3-44.9
				c-7.4-17.4-11.1-36-11.1-55c0-19.1,3.7-37.6,11.1-55c7.1-16.8,17.3-31.9,30.3-44.9c13-13,28.1-23.2,44.9-30.3
				c17.4-7.4,36-11.1,55-11.1s37.6,3.7,55,11.1c16.8,7.1,31.9,17.3,44.9,30.3c13,13,23.2,28.1,30.3,44.9c7.4,17.4,11.1,36,11.1,55
				c0,19.1-3.7,37.6-11.1,55c-7.1,16.8-17.3,31.9-30.3,44.9c-13,13-28.1,23.2-44.9,30.3C383,660.8,364.5,664.6,345.4,664.6z
				 M345.4,438.6c-46.7,0-84.6,38-84.6,84.6s38,84.6,84.6,84.6s84.6-38,84.6-84.6S392.1,438.6,345.4,438.6z"/>
		</g>
		<path id="circle2420" d="M345.4,211.1c-67.1,0-122.1,55-122.1,122.1c0,20.8,5.3,40.5,14.6,57.7c14.7-11.9,31.3-21.3,49.2-27.8
			c-4.5-8.9-7.1-19.1-7.1-29.9c0-36.4,28.9-65.4,65.4-65.4s65.4,28.9,65.4,65.4c0,10.8-2.6,20.9-7.1,29.8
			c17.8,6.5,34.4,15.9,49.1,27.9c9.3-17.2,14.6-36.9,14.6-57.7C467.5,266.1,412.5,211.1,345.4,211.1z"/>
	</g>
</g>
</svg>
