<svg width="228" height="227" viewBox="0 0 228 227" fill="none" xmlns="http://www.w3.org/2000/svg">
<rect x="5.61252" y="5.51249" width="216.775" height="216.775" rx="108.387" fill="url(#paint0_linear_1_27)"/>
<rect x="5.61252" y="5.51249" width="216.775" height="216.775" rx="108.387" stroke="white" stroke-width="9.425" stroke-linecap="round" stroke-linejoin="round" stroke-dasharray="0.19 37.7"/>
<path d="M23.52 113.9C23.52 63.9293 64.0293 23.42 114 23.42C163.971 23.42 204.48 63.9293 204.48 113.9C204.48 163.871 163.971 204.38 114 204.38C64.0293 204.38 23.52 163.871 23.52 113.9Z" fill="#3A298F"/>
<path d="M23.52 113.9C23.52 63.9293 64.0293 23.42 114 23.42C163.971 23.42 204.48 63.9293 204.48 113.9C204.48 163.871 163.971 204.38 114 204.38C64.0293 204.38 23.52 163.871 23.52 113.9Z" stroke="url(#paint1_linear_1_27)" stroke-width="9.425" stroke-linecap="round" stroke-linejoin="round" stroke-dasharray="0.19 18.85"/>
<path fill-rule="evenodd" clip-rule="evenodd" d="M148.097 57.4464C153.657 57.4464 158.883 59.6098 162.815 63.5416C170.928 71.6638 170.928 84.8705 162.817 92.9872C161.163 94.6408 159.284 95.9811 157.21 96.99C161.615 105.014 160.265 115.086 153.657 121.69C149.727 125.625 144.5 127.791 138.938 127.791C133.378 127.791 128.15 125.623 124.216 121.69C123.346 120.819 122.557 119.878 121.854 118.873L117.824 122.904C116.644 124.083 114.579 124.079 113.408 122.897L113.399 122.888L113.386 122.901L103.463 112.976L103.472 112.967L103.458 112.952C102.243 111.737 102.243 109.76 103.458 108.545L107.489 104.508C106.484 103.805 105.543 103.016 104.672 102.146C96.5592 94.0325 96.5592 80.8258 104.672 72.7036C108.606 68.7737 113.832 66.6102 119.39 66.6102C122.914 66.6102 126.327 67.4825 129.374 69.1543C130.377 67.0819 131.718 65.2007 133.375 63.5416C137.308 59.6098 142.537 57.4464 148.097 57.4464ZM119.389 96.9409C121.929 96.9409 124.322 95.952 126.121 94.1546C129.829 90.4468 129.831 84.408 126.119 80.6892C124.322 78.8936 121.931 77.9048 119.389 77.9048C116.846 77.9048 114.455 78.8954 112.658 80.6929C108.95 84.4061 108.952 90.4468 112.66 94.1546C114.455 95.9502 116.846 96.9409 119.389 96.9409ZM138.937 116.489C141.479 116.489 143.87 115.498 145.666 113.699C149.375 109.989 149.375 103.95 145.667 100.243C143.87 98.4415 141.479 97.4508 138.937 97.4508C136.396 97.4508 134.003 98.4415 132.204 100.241C128.494 103.95 128.494 109.989 132.204 113.699C134.003 115.498 136.394 116.489 138.937 116.489ZM148.097 87.7788C150.639 87.7788 153.03 86.7881 154.826 84.9925C158.534 81.2847 158.534 75.2459 154.826 71.5309C153.03 69.7352 150.639 68.7445 148.097 68.7445C145.556 68.7445 143.165 69.7334 141.362 71.5327C137.656 75.2459 137.656 81.2847 141.366 84.9944C143.165 86.79 145.554 87.7788 148.097 87.7788ZM110.809 125.474L94.2008 142.081L100.047 147.925C100.593 148.471 100.893 149.196 100.893 149.966C100.893 150.737 100.593 151.461 100.047 152.008L94.0096 158.047C92.8878 159.163 91.0576 159.167 89.9358 158.056L84.0791 152.197L80.903 155.375L86.6997 161.166C87.8506 162.335 87.847 164.211 86.6997 165.357L82.5748 169.483C82.0121 170.046 81.2691 170.354 80.4787 170.354H80.466C79.6756 170.35 78.9344 170.04 78.379 169.478L72.5897 163.694L71.0727 165.213C68.3319 167.946 63.8829 167.946 61.1494 165.214C58.4159 162.474 58.4177 158.025 61.1494 155.293L100.886 115.549L110.809 125.474Z" fill="url(#paint2_linear_1_27)"/>
<defs>
<linearGradient id="paint0_linear_1_27" x1="227" y1="1.00001" x2="1.00002" y2="227" gradientUnits="userSpaceOnUse">
<stop stop-color="#6347F5"/>
<stop offset="1" stop-color="#3A298F"/>
</linearGradient>
<linearGradient id="paint1_linear_1_27" x1="24" y1="204" x2="204" y2="23" gradientUnits="userSpaceOnUse">
<stop stop-color="#44299E"/>
<stop offset="1" stop-color="#6347F5"/>
</linearGradient>
<linearGradient id="paint2_linear_1_27" x1="114" y1="57.4464" x2="114" y2="170.354" gradientUnits="userSpaceOnUse">
<stop stop-color="#F25911"/>
<stop offset="1" stop-color="#F5C05B"/>
</linearGradient>
</defs>
</svg>
