<svg width="24" height="24" viewBox="0 0 24 24" fill="none" xmlns="http://www.w3.org/2000/svg">
<path d="M12 24C18.6274 24 24 18.6274 24 12C24 5.37258 18.6274 0 12 0C5.37258 0 0 5.37258 0 12C0 18.6274 5.37258 24 12 24Z" fill="#F6C538"/>
<path d="M23.5 12C23.5 18.3513 18.3513 23.5 12 23.5C5.64873 23.5 0.5 18.3513 0.5 12C0.5 5.64873 5.64873 0.5 12 0.5C18.3513 0.5 23.5 5.64873 23.5 12Z" stroke="black" stroke-opacity="0.097"/>
<g clip-path="url(#clip0)">
<path d="M21.9998 12.0391C22.0097 6.43196 17.6335 2.01932 12.0394 1.99958C6.43548 1.97983 1.98993 6.40234 1.99983 12.0094C2.00973 17.7942 6.6533 21.97 11.9899 21.9996C17.5147 22.0292 21.9899 17.5475 21.9998 12.0391Z" fill="#F6C538"/>
<path d="M21.9998 12.0391C21.9899 17.5475 17.5147 22.0292 11.9899 21.9996C6.6533 21.97 2.00973 17.7942 1.99983 12.0094C1.98993 6.40234 6.43548 1.97983 12.0394 1.99958C17.6335 2.01932 22.0097 6.43196 21.9998 12.0391ZM15.3959 6.84657C15.4553 6.63926 15.4751 6.42208 15.5642 6.23452C15.8612 5.64222 16.1781 5.05979 16.4949 4.47737C16.5642 4.34903 16.6632 4.21083 16.6632 4.0825C16.6632 3.95417 16.5939 3.75673 16.4949 3.6975C16.3464 3.60866 16.1384 3.60866 15.9602 3.57904C15.9404 3.71725 15.9503 3.86532 15.9107 4.00353C15.881 4.12199 15.8414 4.2898 15.7424 4.34903C15.3266 4.62544 15.0394 4.92159 15.386 5.45466C15.2474 5.51389 15.1186 5.53363 15.0493 5.60274C14.8909 5.7903 14.6038 6.07658 14.6533 6.20491C14.8216 6.59977 14.6038 6.659 14.3563 6.81695C13.8117 7.15259 13.8315 8.03117 14.3662 8.3668C14.7127 7.85348 15.0592 7.35002 15.4058 6.83669C15.386 7.14272 14.9503 7.40925 15.2969 7.7745C15.3068 7.78437 15.1979 7.92258 15.1384 7.99168C14.9701 8.17924 14.6434 8.40629 14.6731 8.55436C14.7325 8.81103 15.0097 9.01833 15.2177 9.275C15.4256 8.89 15.584 8.60372 15.7325 8.32732C16.0592 7.71527 16.4058 7.12297 16.7127 6.50106C16.9998 5.9285 17.2672 5.3362 17.5246 4.7439C17.5741 4.63531 17.5939 4.44775 17.5345 4.37865C17.4553 4.29968 17.2672 4.24045 17.1483 4.27993C16.6236 4.43788 16.3959 4.93146 16.5939 5.46453C16.4949 5.51389 16.3761 5.54351 16.3068 5.61261C16.1384 5.80017 15.8315 6.10619 15.881 6.20491C16.2078 6.79721 15.6533 6.69849 15.3959 6.84657ZM17.8612 6.84657C17.9107 6.659 17.9305 6.4517 18.0196 6.28388C18.1483 6.00747 18.3959 5.76068 18.4553 5.4744C18.4949 5.28684 18.2969 5.03018 18.1583 4.83275C18.1087 4.76364 17.9305 4.79326 17.8117 4.78339C17.8216 4.97095 17.8216 5.15851 17.8216 5.34607C17.8216 5.37569 17.8018 5.4053 17.782 5.46453C17.4256 5.67184 16.9206 5.82978 17.1979 6.4517C17.2177 6.50106 17.0691 6.64913 16.9701 6.72811C16.6434 6.9749 16.2771 7.1822 16.5048 7.7054C16.5246 7.75476 16.4256 7.92258 16.3464 7.96207C15.881 8.16937 15.6929 8.47539 15.9404 8.94923C15.3662 9.45269 15.3959 9.69948 16.0889 9.97588C16.3068 9.53166 16.4751 9.0282 16.7721 8.64321C17.2078 8.08052 17.2177 7.26118 17.8711 6.83669C17.7919 7.16246 17.7226 7.48822 17.6434 7.82386C17.7226 7.90283 17.6929 7.94232 17.6533 7.96207C17.2375 8.12001 16.9206 8.30757 17.1583 8.85051C17.188 8.91962 17.0493 9.09731 16.9602 9.18615C16.6929 9.44281 16.2672 9.6205 16.5939 10.1141C16.6137 10.1536 16.5939 10.2523 16.5543 10.2918C16.2771 10.6274 16.5543 10.7755 16.8414 11.042C17.0295 10.6669 17.2078 10.3411 17.3563 10.0154C17.4157 9.88704 17.4355 9.72909 17.4949 9.60076C17.8513 8.89 18.2078 8.17924 18.5741 7.47835C18.6335 7.36976 18.7226 7.28092 18.782 7.16246C18.9503 6.85644 19.1483 6.55042 19.2573 6.21478C19.2969 6.08645 19.1583 5.8594 19.0394 5.74094C18.9701 5.66197 18.7226 5.62248 18.6632 5.67184C18.5147 5.81004 18.2969 6.09632 18.3563 6.18516C18.683 6.79721 18.1186 6.69849 17.8612 6.84657ZM5.29686 6.91567L5.30676 6.92554C5.32657 6.51093 5.05924 6.27401 4.79191 6.00747C4.72261 6.09632 4.6632 6.14568 4.6731 6.16542C4.85132 6.54054 4.6533 6.659 4.33647 6.83669C4.13845 6.95515 3.95033 7.35002 3.99983 7.57707C4.05924 7.84361 3.98993 7.87322 3.81171 8.01142C3.61369 8.16937 3.33647 8.51488 3.39587 8.66295C3.51469 8.9591 3.43548 9.04795 3.21766 9.20589C3.08894 9.30461 2.96023 9.47243 2.92063 9.6205C2.79191 10.1536 2.7028 10.6965 2.60379 11.2395C2.49488 11.8614 2.89092 12.4734 2.6533 13.1249C2.60379 13.273 2.74241 13.4902 2.81171 13.7271C3.18795 13.046 3.51468 12.4537 3.88102 11.7923C3.96023 12.1279 3.99983 12.3155 4.03944 12.4932C3.33647 12.9571 3.20775 13.1348 3.43548 13.5099C3.24736 13.8258 2.98993 14.0924 2.95033 14.3786C2.92063 14.6748 3.09884 14.9907 3.22756 15.4152C3.37607 15.198 3.43548 15.1289 3.47508 15.0401C3.74241 14.4478 3.97013 13.8357 4.27706 13.273C4.56419 12.7498 4.93053 12.276 5.25726 11.7824C5.22756 11.9107 5.13845 12.0687 5.17805 12.1477C5.33647 12.4438 5.23746 12.5425 4.96023 12.6906C4.72261 12.8189 4.45528 13.0657 4.6533 13.4507C4.6929 13.5297 4.57409 13.737 4.46518 13.816C4.07904 14.0825 3.77211 14.3589 4.08894 14.8525C3.26716 15.3658 3.19785 15.9088 3.89092 16.5702C4.6632 15.0401 5.42558 13.5198 6.21766 11.9305C6.36617 12.1575 6.45528 12.2957 6.56419 12.4537C6.15825 12.7498 5.56419 12.9275 5.97013 13.5988C5.6137 13.9443 4.95033 14.1319 5.34637 14.8525C4.96023 15.119 4.40577 15.3066 4.75231 15.9581C4.77211 15.9877 4.6533 16.1259 4.57409 16.1555C3.79191 16.4517 3.89092 17.0835 4.60379 17.5771C4.7127 17.2809 4.78201 16.9749 4.93053 16.7182C5.27706 16.1062 5.6731 15.5139 6.00973 14.9018C6.32657 14.3194 6.54439 13.6876 6.88102 13.1151C7.19785 12.582 7.05924 12.0884 6.91072 11.5652C6.87112 11.3777 6.83152 11.1802 6.81172 10.9828C6.75231 10.5583 6.71271 10.124 6.6632 9.69948C6.6137 9.70935 6.57409 9.71922 6.52459 9.71922C6.50478 9.92653 6.31667 10.2523 6.08894 10.5682C5.98993 10.7064 5.85132 10.9433 5.90082 11.042C6.12855 11.427 5.93053 11.4764 5.6137 11.5257C5.50478 11.5455 5.40577 11.6738 5.30676 11.7528C5.6929 10.9334 6.07904 10.124 6.46518 9.30461C6.6434 8.92949 6.48498 8.2977 6.07904 7.98181C5.98993 8.23847 5.78201 8.53462 5.86122 8.6827C6.03944 8.99859 5.90082 9.06769 5.6731 9.20589C5.22756 9.46256 5.13845 9.74884 5.33647 10.2128C5.27706 10.2622 5.22756 10.3214 5.15825 10.3609C4.82162 10.5583 4.43548 10.7261 4.73251 11.2395C4.76221 11.2789 4.6434 11.4073 4.59389 11.4961C4.48498 11.427 4.27706 11.3579 4.27706 11.2888C4.28696 11.121 4.37607 10.9532 4.44538 10.7952C4.57409 10.5287 4.72261 10.2819 4.85132 10.0154C5.12855 9.46256 5.35627 8.89 5.683 8.37667C6.09884 7.71527 6.01964 7.29079 5.29686 6.91567ZM8.05924 17.508C8.14835 17.5771 8.20775 17.6462 8.28696 17.6857C8.92063 18.0114 9.54439 17.9226 10.1285 17.5968C10.4355 17.4191 10.6335 17.4981 10.9206 17.656C11.386 17.9226 11.881 18.1792 12.3959 18.3076C14.3662 18.811 16.0493 17.6462 16.2969 15.6324C16.3068 15.5238 16.3464 15.4152 16.3761 15.277C16.7325 15.277 17.0691 15.277 17.4949 15.277C17.3761 14.7933 17.3068 14.3589 17.1583 13.9542C16.6335 12.4537 15.683 11.2197 14.5939 10.0845C12.3959 7.78437 9.6236 6.39247 6.71271 5.20787C6.6731 5.198 6.6236 5.22761 6.56419 5.23748C6.78201 5.73107 6.98993 6.21478 7.23746 6.77746C6.88102 6.77746 6.6533 6.77746 6.34637 6.77746C6.6137 7.16246 6.80181 7.48822 7.03944 7.7745C7.44538 8.27796 7.6335 8.84064 7.72261 9.47243C8.03944 11.7725 8.39587 14.0529 8.73251 16.3332C8.85132 17.1526 8.83152 17.2019 8.05924 17.508ZM19.9998 7.35002C20.2969 7.74489 20.2771 7.92258 19.8711 8.05091C19.7127 8.10027 19.5048 8.54449 19.5741 8.6827C19.7424 8.99859 19.584 9.06769 19.3761 9.20589C19.0889 9.40333 18.7622 9.61063 18.9899 10.0647C19.0196 10.124 18.9107 10.2918 18.8216 10.351C18.5345 10.5781 18.1384 10.736 18.4355 11.2296C18.4454 11.2493 18.2771 11.3875 18.188 11.4764C18.1285 11.3283 17.98 11.1407 18.0196 11.0223C18.1186 10.7557 18.3266 10.5188 18.4553 10.2622C18.9404 9.25525 19.4157 8.23847 19.881 7.22169C19.9305 7.10323 19.9404 6.88605 19.8711 6.81695C19.782 6.72811 19.5741 6.69849 19.4454 6.72811C19.0097 6.84657 18.8117 7.32041 18.9701 7.84361C18.8711 7.89296 18.7325 7.91271 18.683 7.99168C18.5345 8.21873 18.2969 8.49513 18.3365 8.70244C18.386 8.9591 18.3365 9.04795 18.1483 9.16641C17.8216 9.37371 17.5246 9.60076 17.7523 10.0647C17.782 10.124 17.6137 10.2622 17.5444 10.3708C17.386 10.5978 17.0988 10.8248 17.1087 11.042C17.1186 11.4468 17.1682 11.891 17.584 12.1773C17.6929 12.2464 17.6929 12.4537 17.7523 12.6017C17.8117 12.7597 17.8711 12.9176 17.9305 13.0657C17.98 13.0756 18.0295 13.0756 18.0691 13.0855C18.2573 12.7301 18.4553 12.3747 18.683 11.97C18.8216 12.1674 18.9107 12.3056 19.0097 12.4339C18.287 12.9867 18.079 13.9147 18.5543 14.586C18.782 14.122 18.9899 13.6876 19.2177 13.2632C19.4454 12.8387 19.683 12.4241 19.9503 11.97C20.079 12.1575 20.1682 12.2957 20.2771 12.4734C20.1285 12.5524 19.9701 12.582 19.9107 12.6708C19.7622 12.8782 19.5048 13.194 19.5741 13.3421C19.7127 13.6481 19.5741 13.7074 19.386 13.8258C19.0097 14.0628 18.7919 14.3688 19.0394 14.813C18.5741 15.2079 18.386 16.0173 18.6434 16.6886C18.7622 16.58 18.9008 16.5011 18.9602 16.3925C19.2474 15.8397 19.5147 15.2868 19.7721 14.734C20.0295 14.1911 20.2672 13.6481 20.5345 13.1151C20.7028 12.7696 20.8612 12.4043 21.0889 12.0884C21.4454 11.5948 21.5048 11.0124 21.1583 10.4201C20.9998 10.6669 20.6038 10.7755 20.8909 11.1802C20.9305 11.2296 20.9008 11.3875 20.8513 11.427C20.7919 11.4764 20.6632 11.4862 20.584 11.4468C20.5147 11.4171 20.4256 11.2888 20.4355 11.2395C20.5048 11.042 20.5939 10.8545 20.7127 10.6768C21.1186 10.0746 21.1781 9.54153 20.8711 9.10718C20.2969 9.275 20.1682 9.50204 20.2375 10.0647C20.2474 10.1536 20.0889 10.2622 20.0196 10.3708C19.8711 10.5978 19.5642 10.8841 19.6137 11.0519C19.7721 11.6146 19.4553 11.4369 19.1384 11.427C19.1979 11.2197 19.2276 11.0322 19.3068 10.8841C19.683 10.0943 20.0889 9.32435 20.4652 8.53462C20.7028 8.11014 20.584 7.76463 19.9998 7.35002ZM18.9701 17.2217C18.7325 17.4784 18.3464 17.7251 18.3761 17.8831C18.5147 18.5247 17.9206 18.7123 17.7226 19.1269C17.7028 19.1763 17.6929 19.2355 17.6731 19.3145C18.3167 19.0183 19.386 17.893 19.6929 17.2414C19.98 16.6491 20.3464 16.0864 20.584 15.4843C20.8909 14.7044 21.1087 13.8851 21.3464 13.0756C21.3761 12.9571 21.2771 12.8091 21.2375 12.6708C21.188 12.6708 21.1483 12.6708 21.0988 12.6708C20.9899 12.9275 20.5939 13.0756 20.8612 13.4902C20.8909 13.5396 20.7721 13.7469 20.6731 13.816C20.2672 14.0726 20.0592 14.3786 20.2969 14.8821C20.188 14.9413 20.0493 14.9611 19.9998 15.0401C19.8513 15.2671 19.5939 15.5534 19.6434 15.7508C19.7325 16.0568 19.6236 16.1062 19.4058 16.2148C18.9701 16.4221 18.8018 16.8564 18.9701 17.2217ZM10.7721 19.9759C10.5543 19.9759 10.2969 19.9167 10.0889 19.9956C9.93053 20.0549 9.71271 20.2918 9.72261 20.4399C9.73251 20.6768 9.87112 21.042 10.0295 21.0914C10.4652 21.2296 10.9503 21.2789 11.4157 21.2789C12.1186 21.2789 12.8315 21.2395 13.5345 21.1605C13.8018 21.1309 14.1186 20.9729 14.2969 20.7755C14.4553 20.5978 14.4454 20.2819 14.5345 19.9561C14.2276 20.0154 13.9305 20.045 13.6434 20.1338C13.4355 20.2029 13.2672 20.351 13.4652 20.6175C13.5048 20.6768 13.4355 20.8248 13.4157 20.9334C13.3068 20.8643 13.1285 20.815 13.1087 20.7261C13.079 20.5484 13.1285 20.351 13.1582 20.1338C13.0691 20.124 12.98 20.1042 12.881 20.1042C12.287 20.0943 12.2672 20.1338 12.2771 20.7064C12.2771 20.7854 12.1582 20.8643 12.0889 20.9433C12.0097 20.8742 11.8711 20.8051 11.8711 20.736C11.8612 20.5386 11.9107 20.3313 11.9404 20.124C11.8513 20.1141 11.7919 20.0943 11.7325 20.0943C11.0592 20.0549 11.0592 20.0746 11.0691 20.7261C11.0691 20.7952 10.9602 20.9334 10.9206 20.9334C10.8315 20.9236 10.6632 20.8347 10.6632 20.7854C10.6632 20.5682 10.7226 20.3411 10.7721 19.9759ZM5.33647 18.5247C5.6137 17.9522 5.85132 17.4389 6.09884 16.9354C6.14835 16.8367 6.22756 16.7577 6.27706 16.659C6.6434 15.9581 7.01964 15.2572 7.35627 14.5465C7.41568 14.4181 7.40577 14.201 7.33647 14.0726C7.27706 13.964 6.98003 13.8357 6.97013 13.8554C6.79191 14.1022 6.51469 14.3688 6.52459 14.6254C6.53449 14.8722 6.50478 14.9117 6.33647 15.0598C6.13845 15.2375 5.89092 15.5731 5.94043 15.7706C6.01964 16.0864 5.86122 16.0864 5.71271 16.2345C5.49488 16.4517 5.24736 16.7577 5.23746 17.0341C5.22756 17.2612 5.24736 17.3796 5.02954 17.4685C4.6632 17.6166 4.6929 17.8732 4.90082 18.1299C5.00973 18.2483 5.15825 18.3569 5.33647 18.5247ZM15.8612 3.24341C15.4553 3.24341 15.1384 3.16443 14.9008 3.27302C14.7424 3.34212 14.5444 3.74686 14.6137 3.86532C14.782 4.18122 14.5939 4.23057 14.4355 4.40826C14.2474 4.61557 14.0196 4.93146 14.0592 5.15851C14.1087 5.42505 14.0394 5.45466 13.8711 5.59286C13.6632 5.75081 13.3761 6.09632 13.4355 6.23452C13.5939 6.61952 13.4058 6.66888 13.1483 6.79721C12.8612 6.93541 12.8216 7.15259 13.0889 7.36976C13.2078 7.46848 13.3563 7.53758 13.5939 7.68566C14.3365 6.22465 15.0592 4.813 15.8612 3.24341ZM12.9008 5.43492C12.4256 5.63235 12.1087 5.84953 12.2474 6.46157C12.3167 6.73798 12.3761 6.93541 12.6137 6.9749C12.7028 6.99464 12.8711 6.73798 12.9503 6.58003C13.3068 5.88901 13.6533 5.18813 13.9899 4.49711C14.2276 4.0134 14.4652 3.51981 14.683 3.05585C14.2078 2.54252 13.9998 3.14469 13.7028 3.24341C13.5246 3.30264 13.4256 3.57904 13.2969 3.76661C13.2771 3.78635 13.3167 3.86532 13.3464 3.89494C13.584 4.16147 13.3662 4.25032 13.1781 4.36878C12.7721 4.66493 12.6731 4.96108 12.9008 5.43492ZM12.782 2.62149C12.8018 2.67085 12.8216 2.72021 12.8414 2.76957C12.7226 2.90777 12.5939 3.0361 12.4949 3.19405C12.386 3.37174 12.2078 3.57904 12.2276 3.75673C12.2672 4.05288 12.1682 4.18122 11.9602 4.36878C11.6632 4.62544 11.3365 4.93146 11.6137 5.32633C11.4256 5.57312 11.2573 5.78043 11.0889 5.98773C11.287 6.13581 11.4949 6.27401 11.7523 6.46157C12.1582 5.67184 12.5147 4.97095 12.8711 4.27006C13.0691 3.87519 13.2672 3.4902 13.4652 3.09533C13.6038 2.81893 13.5147 2.66098 13.1979 2.63136C13.079 2.62149 12.9305 2.62149 12.782 2.62149ZM11.5345 2.59188C11.5642 2.65111 11.5939 2.71034 11.6137 2.76957C11.5147 2.90777 11.4355 3.07559 11.3068 3.19405C11.0592 3.4211 10.7127 3.58892 10.98 4.02327C11.0097 4.07263 10.9404 4.26019 10.8711 4.29968C10.3662 4.55634 10.1781 4.93146 10.4058 5.46453C10.4652 5.61261 10.6038 5.7212 10.7127 5.83966C10.8117 5.75081 10.9602 5.68171 11.0196 5.57312C11.1582 5.29671 11.2474 5.00056 11.386 4.72416C11.6731 4.17134 11.98 3.63827 12.2672 3.09533C12.3365 2.95713 12.3464 2.78931 12.3959 2.59188C12.0691 2.59188 11.8018 2.59188 11.5345 2.59188ZM7.53449 15.2375C7.45528 15.2375 7.37607 15.2375 7.29686 15.2375C7.29686 15.4349 7.31667 15.6324 7.28696 15.8199C7.26716 15.9384 7.18795 16.1062 7.08894 16.1555C6.51469 16.4221 6.33647 16.7478 6.53449 17.3303C6.42558 17.3796 6.26716 17.4093 6.20775 17.4981C6.05924 17.6955 5.79191 18.0509 5.85132 18.1101C6.16815 18.4951 5.76221 18.5642 5.57409 18.7814C5.72261 18.9492 5.86122 19.1072 5.99983 19.2651C6.94043 18.4951 6.93053 17.5376 6.82162 16.5603C7.07904 16.5998 7.26716 16.6689 7.42558 16.6393C7.54439 16.6195 7.73251 16.4616 7.73251 16.3727C7.683 15.9976 7.60379 15.6225 7.53449 15.2375ZM11.1682 2.73995C11.1186 2.70047 11.079 2.66098 11.0295 2.62149C10.782 2.72021 10.3464 2.39444 10.3167 3.01636C10.3167 3.06572 10.2078 3.12495 10.1384 3.16443C9.79191 3.352 9.51469 3.5593 9.74241 4.03314C9.77211 4.10224 9.6632 4.25032 9.59389 4.34903C9.44538 4.54647 9.28696 4.73403 9.13845 4.92159C9.35627 5.05979 9.57409 5.198 9.82162 5.35594C10.3068 4.41814 10.7424 3.57904 11.1682 2.73995ZM9.82162 2.967C9.79191 2.91764 9.75231 2.85841 9.72261 2.80905C9.36617 2.97687 8.99983 3.11508 8.6632 3.32238C8.52459 3.41123 8.35627 3.74686 8.39587 3.79622C8.7028 4.1516 8.38597 4.29968 8.12855 4.49711C8.44538 4.63531 8.7028 5.01044 8.97013 4.59583C9.29686 4.0825 9.54439 3.50994 9.82162 2.967ZM17.9008 18.1792C17.485 18.5247 16.8711 18.7913 16.7226 19.2158C16.5444 19.6995 16.0493 19.887 15.8909 20.3708C16.9305 20.2128 17.7127 19.3244 17.9008 18.1792ZM16.0988 19.7587C16.0394 19.6699 15.9701 19.5909 15.9107 19.502C15.5147 19.739 15.0988 19.966 14.7226 20.2325C14.6632 20.272 14.6929 20.5484 14.7622 20.6373C14.8315 20.7261 15.0889 20.7854 15.1483 20.7261C15.4949 20.4399 15.7919 20.0943 16.0988 19.7587ZM7.06914 19.9759C7.55429 19.2256 7.58399 18.8209 7.17805 18.6926C6.60379 18.4951 6.6533 19.0973 6.36617 19.3342C6.6137 19.5613 6.82162 19.7488 7.06914 19.9759ZM9.6632 19.9463C9.07904 19.6995 8.73251 19.8179 8.50478 20.2622C8.35627 20.5682 8.57409 20.6669 8.76221 20.7163C8.94043 20.7557 9.22756 20.7755 9.33647 20.6669C9.49488 20.4892 9.54439 20.2128 9.6632 19.9463ZM8.6929 19.6995C8.31667 19.5119 8.07904 19.3836 7.84142 19.2651C8.33647 19.8772 7.55429 19.7488 7.41568 20.0845C7.6137 20.1931 7.88102 20.4399 8.01964 20.3806C8.26716 20.2819 8.43548 19.9858 8.6929 19.6995ZM8.38597 3.23354C7.98003 3.44084 7.6731 3.57904 7.39587 3.75673C7.32657 3.79622 7.27706 3.98378 7.30676 4.02327C7.41568 4.1516 7.55429 4.27006 7.7028 4.33916C7.75231 4.36878 7.92063 4.27006 7.96023 4.19109C8.09884 3.93442 8.20775 3.65802 8.38597 3.23354Z" fill="#663605"/>
<path d="M8.05906 17.5085C8.83134 17.2025 8.85114 17.1531 8.73233 16.3338C8.38579 14.0534 8.03926 11.7632 7.72243 9.48286C7.63332 8.85107 7.4452 8.27851 7.03926 7.78493C6.80164 7.49865 6.61352 7.17289 6.34619 6.78789C6.65312 6.78789 6.88084 6.78789 7.23728 6.78789C6.98976 6.21533 6.78183 5.73162 6.56401 5.24791C6.62342 5.23804 6.68282 5.20842 6.71253 5.2183C9.62342 6.39302 12.3957 7.78493 14.6036 10.0949C15.6927 11.2301 16.6432 12.4542 17.168 13.9646C17.3066 14.3792 17.3858 14.8136 17.5046 15.2874C17.0789 15.2874 16.7422 15.2874 16.3858 15.2874C16.3561 15.4256 16.3165 15.5342 16.3066 15.6428C16.0591 17.6467 14.3759 18.8215 12.4056 18.318C11.8907 18.1897 11.3957 17.933 10.9303 17.6665C10.6531 17.5085 10.4551 17.4394 10.1383 17.6072C9.55411 17.933 8.93035 18.0218 8.29669 17.6961C8.21748 17.6467 8.14817 17.5776 8.05906 17.5085ZM13.8016 13.6783C14.4452 13.7474 15.069 13.8165 15.7026 13.8757C15.7224 12.3358 11.1581 8.36736 9.34619 8.34761C9.465 8.63389 9.57391 8.9103 9.70263 9.16696C10.2868 10.3713 10.8808 11.5756 11.465 12.78C11.5244 12.9083 11.5244 13.0663 11.5442 13.2045C11.6729 14.3397 11.7818 15.4848 11.9204 16.6201C11.9402 16.7583 12.0195 16.9458 12.1284 17.0149C12.6432 17.321 13.6828 17.242 14.0987 16.8866C14.6432 16.4128 14.6729 15.7909 14.4749 15.1689C14.3165 14.6951 14.0591 14.2311 13.8016 13.6783Z" fill="#F6C538"/>
<path d="M19.9996 7.35039C20.5838 7.765 20.7026 8.11051 20.4847 8.55473C20.0986 9.34447 19.7026 10.1145 19.3263 10.9042C19.2471 11.0621 19.2273 11.2398 19.158 11.4471C19.4748 11.457 19.7917 11.6347 19.6333 11.072C19.5838 10.8943 19.8907 10.6179 20.0392 10.3909C20.1085 10.2823 20.2669 10.1737 20.257 10.0848C20.1877 9.52216 20.3164 9.29511 20.8907 9.12729C21.2075 9.55177 21.1481 10.0947 20.7323 10.6969C20.6135 10.8647 20.5243 11.0621 20.455 11.2596C20.4352 11.3089 20.5342 11.4373 20.6036 11.4669C20.6828 11.4965 20.8115 11.4866 20.8709 11.4471C20.9204 11.4076 20.9402 11.2596 20.9105 11.2003C20.6234 10.7956 21.0194 10.687 21.1778 10.4402C21.5144 11.0226 21.455 11.6149 21.1085 12.1085C20.8808 12.4244 20.7224 12.7897 20.554 13.1352C20.2966 13.6683 20.0491 14.2211 19.7917 14.7541C19.5243 15.307 19.257 15.8696 18.9798 16.4126C18.9204 16.531 18.7818 16.6001 18.663 16.7087C18.4055 16.0473 18.5937 15.228 19.059 14.8331C18.8115 14.379 19.0392 14.0829 19.4055 13.8459C19.5937 13.7275 19.7323 13.6683 19.5937 13.3622C19.5243 13.2142 19.7818 12.9081 19.9303 12.691C19.9897 12.6021 20.1481 12.5725 20.2966 12.4935C20.1778 12.3158 20.0887 12.1776 19.9699 11.9901C19.7125 12.454 19.4649 12.8687 19.2372 13.2833C19.0095 13.7077 18.8115 14.1421 18.5738 14.6061C18.0986 13.9348 18.3065 13.0069 19.0293 12.454C18.9402 12.3158 18.8412 12.1776 18.7026 11.9901C18.4748 12.4047 18.2867 12.7502 18.0887 13.1056C18.0392 13.0957 17.9897 13.0957 17.9501 13.0858C17.8907 12.9279 17.8313 12.7699 17.7719 12.6219C17.7224 12.4738 17.7125 12.2665 17.6035 12.1974C17.1877 11.921 17.1481 11.4669 17.1283 11.0621C17.1184 10.845 17.4055 10.6179 17.5639 10.3909C17.6333 10.2823 17.7917 10.1441 17.7719 10.0848C17.5441 9.62087 17.8412 9.39382 18.1679 9.18652C18.356 9.06806 18.3956 8.97921 18.356 8.72255C18.3164 8.51525 18.554 8.23884 18.7026 8.01179C18.7521 7.93282 18.8907 7.91307 18.9897 7.86372C18.8313 7.35039 19.0293 6.86668 19.4649 6.74822C19.5937 6.70873 19.8016 6.74822 19.8907 6.83706C19.96 6.90616 19.9501 7.12334 19.9006 7.2418C19.4352 8.25858 18.96 9.27536 18.4748 10.2823C18.3461 10.5488 18.1382 10.7759 18.0392 11.0424C17.9996 11.1609 18.1382 11.3385 18.2075 11.4965C18.2966 11.4076 18.4649 11.2694 18.455 11.2497C18.1481 10.7561 18.5441 10.5982 18.8412 10.3711C18.9303 10.302 19.0392 10.1342 19.0095 10.0848C18.7818 9.63074 19.0986 9.42344 19.3956 9.22601C19.6036 9.0878 19.762 9.0187 19.5937 8.70281C19.5243 8.5646 19.7323 8.13025 19.8907 8.07102C20.2768 7.92295 20.2966 7.74526 19.9996 7.35039Z" fill="#F6C538"/>
<path d="M5.27728 11.793C4.95055 12.2866 4.57431 12.7604 4.29708 13.2836C3.99015 13.8463 3.76243 14.4583 3.4951 15.0506C3.4555 15.1395 3.38619 15.2086 3.24758 15.4258C3.12877 15.0013 2.94065 14.6854 2.97035 14.3892C3.00005 14.103 3.26738 13.8364 3.4555 13.5205C3.23768 13.1454 3.36639 12.9578 4.05946 12.5038C4.01985 12.3261 3.98025 12.1385 3.90104 11.8029C3.53471 12.4643 3.20797 13.0566 2.83174 13.7377C2.76243 13.5008 2.61391 13.2836 2.67332 13.1355C2.89114 12.4741 2.4951 11.8621 2.60401 11.2402C2.70302 10.6972 2.79213 10.1642 2.92084 9.6311C2.96045 9.47315 3.07926 9.30533 3.21787 9.21649C3.4357 9.06841 3.505 8.96969 3.39609 8.67354C3.33669 8.52547 3.61391 8.17996 3.81193 8.02201C3.99015 7.88381 4.05946 7.86407 4.00005 7.58766C3.95055 7.36061 4.13867 6.95587 4.33669 6.84729C4.65352 6.6696 4.85154 6.55114 4.67332 6.17601C4.66342 6.15627 4.72283 6.10691 4.79213 6.01807C5.05946 6.2846 5.33669 6.52152 5.30698 6.946C4.80203 7.22241 4.79213 7.78509 4.56441 8.21945C4.05946 9.11777 3.58421 10.0556 3.09906 10.9835C3.05946 11.0625 3.00995 11.2007 3.04956 11.2599C3.09906 11.3488 3.21787 11.3981 3.31688 11.4672C3.38619 11.3784 3.52481 11.2599 3.4951 11.2007C3.29708 10.7466 3.59411 10.559 3.90104 10.3419C3.99015 10.2826 4.10896 10.1148 4.07926 10.0654C3.87134 9.60148 4.18817 9.39418 4.4753 9.15726C4.57431 9.06841 4.70302 8.88085 4.66342 8.80188C4.4951 8.37739 4.75253 8.17996 5.03966 7.98253C5.12877 7.9233 5.26738 7.8542 5.27728 7.77522C5.30698 7.48894 5.29708 7.20267 5.29708 6.90652C6.00995 7.28164 6.09906 7.69625 5.68322 8.35765C5.35649 8.87098 5.12877 9.45341 4.85154 9.99635C4.72283 10.253 4.57431 10.5097 4.4456 10.7762C4.36639 10.9342 4.28718 11.102 4.27728 11.2698C4.27728 11.329 4.4852 11.408 4.59411 11.4771C4.64362 11.3883 4.76243 11.2698 4.73273 11.2204C4.4258 10.7071 4.81193 10.5393 5.15847 10.3419C5.22778 10.3024 5.27728 10.2431 5.33669 10.1938C5.13867 9.72981 5.22778 9.44354 5.67332 9.18687C5.89114 9.05854 6.03966 8.97957 5.86144 8.66367C5.78223 8.52547 5.99015 8.21945 6.07926 7.96279C6.4852 8.27868 6.64362 8.91047 6.4654 9.28559C6.07926 10.1049 5.69312 10.9144 5.30698 11.7338C5.29708 11.7634 5.28718 11.7732 5.27728 11.793Z" fill="#F6C538"/>
<path d="M5.27706 11.793C5.28696 11.7831 5.29686 11.7732 5.31666 11.7535C5.41567 11.6745 5.51468 11.5462 5.62359 11.5265C5.94043 11.4771 6.13845 11.4277 5.91072 11.0427C5.86122 10.9539 5.99983 10.7071 6.09884 10.5689C6.32657 10.253 6.50478 9.92724 6.53449 9.71994C6.58399 9.71007 6.62359 9.7002 6.6731 9.7002C6.7226 10.1247 6.76221 10.559 6.82161 10.9835C6.85132 11.1809 6.89092 11.3784 6.94043 11.5659C7.07904 12.0891 7.21765 12.5827 6.91072 13.1158C6.57409 13.6883 6.35627 14.3201 6.03944 14.9026C5.7028 15.5245 5.29686 16.1069 4.96023 16.719C4.81171 16.9756 4.74241 17.2816 4.6335 17.5778C3.92062 17.0941 3.82161 16.4524 4.60379 16.1563C4.683 16.1266 4.80181 15.9884 4.78201 15.9588C4.44538 15.3073 4.98993 15.1296 5.37607 14.8532C4.98993 14.1424 5.6434 13.945 5.99983 13.5995C5.59389 12.9184 6.18795 12.7407 6.59389 12.4544C6.49488 12.2964 6.39587 12.1582 6.24736 11.9312C5.45528 13.5205 4.6929 15.0408 3.92062 16.5709C3.22756 15.9095 3.29686 15.3665 4.11864 14.8532C3.80181 14.3596 4.09884 14.0832 4.49488 13.8167C4.59389 13.7476 4.7127 13.5304 4.683 13.4514C4.48498 13.0664 4.75231 12.8196 4.98993 12.6913C5.26716 12.5432 5.36617 12.4445 5.20775 12.1484C5.14835 12.0694 5.24736 11.9114 5.27706 11.793Z" fill="#F6C538"/>
<path d="M18.9704 17.2222C18.802 16.857 18.9704 16.4128 19.406 16.2153C19.6238 16.1166 19.7228 16.0672 19.6436 15.7513C19.5941 15.5638 19.8516 15.2676 20.0001 15.0406C20.0496 14.9616 20.1882 14.932 20.2971 14.8826C20.0595 14.3792 20.2674 14.0732 20.6733 13.8165C20.7723 13.7573 20.9011 13.5401 20.8615 13.4907C20.5941 13.0761 20.9902 12.9281 21.0991 12.6714C21.1486 12.6714 21.1882 12.6714 21.2377 12.6714C21.2773 12.8096 21.3862 12.9577 21.3466 13.0761C21.109 13.8856 20.8912 14.705 20.5842 15.4848C20.3466 16.0969 19.9803 16.6497 19.6931 17.242C19.3763 17.8935 18.3169 19.0189 17.6733 19.315C17.6931 19.236 17.6931 19.1768 17.7228 19.1275C17.9209 18.7129 18.5149 18.5253 18.3763 17.8836C18.3466 17.7257 18.7327 17.4789 18.9704 17.2222Z" fill="#F6C538"/>
<path d="M17.8614 6.84735C18.1188 6.69927 18.6831 6.79799 18.3366 6.18594C18.2871 6.0971 18.5049 5.81082 18.6435 5.67262C18.7029 5.61339 18.9406 5.66275 19.0198 5.74172C19.1386 5.87005 19.2772 6.08723 19.2376 6.21556C19.1287 6.5512 18.9307 6.84735 18.7623 7.16324C18.7029 7.27183 18.6138 7.36067 18.5544 7.47913C18.1881 8.18002 17.8317 8.89078 17.4752 9.60154C17.4158 9.72988 17.396 9.88782 17.3366 10.0162C17.1782 10.3419 17.0099 10.6677 16.8218 11.0428C16.5346 10.7664 16.2574 10.6282 16.5346 10.2926C16.5742 10.2531 16.6039 10.1544 16.5742 10.1149C16.2475 9.62129 16.6831 9.4436 16.9406 9.18693C17.0297 9.09809 17.1683 8.9204 17.1386 8.8513C16.901 8.31823 17.2277 8.12079 17.6336 7.96285C17.6732 7.9431 17.7128 7.90362 17.6237 7.82464C17.7029 7.49888 17.7723 7.17311 17.8515 6.83747C17.8713 6.83747 17.8614 6.84735 17.8614 6.84735Z" fill="#F6C538"/>
<path d="M17.8711 6.83749C17.2177 7.26197 17.2078 8.08132 16.7721 8.64401C16.4751 9.03887 16.3167 9.53246 16.089 9.97668C15.3959 9.70028 15.3662 9.44361 15.9405 8.95003C15.6929 8.47619 15.881 8.17017 16.3464 7.96286C16.4256 7.92337 16.5246 7.76543 16.5048 7.7062C16.2672 7.19287 16.6434 6.97569 16.9702 6.7289C17.0692 6.6598 17.2177 6.50185 17.1979 6.45249C16.9207 5.83058 17.4256 5.67263 17.782 5.46533C17.8018 5.4061 17.8216 5.37648 17.8216 5.34687C17.8216 5.1593 17.8117 4.97174 17.8117 4.78418C17.9306 4.79405 18.1088 4.77431 18.1583 4.83354C18.2969 5.03097 18.4949 5.27776 18.4553 5.4752C18.4058 5.76148 18.1583 6.00827 18.0197 6.28468C17.9405 6.46237 17.9108 6.6598 17.8612 6.84736L17.8711 6.83749Z" fill="#F6C538"/>
<path d="M10.7719 19.9764C10.7125 20.3318 10.663 20.5687 10.663 20.7957C10.663 20.8451 10.8214 20.9339 10.9204 20.9438C10.9699 20.9438 11.0788 20.8056 11.0689 20.7365C11.0491 20.0751 11.059 20.0652 11.7323 20.1047C11.7917 20.1047 11.861 20.1244 11.9402 20.1343C11.9105 20.3515 11.861 20.5489 11.8709 20.7464C11.8709 20.8155 12.0095 20.8846 12.0887 20.9537C12.158 20.8747 12.2768 20.7957 12.2768 20.7167C12.2669 20.1442 12.2867 20.1047 12.8808 20.1146C12.9699 20.1146 13.0689 20.1343 13.158 20.1442C13.1382 20.3614 13.0788 20.5489 13.1085 20.7365C13.1184 20.8155 13.3065 20.8747 13.4155 20.9438C13.4353 20.8352 13.5145 20.6871 13.465 20.6279C13.2669 20.3614 13.4353 20.2133 13.6432 20.1442C13.9204 20.0455 14.2273 20.0257 14.5343 19.9665C14.4452 20.2923 14.4551 20.618 14.2966 20.7858C14.1184 20.9833 13.8016 21.1412 13.5343 21.1708C12.8313 21.2597 12.1184 21.2893 11.4155 21.2893C10.9501 21.2893 10.465 21.2399 10.0293 21.1017C9.861 21.0524 9.73229 20.6773 9.72239 20.4502C9.71249 20.3021 9.92041 20.0652 10.0887 20.006C10.2966 19.9171 10.5541 19.9764 10.7719 19.9764Z" fill="#F6C538"/>
<path d="M15.3956 6.84712C15.6531 6.69905 16.2075 6.79777 15.8808 6.17585C15.8313 6.07713 16.1481 5.78098 16.3065 5.58355C16.3758 5.50458 16.5045 5.48483 16.5936 5.43548C16.4055 4.9024 16.6332 4.40882 17.1481 4.25087C17.257 4.22126 17.455 4.27062 17.5342 4.34959C17.5936 4.41869 17.5738 4.60625 17.5243 4.71484C17.2669 5.30714 16.9996 5.89944 16.7125 6.472C16.4055 7.08404 16.059 7.68622 15.7323 8.29826C15.5837 8.58454 15.4253 8.86095 15.2174 9.24594C15.0095 8.98928 14.7323 8.78197 14.6729 8.52531C14.6432 8.37723 14.9699 8.16006 15.1382 7.96262C15.1976 7.89352 15.3065 7.76519 15.2966 7.74545C14.9501 7.39007 15.3857 7.12353 15.4055 6.80764L15.3956 6.84712Z" fill="#F6C538"/>
<path d="M15.4058 6.82747C15.0593 7.3408 14.7128 7.84426 14.3662 8.35758C13.8415 8.02195 13.8217 7.14337 14.3563 6.80773C14.6138 6.64978 14.8217 6.58068 14.6534 6.19569C14.6039 6.06736 14.891 5.78108 15.0494 5.59352C15.1088 5.51454 15.2474 5.50467 15.386 5.44544C15.0395 4.9025 15.3266 4.60635 15.7425 4.33981C15.8316 4.28058 15.8712 4.12264 15.9108 3.99431C15.9504 3.8561 15.9405 3.7179 15.9603 3.56982C16.1385 3.60931 16.3464 3.59944 16.4949 3.68828C16.5939 3.74751 16.6732 3.94495 16.6633 4.07328C16.6633 4.21148 16.5543 4.33981 16.4949 4.46815C16.188 5.05057 15.8613 5.633 15.5642 6.2253C15.4751 6.41286 15.4454 6.63004 15.3959 6.83735C15.3959 6.84722 15.4058 6.82747 15.4058 6.82747Z" fill="#F6C538"/>
<path d="M5.33635 18.5255C5.15813 18.3576 5.00961 18.2589 4.9007 18.1207C4.68288 17.8641 4.65318 17.6074 5.02941 17.4593C5.24724 17.3705 5.22743 17.2619 5.23734 17.025C5.24724 16.7486 5.49476 16.4425 5.71258 16.2254C5.871 16.0773 6.02942 16.0773 5.94031 15.7614C5.8908 15.564 6.12843 15.2283 6.33635 15.0506C6.50466 14.9025 6.53437 14.8532 6.52446 14.6163C6.51456 14.3596 6.79179 14.0931 6.97001 13.8463C6.97991 13.8364 7.27694 13.9549 7.33635 14.0635C7.40565 14.1918 7.41555 14.409 7.35615 14.5373C7.00961 15.2481 6.64328 15.9489 6.27694 16.6498C6.22744 16.7486 6.14823 16.8275 6.09872 16.9262C5.8512 17.4396 5.60367 17.943 5.33635 18.5255Z" fill="#F6C538"/>
<path d="M15.8615 3.24377C15.0595 4.81337 14.3367 6.22502 13.5842 7.67615C13.3466 7.52808 13.1981 7.45898 13.0793 7.36026C12.812 7.14308 12.8516 6.92591 13.1387 6.7877C13.406 6.66924 13.5842 6.61001 13.4258 6.22502C13.3664 6.08681 13.6634 5.74131 13.8615 5.58336C14.0397 5.44516 14.0991 5.41554 14.0496 5.14901C14.01 4.92196 14.2377 4.60606 14.4258 4.39876C14.5842 4.22107 14.7724 4.17171 14.604 3.85582C14.5347 3.73736 14.7228 3.33262 14.8912 3.26352C15.1387 3.1648 15.4555 3.24377 15.8615 3.24377Z" fill="#F6C538"/>
<path d="M12.9006 5.43551C12.6828 4.96167 12.7719 4.65565 13.1976 4.37924C13.3857 4.26078 13.5937 4.16206 13.3659 3.9054C13.3362 3.87579 13.3065 3.79681 13.3164 3.77707C13.4451 3.58951 13.5441 3.3131 13.7224 3.25387C14.0194 3.14528 14.2273 2.55298 14.7026 3.06631C14.4748 3.53028 14.2471 4.02386 14.0095 4.50757C13.663 5.20846 13.3263 5.89948 12.9699 6.59049C12.8907 6.74844 12.7224 7.0051 12.6333 6.98536C12.3956 6.94587 12.3362 6.75831 12.2669 6.47203C12.1085 5.85012 12.4253 5.64281 12.9006 5.43551Z" fill="#F6C538"/>
<path d="M12.7822 2.62206C12.9307 2.62206 13.0693 2.61219 13.2179 2.62206C13.5347 2.64181 13.6238 2.79975 13.4852 3.08603C13.2872 3.4809 13.0891 3.86589 12.8911 4.26076C12.5347 4.96165 12.1783 5.66254 11.7723 6.45227C11.5149 6.26471 11.307 6.12651 11.1089 5.97843C11.2773 5.77113 11.4357 5.56382 11.6337 5.31703C11.3565 4.92216 11.6832 4.62601 11.9802 4.35948C12.1882 4.18179 12.2872 4.04358 12.2476 3.74743C12.2179 3.57961 12.406 3.36244 12.5149 3.18475C12.6139 3.03667 12.7426 2.89847 12.8614 2.76027C12.8218 2.72078 12.802 2.67142 12.7822 2.62206Z" fill="#F6C538"/>
<path d="M11.5347 2.59229C11.8021 2.59229 12.0694 2.59229 12.3961 2.59229C12.3466 2.78972 12.3367 2.95754 12.2674 3.09574C11.9803 3.64855 11.6635 4.18162 11.3862 4.72457C11.2476 5.00097 11.1585 5.29712 11.0199 5.57353C10.9605 5.68212 10.8219 5.75122 10.713 5.84006C10.6041 5.71173 10.4654 5.60314 10.406 5.46494C10.1783 4.93187 10.3664 4.55675 10.8714 4.30008C10.9407 4.2606 11.0199 4.08291 10.9803 4.02368C10.7229 3.58932 11.0694 3.42151 11.307 3.19446C11.4357 3.076 11.5149 2.91805 11.614 2.76998C11.5942 2.71075 11.5644 2.65152 11.5347 2.59229Z" fill="#F6C538"/>
<path d="M7.53428 15.2383C7.60358 15.6134 7.68279 15.9984 7.7125 16.3735C7.7224 16.4624 7.52438 16.6203 7.40556 16.6401C7.23725 16.6697 7.05903 16.6006 6.8016 16.5611C6.91051 17.5384 6.92042 18.4959 5.97982 19.2659C5.84121 19.108 5.70259 18.95 5.55408 18.7822C5.7422 18.565 6.14814 18.4861 5.83131 18.1109C5.7818 18.0517 6.03923 17.6865 6.18774 17.4989C6.25705 17.41 6.40556 17.3804 6.51447 17.3311C6.32635 16.7486 6.49467 16.4229 7.06893 16.1563C7.16794 16.107 7.24715 15.949 7.26695 15.8207C7.29665 15.6331 7.27685 15.4357 7.27685 15.2383C7.37586 15.2383 7.45507 15.2383 7.53428 15.2383Z" fill="#F6C538"/>
<path d="M11.1678 2.74053C10.742 3.57962 10.3064 4.41871 9.82123 5.35652C9.57371 5.19858 9.35588 5.06037 9.13806 4.92217C9.28658 4.73461 9.45489 4.54705 9.59351 4.34961C9.66281 4.2509 9.77172 4.10282 9.74202 4.03372C9.5242 3.56975 9.79153 3.36245 10.1381 3.16501C10.2074 3.12553 10.3163 3.0663 10.3163 3.01694C10.3361 2.39502 10.7717 2.72079 11.0292 2.62207C11.0787 2.66156 11.1282 2.70104 11.1678 2.74053Z" fill="#F6C538"/>
<path d="M9.82136 2.96741C9.54414 3.51035 9.29661 4.08291 8.96988 4.60611C8.70255 5.03059 8.44513 4.64559 8.1283 4.50739C8.37582 4.30996 8.69265 4.16188 8.39562 3.8065C8.34612 3.75714 8.52434 3.42151 8.66295 3.33266C8.98968 3.12536 9.36592 2.98715 9.72236 2.81934C9.76196 2.85882 9.79166 2.91805 9.82136 2.96741Z" fill="#F6C538"/>
<path d="M17.901 18.1797C17.7228 19.3248 16.9307 20.2034 15.8911 20.3712C16.0495 19.8875 16.5446 19.6999 16.7228 19.2162C16.8713 18.7917 17.4753 18.5252 17.901 18.1797Z" fill="#F6C538"/>
<path d="M16.0989 19.7594C15.792 20.095 15.4851 20.4405 15.1485 20.7465C15.089 20.7959 14.8316 20.7367 14.7623 20.6577C14.6831 20.5689 14.6633 20.2925 14.7227 20.253C15.0989 19.9864 15.5148 19.7594 15.9108 19.5225C15.9801 19.5916 16.0395 19.6804 16.0989 19.7594Z" fill="#F6C538"/>
<path d="M7.06898 19.9762C6.83136 19.7591 6.62344 19.5616 6.37592 19.3346C6.65314 19.0878 6.61354 18.4955 7.1878 18.6929C7.57393 18.8213 7.54423 19.2161 7.06898 19.9762Z" fill="#F6C538"/>
<path d="M9.66296 19.9469C9.55405 20.2134 9.49464 20.4898 9.33623 20.6576C9.23722 20.7662 8.95009 20.7563 8.76197 20.707C8.57385 20.6576 8.35603 20.5589 8.50454 20.2529C8.72236 19.8185 9.0788 19.71 9.66296 19.9469Z" fill="#F6C538"/>
<path d="M8.69288 19.6999C8.43545 19.9862 8.26714 20.2724 8.01961 20.3909C7.8909 20.4501 7.61367 20.2033 7.41565 20.0947C7.54436 19.7591 8.33644 19.8874 7.84139 19.2754C8.07902 19.3939 8.31664 19.5123 8.69288 19.6999Z" fill="#F6C538"/>
<path d="M8.38593 3.23389C8.20771 3.6485 8.0988 3.93477 7.96018 4.19144C7.92058 4.27041 7.76216 4.35926 7.70276 4.33951C7.55424 4.27041 7.40573 4.15195 7.30672 4.02362C7.26711 3.98413 7.32652 3.79657 7.39583 3.75708C7.67306 3.58927 7.97009 3.45106 8.38593 3.23389Z" fill="#F6C538"/>
<path d="M13.8019 13.6784C14.0495 14.2312 14.3168 14.6853 14.4752 15.1788C14.6732 15.8008 14.6435 16.4227 14.099 16.8965C13.6831 17.2519 12.6435 17.3309 12.1287 17.0248C12.0198 16.9557 11.9307 16.7682 11.9208 16.63C11.7821 15.4947 11.6732 14.3496 11.5445 13.2144C11.5247 13.0663 11.5247 12.9084 11.4653 12.7899C10.8812 11.5757 10.2871 10.3812 9.70293 9.167C9.57422 8.91034 9.47521 8.63393 9.3465 8.34766C11.1584 8.3674 15.7227 12.3358 15.7029 13.8758C15.0792 13.8166 14.4554 13.7475 13.8019 13.6784ZM12.6336 16.5905C12.7524 16.3931 12.8614 16.245 12.9406 16.087C13.0891 15.8205 13.198 15.5244 13.3564 15.2677C13.6831 14.7346 13.5742 14.3891 12.8515 14.0633C12.8217 14.3496 12.8019 14.5964 12.7623 14.9222C12.3861 15.2282 12.2871 15.8402 12.6336 16.5905ZM13.6633 15.0999C13.5643 15.2973 13.3465 15.5638 13.396 15.6428C13.7029 16.0772 13.3861 16.1561 13.099 16.2845C13.0297 16.3141 13 16.4325 12.9604 16.5016C12.9901 16.551 13.0198 16.6102 13.0396 16.6596C13.297 16.551 13.594 16.5016 13.792 16.3338C14.0396 16.1265 13.9505 15.4651 13.6633 15.0999ZM12.3267 14.3595C12.3663 14.3694 12.4059 14.3891 12.4554 14.399C12.5445 14.2312 12.6732 14.0633 12.7128 13.8758C12.7227 13.8264 12.5049 13.7178 12.3267 13.5994C12.3267 13.9251 12.3267 14.1423 12.3267 14.3595Z" fill="#663605"/>
<path d="M5.29658 6.9165C5.29658 7.20278 5.30648 7.49893 5.27678 7.78521C5.26688 7.86418 5.12827 7.93329 5.03916 7.99252C4.75203 8.18995 4.4946 8.38738 4.66292 8.81187C4.69262 8.90071 4.57381 9.08827 4.4748 9.16725C4.18767 9.41404 3.86094 9.61147 4.07876 10.0754C4.10846 10.1347 3.97975 10.2926 3.90054 10.3518C3.58371 10.569 3.28668 10.7566 3.4847 11.2107C3.5045 11.26 3.36589 11.3884 3.30648 11.4772C3.21738 11.4081 3.08866 11.3588 3.03916 11.2699C2.99955 11.2008 3.04906 11.0725 3.08866 10.9935C3.57381 10.0656 4.05896 9.12776 4.56391 8.20969C4.80153 7.77534 4.81143 7.21265 5.30648 6.93625L5.29658 6.9165Z" fill="#663605"/>
<path d="M12.6339 16.5906C12.2873 15.8404 12.3764 15.2382 12.7725 14.9223C12.8022 14.6064 12.8319 14.3596 12.8616 14.0635C13.5844 14.3892 13.6834 14.7347 13.3665 15.2678C13.2081 15.5245 13.0893 15.8206 12.9507 16.0872C12.8616 16.2451 12.7527 16.3932 12.6339 16.5906Z" fill="#F6C538"/>
<path d="M13.6632 15.1001C13.9503 15.4653 14.0394 16.1268 13.7919 16.3341C13.5939 16.5019 13.2968 16.5611 13.0394 16.6598C13.0097 16.6105 12.98 16.5512 12.9602 16.5019C13.0097 16.4229 13.0295 16.3143 13.0988 16.2847C13.3859 16.1564 13.7028 16.0774 13.3958 15.643C13.3463 15.5641 13.5642 15.2975 13.6632 15.1001Z" fill="#F6C538"/>
<path d="M12.3268 14.3596C12.3268 14.1424 12.3268 13.9253 12.3268 13.6094C12.4951 13.7278 12.7228 13.8364 12.7129 13.8858C12.6634 14.0733 12.5446 14.2313 12.4555 14.409C12.406 14.3892 12.3664 14.3695 12.3268 14.3596Z" fill="#F6C538"/>
</g>
<defs>
<clipPath id="clip0">
<rect width="20" height="20" fill="white" transform="translate(2 2)"/>
</clipPath>
</defs>
</svg>
