<svg width="24" height="24" viewBox="0 0 24 24" fill="none" xmlns="http://www.w3.org/2000/svg">
<path d="M12 24C18.6274 24 24 18.6274 24 12C24 5.37258 18.6274 0 12 0C5.37258 0 0 5.37258 0 12C0 18.6274 5.37258 24 12 24Z" fill="#F5F5F5"/>
<path d="M12 0C5.37234 0 0 5.37281 0 12C0 18.6272 5.37234 24 12 24C18.6277 24 24 18.6277 24 12C24 5.37234 18.6272 0 12 0ZM19.6191 7.21875C19.8947 6.26531 19.7808 5.03578 19.6781 3.95578C20.2508 4.5015 20.764 5.10645 21.2091 5.76047C21.2831 6.53437 21.1622 7.47609 20.9991 7.95891C20.6733 8.93297 19.35 8.14922 19.6191 7.22016V7.21875ZM15.9792 6.67969C16.2239 5.49375 16.1827 2.96672 16.0181 1.63594C16.5859 1.85482 17.1347 2.12025 17.6588 2.42953C18.1275 3.99375 17.7563 6.32016 17.5181 7.21969C17.2584 8.2125 15.7078 7.99781 15.9792 6.67969ZM10.5417 0.991875C11.5169 0.862201 12.5049 0.861255 13.4803 0.989063C13.5848 2.40234 13.8169 5.57625 13.2802 7.27359C12.8114 8.75812 11.2392 8.84531 10.7419 7.27359C10.2038 5.57766 10.4358 2.40656 10.5403 0.992344L10.5417 0.991875ZM6.35859 2.445C6.88244 2.13344 7.43119 1.86581 7.99922 1.64484C7.83609 2.9775 7.79578 5.49656 8.03953 6.68016C8.31094 7.99781 6.76031 8.2125 6.49969 7.22016C6.26484 6.32578 5.89688 4.00781 6.35719 2.445H6.35859ZM2.80875 5.79656C3.2527 5.13798 3.76577 4.52874 4.33922 3.97922C4.23703 5.05359 4.12641 6.27328 4.40016 7.22016C4.66828 8.14922 3.34594 8.93297 3.02016 7.96031C2.86078 7.48453 2.73984 6.56391 2.80734 5.79656H2.80875ZM18.9 16.9598C14.9489 16.9598 14.6203 13.4363 12.0094 13.3228C9.39937 13.4363 9.07078 16.9598 5.11875 16.9598C3.68016 16.9598 2.26687 16.0106 1.41328 15.3056C0.812835 13.3663 0.751744 11.3 1.23656 9.32859C1.80187 9.39422 2.77688 9.49828 4.06875 9.60094C4.07438 12.1519 4.63641 14.5528 5.71875 14.58C6.70312 14.6048 7.31672 12.2962 7.40063 9.80906C8.78906 9.87328 10.3416 9.91734 12.0084 9.92016C13.6753 9.92297 15.2278 9.87328 16.6162 9.80906C16.7002 12.2962 17.3123 14.6048 18.2986 14.58C19.3809 14.5528 19.9425 12.1519 19.9481 9.60094C21.24 9.49828 22.215 9.39422 22.7808 9.32859C23.2659 11.2996 23.2053 13.3655 22.6055 15.3047C21.7519 16.0106 20.3381 16.9598 18.9 16.9598Z" fill="url(#paint0_linear_103_332)"/>
<path d="M7.94857 19.3501H7.93966L7.50466 20.461H6.70779L6.27185 19.3501H6.26294V21.1252H5.4281V17.8857H6.35107L7.10107 19.794H7.10998L7.85998 17.8857H8.80076V21.1252H7.94857V19.3501Z" fill="white"/>
<path d="M10.979 21.1693C10.4556 21.1693 10.0362 21.0207 9.72091 20.7235C9.4056 20.4263 9.2481 20.02 9.24841 19.5047C9.24841 18.9844 9.39998 18.5771 9.7031 18.2827C10.0062 17.9883 10.4315 17.8411 10.979 17.8411C11.3962 17.8411 11.7512 17.9446 12.044 18.1514L11.7998 18.795C11.5542 18.6322 11.3101 18.5508 11.0676 18.5508C10.7808 18.5508 10.5575 18.633 10.3978 18.7974C10.2381 18.9618 10.1583 19.1975 10.1583 19.5047C10.1583 19.801 10.2417 20.0339 10.4086 20.2036C10.5754 20.3733 10.7951 20.4591 11.0676 20.461C11.3098 20.461 11.5539 20.3796 11.7998 20.2168L12.044 20.8603C11.7512 21.066 11.3962 21.1689 10.979 21.1693Z" fill="white"/>
<path d="M14.422 19.794H13.4906V21.1252H12.6028V17.8857H13.4906V19.1283H14.4225V17.8857H15.3093V21.1252H14.422V19.794Z" fill="white"/>
<path d="M17.4882 21.1693C16.9648 21.1693 16.5456 21.0207 16.2306 20.7235C15.9156 20.4263 15.7581 20.02 15.7581 19.5047C15.7581 18.9844 15.9096 18.5771 16.2127 18.2827C16.5159 17.9883 16.941 17.8411 17.4882 17.8411C17.9054 17.8411 18.2604 17.9446 18.5532 18.1514L18.309 18.795C18.0634 18.6322 17.8195 18.5508 17.5773 18.5508C17.2901 18.5508 17.0667 18.633 16.907 18.7974C16.7473 18.9618 16.6674 19.1975 16.6674 19.5047C16.6674 19.801 16.751 20.0339 16.9182 20.2036C17.0854 20.3733 17.3051 20.4591 17.5773 20.461C17.8198 20.461 18.0637 20.3796 18.309 20.2168L18.5532 20.8589C18.2604 21.0655 17.9054 21.1689 17.4882 21.1693Z" fill="white"/>
<path d="M23.5 12C23.5 18.3513 18.3513 23.5 12 23.5C5.64873 23.5 0.5 18.3513 0.5 12C0.5 5.64873 5.64873 0.5 12 0.5C18.3513 0.5 23.5 5.64873 23.5 12Z" stroke="black" stroke-opacity="0.097"/>
<defs>
<linearGradient id="paint0_linear_103_332" x1="23.9456" y1="23.6152" x2="-0.133126" y2="0.202967" gradientUnits="userSpaceOnUse">
<stop offset="0.16" stop-color="#00BACA"/>
<stop offset="0.27" stop-color="#289DD2"/>
<stop offset="0.47" stop-color="#7366E2"/>
<stop offset="0.65" stop-color="#AF3AEE"/>
<stop offset="0.81" stop-color="#DB1BF7"/>
<stop offset="0.93" stop-color="#F507FD"/>
<stop offset="1" stop-color="#FF00FF"/>
</linearGradient>
</defs>
</svg>
