<?xml version="1.0" encoding="utf-8"?>
<!-- Generator: Adobe Illustrator 24.0.0, SVG Export Plug-In . SVG Version: 6.00 Build 0)  -->
<svg version="1.1" id="图层_1" xmlns="http://www.w3.org/2000/svg" xmlns:xlink="http://www.w3.org/1999/xlink" x="0px" y="0px"
	 viewBox="0 0 1000 1000" style="enable-background:new 0 0 1000 1000;" xml:space="preserve">
<style type="text/css">
	.st0{fill:#FFE804;}
	.st1{fill:#040000;}
</style>
<rect x="0" y="0" class="st0" width="1000" height="1000"/>
<g>
	<path class="st1" d="M492.4,634.4c-6.6-16-19.2-28.7-35.2-35.3c-8.3-3.5-17.2-5.2-26.2-5.2c-9-0.1-18,1.7-26.3,5.2
		c-16,6.6-28.8,19.3-35.3,35.3c-6.9,16.7-6.9,35.5,0,52.2c6.6,16,19.3,28.8,35.3,35.3c8.3,3.5,17.3,5.2,26.3,5.2
		c17.7,0.1,34.7-6.8,47.3-19.3c6-6.1,10.8-13.3,14.1-21.2C499.3,669.9,499.3,651.1,492.4,634.4 M462.1,675.7
		c-1.6,4.5-4,8.6-7.2,12.2c-3,3.4-6.7,6.1-10.8,8c-8.5,3.9-18.4,3.9-26.9,0c-4.1-1.9-7.8-4.6-10.8-8c-3.1-3.6-5.5-7.7-7.1-12.2
		c-3.5-9.9-3.5-20.6,0-30.4c1.6-4.5,4-8.6,7.1-12.2c3-3.4,6.7-6.1,10.8-8c8.5-3.9,18.4-3.9,26.9,0c4.1,1.9,7.8,4.6,10.8,8
		c3.1,3.6,5.6,7.7,7.2,12.2C465.6,655.1,465.6,665.8,462.1,675.7"/>
	<path class="st1" d="M346.6,634.5c-3.3-8-8.2-15.2-14.3-21.3c-6.1-6.1-13.4-10.9-21.4-14.2c-8.3-3.5-17.2-5.3-26.2-5.2h-54.3v133.5
		h54.4c9,0.1,17.9-1.7,26.2-5.1c16.1-6.6,28.9-19.3,35.7-35.3c3.5-8.2,5.3-17,5.2-25.9C352,651.8,350.2,642.9,346.6,634.5
		 M315.4,676c-1.6,4.5-4,8.6-7,12.2c-2.9,3.4-6.5,6.1-10.6,8.1c-4,2-8.5,3-13,3h-21.5v-77.6h21.5c4.5,0,9,1,13,3.1
		c4.1,2,7.7,4.8,10.6,8.3c3.1,3.7,5.5,7.9,7,12.4c1.7,4.9,2.6,10.1,2.6,15.4c0,5.1-0.8,10.2-2.6,15.1"/>
	<path class="st1" d="M776.5,634.4c-6.6-16-19.2-28.7-35.2-35.3c-8.3-3.5-17.2-5.2-26.2-5.2c-9-0.1-18,1.7-26.3,5.2
		c-16,6.6-28.8,19.3-35.3,35.3c-10.5,25.1-5,54,14.1,73.4c6.1,6,13.3,10.8,21.2,14.1c8.3,3.5,17.3,5.2,26.3,5.2
		c17.7,0.1,34.7-6.8,47.3-19.3c6-6.1,10.8-13.3,14.1-21.2C783.3,669.9,783.3,651.1,776.5,634.4 M746.2,675.7
		c-1.6,4.5-4,8.6-7.2,12.2c-3,3.4-6.7,6.1-10.8,8c-8.5,3.9-18.4,3.9-26.9,0c-4.1-1.9-7.8-4.6-10.8-8c-3.1-3.6-5.6-7.7-7.2-12.2
		c-3.5-9.9-3.5-20.6,0-30.4c1.6-4.5,4-8.6,7.2-12.2c3-3.4,6.7-6.1,10.8-8c8.5-3.9,18.4-3.9,26.9,0c4.1,1.9,7.8,4.6,10.8,8
		c3.1,3.6,5.6,7.7,7.2,12.2C749.7,655.1,749.7,665.8,746.2,675.7"/>
	<path class="st1" d="M630.7,634.5c-3.3-8-8.2-15.2-14.3-21.3c-6.2-6.1-13.4-10.9-21.4-14.2c-8.3-3.5-17.2-5.3-26.2-5.2h-54.4v133.5
		h54.4c17.8,0.1,34.9-6.8,47.6-19.3c6.1-6.1,11-13.3,14.3-21.2c3.5-8.2,5.3-17,5.2-25.9C636,651.8,634.2,642.9,630.7,634.5
		 M599.4,676c-1.6,4.5-4,8.6-7.1,12.2c-2.9,3.4-6.5,6.1-10.6,8.1c-4,2-8.4,3-12.9,3h-21.6v-77.6h21.6c4.5,0,8.9,1,12.9,3.1
		c4.1,2,7.7,4.9,10.7,8.4c3.1,3.7,5.5,7.9,7.1,12.4c1.7,4.9,2.6,10.1,2.6,15.4C602,666.1,601.2,671.2,599.4,676"/>
	<path class="st1" d="M563.1,289.7c2.2-3.4,4.1-7.1,5.6-10.9c2.6-6.3,4.2-13,4.7-19.8c1.4-13-1.7-23.6-9.1-26.8
		c-7.4-3.2-16.9,1.8-25.1,11.5c0-0.6,0-1.3,0-1.9c0-27.2-12.4-49.2-27.6-49.2s-27.6,22-27.6,49.2c0,1.9,0,3.8,0.2,5.7
		c-9.3-12.7-21.5-19.2-30.2-15c-10.9,5.2-12.2,25.2-3,44.6c2.1,4,4.4,7.9,6.9,11.6c-118.4,18.8-185.8,114.5-194.3,271.6h66.2
		c7-129.3,67.3-202.4,176.2-200.1c100.1,2,176.5,67.5,175.5,200.1h66.2C749,404.1,671.8,314.1,563.1,289.7"/>
	<path class="st1" d="M458.3,449.1c-7.3,0-13.2,5.9-13.2,13.2v32.5c0,7.3,5.9,13.2,13.2,13.2c7.3,0,13.2-5.9,13.2-13.2v-32.5
		C471.6,455.1,465.6,449.1,458.3,449.1"/>
	<path class="st1" d="M561,449.1c-7.3,0-13.2,5.9-13.2,13.2v32.5c0,7.3,5.9,13.2,13.2,13.3c7.3,0,13.2-5.9,13.3-13.2c0,0,0,0,0,0
		v-32.5C574.2,455.1,568.3,449.1,561,449.1"/>
</g>
</svg>
