<svg width="24" height="24" viewBox="0 0 24 24" fill="none" xmlns="http://www.w3.org/2000/svg">
<path fill-rule="evenodd" clip-rule="evenodd" d="M0 12C0 5.37259 5.37259 0 12 0C18.6274 0 24 5.37259 24 12C24 18.6274 18.6274 24 12 24C5.37259 24 0 18.6274 0 12Z" fill="#EBEAEA"/>
<path d="M23.5 12C23.5 18.3513 18.3513 23.5 12 23.5C5.64873 23.5 0.5 18.3513 0.5 12C0.5 5.64873 5.64873 0.5 12 0.5C18.3513 0.5 23.5 5.64873 23.5 12Z" stroke="black" stroke-opacity="0.097"/>
<path d="M19.4174 14.7824C19.0395 14.542 18.5586 14.5763 18.1807 14.7481C18.1807 14.7137 18.1464 14.645 18.112 14.6107L16.6006 12L18.112 9.38931C18.1464 9.35496 18.1464 9.28626 18.1807 9.25191C18.5586 9.45802 19.0052 9.45801 19.4174 9.21756C20.0357 8.87405 20.2418 8.08397 19.8983 7.46565C19.5548 6.84733 18.7647 6.64122 18.1464 6.98473C17.7685 7.22519 17.5281 7.60305 17.4937 8.04962H14.3334L12.822 5.43893C12.7876 5.40458 12.7533 5.37023 12.7533 5.33588C13.0968 5.09542 13.3372 4.71756 13.3372 4.27099C13.3372 3.54962 12.7533 3 12.0662 3C11.3792 3 10.7953 3.58397 10.7953 4.27099C10.7953 4.71756 11.0357 5.12977 11.3792 5.33588C11.3449 5.37023 11.3105 5.40458 11.3105 5.43893L9.79907 8.04962H6.60441C6.57006 7.6374 6.36395 7.22519 5.95174 6.98473C5.33342 6.64122 4.54334 6.84733 4.19983 7.46565C3.85632 8.08397 4.06243 8.87405 4.68075 9.21756C5.05861 9.45801 5.53953 9.42366 5.91739 9.25191C5.91739 9.28626 5.95174 9.35496 5.98609 9.38931L7.49754 12L5.95174 14.6107C5.91739 14.645 5.91739 14.7137 5.88304 14.7481C5.50518 14.542 5.05861 14.542 4.6464 14.7824C4.02808 15.126 3.82197 15.916 4.16548 16.5344C4.50899 17.1527 5.29907 17.3588 5.91739 17.0153C6.29525 16.7748 6.53571 16.3969 6.57006 15.9504H9.73037L11.2418 18.5611C11.2762 18.5954 11.3105 18.6298 11.3105 18.6641C10.967 18.9046 10.7265 19.2824 10.7265 19.729C10.7265 20.4504 11.3105 21 11.9975 21C12.6846 21 13.2685 20.416 13.2685 19.729C13.2685 19.2824 13.0281 18.8702 12.6846 18.6641C12.7189 18.6298 12.7533 18.5954 12.7533 18.5611L14.2647 15.9504H17.425C17.4594 16.3626 17.6655 16.7748 18.0777 17.0153C18.696 17.3588 19.4861 17.1527 19.8296 16.5344C20.2418 15.916 20.0357 15.126 19.4174 14.7824Z" fill="url(#paint0_linear)"/>
<path d="M13.6808 11.1413C13.6808 10.4199 13.0968 9.83594 12.3754 9.83594H10.7266C10.5548 9.83594 10.4174 9.97334 10.4174 10.1451V13.855C10.4174 14.0268 10.5548 14.1642 10.7266 14.1642H12.3754C13.0968 14.1642 13.6808 13.5802 13.6808 12.8588C13.6808 12.5497 13.5777 12.2405 13.3716 12.0344C13.5434 11.7596 13.6808 11.4848 13.6808 11.1413V11.1413Z" fill="url(#paint1_linear)"/>
<defs>
<linearGradient id="paint0_linear" x1="9.52117" y1="6.06893" x2="14.5007" y2="17.8318" gradientUnits="userSpaceOnUse">
<stop stop-color="#596378"/>
<stop offset="1" stop-color="#465168"/>
</linearGradient>
<linearGradient id="paint1_linear" x1="10.5174" y1="10.3378" x2="13.1016" y2="13.697" gradientUnits="userSpaceOnUse">
<stop stop-color="#FFB648"/>
<stop offset="0.961" stop-color="#FF8E1E"/>
</linearGradient>
</defs>
</svg>
