<svg width="24" height="24" viewBox="0 0 24 24" fill="none" xmlns="http://www.w3.org/2000/svg">
<path d="M12 24C18.6274 24 24 18.6274 24 12C24 5.37258 18.6274 0 12 0C5.37258 0 0 5.37258 0 12C0 18.6274 5.37258 24 12 24Z" fill="#003057"/>
<path d="M9.52024 19C9.37992 18.9999 9.24167 18.967 9.11687 18.9039C8.99206 18.8408 8.88428 18.7493 8.80243 18.6371L5.29028 13.844H3V12.0993H5.74361C5.88381 12.0991 6.02203 12.1319 6.14685 12.1948C6.27167 12.2577 6.37948 12.349 6.46139 12.4611L9.33134 16.376L13.71 6.52223C13.779 6.36687 13.8924 6.2347 14.0364 6.14193C14.1805 6.04917 14.349 5.99984 14.521 6H20V7.74466H15.1007L10.3324 18.4766C10.2696 18.6181 10.1697 18.7407 10.0429 18.8316C9.91616 18.9226 9.76716 18.9787 9.61109 18.9942C9.57964 18.9959 9.54812 18.9959 9.51667 18.9942" fill="#00C389"/>
<path d="M12 24C18.6274 24 24 18.6274 24 12C24 5.37258 18.6274 0 12 0C5.37258 0 0 5.37258 0 12C0 18.6274 5.37258 24 12 24Z" fill="#DCD1C6"/>
<path d="M23.5 12C23.5 18.3513 18.3513 23.5 12 23.5C5.64873 23.5 0.5 18.3513 0.5 12C0.5 5.64873 5.64873 0.5 12 0.5C18.3513 0.5 23.5 5.64873 23.5 12Z" stroke="white" stroke-opacity="0.3"/>
<path d="M13.5949 4.3042L16.7847 8.70857L18.9616 7.29144L13.5949 4.3042Z" fill="#525252"/>
<path d="M19.468 8.20312V14.7854L17.2911 9.6709L19.468 8.20312Z" fill="#525252"/>
<path d="M16.6834 10.8862L19.0628 16.5568L13.0377 19.9492L16.6834 10.8862Z" fill="#617835"/>
<path d="M13.6455 15.5947L11.9245 20.0001L10.557 16.7596L13.6455 15.5947Z" fill="#617835"/>
<path d="M7.72169 12.1514L11.1141 19.7972L5.08899 16.4048L7.72169 12.1514Z" fill="#617835"/>
<path d="M4.53186 8.50586L4.58251 15.0375L7.11391 11.0383L4.53186 8.50586Z" fill="#617835"/>
<path d="M10.8103 4L7.67107 10.1264L4.93707 7.34178L10.8103 4Z" fill="#525252"/>
<path d="M13.0884 5.51856L12.0764 4.05078L11.0128 6.22764L13.0884 5.51856Z" fill="#525252"/>
<path d="M15.0296 10.3455C15.3676 9.06274 13.6796 8.52318 13.6796 8.52318L13.9329 7.44302L13.3086 7.27453L13.0212 8.37123L12.431 8.20275L12.6842 7.10605L12.0434 6.9541L11.7054 8.08491L10.3554 7.74691L10.1528 8.43842C11.1658 8.5056 10.9632 9.0462 10.9632 9.0462C10.9632 9.0462 10.6252 10.6328 10.3389 11.5776C10.0515 12.5224 9.32592 12.2019 9.32592 12.2019L8.98792 12.9441L10.4392 13.3327L10.1012 14.447L10.8268 14.6331L11.1472 13.4857L11.7209 13.6377L11.3663 14.7685L12.0754 14.9204L12.3452 13.8237C13.1049 13.9757 14.2182 14.1276 14.7588 12.9627C15.2994 11.7978 14.2192 11.191 14.2192 11.191C14.9789 10.9026 15.0296 10.3455 15.0296 10.3455ZM12.1943 8.97901C12.1943 8.97901 13.6124 9.08031 13.4264 10.2111C13.2403 11.3419 11.8563 10.5657 11.8563 10.5657L12.1943 8.97901ZM13.4264 12.4045C13.1731 13.2821 11.4521 12.6412 11.4521 12.6412L11.7901 11.0546C12.4641 11.1559 13.6796 11.527 13.4264 12.4045Z" fill="#525252"/>
</svg>
