<svg width="24" height="24" viewBox="0 0 24 24" fill="none" xmlns="http://www.w3.org/2000/svg">
<path d="M12 24C18.6274 24 24 18.6274 24 12C24 5.37258 18.6274 0 12 0C5.3726 0 1.52588e-05 5.37258 1.52588e-05 12C1.52588e-05 18.6274 5.3726 24 12 24Z" fill="#0041FF"/>
<path d="M12 24C18.6274 24 24 18.6274 24 12C24 5.37258 18.6274 0 12 0C5.3726 0 1.52588e-05 5.37258 1.52588e-05 12C1.52588e-05 18.6274 5.3726 24 12 24Z" fill="url(#paint0_linear)"/>
<path d="M23.5 12C23.5 18.3513 18.3513 23.5 12 23.5C5.64874 23.5 0.500015 18.3513 0.500015 12C0.500015 5.64873 5.64874 0.5 12 0.5C18.3513 0.5 23.5 5.64873 23.5 12Z" stroke="white" stroke-opacity="0.3"/>
<path d="M13.6116 6.12207L12.0891 7.54692L12.3982 7.83618C12.4814 7.91401 12.5943 7.95773 12.712 7.95773C12.8297 7.95773 12.9425 7.91401 13.0258 7.83618L14.5483 6.41134L14.2392 6.12207C14.1981 6.08338 14.1492 6.05268 14.0953 6.03173C14.0415 6.01078 13.9837 6 13.9254 6C13.8671 6 13.8094 6.01078 13.7555 6.03173C13.7016 6.05268 13.6527 6.08338 13.6116 6.12207ZM9.76076 6.12207L9.45301 6.41134L10.9755 7.83618C11.0588 7.91401 11.1717 7.95773 11.2894 7.95773C11.407 7.95773 11.5199 7.91401 11.6032 7.83618L11.9109 7.54692L10.3884 6.12207C10.3473 6.08338 10.2984 6.05268 10.2445 6.03173C10.1906 6.01078 10.1329 6 10.0746 6C10.0163 6 9.9585 6.01078 9.90465 6.03173C9.85079 6.05268 9.80189 6.08338 9.76076 6.12207ZM15.0464 7.9865L12.1687 10.6783L12.7518 11.224C12.9092 11.3707 13.1222 11.4531 13.3444 11.4531C13.5665 11.4531 13.7795 11.3707 13.9369 11.224L16.8146 8.53218L16.2315 7.9865C16.1537 7.91355 16.0614 7.85567 15.9597 7.81618C15.858 7.77669 15.749 7.75636 15.6389 7.75636C15.5289 7.75636 15.4198 7.77669 15.3182 7.81618C15.2165 7.85567 15.1241 7.91355 15.0464 7.9865ZM7.76852 7.9865L7.18677 8.53218L10.0631 11.2227C10.2205 11.3698 10.4339 11.4524 10.6563 11.4524C10.8788 11.4524 11.0921 11.3698 11.2495 11.2227L11.8313 10.6796L8.95495 7.9865C8.87719 7.91336 8.78475 7.85532 8.68295 7.81572C8.58114 7.77612 8.47198 7.75573 8.36173 7.75573C8.25149 7.75573 8.14232 7.77612 8.04052 7.81572C7.93872 7.85532 7.84628 7.91336 7.76852 7.9865ZM11.6869 7.92334L11.3778 8.21387L12 8.79492L12.6222 8.21387L12.3145 7.92334C12.2734 7.88465 12.2245 7.85395 12.1706 7.833C12.1167 7.81205 12.059 7.80127 12.0007 7.80127C11.9424 7.80127 11.8846 7.81205 11.8308 7.833C11.7769 7.85395 11.728 7.88465 11.6869 7.92334ZM17.0616 10.6076L12.2807 15.0829L13.2485 15.9886C13.51 16.233 13.8643 16.3702 14.2338 16.3702C14.6033 16.3702 14.9577 16.233 15.2192 15.9886L20 11.5145L19.0322 10.6088C18.903 10.4874 18.7495 10.391 18.5804 10.3252C18.4113 10.2595 18.23 10.2256 18.0469 10.2256C17.8638 10.2256 17.6825 10.2595 17.5134 10.3252C17.3443 10.391 17.1908 10.4874 17.0616 10.6088V10.6076ZM4.96777 10.6076L4 11.5132L8.78083 15.9874C9.04227 16.2317 9.39666 16.369 9.76615 16.369C10.1357 16.369 10.49 16.2317 10.7515 15.9874L11.7206 15.0817L6.93842 10.6076C6.80924 10.4861 6.65569 10.3897 6.4866 10.324C6.31751 10.2582 6.13621 10.2244 5.9531 10.2244C5.76999 10.2244 5.58868 10.2582 5.41959 10.324C5.2505 10.3897 5.09695 10.4861 4.96777 10.6076ZM11.4061 11.3907L10.8257 11.9364L12 13.0366L13.1756 11.9377L12.5939 11.392C12.5161 11.3187 12.4236 11.2605 12.3217 11.2207C12.2197 11.181 12.1104 11.1606 12 11.1606C11.8896 11.1606 11.7803 11.181 11.6783 11.2207C11.5764 11.2605 11.4839 11.3187 11.4061 11.392V11.3907ZM11.0147 16.2665L10.0469 17.1722L12 19L13.9531 17.1722L12.9853 16.2665C12.8561 16.1451 12.7026 16.0487 12.5335 15.9829C12.3644 15.9172 12.1831 15.8833 12 15.8833C11.8169 15.8833 11.6356 15.9172 11.4665 15.9829C11.2974 16.0487 11.1439 16.1451 11.0147 16.2665Z" fill="white"/>
<defs>
<linearGradient id="paint0_linear" x1="2.14154" y1="12" x2="22.0491" y2="12" gradientUnits="userSpaceOnUse">
<stop stop-color="#7CB7FF"/>
<stop offset="1" stop-color="#BA6DF6"/>
</linearGradient>
</defs>
</svg>
