<svg width="24" height="24" viewBox="0 0 24 24" fill="none" xmlns="http://www.w3.org/2000/svg">
<path d="M12 24C18.6274 24 24 18.6274 24 12C24 5.37258 18.6274 0 12 0C5.37258 0 0 5.37258 0 12C0 18.6274 5.37258 24 12 24Z" fill="#49C1BF"/>
<path d="M23.5 12C23.5 18.3513 18.3513 23.5 12 23.5C5.64873 23.5 0.5 18.3513 0.5 12C0.5 5.64873 5.64873 0.5 12 0.5C18.3513 0.5 23.5 5.64873 23.5 12Z" stroke="black" stroke-opacity="0.097"/>
<g clip-path="url(#clip0)">
<path d="M16.9996 10.7856L14.9613 11.6844L9.55394 14.4064L14.9613 16.9775V12.7276L16.9996 11.8192V18.0977L14.9613 18.9965L6.99957 15.2281V13.2251L12.5108 10.5513L6.99957 7.93207V5.90023L9.07033 5.00146L16.9996 8.77627V10.7856Z" fill="#49C1BF"/>
<path d="M6.99957 5.90023L14.9613 9.67503L16.9996 8.77627L9.07033 5.00146L6.99957 5.90023Z" fill="#077A8F"/>
<path d="M14.9615 9.66585L16.9998 8.76709V10.7765L14.9615 11.6752V9.66585Z" fill="#298E97"/>
<path d="M6.99979 5.90137V7.93321L12.511 10.5525L6.99979 13.2263V15.2292L14.9615 18.9976V16.9818L9.55415 14.4075L14.9615 11.6855V9.67617L6.99979 5.90137Z" fill="white"/>
<path d="M14.9615 18.9829L16.9998 18.0842V11.8057L14.9615 12.7141V18.9829Z" fill="#298E97"/>
</g>
<defs>
<clipPath id="clip0">
<rect width="10" height="14" fill="white" transform="translate(7 5)"/>
</clipPath>
</defs>
</svg>
