<svg width="24" height="24" viewBox="0 0 24 24" fill="none" xmlns="http://www.w3.org/2000/svg">
<path d="M12 24C18.6274 24 24 18.6274 24 12C24 5.37258 18.6274 0 12 0C5.37258 0 0 5.37258 0 12C0 18.6274 5.37258 24 12 24Z" fill="#3782A8"/>
<path d="M23.5 12C23.5 18.3513 18.3513 23.5 12 23.5C5.64873 23.5 0.5 18.3513 0.5 12C0.5 5.64873 5.64873 0.5 12 0.5C18.3513 0.5 23.5 5.64873 23.5 12Z" stroke="white" stroke-opacity="0.3"/>
<path d="M12.2017 19C15.963 19 19.012 15.9509 19.012 12.1897C19.012 8.42847 15.963 5.37939 12.2017 5.37939C8.4405 5.37939 5.39142 8.42847 5.39142 12.1897C5.39142 15.9509 8.4405 19 12.2017 19Z" fill="white"/>
<path fill-rule="evenodd" clip-rule="evenodd" d="M4.16903 16.924C4.16903 16.924 3.73408 16.8405 3.7244 17.0984C3.71472 17.3563 4.15924 17.182 4.21823 17.1609C4.2373 17.145 4.2517 17.1242 4.25988 17.1007C4.26805 17.0773 4.26971 17.052 4.26466 17.0277C4.25961 17.0034 4.24804 16.9809 4.2312 16.9626C4.21436 16.9444 4.19287 16.931 4.16903 16.924Z" fill="#1A1818"/>
<path d="M4.17628 17.0666C4.16353 17.067 4.15091 17.064 4.1397 17.0579C3.87495 16.9134 3.75213 16.7691 3.76417 16.6169C3.78162 16.3981 4.07936 16.2865 4.11313 16.2746C4.12195 16.2715 4.13132 16.2701 4.14067 16.2706C4.15001 16.2711 4.15916 16.2734 4.16761 16.2775C4.17606 16.2815 4.18363 16.2872 4.18989 16.2941C4.19614 16.3011 4.20098 16.3092 4.20409 16.318C4.2104 16.3359 4.20938 16.3554 4.20125 16.3725C4.19312 16.3895 4.17856 16.4027 4.16075 16.409C4.09738 16.4315 3.91456 16.5205 3.90612 16.6284C3.89936 16.7148 4.00653 16.8229 4.2078 16.9323C4.22442 16.9414 4.23675 16.9567 4.24209 16.9748C4.24743 16.993 4.24535 17.0125 4.23629 17.0291C4.2304 17.04 4.22177 17.0492 4.21125 17.0558C4.20073 17.0624 4.18868 17.0661 4.17628 17.0666Z" fill="#1A1818"/>
<path fill-rule="evenodd" clip-rule="evenodd" d="M6.03502 16.903C6.03502 16.903 5.60005 16.8195 5.59048 17.0774C5.58092 17.3353 6.02522 17.161 6.08432 17.1398C6.10336 17.1238 6.11773 17.1031 6.12588 17.0796C6.13403 17.0562 6.13566 17.0309 6.1306 17.0066C6.12554 16.9823 6.11397 16.9599 6.09714 16.9416C6.08031 16.9234 6.05883 16.91 6.03502 16.903Z" fill="#1A1818"/>
<path d="M6.04288 17.0458C6.03012 17.0462 6.01749 17.0432 6.0063 17.0371C5.74154 16.8926 5.61873 16.7483 5.63089 16.596C5.64833 16.3772 5.94607 16.2656 5.97984 16.2536C5.98867 16.2505 5.99802 16.2491 6.00737 16.2496C6.01672 16.2501 6.02588 16.2524 6.03433 16.2565C6.04277 16.2605 6.05034 16.2662 6.0566 16.2731C6.06286 16.2801 6.06768 16.2882 6.0708 16.297C6.07394 16.3059 6.07531 16.3152 6.07483 16.3246C6.07436 16.3339 6.07204 16.3431 6.06801 16.3516C6.06399 16.36 6.05834 16.3676 6.05138 16.3739C6.04442 16.3801 6.03629 16.385 6.02746 16.3881C5.96409 16.4106 5.78127 16.4997 5.77283 16.6075C5.76608 16.694 5.87324 16.802 6.07451 16.9114C6.0911 16.9205 6.10341 16.9358 6.10873 16.954C6.11405 16.9721 6.11195 16.9916 6.10288 17.0082C6.097 17.0192 6.08838 17.0284 6.07786 17.035C6.06734 17.0416 6.05528 17.0453 6.04288 17.0458Z" fill="#1A1818"/>
<path d="M5.0441 13.1586C6.36072 13.1586 7.42804 12.8871 7.42804 12.5522C7.42804 12.2173 6.36072 11.9458 5.0441 11.9458C3.72748 11.9458 2.66016 12.2173 2.66016 12.5522C2.66016 12.8871 3.72748 13.1586 5.0441 13.1586Z" fill="#F7F8F9"/>
<path d="M5.9328 11.9897V13.1154C6.80925 13.0254 7.42814 12.8075 7.42814 12.5526C7.42814 12.2976 6.80925 12.0793 5.9328 11.9897Z" fill="#E0CCE3"/>
<path d="M7.42805 12.5527C7.42805 12.8876 6.3607 13.1591 5.04411 13.1591C3.72753 13.1591 2.66016 12.8876 2.66016 12.5527C2.66016 14.7502 3.41538 16.5422 5.04411 16.5422C6.61791 16.5422 7.42805 14.8704 7.42805 12.5527Z" fill="#FAB9AA"/>
<path d="M3.22871 14.0553C3.21148 14.0552 3.19481 14.0492 3.1816 14.0381C3.1684 14.027 3.15948 14.0117 3.15643 13.9947C3.12356 13.812 3.09711 13.6201 3.07764 13.4241C3.07667 13.4145 3.07762 13.4048 3.08041 13.3955C3.08321 13.3863 3.08779 13.3777 3.09392 13.3702C3.10005 13.3627 3.10759 13.3565 3.11611 13.352C3.12464 13.3474 3.13397 13.3446 3.14359 13.3436C3.15321 13.3427 3.16294 13.3436 3.1722 13.3464C3.18146 13.3492 3.19008 13.3538 3.19756 13.3599C3.20503 13.366 3.21122 13.3736 3.21578 13.3821C3.22033 13.3906 3.22316 13.4 3.22409 13.4096C3.243 13.6018 3.26911 13.7899 3.30119 13.9686C3.30463 13.9878 3.30033 14.0076 3.28921 14.0236C3.27809 14.0396 3.26106 14.0506 3.24187 14.0541C3.23753 14.0549 3.23313 14.0553 3.22871 14.0553Z" fill="white"/>
<path d="M3.27711 14.2962C3.27235 14.2962 3.2676 14.2957 3.26293 14.2947C3.25817 14.2937 3.2535 14.2923 3.24897 14.2906C3.2446 14.2887 3.24043 14.2864 3.23648 14.2837C3.23242 14.2811 3.22863 14.2781 3.22521 14.2747C3.21144 14.2609 3.20369 14.2422 3.20361 14.2227C3.20361 14.2178 3.2041 14.2129 3.20507 14.2082C3.20609 14.2035 3.20749 14.1989 3.20923 14.1944C3.21119 14.19 3.21349 14.1858 3.2161 14.1817C3.21878 14.1777 3.22182 14.1739 3.22521 14.1704C3.22863 14.167 3.23242 14.1638 3.23648 14.1611C3.24044 14.1585 3.24462 14.1563 3.24897 14.1545C3.25347 14.1526 3.25815 14.1512 3.26293 14.1503C3.27477 14.148 3.28699 14.1486 3.29854 14.1521C3.31008 14.1556 3.32059 14.1619 3.32912 14.1704C3.33258 14.1739 3.33571 14.1777 3.33847 14.1817C3.34102 14.1858 3.34323 14.19 3.34511 14.1944C3.34696 14.1988 3.34835 14.2035 3.34927 14.2082C3.35025 14.2129 3.35073 14.2178 3.35073 14.2227C3.35065 14.2422 3.3429 14.2609 3.32912 14.2747C3.31529 14.2884 3.2966 14.2961 3.27711 14.2962Z" fill="white"/>
<path d="M6.5074 13.0398C6.43052 15.0108 5.86927 16.4168 4.84851 16.5413C4.91234 16.5473 4.97739 16.5505 5.04414 16.5505C6.61794 16.5505 7.42809 14.8787 7.42809 12.561C7.42809 12.7557 7.06765 12.9288 6.5074 13.0398Z" fill="#F3A1A1"/>
<path d="M5.04449 16.6649C4.23322 16.6649 3.57258 16.238 3.1339 15.4301C2.74397 14.7119 2.53729 13.7169 2.53729 12.5528C2.53729 12.5202 2.55021 12.4891 2.5732 12.4661C2.59619 12.4431 2.62737 12.4302 2.65988 12.4302C2.69239 12.4302 2.72357 12.4431 2.74656 12.4661C2.76954 12.4891 2.78246 12.5202 2.78246 12.5528C2.78246 13.6762 2.97833 14.6306 3.34879 15.313C3.7475 16.0473 4.31776 16.4197 5.04382 16.4197C5.75738 16.4197 6.32112 16.0619 6.71916 15.3564C7.10245 14.6769 7.30518 13.7075 7.30518 12.5528C7.30518 12.5202 7.31809 12.4891 7.34108 12.4661C7.36407 12.4431 7.39525 12.4302 7.42776 12.4302C7.46027 12.4302 7.49146 12.4431 7.51445 12.4661C7.53744 12.4891 7.55036 12.5202 7.55036 12.5528C7.55036 13.7496 7.33647 14.7608 6.9327 15.4769C6.49459 16.2541 5.84135 16.6649 5.04449 16.6649Z" fill="#1A1818"/>
<path d="M5.04454 13.2818C3.83726 13.2818 2.5379 13.0536 2.5379 12.5528C2.5379 12.052 3.83726 11.8237 5.04454 11.8237C6.25182 11.8237 7.55108 12.0519 7.55108 12.5528C7.55108 13.0537 6.25137 13.2818 5.04454 13.2818ZM5.04454 12.069C4.48777 12.0612 3.93205 12.1196 3.38903 12.2428C2.89204 12.3692 2.78318 12.5095 2.78318 12.5528C2.78318 12.5962 2.89204 12.7363 3.38903 12.8628C3.93205 12.9861 4.48777 13.0444 5.04454 13.0366C5.60131 13.0444 6.15705 12.9861 6.70007 12.8628C7.19705 12.7364 7.3059 12.5962 7.3059 12.5528C7.3059 12.5095 7.19705 12.3692 6.70007 12.2428C6.15705 12.1196 5.60131 12.0612 5.04454 12.069Z" fill="#1A1818"/>
<path d="M3.11335 15.1677C3.11128 15.1678 3.10922 15.1678 3.10716 15.1677C2.93034 15.1465 2.76066 15.0853 2.61094 14.9889C2.46123 14.8925 2.33541 14.7632 2.24298 14.611C2.23908 14.6046 2.23647 14.5974 2.23533 14.59C2.23419 14.5825 2.23455 14.5749 2.23636 14.5676C2.23817 14.5603 2.24141 14.5534 2.24588 14.5473C2.25036 14.5412 2.25599 14.5361 2.26246 14.5322C2.2689 14.5283 2.27605 14.5257 2.28351 14.5246C2.29096 14.5234 2.29857 14.5238 2.30589 14.5256C2.31321 14.5274 2.32011 14.5307 2.32617 14.5351C2.33224 14.5396 2.33736 14.5452 2.34125 14.5517C2.42492 14.6876 2.53785 14.8032 2.67183 14.8899C2.80581 14.9767 2.95745 15.0325 3.11571 15.0532C3.13086 15.0543 3.14495 15.0614 3.15487 15.0729C3.16479 15.0844 3.16973 15.0994 3.16861 15.1145C3.16759 15.1287 3.16138 15.1419 3.15117 15.1517C3.14097 15.1615 3.12749 15.1672 3.11335 15.1677Z" fill="#1A1818"/>
<path fill-rule="evenodd" clip-rule="evenodd" d="M2.08499 14.2942C2.08499 14.2942 1.96567 14.3623 2.00969 14.454C2.0537 14.5456 2.17786 14.7228 2.34199 14.5964C2.50611 14.4699 2.48032 14.3856 2.38926 14.3651C2.29819 14.3447 2.29009 14.4171 2.29009 14.4171C2.29009 14.4171 2.2302 14.2253 2.08499 14.2942Z" fill="#1A1818"/>
<path d="M6.99851 15.2422C6.9844 15.2427 6.97061 15.238 6.95978 15.2289C6.94896 15.2199 6.94186 15.2071 6.93987 15.1931C6.93878 15.1857 6.93918 15.1781 6.94103 15.1708C6.94287 15.1635 6.94614 15.1567 6.95063 15.1507C6.95513 15.1446 6.96077 15.1396 6.96722 15.1357C6.97368 15.1319 6.98083 15.1294 6.98827 15.1283C7.14459 15.0963 7.29185 15.03 7.41945 14.9342C7.54705 14.8383 7.6518 14.7154 7.72615 14.5742C7.72957 14.5675 7.73428 14.5616 7.74 14.5567C7.74573 14.5518 7.75236 14.5481 7.75952 14.5458C7.76668 14.5434 7.77423 14.5426 7.78173 14.5431C7.78924 14.5437 7.79656 14.5458 7.80326 14.5492C7.81675 14.5562 7.82694 14.5682 7.83161 14.5826C7.83627 14.597 7.83503 14.6127 7.82814 14.6262C7.74651 14.7845 7.62997 14.9221 7.48734 15.0287C7.34471 15.1353 7.17971 15.2081 7.00482 15.2415C7.00273 15.2419 7.00062 15.2421 6.99851 15.2422Z" fill="#1A1818"/>
<path fill-rule="evenodd" clip-rule="evenodd" d="M7.96406 14.2995C7.96406 14.2995 8.08788 14.3592 8.05029 14.4538C8.01269 14.5483 7.90125 14.7335 7.72868 14.6189C7.55612 14.5043 7.57605 14.4182 7.66543 14.3915C7.7548 14.3648 7.76797 14.4365 7.76797 14.4365C7.76797 14.4365 7.81446 14.2409 7.96406 14.2995Z" fill="#1A1818"/>
<path fill-rule="evenodd" clip-rule="evenodd" d="M5.26846 15.8794C5.24532 15.9187 5.2118 15.9509 5.17157 15.9724C5.13135 15.9939 5.08596 16.004 5.0404 16.0014C4.87392 15.9992 4.75966 15.8947 4.90195 15.8989C5.02438 15.8988 5.14672 15.8923 5.26846 15.8794Z" fill="#F3A1A1"/>
<path fill-rule="evenodd" clip-rule="evenodd" d="M5.03079 15.7342C4.89222 15.7331 4.7819 15.4516 4.78517 15.1077C4.78843 14.7638 4.90347 14.4847 5.04193 14.4858C5.18039 14.487 5.29183 14.7683 5.28755 15.1124C5.28328 15.4565 5.16913 15.7355 5.03079 15.7342Z" fill="#1A1818"/>
<path fill-rule="evenodd" clip-rule="evenodd" d="M5.04206 14.4859C4.96844 14.4837 4.90123 14.5638 4.85406 14.6885C4.90855 14.7365 5.13931 14.7223 5.23116 14.704C5.17859 14.5623 5.12434 14.4884 5.04206 14.4859Z" fill="white"/>
<path fill-rule="evenodd" clip-rule="evenodd" d="M4.78583 15.1734C4.79607 15.4875 4.90076 15.7338 5.03089 15.7349C5.16101 15.736 5.27043 15.4908 5.28596 15.1756C5.26091 15.1347 5.22615 15.1007 5.18477 15.0765C5.14339 15.0524 5.09668 15.0388 5.04879 15.0371C4.99734 15.0376 4.94673 15.0502 4.90105 15.0739C4.85537 15.0976 4.8159 15.1317 4.78583 15.1734Z" fill="#E94153"/>
<path fill-rule="evenodd" clip-rule="evenodd" d="M4.78583 15.1733C4.78556 15.3293 4.82099 15.4834 4.8894 15.6236C4.86913 15.4097 4.83389 15.1632 4.97595 15.1283C5.02221 15.1195 5.07008 15.1251 5.11303 15.1444C5.15598 15.1637 5.19195 15.1958 5.21606 15.2362C5.24632 15.3796 5.2242 15.529 5.15371 15.6575C5.24028 15.5116 5.28596 15.3452 5.28596 15.1756C5.26091 15.1347 5.22616 15.1007 5.18477 15.0765C5.14339 15.0524 5.09668 15.0388 5.04879 15.0371C4.99735 15.0376 4.94674 15.0502 4.90106 15.0739C4.85538 15.0975 4.81591 15.1316 4.78583 15.1733Z" fill="#D72449"/>
<path fill-rule="evenodd" clip-rule="evenodd" d="M5.1846 15.5322C5.1846 15.5322 5.11705 15.6986 5.03432 15.6758C4.95158 15.6531 4.87674 15.615 4.94709 15.6069C5.01744 15.5988 5.06764 15.6294 5.10107 15.5754C5.1345 15.5214 5.18956 15.499 5.1846 15.5322Z" fill="#EF6F71"/>
<path d="M3.69142 14.9156C3.70529 14.9156 3.71871 14.9107 3.72921 14.9016C3.7397 14.8926 3.74656 14.88 3.7485 14.8662C3.74974 14.8576 3.78159 14.654 3.95562 14.6513C3.95742 14.6513 3.95944 14.6513 3.96124 14.6513C4.13346 14.6527 4.17513 14.8441 4.17648 14.8523C4.17782 14.8598 4.18064 14.8669 4.18479 14.8732C4.18895 14.8796 4.19434 14.885 4.20065 14.8892C4.20696 14.8934 4.21406 14.8963 4.22151 14.8977C4.22896 14.8991 4.23661 14.899 4.24402 14.8973C4.25138 14.8958 4.25838 14.8929 4.26461 14.8887C4.27084 14.8845 4.27617 14.8791 4.28031 14.8728C4.28444 14.8665 4.28729 14.8595 4.28869 14.8521C4.29009 14.8447 4.29003 14.8371 4.28848 14.8298C4.27504 14.7499 4.23437 14.6771 4.17337 14.6237C4.11238 14.5704 4.03481 14.5398 3.95382 14.5371C3.87222 14.543 3.79538 14.5778 3.73708 14.6352C3.67877 14.6926 3.6428 14.7689 3.63559 14.8504C3.63452 14.8578 3.63494 14.8654 3.6368 14.8727C3.63866 14.8799 3.64192 14.8868 3.64643 14.8928C3.65093 14.8988 3.65659 14.9039 3.66306 14.9077C3.66952 14.9115 3.67667 14.9141 3.68411 14.9151L3.69142 14.9156Z" fill="#1A1818"/>
<path fill-rule="evenodd" clip-rule="evenodd" d="M3.87042 15.3422C3.79736 15.3414 3.7377 15.3069 3.73804 15.2651C3.73838 15.2234 3.79848 15.1903 3.87199 15.1909C3.94549 15.1916 4.00471 15.226 4.00426 15.2678C4.00381 15.3096 3.94381 15.3429 3.87042 15.3422Z" fill="#E94153"/>
<path fill-rule="evenodd" clip-rule="evenodd" d="M6.07238 15.3621C5.99933 15.3613 5.93978 15.3268 5.94 15.2852C5.94023 15.2437 6.00057 15.2104 6.07385 15.2109C6.14713 15.2115 6.20656 15.2461 6.20634 15.2876C6.20611 15.3291 6.14589 15.3628 6.07238 15.3621Z" fill="#E94153"/>
<path d="M6.23879 14.9386H6.24634C6.2614 14.9367 6.2751 14.929 6.28444 14.917C6.29379 14.905 6.29802 14.8899 6.2962 14.8748C6.2904 14.7931 6.25573 14.7162 6.1984 14.6577C6.14107 14.5992 6.06481 14.5631 5.98326 14.5557H5.97471C5.89527 14.5591 5.81932 14.5893 5.7592 14.6413C5.69908 14.6934 5.65832 14.7642 5.64354 14.8424C5.64189 14.8497 5.64171 14.8572 5.64299 14.8646C5.64428 14.872 5.647 14.8791 5.65102 14.8854C5.65503 14.8917 5.66026 14.8972 5.6664 14.9015C5.67253 14.9058 5.67945 14.9088 5.68677 14.9105C5.69409 14.9123 5.70169 14.9126 5.70914 14.9114C5.71658 14.9102 5.7237 14.9075 5.73009 14.9035C5.73647 14.8995 5.74199 14.8942 5.7463 14.888C5.75061 14.8818 5.75364 14.8749 5.7552 14.8675C5.75723 14.8594 5.80338 14.6686 5.97381 14.6703C5.97576 14.6701 5.97772 14.6701 5.97966 14.6703C6.15493 14.6759 6.1815 14.8799 6.18228 14.8886C6.18401 14.9024 6.1907 14.9151 6.2011 14.9243C6.2115 14.9335 6.22491 14.9386 6.23879 14.9386Z" fill="#1A1818"/>
<path fill-rule="evenodd" clip-rule="evenodd" d="M18.4029 16.6994C18.4029 16.6994 17.9679 16.6159 17.9582 16.8738C17.9485 17.1317 18.3931 16.9574 18.4521 16.9362C18.4711 16.9202 18.4855 16.8995 18.4936 16.876C18.5018 16.8526 18.5034 16.8274 18.4984 16.8031C18.4933 16.7788 18.4818 16.7563 18.465 16.738C18.4481 16.7198 18.4267 16.7064 18.4029 16.6994Z" fill="#1A1818"/>
<path d="M18.4107 16.8421C18.398 16.8425 18.3853 16.8395 18.3741 16.8334C18.1094 16.6889 17.9866 16.5447 17.9986 16.3923C18.0161 16.1736 18.3138 16.062 18.3476 16.05C18.3564 16.0469 18.3657 16.0455 18.3751 16.046C18.3844 16.0465 18.3936 16.0488 18.402 16.0529C18.4105 16.0569 18.4181 16.0625 18.4243 16.0695C18.4306 16.0765 18.4354 16.0846 18.4385 16.0934C18.4448 16.1112 18.4438 16.1308 18.4357 16.1479C18.4276 16.1649 18.413 16.1781 18.3952 16.1844C18.3318 16.2069 18.149 16.2959 18.1406 16.4038C18.1338 16.4902 18.241 16.5983 18.4421 16.7077C18.4587 16.7168 18.4711 16.7321 18.4764 16.7502C18.4817 16.7684 18.4797 16.7879 18.4706 16.8045C18.4647 16.8154 18.4561 16.8246 18.4456 16.8312C18.4351 16.8378 18.4231 16.8416 18.4107 16.8421Z" fill="#1A1818"/>
<path fill-rule="evenodd" clip-rule="evenodd" d="M20.269 16.6789C20.269 16.6789 19.8341 16.5954 19.8245 16.8533C19.8149 17.1112 20.2592 16.9369 20.3183 16.9157C20.3374 16.8997 20.3517 16.8789 20.3599 16.8555C20.368 16.832 20.3697 16.8068 20.3646 16.7825C20.3595 16.7582 20.348 16.7357 20.3311 16.7175C20.3143 16.6992 20.2928 16.6859 20.269 16.6789Z" fill="#1A1818"/>
<path d="M20.2768 16.8217C20.2641 16.8221 20.2514 16.8191 20.2402 16.8129C19.9755 16.6684 19.8527 16.5242 19.8648 16.3719C19.8823 16.153 20.18 16.0415 20.2138 16.0294C20.2316 16.0232 20.2512 16.0242 20.2683 16.0324C20.2853 16.0405 20.2984 16.0551 20.3047 16.0729C20.3079 16.0817 20.3093 16.0911 20.3088 16.1004C20.3083 16.1098 20.306 16.1189 20.302 16.1274C20.2979 16.1359 20.2923 16.1434 20.2853 16.1497C20.2784 16.156 20.2702 16.1608 20.2614 16.164C20.198 16.1865 20.0152 16.2755 20.0068 16.3833C20 16.4698 20.1072 16.5779 20.3085 16.6873C20.3251 16.6963 20.3374 16.7116 20.3427 16.7298C20.3481 16.7479 20.346 16.7675 20.3369 16.7841C20.3311 16.795 20.3224 16.8043 20.3119 16.8109C20.3013 16.8175 20.2893 16.8212 20.2768 16.8217Z" fill="#1A1818"/>
<path d="M19.2779 12.9345C20.5945 12.9345 21.6618 12.663 21.6618 12.3281C21.6618 11.9932 20.5945 11.7217 19.2779 11.7217C17.9612 11.7217 16.8939 11.9932 16.8939 12.3281C16.8939 12.663 17.9612 12.9345 19.2779 12.9345Z" fill="#F7F8F9"/>
<path d="M20.1666 11.7651V12.8908C21.0431 12.8008 21.662 12.5829 21.662 12.328C21.662 12.073 21.0431 11.8546 20.1666 11.7651Z" fill="#E0CCE3"/>
<path d="M21.6618 12.3281C21.6618 12.663 20.5944 12.9345 19.2779 12.9345C17.9613 12.9345 16.8939 12.663 16.8939 12.3281C16.8939 14.5255 17.6491 16.3176 19.2779 16.3176C20.8517 16.3181 21.6618 14.6458 21.6618 12.3281Z" fill="#FAB9AA"/>
<path d="M17.4626 13.8307C17.4454 13.8306 17.4288 13.8245 17.4156 13.8135C17.4023 13.8024 17.3934 13.7871 17.3904 13.7701C17.3575 13.5874 17.3311 13.3955 17.3116 13.1995C17.3106 13.1899 17.3116 13.1802 17.3144 13.1709C17.3171 13.1617 17.3217 13.1531 17.3279 13.1456C17.334 13.1381 17.3415 13.1319 17.3501 13.1274C17.3586 13.1228 17.3679 13.12 17.3775 13.119C17.3872 13.1181 17.3969 13.119 17.4061 13.1218C17.4154 13.1246 17.424 13.1292 17.4315 13.1353C17.439 13.1414 17.4451 13.149 17.4497 13.1575C17.4543 13.166 17.4571 13.1754 17.458 13.185C17.4769 13.3771 17.5031 13.5652 17.5351 13.744C17.5386 13.7632 17.5343 13.783 17.5232 13.799C17.512 13.815 17.495 13.826 17.4758 13.8294C17.4715 13.8303 17.4671 13.8307 17.4626 13.8307Z" fill="white"/>
<path d="M17.511 14.0715C17.4915 14.0714 17.4728 14.0637 17.459 14.0499C17.4452 14.0361 17.4374 14.0174 17.4374 13.9979C17.4374 13.993 17.4379 13.9881 17.4388 13.9833C17.4397 13.9786 17.4411 13.974 17.443 13.9696C17.4448 13.9652 17.4471 13.9611 17.4496 13.9571C17.4524 13.953 17.4555 13.9493 17.459 13.9458C17.4675 13.9373 17.478 13.931 17.4896 13.9275C17.5011 13.924 17.5133 13.9234 17.5252 13.9257C17.53 13.9266 17.5346 13.928 17.5391 13.9299C17.5435 13.9317 17.5477 13.934 17.5516 13.9367C17.5558 13.9393 17.5595 13.9423 17.5629 13.9457C17.5663 13.9492 17.5694 13.9529 17.572 13.957C17.5747 13.9609 17.577 13.9651 17.5789 13.9695C17.5806 13.9739 17.582 13.9785 17.583 13.9832C17.584 13.988 17.5845 13.9929 17.5845 13.9977C17.5844 14.0173 17.5767 14.0359 17.5629 14.0497C17.5595 14.0532 17.5558 14.0563 17.5516 14.0589C17.5477 14.0615 17.5435 14.0639 17.5391 14.0657C17.5346 14.0676 17.53 14.069 17.5252 14.0699C17.5205 14.0709 17.5158 14.0714 17.511 14.0715Z" fill="white"/>
<path d="M20.7413 12.8152C20.6644 14.7862 20.1032 16.1922 19.0824 16.3167C19.1462 16.3225 19.2113 16.3259 19.278 16.3259C20.8518 16.3259 21.662 14.6541 21.662 12.3364C21.6619 12.5311 21.3014 12.7042 20.7413 12.8152Z" fill="#F3A1A1"/>
<path d="M19.2778 16.4403C18.4666 16.4403 17.8059 16.0134 17.3674 15.2055C16.9774 14.4873 16.7708 13.4923 16.7708 12.3282C16.7708 12.3121 16.7739 12.2961 16.7801 12.2812C16.7862 12.2664 16.7953 12.2529 16.8067 12.2415C16.818 12.2301 16.8316 12.2211 16.8464 12.2149C16.8613 12.2087 16.8772 12.2056 16.8933 12.2056C16.9094 12.2056 16.9254 12.2087 16.9402 12.2149C16.9551 12.2211 16.9686 12.2301 16.98 12.2415C16.9914 12.2529 17.0004 12.2664 17.0066 12.2812C17.0128 12.2961 17.0159 12.3121 17.0159 12.3282C17.0159 13.4516 17.2118 14.406 17.5822 15.0884C17.981 15.8227 18.5512 16.1951 19.2772 16.1951C19.9908 16.1951 20.5545 15.8373 20.9525 15.1317C21.3359 14.4523 21.5384 13.4829 21.5384 12.3282C21.5384 12.2956 21.5513 12.2645 21.5743 12.2415C21.5973 12.2185 21.6285 12.2056 21.661 12.2056C21.6935 12.2056 21.7247 12.2185 21.7477 12.2415C21.7707 12.2645 21.7836 12.2956 21.7836 12.3282C21.7836 13.525 21.5697 14.5362 21.1659 15.2523C20.7284 16.0295 20.0752 16.4403 19.2778 16.4403Z" fill="#1A1818"/>
<path d="M19.2779 13.0573C18.0706 13.0573 16.7714 12.8291 16.7714 12.3282C16.7714 11.8273 18.0707 11.5991 19.2779 11.5991C20.4851 11.5991 21.7844 11.8273 21.7844 12.3282C21.7844 12.8291 20.4852 13.0573 19.2779 13.0573ZM19.2779 11.8444C18.7211 11.8366 18.1654 11.895 17.6224 12.0182C17.1254 12.1446 17.0165 12.2849 17.0165 12.3282C17.0165 12.3716 17.1254 12.5117 17.6224 12.6382C18.1654 12.7615 18.7211 12.8198 19.2779 12.812C19.8347 12.8198 20.3904 12.7615 20.9334 12.6382C21.4304 12.5118 21.5393 12.3716 21.5393 12.3282C21.5393 12.2849 21.4304 12.1446 20.9334 12.0182C20.3904 11.895 19.8347 11.8367 19.2779 11.8445V11.8444Z" fill="#1A1818"/>
<path d="M17.3472 14.9431C17.3451 14.9432 17.343 14.9432 17.341 14.9431C17.1642 14.9218 16.9945 14.8607 16.8448 14.7643C16.6951 14.6678 16.5692 14.5386 16.4768 14.3864C16.4729 14.38 16.4703 14.3728 16.4692 14.3654C16.468 14.3579 16.4684 14.3503 16.4702 14.343C16.472 14.3356 16.4752 14.3288 16.4797 14.3227C16.4842 14.3166 16.4898 14.3115 16.4963 14.3076C16.5027 14.3037 16.5099 14.3011 16.5173 14.3C16.5248 14.2988 16.5324 14.2992 16.5397 14.301C16.547 14.3028 16.5539 14.306 16.56 14.3105C16.5661 14.315 16.5712 14.3206 16.5751 14.3271C16.6587 14.463 16.7717 14.5786 16.9057 14.6653C17.0396 14.7521 17.1913 14.8078 17.3495 14.8286C17.3647 14.8297 17.3788 14.8368 17.3887 14.8483C17.3986 14.8598 17.4036 14.8748 17.4024 14.8899C17.4014 14.9041 17.3952 14.9173 17.385 14.9271C17.3748 14.9369 17.3613 14.9426 17.3472 14.9431Z" fill="#1A1818"/>
<path fill-rule="evenodd" clip-rule="evenodd" d="M16.3188 14.0701C16.3188 14.0701 16.1994 14.1382 16.2435 14.2299C16.2875 14.3217 16.4116 14.4988 16.5757 14.3723C16.7399 14.2459 16.714 14.1616 16.623 14.1411C16.5321 14.1206 16.5239 14.1931 16.5239 14.1931C16.5239 14.1931 16.464 14.0012 16.3188 14.0701Z" fill="#1A1818"/>
<path d="M21.2323 15.0181C21.2182 15.0186 21.2044 15.0139 21.1936 15.0048C21.1828 14.9957 21.1757 14.983 21.1737 14.969C21.1726 14.9616 21.173 14.954 21.1749 14.9467C21.1767 14.9394 21.18 14.9326 21.1845 14.9265C21.189 14.9205 21.1946 14.9155 21.201 14.9116C21.2075 14.9078 21.2147 14.9052 21.2221 14.9042C21.3784 14.8721 21.5257 14.8058 21.6533 14.71C21.7809 14.6142 21.8856 14.4913 21.96 14.3501C21.9634 14.3434 21.9681 14.3374 21.9738 14.3325C21.9796 14.3277 21.9862 14.324 21.9933 14.3216C22.0005 14.3193 22.0081 14.3184 22.0156 14.319C22.0231 14.3196 22.0304 14.3217 22.0371 14.3251C22.0506 14.332 22.0608 14.3441 22.0655 14.3585C22.0702 14.373 22.0689 14.3887 22.062 14.4022C21.9803 14.5605 21.8638 14.6981 21.7211 14.8047C21.5785 14.9113 21.4134 14.9841 21.2385 15.0175C21.2365 15.0178 21.2344 15.018 21.2323 15.0181Z" fill="#1A1818"/>
<path fill-rule="evenodd" clip-rule="evenodd" d="M22.1978 14.0754C22.1978 14.0754 22.3217 14.1351 22.2841 14.2296C22.2465 14.3242 22.135 14.5094 21.9625 14.3948C21.7899 14.2802 21.8099 14.1941 21.8992 14.1674C21.9885 14.1407 22.0018 14.2124 22.0018 14.2124C22.0018 14.2124 22.0484 14.0168 22.1978 14.0754Z" fill="#1A1818"/>
<path fill-rule="evenodd" clip-rule="evenodd" d="M20.31 15.4631C20.3959 15.4607 20.4648 15.4191 20.4636 15.3703C20.4623 15.3216 20.3912 15.2839 20.3052 15.2862C20.2192 15.2886 20.1505 15.3301 20.1519 15.3789C20.1532 15.4276 20.2243 15.4653 20.31 15.4631Z" fill="#E94153"/>
<path fill-rule="evenodd" clip-rule="evenodd" d="M18.2497 15.3156C18.3354 15.3132 18.4043 15.2717 18.4029 15.223C18.4014 15.1742 18.3305 15.1365 18.2447 15.1388C18.1589 15.141 18.09 15.1827 18.0914 15.2314C18.0927 15.2802 18.1634 15.318 18.2497 15.3156Z" fill="#E94153"/>
<path fill-rule="evenodd" clip-rule="evenodd" d="M19.7753 14.7989C19.7753 14.7989 19.031 14.8837 18.7724 14.752C18.7724 14.752 18.5882 15.5152 19.2172 15.5154C19.6319 15.5154 19.735 15.2727 19.7632 15.0407C19.7776 14.921 19.7687 14.8776 19.7753 14.7989Z" fill="#1A1818"/>
<path fill-rule="evenodd" clip-rule="evenodd" d="M19.2173 15.5145C19.1605 15.5197 19.1033 15.5133 19.0491 15.4958C18.9949 15.4783 18.9447 15.45 18.9017 15.4126C18.8586 15.3753 18.8236 15.3296 18.7986 15.2784C18.7736 15.2271 18.7593 15.1714 18.7563 15.1145C18.8632 14.9727 19.0066 14.9417 19.2927 14.9365C19.3786 14.933 19.4641 14.9492 19.5428 14.9838C19.6215 15.0184 19.6912 15.0705 19.7467 15.1361C19.7008 15.3342 19.5746 15.5147 19.2173 15.5145Z" fill="#D72449"/>
<path fill-rule="evenodd" clip-rule="evenodd" d="M19.5041 15.3949C19.5041 15.3949 19.6349 15.2773 19.6293 15.2228C19.6236 15.1684 19.533 15.0774 19.269 15.0937C19.0051 15.1101 18.8976 15.1472 18.8912 15.2271C18.8847 15.307 18.9137 15.4362 19.1362 15.4506C19.3588 15.465 19.4098 15.4726 19.5041 15.3949Z" fill="#E94153"/>
<path fill-rule="evenodd" clip-rule="evenodd" d="M19.4553 15.3582C19.4553 15.3582 19.4209 15.4119 19.2695 15.4092C19.1181 15.4065 19.0357 15.396 19.0556 15.3607C19.0755 15.3255 19.1214 15.3296 19.2114 15.337C19.2675 15.3429 19.3241 15.3433 19.3803 15.338C19.3958 15.3347 19.4695 15.3174 19.4553 15.3582Z" fill="#ED6368"/>
<path d="M20.5763 14.9408C20.5633 14.9412 20.5506 14.9368 20.5406 14.9285C20.5306 14.9203 20.5239 14.9086 20.5217 14.8958C20.5205 14.8878 20.487 14.6969 20.3235 14.6975H20.3181C20.1563 14.7019 20.1209 14.8824 20.1195 14.8903C20.1182 14.8972 20.1156 14.9038 20.1117 14.9098C20.1079 14.9157 20.1029 14.9208 20.097 14.9248C20.0912 14.9288 20.0846 14.9315 20.0777 14.933C20.0708 14.9344 20.0637 14.9345 20.0567 14.9332C20.0498 14.9319 20.0432 14.9292 20.0373 14.9254C20.0314 14.9216 20.0263 14.9166 20.0223 14.9108C20.0183 14.905 20.0155 14.8984 20.014 14.8915C20.0125 14.8846 20.0124 14.8775 20.0137 14.8706C20.025 14.7953 20.0619 14.7262 20.1183 14.6751C20.1747 14.6239 20.247 14.5938 20.3231 14.5898C20.3999 14.594 20.4727 14.6254 20.5285 14.6784C20.5844 14.7313 20.6195 14.8024 20.6278 14.8789C20.6289 14.8859 20.6286 14.8931 20.6269 14.9C20.6253 14.9068 20.6222 14.9133 20.6181 14.9191C20.6139 14.9248 20.6086 14.9296 20.6025 14.9333C20.5965 14.937 20.5898 14.9394 20.5827 14.9405C20.5806 14.9407 20.5785 14.9408 20.5763 14.9408Z" fill="#1A1818"/>
<path d="M17.9825 14.8706C17.9802 14.8708 17.9778 14.8708 17.9754 14.8706C17.9684 14.8699 17.9616 14.8678 17.9554 14.8645C17.9492 14.8611 17.9437 14.8565 17.9392 14.8511C17.9348 14.8456 17.9314 14.8393 17.9294 14.8325C17.9274 14.8258 17.9267 14.8187 17.9275 14.8116C17.9315 14.7348 17.9627 14.6619 18.0156 14.606C18.0684 14.5501 18.1394 14.5147 18.2159 14.5063H18.2241C18.2988 14.5082 18.3707 14.5352 18.428 14.5831C18.4854 14.631 18.5249 14.6968 18.5401 14.77C18.5434 14.7838 18.5411 14.7985 18.5337 14.8106C18.5263 14.8228 18.5144 14.8316 18.5006 14.8349C18.4937 14.8367 18.4866 14.837 18.4796 14.836C18.4727 14.8349 18.466 14.8325 18.4599 14.8289C18.4539 14.8252 18.4486 14.8204 18.4445 14.8147C18.4403 14.809 18.4373 14.8025 18.4357 14.7957C18.4336 14.7878 18.387 14.6095 18.2267 14.6139H18.2214C18.0568 14.6224 18.0352 14.8147 18.0342 14.8228C18.0328 14.8356 18.0268 14.8476 18.0173 14.8563C18.0078 14.8651 17.9954 14.8702 17.9825 14.8706Z" fill="#1A1818"/>
<path fill-rule="evenodd" clip-rule="evenodd" d="M8.44439 15.991C8.44439 15.991 8.3809 15.184 7.93491 15.284C7.48892 15.3839 7.99806 16.0912 8.06234 16.1857C8.12661 16.2803 8.44247 16.2523 8.44439 15.991Z" fill="#1A1818"/>
<path d="M8.23338 16.156C8.20202 16.1653 8.16831 16.1624 8.13894 16.1481C8.10956 16.1337 8.08666 16.1088 8.07478 16.0783C8.06226 16.0461 8.06304 16.0102 8.07692 15.9786C8.0908 15.9469 8.11667 15.9221 8.14885 15.9095L9.83859 15.2491C9.8708 15.2366 9.90668 15.2373 9.93834 15.2512C9.97 15.2651 9.99485 15.291 10.0074 15.3232C10.0199 15.3554 10.0191 15.3913 10.0052 15.4229C9.99134 15.4545 9.96551 15.4794 9.93337 15.4921L8.24374 16.1525C8.24003 16.1536 8.23642 16.1547 8.23338 16.156Z" fill="#1A1818"/>
<path fill-rule="evenodd" clip-rule="evenodd" d="M15.6051 16.2349C15.6051 16.2349 15.5412 15.4279 15.9974 15.4568C16.4536 15.4857 16.0615 16.2639 16.0129 16.3674C15.9644 16.4708 15.6479 16.4928 15.6051 16.2349Z" fill="#1A1818"/>
<path d="M15.8434 16.4375C15.8227 16.4437 15.8007 16.4446 15.7796 16.4402C15.7584 16.4358 15.7386 16.4262 15.7221 16.4123L14.7102 15.5616C14.6837 15.5393 14.6671 15.5074 14.6641 15.4729C14.6611 15.4384 14.672 15.4041 14.6942 15.3776C14.7165 15.3511 14.7485 15.3345 14.783 15.3315C14.8175 15.3286 14.8518 15.3394 14.8783 15.3617L15.89 16.2124C15.9165 16.2347 15.9331 16.2666 15.9361 16.3011C15.9391 16.3356 15.9283 16.3699 15.906 16.3964C15.8896 16.4159 15.8678 16.4302 15.8434 16.4375Z" fill="#1A1818"/>
<path d="M10.3481 4.42969C10.3481 4.59854 11.2217 4.73519 12.299 4.73519C13.3764 4.73519 14.25 4.59843 14.25 4.42969L13.4365 7.19388C16.1944 10.8015 15.6316 15.2921 14.5479 15.5987C13.8094 15.8171 13.0442 15.9323 12.274 15.9408H12.2178C11.4476 15.9323 10.6824 15.8171 9.94391 15.5987C8.86034 15.2921 8.29739 10.8015 11.0553 7.19388L10.3481 4.42969Z" fill="#FAB9AA"/>
<path d="M10.3233 10.3832C10.3063 10.3832 10.2895 10.3803 10.2736 10.3746C10.2368 10.3613 10.2069 10.3341 10.1903 10.2988C10.1736 10.2635 10.1717 10.2231 10.1848 10.1863C10.4213 9.5029 10.775 8.86588 11.2301 8.30388C11.2422 8.28878 11.2571 8.2762 11.274 8.26686C11.2909 8.25752 11.3095 8.2516 11.3287 8.24945C11.3479 8.2473 11.3674 8.24895 11.3859 8.25431C11.4045 8.25967 11.4218 8.26864 11.4369 8.2807C11.452 8.29275 11.4646 8.30766 11.474 8.32457C11.4833 8.34149 11.4892 8.36007 11.4914 8.37928C11.4935 8.39848 11.4919 8.41792 11.4865 8.43648C11.4811 8.45504 11.4722 8.47237 11.4601 8.48747C11.0254 9.02439 10.6876 9.63296 10.4619 10.2859C10.4516 10.3144 10.4328 10.339 10.408 10.3565C10.3832 10.3739 10.3536 10.3832 10.3233 10.3832Z" fill="white"/>
<path d="M10.0554 11.3022C10.0457 11.3022 10.0361 11.3012 10.0267 11.2992C10.0172 11.2974 10.008 11.2946 9.9992 11.2909C9.99025 11.2873 9.98169 11.2827 9.97365 11.2774C9.96561 11.272 9.95807 11.266 9.95113 11.2593C9.92361 11.2316 9.90812 11.1942 9.90802 11.1552C9.90801 11.1455 9.90899 11.1358 9.91095 11.1263C9.91287 11.1169 9.91565 11.1077 9.91927 11.0989C9.92304 11.09 9.92757 11.0814 9.93279 11.0733C9.93815 11.0652 9.94429 11.0577 9.95113 11.0508C9.95802 11.044 9.96556 11.0379 9.97365 11.0327C9.98167 11.0272 9.99023 11.0226 9.9992 11.0189C10.0081 11.0153 10.0173 11.0125 10.0267 11.0106C10.0456 11.0069 10.0651 11.0069 10.0841 11.0106C10.0935 11.0125 10.1028 11.0153 10.1118 11.0189C10.1206 11.0226 10.1291 11.0272 10.137 11.0327C10.1451 11.0379 10.1527 11.044 10.1595 11.0508C10.1663 11.0577 10.1724 11.0653 10.1778 11.0733C10.1832 11.0814 10.1877 11.0899 10.1914 11.0989C10.1951 11.1077 10.1979 11.1169 10.1997 11.1263C10.2016 11.1358 10.2026 11.1455 10.2026 11.1552C10.2026 11.1649 10.2016 11.1745 10.1997 11.184C10.1979 11.1934 10.1951 11.2026 10.1914 11.2114C10.1877 11.2204 10.1832 11.2289 10.1778 11.237C10.1724 11.245 10.1663 11.2526 10.1595 11.2595C10.1317 11.2868 10.0943 11.3022 10.0554 11.3022Z" fill="white"/>
<path d="M14.2422 4.45588C14.247 4.4478 14.2497 4.43862 14.2501 4.4292L14.2422 4.45588Z" fill="#F3A1A1"/>
<path d="M13.4367 7.19346L14.2427 4.45605C14.1673 4.59226 13.5222 4.70291 12.6816 4.72903L12.821 7.23927C13.7542 8.21714 14.352 9.71868 14.352 11.4027C14.352 13.3185 13.5786 14.9981 12.4176 15.9391C13.1394 15.9169 13.8554 15.8025 14.5482 15.5986C15.6317 15.2915 16.1946 10.801 13.4367 7.19346Z" fill="#F3A1A1"/>
<path d="M12.2992 4.73504C13.3767 4.73504 14.2502 4.59826 14.2502 4.42953C14.2502 4.2608 13.3767 4.12402 12.2992 4.12402C11.2216 4.12402 10.3481 4.2608 10.3481 4.42953C10.3481 4.59826 11.2216 4.73504 12.2992 4.73504Z" fill="#F7F8F9"/>
<path d="M12.2742 16.0632H12.2179C11.4366 16.0554 10.6603 15.9387 9.91119 15.7165C9.60973 15.6312 9.35578 15.302 9.17703 14.7644C8.88931 13.8995 8.85148 12.638 9.07572 11.39C9.35307 9.85749 9.9853 8.41118 10.9218 7.16681L10.2391 4.50157C10.2294 4.47888 10.2245 4.45443 10.2247 4.42975C10.2247 4.39988 10.2356 4.37105 10.2553 4.34865C10.2751 4.32625 10.3023 4.31182 10.332 4.30806C10.3614 4.30442 10.3911 4.31152 10.4157 4.32807C10.4403 4.34462 10.458 4.3695 10.4657 4.39812C10.5691 4.47691 11.1823 4.61301 12.2983 4.61301C13.4143 4.61301 14.0272 4.47702 14.1308 4.39812L14.1316 4.39542C14.1399 4.36713 14.1581 4.3428 14.1829 4.32686C14.2077 4.31092 14.2374 4.30445 14.2666 4.30863C14.2958 4.31285 14.3225 4.32743 14.3418 4.34971C14.3611 4.372 14.3718 4.40049 14.3718 4.42997C14.372 4.45793 14.3657 4.48555 14.3532 4.51057L13.5704 7.16929C14.5062 8.41322 15.1379 9.85883 15.4152 11.3906C15.6397 12.6386 15.6019 13.9001 15.3138 14.765C15.135 15.3026 14.8811 15.6317 14.5797 15.7171C13.831 15.9389 13.055 16.0554 12.2742 16.0632ZM10.5418 4.69147L11.1749 7.16332C11.1795 7.18129 11.1799 7.20007 11.1762 7.21824C11.1725 7.23641 11.1647 7.2535 11.1535 7.26824C10.2208 8.49186 9.59156 9.91925 9.31751 11.4332C9.09992 12.6427 9.13436 13.859 9.40982 14.6864C9.5575 15.1303 9.76462 15.4196 9.97805 15.4799C10.7054 15.6959 11.4594 15.8096 12.2181 15.8176H12.2744C13.0332 15.8096 13.7871 15.696 14.5145 15.4799C14.7284 15.4196 14.9351 15.1303 15.0827 14.6864C15.3582 13.8586 15.3926 12.6423 15.175 11.4332C14.901 9.91926 14.2718 8.49187 13.3391 7.26824C13.3274 7.25293 13.3194 7.23507 13.3159 7.21612C13.3124 7.19717 13.3134 7.17766 13.3188 7.15916L14.0443 4.69507C13.9303 4.72584 13.8146 4.74982 13.6978 4.76688C13.2345 4.83153 12.7671 4.86193 12.2993 4.85784C11.8315 4.86193 11.3641 4.83153 10.9008 4.76688C10.7797 4.74934 10.6598 4.72415 10.5419 4.69147H10.5418Z" fill="#1A1818"/>
<path d="M12.5364 4.12646V4.73287C13.5019 4.71452 14.25 4.58585 14.25 4.42961C14.25 4.27336 13.5019 4.14459 12.5364 4.12646Z" fill="#E0CCE3"/>
<path d="M12.299 4.85768C11.8313 4.86176 11.3638 4.83137 10.9005 4.76672C10.421 4.69164 10.2251 4.59393 10.2251 4.42902C10.2251 4.26411 10.4207 4.16697 10.9005 4.09132C11.3638 4.02669 11.8313 3.99628 12.299 4.00036C12.7668 3.99628 13.2343 4.02669 13.6976 4.09132C14.1771 4.1664 14.373 4.26411 14.373 4.42902C14.373 4.59393 14.1773 4.69108 13.6976 4.76672C13.2343 4.83136 12.7668 4.86176 12.299 4.85768ZM10.5294 4.42992C10.732 4.50872 11.323 4.61284 12.299 4.61284C13.2751 4.61284 13.8664 4.50883 14.0687 4.42992C13.8661 4.35113 13.2751 4.247 12.299 4.247C11.323 4.247 10.7316 4.35067 10.5294 4.42947V4.42992Z" fill="#1A1818"/>
<path d="M10.6599 16.5253C10.6352 16.5262 10.611 16.5184 10.5914 16.5034C10.5717 16.4884 10.5579 16.4671 10.5523 16.443L10.22 15.0377C10.2135 15.0101 10.2183 14.9811 10.2332 14.9569C10.2481 14.9328 10.272 14.9156 10.2996 14.9091C10.3272 14.9026 10.3562 14.9074 10.3804 14.9223C10.4045 14.9372 10.4217 14.9611 10.4283 14.9886L10.7603 16.3938C10.7636 16.4075 10.7641 16.4217 10.7619 16.4355C10.7596 16.4494 10.7547 16.4627 10.7473 16.4746C10.74 16.4866 10.7303 16.497 10.7189 16.5052C10.7075 16.5134 10.6946 16.5194 10.681 16.5226C10.6741 16.5242 10.667 16.5251 10.6599 16.5253Z" fill="#1A1818"/>
<path d="M12.9153 16.6316C12.899 16.6321 12.8829 16.6289 12.868 16.6222C12.8552 16.6165 12.8436 16.6083 12.834 16.5981C12.8243 16.5879 12.8168 16.5759 12.8118 16.5627C12.8068 16.5496 12.8044 16.5356 12.8048 16.5216C12.8052 16.5076 12.8084 16.4937 12.8141 16.4809L13.404 15.1629C13.4097 15.1501 13.4179 15.1385 13.4281 15.1288C13.4383 15.1192 13.4503 15.1116 13.4634 15.1066C13.4765 15.1016 13.4905 15.0993 13.5046 15.0997C13.5186 15.1001 13.5324 15.1032 13.5452 15.109C13.5581 15.1147 13.5696 15.1229 13.5793 15.1331C13.5889 15.1433 13.5965 15.1553 13.6015 15.1684C13.6065 15.1815 13.6089 15.1955 13.6085 15.2096C13.6081 15.2236 13.605 15.2374 13.5993 15.2502L13.0093 16.5683C13.0012 16.5866 12.988 16.6023 12.9714 16.6134C12.9548 16.6246 12.9353 16.6309 12.9153 16.6316Z" fill="#1A1818"/>
<path fill-rule="evenodd" clip-rule="evenodd" d="M12.8484 16.4658C12.8484 16.4658 12.4622 16.6052 12.537 16.8497C12.6119 17.0942 12.7552 16.89 12.7552 16.89C12.7552 16.89 12.7027 17.1205 12.9866 17.0896C13.2705 17.0586 13.4482 16.8837 13.2343 16.6866C13.0204 16.4895 13.0076 16.4772 12.8484 16.4658Z" fill="#1A1818"/>
<path fill-rule="evenodd" clip-rule="evenodd" d="M10.8408 16.4908C10.8408 16.4908 10.7316 16.3107 10.4535 16.4602C10.1466 16.6248 10.0213 16.8309 10.2639 16.9462C10.5065 17.0614 10.6895 16.7783 10.6895 16.7783C10.6895 16.7783 10.7224 16.9125 10.8358 16.8821C10.9493 16.8517 10.9605 16.6282 10.8408 16.4908Z" fill="#1A1818"/>
<path d="M11.8298 13.3682C11.8072 13.3655 11.7849 13.3608 11.7631 13.3543C11.6911 13.3355 11.6275 13.293 11.5826 13.2336C11.5377 13.1743 11.514 13.1015 11.5155 13.027C11.5171 13.0009 11.529 12.9764 11.5486 12.959C11.5682 12.9417 11.5939 12.9328 11.6201 12.9343C11.646 12.9365 11.67 12.9486 11.6873 12.968C11.7045 12.9875 11.7136 13.0128 11.7127 13.0388C11.714 13.0688 11.7253 13.0976 11.7448 13.1205C11.7643 13.1435 11.791 13.1592 11.8204 13.1653C11.9121 13.1934 12.0478 13.1593 12.1529 12.9807C12.1638 12.9616 12.1809 12.9468 12.2013 12.9387C12.2218 12.9305 12.2443 12.9294 12.2654 12.9356C12.2865 12.9416 12.305 12.9544 12.318 12.9721C12.331 12.9897 12.3378 13.0111 12.3372 13.033C12.3359 13.0893 12.432 13.1986 12.5483 13.223C12.6503 13.2446 12.7319 13.1886 12.7867 13.0561C12.7916 13.0441 12.7989 13.0331 12.808 13.0239C12.8171 13.0147 12.828 13.0074 12.84 13.0024C12.852 12.9974 12.8648 12.9948 12.8778 12.9948C12.8908 12.9948 12.9036 12.9973 12.9156 13.0023C12.9398 13.0123 12.9591 13.0315 12.9691 13.0556C12.9792 13.0798 12.9793 13.1069 12.9694 13.1312C12.8788 13.3514 12.707 13.4591 12.5079 13.4163C12.3899 13.3898 12.2851 13.3225 12.2118 13.2263C12.1631 13.2774 12.1034 13.3168 12.0372 13.3414C11.971 13.366 11.9001 13.3751 11.8298 13.3682Z" fill="#1A1818"/>
<path fill-rule="evenodd" clip-rule="evenodd" d="M13.937 14.2421C14.0777 14.2382 14.1905 14.1699 14.1885 14.0901C14.1865 14.0103 14.0698 13.9485 13.9296 13.9523C13.7893 13.9561 13.6762 14.0242 13.6784 14.1041C13.6807 14.1839 13.7964 14.246 13.937 14.2421Z" fill="#E94153"/>
<path fill-rule="evenodd" clip-rule="evenodd" d="M10.5607 13.9999C10.7012 13.996 10.814 13.9279 10.8118 13.848C10.8095 13.7681 10.6932 13.7063 10.5529 13.7101C10.4125 13.714 10.2995 13.7822 10.3016 13.8619C10.3037 13.9416 10.42 14.0038 10.5607 13.9999Z" fill="#E94153"/>
<path d="M13.5255 12.8228C13.5468 12.8223 13.5677 12.8295 13.5841 12.8432C13.6005 12.8568 13.6115 12.876 13.6149 12.8971C13.6169 12.9101 13.6717 13.2228 13.9395 13.2221H13.9483C14.2134 13.2147 14.2714 12.919 14.2737 12.9062C14.2758 12.8948 14.2802 12.884 14.2865 12.8743C14.2928 12.8646 14.301 12.8563 14.3105 12.8497C14.3201 12.8432 14.3308 12.8386 14.3421 12.8362C14.3534 12.8338 14.3651 12.8337 14.3765 12.8358C14.3878 12.838 14.3987 12.8423 14.4083 12.8486C14.418 12.8549 14.4264 12.863 14.4329 12.8725C14.4394 12.8821 14.444 12.8928 14.4464 12.9041C14.4488 12.9154 14.449 12.927 14.4468 12.9384C14.4172 13.097 14.2734 13.3967 13.9403 13.3982C13.6048 13.3992 13.4675 13.0889 13.4411 12.9247C13.4392 12.9132 13.4396 12.9015 13.4422 12.8902C13.4449 12.8789 13.4497 12.8682 13.4565 12.8588C13.4633 12.8493 13.4719 12.8414 13.4818 12.8353C13.4917 12.8292 13.5027 12.8251 13.5142 12.8233C13.518 12.8229 13.5217 12.8227 13.5255 12.8228Z" fill="#1A1818"/>
<path d="M10.9391 12.6608C10.9428 12.6606 10.9466 12.6606 10.9503 12.6608C10.9619 12.662 10.9731 12.6654 10.9833 12.6708C10.9935 12.6763 11.0025 12.6837 11.0098 12.6927C11.0171 12.7017 11.0226 12.712 11.0259 12.7231C11.0292 12.7342 11.0303 12.7459 11.0291 12.7574C11.0124 12.9228 10.8916 13.2401 10.5564 13.2575H10.5428C10.219 13.2663 10.0629 12.9802 10.025 12.8257C10.0195 12.803 10.0232 12.7791 10.0353 12.7591C10.0474 12.7391 10.067 12.7248 10.0897 12.7192C10.1009 12.7164 10.1125 12.7159 10.124 12.7176C10.1354 12.7193 10.1464 12.7233 10.1563 12.7293C10.1661 12.7353 10.1747 12.7432 10.1815 12.7525C10.1884 12.7619 10.1932 12.7725 10.1959 12.7837C10.1994 12.7966 10.2757 13.0887 10.5382 13.0816H10.5469C10.8165 13.0676 10.852 12.7527 10.8535 12.7393C10.8558 12.718 10.8658 12.6984 10.8815 12.6839C10.8973 12.6695 10.9177 12.6613 10.9391 12.6608Z" fill="#1A1818"/>
</svg>
