<svg width="24" height="24" viewBox="0 0 24 24" fill="none" xmlns="http://www.w3.org/2000/svg">
<path fill-rule="evenodd" clip-rule="evenodd" d="M0 12C0 5.37259 5.37259 0 12 0C18.6274 0 24 5.37259 24 12C24 18.6274 18.6274 24 12 24C5.37259 24 0 18.6274 0 12Z" fill="#150713"/>
<path fill-rule="evenodd" clip-rule="evenodd" d="M10.2608 8.11789L8.62308 6.32387C8.62308 6.32387 8.53434 6.24796 8.57059 6.20546C8.6068 6.16295 8.68439 6.23045 8.68439 6.23045L10.7695 7.61108L10.789 7.59473L10.8066 7.58014L10.8334 7.55824C10.9476 7.46525 11.071 7.38101 11.1749 7.32033C11.2593 7.00112 11.2331 6.79914 11.2025 6.56324C11.1995 6.54053 11.1965 6.51754 11.1936 6.49411C11.1977 6.47208 11.2137 6.46707 11.2526 6.49423C11.4017 6.59826 11.6308 6.8182 11.7366 7.07635C11.7543 7.11555 11.7758 7.16364 11.7967 7.21276C11.8143 7.25431 11.8579 7.28254 11.9008 7.30817C11.9005 7.30567 11.8967 7.30135 11.8915 7.29527C11.8769 7.27853 11.851 7.24862 11.8561 7.20833C11.8837 6.9854 12.0528 6.89234 12.2875 6.90289C13.9494 6.97134 15.216 8.94276 15.4334 10.4753C15.5783 11.4873 15.2395 12.9294 14.9378 14.2138L14.9375 14.2149C14.8295 14.6747 14.7263 15.1142 14.6517 15.5065C14.9278 15.6119 14.9209 16.1069 14.5067 16.1069C14.4962 16.3159 14.4476 16.519 14.3503 16.6867C13.6087 16.9259 12.8176 17.0551 11.9961 17.0551C11.1792 17.0551 10.3922 16.9273 9.654 16.6906C9.55525 16.5221 9.50592 16.3175 9.49534 16.1069C9.10707 16.1069 9.06566 15.6487 9.32107 15.5188C8.79299 14.4023 9.66964 13.3332 10.3893 12.5854C10.976 11.9763 12.0166 10.7632 11.6904 9.8293C11.4902 10.5016 10.9811 10.6403 10.3064 10.6684C10.0391 10.6797 9.92924 10.8076 9.82511 10.9287C9.75043 11.0157 9.67871 11.0992 9.55402 11.1336C9.04668 11.2705 8.58419 10.7018 8.65841 10.212C8.67613 10.0913 9.11759 9.58088 9.48964 9.15074L9.49 9.15039L9.49253 9.14748L9.4926 9.14737C9.69844 8.90933 9.88269 8.69624 9.9613 8.58814C10.0584 8.45483 10.1017 8.38054 10.1536 8.29139C10.1756 8.25377 10.1991 8.21355 10.2287 8.1651C10.2388 8.14897 10.2495 8.13322 10.2608 8.11789ZM10.1655 9.03575L10.4606 8.80196C10.5321 8.74585 10.5768 8.65233 10.5768 8.54943V8.41851C10.5768 8.31564 10.4516 8.27824 10.3979 8.3624L10.0403 8.91418C9.97765 8.99834 10.0849 9.10121 10.1655 9.03575Z" fill="white"/>
<path d="M9.51886 17.1015C9.0657 17.3274 8.7558 17.7181 8.60339 18.1963C9.61213 18.7483 10.7698 19.0622 12.0012 19.0622C13.2325 19.0622 14.3902 18.7484 15.3989 18.1963C15.2461 17.7168 14.9348 17.3252 14.4796 17.0996C13.6981 17.3561 12.8633 17.4948 11.9963 17.4948C11.1314 17.4948 10.2986 17.3568 9.51886 17.1015Z" fill="white"/>
<path fill-rule="evenodd" clip-rule="evenodd" d="M3 12C3 7.02943 7.02947 3 12 3C16.9705 3 21 7.02943 21 12C21 16.9706 16.9705 21 12 21C7.02947 21 3 16.9706 3 12ZM12 4.02773C7.59703 4.02773 4.02773 7.59703 4.02773 12C4.02773 16.403 7.59703 19.9723 12 19.9723C16.403 19.9723 19.9723 16.403 19.9723 12C19.9723 7.59703 16.403 4.02773 12 4.02773Z" fill="white"/>
<path d="M23.5 12C23.5 18.3513 18.3513 23.5 12 23.5C5.64873 23.5 0.5 18.3513 0.5 12C0.5 5.64873 5.64873 0.5 12 0.5C18.3513 0.5 23.5 5.64873 23.5 12Z" stroke="white" stroke-opacity="0.3"/>
</svg>
