<svg width="24" height="24" viewBox="0 0 24 24" fill="none" xmlns="http://www.w3.org/2000/svg">
<path d="M12 24C18.6274 24 24 18.6274 24 12C24 5.37258 18.6274 0 12 0C5.3726 0 1.52588e-05 5.37258 1.52588e-05 12C1.52588e-05 18.6274 5.3726 24 12 24Z" fill="#0041FF"/>
<path d="M12 24C18.6274 24 24 18.6274 24 12C24 5.37258 18.6274 0 12 0C5.3726 0 1.52588e-05 5.37258 1.52588e-05 12C1.52588e-05 18.6274 5.3726 24 12 24Z" fill="black"/>
<path d="M16.557 10.3643C18.318 11.9083 18.4923 14.6602 16.9881 16.6583C16.0434 17.9208 14.7135 18.4385 13.2277 18.6746C10.8888 19.047 7.48609 18.8653 7.31183 18.8381C6.66062 18.7564 6.41298 18.4476 6.53222 17.8027C6.64228 17.1669 6.76152 16.5403 6.88075 15.9045C7.0917 15.8863 7.30265 15.8682 7.51361 15.8409C7.3852 16.5039 7.25679 17.1669 7.11922 17.83C7.07336 18.0661 7.0917 18.2477 7.40354 18.2477C7.54112 18.2477 7.66953 18.2932 7.80711 18.3022C9.53141 18.3386 11.2649 18.4021 12.9709 18.1206C13.9431 17.9662 14.9061 17.7755 15.7041 17.1306C17.6393 15.5685 17.9879 12.8074 16.4011 10.9909C16.447 10.782 16.502 10.5732 16.557 10.3643Z" fill="#63C0D6"/>
<path d="M16.557 10.3641C16.502 10.573 16.4562 10.7818 16.4011 10.9907C16.1993 11.572 15.9425 12.126 15.5848 12.6346C14.7961 13.7609 13.5945 14.2513 12.3747 14.6963C10.7971 15.2685 9.1462 15.5501 7.50444 15.8498C7.29348 15.868 7.08253 15.8861 6.87158 15.9134C6.39464 15.9043 6.09197 15.6863 6.06446 15.1959C5.92688 12.7346 5.9544 10.2823 6.70649 7.89365C7.34852 5.86829 9.81574 4.23346 12.4205 4.64217C14.8786 5.03271 16.5937 7.049 16.6029 9.51031C16.6029 9.79187 16.5662 10.0825 16.557 10.3641ZM15.8692 10.4912C15.915 10.2823 15.9884 10.0734 15.97 9.84636C16.0526 9.1561 15.9242 8.50217 15.6765 7.86641C15.0253 6.2225 13.3469 5.10537 11.5859 5.15986C9.65982 5.22344 7.71539 6.3769 7.17425 8.36594C6.57808 10.5548 6.56891 12.789 6.64228 15.0324C6.65146 15.3594 6.84406 15.3503 7.07336 15.2594C7.29348 15.2594 7.50444 15.2776 7.70622 15.1777C7.9722 15.1414 8.24736 15.1232 8.51334 15.0687C10.2376 14.7418 11.9344 14.3421 13.5303 13.5701C14.8419 12.9253 15.5848 11.8808 15.8692 10.4912Z" fill="#F25854"/>
<path d="M15.8692 10.4916C13.9522 9.10202 11.6318 9.37449 10.0634 10.5007C9.43051 10.9548 9.05447 11.6178 8.72428 12.2899C8.27486 13.2072 7.95385 14.1791 7.69704 15.169C7.49526 15.2689 7.27513 15.2508 7.06418 15.2508C7.43105 13.7068 7.91716 12.2173 8.85269 10.9094C9.67815 9.76503 10.8797 9.23826 12.2371 9.02936C13.5762 8.82955 14.8144 9.12927 15.9609 9.84678C15.9976 10.0738 15.9242 10.2827 15.8692 10.4916Z" fill="#63C0D6"/>
<path d="M23.5 12C23.5 18.3513 18.3513 23.5 12 23.5C5.64874 23.5 0.500015 18.3513 0.500015 12C0.500015 5.64873 5.64874 0.5 12 0.5C18.3513 0.5 23.5 5.64873 23.5 12Z" stroke="white" stroke-opacity="0.3"/>
</svg>
