<svg width="24" height="24" viewBox="0 0 24 24" fill="none" xmlns="http://www.w3.org/2000/svg">
<path d="M12 24C18.6274 24 24 18.6274 24 12C24 5.37258 18.6274 0 12 0C5.37258 0 0 5.37258 0 12C0 18.6274 5.37258 24 12 24Z" fill="black"/>
<path d="M23.5 12C23.5 18.3513 18.3513 23.5 12 23.5C5.64873 23.5 0.5 18.3513 0.5 12C0.5 5.64873 5.64873 0.5 12 0.5C18.3513 0.5 23.5 5.64873 23.5 12Z" stroke="white" stroke-opacity="0.3"/>
<rect x="6.35205" y="5.13672" width="11.296" height="3.59418" fill="white"/>
<rect x="6.35205" y="10.2705" width="11.296" height="3.59418" fill="#E7397A"/>
<rect x="6.35205" y="15.4062" width="11.296" height="3.59418" fill="white"/>
</svg>
