<svg width="24" height="24" viewBox="0 0 24 24" fill="none" xmlns="http://www.w3.org/2000/svg">
<path d="M12 24C18.6274 24 24 18.6274 24 12C24 5.37258 18.6274 0 12 0C5.37258 0 0 5.37258 0 12C0 18.6274 5.37258 24 12 24Z" fill="#00B8B8"/>
<path d="M23.5 12C23.5 18.3513 18.3513 23.5 12 23.5C5.64873 23.5 0.5 18.3513 0.5 12C0.5 5.64873 5.64873 0.5 12 0.5C18.3513 0.5 23.5 5.64873 23.5 12Z" stroke="white" stroke-opacity="0.3"/>
<path d="M13.7213 15.1379C13.7213 13.046 7.32787 13.2069 7.32787 9.02299C7.32787 6.77012 9.29508 5 12.2459 5C14.541 5 16.0164 5.96552 16.5082 6.6092L14.541 8.86207C14.2131 8.37931 13.5574 7.57471 12.082 7.57471C11.0984 7.57471 10.6066 8.05747 10.6066 8.86207C10.6066 11.1149 17 10.7931 17 14.977C17 17.069 15.3607 19 11.7541 19C9.13115 19 7.4918 17.8736 7 17.3908L8.63934 14.977C9.29508 15.6207 10.4426 16.5862 12.082 16.5862C13.2295 16.4253 13.7213 15.7816 13.7213 15.1379Z" fill="white"/>
</svg>
