<svg width="480" height="480" viewBox="0 0 480 480" fill="none" xmlns="http://www.w3.org/2000/svg">
<mask id="mask0-020694" mask-type="alpha" maskUnits="userSpaceOnUse" x="0" y="0" width="480" height="480">
<circle cx="240" cy="240" r="240" fill="url(#paint0_linear-825877)"/>
</mask>
<g mask="url(#mask0-020694)">
<circle cx="240" cy="240" r="240" fill="#31D8A4"/>
<circle cx="240" cy="240" r="208" fill="white"/>
</g>
<circle cx="240" cy="240" r="184" fill="white"/>
<path d="M377.4 243.111C377.4 231.6 376.466 223.2 374.444 214.489H243V266.444H320.155C318.6 279.356 310.2 298.8 291.533 311.866L291.271 313.606L332.831 345.802L335.711 346.089C362.155 321.667 377.4 285.733 377.4 243.111Z" fill="#4285F4"/>
<path d="M243 380C280.799 380 312.532 367.555 335.711 346.089L291.533 311.866C279.711 320.111 263.844 325.866 243 325.866C205.978 325.866 174.556 301.445 163.355 267.689L161.713 267.829L118.498 301.273L117.933 302.844C140.955 348.577 188.244 380 243 380Z" fill="#34A853"/>
<path d="M163.355 267.689C160.399 258.978 158.689 249.644 158.689 240C158.689 230.355 160.399 221.022 163.199 212.311L163.121 210.455L119.365 176.474L117.933 177.155C108.444 196.133 103 217.444 103 240C103 262.555 108.444 283.865 117.933 302.843L163.355 267.689Z" fill="#FBBC05"/>
<path d="M243 154.133C269.288 154.133 287.021 165.488 297.133 174.978L336.644 136.4C312.378 113.844 280.799 100 243 100C188.244 100 140.955 131.422 117.933 177.155L163.199 212.311C174.556 178.555 205.978 154.133 243 154.133Z" fill="#EB4335"/>
<defs>
<linearGradient id="paint0_linear-825877" x1="240" y1="0" x2="240" y2="701.818" gradientUnits="userSpaceOnUse">
<stop stop-color="#08021E"/>
<stop offset="1" stop-color="#1F0777"/>
</linearGradient>
</defs>
</svg>