<svg width="256" height="256" viewBox="0 0 256 256" fill="none" xmlns="http://www.w3.org/2000/svg">
<g clip-path="url(#clip0)">
<circle cx="127.998" cy="127.946" r="128.002" fill="#EDF0F2"/>
<path d="M209.259 226.845C189.699 242.917 165.812 252.828 140.619 255.324C106.836 258.671 73.1073 248.461 46.8525 226.939C20.5977 205.418 3.96753 174.349 0.620392 140.566C-1.87568 115.373 3.15488 90.0056 15.0759 67.6717C26.997 45.3377 45.2731 27.0404 67.5932 15.0933C89.9133 3.14633 115.275 -1.91371 140.471 0.553076C165.667 3.01987 189.565 12.9027 209.144 28.9518L183.325 60.4499C169.976 49.5073 153.681 42.769 136.502 41.0871C119.323 39.4052 102.031 42.8552 86.813 51.0009C71.5948 59.1466 59.1338 71.6221 51.0058 86.8497C42.8778 102.077 39.4479 119.373 41.1498 136.55C43.4319 159.584 54.7706 180.768 72.6716 195.441C90.5726 210.115 113.569 217.076 136.603 214.794C153.78 213.092 170.067 206.335 183.404 195.377L209.259 226.845Z" fill="url(#paint0_linear)"/>
<path d="M127.998 240.553C190.19 240.553 240.606 190.137 240.606 127.946C240.606 65.7542 190.19 15.3382 127.998 15.3382C65.807 15.3382 15.391 65.7542 15.391 127.946C15.391 190.137 65.807 240.553 127.998 240.553Z" fill="white"/>
<path d="M100.144 140.252L107.335 132.749L98.3949 120.584L87.0118 104.343C82.9904 111.264 80.6847 119.319 80.6847 127.919C80.6847 142.166 87.0118 154.921 96.9908 163.488L111.44 153.191C106.525 150.104 102.566 145.609 100.144 140.252Z" fill="#283947"/>
<path d="M115.75 100.144L123.252 107.335L135.417 98.3946L151.658 87.0115C144.738 82.99 136.682 80.6843 128.082 80.6843C113.836 80.6843 101.08 87.0115 92.5136 96.9904L102.81 111.439C105.897 106.525 110.392 102.566 115.75 100.144Z" fill="#283947"/>
<path d="M148.665 123.252L157.606 135.417L168.988 151.658C173.01 144.737 175.316 136.682 175.316 128.082C175.316 113.835 168.988 101.08 159.01 92.5132L144.561 102.81C149.475 105.897 153.434 110.392 155.856 115.75L148.665 123.252Z" fill="#283947"/>
<path d="M163.487 159.01L153.191 144.561C150.103 149.476 145.608 153.435 140.251 155.857L132.748 148.665L120.583 157.606L104.342 168.989C111.263 173.01 119.318 175.316 127.918 175.316C142.165 175.316 154.92 168.989 163.487 159.01Z" fill="#283947"/>
</g>
<defs>
<linearGradient id="paint0_linear" x1="95.998" y1="13.2772" x2="136.136" y2="235.812" gradientUnits="userSpaceOnUse">
<stop stop-color="#27D3A2"/>
<stop offset="1" stop-color="#9388FD"/>
</linearGradient>
<clipPath id="clip0">
<rect width="256" height="256" fill="white"/>
</clipPath>
</defs>
</svg>
