<svg width="24" height="24" viewBox="0 0 24 24" fill="none" xmlns="http://www.w3.org/2000/svg">
<path d="M12 24C18.6274 24 24 18.6274 24 12C24 5.37258 18.6274 0 12 0C5.37258 0 0 5.37258 0 12C0 18.6274 5.37258 24 12 24Z" fill="#FF671D"/>
<path d="M23.5 12C23.5 18.3513 18.3513 23.5 12 23.5C5.64873 23.5 0.5 18.3513 0.5 12C0.5 5.64873 5.64873 0.5 12 0.5C18.3513 0.5 23.5 5.64873 23.5 12Z" stroke="black" stroke-opacity="0.097"/>
<path d="M18.6468 5.04486C18.6468 5.04486 15.2875 5.97009 14.0223 6.33037C12.7571 6.69066 11.9672 9.40207 11.9604 9.42744L8.2392 10.4711C8.2392 10.4711 6.88603 10.74 6.88603 12.1389C6.88603 13.4667 8.2392 12.966 8.2392 12.966C8.2392 12.966 8.88703 12.7968 10.1522 12.4349C11.4175 12.0729 11.9553 9.45112 11.9604 9.42744L18.6468 7.56683C18.6468 7.56683 19.9999 7.2759 19.9999 5.87537C20.0067 4.54588 18.6468 5.04486 18.6468 5.04486Z" fill="white"/>
<path d="M5.27579 18.9083C5.27579 18.9083 8.88537 17.8934 10.1506 17.5314C11.4158 17.1695 11.9537 14.5511 11.9604 14.5257L15.6817 13.4821C15.6817 13.4821 17.0348 13.2131 17.0348 11.8143C17.0348 10.4865 15.6817 10.9584 15.6817 10.9584C15.6817 10.9584 15.0338 11.1276 13.7686 11.4912C12.5034 11.8549 11.9655 14.502 11.9604 14.5257L5.27579 16.3863C5.27579 16.3863 3.92262 16.6773 3.92262 18.0778C3.91416 19.4073 5.27579 18.9083 5.27579 18.9083Z" fill="white"/>
</svg>
