<?xml version="1.0" encoding="UTF-8"?><svg id="a" xmlns="http://www.w3.org/2000/svg" xmlns:xlink="http://www.w3.org/1999/xlink" viewBox="0 0 244.67 244.67"><defs><style>.q,.r{fill:#fff;}.s{fill:#02325a;}.r{fill-rule:evenodd;}.t{opacity:.38;}.u{fill:none;}.v{fill:#0087f3;}.w{mask:url(#d);}</style><mask id="d" x=".42" y=".32" width="243.07" height="243.91" maskUnits="userSpaceOnUse"><g id="e"><polygon id="f" class="r" points=".42 .32 243.49 .32 243.49 244.24 .42 244.24 .42 .32"/></g></mask></defs><g><g id="b"><g transform="translate(0.144928, 0.000000)"><g id="c" transform="translate(0.100966, 0.104348)"><g class="w"><path id="g" class="s" d="M243.49,122.28c0,67.35-54.41,121.96-121.53,121.96S.42,189.63,.42,122.28,54.84,.32,121.96,.32s121.53,54.6,121.53,121.96"/></g></g></g></g><g id="h"><g transform="translate(0.144928, 0.000000)"><g id="i" transform="translate(0.100966, 0.104348)"><path id="j" class="u" d="M243.49,122.28c0,67.35-54.41,121.96-121.53,121.96S.42,189.63,.42,122.28,54.84,.32,121.96,.32s121.53,54.6,121.53,121.96"/></g></g></g></g><path class="t" d="M243.49,122.28c0,66.56-53.14,120.67-119.19,121.92L27.16,148.11l2.04-6.09,3.21-9.93-.64-9.81,.96-12.8,2.73-4.97,8.49-1.92,21.91,2.96,16.89,17.16,7.84-7.3,12.93-17.44,21.16,21.78,4.4-9.31,14.27-6.89,9.93-.64,13.67,8.9,1.55-7.38,22.18,22.2,8.2-10.5,23.2-18.16,21.37,21.37c.03,.98,.04,1.96,.04,2.94Z"/><g><g id="k"><g transform="translate(0.144928, 0.000000)"><g id="l" transform="translate(0.100966, 0.104348)"><path id="m" class="u" d="M243.49,122.28c0,67.35-54.41,121.96-121.53,121.96S.42,189.63,.42,122.28,54.84,.32,121.96,.32s121.53,54.6,121.53,121.96"/></g></g></g><g id="n"><g transform="translate(0.144928, 0.000000)"><g id="o" transform="translate(0.100966, 0.104348)"><path id="p" class="u" d="M243.49,122.28c0,67.35-54.41,121.96-121.53,121.96S.42,189.63,.42,122.28,54.84,.32,121.96,.32s121.53,54.6,121.53,121.96"/></g></g></g></g><g><path class="q" d="M71.66,123.34c0,4.4-.68,8.24-2.05,11.51-1.37,3.27-3.31,5.99-5.83,8.14-2.52,2.15-5.58,3.76-9.2,4.84-3.62,1.07-7.67,1.61-12.17,1.61-2.05,0-4.45-.09-7.18-.26-2.74-.17-5.42-.52-8.06-1.06v-49.48c2.64-.49,5.39-.82,8.25-.99,2.86-.17,5.31-.26,7.37-.26,4.35,0,8.29,.49,11.84,1.47,3.54,.98,6.58,2.52,9.13,4.62,2.54,2.1,4.5,4.79,5.86,8.06,1.37,3.27,2.05,7.21,2.05,11.8Zm-33.06,16.13c.54,.05,1.16,.09,1.87,.11,.71,.02,1.55,.04,2.53,.04,5.72,0,9.96-1.44,12.72-4.33,2.76-2.88,4.14-6.87,4.14-11.95s-1.32-9.36-3.96-12.1c-2.64-2.74-6.82-4.1-12.54-4.1-.78,0-1.59,.01-2.42,.04-.83,.03-1.61,.09-2.35,.18v32.11Z"/><path class="q" d="M111.61,148.78c-.57-1.77-1.17-3.58-1.82-5.44-.65-1.86-1.3-3.71-1.94-5.56h-19.84c-.64,1.85-1.28,3.71-1.93,5.57-.65,1.86-1.25,3.67-1.8,5.42h-11.88c1.91-5.47,3.73-10.53,5.44-15.17s3.39-9.02,5.04-13.12c1.64-4.11,3.26-8,4.85-11.69,1.59-3.69,3.25-7.29,4.96-10.81h10.84c1.67,3.52,3.31,7.12,4.93,10.81,1.62,3.69,3.25,7.59,4.9,11.69,1.64,4.1,3.33,8.48,5.04,13.12s3.54,9.7,5.45,15.17h-12.25Zm-13.74-39.29c-.26,.74-.63,1.74-1.12,3.01-.49,1.27-1.05,2.74-1.68,4.4-.63,1.66-1.33,3.5-2.11,5.5s-1.56,4.1-2.36,6.29h14.53c-.78-2.2-1.53-4.31-2.26-6.31s-1.42-3.84-2.08-5.51c-.66-1.66-1.23-3.13-1.73-4.4-.5-1.27-.89-2.26-1.2-2.98Z"/><path class="q" d="M175.09,123.34c0,4.35-.65,8.17-1.94,11.47-1.3,3.3-3.07,6.06-5.31,8.28-2.25,2.22-4.92,3.9-8.03,5.02-3.1,1.12-6.44,1.69-10.01,1.69s-6.74-.56-9.82-1.69-5.77-2.8-8.06-5.02c-2.3-2.22-4.1-4.99-5.42-8.28-1.32-3.3-1.98-7.12-1.98-11.47s.68-8.17,2.05-11.47c1.37-3.3,3.21-6.07,5.54-8.32,2.32-2.25,5.01-3.93,8.06-5.06,3.05-1.12,6.27-1.69,9.64-1.69s6.74,.56,9.82,1.69c3.08,1.12,5.77,2.81,8.06,5.06,2.3,2.25,4.1,5.02,5.42,8.32,1.32,3.3,1.98,7.12,1.98,11.47Zm-38.78,0c0,2.49,.3,4.74,.92,6.74,.61,2,1.49,3.73,2.64,5.17,1.15,1.44,2.55,2.55,4.22,3.34,1.66,.78,3.57,1.17,5.72,1.17s4-.39,5.68-1.17c1.69-.78,3.1-1.89,4.25-3.34,1.15-1.44,2.03-3.16,2.64-5.17,.61-2,.92-4.25,.92-6.74s-.31-4.75-.92-6.78c-.61-2.03-1.49-3.76-2.64-5.2-1.15-1.44-2.57-2.55-4.25-3.34-1.69-.78-3.58-1.17-5.68-1.17s-4.06,.4-5.72,1.21c-1.66,.81-3.07,1.93-4.22,3.37-1.15,1.44-2.03,3.18-2.64,5.2-.61,2.03-.92,4.26-.92,6.71Z"/><path class="v" d="M209.21,148.78c-1.43-2.83-3-5.69-4.7-8.6-1.7-2.9-3.65-5.36-5.86-7.36-.68,.76-1.55,1.81-2.6,3.15-1.05,1.34-2.1,2.77-3.15,4.29-1.05,1.51-2.03,3.08-2.95,4.7-.91,1.62-1.59,2.9-2.04,3.82h-13.05c2.14-3.97,4.66-8.06,7.57-12.29,2.91-4.22,6.16-8.71,9.74-13.46l-16.58-25.06h13.86l9.68,14.71,9.89-14.71h13.05l-16.49,24.52c4.32,5.42,7.88,10.38,10.68,14.9,2.79,4.51,5,8.31,6.62,11.39h-13.68Z"/></g></svg>