<?xml version="1.0" encoding="utf-8"?>
<!-- Generator: Adobe Illustrator 26.0.2, SVG Export Plug-In . SVG Version: 6.00 Build 0)  -->
<svg version="1.1" xmlns="http://www.w3.org/2000/svg" xmlns:xlink="http://www.w3.org/1999/xlink" x="0px" y="0px"
	 viewBox="0 0 1920 1920" style="enable-background:new 0 0 1920 1920;" xml:space="preserve">
<style type="text/css">
	.st0{fill:#00B398;}
</style>
<g id="Warstwa_2">
	<path id="circle2521-6-6-5" class="st0" d="M960,0C429.8,0,0,429.8,0,960c0,530.2,429.8,960,960,960c530.2,0,960-429.8,960-960
		C1920,429.8,1490.2,0,960,0z"/>
</g>
<g id="svg5" inkscape:export-xdpi="86" inkscape:version="1.1 (c68e22c387, 2021-05-23)" xmlns:inkscape="http://www.inkscape.org/namespaces/inkscape" xmlns:sodipodi="http://sodipodi.sourceforge.net/DTD/sodipodi-0.dtd" xmlns:svg="http://www.w3.org/2000/svg">
	
		<sodipodi:namedview  bordercolor="#666666" borderopacity="1.0" id="namedview7" inkscape:current-layer="layer10" inkscape:cx="3456" inkscape:cy="840" inkscape:document-units="mm" inkscape:pagecheckerboard="0" inkscape:pageopacity="0.0" inkscape:pageshadow="2" inkscape:window-height="1346" inkscape:window-maximized="1" inkscape:window-width="2560" inkscape:window-x="-11" inkscape:window-y="-11" inkscape:zoom="0.125" pagecolor="#ffffff" showgrid="false" showguides="false" units="px" width="1920px">
		</sodipodi:namedview>
	<g id="layer2" inkscape:groupmode="layer" inkscape:label="BLACK">
	</g>
	<g id="layer7" inkscape:groupmode="layer" inkscape:label="Z jasny">
	</g>
	<g id="layer9" inkscape:groupmode="layer" inkscape:label="Z ciemny">
	</g>
	<g id="layer5" inkscape:groupmode="layer" inkscape:label="Logo">
	</g>
	<g id="layer1" inkscape:groupmode="layer" inkscape:label="Logo 2">
		<g id="g9563" transform="translate(100.93434,113.37573)">
		</g>
	</g>
	<g>
		<g>
			<ellipse cx="960" cy="447.7" rx="233" ry="135.4"/>
			<ellipse cx="960" cy="1472.3" rx="233" ry="135.4"/>
		</g>
		<g>
			<ellipse transform="matrix(0.4999 -0.8661 0.8661 0.4999 -351.4258 799.1625)" cx="516.3" cy="703.9" rx="233" ry="135.4"/>
			<ellipse transform="matrix(0.4999 -0.8661 0.8661 0.4999 -351.2731 1823.8669)" cx="1403.7" cy="1216.1" rx="233" ry="135.4"/>
		</g>
		<g>
			<ellipse transform="matrix(0.8662 -0.4997 0.4997 0.8662 -538.6067 420.7242)" cx="516.3" cy="1216" rx="135.4" ry="233"/>
			<ellipse transform="matrix(0.8662 -0.4997 0.4997 0.8662 -163.9507 795.7184)" cx="1403.7" cy="704" rx="135.4" ry="233"/>
		</g>
	</g>
</g>
</svg>
