<svg xmlns="http://www.w3.org/2000/svg" xmlns:xlink="http://www.w3.org/1999/xlink" width="288" viewBox="0 0 288 288" height="288" version="1.0"><defs><clipPath id="a"><path d="M 4.1875 4.1875 L 283.9375 4.1875 L 283.9375 283.9375 L 4.1875 283.9375 Z M 4.1875 4.1875"/></clipPath><clipPath id="b"><path d="M 283.9375 144.0625 C 283.9375 146.351562 283.882812 148.640625 283.769531 150.925781 C 283.65625 153.210938 283.488281 155.496094 283.265625 157.773438 C 283.039062 160.050781 282.761719 162.324219 282.425781 164.585938 C 282.089844 166.851562 281.695312 169.105469 281.25 171.351562 C 280.804688 173.597656 280.300781 175.828125 279.746094 178.050781 C 279.191406 180.269531 278.578125 182.476562 277.914062 184.667969 C 277.25 186.855469 276.53125 189.03125 275.761719 191.183594 C 274.988281 193.339844 274.167969 195.476562 273.289062 197.589844 C 272.414062 199.707031 271.488281 201.796875 270.507812 203.867188 C 269.53125 205.9375 268.5 207.980469 267.421875 210 C 266.34375 212.019531 265.214844 214.007812 264.039062 215.972656 C 262.859375 217.9375 261.636719 219.871094 260.363281 221.773438 C 259.09375 223.675781 257.773438 225.546875 256.410156 227.386719 C 255.046875 229.226562 253.640625 231.027344 252.1875 232.796875 C 250.734375 234.566406 249.242188 236.300781 247.703125 237.996094 C 246.167969 239.691406 244.589844 241.351562 242.96875 242.96875 C 241.351562 244.589844 239.691406 246.167969 237.996094 247.703125 C 236.300781 249.242188 234.566406 250.734375 232.796875 252.1875 C 231.027344 253.640625 229.226562 255.046875 227.386719 256.410156 C 225.546875 257.773438 223.675781 259.09375 221.773438 260.363281 C 219.871094 261.636719 217.9375 262.859375 215.972656 264.039062 C 214.007812 265.214844 212.019531 266.34375 210 267.421875 C 207.980469 268.5 205.9375 269.53125 203.867188 270.507812 C 201.796875 271.488281 199.707031 272.414062 197.589844 273.289062 C 195.476562 274.167969 193.339844 274.988281 191.183594 275.761719 C 189.03125 276.53125 186.855469 277.25 184.667969 277.914062 C 182.476562 278.578125 180.269531 279.191406 178.050781 279.746094 C 175.828125 280.300781 173.597656 280.804688 171.351562 281.25 C 169.105469 281.695312 166.851562 282.089844 164.585938 282.425781 C 162.324219 282.761719 160.050781 283.039062 157.773438 283.265625 C 155.496094 283.488281 153.210938 283.65625 150.925781 283.769531 C 148.640625 283.882812 146.351562 283.9375 144.0625 283.9375 C 141.773438 283.9375 139.484375 283.882812 137.199219 283.769531 C 134.914062 283.65625 132.632812 283.488281 130.351562 283.265625 C 128.074219 283.039062 125.804688 282.761719 123.539062 282.425781 C 121.273438 282.089844 119.019531 281.695312 116.773438 281.25 C 114.53125 280.804688 112.296875 280.300781 110.074219 279.746094 C 107.855469 279.191406 105.648438 278.578125 103.460938 277.914062 C 101.269531 277.25 99.097656 276.53125 96.941406 275.761719 C 94.785156 274.988281 92.648438 274.167969 90.535156 273.289062 C 88.421875 272.414062 86.328125 271.488281 84.257812 270.507812 C 82.1875 269.53125 80.144531 268.5 78.125 267.421875 C 76.105469 266.34375 74.117188 265.214844 72.152344 264.039062 C 70.1875 262.859375 68.257812 261.636719 66.351562 260.363281 C 64.449219 259.09375 62.578125 257.773438 60.738281 256.410156 C 58.902344 255.046875 57.097656 253.640625 55.328125 252.1875 C 53.558594 250.734375 51.824219 249.242188 50.128906 247.703125 C 48.433594 246.167969 46.773438 244.589844 45.15625 242.96875 C 43.539062 241.351562 41.960938 239.691406 40.421875 237.996094 C 38.886719 236.300781 37.390625 234.566406 35.9375 232.796875 C 34.484375 231.027344 33.078125 229.226562 31.714844 227.386719 C 30.351562 225.546875 29.03125 223.675781 27.761719 221.773438 C 26.488281 219.871094 25.265625 217.9375 24.089844 215.972656 C 22.910156 214.007812 21.785156 212.019531 20.703125 210 C 19.625 207.980469 18.597656 205.9375 17.617188 203.867188 C 16.636719 201.796875 15.710938 199.707031 14.835938 197.589844 C 13.960938 195.476562 13.136719 193.339844 12.363281 191.183594 C 11.59375 189.03125 10.875 186.855469 10.210938 184.667969 C 9.546875 182.476562 8.9375 180.269531 8.378906 178.050781 C 7.824219 175.828125 7.320312 173.597656 6.875 171.351562 C 6.429688 169.105469 6.039062 166.851562 5.703125 164.585938 C 5.367188 162.324219 5.085938 160.050781 4.863281 157.773438 C 4.636719 155.496094 4.46875 153.210938 4.355469 150.925781 C 4.242188 148.640625 4.1875 146.351562 4.1875 144.0625 C 4.1875 141.773438 4.242188 139.484375 4.355469 137.199219 C 4.46875 134.914062 4.636719 132.632812 4.863281 130.351562 C 5.085938 128.074219 5.367188 125.804688 5.703125 123.539062 C 6.039062 121.273438 6.429688 119.019531 6.875 116.773438 C 7.320312 114.53125 7.824219 112.296875 8.378906 110.074219 C 8.9375 107.855469 9.546875 105.648438 10.210938 103.460938 C 10.875 101.269531 11.59375 99.097656 12.363281 96.941406 C 13.136719 94.785156 13.960938 92.648438 14.835938 90.535156 C 15.710938 88.421875 16.636719 86.328125 17.617188 84.257812 C 18.597656 82.1875 19.625 80.144531 20.703125 78.125 C 21.785156 76.105469 22.910156 74.117188 24.089844 72.152344 C 25.265625 70.1875 26.488281 68.257812 27.761719 66.351562 C 29.03125 64.449219 30.351562 62.578125 31.714844 60.738281 C 33.078125 58.902344 34.484375 57.097656 35.9375 55.328125 C 37.390625 53.558594 38.886719 51.824219 40.421875 50.128906 C 41.960938 48.433594 43.539062 46.773438 45.15625 45.15625 C 46.773438 43.539062 48.433594 41.960938 50.128906 40.421875 C 51.824219 38.886719 53.558594 37.390625 55.328125 35.9375 C 57.097656 34.484375 58.902344 33.078125 60.738281 31.714844 C 62.578125 30.351562 64.449219 29.03125 66.351562 27.761719 C 68.257812 26.488281 70.1875 25.265625 72.152344 24.089844 C 74.117188 22.910156 76.105469 21.785156 78.125 20.703125 C 80.144531 19.625 82.1875 18.597656 84.257812 17.617188 C 86.328125 16.636719 88.421875 15.710938 90.535156 14.835938 C 92.648438 13.960938 94.785156 13.136719 96.941406 12.363281 C 99.097656 11.59375 101.269531 10.875 103.460938 10.210938 C 105.648438 9.546875 107.855469 8.9375 110.074219 8.378906 C 112.296875 7.824219 114.53125 7.320312 116.773438 6.875 C 119.019531 6.429688 121.273438 6.039062 123.539062 5.703125 C 125.804688 5.367188 128.074219 5.085938 130.351562 4.863281 C 132.632812 4.636719 134.914062 4.46875 137.199219 4.355469 C 139.484375 4.242188 141.773438 4.1875 144.0625 4.1875 C 146.351562 4.1875 148.640625 4.242188 150.925781 4.355469 C 153.210938 4.46875 155.496094 4.636719 157.773438 4.863281 C 160.050781 5.085938 162.324219 5.367188 164.585938 5.703125 C 166.851562 6.039062 169.105469 6.429688 171.351562 6.875 C 173.597656 7.320312 175.828125 7.824219 178.050781 8.378906 C 180.269531 8.9375 182.476562 9.546875 184.667969 10.210938 C 186.855469 10.875 189.03125 11.59375 191.183594 12.363281 C 193.339844 13.136719 195.476562 13.960938 197.589844 14.835938 C 199.707031 15.710938 201.796875 16.636719 203.867188 17.617188 C 205.9375 18.597656 207.980469 19.625 210 20.703125 C 212.019531 21.785156 214.007812 22.910156 215.972656 24.089844 C 217.9375 25.265625 219.871094 26.488281 221.773438 27.761719 C 223.675781 29.03125 225.546875 30.351562 227.386719 31.714844 C 229.226562 33.078125 231.027344 34.484375 232.796875 35.9375 C 234.566406 37.390625 236.300781 38.886719 237.996094 40.421875 C 239.691406 41.960938 241.351562 43.539062 242.96875 45.15625 C 244.589844 46.773438 246.167969 48.433594 247.703125 50.128906 C 249.242188 51.824219 250.734375 53.558594 252.1875 55.328125 C 253.640625 57.097656 255.046875 58.902344 256.410156 60.738281 C 257.773438 62.578125 259.09375 64.449219 260.363281 66.351562 C 261.636719 68.257812 262.859375 70.1875 264.039062 72.152344 C 265.214844 74.117188 266.34375 76.105469 267.421875 78.125 C 268.5 80.144531 269.53125 82.1875 270.507812 84.257812 C 271.488281 86.328125 272.414062 88.421875 273.289062 90.535156 C 274.167969 92.648438 274.988281 94.785156 275.761719 96.941406 C 276.53125 99.097656 277.25 101.269531 277.914062 103.460938 C 278.578125 105.648438 279.191406 107.855469 279.746094 110.074219 C 280.300781 112.296875 280.804688 114.53125 281.25 116.773438 C 281.695312 119.019531 282.089844 121.273438 282.425781 123.539062 C 282.761719 125.804688 283.039062 128.074219 283.265625 130.351562 C 283.488281 132.632812 283.65625 134.914062 283.769531 137.199219 C 283.882812 139.484375 283.9375 141.773438 283.9375 144.0625 Z M 283.9375 144.0625"/></clipPath><clipPath id="d"><path d="M 4.1875 3.464844 L 286.1875 3.464844 L 286.1875 285.464844 L 4.1875 285.464844 Z M 4.1875 3.464844"/></clipPath><linearGradient x1="1770.926" gradientTransform="matrix(0 2.18044 -2.18044 0 677.908 -3857.203)" xmlns:xlink="http://www.w3.org/1999/xlink" y1="244.834" x2="1899.226" gradientUnits="userSpaceOnUse" y2="244.834" xlink:type="simple" xlink:actuate="onLoad" id="c" xlink:show="other"><stop stop-color="#1053B7" offset="0"/><stop stop-color="#1153B7" offset=".004"/><stop stop-color="#1353B6" offset=".008"/><stop stop-color="#1454B6" offset=".012"/><stop stop-color="#1654B5" offset=".016"/><stop stop-color="#1754B5" offset=".02"/><stop stop-color="#1955B5" offset=".023"/><stop stop-color="#1A55B4" offset=".027"/><stop stop-color="#1B55B4" offset=".031"/><stop stop-color="#1D56B3" offset=".035"/><stop stop-color="#1E56B3" offset=".039"/><stop stop-color="#2056B3" offset=".043"/><stop stop-color="#2156B2" offset=".047"/><stop stop-color="#2257B2" offset=".051"/><stop stop-color="#2457B1" offset=".055"/><stop stop-color="#2557B1" offset=".059"/><stop stop-color="#2758B1" offset=".063"/><stop stop-color="#2858B0" offset=".066"/><stop stop-color="#2958B0" offset=".07"/><stop stop-color="#2B59AF" offset=".074"/><stop stop-color="#2C59AF" offset=".078"/><stop stop-color="#2E59AF" offset=".082"/><stop stop-color="#2F59AE" offset=".086"/><stop stop-color="#305AAE" offset=".09"/><stop stop-color="#325AAD" offset=".094"/><stop stop-color="#335AAD" offset=".098"/><stop stop-color="#355BAD" offset=".102"/><stop stop-color="#365BAC" offset=".105"/><stop stop-color="#385BAC" offset=".109"/><stop stop-color="#395BAB" offset=".113"/><stop stop-color="#3A5CAB" offset=".117"/><stop stop-color="#3C5CAA" offset=".121"/><stop stop-color="#3D5CAA" offset=".125"/><stop stop-color="#3F5DAA" offset=".129"/><stop stop-color="#405DA9" offset=".133"/><stop stop-color="#415DA9" offset=".137"/><stop stop-color="#435EA8" offset=".141"/><stop stop-color="#445EA8" offset=".145"/><stop stop-color="#465EA8" offset=".148"/><stop stop-color="#475EA7" offset=".152"/><stop stop-color="#485FA7" offset=".156"/><stop stop-color="#4A5FA6" offset=".16"/><stop stop-color="#4B5FA6" offset=".164"/><stop stop-color="#4D60A6" offset=".168"/><stop stop-color="#4E60A5" offset=".172"/><stop stop-color="#4F60A5" offset=".176"/><stop stop-color="#5161A4" offset=".18"/><stop stop-color="#5261A4" offset=".184"/><stop stop-color="#5461A4" offset=".188"/><stop stop-color="#5561A3" offset=".191"/><stop stop-color="#5662A3" offset=".195"/><stop stop-color="#5862A2" offset=".199"/><stop stop-color="#5962A2" offset=".203"/><stop stop-color="#5B63A2" offset=".207"/><stop stop-color="#5C63A1" offset=".211"/><stop stop-color="#5E63A1" offset=".215"/><stop stop-color="#5F63A0" offset=".219"/><stop stop-color="#6064A0" offset=".223"/><stop stop-color="#6264A0" offset=".227"/><stop stop-color="#63649F" offset=".23"/><stop stop-color="#65659F" offset=".234"/><stop stop-color="#66659E" offset=".238"/><stop stop-color="#67659E" offset=".242"/><stop stop-color="#69669D" offset=".246"/><stop stop-color="#6A669D" offset=".25"/><stop stop-color="#6C669D" offset=".254"/><stop stop-color="#6D669C" offset=".258"/><stop stop-color="#6E679C" offset=".262"/><stop stop-color="#70679B" offset=".266"/><stop stop-color="#71679B" offset=".27"/><stop stop-color="#73689B" offset=".273"/><stop stop-color="#74689A" offset=".277"/><stop stop-color="#75689A" offset=".281"/><stop stop-color="#776999" offset=".285"/><stop stop-color="#786999" offset=".289"/><stop stop-color="#7A6999" offset=".293"/><stop stop-color="#7B6998" offset=".297"/><stop stop-color="#7D6A98" offset=".301"/><stop stop-color="#7E6A97" offset=".305"/><stop stop-color="#7F6A97" offset=".309"/><stop stop-color="#816B97" offset=".313"/><stop stop-color="#826B96" offset=".316"/><stop stop-color="#846B96" offset=".32"/><stop stop-color="#856B95" offset=".324"/><stop stop-color="#866C95" offset=".328"/><stop stop-color="#886C95" offset=".332"/><stop stop-color="#896C94" offset=".336"/><stop stop-color="#8B6D94" offset=".34"/><stop stop-color="#8C6D93" offset=".344"/><stop stop-color="#8D6D93" offset=".348"/><stop stop-color="#8F6E93" offset=".352"/><stop stop-color="#906E92" offset=".355"/><stop stop-color="#926E92" offset=".359"/><stop stop-color="#936E91" offset=".363"/><stop stop-color="#946F91" offset=".367"/><stop stop-color="#966F90" offset=".371"/><stop stop-color="#976F90" offset=".375"/><stop stop-color="#997090" offset=".379"/><stop stop-color="#9A708F" offset=".383"/><stop stop-color="#9C708F" offset=".387"/><stop stop-color="#9D718E" offset=".391"/><stop stop-color="#9E718E" offset=".395"/><stop stop-color="#A0718E" offset=".398"/><stop stop-color="#A1718D" offset=".402"/><stop stop-color="#A3728D" offset=".406"/><stop stop-color="#A4728C" offset=".41"/><stop stop-color="#A5728C" offset=".414"/><stop stop-color="#A7738C" offset=".418"/><stop stop-color="#A8738B" offset=".422"/><stop stop-color="#AA738B" offset=".426"/><stop stop-color="#AB738A" offset=".43"/><stop stop-color="#AC748A" offset=".434"/><stop stop-color="#AE748A" offset=".438"/><stop stop-color="#AF7489" offset=".441"/><stop stop-color="#B17589" offset=".445"/><stop stop-color="#B27588" offset=".449"/><stop stop-color="#B37588" offset=".453"/><stop stop-color="#B57688" offset=".457"/><stop stop-color="#B67687" offset=".461"/><stop stop-color="#B87687" offset=".465"/><stop stop-color="#B97686" offset=".469"/><stop stop-color="#BB7786" offset=".473"/><stop stop-color="#BC7786" offset=".477"/><stop stop-color="#BD7785" offset=".48"/><stop stop-color="#BF7885" offset=".484"/><stop stop-color="#C07884" offset=".488"/><stop stop-color="#C27884" offset=".492"/><stop stop-color="#C37983" offset=".496"/><stop stop-color="#C47983" offset=".5"/><stop stop-color="#C67983" offset=".504"/><stop stop-color="#C77982" offset=".508"/><stop stop-color="#C97A82" offset=".512"/><stop stop-color="#CA7A81" offset=".516"/><stop stop-color="#CB7A81" offset=".52"/><stop stop-color="#CD7B81" offset=".523"/><stop stop-color="#CE7B80" offset=".527"/><stop stop-color="#D07B80" offset=".531"/><stop stop-color="#D17B7F" offset=".535"/><stop stop-color="#D27C7F" offset=".539"/><stop stop-color="#D47C7F" offset=".543"/><stop stop-color="#D57C7E" offset=".547"/><stop stop-color="#D77D7E" offset=".551"/><stop stop-color="#D87D7D" offset=".555"/><stop stop-color="#D97D7D" offset=".559"/><stop stop-color="#DB7E7D" offset=".563"/><stop stop-color="#DC7E7C" offset=".566"/><stop stop-color="#DE7E7C" offset=".57"/><stop stop-color="#DF7E7B" offset=".574"/><stop stop-color="#E17F7B" offset=".578"/><stop stop-color="#E27F7B" offset=".582"/><stop stop-color="#E37F7A" offset=".586"/><stop stop-color="#E5807A" offset=".59"/><stop stop-color="#E68079" offset=".594"/><stop stop-color="#E88079" offset=".598"/><stop stop-color="#E98179" offset=".602"/><stop stop-color="#EA8178" offset=".605"/><stop stop-color="#EC8178" offset=".609"/><stop stop-color="#ED8177" offset=".613"/><stop stop-color="#EF8277" offset=".617"/><stop stop-color="#F08276" offset=".621"/><stop stop-color="#F18276" offset=".625"/><stop stop-color="#F38376" offset=".629"/><stop stop-color="#F48375" offset=".633"/><stop stop-color="#F58476" offset=".637"/><stop stop-color="#F58476" offset=".641"/><stop stop-color="#F58577" offset=".645"/><stop stop-color="#F58677" offset=".648"/><stop stop-color="#F68778" offset=".652"/><stop stop-color="#F68879" offset=".656"/><stop stop-color="#F6897A" offset=".66"/><stop stop-color="#F68A7A" offset=".664"/><stop stop-color="#F68B7B" offset=".668"/><stop stop-color="#F68C7C" offset=".672"/><stop stop-color="#F68D7C" offset=".676"/><stop stop-color="#F68E7D" offset=".68"/><stop stop-color="#F68F7E" offset=".684"/><stop stop-color="#F7907E" offset=".688"/><stop stop-color="#F7917F" offset=".691"/><stop stop-color="#F79280" offset=".695"/><stop stop-color="#F79381" offset=".699"/><stop stop-color="#F79381" offset=".703"/><stop stop-color="#F79482" offset=".707"/><stop stop-color="#F79583" offset=".711"/><stop stop-color="#F79683" offset=".715"/><stop stop-color="#F79784" offset=".719"/><stop stop-color="#F79885" offset=".723"/><stop stop-color="#F89985" offset=".727"/><stop stop-color="#F89A86" offset=".73"/><stop stop-color="#F89B87" offset=".734"/><stop stop-color="#F89C88" offset=".738"/><stop stop-color="#F89D88" offset=".742"/><stop stop-color="#F89E89" offset=".746"/><stop stop-color="#F89F8A" offset=".75"/><stop stop-color="#F8A08A" offset=".754"/><stop stop-color="#F8A18B" offset=".758"/><stop stop-color="#F9A28C" offset=".762"/><stop stop-color="#F9A38C" offset=".766"/><stop stop-color="#F9A38D" offset=".77"/><stop stop-color="#F9A48E" offset=".773"/><stop stop-color="#F9A58F" offset=".777"/><stop stop-color="#F9A68F" offset=".781"/><stop stop-color="#F9A790" offset=".785"/><stop stop-color="#F9A891" offset=".789"/><stop stop-color="#F9A991" offset=".793"/><stop stop-color="#FAAA92" offset=".797"/><stop stop-color="#FAAB93" offset=".801"/><stop stop-color="#FAAC93" offset=".805"/><stop stop-color="#FAAD94" offset=".809"/><stop stop-color="#FAAE95" offset=".813"/><stop stop-color="#FAAF96" offset=".816"/><stop stop-color="#FAB096" offset=".82"/><stop stop-color="#FAB197" offset=".824"/><stop stop-color="#FAB298" offset=".828"/><stop stop-color="#FBB298" offset=".832"/><stop stop-color="#FBB399" offset=".836"/><stop stop-color="#FBB49A" offset=".84"/><stop stop-color="#FBB59A" offset=".844"/><stop stop-color="#FBB69B" offset=".848"/><stop stop-color="#FBB79C" offset=".852"/><stop stop-color="#FBB89D" offset=".855"/><stop stop-color="#FBB99D" offset=".859"/><stop stop-color="#FBBA9E" offset=".863"/><stop stop-color="#FCBB9F" offset=".867"/><stop stop-color="#FCBC9F" offset=".871"/><stop stop-color="#FCBDA0" offset=".875"/><stop stop-color="#FCBEA1" offset=".879"/><stop stop-color="#FCBFA1" offset=".883"/><stop stop-color="#FCC0A2" offset=".887"/><stop stop-color="#FCC1A3" offset=".891"/><stop stop-color="#FCC2A4" offset=".895"/><stop stop-color="#FCC2A4" offset=".898"/><stop stop-color="#FDC3A5" offset=".902"/><stop stop-color="#FDC4A6" offset=".906"/><stop stop-color="#FDC5A6" offset=".91"/><stop stop-color="#FDC6A7" offset=".914"/><stop stop-color="#FDC7A8" offset=".918"/><stop stop-color="#FDC8A8" offset=".922"/><stop stop-color="#FDC9A9" offset=".926"/><stop stop-color="#FDCAAA" offset=".93"/><stop stop-color="#FDCBAB" offset=".934"/><stop stop-color="#FDCCAB" offset=".938"/><stop stop-color="#FECDAC" offset=".941"/><stop stop-color="#FECEAD" offset=".945"/><stop stop-color="#FECFAD" offset=".949"/><stop stop-color="#FED0AE" offset=".953"/><stop stop-color="#FED1AF" offset=".957"/><stop stop-color="#FED2AF" offset=".961"/><stop stop-color="#FED2B0" offset=".965"/><stop stop-color="#FED3B1" offset=".969"/><stop stop-color="#FED4B2" offset=".973"/><stop stop-color="#FFD5B2" offset=".977"/><stop stop-color="#FFD6B3" offset=".98"/><stop stop-color="#FFD7B4" offset=".984"/><stop stop-color="#FFD8B4" offset=".988"/><stop stop-color="#FFD9B5" offset=".992"/><stop stop-color="#FFD9B5" offset="1"/></linearGradient></defs><g clip-path="url(#a)"><g clip-path="url(#b)"><path fill="url(#c)" d="M 283.9375 4.1875 L 4.1875 4.1875 L 4.1875 283.9375 L 283.9375 283.9375 Z M 283.9375 4.1875"/></g></g><g clip-path="url(#d)"><path fill="#032364" d="M 145.140625 285.464844 C 67.457031 285.464844 4.1875 222.191406 4.1875 144.417969 C 4.1875 66.640625 67.457031 3.464844 145.140625 3.464844 C 222.820312 3.464844 286.09375 66.734375 286.09375 144.417969 C 286.1875 222.191406 222.917969 285.464844 145.140625 285.464844 Z M 145.140625 5.851562 C 68.699219 5.851562 6.574219 67.976562 6.574219 144.417969 C 6.574219 220.855469 68.796875 283.078125 145.140625 283.078125 C 221.484375 283.078125 283.800781 220.855469 283.800781 144.417969 C 283.800781 67.976562 221.582031 5.851562 145.140625 5.851562 Z M 145.140625 5.851562"/></g><g fill="#032364"><g><g><path d="M 44.660156 2.226562 C 64.273438 2.226562 79.71875 -10.574219 83.195312 -29.496094 L 62.746094 -29.496094 C 59.265625 -21.425781 52.867188 -16.972656 44.660156 -16.972656 C 33.808594 -16.972656 25.320312 -26.015625 25.320312 -37.5625 C 25.320312 -49.25 33.667969 -58.152344 44.660156 -58.152344 C 52.726562 -58.152344 59.542969 -53.703125 62.746094 -46.328125 L 82.917969 -46.328125 C 79.300781 -64.832031 64.273438 -77.214844 44.796875 -77.214844 C 21.980469 -77.214844 4.730469 -60.242188 4.730469 -37.703125 C 4.730469 -15.164062 21.980469 2.226562 44.660156 2.226562 Z M 44.660156 2.226562" transform="translate(40.276 181.296)"/></g></g></g><g fill="#032364"><g><g><path d="M 130.359375 0 L 115.332031 -97.386719 L 94.1875 -97.386719 L 67.753906 -37.5625 L 41.320312 -97.386719 L 20.3125 -97.386719 L 5.007812 0 L 26.433594 0 L 36.03125 -63.441406 L 65.109375 -0.140625 L 70.257812 -0.140625 L 99.335938 -63.441406 L 108.933594 0 Z M 130.359375 0" transform="translate(127.221 181.296)"/></g></g></g></svg>