<svg width="24" height="24" viewBox="0 0 24 24" fill="none" xmlns="http://www.w3.org/2000/svg">
<path d="M12 24C18.6274 24 24 18.6274 24 12C24 5.37258 18.6274 0 12 0C5.37258 0 0 5.37258 0 12C0 18.6274 5.37258 24 12 24Z" fill="#0D106E"/>
<path d="M23.5 12C23.5 18.3513 18.3513 23.5 12 23.5C5.64873 23.5 0.5 18.3513 0.5 12C0.5 5.64873 5.64873 0.5 12 0.5C18.3513 0.5 23.5 5.64873 23.5 12Z" stroke="black" stroke-opacity="0.097"/>
<path fill-rule="evenodd" clip-rule="evenodd" d="M5 12.0002L12.0025 5L19 12.0021L12.0025 19L5 12.0002ZM7.5766 9.91156C7.28092 10.2443 6.66204 11.0546 6.66204 12.0002C6.66204 12.9496 7.28578 13.7625 7.58007 14.0928L9.09388 15.6078L9.10099 15.6009C9.70702 15.0083 10.7145 14.2294 11.863 14.1701C11.5738 14.4924 10.9362 15.3121 10.9362 16.2713C10.9362 17.2305 11.5738 18.0502 11.863 18.3726L12.0025 18.5188L12.142 18.3726C12.4312 18.0502 13.0688 17.2305 13.0688 16.2713C13.0688 15.3121 12.4312 14.4924 12.142 14.1701C13.295 14.2296 14.3059 15.0144 14.9111 15.6078L16.4606 14.0571L16.4642 14.053C16.7706 13.7009 17.3481 12.9138 17.3481 12.0002C17.3481 11.0832 16.7661 10.2934 16.4606 9.94341L14.9183 8.39989L14.9112 8.40686C14.3058 9.00027 13.295 9.78498 12.142 9.84454C12.4312 9.52215 13.0688 8.7025 13.0688 7.74329C13.0688 6.7841 12.4312 5.96443 12.142 5.64206L12.0025 5.48174L11.863 5.64206C11.5738 5.96443 10.9362 6.7841 10.9362 7.74329C10.9362 8.7025 11.5738 9.52215 11.863 9.84454C10.7055 9.78475 9.69126 8.99411 9.08665 8.39989L7.5766 9.91156ZM7.87275 9.89918C9.74166 9.99808 11.236 12.0002 11.236 12.0002C11.236 12.0002 9.74166 14.0024 7.87275 14.1013C8.16367 13.7763 8.79803 12.9577 8.79803 12.0002C8.79803 11.0428 8.16367 10.2242 7.87275 9.89918ZM16.1375 9.89918C15.8466 10.2242 15.2122 11.0428 15.2122 12.0002C15.2122 12.9577 15.8466 13.7763 16.1375 14.1013C14.2686 14.0024 12.7743 12.0002 12.7743 12.0002C12.7743 12.0002 14.2686 9.99808 16.1375 9.89918Z" fill="white"/>
</svg>
