<svg width="24" height="24" viewBox="0 0 24 24" fill="none" xmlns="http://www.w3.org/2000/svg">
<path d="M12 24C18.6274 24 24 18.6274 24 12C24 5.37258 18.6274 0 12 0C5.37258 0 0 5.37258 0 12C0 18.6274 5.37258 24 12 24Z" fill="url(#paint0_linear)"/>
<path d="M23.5 12C23.5 18.3513 18.3513 23.5 12 23.5C5.64873 23.5 0.5 18.3513 0.5 12C0.5 5.64873 5.64873 0.5 12 0.5C18.3513 0.5 23.5 5.64873 23.5 12Z" stroke="black" stroke-opacity="0.097"/>
<path d="M12.1744 20.8129C12.0644 20.8129 11.946 20.8129 11.8361 20.8129C11.54 20.686 11.244 20.5592 10.948 20.4323C9.39169 19.7303 7.90307 18.9268 6.79507 17.5819C5.81394 16.3978 5.06118 15.0699 5.02734 13.4883C4.9766 11.4837 5.01043 9.47915 5.01889 7.4746C5.01889 6.82333 5.33183 6.4681 5.97464 6.34123C6.37217 6.2651 6.77816 6.23127 7.17568 6.15515C8.83346 5.83374 10.432 5.37701 11.6838 4.15906C11.9629 3.8884 12.2167 3.99835 12.4535 4.22672C12.9441 4.69191 13.5277 5.03023 14.1451 5.3178C15.3292 5.85912 16.5895 6.12132 17.8666 6.32431C18.7209 6.45964 19 6.7895 19 7.64376C19 9.49607 19 11.3399 19 13.1922C19 13.9027 18.8731 14.5878 18.6109 15.2475C17.8751 17.1252 16.5725 18.5039 14.8556 19.5188C14.0013 20.0263 13.0794 20.4069 12.1744 20.8129ZM9.32402 12.228C9.32402 13.1838 9.32402 14.1311 9.32402 15.0868C9.32402 15.4251 9.21407 15.6535 8.84191 15.7043C8.36826 15.7635 8.49513 16.1356 8.48668 16.4232C8.47822 16.7361 8.68967 16.7784 8.94341 16.7784C10.229 16.77 11.5231 16.7869 12.8087 16.7615C13.4008 16.7531 13.9759 16.6093 14.5003 16.3132C15.3969 15.8058 15.7098 15.0022 15.6929 14.0211C15.676 13.133 15.2446 12.5071 14.4327 12.1519C14.0182 11.9743 14.2212 11.8474 14.4411 11.6867C15.177 11.1285 15.3546 10.3757 15.177 9.51298C15.0163 8.70947 14.5003 8.24428 13.7391 8.03283C13.46 7.95671 13.164 7.88059 12.8764 7.87213C11.5908 7.85521 10.2967 7.85521 9.01107 7.85521C8.74888 7.85521 8.55434 7.92288 8.57971 8.22737C8.59663 8.50648 8.43593 8.89555 8.91804 8.9463C9.23944 8.98013 9.33248 9.14929 9.33248 9.45378C9.32402 10.3757 9.32402 11.2976 9.32402 12.228Z" fill="white"/>
<path d="M10.9226 14.1143C10.9226 13.7929 10.9226 13.4715 10.9226 13.1501C10.9226 12.8625 11.041 12.7018 11.3455 12.7103C11.7768 12.7187 12.2167 12.6934 12.648 12.7272C13.4769 12.7864 13.9759 13.2939 14.0098 14.0551C14.0436 14.8501 13.5869 15.383 12.7495 15.5183C12.2759 15.5945 11.8022 15.586 11.3201 15.5775C11.041 15.5775 10.9141 15.4338 10.9141 15.1631C10.9226 14.8163 10.9226 14.4611 10.9226 14.1143Z" fill="white"/>
<path d="M10.9226 10.2903C10.9226 10.0111 10.9226 9.73203 10.9226 9.45292C10.9226 9.18226 11.041 9.03847 11.3286 9.03002C11.7769 9.02156 12.2251 9.00464 12.6649 9.10614C13.257 9.23301 13.5446 9.51212 13.6038 10.0196C13.6799 10.6201 13.4093 11.1445 12.8933 11.3644C12.352 11.5928 11.7769 11.5759 11.2017 11.5336C10.9903 11.5167 10.9311 11.356 10.9311 11.1699C10.9226 10.8739 10.9226 10.5863 10.9226 10.2903Z" fill="white"/>
<defs>
<linearGradient id="paint0_linear" x1="12" y1="0" x2="12" y2="24" gradientUnits="userSpaceOnUse">
<stop stop-color="#00AEFF"/>
<stop offset="1" stop-color="#0087FF"/>
</linearGradient>
</defs>
</svg>
