<svg width="24" height="24" viewBox="0 0 24 24" fill="none" xmlns="http://www.w3.org/2000/svg">
<path d="M12 24C18.6274 24 24 18.6274 24 12C24 5.37258 18.6274 0 12 0C5.3726 0 1.52588e-05 5.37258 1.52588e-05 12C1.52588e-05 18.6274 5.3726 24 12 24Z" fill="#0041FF"/>
<path d="M12 24C18.6274 24 24 18.6274 24 12C24 5.37258 18.6274 0 12 0C5.3726 0 1.52588e-05 5.37258 1.52588e-05 12C1.52588e-05 18.6274 5.3726 24 12 24Z" fill="url(#paint0_linear)"/>
<path d="M23.5 12C23.5 18.3513 18.3513 23.5 12 23.5C5.64874 23.5 0.500015 18.3513 0.500015 12C0.500015 5.64873 5.64874 0.5 12 0.5C18.3513 0.5 23.5 5.64873 23.5 12Z" stroke="white" stroke-opacity="0.3"/>
<path d="M8.88104 6.47494C9.42915 5.7496 10.1897 5.37324 11.0461 5.18164C12.6014 4.83266 14.1155 4.99689 15.5886 5.58537C16.0819 5.78382 16.0682 5.7975 15.8763 6.26966C15.705 6.68023 15.5406 7.0908 15.383 7.50137C15.3282 7.64507 15.2734 7.68613 15.109 7.62455C14.8212 7.5219 14.5677 7.35083 14.2799 7.25503C13.4372 6.96763 12.5671 6.90605 11.6901 7.07027C11.5394 7.09765 11.3887 7.15923 11.2448 7.2345C10.9433 7.3782 10.772 7.62455 10.7652 7.95985C10.7515 8.30199 10.957 8.50728 11.2311 8.65098C11.6901 8.89048 12.1971 8.97943 12.6904 9.09576C13.1426 9.20525 13.5948 9.31473 14.0264 9.48581C15.8421 10.1975 16.4176 11.8398 15.4378 13.5163C15.2597 13.7079 14.9925 13.8721 14.924 14.0911C14.8486 14.3374 15.1843 14.4948 15.3008 14.7206C15.7941 15.7128 15.7393 17.5125 14.1155 18.4294C13.1563 18.97 12.1081 19.059 11.0392 18.97C10.0595 18.8879 9.11399 18.6484 8.23701 18.1831C7.99721 18.0599 7.9424 17.9231 8.05887 17.6767C8.25071 17.2661 8.422 16.8419 8.57958 16.4176C8.66865 16.1644 8.75772 16.1165 9.00437 16.2671C9.86764 16.7871 10.8131 17.0472 11.8271 17.0266C12.1492 17.0198 12.4643 16.9719 12.7452 16.8145C13.0467 16.6434 13.218 16.3971 13.2248 16.0481C13.2248 15.6991 13.033 15.4802 12.7452 15.3228C12.3204 15.0901 11.8477 15.008 11.3818 14.8985C10.6213 14.7206 9.86079 14.5632 9.16195 14.1663C8.27127 13.6326 8.01777 12.8114 8.07258 11.8534C8.11368 11.1486 8.39459 10.5328 8.9153 10.0469C9.03177 9.93743 9.11399 9.86901 8.97696 9.69109C8.23701 8.75362 8.27127 7.74772 8.75772 6.71445C8.79882 6.63233 8.83993 6.55706 8.88104 6.47494ZM13.6017 12.1272C13.6085 11.6755 13.3276 11.4292 12.9576 11.2581C12.4232 11.0186 11.8545 10.9296 11.2927 10.7859C11.2105 10.7654 11.1352 10.7654 11.0598 10.8065C10.6556 11.0254 10.3815 11.3402 10.3541 11.8192C10.3267 12.2709 10.5939 12.5309 10.9707 12.702C11.5188 12.9551 12.1218 13.0441 12.7041 13.1878C12.7726 13.2083 12.8412 13.2015 12.9028 13.1673C13.3002 12.9346 13.6017 12.6267 13.6017 12.1272Z" fill="white"/>
<defs>
<linearGradient id="paint0_linear" x1="19" y1="1.5" x2="5" y2="21.5" gradientUnits="userSpaceOnUse">
<stop stop-color="#2BBCCD"/>
<stop offset="1" stop-color="#5062D0"/>
</linearGradient>
</defs>
</svg>
