<svg width="512" height="512" viewBox="0 0 512 512" fill="none" xmlns="http://www.w3.org/2000/svg">
<path d="M256 512C397.385 512 512 397.385 512 256C512 114.615 397.385 0 256 0C114.615 0 0 114.615 0 256C0 397.385 114.615 512 256 512Z" fill="#FF56E0"/>
<path d="M345.035 139.131C345.035 139.131 347.85 207.548 251.97 258.852C156.09 310.157 167.365 372.87 167.365 372.87" stroke="#E6E6E6" stroke-width="44.5217" stroke-miterlimit="10" stroke-linecap="round"/>
<path d="M166.965 139.131C166.965 139.131 164.149 207.548 260.029 258.852C355.91 310.157 344.635 372.87 344.635 372.87" stroke="white" stroke-width="44.5217" stroke-miterlimit="10" stroke-linecap="round"/>
<path d="M256 166.957C268.294 166.957 278.261 156.99 278.261 144.696C278.261 132.401 268.294 122.435 256 122.435C243.706 122.435 233.739 132.401 233.739 144.696C233.739 156.99 243.706 166.957 256 166.957Z" fill="#363636"/>
<path d="M256 389.566C268.294 389.566 278.261 379.599 278.261 367.305C278.261 355.01 268.294 345.044 256 345.044C243.706 345.044 233.739 355.01 233.739 367.305C233.739 379.599 243.706 389.566 256 389.566Z" fill="#363636"/>
</svg>
