<svg width="24" height="24" viewBox="0 0 24 24" fill="none" xmlns="http://www.w3.org/2000/svg">
<path d="M12 24C18.6274 24 24 18.6274 24 12C24 5.37258 18.6274 0 12 0C5.37258 0 0 5.37258 0 12C0 18.6274 5.37258 24 12 24Z" fill="#E0E0E0"/>
<path d="M23.5 12C23.5 18.3513 18.3513 23.5 12 23.5C5.64873 23.5 0.5 18.3513 0.5 12C0.5 5.64873 5.64873 0.5 12 0.5C18.3513 0.5 23.5 5.64873 23.5 12Z" stroke="black" stroke-opacity="0.097"/>
<path d="M10.3652 20.1682C10.1427 20.1397 10.0135 20.0328 9.89871 19.8404C9.21699 18.6644 8.19799 18.1014 6.82736 18.2154C6.60491 18.2368 6.44703 18.1655 6.28916 18.0159C5.57873 17.3174 5.019 16.5264 4.58126 15.6355C4.25834 14.9727 4.07894 14.3455 4.55256 13.6756C4.70325 13.4689 4.73913 13.191 4.76784 12.9344C4.8683 12.0364 4.62432 11.2382 4 10.5754C4 10.4329 4.1507 9.92686 4.18658 9.81283C4.5382 8.69391 5.09794 7.70327 5.86577 6.82666C6.00212 6.66987 6.13846 6.55584 6.37527 6.56297C7.7459 6.59147 8.75055 5.99282 9.35333 4.76699C9.46815 4.5318 9.62602 4.41065 9.87719 4.33938C11.1043 4.01867 12.3386 3.98303 13.5872 4.20397C13.8671 4.25385 14.0465 4.37501 14.1972 4.62445C14.8717 5.7505 15.8764 6.29214 17.2039 6.17811C17.4407 6.15673 17.6058 6.228 17.7708 6.39192C18.7109 7.31129 19.3855 8.4017 19.8088 9.64178C19.8806 9.84846 19.8591 10.0195 19.7514 10.2119C19.0554 11.3879 19.1056 12.5496 19.8806 13.6756C20.0026 13.8466 20.0241 14.0106 19.9739 14.2101C19.6366 15.5001 19.0195 16.6475 18.1296 17.6453C18.0005 17.7878 17.8641 17.8591 17.6632 17.852C16.2495 17.8235 15.2592 18.4649 14.6564 19.7121C14.5631 19.9045 14.4412 20.0043 14.233 20.0399C14.0536 20.0756 13.214 20.2822 12.3529 20.3107C11.4703 20.3464 10.5661 20.1896 10.3652 20.1682ZM14.1469 17.346C14.1541 16.2627 13.3002 15.3932 12.2309 15.3861C11.1258 15.3789 10.2503 16.2342 10.2503 17.3174C10.2503 18.3865 11.1186 19.2631 12.1879 19.2631C13.2643 19.2702 14.1469 18.4079 14.1469 17.346ZM16.594 12.685C15.4889 12.685 14.6349 13.5117 14.6277 14.5878C14.6206 15.6569 15.4817 16.5406 16.5509 16.5549C17.6201 16.5691 18.5315 15.6783 18.5387 14.6092C18.5387 13.5402 17.6776 12.685 16.594 12.685ZM7.64543 16.8399C8.73619 16.8399 9.6045 15.9918 9.61167 14.9228C9.61885 13.8752 8.72902 12.9843 7.66696 12.9772C6.56903 12.97 5.69355 13.8324 5.70072 14.9228C5.7079 16.0061 6.55467 16.8399 7.64543 16.8399ZM18.3449 9.50637C18.3521 8.41596 17.5053 7.56073 16.4217 7.5536C15.3382 7.54648 14.4555 8.39458 14.434 9.46361C14.4124 10.5113 15.3382 11.4306 16.4146 11.4235C17.4694 11.4235 18.3377 10.5612 18.3449 9.50637ZM9.90589 7.0761C9.90589 8.15939 10.7598 9.01462 11.8434 9.01462C12.927 9.01462 13.8025 8.15226 13.8025 7.08323C13.8025 6.02845 12.9127 5.14472 11.8434 5.13759C10.7742 5.12333 9.90589 5.99282 9.90589 7.0761ZM7.48038 11.7228C8.57832 11.7157 9.42509 10.8747 9.42509 9.79145C9.42509 8.70816 8.56397 7.85293 7.48038 7.85293C6.38245 7.85293 5.50697 8.72241 5.50697 9.8057C5.51415 10.8819 6.38962 11.73 7.48038 11.7228ZM10.4943 12.3429C11.0254 12.3215 11.0397 12.3429 10.9034 12.8346C10.8603 12.9914 10.8316 13.1625 10.846 13.3193C10.8603 13.5331 10.8172 13.8181 11.1186 13.868C11.3842 13.9108 11.3555 13.6257 11.4416 13.4761C11.6281 13.1482 11.7214 13.1268 11.9798 13.4262C12.1879 13.6685 12.4462 13.8253 12.7548 13.9037C12.8696 13.9322 12.9629 13.8965 13.0418 13.811C13.1423 13.7041 13.0562 13.6186 12.9988 13.5331C12.9414 13.4475 12.8768 13.362 12.8194 13.2694C12.6543 13.0342 12.7404 12.8988 13.0059 12.856C13.2069 12.8275 13.4006 12.7776 13.5729 12.6636C13.7666 12.5353 14.0321 12.407 13.9245 12.1219C13.8312 11.8654 13.5944 12.0578 13.4222 12.0649C13.0777 12.0792 12.9988 11.9865 13.1136 11.6516C13.1853 11.4449 13.214 11.2382 13.1997 11.0244C13.1853 10.8177 13.1853 10.5825 12.9485 10.5255C12.6687 10.4542 12.6902 10.7465 12.6113 10.889C12.4175 11.2382 12.3242 11.2525 12.0515 10.946C11.8506 10.7179 11.5994 10.5612 11.3052 10.4899C11.1761 10.4542 11.0684 10.4828 10.9823 10.5897C10.889 10.7108 10.9895 10.7821 11.0469 10.8676C11.1043 10.9603 11.1689 11.0458 11.2263 11.1313C11.3483 11.338 11.3411 11.4805 11.0469 11.5162C10.7885 11.5518 10.5446 11.6516 10.3293 11.8084C10.1786 11.9153 10.0279 12.0435 10.0996 12.2431C10.1786 12.4498 10.3723 12.3144 10.4943 12.3429Z" fill="#181818"/>
<path d="M7.48035 11.7226C6.3896 11.7298 5.51412 10.8817 5.50694 9.81263C5.49976 8.72934 6.37524 7.85986 7.48035 7.85986C8.56394 7.85986 9.41789 8.70796 9.42506 9.79838C9.42506 10.8745 8.57829 11.7155 7.48035 11.7226ZM7.47318 10.6251C7.93245 10.6322 8.29125 10.2616 8.29842 9.78412C8.29842 9.328 7.91809 8.9574 7.45165 8.9574C7.02826 8.9574 6.64076 9.34938 6.63358 9.78412C6.6264 10.2402 7.00674 10.618 7.47318 10.6251Z" fill="#DA3116"/>
<path d="M12.0228 12.7057C11.7214 12.7057 11.5062 12.499 11.5062 12.1997C11.5062 11.9075 11.7286 11.6865 12.0228 11.6865C12.3171 11.6865 12.5467 11.9146 12.5467 12.1997C12.5539 12.4776 12.3099 12.7057 12.0228 12.7057Z" fill="#181818"/>
</svg>
