<svg width="24" height="24" viewBox="0 0 24 24" fill="none" xmlns="http://www.w3.org/2000/svg">
<path d="M11.9999 24C18.6274 24 23.9999 18.6274 23.9999 12C23.9999 5.37258 18.6274 0 11.9999 0C5.37252 0 -6.10352e-05 5.37258 -6.10352e-05 12C-6.10352e-05 18.6274 5.37252 24 11.9999 24Z" fill="#6500FE"/>
<path fill-rule="evenodd" clip-rule="evenodd" d="M4.03576 7.48277L12 3L19.9642 7.48277C19.9863 7.49512 20 7.51823 20 7.54293V16.4678C20 16.4929 19.9863 16.5156 19.9642 16.5284L12.0358 20.9908L12.0347 20.9912L12.0337 20.9916L12.0326 20.9924L12.0305 20.9932L12.0294 20.994L12.0283 20.9944L12.0273 20.9948L12.0217 20.9968L12.0206 20.9972L12.0195 20.9976H12.0184L12.0172 20.998L12.0161 20.9984H12.015L12.0138 20.9988H12.0127L12.0115 20.9992H12.0104L12.0092 20.9996H12.0067L12.0056 21H11.9942L11.9931 20.9996H11.9908L11.9896 20.9992H11.9885L11.9873 20.9988H11.9862L11.985 20.9984H11.9839L11.9828 20.998L11.9816 20.9976H11.9805L11.9794 20.9972L11.9783 20.9968L11.9727 20.9948L11.9717 20.9944L11.9706 20.994L11.9695 20.9932L11.9674 20.9924L11.9663 20.9916L11.9653 20.9912L11.9642 20.9908L4.03576 16.5284C4.01365 16.5156 4 16.4929 4 16.4678V7.54293C4 7.51823 4.01365 7.49512 4.03576 7.48277ZM4.14305 16.4276L11.9285 20.8095V15.8706L8.56634 13.9784C8.54419 13.9657 8.53058 13.943 8.53058 13.9179V10.1331L4.14305 7.66366V16.4276ZM15.4694 10.1331V13.9581L12.0715 15.8706V20.8095L19.857 16.4276V7.66366L15.4694 10.1331ZM8.67363 13.8776L11.9285 15.7096V12.0456L8.67363 10.2136V13.8776ZM15.3264 10.2395L12.0715 12.0715V15.7096L15.3264 13.8776V10.2395ZM8.74515 10.0929L12 11.9249L15.2548 10.0929L12 8.26091L8.74515 10.0929ZM12 8.09994L15.3979 10.0124L19.7854 7.54293L12 3.16097L4.21457 7.54293L8.6021 10.0124L12 8.09994Z" stroke="white" stroke-width="0.5"/>
<path d="M23.4999 12C23.4999 18.3513 18.3512 23.5 11.9999 23.5C5.64866 23.5 0.499939 18.3513 0.499939 12C0.499939 5.64873 5.64866 0.5 11.9999 0.5C18.3512 0.5 23.4999 5.64873 23.4999 12Z" stroke="black" stroke-opacity="0.097"/>
</svg>
