<svg width="24" height="24" viewBox="0 0 24 24" fill="none" xmlns="http://www.w3.org/2000/svg">
<path fill-rule="evenodd" clip-rule="evenodd" d="M0 12C0 5.37259 5.37259 0 12 0C18.6274 0 24 5.37259 24 12C24 18.6274 18.6274 24 12 24C5.37259 24 0 18.6274 0 12Z" fill="black"/>
<path d="M15.5473 8.23882H16.091C16.3541 8.23003 16.6171 8.21245 16.8758 8.22124C16.9197 8.22124 16.9942 8.34869 16.9942 8.41901C17.003 9.10903 16.9986 9.79464 16.9986 10.4847C16.9986 10.6165 16.9942 10.7484 16.9986 10.8802C17.0161 11.2845 16.8714 11.5966 16.4856 11.7768C16.3716 11.8295 16.2708 11.8998 16.1348 11.9789C16.3102 12.1108 16.4637 12.2251 16.6391 12.3613C16.5952 12.3833 16.5294 12.4184 16.4637 12.4492C16.5426 12.5591 16.5075 12.7437 16.6785 12.5899C16.7224 12.6821 16.7574 12.7657 16.7969 12.8448C16.8232 12.836 16.8495 12.8316 16.8758 12.8228C16.8495 12.6997 16.8276 12.5767 16.8013 12.4448C17.0249 12.4624 16.9942 12.6074 16.9942 12.7349V13.1964V14.1808C16.5382 14.1808 16.0954 14.1852 15.6525 14.1764C15.6087 14.1764 15.5429 14.0885 15.5385 14.0358C15.5254 13.86 15.5473 13.6798 15.5254 13.5084C15.5166 13.4249 15.4596 13.315 15.3895 13.2711C15.1615 13.1216 14.9159 13.0074 14.6879 12.8623C14.6046 12.8052 14.5169 12.7173 14.4818 12.625C14.3635 12.313 14.2495 12.247 13.9469 12.3393C13.868 12.3613 13.7628 12.3349 13.6882 12.2954C13.1928 12.0229 12.7017 11.7504 12.2194 11.4603C12.0747 11.3724 11.9563 11.3637 11.8248 11.4647C11.8116 11.4735 11.7941 11.4779 11.7853 11.4867C11.3732 11.8559 10.9742 11.8119 10.5489 11.4823C10.2946 11.2889 9.99205 11.1571 9.67197 10.9725C10.0359 10.7703 10.356 10.5901 10.6804 10.4099C11.075 10.1902 11.474 9.97484 11.8643 9.7419C11.9914 9.66279 12.0791 9.67598 12.2019 9.7463C12.956 10.1858 13.7189 10.6165 14.4775 11.0604C14.6046 11.1307 14.6967 11.1351 14.8151 11.056C14.9861 10.9461 15.1615 10.8406 15.3456 10.7571C15.5078 10.6868 15.5385 10.5726 15.5341 10.4099C15.5254 9.91331 15.5254 9.41228 15.5341 8.91565C15.5341 8.7794 15.4684 8.62558 15.6306 8.5157C15.6525 8.50252 15.578 8.33551 15.5473 8.23882Z" fill="white"/>
<path d="M14.7668 4.76239C14.7756 4.85468 14.78 4.93819 14.9028 4.85908L14.8852 4.85029C14.9948 4.72283 15.1132 4.71404 15.2535 4.80194C15.4245 4.91182 15.6043 5.00851 15.8016 5.12278C15.7358 5.14915 15.6876 5.16673 15.6394 5.1887C15.635 5.20628 15.635 5.22386 15.6306 5.24144C15.6964 5.25902 15.7928 5.31176 15.8235 5.28539C15.9682 5.16673 16.0647 5.281 16.1699 5.33813C16.3891 5.46559 16.6084 5.60183 16.832 5.72489C16.9547 5.78642 16.9854 5.87871 16.9811 6.01056C16.9723 6.36216 16.9767 6.71376 16.9767 7.06536C16.9767 7.26753 16.8364 7.46091 16.6434 7.4697C16.4549 7.47849 16.2664 7.44333 16.0252 7.42575C15.9112 7.43893 15.7314 7.4653 15.5429 7.48728C15.4552 7.14447 15.6964 6.74892 15.3105 6.49841C15.3412 6.44567 15.3719 6.39293 15.4201 6.31382C15.3368 6.30503 15.2755 6.29624 15.2053 6.28745C15.2141 6.23471 15.2185 6.18197 15.2272 6.10286C15.1045 6.15999 14.9992 6.21273 14.894 6.26108C14.8852 6.25229 14.8765 6.2391 14.8677 6.22592C14.9291 6.1556 14.9861 6.08967 15.0606 6.00617C14.9685 5.95782 14.8896 5.91387 14.7888 5.86113C14.7668 5.95343 14.7537 6.01935 14.7318 6.11604C14.6748 6.10725 14.609 6.11165 14.5564 6.08528C14.3898 5.99738 14.1793 5.94024 14.0741 5.7996L14.0732 5.79845C13.9333 5.61441 13.8236 5.47012 13.5742 5.53591C13.0218 5.22386 12.4737 4.90742 11.9213 4.59538C11.6275 4.99532 11.1364 5.12717 10.7287 5.37769C10.0666 5.78642 9.39136 6.15999 8.71175 6.53357C8.55391 6.62147 8.50568 6.73573 8.50568 6.88077C8.51006 8.04104 8.52321 9.20572 8.52321 10.3704C8.52321 10.5506 8.55391 10.6912 8.73806 10.7396C8.84329 10.7703 8.96167 10.7659 9.07129 10.7791C9.01867 10.8319 8.96606 10.8802 8.91344 10.9285C9.01867 10.9593 9.13267 10.9769 9.22475 11.0296C10.1017 11.5263 10.9786 12.0273 11.8511 12.5327C11.9651 12.5986 12.0528 12.6162 12.1712 12.5415C12.3334 12.436 12.5176 12.3569 12.6842 12.2514C12.7982 12.1811 12.899 12.1723 13.0218 12.247C13.3638 12.458 13.7145 12.647 14.0565 12.8492C14.2495 12.9634 14.2538 13.0601 14.0609 13.17C13.4164 13.5348 12.7762 13.904 12.1317 14.2599C12.0659 14.2995 11.9432 14.2951 11.8774 14.2599C11.0926 13.8248 10.3077 13.3809 9.53167 12.9327C9.41328 12.8623 9.31682 12.8667 9.21598 12.9458C9.18967 12.9678 9.15898 12.9898 9.1239 13.003C8.61091 13.1744 8.48375 13.5216 8.51006 14.0534C8.56268 15.0686 8.5276 16.0883 8.52321 17.1079C8.51883 17.2617 8.56268 17.354 8.70298 17.4375C8.87398 17.543 9.01867 17.6968 9.15898 17.8155C9.15898 17.8199 9.15021 17.7671 9.14144 17.6836C9.74212 18.022 10.3121 18.3473 10.8865 18.6769C11.2197 18.8703 11.553 19.0725 11.8949 19.2526C11.9607 19.2878 12.0791 19.2878 12.1449 19.2526C13.2147 18.6461 14.2758 18.0264 15.3412 17.4199C15.464 17.3496 15.5166 17.2705 15.5078 17.1255C15.4991 16.9409 15.5078 16.7607 15.5078 16.5761C15.5078 16.2992 15.4596 16.2553 15.179 16.2728C15.1308 16.2772 15.0781 16.3036 15.0299 16.2948C14.4687 16.2025 14.0171 16.4399 13.5611 16.7255C13.1051 17.0156 12.6272 17.2749 12.1536 17.5298C12.0791 17.5694 11.9388 17.5694 11.8643 17.5298C11.2811 17.2134 10.7067 16.8837 10.1324 16.5497C10.071 16.5146 9.99643 16.4223 9.99643 16.3564C9.98766 15.8377 9.99205 15.3191 9.99205 14.7522C10.1587 14.8445 10.2946 14.9148 10.4305 14.9895C10.9084 15.262 11.382 15.5301 11.8555 15.8114C11.9695 15.8773 12.0572 15.8773 12.1712 15.8114C12.6491 15.5301 13.1314 15.2532 13.6181 14.9895C13.7409 14.928 13.8899 14.8884 14.0302 14.884C14.6134 14.8752 15.2009 14.884 15.7841 14.8884C16.1217 14.8884 16.4549 14.8972 16.7925 14.8928C16.9372 14.8884 16.9854 14.9368 16.9854 15.0818C16.9767 15.7938 16.9854 16.5014 16.9767 17.2134C16.9767 17.2969 16.9021 17.376 16.8495 17.4815C17.0556 17.6045 16.9854 17.8375 16.9767 18.0484C16.9723 18.1099 16.9065 18.1891 16.8495 18.2286C16.661 18.3517 16.4593 18.4615 16.262 18.567C16.2269 18.5846 16.1743 18.5802 16.1348 18.5714C16.0121 18.5407 15.9507 18.5758 15.9024 18.6989C15.8718 18.7736 15.8016 18.8439 15.7314 18.8835C14.6967 19.4856 13.6619 20.0877 12.6228 20.681C12.5483 20.725 12.4562 20.725 12.3597 20.7469C12.329 20.9227 12.0572 21.0678 11.8818 20.9667C10.3077 20.0745 8.72929 19.1779 7.15961 18.277C7.08508 18.2374 7.01931 18.1099 7.01931 18.022C7.01054 16.5585 7.01492 15.0906 7.01492 13.6271C7.01492 13.3238 7.01931 13.0206 7.01054 12.7173C7.00615 12.5591 7.05 12.458 7.19907 12.3833C7.4183 12.2734 7.62876 12.146 7.8743 12.0053C7.61561 11.8559 7.37446 11.724 7.14646 11.579C7.08507 11.5395 7.01492 11.4516 7.01492 11.3856C7.01054 9.90452 7.01492 8.4278 7.01492 6.94669C7.01492 6.93351 7.02369 6.92032 7.03684 6.88956C7.09384 6.90274 7.14646 6.91593 7.25607 6.9423C6.84831 6.63026 7.05877 6.23471 7.02369 5.88311C7.01931 5.83037 7.12015 5.74686 7.1903 5.70731C7.69015 5.43482 8.19876 5.18431 8.68983 4.90303C9.4352 4.47671 10.1674 4.02843 10.9084 3.59332C11.1978 3.42192 11.4916 3.2593 11.8029 3.0835C11.8599 3.18019 11.9037 3.2637 11.9607 3.36039C12.0046 3.33402 12.0659 3.29007 12.1317 3.24612C12.2106 3.29007 12.2852 3.33841 12.3597 3.38236C12.3773 3.35599 12.3904 3.32962 12.4079 3.30325L11.9037 3C11.9958 3.00879 12.0659 3 12.1142 3.02637C12.5 3.23733 12.8771 3.45708 13.2673 3.68122C13.2498 3.73836 13.2322 3.7911 13.2016 3.8746C13.4953 3.72078 13.6488 3.85263 13.7672 4.02843L13.788 4.03668C13.9459 4.09915 14.0847 4.15407 14.2275 4.21302L14.1749 4.25257C14.2188 4.38442 14.2582 4.52066 14.3021 4.65691C14.324 4.65251 14.3503 4.64812 14.3722 4.64372C14.3985 4.5778 14.4205 4.51187 14.4599 4.40639C14.5038 4.52945 14.5301 4.61735 14.5608 4.70525C14.5783 4.70086 14.5958 4.70086 14.6134 4.69646C14.6309 4.63054 14.6528 4.56901 14.6704 4.50748C14.6923 4.50308 14.7142 4.50308 14.7362 4.49869C14.7449 4.58659 14.7581 4.67449 14.7668 4.76239Z" fill="white"/>
<path d="M23.5 12C23.5 18.3513 18.3513 23.5 12 23.5C5.64873 23.5 0.5 18.3513 0.5 12C0.5 5.64873 5.64873 0.5 12 0.5C18.3513 0.5 23.5 5.64873 23.5 12Z" stroke="white" stroke-opacity="0.3"/>
</svg>
