<svg width="24" height="24" viewBox="0 0 24 24" fill="none" xmlns="http://www.w3.org/2000/svg">
<path d="M12 24C18.6274 24 24 18.6274 24 12C24 5.37258 18.6274 0 12 0C5.37258 0 0 5.37258 0 12C0 18.6274 5.37258 24 12 24Z" fill="#F5F5F5"/>
<path d="M23.5 12C23.5 18.3513 18.3513 23.5 12 23.5C5.64873 23.5 0.5 18.3513 0.5 12C0.5 5.64873 5.64873 0.5 12 0.5C18.3513 0.5 23.5 5.64873 23.5 12Z" stroke="black" stroke-opacity="0.097"/>
<path d="M4 12C4 7.58175 7.58176 4 12 4C16.4182 4 20 7.58175 20 12C20 14.2807 19.0455 16.3386 17.5142 17.7958C15.2365 13.7965 13.384 9.34182 12 4.384V4.312C10.6111 9.28886 8.74905 13.7589 6.4592 17.7703C4.94352 16.3146 4 14.2674 4 12ZM11.9928 12.0755C11.4948 14.5234 10.5509 16.996 9.18552 19.4907C10.9892 20.1655 12.9752 20.1699 14.7817 19.503C13.4208 17.004 12.4828 14.5279 11.9928 12.0755Z" fill="black"/>
</svg>
