<svg width="24" height="24" viewBox="0 0 24 24" fill="none" xmlns="http://www.w3.org/2000/svg">
<path d="M12 24C18.6274 24 24 18.6274 24 12C24 5.37258 18.6274 0 12 0C5.37258 0 0 5.37258 0 12C0 18.6274 5.37258 24 12 24Z" fill="#AA01FE"/>
<path d="M23.5 12C23.5 18.3513 18.3513 23.5 12 23.5C5.64873 23.5 0.5 18.3513 0.5 12C0.5 5.64873 5.64873 0.5 12 0.5C18.3513 0.5 23.5 5.64873 23.5 12Z" stroke="white" stroke-opacity="0.3"/>
<path d="M8.05532 19.7685C9.03437 20.1682 10.0451 20.4095 11.0976 20.411C14.8878 20.4186 18.1194 17.5983 18.7133 13.6607C19.3101 9.70341 16.7019 6.26722 13.2191 5.79617C12.1119 5.64674 11.0198 5.75445 9.98462 6.24598C9.94143 6.26646 9.89823 6.28846 9.85288 6.30136C9.83272 6.30743 9.80753 6.29377 9.74922 6.28164C10.3856 5.76507 11.0925 5.48441 11.8448 5.33649C15.8057 4.55899 19.1258 7.55902 19.755 11.2622C20.5202 15.768 17.4549 20.1516 13.1968 20.8843C11.4014 21.193 9.7233 20.8858 8.1489 19.9339C8.09923 19.9035 8.05892 19.8557 8.01428 19.8155C8.02868 19.8011 8.04236 19.7844 8.05532 19.7685Z" fill="white"/>
<path d="M6.92853 4.32373C6.53763 4.77961 6.18273 5.14523 5.87965 5.55864C3.41187 8.92352 3.77901 13.6879 6.79751 16.5059C10.6072 20.0635 16.4347 18.0837 17.4951 12.9802C17.5721 12.6108 17.6124 12.2368 17.593 11.8523C17.801 11.8742 17.7312 12.0244 17.7384 12.1162C17.9659 15.1193 16.1294 17.9486 13.2981 18.9658C10.0017 20.1492 6.40157 18.6768 4.51906 15.3764C2.4501 11.7476 3.32692 6.96952 6.50956 4.53688C6.61034 4.45951 6.70537 4.36621 6.92853 4.32373Z" fill="white"/>
<path d="M8.65485 16.39C4.94886 14.1713 4.47085 9.41823 6.7565 6.2005C8.47992 3.77393 10.8628 2.74079 13.7085 3.05483C16.8062 3.39693 19.0249 5.10972 20.3005 8.11506C20.7094 9.07841 20.8894 10.1085 20.8253 11.216C20.6727 10.9687 20.6885 10.7123 20.636 10.4802C19.8628 7.05689 17.3446 4.60605 14.0231 4.18202C11.1845 3.81944 8.83914 4.82223 7.23019 7.36486C5.44846 10.1821 5.99774 13.8246 8.45328 16.0441C8.54399 16.126 8.69805 16.1738 8.65485 16.39Z" fill="white"/>
</svg>
