<?xml version="1.0" encoding="UTF-8"?>
<svg width="42px" height="42px" viewBox="0 0 42 42" version="1.1" xmlns="http://www.w3.org/2000/svg" xmlns:xlink="http://www.w3.org/1999/xlink">
    <title>rCOMBO Copy 2</title>
    <defs>
        <linearGradient x1="66.4298159%" y1="47.7601027%" x2="40.3507216%" y2="3.73136303%" id="linearGradient-1">
            <stop stop-color="#363853" offset="0%"></stop>
            <stop stop-color="#FFFFFF" offset="100%"></stop>
        </linearGradient>
        <radialGradient cx="50.0000129%" cy="52.1186081%" fx="50.0000129%" fy="52.1186081%" r="49.7661178%" id="radialGradient-2">
            <stop stop-color="#1D1E27" offset="0%"></stop>
            <stop stop-color="#1F202A" offset="22.0032839%"></stop>
            <stop stop-color="#20222E" offset="75.9230432%"></stop>
            <stop stop-color="#191A21" offset="100%"></stop>
        </radialGradient>
    </defs>
    <g id="Page-1" stroke="none" stroke-width="1" fill="none" fill-rule="evenodd">
        <g id="rCOMBO-Copy-2" fill-rule="nonzero">
            <path d="M21,0 C9.40202025,0 0,9.40202025 0,21 C0,32.5979797 9.40202025,42 21,42 C32.5979797,42 42,32.5979797 42,21 C42,9.40202025 32.5979797,0 21,0 Z M21,2 C31.4934102,2 40,10.5065897 40,21 C40,31.4934102 31.4934102,40 21,40 C10.5065897,40 2,31.4934102 2,21 C2,10.5065897 10.5065897,2 21,2 Z" id="Oval-Copy-31" fill="url(#linearGradient-1)"></path>
            <path d="M21,-8.8817842e-15 C30.1363002,-8.8817842e-15 37.9099002,5.8344137 40.7982108,13.9806521 L38.9117006,14.6464367 C36.2977001,7.2774543 29.2651577,2 21,2 C19.6686488,2 18.36928,2.13693279 17.1152091,2.39748279 L16.7012735,0.440364647 C18.0889012,0.151711711 19.5267335,-8.8817842e-15 21,-8.8817842e-15 Z" id="Combined-Shape" fill="#FFFFFF"></path>
            <circle id="Oval-Copy-31" fill="url(#radialGradient-2)" cx="21" cy="21" r="19"></circle>
            <g id="token" transform="translate(10.000000, 8.000000)" fill="#FFFFFF">
                <path d="M10.4813993,23.5817983 L9.8711993,24.6617983 L10.6811992,25.1369982 C10.7825112,25.2022851 10.9008884,25.2361072 11.0213992,25.2341982 C11.1365672,25.2324351 11.2495926,25.2027891 11.3507992,25.1477982 L12.1607991,24.6725983 L11.5559992,23.5925983 L10.4813993,23.5817983 Z" id="Path"></path>
                <polygon id="Path" points="14.050799 9.98459929 12.3389991 10.9997992 13.0193991 12.1769991 14.720399 11.1671992"></polygon>
                <polygon id="Path" points="18.6947987 8.86679937 18.0251987 7.68419946 16.3133988 8.69939939 16.9937988 9.8711993"></polygon>
                <path d="M21.7295985,6.02639957 L20.9249985,5.55659961 L20.2607986,6.55019954 L20.8925985,7.63019946 L22.0643984,7.54379947 L22.0643984,6.60419953 C22.0604393,6.36660267 21.9337655,6.14798816 21.7295985,6.02639957 L21.7295985,6.02639957 Z" id="Path"></path>
                <polygon id="Path" points="15.4439989 2.43539983 13.942799 1.53899989 13.2677991 2.72159981 14.774399 3.61259974"></polygon>
                <polygon id="Path" points="18.8459987 4.42799969 17.3447988 3.53159975 16.6697988 4.71419967 18.1763987 5.6051996"></polygon>
                <path d="M10.6919992,0.0971999931 L9.8819993,0.577799959 L10.5677993,1.76039988 L11.0321992,1.4741999 L11.5019992,1.74959988 L12.1877991,0.57239996 L11.3831992,0.0971999931 C11.1709472,-0.0321257618 10.9042513,-0.0321257618 10.6919992,0.0971999931 L10.6919992,0.0971999931 Z" id="Path"></path>
                <polygon id="Path" points="20.7143985 13.672799 20.7251985 15.4439989 22.0643984 15.4385989 22.0589984 13.667399"></polygon>
                <polygon id="Path" points="20.7143985 9.69299932 20.7251985 11.4587992 22.0643984 11.4587992 22.0589984 9.68759932"></polygon>
                <path d="M20.7089985,18.0899987 L20.2445986,18.3707987 L20.9303985,19.5479986 L21.7349985,19.0673987 C21.9395738,18.9417246 22.064278,18.7188925 22.0643984,18.4787987 L22.0643984,17.5283988 L20.7089985,17.5283988 L20.7089985,18.0899987 Z" id="Path"></path>
                <polygon id="Path" points="16.8641988 20.2445986 17.5337988 21.4271985 19.0349987 20.5361985 18.3653987 19.3535986"></polygon>
                <polygon id="Path" points="13.456799 22.2803984 14.131799 23.4575983 15.6329989 22.5665984 14.9633989 21.3839985"></polygon>
                <polygon id="Path" points="10.3571993 21.7673985 11.7017992 21.7619985 11.6963992 19.9907986 10.3517993 19.9961986"></polygon>
                <polygon id="Path" points="11.6963992 12.9545991 10.3517993 12.9599991 10.3571993 14.731199 11.7017992 14.725799"></polygon>
                <polygon id="Path" points="10.3571993 18.2519987 11.7017992 18.2465987 11.6963992 16.4753988 10.3517993 16.4807988"></polygon>
                <polygon id="Path" points="1.3499999 11.5613992 1.34459991 9.79019931 0 9.79559931 0.00539999962 11.5667992"></polygon>
                <polygon id="Path" points="1.3499999 15.5519989 1.34459991 13.780799 0 13.786199 0.00539999962 15.5573989"></polygon>
                <path d="M1.3553999,17.5283988 L0,17.5283988 L0,18.4787987 C0.00231516044,18.7196912 0.128930544,18.9422893 0.334799976,19.0673987 L1.13939992,19.5479986 L1.82519987,18.3707987 L1.3553999,18.0899987 L1.3553999,17.5283988 Z" id="Path"></path>
                <polygon id="Path" points="3.01319979 20.5361985 4.51439968 21.4271985 5.18399963 20.2445986 3.68279974 19.3535986"></polygon>
                <polygon id="Path" points="6.40979955 22.5665984 7.91639944 23.4575983 8.58599939 22.2803984 7.0847995 21.3839985"></polygon>
                <polygon id="Path" points="8.79119938 2.72159981 8.12159943 1.53899989 6.62579953 2.43539983 7.29539948 3.61799974"></polygon>
                <polygon id="Path" points="5.39459962 4.71419967 4.71959967 3.53159975 3.21299977 4.42799969 3.89339972 5.6051996"></polygon>
                <polygon id="Path" points="7.33859948 11.1671992 9.05039936 12.1769991 9.71999931 10.9943992 8.01359943 9.98459929"></polygon>
                <polygon id="Path" points="3.36419976 8.86679937 5.07599964 9.8711993 5.74559959 8.69939939 4.03919971 7.68419946"></polygon>
                <path d="M1.80899987,6.55019954 L1.14479992,5.55659961 L0.340199976,6.02639957 C0.134622022,6.14992262 0.00633143418,6.36984935 0,6.60959953 L0,7.54919947 L1.17719992,7.63559946 L1.80899987,6.55019954 Z" id="Path"></path>
            </g>
        </g>
    </g>
</svg>