<svg width="24" height="24" viewBox="0 0 24 24" fill="none" xmlns="http://www.w3.org/2000/svg">
<path fill-rule="evenodd" clip-rule="evenodd" d="M0 12C0 5.37259 5.37259 0 12 0C18.6274 0 24 5.37259 24 12C24 18.6274 18.6274 24 12 24C5.37259 24 0 18.6274 0 12Z" fill="black"/>
<path d="M6.88088 13.1934L5.53039 15.421H8.02764C7.48047 14.7912 7.08171 14.0302 6.88088 13.1934Z" fill="#66D5BB"/>
<path d="M15.9269 15.418H18.4242L17.0737 13.1904C16.8728 14.0301 16.4741 14.7911 15.9269 15.418Z" fill="#66D5BB"/>
<path d="M11.9773 6.72316C12.4139 6.72316 12.8359 6.77564 13.2434 6.87768L11.9773 4.79297L10.7112 6.87768C11.1187 6.77564 11.5407 6.72316 11.9773 6.72316Z" fill="#66D5BB"/>
<path d="M6.73827 12.0386C6.73827 12.0153 6.73827 11.992 6.73827 11.9716C6.73827 9.91892 7.91412 8.14327 9.62553 7.28022L11.174 4.72607C7.53575 5.12553 4.70087 8.21616 4.70087 11.9716C4.70087 12.8958 4.8726 13.7822 5.18693 14.5957L6.73827 12.0386Z" fill="#FEFEFE"/>
<path d="M14.329 7.28022C16.0404 8.14327 17.2163 9.91892 17.2163 11.9716C17.2163 11.9949 17.2163 12.0182 17.2163 12.0386L18.7676 14.5957C19.0819 13.7822 19.2537 12.8958 19.2537 11.9716C19.2537 8.21616 16.4188 5.12553 12.7777 4.72607L14.329 7.28022Z" fill="#FEFEFE"/>
<path d="M15.2778 16.0479C14.3756 16.7797 13.2288 17.22 11.9773 17.22C10.7257 17.22 9.57898 16.7797 8.6767 16.0479H5.94369C7.25053 17.9868 9.46546 19.2609 11.9773 19.2609C14.4891 19.2609 16.704 17.9868 18.0109 16.0479H15.2778Z" fill="#FEFEFE"/>
<path d="M11.1769 4.72617L11.9773 3.40536L12.7777 4.72617C13.1036 4.76116 13.4238 4.81947 13.7352 4.89819L11.9773 2L10.2193 4.89819C10.5307 4.81947 10.8509 4.76116 11.1769 4.72617Z" fill="#66D5BB"/>
<path d="M17.3647 16.8699H21L19.0557 13.6655C18.9801 13.9833 18.884 14.2953 18.7676 14.5956L19.6466 16.0447H18.0109C17.8158 16.3363 17.6005 16.6104 17.3647 16.8699Z" fill="#66D5BB"/>
<path d="M5.94369 16.0476H4.30795L5.18695 14.5956C5.07052 14.2953 4.97447 13.9833 4.8988 13.6655L2.95454 16.8699H6.58984C6.35408 16.6104 6.13869 16.3363 5.94369 16.0476Z" fill="#66D5BB"/>
<path d="M23.5 12C23.5 18.3513 18.3513 23.5 12 23.5C5.64873 23.5 0.5 18.3513 0.5 12C0.5 5.64873 5.64873 0.5 12 0.5C18.3513 0.5 23.5 5.64873 23.5 12Z" stroke="white" stroke-opacity="0.3"/>
</svg>
