<svg width="226" height="281" viewBox="0 0 226 281" fill="none" xmlns="http://www.w3.org/2000/svg">
<g filter="url(#filter0_ii_1107_339)">
<path d="M114.217 91.6935C127.459 92.1073 159.407 91.1968 181.257 84.244C204.845 99.1429 227.192 136.39 225.951 172.396C224.745 207.373 198.936 276.328 121.21 280.24C118.924 280.355 116.593 230.842 114.217 230.842C111.82 230.842 109.466 280.355 107.155 280.24C29.2741 276.363 0 208.57 0 172.396C0 135.149 23.5882 99.1429 44.6935 84.244C63.3158 90.4519 100.56 91.6935 114.217 91.6935Z" fill="url(#paint0_linear_1107_339)"/>
<path d="M175.05 78.0361C171.077 45.2584 132.425 37.064 114.217 37.064C95.5945 37.064 55.8669 44.5134 52.1424 78.0361C96.836 84.244 132.839 84.244 175.05 78.0361Z" fill="url(#paint1_linear_1107_339)"/>
<path fill-rule="evenodd" clip-rule="evenodd" d="M37.7841 89.8003C18.757 106.954 0 139.181 0 172.396C0 208.524 29.1993 276.189 106.856 280.225C106.956 280.23 107.056 280.235 107.155 280.24C108.301 280.297 109.458 268.144 110.626 255.879C111.007 251.876 111.389 247.86 111.772 244.254C112.582 236.635 113.397 230.842 114.217 230.842C115.03 230.842 115.837 236.637 116.64 244.258C117.02 247.869 117.399 251.891 117.777 255.9C118.932 268.157 120.077 280.297 121.21 280.24C121.313 280.235 121.416 280.229 121.519 280.224C199.004 276.145 224.746 207.327 225.951 172.396C227.059 140.258 209.374 107.131 188.788 89.79C186.311 87.7029 183.791 85.8445 181.257 84.244C179.617 84.7657 177.921 85.2534 176.18 85.7091C158.068 90.4493 135.12 91.7235 121.036 91.7757C118.431 91.7854 116.129 91.7532 114.217 91.6935C101.975 91.6935 70.7778 90.6958 51.0322 86.0172C48.7508 85.4766 46.6223 84.887 44.6935 84.244C42.4085 85.8571 40.0943 87.7176 37.7841 89.8003ZM52.4717 75.6692C52.3418 76.4433 52.2318 77.2322 52.1424 78.0361C74.3728 81.1239 94.4532 82.6758 114.217 82.6919C114.311 82.692 114.405 82.692 114.499 82.692C134.372 82.6935 153.934 81.1415 175.05 78.0361C174.96 77.2959 174.852 76.5681 174.728 75.8528C174.51 74.5997 174.24 73.3845 173.92 72.2062C173.206 69.5705 172.247 67.1192 171.082 64.8412C159.896 42.9756 129.682 37.064 114.217 37.064C98.3502 37.064 67.1624 42.4718 55.976 64.8067C54.7886 67.1773 53.8267 69.7385 53.1322 72.5043C52.8745 73.5309 52.6536 74.5856 52.4717 75.6692ZM70.9352 66.6266C101.008 69.844 127.495 69.8727 156.12 66.7364C153.093 62.985 148.944 59.954 143.926 57.4736C133.8 52.4696 121.764 50.6915 114.217 50.6915C106.266 50.6915 93.8289 52.3492 83.4545 57.2837C78.2553 59.7567 73.997 62.8015 70.9352 66.6266ZM107.398 105.245V219.007C105.233 220.246 103.886 221.79 103.333 222.483C102.089 224.04 101.434 225.538 101.158 226.207C100.547 227.689 100.197 229.15 100.001 230.039C99.565 232.017 99.2059 234.452 98.8994 236.848C98.2714 241.754 97.6583 248.187 97.077 254.293L97.0658 254.412C96.6938 258.319 96.3343 262.096 95.9827 265.441C67.8367 261.127 48.2369 246.927 35.1456 230.073C19.9322 210.488 13.6379 187.431 13.6379 172.396C13.6379 156.568 18.6854 140.502 26.3844 126.503C32.6923 115.033 40.4242 105.596 47.695 99.2296C57.6516 101.606 69.5514 103.012 80.2101 103.879C90.3371 104.704 100.101 105.095 107.398 105.245ZM94.6457 275.475C94.6454 275.475 94.6506 275.453 94.662 275.412C94.6517 275.455 94.646 275.476 94.6457 275.475ZM121.036 219.007C123.233 220.265 124.59 221.84 125.135 222.528C126.368 224.086 127.016 225.581 127.288 226.246C127.891 227.722 128.237 229.177 128.43 230.063C128.861 232.037 129.217 234.469 129.52 236.863C130.142 241.768 130.749 248.199 131.325 254.306L131.339 254.451C131.704 258.331 132.058 262.083 132.404 265.411C160.108 261.04 178.842 246.75 191.301 229.877C205.826 210.207 211.803 186.946 212.321 171.927C212.842 156.796 208.382 140.847 200.886 126.826C194.6 115.069 186.596 105.438 178.687 99.1346C159.133 104.089 135.485 105.352 121.036 105.403V219.007ZM126.687 235.7C126.687 235.7 126.682 235.721 126.67 235.762C126.681 235.72 126.686 235.7 126.687 235.7ZM133.719 275.445C133.729 275.48 133.734 275.501 133.735 275.506C133.736 275.514 133.731 275.495 133.719 275.445Z" fill="#003256"/>
<path fill-rule="evenodd" clip-rule="evenodd" d="M107.567 8.32258C108.236 10.3056 108.48 12.3821 108.48 14.1469V38.8718H100.622V14.1469C100.622 13.0271 100.459 11.8069 100.111 10.7765C99.7542 9.7185 99.3134 9.17567 98.9865 8.94119C98.8528 8.84523 96.9488 7.50913 90.6718 12.2771L85.8804 6.12617C92.6234 1.00417 98.8569 -0.743877 103.606 2.663C105.72 4.17993 106.907 6.36721 107.567 8.32258Z" fill="#003256"/>
<path fill-rule="evenodd" clip-rule="evenodd" d="M78.6482 19.3313C81.3365 19.3313 83.5159 17.152 83.5159 14.4636C83.5159 11.7753 81.3365 9.59593 78.6482 9.59593C75.9598 9.59593 73.7805 11.7753 73.7805 14.4636C73.7805 17.152 75.9598 19.3313 78.6482 19.3313ZM78.6482 27.1196C85.6379 27.1196 91.3042 21.4533 91.3042 14.4636C91.3042 7.4739 85.6379 1.80762 78.6482 1.80762C71.6585 1.80762 65.9922 7.4739 65.9922 14.4636C65.9922 21.4533 71.6585 27.1196 78.6482 27.1196Z" fill="#003256"/>
<path fill-rule="evenodd" clip-rule="evenodd" d="M121.146 7.41877C120.476 9.40178 120.232 11.4783 120.232 13.2431V37.968H128.091V13.2431C128.091 12.1233 128.253 10.9031 128.601 9.87272C128.958 8.81469 129.399 8.27186 129.726 8.03738C129.86 7.94142 131.764 6.60532 138.041 11.3733L142.832 5.22236C136.089 0.100364 129.856 -1.64769 125.107 1.75919C122.992 3.27613 121.806 5.4634 121.146 7.41877Z" fill="#003256"/>
<path fill-rule="evenodd" clip-rule="evenodd" d="M149.16 19.3318C146.472 19.3318 144.292 17.1525 144.292 14.4641C144.292 11.7758 146.472 9.59641 149.16 9.59641C151.848 9.59641 154.028 11.7758 154.028 14.4641C154.028 17.1525 151.848 19.3318 149.16 19.3318ZM149.16 27.1201C142.17 27.1201 136.504 21.4538 136.504 14.4641C136.504 7.47439 142.17 1.80811 149.16 1.80811C156.15 1.80811 161.816 7.47439 161.816 14.4641C161.816 21.4538 156.15 27.1201 149.16 27.1201Z" fill="#003256"/>
<path fill-rule="evenodd" clip-rule="evenodd" d="M62.8665 211.089V188.936H56.9517V214.303L74.5408 225.558V263.968H80.4557V222.344L62.8665 211.089Z" fill="#005289"/>
<path fill-rule="evenodd" clip-rule="evenodd" d="M57.3649 148.066L57.3649 169.952L63.2798 169.952L63.2798 144.891L45.6907 133.771L45.6907 95.8241L39.7758 95.8241L39.7758 136.947L57.3649 148.066Z" fill="#005289"/>
<path fill-rule="evenodd" clip-rule="evenodd" d="M59.6639 181.895C62.6016 181.895 64.9831 179.584 64.9831 176.732C64.9831 173.881 62.6016 171.57 59.6639 171.57C56.7262 171.57 54.3447 173.881 54.3447 176.732C54.3447 179.584 56.7262 181.895 59.6639 181.895ZM59.6639 191.648C68.1514 191.648 75.0319 184.97 75.0319 176.732C75.0319 168.495 68.1514 161.816 59.6639 161.816C51.1764 161.816 44.2959 168.495 44.2959 176.732C44.2959 184.97 51.1764 191.648 59.6639 191.648Z" fill="#003256"/>
<path fill-rule="evenodd" clip-rule="evenodd" d="M164.941 211.089V188.936H170.856V214.303L153.267 225.558V263.968H147.352V222.344L164.941 211.089Z" fill="#005289"/>
<path fill-rule="evenodd" clip-rule="evenodd" d="M169.539 148.066L169.539 169.952L163.624 169.952L163.624 144.891L181.213 133.771L181.213 95.8241L187.128 95.8241L187.128 136.947L169.539 148.066Z" fill="#005289"/>
<path fill-rule="evenodd" clip-rule="evenodd" d="M167.692 181.895C164.841 181.895 162.529 179.583 162.529 176.732C162.529 173.881 164.841 171.569 167.692 171.569C170.543 171.569 172.855 173.881 172.855 176.732C172.855 179.583 170.543 181.895 167.692 181.895ZM167.692 191.648C159.454 191.648 152.776 184.97 152.776 176.732C152.776 168.494 159.454 161.816 167.692 161.816C175.93 161.816 182.608 168.494 182.608 176.732C182.608 184.97 175.93 191.648 167.692 191.648Z" fill="#003256"/>
<path fill-rule="evenodd" clip-rule="evenodd" d="M37.7841 89.8003C18.757 106.954 0 139.181 0 172.396C0 208.524 29.1993 276.189 106.856 280.225C106.956 280.23 107.056 280.235 107.155 280.24C108.301 280.297 109.458 268.144 110.626 255.879C111.007 251.876 111.389 247.86 111.772 244.254C112.582 236.635 113.397 230.842 114.217 230.842C115.03 230.842 115.837 236.637 116.64 244.258C117.02 247.869 117.399 251.891 117.777 255.9C118.932 268.157 120.077 280.297 121.21 280.24C121.313 280.235 121.416 280.229 121.519 280.224C199.004 276.145 224.746 207.327 225.951 172.396C227.059 140.258 209.374 107.131 188.788 89.79C186.311 87.7029 183.791 85.8445 181.257 84.244C179.617 84.7657 177.921 85.2534 176.18 85.7091C158.068 90.4493 135.12 91.7235 121.036 91.7757C118.431 91.7854 116.129 91.7532 114.217 91.6935C101.975 91.6935 70.7778 90.6958 51.0322 86.0172C48.7508 85.4766 46.6223 84.887 44.6935 84.244C42.4085 85.8571 40.0943 87.7176 37.7841 89.8003ZM52.4717 75.6692C52.3418 76.4433 52.2318 77.2322 52.1424 78.0361C74.3728 81.1239 94.4532 82.6758 114.217 82.6919C114.311 82.692 114.405 82.692 114.499 82.692C134.372 82.6935 153.934 81.1415 175.05 78.0361C174.96 77.2959 174.852 76.5681 174.728 75.8528C174.51 74.5997 174.24 73.3845 173.92 72.2062C173.206 69.5705 172.247 67.1192 171.082 64.8412C159.896 42.9756 129.682 37.064 114.217 37.064C98.3502 37.064 67.1624 42.4718 55.976 64.8067C54.7886 67.1773 53.8267 69.7385 53.1322 72.5043C52.8745 73.5309 52.6536 74.5856 52.4717 75.6692ZM70.9352 66.6266C101.008 69.844 127.495 69.8727 156.12 66.7364C153.093 62.985 148.944 59.954 143.926 57.4736C133.8 52.4696 121.764 50.6915 114.217 50.6915C106.266 50.6915 93.8289 52.3492 83.4545 57.2837C78.2553 59.7567 73.997 62.8015 70.9352 66.6266ZM107.398 105.245V219.007C105.233 220.246 103.886 221.79 103.333 222.483C102.089 224.04 101.434 225.538 101.158 226.207C100.547 227.689 100.197 229.15 100.001 230.039C99.565 232.017 99.2059 234.452 98.8994 236.848C98.2714 241.754 97.6583 248.187 97.077 254.293L97.0658 254.412C96.6938 258.319 96.3343 262.096 95.9827 265.441C67.8367 261.127 48.2369 246.927 35.1456 230.073C19.9322 210.488 13.6379 187.431 13.6379 172.396C13.6379 156.568 18.6854 140.502 26.3844 126.503C32.6923 115.033 40.4242 105.596 47.695 99.2296C57.6516 101.606 69.5514 103.012 80.2101 103.879C90.3371 104.704 100.101 105.095 107.398 105.245ZM94.6457 275.475C94.6454 275.475 94.6506 275.453 94.662 275.412C94.6517 275.455 94.646 275.476 94.6457 275.475ZM121.036 219.007C123.233 220.265 124.59 221.84 125.135 222.528C126.368 224.086 127.016 225.581 127.288 226.246C127.891 227.722 128.237 229.177 128.43 230.063C128.861 232.037 129.217 234.469 129.52 236.863C130.142 241.768 130.749 248.199 131.325 254.306L131.339 254.451C131.704 258.331 132.058 262.083 132.404 265.411C160.108 261.04 178.842 246.75 191.301 229.877C205.826 210.207 211.803 186.946 212.321 171.927C212.842 156.796 208.382 140.847 200.886 126.826C194.6 115.069 186.596 105.438 178.687 99.1346C159.133 104.089 135.485 105.352 121.036 105.403V219.007ZM126.687 235.7C126.687 235.7 126.682 235.721 126.67 235.762C126.681 235.72 126.686 235.7 126.687 235.7ZM133.719 275.445C133.729 275.48 133.734 275.501 133.735 275.506C133.736 275.514 133.731 275.495 133.719 275.445Z" fill="#003256"/>
</g>
<defs>
<filter id="filter0_ii_1107_339" x="-0.5" y="-0.5" width="227" height="281.24" filterUnits="userSpaceOnUse" color-interpolation-filters="sRGB">
<feFlood flood-opacity="0" result="BackgroundImageFix"/>
<feBlend mode="normal" in="SourceGraphic" in2="BackgroundImageFix" result="shape"/>
<feColorMatrix in="SourceAlpha" type="matrix" values="0 0 0 0 0 0 0 0 0 0 0 0 0 0 0 0 0 0 127 0" result="hardAlpha"/>
<feOffset dx="-0.5" dy="-0.5"/>
<feGaussianBlur stdDeviation="0.25"/>
<feComposite in2="hardAlpha" operator="arithmetic" k2="-1" k3="1"/>
<feColorMatrix type="matrix" values="0 0 0 0 1 0 0 0 0 1 0 0 0 0 1 0 0 0 0.4 0"/>
<feBlend mode="normal" in2="shape" result="effect1_innerShadow_1107_339"/>
<feColorMatrix in="SourceAlpha" type="matrix" values="0 0 0 0 0 0 0 0 0 0 0 0 0 0 0 0 0 0 127 0" result="hardAlpha"/>
<feOffset dx="0.5" dy="0.5"/>
<feGaussianBlur stdDeviation="0.25"/>
<feComposite in2="hardAlpha" operator="arithmetic" k2="-1" k3="1"/>
<feColorMatrix type="matrix" values="0 0 0 0 0.127604 0 0 0 0 0.267969 0 0 0 0 0.408333 0 0 0 0.4 0"/>
<feBlend mode="normal" in2="effect1_innerShadow_1107_339" result="effect2_innerShadow_1107_339"/>
</filter>
<linearGradient id="paint0_linear_1107_339" x1="0" y1="37.064" x2="242.525" y2="262.459" gradientUnits="userSpaceOnUse">
<stop stop-color="#B7FFF7"/>
<stop offset="0.713542" stop-color="#32CCBC"/>
<stop offset="1" stop-color="#126B62"/>
</linearGradient>
<linearGradient id="paint1_linear_1107_339" x1="0" y1="37.064" x2="242.525" y2="262.459" gradientUnits="userSpaceOnUse">
<stop stop-color="#B7FFF7"/>
<stop offset="0.713542" stop-color="#32CCBC"/>
<stop offset="1" stop-color="#126B62"/>
</linearGradient>
</defs>
</svg>
