<svg width="24" height="24" viewBox="0 0 24 24" fill="none" xmlns="http://www.w3.org/2000/svg">
<path d="M12 24C18.6274 24 24 18.6274 24 12C24 5.37258 18.6274 0 12 0C5.37258 0 0 5.37258 0 12C0 18.6274 5.37258 24 12 24Z" fill="#FF5767"/>
<path d="M23.5 12C23.5 18.3513 18.3513 23.5 12 23.5C5.64873 23.5 0.5 18.3513 0.5 12C0.5 5.64873 5.64873 0.5 12 0.5C18.3513 0.5 23.5 5.64873 23.5 12Z" stroke="black" stroke-opacity="0.097"/>
<path d="M14.4637 8.53777C15.0669 7.47807 15.3523 6.32055 15.4827 5.11412C15.6783 5.16303 15.6376 5.2853 15.6457 5.38312C15.9066 7.6085 15.5642 9.75235 14.7979 11.8555C14.211 13.4695 13.4774 15.0101 12.6785 16.5344C12.4422 16.9746 12.4177 17.5208 12.2384 17.9936C12.0998 18.3604 12.1487 18.7761 11.9449 19.2C11.7493 18.7761 11.7493 18.3848 11.6515 18.018C11.4069 17.048 11.0482 16.135 10.5754 15.2465C9.15708 12.5728 8.18704 9.77681 8.18704 6.71183C8.18704 6.21458 8.25225 5.71734 8.29301 5.22009C8.30116 5.15488 8.34192 5.09782 8.39083 5C8.57017 6.17382 8.83101 7.29059 9.2875 8.34213C9.32011 8.4155 9.35271 8.52147 9.49944 8.54592C9.49944 7.94271 9.49944 7.34765 9.49944 6.75258C9.49944 6.71183 9.48314 6.67107 9.48314 6.63031C9.48314 6.36946 9.32826 5.96188 9.51574 5.87222C9.7929 5.74179 10.013 6.10861 10.2331 6.28794C10.7466 6.68737 11.1216 7.22537 11.5944 7.67371C11.9123 7.97532 12.0672 7.96716 12.3525 7.63295C12.8416 7.04604 13.3877 6.53249 13.9746 6.05155C14.0969 5.95373 14.2273 5.7744 14.3904 5.84776C14.5697 5.92928 14.4719 6.14122 14.4556 6.28794C14.3985 7.02158 14.3904 7.77153 14.4637 8.53777Z" fill="#2F2F38"/>
<path d="M21.8898 11.676C19.8927 11.5211 18.727 13.0699 18.4417 15.2301C18.3113 15.2464 18.3031 15.1486 18.2787 15.0507C17.5206 12.1895 16.7543 9.32835 15.9881 6.46716C15.9718 6.39379 15.8902 6.30413 15.9881 6.25522C16.1022 6.19001 16.1837 6.29598 16.2652 6.36934C16.8114 6.90734 17.3657 7.44534 17.9118 7.98335C19.0694 9.11641 20.2676 10.2087 21.4741 11.2847C21.5963 11.3907 21.7105 11.5048 21.8898 11.676Z" fill="#2F2F38"/>
<path d="M5.53777 15.328C5.36659 14.7655 5.28507 14.2194 5.08129 13.6977C4.71447 12.7602 4.1031 12.0673 3.10861 11.7494C2.78255 11.6435 2.45649 11.6598 2 11.7005C2.47279 11.2766 2.86406 10.9261 3.24719 10.5756C4.71447 9.25506 6.12468 7.8856 7.5186 6.49168C7.55936 6.45093 7.59196 6.41017 7.63272 6.37756C7.69793 6.3205 7.75499 6.19823 7.86096 6.24714C7.99139 6.31235 7.86911 6.41017 7.85281 6.49168C7.5512 7.82854 7.15993 9.14094 6.80126 10.4615C6.38553 12.0184 5.99426 13.5835 5.59483 15.1405C5.57853 15.1975 5.56223 15.2627 5.53777 15.328Z" fill="#2F2F38"/>
<path d="M7.84465 9.54053C8.12996 11.285 8.56199 12.9886 9.3853 14.5537C9.35269 14.6189 9.29563 14.6108 9.24672 14.5945C8.0729 14.3499 7.16807 14.8309 6.37737 15.6379C6.29586 15.7194 6.23065 15.8824 6.09207 15.8009C5.9698 15.7194 6.10837 15.6134 6.13283 15.5156C6.41813 14.4152 6.71159 13.3147 6.99689 12.2061C7.23329 11.3176 7.46968 10.429 7.70608 9.54053C7.75499 9.54868 7.8039 9.54868 7.84465 9.54053Z" fill="#2F2F38"/>
<path d="M16.1185 9.34473C16.6809 11.4886 17.2434 13.6324 17.8058 15.7763C17.7651 15.7926 17.7325 15.8089 17.6917 15.8252C16.844 14.8552 15.8332 14.3009 14.4148 14.6269C15.0343 13.7629 15.2218 12.858 15.5316 12.0021C15.8413 11.1462 15.9391 10.2577 16.0043 9.35288C16.0451 9.35288 16.0777 9.35288 16.1185 9.34473Z" fill="#2F2F38"/>
</svg>
