<svg width="24" height="24" viewBox="0 0 24 24" fill="none" xmlns="http://www.w3.org/2000/svg">
<path d="M12 24C18.6274 24 24 18.6274 24 12C24 5.37258 18.6274 0 12 0C5.3726 0 1.52588e-05 5.37258 1.52588e-05 12C1.52588e-05 18.6274 5.3726 24 12 24Z" fill="#2170FB"/>
<path d="M12 24C18.6274 24 24 18.6274 24 12C24 5.37258 18.6274 0 12 0C5.3726 0 1.52588e-05 5.37258 1.52588e-05 12C1.52588e-05 18.6274 5.3726 24 12 24Z" fill="black"/>
<path d="M6.13113 8.81515C6.25083 8.6304 6.36532 8.44565 6.49022 8.26351C6.72441 7.92524 6.98982 7.61298 7.28386 7.32675C7.32029 7.29032 7.36453 7.2591 7.37493 7.20446C7.48422 7.15502 7.55448 7.05614 7.64295 6.98328C8.41837 6.35617 9.27186 5.88519 10.2502 5.6432C10.5885 5.55993 10.9294 5.49488 11.2703 5.45845C12.3371 5.34916 13.3728 5.50789 14.3668 5.90861C15.4414 6.34056 16.3339 7.02491 17.0547 7.93304C17.864 8.95566 18.3141 10.124 18.4312 11.412C18.5275 12.4659 18.3792 13.4937 17.9785 14.4773C17.8796 14.7193 17.7521 14.9431 17.648 15.1825C17.5751 15.2996 17.5023 15.4141 17.4268 15.5312C17.151 15.9657 16.8257 16.3638 16.4536 16.7203C16.4354 16.7385 16.4224 16.7619 16.4094 16.7828C16.3756 16.8114 16.3417 16.8374 16.3105 16.866C15.9514 17.1939 15.5585 17.4801 15.1344 17.7195C14.4344 18.1124 13.6928 18.3778 12.8966 18.4949C12.3189 18.5808 11.7412 18.5886 11.161 18.5262C9.77146 18.3778 8.55368 17.8288 7.52325 16.8972C6.12853 15.6352 5.38433 14.0584 5.32969 12.1692C5.30627 11.3418 5.42597 10.5403 5.7122 9.75971C5.82929 9.43445 5.98281 9.1274 6.13113 8.81515ZM8.06449 11.9871C8.05408 14.0818 9.74284 15.8824 11.8896 15.8824C14.0207 15.8824 15.7615 14.1338 15.7693 11.9975C15.7771 9.8716 14.0233 8.10998 11.8766 8.12039C9.76366 8.1282 8.05928 9.87941 8.06449 11.9871Z" fill="#017BF8"/>
<path d="M17.648 15.1853C17.7521 14.9485 17.8796 14.7221 17.9785 14.4801C18.3818 13.4939 18.5275 12.4687 18.4312 11.4148C18.3141 10.1242 17.8666 8.95587 17.0547 7.93585C16.3339 7.02772 15.4414 6.34337 14.3668 5.91142C13.3728 5.5133 12.3371 5.35457 11.2703 5.46126C10.9294 5.49509 10.5885 5.56014 10.2503 5.64601C9.27187 5.888 8.42098 6.35638 7.64296 6.98608C7.55188 7.05894 7.48423 7.15782 7.37494 7.20726C7.10693 6.85078 6.83891 6.49429 6.56829 6.1404C6.52926 6.09097 6.52406 6.05714 6.5813 6.0129C7.20841 5.5081 7.85633 5.03712 8.59793 4.70925C9.33432 4.38399 10.0967 4.17062 10.8956 4.06654C11.6372 3.97026 12.3788 3.97807 13.1152 4.09256C14.117 4.24868 15.0563 4.58696 15.9332 5.09697C16.6384 5.5081 17.2759 6.0051 17.8145 6.61659C18.6836 7.60278 19.3237 8.72168 19.6438 10.0071C19.878 10.9491 19.9587 11.904 19.8494 12.8668C19.7193 13.9961 19.3784 15.0604 18.8007 16.044C18.7435 16.1402 18.6732 16.2287 18.6056 16.3172C18.5509 16.3874 18.5093 16.3666 18.4807 16.3068C18.2751 15.8774 17.8978 15.5782 17.648 15.1853Z" fill="white"/>
<path d="M6.13113 8.81577C5.98281 9.12802 5.82669 9.43767 5.70699 9.76293C5.42076 10.541 5.30107 11.345 5.32448 12.1725C5.37913 14.0616 6.12333 15.6411 7.51805 16.9005C8.54848 17.832 9.76886 18.3785 11.1558 18.5294C11.736 18.5918 12.3137 18.584 12.8914 18.4982C13.6876 18.3811 14.4292 18.1156 15.1292 17.7227C15.5533 17.4833 15.9462 17.1971 16.3053 16.8692C16.3365 16.8406 16.3704 16.812 16.4042 16.786C16.6826 17.106 16.922 17.4573 17.164 17.806C17.2317 17.9049 17.2213 17.9673 17.1302 18.0428C16.5551 18.5164 15.9514 18.9483 15.2697 19.258C14.4812 19.6145 13.6564 19.8486 12.7899 19.9475C11.9624 20.0412 11.1402 20.0126 10.3257 19.8486C9.16517 19.6171 8.10352 19.1487 7.14595 18.4539C6.25864 17.8086 5.55347 16.9915 4.98881 16.0574C4.51003 15.2559 4.19778 14.3895 4.02864 13.4709C3.88813 12.7059 3.84389 11.9383 3.92976 11.1681C4.05987 10.0257 4.38773 8.94327 4.98881 7.95448C5.04606 7.8582 5.10331 7.75932 5.15795 7.66304C5.19958 7.59018 5.23601 7.59018 5.28545 7.66304C5.55087 8.03254 5.81888 8.39943 6.0869 8.76633C6.10251 8.78454 6.11812 8.79755 6.13113 8.81577Z" fill="white"/>
<path d="M23.5 12C23.5 18.3513 18.3513 23.5 12 23.5C5.64874 23.5 0.500015 18.3513 0.500015 12C0.500015 5.64873 5.64874 0.5 12 0.5C18.3513 0.5 23.5 5.64873 23.5 12Z" stroke="white" stroke-opacity="0.3"/>
</svg>
