<svg width="24" height="24" viewBox="0 0 24 24" fill="none" xmlns="http://www.w3.org/2000/svg">
<path d="M12 24C18.6274 24 24 18.6274 24 12C24 5.37258 18.6274 0 12 0C5.37258 0 0 5.37258 0 12C0 18.6274 5.37258 24 12 24Z" fill="#FF0000"/>
<path d="M6.60033 19.102C6.61179 19.1268 6.63665 19.1279 6.65608 19.1337C6.88898 19.2025 7.12514 19.2209 7.36399 19.1703C7.56782 19.1271 7.72918 19.0119 7.86807 18.8621C8.04588 18.6704 8.16969 18.4446 8.27581 18.2079C8.41933 17.8878 8.51726 17.5526 8.60707 17.2146C8.84846 16.3061 9.08317 15.396 9.3202 14.4864C9.47098 13.9082 9.64198 13.3352 9.80362 12.7598C10.136 11.5764 10.4681 10.393 10.8006 9.2097C10.8052 9.19346 10.8124 9.17795 10.8066 9.15251C10.3806 9.15251 9.95251 9.15251 9.51425 9.15251C9.55079 9.0424 9.58413 8.94251 9.61682 8.84241C9.6232 8.82283 9.63632 8.81682 9.65495 8.81703C9.67423 8.81725 9.69359 8.81689 9.71287 8.81689C10.0896 8.81689 10.4662 8.81696 10.8429 8.81682C10.9102 8.81682 10.9103 8.81653 10.9292 8.75049C10.9523 8.66981 10.9753 8.58906 11.0001 8.50215C10.5665 8.50215 10.1396 8.50215 9.71722 8.50215C9.70055 8.48417 9.70714 8.46989 9.71142 8.45677C9.73846 8.37435 9.76781 8.29259 9.79282 8.20959C9.80304 8.17567 9.81957 8.16407 9.85465 8.16494C9.94396 8.16719 10.0333 8.16566 10.1226 8.16566C10.4221 8.16566 10.7215 8.16566 11.0209 8.16566C11.0975 8.16566 11.0974 8.16552 11.1189 8.09477C11.2433 7.68674 11.3604 7.27581 11.5189 6.87959C11.7855 6.21278 12.1556 5.60708 12.6417 5.07719C13.039 4.64415 13.5311 4.35739 14.0915 4.18669C14.6143 4.02736 15.1502 3.98053 15.6943 4.00692C16.0206 4.02272 16.3427 4.06462 16.6571 4.15631C16.9491 4.24141 17.2223 4.36428 17.458 4.5605C17.7615 4.81305 17.9341 5.13729 17.9834 5.52806C18.0177 5.80018 18.0024 6.06773 17.9045 6.32659C17.8044 6.59145 17.6348 6.80406 17.4089 6.9723C17.1289 7.18078 16.8131 7.30459 16.4701 7.36272C16.1401 7.41868 15.8259 7.36569 15.5284 7.21796C15.2486 7.079 15.0669 6.85821 15.0029 6.54847C14.9683 6.38088 14.9702 6.2109 15.0013 6.04425C15.1428 5.28675 15.5699 4.75629 16.2799 4.45503C16.3192 4.43843 16.3601 4.42597 16.4003 4.41161C16.3908 4.38784 16.3687 4.38733 16.3514 4.38197C16.1215 4.31057 15.8873 4.29368 15.6509 4.34007C15.4362 4.38218 15.2672 4.50367 15.1232 4.66271C14.9478 4.8564 14.8245 5.08248 14.7198 5.31974C14.5889 5.61614 14.4942 5.92457 14.412 6.23728C14.2485 6.85966 14.0843 7.48182 13.9203 8.10405C13.9155 8.12232 13.9047 8.13978 13.9171 8.16487C14.4378 8.16487 14.9611 8.16487 15.4806 8.16487C15.4977 8.1861 15.4877 8.2014 15.4827 8.21662C15.4578 8.29215 15.4328 8.36769 15.4075 8.44307C15.3883 8.49997 15.3881 8.50026 15.3277 8.50026C14.8568 8.50041 14.3859 8.50034 13.9151 8.50034C13.8171 8.50034 13.8171 8.50034 13.7937 8.59414C13.7779 8.65727 13.7627 8.72055 13.7457 8.78333C13.7397 8.80565 13.7469 8.81515 13.7684 8.81595C13.7877 8.81667 13.807 8.81653 13.8263 8.81653C14.2923 8.81653 14.7584 8.81653 15.2244 8.81653C15.2507 8.81653 15.277 8.81653 15.3052 8.81653C15.3111 8.85386 15.2943 8.8814 15.2855 8.91004C15.2672 8.96998 15.2468 9.02928 15.2271 9.08879C15.2064 9.15098 15.2063 9.15113 15.1428 9.15135C15.0679 9.15164 14.9931 9.15142 14.9182 9.15142C14.5246 9.15142 14.131 9.15142 13.7374 9.15142C13.7229 9.15142 13.7082 9.15323 13.694 9.15106C13.6568 9.14533 13.6439 9.16512 13.635 9.19767C13.5925 9.35344 13.5483 9.50878 13.5046 9.66419C12.9929 11.483 12.4821 13.3022 11.9688 15.1206C11.8267 15.624 11.6804 16.1267 11.49 16.6141C11.2304 17.2786 10.8618 17.8797 10.3838 18.41C9.9694 18.8699 9.45278 19.1692 8.86092 19.341C8.35286 19.4886 7.83342 19.5317 7.30658 19.5061C6.9777 19.4901 6.65318 19.4479 6.33677 19.3547C6.02841 19.2638 5.74165 19.1305 5.49903 18.9141C5.24467 18.6872 5.09028 18.404 5.03069 18.0698C4.98176 17.795 4.988 17.5217 5.07368 17.2538C5.16798 16.959 5.3463 16.7232 5.5937 16.5403C5.92809 16.2932 6.30589 16.1536 6.71936 16.1307C7.01583 16.1143 7.29969 16.1841 7.55601 16.3411C7.83958 16.5147 7.99456 16.7694 8.01514 17.1016C8.04399 17.5671 7.90054 17.982 7.62936 18.3546C7.37522 18.7037 7.04381 18.9519 6.63266 19.0902C6.62208 19.0943 6.61135 19.0981 6.60033 19.102Z" fill="white"/>
<path d="M23.5 12C23.5 18.3513 18.3513 23.5 12 23.5C5.64873 23.5 0.5 18.3513 0.5 12C0.5 5.64873 5.64873 0.5 12 0.5C18.3513 0.5 23.5 5.64873 23.5 12Z" stroke="black" stroke-opacity="0.1"/>
</svg>
