<svg width="128" height="128" xmlns="http://www.w3.org/2000/svg" viewBox="0 0 128.01 128.01"><title>logo111111</title><g id="layer1"><circle id="path854" cx="64" cy="64" r="63.87" stroke="#000" stroke-miterlimit="2.54" stroke-width="0.28"/><path id="path862" d="M28.76,28.47c-2.69,2.83-4.92,5.21-4.94,5.25s2.4,2.45,5.39,5.28S34.8,44.34,35,44.5l.33.31-.6,1a34.2,34.2,0,0,0-.45,34.87,3.31,3.31,0,0,1,.6,1.35c0,.09-2.76,3-6,6.39s-5.95,6.26-6,6.31,9.16,8.93,10,9.65l.33.29,5.19-5.41,5.92-6.21.76-.77.72.45a34.88,34.88,0,0,0,12.68,4.8,40.19,40.19,0,0,0,9.45.23,34.59,34.59,0,0,0,13.71-4.6l1-.63,1.1,1.08c2.4,2.33,11.38,10.86,11.47,10.9s9.94-10.25,9.92-10.39S98.37,87.58,94.24,83.7l-1.37-1.3.63-1a34.51,34.51,0,0,0,3-29.21A46.93,46.93,0,0,0,93.59,46l-.43-.74,5.77-6c3.16-3.3,5.74-6.06,5.72-6.12-.09-.23-10.19-9.77-10.32-9.77s-2.63,2.58-5.66,5.77-5.54,5.77-5.61,5.79a1.52,1.52,0,0,1-.6-.31,35.9,35.9,0,0,0-3.77-2.07,35.07,35.07,0,0,0-9.87-2.94,54,54,0,0,0-9.07-.07,34.27,34.27,0,0,0-10.84,3.3c-1,.47-2.13,1.1-2.58,1.37l-.81.5-.92-.9c-.49-.5-2.74-2.6-5-4.74s-4.49-4.26-5-4.8l-1-1ZM66.44,43.1a20.8,20.8,0,0,1,9.69,3.71,24.26,24.26,0,0,1,4.8,4.8,20.7,20.7,0,1,1-37.2,15.91,24.82,24.82,0,0,1,0-7.79,19.34,19.34,0,0,1,1.86-5.36A20.59,20.59,0,0,1,66.44,43.1Z" transform="translate(0.01 0.01)" fill="#fff"/></g></svg>
