<svg width="40" height="40" viewBox="0 0 40 40" fill="none" xmlns="http://www.w3.org/2000/svg"><rect fill="#6747ED" width="40" height="40" rx="12"/><g transform="translate(4 4)"><circle cx="16" cy="16" r="14" fill="#fff"/><svg width="32" height="32" viewBox="0 0 32 32" xmlns="http://www.w3.org/2000/svg"><path fill-rule="evenodd" clip-rule="evenodd" d="M0 16C0 7.163 7.163 0 16 0s16 7.163 16 16-7.163 16-16 16S0 24.837 0 16z" fill="#6747ED"/><path fill-rule="evenodd" clip-rule="evenodd" d="M15.242 16.987a3.983 3.983 0 01-3.995-3.995 3.983 3.983 0 013.995-3.995 3.983 3.983 0 013.995 3.995 3.983 3.983 0 01-3.995 3.995zm0-9.987a5.994 5.994 0 015.992 5.992 5.994 5.994 0 01-5.992 5.992 5.994 5.994 0 01-5.992-5.992A5.994 5.994 0 0115.242 7zm5.711 12.297c.406.405.406 1.03 0 1.404l-3.994 3.995c-.406.405-1.03.405-1.405 0-.405-.406-.405-1.03 0-1.405l3.995-3.994a.962.962 0 011.404 0zm2.31-11.298a.986.986 0 01-.999.998.986.986 0 01-.998-.998c0-.562.437-.999.998-.999.53 0 .999.437.999.999z" fill="#fff"/></svg></g></svg>