<?xml version="1.0" encoding="utf-8"?>
<svg version="1.1" id="Layer_1" xmlns="http://www.w3.org/2000/svg" xmlns:xlink="http://www.w3.org/1999/xlink" x="0px" y="0px"
	 viewBox="0 0 111.4 104.2" style="enable-background:new 0 0 111.4 104.2;" xml:space="preserve">
<style type="text/css">
	.st0{fill:#FFF641;}
	.st1{fill:#FF9901;}
	.st2{fill:#FFFD79;}
	.st3{fill:#FFFFFF;}
	.st4{fill:#B70501;}
	.st5{fill:#660200;}
	.st6{fill:#EC5252;}
</style>
<g transform="matrix( 0.6914520263671875, 0, 0, 0.6914520263671875, 76.05,55.3) ">
	<g transform="matrix( 1, 0, 0, 1, 0,0) ">
		<g>
			<g id="B_coin_anim1_0_Layer1_0_FILL">
				<path class="st0" d="M20.6,30.4h10v-20h-10V30.4 M20.6,40.4v-10h-10v10H20.6 M-9.4,40.4v10h20v-10H-9.4 M-49.4,50.4v10h40v-10
					H-49.4 M-69.4,30.4h-10v10h10V30.4 M-79.4,30.4v-20h-10v20H-79.4 M-49.4,40.4h-20v10h20V40.4 M-69.4-59.6v10h20v-10H-69.4
					 M-69.4-49.6h-10v10h10V-49.6 M-9.4-59.6v-10h-40v10H-9.4 M-89.4-19.6h-10v30h10V-19.6 M-89.4-39.6v20h10v-20H-89.4 M40.6-19.6
					h-10v30h10V-19.6 M30.6-39.6h-10v20h10V-39.6 M20.6-49.6h-10v10h10V-49.6 M10.6-49.6v-10h-20v10H10.6z"/>
				<path class="st1" d="M20.6,40.4h-10v10h10V40.4 M20.6,30.4v10h10v-10H20.6 M40.6,10.4h-10v20h10V10.4 M-89.4,30.4v-20h-10v20
					H-89.4 M-9.4,50.4v10h20v-10H-9.4 M-49.4,60.4v-10h-20v10H-49.4 M-49.4,60.4v10h40v-10H-49.4 M-79.4,40.4v-10h-10v10H-79.4
					 M-69.4,40.4h-10v10h10V40.4 M-69.4-69.6v10h20v-10H-69.4 M-79.4-49.6h10v-10h-10V-49.6 M-9.4-69.6v-10h-40v10H-9.4 M-89.4-49.6
					v10h10v-10H-89.4 M-99.4-19.6h-10v30h10V-19.6 M-89.4-19.6v-20h-10v20H-89.4 M50.6-19.6h-10v30h10V-19.6 M30.6-39.6v20h10v-20
					H30.6 M10.6-59.6v-10h-20v10H10.6 M10.6-59.6v10h10v-10H10.6 M30.6-49.6h-10v10h10V-49.6z"/>
				<path class="st2" d="M-49.4,40.4v10h40v-10H-49.4 M-79.4-19.6h-10v30h10V-19.6 M-9.4-49.6v-10h-40v10H-9.4 M30.6-19.6h-10v30h10
					V-19.6z"/>
				<path class="st3" d="M20.6-19.6v-20h-10v-10h-20h-40h-20v10h-10v20v30v20h10v10h20h40h20v-10h10v-20V-19.6z"/>
			</g>
		</g>
	</g>
	<g transform="matrix( 1, 0, 0, 1, 0,0) ">
		<g>
			<g id="B_coin_anim1_0_Layer0_0_FILL">
				<path class="st4" d="M-49.4-19.6h5v30h-5v20h10v-20h5v-10v-10v-10h-5v-20h-10V-19.6z"/>
				<path class="st5" d="M-59.4-39.6h-10v20h5v30h-5v20h10v-20h5v-30h-5V-39.6z"/>
				<path class="st6" d="M-49.4-39.6h-10v20h5v30h-5v20h10v-20h5v-30h-5V-39.6z"/>
				<path d="M5.6-9.6h10v-20h-10v-10h-40v10h30v20h-30v10h30v20h-30v10h40v-10h10v-20h-10V-9.6z"/>
			</g>
		</g>
	</g>
</g>
</svg>
