<svg width="128" height="128" viewBox="0 0 55 55" fill="none" xmlns="http://www.w3.org/2000/svg">
    <circle cx="27.5" cy="27.5" r="27.5" fill="#FF9A00"/>
    <path fill-rule="evenodd" clip-rule="evenodd" d="M35.52 9.72016C33.0739 8.6151 30.359 8 27.5004 8C19.01 8 11.7869 13.4262 9.11 21C8.65848 22.2775 8.33629 23.6161 8.15918 25H29.1121C29.2351 23.6355 29.4577 22.2997 29.7727 21H13.424C15.8818 15.6871 21.2625 12 27.5004 12C29.4754 12 31.3645 12.3696 33.102 13.0434C33.8258 11.8745 34.6347 10.7639 35.52 9.72016ZM29.1121 30H8.15918C8.33629 31.3839 8.65848 32.7225 9.11 34C11.7869 41.5737 19.01 47 27.5004 47C30.359 47 33.0739 46.3849 35.52 45.2798C34.6347 44.2361 33.8258 43.1255 33.102 41.9566C31.3645 42.6304 29.4754 43 27.5004 43C21.2625 43 15.8818 39.3129 13.424 34H29.7727C29.4577 32.7003 29.2351 31.3645 29.1121 30Z" fill="#0D3693"/>
</svg>
