<svg width="128" height="128" viewBox="0 0 128 128" fill="none" xmlns="http://www.w3.org/2000/svg">
<rect width="128" height="128" fill="#FF85FB"/>
<path d="M38.6667 64L26 64L26 76.6667L38.6667 76.6667L38.6667 64Z" fill="#090909"/>
<path d="M102 64L89.3333 64L89.3333 76.6667L102 76.6667L102 64Z" fill="#090909"/>
<path d="M26.0001 89.3334L38.6667 89.3334L38.6667 102L26.0001 102L26.0001 89.3334Z" fill="#090909"/>
<path d="M89.3333 89.3334L102 89.3334L102 102L89.3333 102L89.3333 89.3334Z" fill="#090909"/>
<path d="M26.0001 76.6666L38.6667 76.6666L38.6667 89.3333L26.0001 89.3333L26.0001 76.6666Z" fill="#090909"/>
<path d="M89.3333 76.6666L102 76.6666L102 89.3333L89.3333 89.3333L89.3333 76.6666Z" fill="#090909"/>
<path d="M38.6667 51.3334L26 51.3334L26 64L38.6667 64L38.6667 51.3334Z" fill="#090909"/>
<path d="M102 51.3334L89.3333 51.3334L89.3333 64L102 64L102 51.3334Z" fill="#090909"/>
<path d="M38.6667 38.6666L26 38.6666L26 51.3333L38.6667 51.3333L38.6667 38.6666Z" fill="#090909"/>
<path d="M102 38.6666L89.3333 38.6666L89.3333 51.3333L102 51.3333L102 38.6666Z" fill="#090909"/>
<path d="M38.6667 26L26 26L26 38.6667L38.6667 38.6667L38.6667 26Z" fill="#090909"/>
<path d="M102 26L89.3333 26L89.3333 38.6667L102 38.6667L102 26Z" fill="#090909"/>
<path d="M51.3334 38.6666L38.6667 38.6666L38.6667 51.3333L51.3334 51.3333L51.3334 38.6666Z" fill="#090909"/>
<path d="M63.9999 51.3334L51.3333 51.3334L51.3333 64L63.9999 64L63.9999 51.3334Z" fill="#090909"/>
<path d="M76.6667 64L64 64L64 76.6667L76.6667 76.6667L76.6667 64Z" fill="#090909"/>
<path d="M89.3334 76.6666L76.6667 76.6666L76.6667 89.3333L89.3334 89.3333L89.3334 76.6666Z" fill="#090909"/>
</svg>
