<svg width="24" height="24" viewBox="0 0 24 24" fill="none" xmlns="http://www.w3.org/2000/svg">
<path d="M12 24C18.6274 24 24 18.6274 24 12C24 5.37258 18.6274 0 12 0C5.37258 0 0 5.37258 0 12C0 18.6274 5.37258 24 12 24Z" fill="black"/>
<path d="M23.5 12C23.5 18.3513 18.3513 23.5 12 23.5C5.64873 23.5 0.5 18.3513 0.5 12C0.5 5.64873 5.64873 0.5 12 0.5C18.3513 0.5 23.5 5.64873 23.5 12Z" stroke="white" stroke-opacity="0.3"/>
<path d="M10.723 17.5935H15.6352C17.5253 17.5935 19.0638 16.055 19.0638 14.1649C19.0638 13.5605 18.9099 12.9671 18.6022 12.4506L16.1407 8.19775C16.2835 8.79117 16.3495 9.39558 16.3495 10.011C16.3604 13.5825 13.9758 16.6045 10.723 17.5935Z" fill="white"/>
<path d="M12.0307 4.40625V4.49416C11.4373 4.49416 10.8439 4.64801 10.3164 4.95571C9.7999 5.25242 9.36034 5.69198 9.06363 6.20848C8.50318 7.17553 8.16251 8.26345 8.0746 9.37336C9.28341 8.68104 10.6461 8.30741 12.0417 8.30741C13.4373 8.30741 14.8 8.67005 16.0088 9.37336C15.9209 8.26345 15.5802 7.17553 15.0198 6.20848C14.3934 5.15351 13.2505 4.49416 12.0307 4.49416V4.40625Z" fill="white"/>
<path d="M6.71194 17.1317C7.22843 17.4284 7.82185 17.5933 8.42625 17.5933C9.54715 17.5933 10.6571 17.3405 11.6681 16.868C8.56911 15.0767 7.14052 11.5053 7.90976 8.18652L5.45917 12.4393C4.5141 14.0877 5.07455 16.1867 6.71194 17.1317Z" fill="white"/>
</svg>
