<svg width="24" height="24" viewBox="0 0 24 24" fill="none" xmlns="http://www.w3.org/2000/svg">
<path d="M12.0001 24C18.6275 24 24.0001 18.6274 24.0001 12C24.0001 5.37258 18.6275 0 12.0001 0C5.37264 0 6.10352e-05 5.37258 6.10352e-05 12C6.10352e-05 18.6274 5.37264 24 12.0001 24Z" fill="#003057"/>
<path d="M9.5203 19C9.37998 18.9999 9.24174 18.967 9.11693 18.9039C8.99212 18.8408 8.88434 18.7493 8.80249 18.6371L5.29034 13.844H3.00006V12.0993H5.74367C5.88387 12.0991 6.02209 12.1319 6.14691 12.1948C6.27173 12.2577 6.37955 12.349 6.46145 12.4611L9.3314 16.376L13.7101 6.52223C13.779 6.36687 13.8924 6.2347 14.0365 6.14193C14.1806 6.04917 14.349 5.99984 14.5211 6H20.0001V7.74466H15.1007L10.3325 18.4766C10.2696 18.6181 10.1697 18.7407 10.043 18.8316C9.91623 18.9226 9.76722 18.9787 9.61115 18.9942C9.5797 18.9959 9.54819 18.9959 9.51673 18.9942" fill="#00C389"/>
<path d="M-5.24537e-07 12C-8.1423e-07 18.6274 5.37258 24 12 24C18.6274 24 24 18.6274 24 12C24 5.37258 18.6274 -2.34843e-07 12 -5.24537e-07C5.37258 -8.1423e-07 -2.34843e-07 5.37258 -5.24537e-07 12Z" fill="url(#paint0_linear)"/>
<path d="M12 23.5C5.64872 23.5 0.499999 18.3513 0.499999 12C0.5 5.64872 5.64872 0.499999 12 0.499999C18.3513 0.5 23.5 5.64873 23.5 12C23.5 18.3513 18.3513 23.5 12 23.5Z" stroke="white" stroke-opacity="0.3"/>
<path d="M3 14.2893L5.59785 6H10.0789L11.7436 10.327L13.2064 6H17.6791L20.7646 14.2107H20.0163L21 17H18.0322L16.9813 14.2107H17.9061L15.5016 8.10273L13.3326 14.2679H14.4255L13.4671 17H10.432L9.33909 14.2893L10.3396 14.2321L7.94348 8.21001L6.03503 14.2893L7.00187 14.2607L6.13592 17H3.10929L3.97525 14.2893H3Z" fill="white"/>
<defs>
<linearGradient id="paint0_linear" x1="24" y1="12" x2="-5.24537e-07" y2="12" gradientUnits="userSpaceOnUse">
<stop stop-color="#54CA98"/>
<stop offset="0.366395" stop-color="#2B94DD"/>
<stop offset="0.670368" stop-color="#0D44B4"/>
<stop offset="1" stop-color="#BC2DB5"/>
</linearGradient>
</defs>
</svg>
