<svg width="20" height="20" viewBox="0 0 20 20" fill="none" xmlns="http://www.w3.org/2000/svg">
<circle cx="10" cy="10" r="10" fill="black"/>
<mask id="mask0_2292_3327" style="mask-type:alpha" maskUnits="userSpaceOnUse" x="0" y="0" width="20" height="20">
<circle cx="10" cy="10" r="10" fill="black"/>
</mask>
<g mask="url(#mask0_2292_3327)">
<path d="M1.52165 7.93122C1.42426 8.9725 0.162196 10.8443 -0.456659 11.6501C-0.740724 12.0633 -1.22363 13.1438 -0.882757 14.1603C-0.456659 15.4309 0.182509 16.1747 0.852079 16.4536C1.52165 16.7325 2.13037 17.0734 2.64778 17.0734C3.16518 17.0734 4.47391 16.8875 5.50872 17.3833C6.54352 17.8792 7.24354 18.468 7.82182 20.1415C8.40009 21.815 9.31313 21.846 9.73924 21.9699C10.1654 22.0939 11.535 21.877 12.1741 20.5134C12.8132 19.1498 12.5393 16.0197 13.1785 14.9971C13.8176 13.9744 15.8568 13.0137 16.4351 12.9517C16.5162 12.9414 16.6846 12.7843 16.709 12.2389C16.7394 11.5571 16.3438 10.1315 17.4394 9.2948C18.316 8.6254 19.4076 6.6606 19.8438 5.76188C20.5134 4.73919 18.9308 1.39221 16.9829 2.84877C15.035 4.30532 13.3611 4.52226 12.8132 4.30532C12.2654 4.08839 11.5654 1.67113 11.5349 1.48518C11.5045 1.29924 11.0784 0.0906103 9.73924 -1.02505C8.40008 -2.14071 6.69569 -2.54359 3.56083 -0.901087C0.425971 0.741411 -0.0609976 2.04301 -0.274046 3.25164C-0.487095 4.46028 1.64339 6.62961 1.52165 7.93122Z" stroke="#8E3E57" stroke-width="0.1"/>
<path d="M2.40157 8.10361C2.30882 9.05812 1.10685 10.774 0.517467 11.5126C0.246929 11.8913 -0.212986 12.8818 0.11166 13.8136C0.517467 14.9783 1.1262 15.6601 1.76389 15.9158C2.40157 16.1715 2.98131 16.484 3.47407 16.484C3.96684 16.484 5.21324 16.3135 6.19878 16.7681C7.18431 17.2226 7.85099 17.7623 8.40173 19.2964C8.95247 20.8304 9.82203 20.8588 10.2279 20.9724C10.6337 21.0861 11.9381 20.8872 12.5468 19.6373C13.1555 18.3873 12.8946 15.5181 13.5033 14.5806C14.112 13.6432 16.0541 12.7625 16.6048 12.7057C16.6821 12.6962 16.8425 12.5523 16.8657 12.0523C16.8947 11.4273 16.5179 10.1206 17.5614 9.35357C18.3962 8.73995 19.4358 6.93889 19.8513 6.11506C20.489 5.17759 18.9817 2.10953 17.1266 3.4447C15.2715 4.77988 13.6772 4.97874 13.1555 4.77988C12.6337 4.58102 11.967 2.3652 11.938 2.19475C11.9091 2.0243 11.5032 0.916393 10.2279 -0.106295C8.95246 -1.12898 7.32923 -1.49829 4.34365 0.00733709C1.35807 1.51296 0.894288 2.7061 0.691384 3.81401C0.488481 4.92192 2.51752 6.91048 2.40157 8.10361Z" stroke="#8E3E57" stroke-width="0.1"/>
<path d="M2.52165 8.10361C2.42426 9.05812 1.1622 10.774 0.543341 11.5126C0.259276 11.8913 -0.223635 12.8818 0.117243 13.8136C0.543341 14.9783 1.18251 15.6601 1.85208 15.9158C2.52165 16.1715 3.13037 16.484 3.64778 16.484C4.16518 16.484 5.47391 16.3135 6.50872 16.7681C7.54352 17.2226 8.24354 17.7623 8.82182 19.2964C9.40009 20.8304 10.3131 20.8588 10.7392 20.9724C11.1654 21.0861 12.535 20.8872 13.1741 19.6373C13.8132 18.3873 13.5393 15.5181 14.1785 14.5806C14.8176 13.6432 16.8568 12.7625 17.4351 12.7057C17.5162 12.6962 17.6846 12.5523 17.709 12.0523C17.7394 11.4273 17.3438 10.1206 18.4394 9.35357C19.316 8.73995 20.4076 6.93889 20.8438 6.11506C21.5134 5.17759 19.9308 2.10953 17.9829 3.4447C16.035 4.77988 14.3611 4.97874 13.8132 4.77988C13.2654 4.58102 12.5654 2.3652 12.5349 2.19475C12.5045 2.0243 12.0784 0.916393 10.7392 -0.106295C9.40008 -1.12898 7.69569 -1.49829 4.56083 0.00733709C1.42597 1.51296 0.939002 2.7061 0.725954 3.81401C0.512905 4.92192 2.64339 6.91048 2.52165 8.10361Z" stroke="#8E3E57" stroke-width="0.1"/>
<path d="M2.52165 8.68981C2.42426 9.60093 1.1622 11.2388 0.543341 11.9438C0.259276 12.3054 -0.223635 13.2508 0.117243 14.1403C0.543341 15.2521 1.18251 15.9029 1.85208 16.1469C2.52165 16.391 3.13037 16.6892 3.64778 16.6892C4.16518 16.6892 5.47391 16.5265 6.50872 16.9604C7.54352 17.3943 8.24354 17.9095 8.82182 19.3738C9.40009 20.8381 10.3131 20.8652 10.7392 20.9737C11.1654 21.0822 12.535 20.8923 13.1741 19.6992C13.8132 18.5061 13.5393 15.7673 14.1785 14.8724C14.8176 13.9776 16.8568 13.137 17.4351 13.0827C17.5162 13.0737 17.6846 12.9363 17.709 12.459C17.7394 11.8625 17.3438 10.6151 18.4394 9.88295C19.316 9.29723 20.4076 7.57803 20.8438 6.79164C21.5134 5.89679 19.9308 2.96819 17.9829 4.24267C16.035 5.51716 14.3611 5.70697 13.8132 5.51716C13.2654 5.32734 12.5654 3.21224 12.5349 3.04954C12.5045 2.88684 12.0784 1.82928 10.7392 0.853082C9.40008 -0.12312 7.69569 -0.475637 4.56083 0.961549C1.42597 2.39874 0.939002 3.53764 0.725954 4.59519C0.512905 5.65274 2.64339 7.55091 2.52165 8.68981Z" stroke="#8E3E57" stroke-width="0.1"/>
<path d="M3.40157 8.86221C3.30882 9.68656 2.10685 11.1684 1.51747 11.8063C1.24693 12.1334 0.787014 12.9889 1.11166 13.7936C1.51747 14.7995 2.1262 15.3883 2.76389 15.6091C3.40157 15.8299 3.98131 16.0998 4.47407 16.0998C4.96684 16.0998 6.21324 15.9526 7.19878 16.3451C8.18431 16.7377 8.85099 17.2038 9.40173 18.5287C9.95247 19.8535 10.822 19.8781 11.2279 19.9762C11.6337 20.0743 12.9381 19.9026 13.5468 18.8231C14.1555 17.7436 13.8946 15.2656 14.5033 14.456C15.112 13.6464 17.0541 12.8858 17.6048 12.8367C17.6821 12.8286 17.8425 12.7043 17.8657 12.2725C17.8947 11.7327 17.5179 10.6041 18.5614 9.94172C19.3962 9.41178 20.4358 7.85631 20.8513 7.14482C21.489 6.33519 19.9817 3.6855 18.1266 4.83861C16.2715 5.99171 14.6772 6.16345 14.1555 5.99171C13.6337 5.81997 12.967 3.90631 12.938 3.7591C12.9091 3.6119 12.5032 2.65507 11.2279 1.77184C9.95246 0.888606 8.32923 0.569662 5.34365 1.86997C2.35807 3.17028 1.89429 4.20072 1.69138 5.15755C1.48848 6.11438 3.51752 7.83178 3.40157 8.86221Z" stroke="#8E3E57" stroke-width="0.1"/>
<path d="M5.28149 8.44841C5.19337 9.22937 4.05151 10.6332 3.49159 11.2376C3.23458 11.5475 2.79766 12.3579 3.10608 13.1202C3.49159 14.0732 4.06989 14.631 4.67569 14.8402C5.28149 15.0494 5.83224 15.3051 6.30037 15.3051C6.7685 15.3051 7.95258 15.1656 8.88884 15.5375C9.82509 15.9094 10.4584 16.351 10.9816 17.6061C11.5048 18.8612 12.3309 18.8845 12.7165 18.9774C13.102 19.0704 14.3412 18.9077 14.9194 17.885C15.4977 16.8623 15.2499 14.5148 15.8281 13.7478C16.4064 12.9808 18.2514 12.2602 18.7746 12.2138C18.848 12.206 19.0004 12.0883 19.0224 11.6792C19.05 11.1678 18.692 10.0987 19.6833 9.4711C20.4764 8.96905 21.464 7.49545 21.8587 6.82141C22.4645 6.05439 21.0326 3.54416 19.2702 4.63658C17.5079 5.72899 15.9934 5.89169 15.4977 5.72899C15.002 5.56629 14.3687 3.75335 14.3411 3.61389C14.3136 3.47443 13.9281 2.56796 12.7165 1.73121C11.5048 0.894469 9.96277 0.592311 7.12647 1.82418C4.29016 3.05606 3.84957 4.03226 3.65682 4.93873C3.46406 5.84521 5.39164 7.47221 5.28149 8.44841Z" stroke="#8E3E57" stroke-width="0.1"/>
<path d="M6.28149 8.03461C6.19337 8.77219 5.05151 10.0981 4.49159 10.6688C4.23458 10.9615 3.79766 11.7269 4.10608 12.4469C4.49159 13.3469 5.06989 13.8737 5.67569 14.0713C6.28149 14.2689 6.83224 14.5103 7.30037 14.5103C7.7685 14.5103 8.95258 14.3786 9.88884 14.7299C10.8251 15.0811 11.4584 15.4982 11.9816 16.6836C12.5048 17.8689 13.3309 17.8909 13.7165 17.9787C14.102 18.0665 15.3412 17.9128 15.9194 16.947C16.4977 15.9811 16.2499 13.764 16.8281 13.0396C17.4064 12.3152 19.2514 11.6347 19.7746 11.5908C19.848 11.5835 20.0004 11.4722 20.0224 11.0859C20.05 10.603 19.692 9.59318 20.6833 9.00048C21.4764 8.52633 22.464 7.13459 22.8587 6.498C23.4645 5.77359 22.0326 3.40282 20.2702 4.43454C18.5079 5.46627 16.9934 5.61993 16.4977 5.46627C16.002 5.31261 15.3687 3.60038 15.3411 3.46867C15.3136 3.33696 14.9281 2.48085 13.7165 1.69059C12.5048 0.900332 10.9628 0.614961 8.12647 1.7784C5.29016 2.94183 4.84957 3.8638 4.65682 4.71991C4.46406 5.57603 6.39164 7.11264 6.28149 8.03461Z" stroke="#8E3E57" stroke-width="0.1"/>
</g>
<path fill-rule="evenodd" clip-rule="evenodd" d="M7.91634 9.03611C7.19086 9.18143 6.8595 9.64733 6.86412 10.5158C6.8691 11.4598 7.34655 11.9402 8.27626 11.9369C9.18239 11.9336 9.64976 11.3877 9.60721 10.3823C9.58902 9.95237 9.56163 9.84439 9.40778 9.59565C9.12443 9.1374 8.52785 8.91361 7.91634 9.03611ZM10.8654 9.037C10.2252 9.16798 9.85281 9.67815 9.85281 10.4241C9.85281 10.6542 9.87877 10.9329 9.91048 11.0435C10.0695 11.5983 10.5553 11.9382 11.1891 11.9382C11.8411 11.9382 12.2174 11.7345 12.4372 11.2625C12.6418 10.823 12.636 10.8121 12.1978 10.8121C11.8665 10.8121 11.8116 10.8279 11.7783 10.9326C11.6568 11.3154 11.1039 11.4204 10.8016 11.1181C10.4944 10.8109 10.5084 10.1074 10.8276 9.80746C11.1057 9.54622 11.6993 9.67364 11.7845 10.0128C11.819 10.1506 11.8461 10.1602 12.2002 10.1602C12.4086 10.1602 12.5791 10.1375 12.5791 10.1097C12.5791 9.98094 12.43 9.63737 12.2958 9.45673C12.0374 9.10907 11.4112 8.92528 10.8654 9.037ZM16.461 9.02906C15.9372 9.12169 15.668 9.37565 15.6173 9.82524C15.5576 10.3548 15.8409 10.6227 16.6747 10.8253C17.1163 10.9326 17.2346 10.9837 17.2521 11.0749C17.3163 11.4101 16.4495 11.4454 16.3436 11.1118C16.3098 11.0054 16.2564 10.9899 15.9225 10.9899H15.5401L15.578 11.1529C15.7009 11.6823 16.0743 11.9383 16.7377 11.9481C17.2732 11.9559 17.6192 11.8558 17.8351 11.6304C17.9785 11.4807 18 11.4113 18 11.0979C18 10.7493 17.9919 10.7303 17.7515 10.517C17.5448 10.3336 17.4214 10.2802 17.0166 10.199C16.5771 10.1108 16.3129 9.98313 16.3129 9.85885C16.3129 9.73415 16.5196 9.62676 16.7598 9.62676C16.9807 9.62676 17.0405 9.65391 17.152 9.80456C17.27 9.96422 17.3163 9.98236 17.6061 9.98236H17.9286L17.896 9.73866C17.8255 9.21308 17.1921 8.89986 16.461 9.02906ZM2.00847 9.69587C2.0131 10.0653 2.01979 10.725 2.02329 11.1617L2.02963 11.9559L2.97991 11.9229C3.88527 11.8915 3.93961 11.8827 4.13081 11.7369C4.50923 11.4483 4.55356 10.8923 4.22048 10.6121C4.01269 10.4372 4.01109 10.4283 4.1592 10.2694C4.32236 10.0943 4.3677 9.74612 4.26072 9.49003C4.11196 9.1339 3.91004 9.06841 2.889 9.04471L2 9.02414L2.00847 9.69587ZM4.75376 9.62676C4.75263 9.95273 4.75168 10.5261 4.75168 10.901C4.75168 11.2759 4.75263 11.6626 4.75376 11.7604L4.75589 11.9382H5.73379H6.71169V11.6122V11.2862H6.08939H5.46709V10.1602V9.0341H5.11149H4.75589L4.75376 9.62676ZM12.8754 10.4861V11.9382H13.231H13.5866V11.6248C13.5866 11.3684 13.6168 11.2752 13.7524 11.1128L13.9182 10.9142L14.3006 11.4232L14.683 11.9323L15.1127 11.9352C15.3491 11.9369 15.5424 11.9248 15.5424 11.9084C15.5424 11.892 15.2771 11.5392 14.9528 11.1244C14.4547 10.4871 14.3749 10.3562 14.4384 10.2799C14.4799 10.2304 14.7185 9.94526 14.9688 9.64632C15.2191 9.34744 15.4239 9.08738 15.4239 9.06847C15.4239 9.04956 15.2299 9.0341 14.993 9.0341H14.5621L14.0892 9.63986L13.6162 10.2456L13.5993 9.63986L13.5825 9.0341H13.2289H12.8754V10.4861ZM3.54739 9.75069C3.66717 9.85008 3.64844 10.0868 3.51521 10.1581C3.45215 10.1918 3.25212 10.2194 3.07071 10.2194H2.74083V9.96263C2.74083 9.82133 2.75298 9.69367 2.7678 9.67886C2.82185 9.62475 3.46732 9.68419 3.54739 9.75069ZM8.45679 9.68603C8.60015 9.68603 8.83586 9.98823 8.87551 10.2229C8.97845 10.8321 8.70666 11.2878 8.24236 11.2843C7.96873 11.2823 7.86246 11.2248 7.70167 10.9915C7.55641 10.7808 7.56518 10.1895 7.7172 9.94016C7.83117 9.75324 8.13248 9.60981 8.30193 9.66179C8.34531 9.67512 8.41501 9.68603 8.45679 9.68603ZM3.57447 10.7549C3.70439 10.8244 3.73064 11.1024 3.61798 11.2151C3.57661 11.2565 3.3783 11.2862 3.14384 11.2862H2.74083V10.9899V10.6936H3.10034C3.29805 10.6936 3.51141 10.7212 3.57447 10.7549Z" fill="white"/>
</svg>
