<svg id="Layer_1" data-name="Layer 1" xmlns="http://www.w3.org/2000/svg" viewBox="0 0 288 288"><defs><style>.cls-1{fill:#00c08b;}</style></defs><path d="M164,164v52h52Zm-45-45,20.4,20.4,20.6-20.6V81H119Zm0,18.39V216h41V137.19l-20.6,20.6ZM166.5,81H164v33.81l26.16-26.17A40.29,40.29,0,0,0,166.5,81ZM72,153.19V216h43V133.4l-11.6-11.61Zm0-18.38,31.4-31.4L115,115V81H72ZM207,121.5h0a40.29,40.29,0,0,0-7.64-23.66L164,133.19V162h2.5A40.5,40.5,0,0,0,207,121.5Z"/><polygon class="cls-1" points="189 72 216 99 216 72 189 72"/></svg>