<svg width="24" height="24" viewBox="0 0 24 24" fill="none" xmlns="http://www.w3.org/2000/svg">
<path d="M12 24C18.6274 24 24 18.6274 24 12C24 5.37258 18.6274 0 12 0C5.37258 0 0 5.37258 0 12C0 18.6274 5.37258 24 12 24Z" fill="#F62E9C"/>
<path d="M23.5 12C23.5 18.3513 18.3513 23.5 12 23.5C5.64873 23.5 0.5 18.3513 0.5 12C0.5 5.64873 5.64873 0.5 12 0.5C18.3513 0.5 23.5 5.64873 23.5 12Z" stroke="black" stroke-opacity="0.097"/>
<path d="M12.579 5.01107C15.8184 5.30928 18.473 7.96395 18.7654 11.1975C19.1045 14.9222 16.5961 18.1441 12.8889 18.7346C12.2457 18.8399 11.5966 18.8282 10.9476 18.7463C10.7897 18.7288 10.7137 18.6703 10.7195 18.4891C10.7312 17.5886 10.7312 16.6881 10.7195 15.7818C10.7195 15.5888 10.7956 15.5596 10.9593 15.5596C11.696 15.5537 12.4328 15.6122 13.1637 15.4894C14.3273 15.2964 15.3447 14.852 15.9879 13.7995C17.286 11.6828 16.1868 9.06324 13.7543 8.46097C13.2923 8.34402 12.8187 8.2914 12.3451 8.28555C10.9593 8.2797 9.57348 8.2914 8.18767 8.2797C7.94209 8.2797 7.88361 8.35572 7.88361 8.58961C7.88946 11.4314 7.88946 14.2732 7.88946 17.1149C7.88946 17.226 7.88946 17.3371 7.88946 17.5126C7.33397 17.1149 6.89542 16.6998 6.51535 16.2203C5.64995 15.1444 5.13539 13.9165 5.00675 12.5365C4.99506 12.4313 5.0009 11.3086 5.00675 11.1916C5.31666 7.9581 7.95378 5.31513 11.2049 5.01107C11.3218 4.99938 12.4445 4.99353 12.579 5.01107Z" fill="white"/>
<path d="M10.7196 12.0097C10.7196 11.6296 10.7196 11.2554 10.7196 10.8753C10.7196 10.7584 10.7254 10.6648 10.8833 10.6707C11.4037 10.6882 11.93 10.6239 12.4504 10.7058C13.269 10.8344 13.7134 11.3314 13.6725 12.0623C13.6315 12.8049 13.1287 13.2961 12.3217 13.3429C11.8598 13.3721 11.392 13.3487 10.9301 13.3604C10.7605 13.3663 10.7137 13.302 10.7196 13.1382C10.7254 12.764 10.7196 12.3839 10.7196 12.0097Z" fill="white"/>
</svg>
