<svg width="24" height="24" viewBox="0 0 24 24" fill="none" xmlns="http://www.w3.org/2000/svg">
<path d="M12 24C18.6274 24 24 18.6274 24 12C24 5.37258 18.6274 0 12 0C5.37258 0 0 5.37258 0 12C0 18.6274 5.37258 24 12 24Z" fill="#142D51"/>
<path d="M23.5 12C23.5 18.3513 18.3513 23.5 12 23.5C5.64873 23.5 0.5 18.3513 0.5 12C0.5 5.64873 5.64873 0.5 12 0.5C18.3513 0.5 23.5 5.64873 23.5 12Z" stroke="black" stroke-opacity="0.097"/>
<path d="M15.5219 15.5375C16.2281 16.2472 16.9283 16.9508 17.6386 17.6666C16.9546 18.3501 16.1616 18.8985 15.2676 19.2957C13.6514 20.0134 11.9705 20.1848 10.2493 19.7997C6.72611 19.0094 4.3955 16.0758 4.05246 12.9205C3.84866 11.0374 4.23609 9.28533 5.25914 7.68851C6.20954 6.20864 7.51307 5.14611 9.16165 4.52311C12.475 3.27106 15.7782 4.4223 17.6285 6.32961C16.9243 7.03326 16.2201 7.7369 15.5098 8.44458C14.3092 7.32359 12.8826 6.82761 11.232 7.07156C9.96677 7.25907 8.92556 7.86997 8.12044 8.85992C6.46984 10.8882 6.68575 13.8036 8.53612 15.594C10.3925 17.3884 13.5121 17.5275 15.5219 15.5375Z" fill="white"/>
<path d="M14.6823 11.9893C16.0646 10.6123 17.4448 9.23723 18.8371 7.8501C19.5655 9.04569 19.9489 10.3401 19.9953 11.7272C20.0478 13.3059 19.6583 14.7777 18.823 16.1729C17.4367 14.7717 16.0666 13.3865 14.6823 11.9893Z" fill="white"/>
</svg>
