<svg width="480" height="480" viewBox="0 0 480 480" fill="none" xmlns="http://www.w3.org/2000/svg">
<mask id="mask0-808285" mask-type="alpha" maskUnits="userSpaceOnUse" x="0" y="0" width="480" height="480">
<circle cx="240" cy="240" r="240" fill="url(#paint0_linear-847024)"/>
</mask>
<g mask="url(#mask0-808285)">
<circle cx="240" cy="240" r="240" fill="#31D8A4"/>
<circle cx="240" cy="240" r="208" fill="white"/>
</g>
<circle cx="240" cy="240" r="184" fill="#0052FF"/>
<path fill-rule="evenodd" clip-rule="evenodd" d="M269.525 118.198C286.354 122.558 297.36 127.526 311.304 137.056C327.275 147.97 343.182 166.224 351.976 183.726C357.489 194.699 362.704 211.909 364.501 225.061L365.152 229.825L333.44 229.561L301.729 229.297L300.076 223.297C295.679 207.34 283.735 192.511 269.178 184.937C259.435 179.869 251.063 177.827 240.025 177.827C213.202 177.827 191.203 193.428 181.186 219.555C178.896 225.53 178.597 227.777 178.563 239.297C178.522 253.153 179.501 257.701 184.804 268.297C192.558 283.792 207.66 295.657 225.485 300.258C233.04 302.209 246.646 302.21 254.911 300.262C269.592 296.801 285.154 285.402 292.902 272.433C296.541 266.342 301.025 254.926 301.025 251.752C301.025 249.853 301.94 249.797 333.006 249.797H364.987L364.426 254.547C363.533 262.105 359.206 279.006 356.391 285.936C342.07 321.178 313.173 347.912 277.196 359.201C242.484 370.092 204.953 365.194 173.291 345.639C161.513 338.364 143.174 320.31 135.465 308.398C111.772 271.793 108.447 226.49 126.56 187.058C138.041 162.062 162.29 137.813 187.286 126.332C196.253 122.213 208.969 118.177 218.947 116.282C231.226 113.951 256.883 114.923 269.525 118.198Z" fill="white"/>
<defs>
<linearGradient id="paint0_linear-847024" x1="240" y1="0" x2="240" y2="701.818" gradientUnits="userSpaceOnUse">
<stop stop-color="#08021E"/>
<stop offset="1" stop-color="#1F0777"/>
</linearGradient>
</defs>
</svg>