<svg width="24" height="24" viewBox="0 0 24 24" fill="none" xmlns="http://www.w3.org/2000/svg">
<path d="M12 24C18.6274 24 24 18.6274 24 12C24 5.37258 18.6274 0 12 0C5.37258 0 0 5.37258 0 12C0 18.6274 5.37258 24 12 24Z" fill="#F5F5F5"/>
<path d="M23.5 12C23.5 18.3513 18.3513 23.5 12 23.5C5.64873 23.5 0.5 18.3513 0.5 12C0.5 5.64873 5.64873 0.5 12 0.5C18.3513 0.5 23.5 5.64873 23.5 12Z" stroke="black" stroke-opacity="0.097"/>
<path d="M8.9953 14.9127V18.3984C8.9953 18.3984 8.95906 18.9872 9.77798 18.9872H13.4235C13.4235 18.9872 14.1216 19.1597 14.1216 18.2414V14.9121" fill="#D0CFCE"/>
<path d="M8.9953 14.9127V18.3984C8.9953 18.3984 8.95906 18.9872 9.77798 18.9872H13.4235C13.4235 18.9872 14.1216 19.1597 14.1216 18.2414V14.9121" stroke="#D0CFCE" stroke-width="0.619457" stroke-miterlimit="10" stroke-linecap="round" stroke-linejoin="round"/>
<path d="M8.9953 16.0801V18.5703C8.9953 18.5703 8.95906 18.9906 9.77798 18.9906H13.4235C13.4235 18.9906 14.1216 19.1136 14.1216 18.4579V16.0801" fill="#D0CFCE"/>
<path d="M19.4864 12.1238C19.4864 14.8608 16.0196 14.9113 11.7432 14.9113C7.46679 14.9113 4 14.8608 4 12.1238C4 9.38668 7.46679 5 11.7432 5C16.0196 5 19.4864 9.38699 19.4864 12.1238Z" fill="#EA5A47"/>
<path d="M19.4864 12.1238C19.4864 14.8608 16.0196 14.9113 11.7432 14.9113C7.46679 14.9113 4 14.8608 4 12.1238C4 9.38668 7.46679 5 11.7432 5C16.0196 5 19.4864 9.38699 19.4864 12.1238Z" stroke="white" stroke-width="0.619457" stroke-miterlimit="10" stroke-linecap="round" stroke-linejoin="round"/>
<path d="M19.4865 12.1244C19.4865 14.8611 16.0194 14.9122 11.742 14.9122C22.0169 12.5595 11.742 5 11.742 5C16.0194 5 19.4865 9.38699 19.4865 12.1241V12.1244Z" fill="#D22F27"/>
<path d="M7.63799 6.37207C7.63799 6.37207 9.09124 10.7457 4.25421 10.712C4.25421 10.712 5.18495 7.90461 7.63799 6.37207Z" fill="white"/>
<path d="M11.8163 12.855C13.1874 12.8026 14.2661 11.9043 14.2258 10.8487C14.1854 9.79297 13.0413 8.97965 11.6702 9.03206C10.2991 9.08447 9.2204 9.98276 9.26075 11.0384C9.3011 12.0941 10.4453 12.9074 11.8163 12.855Z" fill="white"/>
<path d="M15.8189 6.37207C15.8189 6.37207 14.3657 10.7457 19.2027 10.712C19.2027 10.712 18.272 7.90461 15.8189 6.37207Z" fill="#D0CFCE"/>
<path d="M8.9953 16.0801V18.5703C8.9953 18.5703 8.95906 18.9906 9.77798 18.9906H13.4235C13.4235 18.9906 14.1216 19.1136 14.1216 18.4579V16.0801" stroke="black" stroke-width="0.619457" stroke-miterlimit="10" stroke-linecap="round" stroke-linejoin="round"/>
<path d="M19.4864 12.1238C19.4864 14.8608 16.0196 14.9113 11.7432 14.9113C7.46679 14.9113 4 14.8608 4 12.1238C4 9.38668 7.46679 5 11.7432 5C16.0196 5 19.4864 9.38699 19.4864 12.1238Z" stroke="black" stroke-width="0.619457" stroke-miterlimit="10" stroke-linecap="round" stroke-linejoin="round"/>
<path d="M19.4864 12.1238C19.4864 14.8608 16.0196 14.9113 11.7432 14.9113C7.46679 14.9113 4 14.8608 4 12.1238C4 9.38668 7.46679 5 11.7432 5C16.0196 5 19.4864 9.38699 19.4864 12.1238Z" stroke="black" stroke-width="0.619457" stroke-miterlimit="10" stroke-linecap="round" stroke-linejoin="round"/>
<path d="M7.63799 6.37207C7.63799 6.37207 9.09124 10.7457 4.25421 10.712C4.25421 10.712 5.18495 7.90461 7.63799 6.37207Z" stroke="black" stroke-width="0.619457" stroke-miterlimit="10" stroke-linecap="round" stroke-linejoin="round"/>
<path d="M11.8163 12.855C13.1874 12.8026 14.2661 11.9043 14.2258 10.8487C14.1854 9.79297 13.0413 8.97965 11.6702 9.03206C10.2991 9.08447 9.2204 9.98276 9.26075 11.0384C9.3011 12.0941 10.4453 12.9074 11.8163 12.855Z" stroke="black" stroke-width="0.619457" stroke-miterlimit="10" stroke-linecap="round" stroke-linejoin="round"/>
<path d="M15.8189 6.37207C15.8189 6.37207 14.3657 10.7457 19.2027 10.712C19.2027 10.712 18.272 7.90461 15.8189 6.37207Z" stroke="black" stroke-width="0.619457" stroke-miterlimit="10" stroke-linecap="round" stroke-linejoin="round"/>
</svg>
