<svg width="24" height="24" viewBox="0 0 24 24" fill="none" xmlns="http://www.w3.org/2000/svg">
<path fill-rule="evenodd" clip-rule="evenodd" d="M0 12C0 5.37259 5.37259 0 12 0C18.6274 0 24 5.37259 24 12C24 18.6274 18.6274 24 12 24C5.37259 24 0 18.6274 0 12Z" fill="#4FA8FF"/>
<path d="M23.5 12C23.5 18.3513 18.3513 23.5 12 23.5C5.64873 23.5 0.5 18.3513 0.5 12C0.5 5.64873 5.64873 0.5 12 0.5C18.3513 0.5 23.5 5.64873 23.5 12Z" stroke="white" stroke-opacity="0.3"/>
<path d="M5.63598 9.25701C5.28486 9.25701 5 9.56393 5 9.94307V14.0569C5 14.4352 5.28486 14.7422 5.63598 14.7422C5.98711 14.7422 6.27197 14.4352 6.27273 14.0569V9.94307C6.27197 9.56393 5.98711 9.25701 5.63598 9.25701ZM7.75719 6.2863C7.40607 6.2863 7.12121 6.59322 7.12121 6.97153V17.0276C7.12121 17.406 7.40607 17.7129 7.75719 17.7129C8.10832 17.7129 8.39318 17.406 8.39394 17.0276V6.97153C8.39394 6.59322 8.10908 6.2863 7.75719 6.2863ZM9.87841 4C9.52652 4 9.24166 4.30692 9.24166 4.68606V19.3139C9.24166 19.6931 9.52652 20 9.87841 20C10.2303 20 10.5152 19.6931 10.5152 19.3139V4.68606C10.5152 4.30774 10.2303 4.00082 9.87841 4ZM11.9996 8.00062C11.6485 8.00062 11.3636 8.30753 11.3629 8.68585V15.3142C11.3629 15.6925 11.6477 16.0002 11.9996 16.0002C12.3507 16.0002 12.6364 15.6933 12.6364 15.3142V8.68585C12.6364 8.30753 12.3515 8.00062 11.9996 8.00062ZM14.1208 4C13.7697 4 13.4848 4.30692 13.4848 4.68606V19.3139C13.4848 19.6923 13.7697 19.9992 14.1216 19.9992C14.4727 19.9992 14.7576 19.6923 14.7576 19.3139V4.68606C14.7576 4.30774 14.4727 4.00082 14.1208 4ZM16.2428 7.42863C15.8917 7.42863 15.6068 7.73555 15.6068 8.11469V15.8853C15.5984 16.2636 15.8764 16.5779 16.2283 16.587C16.5795 16.596 16.8712 16.2965 16.8796 15.9173C16.8796 15.9067 16.8796 15.896 16.8796 15.8853V8.11469C16.8788 7.73555 16.5939 7.42863 16.2428 7.42863ZM18.364 9.37108C18.0129 9.37108 17.728 9.678 17.7273 10.0571V13.9429C17.7334 14.3212 18.0228 14.6232 18.3739 14.6174C18.7174 14.6109 18.9939 14.313 19 13.9429V10.0571C19 9.67882 18.7151 9.3719 18.364 9.37108Z" fill="white"/>
</svg>
