<svg width="24" height="24" viewBox="0 0 24 24" fill="none" xmlns="http://www.w3.org/2000/svg">
<path d="M12 24C18.6274 24 24 18.6274 24 12C24 5.37258 18.6274 0 12 0C5.37258 0 0 5.37258 0 12C0 18.6274 5.37258 24 12 24Z" fill="url(#paint0_linear)"/>
<path d="M23.5 12C23.5 18.3513 18.3513 23.5 12 23.5C5.64873 23.5 0.5 18.3513 0.5 12C0.5 5.64873 5.64873 0.5 12 0.5C18.3513 0.5 23.5 5.64873 23.5 12Z" stroke="black" stroke-opacity="0.097"/>
<path d="M14.9077 19.0732H8.8055C8.19528 19.0732 7.62319 18.73 7.31808 18.196L4.22883 12.8947C3.92372 12.3608 3.92372 11.7124 4.22883 11.2166L7.31808 5.83906C7.62319 5.30511 8.15714 5 8.76736 5H14.9077C15.5179 5 16.1282 5.34325 16.4333 5.87719L18.6453 9.72922C18.6835 9.76736 18.6835 9.84364 18.6453 9.88177C18.6453 9.91991 18.6072 9.95805 18.569 9.99619L17.8063 10.4157C17.0054 10.8734 15.9756 10.6064 15.5179 9.8055L14.2975 7.70786H11.7422V16.3654H14.2975L15.5561 14.1915L13.4584 12.971C13.0389 12.7422 12.7719 12.2845 12.7719 11.7887V9.72922C12.7719 9.65294 12.8101 9.6148 12.8482 9.57666C12.9245 9.53853 12.9626 9.53853 13.0389 9.57666L18.1114 12.4752C18.4546 12.6659 18.6835 12.971 18.7597 13.3143C18.836 13.6575 18.7979 14.0389 18.6072 14.3822L16.3951 18.196C16.1282 18.73 15.5561 19.0732 14.9077 19.0732ZM8.8055 18.6919H14.9077C15.4035 18.6919 15.8612 18.4249 16.1282 18.0054L18.3402 14.1915C18.4928 13.9626 18.5309 13.6957 18.4546 13.4287C18.3784 13.1617 18.2258 12.9329 17.997 12.8185L16.9672 12.2464L13.2296 10.0725V11.7887C13.2296 12.132 13.4203 12.4752 13.7254 12.6659L15.9756 13.9626C16.0519 14.0008 16.09 14.1152 16.0519 14.2296L14.6407 16.6705C14.6026 16.7468 14.5263 16.7468 14.4882 16.7468H11.6278C11.5134 16.7468 11.4371 16.6705 11.4371 16.5561V7.51717C11.4371 7.40275 11.5134 7.32647 11.6278 7.32647H14.4882C14.5645 7.32647 14.6026 7.36461 14.6407 7.40275L15.8993 9.57666C16.2426 10.1869 17.0435 10.4157 17.6919 10.0725L18.3021 9.72922L16.1663 6.06789C15.8612 5.64836 15.4035 5.38139 14.9077 5.38139H8.76736C8.30969 5.38139 7.89016 5.61022 7.66133 6.02975L4.57208 11.4073C4.34325 11.8269 4.34325 12.3227 4.57208 12.7041L7.66133 18.0054C7.89016 18.4249 8.30969 18.6919 8.8055 18.6919ZM9.22502 16.7468C9.14875 16.7468 9.11061 16.7086 9.07247 16.6705L6.44089 12.1701C6.40275 12.0938 6.40275 12.0176 6.44089 11.9413L9.07247 7.44089C9.11061 7.36461 9.18689 7.32647 9.3013 7.36461C9.37758 7.40275 9.45386 7.47903 9.45386 7.5553V16.5942C9.45386 16.6705 9.37758 16.7468 9.3013 16.7849C9.26316 16.7468 9.22502 16.7468 9.22502 16.7468ZM6.82228 12.0176L9.03433 15.8314V8.2418L6.82228 12.0176Z" fill="white"/>
<defs>
<linearGradient id="paint0_linear" x1="12.0299" y1="0" x2="12.0299" y2="23.9863" gradientUnits="userSpaceOnUse">
<stop stop-color="#9A23E6"/>
<stop offset="1" stop-color="#5519EE"/>
</linearGradient>
</defs>
</svg>
