<svg width="520" height="520" viewBox="0 0 520 520" fill="none" xmlns="http://www.w3.org/2000/svg">
<path d="M260 1C403.042 1 519 116.958 519 260C519 403.042 403.042 519 260 519C116.958 519 1 403.042 1 260C1 116.958 116.958 1 260 1ZM260 25C130.213 25 25 130.213 25 260C25 389.787 130.213 495 260 495C389.787 495 495 389.787 495 260C495 130.213 389.787 25 260 25Z" fill="url(#paint0_linear_1_21)"/>
<path d="M260 1V2C402.489 2 518 117.511 518 260H519H520C520 116.406 403.594 0 260 0V1ZM519 260H518C518 402.489 402.489 518 260 518V519V520C403.594 520 520 403.594 520 260H519ZM260 519V518C117.511 518 2 402.489 2 260H1H0C0 403.594 116.406 520 260 520V519ZM1 260H2C2 117.511 117.511 2 260 2V1V0C116.406 0 0 116.406 0 260H1ZM260 25V24C129.661 24 24 129.661 24 260H25H26C26 130.765 130.765 26 260 26V25ZM25 260H24C24 390.339 129.661 496 260 496V495V494C130.765 494 26 389.235 26 260H25ZM260 495V496C390.339 496 496 390.339 496 260H495H494C494 389.235 389.235 494 260 494V495ZM495 260H496C496 129.661 390.339 24 260 24V25V26C389.235 26 494 130.765 494 260H495Z" fill="url(#paint1_linear_1_21)" fill-opacity="0.5"/>
<mask id="path-3-inside-1_1_21" fill="white">
<path d="M172.354 239H208.853L233.474 136H284.876L308.807 239H346.191L369.149 136H423L397.293 239H430V267H390.305L388.558 274H431V302H381.569L355.861 405H301.312L277.381 302H240.227L216.688 405H161.09L135.784 302H89V274H128.904L127.185 267H88V239H120.306L95 136H149.899L172.354 239ZM323.443 302L327.887 321.126L332.149 302H323.443ZM186.088 302L189.764 318.859L193.794 302H186.088ZM179.984 274H200.487L202.16 267H178.458L179.984 274ZM246.626 274H270.875L269.249 267H248.226L246.626 274ZM316.938 274H338.391L339.951 267H315.312L316.938 274ZM254.625 239H262.743L258.65 221.385L254.625 239Z"/>
</mask>
<g filter="url(#filter0_i_1_21)">
<path d="M172.354 239H208.853L233.474 136H284.876L308.807 239H346.191L369.149 136H423L397.293 239H430V267H390.305L388.558 274H431V302H381.569L355.861 405H301.312L277.381 302H240.227L216.688 405H161.09L135.784 302H89V274H128.904L127.185 267H88V239H120.306L95 136H149.899L172.354 239ZM323.443 302L327.887 321.126L332.149 302H323.443ZM186.088 302L189.764 318.859L193.794 302H186.088ZM179.984 274H200.487L202.16 267H178.458L179.984 274ZM246.626 274H270.875L269.249 267H248.226L246.626 274ZM316.938 274H338.391L339.951 267H315.312L316.938 274ZM254.625 239H262.743L258.65 221.385L254.625 239Z" fill="url(#paint2_linear_1_21)"/>
</g>
<path d="M172.354 239L169.422 239.639L169.937 242H172.354V239ZM208.853 239V242H211.22L211.77 239.697L208.853 239ZM233.474 136V133H231.106L230.556 135.303L233.474 136ZM284.876 136L287.798 135.321L287.259 133H284.876V136ZM308.807 239L305.884 239.679L306.424 242H308.807V239ZM346.191 239V242H348.596L349.12 239.653L346.191 239ZM369.149 136V133H366.744L366.221 135.347L369.149 136ZM423 136L425.911 136.726L426.841 133H423V136ZM397.293 239L394.382 238.274L393.452 242H397.293V239ZM430 239H433V236H430V239ZM430 267V270H433V267H430ZM390.305 267V264H387.961L387.394 266.274L390.305 267ZM388.558 274L385.647 273.274L384.717 277H388.558V274ZM431 274H434V271H431V274ZM431 302V305H434V302H431ZM381.569 302V299H379.226L378.659 301.274L381.569 302ZM355.861 405V408H358.205L358.772 405.726L355.861 405ZM301.312 405L298.389 405.679L298.929 408H301.312V405ZM277.381 302L280.303 301.321L279.764 299H277.381V302ZM240.227 302V299H237.835L237.302 301.332L240.227 302ZM216.688 405V408H219.08L219.613 405.668L216.688 405ZM161.09 405L158.176 405.716L158.738 408H161.09V405ZM135.784 302L138.698 301.284L138.136 299H135.784V302ZM89 302H86V305H89V302ZM89 274V271H86V274H89ZM128.904 274V277H132.731L131.818 273.284L128.904 274ZM127.185 267L130.098 266.284L129.537 264H127.185V267ZM88 267H85V270H88V267ZM88 239V236H85V239H88ZM120.306 239V242H124.132L123.219 238.284L120.306 239ZM95 136V133H91.1737L92.0866 136.716L95 136ZM149.899 136L152.831 135.361L152.316 133H149.899V136ZM323.443 302V299H319.667L320.521 302.679L323.443 302ZM327.887 321.126L324.965 321.805L330.815 321.779L327.887 321.126ZM332.149 302L335.078 302.653L335.892 299H332.149V302ZM186.088 302V299H182.363L183.157 302.639L186.088 302ZM189.764 318.859L186.833 319.498L192.681 319.557L189.764 318.859ZM193.794 302L196.712 302.698L197.596 299H193.794V302ZM179.984 274L177.053 274.639L177.568 277H179.984V274ZM200.487 274V277H202.855L203.405 274.697L200.487 274ZM202.16 267L205.078 267.697L205.962 264H202.16V267ZM178.458 267V264H174.733L175.527 267.639L178.458 267ZM246.626 274L243.701 273.332L242.863 277H246.626V274ZM270.875 274V277H274.652L273.797 273.321L270.875 274ZM269.249 267L272.171 266.321L271.632 264H269.249V267ZM248.226 267V264H245.834L245.301 266.332L248.226 267ZM316.938 274L314.015 274.679L314.554 277H316.938V274ZM338.391 274V277H340.795L341.319 274.653L338.391 274ZM339.951 267L342.879 267.653L343.694 264H339.951V267ZM315.312 267V264H311.535L312.389 267.679L315.312 267ZM254.625 239L251.7 238.332L250.862 242H254.625V239ZM262.743 239V242H266.52L265.665 238.321L262.743 239ZM258.65 221.385L261.573 220.706L255.726 220.716L258.65 221.385ZM172.354 239V242H208.853V239V236H172.354V239ZM208.853 239L211.77 239.697L236.391 136.697L233.474 136L230.556 135.303L205.935 238.303L208.853 239ZM233.474 136V139H284.876V136V133H233.474V136ZM284.876 136L281.954 136.679L305.884 239.679L308.807 239L311.729 238.321L287.798 135.321L284.876 136ZM308.807 239V242H346.191V239V236H308.807V239ZM346.191 239L349.12 239.653L372.078 136.653L369.149 136L366.221 135.347L343.263 238.347L346.191 239ZM369.149 136V139H423V136V133H369.149V136ZM423 136L420.089 135.274L394.382 238.274L397.293 239L400.204 239.726L425.911 136.726L423 136ZM397.293 239V242H430V239V236H397.293V239ZM430 239H427V267H430H433V239H430ZM430 267V264H390.305V267V270H430V267ZM390.305 267L387.394 266.274L385.647 273.274L388.558 274L391.468 274.726L393.215 267.726L390.305 267ZM388.558 274V277H431V274V271H388.558V274ZM431 274H428V302H431H434V274H431ZM431 302V299H381.569V302V305H431V302ZM381.569 302L378.659 301.274L352.951 404.274L355.861 405L358.772 405.726L384.48 302.726L381.569 302ZM355.861 405V402H301.312V405V408H355.861V405ZM301.312 405L304.234 404.321L280.303 301.321L277.381 302L274.459 302.679L298.389 405.679L301.312 405ZM277.381 302V299H240.227V302V305H277.381V302ZM240.227 302L237.302 301.332L213.764 404.332L216.688 405L219.613 405.668L243.151 302.668L240.227 302ZM216.688 405V402H161.09V405V408H216.688V405ZM161.09 405L164.003 404.284L138.698 301.284L135.784 302L132.871 302.716L158.176 405.716L161.09 405ZM135.784 302V299H89V302V305H135.784V302ZM89 302H92V274H89H86V302H89ZM89 274V277H128.904V274V271H89V274ZM128.904 274L131.818 273.284L130.098 266.284L127.185 267L124.271 267.716L125.991 274.716L128.904 274ZM127.185 267V264H88V267V270H127.185V267ZM88 267H91V239H88H85V267H88ZM88 239V242H120.306V239V236H88V239ZM120.306 239L123.219 238.284L97.9134 135.284L95 136L92.0866 136.716L117.392 239.716L120.306 239ZM95 136V139H149.899V136V133H95V136ZM149.899 136L146.968 136.639L169.422 239.639L172.354 239L175.285 238.361L152.831 135.361L149.899 136ZM323.443 302L320.521 302.679L324.965 321.805L327.887 321.126L330.809 320.447L326.366 301.321L323.443 302ZM327.887 321.126L330.815 321.779L335.078 302.653L332.149 302L329.221 301.347L324.959 320.473L327.887 321.126ZM332.149 302V299H323.443V302V305H332.149V302ZM186.088 302L183.157 302.639L186.833 319.498L189.764 318.859L192.695 318.22L189.019 301.361L186.088 302ZM189.764 318.859L192.681 319.557L196.712 302.698L193.794 302L190.876 301.302L186.846 318.162L189.764 318.859ZM193.794 302V299H186.088V302V305H193.794V302ZM179.984 274V277H200.487V274V271H179.984V274ZM200.487 274L203.405 274.697L205.078 267.697L202.16 267L199.242 266.303L197.569 273.303L200.487 274ZM202.16 267V264H178.458V267V270H202.16V267ZM178.458 267L175.527 267.639L177.053 274.639L179.984 274L182.916 273.361L181.389 266.361L178.458 267ZM246.626 274V277H270.875V274V271H246.626V274ZM270.875 274L273.797 273.321L272.171 266.321L269.249 267L266.327 267.679L267.953 274.679L270.875 274ZM269.249 267V264H248.226V267V270H269.249V267ZM248.226 267L245.301 266.332L243.701 273.332L246.626 274L249.551 274.668L251.15 267.668L248.226 267ZM316.938 274V277H338.391V274V271H316.938V274ZM338.391 274L341.319 274.653L342.879 267.653L339.951 267L337.023 266.347L335.463 273.347L338.391 274ZM339.951 267V264H315.312V267V270H339.951V267ZM315.312 267L312.389 267.679L314.015 274.679L316.938 274L319.86 273.321L318.234 266.321L315.312 267ZM254.625 239V242H262.743V239V236H254.625V239ZM262.743 239L265.665 238.321L261.573 220.706L258.65 221.385L255.728 222.064L259.821 239.679L262.743 239ZM258.65 221.385L255.726 220.716L251.7 238.332L254.625 239L257.55 239.668L261.575 222.053L258.65 221.385Z" fill="url(#paint3_linear_1_21)" fill-opacity="0.5" mask="url(#path-3-inside-1_1_21)"/>
<defs>
<filter id="filter0_i_1_21" x="88" y="136" width="343" height="270" filterUnits="userSpaceOnUse" color-interpolation-filters="sRGB">
<feFlood flood-opacity="0" result="BackgroundImageFix"/>
<feBlend mode="normal" in="SourceGraphic" in2="BackgroundImageFix" result="shape"/>
<feColorMatrix in="SourceAlpha" type="matrix" values="0 0 0 0 0 0 0 0 0 0 0 0 0 0 0 0 0 0 127 0" result="hardAlpha"/>
<feOffset dy="4"/>
<feGaussianBlur stdDeviation="0.5"/>
<feComposite in2="hardAlpha" operator="arithmetic" k2="-1" k3="1"/>
<feColorMatrix type="matrix" values="0 0 0 0 0.988235 0 0 0 0 0.92549 0 0 0 0 0.682353 0 0 0 1 0"/>
<feBlend mode="normal" in2="shape" result="effect1_innerShadow_1_21"/>
</filter>
<linearGradient id="paint0_linear_1_21" x1="260" y1="1" x2="260" y2="519" gradientUnits="userSpaceOnUse">
<stop stop-color="#F9EDB9"/>
<stop offset="1" stop-color="#AE8641"/>
</linearGradient>
<linearGradient id="paint1_linear_1_21" x1="260" y1="1" x2="260" y2="519" gradientUnits="userSpaceOnUse">
<stop stop-color="#9B7F3E"/>
<stop offset="1" stop-color="#352B15"/>
</linearGradient>
<linearGradient id="paint2_linear_1_21" x1="259.5" y1="136" x2="259.5" y2="405" gradientUnits="userSpaceOnUse">
<stop stop-color="#E9DAA1"/>
<stop offset="1" stop-color="#B69051"/>
</linearGradient>
<linearGradient id="paint3_linear_1_21" x1="259.5" y1="136" x2="259.5" y2="405" gradientUnits="userSpaceOnUse">
<stop stop-color="#9B7F3E"/>
<stop offset="1" stop-color="#352B15"/>
</linearGradient>
</defs>
</svg>
