<svg width="24" height="24" viewBox="0 0 24 24" fill="none" xmlns="http://www.w3.org/2000/svg">
<path d="M12 24C18.6274 24 24 18.6274 24 12C24 5.37258 18.6274 0 12 0C5.37258 0 0 5.37258 0 12C0 18.6274 5.37258 24 12 24Z" fill="url(#paint0_linear)"/>
<path d="M11.9996 4C10.4174 4.00008 8.8707 4.46933 7.55516 5.34843C6.23962 6.22753 5.2143 7.47698 4.60886 8.9388C4.00341 10.4006 3.84504 12.0091 4.15377 13.561C4.46249 15.1128 5.22445 16.5382 6.34329 17.657C7.46212 18.7758 8.88759 19.5377 10.4394 19.8463C11.9913 20.155 13.5998 19.9965 15.0616 19.391C16.5233 18.7855 17.7728 17.7601 18.6518 16.4445C19.5308 15.1289 20 13.5822 20 12C19.9943 9.87996 19.1495 7.84839 17.6504 6.34932C16.1513 4.85026 14.1197 4.00561 11.9996 4V4ZM9.44211 17.8589L8.46086 16.8776L10.7806 14.5579L8.46086 12.2679L9.44211 11.2867L12.7431 14.5877L9.44211 17.8589ZM13.1595 14.1415L9.8585 10.8405L10.8397 9.85927L14.1407 13.1603L13.1595 14.1415ZM15.5388 11.7622L14.5575 12.7435L11.2859 9.44249L14.5575 6.17089L15.5388 7.15214L13.219 9.47187L15.5388 11.7622Z" fill="white"/>
<path d="M23.5 12C23.5 18.3513 18.3513 23.5 12 23.5C5.64873 23.5 0.5 18.3513 0.5 12C0.5 5.64873 5.64873 0.5 12 0.5C18.3513 0.5 23.5 5.64873 23.5 12Z" stroke="black" stroke-opacity="0.097"/>
<defs>
<linearGradient id="paint0_linear" x1="12" y1="0" x2="12" y2="24" gradientUnits="userSpaceOnUse">
<stop stop-color="#208CBC"/>
<stop offset="1" stop-color="#247ABD"/>
</linearGradient>
</defs>
</svg>
