<svg width="24" height="24" viewBox="0 0 24 24" fill="none" xmlns="http://www.w3.org/2000/svg">
<path d="M12 24C18.6274 24 24 18.6274 24 12C24 5.37258 18.6274 0 12 0C5.37258 0 0 5.37258 0 12C0 18.6274 5.37258 24 12 24Z" fill="black"/>
<path d="M12.2718 3C12.4638 3.34673 12.649 3.68007 12.8341 4.01508C13.4525 5.13568 14.0726 6.25628 14.691 7.37688C15.3111 8.49916 15.9329 9.62312 16.553 10.7454C16.8095 11.2094 17.0643 11.6734 17.3226 12.1357C17.3532 12.191 17.3532 12.2312 17.3192 12.2864C16.8333 13.0687 16.3508 13.8543 15.8666 14.6382C15.848 14.6683 15.8293 14.7002 15.8021 14.7471C15.8446 14.7471 15.8751 14.7471 15.904 14.7471C16.8282 14.7487 17.7541 14.7504 18.6783 14.7504C18.7445 14.7504 18.7785 14.7688 18.8108 14.8275C19.1896 15.5193 19.5719 16.2094 19.9541 16.9012C19.9694 16.928 19.9813 16.9548 20 16.9916C19.9694 16.995 19.9473 16.9983 19.9236 16.9983C16.4952 16.9983 13.0669 16.9983 9.63856 17C9.57231 17 9.54343 16.9699 9.51625 16.9229C9.10512 16.2228 8.69399 15.5226 8.28286 14.8224C8.27097 14.804 8.25908 14.7856 8.24039 14.7588C8.11467 14.9632 7.98896 15.1642 7.86494 15.3668C7.53876 15.8945 7.21427 16.4221 6.88639 16.9481C6.8711 16.9732 6.83202 16.9983 6.80314 16.9983C5.87896 17 4.95307 17 4.02888 17C4.02378 17 4.01869 16.9983 4 16.9933C4.02888 16.9414 4.05606 16.8911 4.08494 16.8425C5.08048 15.1591 6.07772 13.4757 7.07326 11.7906C7.7715 10.608 8.46974 9.42546 9.16628 8.24288C9.19686 8.19263 9.22914 8.17588 9.2869 8.17588C10.1924 8.17923 11.0962 8.17923 12.0017 8.1809C12.034 8.1809 12.068 8.1809 12.1172 8.1809C12.0272 8.0268 11.9473 7.88945 11.8658 7.75042C11.4767 7.08878 11.0894 6.42714 10.6987 5.76549C10.6732 5.72362 10.6749 5.69514 10.7004 5.65327C11.21 4.79397 11.718 3.933 12.226 3.0737C12.2378 3.05025 12.2531 3.03015 12.2718 3ZM12.1257 8.1876C10.8329 10.3735 9.54683 12.5494 8.25568 14.7337C10.7581 14.7337 13.2436 14.7337 15.7426 14.7337C14.5364 12.5494 13.3353 10.3752 12.1257 8.1876Z" fill="white"/>
<path d="M23.5 12C23.5 18.3513 18.3513 23.5 12 23.5C5.64873 23.5 0.5 18.3513 0.5 12C0.5 5.64873 5.64873 0.5 12 0.5C18.3513 0.5 23.5 5.64873 23.5 12Z" stroke="white" stroke-opacity="0.3"/>
</svg>
