<svg width="24" height="24" viewBox="0 0 24 24" fill="none" xmlns="http://www.w3.org/2000/svg">
<path d="M12 24C18.6274 24 24 18.6274 24 12C24 5.37258 18.6274 0 12 0C5.37258 0 0 5.37258 0 12C0 18.6274 5.37258 24 12 24Z" fill="url(#paint0_linear)"/>
<path d="M23.5 12C23.5 18.3513 18.3513 23.5 12 23.5C5.64873 23.5 0.5 18.3513 0.5 12C0.5 5.64873 5.64873 0.5 12 0.5C18.3513 0.5 23.5 5.64873 23.5 12Z" stroke="black" stroke-opacity="0.097"/>
<path d="M12.2327 14.1488L12.2329 14.1486L15.8603 11.3032C15.9075 11.2661 15.9352 11.2091 15.9352 11.1488V9.8931C15.9352 9.7913 15.8189 9.734 15.7391 9.7966L12.0015 12.7283L8.26084 9.7941C8.18107 9.73155 8.06476 9.7888 8.06476 9.89065V11.1488C8.06476 11.2092 8.09241 11.2662 8.1397 11.3033L11.7674 14.1489L11.7676 14.1491C11.8333 14.2001 11.9164 14.2256 11.9999 14.2256C12.083 14.2256 12.1681 14.2004 12.2327 14.1488Z" fill="white"/>
<path fill-rule="evenodd" clip-rule="evenodd" d="M17.7277 6.41227L17.7275 6.41221L12.2602 4.53663C12.1876 4.51165 12.0933 4.5 12.0016 4.5C11.9099 4.5 11.8156 4.51165 11.743 4.53663L6.27601 6.4121L6.27591 6.41213C6.19755 6.43877 6.12906 6.49645 6.08039 6.56534C6.0317 6.63428 6 6.71849 6 6.80183V14.6149C6 14.6957 6.02566 14.7857 6.06466 14.8662C6.10368 14.9467 6.15841 15.0224 6.22104 15.0727L6.22125 15.0728L11.7674 19.4233L11.7676 19.4234C11.8333 19.4745 11.9165 19.5 12 19.5C12.083 19.5 12.1681 19.4747 12.2327 19.4232L12.2329 19.423L17.7785 15.073L17.7786 15.0729C17.8414 15.0234 17.8963 14.9479 17.9353 14.8674C17.9743 14.7868 18 14.6964 18 14.6149V6.80236C18.0017 6.71873 17.9707 6.63477 17.9225 6.56606C17.8741 6.49717 17.8056 6.4397 17.7277 6.41227ZM16.7476 7.41345V14.28L12.0016 18.0027L7.25559 14.28V7.41345L12.0016 5.78459L16.7476 7.41345Z" fill="white"/>
<defs>
<linearGradient id="paint0_linear" x1="12" y1="0" x2="12" y2="24" gradientUnits="userSpaceOnUse">
<stop stop-color="#6FA4F2"/>
<stop offset="0.531356" stop-color="#0F6BEB"/>
<stop offset="1" stop-color="#0B50B0"/>
</linearGradient>
</defs>
</svg>
