<svg width="800" height="800" viewBox="0 0 800 800" fill="none" xmlns="http://www.w3.org/2000/svg">
<g clip-path="url(#clip0_1065_2058)">
<rect width="800" height="800" rx="400" fill="white"/>
<circle cx="400" cy="400" r="400" fill="#F0B90B" stroke="#F0B90B"/>
<path d="M400 148L462.188 211.624L305.594 368.063L243.406 305.936L400 148Z" fill="white"/>
<path d="M494.406 242.313L556.594 305.936L305.594 556.688L243.406 494.561L494.406 242.313Z" fill="white"/>
<path d="M211.188 336.625L273.376 400.249L211.188 462.375L149 400.249L211.188 336.625Z" fill="white"/>
<path d="M588.812 336.625L651 400.249L400 651L337.812 588.874L588.812 336.625Z" fill="white"/>
<path d="M400 148L462.188 211.624L305.594 368.063L243.406 305.936L400 148Z" stroke="#F0B90B"/>
<path d="M494.406 242.313L556.594 305.936L305.594 556.688L243.406 494.561L494.406 242.313Z" stroke="#F0B90B"/>
<path d="M211.188 336.625L273.376 400.249L211.188 462.375L149 400.249L211.188 336.625Z" stroke="#F0B90B"/>
<path d="M588.812 336.625L651 400.249L400 651L337.812 588.874L588.812 336.625Z" stroke="#F0B90B"/>
</g>
<defs>
<clipPath id="clip0_1065_2058">
<rect width="800" height="800" rx="400" fill="white"/>
</clipPath>
</defs>
</svg>
