<svg width="24" height="24" viewBox="0 0 24 24" fill="none" xmlns="http://www.w3.org/2000/svg">
<path fill-rule="evenodd" clip-rule="evenodd" d="M0 12C0 5.37259 5.37259 0 12 0C18.6274 0 24 5.37259 24 12C24 18.6274 18.6274 24 12 24C5.37259 24 0 18.6274 0 12Z" fill="#FB2C08"/>
<path d="M23.5 12C23.5 18.3513 18.3513 23.5 12 23.5C5.64873 23.5 0.5 18.3513 0.5 12C0.5 5.64873 5.64873 0.5 12 0.5C18.3513 0.5 23.5 5.64873 23.5 12Z" stroke="black" stroke-opacity="0.097"/>
<path d="M15.8714 5.915C15.9512 5.89904 15.9965 5.83785 16.0523 5.78464C16.5551 5.3111 17.1005 4.89875 17.7549 4.654C17.9731 4.57419 18.1966 4.52364 18.4254 4.49437C18.5398 4.47841 18.5717 4.56088 18.6089 4.63271C18.7685 4.93067 18.8483 5.24991 18.8776 5.58512C18.9468 6.338 18.843 7.07758 18.7047 7.81449C18.6701 7.99274 18.6063 8.163 18.6116 8.34922C18.5797 8.37583 18.569 8.41307 18.5584 8.45298C18.3934 9.16063 18.1912 9.85764 17.9625 10.5467C17.9305 10.6424 17.9465 10.7223 17.9944 10.81C18.2711 11.3075 18.4972 11.8263 18.6621 12.369C18.8271 12.9117 18.9202 13.4704 18.9707 14.0344C18.9893 14.2472 19.0133 14.4654 18.992 14.6809C18.9255 14.6888 18.859 14.6782 18.7951 14.6702C17.9625 14.5585 17.151 14.6276 16.3769 14.9841C15.9087 15.1996 15.4936 15.4896 15.1318 15.8567C15.0494 15.9419 15.0174 15.9339 14.9775 15.8221C14.919 15.6519 14.8498 15.4816 14.7754 15.3167C14.23 14.1062 13.2244 13.4199 11.8463 13.4864C11.0908 13.5236 10.4576 13.8455 9.93618 14.3909C9.55042 14.7926 9.27907 15.2688 9.05294 15.7716C8.95983 15.9818 8.97313 15.9525 8.82947 15.8088C8.01806 15.0001 7.04969 14.5771 5.8951 14.5957C5.59714 14.601 5.3045 14.641 5.00921 14.6729C4.9959 14.3723 5.03049 14.0716 5.07305 13.7763C5.22203 12.7308 5.55192 11.7412 6.01482 10.7941C6.05472 10.7116 6.05472 10.6398 6.02014 10.5547C5.8552 10.1583 5.7275 9.74857 5.61843 9.33355C5.53862 9.03559 5.46679 8.73497 5.38964 8.43701C5.33909 8.09117 5.28322 7.74798 5.24066 7.40214C5.15286 6.64926 5.10764 5.89372 5.25396 5.14084C5.29652 4.97324 5.35505 4.81362 5.44284 4.66996C5.56788 4.47043 5.64237 4.44383 5.87382 4.48107C6.34736 4.56088 6.73843 4.8083 7.11354 5.08497C7.41948 5.3111 7.70414 5.5665 7.97284 5.83519C8.02072 5.88308 8.06595 5.93096 8.1298 5.95491C8.13246 5.98949 8.15108 6.01077 8.17236 6.03472C8.56343 6.42047 8.93056 6.8275 9.30301 7.23188C9.34824 7.27976 9.3908 7.2771 9.44401 7.25848C10.0958 7.02171 10.7662 6.87805 11.4632 6.84879C12.0272 6.82484 12.5859 6.8275 13.1446 6.90199C13.6553 6.9685 14.1502 7.09354 14.637 7.26114C14.7035 7.28508 14.7461 7.27976 14.794 7.21591C15.1026 6.8009 15.4378 6.40451 15.8022 6.03738C15.8342 6.00279 15.8767 5.97353 15.8714 5.915ZM18.2125 6.60935C18.2152 6.32736 18.2019 6.00811 18.0795 5.70217C18.0077 5.52127 17.9837 5.49733 17.8002 5.56916C17.3 5.76602 16.869 6.07196 16.4487 6.40185C16.0816 6.69182 15.7384 7.00841 15.4192 7.35159C15.2835 7.49791 15.2782 7.49791 15.4484 7.60699C15.7464 7.79853 16.0177 8.02732 16.2731 8.26675C16.6881 8.65782 17.0686 9.08082 17.3745 9.565C17.4118 9.62353 17.449 9.72196 17.5235 9.71398C17.5847 9.70866 17.5767 9.60225 17.6113 9.54638C17.6326 9.51446 17.6406 9.47189 17.6512 9.43465C17.7762 9.00899 17.9146 8.58599 18.013 8.15236C18.1247 7.65487 18.2205 7.16005 18.2125 6.60935ZM5.68493 6.64128C5.67429 7.14674 5.77007 7.64157 5.88446 8.12841C6.00418 8.63388 6.14518 9.13137 6.3181 9.62353C6.3314 9.66078 6.3314 9.71132 6.37663 9.71664C6.42185 9.72196 6.43781 9.67408 6.4591 9.64215C6.70119 9.27236 6.9752 8.92652 7.27848 8.60462C7.64029 8.22153 8.04467 7.88898 8.47564 7.5857C8.606 7.49525 8.61398 7.46067 8.49427 7.34361C8.39583 7.24784 8.28676 7.16271 8.19365 7.06427C7.95953 6.81686 7.69616 6.60403 7.44077 6.38322C7.20666 6.18104 6.94328 6.01077 6.67459 5.85115C6.4724 5.72878 6.26755 5.61172 6.03078 5.55585C5.92437 5.52925 5.87914 5.56916 5.83924 5.65961C5.70622 5.97353 5.67961 6.30607 5.68493 6.64128ZM16.4301 12.2653C16.4221 12.1695 16.4195 12.0711 16.4061 11.9753C16.3689 11.6853 16.3077 11.6454 16.0231 11.7146C15.7198 11.7864 15.4404 11.9247 15.1717 12.079C14.7647 12.3105 14.3524 12.5366 13.9932 12.8426C13.8522 12.9623 13.7431 13.1059 13.6873 13.2842C13.658 13.3799 13.6899 13.4385 13.7884 13.4571C13.8416 13.4677 13.8921 13.4757 13.9453 13.4784C14.1422 13.4864 14.3337 13.4624 14.5253 13.4252C15.0946 13.3161 15.64 13.1485 16.1295 12.8266C16.337 12.6909 16.4673 12.526 16.4301 12.2653ZM10.0798 13.4864C10.1703 13.481 10.2421 13.4837 10.3113 13.4757C10.4842 13.4544 10.5161 13.3959 10.4549 13.2363C10.4017 13.0979 10.306 12.9862 10.1995 12.8851C9.94416 12.643 9.6329 12.4781 9.33228 12.2998C8.95185 12.0737 8.56875 11.8502 8.13512 11.7412C7.82652 11.6614 7.73873 11.7092 7.7201 12.0205C7.68552 12.6217 7.64029 12.6297 8.17768 12.9383C8.76562 13.2815 9.42007 13.4332 10.0798 13.4864ZM8.73636 11.2942C8.9146 11.3075 9.09284 11.3022 9.26577 11.2676C9.43337 11.233 9.6329 11.233 9.71271 11.0362C9.8005 10.8207 9.74463 10.6158 9.60629 10.4376C9.54244 10.3551 9.46263 10.2806 9.38548 10.2088C9.15669 10.004 8.89598 9.92947 8.60068 10.0385C8.27346 10.1583 8.04999 10.3791 7.9888 10.7276C7.93559 11.0282 8.14044 11.2783 8.44638 11.2942C8.54215 11.2996 8.64058 11.2942 8.73636 11.2942ZM15.193 11.2969C15.2941 11.2969 15.3979 11.2996 15.499 11.2969C15.8102 11.2862 16.0177 11.0202 15.9592 10.709C15.8847 10.3179 15.4963 10.0146 15.0973 9.99066C14.7647 9.97204 14.2619 10.3897 14.2087 10.7302C14.1688 10.975 14.2619 11.1586 14.4348 11.2091C14.6822 11.2836 14.935 11.3022 15.193 11.2969Z" fill="#FDB522"/>
<path d="M18.9957 14.6784C19.0223 15.0908 18.9132 15.4792 18.7509 15.8516C18.4024 16.6471 17.8571 17.2962 17.1973 17.8496C15.9336 18.9084 14.4997 19.6187 12.8716 19.9246C12.0096 20.0869 11.1743 19.9699 10.3575 19.6958C8.73472 19.1478 7.30345 18.2885 6.11427 17.0461C5.68596 16.5992 5.32681 16.099 5.12196 15.5058C5.02885 15.2344 4.96766 14.9604 5.01821 14.6704C5.31351 14.6385 5.60615 14.5986 5.9041 14.5933C7.0587 14.5747 8.02706 14.9977 8.83847 15.8064C8.98213 15.9501 8.96883 15.9793 9.06194 15.7692C9.28807 15.2637 9.55943 14.7902 9.94518 14.3884C10.4666 13.8457 11.0998 13.5212 11.8553 13.4839C13.2334 13.4174 14.2363 14.1038 14.7844 15.3142C14.8588 15.4792 14.928 15.6468 14.9865 15.8197C15.0238 15.9341 15.0557 15.9394 15.1408 15.8543C15.5027 15.4872 15.9177 15.1972 16.3859 14.9817C17.16 14.6279 17.9688 14.5587 18.8041 14.6678C18.8627 14.6784 18.9292 14.6891 18.9957 14.6784ZM10.9934 18.1209C11.0625 18.0597 11.0891 17.9932 11.0838 17.9081C11.0758 17.7352 11.0811 17.5622 11.0705 17.3893C11.0625 17.2829 11.0838 17.251 11.1982 17.2723C11.403 17.3122 11.6106 17.3308 11.8181 17.3414C12.3102 17.3707 12.7997 17.3467 13.2866 17.2616C13.377 17.2457 13.401 17.2669 13.3983 17.3574C13.3903 17.5117 13.401 17.6687 13.3903 17.823C13.3824 17.9373 13.4169 18.0278 13.5021 18.1209C13.5712 17.9506 13.6404 17.7884 13.7043 17.6261C13.7282 17.5649 13.7495 17.5117 13.832 17.525C13.8878 17.5356 13.9118 17.5064 13.9224 17.4558C13.9543 17.3175 13.9889 17.1791 14.0288 17.0435C14.0474 16.9823 14.0315 16.9637 13.9703 16.9663C13.824 16.969 13.6777 16.9663 13.5313 16.969C13.51 16.969 13.4755 16.969 13.4701 16.9823C13.409 17.086 13.3079 17.0514 13.2201 17.0541C13.1004 17.0568 12.9806 17.0435 12.8609 17.0541C12.7332 17.0648 12.6375 17.0355 12.5869 16.9051C12.5736 16.8732 12.547 16.8227 12.5257 16.8227C12.3767 16.8173 12.4166 16.7109 12.414 16.6258C12.4113 16.5513 12.4193 16.4742 12.4113 16.3997C12.4007 16.3012 12.4326 16.256 12.5284 16.2161C12.9727 16.0246 13.2467 15.7106 13.2174 15.1945C13.2147 15.1333 13.2174 15.0695 13.2201 15.0083C13.2254 14.7662 13.0392 14.556 12.7997 14.5534C12.3794 14.5481 11.9591 14.5454 11.5361 14.5534C11.3126 14.556 11.1663 14.7157 11.161 14.9391C11.1583 15.0402 11.1663 15.144 11.1583 15.2451C11.1423 15.4898 11.2461 15.684 11.419 15.8463C11.5281 15.9501 11.6584 16.0272 11.7861 16.107C11.8979 16.1789 12.0788 16.1762 12.124 16.3092C12.1666 16.4316 12.132 16.5806 12.132 16.7189C12.132 16.7322 12.1346 16.7455 12.132 16.7588C12.1267 16.7748 12.116 16.8014 12.1107 16.8014C11.9883 16.7987 11.9697 16.9078 11.9218 16.9823C11.8819 17.0408 11.8393 17.0701 11.7702 17.0594C11.4988 17.0222 11.2221 17.102 10.9455 16.9876C10.7938 16.9238 10.597 16.9743 10.4187 16.9743C10.3655 16.9743 10.3496 17.0142 10.3921 17.0408C10.5544 17.1366 10.5491 17.3015 10.5783 17.4558C10.5863 17.501 10.6023 17.5436 10.6661 17.525C10.7459 17.501 10.7619 17.5516 10.7779 17.6128C10.8231 17.791 10.8816 17.9639 10.9934 18.1209ZM12.1586 17.5064C12.1586 17.5037 12.1586 17.5037 12.1586 17.501C11.967 17.501 11.7782 17.501 11.5866 17.501C11.552 17.501 11.5015 17.4798 11.4882 17.5383C11.4722 17.6128 11.4988 17.674 11.576 17.6873C11.6451 17.6979 11.7143 17.8176 11.7861 17.6873C11.834 17.6021 11.9218 17.5995 11.9857 17.6713C12.0548 17.7458 12.0628 17.8895 12.1932 17.8895C12.3129 17.8895 12.3501 17.7591 12.4273 17.6899C12.4699 17.65 12.4991 17.6261 12.5417 17.682C12.6268 17.7963 12.7066 17.7272 12.7864 17.674C12.8396 17.6394 12.821 17.5862 12.8157 17.541C12.8104 17.4904 12.7598 17.5064 12.7279 17.5064C12.539 17.5064 12.3475 17.5064 12.1586 17.5064Z" fill="#FDFCFB"/>
<path d="M18.2109 6.60958C18.2162 7.16028 18.1204 7.6551 18.0114 8.15259C17.9156 8.58888 17.7772 9.00922 17.6495 9.43488C17.6389 9.47212 17.6309 9.51469 17.6096 9.54661C17.5751 9.60248 17.583 9.70889 17.5218 9.71421C17.4474 9.72219 17.4101 9.62376 17.3729 9.56523C17.0669 9.08105 16.6865 8.65805 16.2715 8.26698C16.0161 8.02755 15.7447 7.79876 15.4468 7.60721C15.2765 7.49814 15.2818 7.49814 15.4175 7.35182C15.7368 7.00864 16.0773 6.69205 16.4471 6.40208C16.8647 6.07219 17.2984 5.76625 17.7985 5.56939C17.9821 5.49756 18.0087 5.5215 18.0779 5.7024C18.2002 6.00834 18.2162 6.32759 18.2109 6.60958Z" fill="#FE9A1B"/>
<path d="M5.68329 6.64112C5.67797 6.30325 5.70457 5.97337 5.84025 5.65679C5.87749 5.56634 5.92538 5.52643 6.03179 5.55304C6.26591 5.6089 6.47341 5.72862 6.6756 5.84833C6.94163 6.00796 7.20767 6.17822 7.44178 6.38306C7.69717 6.60387 7.96055 6.81936 8.19466 7.06411C8.28777 7.16255 8.39951 7.24768 8.49528 7.34345C8.61234 7.46051 8.60701 7.49509 8.47666 7.58554C8.04568 7.88882 7.64131 8.22137 7.2795 8.60446C6.97622 8.9237 6.7022 9.26955 6.46011 9.64199C6.43883 9.67392 6.42021 9.72181 6.37764 9.71649C6.33241 9.71116 6.33241 9.65796 6.31911 9.62337C6.14619 9.13387 6.00519 8.63372 5.88548 8.12826C5.76842 7.64141 5.67265 7.14925 5.68329 6.64112Z" fill="#FE9A1B"/>
<path d="M16.4284 12.2652C16.4657 12.5259 16.3353 12.6909 16.1305 12.8266C15.641 13.1511 15.0929 13.3161 14.5263 13.4251C14.3347 13.4624 14.1405 13.4863 13.9463 13.4783C13.8931 13.4757 13.8399 13.4677 13.7894 13.4571C13.6909 13.4384 13.659 13.3799 13.6883 13.2841C13.7441 13.1059 13.8559 12.9622 13.9942 12.8425C14.3534 12.5366 14.7657 12.3104 15.1728 12.079C15.4415 11.9247 15.7181 11.7864 16.0241 11.7145C16.3087 11.6454 16.3673 11.6879 16.4072 11.9752C16.4178 12.071 16.4205 12.1668 16.4284 12.2652Z" fill="#070301"/>
<path d="M10.0782 13.487C9.41842 13.4311 8.76398 13.2821 8.17338 12.9416C7.63865 12.633 7.68121 12.625 7.7158 12.0238C7.73442 11.7099 7.82221 11.6646 8.13081 11.7444C8.56445 11.8562 8.94754 12.0797 9.32797 12.3031C9.62859 12.4814 9.93985 12.6436 10.1952 12.8884C10.3017 12.9895 10.3974 13.0986 10.4506 13.2396C10.5118 13.3992 10.4799 13.4577 10.307 13.479C10.2378 13.4843 10.1686 13.4843 10.0782 13.487Z" fill="#070301"/>
<path d="M8.73473 11.2941C8.6363 11.2941 8.54052 11.2994 8.44209 11.2941C8.13881 11.2754 7.9313 11.028 7.98451 10.7274C8.04836 10.3789 8.27183 10.1581 8.59639 10.0384C8.89435 9.92931 9.1524 10.0038 9.38119 10.2086C9.461 10.2805 9.53815 10.3523 9.602 10.4374C9.74034 10.6157 9.79621 10.8205 9.70842 11.036C9.62861 11.2329 9.42908 11.2329 9.26148 11.2675C9.09122 11.3021 8.91297 11.31 8.73473 11.2941Z" fill="#FDFCFB"/>
<path d="M15.1914 11.2976C14.9333 11.3055 14.6833 11.2843 14.4305 11.2098C14.2576 11.1592 14.1645 10.9757 14.2044 10.7309C14.2576 10.3904 14.7604 9.9727 15.093 9.99132C15.492 10.0153 15.8804 10.3159 15.9549 10.7096C16.0134 11.0209 15.8059 11.2869 15.4947 11.2976C15.3936 11.3002 15.2925 11.2976 15.1914 11.2976Z" fill="#FDFCFB"/>
<path d="M10.9933 18.1206C10.8816 17.9637 10.8231 17.7908 10.7779 17.6099C10.7619 17.5487 10.7459 17.4981 10.6661 17.5221C10.6049 17.5407 10.589 17.4981 10.5783 17.4529C10.5491 17.3012 10.5544 17.1363 10.3921 17.0379C10.3495 17.0139 10.3682 16.9714 10.4187 16.9714C10.597 16.9687 10.7938 16.9208 10.9455 16.9847C11.2221 17.0991 11.4988 17.0193 11.7702 17.0565C11.8393 17.0671 11.8819 17.0379 11.9218 16.9793C11.9697 16.9075 11.9883 16.7984 12.1107 16.7984C12.1187 16.7984 12.1293 16.7718 12.132 16.7559C12.1346 16.7426 12.132 16.7293 12.132 16.716C12.132 16.5776 12.1666 16.4313 12.124 16.3063C12.0788 16.1733 11.8979 16.1786 11.7861 16.1041C11.6584 16.0216 11.5307 15.9471 11.419 15.8434C11.2461 15.6811 11.145 15.4896 11.1583 15.2421C11.1636 15.141 11.1583 15.0373 11.161 14.9362C11.1689 14.7127 11.3153 14.5558 11.5361 14.5504C11.9564 14.5425 12.3767 14.5451 12.7997 14.5504C13.0392 14.5531 13.2254 14.7633 13.2201 15.0054C13.2201 15.0666 13.2147 15.1304 13.2174 15.1916C13.2467 15.7077 12.9727 16.0216 12.5284 16.2132C12.4326 16.2531 12.4007 16.2983 12.4113 16.3967C12.4193 16.4712 12.4113 16.5484 12.414 16.6229C12.4166 16.7053 12.3767 16.8117 12.5257 16.8197C12.547 16.8197 12.5736 16.8703 12.5869 16.9022C12.6374 17.0326 12.7306 17.0618 12.8609 17.0512C12.9806 17.0405 13.1003 17.0512 13.2201 17.0512C13.3079 17.0512 13.4089 17.0831 13.4701 16.9793C13.4781 16.966 13.51 16.966 13.5313 16.966C13.6776 16.966 13.824 16.9687 13.9703 16.9634C14.0315 16.9634 14.0474 16.9793 14.0288 17.0405C13.9889 17.1762 13.9543 17.3146 13.9224 17.4529C13.9091 17.5034 13.8878 17.5327 13.8319 17.5221C13.7495 17.5061 13.7282 17.5593 13.7042 17.6232C13.6404 17.7854 13.5712 17.9477 13.5021 18.118C13.4169 18.0249 13.385 17.9344 13.3903 17.82C13.3983 17.6657 13.3903 17.5088 13.3983 17.3545C13.4036 17.2613 13.377 17.2427 13.2866 17.2587C12.7997 17.3412 12.3102 17.3651 11.8181 17.3385C11.6106 17.3252 11.403 17.3092 11.1982 17.2693C11.0838 17.2454 11.0625 17.28 11.0705 17.3864C11.0811 17.5593 11.0758 17.7322 11.0838 17.9051C11.0891 17.9929 11.0625 18.0595 10.9933 18.1206Z" fill="#070301"/>
<path d="M12.1586 17.5063C12.3501 17.5063 12.539 17.5063 12.7306 17.5063C12.7625 17.5063 12.813 17.4904 12.8184 17.5409C12.8237 17.5862 12.8423 17.6394 12.7891 17.6739C12.7093 17.7272 12.6295 17.7963 12.5443 17.6819C12.5018 17.6261 12.4725 17.65 12.4299 17.6899C12.3554 17.7617 12.3182 17.8894 12.1958 17.8894C12.0655 17.8894 12.0575 17.7458 11.9883 17.6713C11.9245 17.6021 11.8367 17.6021 11.7888 17.6873C11.717 17.8176 11.6478 17.7006 11.5786 17.6873C11.4988 17.6739 11.4722 17.6128 11.4908 17.5383C11.5041 17.4824 11.5547 17.501 11.5893 17.501C11.7808 17.4984 11.9697 17.501 12.1612 17.501C12.1586 17.5037 12.1586 17.5063 12.1586 17.5063Z" fill="#070301"/>
</svg>
