<svg width="24" height="24" viewBox="0 0 24 24" fill="none" xmlns="http://www.w3.org/2000/svg">
<path d="M12 24C18.6274 24 24 18.6274 24 12C24 5.37258 18.6274 0 12 0C5.37258 0 0 5.37258 0 12C0 18.6274 5.37258 24 12 24Z" fill="#2B6DEF"/>
<path d="M23.5 12C23.5 18.3513 18.3513 23.5 12 23.5C5.64873 23.5 0.5 18.3513 0.5 12C0.5 5.64873 5.64873 0.5 12 0.5C18.3513 0.5 23.5 5.64873 23.5 12Z" stroke="black" stroke-opacity="0.097"/>
<path fill-rule="evenodd" clip-rule="evenodd" d="M16.1052 9.27881L16.1051 9.27927L16.9978 9.28411C17.0995 9.27662 17.2019 9.27707 17.3043 9.28566L19.4847 9.29735C19.8164 9.31643 20.0793 9.59258 20.0793 9.93073C20.0793 10.0904 20.0206 10.2365 19.9237 10.3479L18.8627 12.1946C18.8543 12.2102 18.8457 12.2258 18.8368 12.2412L16.2113 16.823C15.8557 17.4436 15.2161 17.7962 14.5534 17.8102V17.8106H14.5226C14.5055 17.8107 14.4884 17.8105 14.4713 17.8103L6.70233 17.7703H5.83655L5.83658 17.7548C6.49432 17.663 7.04768 17.2422 7.32794 16.6627L7.33415 16.6628L11.1403 9.9932C11.354 9.56929 11.7909 9.27881 12.295 9.27881L12.2599 9.27954L12.2612 9.27881H16.1052Z" fill="white"/>
<path opacity="0.7" fill-rule="evenodd" clip-rule="evenodd" d="M10.0237 6.00592L16.8812 6.00603C17.2126 6.02514 17.4755 6.30134 17.4755 6.63941C17.4755 6.77493 17.4333 6.90049 17.3614 7.0035L15.5106 10.2407L13.5433 13.6812L13.5444 13.6809H13.5604L12.9313 14.7797C12.4009 15.7053 12.6988 16.8836 13.5931 17.4437L13.6486 17.4772C13.9005 17.6238 14.1714 17.7075 14.4432 17.7333L14.4433 17.7796L11.2012 17.7795L11.2 17.7824H5.57755C5.25832 17.7765 4.93416 17.6951 4.63425 17.5276C3.6697 16.9889 3.32121 15.7643 3.85586 14.7925L8.1226 7.03692C8.51363 6.3261 9.26884 5.94734 10.0237 6.00592Z" fill="white"/>
<path fill-rule="evenodd" clip-rule="evenodd" d="M12.2727 9.27884L16.049 9.28267L15.5027 10.2384L13.5353 13.6788L13.5364 13.6786H13.5524L12.9233 14.7774C12.3929 15.703 12.6907 16.8814 13.5851 17.4414L13.6406 17.4749C13.8926 17.6214 14.1634 17.7053 14.4353 17.7311L14.4354 17.7772H11.1933L11.1919 17.7801L5.82224 17.7802C6.41753 17.718 6.97641 17.3878 7.31317 16.8418L7.35106 16.7778L11.3226 9.7831C11.5478 9.48978 11.8944 9.29591 12.2867 9.27783L12.2727 9.27884Z" fill="white"/>
<path opacity="0.1" fill-rule="evenodd" clip-rule="evenodd" d="M12.2727 9.27884L16.049 9.28267L15.5027 10.2384L13.5353 13.6788L13.5364 13.6786H13.5524L12.9233 14.7774C12.3929 15.703 12.6907 16.8814 13.5851 17.4414L13.6406 17.4749C13.8926 17.6214 14.1634 17.7053 14.4353 17.7311L14.4354 17.7772H11.1933L11.1919 17.7801L5.82224 17.7802C6.41753 17.718 6.97641 17.3878 7.31317 16.8418L7.35106 16.7778L11.3226 9.7831C11.5478 9.48978 11.8944 9.29591 12.2867 9.27783L12.2727 9.27884Z" fill="#170659"/>
</svg>
