<svg xmlns="http://www.w3.org/2000/svg" width="109.06" height="122.99" viewBox="0 0 109.06 122.99"><defs><style>.a{fill:#ffd60d;}.b{fill:#ef9300;}.c{fill:#6d0101;}.d{fill:#c40808;}.e{fill:#ef0617;}.f{fill:#3f0001;}</style></defs><g transform="translate(-237.84 -106)"><path class="a" d="M292.43,166.93l.48-30.02,27.47,15.46-.49,30.94Z"/><path class="b" d="M293.41,106l-.5,30.91,27.47,15.46.49-30.46Z"/><path class="c" d="M238.82,135.93l26.86,15.81,27.23-14.83.5-30.91Z"/><path class="d" d="M238.33,166.76l26.86,15.59.49-30.61-26.86-15.81Z"/><path class="e" d="M237.84,197.38l.49-30.62,26.86,15.59-.49,30.88Z"/><path class="d" d="M291.69,228.99l.5-30.79-27-15.85-.49,30.88Z"/><path class="c" d="M319.14,213.97l-27.45,15.02.5-30.79,27.44-14.89Z"/><path class="f" d="M346.4,199.12l-27.26,14.85.49-30.66Z"/><path class="b" d="M346.9,168.33l-.5,30.79-26.77-15.81.49-30.7Z"/><path class="f" d="M292.91,136.91l-24.65-17.09L293.41,106Z"/></g></svg>