<svg width="24" height="24" viewBox="0 0 24 24" fill="none" xmlns="http://www.w3.org/2000/svg">
<path d="M12 24C18.6274 24 24 18.6274 24 12C24 5.37258 18.6274 0 12 0C5.37258 0 0 5.37258 0 12C0 18.6274 5.37258 24 12 24Z" fill="#0B1628"/>
<path d="M23.5 12C23.5 18.3513 18.3513 23.5 12 23.5C5.64873 23.5 0.5 18.3513 0.5 12C0.5 5.64873 5.64873 0.5 12 0.5C18.3513 0.5 23.5 5.64873 23.5 12Z" stroke="white" stroke-opacity="0.3"/>
<path d="M19.9548 13.6465C19.8598 13.048 19.5843 12.5571 19.087 12.1865C18.5993 11.8223 18.0799 11.588 17.4529 11.6766C17.1361 11.721 16.8226 11.7716 16.4996 11.7495C16.1607 11.7241 15.863 11.6165 15.6223 11.3726C15.2613 11.0052 15.0301 10.5745 14.9699 10.0583C14.9541 9.90625 14.9414 9.75423 14.9129 9.60538C14.84 9.24751 14.6912 8.94031 14.4505 8.70278C14.4062 8.65844 14.3587 8.61727 14.308 8.57926C14.2826 8.56026 14.2573 8.54126 14.2288 8.52226C14.175 8.48425 14.118 8.45258 14.0578 8.42091C14.0166 8.39557 13.9754 8.37341 13.9343 8.3544C13.9121 8.3449 13.8931 8.3354 13.8709 8.3259C13.8298 8.3069 13.7854 8.29106 13.7411 8.27523C13.7189 8.26889 13.6967 8.26256 13.6746 8.25622C13.5859 8.23089 13.4972 8.21189 13.4085 8.20239C13.228 8.18022 13.0475 8.18655 12.8701 8.22139C12.8258 8.23089 12.7815 8.24039 12.7371 8.24989C12.4774 8.3164 12.2304 8.43991 12.0245 8.60777C11.5843 8.96564 11.4671 9.44703 11.521 9.99176C11.6097 10.8944 12.1354 11.4898 13.019 11.645C13.1203 11.664 13.2217 11.6861 13.3199 11.7115C13.6144 11.7938 13.8868 11.9173 14.1401 12.101C14.4537 12.386 14.6785 12.7186 14.8147 13.0986C14.8305 13.143 14.8464 13.1873 14.859 13.2348C14.8876 13.3362 14.9097 13.4407 14.9256 13.5483C14.9857 13.9411 14.9762 14.3338 14.9414 14.7265C14.8844 15.4011 14.631 15.9711 14.0768 16.386C13.9691 16.4367 13.8646 16.4905 13.7474 16.5317C13.38 16.6584 12.9968 16.7217 12.6168 16.8104C12.0087 16.9497 11.6065 17.3076 11.4767 17.9284C11.4196 18.1944 11.445 18.4636 11.4925 18.7296C11.5305 18.9355 11.6033 19.1223 11.7047 19.2902C11.7554 19.3725 11.8124 19.4517 11.8757 19.5246C11.8979 19.5499 11.92 19.5721 11.9422 19.5942C12.4141 20.0756 13.1583 20.2625 13.8234 19.9806C13.8551 19.9679 13.8836 19.9553 13.9153 19.9394C14.1845 19.8286 14.3777 19.6512 14.5202 19.4264C14.5835 19.325 14.6374 19.211 14.6849 19.0907C14.7862 18.8246 14.8052 18.5364 14.8749 18.2641C15.0839 17.4406 15.5273 16.8326 16.4014 16.6299C16.7846 16.5412 17.1742 16.5602 17.5637 16.557C18.2921 16.5507 18.8939 16.2467 19.3879 15.7336C19.9675 15.1445 20.0783 14.4193 19.9548 13.6465Z" fill="#249ACC"/>
<path d="M12.5281 14.1565C12.5439 13.3268 12.11 12.7789 11.2961 12.611C11.0871 12.5667 10.8781 12.516 10.669 12.478C9.8171 12.3228 9.31671 11.8066 9.10451 10.9863C8.99683 10.5683 9.01267 10.1407 9.02534 9.71318C9.05384 8.6839 9.63974 7.67994 10.9129 7.47092C11.7838 7.32524 12.2621 6.85018 12.4331 5.99825C12.5408 5.46302 12.4901 4.94362 12.0815 4.54141C11.5653 4.04102 10.9414 3.87316 10.2478 4.09802C9.5669 4.31972 9.17419 4.80744 9.06651 5.51686C9.019 5.83356 9.00317 6.15026 8.87332 6.4543C8.50278 7.31574 7.93904 7.65461 7.0206 7.5501C6.88759 7.53426 6.7514 7.52159 6.61839 7.50576C6.56138 7.49942 6.50121 7.49309 6.4442 7.48676C5.91531 7.45508 5.46242 7.5976 5.07287 7.8668C4.86702 8.00932 4.68016 8.1835 4.50597 8.38303C4.04992 8.90876 3.96124 9.55166 4.00241 10.2199C4.06259 11.2239 4.96203 12.1866 5.96281 12.3197C5.96598 12.326 5.97231 12.3323 5.97865 12.3355C5.98498 12.3387 5.99131 12.3418 5.99765 12.3418C6.01032 12.345 6.02298 12.3418 6.03565 12.3355C6.07682 12.3387 6.118 12.3418 6.15917 12.345C6.23834 12.383 6.32385 12.3735 6.40936 12.3767C6.64056 12.3798 6.87175 12.3703 7.10611 12.3798C7.8852 12.4178 8.50594 12.725 8.87965 13.4408C9.05384 13.7765 9.13935 14.1375 9.19952 14.5081C9.40538 15.7939 10.5455 16.1201 11.3911 15.8224C12.0879 15.5754 12.5122 14.9578 12.5281 14.1565Z" fill="white"/>
</svg>
