<svg width="24" height="24" viewBox="0 0 24 24" fill="none" xmlns="http://www.w3.org/2000/svg">
<path fill-rule="evenodd" clip-rule="evenodd" d="M0 12C0 5.37259 5.37259 0 12 0C18.6274 0 24 5.37259 24 12C24 18.6274 18.6274 24 12 24C5.37259 24 0 18.6274 0 12Z" fill="#FCD04C"/>
<path d="M11.9023 22.5438C11.9221 22.5255 11.9419 22.5255 11.9617 22.5453C11.9419 22.5606 11.9221 22.5606 11.9023 22.5438Z" fill="#E9D290"/>
<path d="M12.3287 22.5432C12.3485 22.5249 12.3683 22.5249 12.3881 22.5417C12.3683 22.56 12.3485 22.56 12.3287 22.5432Z" fill="#E9D290"/>
<path d="M16.3318 3.3255C16.4856 3.34226 16.641 3.32855 16.7933 3.34378C16.8969 3.35444 16.9639 3.43974 17.0264 3.51438C17.2351 3.76571 17.2945 4.05512 17.2412 4.37652C17.1817 4.74057 17.1315 5.10614 17.0766 5.47019C17.002 5.97285 16.9258 6.47551 16.8527 6.97664C16.7842 7.44122 16.7187 7.90733 16.6501 8.37191C16.5816 8.83496 16.5115 9.2965 16.443 9.75956C16.379 10.1952 16.3181 10.6293 16.2541 11.0649C16.1886 11.5097 16.1246 11.9545 16.0546 12.3993C16.0104 12.6841 15.8124 12.87 15.5093 12.9248C15.4559 12.9339 15.3859 12.9263 15.3508 12.9568C15.3158 12.9872 15.3463 13.0573 15.3387 13.1106C15.3143 13.2888 15.3356 13.4686 15.3021 13.6483C15.2442 13.9575 15.0797 14.1921 14.8421 14.3856C14.7796 14.4358 14.7111 14.483 14.6867 14.5668C14.6517 14.5729 14.6319 14.6034 14.609 14.6262C14.05 15.1852 13.488 15.7427 12.932 16.3048C12.6944 16.5455 12.4293 16.742 12.1201 16.8806C11.8033 17.0238 11.4697 17.106 11.1224 17.1091C10.3867 17.1152 9.6525 17.1121 8.91679 17.1121C8.77665 17.0893 8.635 17.0923 8.49334 17.1075C7.81551 17.1822 7.23364 16.8029 7.05085 16.1936C7.0143 16.0718 6.99297 15.9468 7.00211 15.8189C7.82922 15.8189 8.6548 15.8189 9.4819 15.8204C9.53978 15.8204 9.58091 15.8052 9.62204 15.7641C10.8635 14.5211 12.1064 13.2782 13.3493 12.0368C13.392 11.9941 13.4087 11.9515 13.4087 11.8905C13.4072 10.4054 13.4072 8.91874 13.4072 7.43361C13.555 7.34983 13.6921 7.25082 13.8033 7.12135C13.9525 6.94923 14.0546 6.75882 14.0485 6.51968C14.0409 6.26987 14.0424 6.01854 14.0485 5.76721C14.0515 5.64992 14.0089 5.55701 13.9449 5.46714C13.7972 5.26151 13.6205 5.08938 13.4072 4.95229C13.4042 4.92031 13.4209 4.89441 13.4377 4.86852C13.5291 4.73447 13.6205 4.60195 13.7103 4.46791C14.0211 4.00485 14.3318 3.5418 14.641 3.07874C14.6547 3.05742 14.6745 3.03914 14.6715 3.01172C14.8665 3.02695 15.0553 3.07112 15.2457 3.11225C15.5184 3.17013 15.7895 3.23258 16.053 3.32245C16.0698 3.32855 16.0866 3.33616 16.1018 3.34226C15.9982 3.39405 15.9464 3.48239 15.9297 3.59359C15.922 3.64385 15.9129 3.6926 15.9053 3.74286C15.8626 4.02618 15.8215 4.31102 15.7789 4.59434C15.7362 4.86852 15.6905 5.14117 15.6479 5.41535C15.6037 5.69867 15.5641 5.98351 15.5214 6.26683C15.4788 6.54557 15.4316 6.82432 15.3889 7.10307C15.3402 7.42142 15.296 7.7413 15.2473 8.05965C15.2046 8.34601 15.1574 8.63238 15.1132 8.91722C15.0706 9.18835 15.031 9.45948 14.9883 9.73061C14.9396 10.0413 14.8878 10.3521 14.8406 10.6628C14.7964 10.9461 14.7522 11.231 14.7157 11.5158C14.702 11.6209 14.6547 11.6956 14.5801 11.7656C14.4171 11.921 14.2602 12.084 14.1003 12.2439C14.0866 12.2576 14.0622 12.2683 14.0713 12.2927C14.0805 12.3125 14.1033 12.3033 14.1201 12.3033C14.5024 12.3033 14.8863 12.3033 15.2686 12.3048C15.3143 12.3048 15.3356 12.2927 15.3417 12.2424C15.3646 12.052 15.3935 11.8631 15.4209 11.6742C15.4544 11.4427 15.4895 11.2112 15.5214 10.9796C15.5534 10.7496 15.5854 10.5212 15.6174 10.2912C15.6555 10.0246 15.6966 9.75803 15.7347 9.49147C15.7728 9.22186 15.8063 8.95225 15.8459 8.68264C15.8992 8.31707 15.9556 7.94998 16.0089 7.58441C16.0485 7.31327 16.0805 7.04062 16.1201 6.76796C16.1627 6.46637 16.2099 6.16477 16.2526 5.86317C16.2952 5.56158 16.3348 5.25998 16.3775 4.95839C16.4354 4.55169 16.4993 4.14651 16.5542 3.73981C16.5679 3.63776 16.5694 3.53266 16.4948 3.44279C16.4521 3.38643 16.3927 3.35596 16.3318 3.3255Z" fill="#B4B4B4"/>
<path d="M13.4088 7.43179C13.4088 8.91692 13.4088 10.4036 13.4103 11.8887C13.4103 11.9496 13.3935 11.9923 13.3509 12.0349C12.1079 13.2764 10.865 14.5193 9.62358 15.7622C9.58245 15.8034 9.54133 15.8186 9.48345 15.8186C8.65634 15.8171 7.83076 15.8171 7.00365 15.8171C6.98081 15.453 7.10571 15.1377 7.32048 14.8514C7.35552 14.8041 7.3875 14.7569 7.42406 14.7112C7.58552 14.5086 7.66168 14.2786 7.64188 14.0197C7.63731 13.9588 7.64188 13.8978 7.64188 13.8369C7.94652 13.8598 8.24964 13.8933 8.55733 13.875C8.85893 13.8552 9.15595 13.8156 9.44841 13.7379C10.047 13.5795 10.6137 13.3464 11.1468 13.0296C11.2717 12.955 11.2732 12.9565 11.2016 12.8346C11.1834 12.8042 11.1635 12.7752 11.1483 12.7432C11.1255 12.696 11.0996 12.6884 11.0539 12.7173C10.7051 12.9321 10.338 13.1058 9.95412 13.2474C9.3296 13.4789 8.69137 13.6115 8.02116 13.5521C7.90083 13.5414 7.77897 13.5307 7.65864 13.5216C7.65407 13.5216 7.6495 13.5201 7.6434 13.5201C7.6434 13.0189 7.6434 12.5163 7.6434 12.0151C7.65254 12.0151 7.66168 12.0136 7.67082 12.0136C7.68605 12.0273 7.70281 12.0395 7.71652 12.0532C7.84142 12.1857 7.95719 12.3274 8.10341 12.4386C8.45832 12.7082 8.86654 12.6823 9.18033 12.367C9.71802 11.8263 10.2557 11.284 10.7919 10.7417C10.8071 10.7265 10.8208 10.7067 10.8345 10.6899C10.8635 10.6717 10.865 10.6382 10.8741 10.6107C11.0904 9.96489 11.3052 9.31905 11.52 8.67473C11.7226 8.06697 11.9267 7.46073 12.1293 6.85449C12.2831 7.00681 12.4385 7.15913 12.5923 7.31146C12.6731 7.39066 12.766 7.44702 12.8802 7.46835C13.0615 7.50033 13.2366 7.49881 13.4088 7.43179Z" fill="#D5D5D5"/>
<path d="M15.9372 20.9021C15.9235 20.9325 15.9022 20.9478 15.8656 20.9478C15.7803 20.9493 15.6935 20.9569 15.6082 20.9569C13.1056 20.9569 10.6029 20.9569 8.09878 20.9569C8.03024 20.9569 7.96169 20.9523 7.89467 20.9447C7.76977 20.931 7.64486 20.7955 7.64334 20.6584C7.6403 20.2989 7.63573 19.9379 7.64486 19.5784C7.65553 19.1093 7.8962 18.7559 8.22978 18.4527C8.47349 18.2319 8.72939 18.0232 8.91979 17.749C10.2084 17.749 11.4955 17.749 12.7842 17.749C12.8009 17.7688 12.8162 17.7886 12.8329 17.8069C13.8474 18.8229 14.8634 19.8374 15.8794 20.8533C15.8976 20.8701 15.9174 20.8853 15.9372 20.9021Z" fill="#D5D5D5"/>
<path d="M15.9372 20.903C15.919 20.8862 15.8976 20.871 15.8809 20.8527C14.8649 19.8382 13.8504 18.8223 12.8344 17.8063C12.8162 17.788 12.8009 17.7682 12.7857 17.7484C12.804 17.7271 12.8207 17.7057 12.8405 17.6859C13.1315 17.3859 13.4331 17.0965 13.7225 16.7949C14.0271 16.4765 14.344 16.1703 14.6547 15.8566C14.6836 15.8276 14.7141 15.8154 14.7552 15.8154C14.9456 15.817 15.136 15.8154 15.3249 15.8154C15.3462 15.8337 15.3676 15.8505 15.3874 15.8703C15.7803 16.2633 16.1718 16.6547 16.5648 17.0477C16.8588 17.3417 17.0705 17.6844 17.1832 18.0865C17.267 18.3851 17.2746 18.6897 17.2502 18.9974C17.2335 19.2076 17.2 19.4148 17.1269 19.6128C17.0035 19.9449 16.7796 20.2038 16.5221 20.4384C16.382 20.5663 16.2495 20.7034 16.1002 20.8207C16.05 20.8588 16.0012 20.8969 15.9372 20.903Z" fill="#B4B4B4"/>
<path d="M13.4087 7.43084C13.2366 7.49786 13.0614 7.49939 12.8817 7.46435C12.7675 7.4415 12.6745 7.38667 12.5938 7.30746C12.4384 7.15666 12.2846 7.00282 12.1308 6.8505C11.9662 6.68447 11.8017 6.51539 11.6342 6.35088C11.5824 6.30062 11.5199 6.26101 11.4468 6.24273C11.1468 6.162 10.8665 6.17724 10.6319 6.41181C10.3151 6.73016 9.99826 7.04547 9.68143 7.3623C9.64792 7.39581 9.61136 7.42779 9.57633 7.46131C9.57176 7.46131 9.56871 7.46131 9.56414 7.45978C9.56262 7.31355 9.56109 7.1658 9.56109 7.01957C9.56109 6.56109 9.56109 6.10108 9.55957 5.64259C9.55957 5.58623 9.57328 5.5451 9.61593 5.50398C9.81699 5.31053 10.0135 5.11251 10.2115 4.91754C10.2176 4.91754 10.2237 4.91754 10.2298 4.91602C10.2633 4.91602 10.2953 4.91754 10.3288 4.91754C11.2762 4.91754 12.2237 4.91754 13.1711 4.91754C13.2518 4.91754 13.3326 4.91449 13.4087 4.948C13.622 5.08509 13.7987 5.25722 13.9464 5.46285C14.0104 5.55272 14.0531 5.64564 14.05 5.76292C14.0439 6.01273 14.0424 6.26406 14.05 6.51539C14.0576 6.75453 13.954 6.94494 13.8048 7.11706C13.6936 7.24806 13.5565 7.34706 13.4087 7.43084Z" fill="#888888"/>
<path d="M11.4719 6.29199C11.545 6.31027 11.6074 6.34987 11.6592 6.40014C11.8268 6.56312 11.9913 6.7322 12.1558 6.89975C11.9532 7.50599 11.7491 8.11376 11.5465 8.71999C11.3317 9.36584 11.1154 10.0117 10.9007 10.656C10.8915 10.6834 10.89 10.7169 10.8611 10.7352C9.58309 10.7352 8.30664 10.7352 7.02866 10.7367C7.02409 10.5143 7.03932 10.2965 7.14595 10.0955C7.57245 10.0955 7.99742 10.0955 8.42392 10.097C8.76969 10.0985 9.03778 9.95227 9.2297 9.66591C9.91515 8.64231 10.6006 7.61719 11.2815 6.59207C11.3485 6.49306 11.4307 6.40471 11.4719 6.29199Z" fill="#B4B4B4"/>
<path d="M16.3318 3.32481C16.3927 3.35528 16.4521 3.38574 16.4978 3.44058C16.5725 3.53045 16.571 3.63555 16.5572 3.7376C16.5009 4.1443 16.4384 4.54948 16.3806 4.95618C16.3379 5.25777 16.2983 5.55937 16.2557 5.86096C16.213 6.16256 16.1658 6.46416 16.1231 6.76575C16.0851 7.03689 16.0515 7.30954 16.0119 7.5822C15.9586 7.94929 15.9023 8.31486 15.849 8.68043C15.8109 8.95004 15.7758 9.21965 15.7378 9.48926C15.6997 9.75582 15.6601 10.0224 15.6205 10.2889C15.587 10.519 15.5565 10.7474 15.5245 10.9774C15.491 11.209 15.4575 11.4405 15.424 11.672C15.3966 11.8609 15.3676 12.0513 15.3448 12.2402C15.3387 12.2904 15.3174 12.3026 15.2717 12.3026C14.8893 12.3011 14.5055 12.3026 14.1232 12.3011C14.1064 12.3011 14.0835 12.3103 14.0744 12.2904C14.0637 12.2661 14.0896 12.2554 14.1034 12.2417C14.2618 12.0818 14.4202 11.9188 14.5832 11.7634C14.6578 11.6933 14.705 11.6172 14.7187 11.5136C14.7553 11.2288 14.7995 10.9455 14.8436 10.6606C14.8909 10.3499 14.9426 10.0391 14.9914 9.7284C15.034 9.45727 15.0736 9.18614 15.1163 8.91501C15.1605 8.62864 15.2062 8.34228 15.2503 8.05744C15.2991 7.73909 15.3432 7.41921 15.392 7.10086C15.4346 6.82211 15.4803 6.54336 15.5245 6.26462C15.5687 5.9813 15.6083 5.69646 15.6509 5.41314C15.6936 5.13896 15.7393 4.86631 15.7819 4.59213C15.8261 4.30881 15.8672 4.02397 15.9084 3.74065C15.916 3.69039 15.9251 3.64164 15.9327 3.59138C15.9495 3.48018 16.0013 3.39184 16.1049 3.34005C16.178 3.32177 16.2541 3.3172 16.3318 3.32481Z" fill="#D5D5D5"/>
<path d="M15.3234 15.8179C15.133 15.8179 14.9426 15.8195 14.7537 15.8179C14.7126 15.8179 14.6821 15.8286 14.6532 15.8591C14.3424 16.1713 14.0256 16.4775 13.721 16.7974C13.4316 17.099 13.1315 17.3899 12.839 17.6884C12.8192 17.7082 12.8025 17.7296 12.7842 17.7509C11.4956 17.7509 10.2084 17.7509 8.9198 17.7509C8.9198 17.5376 8.91827 17.3259 8.91827 17.1127C9.65399 17.1127 10.3882 17.1157 11.1239 17.1096C11.4712 17.1066 11.8032 17.0243 12.1216 16.8811C12.4308 16.7425 12.6958 16.546 12.9335 16.3054C13.4894 15.7433 14.0515 15.1858 14.6105 14.6268C14.6334 14.6039 14.6516 14.575 14.6882 14.5674C14.6958 15.0122 14.9045 15.3655 15.197 15.6793C15.2381 15.725 15.2807 15.7707 15.3234 15.8179Z" fill="#888888"/>
<path d="M13.4087 4.94976C13.3326 4.91625 13.2518 4.9193 13.1711 4.9193C12.2237 4.9193 11.2762 4.9193 10.3288 4.9193C10.2953 4.9193 10.2633 4.91778 10.2298 4.91778C10.2283 4.91321 10.2283 4.90711 10.2267 4.90255C10.2785 4.84923 10.3288 4.79592 10.3806 4.74413C10.833 4.29326 11.2854 3.84239 11.7363 3.39152C11.9982 3.12952 12.309 2.997 12.6822 3.00005C13.3158 3.00614 13.9495 3.00157 14.5831 3.00157C14.6136 3.00157 14.6425 3.00614 14.673 3.00919C14.6761 3.03813 14.6563 3.05641 14.6425 3.07621C14.3318 3.53927 14.0226 4.00233 13.7119 4.46538C13.622 4.59943 13.5306 4.73195 13.4392 4.86599C13.4224 4.89188 13.4057 4.91778 13.4087 4.94976Z" fill="#D5D5D5"/>
<path d="M11.4468 6.24471C11.4057 6.35895 11.3235 6.4473 11.258 6.54479C10.5756 7.57143 9.89012 8.59503 9.20619 9.61863C9.01427 9.905 8.74771 10.0497 8.40041 10.0497C7.97391 10.0482 7.54894 10.0497 7.12244 10.0482C7.17575 9.89738 7.27323 9.774 7.38443 9.6628C8.08968 8.95603 8.79493 8.25079 9.5017 7.54554C9.52302 7.52421 9.54282 7.50136 9.56262 7.47852C9.56719 7.47395 9.57176 7.46938 9.57633 7.46481C9.61137 7.43282 9.64792 7.40083 9.68144 7.3658C9.99826 7.04897 10.3166 6.73214 10.6319 6.41531C10.8665 6.17769 11.1468 6.16398 11.4468 6.24471Z" fill="#D5D5D5"/>
<path d="M7.00362 10.689C8.2816 10.689 9.55805 10.689 10.836 10.6875C10.8223 10.7058 10.8086 10.7241 10.7934 10.7393C10.2557 11.2816 9.71951 11.8223 9.18181 12.3646C8.86803 12.6799 8.45981 12.7058 8.1049 12.4361C7.95867 12.325 7.84139 12.1833 7.71801 12.0508C7.7043 12.0355 7.68754 12.0234 7.67231 12.0112C7.66317 12.002 7.65251 11.9914 7.64337 11.9822C7.5337 11.8528 7.39509 11.7522 7.2778 11.6304C7.18945 11.5375 7.11024 11.4415 7.05541 11.3257C7.02647 11.2633 7.00667 11.1963 7.00514 11.1292C7.00057 10.983 7.00362 10.8353 7.00362 10.689Z" fill="#888888"/>
<path d="M7.65864 13.5205C7.77897 13.5311 7.90083 13.5403 8.02117 13.5509C8.69138 13.6103 9.32961 13.4778 9.95412 13.2463C10.338 13.1046 10.7051 12.9295 11.0539 12.7162C11.1011 12.6873 11.127 12.6949 11.1483 12.7421C11.1636 12.7741 11.1834 12.803 11.2016 12.8335C11.2732 12.9554 11.2732 12.9538 11.1468 13.0285C10.6137 13.3453 10.047 13.5784 9.44842 13.7368C9.15748 13.8145 8.86046 13.8541 8.55734 13.8739C8.24965 13.8937 7.94653 13.8602 7.64189 13.8358C7.60381 13.7611 7.65559 13.685 7.64189 13.6103C7.66473 13.5844 7.65255 13.5509 7.65864 13.5205Z" fill="#898988"/>
<path d="M7.6586 13.5201C7.65251 13.5505 7.6647 13.5841 7.64337 13.6115C7.64337 13.581 7.64337 13.549 7.64337 13.5186C7.64946 13.5201 7.65403 13.5201 7.6586 13.5201Z" fill="#DBD3BA"/>
<path d="M7.64337 11.9814C7.65251 11.9906 7.66317 12.0012 7.67231 12.0104C7.66317 12.0104 7.65403 12.0119 7.64489 12.0119C7.64337 12.0028 7.64337 11.9921 7.64337 11.9814Z" fill="#DBD3BA"/>
<path d="M10.2259 4.90234C10.2274 4.90666 10.2274 4.91242 10.2288 4.91674C10.2231 4.91674 10.2173 4.91674 10.2115 4.91818C10.2159 4.91242 10.2202 4.90666 10.2259 4.90234Z" fill="#C0C0C0"/>
<path d="M9.57476 7.46326C9.57071 7.46731 9.56667 7.47136 9.56262 7.4754C9.56262 7.47136 9.56397 7.46596 9.56397 7.46191C9.56667 7.46191 9.57071 7.46326 9.57476 7.46326Z" fill="#898988"/>
<path d="M23.5 12C23.5 18.3513 18.3513 23.5 12 23.5C5.64873 23.5 0.5 18.3513 0.5 12C0.5 5.64873 5.64873 0.5 12 0.5C18.3513 0.5 23.5 5.64873 23.5 12Z" stroke="black" stroke-opacity="0.097"/>
</svg>
