<svg width="40" height="40" viewBox="0 0 40 40" fill="none" xmlns="http://www.w3.org/2000/svg"><rect fill="#000" width="40" height="40" rx="12"/><g transform="translate(4 4)"><circle cx="16" cy="16" r="14" fill="#fff"/><svg width="32" height="32" viewBox="0 0 32 32" xmlns="http://www.w3.org/2000/svg"><path fill-rule="evenodd" clip-rule="evenodd" d="M0 16C0 7.163 7.163 0 16 0s16 7.163 16 16-7.163 16-16 16S0 24.837 0 16z" fill="#000"/><path fill-rule="evenodd" clip-rule="evenodd" d="M7.007 14.26v3.623c0 1.982.001 3.965-.006 5.948-.001.26.05.34.327.34 2.1-.009 4.199-.008 6.298-.007h2.987c1.428-.001 2.858-.002 4.288.006.234.002.317-.056.302-.299a8.759 8.759 0 010-1.089c.02-.282-.068-.354-.352-.354-2.082.005-4.165.006-6.247.006-1.762 0-3.524 0-5.286.004-.265 0-.362-.039-.362-.34.01-4.07.01-8.141 0-12.211 0-.286.093-.325.34-.325 1.043.008 2.085.008 3.125.007h.892l2.529-.002c1.686-.002 3.371-.004 5.057.002.236 0 .317-.058.304-.3a9.632 9.632 0 010-1.122c.016-.255-.06-.319-.317-.319-4.525.009-9.05.009-13.573 0-.26 0-.314.068-.313.32.008 2.037.007 4.075.007 6.112zm16.558-.484l.114.001c.077 0 .154 0 .23-.002.174-.002.347-.005.52.008.22.013.238-.082.2-.259a2.939 2.939 0 00-1.321-1.936c-.597-.384-1.258-.56-1.958-.598-1.159-.064-2.26.095-3.184.89-1.257 1.081-1.299 3.524.563 4.349.489.216 1.002.306 1.52.397l.285.051c.147.027.295.05.444.074.398.062.797.125 1.18.266.554.205.826.561.826 1.078.003.5-.315.912-.845 1.112-.578.22-1.173.22-1.77.095-.684-.143-1.224-.473-1.41-1.204-.031-.128-.117-.126-.206-.124h-.033c-.141 0-.282.002-.423.004-.336.004-.671.008-1.007-.01-.286-.018-.33.084-.272.323.213.883.632 1.65 1.444 2.089 1.726.93 3.505.97 5.215 0 1.115-.633 1.459-1.722 1.277-2.957-.167-1.136-.913-1.777-1.965-2.106-.475-.148-.966-.227-1.457-.306a25.009 25.009 0 01-.604-.102l-.174-.031c-.32-.057-.64-.114-.939-.254-.334-.158-.535-.417-.538-.796-.004-.378.14-.696.483-.873.763-.395 1.543-.377 2.322-.04.204.087.405.23.456.435.12.468.443.454.8.427.076-.004.151-.003.227-.001z" fill="#fff"/></svg></g></svg>