<svg width="24" height="24" viewBox="0 0 24 24" fill="none" xmlns="http://www.w3.org/2000/svg">
<path d="M12 24C18.6274 24 24 18.6274 24 12C24 5.37258 18.6274 0 12 0C5.37258 0 0 5.37258 0 12C0 18.6274 5.37258 24 12 24Z" fill="#DF0000"/>
<path d="M23.5 12C23.5 18.3513 18.3513 23.5 12 23.5C5.64873 23.5 0.5 18.3513 0.5 12C0.5 5.64873 5.64873 0.5 12 0.5C18.3513 0.5 23.5 5.64873 23.5 12Z" stroke="white" stroke-opacity="0.3"/>
<path d="M6.73892 6L5 17.9469L8.9679 18.4095L10.8632 14.0161L10.4618 18.5632L14.4304 19L19 7.51569L15.6339 7.13033L13.5382 12.5464L14.5637 7.01956L11.0723 6.61626L9.02611 11.7375L10.0584 6.41578L6.73892 6Z" fill="white"/>
</svg>
