<svg width="24" height="24" viewBox="0 0 24 24" fill="none" xmlns="http://www.w3.org/2000/svg">
<path d="M12 24C18.6274 24 24 18.6274 24 12C24 5.37258 18.6274 0 12 0C5.37258 0 0 5.37258 0 12C0 18.6274 5.37258 24 12 24Z" fill="url(#paint0_linear)"/>
<path d="M14.73 10.6841L13.12 13.4841L12.602 12.5881L13.596 10.6841H8.80801L12.014 16.2001L13.134 14.2681L13.414 13.7921L15.22 10.6841H14.73ZM13.078 11.0201L12.392 12.2101L11.692 11.0201H13.078ZM12.014 15.3881L9.46601 11.0201H11.244L12.896 13.8621L12.014 15.3881Z" fill="white"/>
<path d="M14.604 6.27393H9.38202L15.514 10.1939L14.604 6.27393Z" fill="white"/>
<path d="M8.47202 10.2079H15.514L9.38202 6.27393L8.47202 10.2079Z" fill="white"/>
<path d="M16.13 17.9081L18.734 13.3721L12.266 16.7181L16.13 17.9081Z" fill="white"/>
<path d="M15.794 10.6279L12.266 16.7179L18.734 13.3719L15.794 10.6279Z" fill="white"/>
<path d="M7.898 17.9081L5.28 13.3721L11.748 16.7181L7.898 17.9081Z" fill="white"/>
<path d="M8.234 10.6279L11.748 16.7179L5.28 13.3719L8.234 10.6279Z" fill="white"/>
<path d="M23.5 12C23.5 18.3513 18.3513 23.5 12 23.5C5.64873 23.5 0.5 18.3513 0.5 12C0.5 5.64873 5.64873 0.5 12 0.5C18.3513 0.5 23.5 5.64873 23.5 12Z" stroke="black" stroke-opacity="0.097"/>
<defs>
<linearGradient id="paint0_linear" x1="12" y1="0" x2="12" y2="24" gradientUnits="userSpaceOnUse">
<stop stop-color="#D1633A"/>
<stop offset="1" stop-color="#E9AC3F"/>
</linearGradient>
</defs>
</svg>
