<svg width="24" height="24" viewBox="0 0 24 24" fill="none" xmlns="http://www.w3.org/2000/svg">
<path d="M12 24C18.6274 24 24 18.6274 24 12C24 5.37258 18.6274 0 12 0C5.37258 0 0 5.37258 0 12C0 18.6274 5.37258 24 12 24Z" fill="#0053F1"/>
<path d="M23.5 12C23.5 18.3513 18.3513 23.5 12 23.5C5.64873 23.5 0.5 18.3513 0.5 12C0.5 5.64873 5.64873 0.5 12 0.5C18.3513 0.5 23.5 5.64873 23.5 12Z" stroke="white" stroke-opacity="0.3"/>
<path d="M23 17L14.2286 11.9714L17.7938 9.91429C18.3031 9.62857 18.4728 9 18.1899 8.48571C17.9069 7.97143 17.2845 7.8 16.7751 8.08571L13.21 10.1429V6.02857C13.21 5.45714 12.7573 5 12.1914 5C11.6255 5 11.1728 5.45714 11.1728 6.02857V10.1429L7.55105 8.08571C7.04174 7.8 6.41925 7.97143 6.13631 8.48571C5.85336 9 6.02313 9.62857 6.53243 9.91429L10.0976 11.9714L6.53243 14.0286C6.02313 14.3143 5.85336 14.9429 6.13631 15.4571C6.30607 15.8 6.7022 15.9714 7.04174 15.9714C7.21151 15.9714 7.38128 15.9143 7.55105 15.8571L11.1162 13.8V17.9714C11.1162 18.5429 11.5689 19 12.1348 19C12.7007 19 13.1534 18.5429 13.1534 17.9714V13.8L22.038 18.7143L23 17Z" fill="white"/>
</svg>
