<svg width="125" height="83" viewBox="0 0 125 83" fill="none" xmlns="http://www.w3.org/2000/svg">
<path fill-rule="evenodd" clip-rule="evenodd" d="M102.422 0H122.958L113.203 30.9433H92.9243L102.422 0ZM75.982 29.4048L86.0788 53.3388L89.8436 41.0299H109.951L98.5713 78.0422C97.6301 80.9485 94.9776 82.9145 91.8972 82.9145H80.4314C77.6078 82.9145 75.0408 81.2049 73.9285 78.5551L61.2648 47.8682L48.8578 78.5551C47.831 81.2904 45.2641 83 42.3549 83H30.718C27.6376 83 24.9851 80.9485 24.0439 78.0422L0 5.85842e-05H20.1934L36.2797 53.3388L46.8898 29.3193C49.2857 23.3358 55.0185 19.4038 61.4359 19.4038C67.8533 19.4038 73.6718 23.3358 75.982 29.4048Z" fill="#20252F"/>
</svg>
