<svg width="24" height="24" viewBox="0 0 24 24" fill="none" xmlns="http://www.w3.org/2000/svg">
<path d="M12 24C18.6274 24 24 18.6274 24 12C24 5.37258 18.6274 0 12 0C5.37258 0 0 5.37258 0 12C0 18.6274 5.37258 24 12 24Z" fill="#FF97C3"/>
<path d="M17.2959 11.2703C17.2032 11.4656 17.0934 11.6523 16.9678 11.8282C16.8741 11.7154 16.7723 11.6094 16.6632 11.5113L15.0943 10.0942L12.6728 8.03988L12.0513 8.62794L10.8785 9.74381L8.66465 11.8338L8.20045 12.2746L6.45636 10.8351L6.51773 10.776L8.66465 8.74288L10.8774 6.64728L12.0502 5.53142L12.6717 4.94336L15.0954 6.99543L16.6643 8.41258C16.8883 8.61211 17.0795 8.84557 17.2311 9.10442C17.2456 9.13008 17.2613 9.15686 17.2747 9.18364C17.5358 9.67909 17.7143 10.3843 17.2959 11.2703Z" fill="#FF97C3" stroke="white" stroke-width="0.223173" stroke-linecap="round" stroke-linejoin="round"/>
<path d="M12.6684 15.9603V19.0512L11.2791 17.9041L8.86886 15.9156L6.45636 13.926L6.51773 13.8669L8.20045 12.2734L8.86886 12.8258L11.2791 14.8131L12.6684 15.9603Z" fill="#DCE8F2" stroke="white" stroke-width="0.223173" stroke-linecap="round" stroke-linejoin="round"/>
<path d="M16.97 11.8281C16.8357 12.0157 16.6896 12.1946 16.5326 12.3637L16.3786 12.5077L12.6684 15.9669L11.2791 14.8197L8.86886 12.8324L8.19934 12.2745L8.66354 11.8348L10.8774 9.7381L12.0502 8.62224L12.6717 8.03418L15.0954 10.0863L16.6643 11.5034C16.774 11.604 16.8762 11.7125 16.97 11.8281Z" fill="#D96C9F" stroke="white" stroke-width="0.223173" stroke-linecap="round" stroke-linejoin="round"/>
<path d="M17.2959 14.3609C17.0979 14.7616 16.8398 15.1297 16.5304 15.4522L16.3764 15.5962L12.6662 19.0554V15.9566L16.3764 12.4974L16.5304 12.3535C16.6874 12.1844 16.8335 12.0055 16.9679 11.8179C17.0663 11.9348 17.154 12.0603 17.2301 12.1928C17.2446 12.2185 17.2602 12.2452 17.2736 12.272C17.5358 12.7697 17.7144 13.4749 17.2959 14.3609Z" fill="#DCE8F2" stroke="white" stroke-width="0.223173" stroke-linecap="round" stroke-linejoin="round"/>
<path d="M8.20045 12.2733L6.51773 13.8668L6.45636 13.9259V10.835L8.20045 12.2733Z" fill="#A9A7D9" stroke="white" stroke-width="0.223173" stroke-linecap="round" stroke-linejoin="round"/>
<path d="M23.5 12C23.5 18.3513 18.3513 23.5 12 23.5C5.64873 23.5 0.5 18.3513 0.5 12C0.5 5.64873 5.64873 0.5 12 0.5C18.3513 0.5 23.5 5.64873 23.5 12Z" stroke="black" stroke-opacity="0.097"/>
</svg>
