<svg id="Layer_1" data-name="Layer 1" xmlns="http://www.w3.org/2000/svg" viewBox="0 0 600 600"><defs><clipPath id="clip-path" transform="translate(0 -.13)"><path style="fill:none" d="M0 0h600v600H0z"/></clipPath><style>.cls-4{fill:#fff}</style></defs><g style="clip-path:url(#clip-path)"><path d="M600 300.13c0 165.69-134.31 300-300 300S0 465.81 0 300.13 134.31.13 300 .13s300 134.31 300 300" transform="translate(0 -.13)" style="fill:#862ae9"/><path class="cls-4" d="M471.11 421.21a17.75 17.75 0 0 0 2.07-8 7.24 7.24 0 0 0 0-1.1V263.47a95.36 95.36 0 0 0-142.61-81.72l-1.49.85-126.64 73.12-1.11.65a18.18 18.18 0 0 0-5.77 5.75c-.15.21-.26.41-.39.63a18.33 18.33 0 0 0 6.71 25l243.84 140.83a18.33 18.33 0 0 0 25-6.71c.13-.22.24-.42.35-.65M212.54 271.93l14.74-8.53 62.84-36.26 49.38-28.51 1.6-.91a76.34 76.34 0 0 1 113 65.26v148.43Z" transform="translate(0 -.13)"/><path class="cls-4" d="M128.89 421.21a17.77 17.77 0 0 1-2.08-8 7.5 7.5 0 0 1 0-1.1V263.47a95.36 95.36 0 0 1 142.61-81.72l1.49.85 126.65 73.11 1.11.65a18.17 18.17 0 0 1 5.77 5.75c.15.21.26.41.39.63a18.33 18.33 0 0 1-6.71 25L154.28 428.58a18.33 18.33 0 0 1-25-6.71c-.13-.22-.24-.42-.35-.65m258.53-149.29-14.74-8.53-62.83-36.26-49.39-28.52-1.6-.91a76.34 76.34 0 0 0-113 65.26v148.44Z" transform="translate(0 -.13)"/></g></svg>