<svg width="24" height="24" viewBox="0 0 24 24" fill="none" xmlns="http://www.w3.org/2000/svg">
<path fill-rule="evenodd" clip-rule="evenodd" d="M0 12C0 5.37259 5.37259 0 12 0C18.6274 0 24 5.37259 24 12C24 18.6274 18.6274 24 12 24C5.37259 24 0 18.6274 0 12Z" fill="#E6313A"/>
<path d="M10.6742 20.9418C7.8642 20.5061 5.88196 18.9741 4.73473 16.3892C3.92877 14.5739 3.92151 12.7006 4.58225 10.8273C4.66212 10.6095 4.61856 10.4642 4.50238 10.2682C4.3136 9.94872 4.12482 9.61472 4.05221 9.25893C3.73999 7.68331 4.87995 6.40538 6.09253 6.43443C6.22323 6.43443 6.41201 6.28195 6.48462 6.15125C7.63911 4.08914 9.389 3 11.7488 3C12.4894 3 13.2373 3.11618 13.9634 3.27592C15.009 3.501 15.9601 3.97297 16.7589 4.70632C17.5939 5.48324 18.1457 6.4199 18.4434 7.51631C18.487 7.68331 18.5886 7.89387 18.7266 7.98101C20.2877 8.90314 20.52 10.6095 19.2711 11.8947C19.1695 11.9963 19.1114 12.1924 19.1259 12.3303C19.2203 13.1581 19.2203 13.9858 19.0606 14.8063C18.4361 18.0519 15.9021 20.4771 12.6274 20.9345C11.6471 21.0652 10.8121 20.9636 10.6742 20.9418ZM15.539 16.6215C15.4882 16.5562 15.4519 16.5126 15.4228 16.4618C14.9073 15.4816 14.0433 15.0532 12.9904 14.9588C12.8379 14.9442 12.6564 14.9951 12.5257 15.0749C11.9085 15.4525 11.3059 15.4525 10.6887 15.0822C10.5725 15.0096 10.4201 14.9515 10.2894 14.9588C9.6867 14.9878 9.11308 15.1621 8.65564 15.5542C8.30712 15.8446 8.03846 16.2294 7.67542 16.636C7.57376 16.5054 7.45759 16.3529 7.32689 16.2077C6.09253 14.8208 5.61331 13.2016 5.84566 11.3646C5.86018 11.2702 5.75853 11.1613 5.7077 11.0596C5.61331 11.1177 5.51165 11.1758 5.42452 11.2484C5.39548 11.2775 5.38822 11.3356 5.3737 11.3791C4.10303 15.3146 6.76054 19.4969 10.863 20.0051C15.0235 20.5134 18.6394 16.9555 18.1965 12.7805C18.182 12.6207 18.1893 12.4465 17.9496 12.4755C17.7463 12.4973 17.514 12.432 17.4777 12.7732C17.4341 13.1798 17.3542 13.5865 17.2381 13.9785C16.9331 15.0096 16.374 15.8954 15.539 16.6215ZM15.6479 15.0532C15.6697 15.0386 15.7133 15.0169 15.7351 14.9806C16.2578 14.2109 16.5192 13.3614 16.5555 12.4392C16.5628 12.3303 16.4684 12.1996 16.3885 12.1125C16.1489 11.8438 15.9093 11.5824 15.6479 11.3356C15.539 11.2339 15.3793 11.1177 15.2413 11.1105C12.5548 11.0959 9.86822 11.1032 7.18167 11.0959C6.95658 11.0959 6.86219 11.1831 6.81136 11.3936C6.6008 12.3594 6.75328 13.2888 7.12358 14.1818C7.25428 14.4941 7.45033 14.7845 7.63911 15.1258C8.28533 14.5522 8.96786 14.2109 9.73752 14.0584C9.82465 14.0439 9.91905 13.8551 9.92631 13.7462C9.95535 13.4485 10.0715 13.2524 10.3837 13.2452C10.6669 13.2379 10.8121 13.4122 10.863 13.6881C10.9574 14.1746 11.2188 14.4287 11.6036 14.4215C11.9739 14.4142 12.2208 14.1673 12.3079 13.6881C12.3587 13.4049 12.5112 13.2452 12.7871 13.2452C13.0921 13.2452 13.2518 13.4485 13.2373 13.7389C13.23 13.964 13.3389 14.0148 13.5277 14.0657C13.8617 14.1528 14.2103 14.2399 14.5225 14.3852C14.9073 14.5739 15.2631 14.8208 15.6479 15.0532ZM14.3773 7.71961C14.1377 7.71961 13.9997 7.71961 13.8617 7.71961C11.3422 7.71961 8.8299 7.71235 6.31036 7.72687C6.08527 7.72687 5.82388 7.79948 5.64235 7.92292C5.29383 8.16979 5.19217 8.75793 5.36644 9.21537C5.51892 9.62198 5.79483 9.81076 6.29584 9.81076C9.18569 9.81076 12.0755 9.81076 14.9727 9.81802C15.2268 9.81802 15.372 9.75268 15.4301 9.48402C15.4809 9.26619 15.5608 9.02658 15.706 8.86684C15.9892 8.55462 15.8875 8.29323 15.6988 8.00279C15.1106 7.10243 14.3192 6.39812 13.4769 5.7519C13.4479 5.73011 13.397 5.73737 13.3099 5.72285C13.6584 6.39086 13.9997 7.0153 14.3773 7.71961ZM18.7629 10.1157C18.7629 9.51306 18.2836 9.03384 17.6955 9.02658C17.1074 9.02658 16.6209 9.51306 16.6136 10.1085C16.6064 10.7184 17.1074 11.2194 17.71 11.2121C18.2909 11.2049 18.7629 10.7184 18.7629 10.1157Z" fill="white"/>
<path d="M11.6471 18.1462C10.7322 18.1317 9.91176 17.8703 9.15662 17.3765C8.91701 17.2168 8.76453 17.0135 8.90249 16.7085C9.03318 16.4181 9.32362 16.3673 9.66488 16.5778C10.6233 17.1805 11.6544 17.3475 12.7363 16.999C13.0557 16.8973 13.3462 16.7303 13.6439 16.5706C13.9779 16.3891 14.2102 16.4036 14.3772 16.6432C14.5442 16.8901 14.4716 17.1587 14.1521 17.3693C13.3825 17.8848 12.5475 18.1389 11.6471 18.1462Z" fill="white"/>
<path d="M8.42326 12.6203C8.42326 12.279 8.73548 11.9668 9.06949 11.9668C9.40349 11.9668 9.70845 12.2863 9.70845 12.6275C9.70119 12.9833 9.41075 13.2738 9.06223 13.2738C8.7137 13.2738 8.416 12.9688 8.42326 12.6203Z" fill="white"/>
<path d="M14.2538 13.2738C13.9198 13.281 13.6003 12.9906 13.5858 12.6493C13.5713 12.3008 13.8907 11.9668 14.2393 11.9668C14.5515 11.9668 14.8928 12.3081 14.8928 12.6203C14.8928 12.947 14.5878 13.2665 14.2538 13.2738Z" fill="white"/>
<path d="M23.5 12C23.5 18.3513 18.3513 23.5 12 23.5C5.64873 23.5 0.5 18.3513 0.5 12C0.5 5.64873 5.64873 0.5 12 0.5C18.3513 0.5 23.5 5.64873 23.5 12Z" stroke="white" stroke-opacity="0.3"/>
</svg>
