<svg width="24" height="24" viewBox="0 0 24 24" fill="none" xmlns="http://www.w3.org/2000/svg">
<path d="M12 24C18.6274 24 24 18.6274 24 12C24 5.37258 18.6274 0 12 0C5.37258 0 0 5.37258 0 12C0 18.6274 5.37258 24 12 24Z" fill="#151B4F"/>
<path d="M16.5763 18.9989C16.496 18.9915 16.4504 18.9334 16.4008 18.8794C16.1107 18.564 15.8159 18.2525 15.5321 17.9319C15.4452 17.8339 15.3836 17.8191 15.2624 17.882C12.5329 19.3003 9.1325 18.7722 6.98168 16.6008C4.26789 13.8614 4.35181 9.51977 7.16922 6.89092C10.3121 3.95842 15.3814 4.50727 17.827 8.04816C18.5264 9.06079 18.8997 10.1925 18.9953 11.4219C18.9967 11.67 18.9985 11.9182 19 12.1664C18.931 13.2141 18.6596 14.2013 18.1441 15.1159C17.9171 15.5183 17.6519 15.8926 17.3534 16.2435C17.2899 16.3179 17.2534 16.3593 17.1655 16.2576C16.8123 15.8504 16.4508 15.451 16.0866 15.0538C16.0166 14.9772 16.0264 14.9313 16.0844 14.8555C18.398 11.8383 16.6591 7.55479 12.873 6.91274C10.6412 6.53402 8.49109 7.5914 7.45782 9.52088C6.10639 12.0432 7.18709 15.1732 9.83594 16.37C11.241 17.0047 12.6625 16.991 14.1179 16.4018C13.2025 15.4081 12.3024 14.4306 11.4015 13.4527C11.4431 13.3957 11.4957 13.4224 11.5387 13.422C12.2013 13.4198 12.8639 13.422 13.5264 13.419C13.6228 13.4187 13.6939 13.4401 13.7643 13.5159C15.4069 15.2831 17.0108 17.0857 18.6224 18.8813C18.6454 18.9068 18.6826 18.9257 18.6789 18.9808C18.6118 18.9871 18.5428 18.9933 18.4735 19C17.8409 18.9834 17.2086 18.9848 16.5763 18.9989Z" fill="white"/>
<path d="M23.5 12C23.5 18.3513 18.3513 23.5 12 23.5C5.64873 23.5 0.5 18.3513 0.5 12C0.5 5.64873 5.64873 0.5 12 0.5C18.3513 0.5 23.5 5.64873 23.5 12Z" stroke="white" stroke-opacity="0.3"/>
</svg>
