<svg xmlns="http://www.w3.org/2000/svg" viewBox="0 0 48.2 48.3" style="enable-background:new 0 0 48.2 48.3" xml:space="preserve"><g transform="translate(.123 .127)"><defs><filter id="a" filterUnits="userSpaceOnUse" x="-.1" y="-.1" width="48.2" height="48.3"><feColorMatrix values="1 0 0 0 0 0 1 0 0 0 0 0 1 0 0 0 0 0 1 0"/></filter></defs><mask maskUnits="userSpaceOnUse" x="-.1" y="-.1" width="48.2" height="48.3" id="b"><g style="filter:url(#a)"><path d="M-.1-.1H48v48.3H-.1V-.1z" style="fill-rule:evenodd;clip-rule:evenodd;fill:#fff"/></g></mask><path d="M48 24c0 13.4-10.8 24.2-24 24.2S-.1 37.4-.1 24 10.7-.1 24-.1 48 10.7 48 24" style="mask:url(#b);fill:#8150e6"/></g><path d="M47.2 30.7 30.1 13.8 20.3 12l-5.7 21.6L29 47.8c8.8-1.8 15.8-8.5 18.2-17.1" style="fill:#3c176b"/><path d="M22 31.7V18.3h3.4c1.1 0 2.2.1 3.1.4.9.3 1.7.7 2.5 1.3l.3.3c0-1.8-.6-3.6-1.6-5.2-1-.3-2.1-.4-3.2-.4h-8.2v17c1.3 0 2.5.1 3.7 0" style="fill:#6b42bd"/><path d="M36.1 21c-.6-1.4-1.4-2.6-2.3-3.5-1-.9-2.1-1.6-3.4-2.1-.3-.1-.5-.2-.8-.2.9 1.6 1.6 3.4 1.6 5.2.6.6.9 2.8 1.3 3.6L22 33.6v-1.9c-1.2.1-2.4 0-3.7 0v5.6H26c1.2 0 2.5-.2 3.8-.7 1.3-.5 2.5-1.2 3.5-2.1 1.1-.9 1.9-2.1 2.6-3.5.7-1.4 1-3.1 1-5 .1-2-.2-3.6-.8-5" style="fill:#9b74ec"/><path d="M21.1 29.9c1.1 0 2.2-.1 3.3-.4 1-.3 1.9-.7 2.7-1.3.8-.6 1.4-1.4 1.8-2.4.4-1 .7-2.1.7-3.5s-.2-2.4-.6-3.4-.9-1.8-1.6-2.4c-.7-.6-1.6-1.1-2.5-1.3-.9-.3-2-.4-3.1-.4h-3.4V30c-.1-.1 2.7-.1 2.7-.1zM14.6 11h8.2c1.4 0 2.7.2 4 .7 1.3.5 2.4 1.2 3.4 2.1 1 .9 1.8 2.1 2.3 3.5.6 1.4.9 3 .9 4.9 0 1.9-.3 3.6-1 5s-1.5 2.6-2.6 3.5c-1 .9-2.2 1.6-3.5 2.1-1.3.5-2.6.7-3.8.7h-7.7c-.2 0-.2-22.5-.2-22.5z" style="fill:#fff"/></svg>