<svg width="24" height="24" viewBox="0 0 24 24" fill="none" xmlns="http://www.w3.org/2000/svg">
<path d="M12 24C18.6274 24 24 18.6274 24 12C24 5.37258 18.6274 0 12 0C5.37258 0 0 5.37258 0 12C0 18.6274 5.37258 24 12 24Z" fill="#2170FB"/>
<path d="M12 24C18.6274 24 24 18.6274 24 12C24 5.37258 18.6274 0 12 0C5.37258 0 0 5.37258 0 12C0 18.6274 5.37258 24 12 24Z" fill="url(#paint0_linear)"/>
<path fill-rule="evenodd" clip-rule="evenodd" d="M13.8599 11.4754C13.3863 11.516 12.6769 11.8188 12.4666 12.1196C13.4317 12.3979 14.1124 13.0003 14.4863 13.948C14.8697 14.9182 14.8186 15.8903 14.492 16.8669C14.1577 17.8668 12.8507 18.741 11.9355 18.5632C10.3428 18.2533 9.19809 16.3297 9.63462 14.7416C10.1593 12.8405 11.5801 11.5927 12.7235 10.0472C13.3243 9.2348 13.7883 8.36187 13.7417 7.3047C13.7106 6.71733 13.5408 6.14594 13.2463 5.63809C12.8121 4.88015 12.2733 4.18822 11.646 3.58301C11.7808 4.2588 11.8729 4.81477 11.7821 5.41905C11.6538 6.2544 11.3643 7.05632 10.9301 7.77949C10.2309 8.9668 9.32272 10.0124 8.62479 11.199C8.2541 11.8291 7.87509 12.4707 7.79392 13.229C7.50759 14.0059 7.50056 14.7945 7.61944 15.6126C7.76133 16.5919 8.16206 17.4306 8.86958 18.0923C10.0699 19.2151 11.5469 19.5192 13.1275 19.3878C13.7073 19.3407 14.2696 19.1647 14.7739 18.8724C16.612 17.7914 17.2134 15.5869 16.7149 13.7592C16.3033 12.2408 15.3306 11.3491 13.8599 11.4754Z" fill="white"/>
<path fill-rule="evenodd" clip-rule="evenodd" d="M16.9969 12.5509C16.8915 11.5241 16.4189 10.6749 15.7885 9.88258C15.3694 9.35693 14.8872 8.83709 14.9287 8.06152C14.3507 8.90102 14.663 9.74052 15.1682 10.3753C15.7853 11.1502 16.7012 11.6946 16.9982 12.7369C17.001 12.6749 17.0005 12.6128 16.9969 12.5509Z" fill="white"/>
<path fill-rule="evenodd" clip-rule="evenodd" d="M8.09946 9.24023C8.11858 9.86352 7.8923 10.4236 7.6335 10.9619C7.10954 12.0518 6.89855 13.1882 7.04579 14.387C7.12483 13.4202 7.43399 12.532 7.82473 11.6625C8.17085 10.8916 8.42519 10.0975 8.09946 9.24023Z" fill="white"/>
<path fill-rule="evenodd" clip-rule="evenodd" d="M12.2539 17.5573C11.9889 17.6218 11.6879 17.5683 11.4531 17.7573C12.297 18.2651 13.3435 17.7405 13.7358 17.1844C14.0677 16.7153 14.0162 16.0269 13.6033 15.7236C13.6882 16.5695 13.247 17.3179 12.2539 17.5573Z" fill="white"/>
<path fill-rule="evenodd" clip-rule="evenodd" d="M9.15852 9.39811C9.5561 9.15245 9.76925 8.83624 9.97858 8.46615C10.3404 7.82475 10.0245 7.32509 9.10938 7.08008C9.64481 7.83373 9.43549 8.6002 9.15852 9.39811Z" fill="white"/>
<path fill-rule="evenodd" clip-rule="evenodd" d="M13.7891 9.63281C13.7417 10.2314 13.2499 10.5316 12.8984 10.9686C14.0331 10.6041 14.1975 10.4438 13.7891 9.63281Z" fill="white"/>
<path d="M23.5 12C23.5 18.3513 18.3513 23.5 12 23.5C5.64873 23.5 0.5 18.3513 0.5 12C0.5 5.64873 5.64873 0.5 12 0.5C18.3513 0.5 23.5 5.64873 23.5 12Z" stroke="white" stroke-opacity="0.3"/>
<defs>
<linearGradient id="paint0_linear" x1="20.2314" y1="6.22721" x2="3.98521" y2="24.528" gradientUnits="userSpaceOnUse">
<stop stop-color="#F37E5F"/>
<stop offset="0.5" stop-color="#EC1C24"/>
<stop offset="1" stop-color="#CF232A"/>
</linearGradient>
</defs>
</svg>
