<svg width="24" height="24" viewBox="0 0 24 24" fill="none" xmlns="http://www.w3.org/2000/svg">
<path fill-rule="evenodd" clip-rule="evenodd" d="M0 12C0 5.37259 5.37259 0 12 0C18.6274 0 24 5.37259 24 12C24 18.6274 18.6274 24 12 24C5.37259 24 0 18.6274 0 12Z" fill="#EBEAEA"/>
<path d="M23.5 12C23.5 18.3513 18.3513 23.5 12 23.5C5.64873 23.5 0.5 18.3513 0.5 12C0.5 5.64873 5.64873 0.5 12 0.5C18.3513 0.5 23.5 5.64873 23.5 12Z" stroke="black" stroke-opacity="0.097"/>
<path d="M4.02016 11.4867C4.16885 8.86585 5.318 6.79938 7.4525 5.27978C7.75491 5.06305 8.08 4.88161 8.41517 4.7178C8.45297 4.70016 8.48825 4.68 8.53361 4.65732C7.96408 3.81057 7.69947 2.85295 7.47014 1.87012C7.71207 1.92808 7.92628 2.02384 8.11528 2.17001C8.84358 2.73198 9.53156 3.3368 10.1339 4.03486C10.1767 4.08526 10.217 4.0903 10.275 4.08022C11.4544 3.83326 12.6287 3.86098 13.7981 4.15078C13.8762 4.17095 13.9316 4.15078 13.9971 4.11298C14.738 3.66189 15.5016 3.2612 16.3307 2.99659C16.4265 2.96635 16.5248 2.94367 16.6256 2.94871C16.7793 2.95627 16.8499 3.03943 16.8347 3.19568C16.8247 3.30152 16.7818 3.39728 16.7365 3.49053C16.4945 3.9769 16.1518 4.38767 15.7889 4.78332C15.6881 4.89421 15.6856 4.89169 15.8116 4.96477C17.873 6.19961 19.1709 7.98886 19.6093 10.3527C20.3276 14.2059 18.1124 17.9583 14.4104 19.2284C13.7174 19.4653 13.0042 19.5988 12.2709 19.6366C12.2457 19.6392 12.2104 19.6215 12.1953 19.6593C12.1701 19.6593 12.1449 19.6593 12.1197 19.6593C11.9609 19.619 11.8022 19.619 11.6409 19.6593C11.5905 19.6593 11.5401 19.6593 11.4897 19.6593C11.467 19.6114 11.4241 19.6341 11.3914 19.6341C10.3884 19.5661 9.42068 19.3443 8.52101 18.8907C5.86486 17.55 4.36541 15.3954 4.04284 12.4242C4.03276 12.3209 4.0504 12.21 4 12.1117C4 12.0865 4 12.0613 4 12.0361C4.02772 12.0285 4.0252 12.0059 4.0252 11.9857C4.02268 11.8219 4.02268 11.653 4.02016 11.4867ZM12.1575 12.6611L12.1676 12.6535C12.1751 12.6409 12.1852 12.6283 12.1928 12.6157C12.4397 12.3158 12.6489 11.9907 12.8404 11.653C12.8606 11.6178 12.8656 11.5598 12.9286 11.5598C12.9286 11.5674 12.9286 11.5749 12.9311 11.585C12.7573 12.0386 12.4523 12.4141 12.165 12.8098C12.218 12.8249 12.2482 12.8123 12.281 12.8022C12.7144 12.6812 13.1227 12.5023 13.4856 12.2377C14.2693 11.6707 14.7456 10.9449 14.6372 9.93184C14.607 9.64203 14.5112 9.37238 14.3474 9.13045C14.1811 8.88097 13.9518 8.72724 13.6418 8.67936C13.7174 8.61384 13.8056 8.66424 13.8737 8.63148C13.8107 8.56596 13.7527 8.50547 13.6972 8.44499C13.536 8.22827 13.4452 7.98634 13.4452 7.71417C13.4452 7.26812 13.5007 6.8271 13.5864 6.38861C13.5158 6.37853 13.4805 6.45917 13.415 6.41885C13.6292 6.23741 13.8585 6.08368 14.103 5.95768C15.0631 5.46122 15.7889 4.71024 16.4038 3.8383C16.5323 3.65433 16.6483 3.46028 16.7113 3.24104C16.7465 3.11755 16.7239 3.08479 16.5979 3.07219C16.5021 3.07975 16.4088 3.09991 16.3156 3.13015C15.4991 3.40484 14.7406 3.79545 14.0097 4.24907C13.8031 4.37759 13.6443 4.55148 13.5208 4.76064C13.3646 5.02273 13.226 5.2949 13.095 5.56959C13.0395 5.68551 12.9815 5.80143 12.9236 5.91988C12.9009 5.96524 12.8807 5.97784 12.8505 5.92492C12.6237 5.36798 12.1146 4.80852 11.6711 4.78584C11.7417 4.86649 11.8248 4.93201 11.8677 5.05045C11.5955 4.95217 11.3334 4.94965 11.0688 4.99501C10.8042 5.04037 10.5724 5.15629 10.3329 5.3327C10.6454 5.3075 10.9327 5.14873 11.2074 5.39066C10.9756 5.41334 10.784 5.49146 10.6026 5.59731C10.3607 5.73843 10.1263 5.88964 9.88438 6.03076C9.50636 6.25001 9.01243 6.29537 8.76294 5.89972C8.70246 6.22481 8.86879 6.54738 9.16867 6.69102C9.40556 6.8019 9.65505 6.81198 9.90454 6.77166C10.3329 6.70362 10.6933 6.48437 11.0285 6.22481C11.2251 6.0736 11.4216 5.92492 11.6686 5.86696C11.8878 5.81655 12.1096 5.77623 12.3188 5.90728C11.9433 5.85436 11.598 5.93248 11.2855 6.14668C11.1318 6.25253 10.9831 6.36845 10.8344 6.48185C10.6706 6.56502 10.5043 6.64566 10.3405 6.72882C10.3153 6.76662 10.275 6.75906 10.2397 6.76158C10.0053 6.77418 9.87934 6.86743 9.80877 7.08919C9.73821 7.31852 9.66009 7.54785 9.72561 7.79229C9.67269 8.0695 9.66261 8.34671 9.67773 8.62644C9.69285 8.92381 9.70293 8.92885 9.98266 8.8104C10.0482 8.78268 10.0532 8.75748 10.0079 8.70456C9.9373 8.61888 9.8869 8.51807 9.88186 8.40971C9.86421 8.09722 9.8995 7.79229 10.0809 7.52265C10.0885 7.51256 10.0986 7.49996 10.1061 7.48988V7.49492C10.2548 7.41428 10.406 7.36892 10.5925 7.45712C10.1843 7.48232 10.0709 7.55541 10.0557 7.79229H10.0507H10.0532C10.2951 7.57809 10.4892 7.56801 10.8118 7.75953C10.8445 7.57809 10.8092 7.40924 10.7714 7.23788C10.8672 7.30088 10.8546 7.2278 10.8571 7.17235C10.9655 7.42436 10.9504 7.68645 10.9025 7.94602C10.8294 8.34167 10.6379 8.65416 10.2523 8.82048C10.1036 8.88349 9.95494 8.94145 9.78861 8.98933C9.83901 9.04981 9.88186 9.10021 9.9247 9.14809C9.93226 9.15061 9.93982 9.15061 9.94738 9.15313L9.94234 9.15565C10.0457 9.43034 10.0381 9.58155 9.91714 9.66723C9.9247 9.59919 9.9373 9.52358 9.9373 9.4505C9.9373 9.14053 9.70797 8.95909 9.40808 9.01453C9.21656 9.04981 9.04267 9.13045 8.87131 9.21362C8.84358 9.22874 8.81586 9.26654 8.77302 9.2363C8.83854 9.15313 8.91667 9.09265 9.00991 9.05233C9.10315 9.00949 9.19891 8.97421 9.3224 8.92381C8.94187 8.8482 8.59158 8.8482 8.24129 8.88853C7.86076 8.93137 7.52307 9.10021 7.19546 9.2867C7.19042 9.28166 7.18537 9.27662 7.18285 9.27158C7.24334 9.16573 7.35926 9.11785 7.44746 9.02965C7.32398 8.97421 7.20806 8.94145 7.08457 8.99437C6.86029 9.03721 6.7494 9.17833 6.7116 9.46814C6.699 9.56643 6.7242 9.61935 6.83256 9.59667C6.83256 9.60423 6.83256 9.61179 6.83004 9.61935C6.72168 9.72519 6.63852 9.84615 6.58056 9.99484C6.89305 9.95956 7.19546 9.89404 7.5029 9.952C7.49786 9.97468 7.4903 9.99988 7.48526 10.0226C7.19798 10.0049 6.91321 10.02 6.63096 10.0755C6.6234 10.0704 6.61584 10.0679 6.60828 10.0629C6.60072 10.0578 6.59316 10.0503 6.58812 10.0452C6.57804 10.0251 6.56292 10.0125 6.54276 10.0276C6.53268 10.0352 6.54024 10.0452 6.55284 10.0503C6.56544 10.1208 6.49991 10.1057 6.47219 10.1158C6.33611 10.1561 6.20507 10.2065 6.08914 10.2897C5.8699 10.4434 5.72625 10.6425 5.75649 10.9298C5.77161 11.1667 5.91526 11.3229 6.08914 11.4615C6.14458 11.5069 6.14458 11.4565 6.15718 11.4212C6.19751 11.3002 6.24035 11.1793 6.28319 11.0583C6.31595 11.0583 6.34871 11.0482 6.37895 11.0684C6.28067 11.3229 6.18238 11.5724 6.16978 11.8496C6.15718 12.1319 6.28067 12.2831 6.55536 12.3461C6.7242 12.3839 6.86785 12.336 7.00645 12.2503C7.05685 12.2201 7.07953 12.1797 7.08457 12.1193C7.10473 11.9378 7.12993 11.7539 7.16017 11.5749C7.17025 11.5195 7.16521 11.4414 7.25342 11.4338C7.25846 11.6052 7.19798 11.7715 7.19041 11.9403C7.17529 12.3335 7.11733 12.3587 7.51802 12.4897C7.54827 12.5502 7.53315 12.5804 7.4651 12.5603C7.4021 12.5426 7.34414 12.52 7.27862 12.4998C7.26602 12.6107 7.30634 12.709 7.2761 12.8072C7.24334 12.7921 7.25342 12.7619 7.24838 12.7392C7.23074 12.6611 7.21814 12.583 7.20302 12.5048C7.17277 12.3461 7.09465 12.3032 6.95605 12.3713C6.87289 12.4116 6.7872 12.4393 6.69144 12.4418C6.51756 12.4444 6.44951 12.5048 6.45203 12.6812C6.45707 12.9458 6.54276 13.1878 6.67128 13.4171C6.69396 13.4574 6.72924 13.4776 6.76956 13.4877C6.91069 13.5229 7.05433 13.5532 7.19546 13.5885C7.25846 13.6036 7.29878 13.5885 7.3139 13.5204C7.33406 13.4297 7.36178 13.344 7.3895 13.2407C7.43486 13.3516 7.48022 13.4473 7.5155 13.5431C7.54071 13.6111 7.58355 13.6414 7.65663 13.6414C7.81035 13.6439 7.9666 13.6489 8.12032 13.659C8.18836 13.6641 8.22869 13.6363 8.26145 13.5784C8.31185 13.4952 8.33957 13.402 8.37989 13.3037C8.45297 13.4221 8.44289 13.596 8.55882 13.6338C8.67222 13.6716 8.81334 13.6263 8.94439 13.6187C8.96203 13.6187 8.97715 13.6137 8.99479 13.6137C9.20648 13.6237 9.32996 13.5255 9.37028 13.3213C9.37028 13.3163 9.38036 13.3138 9.38792 13.3087C9.398 13.3339 9.40808 13.3566 9.41312 13.3818C9.461 13.5431 9.45848 13.5431 9.61977 13.5053C9.88186 13.4448 10.1364 13.3667 10.3834 13.2659C10.7866 13.1021 11.1772 12.9156 11.5098 12.6258C11.5149 12.6182 11.5174 12.6082 11.5224 12.6006C11.5123 12.6006 11.5023 12.6031 11.4922 12.6031C11.4393 12.6157 11.3863 12.6308 11.3334 12.6384C11.1772 12.6611 11.0209 12.7216 10.8622 12.6787C10.7639 12.651 10.6832 12.6233 10.6051 12.7165C10.5774 12.7493 10.5144 12.7644 10.4665 12.7669C10.2372 12.7871 10.0079 12.7745 9.78105 12.7216C9.71049 12.7039 9.67017 12.656 9.62985 12.6031C9.58197 12.6535 9.53156 12.6938 9.45848 12.6964C9.14851 12.709 8.83854 12.7039 8.54622 12.583C8.48321 12.5578 8.47565 12.5804 8.46809 12.6258C8.45549 12.6863 8.44541 12.7468 8.43533 12.8047C8.39753 12.7014 8.43533 12.593 8.37233 12.4948C8.12788 12.6838 7.86328 12.6359 7.59615 12.5905C7.52811 12.5779 7.54827 12.5351 7.55331 12.4948C7.70199 12.525 7.85319 12.5502 8.00692 12.5376C8.27405 12.5326 8.41769 12.3965 8.44037 12.1319C8.44541 12.0815 8.45297 12.0336 8.46053 11.9832C8.47061 11.9882 8.48321 11.9933 8.49329 11.9983C8.53362 12.0311 8.53614 12.0739 8.5311 12.1218C8.52353 12.1923 8.52353 12.2654 8.51345 12.3335C8.49581 12.4469 8.55126 12.5023 8.65206 12.5351C8.8083 12.5855 8.97211 12.5905 9.13339 12.6082C9.36272 12.6308 9.59709 12.656 9.68529 12.3461C9.70041 12.394 9.71553 12.4267 9.71049 12.4595C9.69789 12.5981 9.77853 12.6409 9.89446 12.656C10.0658 12.6787 10.2347 12.6964 10.4086 12.6838C10.5799 12.6712 10.6379 12.6082 10.648 12.4444C10.653 12.3662 10.6354 12.2856 10.6807 12.21C10.7034 12.2654 10.716 12.3183 10.721 12.3763C10.7437 12.5628 10.8017 12.6157 10.9882 12.5981C11.1167 12.5855 11.2452 12.5628 11.3712 12.5351C11.6837 12.4696 11.7114 12.4318 11.7064 12.1167C11.7064 12.0966 11.7064 12.0764 11.7064 12.0361C11.777 12.1445 11.7644 12.2553 11.787 12.3662C11.9786 12.1823 12.1146 11.9706 12.2608 11.7261C12.2658 11.8169 12.2684 11.8748 12.2709 11.9303C11.9282 12.5074 11.4191 12.8954 10.8269 13.1878C9.88942 13.6489 8.89399 13.8077 7.86075 13.7624C7.4273 13.7447 6.99385 13.6918 6.58308 13.5431C6.42935 13.4877 6.39407 13.4625 6.33863 13.3617C6.43187 13.3591 6.48479 13.47 6.59064 13.4599C6.50243 13.2785 6.43691 13.1021 6.38651 12.908C6.26303 12.9962 6.16222 13.0845 6.09418 13.2079C5.9581 13.3843 5.95558 13.5733 6.03874 13.7699C6.12946 13.9892 6.30839 14.1177 6.51251 14.2134C6.89053 14.3924 7.29626 14.4403 7.70955 14.473C8.49581 14.5385 9.25184 14.4327 9.98518 14.1429C10.5371 13.9236 11.0234 13.6011 11.5098 13.2684C11.7492 13.1046 11.9433 12.903 12.1172 12.6762C12.1247 12.6737 12.1272 12.6686 12.1272 12.6611C12.1524 12.6712 12.1575 12.6661 12.1575 12.6611ZM10.5169 5.50659C10.5824 5.48138 10.648 5.45618 10.7059 5.40074C10.6303 5.38814 10.5724 5.40326 10.5144 5.42594C10.4413 5.44358 10.3707 5.4587 10.3002 5.47886C10.2699 5.48894 10.2145 5.48138 10.217 5.53179C10.2195 5.56959 10.2422 5.61243 10.2674 5.64015C10.2977 5.67039 10.3254 5.63007 10.3531 5.61495C10.4086 5.57967 10.4615 5.54187 10.5169 5.50659ZM10.7437 8.10478C10.8748 7.85025 10.779 7.77969 10.5497 7.69905C10.4413 7.66125 10.3355 7.69149 10.2372 7.74693C9.92974 7.92334 9.85917 8.43491 10.1036 8.69196C10.1288 8.71968 10.1515 8.7474 10.1969 8.71968C10.2775 8.6718 10.3707 8.64408 10.4338 8.56848C10.5976 8.45507 10.6984 8.29631 10.7437 8.10478ZM8.83098 3.75765C8.82342 3.75261 8.81838 3.74757 8.81082 3.74253C8.81082 3.75261 8.81082 3.76269 8.81334 3.77277C8.87887 3.96682 8.93683 4.16339 9.00991 4.35239C9.10315 4.59684 9.23672 4.8186 9.4106 5.01265C9.54921 5.1689 9.68529 5.32766 9.82389 5.4839C9.85161 5.51415 9.86925 5.59227 9.93478 5.52675C9.98266 5.48138 10.0507 5.45618 10.0003 5.3579C9.82137 5.01769 9.64497 4.67748 9.42068 4.36247C9.25688 4.13314 9.07543 3.9139 8.83098 3.75765ZM11.4468 4.47083C11.1469 4.47335 10.8521 4.52124 10.5472 4.57668C10.6228 4.69764 10.6933 4.80348 10.7588 4.91437C10.774 4.93957 10.7891 4.94965 10.8193 4.93705C11.0512 4.84885 11.2956 4.83373 11.5653 4.84633C11.4796 4.7556 11.4115 4.68504 11.3309 4.59936C11.4191 4.60692 11.4846 4.61196 11.5476 4.617C12.2079 4.71024 12.5884 5.15629 12.8933 5.70315C13.0723 5.36042 13.2184 5.01517 13.4175 4.70016C13.4528 4.64724 13.4352 4.62456 13.3671 4.61448C13.0445 4.56156 12.722 4.51368 12.3944 4.48595C12.0794 4.45571 11.7644 4.46075 11.4468 4.47083ZM7.70199 2.30105C7.68687 2.34137 7.71459 2.37413 7.72215 2.40941C7.90108 3.15536 8.16568 3.86602 8.57646 4.5162C8.89903 5.02777 9.3224 5.4587 9.71553 5.91484C9.77097 5.98036 9.81633 5.94508 9.86169 5.90476C9.9499 5.88712 9.97762 5.85688 9.90706 5.77623C9.73317 5.57715 9.57189 5.36798 9.39296 5.17646C9.14599 4.91185 8.96707 4.60944 8.85114 4.26671C8.77806 4.04746 8.69994 3.83326 8.62434 3.61653C8.61174 3.51069 8.49833 3.46784 8.47061 3.37208C8.47565 3.36704 8.48069 3.362 8.48321 3.35948C8.71758 3.49809 8.93179 3.66441 9.13339 3.84838C9.51896 4.20371 9.76089 4.65984 10.0079 5.11345C10.0507 5.18906 10.0784 5.3201 10.1339 5.3327C10.212 5.35034 10.275 5.23694 10.3481 5.1815C10.4287 5.13613 10.5043 5.08573 10.5875 5.04541C10.653 5.01517 10.6631 4.98745 10.6228 4.92697C10.5119 4.77072 10.4136 4.6044 10.3002 4.45067C9.65253 3.57873 8.83602 2.88319 7.98172 2.22545C7.88596 2.15237 7.77759 2.09692 7.65411 2.05912C7.64907 2.14481 7.67679 2.22293 7.70199 2.30105ZM14.0853 11.8824C14.0778 11.8874 14.0702 11.8899 14.0652 11.895C13.5234 12.4418 12.8707 12.7846 12.1247 12.9534C12.0718 12.966 12.0264 12.9887 11.9886 13.034C11.8652 13.1727 11.7215 13.2861 11.5653 13.3869C11.4594 13.4549 11.3561 13.5305 11.2427 13.6086C11.278 13.6313 11.2981 13.6439 11.3183 13.6565C11.3385 13.6691 11.3611 13.6817 11.3813 13.6968C11.7518 13.9388 12.0164 14.2613 12.1449 14.6897C12.3919 15.5037 12.4347 16.3328 12.3188 17.172C12.2356 17.7718 12.1575 18.3741 12.1726 18.9814C12.1751 19.0898 12.2054 19.115 12.3062 19.1049C12.7699 19.0621 13.2336 19.0091 13.6846 18.8882C14.0828 18.7823 14.476 18.6664 14.8439 18.4799C14.9044 18.4522 14.9674 18.4295 15.0278 18.3993C16.4189 17.7264 17.4975 16.7209 18.2636 15.3802C18.3317 15.2618 18.3291 15.2618 18.1981 15.2593C17.9587 15.2542 17.7218 15.282 17.4849 15.3198C16.8322 15.4306 16.3055 15.2316 15.92 14.6847C15.7259 14.41 15.5898 14.1026 15.4739 13.7901C15.2723 13.2508 15.1287 12.6888 14.8918 12.1621C14.7632 11.8773 14.6398 11.5926 14.5062 11.2927C14.3802 11.5195 14.2365 11.706 14.0853 11.8824ZM4.5771 11.3053C4.53678 11.5422 4.55442 11.7791 4.55694 12.0159C4.54182 12.1218 4.56954 12.2226 4.57458 12.3259C4.5897 12.6989 4.65522 13.0668 4.73838 13.4247C4.83414 13.843 4.97023 14.2538 5.14159 14.6519C5.62545 15.7683 6.33611 16.7083 7.27862 17.4769C8.29673 18.306 9.46352 18.8025 10.7488 19.0243C11.1671 19.0973 11.593 19.1301 12.0189 19.1024C12.0516 19.0948 12.0491 19.0671 12.0491 19.0444C12.0491 18.8302 12.0466 18.6135 12.0466 18.3993C12.0567 18.2204 12.0441 18.0364 12.0768 17.86C12.1625 17.3938 12.2054 16.9225 12.2457 16.4513C12.2784 16.0607 12.2331 15.67 12.16 15.287C12.1197 15.0703 12.0416 14.8636 11.9786 14.6545C11.9004 14.3999 11.7492 14.2059 11.5653 14.027C11.467 13.9035 11.3309 13.8329 11.2024 13.7472C11.1444 13.7094 11.0965 13.7094 11.0335 13.7498C10.5396 14.0648 10.0154 14.3168 9.44336 14.4604C9.2216 14.5159 8.99731 14.5537 8.77302 14.599C8.6823 14.6015 8.59158 14.6015 8.50337 14.6041C8.26649 14.6041 8.03212 14.6041 7.79523 14.6041C7.65159 14.5965 7.50542 14.5965 7.36178 14.5738C6.96109 14.5058 6.56292 14.4302 6.22523 14.1782C6.02866 14.0295 5.91274 13.843 5.88754 13.5985C5.85226 13.2508 6.06898 13.029 6.30083 12.8274C6.35375 12.7795 6.36635 12.7468 6.37139 12.6888C6.37895 12.5956 6.37643 12.4973 6.46211 12.4292C6.37391 12.3536 6.25799 12.3234 6.18743 12.2276C6.07402 12.0714 6.07654 11.8975 6.09922 11.7211C6.1093 11.648 6.08914 11.5951 6.0337 11.5623C5.92282 11.4993 5.84217 11.4061 5.77665 11.3028C5.54229 10.9323 5.59269 10.6375 5.86234 10.3149C5.99086 10.1612 6.18238 10.0856 6.37139 10.0226C6.41171 10.01 6.45707 10.0049 6.47723 9.94948C6.50999 9.86631 6.55284 9.78567 6.59568 9.70503C6.60828 9.68235 6.63096 9.66471 6.61584 9.63951C6.55284 9.54122 6.60324 9.44546 6.61584 9.35222C6.68136 8.91625 7.10977 8.75748 7.40462 8.88097C7.54827 8.94145 7.64907 8.91877 7.77507 8.87341C8.23121 8.70456 8.70246 8.71968 9.17623 8.76504C9.26444 8.78772 9.35264 8.8104 9.44084 8.8356C9.58197 8.87845 9.58197 8.87845 9.55173 8.73228C9.57189 8.57352 9.53156 8.41475 9.54669 8.25347C9.58953 7.82505 9.63741 7.39916 9.74325 6.98335C9.75837 6.92539 9.75585 6.89515 9.68529 6.90271C9.63489 6.90775 9.58449 6.90523 9.53409 6.90019C9.06283 6.84979 8.70246 6.62298 8.6319 6.124C8.60418 5.92744 8.66466 5.67795 8.77302 5.58471C8.93179 6.0484 9.23672 6.20213 9.60969 6.00304C9.56181 5.94256 9.51896 5.87956 9.46604 5.82159C9.272 5.60235 9.07291 5.38814 8.88643 5.16134C8.84862 5.11597 8.8335 5.11345 8.79066 5.13613C8.64198 5.20922 8.48825 5.27726 8.34209 5.3579C7.53315 5.81151 6.82752 6.38861 6.23531 7.10431C5.58765 7.89562 5.11639 8.78268 4.83666 9.77307C4.69554 10.272 4.5897 10.7811 4.5771 11.3053ZM14.3247 8.71716C14.2617 8.74992 14.2038 8.7096 14.1584 8.76C14.2895 8.8482 14.3852 8.95909 14.4634 9.08257C14.8464 9.71007 14.8691 10.3653 14.6221 11.0432C14.5969 11.1138 14.5994 11.1642 14.6297 11.2297C14.9371 11.9 15.2345 12.5754 15.4487 13.2835C15.5949 13.7674 15.7637 14.2437 16.0712 14.657C16.3786 15.0703 16.7944 15.2618 17.3035 15.2013C17.6361 15.161 17.9688 15.1182 18.3039 15.1333C18.377 15.1358 18.4073 15.1081 18.4375 15.0501C18.566 14.788 18.6769 14.5209 18.7752 14.2462C18.9592 13.7447 19.0776 13.2256 19.1431 12.6964C19.2792 11.5926 19.1759 10.5115 18.8256 9.45554C18.6643 8.96665 18.4476 8.50295 18.188 8.06194C17.936 7.63605 17.6512 7.23032 17.3085 6.87247C17.054 6.60786 16.7995 6.34073 16.5046 6.1114C16.1392 5.82411 15.7662 5.55951 15.363 5.33018C15.3101 5.29994 15.2723 5.29994 15.2219 5.34278C15.0858 5.4587 14.9422 5.56707 14.7985 5.67543C14.4911 5.90728 14.1307 6.05596 13.8132 6.27017C13.7628 6.30545 13.7174 6.33821 13.7073 6.40121C13.6242 6.86743 13.546 7.33364 13.5763 7.80993C13.5889 8.01658 13.667 8.19803 13.7981 8.35679C13.9367 8.52059 14.1181 8.6214 14.3247 8.71716ZM9.90958 5.58471C9.95746 5.64519 10.0003 5.69559 10.0381 5.74851C10.0658 5.78379 10.091 5.77875 10.1238 5.75859C10.1515 5.74095 10.1591 5.72331 10.149 5.68803C10.1087 5.54187 10.0885 5.53179 9.90958 5.58471Z" fill="#070305"/>
<path d="M9.18379 8.7682C8.71001 8.72284 8.23876 8.70519 7.78262 8.87656C7.65662 8.92444 7.55582 8.9446 7.41217 8.88412C7.11732 8.76064 6.68639 8.91688 6.62339 9.35537C6.60827 9.45114 6.56039 9.5469 6.62339 9.64266C6.63851 9.66786 6.61331 9.6855 6.60323 9.70818C6.56039 9.78631 6.51755 9.86947 6.48479 9.95263C6.46462 10.0056 6.41926 10.0106 6.37894 10.0257C6.18994 10.0887 5.99841 10.1668 5.86989 10.318C5.60024 10.6406 5.54984 10.9355 5.7842 11.3059C5.84973 11.4092 5.93037 11.5025 6.04125 11.5655C6.09417 11.5957 6.11433 11.6512 6.10677 11.7242C6.08409 11.9007 6.08157 12.0745 6.19498 12.2308C6.26554 12.3265 6.38146 12.3568 6.46966 12.4324C6.38398 12.5004 6.3865 12.5987 6.37894 12.692C6.3739 12.7499 6.3613 12.7827 6.30838 12.8306C6.07653 13.0322 5.85981 13.2539 5.89509 13.6017C5.92029 13.8436 6.03621 14.0326 6.23278 14.1813C6.57047 14.4333 6.96612 14.5089 7.36933 14.577C7.51298 14.6022 7.65914 14.5997 7.80278 14.6072C8.03967 14.6425 8.27404 14.645 8.51093 14.6072C8.60165 14.6047 8.69237 14.6047 8.78057 14.6022C8.89398 14.6047 9.00486 14.6274 9.11574 14.6249C9.34255 14.6173 9.56936 14.6097 9.79616 14.582C10.1439 14.5392 10.4816 14.461 10.8143 14.3476C11.0764 14.2594 11.3208 14.136 11.5753 14.0276C11.7593 14.2065 11.9105 14.4006 11.9886 14.6551C12.0542 14.8643 12.1298 15.0709 12.1701 15.2876C12.2432 15.6732 12.2885 16.0613 12.2558 16.4519C12.2154 16.9232 12.1726 17.3944 12.0869 17.8606C12.0542 18.037 12.0642 18.2185 12.0567 18.3999C12.0214 18.4352 12.0365 18.478 12.0365 18.5184C12.034 18.7149 12.0315 18.909 12.0315 19.1055C11.6056 19.1307 11.1797 19.1005 10.7614 19.0274C9.47611 18.8057 8.30932 18.3067 7.29121 17.4801C6.3487 16.7115 5.63552 15.7715 5.15419 14.6551C4.98282 14.2569 4.84422 13.8461 4.75097 13.4278C4.67033 13.0674 4.60481 12.6995 4.58717 12.3291C4.58213 12.2257 4.55441 12.1249 4.56953 12.0191C4.58969 12.0065 4.59221 11.9863 4.59221 11.9662C4.59221 11.7469 4.58969 11.5277 4.58717 11.311C4.59977 10.7868 4.70561 10.2777 4.84926 9.77875C5.12898 8.79088 5.60024 7.90129 6.25546 7.10999C6.84768 6.39429 7.5533 5.81719 8.36224 5.36358C8.50841 5.28293 8.66213 5.21489 8.81081 5.14181C8.85366 5.12165 8.86878 5.12165 8.90658 5.16701C9.09306 5.3913 9.29467 5.6055 9.48619 5.82727C9.5366 5.88523 9.58196 5.94823 9.62984 6.00871C9.25939 6.2078 8.95446 6.05408 8.79317 5.59038C8.68229 5.68111 8.62181 5.93059 8.65205 6.12968C8.72261 6.62865 9.08298 6.85546 9.55424 6.90586C9.60464 6.9109 9.65504 6.91342 9.70544 6.90838C9.776 6.90334 9.77852 6.93358 9.7634 6.98902C9.65756 7.40736 9.60968 7.83325 9.56684 8.25914C9.5492 8.42043 9.58952 8.57919 9.57188 8.73796C9.43327 8.74804 9.30727 8.75812 9.18379 8.7682Z" fill="#F5E537"/>
<path d="M14.3247 8.71652C14.1156 8.62328 13.9366 8.51996 13.8006 8.35363C13.6695 8.19235 13.5939 8.01342 13.5788 7.80678C13.5485 7.33048 13.6267 6.86427 13.7098 6.39805C13.7199 6.33505 13.7653 6.30229 13.8157 6.26701C14.1332 6.05028 14.4936 5.90412 14.801 5.67227C14.9447 5.56391 15.0883 5.45555 15.2244 5.33962C15.2748 5.29678 15.3126 5.29426 15.3655 5.32702C15.7687 5.55635 16.1442 5.82348 16.5071 6.10825C16.7994 6.33757 17.054 6.6047 17.311 6.86931C17.6537 7.22464 17.9385 7.63289 18.1905 8.05878C18.4501 8.50232 18.6668 8.96601 18.8281 9.45239C19.1784 10.5083 19.2842 11.5894 19.1456 12.6932C19.0801 13.2224 18.9617 13.7416 18.7777 14.243C18.6769 14.5152 18.566 14.7849 18.44 15.047C18.4098 15.1049 18.3795 15.1352 18.3064 15.1301C17.9713 15.115 17.6386 15.1578 17.306 15.1982C16.7969 15.2586 16.3786 15.0671 16.0737 14.6538C15.7662 14.243 15.5974 13.7642 15.4512 13.2804C15.2345 12.5722 14.9396 11.8969 14.6322 11.2265C14.6019 11.161 14.5994 11.1106 14.6246 11.04C14.8716 10.3621 14.8489 9.70439 14.4659 9.07941C14.3877 8.95341 14.292 8.84505 14.1609 8.75684C14.2038 8.70896 14.2617 8.74928 14.3247 8.71652Z" fill="#F6DE38"/>
<path d="M14.0853 11.8827C14.239 11.7037 14.3802 11.5198 14.5062 11.293C14.6397 11.5954 14.7657 11.8801 14.8917 12.1624C15.1286 12.6891 15.2723 13.2511 15.4739 13.7904C15.5898 14.1054 15.7259 14.4103 15.9199 14.685C16.3055 15.2318 16.8322 15.4309 17.4849 15.32C17.7193 15.2797 17.9587 15.252 18.1981 15.2596C18.3316 15.2621 18.3316 15.2621 18.2636 15.3805C17.4975 16.7212 16.4164 17.7267 15.0278 18.3996C14.9673 18.4298 14.9043 18.4525 14.8439 18.4802C14.2113 18.1753 13.8131 17.6763 13.6342 17.0009C13.5082 16.5246 13.4654 16.0332 13.4351 15.5443C13.4074 15.1109 13.4528 14.6774 13.5158 14.249C13.6015 13.6719 13.7779 13.1125 13.9417 12.553C14.0047 12.3338 14.0778 12.1145 14.0853 11.8827ZM13.798 15.3251C14.045 15.184 14.2063 14.6799 14.0979 14.4431C14.0778 14.6018 14.0475 14.748 14.0072 14.8942C13.9669 15.0378 13.8963 15.1688 13.798 15.3251ZM14.0072 15.5544C14.171 15.3755 14.2416 15.1588 14.2441 14.9194C14.1609 15.1285 14.0929 15.3452 14.0072 15.5544Z" fill="#BAA18C"/>
<path d="M14.0853 11.8818C14.0778 12.1137 14.0072 12.3329 13.9417 12.5522C13.7779 13.1116 13.6015 13.6686 13.5158 14.2482C13.4528 14.6766 13.4074 15.1101 13.4351 15.5435C13.4654 16.0324 13.5082 16.5238 13.6342 17.0001C13.8132 17.6755 14.2113 18.1745 14.8439 18.4794C14.4734 18.6659 14.0803 18.7818 13.6846 18.8876C13.2335 19.0086 12.7698 19.0615 12.3061 19.1044C12.2053 19.1145 12.1751 19.0893 12.1726 18.9809C12.1575 18.371 12.2381 17.7713 12.3187 17.1715C12.4347 16.3323 12.3893 15.5032 12.1449 14.6892C12.0163 14.2608 11.7517 13.9382 11.3813 13.6963C11.3611 13.6837 11.3384 13.6686 11.3183 13.656C11.2981 13.6434 11.2754 13.6282 11.2427 13.6081C11.3536 13.53 11.4569 13.4544 11.5652 13.3863C11.7215 13.2855 11.8651 13.1696 11.9886 13.0335C12.0264 12.9907 12.0718 12.9655 12.1247 12.9529C12.8732 12.784 13.5233 12.4413 14.0652 11.8944C14.0677 11.8894 14.0778 11.8869 14.0853 11.8818Z" fill="#A3826C"/>
<path d="M12.858 5.92011C12.8858 5.97303 12.9084 5.96043 12.9311 5.91507C12.9866 5.79914 13.0445 5.68322 13.1025 5.56478C13.2335 5.29009 13.3721 5.01792 13.5284 4.75583C13.6519 4.54667 13.8106 4.37278 14.0173 4.24426C14.7456 3.79064 15.5066 3.40003 16.3231 3.12534C16.4139 3.0951 16.5096 3.07494 16.6054 3.06738C16.56 3.29419 16.4592 3.48572 16.2601 3.61928C16.2198 3.647 16.1568 3.66212 16.1493 3.72764C15.8015 3.85113 15.4587 3.98217 15.1211 4.13085C14.2214 4.52651 13.6115 5.19181 13.2587 6.10155C13.2386 6.14187 13.2108 6.1822 13.1982 6.22504C13.1176 6.48964 13.1529 6.74921 13.2159 7.01382C13.2839 6.96342 13.2411 6.88782 13.2789 6.81725C13.299 6.9861 13.3066 7.14234 13.3394 7.29103C13.3696 7.43215 13.357 7.5884 13.4528 7.7144C13.4528 7.98657 13.5435 8.2285 13.7048 8.44522C13.6342 8.43514 13.5637 8.43514 13.4931 8.42506C13.3343 8.40238 13.173 8.3671 13.0092 8.40238C12.8454 8.44018 12.8354 8.42506 12.7824 8.26126C12.7194 8.06721 12.6539 7.87065 12.4901 7.72952C12.4019 7.65392 12.3036 7.59848 12.1801 7.6388C12.0818 7.61612 11.981 7.64888 11.8828 7.6388C11.9004 7.53296 11.976 7.50019 12.0667 7.48255C12.1071 7.47499 12.1524 7.49515 12.1827 7.45231C12.2053 7.45231 12.2305 7.46743 12.2507 7.44223C12.039 7.28095 11.7341 7.35151 11.6005 7.59344C11.535 7.71692 11.5048 7.85049 11.472 7.98405C11.4695 7.99665 11.467 8.01177 11.4644 8.02437C11.4594 8.06973 11.4518 8.11509 11.4468 8.16045C11.3863 8.18566 11.3913 8.22094 11.4291 8.26378C11.4266 8.2789 11.4241 8.29654 11.4241 8.31166C11.3787 8.31922 11.3787 8.35198 11.3787 8.38726C11.3737 8.66699 11.4468 8.92152 11.6358 9.1332C11.6938 9.19621 11.719 9.24661 11.6786 9.32977C11.6333 9.42301 11.666 9.46081 11.7719 9.44065C11.8097 9.43309 11.855 9.43057 11.8802 9.39025C11.8802 9.37765 11.8828 9.36757 11.8828 9.35497V9.35749H11.8954L11.908 9.35497C11.9659 9.38017 12.0037 9.33481 12.0415 9.31213C12.1701 9.22897 12.2885 9.13068 12.4195 9.05004C12.5405 8.97444 12.6237 8.84087 12.7774 8.81567C12.7547 8.87868 12.7875 8.856 12.8152 8.83835C12.9387 8.75519 13.0672 8.68463 13.2159 8.66195C13.2285 8.69975 13.2915 8.68211 13.289 8.73251C13.1604 8.75267 13.0344 8.77787 12.9336 8.92908C13.11 8.8434 13.2638 8.80055 13.425 8.77535C13.483 8.80811 13.5586 8.82071 13.5662 8.9064C13.5082 8.87364 13.4528 8.8686 13.4074 8.92908C13.4755 8.91648 13.5359 8.9946 13.604 8.9442C13.6292 8.94168 13.6544 8.9442 13.6745 8.96436C13.856 9.12816 14.0223 9.30205 14.0979 9.54398C14.2516 10.0329 14.176 10.5066 13.9543 10.9527C13.6972 11.4668 13.2386 11.7894 12.7875 12.1145C12.8228 11.9632 12.9135 11.8372 12.9639 11.6911C12.9765 11.6533 13.0218 11.6029 12.9387 11.5852C12.9387 11.5777 12.9387 11.5701 12.9362 11.56L12.9336 11.5575C13.047 11.5197 13.0848 11.4214 13.037 11.2828C13.0798 11.1745 13.1352 11.0711 13.1604 10.9552C13.236 10.9426 13.3116 10.9325 13.3872 10.9199C13.3872 10.9124 13.3847 10.9073 13.3847 10.8998C13.3268 10.8998 13.2713 10.8998 13.2134 10.8998C13.2033 10.7536 13.2688 10.6226 13.2965 10.484C13.3646 10.1412 13.4124 9.7985 13.2864 9.45829C13.1781 9.16092 12.9563 9.0576 12.6589 9.16092C12.5783 9.18864 12.5027 9.22141 12.4347 9.27181C12.1323 9.50113 11.787 9.59186 11.414 9.59186C10.905 9.59438 10.474 9.36253 10.0406 9.13572C10.096 9.03492 10.2145 9.03744 10.2976 8.97696C10.4892 8.83583 10.7109 8.72243 10.8294 8.51074C11.0713 8.07981 11.0688 7.60604 11.0335 7.13226C11.0159 6.90042 10.9226 6.68873 10.8445 6.47452C10.9957 6.36364 11.1419 6.2452 11.2956 6.13935C11.6081 5.92515 11.9533 5.84703 12.3288 5.89995C12.3717 5.93775 12.4145 5.91759 12.4725 5.91255C12.3313 5.73866 12.16 5.63282 11.971 5.5547C12.1852 5.56982 12.3792 5.6303 12.5632 5.73866C12.6615 5.80166 12.7421 5.88735 12.858 5.92011ZM11.4443 6.75425C11.4165 6.78449 11.3737 6.81977 11.3863 6.85506C11.4039 6.90042 11.4594 6.87522 11.4997 6.87774C11.603 6.8853 11.7064 6.87522 11.8122 6.89286C12.2784 6.97854 12.601 7.27591 12.8933 7.61612C12.9689 7.70432 12.9941 7.67156 13.0344 7.60352C13.1277 7.45483 13.1252 7.28851 13.0974 7.12974C13.0798 7.02138 13.0798 6.89286 12.9563 6.82733C12.8429 6.62069 12.7043 6.43924 12.4548 6.3964C12.0541 6.33088 11.719 6.46192 11.4443 6.75425Z" fill="#BAA18C"/>
<path d="M10.0381 9.1406C10.4715 9.36741 10.9025 9.59925 11.4115 9.59673C11.7845 9.59421 12.1298 9.50349 12.4322 9.27668C12.4977 9.22628 12.5758 9.19352 12.6564 9.1658C12.9538 9.06248 13.1731 9.1658 13.2839 9.46317C13.4099 9.80338 13.3595 10.1461 13.294 10.4888C13.2663 10.6274 13.2033 10.7585 13.2109 10.9047C13.042 10.8568 12.8681 10.8971 12.6968 10.8769C12.7547 10.761 12.7573 10.635 12.7749 10.5115C12.8228 10.4082 12.9488 10.3679 12.979 10.252C12.9866 10.2444 12.9967 10.2343 13.0042 10.2268C13.0067 10.2217 13.0118 10.2192 13.0143 10.2142C13.0118 10.2167 13.0067 10.2217 13.0042 10.2242C12.9967 10.2318 12.9866 10.2419 12.979 10.2494C12.9362 10.2469 12.9135 10.2872 12.8782 10.2998C12.8959 10.068 12.9437 9.83866 13.0017 9.61437C13.0168 9.56145 13.0471 9.52617 13.105 9.52113C13.1353 9.51609 13.1731 9.55641 13.1932 9.51105C13.2109 9.47073 13.1731 9.45057 13.1504 9.43041C12.8102 9.13808 12.4926 9.2792 12.2936 9.59169C12.2684 9.63201 12.2205 9.68998 12.2759 9.75046C12.2608 9.95962 12.2986 10.1688 12.2558 10.3754C12.165 10.4183 12.1424 10.5367 12.0491 10.577C11.9231 10.4888 11.8122 10.378 11.6913 10.2822C11.6887 10.3452 11.7265 10.3855 11.7593 10.4233C11.8248 10.4989 11.9105 10.5544 11.9483 10.6526C11.8777 10.766 11.7341 10.7862 11.6459 10.8795C11.4796 10.8895 11.3132 10.9173 11.1444 10.9122C11.225 10.9551 11.3183 10.8996 11.3939 10.9576C11.3687 10.9727 11.346 10.9929 11.3208 11.0029C10.9705 11.1113 10.6127 11.1567 10.2523 11.0634C9.8264 10.9551 9.40303 10.8265 8.97714 10.7182C8.69489 10.6451 8.41768 10.5594 8.12787 10.5292C8.16063 10.4914 8.19591 10.4561 8.22615 10.4183C8.3068 10.3099 8.4202 10.2293 8.48068 10.1033C8.48824 10.0957 8.49832 10.0856 8.50588 10.0781C8.51344 10.0705 8.52352 10.0604 8.53108 10.0529C8.53864 10.0453 8.54872 10.0352 8.55628 10.0277C8.5588 10.0251 8.56384 10.0201 8.56636 10.0176C8.56384 10.0201 8.5588 10.0251 8.55628 10.0277C8.54872 10.0352 8.53864 10.0453 8.53108 10.0529C8.52352 10.0604 8.51344 10.0705 8.50588 10.0781C8.49832 10.0856 8.48824 10.0957 8.48068 10.1033C8.46304 10.1033 8.4454 10.1033 8.43028 10.1033C8.36476 10.0251 8.26396 10.0125 8.17827 9.97978C7.98171 9.9067 7.79522 9.80086 7.58102 9.7807C7.58102 9.67233 7.58102 9.56397 7.58102 9.45561C7.53313 9.54381 7.52557 9.63705 7.52305 9.7303C7.38949 9.70762 7.25341 9.6925 7.12236 9.66225C7.03164 9.63957 6.93084 9.68746 6.84515 9.62445C6.84767 9.61689 6.84767 9.60933 6.84767 9.60177L6.84515 9.60429C6.85271 9.59673 6.86027 9.58917 6.86783 9.58161C6.86783 9.49845 6.99636 9.47325 6.97872 9.40017C6.94092 9.23636 7.0266 9.12296 7.09968 8.99695C7.22317 8.94403 7.33909 8.97679 7.46257 9.03224C7.37437 9.12044 7.25845 9.16832 7.19796 9.27416C7.18536 9.27668 7.17528 9.28172 7.18284 9.29684C7.18536 9.29936 7.20048 9.2918 7.21056 9.28928C7.53817 9.1028 7.87586 8.93395 8.2564 8.89111C8.60669 8.85079 8.95698 8.85079 9.33751 8.92639C9.2115 8.97679 9.11574 9.0146 9.02502 9.05492C8.9343 9.09776 8.85365 9.15824 8.78813 9.23888C8.83097 9.26912 8.85869 9.2288 8.88641 9.2162C9.05778 9.13052 9.23166 9.0524 9.42319 9.01712C9.7256 8.96167 9.95241 9.14312 9.95241 9.45309C9.95241 9.52617 9.93981 9.59925 9.93225 9.66981C10.0507 9.58413 10.0608 9.43041 9.95745 9.15824C9.98265 9.14816 10.0104 9.14564 10.0381 9.1406ZM11.5955 10.2016C11.5955 10.2041 11.598 10.2091 11.598 10.2116C11.598 10.2142 11.6031 10.2142 11.6056 10.2142C11.6031 10.2091 11.6005 10.2041 11.5955 10.2016C11.5879 10.194 11.5779 10.1839 11.5703 10.1763C11.5627 10.1688 11.5527 10.1587 11.5451 10.1511C11.5426 10.1486 11.5375 10.1461 11.535 10.1461C11.5375 10.1486 11.5426 10.1486 11.5451 10.1511C11.5527 10.1587 11.5627 10.1688 11.5703 10.1763C11.5804 10.1839 11.5879 10.1915 11.5955 10.2016ZM9.29719 9.89914C9.37027 9.89914 9.43075 9.9067 9.48619 9.89662C9.58952 9.8815 9.70544 9.88654 9.7634 9.76558C9.839 9.60681 9.8516 9.45309 9.74072 9.30944C9.63236 9.17084 9.48115 9.1532 9.32239 9.1784C9.10062 9.2162 8.94438 9.35985 8.79569 9.51609C8.66969 9.65217 8.67473 9.71266 8.84105 9.80338C8.98722 9.88402 9.14598 9.91174 9.29719 9.89914Z" fill="#F0E1CA"/>
<path d="M8.42524 10.0983C8.44288 10.0983 8.46052 10.0983 8.47564 10.0983L8.47816 10.1008C8.41768 10.2268 8.30428 10.3074 8.22363 10.4158C8.19339 10.4561 8.15811 10.4914 8.12535 10.5267C8.07999 10.5947 7.99935 10.6376 7.97163 10.7207C7.92122 10.7358 7.89602 10.7787 7.87082 10.8215C7.83302 10.8492 7.80026 10.8795 7.7801 10.94C8.02707 10.9526 8.26899 10.9652 8.5084 10.9753C8.57896 10.9803 8.64701 10.9853 8.71757 10.9879C8.79065 10.9904 8.86625 11.0383 8.93681 10.9803C8.98722 10.9954 9.0351 11.008 9.0855 11.0231C8.90153 11.0383 8.71505 11.0509 8.53108 11.066C8.42272 11.071 8.31184 11.0786 8.20347 11.0836C8.06235 11.0735 7.92626 11.0987 7.75994 11.1113C7.9439 11.3129 8.11275 11.4969 8.27907 11.6809C8.33956 11.7565 8.40004 11.8296 8.46052 11.9052C8.45296 11.9127 8.4454 11.9228 8.43784 11.9304C8.37736 11.8825 8.31436 11.8346 8.25387 11.7867C8.05983 11.6103 7.8683 11.4339 7.65914 11.2424C7.59109 11.6784 7.60369 12.0891 7.57345 12.4999C7.56841 12.5402 7.54825 12.5831 7.61629 12.5957C7.88342 12.641 8.14803 12.6864 8.39248 12.4999C8.45296 12.5982 8.41516 12.7065 8.45548 12.8099C8.46556 12.7494 8.47564 12.6889 8.48824 12.6309C8.49832 12.5856 8.50336 12.5629 8.56636 12.5881C8.85869 12.7091 9.16866 12.7141 9.47863 12.7015C9.55171 12.699 9.60211 12.6561 9.65 12.6083C9.69032 12.6612 9.73064 12.7091 9.8012 12.7267C10.028 12.7796 10.2573 12.7922 10.4867 12.7721C10.5345 12.767 10.5975 12.7544 10.6253 12.7217C10.7059 12.6284 10.784 12.6561 10.8823 12.6839C11.0411 12.7267 11.1973 12.6662 11.3536 12.6435C11.4065 12.636 11.4594 12.6209 11.5123 12.6083C11.5199 12.6158 11.5249 12.6234 11.5325 12.6309C11.1998 12.9207 10.8092 13.1098 10.406 13.271C10.1591 13.3718 9.902 13.45 9.64243 13.5104C9.48115 13.5482 9.48367 13.5482 9.43579 13.387C9.42823 13.3643 9.41815 13.3391 9.41059 13.3139C9.40051 13.3189 9.39295 13.324 9.39295 13.3265C9.35263 13.5331 9.22662 13.6314 9.01746 13.6188C8.99982 13.6188 8.9847 13.6213 8.96706 13.6238C8.83853 13.6339 8.69489 13.6793 8.58148 13.639C8.46556 13.5986 8.47564 13.4273 8.40256 13.3088C8.36224 13.4096 8.33452 13.5004 8.28411 13.5835C8.25135 13.639 8.21103 13.6667 8.14299 13.6642C7.98927 13.6566 7.83302 13.649 7.6793 13.6465C7.60621 13.6465 7.56337 13.6163 7.53817 13.5482C7.50037 13.45 7.45753 13.3567 7.41217 13.2458C7.38445 13.3466 7.35673 13.4348 7.33657 13.5256C7.32145 13.5961 7.28112 13.6112 7.21812 13.5936C7.077 13.5583 6.93335 13.5281 6.79223 13.4928C6.75191 13.4827 6.71663 13.4626 6.69395 13.4222C6.56542 13.1929 6.47974 12.951 6.4747 12.6864C6.47218 12.51 6.5377 12.447 6.71411 12.447C6.80987 12.447 6.89555 12.4167 6.97872 12.3764C7.11732 12.3109 7.19544 12.3537 7.22568 12.51C7.2408 12.5881 7.2534 12.6662 7.27104 12.7443C7.27608 12.7645 7.266 12.7947 7.29876 12.8124C7.32901 12.7141 7.28868 12.6158 7.30129 12.5049C7.36681 12.5251 7.42729 12.5478 7.48777 12.5654C7.55833 12.5856 7.57345 12.5553 7.54321 12.4949C7.55077 12.4016 7.55833 12.3159 7.43233 12.2907C7.38697 12.2832 7.36933 12.2302 7.35421 12.1849C7.32649 12.0942 7.33405 12.0034 7.34161 11.9127C7.36177 11.6985 7.41973 11.4893 7.46761 11.2449C7.38949 11.3255 7.30129 11.3457 7.2786 11.4364C7.18788 11.444 7.19292 11.5221 7.18536 11.5775C7.15512 11.759 7.12992 11.9404 7.10976 12.1219C7.1022 12.1824 7.08204 12.2227 7.03164 12.2529C6.89303 12.3386 6.74687 12.3865 6.58054 12.3487C6.30586 12.2857 6.18237 12.132 6.19497 11.8522C6.20505 11.5775 6.30586 11.3255 6.40414 11.071C6.3739 11.0509 6.34114 11.0635 6.30838 11.0609C6.20001 11.0483 6.08913 11.0357 5.97321 11.0231C6.04377 10.9879 6.12189 11.0408 6.17985 10.9828C6.25545 11.0055 6.30586 10.9374 6.36886 10.9223C6.38902 10.9501 6.33358 10.9753 6.36634 10.9879C6.40414 11.003 6.45202 10.9979 6.47974 10.9576C6.54526 10.8694 6.64355 10.8518 6.74183 10.8266C6.88799 10.7888 7.03668 10.7862 7.19544 10.7661C7.17528 10.7384 7.1652 10.7207 7.1526 10.7081C7.13244 10.688 7.10976 10.6703 7.08708 10.6527C7.04172 10.5569 6.96107 10.4939 6.88547 10.4284C6.86531 10.3452 6.78719 10.3074 6.73679 10.2469C6.69143 10.194 6.63095 10.1512 6.63347 10.068C6.64103 10.0731 6.64859 10.0756 6.65615 10.0806C6.78971 10.1965 6.92327 10.3125 7.05684 10.4309C7.12992 10.5216 7.22568 10.5872 7.31389 10.6577C7.35673 10.7157 7.40461 10.7636 7.48525 10.7888C7.48525 10.7384 7.48525 10.698 7.48525 10.6577C7.49281 10.5821 7.49785 10.509 7.50541 10.4334C7.50793 10.2973 7.51045 10.1638 7.51297 10.0277C7.51801 10.005 7.52557 9.97982 7.53061 9.95714C7.53061 9.88154 7.53313 9.80342 7.53313 9.72781C7.53565 9.63457 7.54321 9.54133 7.59109 9.45312C7.59109 9.56149 7.59109 9.66985 7.59109 9.77821C7.59109 9.83618 7.59109 9.89666 7.59109 9.95462C7.59109 9.98234 7.57597 10.0151 7.61377 10.0327C7.60621 10.1739 7.62637 10.315 7.63898 10.4536C7.6415 10.5292 7.6415 10.6048 7.64402 10.6829C7.64654 10.7182 7.62637 10.7661 7.66418 10.7837C7.7045 10.8014 7.72718 10.751 7.7549 10.7308C7.77002 10.7182 7.7801 10.698 7.79018 10.6829C7.8683 10.635 7.93886 10.5796 7.99431 10.5065C8.11779 10.3956 8.26395 10.31 8.34964 10.1613C8.36224 10.1386 8.39248 10.1184 8.42524 10.0983Z" fill="#FCFBFB"/>
<path d="M12.9816 10.2524C12.9513 10.3683 12.8228 10.4086 12.7775 10.5119C12.6691 10.6102 12.5885 10.7312 12.4927 10.8471C12.5683 10.8572 12.6338 10.8673 12.6993 10.8774C12.8707 10.8975 13.0421 10.8572 13.2134 10.9051C13.2714 10.9051 13.3268 10.9051 13.3848 10.9051C13.3848 10.9126 13.3873 10.9177 13.3873 10.9252C13.3117 10.9378 13.2361 10.9479 13.1605 10.9605C13.0017 10.9555 12.843 10.963 12.6842 10.9832C12.6187 10.9731 12.5582 10.9832 12.4776 11.0034C12.5456 11.0563 12.5506 11.152 12.6489 11.1445C12.7019 11.3007 12.8405 11.3915 12.9362 11.5124C12.9337 11.52 12.9312 11.5301 12.9287 11.5376C12.8707 11.5301 12.8329 11.4948 12.7901 11.457C12.7245 11.399 12.6767 11.3209 12.5935 11.2856C12.5658 11.2453 12.533 11.2125 12.4927 11.1924C12.4448 11.4192 12.2986 11.6157 12.3364 11.8551C12.3339 11.9307 12.3289 12.0089 12.3264 12.0845C12.3213 12.0845 12.3188 12.0845 12.3138 12.0845C12.3062 12.0366 12.2986 11.9887 12.2911 11.9408C12.2886 11.8829 12.286 11.8274 12.281 11.7367C12.1348 11.9811 11.9988 12.1903 11.8072 12.3768C11.7845 12.2634 11.7971 12.155 11.7266 12.0467C11.7266 12.087 11.7266 12.1072 11.7266 12.1273C11.7316 12.4423 11.7039 12.4801 11.3914 12.5456C11.2654 12.5734 11.1369 12.596 11.0084 12.6086C10.8219 12.6263 10.7639 12.5759 10.7412 12.3869C10.7337 12.3314 10.7211 12.276 10.7009 12.2206C10.6556 12.2962 10.6732 12.3768 10.6682 12.4549C10.6581 12.6212 10.6001 12.6842 10.4287 12.6943C10.2574 12.7069 10.086 12.6893 9.91465 12.6666C9.79873 12.6515 9.71556 12.6061 9.73068 12.47C9.7332 12.4373 9.7206 12.4045 9.70548 12.3566C9.61728 12.6666 9.38291 12.6389 9.15359 12.6187C8.9923 12.6036 8.8285 12.596 8.67225 12.5456C8.57145 12.5129 8.51601 12.4574 8.53365 12.344C8.54373 12.2735 8.54373 12.2029 8.55129 12.1324C8.55633 12.0845 8.55381 12.0416 8.51349 12.0089C8.52105 12.0038 8.52609 11.9963 8.53365 11.9912C8.58405 11.9005 8.56893 11.7997 8.58153 11.7039C8.60673 11.5023 8.63697 11.3058 8.7781 11.147C8.8285 11.089 8.8789 11.0689 8.9545 11.0941C9.11327 11.1445 9.27707 11.1848 9.43584 11.2302C9.71556 11.3083 9.71556 11.3083 9.74581 11.6031C9.77101 11.5502 9.79117 11.5124 9.80629 11.4696C9.84157 11.3738 9.89449 11.3385 10.0054 11.3637C10.1591 11.399 10.3204 11.4318 10.4766 11.4267C10.6732 11.4192 10.7916 11.4771 10.8168 11.6813C10.8168 11.6863 10.8269 11.6888 10.837 11.6989C10.8748 11.5023 10.9832 11.3889 11.1923 11.3914C11.2453 11.3914 11.2982 11.3713 11.3511 11.3562C11.5552 11.3007 11.5552 11.2982 11.6963 11.4771C11.6585 11.2906 11.7316 11.1873 11.8853 11.1268C11.9509 11.1016 12.0139 11.0588 12.0668 11.0008C12.0542 10.9958 12.0466 10.9908 12.0391 10.9908C11.9836 10.9908 11.9307 10.9933 11.8753 10.9933C11.7165 10.9429 11.5527 10.9731 11.3939 10.9681C11.3183 10.9101 11.2251 10.9656 11.1444 10.9227C11.3133 10.9278 11.4796 10.9026 11.6459 10.89C11.782 10.8874 11.9206 10.8824 12.0567 10.8824C12.0819 10.8824 12.0945 10.8723 12.1071 10.8547C12.1222 10.832 12.1122 10.8144 12.0945 10.8018C12.0441 10.7564 12.0088 10.6984 11.9484 10.6657C11.9105 10.5674 11.8223 10.5119 11.7593 10.4363C11.7266 10.3985 11.6888 10.3582 11.6913 10.2952C11.8148 10.391 11.9232 10.5019 12.0492 10.5901C12.0693 10.6153 12.0895 10.6405 12.1147 10.6657C12.1424 10.6959 12.1726 10.7312 12.2205 10.7135C12.2659 10.6959 12.2482 10.6505 12.2508 10.6153C12.2558 10.5397 12.2558 10.4666 12.2558 10.391C12.3012 10.1843 12.2634 9.97265 12.276 9.766C12.2835 9.75592 12.2911 9.74836 12.2986 9.73828C12.3415 9.78364 12.3163 9.83908 12.3238 9.88949C12.3364 9.99029 12.3012 10.0936 12.349 10.1894C12.349 10.2146 12.3516 10.2398 12.3516 10.265C12.3516 10.2902 12.3516 10.3154 12.3541 10.3406C12.3566 10.4086 12.3566 10.4792 12.3591 10.5472C12.3642 10.5976 12.3667 10.6505 12.3717 10.7009C12.3591 10.769 12.3793 10.7816 12.4297 10.7337C12.5128 10.6556 12.596 10.5775 12.6817 10.5019C12.722 10.4666 12.7649 10.4288 12.8052 10.3935C12.8379 10.3759 12.8631 10.3507 12.8808 10.3179C12.9135 10.2902 12.9362 10.2473 12.9816 10.2524C12.9816 10.2524 12.9791 10.2499 12.9816 10.2524Z" fill="#FCFBFB"/>
<path d="M12.8581 5.91935C12.7447 5.88659 12.6615 5.79838 12.5607 5.74042C12.3767 5.63206 12.1827 5.57158 11.9685 5.55646C12.16 5.63458 12.3288 5.74042 12.47 5.91431C12.412 5.91935 12.3692 5.93951 12.3263 5.90171C12.1172 5.77066 11.8954 5.81098 11.6761 5.86139C11.4292 5.91683 11.2326 6.06551 11.036 6.21924C10.6984 6.4788 10.338 6.69805 9.91209 6.76609C9.6626 6.80641 9.41312 6.79633 9.17623 6.68545C8.87382 6.54181 8.70749 6.21924 8.7705 5.89415C9.01998 6.2898 9.5114 6.24444 9.89193 6.02519C10.1339 5.88407 10.3707 5.73286 10.6102 5.59174C10.7916 5.48589 10.9831 5.40777 11.215 5.38509C10.9403 5.14316 10.653 5.30193 10.3405 5.32713C10.5799 5.15072 10.8118 5.0348 11.0764 4.98944C11.341 4.94156 11.6031 4.94408 11.8752 5.04488C11.8324 4.92644 11.7467 4.86344 11.6787 4.78027C12.1222 4.80295 12.6287 5.36493 12.8581 5.91935Z" fill="#5E5959"/>
<path d="M12.7775 12.1111C13.2311 11.7885 13.6897 11.466 13.9443 10.9494C14.166 10.5033 14.2416 10.032 14.0879 9.54063C14.0123 9.29871 13.846 9.12482 13.6645 8.96102C13.6444 8.94338 13.6192 8.94086 13.594 8.94086C13.5814 8.92826 13.5688 8.91566 13.5562 8.90558C13.5511 8.81737 13.473 8.80477 13.415 8.77453C13.3898 8.69893 13.3218 8.75689 13.279 8.73169C13.279 8.68129 13.2159 8.69893 13.2059 8.66113C13.2109 8.63593 13.2563 8.65357 13.2487 8.61577C13.0547 8.60569 12.8883 8.65609 12.7674 8.81737C12.6137 8.84257 12.5305 8.97614 12.4095 9.05174C12.281 9.13238 12.16 9.23067 12.0315 9.31383C11.9937 9.33903 11.9534 9.38187 11.8979 9.35667C12.16 8.87785 12.5658 8.59561 13.1 8.49732C12.9539 8.47968 12.8127 8.48472 12.6792 8.54016C12.6817 8.14451 12.5758 7.80934 12.1726 7.6405C12.2961 7.60018 12.3944 7.65562 12.4826 7.73122C12.6464 7.86982 12.7119 8.06891 12.7749 8.26296C12.8279 8.42676 12.8379 8.43936 13.0017 8.40408C13.1655 8.36628 13.3268 8.40156 13.4856 8.42676C13.5562 8.43684 13.6267 8.43684 13.6973 8.44692C13.7552 8.5074 13.8132 8.56789 13.8737 8.63341C13.8056 8.66617 13.7174 8.61577 13.6418 8.68129C13.9518 8.72665 14.1786 8.8829 14.3475 9.13238C14.5113 9.37683 14.607 9.64396 14.6373 9.93377C14.7456 10.9468 14.2693 11.6751 13.4856 12.2396C13.1202 12.5017 12.7145 12.6832 12.281 12.8041C12.2482 12.8142 12.218 12.8243 12.1651 12.8117C12.4524 12.4186 12.7548 12.0431 12.9312 11.5869C13.0118 11.6046 12.969 11.655 12.9564 11.6928C12.906 11.8339 12.8153 11.9624 12.7775 12.1111C12.7749 12.1162 12.7749 12.1187 12.7724 12.1212C12.7749 12.1187 12.7775 12.1162 12.7775 12.1111Z" fill="#A2816C"/>
<path d="M12.286 11.9374C12.2935 11.9853 12.3011 12.0332 12.3087 12.0811C12.3137 12.0811 12.3162 12.0811 12.3213 12.0811C12.3238 12.0055 12.3288 11.9274 12.3313 11.8518C12.4473 11.6754 12.5204 11.4788 12.5909 11.2822C12.6741 11.3175 12.722 11.3956 12.7875 11.4536C12.8278 11.4914 12.8681 11.5267 12.9261 11.5342C12.9286 11.5418 12.9286 11.5519 12.9311 11.5594L12.9336 11.562C12.8732 11.562 12.8656 11.6174 12.8454 11.6552C12.6539 11.9929 12.4447 12.318 12.1978 12.6179C12.1776 12.6204 12.16 12.6279 12.1726 12.6557L12.1625 12.6632C12.1549 12.6632 12.1499 12.6657 12.1423 12.6657C12.1449 12.6683 12.1474 12.6733 12.1499 12.6758C12.1499 12.6834 12.1474 12.6884 12.1398 12.6909C12.0466 12.6607 12.0088 12.7464 11.9533 12.7867C11.215 13.331 10.4362 13.7847 9.52146 13.9762C8.76796 14.1324 8.01698 14.2736 7.24583 14.1551C6.90058 14.1022 6.58809 13.9737 6.33861 13.7141C6.20252 13.5755 6.15212 13.4016 6.11432 13.2227C6.18236 13.0992 6.28316 13.0085 6.40665 12.9228C6.45705 13.1168 6.52005 13.2958 6.61077 13.4747C6.50241 13.4848 6.45201 13.3739 6.35877 13.3764C6.41673 13.4747 6.45201 13.4999 6.60321 13.5579C7.01651 13.7091 7.44744 13.7595 7.88089 13.7771C8.91412 13.8199 9.90955 13.6637 10.847 13.2025C11.4342 12.9026 11.9433 12.5145 12.286 11.9374Z" fill="#F0E1CA"/>
<path d="M6.11179 13.2178C6.14959 13.3992 6.19999 13.5706 6.33608 13.7092C6.58556 13.9662 6.89805 14.0947 7.2433 14.1502C8.01445 14.2686 8.76795 14.1275 9.51893 13.9713C10.4337 13.7823 11.2124 13.3261 11.9508 12.7818C12.0037 12.7415 12.044 12.6558 12.1373 12.686C11.9634 12.9128 11.7668 13.1144 11.5299 13.2782C11.0436 13.6109 10.5572 13.9335 10.0053 14.1527C9.27196 14.4425 8.51594 14.5484 7.72968 14.4828C7.31638 14.4476 6.91065 14.3997 6.53264 14.2233C6.32851 14.1275 6.14959 13.999 6.05887 13.7797C5.97318 13.5832 5.9757 13.3942 6.11179 13.2178Z" fill="#EBC6A0"/>
<path d="M16.1468 3.72764C16.1518 3.66212 16.2148 3.647 16.2577 3.61928C16.4567 3.48572 16.5575 3.29671 16.6029 3.06738C16.7289 3.07998 16.7516 3.11274 16.7163 3.23623C16.6533 3.45547 16.5374 3.64952 16.4089 3.83349C15.794 4.70543 15.0682 5.45641 14.108 5.95287C13.8636 6.07887 13.6343 6.2326 13.42 6.41404C13.4856 6.45436 13.5208 6.37372 13.5914 6.3838C13.5057 6.82229 13.4503 7.26331 13.4503 7.70936C13.3545 7.58336 13.3671 7.42963 13.3369 7.28599C13.3066 7.1373 13.2966 6.98106 13.2764 6.81221C13.2386 6.88278 13.2814 6.9609 13.2134 7.00878C13.1504 6.74417 13.1176 6.48208 13.1958 6.22C13.2084 6.17716 13.2361 6.13935 13.2562 6.09651C13.4226 6.04359 13.5612 5.94027 13.7073 5.85459C14.5238 5.38333 15.2597 4.81631 15.8166 4.04517C15.8796 3.95697 15.9502 3.88641 16.0485 3.84357C16.0938 3.82593 16.1644 3.80828 16.1468 3.72764Z" fill="#A2816C"/>
<path d="M10.3456 5.17439C10.2725 5.22983 10.2095 5.34072 10.1314 5.3256C10.0759 5.313 10.0457 5.18447 10.0054 5.10635C9.75839 4.65274 9.51647 4.1966 9.1309 3.84127C8.92929 3.65731 8.71508 3.49098 8.48072 3.35238C8.47316 3.34734 8.4656 3.34482 8.45803 3.33978C8.46056 3.34734 8.4656 3.35742 8.46812 3.36498C8.49836 3.46074 8.60924 3.50358 8.62184 3.60942C8.58656 3.64975 8.59664 3.70015 8.60672 3.74047C8.65964 3.99248 8.72012 4.24448 8.83605 4.47633C9.01749 4.84174 9.28462 5.14415 9.53663 5.46168C9.65003 5.6028 9.79368 5.72125 9.86172 5.89765C9.81636 5.94049 9.77351 5.97326 9.71555 5.90773C9.32242 5.45412 8.89905 5.02319 8.57648 4.50909C8.16571 3.85891 7.9011 3.14573 7.72217 2.40231C7.71461 2.36703 7.68689 2.33427 7.70201 2.29395C7.74233 2.29647 7.75493 2.33427 7.77257 2.35947C7.96914 2.64424 8.20603 2.88364 8.48072 3.09533C8.70752 3.27173 8.93685 3.44562 9.14854 3.63967C9.51395 3.97484 9.81132 4.36545 10.0658 4.78882C10.1465 4.92994 10.2196 5.07359 10.3456 5.17439Z" fill="#A2816C"/>
<path d="M10.3455 5.17454C10.217 5.07374 10.1464 4.92757 10.0658 4.79401C9.81127 4.36812 9.51138 3.98002 9.14849 3.64485C8.93681 3.45081 8.70748 3.27692 8.48067 3.10052C8.2085 2.88883 7.9691 2.64943 7.77253 2.36466C7.75489 2.33946 7.74481 2.30165 7.70197 2.29913C7.67425 2.22101 7.64905 2.14289 7.64905 2.05469C7.77253 2.09249 7.88089 2.14541 7.97666 2.22101C8.83096 2.87623 9.64747 3.57429 10.2951 4.44624C10.4085 4.59996 10.5093 4.76629 10.6177 4.92253C10.6605 4.98301 10.6479 5.01074 10.5824 5.04098C10.5018 5.07878 10.4262 5.12918 10.3455 5.17454Z" fill="#BAA18C"/>
<path d="M11.4468 4.471C11.7644 4.46344 12.0794 4.4584 12.3969 4.4836C12.7245 4.51132 13.0471 4.5592 13.3697 4.61212C13.4377 4.6222 13.4528 4.64488 13.4201 4.69781C13.2185 5.01281 13.0723 5.35806 12.8959 5.70079C12.5884 5.15394 12.2104 4.70789 11.5502 4.61464C11.5124 4.56676 11.4796 4.51888 11.4468 4.471Z" fill="#F6DE38"/>
<path d="M11.5653 14.0269C11.3133 14.1353 11.0663 14.2588 10.8042 14.347C10.4716 14.4604 10.1339 14.5385 9.7861 14.5813C9.55929 14.6091 9.33248 14.6166 9.10568 14.6242C8.99479 14.6267 8.88391 14.604 8.77051 14.6015C8.99479 14.5561 9.21908 14.5183 9.44085 14.4629C10.0104 14.3193 10.5371 14.0673 11.031 13.7522C11.0965 13.7119 11.1419 13.7119 11.1999 13.7497C11.3309 13.8304 11.4695 13.9034 11.5653 14.0269Z" fill="#F8C430"/>
<path d="M7.57092 12.4968C7.60116 12.0885 7.58856 11.6752 7.65661 11.2393C7.86577 11.4308 8.05982 11.6072 8.25134 11.7836C8.2463 11.8164 8.24378 11.8491 8.23874 11.8819C8.2085 12.1137 8.11526 12.3254 8.02454 12.5396C7.87081 12.5547 7.71961 12.527 7.57092 12.4968Z" fill="#F5E537"/>
<path d="M8.83099 3.75781C9.07544 3.91406 9.25689 4.13078 9.42069 4.36515C9.64498 4.68016 9.82138 5.02037 10.0003 5.36058C10.0507 5.45886 9.98267 5.48406 9.93479 5.52943C9.86927 5.59243 9.84911 5.51682 9.8239 5.48658C9.6853 5.33034 9.54922 5.17157 9.41061 5.01533C9.23421 4.81876 9.10316 4.597 9.00992 4.35507C8.93684 4.16354 8.87888 3.96698 8.81335 3.77545C8.81839 3.76789 8.82595 3.76537 8.83099 3.75781Z" fill="#F5BCAD"/>
<path d="M10.0381 9.13987C10.0104 9.14239 9.98267 9.14743 9.95495 9.14995L9.95999 9.14743C9.95747 9.13987 9.95495 9.13483 9.95243 9.12727C9.94739 9.13231 9.94235 9.13735 9.93479 9.14239C9.89195 9.09199 9.85163 9.04411 9.79871 8.98363C9.96503 8.93323 10.1137 8.87778 10.2624 8.81478C10.6505 8.64846 10.842 8.33597 10.9126 7.94032C10.9605 7.68075 10.9756 7.41866 10.8672 7.16665C10.7891 6.90457 10.5976 6.77856 10.3456 6.7206C10.5094 6.63744 10.6757 6.5568 10.8395 6.47363C10.9176 6.69036 11.0109 6.90205 11.0285 7.13137C11.0638 7.60515 11.0663 8.08144 10.8244 8.50985C10.7059 8.72154 10.4842 8.83494 10.2926 8.97607C10.212 9.04159 10.091 9.03907 10.0381 9.13987Z" fill="#A2816C"/>
<path d="M10.3455 6.72168C10.5975 6.77964 10.7891 6.90565 10.8672 7.16773C10.8647 7.22317 10.8747 7.29878 10.7815 7.23325C10.7765 7.23578 10.7689 7.23577 10.7639 7.23073C10.721 7.12741 10.6253 7.11985 10.5371 7.10725C10.2901 7.07197 10.1137 7.19041 9.965 7.37438C9.8642 7.49786 9.8138 7.65159 9.73064 7.78515C9.66511 7.5407 9.74324 7.31138 9.8138 7.08205C9.88436 6.86028 10.0104 6.76704 10.2447 6.75444C10.2825 6.75192 10.3203 6.762 10.3455 6.72168Z" fill="#372F2F"/>
<path d="M9.73316 7.78665C9.81633 7.65309 9.86673 7.50188 9.96753 7.37588C10.1162 7.19191 10.2926 7.07347 10.5396 7.10875C10.6278 7.12135 10.7236 7.12891 10.7664 7.23224C10.6908 7.23224 10.6152 7.22216 10.5446 7.23476C10.3733 7.265 10.1893 7.28768 10.1162 7.48928V7.48424C10.1087 7.49432 10.0986 7.50692 10.091 7.517C9.90957 7.78665 9.87429 8.09158 9.89193 8.40407C9.89697 8.51243 9.94737 8.61324 10.0179 8.69892C10.0608 8.75184 10.0583 8.77704 9.99273 8.80476C9.713 8.92321 9.70292 8.91817 9.6878 8.6208C9.66764 8.34107 9.67772 8.06134 9.73316 7.78665Z" fill="#A2816C"/>
<path d="M6.16471 10.9798C6.10675 11.0378 6.02611 10.9848 5.95807 11.0201C6.07399 11.0327 6.18235 11.0453 6.29324 11.0579C6.25039 11.1789 6.20755 11.2998 6.16723 11.4208C6.15463 11.4561 6.15715 11.5065 6.09919 11.4611C5.92531 11.325 5.78418 11.1663 5.76654 10.9294C5.8371 10.9218 5.86734 10.8588 5.91775 10.8235C6.20755 10.6219 6.53012 10.501 6.87033 10.4229C6.94594 10.4884 7.0291 10.5514 7.07194 10.6471C7.02658 10.6698 6.97618 10.6723 6.92578 10.6774C6.64605 10.7076 6.37892 10.7782 6.16471 10.9798Z" fill="#EBC6A0"/>
<path d="M6.87038 10.4253C6.52765 10.5009 6.2076 10.6244 5.91779 10.826C5.86739 10.8613 5.83715 10.9243 5.76658 10.9318C5.73634 10.6471 5.87999 10.448 6.09923 10.2917C6.21516 10.2111 6.3462 10.1582 6.48229 10.1178C6.51253 10.1078 6.57805 10.1229 6.56293 10.0523C6.57553 10.0523 6.58561 10.0498 6.59821 10.0498C6.60577 10.0548 6.61333 10.0624 6.61837 10.0674C6.61585 10.1481 6.67633 10.1909 6.72169 10.2464C6.77209 10.3018 6.8477 10.3421 6.87038 10.4253Z" fill="#F0E1CA"/>
<path d="M10.4337 8.56886C10.3707 8.64446 10.2775 8.6747 10.1968 8.72006C10.1515 8.74778 10.1288 8.71754 10.1036 8.69234C9.85916 8.43782 9.93224 7.92372 10.2372 7.74731C10.3355 7.69187 10.4413 7.66163 10.5497 7.69943C10.7815 7.78008 10.8747 7.85064 10.7437 8.10516C10.6202 7.91616 10.4463 7.8834 10.3103 8.02704C10.1439 8.19841 10.2069 8.47562 10.4337 8.56886Z" fill="#FCFBFB"/>
<path d="M11.4468 4.4707C11.4795 4.51858 11.5123 4.56647 11.5476 4.61435C11.4821 4.60931 11.4191 4.60427 11.3309 4.59671C11.4115 4.68239 11.4795 4.75295 11.5652 4.84367C11.2956 4.83359 11.0511 4.84871 10.8193 4.9344C10.7916 4.94448 10.7764 4.93692 10.7588 4.91172C10.6908 4.80083 10.6227 4.69499 10.5471 4.57403C10.852 4.51858 11.1469 4.47322 11.4468 4.4707Z" fill="#F8C430"/>
<path d="M7.04168 10.4287C6.90812 10.3128 6.77456 10.1969 6.64099 10.0785C6.92324 10.023 7.20801 10.0079 7.4953 10.0255C7.49278 10.1616 7.49026 10.2952 7.48774 10.4313C7.34157 10.4338 7.19037 10.3783 7.04168 10.4287Z" fill="#F0E1CA"/>
<path d="M10.1162 7.49036C10.1893 7.28875 10.3707 7.26607 10.5446 7.23583C10.6177 7.22323 10.6933 7.23331 10.7664 7.23331C10.7714 7.23583 10.7765 7.23583 10.784 7.23583C10.8218 7.40719 10.8546 7.57604 10.8243 7.75749C10.5018 7.56596 10.3077 7.57604 10.0658 7.79025H10.0683C10.0809 7.55336 10.1943 7.48028 10.6051 7.45508C10.4161 7.36435 10.2649 7.40971 10.1162 7.49036Z" fill="#BAA18C"/>
<path d="M7.51807 9.72539C7.51807 9.801 7.51555 9.87912 7.51555 9.95472C7.2081 9.89424 6.90569 9.95976 6.5932 9.99756C6.65116 9.84636 6.73432 9.72539 6.84269 9.62207C6.92837 9.68255 7.02665 9.63719 7.1199 9.65987C7.24842 9.69011 7.3845 9.70271 7.51807 9.72539Z" fill="#E7C49F"/>
<path d="M9.86168 5.90151C9.79616 5.7251 9.64999 5.60666 9.53659 5.46554C9.28458 5.15053 9.01745 4.8456 8.83601 4.48019C8.72008 4.24582 8.65708 3.99633 8.60668 3.74433C8.59912 3.70148 8.58904 3.6536 8.6218 3.61328C8.6974 3.83001 8.77805 4.04673 8.84861 4.26346C8.96201 4.60619 9.14346 4.90608 9.39042 5.17321C9.56935 5.36725 9.73063 5.57642 9.90452 5.77299C9.9776 5.85111 9.94988 5.88387 9.86168 5.90151Z" fill="#BAA18C"/>
<path d="M10.4338 8.56892C10.2095 8.4782 10.1465 8.20099 10.3103 8.02459C10.4438 7.88346 10.6177 7.91371 10.7437 8.10271C10.6984 8.29676 10.5976 8.45552 10.4338 8.56892ZM10.4413 8.22115C10.4489 8.2766 10.4665 8.32952 10.5245 8.32952C10.585 8.32952 10.6001 8.27156 10.5976 8.21863C10.5951 8.17075 10.5774 8.12035 10.5245 8.11783C10.4615 8.11531 10.4464 8.17075 10.4413 8.22115Z" fill="#372F2F"/>
<path d="M7.26606 11.4308C7.28874 11.3401 7.37946 11.3199 7.45506 11.2393C7.40718 11.4837 7.34922 11.6904 7.32906 11.9071C7.3215 12.0003 7.31394 12.091 7.34166 12.1792C7.35678 12.2246 7.3719 12.2775 7.41978 12.2851C7.54579 12.3078 7.54075 12.396 7.53067 12.4892C7.12745 12.3557 7.18793 12.333 7.20306 11.9398C7.21062 11.7685 7.2711 11.6047 7.26606 11.4308Z" fill="#F6DE38"/>
<path d="M8.02454 12.5431C8.11526 12.3314 8.2085 12.1172 8.23874 11.8854C8.24378 11.8526 8.2463 11.8199 8.25134 11.7871C8.31182 11.835 8.37483 11.8829 8.43531 11.9308C8.44791 11.9484 8.46303 11.9686 8.47563 11.9862C8.46807 12.0366 8.46051 12.0845 8.45547 12.1349C8.43531 12.3995 8.29166 12.5356 8.02454 12.5431Z" fill="#F8C430"/>
<path d="M7.0947 8.99219C7.02413 9.11567 6.93593 9.23159 6.97373 9.3954C6.99137 9.46848 6.86537 9.49368 6.86285 9.57684C6.85025 9.57936 6.83513 9.57937 6.84017 9.59953L6.84269 9.59701C6.73181 9.61969 6.7066 9.56676 6.71921 9.46848C6.75953 9.17615 6.87041 9.03503 7.0947 8.99219Z" fill="#E7C49F"/>
<path d="M10.5169 5.50699C10.4615 5.54227 10.4085 5.58007 10.3506 5.61283C10.3254 5.62795 10.2951 5.66828 10.2649 5.63803C10.2372 5.61031 10.217 5.56747 10.2145 5.52967C10.2095 5.47927 10.2649 5.48683 10.2977 5.47675C10.3682 5.45659 10.4413 5.44147 10.5119 5.42383C10.5169 5.45155 10.5169 5.47927 10.5169 5.50699Z" fill="#A2816C"/>
<path d="M9.90961 5.58495C10.0885 5.53202 10.1087 5.5421 10.149 5.68827C10.1591 5.72355 10.1541 5.74119 10.1238 5.75883C10.0911 5.77899 10.0659 5.78655 10.0381 5.74875C10.0003 5.69583 9.95749 5.64543 9.90961 5.58495Z" fill="#E7C49F"/>
<path d="M9.18384 8.76714C9.30984 8.75706 9.43585 8.74446 9.55933 8.73438C9.58957 8.88054 9.58705 8.88054 9.44845 8.8377C9.36024 8.8125 9.27204 8.79234 9.18384 8.76714Z" fill="#A2816C"/>
<path d="M4.5771 11.3057C4.57962 11.5249 4.57962 11.7442 4.58214 11.9609C4.58214 11.981 4.57962 12.0012 4.55946 12.0138C4.55442 11.7794 4.53678 11.5426 4.5771 11.3057Z" fill="#A2816C"/>
<path d="M8.50343 14.6064C8.26654 14.6442 8.03218 14.6417 7.79529 14.6064C8.03218 14.6064 8.26654 14.6064 8.50343 14.6064Z" fill="#5E5959"/>
<path d="M12.0214 19.105C12.0239 18.9085 12.0239 18.7144 12.0264 18.5179C12.0264 18.4775 12.0138 18.4347 12.0466 18.3994C12.0466 18.6136 12.0491 18.8303 12.0491 19.0446C12.0491 19.0698 12.0541 19.0975 12.0214 19.105Z" fill="#5E5959"/>
<path d="M10.5169 5.50641C10.5169 5.47869 10.5144 5.45097 10.5144 5.42325C10.5724 5.40056 10.6303 5.38796 10.7059 5.39804C10.648 5.45601 10.5824 5.47869 10.5169 5.50641Z" fill="#A3826C"/>
<path d="M8.47569 11.9865C8.46308 11.9688 8.44796 11.9487 8.43536 11.931C8.44292 11.9235 8.45048 11.9134 8.45804 11.9058H8.4656L8.47316 11.9033C8.49081 11.931 8.51097 11.9562 8.52861 11.984C8.52105 11.989 8.51601 11.9966 8.50845 12.0016C8.49837 11.9991 8.48829 11.9915 8.47569 11.9865Z" fill="#FCFBFB"/>
<path d="M12.1676 12.6511C12.155 12.6234 12.1726 12.6183 12.1928 12.6133C12.1852 12.6284 12.1751 12.641 12.1676 12.6511Z" fill="#EBC6A0"/>
<path d="M6.59819 10.0476C6.58559 10.0476 6.57551 10.0501 6.56291 10.0501C6.55031 10.045 6.54275 10.035 6.55283 10.0274C6.57299 10.0173 6.58811 10.0274 6.59819 10.0476Z" fill="#FCFBFB"/>
<path d="M10.0632 7.7895H10.0608L10.0656 7.78711L10.0632 7.7895Z" fill="#BAA18C"/>
<path d="M10.0885 7.51714C10.0961 7.50706 10.1061 7.49446 10.1137 7.48438C10.1061 7.49446 10.0961 7.50706 10.0885 7.51714Z" fill="#BAA18C"/>
<path d="M11.5073 12.6012C11.5173 12.6012 11.5274 12.5986 11.5375 12.5986C11.5325 12.6062 11.5299 12.6163 11.5249 12.6238C11.5199 12.6163 11.5148 12.6087 11.5073 12.6012Z" fill="#FCFBFB"/>
<path d="M12.1449 12.6737C12.1424 12.6712 12.1398 12.6662 12.1373 12.6637C12.1449 12.6637 12.1499 12.6611 12.1575 12.6611C12.1575 12.6662 12.1525 12.6712 12.1449 12.6737Z" fill="#EBC6A0"/>
<path d="M8.81331 3.77243C8.81331 3.76235 8.81331 3.75227 8.81079 3.74219C8.81835 3.74723 8.82339 3.75227 8.83095 3.75731C8.82591 3.76487 8.81835 3.76739 8.81331 3.77243Z" fill="#F5BCAD"/>
<path d="M9.93475 9.145C9.93979 9.13996 9.94483 9.13492 9.95239 9.12988C9.95491 9.13744 9.95743 9.14248 9.95995 9.15004C9.94987 9.14752 9.94231 9.145 9.93475 9.145Z" fill="#F0E1CA"/>
<path d="M13.798 15.325C13.8963 15.1687 13.9644 15.0377 14.0072 14.8915C14.0475 14.7479 14.0778 14.5992 14.0979 14.4404C14.2063 14.6798 14.0475 15.1839 13.798 15.325Z" fill="#372F2F"/>
<path d="M14.0072 15.555C14.0904 15.3458 14.1609 15.1291 14.2441 14.9199C14.2416 15.1593 14.1735 15.3761 14.0072 15.555Z" fill="#372F2F"/>
<path d="M16.1468 3.72754C16.1645 3.80818 16.0939 3.82582 16.0485 3.84598C15.9477 3.89134 15.8797 3.96191 15.8167 4.04759C15.2597 4.81873 14.5239 5.38575 13.7074 5.857C13.5587 5.94269 13.4201 6.04601 13.2563 6.09893C13.6091 5.18666 14.219 4.52388 15.1186 4.12823C15.4563 3.98207 15.799 3.85102 16.1468 3.72754ZM13.531 5.79652C13.5637 5.8192 13.5864 5.78896 13.6091 5.77636C13.9039 5.60752 14.1938 5.43615 14.4609 5.22446C14.8515 4.90945 15.2522 4.60453 15.5521 4.19375C15.5798 4.15595 15.6277 4.12823 15.6201 4.05767C15.6 4.06271 15.5823 4.06271 15.5697 4.06775C15.1967 4.21643 14.8313 4.38276 14.5037 4.61965C14.0804 4.92709 13.7553 5.32023 13.536 5.79652C13.531 5.80156 13.5285 5.8066 13.5234 5.81164C13.5259 5.81164 13.531 5.81164 13.5335 5.81164C13.531 5.8066 13.531 5.80156 13.531 5.79652Z" fill="#372F2F"/>
<path d="M11.4443 6.7534C11.719 6.45855 12.0542 6.32751 12.4549 6.39555C12.7044 6.43839 12.843 6.61984 12.9564 6.82648C13.0421 7.06841 13.0219 7.3053 12.9312 7.54471C12.5607 7.03817 12.155 6.60976 11.4443 6.7534Z" fill="#372F2F"/>
<path d="M12.1726 7.64128C12.5758 7.81013 12.6792 8.1453 12.6792 8.54095C12.6489 8.55607 12.6187 8.57119 12.5834 8.56615C12.6086 8.30154 12.5607 8.05709 12.3667 7.86053C12.2004 7.6942 11.9761 7.669 11.7971 7.80509C11.5603 7.98149 11.4847 8.23602 11.5073 8.51575C11.53 8.79548 11.6384 9.03488 11.9231 9.15081C11.9257 9.18105 11.9257 9.20877 11.8954 9.22641C11.6711 9.15081 11.5502 8.97944 11.4721 8.77028C11.4166 8.62411 11.4216 8.47039 11.4191 8.31666C11.4216 8.30154 11.4242 8.2839 11.4242 8.26878C11.4519 8.23854 11.4443 8.20074 11.4418 8.16546C11.4468 8.1201 11.4544 8.07473 11.4594 8.02937C11.462 8.01677 11.4645 8.00165 11.467 7.98905C11.5023 7.85549 11.53 7.72192 11.5955 7.59844C11.7266 7.35651 12.034 7.28595 12.2457 7.44724C12.2256 7.47244 12.2004 7.45732 12.1777 7.45732C11.9005 7.36407 11.6308 7.53796 11.6359 7.81265C11.7089 7.76225 11.7795 7.71436 11.8501 7.66648C11.8627 7.66144 11.8879 7.66648 11.8778 7.63624V7.63876C11.9761 7.65136 12.0743 7.61608 12.1726 7.64128Z" fill="#070305"/>
<path d="M11.4443 6.75468C12.1549 6.61103 12.5607 7.03944 12.9311 7.5485C13.0218 7.30909 13.042 7.0722 12.9563 6.83028C13.0773 6.8958 13.0798 7.02432 13.0974 7.13269C13.1251 7.29145 13.1251 7.45778 13.0344 7.60646C12.9916 7.6745 12.9664 7.70726 12.8933 7.61906C12.6035 7.27885 12.2784 6.98148 11.8122 6.8958C11.7063 6.87564 11.603 6.88824 11.4997 6.88068C11.4594 6.87816 11.4039 6.90588 11.3863 6.858C11.3737 6.82272 11.4165 6.78492 11.4443 6.75468Z" fill="#A2816C"/>
<path d="M12.9311 11.5097C12.8354 11.3863 12.6968 11.2981 12.6439 11.1418C12.6565 11.0889 12.6691 11.0334 12.6791 10.9805C12.8379 10.9578 12.9967 10.9528 13.1554 10.9578C13.1302 11.0738 13.0723 11.1771 13.032 11.2855C12.9765 11.351 12.9942 11.4467 12.9311 11.5097Z" fill="#F0E1CA"/>
<path d="M12.5834 8.5657C12.6187 8.57074 12.6489 8.55562 12.6792 8.5405C12.8152 8.48758 12.9564 8.48254 13.1 8.49766C12.5632 8.59594 12.16 8.87819 11.8979 9.357L11.8853 9.35952H11.8727C11.8803 9.31416 11.8853 9.2688 11.8929 9.22344C11.9231 9.2058 11.9231 9.17808 11.9206 9.14784C12.0869 8.88827 12.3062 8.69674 12.5834 8.5657Z" fill="#372F2F"/>
<path d="M11.8929 9.2242C11.8853 9.26956 11.8803 9.31492 11.8727 9.36028V9.35776C11.8677 9.37036 11.8501 9.38045 11.8702 9.39305C11.845 9.43337 11.7997 9.43589 11.7619 9.44345C11.6585 9.46361 11.6232 9.42581 11.6686 9.33256C11.7089 9.2494 11.6837 9.199 11.6258 9.136C11.4342 8.92431 11.3637 8.66978 11.3687 8.39006C11.3687 8.35477 11.3712 8.32201 11.4141 8.31445C11.4166 8.46818 11.4141 8.6219 11.467 8.76807C11.5502 8.97723 11.6711 9.1486 11.8929 9.2242Z" fill="#A2816C"/>
<path d="M11.8475 7.66423C11.7769 7.71211 11.7063 7.75999 11.6332 7.81039C11.6282 7.53571 11.8953 7.36182 12.1751 7.45506C12.1448 7.4979 12.0995 7.47774 12.0591 7.4853C11.9684 7.50042 11.8928 7.53571 11.8752 7.64155V7.63903C11.8676 7.64659 11.8575 7.65667 11.8475 7.66423Z" fill="#A2816C"/>
<path d="M12.7674 8.81807C12.8883 8.65679 13.0546 8.60639 13.2487 8.61647C13.2562 8.65427 13.2084 8.63915 13.2058 8.66183C13.0546 8.68451 12.9286 8.75759 12.8052 8.83823C12.7774 8.85839 12.7447 8.88107 12.7674 8.81807Z" fill="#372F2F"/>
<path d="M13.2789 8.73242C13.3218 8.75762 13.3898 8.69966 13.415 8.77526C13.2562 8.80046 13.1 8.84079 12.9236 8.92899C13.0244 8.7803 13.1504 8.75258 13.2789 8.73242Z" fill="#372F2F"/>
<path d="M12.9311 11.5094C12.9941 11.4464 12.9765 11.3507 13.0319 11.2852C13.0773 11.4238 13.042 11.5195 12.9286 11.5598C12.9261 11.5523 12.9261 11.5422 12.9236 11.5346C12.9261 11.5246 12.9286 11.517 12.9311 11.5094Z" fill="#A2816C"/>
<path d="M13.5561 8.90895C13.5687 8.92155 13.5813 8.93415 13.5939 8.94423C13.5259 8.99463 13.4654 8.91651 13.3973 8.92911C13.4452 8.87114 13.4981 8.87618 13.5561 8.90895Z" fill="#372F2F"/>
<path d="M11.4392 8.16211C11.4443 8.19739 11.4518 8.23519 11.4216 8.26543C11.3838 8.22259 11.3762 8.18731 11.4392 8.16211Z" fill="#A2816C"/>
<path d="M11.4645 7.98633C11.4619 7.99893 11.4594 8.01405 11.4569 8.02665C11.4594 8.01405 11.4619 7.99893 11.4645 7.98633Z" fill="#A2816C"/>
<path d="M11.8702 9.3927C11.85 9.3801 11.8676 9.37002 11.8727 9.35742C11.8727 9.37002 11.8727 9.3801 11.8702 9.3927Z" fill="#372F2F"/>
<path d="M11.3939 10.9573C11.5552 10.9623 11.7165 10.9321 11.8752 10.9825C11.8324 11.0304 11.7744 11.0531 11.719 11.0808C11.1268 11.3807 10.5119 11.3555 9.88688 11.2219C9.61723 11.1639 9.35766 11.0606 9.08297 11.0253C9.03257 11.0102 8.98469 10.9976 8.93429 10.9825C8.92673 10.9649 8.91413 10.9598 8.89649 10.9548C8.58652 10.8767 8.27907 10.7985 7.97162 10.7204C7.99934 10.6373 8.07998 10.5944 8.12534 10.5264C8.41515 10.5566 8.69488 10.6423 8.97461 10.7154C9.4005 10.8237 9.82387 10.9523 10.2498 11.0606C10.6101 11.1539 10.968 11.1085 11.3183 11.0001C11.3485 10.9926 11.3712 10.9724 11.3939 10.9573Z" fill="#EBC6A0"/>
<path d="M9.2972 9.89943C9.146 9.91203 8.98723 9.8843 8.84107 9.80366C8.67474 9.71294 8.6697 9.65246 8.79571 9.51637C8.94439 9.36013 9.10064 9.21648 9.3224 9.17868C9.48117 9.15096 9.63237 9.17112 9.74073 9.30973C9.85414 9.45337 9.83902 9.6071 9.76342 9.76586C9.70545 9.88682 9.59205 9.88178 9.48621 9.8969C9.43077 9.90699 9.37028 9.89943 9.2972 9.89943ZM8.86627 9.5819C8.91667 9.5819 8.96959 9.54157 9.01999 9.58694C9.1964 9.74318 9.39548 9.74822 9.60465 9.6701C9.60969 9.66758 9.61725 9.67514 9.62733 9.67766C9.63237 9.71042 9.63489 9.74318 9.63993 9.78602C9.75081 9.69026 9.75333 9.58442 9.70545 9.47101C9.65757 9.35761 9.57693 9.28705 9.45093 9.28453C9.20396 9.27949 9.00991 9.38785 8.85115 9.56677C8.84107 9.5693 8.82847 9.57182 8.83603 9.58694C8.83855 9.59198 8.85619 9.58442 8.86627 9.5819Z" fill="#EBC6A0"/>
<path d="M12.3011 9.7227C12.2936 9.73278 12.286 9.74034 12.2784 9.75042C12.223 9.69246 12.2684 9.6345 12.2961 9.59166C12.4952 9.27917 12.8127 9.13804 13.1529 9.43037C13.1756 9.45053 13.2134 9.47069 13.1958 9.51102C13.1731 9.55638 13.1378 9.51354 13.1076 9.5211C13.1076 9.51102 13.1076 9.50346 13.105 9.49338C13.0975 9.46817 13.0748 9.46817 13.0546 9.46817L13.0572 9.47069C12.8278 9.31697 12.6287 9.34721 12.5002 9.49338C12.4952 9.50094 12.4901 9.50598 12.4851 9.51354C12.4952 9.51354 12.5053 9.51354 12.5153 9.51354C12.5607 9.48329 12.6136 9.44801 12.6615 9.46061C12.6993 9.47069 12.6766 9.53118 12.6741 9.5715C12.6439 9.58158 12.5985 9.5211 12.5859 9.58158C12.5758 9.62694 12.6035 9.66726 12.659 9.67482C12.6489 9.83107 12.6212 9.98479 12.5531 10.1284C12.5153 10.0906 12.5557 9.99235 12.4549 10.0024C12.4977 9.90919 12.5405 9.81595 12.5531 9.71262C12.5582 9.65718 12.5531 9.58914 12.475 9.6093C12.4045 9.6219 12.3263 9.63702 12.3011 9.7227Z" fill="#EBC6A0"/>
<path d="M8.42525 10.098C8.39501 10.1181 8.36225 10.1383 8.33201 10.1584C8.29673 10.1383 8.26397 10.1181 8.22869 10.1005C8.02204 10.0072 7.80028 9.97196 7.57599 9.9518C7.57599 9.89383 7.57599 9.83335 7.57599 9.77539C7.7902 9.79555 7.97668 9.90139 8.17325 9.97448C8.25893 10.0098 8.35973 10.0224 8.42525 10.098Z" fill="#E7C49F"/>
<path d="M13.1051 9.49338C13.1051 9.50346 13.1051 9.51102 13.1076 9.5211C13.0496 9.52614 13.0194 9.56143 13.0043 9.61435C12.9463 9.83863 12.8984 10.068 12.8808 10.2998C12.8631 10.3326 12.8379 10.3578 12.8052 10.3754C12.8203 10.1486 12.8405 9.91928 12.8505 9.69247C12.8606 9.47574 12.8556 9.47574 13.0572 9.47322L13.0547 9.4707C13.0547 9.51354 13.0849 9.49086 13.1051 9.49338Z" fill="#E7C49F"/>
<path d="M11.9483 10.6523C12.0088 10.6851 12.0441 10.7431 12.0945 10.7884C12.1121 10.8035 12.1222 10.8187 12.1071 10.8413C12.0945 10.8615 12.0819 10.8691 12.0567 10.8691C11.9206 10.8716 11.782 10.8741 11.6459 10.8766C11.7341 10.7884 11.8778 10.7683 11.9483 10.6523Z" fill="#EBC6A0"/>
<path d="M12.6968 10.8742C12.6312 10.8641 12.5657 10.854 12.4901 10.844C12.5859 10.728 12.6665 10.6071 12.7749 10.5088C12.7572 10.6348 12.7547 10.7608 12.6968 10.8742Z" fill="#372F2F"/>
<path d="M12.2558 10.3779C12.2533 10.4535 12.2533 10.5266 12.2507 10.6022C12.2482 10.6375 12.2684 10.6829 12.2205 10.7005C12.1726 10.7181 12.1424 10.6829 12.1147 10.6526C12.092 10.6299 12.0718 10.6022 12.0491 10.577C12.1424 10.5367 12.1651 10.4208 12.2558 10.3779Z" fill="#EBC6A0"/>
<path d="M11.5445 10.1502C11.5421 10.1479 11.5374 10.1479 11.535 10.1455C11.5374 10.1455 11.5421 10.1479 11.5445 10.1502Z" fill="#FCFBFB"/>
<path d="M7.2055 9.28368C7.19542 9.2862 7.17778 9.29376 7.17778 9.29124C7.17021 9.27611 7.1803 9.27107 7.1929 9.26855C7.19794 9.27359 7.20298 9.27864 7.2055 9.28368Z" fill="#070305"/>
<path d="M8.47565 10.0984C8.48321 10.0909 8.49329 10.0808 8.50085 10.0732L8.50337 10.0758C8.49581 10.0858 8.48573 10.0934 8.47565 10.0984C8.47565 10.0984 8.47817 10.101 8.47565 10.0984Z" fill="#FCFBFB"/>
<path d="M8.52858 10.0498C8.52101 10.0574 8.51093 10.0674 8.50337 10.075L8.50085 10.0725C8.51093 10.0649 8.51849 10.0574 8.52858 10.0498Z" fill="#FCFBFB"/>
<path d="M8.52606 10.0496C8.53362 10.0421 8.5437 10.032 8.55126 10.0244C8.5437 10.032 8.53614 10.0421 8.52606 10.0496C8.52606 10.0496 8.52858 10.0496 8.52606 10.0496Z" fill="#FCFBFB"/>
<path d="M11.5703 10.1766C11.5627 10.169 11.5527 10.1589 11.5451 10.1514C11.5552 10.1589 11.5627 10.169 11.5703 10.1766Z" fill="#FCFBFB"/>
<path d="M11.5703 10.1758C11.5779 10.1833 11.588 10.1934 11.5955 10.201C11.588 10.1909 11.5804 10.1833 11.5703 10.1758Z" fill="#FCFBFB"/>
<path d="M11.5955 10.2012C11.5979 10.2035 11.6026 10.2083 11.605 10.2106C11.6026 10.2106 11.6002 10.2106 11.5979 10.2083C11.5979 10.2059 11.5979 10.2035 11.5955 10.2012Z" fill="#FCFBFB"/>
<path d="M8.55127 10.0251C8.55363 10.0227 8.55835 10.018 8.56071 10.0156C8.55835 10.018 8.55599 10.0227 8.55127 10.0251C8.55127 10.0251 8.55363 10.0251 8.55127 10.0251Z" fill="#FCFBFB"/>
<path d="M13.0042 10.2262C13.0066 10.2239 13.0113 10.2192 13.0137 10.2168C13.0113 10.2192 13.0089 10.2215 13.0042 10.2262Z" fill="#FCFBFB"/>
<path d="M13.0042 10.2275C12.9967 10.2351 12.9866 10.2452 12.979 10.2527L12.9765 10.2502C12.9866 10.2427 12.9967 10.2351 13.0042 10.2275Z" fill="#FCFBFB"/>
<path d="M6.84267 9.59885C6.83763 9.57869 6.85275 9.57869 6.86535 9.57617C6.85779 9.58373 6.85023 9.59129 6.84267 9.59885Z" fill="#070305"/>
<path d="M9.08297 11.0258C9.35766 11.0636 9.61722 11.1644 9.88687 11.2224C10.5119 11.356 11.1293 11.3812 11.719 11.0813C11.7744 11.0536 11.8324 11.0309 11.8752 10.983C11.9307 10.983 11.9836 10.9805 12.039 10.9805C12.0466 10.9805 12.0541 10.9855 12.0667 10.9905C12.0138 11.0485 11.9508 11.0914 11.8853 11.1166C11.7316 11.177 11.6585 11.2804 11.6963 11.4668C11.5552 11.2879 11.5552 11.2879 11.351 11.3459C11.2981 11.361 11.2452 11.3812 11.1923 11.3812C10.9831 11.3786 10.8747 11.492 10.8369 11.6886C10.8269 11.681 10.8168 11.676 10.8168 11.671C10.7916 11.4694 10.6731 11.4089 10.4766 11.4164C10.3203 11.4215 10.159 11.3887 10.0053 11.3534C9.89443 11.3282 9.84151 11.3635 9.80623 11.4593C9.79111 11.4996 9.76843 11.5399 9.74575 11.5928C9.71299 11.298 9.71299 11.298 9.43578 11.2199C9.27449 11.1745 9.11321 11.1317 8.95444 11.0838C8.87884 11.0611 8.82844 11.0813 8.77804 11.1367C8.63691 11.298 8.60667 11.4946 8.58147 11.6936C8.56887 11.7894 8.58399 11.8902 8.53359 11.9809C8.51595 11.9532 8.49579 11.928 8.47815 11.9003C8.48319 11.6206 8.59659 11.3484 8.53359 11.0636C8.71252 11.0536 8.899 11.0384 9.08297 11.0258Z" fill="#070305"/>
<path d="M8.22618 10.1008C8.26146 10.121 8.29422 10.1412 8.3295 10.1588C8.24382 10.3075 8.09765 10.3932 7.97417 10.504C7.86077 10.4562 7.7398 10.4511 7.61884 10.4511C7.60624 10.31 7.58356 10.1714 7.59364 10.0303C7.70452 10.0429 7.81288 10.0605 7.92377 10.063C8.02961 10.0656 8.12285 10.1361 8.22618 10.1008Z" fill="#F0E1CA"/>
<path d="M8.5286 11.0684C8.5916 11.3531 8.4782 11.6253 8.47316 11.905L8.4656 11.9075H8.45804C8.39755 11.8319 8.33707 11.7589 8.27659 11.6833C8.28415 11.4817 8.26903 11.28 8.20099 11.086C8.30935 11.081 8.42024 11.0734 8.5286 11.0684Z" fill="#F8C430"/>
<path d="M8.20098 11.0855C8.26902 11.2796 8.28414 11.4786 8.27658 11.6828C8.11026 11.4988 7.94141 11.3174 7.75745 11.1132C7.92377 11.0981 8.05986 11.0754 8.20098 11.0855Z" fill="#F5E537"/>
<path d="M6.16473 10.9805C6.37894 10.7789 6.64607 10.7084 6.9258 10.6806C6.9762 10.6756 7.02408 10.6731 7.07196 10.6504C7.09464 10.668 7.11732 10.6857 7.13748 10.7058C7.15008 10.7184 7.16016 10.7361 7.18032 10.7638C7.02156 10.784 6.87035 10.7865 6.72671 10.8243C6.62843 10.8495 6.53014 10.8671 6.46462 10.9553C6.4369 10.9931 6.38902 11.0007 6.35122 10.9856C6.31594 10.973 6.37138 10.9478 6.35374 10.92C6.29074 10.9352 6.24034 11.0032 6.16473 10.9805Z" fill="#070305"/>
<path d="M7.97167 10.7207C8.27912 10.7988 8.58909 10.8769 8.89654 10.9551C8.91418 10.9601 8.92678 10.9652 8.93434 10.9828C8.86378 11.0408 8.78817 10.9929 8.71509 10.9904C8.64453 10.9878 8.57649 10.9828 8.50593 10.9778C8.29928 10.9047 8.08255 10.8643 7.86835 10.824C7.89355 10.7787 7.91875 10.7383 7.97167 10.7207Z" fill="#070305"/>
<path d="M7.04169 10.4275C7.19289 10.3771 7.34158 10.4325 7.49026 10.43C7.4827 10.5056 7.47766 10.5787 7.4701 10.6543C7.41214 10.6543 7.3567 10.6543 7.29873 10.6543C7.21053 10.5837 7.11477 10.5157 7.04169 10.4275Z" fill="#EBC6A0"/>
<path d="M7.6214 10.4512C7.74236 10.4512 7.86333 10.4537 7.97673 10.5041C7.92129 10.5772 7.85073 10.6326 7.7726 10.6805C7.72472 10.6805 7.67432 10.6805 7.62644 10.6805C7.62392 10.6049 7.62392 10.5293 7.6214 10.4512Z" fill="#EBC6A0"/>
<path d="M7.86831 10.8213C8.08252 10.8616 8.29924 10.9019 8.50589 10.975C8.26396 10.9624 8.02456 10.9523 7.77759 10.9397C7.79775 10.8793 7.83303 10.849 7.86831 10.8213Z" fill="#F8C430"/>
<path d="M8.22618 10.1008C8.12034 10.1361 8.0271 10.0656 7.92629 10.063C7.81541 10.0605 7.70453 10.0429 7.59616 10.0303C7.55836 10.0126 7.57348 9.97987 7.57348 9.95215C7.79777 9.97231 8.01954 10.0076 8.22618 10.1008Z" fill="#070305"/>
<path d="M7.29877 10.6543C7.35673 10.6543 7.41217 10.6543 7.47013 10.6543C7.47013 10.6946 7.47013 10.7349 7.47013 10.7853C7.38949 10.7627 7.34161 10.7123 7.29877 10.6543Z" fill="#070305"/>
<path d="M7.62642 10.6807C7.67431 10.6807 7.72471 10.6807 7.77259 10.6807C7.75999 10.6983 7.75243 10.7159 7.73731 10.7285C7.70959 10.7512 7.68691 10.7991 7.64659 10.7815C7.60626 10.7663 7.62894 10.7159 7.62642 10.6807Z" fill="#372F2F"/>
<path d="M13.0571 9.47088C12.8555 9.4734 12.8606 9.4734 12.8505 9.69013C12.8404 9.91946 12.8202 10.1463 12.8051 10.3731C12.7648 10.4084 12.722 10.4462 12.6816 10.4814C12.659 10.368 12.7245 10.2571 12.6917 10.1211C12.664 10.1866 12.6489 10.2319 12.6287 10.2773C12.5582 10.421 12.5027 10.5772 12.3717 10.683C12.3666 10.6326 12.3641 10.5797 12.3591 10.5293C12.4422 10.4109 12.5103 10.2874 12.5506 10.1463C12.5556 10.1387 12.5556 10.1311 12.5556 10.1211C12.6237 9.97742 12.6514 9.82621 12.6615 9.66745C12.6867 9.63721 12.6791 9.59941 12.6766 9.56412C12.6791 9.5238 12.6993 9.46332 12.664 9.45324C12.6161 9.44064 12.5632 9.47592 12.5178 9.50616C12.5153 9.4986 12.5103 9.49104 12.5027 9.486C12.6287 9.3474 12.8278 9.31716 13.0571 9.47088Z" fill="#070305"/>
<path d="M12.3011 9.72285C12.3263 9.63717 12.4045 9.61953 12.4725 9.60441C12.5532 9.58677 12.5582 9.65481 12.5506 9.70773C12.538 9.81105 12.4952 9.9043 12.4524 9.99754C12.4347 10.0404 12.4171 10.0807 12.3994 10.1235C12.3818 10.1412 12.3641 10.1563 12.3465 10.1739C12.2986 10.0757 12.3339 9.97234 12.3213 9.87406C12.3188 9.82365 12.344 9.76821 12.3011 9.72285Z" fill="#F0E1CA"/>
<path d="M12.5884 11.2827C12.5179 11.4793 12.4473 11.6758 12.3288 11.8522C12.291 11.6128 12.4397 11.4163 12.4851 11.1895C12.5279 11.2096 12.5607 11.2424 12.5884 11.2827Z" fill="#070305"/>
<path d="M12.3692 10.685C12.4977 10.5767 12.5557 10.4229 12.6262 10.2793C12.6464 10.2365 12.664 10.1886 12.6892 10.123C12.722 10.2617 12.6565 10.3725 12.6791 10.4834C12.596 10.5615 12.5103 10.6397 12.4271 10.7153C12.3767 10.7657 12.3591 10.7556 12.3692 10.685Z" fill="#A2816C"/>
<path d="M12.349 10.1764C12.3666 10.1587 12.3843 10.1436 12.4019 10.126C12.4372 10.2117 12.5002 10.1386 12.5481 10.1512C12.5078 10.2898 12.4397 10.4158 12.3566 10.5342C12.354 10.4662 12.354 10.3956 12.3515 10.3276C12.3767 10.3251 12.4145 10.3351 12.4196 10.2948C12.4246 10.2444 12.3818 10.257 12.3515 10.252C12.3515 10.2268 12.349 10.2016 12.349 10.1764Z" fill="#EBC6A0"/>
<path d="M12.6791 10.98C12.6665 11.0329 12.6539 11.0883 12.6438 11.1413C12.5456 11.1463 12.5405 11.053 12.4725 11.0001C12.5531 10.9774 12.6161 10.9699 12.6791 10.98Z" fill="#372F2F"/>
<path d="M12.3516 10.252C12.3818 10.257 12.4246 10.2444 12.4196 10.2948C12.4171 10.3351 12.3793 10.325 12.3516 10.3276C12.3516 10.3024 12.3516 10.2772 12.3516 10.252Z" fill="#E7C49F"/>
<path d="M12.7771 12.1113C12.7748 12.1137 12.7724 12.1184 12.7724 12.1208C12.7748 12.1184 12.7771 12.116 12.7771 12.1113C12.7771 12.1113 12.7771 12.1137 12.7771 12.1113Z" fill="#BAA18C"/>
<path d="M10.4413 8.22059C10.4488 8.17019 10.4614 8.11475 10.5244 8.11727C10.5774 8.11979 10.595 8.17019 10.5975 8.21807C10.6 8.27099 10.5849 8.32896 10.5244 8.32896C10.4665 8.32896 10.4488 8.27352 10.4413 8.22059Z" fill="#FCFBFB"/>
<path d="M13.5335 5.79842C13.7527 5.32213 14.0778 4.929 14.5012 4.62155C14.8288 4.38466 15.1942 4.22086 15.5672 4.06965C15.5823 4.06461 15.5974 4.06209 15.6176 4.05957C15.6251 4.12761 15.5773 4.15785 15.5495 4.19565C15.2497 4.60643 14.849 4.91136 14.4583 5.22637C14.1937 5.43805 13.9014 5.60942 13.6066 5.77826C13.5839 5.79086 13.5612 5.8211 13.5284 5.79842H13.5335Z" fill="#F5BCAD"/>
<path d="M13.5304 5.7959C13.5304 5.80062 13.5304 5.80534 13.5328 5.81006C13.5304 5.81006 13.5257 5.81006 13.5233 5.81006C13.528 5.80534 13.5304 5.80062 13.5351 5.7959C13.5328 5.79826 13.5304 5.7959 13.5304 5.7959Z" fill="#F5BCAD"/>
<path d="M12.5833 8.56605C12.3086 8.69709 12.0869 8.89113 11.9231 9.14818C11.6358 9.03478 11.5299 8.79537 11.5073 8.51312C11.4846 8.2334 11.5602 7.97887 11.7971 7.80246C11.976 7.6689 12.2028 7.69158 12.3666 7.8579C12.5606 8.05447 12.6085 8.29892 12.5833 8.56605ZM12.3716 8.3216C12.3716 8.11747 12.233 7.94107 12.0667 7.93603C11.9029 7.93099 11.7593 8.10235 11.7517 8.309C11.7441 8.51564 11.8878 8.70213 12.0566 8.70717C12.2179 8.71221 12.3565 8.55344 12.3716 8.3468C12.3716 8.33924 12.3716 8.33168 12.3716 8.3216Z" fill="#FCFBFB"/>
<path d="M11.8475 7.66403C11.8576 7.65395 11.8652 7.64387 11.8753 7.63379C11.8879 7.66403 11.8627 7.65899 11.8475 7.66403Z" fill="#BAA18C"/>
<path d="M8.85114 9.56855C9.01242 9.38962 9.20395 9.28126 9.45091 9.2863C9.57944 9.28882 9.66008 9.35938 9.70544 9.47279C9.7508 9.58619 9.74828 9.69203 9.63992 9.7878C9.63488 9.74496 9.62984 9.71219 9.62732 9.67943C9.61724 9.67691 9.60968 9.66935 9.60464 9.67187C9.39547 9.75 9.19639 9.74495 9.01998 9.58871C8.96706 9.54335 8.91666 9.58367 8.86626 9.58367C8.86122 9.57863 8.85618 9.57359 8.85114 9.56855Z" fill="#372F2F"/>
<path d="M8.86631 9.58194C8.85623 9.58446 8.84111 9.59202 8.83859 9.5895C8.82851 9.5769 8.84363 9.57186 8.85371 9.56934C8.85623 9.57438 8.86127 9.57942 8.86631 9.58194Z" fill="#372F2F"/>
<path d="M12.5481 10.1519C12.5002 10.1393 12.4372 10.2124 12.4019 10.1267C12.4196 10.0839 12.4372 10.0436 12.4548 10.0007C12.5556 9.99064 12.5153 10.0889 12.5531 10.1267C12.5531 10.1368 12.5531 10.1444 12.5481 10.1519Z" fill="#E7C49F"/>
<path d="M12.6741 9.57188C12.6791 9.60716 12.6842 9.64244 12.659 9.6752C12.6035 9.67016 12.5758 9.62732 12.5859 9.58196C12.5985 9.52148 12.6439 9.58196 12.6741 9.57188Z" fill="#E7C49F"/>
<path d="M13.105 9.49297C13.0874 9.49045 13.0546 9.51313 13.0546 9.46777C13.0748 9.47029 13.0949 9.47029 13.105 9.49297Z" fill="#070305"/>
<path d="M12.5128 9.51332C12.5027 9.51332 12.4926 9.51332 12.4825 9.51332C12.4876 9.50576 12.4926 9.50072 12.4977 9.49316C12.5052 9.50072 12.5103 9.50576 12.5128 9.51332Z" fill="#070305"/>
<path d="M12.3717 8.3222C12.3717 8.32976 12.3717 8.33984 12.3692 8.3474C12.354 8.55405 12.2154 8.71281 12.0541 8.70777C11.8853 8.70273 11.7442 8.51625 11.7492 8.3096C11.7568 8.10296 11.9004 7.93159 12.0642 7.93663C12.2305 7.94167 12.3717 8.11808 12.3717 8.3222ZM12.0819 8.28944C12.1474 8.27684 12.16 8.22644 12.1575 8.16848C12.1549 8.11808 12.1297 8.07524 12.0768 8.07524C12.0088 8.07776 11.9861 8.13068 11.9911 8.18864C11.9911 8.24408 12.0113 8.28944 12.0819 8.28944Z" fill="#372F2F"/>
<path d="M12.0819 8.28893C12.0138 8.28893 11.9911 8.24105 11.9886 8.19065C11.9861 8.13269 12.0062 8.07725 12.0743 8.07725C12.1272 8.07473 12.1524 8.12009 12.1549 8.17049C12.16 8.22593 12.1449 8.27633 12.0819 8.28893Z" fill="#FCFBFB"/>
</svg>
