<?xml version="1.0" encoding="UTF-8"?><svg xmlns="http://www.w3.org/2000/svg" viewBox="0 0 76.3 76.3"><defs><style>.e{fill:#221536;}.f{fill:#d7e030;}.g{fill:none;}.h{fill:#a3d7ba;}.i{fill:#221335;}</style></defs><g id="a"/><g id="b"><g id="c"><g id="d"><g><circle class="e" cx="38.15" cy="38.15" r="38.15"/><path class="g" d="M28.84,51.51c.48-3.44,3.16-5.53,3.99-6.18,1.7-1.33,3.76-1.91,7.86-3.07,3.39-.96,5.5-1.24,7.36-3.18,.72-.75,1.16-1.5,1.43-2.03-3.7,1.31-6.74,1.98-8.84,2.36-2.64,.47-5.25,1.08-7.89,1.56-.99,.18-2.12,.37-3.51,1.03-.84,.4-2.41,1.16-3.68,2.8-1.7,2.18-1.83,4.59-1.88,5.64-.14,3.41,1.37,5.91,2.02,6.86,2.19,1.43,4.64,2.49,7.27,3.1-.3-.23-4.82-3.88-4.13-8.88Z"/><path class="g" d="M21.99,52.83c-.74-1.27-1.43-2.46-1.66-4.15-.45-3.29,1.18-5.91,1.67-6.65,.66-.97,2.08-2.69,6.1-4.32,5.64-2.29,7.36-.74,15.82-2.75,1.1-.26,4.71-1.15,8.15-3.32,1.53-.96,2.71-1.98,3.72-3.27,.76-.98,1.26-1.9,1.57-2.57-.86-1.33-1.85-2.57-2.96-3.7,.1,.65,.18,1.78-.36,2.95-.46,.99-1.23,1.71-2.73,2.6-3.05,1.79-5.73,2.29-5.73,2.29-6.13,1.15-8.91,1.15-12.58,1.83-4.52,.83-8.78,1.62-12.19,4.89-2.86,2.74-3.98,6.13-4.46,8.3,1.6,5.11,4.94,9.45,9.33,12.31-1.02-.88-2.47-2.33-3.7-4.46Z"/><path class="g" d="M46.54,18.9c.28,1.18-.2,2.21-.39,2.58-.94,1.91-2.92,2.8-8.47,4.49-2.02,.62-4.6,1.36-7.62,2.14,5.92,.09,10.68-.55,14.04-1.2,3.75-.73,6.17-1.55,7.25-3.64,.63-1.22,.59-2.51,.46-3.41-2.54-1.9-5.48-3.28-8.68-3.99,.37,.11,2.9,.92,3.41,3.03Z"/><path class="f" d="M20.82,36.67c3.41-3.27,7.67-4.05,12.19-4.89,3.66-.68,6.45-.68,12.58-1.83,0,0,2.67-.5,5.73-2.29,1.5-.88,2.27-1.6,2.73-2.6,.54-1.17,.46-2.3,.36-2.95-.8-.82-1.67-1.57-2.59-2.26,.13,.9,.16,2.19-.46,3.41-1.07,2.09-3.5,2.91-7.25,3.64-3.36,.65-8.12,1.29-14.04,1.2,3.02-.78,5.6-1.53,7.62-2.14,5.55-1.69,7.54-2.58,8.47-4.49,.18-.38,.67-1.4,.39-2.58-.51-2.12-3.04-2.92-3.41-3.03-1.6-.36-3.27-.55-4.98-.55-12.61,0-22.83,10.22-22.83,22.83,0,2.38,.37,4.67,1.04,6.82,.48-2.18,1.6-5.56,4.46-8.3Z"/><path class="h" d="M57.37,25.81c-.31,.67-.8,1.59-1.57,2.57-1.01,1.29-2.19,2.3-3.72,3.27-3.44,2.16-7.05,3.05-8.15,3.32-8.47,2.01-10.18,.45-15.82,2.75-4.02,1.63-5.44,3.35-6.1,4.32-.5,.74-2.13,3.35-1.67,6.65,.23,1.69,.92,2.88,1.66,4.15,1.23,2.13,2.68,3.58,3.7,4.46h0c-.64-.94-2.15-3.45-2.02-6.85,.04-1.06,.17-3.46,1.88-5.64,1.27-1.63,2.85-2.4,3.68-2.8,1.38-.66,2.52-.85,3.51-1.03,2.64-.47,5.25-1.09,7.89-1.56,2.1-.38,5.14-1.05,8.84-2.36-.27,.53-.72,1.29-1.43,2.03-1.86,1.94-3.96,2.22-7.36,3.18-4.11,1.16-6.16,1.75-7.86,3.07-.83,.65-3.51,2.73-3.99,6.18-.7,5,3.83,8.65,4.13,8.88,1.67,.39,3.4,.59,5.19,.59,.73,0,5.18-.05,9.65-2.13,8.59-4.01,13.17-13.67,13.18-20.7,0-3.45-1.01-6.73-3.62-12.34Z"/><path class="i" d="M54.86,45.66c.75,.09,1.3,.69,1.32,1.33,.02,.76-.74,1.49-1.68,1.39h-3.55v8.75l-3.25,1.93v-10.68h-3.56c-.9,.1-1.64-.59-1.64-1.36,0-.66,.55-1.28,1.31-1.36"/></g></g></g></g></svg>