<?xml version="1.0" encoding="UTF-8"?>
<svg width="36px" height="36px" viewBox="0 0 36 36" version="1.1" xmlns="http://www.w3.org/2000/svg" xmlns:xlink="http://www.w3.org/1999/xlink">
    <!-- Generator: Sketch 57.1 (83088) - https://sketch.com -->
    <title>ORC_icon</title>
    <desc>Created with Sketch.</desc>
    <defs>
        <circle id="path-1" cx="18" cy="18" r="18"></circle>
        <radialGradient cx="100%" cy="100%" fx="100%" fy="100%" r="141.421356%" id="radialGradient-3">
            <stop stop-color="#00AE87" offset="0%"></stop>
            <stop stop-color="#0767B2" offset="100%"></stop>
        </radialGradient>
    </defs>
    <g id="Page-1" stroke="none" stroke-width="1" fill="none" fill-rule="evenodd">
        <g id="bridge_icon" transform="translate(-30.000000, -31.000000)">
            <g id="Group-36" transform="translate(26.000000, 27.000000)">
                <g id="Group-35" transform="translate(4.000000, 4.000000)">
                    <g id="Combined-Shape">
                        <mask id="mask-2" fill="white">
                            <use xlink:href="#path-1"></use>
                        </mask>
                        <use id="Mask" fill="#FFFFFF" xlink:href="#path-1"></use>
                        <path d="M7.07828619,16.6412214 C7.63403308,16.6412214 8.09169285,17.0643651 8.15024417,17.6079337 L8.15657238,17.7261456 L8.15631891,17.734625 L8.16240198,17.734625 C8.16233861,22.5691905 11.5355868,26.6059858 16.0409184,27.5967434 C16.5939194,27.7179805 17.1637503,27.7938034 17.7465827,27.8192831 L18.186085,27.8288765 L18.1889998,27.8288128 C18.2045876,27.8293866 18.2201755,27.8288765 18.2358901,27.8288765 C18.8313332,27.8288765 19.3141762,28.3145645 19.3141762,28.9138007 C19.3141762,29.4729688 18.8935663,29.9333904 18.3533676,29.9922948 L18.2358901,29.9986611 L18.3664224,29.9986611 C18.3083799,29.99949 18.2502106,30 18.1919146,30 C17.2453647,30 16.3240342,29.8914247 15.4395189,29.6859413 C10.1299253,28.4553954 6.1464432,23.7341236 6.0039481,18.0526642 L6,17.7418294 L6,17.7261456 C6,17.1269731 6.48277972,16.6412214 7.07828619,16.6412214 Z M18.1889998,29.9975135 L18.1889998,29.9986611 L18.2123974,29.9983264 L18.1889998,29.9975135 Z M18.5478609,10.0572519 C22.6741883,10.0572519 26.0191571,13.4108282 26.0191571,17.5477738 C26.0191571,21.6845917 22.6741883,25.0381679 18.5478609,25.0381679 C14.4215971,25.0381679 11.0766284,21.6845917 11.0766284,17.5477738 C11.0766284,13.4108282 14.4215971,10.0572519 18.5478609,10.0572519 Z M18.5478609,13.2239226 C16.1660923,13.2239226 14.235235,15.1597486 14.235235,17.5477738 C14.235235,19.9356712 16.1660923,21.8714972 18.5478609,21.8714972 C20.9296931,21.8714972 22.8605505,19.9356712 22.8605505,17.5477738 C22.8605505,15.1597486 20.9296931,13.2239226 18.5478609,13.2239226 Z M29.3237872,19.4083969 C29.9320851,19.4083969 30.4252874,19.8996523 30.4252874,20.5057574 C30.4252874,21.1117336 29.9320851,21.6030534 29.3237872,21.6030534 C28.7154245,21.6030534 28.2222222,21.1117336 28.2222222,20.5057574 C28.2222222,19.8996523 28.7154245,19.4083969 29.3237872,19.4083969 Z M18.7875445,5.00036663 L18.8109422,5.00121147 L18.8109422,5 C25.4407102,5 30.8320609,10.3226549 30.9961527,16.9511583 L31,17.2580018 C30.9996832,17.263294 31,17.2684587 31,17.2737509 C31,17.8729805 30.517218,18.3587786 29.9217087,18.3587786 C29.3659,18.3587786 28.9083445,17.9355945 28.8498074,17.391974 L28.8434807,17.2737509 L28.8437976,17.2580018 L28.8395799,16.9803049 C28.6911967,11.536864 24.2593898,7.16999176 18.8137937,7.16999176 L18.8123917,7.17002364 L18.8109422,7.17005552 C18.7953543,7.16948167 18.7797664,7.16999176 18.7640517,7.16999176 C18.1685424,7.16999176 17.6858238,6.6842574 17.6858238,6.08502776 C17.6858238,5.48579811 18.1685424,5 18.7640517,5 L18.7875445,5.00036663 Z M7.67624521,13.3015267 C8.28452526,13.3015267 8.77777778,13.7927965 8.77777778,14.398855 C8.77777778,15.0049134 8.28452526,15.4961832 7.67624521,15.4961832 C7.06796517,15.4961832 6.57471264,15.0049134 6.57471264,14.398855 C6.57471264,13.7927965 7.06796517,13.3015267 7.67624521,13.3015267 Z" fill="url(#radialGradient-3)" mask="url(#mask-2)"></path>
                    </g>
                </g>
            </g>
        </g>
    </g>
</svg>