<svg width="800" height="800" viewBox="0 0 800 800" fill="none" xmlns="http://www.w3.org/2000/svg">
<rect width="800" height="800" rx="400" fill="white"/>
<circle cx="400" cy="400" r="400" fill="#100339"/>
<g clip-path="url(#clip0_1065_2069)">
<path d="M242.019 496.107C244.844 493.281 248.727 491.633 252.846 491.633H626.351C633.177 491.633 636.589 499.875 631.764 504.702L557.981 578.526C555.157 581.352 551.274 583 547.155 583H173.649C166.824 583 163.411 574.758 168.236 569.931L242.019 496.107Z" fill="url(#paint0_linear_1065_2069)"/>
<path d="M242.019 220.474C244.961 217.648 248.845 216 252.846 216H626.351C633.177 216 636.589 224.242 631.764 229.069L557.981 302.893C555.157 305.719 551.274 307.367 547.155 307.367H173.649C166.824 307.367 163.411 299.125 168.236 294.298L242.019 220.474Z" fill="url(#paint1_linear_1065_2069)"/>
<path d="M557.981 357.407C555.157 354.581 551.274 352.933 547.155 352.933H173.649C166.824 352.933 163.411 361.175 168.236 366.002L242.019 439.826C244.844 442.652 248.727 444.3 252.846 444.3H626.351C633.177 444.3 636.589 436.059 631.764 431.231L557.981 357.407Z" fill="url(#paint2_linear_1065_2069)"/>
</g>
<defs>
<linearGradient id="paint0_linear_1065_2069" x1="590.671" y1="171.9" x2="331.951" y2="667.179" gradientUnits="userSpaceOnUse">
<stop stop-color="#00FFA3"/>
<stop offset="1" stop-color="#DC1FFF"/>
</linearGradient>
<linearGradient id="paint1_linear_1065_2069" x1="477.642" y1="112.857" x2="218.923" y2="608.136" gradientUnits="userSpaceOnUse">
<stop stop-color="#00FFA3"/>
<stop offset="1" stop-color="#DC1FFF"/>
</linearGradient>
<linearGradient id="paint2_linear_1065_2069" x1="533.797" y1="142.19" x2="275.077" y2="637.469" gradientUnits="userSpaceOnUse">
<stop stop-color="#00FFA3"/>
<stop offset="1" stop-color="#DC1FFF"/>
</linearGradient>
<clipPath id="clip0_1065_2069">
<rect width="468" height="367" fill="white" transform="translate(166 216)"/>
</clipPath>
</defs>
</svg>
