<svg width="24" height="24" viewBox="0 0 24 24" fill="none" xmlns="http://www.w3.org/2000/svg">
<path fill-rule="evenodd" clip-rule="evenodd" d="M0 12C0 5.37259 5.37259 0 12 0C18.6274 0 24 5.37259 24 12C24 18.6274 18.6274 24 12 24C5.37259 24 0 18.6274 0 12Z" fill="#04AA31"/>
<path d="M12.0645 19.9925C7.63627 19.9429 4.03234 16.3949 4.00028 12.113C3.96823 8.24526 6.65171 4.95838 10.4983 4.16592C14.9174 3.2519 19.3456 6.21459 20.1012 10.5821C20.1378 10.7892 20.1607 10.9963 20.1928 11.2034C20.2065 11.307 20.1699 11.343 20.0646 11.3025C19.6799 11.1539 19.2907 11.0278 18.8877 10.9513C18.7503 10.9243 18.7686 10.8072 18.7503 10.7217C18.5625 9.78964 18.2099 8.92514 17.6329 8.16421C16.108 6.14706 14.0656 5.17 11.5104 5.38612C8.30485 5.65628 5.82744 8.03814 5.40614 11.1719C5.32829 11.7528 5.34203 12.3336 5.4153 12.9189C5.44277 13.1351 5.5252 13.1305 5.69463 13.072C6.4548 12.8064 7.07301 12.3516 7.59048 11.7528C8.00261 11.28 8.38728 10.7892 8.7582 10.2849C10.5167 7.89406 14.2213 8.10568 15.6638 10.6857C15.8516 11.0233 16.1172 11.1494 16.4789 11.1404C17.1796 11.1179 17.8756 11.1629 18.5671 11.3115C19.3548 11.4826 20.0966 11.7573 20.7881 12.167C20.9346 12.2525 21.0629 12.3651 20.9667 12.5452C20.8659 12.7388 20.6965 12.7028 20.5362 12.6263C19.3135 12.0409 18.013 11.8743 16.6713 11.9464C15.7096 12.0004 14.9403 12.4507 14.2442 13.0675C13.5665 13.6664 13.1406 14.4318 12.7193 15.2062C12.4308 15.733 12.1286 16.2508 11.7302 16.7101C11.2081 17.3044 10.5533 17.6962 9.79771 17.9303C9.7336 17.9483 9.67407 17.9843 9.60538 17.9978C9.55043 18.0113 9.468 18.0113 9.47258 18.0834C9.47716 18.1284 9.53669 18.1734 9.6008 18.1959C9.93509 18.3085 10.274 18.4256 10.622 18.5021C14.0015 19.2315 17.317 17.4305 18.4938 14.2292C18.6724 13.7429 18.7915 13.2386 18.8373 12.7208C18.851 12.5722 18.8968 12.5362 19.0479 12.5767C19.3868 12.6713 19.7165 12.7793 20.0371 12.9189C20.1424 12.964 20.1836 13.0135 20.1607 13.1396C19.831 15.1927 18.8648 16.8812 17.2345 18.205C16.3416 18.9299 15.3341 19.4342 14.2305 19.7358C13.4886 19.9339 12.7193 20.0285 12.0645 19.9925ZM13.1223 11.4871C13.3971 11.4916 13.6352 11.2665 13.6443 10.9963C13.6535 10.7127 13.42 10.474 13.136 10.474C12.8475 10.474 12.6094 10.7037 12.614 10.9828C12.614 11.253 12.8475 11.4826 13.1223 11.4871Z" fill="white"/>
<path d="M23.5 12C23.5 18.3513 18.3513 23.5 12 23.5C5.64873 23.5 0.5 18.3513 0.5 12C0.5 5.64873 5.64873 0.5 12 0.5C18.3513 0.5 23.5 5.64873 23.5 12Z" stroke="white" stroke-opacity="0.3"/>
</svg>
