<svg xmlns="http://www.w3.org/2000/svg" xmlns:xlink="http://www.w3.org/1999/xlink" width="256" height="256" viewBox="0 0 256 256"><defs><clipPath id="b"><rect width="256" height="256"/></clipPath></defs><g id="a" clip-path="url(#b)"><g transform="translate(-429 -666)"><g transform="translate(429 666)"><circle cx="128" cy="128" r="128" transform="translate(0 256) rotate(-90)" fill="#fff"/><path d="M72.737,103.127s65.91,82.99,67.338,84.741c1.083,1.306,2.665,2.043,3.348,1.651,2.2-1.26,3.863-2.15,4.186-3a3.319,3.319,0,0,0-.353-2.934L0,0S154.964,179.118,162.477,186.5a128.129,128.129,0,0,1-21.814,14.4l-.588.174C131.09,191.263,72.737,103.127,72.737,103.127Z" transform="translate(46.867 40.633)" fill="#ff007a"/><g transform="translate(51.2 128)"><g transform="translate(0 0)"><path d="M155.4,50.38V69.367L178.867,36.3Z" transform="translate(-129.799 7.433)" fill="#3b3735"/><path d="M178.014,53.347,155.4,15.8V43.107Z" transform="translate(-129.799 -15.8)" fill="#3b3735"/><path d="M155.4,29.6V52.853L177.8,39.84Z" transform="translate(-129.799 -0.167)" fill="#1f1d19"/><path d="M143.8,53.347,166.413,15.8V43.107Z" transform="translate(-142.947 -15.8)" fill="#959190"/><path d="M166.3,29.6V52.853L143.9,39.84Z" transform="translate(-142.835 -0.167)" fill="#403c3a"/><path d="M166.867,50.38V69.367L143.4,36.3Z" transform="translate(-143.4 7.433)" fill="#959190"/></g></g><path d="M38.4,76.779A38.39,38.39,0,1,1,76.8,38.393,38.438,38.438,0,0,1,38.4,76.779Zm18.974-44.93V49.892h3.491V28.94a2.03,2.03,0,0,0-1.127-1.817,2.053,2.053,0,0,0-2.136.187L41.009,39.8A2.048,2.048,0,0,0,40.2,41.42v8.472h3.491V42.145L57.365,31.858Zm-37.85,0,.012.009L33.212,42.145v7.746h3.5V41.42a2.049,2.049,0,0,0-.816-1.624L19.3,27.3a2.043,2.043,0,0,0-3.262,1.638V49.892h3.491V31.849Z" transform="translate(136.529 51.199)" fill="#60c1b0"/></g></g></g></svg>