<svg width="24" height="24" viewBox="0 0 24 24" fill="none" xmlns="http://www.w3.org/2000/svg">
<path d="M12 24C18.6274 24 24 18.6274 24 12C24 5.37258 18.6274 0 12 0C5.37258 0 0 5.37258 0 12C0 18.6274 5.37258 24 12 24Z" fill="#E0E0E0"/>
<path d="M23.5 12C23.5 18.3513 18.3513 23.5 12 23.5C5.64873 23.5 0.5 18.3513 0.5 12C0.5 5.64873 5.64873 0.5 12 0.5C18.3513 0.5 23.5 5.64873 23.5 12Z" stroke="black" stroke-opacity="0.097"/>
<g clip-path="url(#clip0)">
<path d="M20.6241 14.5793C19.5184 18.2989 16.0688 21.0221 12 21.0221C7.02457 21 3 16.9705 3 12.0111C3 7.02952 7.02457 3 12 3C13.9017 3 15.6929 3.59779 17.1523 4.61624L15.0516 7.11808C14.1671 6.56458 13.1278 6.25461 12 6.25461C8.81573 6.25461 6.25061 8.84502 6.25061 12.0111C6.25061 15.1993 8.83784 17.7675 12 17.7675C14.2555 17.7675 16.2015 16.4613 17.1523 14.5793H20.6241V14.5793Z" fill="#161616"/>
<path d="M21 12.011C21 12.8966 20.8673 13.7601 20.6241 14.5793H11.7346V11.5239H20.9779C20.9779 11.6789 21 11.8339 21 12.011Z" fill="#EF3837"/>
</g>
<defs>
<clipPath id="clip0">
<rect width="18" height="18" fill="white" transform="translate(3 3)"/>
</clipPath>
</defs>
</svg>
