<svg width="24" height="24" viewBox="0 0 24 24" fill="none" xmlns="http://www.w3.org/2000/svg">
<path d="M12 24C18.6274 24 24 18.6274 24 12C24 5.37258 18.6274 0 12 0C5.3726 0 1.52588e-05 5.37258 1.52588e-05 12C1.52588e-05 18.6274 5.3726 24 12 24Z" fill="#0041FF"/>
<path d="M12 24C18.6274 24 24 18.6274 24 12C24 5.37258 18.6274 0 12 0C5.3726 0 1.52588e-05 5.37258 1.52588e-05 12C1.52588e-05 18.6274 5.3726 24 12 24Z" fill="#E31D38"/>
<path fill-rule="evenodd" clip-rule="evenodd" d="M8.49058 4H10.5283V19.0153H8.49058V4ZM6 13.1077H8.03774V18.0307H6V13.1077ZM13.0189 11.1385H10.9812V20H13.0189V11.1385ZM13.4717 12.1231H15.5095V19.0153H13.4717V12.1231ZM18 6.95386H15.9623V18.0307H18V6.95386Z" fill="white"/>
<path d="M23.5 12C23.5 18.3513 18.3513 23.5 12 23.5C5.64874 23.5 0.500015 18.3513 0.500015 12C0.500015 5.64873 5.64874 0.5 12 0.5C18.3513 0.5 23.5 5.64873 23.5 12Z" stroke="white" stroke-opacity="0.3"/>
</svg>
