<svg width="24" height="24" viewBox="0 0 24 24" fill="none" xmlns="http://www.w3.org/2000/svg">
<path d="M12 24C18.6274 24 24 18.6274 24 12C24 5.37258 18.6274 0 12 0C5.37258 0 0 5.37258 0 12C0 18.6274 5.37258 24 12 24Z" fill="#BF0000"/>
<path d="M12 20C16.4183 20 20 16.4183 20 12C20 7.58172 16.4183 4 12 4C7.58172 4 4 7.58172 4 12C4 16.4183 7.58172 20 12 20Z" fill="white"/>
<path d="M23.5 12C23.5 18.3513 18.3513 23.5 12 23.5C5.64873 23.5 0.5 18.3513 0.5 12C0.5 5.64873 5.64873 0.5 12 0.5C18.3513 0.5 23.5 5.64873 23.5 12Z" stroke="black" stroke-opacity="0.097"/>
<path d="M14.8627 14.7259C14.8627 15.3909 14.8627 16.0559 14.864 16.7209C14.864 16.7599 14.8523 16.7807 14.8159 16.7989C13.8034 17.3117 12.7923 17.8257 11.7798 18.3397C11.5144 18.4751 11.2476 18.6091 10.9821 18.7458C10.9613 18.7562 10.9431 18.7705 10.9223 18.7835C10.9092 18.7835 10.8962 18.7835 10.8832 18.7835C10.822 18.7301 10.7466 18.7054 10.6763 18.669C9.63783 18.1458 8.59805 17.624 7.55958 17.1009C7.3878 17.015 7.21602 16.9265 7.04425 16.8406C7.01301 16.825 7 16.8068 7 16.7716C7.0013 16.0025 7.0013 15.2334 7.0013 14.463C7.0013 14.45 7.00521 14.437 7.00651 14.4253C7.12623 14.4839 7.24726 14.5437 7.36698 14.6023C8.52518 15.1723 9.68207 15.741 10.8403 16.3122C10.8845 16.3344 10.9183 16.337 10.9652 16.3148C11.8137 15.9062 12.6635 15.4989 13.5132 15.0916C13.7644 14.9706 14.0142 14.8495 14.2654 14.7272C14.4645 14.7272 14.6636 14.7272 14.8627 14.7259Z" fill="#0174A9"/>
<path d="M11.3387 5.91699C11.4376 5.94432 11.5417 5.95473 11.6367 5.99637C11.7616 6.04973 11.88 6.11219 11.9386 6.24623C11.9516 6.27486 11.9789 6.28397 12.0037 6.29568C12.6739 6.58849 13.3441 6.88129 14.0142 7.17409C14.3656 7.32765 14.7157 7.48121 15.067 7.63477C15.0892 7.64388 15.11 7.65559 15.1451 7.67251C15.0657 7.71155 14.9981 7.74668 14.9291 7.77922C14.6116 7.93147 14.2927 8.08373 13.9752 8.23729C13.4352 8.49626 12.8938 8.75653 12.3537 9.01549C11.9881 9.18987 11.6224 9.36295 11.258 9.53994C11.2151 9.56076 11.1812 9.56206 11.137 9.53994C10.7049 9.32261 10.2729 9.10789 9.84084 8.89187C9.34242 8.64461 8.84401 8.39736 8.34429 8.1501C8.03717 7.99784 7.73006 7.84689 7.42424 7.69593C7.40342 7.68552 7.37869 7.68031 7.36047 7.65168C7.4802 7.59833 7.59732 7.54497 7.71444 7.49292C7.92396 7.39922 8.13347 7.30683 8.34299 7.21443C8.36121 7.20662 8.37943 7.19882 8.38984 7.1806C8.48614 7.00492 8.65531 6.94245 8.8336 6.893C8.89996 6.87478 8.97024 6.86177 9.03791 6.86307C9.16544 6.86437 9.26955 6.80061 9.38016 6.75246C9.70289 6.61061 10.0243 6.46616 10.3471 6.32301C10.3835 6.30609 10.4069 6.28527 10.4238 6.24493C10.4759 6.12781 10.5774 6.06014 10.6906 6.01069C10.7895 5.96774 10.8936 5.93781 11.0029 5.9287C11.0107 5.9287 11.0173 5.9209 11.0251 5.91699C11.1305 5.91699 11.2346 5.91699 11.3387 5.91699ZM8.38593 7.41354C8.35861 7.4734 8.37943 7.53587 8.37292 7.59703C8.3547 7.7597 8.43669 7.86901 8.57072 7.93798C8.9364 8.12928 9.31249 8.12928 9.68337 7.9601C9.91241 7.856 9.98919 7.64518 9.90851 7.41224C9.902 7.38101 9.89289 7.39792 9.88378 7.41094C9.807 7.51634 9.7042 7.58141 9.58187 7.62436C9.37105 7.69853 9.15503 7.72066 8.9377 7.68292C8.73079 7.64648 8.53168 7.59052 8.40285 7.40183C8.38984 7.38361 8.38984 7.40703 8.38593 7.41354ZM10.4147 8.4416C10.3952 8.54571 10.3926 8.65242 10.416 8.75523C10.4473 8.89057 10.554 8.96474 10.6711 9.01419C11.0133 9.15994 11.3608 9.15994 11.7018 9.01029C11.8137 8.96084 11.9165 8.88796 11.9477 8.75913C11.9737 8.65242 11.9659 8.5405 11.9529 8.43119C11.9477 8.42859 11.949 8.40126 11.936 8.42338C11.8488 8.57954 11.7005 8.64461 11.5404 8.69146C11.3582 8.74481 11.1708 8.76043 10.9834 8.7266C10.77 8.68886 10.5592 8.6355 10.4316 8.43119C10.4199 8.41167 10.4199 8.4364 10.4147 8.4416ZM13.8386 7.45388C13.8334 7.44998 13.836 7.42525 13.8217 7.44737C13.7566 7.55278 13.6616 7.61915 13.5484 7.6647C13.2777 7.77401 13.0005 7.78182 12.7233 7.70764C12.5541 7.6621 12.3889 7.59703 12.3108 7.41614C12.3082 7.41744 12.3056 7.41874 12.3043 7.42135C12.3017 7.42785 12.3017 7.43436 12.3004 7.44087C12.2809 7.50203 12.2965 7.5658 12.2913 7.62696C12.2757 7.81175 12.3693 7.93408 12.5255 8.01086C12.8352 8.16311 13.1567 8.16962 13.4833 8.07072C13.5796 8.04209 13.6681 7.99524 13.7423 7.92757C13.8906 7.79353 13.8529 7.62045 13.8386 7.45388ZM11.9503 6.46356C11.9516 6.47137 11.949 6.47527 11.9412 6.47787C11.9178 6.47397 11.9048 6.49089 11.8931 6.5052C11.8163 6.6028 11.7109 6.65616 11.5964 6.6939C11.3491 6.77588 11.0966 6.78499 10.8455 6.71862C10.6815 6.67568 10.524 6.61321 10.4316 6.45445C10.4264 6.44534 10.4186 6.44404 10.4108 6.45315C10.3913 6.51691 10.4069 6.58198 10.4017 6.64575C10.3861 6.82013 10.4746 6.93464 10.6203 7.00882C10.9236 7.16498 11.2411 7.17539 11.5651 7.083C11.6666 7.05437 11.759 7.00752 11.8397 6.93985C11.9985 6.80581 11.9607 6.62623 11.9503 6.45184C11.9477 6.44274 11.9451 6.43363 11.9399 6.4089C11.9399 6.43883 11.9347 6.45315 11.9503 6.46356ZM9.91241 7.34847C9.91241 7.35238 9.90981 7.35628 9.91111 7.35888C9.91241 7.36539 9.91501 7.36539 9.91762 7.35888C9.91892 7.35498 9.91762 7.35107 9.91631 7.34717C9.91631 7.34977 9.91371 7.34977 9.91241 7.34847ZM8.37813 7.34847C8.37813 7.35238 8.37552 7.35628 8.37682 7.35888C8.37813 7.36539 8.38073 7.36539 8.38333 7.36018C8.38463 7.35628 8.38333 7.35238 8.38203 7.34847C8.38073 7.34847 8.37943 7.34847 8.37813 7.34847Z" fill="#FECF95"/>
<path d="M12.0544 11.6934C11.7837 11.83 11.513 11.9654 11.2437 12.1033C11.2098 12.1202 11.1864 12.1189 11.1539 12.1033C9.88246 11.4618 8.61105 10.8215 7.33833 10.1812C7.3084 10.1669 7.29279 10.1513 7.29279 10.1136C7.29409 9.33797 7.29409 8.56107 7.29409 7.78547C7.29409 7.78157 7.29539 7.77766 7.29799 7.76465C7.41251 7.8193 7.52442 7.87396 7.63504 7.92862C8.32996 8.27087 9.02488 8.61313 9.71849 8.95408C10.1922 9.18702 10.6659 9.41866 11.1383 9.6529C11.1786 9.67242 11.2111 9.67502 11.2528 9.6542C12.221 9.18832 13.1905 8.72374 14.1587 8.25916C14.4723 8.1082 14.7859 7.95855 15.1009 7.80759C15.1139 7.80109 15.1282 7.79588 15.1542 7.78417C15.1542 8.40231 15.1542 9.01264 15.1542 9.62297C15.1529 9.76612 15.1503 9.90926 15.1529 10.0511C15.1542 10.1032 15.136 10.1266 15.0904 10.1487C14.8393 10.2736 14.5894 10.4025 14.3383 10.53C13.7097 10.8488 13.0799 11.1677 12.4513 11.4878C12.3186 11.5555 12.1819 11.6166 12.0544 11.6934Z" fill="#E7902B"/>
<path d="M14.8627 14.7258C14.6636 14.7258 14.4645 14.7258 14.2654 14.7258C14.2393 14.7245 14.2133 14.7206 14.1886 14.7206C13.4325 14.7206 12.6764 14.7193 11.919 14.7219C11.8605 14.7219 11.8475 14.7063 11.8488 14.6503C11.8514 14.2039 11.8501 13.7576 11.8501 13.3112C11.8501 13.198 11.8475 13.0861 11.8475 12.9729C11.8488 12.9026 11.8501 12.8323 11.8514 12.762C12.9198 12.762 13.9869 12.762 15.0553 12.762C15.9936 12.762 16.9305 12.762 17.8688 12.7607C17.8701 12.7803 17.8714 12.7998 17.8714 12.8193C17.8714 13.4322 17.8714 14.0465 17.8727 14.6594C17.8727 14.7102 17.8597 14.7232 17.8089 14.7232C16.8537 14.7219 15.8973 14.7219 14.9421 14.7219C14.9147 14.7232 14.8887 14.7258 14.8627 14.7258Z" fill="#A71803"/>
<path d="M15.2036 9.64137C15.3442 9.64007 15.4847 9.63877 15.6253 9.63877C15.663 9.63877 15.6969 9.62966 15.7307 9.61534C16.0938 9.46569 16.4581 9.46569 16.8225 9.61014C16.8681 9.62835 16.911 9.64007 16.9605 9.63877C17.049 9.63616 17.1387 9.64007 17.2272 9.63746C17.2624 9.63616 17.2754 9.65048 17.2819 9.68431C17.442 10.5081 17.6033 11.3305 17.7634 12.1543C17.7959 12.3221 17.8363 12.4874 17.8571 12.6579C17.8311 12.68 17.7985 12.6696 17.7699 12.6696C15.827 12.6696 13.8854 12.6696 11.9425 12.6696C11.9125 12.6696 11.8813 12.6709 11.8514 12.6722C11.9112 12.3872 11.9724 12.1022 12.0323 11.8185C12.0375 11.7951 12.0401 11.7717 12.0427 11.7482C12.1116 11.7209 12.1741 11.6819 12.2392 11.6493C12.8326 11.3474 13.4247 11.0468 14.0181 10.7462C14.3955 10.5549 14.7716 10.3636 15.149 10.1736C15.1828 10.1567 15.2049 10.1411 15.2036 10.0968C15.2036 9.94458 15.2049 9.79232 15.2036 9.64137ZM17.0489 9.94849C16.9761 10.0643 16.8642 10.1255 16.7392 10.1684C16.505 10.2478 16.2642 10.2569 16.0235 10.2179C15.8361 10.1866 15.6513 10.1359 15.5316 9.9641C15.516 9.94198 15.5147 9.96931 15.5082 9.97581C15.5069 10.0422 15.5056 10.1099 15.503 10.1762C15.5017 10.2491 15.529 10.3103 15.5797 10.3623C15.6318 10.4157 15.6943 10.4534 15.7632 10.4807C16.0105 10.5809 16.2668 10.5953 16.5271 10.5562C16.6664 10.5354 16.803 10.499 16.9201 10.4157C16.9865 10.3688 17.0503 10.3142 17.0568 10.2283C17.0633 10.145 17.0659 10.0604 17.0542 9.97581C17.0529 9.96801 17.0516 9.9589 17.0503 9.95109C17.0607 9.94458 17.0633 9.93547 17.0594 9.92506C17.0594 9.92376 17.0568 9.92246 17.0542 9.92116C17.0542 9.93027 17.0516 9.93938 17.0489 9.94849ZM14.0233 11.7834C14.0142 11.7521 14.0038 11.7639 13.9934 11.7834C13.9413 11.8693 13.862 11.9174 13.7722 11.9552C13.508 12.0645 13.2347 12.0801 12.9588 12.0254C12.7805 11.9903 12.6023 11.9434 12.4955 11.7717C12.4903 11.7626 12.4799 11.7613 12.4773 11.773C12.4747 11.7808 12.4799 11.7899 12.4812 11.7977C12.463 11.8641 12.476 11.9304 12.4734 11.9981C12.4695 12.0697 12.4968 12.1295 12.5476 12.179C12.597 12.2284 12.6569 12.2649 12.7207 12.2922C12.951 12.3911 13.1944 12.4067 13.439 12.3807C13.5991 12.3638 13.7539 12.3234 13.8893 12.2297C13.9609 12.1803 14.0207 12.1178 14.0272 12.0267C14.0324 11.9447 14.035 11.8641 14.0233 11.7834ZM17.3287 11.7834C17.3209 11.7574 17.3131 11.7652 17.3027 11.7821C17.2429 11.8797 17.1479 11.9304 17.045 11.9682C16.7913 12.0619 16.5297 12.0762 16.2668 12.0241C16.0925 11.989 15.9207 11.9408 15.8075 11.7834C15.7919 11.7613 15.7905 11.7847 15.7853 11.7951C15.7684 11.8589 15.7814 11.9239 15.7775 11.9877C15.7723 12.0775 15.814 12.1465 15.8803 12.2011C15.9259 12.2376 15.9753 12.2675 16.03 12.2909C16.2213 12.369 16.4191 12.3924 16.6247 12.3846C16.7926 12.3768 16.9553 12.3508 17.1075 12.2766C17.2129 12.2258 17.3118 12.1621 17.33 12.0345C17.3418 11.9526 17.3418 11.868 17.3287 11.7834ZM15.7879 11.7404C15.7866 11.7365 15.784 11.7326 15.7827 11.73C15.7801 11.7339 15.7775 11.7365 15.7775 11.7404C15.7775 11.7443 15.7801 11.7482 15.7827 11.7521C15.784 11.7469 15.7853 11.7443 15.7879 11.7404Z" fill="#E7902B"/>
<path d="M11.8462 12.9743C11.8475 13.0875 11.8488 13.1994 11.8488 13.3126C11.8488 13.759 11.8501 14.2054 11.8475 14.6517C11.8475 14.7077 11.8592 14.7246 11.9178 14.7233C12.6739 14.7207 13.43 14.722 14.1874 14.722C14.2134 14.722 14.2394 14.7246 14.2641 14.7272C14.013 14.8482 13.7631 14.9705 13.512 15.0916C12.6622 15.4989 11.8124 15.9062 10.9639 16.3148C10.9171 16.337 10.8819 16.3344 10.839 16.3122C9.6834 15.7422 8.5252 15.1723 7.367 14.6023C7.24728 14.5437 7.12625 14.4838 7.00653 14.4253C7.01824 14.3472 7.06769 14.3069 7.13927 14.2756C7.43077 14.1468 7.71837 14.0128 8.00857 13.8813C8.04891 13.8631 8.07103 13.8423 8.08014 13.7954C8.11137 13.6406 8.2311 13.5638 8.36253 13.5052C8.54862 13.4219 8.74643 13.4011 8.94684 13.4141C9.0054 13.418 9.05745 13.405 9.1095 13.3816C9.42443 13.2372 9.73935 13.0927 10.0543 12.9496C10.0907 12.9326 10.1102 12.9131 10.1206 12.8715C10.1506 12.7531 10.2417 12.6841 10.3432 12.6307C10.5657 12.5149 10.8065 12.4954 11.0511 12.5214C11.2255 12.5396 11.3908 12.5878 11.5326 12.6971C11.5821 12.7348 11.6276 12.7791 11.6432 12.8376C11.6588 12.8936 11.6927 12.9196 11.7408 12.9378C11.7773 12.947 11.8124 12.9613 11.8462 12.9743ZM8.07493 13.9451C8.07493 14.0362 8.07754 14.1091 8.07493 14.1832C8.07233 14.2717 8.10747 14.3433 8.16473 14.4058C8.21158 14.4552 8.26753 14.4917 8.3287 14.5203C8.56554 14.6322 8.8141 14.6543 9.07046 14.6153C9.22142 14.5919 9.36587 14.5476 9.4895 14.4526C9.56888 14.3928 9.62614 14.3186 9.63264 14.2158C9.63785 14.1312 9.63395 14.0453 9.63395 13.9425C9.56888 14.0947 9.45566 14.1715 9.32423 14.2223C9.02362 14.3368 8.7204 14.3394 8.41719 14.234C8.27144 14.1845 8.14781 14.1065 8.07493 13.9451ZM11.664 15.0122C11.6081 15.1124 11.5274 15.1788 11.4311 15.2295C11.2958 15.2998 11.1526 15.3362 11.0017 15.3427C10.662 15.3583 10.338 15.3232 10.1154 15.02C10.1154 15.0903 10.118 15.1644 10.1141 15.2373C10.1115 15.3141 10.1402 15.3766 10.1896 15.4312C10.2339 15.4807 10.2846 15.5197 10.3432 15.5483C10.5839 15.6694 10.839 15.6941 11.1019 15.6551C11.2463 15.6329 11.3856 15.5913 11.5066 15.5054C11.5886 15.4481 11.6562 15.3766 11.664 15.2712C11.6692 15.184 11.664 15.0981 11.664 15.0122ZM10.1154 13.0875C10.1154 13.1422 10.1206 13.1968 10.1141 13.2502C10.0959 13.4272 10.1883 13.5352 10.3315 13.6158C10.4785 13.6978 10.6386 13.733 10.8039 13.7421C11.0342 13.7564 11.258 13.7226 11.4623 13.6067C11.556 13.5534 11.6432 13.4831 11.6588 13.3699C11.6719 13.2762 11.6614 13.1799 11.6614 13.0706C11.6055 13.1916 11.5196 13.2619 11.4142 13.31C11.1019 13.4519 10.7817 13.4571 10.4603 13.3517C10.3172 13.3048 10.1922 13.2307 10.1154 13.0875Z" fill="#7CCFF3"/>
<path d="M11.8527 12.6711C11.8826 12.6698 11.9139 12.6684 11.9438 12.6684C13.8867 12.6684 15.8283 12.6684 17.7712 12.6684C17.7998 12.6684 17.8324 12.6789 17.8584 12.6567C17.8805 12.6906 17.8649 12.727 17.8662 12.7621C16.9279 12.7621 15.991 12.7621 15.0527 12.7634C13.9843 12.7634 12.9172 12.7634 11.8488 12.7634C11.8462 12.7322 11.8397 12.701 11.8527 12.6711Z" fill="#FECF95"/>
<path d="M15.2037 9.64143C15.2037 9.79369 15.2037 9.94464 15.2063 10.0969C15.2076 10.1411 15.1841 10.1568 15.1516 10.1737C14.7742 10.3637 14.3981 10.555 14.0207 10.7463C13.4273 11.0469 12.8339 11.3475 12.2418 11.6494C12.1767 11.6832 12.1143 11.7223 12.0453 11.7483C12.0479 11.7301 12.0518 11.7132 12.0544 11.695C12.1819 11.6169 12.3186 11.557 12.4513 11.4893C13.0799 11.1692 13.7097 10.8504 14.3383 10.5315C14.5894 10.404 14.8393 10.2752 15.0904 10.1503C15.1347 10.1281 15.1542 10.1047 15.1529 10.0527C15.1503 9.90951 15.1529 9.76636 15.1542 9.62451C15.1711 9.62842 15.1932 9.62061 15.2037 9.64143Z" fill="#FECF95"/>
<path d="M11.9529 6.45215C11.9633 6.62523 12.0024 6.80611 11.8423 6.94015C11.7616 7.00782 11.6692 7.05467 11.5677 7.0833C11.2437 7.1757 10.9275 7.16529 10.6229 7.00912C10.4772 6.93365 10.3874 6.82043 10.4043 6.64605C10.4095 6.58228 10.3939 6.51722 10.4134 6.45345C10.4577 6.5953 10.5696 6.66947 10.6945 6.72153C10.9964 6.84515 11.3062 6.84776 11.6133 6.74365C11.7512 6.6968 11.88 6.62653 11.9412 6.47818C11.949 6.47687 11.9516 6.47167 11.9503 6.46386C11.9516 6.45996 11.9516 6.45605 11.9529 6.45215Z" fill="#E7902B"/>
<path d="M13.8385 7.45426C13.8528 7.62083 13.8893 7.79391 13.7435 7.92664C13.6693 7.99431 13.5809 8.04116 13.4846 8.06979C13.1579 8.16869 12.8365 8.16349 12.5268 8.00993C12.3706 7.93315 12.2769 7.81082 12.2925 7.62603C12.2977 7.56357 12.2821 7.5011 12.3016 7.43994C12.3368 7.55576 12.4214 7.62733 12.5216 7.68329C12.6322 7.74446 12.7532 7.77829 12.8794 7.79391C13.1358 7.82514 13.3857 7.80692 13.6186 7.6859C13.7175 7.63644 13.8047 7.57008 13.8385 7.45426Z" fill="#E7902B"/>
<path d="M11.9529 8.43018C11.9659 8.53949 11.9737 8.6501 11.9477 8.75811C11.9165 8.88695 11.8149 8.95982 11.7017 9.00927C11.3595 9.15893 11.0133 9.16023 10.6711 9.01318C10.5539 8.96373 10.4472 8.88955 10.416 8.75421C10.3926 8.6514 10.3965 8.546 10.4147 8.44059C10.4668 8.58373 10.5839 8.65791 10.7153 8.70736C11.0276 8.82578 11.3426 8.82448 11.6536 8.70476C11.7876 8.65531 11.9047 8.57723 11.9529 8.43018Z" fill="#E7902B"/>
<path d="M9.90847 7.41357C9.98785 7.64651 9.91107 7.85733 9.68334 7.96144C9.31245 8.13062 8.93636 8.12931 8.57069 7.93932C8.43665 7.86904 8.35336 7.76103 8.37288 7.59837C8.37939 7.5372 8.35857 7.47474 8.3859 7.41488C8.41192 7.49165 8.46658 7.54631 8.53165 7.59186C8.84006 7.80658 9.43868 7.81048 9.75101 7.59967C9.82128 7.55152 9.87984 7.49556 9.90847 7.41357Z" fill="#E7902B"/>
<path d="M17.3288 11.7837C17.3418 11.867 17.3431 11.9529 17.3314 12.0349C17.3131 12.1624 17.2142 12.2261 17.1088 12.2769C16.9566 12.3511 16.7939 12.3771 16.626 12.3849C16.4204 12.394 16.2226 12.3693 16.0313 12.2912C15.9767 12.2691 15.9259 12.2392 15.8817 12.2014C15.8153 12.1468 15.7736 12.0778 15.7788 11.988C15.7828 11.9242 15.7697 11.8592 15.7867 11.7954C15.8205 11.8904 15.896 11.9438 15.9793 11.988C16.1094 12.057 16.2499 12.0895 16.3944 12.1025C16.6547 12.1259 16.9084 12.1051 17.1453 11.9815C17.2272 11.9386 17.3001 11.8813 17.3288 11.7837Z" fill="#A71803"/>
<path d="M17.0555 9.97607C17.0672 10.0594 17.0646 10.1452 17.0581 10.2285C17.0516 10.3157 16.9865 10.3691 16.9215 10.4159C16.8044 10.4992 16.6677 10.537 16.5285 10.5565C16.2682 10.5955 16.0118 10.5812 15.7646 10.481C15.6956 10.4537 15.6332 10.4159 15.5811 10.3626C15.5303 10.3105 15.503 10.2494 15.5043 10.1765C15.5056 10.1101 15.5082 10.0424 15.5095 9.97607C15.5434 10.0698 15.6149 10.127 15.6982 10.1726C15.8505 10.2546 16.0157 10.2858 16.1849 10.2962C16.4218 10.3092 16.6521 10.2845 16.8668 10.1726C16.9527 10.1283 17.0256 10.0724 17.0555 9.97607Z" fill="#A71803"/>
<path d="M14.0234 11.7837C14.0351 11.8631 14.0325 11.9438 14.026 12.0231C14.0195 12.1142 13.9596 12.1767 13.888 12.2261C13.7527 12.3198 13.5965 12.3602 13.4377 12.3771C13.1931 12.4031 12.9497 12.3875 12.7194 12.2886C12.6556 12.2613 12.5958 12.2248 12.5463 12.1754C12.4969 12.1259 12.4682 12.0661 12.4722 11.9945C12.4761 11.9281 12.4617 11.8605 12.48 11.7941C12.5151 11.8995 12.5997 11.9581 12.6947 11.9984C13.0617 12.152 13.4312 12.1507 13.7982 12.001C13.8997 11.962 13.9856 11.8956 14.0234 11.7837Z" fill="#A71803"/>
<path d="M17.0555 9.97606C17.0256 10.0724 16.9514 10.1283 16.8668 10.1726C16.6521 10.2832 16.4218 10.3092 16.1849 10.2962C16.0157 10.2871 15.8505 10.2545 15.6982 10.1726C15.6136 10.127 15.5421 10.0711 15.5095 9.97606C15.516 9.96825 15.5173 9.94222 15.5329 9.96435C15.6514 10.1361 15.8362 10.1869 16.0249 10.2181C16.2656 10.2571 16.5064 10.2493 16.7406 10.1687C16.8655 10.1257 16.9774 10.0646 17.0503 9.94873L17.0529 9.95133C17.0529 9.95914 17.0542 9.96695 17.0555 9.97606Z" fill="#FECF95"/>
<path d="M14.0234 11.7837C13.9856 11.8956 13.8984 11.9607 13.7969 12.0023C13.43 12.152 13.0604 12.1533 12.6934 11.9997C12.5984 11.9607 12.5151 11.9008 12.4787 11.7954C12.4774 11.7876 12.4722 11.7772 12.4748 11.7707C12.4787 11.759 12.4878 11.7603 12.493 11.7694C12.5997 11.9411 12.778 11.988 12.9563 12.0231C13.2322 12.0791 13.5054 12.0622 13.7696 11.9529C13.8594 11.9164 13.9388 11.867 13.9908 11.7811C14.0039 11.7655 14.0143 11.7537 14.0234 11.7837Z" fill="#FECF95"/>
<path d="M17.3288 11.7835C17.3002 11.8798 17.2286 11.9383 17.144 11.9813C16.9072 12.1049 16.6534 12.1244 16.3931 12.1023C16.2487 12.0893 16.1068 12.0567 15.978 11.9878C15.8947 11.9435 15.8192 11.8902 15.7854 11.7952C15.7906 11.7861 15.7919 11.7613 15.8075 11.7835C15.9207 11.9409 16.0925 11.9891 16.2669 12.0242C16.5298 12.0763 16.7913 12.0619 17.0451 11.9682C17.1479 11.9305 17.2429 11.8798 17.3028 11.7822C17.3132 11.7665 17.321 11.7587 17.3288 11.7835Z" fill="#FECF95"/>
<path d="M15.788 11.7402C15.7854 11.7441 15.7841 11.7467 15.7815 11.7506C15.7802 11.7467 15.7763 11.7428 15.7763 11.7389C15.7763 11.735 15.7802 11.7324 15.7815 11.7285C15.7841 11.7324 15.7867 11.7363 15.788 11.7402Z" fill="#FECF95"/>
<path d="M17.049 9.94823C17.0516 9.93912 17.0542 9.93001 17.0568 9.9209C17.0581 9.9222 17.0607 9.9235 17.062 9.9248C17.0646 9.93521 17.062 9.94432 17.0529 9.95083C17.0516 9.95083 17.049 9.94823 17.049 9.94823Z" fill="#FECF95"/>
<path d="M8.07495 13.9451C8.14653 14.1078 8.27145 14.1846 8.4159 14.2353C8.71912 14.3408 9.02233 14.3382 9.32294 14.2236C9.45438 14.1729 9.56759 14.0961 9.63266 13.9438C9.63266 14.0467 9.63656 14.1325 9.63136 14.2171C9.62615 14.3199 9.56759 14.3941 9.48821 14.454C9.36458 14.5477 9.22013 14.5932 9.06918 14.6166C8.81411 14.6557 8.56426 14.6336 8.32741 14.5216C8.26625 14.493 8.21029 14.4566 8.16344 14.4071C8.10618 14.3447 8.06975 14.2731 8.07365 14.1846C8.07755 14.1091 8.07495 14.0349 8.07495 13.9451Z" fill="#0174A9"/>
<path d="M11.664 15.0117C11.664 15.0976 11.6692 15.1848 11.6627 15.2694C11.6549 15.3748 11.5873 15.4464 11.5053 15.5036C11.3842 15.5895 11.2463 15.6312 11.1006 15.6533C10.8377 15.6923 10.5826 15.6676 10.3419 15.5466C10.2833 15.5166 10.2313 15.4789 10.1883 15.4295C10.1389 15.3735 10.1102 15.3123 10.1128 15.2355C10.1154 15.1627 10.1141 15.0885 10.1141 15.0182C10.3367 15.3227 10.6607 15.3566 11.0004 15.341C11.1513 15.3345 11.2958 15.298 11.4298 15.2277C11.5274 15.1783 11.6081 15.1119 11.664 15.0117Z" fill="#0174A9"/>
<path d="M10.1154 13.0877C10.1922 13.2296 10.3184 13.305 10.4603 13.3519C10.783 13.4586 11.1018 13.4534 11.4141 13.3102C11.5196 13.2621 11.6054 13.1918 11.6614 13.0708C11.6614 13.1801 11.6718 13.2764 11.6588 13.3701C11.6432 13.4833 11.556 13.5536 11.4623 13.607C11.258 13.7228 11.0355 13.7553 10.8038 13.7423C10.6385 13.7319 10.4785 13.698 10.3314 13.6161C10.1883 13.5367 10.0959 13.4274 10.1141 13.2504C10.1193 13.197 10.1154 13.1424 10.1154 13.0877Z" fill="#0174A9"/>
</svg>
