<svg width="24" height="24" viewBox="0 0 24 24" fill="none" xmlns="http://www.w3.org/2000/svg">
<path d="M12 24C18.6274 24 24 18.6274 24 12C24 5.37258 18.6274 0 12 0C5.37258 0 0 5.37258 0 12C0 18.6274 5.37258 24 12 24Z" fill="#1E1E1E"/>
<path d="M23.5 12C23.5 18.3513 18.3513 23.5 12 23.5C5.64873 23.5 0.5 18.3513 0.5 12C0.5 5.64873 5.64873 0.5 12 0.5C18.3513 0.5 23.5 5.64873 23.5 12Z" stroke="white" stroke-opacity="0.3"/>
<path d="M3.45126 10.9102C3.82606 10.9102 4.1137 11.033 4.31418 11.2786C4.51465 11.5199 4.61487 11.871 4.61487 12.3321V13.8574H3.98731V12.3321C3.98731 12.0434 3.93718 11.8301 3.83696 11.6922C3.73671 11.55 3.56893 11.4789 3.33359 11.4789C3.13747 11.4789 2.96968 11.5608 2.83022 11.7245C2.69512 11.884 2.62757 12.0951 2.62757 12.3579V13.8574H2V10.9619H2.62757V11.3238C2.68423 11.2161 2.78446 11.1213 2.92828 11.0394C3.0721 10.9532 3.24643 10.9102 3.45126 10.9102Z" fill="white"/>
<path d="M5.57056 13.8575V10.9619H6.19813V13.8575H5.57056Z" fill="white"/>
<path d="M10.423 10.9102C10.776 10.9102 11.0484 11.033 11.2401 11.2786C11.4362 11.5242 11.5343 11.8753 11.5343 12.3321V13.8574H10.9067V12.3321C10.9067 12.0477 10.8588 11.8344 10.7629 11.6922C10.6714 11.55 10.5189 11.4789 10.3053 11.4789C10.1092 11.4789 9.95011 11.5586 9.82809 11.7181C9.71042 11.8775 9.65159 12.0908 9.65159 12.3579V13.8574H9.02401V12.3321C9.02401 12.0477 8.97607 11.8344 8.88019 11.6922C8.78866 11.55 8.63614 11.4789 8.42258 11.4789C8.22647 11.4789 8.06739 11.5586 7.94538 11.7181C7.8277 11.8775 7.76886 12.0908 7.76886 12.3579V13.8574H7.1413V10.9619H7.76886V11.3238C7.82988 11.2376 7.88653 11.1708 7.93882 11.1234C7.99113 11.0717 8.06957 11.0243 8.17417 10.9812C8.28312 10.9338 8.40515 10.9102 8.54025 10.9102C8.95427 10.9102 9.25498 11.0739 9.44238 11.4014C9.5862 11.2204 9.73002 11.0933 9.87385 11.02C10.022 10.9468 10.2051 10.9102 10.423 10.9102Z" fill="white"/>
<path d="M13.0548 9.63672V11.3241C13.3032 11.0484 13.617 10.9105 13.9962 10.9105C14.4015 10.9105 14.7458 11.0591 15.029 11.3564C15.3167 11.6494 15.4605 12.0006 15.4605 12.41C15.4605 12.8279 15.3167 13.1834 15.029 13.4764C14.7458 13.7651 14.4015 13.9094 13.9962 13.9094C13.617 13.9094 13.3032 13.7716 13.0548 13.4958V13.8578H12.4272V9.63672H13.0548ZM13.3098 13.0692C13.4841 13.2502 13.6955 13.3407 13.9439 13.3407C14.1923 13.3407 14.4015 13.2502 14.5714 13.0692C14.7458 12.8882 14.8329 12.6685 14.8329 12.41C14.8329 12.1514 14.7458 11.9317 14.5714 11.7507C14.4015 11.5697 14.1923 11.4792 13.9439 11.4792C13.6955 11.4792 13.4841 11.5697 13.3098 11.7507C13.1398 11.9317 13.0548 12.1514 13.0548 12.41C13.0548 12.6685 13.1398 12.8882 13.3098 13.0692Z" fill="white"/>
<path d="M17.4354 13.9092C17.0606 13.9092 16.773 13.7885 16.5725 13.5472C16.372 13.3016 16.2718 12.9483 16.2718 12.4873V10.9619H16.8994V12.539C16.8994 12.8018 16.9495 13.0022 17.0497 13.1401C17.15 13.2736 17.3178 13.3404 17.5531 13.3404C17.7536 13.3404 17.9213 13.2564 18.0565 13.0884C18.1916 12.9203 18.2591 12.6941 18.2591 12.4097V10.9619H18.8867V13.8575H18.2591V13.4955C18.2025 13.6033 18.1022 13.7002 17.9584 13.7864C17.8146 13.8683 17.6403 13.9092 17.4354 13.9092Z" fill="white"/>
<path d="M21.0652 12.0477C21.6884 12.1899 22 12.5044 22 12.9913C22 13.2628 21.8954 13.4847 21.6862 13.6571C21.4813 13.8251 21.2395 13.9091 20.9606 13.9091C20.5205 13.9091 20.1346 13.7454 19.8034 13.4179L20.1172 12.9655C20.3745 13.2111 20.6424 13.3361 20.9213 13.3404C21.0652 13.3404 21.1762 13.3081 21.2548 13.2434C21.3332 13.1745 21.3723 13.1012 21.3723 13.0237C21.3723 12.8642 21.2374 12.7457 20.9671 12.6682C20.5836 12.5648 20.32 12.4484 20.1761 12.3192C20.0323 12.1856 19.9603 11.9938 19.9603 11.7439C19.9603 11.5199 20.0475 11.326 20.2219 11.1622C20.4005 10.9942 20.6445 10.9102 20.954 10.9102C21.2678 10.9102 21.665 11.0933 21.9135 11.2915L21.6193 11.7439C21.445 11.6233 21.2548 11.4789 20.954 11.4789C20.8408 11.4789 20.7514 11.5026 20.686 11.55C20.6206 11.5974 20.588 11.6556 20.588 11.7245C20.588 11.8064 20.6206 11.871 20.686 11.9184C20.7558 11.9615 20.8821 12.0046 21.0652 12.0477Z" fill="white"/>
<path d="M11.5473 9H7.1427V9.6574H11.5473V9Z" fill="#FF001F"/>
</svg>
