<svg width="24" height="24" viewBox="0 0 24 24" fill="none" xmlns="http://www.w3.org/2000/svg">
<path d="M12 24C18.6274 24 24 18.6274 24 12C24 5.37258 18.6274 0 12 0C5.37258 0 0 5.37258 0 12C0 18.6274 5.37258 24 12 24Z" fill="#D8B971"/>
<path d="M11.6062 12.4501L6 18V6.10209H9.39375L11.9906 8.66357L14.6812 6H18V18L12.4219 12.478L14.0156 10.891L15.6375 12.4965V8.4594L12 12.0603L8.39062 8.48724V12.3016L9.91875 10.7889L11.6062 12.4501Z" fill="white"/>
<path d="M23.5 12C23.5 18.3513 18.3513 23.5 12 23.5C5.64873 23.5 0.5 18.3513 0.5 12C0.5 5.64873 5.64873 0.5 12 0.5C18.3513 0.5 23.5 5.64873 23.5 12Z" stroke="white" stroke-opacity="0.3"/>
</svg>
