<svg width="480" height="480" viewBox="0 0 480 480" fill="none" xmlns="http://www.w3.org/2000/svg">
<mask id="mask0-068354" mask-type="alpha" maskUnits="userSpaceOnUse" x="0" y="0" width="480" height="480">
<circle cx="240" cy="240" r="240" fill="url(#paint0_linear-634237)"/>
</mask>
<g mask="url(#mask0-068354)">
<circle cx="240" cy="240" r="240" fill="#FF1E39"/>
<circle cx="240" cy="240" r="208" fill="white"/>
</g>
<circle cx="240" cy="240" r="184" fill="#0E052F"/>
<path d="M240 424C341.62 424 424 341.62 424 240C424 138.38 341.62 56 240 56C138.38 56 56 138.38 56 240C56 341.62 138.38 424 240 424Z" fill="#001B3A"/>
<path d="M159.799 166.814L157.177 162.513L125 181.028V178.222L237.045 113.5L239.46 114.995L244.543 117.801L249.579 120.791L180.924 160.443L178.314 156.142L159.799 166.814ZM159.799 207.582L157.177 203.281L125 221.796V218.794L272.384 133.889L274.845 135.385L279.882 138.179L284.93 141.169L216.08 180.844L213.665 176.532L159.799 207.582ZM159.799 227.96L157.177 223.498L125 242.174V239.207L289.979 143.975L292.394 145.47L297.477 148.472L302.514 151.3L233.664 190.941L231.249 186.652L159.799 227.96ZM159.799 248.177L157.177 243.876L125 262.391V259.596L307.562 154.268L309.977 155.59L315.037 158.569L320.098 161.386L251.833 200.866L249.384 196.542L159.799 248.177ZM159.799 268.555L157.177 264.265L125 282.78V279.974L325.146 164.399L327.779 165.86L332.609 168.689L337.693 171.679L269.417 211.158L266.967 206.662L159.799 268.555ZM345.329 175.979L349.078 178.222V185.524L269.417 231.341L266.967 227.04L159.799 288.944L157.177 284.643L125 303.158V300.364L342.741 174.485L345.329 175.979ZM138.835 315.521L136.42 314.026L349.078 191.321V205.707L269.015 252.098L266.416 247.625L159.431 309.529L156.798 305.228L138.835 315.521ZM266.416 268.014L177.36 319.442L174.76 315.153L156.429 325.813L154.014 324.318L349.078 211.699V226.12L269.015 272.511L266.416 268.014ZM174.013 335.91L171.563 334.415L349.078 231.916V246.498L269.015 292.693L266.416 288.392L194.943 329.735L192.528 325.25L174.013 335.91ZM191.769 345.996L189.147 344.708L349.078 252.294V266.887L269.015 313.071L266.416 308.782L212.538 339.832L210.112 335.531L191.769 345.996ZM206.742 354.793L349.078 272.683V287.265L269.015 333.495L266.416 329.16L230.121 350.124L227.706 345.628L209.364 356.288L206.742 354.793ZM226.947 366.385L224.498 365.086L349.078 293.061V307.655L269.015 353.873L266.416 349.377L247.877 360.21L245.29 355.92L226.947 366.385ZM267.347 130.888L198.519 170.563L196.07 166.262L159.799 187.192L157.177 182.903L125 201.418V198.6L254.628 123.574L257.25 125.069L262.298 128.082L267.347 130.877V130.888Z" fill="white"/>
<defs>
<linearGradient id="paint0_linear-634237" x1="240" y1="0" x2="240" y2="701.818" gradientUnits="userSpaceOnUse">
<stop stop-color="#08021E"/>
<stop offset="1" stop-color="#1F0777"/>
</linearGradient>
</defs>
</svg>