<svg width="24" height="24" viewBox="0 0 24 24" fill="none" xmlns="http://www.w3.org/2000/svg">
<path d="M12 24C18.6274 24 24 18.6274 24 12C24 5.37258 18.6274 0 12 0C5.37258 0 0 5.37258 0 12C0 18.6274 5.37258 24 12 24Z" fill="#F77920"/>
<path fill-rule="evenodd" clip-rule="evenodd" d="M4 6C4.8832 6.0015 5.7672 6.0015 6.64959 6L8.32238 14.3851C8.34878 14.5089 8.38078 14.6311 8.41518 14.7526C8.54638 14.2651 8.62878 13.7671 8.73838 13.2751L10.2616 6L12.8248 6.00075C11.8848 9.9248 10.9448 13.8496 10.0032 17.7737H6.82159C5.88 13.8519 4.94 9.93005 4 6.0075V6ZM13.8512 9.69905C14.4088 9.04204 15.3 8.74429 16.1592 8.69178C17.0072 8.63628 17.9208 8.70828 18.6392 9.18229C19.2752 9.5993 19.624 10.3043 19.7896 11.0056C19.9904 11.8846 20.0008 12.7876 20 13.6831H15.304C15.308 14.3454 15.264 15.0286 15.5 15.6632C15.6144 15.9752 15.828 16.2857 16.1672 16.3989C16.5288 16.5092 16.964 16.4372 17.228 16.1642C17.58 15.7907 17.6536 15.2671 17.7304 14.7879H19.8616C19.8136 15.5829 19.6568 16.4229 19.1016 17.0477C18.5448 17.6972 17.6472 17.9627 16.7976 17.9949C15.8744 18.0279 14.872 17.9102 14.136 17.3274C13.452 16.7927 13.1536 15.9452 13.0352 15.1329C12.9168 14.1976 12.9104 13.2511 12.9656 12.3113C13.04 11.3948 13.2168 10.4243 13.8504 9.6983L13.8512 9.69905ZM15.6704 10.6328C15.3072 11.1233 15.2976 11.7548 15.304 12.3331H17.7296C17.692 11.7833 17.696 11.2028 17.432 10.6996C17.104 10.0786 16.0672 10.0763 15.672 10.6336H15.6704V10.6328Z" fill="white"/>
<path d="M23.5 12C23.5 18.3513 18.3513 23.5 12 23.5C5.64873 23.5 0.5 18.3513 0.5 12C0.5 5.64873 5.64873 0.5 12 0.5C18.3513 0.5 23.5 5.64873 23.5 12Z" stroke="white" stroke-opacity="0.3"/>
</svg>
