<svg width="24" height="24" viewBox="0 0 24 24" fill="none" xmlns="http://www.w3.org/2000/svg">
<path fill-rule="evenodd" clip-rule="evenodd" d="M0 12C0 5.37259 5.37259 0 12 0C18.6274 0 24 5.37259 24 12C24 18.6274 18.6274 24 12 24C5.37259 24 0 18.6274 0 12Z" fill="#0D8BF4"/>
<path d="M23.5 12C23.5 18.3513 18.3513 23.5 12 23.5C5.64873 23.5 0.5 18.3513 0.5 12C0.5 5.64873 5.64873 0.5 12 0.5C18.3513 0.5 23.5 5.64873 23.5 12Z" stroke="white" stroke-opacity="0.3"/>
<path d="M12.0355 2.78027C12.1507 2.89055 12.2977 2.94937 12.4325 3.02778C14.9199 4.46629 17.4073 5.90234 19.8971 7.33595C19.9755 7.38006 20 7.43152 20 7.51974C19.9975 10.5046 19.9975 13.4894 20 16.4743C20 16.5894 19.9681 16.6531 19.8652 16.7144C17.2872 18.1995 14.7116 19.687 12.136 21.177C12.038 21.2333 11.9694 21.2358 11.8713 21.1794C9.43054 19.7654 6.98974 18.3563 4.54648 16.9472C4.39945 16.8614 4.24996 16.7732 4.10047 16.6924C4.03186 16.6556 4 16.6115 4 16.5282C4.00245 13.5188 4.00245 10.5095 4 7.50014C4 7.41682 4.03431 7.37761 4.10047 7.34085C6.48001 5.96851 8.85955 4.59372 11.2391 3.22138C11.4547 3.0964 11.6704 2.97387 11.886 2.84889C11.9155 2.83174 11.9547 2.82438 11.962 2.78027C11.9865 2.78027 12.011 2.78027 12.0355 2.78027ZM4.1936 7.43397C4.25731 7.47318 4.29652 7.49769 4.33818 7.52219C6.85741 8.97785 9.37663 10.4311 11.8958 11.8867C11.9743 11.9308 12.0282 11.9308 12.1042 11.8867C12.5673 11.6147 13.0354 11.3476 13.501 11.078C15.5669 9.88458 17.6303 8.69358 19.6961 7.50014C19.8138 7.43152 19.8138 7.43152 19.6937 7.3629C18.787 6.83847 17.8802 6.3165 16.9735 5.79207C15.3684 4.87064 13.7632 3.94431 12.1581 3.01308C12.0404 2.94446 11.962 2.94446 11.8444 3.01308C9.65845 4.28004 7.46761 5.5421 5.27922 6.80417C4.92388 7.01002 4.56854 7.21587 4.1936 7.43397ZM12.0625 15.1607C12.1948 15.0848 12.3076 15.0137 12.4276 14.9549C12.5085 14.9157 12.5355 14.8642 12.533 14.7735C12.5281 14.0089 12.533 13.2468 12.5281 12.4822C12.5281 12.3646 12.5673 12.3009 12.6678 12.2421C14.3685 11.2643 16.0643 10.284 17.7626 9.30378C18.2576 9.01951 18.7502 8.73279 19.2452 8.44852C19.3726 8.375 19.4045 8.39461 19.407 8.54655C19.407 8.5588 19.407 8.57105 19.407 8.58331C19.407 11.1025 19.407 13.6217 19.4094 16.141C19.4094 16.2488 19.3751 16.3076 19.282 16.3615C17.0911 17.6236 14.9027 18.8881 12.7144 20.1502C12.5575 20.2408 12.5306 20.2261 12.5306 20.0399C12.5306 18.8636 12.5306 17.6873 12.5306 16.511C12.5306 16.4693 12.5428 16.4228 12.511 16.3713C12.3933 16.4399 12.2806 16.511 12.163 16.5698C12.0796 16.609 12.06 16.6629 12.06 16.7512C12.0625 18.1431 12.0625 19.5351 12.0625 20.927C12.0625 20.9662 12.0625 21.0054 12.0625 21.0446C12.114 21.0495 12.1409 21.0201 12.1728 21.003C14.7042 19.5424 17.2357 18.0794 19.7696 16.6213C19.8505 16.5747 19.8799 16.5282 19.8799 16.4326C19.8775 13.5139 19.8775 10.5928 19.8775 7.67413C19.8775 7.63492 19.8775 7.59816 19.8775 7.5418C19.7966 7.58836 19.7329 7.62267 19.6692 7.65698C18.586 8.28188 17.5004 8.90924 16.4172 9.53414C14.9983 10.3526 13.5794 11.1736 12.1581 11.9921C12.1042 12.024 12.06 12.0485 12.06 12.1269C12.0625 13.1341 12.0625 14.1339 12.0625 15.1607ZM11.4694 16.364C11.4694 16.4326 11.4694 16.4767 11.4694 16.5233C11.4694 17.6947 11.4694 18.866 11.4694 20.0374C11.4694 20.0693 11.4719 20.1036 11.4694 20.1355C11.4645 20.2016 11.4253 20.2188 11.3665 20.1967C11.3322 20.182 11.3028 20.1624 11.2709 20.1428C9.08746 18.8807 6.90397 17.6187 4.71803 16.3591C4.63471 16.3101 4.5955 16.2635 4.5955 16.1606C4.59795 13.6242 4.59795 11.0903 4.59795 8.5539C4.59795 8.50734 4.57834 8.45097 4.62735 8.41666C4.68372 8.3799 4.72783 8.42892 4.77194 8.45587C6.96033 9.71793 9.14872 10.9824 11.3371 12.2445C11.4327 12.2984 11.4743 12.3572 11.4743 12.4724C11.4694 13.2395 11.4719 14.0065 11.4719 14.776C11.4719 14.8225 11.4498 14.8765 11.5062 14.9083C11.6459 14.9892 11.7856 15.0701 11.9351 15.1558C11.9375 15.1191 11.94 15.0995 11.94 15.0799C11.94 14.0996 11.94 13.1194 11.9424 12.1391C11.9424 12.0632 11.9106 12.0338 11.8517 11.9994C9.31046 10.534 6.76918 9.06852 4.22791 7.60061C4.14459 7.5516 4.12498 7.5565 4.12498 7.65698C4.12743 10.5928 4.12743 13.5286 4.12498 16.4644C4.12498 16.5331 4.14214 16.5747 4.20585 16.609C4.63226 16.8492 5.05376 17.0943 5.47771 17.3393C7.35978 18.4249 9.23939 19.513 11.119 20.5986C11.3861 20.753 11.6532 20.9049 11.9375 21.0691C11.9375 21.0079 11.9375 20.9687 11.9375 20.9295C11.9375 20.5913 11.9375 20.2506 11.9375 19.9124C11.9375 18.8562 11.9375 17.7976 11.9375 16.7414C11.9375 16.6924 11.9547 16.6384 11.8909 16.6017C11.7562 16.5306 11.6238 16.4522 11.4694 16.364ZM19.2158 16.2561C19.1692 16.2292 19.1496 16.2169 19.1276 16.2047C17.9023 15.4965 16.6794 14.7907 15.4541 14.08C15.388 14.0408 15.3389 14.0531 15.2777 14.0898C14.219 14.7025 13.1604 15.3127 12.1017 15.9253C12.0306 15.967 11.9767 15.9719 11.9008 15.9278C10.8372 15.3102 9.76872 14.6976 8.70516 14.0776C8.61449 14.0236 8.55077 14.0285 8.46255 14.08C7.35243 14.7245 6.23985 15.3666 5.12728 16.0086C5.00475 16.0797 4.88467 16.1508 4.74253 16.2316C6.95053 17.506 9.13892 18.7705 11.342 20.0423C11.342 19.8561 11.3347 19.6968 11.3445 19.5375C11.3494 19.437 11.3126 19.388 11.2268 19.339C9.46485 18.322 7.70041 17.3026 5.93353 16.2831C5.78894 16.1998 5.78894 16.1704 5.93598 16.0846C6.77899 15.5969 7.62444 15.1093 8.465 14.6191C8.54832 14.5701 8.60959 14.5652 8.69781 14.6167C9.75892 15.2342 10.8225 15.8444 11.8811 16.462C11.9743 16.5159 12.0355 16.5086 12.1213 16.4571C13.1653 15.8518 14.2117 15.2489 15.2556 14.6461C15.3316 14.602 15.3929 14.5873 15.4786 14.6363C16.3314 15.1338 17.1867 15.6239 18.0395 16.1189C18.1669 16.1924 18.1669 16.2267 18.042 16.3003C17.2994 16.7291 16.5594 17.1555 15.8168 17.5844C14.7925 18.175 13.7681 18.768 12.7462 19.3586C12.707 19.3807 12.658 19.3929 12.658 19.4493C12.658 19.6404 12.658 19.8291 12.658 20.0448C14.8513 18.7754 17.025 17.5207 19.2158 16.2561ZM6.0193 16.1802C6.0438 16.1998 6.05361 16.2071 6.06341 16.212C7.79109 17.2119 9.52121 18.2093 11.2489 19.2091C11.3371 19.2606 11.3445 19.2287 11.3445 19.1454C11.342 18.2264 11.342 17.3075 11.3445 16.3885C11.3445 16.3125 11.3224 16.2709 11.2562 16.2341C10.4034 15.7464 9.55307 15.2563 8.70516 14.7613C8.61694 14.7098 8.55077 14.7074 8.46255 14.7613C8.0337 15.0137 7.60239 15.2612 7.17353 15.5087C6.79369 15.7317 6.41385 15.9523 6.0193 16.1802ZM18.5983 15.0627C18.5983 13.0214 18.5983 11.0045 18.5983 8.97295C18.5713 8.9852 18.5517 8.99256 18.5345 9.00236C17.7234 9.47042 16.9122 9.94094 16.0986 10.4066C16.03 10.4458 16.03 10.4972 16.03 10.5585C16.03 11.5289 16.0325 12.5018 16.0276 13.4723C16.0276 13.558 16.057 13.5997 16.1305 13.6414C16.6476 13.9354 17.1597 14.2369 17.6768 14.5334C17.9807 14.7098 18.2821 14.8814 18.5983 15.0627ZM12.658 17.7633C12.658 18.2166 12.658 18.67 12.658 19.1234C12.658 19.2606 12.658 19.2606 12.7756 19.1944C14.4641 18.2191 16.1501 17.2462 17.8386 16.2733C17.9145 16.2292 17.9513 16.2096 17.8435 16.1483C17.0446 15.6901 16.2481 15.2293 15.4517 14.7662C15.3806 14.7245 15.334 14.7466 15.2752 14.7809C14.4347 15.2661 13.5966 15.7513 12.7536 16.2341C12.68 16.2758 12.6531 16.3248 12.6555 16.4081C12.6604 16.8565 12.658 17.3099 12.658 17.7633ZM5.40175 8.9656C5.40175 10.9873 5.40175 12.9919 5.40175 15.0088C5.43115 14.9941 5.45321 14.9843 5.47281 14.9745C6.28151 14.5089 7.08776 14.0408 7.89891 13.5776C7.96508 13.5384 7.97243 13.4919 7.97243 13.4281C7.97243 12.4724 7.96998 11.5191 7.97488 10.5634C7.97488 10.4727 7.94302 10.4262 7.86705 10.3845C7.21029 10.0096 6.55353 9.62971 5.89677 9.24987C5.73748 9.15675 5.57574 9.06607 5.40175 8.9656ZM15.9075 10.5217C15.7654 10.6026 15.6453 10.6761 15.5252 10.7398C15.459 10.7741 15.437 10.8183 15.437 10.8942C15.4394 11.8696 15.4394 12.8449 15.437 13.8202C15.437 13.8987 15.459 13.9428 15.5301 13.982C16.4589 14.5162 17.3877 15.0529 18.314 15.5871C18.6105 15.7587 18.907 15.9278 19.2036 16.0993C19.2648 16.1361 19.2918 16.1336 19.2844 16.0552C19.282 16.0356 19.2844 16.0135 19.2844 15.9939C19.2844 13.5703 19.2844 11.1442 19.2844 8.72054C19.2844 8.69603 19.282 8.67153 19.2844 8.64702C19.2893 8.5833 19.2648 8.5784 19.2134 8.60781C19.0908 8.68133 18.9707 8.7573 18.8433 8.82101C18.7551 8.86512 18.7281 8.92149 18.7281 9.01951C18.7306 11.0315 18.7306 13.0434 18.7306 15.0554C18.7306 15.2588 18.711 15.271 18.537 15.1705C17.6964 14.6853 16.8583 14.2001 16.0178 13.7173C15.9369 13.6708 15.9075 13.6193 15.9075 13.5237C15.9099 12.5729 15.9099 11.6221 15.9099 10.6712C15.9075 10.6296 15.9075 10.5854 15.9075 10.5217ZM4.72783 16.092C4.77684 16.065 4.8087 16.0503 4.84056 16.0307C6.0438 15.3347 7.24705 14.6387 8.45275 13.9477C8.53362 13.9011 8.56303 13.8521 8.56303 13.7565C8.55813 12.8988 8.54587 12.0411 8.57038 11.1834C8.57773 10.882 8.50911 10.6933 8.21994 10.5879C8.08761 10.5389 8.09496 10.5217 8.09496 10.6639C8.09496 11.6024 8.09251 12.541 8.09741 13.4821C8.09741 13.5776 8.06555 13.6266 7.98468 13.6732C7.14658 14.1535 6.31092 14.6387 5.47281 15.1191C5.4238 15.1485 5.37234 15.2097 5.30862 15.1779C5.24001 15.1436 5.27431 15.0676 5.27431 15.0088C5.27186 13.0655 5.27186 11.1221 5.27186 9.1788C5.27186 9.10528 5.27186 9.03177 5.27186 8.95825C5.27186 8.92639 5.27922 8.89453 5.24246 8.87248C5.07582 8.7769 4.90672 8.67888 4.72783 8.57595C4.72783 11.0903 4.72783 13.5801 4.72783 16.092ZM15.3144 10.8648C15.1895 10.9359 15.0816 11.0021 14.9714 11.0584C14.8978 11.0952 14.8782 11.1417 14.8782 11.2202C14.8807 11.9994 14.8782 12.7787 14.8831 13.5605C14.8831 13.6512 14.8537 13.6977 14.7778 13.7418C13.8857 14.2516 12.9962 14.7637 12.1066 15.2808C12.0282 15.3249 11.9743 15.3249 11.8958 15.2808C11.0087 14.7662 10.1167 14.2516 9.22714 13.7418C9.15117 13.6977 9.11931 13.6487 9.11931 13.5605C9.12421 12.867 9.10706 12.171 9.12912 11.4775C9.13892 11.203 9.0752 11.0266 8.80809 10.9261C8.68066 10.8771 8.68556 10.8599 8.68556 10.9972C8.68556 11.9284 8.68801 12.8596 8.68311 13.7908C8.68311 13.8864 8.71006 13.9428 8.79583 13.9918C9.82754 14.5824 10.8592 15.1779 11.8885 15.7758C11.9767 15.8273 12.0355 15.8199 12.1189 15.7709C13.1481 15.173 14.1798 14.5775 15.2115 13.9869C15.2875 13.9428 15.3169 13.8938 15.3169 13.8055C15.3144 12.867 15.3144 11.9284 15.3144 10.9873C15.3144 10.953 15.3144 10.9187 15.3144 10.8648ZM11.3445 14.8176C11.3445 14.0187 11.3445 13.2419 11.3469 12.4675C11.3469 12.394 11.3004 12.3719 11.2513 12.3425C10.7441 12.0485 10.2368 11.7544 9.72706 11.4603C9.57022 11.3696 9.41339 11.2814 9.24429 11.1858C9.24429 11.9823 9.24429 12.7567 9.24184 13.5335C9.24184 13.5997 9.2737 13.6266 9.32271 13.6536C9.63884 13.8325 9.95252 14.0163 10.2662 14.1976C10.6191 14.401 10.972 14.602 11.3445 14.8176ZM14.7557 11.1907C14.7214 11.2079 14.7018 11.2177 14.6822 11.2275C14.0328 11.6025 13.3834 11.9798 12.7315 12.3499C12.6653 12.3891 12.658 12.4357 12.658 12.4994C12.658 13.2223 12.658 13.9452 12.658 14.6682C12.658 14.8127 12.6604 14.8152 12.7854 14.7417C13.4103 14.3814 14.0352 14.0187 14.6626 13.6634C14.7386 13.6193 14.7606 13.5727 14.7582 13.4894C14.7557 12.8645 14.7557 12.2396 14.7557 11.6147C14.7557 11.4799 14.7557 11.3427 14.7557 11.1907Z" fill="white"/>
<path d="M18.8041 7.42327C18.7992 7.49679 18.7428 7.50904 18.7036 7.5311C18.1816 7.83252 17.6597 8.13395 17.1352 8.43537C15.4688 9.39601 13.8024 10.3591 12.1384 11.3246C12.038 11.3834 11.962 11.3834 11.8615 11.3246C9.89859 10.1876 7.93321 9.05292 5.96782 7.91584C5.74482 7.78841 5.52181 7.66098 5.30126 7.5311C5.15422 7.44533 5.15422 7.41837 5.30371 7.3326C7.45289 6.09259 9.60452 4.85259 11.7488 3.60523C11.9326 3.4974 12.0625 3.49495 12.2487 3.60523C14.3906 4.85259 16.5373 6.08524 18.6816 7.32525C18.7306 7.3522 18.7943 7.36446 18.8041 7.42327ZM6.05849 7.82272C6.0977 7.84723 6.11486 7.85948 6.13201 7.86928C6.92601 8.32754 7.72 8.78581 8.514 9.24652C8.59977 9.29553 8.66104 9.29308 8.74436 9.24407C9.58001 8.75885 10.4181 8.27608 11.2562 7.79576C11.3273 7.75655 11.3469 7.70999 11.3469 7.63157C11.3444 6.72485 11.3444 5.81813 11.3444 4.9114C11.3444 4.87219 11.3641 4.82073 11.3297 4.79867C11.293 4.77662 11.2562 4.82073 11.2219 4.84033C9.80302 5.65884 8.38412 6.47979 6.96522 7.30074C6.66869 7.46983 6.37217 7.64138 6.05849 7.82272ZM17.9366 7.82517C17.9047 7.80312 17.8851 7.78841 17.8655 7.77616C16.1697 6.79592 14.4714 5.81567 12.7756 4.83788C12.6604 4.77172 12.6604 4.77417 12.6604 4.9016C12.6604 5.81077 12.6604 6.7224 12.658 7.63157C12.658 7.71734 12.6874 7.76145 12.7609 7.80312C13.6015 8.28588 14.442 8.76865 15.2801 9.25632C15.3561 9.30043 15.4076 9.29308 15.4786 9.25142C16.204 8.82992 16.9318 8.41087 17.6597 7.99181C17.7479 7.9379 17.8361 7.88399 17.9366 7.82517ZM5.38458 7.43307C5.54632 7.5262 5.69335 7.60462 5.83059 7.69529C5.90901 7.74675 5.96537 7.73695 6.03889 7.69284C7.78862 6.68074 9.53835 5.67109 11.2905 4.65899C11.3346 4.63448 11.3739 4.58057 11.4327 4.60998C11.4915 4.64183 11.4694 4.70555 11.4694 4.75456C11.4694 5.7299 11.4694 6.70524 11.4719 7.68058C11.4719 7.78106 11.4376 7.83252 11.3543 7.88153C10.5259 8.3545 9.70009 8.83237 8.87424 9.31024C8.83748 9.33229 8.79582 9.34455 8.76886 9.38866C8.89874 9.46463 9.02373 9.53079 9.1438 9.60921C9.20507 9.64842 9.25163 9.63862 9.31045 9.60431C10.1535 9.11419 10.9965 8.62652 11.8419 8.14375C11.9154 8.10209 11.9399 8.05553 11.9399 7.97221C11.9375 6.57291 11.9375 5.17117 11.9375 3.77187C11.9375 3.73756 11.9497 3.7008 11.9179 3.65669C9.74665 4.9114 7.57542 6.16611 5.38458 7.43307ZM12.0625 3.64444C12.0625 3.93361 12.0625 4.19828 12.0625 4.46049C12.0625 5.63188 12.0625 6.80327 12.0625 7.97466C12.0625 8.02857 12.0551 8.08003 12.1213 8.11924C12.9864 8.61427 13.8514 9.11419 14.7165 9.61656C14.7606 9.64352 14.7949 9.64597 14.839 9.61901C14.9713 9.54059 15.1061 9.46463 15.2483 9.3813C15.1968 9.3519 15.1576 9.32494 15.1135 9.30043C14.2901 8.82502 13.4691 8.35205 12.6457 7.87908C12.5796 7.84233 12.5281 7.80802 12.5281 7.71489C12.5305 6.71995 12.5305 5.72255 12.5305 4.72761C12.5305 4.59282 12.5673 4.57567 12.6849 4.64429C13.6603 5.20547 14.6332 5.76911 15.606 6.3303C16.4 6.78856 17.194 7.24928 17.988 7.70754C18.0248 7.72715 18.0567 7.76391 18.1081 7.73205C18.2699 7.63402 18.4365 7.5409 18.6178 7.43552C16.4295 6.16856 14.2582 4.91385 12.0625 3.64444ZM9.9182 10.0381C9.93535 10.0552 9.94025 10.0626 9.9476 10.065C10.6142 10.4522 11.2807 10.837 11.9448 11.2242C11.9988 11.256 12.0355 11.2364 12.0796 11.2119C12.3075 11.0796 12.5379 10.9472 12.7682 10.8149C13.2094 10.56 13.6505 10.3052 14.094 10.0479C14.0769 10.0356 14.0695 10.0283 14.0597 10.0209C13.3956 9.63862 12.7339 9.25632 12.0723 8.87158C12.0159 8.83972 11.9792 8.84707 11.9301 8.87648C11.6875 9.01862 11.4425 9.1583 11.1999 9.29798C10.771 9.5455 10.3495 9.78811 9.9182 10.0381ZM14.6479 9.72684C14.6185 9.70724 14.5989 9.69253 14.5768 9.68028C13.7485 9.19996 12.9177 8.72209 12.0919 8.23932C12.011 8.19276 11.9596 8.21237 11.8934 8.25158C11.0749 8.72454 10.2564 9.19751 9.43788 9.67293C9.41337 9.68763 9.37661 9.69253 9.36926 9.73664C9.47464 9.79791 9.58491 9.85427 9.68539 9.92044C9.75156 9.96455 9.80302 9.96455 9.87409 9.92289C10.5284 9.54059 11.1876 9.1681 11.8419 8.78091C11.9669 8.70739 12.0527 8.71719 12.1728 8.78581C12.8222 9.1681 13.4765 9.54304 14.1308 9.91799C14.1749 9.94249 14.2117 9.98415 14.2754 9.94494C14.393 9.87143 14.5155 9.80281 14.6479 9.72684Z" fill="white"/>
</svg>
