<svg width="24" height="24" viewBox="0 0 24 24" fill="none" xmlns="http://www.w3.org/2000/svg">
<path d="M12 24C18.6274 24 24 18.6274 24 12C24 5.37258 18.6274 0 12 0C5.37258 0 0 5.37258 0 12C0 18.6274 5.37258 24 12 24Z" fill="#87F96E"/>
<path d="M23.5 12C23.5 18.3513 18.3513 23.5 12 23.5C5.64873 23.5 0.5 18.3513 0.5 12C0.5 5.64873 5.64873 0.5 12 0.5C18.3513 0.5 23.5 5.64873 23.5 12Z" stroke="black" stroke-opacity="0.097"/>
<path fill-rule="evenodd" clip-rule="evenodd" d="M12.918 5.23023L18.2373 7.98688V7.98637C18.401 8.08749 18.5442 8.21292 18.6608 8.35726L16.5274 9.46368C16.3845 9.28754 16.2023 9.13995 15.9924 9.03029L15.9837 9.02194L9.86861 5.85584L10.3972 5.58236L10.9972 5.26982C11.0245 5.2598 11.0509 5.24796 11.0762 5.2344C11.621 4.93228 12.3065 4.92148 12.8628 5.20627C12.8806 5.21539 12.899 5.22339 12.918 5.23023ZM7.3077 7.18105L13.4291 10.3508H13.4286C13.6403 10.4604 13.8241 10.6086 13.9682 10.7857L11.9933 11.8093L5.33282 8.36039C5.47297 8.18741 5.65081 8.04173 5.85558 7.93219L7.3077 7.18105ZM5.15044 8.64585L10.3461 11.3369L11.8179 12.0995V14.1446C11.5885 14.1243 11.3659 14.063 11.1633 13.9643L7.3977 12.0141L7.37796 12.0036C7.20953 11.9281 7.07594 11.9828 7.07594 12.1365C7.07594 12.2901 7.20953 12.4844 7.37796 12.5818L7.38958 12.5876C7.39245 12.5898 7.39557 12.5917 7.39889 12.5933C7.40241 12.5946 7.40576 12.5964 7.40874 12.5985L11.0971 14.5071L11.1017 14.5108C11.1077 14.5132 11.1135 14.516 11.1192 14.5191L11.1331 14.5259C11.3444 14.6336 11.5784 14.7005 11.8202 14.7223V16.5402C11.6074 16.5215 11.4002 16.4676 11.2092 16.3814L10.2758 15.898L7.42036 14.4191L7.40468 14.4108L7.38958 14.4035L7.37739 14.3972C7.18803 14.3118 7.03819 14.3753 7.03819 14.5488C7.03819 14.7223 7.18803 14.9416 7.37739 15.0525L11.0948 16.9768L11.1029 16.9804C11.3225 17.0961 11.5678 17.1673 11.8214 17.1888V18.9984C11.6097 18.9803 11.4036 18.9273 11.2133 18.8421L5.83525 16.0574C5.32389 15.7778 5.00848 15.2822 5 14.7452V9.25896C5.00308 9.04754 5.05427 8.83891 5.15044 8.64585ZM12.8593 13.9451L12.8901 13.9305L14.3051 13.1981V11.727V11.7093C14.3045 11.4908 14.2529 11.2749 14.1535 11.0754L12.1786 12.0995V14.1435C12.4191 14.1214 12.6517 14.0545 12.8617 13.9471L12.8593 13.9451ZM18.8472 8.64585C18.9452 8.84383 18.9959 9.05798 18.9959 9.27457L18.9954 9.27354C18.9954 9.29097 18.9969 9.3084 19 9.32562V14.6655C18.997 14.6838 18.9954 14.7022 18.9954 14.7207C18.9956 15.2757 18.6683 15.7893 18.1352 16.0709C18.1313 16.073 18.1276 16.0753 18.1241 16.0777L16.8613 16.732V14.266L12.8536 16.3418C12.6454 16.4462 12.4158 16.5114 12.1786 16.5335V14.7218C12.4159 14.6992 12.6455 14.6331 12.853 14.5275H12.8611L16.8602 12.4568V10.4289V10.382V10.3476V10.2221L16.8486 10.2013C16.8289 10.0458 16.7833 9.89394 16.7132 9.75069L18.8472 8.64585ZM12.8518 16.9986L12.8344 17.0059C12.6313 17.1043 12.4083 17.1652 12.1786 17.1851V19C12.4135 18.9783 12.641 18.9138 12.8472 18.8104L14.308 18.0545V16.2454L12.8518 16.9986Z" fill="#062F4F"/>
</svg>
