<svg width="24" height="24" viewBox="0 0 24 24" fill="none" xmlns="http://www.w3.org/2000/svg">
<path d="M12 24C18.6274 24 24 18.6274 24 12C24 5.37258 18.6274 0 12 0C5.37258 0 0 5.37258 0 12C0 18.6274 5.37258 24 12 24Z" fill="url(#paint0_linear)"/>
<path d="M23.5 12C23.5 18.3513 18.3513 23.5 12 23.5C5.64873 23.5 0.5 18.3513 0.5 12C0.5 5.64873 5.64873 0.5 12 0.5C18.3513 0.5 23.5 5.64873 23.5 12Z" stroke="black" stroke-opacity="0.097"/>
<path d="M12.0218 9.74693C12.9267 8.82678 13.8055 7.93243 14.693 7.05528C14.8148 6.93489 15.0062 6.8317 15.1715 6.8317C16.3723 6.8145 17.5817 6.8145 18.7825 6.8145C18.8521 6.8145 18.9217 6.8317 19 6.84029C17.3381 8.4742 15.6936 10.0909 14.0404 11.7162C15.0845 12.7568 16.0242 13.7027 16.9901 14.64C17.2163 14.855 17.3207 15.07 17.3207 15.3882C17.3033 16.4459 17.312 17.5123 17.312 18.57C17.312 18.7076 17.2946 18.8366 17.2859 19C15.537 17.2543 13.8316 15.543 11.9956 13.7027C11.665 14.0983 11.4475 14.3993 11.1865 14.6658C10.56 15.3022 9.9248 15.93 9.27222 16.5491C9.15911 16.6609 8.98508 16.7641 8.83717 16.7641C7.59291 16.7813 6.33996 16.7727 5.09571 16.7641C5.05221 16.7641 5.0174 16.7383 5 16.7383C6.6358 15.113 8.2716 13.4877 9.9422 11.8366C9.06339 10.9767 8.24549 10.1941 7.4624 9.39435C7.30578 9.23096 7.18397 8.95577 7.18397 8.73219C7.15786 7.52826 7.17526 6.33292 7.17526 5C8.81976 6.61671 10.3947 8.14742 12.0218 9.74693Z" fill="black"/>
<defs>
<linearGradient id="paint0_linear" x1="12" y1="0" x2="12" y2="24" gradientUnits="userSpaceOnUse">
<stop stop-color="#E5CE6C"/>
<stop offset="1" stop-color="#D5A70C"/>
</linearGradient>
</defs>
</svg>
