<svg viewBox="0 0 32 32" fill="none" xmlns="http://www.w3.org/2000/svg">
<path d="M19.4882 18.7089C17.3651 18.7089 15.242 18.7089 13.0872 18.7089C14.1646 16.8331 15.2103 14.9573 16.2877 13.0815C17.3334 14.9573 18.4108 16.8331 19.4882 18.7089ZM25.097 4.64055C24.1463 3.92905 23.2591 3.47627 22.752 3.24989C20.0902 1.95625 17.0165 2.73243 15.4955 5.22269L15.4004 5.38439L15.2737 5.57844C15.2103 5.7078 15.1469 5.77248 15.1469 5.80482C15.0835 5.90185 15.0518 5.96653 15.0518 5.99887C12.7386 10.2679 10.2986 14.4722 7.89033 18.7089C7.76358 18.7089 7.63683 18.7089 7.47839 18.7089C7.31995 18.7089 7.09813 18.6765 6.87631 18.5795C6.81294 18.5472 6.71787 18.5148 6.6545 18.4825L6.62281 18.4501C5.83061 17.9974 5.5771 16.9948 6.02074 16.2186L7.73189 13.2109L12.2633 5.28737C13.2456 3.34691 14.9885 1.85923 17.0482 1.21241C18.284 0.824315 19.4248 0.856656 19.4248 0.856656C19.5832 0.856656 20.1853 0.856656 20.7874 0.888996C21.0726 0.888996 21.4528 0.953678 21.9598 1.01836C19.5832 0.0481315 17.6503 -0.0488914 16.4778 0.0157905C8.87266 0.3392 2.31323 7.93933 1.52103 15.1837C1.39428 16.4127 1.45765 17.3829 1.52103 17.9327C1.74284 20.9081 3.92932 23.2689 6.84463 23.3336H7.03475H7.28826C7.41501 23.3336 7.54176 23.3336 7.54176 23.3336C7.66851 23.3336 7.73189 23.3336 7.76358 23.3336C12.5485 23.2689 17.3334 23.3013 22.15 23.3013C22.2133 23.3983 22.2767 23.5277 22.3401 23.657C22.4035 23.7864 22.4985 24.0128 22.5302 24.2392C22.5302 24.3362 22.5302 24.4009 22.5302 24.4979V24.5302C22.5302 25.4358 21.8014 26.1796 20.9141 26.1796H17.4601H8.46072C6.33762 26.309 4.18283 25.5328 2.59842 24.0128C1.64778 23.1072 1.10908 22.1047 1.10908 22.1047C1.04571 21.9753 0.728826 21.4578 0.475321 20.8757C0.348569 20.617 0.190128 20.2612 0 19.7761C0.348569 22.3634 1.23584 24.1098 1.8696 25.1124C5.95736 31.6129 15.7173 33.618 22.2767 30.675C23.3858 30.1899 24.178 29.6401 24.6216 29.3167C27.0299 27.6026 27.9489 24.4979 26.5546 21.9106L26.4595 21.7489L26.3328 21.5549C26.3011 21.4255 26.2377 21.3285 26.2377 21.3285C26.1744 21.2315 26.1427 21.1668 26.1427 21.1344C23.671 16.9625 21.3261 12.7258 18.9178 8.48912C18.9812 8.35976 19.0445 8.26274 19.1079 8.13337C19.1713 8.00401 19.3297 7.80996 19.5199 7.64826C19.5832 7.58358 19.6466 7.55123 19.71 7.51889L19.7417 7.48655C20.5339 7.03378 21.5162 7.29251 21.9598 8.10103L23.671 11.1087L28.1707 19.0323C29.3432 20.8757 29.7234 23.1396 29.2481 25.2741C28.9629 26.5677 28.3608 27.5379 28.3608 27.5703C28.2975 27.6997 27.9806 28.2171 27.632 28.7669C27.4736 29.0256 27.2201 29.349 26.9349 29.7048C28.9629 28.0877 29.9769 26.4384 30.5473 25.3711C34.033 18.5472 30.8642 8.9419 25.097 4.64055Z" fill="#167EF1"/>
</svg>
