<svg width="56" height="56" viewBox="0 0 56 56" fill="none" xmlns="http://www.w3.org/2000/svg">
<circle cx="28" cy="28" r="28" fill="#F7600A"/>
<path fill-rule="evenodd" clip-rule="evenodd" d="M32.9091 10.2118V9.08164C32.9091 8.69418 32.5861 8.38241 32.199 8.4008C24.6009 8.76169 18.5119 14.8843 18.2056 22.4955C18.2219 22.9725 18.608 23.0974 18.8351 23.0974H19.983C20.3463 23.0974 20.6441 22.8122 20.6629 22.4495C20.989 16.1879 26.0134 11.1697 32.278 10.8522C32.7558 10.7908 32.9091 10.5297 32.9091 10.2118ZM22.5761 23.0974H23.6747C24.0313 23.0974 24.3221 22.8195 24.348 22.4638C24.6586 18.2097 28.0701 14.8164 32.3324 14.5336C32.523 14.521 32.9091 14.3783 32.9091 13.8844V12.7659C32.9091 12.3707 32.5739 12.0603 32.1795 12.0861C26.6654 12.4459 22.256 16.8547 21.8961 22.3679C21.8704 22.7623 22.1808 23.0974 22.5761 23.0974ZM37.1763 32.9026C37.4035 32.9026 37.7895 33.0275 37.8058 33.5045C37.4995 41.1158 31.4105 47.2383 23.8124 47.5993C23.4253 47.6176 23.1023 47.3059 23.1023 46.9183V45.7883C23.1023 45.4704 23.2556 45.2093 23.7333 45.1479C29.9981 44.8304 35.0224 39.8121 35.3485 33.5505C35.3673 33.1878 35.6651 32.9026 36.0284 32.9026H37.1763ZM33.4353 32.9026C33.8306 32.9026 34.141 33.2377 34.1153 33.6321C33.7554 39.1454 29.346 43.5542 23.8319 43.914C23.4375 43.9398 23.1023 43.6293 23.1023 43.2341V42.1155C23.1023 41.6217 23.4884 41.4791 23.679 41.4664C27.9413 41.1837 31.3529 37.7903 31.6633 33.5362C31.6893 33.1805 31.9801 32.9026 32.3367 32.9026H33.4353ZM29.7445 32.9026C30.1445 32.9026 30.463 33.246 30.4231 33.6441C30.0758 37.1151 27.3154 39.8751 23.8438 40.2224C23.4458 40.2623 23.1023 39.9438 23.1023 39.5438V38.4201C23.1023 37.9604 23.5015 37.795 23.6961 37.7715C25.9261 37.5025 27.6953 35.7373 27.9703 33.5095C28.0129 33.1647 28.2999 32.9026 28.6474 32.9026H29.7445ZM10.212 23.0945C10.53 23.0945 10.7911 23.2477 10.8525 23.7254C11.1701 29.9892 16.189 35.0129 22.4516 35.3389C22.8143 35.3577 23.0996 35.6555 23.0996 36.0187V37.1666C23.0996 37.3936 22.9746 37.7796 22.4976 37.7959C14.8853 37.4896 8.76181 31.4015 8.4008 23.8045C8.3824 23.4174 8.69423 23.0945 9.0818 23.0945H10.212ZM13.8853 23.0945C14.3792 23.0945 14.5219 23.4805 14.5346 23.6711C14.8173 27.9328 18.2111 31.3439 22.4659 31.6543C22.8216 31.6803 23.0996 31.971 23.0996 32.3276V33.426C23.0996 33.8212 22.7644 34.1316 22.3699 34.1059C16.8559 33.746 12.4464 29.3373 12.0866 23.824C12.0608 23.4296 12.3713 23.0945 12.7666 23.0945H13.8853ZM33.5024 18.1729C41.1148 18.4792 47.2382 24.5673 47.5993 32.1644C47.6176 32.5514 47.3058 32.8744 46.9183 32.8744H45.788C45.4701 32.8744 45.2089 32.7211 45.1475 32.2434C44.8299 25.9795 39.811 20.956 33.5485 20.6299C33.1857 20.6111 32.9005 20.3133 32.9005 19.9501V18.8023C32.9005 18.5752 33.0253 18.1892 33.5024 18.1729ZM33.6301 21.8629C39.1442 22.2227 43.5536 26.6315 43.9135 32.1448C43.9392 32.5392 43.6288 32.8744 43.2335 32.8744H42.1148C41.6208 32.8744 41.4782 32.4883 41.4655 32.2977C41.1828 28.036 37.7889 24.6249 33.5342 24.3145C33.1784 24.2886 32.9005 23.9978 32.9005 23.6412V22.5428C32.9005 22.1476 33.2357 21.8372 33.6301 21.8629ZM33.642 25.5545C37.1136 25.9019 39.874 28.6619 40.2213 32.1329C40.2612 32.5309 39.9427 32.8744 39.5427 32.8744H38.4188C37.959 32.8744 37.7936 32.4752 37.7701 32.2806C37.501 30.0509 35.7356 28.282 33.5075 28.0071C33.1626 27.9645 32.9005 27.6775 32.9005 27.33V26.2331C32.9005 25.8331 33.244 25.5147 33.642 25.5545ZM17.5812 23.0945C18.0411 23.0945 18.2064 23.4936 18.2299 23.6882C18.4991 25.9179 20.2644 27.6868 22.4926 27.9618C22.8374 28.0043 23.0996 28.2913 23.0996 28.6388V29.7357C23.0996 30.1357 22.7561 30.4541 22.358 30.4144C18.8865 30.0669 16.1261 27.3069 15.7786 23.8359C15.7388 23.4379 16.0573 23.0945 16.4574 23.0945H17.5812ZM32.9091 16.4562V17.5798C32.9091 18.0396 32.51 18.205 32.3152 18.2285C30.0853 18.4976 28.3161 20.2627 28.0411 22.4905C27.9985 22.8353 27.7115 23.0974 27.364 23.0974H26.2669C25.8669 23.0974 25.5484 22.7539 25.5882 22.3559C25.9357 18.885 28.6961 16.125 32.1675 15.7776C32.5656 15.7378 32.9091 16.0562 32.9091 16.4562Z" fill="white"/>
</svg>
