<?xml version="1.0" encoding="utf-8"?>
<!-- Generator: Adobe Illustrator 26.5.0, SVG Export Plug-In . SVG Version: 6.00 Build 0)  -->
<svg version="1.1" id="Layer_8" xmlns="http://www.w3.org/2000/svg" xmlns:xlink="http://www.w3.org/1999/xlink" x="0px" y="0px"
	 viewBox="0 0 128 128" style="enable-background:new 0 0 128 128;" xml:space="preserve">
<style type="text/css">
	.st0{fill:#2175FF;}
	.st1{opacity:0.7;fill:#0A51C7;}
	.st2{fill:#4A86F0;}
	.st3{fill:#FFFFFF;}
</style>
<circle class="st0" cx="64" cy="64" r="64"/>
<g>
	<path class="st1" d="M108.1,43.6C108.1,43.6,108.1,43.6,108.1,43.6c-0.8,0-1.6,0-2.4,0.1c-0.1,0-0.3,0-0.4,0
		c-0.8,0.1-1.5,0.1-2.2,0.3c-0.1,0-0.2,0-0.4,0.1c-0.7,0.1-1.5,0.3-2.2,0.4c0,0,0,0,0,0c-0.7,0.2-1.5,0.4-2.2,0.6
		c-0.1,0-0.2,0.1-0.3,0.1c-0.7,0.2-1.4,0.5-2.1,0.8c0,0-0.1,0-0.1,0.1c-1.4,0.6-2.8,1.3-4.1,2.2c-0.1,0-0.1,0.1-0.2,0.1
		c-0.6,0.4-1.2,0.8-1.8,1.3c0,0-0.1,0.1-0.1,0.1c-0.5,0.4-1,0.8-1.5,1.3c-0.1,0.1-0.2,0.2-0.3,0.3c-0.5,0.5-1,0.9-1.5,1.4
		c-1.6,1.6-3.2,3.4-4.8,5.5c0-0.2-0.1-0.3-0.1-0.4c-0.1-0.3-0.1-0.6-0.2-1c0-0.1-0.1-0.3-0.1-0.4c0-0.2-0.1-0.4-0.1-0.6
		c0-0.2-0.1-0.3-0.1-0.5c0-0.2-0.1-0.3-0.1-0.5c-0.1-0.2-0.1-0.4-0.2-0.6c0-0.1-0.1-0.3-0.1-0.4c-0.1-0.2-0.2-0.4-0.2-0.6
		c0-0.1-0.1-0.2-0.1-0.3c-0.1-0.2-0.2-0.4-0.3-0.6c0-0.1-0.1-0.1-0.1-0.2c-0.3-0.5-0.6-1-0.9-1.5c0,0,0,0,0,0c0,0,0,0,0-0.1
		c0,0,0,0,0,0c-0.3-0.3-0.5-0.7-0.9-1c-3-3-7.6-3.1-11-0.3c-1.8,1.5-3.1,3.5-4.1,5.7c-0.2-0.7-0.4-1.3-0.7-1.9l0,0l0,0l0,0
		c0,0,0-0.1-0.1-0.1c0,0,0,0,0-0.1c-0.3-0.6-0.6-1.1-1-1.6c-1.4-2-3.5-3.3-5.9-3.7c-0.4-0.1-0.8-0.1-1.2-0.1
		c-2.8-0.1-5.6,1.1-7.7,3.3c-3.5,3.7-5.7,8.5-7.8,13.1c-1.3,2.9-2.6,5.7-4.1,8.1l-0.1,0.1c-1,1.5-3.5,5.6-5.5,5.5
		c-1.7-0.1-2.8-3.3-3.3-6.3c-0.4-2.5-2.2-4.1-4.5-4.1c-0.3,0-0.7,0-1,0.1c-2.9,0.4-5.6,3.1-5.1,6.7v0c1,6.7,5.6,14.2,13.2,14.7
		c0.3,0,0.5,0,0.8,0c0,0,0,0,0,0c0,0,0,0,0,0c5.6,0,10.9-4,15.6-12c1.5-2.5,2.8-5.2,4.1-7.8c0.4-0.8,0.8-1.6,1.2-2.5
		c0.1-0.2,0.3-0.6,0.5-1.1c1.1-2.5,2-4.1,2.6-5.2c0,0,0,0,0,0c0,0,0,0,0,0c0.1,0.8,0.2,1.6,0.2,2.4c0,1,0.1,2,0.1,3
		c0.1,2,0.1,4.1,0.3,6.2c0.1,0.7,0.2,1.5,0.5,2.3c0,0,0,0,0,0c0.1,0.3,0.2,0.6,0.3,0.9c0,0.1,0,0.1,0.1,0.2c0.1,0.3,0.2,0.6,0.3,0.9
		c0,0,0,0,0,0c0.1,0.3,0.3,0.6,0.4,0.9c0,0.1,0.1,0.1,0.1,0.2c0.1,0.3,0.3,0.6,0.5,0.9c0,0,0,0,0,0c0.2,0.3,0.4,0.5,0.6,0.8
		c0,0.1,0.1,0.1,0.1,0.2c0.2,0.3,0.4,0.5,0.6,0.7c0,0,0,0,0,0c0.2,0.2,0.5,0.4,0.7,0.6c0.1,0,0.1,0.1,0.2,0.1
		c0.3,0.2,0.5,0.4,0.8,0.5c1.3,0.6,3.3,1.1,5.9-0.5c3.8-2.2,5-7.6,5.9-11.5c0.1-0.5,0.2-1,0.3-1.5l0.2-1c0.2-0.7,0.3-1.4,0.5-2.2
		c0-0.1,0-0.1,0-0.2c0.1,0.6,0.2,1.3,0.4,1.9c0,0,0,0,0,0v0c0,0.1,0,0.1,0.1,0.2c0.1,0.2,0.1,0.4,0.2,0.6c0,0.1,0.1,0.2,0.1,0.3
		c0.1,0.2,0.1,0.4,0.2,0.6c0,0.1,0.1,0.2,0.1,0.3c0.1,0.3,0.3,0.5,0.4,0.8c0,0,0,0.1,0.1,0.1c0.1,0.2,0.3,0.5,0.4,0.7
		c0.1,0.1,0.1,0.2,0.2,0.2c0.1,0.2,0.3,0.4,0.4,0.5c0.1,0.1,0.1,0.1,0.2,0.2c0.2,0.2,0.5,0.5,0.7,0.7c2.8,2.3,6.6,2.6,9.5,0.8
		c1.7-1,2.7-2.7,3.6-4.1c0.2-0.3,0.4-0.7,0.6-1c1.3-2,2.7-3.7,4-5.2c0.3-0.4,0.6-0.7,1-1c0.1-0.1,0.2-0.2,0.3-0.3
		c0.2-0.2,0.5-0.5,0.7-0.7c0.1-0.1,0.2-0.2,0.2-0.2c0.3-0.3,0.6-0.5,0.9-0.7c0,0,0.1,0,0.1-0.1c0.3-0.3,0.7-0.5,1-0.8c0,0,0,0,0,0
		c0.3-0.3,0.7-0.5,1-0.7c0.1,0,0.1-0.1,0.2-0.1c0.4-0.2,0.7-0.4,1.1-0.6c3.2-1.7,5.8-1.9,9.1-1.9c3.5,0,5.3-2.8,5.3-5.5
		C113.4,46.3,111.6,43.6,108.1,43.6z"/>
</g>
<g>
	<path class="st2" d="M61.8,50.4c-4.2,0.9-7.6,3.5-9.4,7c0.1,0.8,0.2,1.6,0.2,2.4c0,1,0.1,2,0.1,3c0.1,2,0.1,4.1,0.3,6.2
		c0.1,0.7,0.2,1.5,0.5,2.3c1.6-1.2,3.1-2.8,4.4-5.1c3-5.3,4.7-13.8,4.7-13.8C62.4,51.7,62.1,51.1,61.8,50.4L61.8,50.4z"/>
	<g>
		<path class="st3" d="M78.5,48C78.5,48,78.5,48.1,78.5,48C78.5,48.1,78.5,48,78.5,48C78.5,48,78.5,48,78.5,48z"/>
		<path class="st3" d="M66.6,46.7c-1.8,1.5-3.1,3.5-4.1,5.7c0,0-1.7,8.6-4.7,13.8c-1.3,2.3-2.8,3.9-4.4,5.1c0,0,0,0,0,0
			c0.1,0.3,0.2,0.6,0.3,0.9c0,0.1,0,0.1,0.1,0.2c0.1,0.3,0.2,0.6,0.3,0.9c0,0,0,0,0,0c0.1,0.3,0.3,0.6,0.4,0.9
			c0,0.1,0.1,0.1,0.1,0.2c0.1,0.3,0.3,0.6,0.5,0.9c0,0,0,0,0,0c0.2,0.3,0.4,0.5,0.6,0.8c0,0.1,0.1,0.1,0.1,0.2
			c0.2,0.3,0.4,0.5,0.6,0.7c0,0,0,0,0,0c0.2,0.2,0.5,0.4,0.7,0.6c0.1,0,0.1,0.1,0.2,0.1c0.3,0.2,0.5,0.4,0.8,0.5
			c1.3,0.6,3.3,1.1,5.9-0.5c3.8-2.2,5-7.6,5.9-11.5c0.1-0.5,0.2-1,0.3-1.5l0.2-1c0.2-0.7,0.3-1.4,0.5-2.2c0.5-5.2,2.7-9.7,5.8-12.6
			c0.5-0.4,1-0.8,1.5-1.2c-0.3-0.3-0.5-0.7-0.9-1C74.6,44,70,43.9,66.6,46.7z"/>
	</g>
	<polygon class="st3" points="71.6,63.5 71.6,63.5 71.6,63.5 	"/>
	<path class="st3" d="M108.1,41C108.1,41,108.1,41,108.1,41c-0.8,0-1.6,0-2.4,0.1c-0.1,0-0.3,0-0.4,0c-0.8,0.1-1.5,0.1-2.2,0.3
		c-0.1,0-0.2,0-0.4,0.1c-0.7,0.1-1.5,0.3-2.2,0.4c0,0,0,0,0,0c-0.7,0.2-1.5,0.4-2.2,0.6c-0.1,0-0.2,0.1-0.3,0.1
		c-0.7,0.2-1.4,0.5-2.1,0.8c0,0-0.1,0-0.1,0.1c-1.4,0.6-2.8,1.3-4.1,2.2c-0.1,0-0.1,0.1-0.2,0.1c-0.6,0.4-1.2,0.8-1.8,1.3
		c0,0-0.1,0.1-0.1,0.1c-0.5,0.4-1,0.8-1.5,1.3c-0.1,0.1-0.2,0.2-0.3,0.3c-0.5,0.5-1,0.9-1.5,1.4c-1.6,1.6-3.2,3.4-4.8,5.5
		c0,0-2.4,3.8-3.4,4.7c-2,1.7-3.7,3.2-6.4,3.2v0c0,0.1,0,0.1,0.1,0.2c0.1,0.2,0.1,0.4,0.2,0.6c0,0.1,0.1,0.2,0.1,0.3
		c0.1,0.2,0.1,0.4,0.2,0.6c0,0.1,0.1,0.2,0.1,0.3c0.1,0.3,0.3,0.5,0.4,0.8c0,0,0,0.1,0.1,0.1c0.1,0.2,0.3,0.5,0.4,0.7
		c0.1,0.1,0.1,0.2,0.2,0.2c0.1,0.2,0.3,0.4,0.4,0.5c0.1,0.1,0.1,0.1,0.2,0.2c0.2,0.2,0.5,0.5,0.7,0.7c2.8,2.3,6.6,2.6,9.5,0.8
		c1.7-1,2.7-2.7,3.6-4.1c0.2-0.3,0.4-0.7,0.6-1c1.3-2,2.7-3.7,4-5.2c0.3-0.4,0.6-0.7,1-1c0.1-0.1,0.2-0.2,0.3-0.3
		c0.2-0.2,0.5-0.5,0.7-0.7c0.1-0.1,0.2-0.2,0.2-0.2c0.3-0.3,0.6-0.5,0.9-0.7c0,0,0.1,0,0.1-0.1c0.3-0.3,0.7-0.5,1-0.8c0,0,0,0,0,0
		c0.3-0.3,0.7-0.5,1-0.7c0.1,0,0.1-0.1,0.2-0.1c0.4-0.2,0.7-0.4,1.1-0.6c3.2-1.7,5.8-1.9,9.1-1.9c3.5,0,5.3-2.8,5.3-5.5
		C113.4,43.7,111.6,41,108.1,41z"/>
	<polygon class="st2" points="71.6,63.5 71.6,63.5 71.6,63.5 	"/>
	<path class="st3" d="M52.4,57.4C52.4,57.4,52.4,57.4,52.4,57.4C52.4,57.4,52.4,57.4,52.4,57.4C52.4,57.4,52.4,57.4,52.4,57.4
		C52.4,57.4,52.4,57.4,52.4,57.4z"/>
	<path class="st3" d="M61.8,50.4c0,0,0-0.1-0.1-0.1c0,0,0,0,0-0.1c-0.3-0.6-0.6-1.1-1-1.6c-1.4-2-3.5-3.3-5.9-3.7
		c-0.4-0.1-0.8-0.1-1.2-0.1c-2.8-0.1-5.6,1.1-7.7,3.3c-3.5,3.7-5.7,8.5-7.8,13.1c-1.3,2.9-2.6,5.7-4.1,8.1l-0.1,0.1
		c-1,1.5-3.5,5.6-5.5,5.5c-1.7-0.1-2.8-3.3-3.3-6.3c-0.4-2.5-2.2-4.1-4.5-4.1c-0.3,0-0.7,0-1,0.1c-2.9,0.4-5.6,3.1-5.1,6.7v0
		c1,6.7,5.6,14.2,13.2,14.7c0.3,0,0.5,0,0.8,0c0,0,0,0,0,0c0,0,0,0,0,0c5.6,0,10.9-4,15.6-12c1.5-2.5,2.8-5.2,4.1-7.8
		c0.4-0.8,0.8-1.6,1.2-2.5c0.1-0.2,0.3-0.6,0.5-1.1c1.1-2.5,2-4.1,2.6-5.2c0,0,0,0,0,0c0,0,0,0,0,0C54.2,54,57.7,51.4,61.8,50.4
		C61.8,50.4,61.8,50.4,61.8,50.4L61.8,50.4z"/>
	<path class="st2" d="M81.2,55.2c-0.1-0.3-0.1-0.6-0.2-1c0-0.1-0.1-0.3-0.1-0.4c0-0.2-0.1-0.4-0.1-0.6c0-0.2-0.1-0.3-0.1-0.5
		c0-0.2-0.1-0.3-0.1-0.5c-0.1-0.2-0.1-0.4-0.2-0.6c0-0.1-0.1-0.3-0.1-0.4c-0.1-0.2-0.2-0.4-0.2-0.6c0-0.1-0.1-0.2-0.1-0.3
		c-0.1-0.2-0.2-0.4-0.3-0.6c0-0.1-0.1-0.1-0.1-0.2c-0.3-0.5-0.6-1.1-1-1.5c-0.5,0.4-1,0.8-1.5,1.2c-3.1,2.8-5.3,7.4-5.8,12.6
		c0-0.1,0-0.1,0-0.2c0.1,0.6,0.2,1.3,0.4,1.9c0,0,0,0,0,0c2.6,0,4.4-1.5,6.4-3.2c1-0.9,3.4-4.7,3.4-4.7
		C81.3,55.4,81.2,55.3,81.2,55.2z"/>
</g>
</svg>
