<svg width="24" height="24" viewBox="0 0 24 24" fill="none" xmlns="http://www.w3.org/2000/svg">
<path d="M12 24C18.6274 24 24 18.6274 24 12C24 5.37258 18.6274 0 12 0C5.37258 0 0 5.37258 0 12C0 18.6274 5.37258 24 12 24Z" fill="#F5F5F5"/>
<path fill-rule="evenodd" clip-rule="evenodd" d="M13.832 8.23149C13.832 5.79042 12.4162 3.69109 11.3392 3.00761C11.3348 3.00761 11.2569 2.96887 11.2635 3.06618C11.2635 3.06618 11.2635 3.06618 11.2635 3.06895C11.1739 7.78229 8.30686 9.05932 6.73015 10.78C3.09298 14.7508 6.47584 19.1044 9.92007 19.9092C11.8473 20.3594 9.47502 19.1128 9.16931 16.479C8.8 13.2967 13.8325 10.8662 13.8325 8.23103" fill="#1C2143"/>
<path fill-rule="evenodd" clip-rule="evenodd" d="M15.7222 9.83602C15.7108 9.82701 15.6952 9.82276 15.6796 9.82446C15.664 9.82616 15.6502 9.83364 15.642 9.84478C15.5785 10.4383 14.8083 11.707 13.8326 12.8725C10.5216 16.8253 12.4084 18.7296 13.4694 19.7543C14.0852 20.3483 13.4694 19.7543 15.009 19.1469C15.1301 19.1009 18.0131 17.827 18.3261 14.9275C18.6284 12.1198 16.4857 10.3503 15.7227 9.83602" fill="#2EA7E0"/>
<path d="M23.5 12C23.5 18.3513 18.3513 23.5 12 23.5C5.64873 23.5 0.5 18.3513 0.5 12C0.5 5.64873 5.64873 0.5 12 0.5C18.3513 0.5 23.5 5.64873 23.5 12Z" stroke="black" stroke-opacity="0.097"/>
</svg>
