<svg width="24" height="24" viewBox="0 0 24 24" fill="none" xmlns="http://www.w3.org/2000/svg">
<path d="M12 24C18.6274 24 24 18.6274 24 12C24 5.37258 18.6274 0 12 0C5.37258 0 0 5.37258 0 12C0 18.6274 5.37258 24 12 24Z" fill="#2170FB"/>
<path d="M12 24C18.6274 24 24 18.6274 24 12C24 5.37258 18.6274 0 12 0C5.37258 0 0 5.37258 0 12C0 18.6274 5.37258 24 12 24Z" fill="#1D1D3C"/>
<path fill-rule="evenodd" clip-rule="evenodd" d="M4.70097 16.06C4.40788 16.06 4.23447 15.7108 4.35171 15.4177L8.20578 8.11988C8.44025 7.71201 8.78951 7.47754 9.256 7.47754H11.0072C11.3003 7.47754 11.4737 7.8268 11.3564 8.11988L7.50237 15.4177C7.26791 15.8256 6.91865 16.06 6.45215 16.06H4.70097Z" fill="#FF6400"/>
<path fill-rule="evenodd" clip-rule="evenodd" d="M5.63395 16.0601H4L4.75714 14.7168L5.63395 16.0601Z" fill="#FF6400"/>
<path fill-rule="evenodd" clip-rule="evenodd" d="M10.0717 7.47754H11.7057L11.0047 8.82084L10.0717 7.47754Z" fill="#FF6400"/>
<path fill-rule="evenodd" clip-rule="evenodd" d="M19.6459 15.4764L19.238 14.7755L16.8444 10.3377L16.4952 9.69531L16.1459 10.279L15.2129 11.9716C15.0371 12.3209 15.0371 12.7898 15.2129 13.1977L16.439 15.4154C16.6735 15.8232 17.0227 16.0577 17.4892 16.0577H18.5395H19.299H20L19.6459 15.4764Z" fill="white"/>
<path fill-rule="evenodd" clip-rule="evenodd" d="M11.2978 16.06H9.54664C9.25355 16.06 9.08015 15.7108 9.19738 15.4177L13.0514 8.11988C13.2859 7.71201 13.6352 7.47754 14.1017 7.47754H15.8528C16.1459 7.47754 16.3193 7.8268 16.2021 8.11988L12.348 15.4177C12.116 15.828 11.7643 16.06 11.2978 16.06Z" fill="#00C6D0"/>
<path fill-rule="evenodd" clip-rule="evenodd" d="M10.4796 16.0601H8.84567L9.54663 14.7168L10.4796 16.0601Z" fill="#00C6D0"/>
<path fill-rule="evenodd" clip-rule="evenodd" d="M14.9174 7.47754H16.5514L15.7942 8.82084L14.9174 7.47754Z" fill="#00C6D0"/>
<path d="M23.5 12C23.5 18.3513 18.3513 23.5 12 23.5C5.64873 23.5 0.5 18.3513 0.5 12C0.5 5.64873 5.64873 0.5 12 0.5C18.3513 0.5 23.5 5.64873 23.5 12Z" stroke="white" stroke-opacity="0.3"/>
</svg>
