<?xml version="1.0" encoding="UTF-8" standalone="no"?><!DOCTYPE svg PUBLIC "-//W3C//DTD SVG 1.1//EN" "http://www.w3.org/Graphics/SVG/1.1/DTD/svg11.dtd"><svg width="162" height="162" viewBox="0 0 162 162" version="1.1" xmlns="http://www.w3.org/2000/svg" xmlns:xlink="http://www.w3.org/1999/xlink" xml:space="preserve" xmlns:serif="http://www.serif.com/" style="fill-rule:evenodd;clip-rule:evenodd;stroke-linejoin:round;stroke-miterlimit:2;"><g><path d="M140.093,125.908c-24.509,32.614 -70.887,39.195 -103.501,14.685c-32.614,-24.509 -39.195,-70.887 -14.685,-103.501c24.509,-32.614 70.887,-39.195 103.501,-14.685c32.614,24.509 39.195,70.887 14.685,103.501Z" style="fill:#fff;"/><path d="M70.973,97.17l-28.369,0.017l-0.027,-43.684l-14.619,0.009l0.034,56.041l42.989,-0.026l-0.009,-12.357l0.001,0Zm42.736,-32.34l-0.007,-11.371l-50.993,0.032l0.007,11.37l18.216,-0.011l0.028,44.671l14.619,-0.009l-0.028,-44.671l18.158,-0.011Zm20.333,44.658l-0.034,-56.041l-14.621,0.009l0.035,56.041l14.62,-0.009Z" style="fill-rule:nonzero;"/></g></svg>