<svg width="480" height="480" viewBox="0 0 480 480" fill="none" xmlns="http://www.w3.org/2000/svg">
<mask id="mask0-890804" mask-type="alpha" maskUnits="userSpaceOnUse" x="0" y="0" width="480" height="480">
<circle cx="240" cy="240" r="240" fill="url(#paint0_linear-136939)"/>
</mask>
<g mask="url(#mask0-890804)">
<circle cx="240" cy="240" r="240" fill="#31D8A4"/>
<circle cx="240" cy="240" r="208" fill="white"/>
</g>
<circle cx="240" cy="240" r="184" fill="#0E052F"/>
<circle cx="240" cy="240" r="184" fill="#0E052F"/>
<circle cx="196.565" cy="180.469" r="53.2647" transform="rotate(28.842 196.565 180.469)" fill="#DFDFDF"/>
<line x1="223.385" y1="134.432" x2="171.995" y2="227.746" stroke="#C4C4C4" stroke-width="5"/>
<line x1="235.05" y1="143.666" x2="161.26" y2="220.501" stroke="#C4C4C4" stroke-width="5"/>
<line x1="243.227" y1="154.932" x2="152.065" y2="210.051" stroke="#C4C4C4" stroke-width="5"/>
<line x1="248.209" y1="167.931" x2="145.888" y2="197.576" stroke="#C4C4C4" stroke-width="5"/>
<line x1="249.657" y1="181.775" x2="143.149" y2="183.928" stroke="#C4C4C4" stroke-width="5"/>
<line x1="247.472" y1="195.522" x2="144.037" y2="170.035" stroke="#C4C4C4" stroke-width="5"/>
<line x1="150.901" y1="152.467" x2="244.216" y2="203.857" stroke="#C4C4C4" stroke-width="5"/>
<line x1="159.667" y1="141.654" x2="236.501" y2="215.444" stroke="#C4C4C4" stroke-width="5"/>
<line x1="172.194" y1="132.816" x2="224.857" y2="225.418" stroke="#C4C4C4" stroke-width="5"/>
<line x1="183.931" y1="128.496" x2="213.577" y2="230.817" stroke="#C4C4C4" stroke-width="5"/>
<line x1="198.396" y1="127.068" x2="199.309" y2="233.594" stroke="#C4C4C4" stroke-width="5"/>
<line x1="211.523" y1="129.233" x2="186.037" y2="232.669" stroke="#C4C4C4" stroke-width="5"/>
<circle cx="196.235" cy="180.565" r="41.2792" transform="rotate(28.842 196.235 180.565)" fill="url(#paint1_linear-137112)" stroke="#A9A9A9" stroke-width="5"/>
<circle cx="311.565" cy="221.469" r="53.2647" transform="rotate(28.842 311.565 221.469)" fill="#DFDFDF"/>
<line x1="338.385" y1="175.432" x2="286.995" y2="268.746" stroke="#C4C4C4" stroke-width="5"/>
<line x1="350.05" y1="184.666" x2="276.26" y2="261.501" stroke="#C4C4C4" stroke-width="5"/>
<line x1="358.227" y1="195.932" x2="267.065" y2="251.051" stroke="#C4C4C4" stroke-width="5"/>
<line x1="363.209" y1="208.931" x2="260.888" y2="238.576" stroke="#C4C4C4" stroke-width="5"/>
<line x1="364.657" y1="222.775" x2="258.149" y2="224.928" stroke="#C4C4C4" stroke-width="5"/>
<line x1="362.472" y1="236.522" x2="259.037" y2="211.035" stroke="#C4C4C4" stroke-width="5"/>
<line x1="265.901" y1="193.467" x2="359.216" y2="244.857" stroke="#C4C4C4" stroke-width="5"/>
<line x1="274.667" y1="182.654" x2="351.501" y2="256.444" stroke="#C4C4C4" stroke-width="5"/>
<line x1="287.194" y1="173.816" x2="339.857" y2="266.418" stroke="#C4C4C4" stroke-width="5"/>
<line x1="298.931" y1="169.496" x2="328.577" y2="271.817" stroke="#C4C4C4" stroke-width="5"/>
<line x1="313.396" y1="168.068" x2="314.309" y2="274.594" stroke="#C4C4C4" stroke-width="5"/>
<line x1="326.523" y1="170.233" x2="301.037" y2="273.669" stroke="#C4C4C4" stroke-width="5"/>
<circle cx="311.235" cy="221.565" r="41.2792" transform="rotate(28.842 311.235 221.565)" fill="url(#paint2_linear-127116)" stroke="#A9A9A9" stroke-width="5"/>
<circle cx="217.565" cy="300.469" r="53.2647" transform="rotate(28.842 217.565 300.469)" fill="#DFDFDF"/>
<line x1="244.385" y1="254.432" x2="192.995" y2="347.746" stroke="#C4C4C4" stroke-width="5"/>
<line x1="256.05" y1="263.666" x2="182.26" y2="340.501" stroke="#C4C4C4" stroke-width="5"/>
<line x1="264.227" y1="274.932" x2="173.065" y2="330.051" stroke="#C4C4C4" stroke-width="5"/>
<line x1="269.209" y1="287.931" x2="166.888" y2="317.576" stroke="#C4C4C4" stroke-width="5"/>
<line x1="270.657" y1="301.775" x2="164.149" y2="303.928" stroke="#C4C4C4" stroke-width="5"/>
<line x1="268.472" y1="315.522" x2="165.037" y2="290.035" stroke="#C4C4C4" stroke-width="5"/>
<line x1="171.901" y1="272.467" x2="265.216" y2="323.857" stroke="#C4C4C4" stroke-width="5"/>
<line x1="180.667" y1="261.654" x2="257.501" y2="335.444" stroke="#C4C4C4" stroke-width="5"/>
<line x1="193.194" y1="252.816" x2="245.857" y2="345.418" stroke="#C4C4C4" stroke-width="5"/>
<line x1="204.931" y1="248.496" x2="234.577" y2="350.817" stroke="#C4C4C4" stroke-width="5"/>
<line x1="219.396" y1="247.068" x2="220.309" y2="353.594" stroke="#C4C4C4" stroke-width="5"/>
<line x1="232.523" y1="249.233" x2="207.037" y2="352.669" stroke="#C4C4C4" stroke-width="5"/>
<circle cx="217.235" cy="300.565" r="41.2792" transform="rotate(28.842 217.235 300.565)" fill="url(#paint3_linear-874081)" stroke="#A9A9A9" stroke-width="5"/>
<defs>
<linearGradient id="paint0_linear-136939" x1="240" y1="0" x2="240" y2="701.818" gradientUnits="userSpaceOnUse">
<stop stop-color="#08021E"/>
<stop offset="1" stop-color="#1F0777"/>
</linearGradient>
<linearGradient id="paint1_linear-137112" x1="151.915" y1="154.735" x2="224.792" y2="225.824" gradientUnits="userSpaceOnUse">
<stop stop-color="#888888"/>
<stop offset="1" stop-color="#FEFEFE"/>
</linearGradient>
<linearGradient id="paint2_linear-127116" x1="266.915" y1="195.735" x2="339.792" y2="266.824" gradientUnits="userSpaceOnUse">
<stop stop-color="#888888"/>
<stop offset="1" stop-color="#FEFEFE"/>
</linearGradient>
<linearGradient id="paint3_linear-874081" x1="172.915" y1="274.735" x2="245.792" y2="345.824" gradientUnits="userSpaceOnUse">
<stop stop-color="#888888"/>
<stop offset="1" stop-color="#FEFEFE"/>
</linearGradient>
</defs>
</svg>