<svg width="24" height="24" viewBox="0 0 24 24" fill="none" xmlns="http://www.w3.org/2000/svg">
<path fill-rule="evenodd" clip-rule="evenodd" d="M0 12C0 5.37259 5.37259 0 12 0C18.6274 0 24 5.37259 24 12C24 18.6274 18.6274 24 12 24C5.37259 24 0 18.6274 0 12Z" fill="black"/>
<path d="M23.5 12C23.5 18.3513 18.3513 23.5 12 23.5C5.64873 23.5 0.5 18.3513 0.5 12C0.5 5.64873 5.64873 0.5 12 0.5C18.3513 0.5 23.5 5.64873 23.5 12Z" stroke="white" stroke-opacity="0.3"/>
<path d="M17.9994 14.0958L17.5141 11.1238C17.8221 10.974 18.0339 10.6594 18.0339 10.2939C18.0339 10.0033 17.9002 9.74562 17.6898 9.57635L17.9708 8.90975C18.0054 8.91424 18.0384 8.91873 18.073 8.91873C18.5853 8.91873 19 8.50529 19 7.99448C19 7.48366 18.5853 7.07022 18.073 7.07022C17.9152 7.07022 17.768 7.11066 17.6388 7.17957L16.7538 6.3362C16.8154 6.21187 16.8515 6.07256 16.8515 5.92426C16.8515 5.41344 16.4368 5 15.9244 5C15.5068 5 15.1552 5.27563 15.038 5.65312H12.8865C12.7708 5.27863 12.4177 5.003 12 5.003C11.5823 5.003 11.2307 5.27863 11.1135 5.65612H8.99657C8.87937 5.27863 8.5278 5.003 8.11011 5.003C7.59777 5.003 7.18309 5.41644 7.18309 5.92725C7.18309 6.06956 7.21614 6.20438 7.27474 6.32572L6.36424 7.18556C6.23353 7.11516 6.08478 7.07321 5.92702 7.07321C5.41468 7.07172 5 7.48516 5 7.99597C5 8.50679 5.41468 8.92023 5.92702 8.92023C5.96158 8.92023 5.99463 8.91424 6.02919 8.91124L6.30114 9.55538C6.07426 9.72315 5.92702 9.99279 5.92702 10.2954C5.92702 10.6759 6.1569 11.0009 6.48594 11.1432L6.01266 14.0958C5.56643 14.1617 5.22237 14.5452 5.22237 15.0081C5.22237 15.5189 5.63705 15.9323 6.14939 15.9323C6.32217 15.9323 6.48294 15.8859 6.61966 15.8035L11.1526 19.7042C11.1015 19.8181 11.073 19.9439 11.073 20.0757C11.073 20.5866 11.4877 21 12 21C12.5123 21 12.927 20.5866 12.927 20.0757C12.927 19.9439 12.8985 19.8196 12.8474 19.7057L17.3924 15.805C17.5306 15.8859 17.6913 15.9323 17.8626 15.9323C18.375 15.9323 18.7897 15.5189 18.7897 15.0081C18.7897 14.5452 18.4456 14.1617 17.9994 14.0958ZM7.65787 10.7523L8.49775 11.1163L6.55656 14.1302L7.02533 11.2002C7.29577 11.1492 7.52565 10.983 7.65787 10.7523ZM8.11011 6.85001C8.14166 6.85001 8.17321 6.84852 8.20476 6.84552L8.34149 7.33836L6.78794 7.65593C6.77592 7.62597 6.76089 7.59751 6.74587 7.56905L7.64284 6.72269C7.77957 6.80358 7.93883 6.85001 8.11011 6.85001ZM8.41361 7.60051L8.47821 7.83569H7.26422L8.41361 7.60051ZM8.4677 6.77961C8.72011 6.67475 8.91543 6.46054 8.99657 6.19839H11.115C11.1661 6.36467 11.2623 6.51147 11.3915 6.62382L11.3224 6.73167L8.60743 7.28593L8.4677 6.77961ZM15.7577 7.04775L15.8148 6.84252C15.8508 6.84702 15.8884 6.85001 15.9259 6.85001C16.0912 6.85001 16.246 6.80657 16.3812 6.73018L17.2361 7.54508L15.7577 7.04775ZM17.167 7.80723C17.1655 7.81622 17.164 7.8252 17.1625 7.83419H15.8027C15.7487 7.76079 15.6735 7.70387 15.5849 7.67241L15.6856 7.3099L17.167 7.80723ZM13.7188 13.3782L13.3928 14.5512C13.1975 14.5706 13.0382 14.71 12.9916 14.8957H10.7094L9.82443 11.69L13.7188 13.3782ZM9.73127 11.356L9.51642 10.5785C9.55548 10.5291 9.58403 10.4736 9.60056 10.4107H14.5422L13.7909 13.1146L9.73127 11.356ZM13.0067 15.1668C13.0382 15.2522 13.0923 15.3241 13.1644 15.3781L12.1142 19.1605C12.0766 19.156 12.0391 19.153 12 19.153C11.9624 19.153 11.9249 19.156 11.8873 19.1605L10.7845 15.1668H13.0067ZM13.4198 15.4679C13.4258 15.4679 13.4334 15.4694 13.4394 15.4694C13.6392 15.4694 13.8075 15.3421 13.8736 15.1653H14.4024L12.4763 18.8654L13.4198 15.4679ZM13.8871 14.8957C13.8555 14.7699 13.7714 14.665 13.6602 14.6036L13.9712 13.4861L14.736 13.8172C14.766 13.9415 14.8472 14.0448 14.9554 14.1063L14.5452 14.8957H13.8871ZM15.2303 14.1647C15.2949 14.1587 15.355 14.1392 15.4091 14.1093L16.9657 14.7834C16.9566 14.8208 16.9491 14.8568 16.9446 14.8957H14.8487L15.2303 14.1647ZM15.3791 13.2914C15.319 13.2629 15.2528 13.2464 15.1837 13.2464C14.9899 13.2464 14.8246 13.3648 14.7555 13.5325L14.0434 13.2239L14.8246 10.4122H16.1904C16.2234 10.6669 16.3587 10.8886 16.5555 11.0339L15.3791 13.2914ZM14.6188 10.1411H9.59004C9.57502 10.0977 9.55248 10.0572 9.52543 10.0198L10.759 8.10533H14.9659C14.9659 8.22966 15.0155 8.34201 15.0951 8.4244L14.6188 10.1411ZM15.0545 7.83419H10.9332L11.4892 6.97135L12.1382 6.83803C12.1713 6.83354 12.2043 6.82605 12.2374 6.81706L13.4769 6.5639L15.4301 7.22151L15.3084 7.66042C15.2033 7.68889 15.1146 7.7503 15.0545 7.83419ZM12.7753 6.43357C12.7933 6.40661 12.8098 6.37665 12.8249 6.34669L12.9661 6.39463L12.7753 6.43357ZM14.0043 6.45754L15.0575 6.24183C15.1447 6.47851 15.325 6.67026 15.5548 6.77062L15.5023 6.95937L14.0043 6.45754ZM13.4935 6.28677L13.229 6.19689H13.9307L13.4935 6.28677ZM11.1165 7.04775L10.6102 7.83419H8.75918L8.67954 7.54508L11.1165 7.04775ZM10.4359 8.10533L9.31509 9.84749L8.8343 8.10533H10.4359ZM9.15583 10.7568C9.1994 10.7568 9.23997 10.7493 9.28053 10.7373L9.41275 11.2181L8.8974 10.9949L9.05817 10.7463C9.08972 10.7523 9.12127 10.7568 9.15583 10.7568ZM9.5044 11.5522L10.4284 14.8957H7.0674C7.03885 14.665 6.92616 14.4613 6.75939 14.3145L8.74866 11.2241L9.5044 11.5522ZM8.64649 10.8856L7.75703 10.5006C7.76304 10.4721 7.76905 10.4422 7.77205 10.4122H8.70959C8.73063 10.4886 8.76819 10.559 8.82228 10.6145L8.64649 10.8856ZM7.06139 15.1668H10.5035L11.6259 19.2309C11.5838 19.2489 11.5448 19.2698 11.5072 19.2938L6.98326 15.402C7.01781 15.3271 7.04636 15.2507 7.06139 15.1668ZM14.709 15.1668H16.9506C16.9657 15.2507 16.9942 15.3286 17.0288 15.402L12.6115 19.1934L14.709 15.1668ZM17.0693 14.5347L15.6044 13.8995C15.6315 13.8411 15.6465 13.7767 15.6465 13.7078C15.6465 13.6254 15.6224 13.549 15.5849 13.4816L16.7929 11.1612C16.8515 11.1822 16.9146 11.1957 16.9777 11.2062L17.463 14.1767C17.2992 14.2561 17.1625 14.3804 17.0693 14.5347ZM17.1865 9.37412C17.161 9.37262 17.1339 9.36963 17.1069 9.36963C16.6471 9.36963 16.267 9.70368 16.1949 10.1396H14.8983L15.3385 8.55622C15.367 8.56221 15.3971 8.56521 15.4271 8.56521C15.6825 8.56521 15.8899 8.35849 15.8899 8.10383H17.152C17.1805 8.34051 17.2977 8.54873 17.4705 8.69553L17.1865 9.37412ZM6.52651 8.69703C6.69929 8.55023 6.81799 8.34201 6.84503 8.10533H8.55184L9.03413 9.85048C8.88689 9.88943 8.76969 9.99878 8.72011 10.1411H7.76604C7.69242 9.70368 7.3123 9.37113 6.85405 9.37113C6.84052 9.37113 6.827 9.37262 6.81348 9.37262L6.52651 8.69703Z" fill="#FFDC00"/>
</svg>
