<svg width="24" height="24" viewBox="0 0 24 24" fill="none" xmlns="http://www.w3.org/2000/svg">
<path d="M12 24C18.6274 24 24 18.6274 24 12C24 5.37258 18.6274 0 12 0C5.37258 0 0 5.37258 0 12C0 18.6274 5.37258 24 12 24Z" fill="#E43B6D"/>
<path d="M23.5 12C23.5 18.3513 18.3513 23.5 12 23.5C5.64873 23.5 0.5 18.3513 0.5 12C0.5 5.64873 5.64873 0.5 12 0.5C18.3513 0.5 23.5 5.64873 23.5 12Z" stroke="black" stroke-opacity="0.097"/>
<g clip-path="url(#clip0)">
<path d="M4.00001 11.8985C3.99031 9.18783 6.0182 6.65991 9.12311 5.9594C11.248 5.4924 13.2177 5.92894 15.0613 7.11676C15.5561 7.43148 16.0315 7.78681 16.5264 8.10153C17.0018 8.4061 17.1959 8.28427 17.1765 7.69544C17.1571 7.0863 17.0018 6.49747 16.7399 5.94925C16.6719 5.81727 16.4973 5.64468 16.6816 5.50255C16.8369 5.37057 16.9921 5.54316 17.1086 5.63453C18.8163 6.99493 19.8448 8.79189 19.9709 11.0152C20.0291 12.1117 20.0485 13.269 19.5149 14.3249C18.4281 16.4569 16.6719 17.6041 14.4791 18.0406C12.0825 18.5076 9.95756 17.7056 8.01699 16.2741C7.82293 16.132 7.62888 15.9696 7.42512 15.8376C7.06611 15.6244 6.87205 15.7259 6.85265 16.1624C6.82354 16.7716 7.0273 17.3198 7.25046 17.868C7.33779 18.0812 7.58036 18.3553 7.42512 18.4975C7.21165 18.6904 6.98849 18.3858 6.82354 18.2437C5.07703 16.6701 3.9806 14.7716 4.00001 11.8985ZM7.07581 14.6396C7.49304 15.0355 7.88115 15.4721 8.30807 15.8579C10.9473 18.2335 14.2559 18.4975 17.0697 16.5888C19.3208 15.066 20.1747 12.6193 19.4081 9.91879C19.2141 9.21828 18.9424 8.54823 18.5349 7.9594C18.4476 7.82742 18.3505 7.64468 18.1662 7.66498C17.9624 7.69544 17.9915 7.91879 17.9721 8.07108C17.9139 8.41625 17.8751 8.77158 17.7975 9.11676C17.6713 9.68529 17.4676 9.76651 17.0406 9.40103C16.6719 9.07615 16.3226 8.72082 15.9636 8.3858C13.8387 6.37564 11.4518 5.4924 8.61857 6.48732C5.9988 7.40103 4.37842 9.61422 4.39783 12.599C4.40753 13.5838 4.69861 14.8223 5.48455 15.8985C5.59128 16.0406 5.6786 16.264 5.87266 16.2335C6.10553 16.1929 6.08612 15.9188 6.13464 15.7361" fill="white"/>
<path d="M11.4712 4C12.6452 4 13.7416 4.27411 14.6537 5.08629C14.9157 5.3198 15.3329 5.61421 15.1194 5.9797C14.9351 6.29442 14.5276 5.98985 14.2462 5.87817C12.4124 5.15736 10.5397 5.1269 8.62824 5.41117C8.45359 5.44162 8.23042 5.52284 8.1431 5.32995C8.03637 5.09645 8.28864 4.98477 8.43418 4.88325C9.36566 4.25381 10.3845 4 11.4712 4Z" fill="white"/>
<path d="M12.4997 19.9897C11.3547 19.9998 10.2971 19.7156 9.37535 18.9744C9.30743 18.9237 9.23951 18.8729 9.191 18.812C8.97753 18.548 8.57001 18.2841 8.78348 17.9389C8.97753 17.614 9.34624 17.9389 9.60822 18.0506C10.9957 18.6293 12.4317 18.7917 13.9163 18.7917C14.4208 18.7917 14.8866 18.6191 15.3814 18.6699C15.5173 18.68 15.6822 18.5785 15.7501 18.7714C15.8083 18.9541 15.6434 19.0455 15.5367 19.1267C14.7119 19.7054 13.7804 19.9491 12.8005 19.9998C12.6937 19.9998 12.5967 19.9897 12.4997 19.9897Z" fill="white"/>
<path d="M10.6367 6.55811C13.208 6.60887 15.1971 7.69516 16.4196 10.1317C16.604 10.5073 16.7981 10.8728 17.0115 11.2383C17.1862 11.5429 17.4384 11.5632 17.7101 11.3601C18.0303 11.1165 18.2632 10.8018 18.4863 10.4667C18.7289 10.1114 18.9521 10.1419 19.1073 10.5581C19.3499 11.2079 19.3305 11.8982 19.2141 12.5581C18.7774 14.954 17.0309 16.7612 14.741 17.2383C11.6944 17.8678 9.04547 16.619 7.46391 13.8068C7.29896 13.5124 7.13401 13.218 6.94966 12.954C6.58095 12.4261 6.26076 12.4363 5.88234 12.954C5.77561 13.1063 5.69799 13.2688 5.59126 13.4211C5.32928 13.7865 5.08671 13.7662 4.92176 13.3398C4.65979 12.6596 4.67919 11.9591 4.82473 11.2485C5.30988 8.92359 7.30866 7.00481 9.58883 6.65963C9.92843 6.59871 10.2777 6.56826 10.6367 6.55811ZM10.7144 6.88298C10.5397 6.88298 10.3554 6.87283 10.1807 6.88298C8.1043 6.9642 5.95026 8.72054 5.49423 10.7307C5.42631 11.015 5.22255 11.3906 5.49423 11.5835C5.70769 11.7256 5.90175 11.35 6.12492 11.2282C6.15402 11.2079 6.17343 11.1875 6.20254 11.1672C6.84293 10.7205 7.19223 10.8525 7.39599 11.6241C7.4348 11.7865 7.47361 11.949 7.51242 12.1114C7.95875 14.1013 9.05518 15.5226 10.8308 16.3957C13.0819 17.4921 15.9539 16.9439 17.6034 15.0556C18.1856 14.3957 18.5543 13.6139 18.6513 12.7104C18.6998 12.2738 18.5349 12.1825 18.1759 12.3855C17.9915 12.487 17.8266 12.6393 17.6616 12.7713C17.06 13.2586 16.8272 13.1875 16.604 12.4363C16.507 12.1013 16.4196 11.7561 16.3129 11.4211C15.4397 8.49719 13.4506 6.88298 10.7144 6.88298Z" fill="white"/>
</g>
<defs>
<clipPath id="clip0">
<rect width="16" height="16" fill="white" transform="translate(4 4)"/>
</clipPath>
</defs>
</svg>
