<svg id="svg" version="1.1" xmlns="http://www.w3.org/2000/svg" xmlns:xlink="http://www.w3.org/1999/xlink" width="400" height="400" viewBox="0, 0, 400,400"><g id="svgg"><path id="path0" d="M133.300 18.290 C 131.485 18.368,130.000 18.605,130.000 18.816 C 130.000 19.027,128.751 19.200,127.224 19.200 C 125.697 19.200,124.336 19.380,124.200 19.600 C 124.064 19.820,123.256 20.000,122.405 20.000 C 121.554 20.000,120.587 20.270,120.257 20.600 C 119.927 20.930,119.025 21.200,118.252 21.200 C 117.479 21.200,116.736 21.380,116.600 21.600 C 116.464 21.820,115.845 22.000,115.225 22.000 C 114.605 22.000,113.874 22.270,113.600 22.600 C 113.326 22.930,112.674 23.200,112.151 23.200 C 111.628 23.200,111.200 23.380,111.200 23.600 C 111.200 23.820,110.761 24.000,110.224 24.000 C 109.687 24.000,109.136 24.180,109.000 24.400 C 108.864 24.620,108.416 24.800,108.005 24.800 C 107.594 24.800,106.987 25.070,106.657 25.400 C 106.327 25.730,105.684 26.000,105.229 26.000 C 104.773 26.000,104.400 26.180,104.400 26.400 C 104.400 26.620,104.143 26.800,103.829 26.800 C 103.514 26.800,103.019 27.032,102.729 27.315 C 102.438 27.599,101.525 28.147,100.700 28.534 C 99.875 28.921,99.200 29.409,99.200 29.619 C 99.200 29.828,98.840 30.000,98.400 30.000 C 97.960 30.000,97.600 30.180,97.600 30.400 C 97.600 30.620,97.330 30.800,97.000 30.800 C 96.670 30.800,96.400 31.070,96.400 31.400 C 96.400 31.730,96.085 32.006,95.700 32.013 C 94.835 32.028,93.600 32.929,93.600 33.544 C 93.600 33.795,93.330 34.000,93.000 34.000 C 92.670 34.000,92.400 34.180,92.400 34.400 C 92.400 34.620,92.143 34.800,91.828 34.800 C 91.514 34.800,90.589 35.430,89.773 36.200 C 88.956 36.970,88.133 37.600,87.944 37.600 C 87.755 37.600,87.600 37.793,87.600 38.029 C 87.600 38.582,86.582 39.600,86.029 39.600 C 85.793 39.600,85.600 39.793,85.600 40.029 C 85.600 40.582,84.582 41.600,84.029 41.600 C 83.793 41.600,83.600 41.793,83.600 42.029 C 83.600 42.582,82.582 43.600,82.029 43.600 C 81.793 43.600,81.600 43.737,81.600 43.904 C 81.600 44.072,80.973 44.927,80.208 45.804 C 79.442 46.682,78.812 47.625,78.808 47.900 C 78.803 48.175,78.620 48.400,78.400 48.400 C 78.180 48.400,78.000 48.670,78.000 49.000 C 78.000 49.330,77.730 49.600,77.400 49.600 C 77.070 49.600,76.800 49.870,76.800 50.200 C 76.800 50.530,76.620 50.800,76.400 50.800 C 76.180 50.800,76.000 51.160,76.000 51.600 C 76.000 52.040,75.772 52.400,75.494 52.400 C 75.216 52.400,74.631 53.147,74.194 54.059 C 72.929 56.703,72.630 57.200,72.305 57.200 C 72.137 57.200,72.000 57.545,72.000 57.967 C 72.000 58.388,71.847 58.793,71.661 58.867 C 71.266 59.022,69.200 62.654,69.200 63.194 C 69.200 63.394,68.750 64.044,68.200 64.638 C 67.650 65.231,67.200 66.031,67.200 66.416 C 67.200 66.800,66.930 67.218,66.600 67.345 C 66.270 67.471,66.000 67.941,66.000 68.387 C 66.000 68.834,65.820 69.200,65.600 69.200 C 65.380 69.200,65.200 69.392,65.200 69.627 C 65.200 69.861,64.750 70.643,64.200 71.364 C 63.650 72.086,63.200 72.974,63.200 73.338 C 63.200 73.702,63.023 74.000,62.808 74.000 C 62.592 74.000,62.302 74.450,62.164 75.000 C 62.026 75.550,61.772 76.000,61.600 76.000 C 61.428 76.000,61.182 76.417,61.054 76.926 C 60.926 77.436,60.457 78.273,60.011 78.787 C 59.565 79.302,59.200 79.965,59.200 80.261 C 59.200 80.558,59.020 80.800,58.800 80.800 C 58.580 80.800,58.400 81.250,58.400 81.800 C 58.400 82.350,58.175 82.802,57.900 82.804 C 57.625 82.806,57.077 83.481,56.683 84.304 C 55.434 86.907,55.019 87.600,54.705 87.600 C 54.537 87.600,54.400 88.031,54.400 88.557 C 54.400 89.084,54.175 89.601,53.900 89.707 C 53.333 89.925,51.600 93.005,51.600 93.795 C 51.600 94.081,51.330 94.418,51.000 94.545 C 50.670 94.671,50.400 95.141,50.400 95.587 C 50.400 96.034,50.220 96.400,50.000 96.400 C 49.780 96.400,49.600 96.670,49.600 97.000 C 49.600 97.330,49.433 97.600,49.229 97.600 C 48.802 97.600,47.600 99.859,47.600 100.661 C 47.600 100.958,47.428 101.200,47.219 101.200 C 47.009 101.200,46.521 101.875,46.134 102.700 C 45.747 103.525,45.199 104.438,44.915 104.729 C 44.632 105.019,44.400 105.514,44.400 105.829 C 44.400 106.143,44.220 106.400,44.000 106.400 C 43.780 106.400,43.600 106.760,43.600 107.200 C 43.600 107.640,43.463 108.000,43.295 108.000 C 42.989 108.000,42.267 109.185,41.771 110.500 C 41.626 110.885,41.348 111.200,41.153 111.200 C 40.959 111.200,40.800 111.650,40.800 112.200 C 40.800 112.822,40.573 113.200,40.200 113.200 C 39.870 113.200,39.600 113.498,39.600 113.862 C 39.600 114.226,39.150 115.114,38.600 115.836 C 38.050 116.557,37.600 117.339,37.600 117.573 C 37.600 117.808,37.420 118.000,37.200 118.000 C 36.980 118.000,36.800 118.431,36.800 118.957 C 36.800 119.484,36.530 120.018,36.200 120.145 C 35.870 120.271,35.596 120.606,35.591 120.887 C 35.586 121.169,35.230 121.850,34.800 122.400 C 34.370 122.950,34.014 123.696,34.009 124.057 C 34.004 124.419,33.730 124.818,33.400 124.945 C 33.070 125.071,32.800 125.541,32.800 125.987 C 32.800 126.434,32.620 126.800,32.400 126.800 C 32.180 126.800,32.000 126.992,32.000 127.227 C 32.000 127.461,31.550 128.243,31.000 128.964 C 30.450 129.686,30.000 130.554,30.000 130.895 C 30.000 131.236,29.730 131.618,29.400 131.745 C 29.070 131.871,28.800 132.341,28.800 132.787 C 28.800 133.234,28.620 133.600,28.400 133.600 C 28.180 133.600,28.000 133.870,28.000 134.200 C 28.000 134.530,27.865 134.801,27.700 134.803 C 27.298 134.806,26.000 137.119,26.000 137.832 C 26.000 138.145,25.823 138.400,25.608 138.400 C 25.392 138.400,25.102 138.850,24.964 139.400 C 24.826 139.950,24.553 140.400,24.357 140.400 C 24.160 140.400,24.000 140.670,24.000 141.000 C 24.000 141.330,23.820 141.600,23.600 141.600 C 23.380 141.600,23.200 141.941,23.200 142.357 C 23.200 142.774,22.930 143.218,22.600 143.345 C 22.270 143.471,22.000 143.941,22.000 144.387 C 22.000 144.834,21.863 145.200,21.695 145.200 C 21.389 145.200,20.667 146.385,20.171 147.700 C 20.026 148.085,19.748 148.400,19.553 148.400 C 19.359 148.400,19.200 148.738,19.200 149.151 C 19.200 149.564,18.930 150.126,18.600 150.400 C 18.270 150.674,18.000 151.052,18.000 151.241 C 18.000 151.430,17.370 152.569,16.600 153.773 C 15.830 154.977,15.200 156.240,15.200 156.581 C 15.200 156.921,15.020 157.200,14.800 157.200 C 14.580 157.200,14.400 157.461,14.400 157.779 C 14.400 158.098,13.950 158.844,13.400 159.438 C 12.850 160.031,12.400 160.831,12.400 161.216 C 12.400 161.600,12.130 162.018,11.800 162.145 C 11.470 162.271,11.200 162.741,11.200 163.187 C 11.200 163.634,11.020 164.000,10.800 164.000 C 10.580 164.000,10.400 164.450,10.400 165.000 C 10.400 165.550,10.233 166.000,10.029 166.000 C 9.616 166.000,8.400 168.249,8.400 169.012 C 8.400 169.282,8.130 169.726,7.800 170.000 C 7.470 170.274,7.200 170.836,7.200 171.249 C 7.200 171.662,7.020 172.000,6.800 172.000 C 6.580 172.000,6.400 172.439,6.400 172.976 C 6.400 173.513,6.220 174.064,6.000 174.200 C 5.780 174.336,5.600 175.072,5.600 175.836 C 5.600 176.702,5.374 177.312,5.000 177.455 C 4.633 177.596,4.400 178.203,4.400 179.019 C 4.400 179.753,4.220 180.464,4.000 180.600 C 3.780 180.736,3.594 181.422,3.587 182.124 C 3.580 182.826,3.310 183.749,2.987 184.176 C 2.664 184.604,2.400 185.718,2.400 186.653 C 2.400 187.588,2.220 188.464,2.000 188.600 C 1.455 188.937,1.455 213.063,2.000 213.400 C 2.220 213.536,2.400 214.412,2.400 215.347 C 2.400 216.282,2.664 217.396,2.987 217.824 C 3.310 218.251,3.580 219.174,3.587 219.876 C 3.594 220.578,3.780 221.264,4.000 221.400 C 4.220 221.536,4.400 222.247,4.400 222.981 C 4.400 223.746,4.635 224.405,4.953 224.526 C 5.257 224.643,5.608 225.337,5.734 226.069 C 6.253 229.094,6.509 230.000,6.845 230.000 C 7.040 230.000,7.200 230.347,7.200 230.771 C 7.200 231.196,7.470 231.813,7.800 232.143 C 8.130 232.473,8.400 232.908,8.400 233.110 C 8.400 233.779,9.652 236.000,10.029 236.000 C 10.233 236.000,10.400 236.450,10.400 237.000 C 10.400 237.550,10.580 238.000,10.800 238.000 C 11.020 238.000,11.200 238.366,11.200 238.813 C 11.200 239.259,11.470 239.729,11.800 239.855 C 12.130 239.982,12.400 240.400,12.400 240.784 C 12.400 241.169,12.850 241.969,13.400 242.562 C 13.950 243.156,14.400 243.902,14.400 244.221 C 14.400 244.539,14.580 244.800,14.800 244.800 C 15.020 244.800,15.200 245.074,15.200 245.410 C 15.200 246.060,18.360 251.309,18.887 251.533 C 19.059 251.607,19.200 252.102,19.200 252.633 C 19.200 253.165,19.337 253.600,19.505 253.600 C 19.811 253.600,20.533 254.785,21.029 256.100 C 21.174 256.485,21.452 256.800,21.647 256.800 C 21.841 256.800,22.000 257.166,22.000 257.613 C 22.000 258.059,22.270 258.529,22.600 258.655 C 22.930 258.782,23.200 259.226,23.200 259.643 C 23.200 260.059,23.380 260.400,23.600 260.400 C 23.820 260.400,24.000 260.670,24.000 261.000 C 24.000 261.330,24.160 261.600,24.357 261.600 C 24.553 261.600,24.826 262.050,24.964 262.600 C 25.102 263.150,25.392 263.600,25.608 263.600 C 25.823 263.600,26.000 263.855,26.000 264.168 C 26.000 264.881,27.298 267.194,27.700 267.197 C 27.865 267.199,28.000 267.470,28.000 267.800 C 28.000 268.130,28.180 268.400,28.400 268.400 C 28.620 268.400,28.800 268.766,28.800 269.213 C 28.800 269.659,29.070 270.129,29.400 270.255 C 29.730 270.382,30.000 270.764,30.000 271.105 C 30.000 271.446,30.450 272.314,31.000 273.036 C 31.550 273.757,32.000 274.539,32.000 274.773 C 32.000 275.008,32.180 275.200,32.400 275.200 C 32.620 275.200,32.800 275.566,32.800 276.013 C 32.800 276.459,33.070 276.929,33.400 277.055 C 33.730 277.182,34.000 277.592,34.000 277.967 C 34.000 278.342,34.360 279.036,34.800 279.508 C 35.240 279.980,35.600 280.650,35.600 280.996 C 35.600 281.342,35.870 281.729,36.200 281.855 C 36.530 281.982,36.800 282.516,36.800 283.043 C 36.800 283.569,36.980 284.000,37.200 284.000 C 37.420 284.000,37.600 284.192,37.600 284.427 C 37.600 284.661,38.050 285.443,38.600 286.164 C 39.150 286.886,39.600 287.774,39.600 288.138 C 39.600 288.502,39.870 288.800,40.200 288.800 C 40.573 288.800,40.800 289.178,40.800 289.800 C 40.800 290.350,40.937 290.800,41.105 290.800 C 41.411 290.800,42.133 291.985,42.629 293.300 C 42.774 293.685,43.052 294.000,43.247 294.000 C 43.441 294.000,43.600 294.360,43.600 294.800 C 43.600 295.240,43.780 295.600,44.000 295.600 C 44.220 295.600,44.400 295.857,44.400 296.171 C 44.400 296.486,44.632 296.981,44.915 297.271 C 45.199 297.562,45.747 298.475,46.134 299.300 C 46.521 300.125,47.009 300.800,47.219 300.800 C 47.428 300.800,47.600 301.042,47.600 301.339 C 47.600 302.141,48.802 304.400,49.229 304.400 C 49.433 304.400,49.600 304.670,49.600 305.000 C 49.600 305.330,49.780 305.600,50.000 305.600 C 50.220 305.600,50.400 305.966,50.400 306.413 C 50.400 306.859,50.670 307.329,51.000 307.455 C 51.330 307.582,51.600 307.919,51.600 308.205 C 51.600 308.995,53.333 312.075,53.900 312.293 C 54.175 312.399,54.400 312.916,54.400 313.443 C 54.400 313.969,54.537 314.400,54.705 314.400 C 55.019 314.400,55.434 315.093,56.683 317.696 C 57.077 318.519,57.625 319.194,57.900 319.196 C 58.175 319.198,58.400 319.650,58.400 320.200 C 58.400 320.750,58.580 321.200,58.800 321.200 C 59.020 321.200,59.200 321.566,59.200 322.013 C 59.200 322.459,59.439 322.917,59.732 323.029 C 60.024 323.141,60.508 323.856,60.807 324.617 C 61.105 325.377,61.476 326.000,61.631 326.000 C 61.786 326.000,62.026 326.450,62.164 327.000 C 62.302 327.550,62.592 328.000,62.808 328.000 C 63.023 328.000,63.200 328.334,63.200 328.742 C 63.200 329.149,63.650 329.969,64.200 330.562 C 64.750 331.156,65.200 331.784,65.200 331.959 C 65.200 332.590,66.467 334.800,66.829 334.800 C 67.033 334.800,67.200 335.134,67.200 335.542 C 67.200 335.949,67.650 336.769,68.200 337.362 C 68.750 337.956,69.200 338.702,69.200 339.021 C 69.200 339.339,69.380 339.600,69.600 339.600 C 69.820 339.600,70.000 339.855,70.000 340.168 C 70.000 340.881,71.298 343.194,71.700 343.197 C 71.865 343.199,72.000 343.560,72.000 344.000 C 72.000 344.440,72.180 344.800,72.400 344.800 C 72.620 344.800,72.800 345.166,72.800 345.613 C 72.800 346.059,73.039 346.517,73.332 346.629 C 73.624 346.741,74.108 347.456,74.407 348.217 C 74.705 348.977,75.186 349.600,75.475 349.600 C 75.764 349.600,76.006 349.915,76.013 350.300 C 76.028 351.165,76.929 352.400,77.544 352.400 C 77.795 352.400,78.000 352.670,78.000 353.000 C 78.000 353.330,78.180 353.600,78.400 353.600 C 78.620 353.600,78.803 353.825,78.808 354.100 C 78.812 354.375,79.442 355.318,80.208 356.196 C 80.973 357.073,81.600 357.928,81.600 358.096 C 81.600 358.263,81.840 358.400,82.132 358.400 C 82.425 358.400,82.906 358.850,83.200 359.400 C 83.494 359.950,83.898 360.400,84.096 360.400 C 84.595 360.400,85.600 361.450,85.600 361.971 C 85.600 362.207,85.793 362.400,86.029 362.400 C 86.582 362.400,87.600 363.418,87.600 363.971 C 87.600 364.207,87.755 364.400,87.944 364.400 C 88.133 364.400,88.956 365.030,89.773 365.800 C 90.589 366.570,91.381 367.200,91.533 367.200 C 91.684 367.200,92.293 367.650,92.887 368.200 C 93.480 368.750,94.153 369.200,94.383 369.200 C 94.612 369.200,94.800 369.392,94.800 369.627 C 94.800 369.861,95.295 369.996,95.900 369.927 L 97.000 369.800 97.101 286.040 C 97.181 219.823,97.306 202.154,97.701 201.680 C 97.975 201.350,98.339 199.532,98.508 197.640 C 99.162 190.341,99.288 189.386,99.652 188.942 C 99.859 188.691,100.137 187.560,100.271 186.431 C 100.405 185.301,100.669 184.281,100.857 184.165 C 101.046 184.048,101.200 183.444,101.200 182.822 C 101.200 182.200,101.469 181.176,101.798 180.546 C 102.126 179.916,102.396 178.916,102.398 178.324 C 102.399 177.732,102.580 177.136,102.800 177.000 C 103.020 176.864,103.200 176.234,103.200 175.600 C 103.200 174.966,103.380 174.336,103.600 174.200 C 103.820 174.064,104.000 173.443,104.000 172.819 C 104.000 172.181,104.262 171.585,104.600 171.455 C 104.930 171.329,105.200 170.780,105.200 170.236 C 105.200 169.692,105.380 169.136,105.600 169.000 C 105.820 168.864,106.000 168.430,106.000 168.036 C 106.000 167.642,106.450 166.473,107.000 165.438 C 107.550 164.404,108.000 163.207,108.000 162.779 C 108.000 162.350,108.177 162.000,108.392 162.000 C 108.608 162.000,108.898 161.550,109.036 161.000 C 109.174 160.450,109.447 160.000,109.643 160.000 C 109.840 160.000,110.000 159.550,110.000 159.000 C 110.000 158.450,110.181 158.000,110.401 158.000 C 110.622 158.000,111.114 157.280,111.496 156.400 C 111.877 155.520,112.326 154.800,112.494 154.800 C 112.662 154.800,112.800 154.449,112.800 154.020 C 112.800 153.591,113.025 153.096,113.301 152.920 C 113.576 152.744,114.071 152.060,114.400 151.400 C 114.729 150.740,115.224 150.056,115.499 149.880 C 115.775 149.704,116.000 149.291,116.000 148.962 C 116.000 148.633,116.450 147.914,117.000 147.364 C 117.550 146.814,118.000 146.102,118.000 145.782 C 118.000 145.462,118.180 145.200,118.400 145.200 C 118.620 145.200,118.800 145.012,118.800 144.783 C 118.800 144.553,119.250 143.880,119.800 143.287 C 120.350 142.693,120.800 142.058,120.800 141.876 C 120.800 141.400,121.865 140.400,122.371 140.400 C 122.607 140.400,122.800 140.130,122.800 139.800 C 122.800 139.470,122.935 139.199,123.100 139.197 C 123.265 139.196,123.850 138.534,124.400 137.726 C 124.950 136.918,126.525 135.127,127.900 133.744 C 129.275 132.362,130.400 131.045,130.400 130.816 C 130.400 130.587,130.580 130.400,130.800 130.400 C 131.020 130.400,132.241 129.365,133.513 128.100 C 134.785 126.835,136.540 125.270,137.413 124.623 C 138.286 123.976,139.573 122.851,140.273 122.123 C 140.973 121.395,141.661 120.800,141.802 120.800 C 141.942 120.800,142.308 120.575,142.615 120.300 C 143.938 119.113,144.391 118.800,144.783 118.800 C 145.012 118.800,145.200 118.620,145.200 118.400 C 145.200 118.180,145.462 118.000,145.782 118.000 C 146.102 118.000,146.792 117.572,147.316 117.048 C 147.839 116.524,148.658 115.972,149.134 115.821 C 149.610 115.670,150.000 115.378,150.000 115.173 C 150.000 114.968,150.270 114.800,150.600 114.800 C 150.930 114.800,151.200 114.620,151.200 114.400 C 151.200 114.180,151.560 114.000,152.000 114.000 C 152.444 114.000,152.800 113.733,152.800 113.400 C 152.800 113.070,153.072 112.800,153.405 112.800 C 154.006 112.800,155.616 112.027,156.000 111.554 C 156.110 111.419,156.605 111.181,157.100 111.027 C 157.595 110.872,158.000 110.578,158.000 110.373 C 158.000 110.168,158.242 110.000,158.539 110.000 C 159.341 110.000,161.600 108.798,161.600 108.371 C 161.600 108.167,162.039 108.000,162.576 108.000 C 163.113 108.000,163.664 107.820,163.800 107.600 C 163.936 107.380,164.375 107.200,164.775 107.200 C 165.175 107.200,165.726 106.930,166.000 106.600 C 166.274 106.270,166.926 106.000,167.449 106.000 C 167.972 106.000,168.400 105.820,168.400 105.600 C 168.400 105.380,168.918 105.200,169.551 105.200 C 170.184 105.200,170.926 104.930,171.200 104.600 C 171.474 104.270,172.126 104.000,172.649 104.000 C 173.172 104.000,173.600 103.820,173.600 103.600 C 173.600 103.380,174.219 103.200,174.976 103.200 C 175.733 103.200,176.464 103.020,176.600 102.800 C 176.736 102.580,177.342 102.400,177.947 102.400 C 178.552 102.400,179.396 102.136,179.824 101.813 C 180.251 101.490,181.277 101.220,182.105 101.213 C 182.933 101.206,183.923 101.030,184.305 100.822 C 184.687 100.614,185.675 100.336,186.500 100.204 C 187.325 100.072,188.000 99.792,188.000 99.582 C 188.000 99.372,189.134 99.200,190.520 99.200 C 191.906 99.200,193.211 99.037,193.420 98.838 C 193.629 98.639,195.316 98.411,197.169 98.332 C 199.376 98.237,200.594 98.017,200.702 97.694 C 200.966 96.902,220.719 96.997,222.254 97.798 C 222.959 98.165,224.507 98.396,226.276 98.398 C 227.858 98.399,229.264 98.580,229.400 98.800 C 229.536 99.020,230.606 99.200,231.778 99.200 C 232.950 99.200,234.424 99.469,235.054 99.798 C 235.684 100.126,236.875 100.396,237.700 100.398 C 238.525 100.399,239.200 100.580,239.200 100.800 C 239.200 101.020,239.920 101.200,240.800 101.200 C 241.680 101.200,242.400 101.369,242.400 101.575 C 242.400 101.782,243.212 102.073,244.205 102.222 C 245.198 102.371,246.108 102.652,246.229 102.846 C 246.349 103.041,247.067 103.200,247.824 103.200 C 248.581 103.200,249.200 103.380,249.200 103.600 C 249.200 103.820,249.830 104.000,250.600 104.000 C 251.578 104.000,252.000 104.181,252.000 104.600 C 252.000 104.969,252.375 105.200,252.976 105.200 C 253.513 105.200,254.064 105.380,254.200 105.600 C 254.336 105.820,254.957 106.000,255.581 106.000 C 256.219 106.000,256.815 106.262,256.945 106.600 C 257.071 106.930,257.541 107.200,257.987 107.200 C 258.434 107.200,258.800 107.380,258.800 107.600 C 258.800 107.820,259.250 108.000,259.800 108.000 C 260.350 108.000,260.800 108.145,260.800 108.323 C 260.800 108.677,263.588 110.000,264.334 110.000 C 264.590 110.000,264.800 110.177,264.800 110.392 C 264.800 110.608,265.250 110.898,265.800 111.036 C 266.350 111.174,266.800 111.447,266.800 111.643 C 266.800 111.840,267.160 112.000,267.600 112.000 C 268.040 112.000,268.400 112.180,268.400 112.400 C 268.400 112.620,268.651 112.800,268.957 112.800 C 269.264 112.800,269.618 113.070,269.745 113.400 C 269.871 113.730,270.341 114.000,270.787 114.000 C 271.234 114.000,271.600 114.180,271.600 114.400 C 271.600 114.620,271.793 114.800,272.029 114.800 C 272.264 114.800,272.708 115.025,273.015 115.300 C 274.226 116.386,274.777 116.800,275.012 116.800 C 275.147 116.800,275.508 117.025,275.815 117.300 C 277.138 118.487,277.591 118.800,277.983 118.800 C 278.212 118.800,278.400 118.968,278.400 119.173 C 278.400 119.378,278.805 119.674,279.300 119.830 C 279.795 119.987,280.491 120.449,280.847 120.857 C 281.203 121.266,281.698 121.600,281.947 121.600 C 282.196 121.600,282.404 121.825,282.409 122.100 C 282.414 122.375,283.223 123.140,284.208 123.800 C 285.193 124.460,285.999 125.135,285.999 125.300 C 286.000 125.465,286.240 125.600,286.532 125.600 C 286.825 125.600,287.306 126.050,287.600 126.600 C 287.894 127.150,288.344 127.600,288.600 127.600 C 288.856 127.600,289.306 128.050,289.600 128.600 C 289.894 129.150,290.298 129.600,290.496 129.600 C 290.963 129.600,292.000 130.637,292.000 131.104 C 292.000 131.302,292.450 131.706,293.000 132.000 C 293.550 132.294,294.000 132.698,294.000 132.896 C 294.000 133.350,295.031 134.400,295.477 134.400 C 295.660 134.400,295.988 134.732,296.205 135.138 C 297.084 136.779,299.031 139.171,299.500 139.185 C 299.775 139.193,300.000 139.470,300.000 139.800 C 300.000 140.130,300.139 140.400,300.309 140.400 C 300.479 140.400,300.957 141.030,301.372 141.800 C 301.787 142.570,302.257 143.200,302.417 143.200 C 302.578 143.200,303.008 143.830,303.373 144.600 C 303.739 145.370,304.209 146.000,304.419 146.000 C 304.628 146.000,304.800 146.270,304.800 146.600 C 304.800 146.930,304.980 147.200,305.200 147.200 C 305.420 147.200,305.600 147.427,305.600 147.704 C 305.600 147.981,306.050 148.693,306.600 149.287 C 307.150 149.880,307.600 150.649,307.600 150.995 C 307.600 151.342,307.870 151.729,308.200 151.855 C 308.530 151.982,308.800 152.426,308.800 152.843 C 308.800 153.259,308.938 153.600,309.106 153.600 C 309.274 153.600,309.723 154.320,310.104 155.200 C 310.486 156.080,310.978 156.800,311.199 156.800 C 311.419 156.800,311.600 157.250,311.600 157.800 C 311.600 158.350,311.780 158.800,312.000 158.800 C 312.220 158.800,312.400 159.166,312.400 159.613 C 312.400 160.059,312.670 160.529,313.000 160.655 C 313.330 160.782,313.600 161.306,313.600 161.819 C 313.600 162.333,313.780 162.864,314.000 163.000 C 314.220 163.136,314.400 163.575,314.400 163.975 C 314.400 164.375,314.670 164.926,315.000 165.200 C 315.330 165.474,315.600 166.126,315.600 166.649 C 315.600 167.172,315.780 167.600,316.000 167.600 C 316.220 167.600,316.400 168.037,316.400 168.571 C 316.400 169.106,316.670 169.813,317.000 170.143 C 317.330 170.473,317.600 171.195,317.600 171.748 C 317.600 172.301,317.780 172.864,318.000 173.000 C 318.220 173.136,318.400 173.777,318.400 174.424 C 318.400 175.071,318.580 175.600,318.800 175.600 C 319.020 175.600,319.201 176.095,319.202 176.700 C 319.204 177.305,319.474 178.316,319.802 178.946 C 320.131 179.576,320.400 180.690,320.400 181.422 C 320.400 182.154,320.580 182.864,320.800 183.000 C 321.020 183.136,321.200 184.052,321.200 185.036 C 321.200 186.257,321.390 186.898,321.800 187.055 C 322.238 187.224,322.400 187.914,322.400 189.619 C 322.400 190.903,322.580 192.064,322.800 192.200 C 323.020 192.336,323.201 193.832,323.202 195.524 C 323.204 197.470,323.424 199.021,323.802 199.746 C 324.590 201.256,324.694 220.746,323.918 221.522 C 323.638 221.802,323.367 223.590,323.271 225.802 C 323.179 227.891,322.946 229.600,322.752 229.600 C 322.559 229.600,322.400 230.661,322.400 231.957 C 322.400 233.684,322.239 234.376,321.800 234.545 C 321.389 234.702,321.200 235.345,321.200 236.587 C 321.200 237.584,321.020 238.400,320.800 238.400 C 320.580 238.400,320.394 239.165,320.387 240.100 C 320.380 241.035,320.110 242.149,319.787 242.576 C 319.464 243.004,319.200 243.848,319.200 244.453 C 319.200 245.058,319.020 245.664,318.800 245.800 C 318.580 245.936,318.400 246.577,318.400 247.224 C 318.400 247.871,318.220 248.400,318.000 248.400 C 317.780 248.400,317.600 249.011,317.600 249.757 C 317.600 250.595,317.370 251.203,317.000 251.345 C 316.649 251.479,316.400 252.079,316.400 252.787 C 316.400 253.454,316.220 254.000,316.000 254.000 C 315.780 254.000,315.600 254.450,315.600 255.000 C 315.600 255.550,315.455 256.000,315.277 256.000 C 314.828 256.000,313.600 258.882,313.600 259.934 C 313.600 260.437,313.348 260.800,313.000 260.800 C 312.627 260.800,312.400 261.178,312.400 261.800 C 312.400 262.350,312.220 262.800,312.000 262.800 C 311.780 262.800,311.600 263.151,311.600 263.579 C 311.600 264.008,311.150 264.844,310.600 265.438 C 310.050 266.031,309.600 266.761,309.600 267.058 C 309.600 267.356,309.420 267.600,309.200 267.600 C 308.980 267.600,308.800 268.050,308.800 268.600 C 308.800 269.159,308.568 269.600,308.275 269.600 C 307.986 269.600,307.505 270.223,307.207 270.983 C 306.908 271.744,306.424 272.459,306.132 272.571 C 305.839 272.683,305.600 273.141,305.600 273.587 C 305.600 274.034,305.420 274.400,305.200 274.400 C 304.980 274.400,304.800 274.651,304.800 274.957 C 304.800 275.264,304.530 275.618,304.200 275.745 C 303.870 275.871,303.600 276.251,303.600 276.587 C 303.600 276.924,303.420 277.200,303.200 277.200 C 302.980 277.200,302.800 277.389,302.800 277.619 C 302.800 277.850,302.380 278.435,301.868 278.919 C 301.355 279.404,300.681 280.385,300.370 281.100 C 300.059 281.815,299.656 282.400,299.474 282.400 C 299.089 282.400,298.000 283.427,298.000 283.789 C 298.000 283.924,297.550 284.520,297.000 285.113 C 296.450 285.707,296.000 286.419,296.000 286.696 C 296.000 286.973,295.807 287.200,295.571 287.200 C 295.050 287.200,294.000 288.205,294.000 288.704 C 294.000 288.902,293.550 289.306,293.000 289.600 C 292.450 289.894,292.000 290.298,292.000 290.496 C 292.000 290.995,290.950 292.000,290.429 292.000 C 290.193 292.000,290.000 292.144,290.000 292.319 C 290.000 292.668,286.895 296.000,286.571 296.000 C 286.375 296.000,285.510 296.731,283.140 298.900 C 282.479 299.505,281.861 300.000,281.766 300.000 C 281.671 300.000,281.019 300.548,280.318 301.219 C 279.616 301.889,278.448 302.719,277.721 303.064 C 276.995 303.409,276.400 303.941,276.400 304.246 C 276.400 304.551,276.085 304.806,275.700 304.813 C 274.835 304.828,273.600 305.729,273.600 306.344 C 273.600 306.595,273.266 306.800,272.858 306.800 C 272.451 306.800,271.631 307.250,271.038 307.800 C 270.444 308.350,269.732 308.800,269.455 308.800 C 269.178 308.800,268.564 309.160,268.092 309.600 C 267.620 310.040,266.950 310.400,266.604 310.400 C 266.258 310.400,265.871 310.670,265.745 311.000 C 265.618 311.330,265.324 311.600,265.092 311.600 C 264.378 311.600,261.600 312.934,261.600 313.277 C 261.600 313.455,261.240 313.600,260.800 313.600 C 260.360 313.600,260.000 313.780,260.000 314.000 C 260.000 314.220,259.634 314.400,259.187 314.400 C 258.741 314.400,258.271 314.670,258.145 315.000 C 258.018 315.330,257.484 315.600,256.957 315.600 C 256.431 315.600,256.000 315.780,256.000 316.000 C 256.000 316.220,255.563 316.400,255.029 316.400 C 254.494 316.400,253.787 316.670,253.457 317.000 C 253.127 317.330,252.495 317.600,252.052 317.600 C 251.609 317.600,251.136 317.780,251.000 318.000 C 250.864 318.220,250.234 318.400,249.600 318.400 C 248.966 318.400,248.349 318.560,248.228 318.755 C 248.107 318.950,247.377 319.228,246.604 319.373 C 245.832 319.518,245.200 319.808,245.200 320.018 C 245.200 320.228,244.581 320.400,243.824 320.400 C 243.067 320.400,242.336 320.580,242.200 320.800 C 242.064 321.020,241.278 321.200,240.453 321.200 C 239.628 321.200,238.604 321.464,238.176 321.787 C 237.749 322.110,236.646 322.380,235.724 322.387 C 234.802 322.394,233.936 322.580,233.800 322.800 C 233.664 323.020,232.748 323.200,231.764 323.200 C 230.543 323.200,229.902 323.390,229.745 323.800 C 229.565 324.267,228.775 324.400,226.181 324.400 C 224.347 324.400,222.736 324.580,222.600 324.800 C 222.263 325.345,200.137 325.345,199.800 324.800 C 199.664 324.580,198.201 324.400,196.548 324.400 C 194.410 324.400,193.370 324.227,192.943 323.800 C 192.593 323.450,191.615 323.200,190.595 323.200 C 189.634 323.200,188.736 323.020,188.600 322.800 C 188.464 322.580,187.598 322.394,186.676 322.387 C 185.754 322.380,184.651 322.110,184.224 321.787 C 183.796 321.464,182.761 321.200,181.924 321.200 C 181.086 321.200,180.400 321.020,180.400 320.800 C 180.400 320.580,179.757 320.400,178.971 320.400 C 178.186 320.400,177.273 320.130,176.943 319.800 C 176.613 319.470,175.916 319.200,175.395 319.200 C 174.874 319.200,174.336 319.020,174.200 318.800 C 174.064 318.580,173.423 318.400,172.776 318.400 C 172.129 318.400,171.600 318.220,171.600 318.000 C 171.600 317.780,171.054 317.600,170.387 317.600 C 169.679 317.600,169.079 317.351,168.945 317.000 C 168.818 316.670,168.284 316.400,167.757 316.400 C 167.231 316.400,166.800 316.220,166.800 316.000 C 166.800 315.780,166.350 315.600,165.800 315.600 C 165.250 315.600,164.800 315.455,164.800 315.277 C 164.800 314.923,162.012 313.600,161.266 313.600 C 161.010 313.600,160.800 313.423,160.800 313.208 C 160.800 312.992,160.350 312.702,159.800 312.564 C 159.250 312.426,158.800 312.153,158.800 311.957 C 158.800 311.760,158.369 311.600,157.843 311.600 C 157.316 311.600,156.782 311.330,156.655 311.000 C 156.529 310.670,156.194 310.396,155.913 310.391 C 155.631 310.386,154.950 310.030,154.400 309.600 C 153.850 309.170,153.085 308.814,152.700 308.809 C 152.315 308.804,152.000 308.530,152.000 308.200 C 152.000 307.870,151.659 307.600,151.242 307.600 C 150.825 307.600,150.060 307.153,149.542 306.607 C 149.024 306.061,148.408 305.611,148.173 305.607 C 147.938 305.603,147.038 304.970,146.173 304.200 C 145.308 303.430,144.420 302.794,144.200 302.787 C 143.980 302.779,142.810 301.879,141.600 300.787 C 140.390 299.695,139.271 298.801,139.114 298.801 C 138.957 298.800,137.543 297.540,135.972 296.000 C 134.401 294.460,132.955 293.200,132.758 293.200 C 132.561 293.200,132.400 292.960,132.400 292.668 C 132.400 292.375,131.950 291.894,131.400 291.600 C 130.850 291.306,130.400 290.958,130.400 290.828 C 130.400 290.698,128.870 288.991,127.000 287.035 C 125.130 285.079,123.600 283.236,123.600 282.939 C 123.600 282.643,123.345 282.400,123.033 282.400 C 122.722 282.400,122.391 282.175,122.299 281.900 C 122.168 281.510,121.898 281.524,121.065 281.968 L 120.000 282.535 120.000 331.392 C 120.000 386.810,119.697 382.000,123.192 382.000 C 124.050 382.000,124.864 382.180,125.000 382.400 C 125.136 382.620,126.542 382.806,128.124 382.813 C 130.016 382.821,131.266 383.026,131.776 383.413 C 132.962 384.310,267.625 384.295,269.346 383.398 C 270.010 383.051,271.555 382.800,273.022 382.800 C 274.414 382.800,275.664 382.620,275.800 382.400 C 275.936 382.180,276.902 382.000,277.947 382.000 C 278.998 382.000,280.194 381.738,280.624 381.413 C 281.051 381.090,281.974 380.820,282.676 380.813 C 283.378 380.806,284.064 380.620,284.200 380.400 C 284.336 380.180,284.957 380.000,285.581 380.000 C 286.219 380.000,286.815 379.738,286.945 379.400 C 287.078 379.053,287.676 378.800,288.364 378.800 C 289.018 378.800,289.664 378.620,289.800 378.400 C 289.936 378.180,290.487 378.000,291.024 378.000 C 291.561 378.000,292.000 377.820,292.000 377.600 C 292.000 377.380,292.254 377.200,292.566 377.200 C 293.255 377.200,298.147 374.752,298.333 374.314 C 298.407 374.141,298.722 374.000,299.033 374.000 C 299.345 374.000,299.600 373.820,299.600 373.600 C 299.600 373.380,299.966 373.200,300.413 373.200 C 300.859 373.200,301.329 372.930,301.455 372.600 C 301.582 372.270,302.000 372.000,302.384 372.000 C 302.769 372.000,303.569 371.550,304.162 371.000 C 304.756 370.450,305.502 370.000,305.821 370.000 C 306.139 370.000,306.400 369.820,306.400 369.600 C 306.400 369.380,306.593 369.200,306.829 369.200 C 307.382 369.200,308.400 368.182,308.400 367.629 C 308.400 367.393,308.631 367.200,308.913 367.200 C 309.912 367.200,319.200 358.565,319.200 357.636 C 319.200 357.396,319.449 357.200,319.754 357.200 C 320.059 357.200,320.588 356.615,320.929 355.900 C 321.271 355.185,321.921 354.335,322.375 354.012 C 322.829 353.688,323.200 353.193,323.200 352.912 C 323.200 352.630,323.339 352.400,323.509 352.400 C 323.679 352.400,324.157 351.770,324.572 351.000 C 324.987 350.230,325.478 349.600,325.663 349.600 C 325.848 349.600,326.000 349.150,326.000 348.600 C 326.000 347.978,326.227 347.600,326.600 347.600 C 326.930 347.600,327.200 347.330,327.200 347.000 C 327.200 346.670,327.380 346.400,327.600 346.400 C 327.820 346.400,328.000 346.059,328.000 345.643 C 328.000 345.226,328.270 344.782,328.600 344.655 C 328.930 344.529,329.200 344.059,329.200 343.613 C 329.200 343.166,329.380 342.800,329.600 342.800 C 329.820 342.800,330.000 342.530,330.000 342.200 C 330.000 341.870,330.177 341.600,330.392 341.600 C 330.608 341.600,330.898 341.150,331.036 340.600 C 331.174 340.050,331.447 339.600,331.643 339.600 C 331.840 339.600,332.000 339.240,332.000 338.800 C 332.000 338.360,332.168 338.000,332.373 338.000 C 332.578 338.000,332.872 337.595,333.027 337.100 C 333.181 336.605,333.419 336.110,333.554 336.000 C 334.027 335.616,334.800 334.006,334.800 333.405 C 334.800 333.072,335.070 332.800,335.400 332.800 C 335.730 332.800,336.000 332.551,336.000 332.246 C 336.000 331.572,336.694 330.215,337.900 328.533 C 338.395 327.842,338.800 326.989,338.800 326.638 C 338.800 326.287,338.939 326.000,339.109 326.000 C 339.279 326.000,339.769 325.325,340.199 324.500 C 340.628 323.675,341.389 322.443,341.889 321.762 C 342.390 321.081,342.800 320.226,342.800 319.862 C 342.800 319.498,342.980 319.200,343.200 319.200 C 343.420 319.200,343.600 318.834,343.600 318.387 C 343.600 317.941,343.870 317.471,344.200 317.345 C 344.530 317.218,344.800 316.864,344.800 316.557 C 344.800 316.251,344.980 316.000,345.200 316.000 C 345.420 316.000,345.600 315.659,345.600 315.243 C 345.600 314.826,345.870 314.382,346.200 314.255 C 346.530 314.129,346.800 313.659,346.800 313.213 C 346.800 312.766,346.980 312.400,347.200 312.400 C 347.420 312.400,347.600 312.049,347.600 311.620 C 347.600 311.191,347.825 310.696,348.101 310.520 C 348.376 310.344,348.871 309.660,349.201 309.000 C 349.530 308.340,350.025 307.562,350.300 307.271 C 350.575 306.981,350.800 306.486,350.800 306.171 C 350.800 305.857,350.938 305.600,351.106 305.600 C 351.274 305.600,351.769 304.853,352.206 303.941 C 353.471 301.297,353.770 300.800,354.095 300.800 C 354.263 300.800,354.400 300.449,354.400 300.021 C 354.400 299.592,354.850 298.756,355.400 298.162 C 355.950 297.569,356.400 296.749,356.400 296.342 C 356.400 295.934,356.535 295.599,356.700 295.597 C 357.033 295.595,358.400 293.335,358.400 292.788 C 358.400 292.597,358.850 291.956,359.400 291.362 C 359.950 290.769,360.400 289.949,360.400 289.542 C 360.400 289.134,360.580 288.800,360.800 288.800 C 361.020 288.800,361.200 288.434,361.200 287.987 C 361.200 287.541,361.470 287.071,361.800 286.945 C 362.130 286.818,362.400 286.374,362.400 285.957 C 362.400 285.541,362.580 285.200,362.800 285.200 C 363.020 285.200,363.200 284.930,363.200 284.600 C 363.200 284.270,363.377 284.000,363.592 284.000 C 363.808 284.000,364.098 283.550,364.236 283.000 C 364.374 282.450,364.647 282.000,364.843 282.000 C 365.040 282.000,365.200 281.649,365.200 281.221 C 365.200 280.792,365.650 279.956,366.200 279.362 C 366.750 278.769,367.200 278.039,367.200 277.742 C 367.200 277.444,367.377 277.200,367.592 277.200 C 367.808 277.200,368.098 276.750,368.236 276.200 C 368.374 275.650,368.647 275.200,368.843 275.200 C 369.040 275.200,369.200 274.750,369.200 274.200 C 369.200 273.650,369.380 273.200,369.600 273.200 C 369.820 273.200,370.000 273.007,370.000 272.771 C 370.000 272.536,370.225 272.092,370.500 271.785 C 371.771 270.368,372.000 269.982,372.000 269.260 C 372.000 268.834,372.270 268.382,372.600 268.255 C 372.930 268.129,373.200 267.674,373.200 267.246 C 373.200 266.817,373.353 266.407,373.540 266.333 C 374.069 266.126,376.000 262.888,376.000 262.208 C 376.000 261.874,376.181 261.600,376.401 261.600 C 376.622 261.600,377.114 260.880,377.496 260.000 C 377.877 259.120,378.326 258.400,378.494 258.400 C 378.662 258.400,378.800 258.059,378.800 257.643 C 378.800 257.226,379.070 256.782,379.400 256.655 C 379.730 256.529,380.000 256.059,380.000 255.613 C 380.000 255.166,380.137 254.800,380.305 254.800 C 380.611 254.800,381.333 253.615,381.829 252.300 C 381.974 251.915,382.252 251.600,382.447 251.600 C 382.641 251.600,382.800 251.259,382.800 250.843 C 382.800 250.426,383.070 249.982,383.400 249.855 C 383.730 249.729,384.000 249.259,384.000 248.813 C 384.000 248.366,384.135 247.998,384.300 247.995 C 384.465 247.993,384.944 247.273,385.364 246.395 C 385.785 245.518,386.280 244.800,386.464 244.800 C 386.649 244.800,386.800 244.558,386.800 244.261 C 386.800 243.562,387.978 241.201,388.329 241.197 C 388.655 241.193,389.600 239.235,389.600 238.563 C 389.600 238.300,389.870 237.982,390.200 237.855 C 390.530 237.729,390.800 237.259,390.800 236.813 C 390.800 236.366,390.980 236.000,391.200 236.000 C 391.420 236.000,391.600 235.550,391.600 235.000 C 391.600 234.378,391.827 234.000,392.200 234.000 C 392.573 234.000,392.800 233.622,392.800 233.000 C 392.800 232.450,392.980 232.000,393.200 232.000 C 393.420 232.000,393.600 231.572,393.600 231.049 C 393.600 230.526,393.870 229.874,394.200 229.600 C 394.530 229.326,394.800 228.674,394.800 228.151 C 394.800 227.628,394.980 227.200,395.200 227.200 C 395.420 227.200,395.600 226.671,395.600 226.024 C 395.600 225.377,395.780 224.736,396.000 224.600 C 396.220 224.464,396.400 223.663,396.400 222.819 C 396.400 221.825,396.611 221.205,397.000 221.055 C 397.410 220.898,397.600 220.257,397.600 219.036 C 397.600 218.052,397.780 217.136,398.000 217.000 C 398.220 216.864,398.406 215.818,398.413 214.676 C 398.420 213.489,398.677 212.268,399.013 211.824 C 399.880 210.677,399.880 191.323,399.013 190.176 C 398.677 189.732,398.420 188.511,398.413 187.324 C 398.406 186.182,398.220 185.136,398.000 185.000 C 397.780 184.864,397.600 183.948,397.600 182.964 C 397.600 181.743,397.410 181.102,397.000 180.945 C 396.609 180.795,396.400 180.172,396.400 179.157 C 396.400 178.301,396.220 177.600,396.000 177.600 C 395.780 177.600,395.600 176.970,395.600 176.200 C 395.600 175.430,395.420 174.800,395.200 174.800 C 394.980 174.800,394.800 174.372,394.800 173.849 C 394.800 173.326,394.530 172.674,394.200 172.400 C 393.870 172.126,393.600 171.474,393.600 170.951 C 393.600 170.428,393.420 170.000,393.200 170.000 C 392.980 170.000,392.800 169.634,392.800 169.187 C 392.800 168.741,392.530 168.271,392.200 168.145 C 391.870 168.018,391.600 167.484,391.600 166.957 C 391.600 166.431,391.420 166.000,391.200 166.000 C 390.980 166.000,390.800 165.634,390.800 165.187 C 390.800 164.741,390.530 164.271,390.200 164.145 C 389.870 164.018,389.600 163.646,389.600 163.319 C 389.600 162.991,389.195 162.158,388.700 161.467 C 387.494 159.785,386.800 158.428,386.800 157.754 C 386.800 157.449,386.649 157.200,386.464 157.200 C 386.280 157.200,385.785 156.482,385.364 155.605 C 384.944 154.727,384.465 154.007,384.300 154.005 C 384.135 154.002,384.000 153.659,384.000 153.243 C 384.000 152.826,383.730 152.382,383.400 152.255 C 383.070 152.129,382.800 151.659,382.800 151.213 C 382.800 150.766,382.663 150.400,382.495 150.400 C 382.189 150.400,381.467 149.215,380.971 147.900 C 380.826 147.515,380.548 147.200,380.353 147.200 C 380.159 147.200,380.000 146.834,380.000 146.387 C 380.000 145.941,379.730 145.471,379.400 145.345 C 379.070 145.218,378.800 144.774,378.800 144.357 C 378.800 143.941,378.662 143.600,378.494 143.600 C 378.326 143.600,377.877 142.880,377.496 142.000 C 377.114 141.120,376.622 140.400,376.401 140.400 C 376.181 140.400,376.000 140.145,376.000 139.832 C 376.000 139.119,374.702 136.806,374.300 136.803 C 374.135 136.801,374.000 136.530,374.000 136.200 C 374.000 135.870,373.820 135.600,373.600 135.600 C 373.380 135.600,373.200 135.234,373.200 134.787 C 373.200 134.341,372.930 133.871,372.600 133.745 C 372.270 133.618,372.000 133.161,372.000 132.729 C 372.000 132.296,371.775 131.692,371.500 131.385 C 370.313 130.062,370.000 129.609,370.000 129.217 C 370.000 128.988,369.820 128.800,369.600 128.800 C 369.380 128.800,369.200 128.350,369.200 127.800 C 369.200 127.250,369.040 126.800,368.843 126.800 C 368.647 126.800,368.374 126.350,368.236 125.800 C 368.098 125.250,367.808 124.800,367.592 124.800 C 367.377 124.800,367.200 124.556,367.200 124.258 C 367.200 123.961,366.750 123.231,366.200 122.638 C 365.650 122.044,365.200 121.208,365.200 120.779 C 365.200 120.351,365.020 120.000,364.800 120.000 C 364.580 120.000,364.400 119.743,364.400 119.429 C 364.400 119.114,364.175 118.619,363.900 118.329 C 363.625 118.038,363.130 117.260,362.801 116.600 C 362.471 115.940,361.976 115.256,361.701 115.080 C 361.425 114.904,361.200 114.409,361.200 113.980 C 361.200 113.551,361.020 113.200,360.800 113.200 C 360.580 113.200,360.400 112.866,360.400 112.458 C 360.400 112.051,359.950 111.231,359.400 110.638 C 358.850 110.044,358.400 109.403,358.400 109.212 C 358.400 108.665,357.033 106.405,356.700 106.403 C 356.535 106.401,356.400 106.066,356.400 105.658 C 356.400 105.251,355.950 104.431,355.400 103.838 C 354.850 103.244,354.387 102.543,354.371 102.279 C 354.355 102.016,354.003 101.260,353.589 100.600 C 353.174 99.940,352.522 98.770,352.139 98.000 C 351.755 97.230,351.322 96.510,351.175 96.400 C 351.028 96.290,350.781 95.795,350.627 95.300 C 350.472 94.805,350.178 94.400,349.973 94.400 C 349.768 94.400,349.600 94.192,349.600 93.938 C 349.600 93.684,349.150 92.886,348.600 92.164 C 348.050 91.443,347.600 90.571,347.600 90.227 C 347.600 89.882,347.420 89.600,347.200 89.600 C 346.980 89.600,346.800 89.234,346.800 88.787 C 346.800 88.341,346.530 87.871,346.200 87.745 C 345.870 87.618,345.600 87.174,345.600 86.757 C 345.600 86.341,345.420 86.000,345.200 86.000 C 344.980 86.000,344.800 85.749,344.800 85.443 C 344.800 85.136,344.530 84.782,344.200 84.655 C 343.870 84.529,343.600 84.059,343.600 83.613 C 343.600 83.166,343.420 82.800,343.200 82.800 C 342.980 82.800,342.800 82.545,342.800 82.232 C 342.800 81.519,341.502 79.206,341.100 79.203 C 340.935 79.201,340.800 78.930,340.800 78.600 C 340.800 78.270,340.640 78.000,340.443 78.000 C 340.247 78.000,339.974 77.550,339.836 77.000 C 339.698 76.450,339.408 76.000,339.192 76.000 C 338.977 76.000,338.800 75.758,338.800 75.461 C 338.800 74.762,337.622 72.401,337.271 72.397 C 336.934 72.393,336.000 70.425,336.000 69.720 C 336.000 69.434,335.730 69.200,335.400 69.200 C 335.070 69.200,334.800 68.928,334.800 68.595 C 334.800 67.994,334.027 66.384,333.554 66.000 C 333.419 65.890,333.181 65.395,333.027 64.900 C 332.872 64.405,332.578 64.000,332.373 64.000 C 332.168 64.000,332.000 63.640,332.000 63.200 C 332.000 62.760,331.840 62.400,331.643 62.400 C 331.447 62.400,331.174 61.950,331.036 61.400 C 330.898 60.850,330.608 60.400,330.392 60.400 C 330.177 60.400,330.000 60.130,330.000 59.800 C 330.000 59.470,329.820 59.200,329.600 59.200 C 329.380 59.200,329.200 58.834,329.200 58.387 C 329.200 57.941,328.930 57.471,328.600 57.345 C 328.270 57.218,328.000 56.774,328.000 56.357 C 328.000 55.941,327.820 55.600,327.600 55.600 C 327.380 55.600,327.200 55.330,327.200 55.000 C 327.200 54.670,327.023 54.400,326.808 54.400 C 326.592 54.400,326.302 53.950,326.164 53.400 C 326.026 52.850,325.781 52.400,325.620 52.400 C 325.458 52.400,324.987 51.770,324.572 51.000 C 324.157 50.230,323.679 49.600,323.509 49.600 C 323.339 49.600,323.200 49.370,323.200 49.088 C 323.200 48.807,322.829 48.312,322.375 47.988 C 321.921 47.665,321.271 46.815,320.929 46.100 C 320.588 45.385,320.059 44.800,319.754 44.800 C 319.449 44.800,319.200 44.607,319.200 44.371 C 319.200 43.818,318.182 42.800,317.629 42.800 C 317.393 42.800,317.200 42.606,317.200 42.370 C 317.200 41.600,309.942 34.800,309.120 34.800 C 308.952 34.800,308.166 34.170,307.373 33.400 C 306.580 32.630,305.776 32.000,305.586 32.000 C 305.396 32.000,304.756 31.550,304.162 31.000 C 303.569 30.450,302.749 30.000,302.342 30.000 C 301.934 30.000,301.600 29.730,301.600 29.400 C 301.600 29.070,301.328 28.800,300.995 28.800 C 300.410 28.800,298.810 28.041,298.400 27.570 C 298.290 27.443,297.615 27.038,296.900 26.670 C 296.185 26.301,295.077 25.730,294.438 25.400 C 293.799 25.070,292.989 24.800,292.638 24.800 C 292.287 24.800,292.000 24.620,292.000 24.400 C 292.000 24.180,291.550 24.000,291.000 24.000 C 290.450 24.000,290.000 23.820,290.000 23.600 C 290.000 23.380,289.537 23.200,288.971 23.200 C 288.406 23.200,287.673 22.930,287.343 22.600 C 287.013 22.270,286.126 22.000,285.371 22.000 C 284.617 22.000,284.000 21.820,284.000 21.600 C 284.000 21.380,283.357 21.200,282.571 21.200 C 281.786 21.200,280.873 20.930,280.543 20.600 C 280.213 20.270,279.246 20.000,278.395 20.000 C 277.544 20.000,276.736 19.820,276.600 19.600 C 276.464 19.380,275.229 19.200,273.856 19.200 C 272.393 19.200,271.153 18.993,270.860 18.700 C 270.392 18.231,143.463 17.853,133.300 18.290 M199.200 120.400 C 199.200 120.629,197.996 120.800,196.387 120.800 C 194.256 120.800,193.519 120.945,193.345 121.400 C 193.180 121.830,192.508 122.000,190.981 122.000 C 189.807 122.000,188.736 122.180,188.600 122.400 C 188.464 122.620,187.733 122.800,186.976 122.800 C 186.219 122.800,185.600 122.957,185.600 123.149 C 185.600 123.341,184.880 123.613,184.000 123.754 C 183.120 123.894,182.400 124.187,182.400 124.405 C 182.400 124.622,181.871 124.800,181.224 124.800 C 180.577 124.800,179.936 124.980,179.800 125.200 C 179.664 125.420,179.225 125.600,178.825 125.600 C 178.425 125.600,177.874 125.870,177.600 126.200 C 177.326 126.530,176.825 126.800,176.485 126.800 C 175.624 126.800,172.800 128.085,172.800 128.477 C 172.800 128.655,172.350 128.800,171.800 128.800 C 171.250 128.800,170.800 128.980,170.800 129.200 C 170.800 129.420,170.434 129.600,169.987 129.600 C 169.541 129.600,169.071 129.870,168.945 130.200 C 168.818 130.530,168.408 130.800,168.033 130.800 C 167.658 130.800,166.988 131.138,166.545 131.551 C 166.101 131.964,165.347 132.426,164.869 132.578 C 164.391 132.730,164.000 132.986,164.000 133.147 C 164.000 133.308,163.387 133.661,162.638 133.932 C 161.889 134.203,161.175 134.689,161.051 135.012 C 160.927 135.335,160.565 135.600,160.247 135.600 C 159.929 135.600,159.020 136.230,158.227 137.000 C 157.434 137.770,156.687 138.400,156.566 138.400 C 155.906 138.400,150.869 142.809,146.864 146.892 C 141.797 152.057,140.489 153.540,139.978 154.700 C 139.663 155.415,139.179 156.000,138.902 156.000 C 138.626 156.000,138.400 156.188,138.400 156.418 C 138.400 156.648,137.950 157.286,137.400 157.836 C 136.850 158.386,136.400 159.098,136.400 159.418 C 136.400 159.738,136.220 160.000,136.000 160.000 C 135.780 160.000,135.600 160.270,135.600 160.600 C 135.600 160.930,135.461 161.200,135.291 161.200 C 135.121 161.200,134.631 161.875,134.201 162.700 C 133.772 163.525,133.011 164.757,132.511 165.438 C 132.010 166.119,131.600 166.974,131.600 167.338 C 131.600 167.702,131.420 168.000,131.200 168.000 C 130.980 168.000,130.800 168.366,130.800 168.813 C 130.800 169.259,130.530 169.729,130.200 169.855 C 129.870 169.982,129.600 170.416,129.600 170.819 C 129.600 171.223,129.420 171.664,129.200 171.800 C 128.980 171.936,128.800 172.397,128.800 172.824 C 128.800 173.251,128.655 173.600,128.477 173.600 C 127.995 173.600,126.800 176.517,126.800 177.692 C 126.800 178.254,126.530 178.818,126.200 178.945 C 125.870 179.071,125.600 179.620,125.600 180.164 C 125.600 180.708,125.420 181.264,125.200 181.400 C 124.980 181.536,124.800 181.982,124.800 182.391 C 124.800 182.800,124.548 183.645,124.240 184.268 C 123.384 185.999,122.800 188.122,122.800 189.505 C 122.800 190.191,122.620 190.864,122.400 191.000 C 122.180 191.136,122.000 192.387,122.000 193.781 C 122.000 195.664,121.846 196.374,121.400 196.545 C 120.928 196.726,120.800 197.543,120.800 200.364 C 120.800 202.338,120.620 204.064,120.400 204.200 C 120.159 204.349,120.000 207.130,120.000 211.200 C 120.000 215.270,120.159 218.051,120.400 218.200 C 120.620 218.336,120.800 220.035,120.800 221.975 C 120.800 224.622,120.950 225.626,121.400 226.000 C 121.809 226.339,122.000 227.247,122.000 228.849 C 122.000 230.150,122.179 231.200,122.400 231.200 C 122.620 231.200,122.800 231.999,122.800 232.976 C 122.800 233.953,122.980 234.864,123.200 235.000 C 123.420 235.136,123.600 235.674,123.600 236.195 C 123.600 236.716,123.870 237.413,124.200 237.743 C 124.530 238.073,124.800 238.885,124.800 239.548 C 124.800 240.211,124.980 240.864,125.200 241.000 C 125.420 241.136,125.600 241.674,125.600 242.195 C 125.600 242.716,125.870 243.413,126.200 243.743 C 126.530 244.073,126.800 244.628,126.800 244.977 C 126.800 245.556,127.143 246.374,128.065 248.000 C 128.252 248.330,128.516 248.870,128.651 249.200 C 129.841 252.097,130.197 252.800,130.477 252.800 C 130.655 252.800,130.804 253.115,130.809 253.500 C 130.814 253.885,131.170 254.650,131.600 255.200 C 132.030 255.750,132.386 256.431,132.391 256.713 C 132.396 256.994,132.670 257.329,133.000 257.455 C 133.330 257.582,133.600 258.034,133.600 258.460 C 133.600 258.886,134.050 259.720,134.600 260.313 C 135.150 260.907,135.600 261.619,135.600 261.896 C 135.600 262.173,135.780 262.400,136.000 262.400 C 136.220 262.400,136.400 262.670,136.400 263.000 C 136.400 263.330,136.670 263.600,137.000 263.600 C 137.330 263.600,137.606 263.915,137.613 264.300 C 137.628 265.165,138.529 266.400,139.144 266.400 C 139.395 266.400,139.600 266.670,139.600 267.000 C 139.600 267.330,139.780 267.600,140.000 267.600 C 140.220 267.600,140.400 267.870,140.400 268.200 C 140.400 268.530,141.480 269.880,142.800 271.200 C 144.120 272.520,145.200 273.780,145.200 274.000 C 145.200 274.220,145.393 274.400,145.629 274.400 C 146.182 274.400,147.200 275.418,147.200 275.971 C 147.200 276.207,147.393 276.400,147.629 276.400 C 148.182 276.400,149.200 277.418,149.200 277.971 C 149.200 278.207,149.366 278.400,149.570 278.400 C 149.773 278.400,151.030 279.463,152.362 280.763 C 153.695 282.063,155.328 283.367,155.992 283.661 C 156.657 283.955,157.200 284.344,157.200 284.526 C 157.200 285.088,158.308 286.000,158.991 286.000 C 159.347 286.000,160.035 286.408,160.519 286.906 C 161.004 287.404,161.940 288.078,162.600 288.405 C 163.260 288.732,163.944 289.224,164.120 289.499 C 164.296 289.775,164.791 290.000,165.220 290.000 C 165.649 290.000,166.000 290.159,166.000 290.353 C 166.000 290.548,166.315 290.819,166.700 290.956 C 167.085 291.094,168.300 291.731,169.400 292.373 C 172.865 294.394,173.704 294.800,174.412 294.800 C 174.792 294.800,175.326 295.070,175.600 295.400 C 175.874 295.730,176.436 296.000,176.849 296.000 C 177.262 296.000,177.600 296.180,177.600 296.400 C 177.600 296.620,178.039 296.800,178.576 296.800 C 179.113 296.800,179.664 296.980,179.800 297.200 C 179.936 297.420,180.557 297.600,181.181 297.600 C 181.819 297.600,182.415 297.862,182.545 298.200 C 182.689 298.577,183.301 298.800,184.187 298.800 C 184.964 298.800,185.600 298.980,185.600 299.200 C 185.600 299.420,186.208 299.600,186.951 299.600 C 187.694 299.600,188.526 299.870,188.800 300.200 C 189.084 300.542,189.956 300.800,190.825 300.800 C 191.665 300.800,192.464 300.980,192.600 301.200 C 192.736 301.420,193.979 301.600,195.362 301.600 C 196.837 301.600,198.393 301.857,199.125 302.223 C 200.766 303.041,223.231 302.931,224.061 302.100 C 224.362 301.798,225.637 301.600,227.280 301.600 C 228.827 301.600,230.000 301.427,230.000 301.200 C 230.000 300.980,230.698 300.800,231.551 300.800 C 232.442 300.800,233.314 300.545,233.600 300.200 C 233.874 299.870,234.695 299.600,235.425 299.600 C 236.155 299.600,236.864 299.420,237.000 299.200 C 237.136 298.980,237.782 298.800,238.436 298.800 C 239.124 298.800,239.722 298.547,239.855 298.200 C 239.997 297.830,240.605 297.600,241.443 297.600 C 242.189 297.600,242.800 297.420,242.800 297.200 C 242.800 296.980,243.250 296.800,243.800 296.800 C 244.350 296.800,244.800 296.620,244.800 296.400 C 244.800 296.180,245.166 296.000,245.613 296.000 C 246.059 296.000,246.529 295.730,246.655 295.400 C 246.782 295.070,247.218 294.800,247.624 294.800 C 248.617 294.800,250.524 293.937,250.920 293.308 C 251.096 293.029,251.591 292.800,252.020 292.800 C 252.449 292.800,252.800 292.620,252.800 292.400 C 252.800 292.180,253.166 292.000,253.613 292.000 C 254.059 292.000,254.529 291.730,254.655 291.400 C 254.782 291.070,255.122 290.800,255.410 290.800 C 256.092 290.800,258.394 289.490,258.397 289.100 C 258.399 288.935,258.670 288.800,259.000 288.800 C 259.330 288.800,259.600 288.620,259.600 288.400 C 259.600 288.180,259.947 288.000,260.371 288.000 C 260.795 288.000,261.496 287.550,261.929 287.000 C 262.361 286.450,262.914 286.000,263.158 286.000 C 263.401 286.000,263.600 285.820,263.600 285.600 C 263.600 285.380,263.857 285.200,264.171 285.200 C 264.486 285.200,265.588 284.390,266.622 283.400 C 267.655 282.410,268.665 281.600,268.867 281.600 C 269.070 281.600,270.217 280.610,271.417 279.400 C 272.618 278.190,273.780 277.200,274.000 277.200 C 274.220 277.200,274.400 277.055,274.400 276.878 C 274.400 276.701,275.480 275.435,276.800 274.065 C 278.120 272.695,279.200 271.442,279.200 271.281 C 279.200 271.119,280.100 270.003,281.200 268.800 C 282.300 267.597,283.200 266.385,283.200 266.107 C 283.200 265.828,283.380 265.600,283.600 265.600 C 283.820 265.600,284.000 265.330,284.000 265.000 C 284.000 264.670,284.175 264.400,284.390 264.400 C 284.604 264.400,285.077 263.824,285.442 263.120 C 285.806 262.415,286.350 261.592,286.652 261.291 C 286.953 260.990,287.200 260.568,287.200 260.355 C 287.200 260.141,287.560 259.580,288.000 259.108 C 288.440 258.636,288.800 257.942,288.800 257.567 C 288.800 257.192,289.070 256.782,289.400 256.655 C 289.730 256.529,290.000 256.059,290.000 255.613 C 290.000 255.166,290.180 254.800,290.400 254.800 C 290.620 254.800,290.800 254.350,290.800 253.800 C 290.800 253.178,291.027 252.800,291.400 252.800 C 291.730 252.800,292.000 252.451,292.000 252.024 C 292.000 251.597,292.180 251.136,292.400 251.000 C 292.620 250.864,292.800 250.333,292.800 249.819 C 292.800 249.306,293.070 248.782,293.400 248.655 C 293.730 248.529,294.000 248.059,294.000 247.613 C 294.000 247.166,294.180 246.800,294.400 246.800 C 294.620 246.800,294.800 246.350,294.800 245.800 C 294.800 245.250,294.972 244.800,295.182 244.800 C 295.392 244.800,295.682 244.168,295.827 243.396 C 295.972 242.623,296.250 241.893,296.445 241.772 C 296.640 241.651,296.800 241.034,296.800 240.400 C 296.800 239.766,296.980 239.136,297.200 239.000 C 297.420 238.864,297.600 238.153,297.600 237.419 C 297.600 236.603,297.833 235.996,298.200 235.855 C 298.547 235.722,298.800 235.124,298.800 234.436 C 298.800 233.782,298.980 233.136,299.200 233.000 C 299.420 232.864,299.606 231.728,299.613 230.476 C 299.620 229.112,299.861 227.889,300.213 227.424 C 300.631 226.870,300.800 225.578,300.800 222.924 C 300.800 220.708,300.962 219.200,301.200 219.200 C 301.453 219.200,301.600 216.275,301.600 211.224 C 301.600 206.337,301.445 203.151,301.200 203.000 C 300.980 202.864,300.800 201.088,300.800 199.053 C 300.800 196.419,300.631 195.129,300.213 194.576 C 299.861 194.111,299.620 192.888,299.613 191.524 C 299.606 190.272,299.420 189.136,299.200 189.000 C 298.980 188.864,298.800 188.236,298.800 187.605 C 298.800 186.974,298.530 186.187,298.200 185.857 C 297.870 185.527,297.600 184.805,297.600 184.252 C 297.600 183.699,297.420 183.136,297.200 183.000 C 296.980 182.864,296.800 182.284,296.800 181.711 C 296.800 180.521,295.608 177.600,295.123 177.600 C 294.945 177.600,294.800 177.071,294.800 176.424 C 294.800 175.777,294.620 175.136,294.400 175.000 C 294.180 174.864,294.000 174.398,294.000 173.964 C 294.000 173.530,293.730 173.071,293.400 172.945 C 293.070 172.818,292.800 172.284,292.800 171.757 C 292.800 171.231,292.620 170.800,292.400 170.800 C 292.180 170.800,292.000 170.434,292.000 169.987 C 292.000 169.541,291.730 169.071,291.400 168.945 C 291.070 168.818,290.800 168.284,290.800 167.757 C 290.800 167.231,290.663 166.800,290.495 166.800 C 290.190 166.800,290.081 166.622,288.621 163.739 C 288.192 162.892,287.736 162.110,287.608 162.000 C 287.479 161.890,286.753 160.810,285.994 159.600 C 285.235 158.390,284.476 157.340,284.307 157.267 C 284.138 157.193,284.000 156.955,284.000 156.738 C 284.000 156.211,282.967 155.200,282.429 155.200 C 282.193 155.200,281.994 154.885,281.987 154.500 C 281.972 153.635,281.071 152.400,280.456 152.400 C 280.205 152.400,280.000 152.189,280.000 151.931 C 280.000 151.674,279.190 150.687,278.200 149.738 C 277.210 148.790,276.400 147.830,276.400 147.607 C 276.400 147.383,276.207 147.200,275.971 147.200 C 275.418 147.200,274.400 146.182,274.400 145.629 C 274.400 145.393,274.207 145.200,273.971 145.200 C 273.418 145.200,272.400 144.182,272.400 143.629 C 272.400 143.393,272.213 143.200,271.985 143.200 C 271.757 143.200,270.783 142.390,269.821 141.400 C 268.859 140.410,267.952 139.600,267.807 139.600 C 267.662 139.600,267.292 139.375,266.985 139.100 C 265.783 138.022,265.224 137.600,264.998 137.600 C 264.868 137.600,264.345 137.150,263.835 136.600 C 263.325 136.050,262.713 135.600,262.475 135.600 C 262.236 135.600,261.556 135.150,260.962 134.600 C 260.369 134.050,259.639 133.600,259.342 133.600 C 259.044 133.600,258.800 133.423,258.800 133.208 C 258.800 132.992,258.350 132.702,257.800 132.564 C 257.250 132.426,256.800 132.153,256.800 131.957 C 256.800 131.760,256.530 131.600,256.200 131.600 C 255.870 131.600,255.600 131.420,255.600 131.200 C 255.600 130.980,255.169 130.800,254.643 130.800 C 254.116 130.800,253.582 130.530,253.455 130.200 C 253.329 129.870,252.859 129.600,252.413 129.600 C 251.966 129.600,251.600 129.420,251.600 129.200 C 251.600 128.980,251.262 128.800,250.849 128.800 C 250.436 128.800,249.874 128.530,249.600 128.200 C 249.326 127.870,248.764 127.600,248.351 127.600 C 247.938 127.600,247.600 127.420,247.600 127.200 C 247.600 126.980,247.227 126.800,246.771 126.800 C 246.316 126.800,245.673 126.530,245.343 126.200 C 245.013 125.870,244.306 125.600,243.771 125.600 C 243.237 125.600,242.800 125.420,242.800 125.200 C 242.800 124.980,242.247 124.800,241.571 124.800 C 240.896 124.800,240.073 124.530,239.743 124.200 C 239.413 123.870,238.716 123.600,238.195 123.600 C 237.674 123.600,237.136 123.420,237.000 123.200 C 236.864 122.980,236.133 122.800,235.376 122.800 C 234.619 122.800,234.000 122.620,234.000 122.400 C 234.000 122.180,233.145 121.994,232.100 121.987 C 231.055 121.980,229.851 121.710,229.424 121.387 C 228.933 121.016,227.726 120.800,226.147 120.800 C 224.772 120.800,223.536 120.620,223.400 120.400 C 223.244 120.148,218.729 120.000,211.176 120.000 C 203.459 120.000,199.200 120.142,199.200 120.400 " stroke="none" fill="#043464" fill-rule="evenodd"></path><path id="path1" d="" stroke="none" fill="#083464" fill-rule="evenodd"></path><path id="path2" d="" stroke="none" fill="#083464" fill-rule="evenodd"></path><path id="path3" d="" stroke="none" fill="#083464" fill-rule="evenodd"></path><path id="path4" d="" stroke="none" fill="#083464" fill-rule="evenodd"></path></g></svg>