<svg width="24" height="24" viewBox="0 0 24 24" fill="none" xmlns="http://www.w3.org/2000/svg">
<path d="M12 24C18.6274 24 24 18.6274 24 12C24 5.37258 18.6274 0 12 0C5.37258 0 0 5.37258 0 12C0 18.6274 5.37258 24 12 24Z" fill="#F83D6D"/>
<path d="M17.1329 12.0929C15.9386 12.0362 14.7344 12.839 14.2764 13.994C14.1434 14.3313 14.0646 14.6835 14.0597 15.0455C14.0572 15.1292 14.0301 15.144 13.9538 15.144C12.6905 15.1415 11.4272 15.1415 10.1664 15.1464C10.0728 15.1464 10.0507 15.1193 10.0507 15.0282C10.0531 14.0974 10.0531 13.1665 10.0531 12.2357C10.0531 12.1865 10.0482 12.1372 10.0457 12.088L10.0433 12.0904C10.2033 12.0904 10.3634 12.0855 10.5235 12.088C10.6244 12.0904 10.6885 12.0535 10.7377 11.9599C11.7991 9.97265 13.4539 8.74631 15.6234 8.18978C16.0839 8.07158 16.5567 8.01494 17.0344 8.00016C17.1206 7.9977 17.1452 8.02233 17.1452 8.10852C17.1427 9.40381 17.1427 10.7016 17.1427 11.9968C17.1427 12.0289 17.1354 12.0609 17.1329 12.0929Z" fill="white"/>
<path d="M10.0457 12.0911C8.73076 12.1994 7.80484 12.8495 7.2951 14.071C7.16705 14.3763 7.11287 14.7014 7.10549 15.0313C7.10302 15.1323 7.06362 15.1471 6.97497 15.1471C5.69446 15.1422 4.41641 15.1422 3.13589 15.1446C3.03 15.1446 2.99553 15.1225 3.00045 15.0116C3.0497 14.0069 3.29842 13.0515 3.76384 12.1625C4.78579 10.2023 6.33718 8.86763 8.47219 8.23969C8.95238 8.09933 9.44981 8.03037 9.94971 8.00575C10.0187 8.00329 10.0531 8.01067 10.0531 8.0944C10.0507 9.41431 10.0507 10.7367 10.0507 12.0566C10.0507 12.0689 10.0457 12.0812 10.0457 12.0911C10.0433 12.0935 10.0457 12.0911 10.0457 12.0911Z" fill="white"/>
<path d="M17.1329 12.0929C17.6574 12.0904 18.1819 12.0879 18.7064 12.0855C19.1743 12.0855 19.6422 12.0879 20.1076 12.083C20.1938 12.083 20.2184 12.1052 20.2184 12.1914C20.216 13.1345 20.216 14.0777 20.2184 15.0208C20.2184 15.1168 20.1864 15.1341 20.0978 15.1341C19.1546 15.1316 18.2115 15.1316 17.2683 15.1365C17.16 15.1365 17.1403 15.0996 17.1427 15.0036C17.1452 14.0801 17.1452 13.1591 17.1452 12.2357C17.1452 12.1889 17.1378 12.1396 17.1329 12.0929Z" fill="white"/>
<path d="M23.5 12C23.5 18.3513 18.3513 23.5 12 23.5C5.64873 23.5 0.5 18.3513 0.5 12C0.5 5.64873 5.64873 0.5 12 0.5C18.3513 0.5 23.5 5.64873 23.5 12Z" stroke="black" stroke-opacity="0.097"/>
</svg>
