<svg width="24" height="24" viewBox="0 0 24 24" fill="none" xmlns="http://www.w3.org/2000/svg">
<path d="M12 24C18.6274 24 24 18.6274 24 12C24 5.37258 18.6274 0 12 0C5.37258 0 0 5.37258 0 12C0 18.6274 5.37258 24 12 24Z" fill="#CE96F9"/>
<path d="M23.5 12C23.5 18.3513 18.3513 23.5 12 23.5C5.64873 23.5 0.5 18.3513 0.5 12C0.5 5.64873 5.64873 0.5 12 0.5C18.3513 0.5 23.5 5.64873 23.5 12Z" stroke="black" stroke-opacity="0.097"/>
<path fill-rule="evenodd" clip-rule="evenodd" d="M6.41669 19.1644C6.25544 19.3359 6.01499 19.3407 5.93628 19.5682C6.11633 19.6482 6.28316 19.7223 6.45493 19.7986C6.55563 19.9635 6.66016 20.1345 6.79066 20.3479C6.88546 20.1305 6.9629 19.9535 7.04002 19.777C7.20207 19.6751 7.36412 19.5732 7.57222 19.4425C7.35551 19.3216 7.17833 19.2228 7.02218 19.1355C6.9116 18.9691 6.81312 18.8208 6.69107 18.6367C6.58081 18.8488 6.49588 19.012 6.41669 19.1644Z" fill="white"/>
<path fill-rule="evenodd" clip-rule="evenodd" d="M5.48041 6.77676C5.31916 6.9482 5.07871 6.95314 5 7.18068C5.18005 7.26051 5.34688 7.33476 5.51865 7.41093C5.61935 7.57584 5.72388 7.74681 5.85438 7.96033C5.94918 7.74283 6.02662 7.5658 6.10374 7.38941C6.26579 7.2876 6.42784 7.18562 6.63594 7.05496C6.41924 6.93386 6.24205 6.83507 6.0859 6.74791C5.97532 6.58141 5.87684 6.43306 5.75479 6.24902C5.64453 6.4611 5.5596 6.62427 5.48041 6.77676Z" fill="white"/>
<path fill-rule="evenodd" clip-rule="evenodd" d="M19.3586 11.0141C19.1972 11.1855 18.957 11.1903 18.8781 11.4178C19.0581 11.4978 19.225 11.5719 19.3967 11.6482C19.4976 11.8131 19.602 11.9841 19.7325 12.1976C19.8273 11.9801 19.9047 11.8031 19.9818 11.6267C20.1439 11.5247 20.3059 11.4229 20.514 11.2923C20.2973 11.1712 20.1201 11.0724 19.964 10.9851C19.8534 10.8187 19.7549 10.6704 19.6329 10.4863C19.5226 10.6984 19.4378 10.8616 19.3586 11.0141Z" fill="white"/>
<path fill-rule="evenodd" clip-rule="evenodd" d="M20.8154 13.2624C20.7411 13.3412 20.6306 13.3436 20.5942 13.4483C20.6771 13.4851 20.7539 13.5192 20.8329 13.5544C20.8793 13.6303 20.9274 13.709 20.9875 13.8073C21.0311 13.7072 21.0668 13.6257 21.1024 13.5446C21.1771 13.4975 21.2515 13.4507 21.3474 13.3905C21.2477 13.3347 21.1661 13.2893 21.0941 13.2491C21.0434 13.1725 20.998 13.1041 20.9418 13.0195C20.8909 13.117 20.8519 13.1923 20.8154 13.2624Z" fill="white"/>
<path fill-rule="evenodd" clip-rule="evenodd" d="M7.30893 11.8546C7.30893 9.17355 9.48248 7 12.1637 7C14.8447 7 17.0183 9.17355 17.0183 11.8546V15.919C17.0183 18.6001 14.8447 20.7736 12.1637 20.7736C9.48248 20.7736 7.30893 18.6001 7.30893 15.919V11.8546Z" fill="#FBF6EA"/>
<path fill-rule="evenodd" clip-rule="evenodd" d="M12.862 20.9784L12.689 20.5327C14.5292 19.8183 15.7656 17.8979 15.7656 15.7543C15.7656 12.9603 13.695 10.687 11.1497 10.687V10.209C13.9586 10.209 16.2437 12.6966 16.2437 15.7543C16.2437 18.0936 14.8847 20.1929 12.862 20.9784Z" fill="#E5D4AE"/>
<path fill-rule="evenodd" clip-rule="evenodd" d="M12.2324 20.9677L12.0812 20.5422C14.1021 19.8241 15.4602 17.8998 15.4602 15.7536C15.4602 12.9523 13.1811 10.6732 10.3798 10.6732V10.2217C13.4302 10.2217 15.9117 12.7034 15.9117 15.7536C15.9117 18.0903 14.4332 20.1858 12.2324 20.9677Z" fill="black"/>
<path fill-rule="evenodd" clip-rule="evenodd" d="M12.1637 7.22696C9.61121 7.22696 7.5347 9.30331 7.5347 11.8558V15.9202C7.5347 18.4725 9.61121 20.5488 12.1637 20.5488C14.7161 20.5488 16.7925 18.4725 16.7925 15.9202V11.8558C16.7925 9.30331 14.7161 7.22696 12.1637 7.22696ZM12.1637 21.0004C9.36232 21.0004 7.08313 18.7215 7.08313 15.9202V11.8558C7.08313 9.05442 9.36232 6.77539 12.1637 6.77539C14.965 6.77539 17.244 9.05442 17.244 11.8558V15.9202C17.244 18.7215 14.965 21.0004 12.1637 21.0004Z" fill="black"/>
<path fill-rule="evenodd" clip-rule="evenodd" d="M7.98642 4.33594V7.00073L10.1408 5.21167L7.98642 4.33594Z" fill="#FFD200"/>
<path fill-rule="evenodd" clip-rule="evenodd" d="M10.2816 5.87196L8.12717 4.99639L8.29718 4.57812L10.4514 5.45369L10.2816 5.87196Z" fill="#FF9B00"/>
<path fill-rule="evenodd" clip-rule="evenodd" d="M8.21225 4.67098V6.51931L9.70653 5.27854L8.21225 4.67098ZM7.76068 7.48125V4L10.5751 5.14406L7.76068 7.48125Z" fill="black"/>
<path fill-rule="evenodd" clip-rule="evenodd" d="M16.463 4.33594V7.00073L14.3086 5.21167L16.463 4.33594Z" fill="#FFD200"/>
<path fill-rule="evenodd" clip-rule="evenodd" d="M15.7857 7.22534H16.2373V4.56055H15.7857V7.22534Z" fill="#FF9B00"/>
<path fill-rule="evenodd" clip-rule="evenodd" d="M14.7429 5.27838L16.2372 6.51915V4.67082L14.7429 5.27838ZM16.6888 7.48109L13.8744 5.1439L16.6888 4V7.48109Z" fill="black"/>
<path fill-rule="evenodd" clip-rule="evenodd" d="M17.0182 9.37022C17.0182 12.0514 14.8446 14.225 12.1636 14.225C9.48239 14.225 7.30884 12.0514 7.30884 9.37022C7.30884 6.68917 9.48239 4.51562 12.1636 4.51562C14.8446 4.51562 17.0182 6.68917 17.0182 9.37022Z" fill="#FFD200"/>
<path fill-rule="evenodd" clip-rule="evenodd" d="M7.7379 9.59678C7.6133 9.59678 7.51212 9.4956 7.51212 9.371C7.51212 6.80612 9.59882 4.71973 12.1635 4.71973C13.3734 4.71973 14.5194 5.18181 15.3902 6.02089C15.48 6.10741 15.4826 6.25034 15.3962 6.34021C15.3097 6.42992 15.1668 6.43262 15.0769 6.3461C14.2906 5.58844 13.256 5.17129 12.1635 5.17129C9.84771 5.17129 7.96368 7.05532 7.96368 9.371C7.96368 9.4956 7.8625 9.59678 7.7379 9.59678Z" fill="white"/>
<path fill-rule="evenodd" clip-rule="evenodd" d="M12.1637 4.74258C9.61121 4.74258 7.5347 6.81893 7.5347 9.37139C7.5347 11.9237 9.61121 14.0004 12.1637 14.0004C14.7161 14.0004 16.7925 11.9237 16.7925 9.37139C16.7925 6.81893 14.7161 4.74258 12.1637 4.74258ZM12.1637 14.4519C9.36232 14.4519 7.08313 12.1727 7.08313 9.37139C7.08313 6.57005 9.36232 4.29102 12.1637 4.29102C14.965 4.29102 17.244 6.57005 17.244 9.37139C17.244 12.1727 14.965 14.4519 12.1637 14.4519Z" fill="black"/>
<path fill-rule="evenodd" clip-rule="evenodd" d="M12.1636 14.0198C10.9724 14.0198 9.78136 13.5665 8.87456 12.6597C8.78644 12.5714 8.78644 12.4287 8.87456 12.3404C8.96267 12.2523 9.10592 12.2523 9.19387 12.3404C10.8316 13.9779 13.4957 13.9779 15.1334 12.3404C16.7706 10.7029 16.7706 8.03856 15.1334 6.40103C15.0451 6.31275 15.0451 6.16983 15.1334 6.08171C15.2214 5.9936 15.3646 5.9936 15.4527 6.08171C17.266 7.89515 17.266 10.8461 15.4527 12.6597C14.5459 13.5665 13.3549 14.0198 12.1636 14.0198Z" fill="#FF9B00"/>
<path fill-rule="evenodd" clip-rule="evenodd" d="M11.7119 7.22635C11.7119 8.22397 10.9033 9.03278 9.90564 9.03278C8.90802 9.03278 8.09921 8.22397 8.09921 7.22635C8.09921 6.22873 8.90802 5.41992 9.90564 5.41992C10.9033 5.41992 11.7119 6.22873 11.7119 7.22635Z" fill="white"/>
<path fill-rule="evenodd" clip-rule="evenodd" d="M9.90569 5.64493C9.0341 5.64493 8.32504 6.35399 8.32504 7.22557C8.32504 8.09716 9.0341 8.80622 9.90569 8.80622C10.7773 8.80622 11.4862 8.09716 11.4862 7.22557C11.4862 6.35399 10.7773 5.64493 9.90569 5.64493ZM9.90569 9.25779C8.78521 9.25779 7.87347 8.34605 7.87347 7.22557C7.87347 6.1051 8.78521 5.19336 9.90569 5.19336C11.0262 5.19336 11.9377 6.1051 11.9377 7.22557C11.9377 8.34605 11.0262 9.25779 9.90569 9.25779Z" fill="black"/>
<path fill-rule="evenodd" clip-rule="evenodd" d="M11.7119 6.87644C11.7119 7.68079 11.0599 8.3328 10.2555 8.3328C9.4512 8.3328 8.79935 7.68079 8.79935 6.87644C8.79935 6.0721 9.4512 5.41992 10.2555 5.41992C11.0599 5.41992 11.7119 6.0721 11.7119 6.87644Z" fill="black"/>
<path fill-rule="evenodd" clip-rule="evenodd" d="M10.154 7.5411C10.154 7.85277 9.90129 8.10548 9.58947 8.10548C9.2778 8.10548 9.02509 7.85277 9.02509 7.5411C9.02509 7.22927 9.2778 6.97656 9.58947 6.97656C9.90129 6.97656 10.154 7.22927 10.154 7.5411Z" fill="white"/>
<path fill-rule="evenodd" clip-rule="evenodd" d="M10.6056 7.83516C10.6056 7.95976 10.5044 8.06094 10.3798 8.06094C10.2552 8.06094 10.154 7.95976 10.154 7.83516C10.154 7.71056 10.2552 7.60938 10.3798 7.60938C10.5044 7.60938 10.6056 7.71056 10.6056 7.83516Z" fill="white"/>
<path fill-rule="evenodd" clip-rule="evenodd" d="M16.2279 7.22635C16.2279 8.22397 15.4192 9.03278 14.4214 9.03278C13.4238 9.03278 12.6152 8.22397 12.6152 7.22635C12.6152 6.22873 13.4238 5.41992 14.4214 5.41992C15.4192 5.41992 16.2279 6.22873 16.2279 7.22635Z" fill="white"/>
<path fill-rule="evenodd" clip-rule="evenodd" d="M14.4215 5.64493C13.5499 5.64493 12.841 6.35399 12.841 7.22557C12.841 8.09716 13.5499 8.80622 14.4215 8.80622C15.293 8.80622 16.0021 8.09716 16.0021 7.22557C16.0021 6.35399 15.293 5.64493 14.4215 5.64493ZM14.4215 9.25779C13.301 9.25779 12.3894 8.34605 12.3894 7.22557C12.3894 6.1051 13.301 5.19336 14.4215 5.19336C15.5419 5.19336 16.4537 6.1051 16.4537 7.22557C16.4537 8.34605 15.5419 9.25779 14.4215 9.25779Z" fill="black"/>
<path fill-rule="evenodd" clip-rule="evenodd" d="M16.2278 6.87644C16.2278 7.68079 15.5758 8.3328 14.7715 8.3328C13.9671 8.3328 13.3151 7.68079 13.3151 6.87644C13.3151 6.0721 13.9671 5.41992 14.7715 5.41992C15.5758 5.41992 16.2278 6.0721 16.2278 6.87644Z" fill="black"/>
<path fill-rule="evenodd" clip-rule="evenodd" d="M14.6699 7.5411C14.6699 7.85277 14.4171 8.10548 14.1054 8.10548C13.7936 8.10548 13.5409 7.85277 13.5409 7.5411C13.5409 7.22927 13.7936 6.97656 14.1054 6.97656C14.4171 6.97656 14.6699 7.22927 14.6699 7.5411Z" fill="white"/>
<path fill-rule="evenodd" clip-rule="evenodd" d="M15.1215 7.83516C15.1215 7.95976 15.0203 8.06094 14.8957 8.06094C14.771 8.06094 14.67 7.95976 14.67 7.83516C14.67 7.71056 14.771 7.60938 14.8957 7.60938C15.0203 7.60938 15.1215 7.71056 15.1215 7.83516Z" fill="white"/>
<path fill-rule="evenodd" clip-rule="evenodd" d="M12.1636 10.5921C12.039 10.5921 11.9379 10.491 11.9379 10.3664V9.71992C11.9379 9.59532 12.039 9.49414 12.1636 9.49414C12.2883 9.49414 12.3894 9.59532 12.3894 9.71992V10.3664C12.3894 10.491 12.2883 10.5921 12.1636 10.5921Z" fill="black"/>
<path fill-rule="evenodd" clip-rule="evenodd" d="M13.2211 9.14481C13.2211 9.43082 12.7575 9.66266 12.1854 9.66266C11.6134 9.66266 11.1497 9.43082 11.1497 9.14481C11.1497 8.85879 11.6134 8.62695 12.1854 8.62695C12.7575 8.62695 13.2211 8.85879 13.2211 9.14481Z" fill="black"/>
<path fill-rule="evenodd" clip-rule="evenodd" d="M9.58947 10.0936C9.58947 10.5923 9.18523 10.9967 8.68634 10.9967C8.18745 10.9967 7.7832 10.5923 7.7832 10.0936C7.7832 9.59467 8.18745 9.19043 8.68634 9.19043C9.18523 9.19043 9.58947 9.59467 9.58947 10.0936Z" fill="#FF9B00"/>
<path fill-rule="evenodd" clip-rule="evenodd" d="M16.5892 10.0936C16.5892 10.5923 16.1848 10.9967 15.6859 10.9967C15.1871 10.9967 14.7827 10.5923 14.7827 10.0936C14.7827 9.59467 15.1871 9.19043 15.6859 9.19043C16.1848 9.19043 16.5892 9.59467 16.5892 10.0936Z" fill="#FF9B00"/>
<path fill-rule="evenodd" clip-rule="evenodd" d="M9.13788 14.9631C9.13788 15.0877 9.0367 15.1889 8.91209 15.1889C8.78749 15.1889 8.68631 15.0877 8.68631 14.9631C8.68631 14.8383 8.78749 14.7373 8.91209 14.7373C9.0367 14.7373 9.13788 14.8383 9.13788 14.9631Z" fill="#E5D4AE"/>
<path fill-rule="evenodd" clip-rule="evenodd" d="M10.7186 17.5593C10.7186 17.7464 10.5669 17.8981 10.3798 17.8981C10.1927 17.8981 10.041 17.7464 10.041 17.5593C10.041 17.3722 10.1927 17.2207 10.3798 17.2207C10.5669 17.2207 10.7186 17.3722 10.7186 17.5593Z" fill="#E5D4AE"/>
<path fill-rule="evenodd" clip-rule="evenodd" d="M16.5892 13.7216C16.5892 13.9086 16.4375 14.0603 16.2504 14.0603C16.0634 14.0603 15.9117 13.9086 15.9117 13.7216C15.9117 13.5345 16.0634 13.3828 16.2504 13.3828C16.4375 13.3828 16.5892 13.5345 16.5892 13.7216Z" fill="#E5D4AE"/>
<path fill-rule="evenodd" clip-rule="evenodd" d="M13.8796 15.8654C13.8796 15.9902 13.7785 16.0912 13.6539 16.0912C13.5291 16.0912 13.4281 15.9902 13.4281 15.8654C13.4281 15.7408 13.5291 15.6396 13.6539 15.6396C13.7785 15.6396 13.8796 15.7408 13.8796 15.8654Z" fill="#E5D4AE"/>
<path fill-rule="evenodd" clip-rule="evenodd" d="M7.33166 10.6719C7.33166 10.6719 5.75102 12.2525 6.65415 12.4783C7.55745 12.7041 7.55745 12.2525 7.78323 13.1557C8.00901 14.059 8.46058 14.059 8.91215 13.833C9.36372 13.6072 10.2866 13.8754 10.2866 13.8754C10.2866 13.8754 8.00901 12.7041 7.33166 10.6719Z" fill="#97F79E"/>
<path fill-rule="evenodd" clip-rule="evenodd" d="M7.2501 11.0903C6.86849 11.5242 6.55395 12.0113 6.60526 12.1964C6.60813 12.2066 6.61641 12.2371 6.70899 12.2602C6.98305 12.3287 7.16518 12.3287 7.29822 12.3287C7.74884 12.3287 7.84779 12.484 8.00234 13.1018C8.08504 13.4334 8.20375 13.6431 8.34556 13.7084C8.45519 13.7588 8.60767 13.7341 8.81115 13.6319C8.95472 13.5602 9.12967 13.5282 9.30956 13.5201C8.63158 13.0212 7.73051 12.1979 7.2501 11.0903ZM8.46793 14.1858C8.35735 14.1858 8.2541 14.1633 8.1569 14.1187C7.8787 13.9908 7.68478 13.6939 7.56416 13.2114C7.50043 12.9565 7.45262 12.8113 7.42187 12.7796C7.41454 12.7803 7.35001 12.7803 7.29822 12.7803C7.15052 12.7803 6.92744 12.7803 6.59936 12.6984C6.31191 12.6265 6.20723 12.4514 6.1701 12.3171C6.00869 11.7343 6.89605 10.789 7.17203 10.5132L7.43032 10.2549L7.54584 10.6014C8.18527 12.5199 10.3679 13.6643 10.3899 13.6757L10.2237 14.0934C9.89912 13.9994 9.28359 13.9007 9.01303 14.0358C8.81322 14.1359 8.63269 14.1858 8.46793 14.1858Z" fill="black"/>
<path fill-rule="evenodd" clip-rule="evenodd" d="M17.0075 10.6719C17.0075 10.6719 18.588 12.2525 17.6848 12.4783C16.7817 12.7041 16.7817 12.2525 16.5559 13.1557C16.33 14.059 15.8784 14.059 15.4268 13.833C14.9753 13.6072 14.0524 13.8754 14.0524 13.8754C14.0524 13.8754 16.33 12.7041 17.0075 10.6719Z" fill="#97F79E"/>
<path fill-rule="evenodd" clip-rule="evenodd" d="M15.0295 13.5201C15.2093 13.5282 15.3842 13.5602 15.5278 13.6319C15.7314 13.7339 15.8838 13.7589 15.9934 13.7084C16.135 13.6431 16.2539 13.4334 16.3368 13.1018C16.4913 12.484 16.5903 12.3287 17.0409 12.3287C17.1738 12.3287 17.3561 12.3287 17.63 12.2602C17.7224 12.2371 17.7308 12.2066 17.7337 12.1964C17.7852 12.0106 17.4705 11.5237 17.0892 11.0901C16.6086 12.1979 15.7074 13.021 15.0295 13.5201ZM15.871 14.1858C15.7063 14.1858 15.5257 14.1359 15.3258 14.0358C15.0214 13.884 14.3328 14.0299 14.1154 14.0932L13.9491 13.6757C13.9709 13.6643 16.1537 12.5199 16.7931 10.6014L16.9088 10.2549L17.1671 10.5132C17.4429 10.789 18.3303 11.7343 18.1688 12.3171C18.1317 12.4514 18.027 12.6265 17.7396 12.6984C17.4115 12.7803 17.1886 12.7803 17.0409 12.7803C16.9891 12.7803 16.9246 12.7803 16.9062 12.7865C16.8865 12.8113 16.8387 12.9565 16.7749 13.2114C16.6542 13.6941 16.4603 13.9908 16.1819 14.1187C16.0849 14.1633 15.9816 14.1858 15.871 14.1858Z" fill="black"/>
<path fill-rule="evenodd" clip-rule="evenodd" d="M13.2849 10.4189C13.2849 10.7269 13.0352 10.9766 12.7272 10.9766C12.4191 10.9766 12.1696 10.7269 12.1696 10.4189" fill="#FFD200"/>
<path fill-rule="evenodd" clip-rule="evenodd" d="M12.7273 11.2036C12.2953 11.2036 11.9438 10.8521 11.9438 10.4201C11.9438 10.2955 12.045 10.1943 12.1696 10.1943C12.2942 10.1943 12.3954 10.2955 12.3954 10.4201C12.3954 10.603 12.5443 10.752 12.7273 10.752C12.9102 10.752 13.0592 10.603 13.0592 10.4201C13.0592 10.2955 13.1603 10.1943 13.2849 10.1943C13.4095 10.1943 13.5107 10.2955 13.5107 10.4201C13.5107 10.8521 13.1592 11.2036 12.7273 11.2036Z" fill="black"/>
<path fill-rule="evenodd" clip-rule="evenodd" d="M11.6118 11.2169C11.6118 11.5249 11.8614 11.7746 12.1695 11.7746C12.4775 11.7746 12.7272 11.5249 12.7272 11.2169L12.1855 10.6592L11.6118 11.2169Z" fill="#FF001F"/>
<path fill-rule="evenodd" clip-rule="evenodd" d="M11.8487 11.3016C11.8861 11.4437 12.0158 11.5488 12.1696 11.5488C12.3245 11.5488 12.4551 11.442 12.4913 11.2981L12.1809 10.9785L11.8487 11.3016ZM12.1696 12.0003C11.7376 12.0003 11.3861 11.6488 11.3861 11.2168V11.1214L12.19 10.3398L12.9531 11.1252V11.2168C12.9531 11.6488 12.6015 12.0003 12.1696 12.0003Z" fill="black"/>
<path fill-rule="evenodd" clip-rule="evenodd" d="M12.1695 10.4189C12.1695 10.7269 11.9199 10.9766 11.6119 10.9766C11.3037 10.9766 11.0542 10.7269 11.0542 10.4189" fill="#FFD200"/>
<path fill-rule="evenodd" clip-rule="evenodd" d="M11.6118 11.2036C11.1799 11.2036 10.8284 10.8521 10.8284 10.4201C10.8284 10.2955 10.9295 10.1943 11.0542 10.1943C11.1788 10.1943 11.2799 10.2955 11.2799 10.4201C11.2799 10.603 11.4289 10.752 11.6118 10.752C11.7948 10.752 11.9437 10.603 11.9437 10.4201C11.9437 10.2955 12.0449 10.1943 12.1695 10.1943C12.2941 10.1943 12.3953 10.2955 12.3953 10.4201C12.3953 10.8521 12.0438 11.2036 11.6118 11.2036Z" fill="black"/>
</svg>
