<?xml version="1.0" encoding="UTF-8"?><svg xmlns="http://www.w3.org/2000/svg" viewBox="0 0 130 130"><defs><style>.e{fill:#8696cb;}.f{fill:#fff;}.g{fill:#c3c9e4;}.h{fill:#221536;}.i{fill:#fefefe;}</style></defs><g id="a"/><g id="b"><g id="c"><g id="d"><circle class="h" cx="65" cy="65" r="65"/><g><g><path class="f" d="M56.37,46.52l8.9-14.77,6.1,10.12c4.2-1.61,6.17-3.02,7.27-5.27,.31-.64,1.14-2.38,.66-4.4-.86-3.6-5.17-4.98-5.81-5.17-2.73-.61-5.57-.93-8.48-.93-21.48,0-38.9,17.42-38.9,38.9,0,4.05,.62,7.95,1.77,11.62,.82-3.71,2.73-9.48,7.6-14.15,4.52-4.33,9.91-6.1,15.71-7.34l4.37-7.25,.82-1.36Z"/><path class="f" d="M92.69,37.68c-1.37-1.39-2.85-2.67-4.41-3.84,.22,1.54,.28,3.72-.79,5.81-1.83,3.57-5.96,4.97-12.35,6.21-.39,.08-.82,.15-1.24,.23l3.07,5.09c.23-.04,.46-.08,.7-.13,0,0,4.55-.85,9.76-3.91,2.56-1.5,3.87-2.73,4.65-4.42,.92-1.99,.79-3.92,.61-5.02Z"/></g><g><polygon class="g" points="85.69 69.49 65.27 81.55 65.27 98.25 85.69 69.49"/><polygon class="i" points="65.27 81.55 56.86 76.58 49.02 71.94 44.86 69.49 47.3 72.93 52.59 80.38 65.27 98.25 65.27 81.55"/></g><g><path class="e" d="M49.02,71.94c.29-.15,.57-.29,.81-.4,1.13-.54,2.17-.89,3.12-1.15l-8.08-4.78c-4.58,2.33-6.43,4.61-7.37,5.98-.85,1.25-3.62,5.72-2.85,11.33,.4,2.89,1.57,4.91,2.82,7.08,2.1,3.63,4.57,6.1,6.31,7.6h.01c-1.09-1.6-3.67-5.87-3.44-11.68,.07-1.8,.29-5.9,3.2-9.61,1.2-1.53,2.54-2.61,3.75-3.39l-2.44-3.44,4.16,2.46Z"/><polygon class="e" points="56.37 46.52 55.55 47.88 51.18 55.13 44.86 65.62 44.97 65.56 44.97 65.56 47.84 64.26 47.84 64.26 65.27 56.34 65.27 52.9 65.27 47.3 65.27 43.92 65.27 31.75 56.37 46.52"/></g><g><path class="e" d="M97.74,43.98c-.53,1.14-1.37,2.71-2.67,4.37-1.71,2.2-3.73,3.93-6.33,5.56-2.69,1.69-5.44,2.92-7.81,3.81l3.27,5.43s.07-.02,.1-.04c-.02,.03-.04,.08-.06,.11l1.44,2.39-20.41,12.06-4.89-2.89c-1.35,.53-2.49,1.1-3.52,1.79l8.41,4.97,20.42-12.06-20.42,28.76-12.68-17.87c-1.52,1.79-3.02,4.25-3.45,7.38-1.19,8.52,6.52,14.74,7.03,15.13,2.84,.66,5.8,1.01,8.83,1.01,21.48,0,38.9-17.42,38.9-38.9,0-7.74-2.26-14.96-6.16-21.02Z"/><path class="g" d="M84.24,63.23s.04-.08,.06-.11c-.04,.01-.07,.02-.1,.04l-3.27-5.43-3.95-6.56-3.07-5.09-2.54-4.21-6.1-10.12v24.59l7.92,3.6,8.75,3.98,1.49,.68,2.24,1.02-1.44-2.39Z"/></g><polygon class="h" points="85.68 65.62 83.44 64.6 81.94 63.92 73.19 59.94 65.27 56.34 47.84 64.26 44.97 65.56 44.86 65.62 44.86 65.62 52.95 70.4 60.38 74.79 65.27 77.68 85.68 65.62"/></g></g></g></g></svg>