<?xml version="1.0" standalone="no"?>
<!DOCTYPE svg PUBLIC "-//W3C//DTD SVG 20010904//EN"
 "http://www.w3.org/TR/2001/REC-SVG-20010904/DTD/svg10.dtd">
<svg version="1.0" xmlns="http://www.w3.org/2000/svg"
 width="64.000000pt" height="64.000000pt" viewBox="0 0 64.000000 64.000000"
 preserveAspectRatio="xMidYMid meet">
<metadata>
Created by potrace 1.16, written by Peter Selinger 2001-2019
</metadata>
<g transform="translate(0.000000,64.000000) scale(0.100000,-0.100000)"
fill="#000000" stroke="none">
<path d="M258 553 c-10 -2 -18 -8 -18 -13 0 -5 -6 -7 -13 -4 -35 13 -127 -85
-127 -136 0 -15 -7 -33 -15 -40 -24 -20 -18 -56 15 -92 31 -34 37 -52 20 -63
-22 -13 -59 -105 -64 -156 l-6 -54 13 61 c14 66 60 154 81 154 32 0 55 -63 33
-88 -9 -9 -25 -42 -37 -72 -12 -30 -17 -51 -12 -45 5 6 17 30 26 55 10 25 25
53 33 62 12 14 13 23 5 48 -13 35 -3 39 24 9 21 -23 86 -59 106 -59 7 0 -9 11
-37 24 -27 13 -59 33 -70 46 l-20 23 25 -7 c23 -6 24 -6 5 5 -11 7 -31 23 -45
36 -14 13 -30 23 -37 23 -7 0 -10 7 -6 18 5 15 4 15 -9 -2 -13 -17 -15 -17
-31 -1 -21 20 -22 58 -3 74 11 10 17 7 30 -11 9 -12 16 -17 16 -11 0 6 -7 16
-15 23 -31 26 -9 99 41 139 29 23 49 28 38 9 -4 -7 -3 -8 5 -4 6 4 8 12 5 18
-5 7 -2 9 8 5 9 -3 20 -1 26 5 6 6 42 14 79 18 l68 7 -60 0 c-33 1 -68 -1 -77
-4z m-90 -309 c26 -18 29 -34 6 -34 -9 0 -18 9 -21 20 -3 11 -9 18 -13 15 -5
-3 -11 -1 -15 5 -10 15 18 12 43 -6z"/>
<path d="M429 535 c18 -8 36 -15 40 -15 13 1 -45 29 -59 29 -8 0 0 -6 19 -14z"/>
<path d="M503 494 c15 -16 27 -33 27 -35 0 -3 -19 -3 -42 0 -24 3 -61 3 -83 0
-36 -5 -33 -6 21 -8 43 -1 66 -6 75 -17 11 -14 10 -15 -7 -12 -14 2 -18 -2
-16 -17 5 -37 11 -45 31 -45 31 0 34 17 13 55 -20 32 -20 34 -2 32 12 -1 23
-15 31 -39 14 -45 11 -49 -32 -51 -26 -2 -36 3 -46 23 -8 16 -13 19 -13 9 0
-24 36 -52 60 -46 16 4 20 0 21 -21 0 -23 3 -20 16 16 14 39 14 47 -1 86 -9
23 -31 56 -49 72 l-32 29 28 -31z m17 -94 c0 -5 -2 -10 -4 -10 -3 0 -8 5 -11
10 -3 6 -1 10 4 10 6 0 11 -4 11 -10z"/>
<path d="M175 460 c-8 -16 -15 -37 -14 -47 0 -12 3 -9 8 8 5 14 14 35 20 47 6
12 9 22 7 22 -3 0 -12 -13 -21 -30z"/>
<path d="M328 443 c6 -2 18 -2 25 0 6 3 1 5 -13 5 -14 0 -19 -2 -12 -5z"/>
<path d="M249 415 c-20 -13 -46 -35 -56 -49 -11 -14 -23 -22 -27 -19 -3 3 -6
-11 -5 -33 l1 -39 15 45 c10 26 18 39 21 30 8 -25 34 -50 51 -49 11 0 9 4 -7
11 -31 15 -40 55 -17 76 16 16 16 16 4 -6 -16 -26 -7 -45 33 -70 25 -15 28
-15 47 3 12 10 21 23 21 29 0 6 -7 0 -16 -12 -8 -12 -19 -22 -24 -22 -5 0 2
12 15 26 30 33 31 45 5 69 -16 14 -17 20 -8 27 10 6 9 8 -2 7 -8 0 -31 -11
-51 -24z m59 -17 c7 -7 12 -16 12 -22 0 -5 -6 -3 -12 6 -7 9 -24 19 -38 21
l-25 4 26 2 c14 0 30 -4 37 -11z m-8 -29 c0 -5 -4 -9 -10 -9 -5 0 -10 7 -10
16 0 8 5 12 10 9 6 -3 10 -10 10 -16z"/>
<path d="M417 290 c-20 -11 -45 -20 -54 -20 -10 0 -25 -5 -33 -10 -25 -16 50
0 90 20 24 12 44 15 62 9 16 -4 30 -4 33 0 2 4 -1 8 -8 8 -7 0 -21 3 -32 6
-12 4 -35 -1 -58 -13z"/>
<path d="M526 275 c-9 -26 -7 -32 5 -12 6 10 9 21 6 23 -2 3 -7 -2 -11 -11z"/>
<path d="M489 219 c-14 -11 -47 -24 -75 -28 -36 -6 -41 -9 -18 -10 41 -1 46
-8 29 -41 -15 -30 -41 -45 -50 -30 -4 6 -14 10 -23 10 -12 -1 -10 -4 7 -14 14
-8 31 -12 38 -9 9 4 13 -6 15 -33 1 -39 1 -39 5 -5 3 20 15 42 31 56 l27 23 6
-71 5 -72 2 82 c1 57 6 86 17 97 8 8 14 26 13 40 -1 14 -3 26 -3 25 0 0 -12
-9 -26 -20z m11 -31 c-15 -28 -61 -78 -72 -78 -5 0 -2 12 5 28 8 15 13 32 11
37 -3 9 56 44 64 39 2 -1 -2 -13 -8 -26z"/>
<path d="M270 190 c25 -8 97 -13 89 -6 -2 2 -29 6 -59 9 -36 4 -46 3 -30 -3z"/>
<path d="M520 135 c0 -19 4 -35 8 -35 4 0 6 16 4 35 -2 19 -6 35 -8 35 -2 0
-4 -16 -4 -35z"/>
<path d="M523 50 c0 -25 2 -35 4 -23 2 13 2 33 0 45 -2 13 -4 3 -4 -22z"/>
</g>
</svg>
