<svg width="24" height="24" viewBox="0 0 24 24" fill="none" xmlns="http://www.w3.org/2000/svg">
<path d="M12 24C18.6274 24 24 18.6274 24 12C24 5.37258 18.6274 0 12 0C5.37258 0 0 5.37258 0 12C0 18.6274 5.37258 24 12 24Z" fill="#0B1628"/>
<path d="M23.5 12C23.5 18.3513 18.3513 23.5 12 23.5C5.64873 23.5 0.5 18.3513 0.5 12C0.5 5.64873 5.64873 0.5 12 0.5C18.3513 0.5 23.5 5.64873 23.5 12Z" stroke="white" stroke-opacity="0.3"/>
<path fill-rule="evenodd" clip-rule="evenodd" d="M19.8797 12.1596L14.5865 6.86639C14.5263 6.80624 14.406 6.74609 14.3459 6.74609C14.2857 6.74609 14.1654 6.80624 14.1053 6.86639L13.0827 7.88895C13.203 8.00925 13.3233 8.1897 13.5038 8.37015L14.3459 7.52805L19.218 12.4002L14.3459 17.2724L13.6241 16.5506C13.3835 16.6709 13.203 16.7311 12.9624 16.7912L14.1053 17.8739C14.1654 17.9341 14.2256 17.9942 14.3459 17.9942C14.406 17.9942 14.5263 17.9341 14.5865 17.8739L19.8797 12.5807C19.9398 12.5205 20 12.4604 20 12.3401C19.9398 12.2799 19.9398 12.2198 19.8797 12.1596ZM14.0451 13.122C13.9248 13.122 13.8045 13.2423 13.8045 13.3626C13.8045 14.2047 13.203 14.8062 12.3609 14.8062C12.2406 14.8062 12.1203 14.9265 12.1203 15.0468C12.1203 15.1671 12.2406 15.2874 12.3609 15.2874C13.4436 15.2874 14.2857 14.3852 14.2857 13.3025C14.2857 13.2423 14.1654 13.122 14.0451 13.122ZM10.3158 16.5506L9.65413 17.2123L4.78195 12.4002L9.65413 7.52805L10.5564 8.37015C10.6767 8.1897 10.8571 8.00925 10.9774 7.88895L9.83459 6.86639C9.77444 6.80624 9.71429 6.74609 9.65413 6.74609C9.53383 6.74609 9.47368 6.80624 9.41353 6.86639L4.1203 12.1596C4.06015 12.2198 4 12.2799 4 12.4002C4 12.4604 4.06015 12.5807 4.1203 12.6408L9.41353 17.9341C9.47368 17.9942 9.53383 18.0544 9.65413 18.0544C9.71429 18.0544 9.83459 17.9942 9.89474 17.9341L11.0376 16.8514C10.7368 16.7311 10.4962 16.6709 10.3158 16.5506Z" fill="white"/>
<path fill-rule="evenodd" clip-rule="evenodd" d="M15.2481 12.4005C15.0677 11.6787 14.5263 10.7163 13.7444 9.57343C12.9624 8.49073 12.1805 7.64862 12.1805 7.58847C12.1203 7.52832 12.0602 7.52832 12 7.52832C11.9399 7.52832 11.8797 7.52832 11.8196 7.58847C11.8196 7.58847 11.0376 8.49073 10.2557 9.57343C9.41355 10.7163 8.87219 11.6185 8.69174 12.4005C8.63159 12.6411 8.63159 12.8216 8.63159 13.002C8.63159 14.9268 10.1354 16.4907 12 16.4907C13.8647 16.4907 15.3684 14.987 15.3684 13.002C15.3684 12.8216 15.3083 12.581 15.2481 12.4005ZM12.3609 15.3479C12.2406 15.3479 12.1203 15.2276 12.1203 15.1073C12.1203 14.987 12.2406 14.8667 12.3609 14.8667C13.1429 14.8667 13.8045 14.205 13.8045 13.4231C13.8045 13.3028 13.9248 13.1825 14.0451 13.1825C14.1654 13.1825 14.2857 13.3028 14.2857 13.4231C14.2857 14.4456 13.4436 15.3479 12.3609 15.3479Z" fill="white"/>
<path fill-rule="evenodd" clip-rule="evenodd" d="M14.0451 13.1221C13.9248 13.1221 13.8045 13.2424 13.8045 13.3627C13.8045 14.2048 13.203 14.8063 12.3609 14.8063C12.2406 14.8063 12.1203 14.9266 12.1203 15.0469C12.1203 15.1672 12.2406 15.2875 12.3609 15.2875C13.4436 15.2875 14.2857 14.3852 14.2857 13.3025C14.2857 13.2424 14.1654 13.1221 14.0451 13.1221ZM14.0451 13.1221C13.9248 13.1221 13.8045 13.2424 13.8045 13.3627C13.8045 14.2048 13.203 14.8063 12.3609 14.8063C12.2406 14.8063 12.1203 14.9266 12.1203 15.0469C12.1203 15.1672 12.2406 15.2875 12.3609 15.2875C13.4436 15.2875 14.2857 14.3852 14.2857 13.3025C14.2857 13.2424 14.1654 13.1221 14.0451 13.1221ZM14.0451 13.1221C13.9248 13.1221 13.8045 13.2424 13.8045 13.3627C13.8045 14.2048 13.203 14.8063 12.3609 14.8063C12.2406 14.8063 12.1203 14.9266 12.1203 15.0469C12.1203 15.1672 12.2406 15.2875 12.3609 15.2875C13.4436 15.2875 14.2857 14.3852 14.2857 13.3025C14.2857 13.2424 14.1654 13.1221 14.0451 13.1221Z" fill="#0B1628"/>
</svg>
