<svg width="24" height="24" viewBox="0 0 24 24" fill="none" xmlns="http://www.w3.org/2000/svg">
<path d="M12 24C18.6274 24 24 18.6274 24 12C24 5.37258 18.6274 0 12 0C5.37258 0 0 5.37258 0 12C0 18.6274 5.37258 24 12 24Z" fill="url(#paint0_radial)"/>
<path d="M12.957 15.3255C13.994 15.3255 14.5913 14.931 14.5913 14.228V14.1942C14.5913 13.5425 14.0639 13.1141 12.9218 13.1141H10.321V15.3255H12.957ZM12.4648 10.7829C13.5018 10.7829 14.0817 10.4396 14.0817 9.73716V9.70283C14.0817 9.05161 13.5543 8.67403 12.5352 8.67403H10.3215V10.7829H12.4648ZM7 6H13.3084C14.8544 6 15.9439 6.3771 16.6647 7.08005C17.1564 7.56013 17.4553 8.19443 17.4553 9.01728V9.05113C17.4553 10.4401 16.6468 11.2625 15.5578 11.7256C17.0513 12.2057 18 13.0286 18 14.6569V14.6912C18 16.7483 16.278 18 13.3431 18H7.00051V6.00048L7 6Z" fill="white"/>
<path d="M23.5 12C23.5 18.3513 18.3513 23.5 12 23.5C5.64873 23.5 0.5 18.3513 0.5 12C0.5 5.64873 5.64873 0.5 12 0.5C18.3513 0.5 23.5 5.64873 23.5 12Z" stroke="black" stroke-opacity="0.097"/>
<defs>
<radialGradient id="paint0_radial" cx="0" cy="0" r="1" gradientUnits="userSpaceOnUse" gradientTransform="translate(30.4753 -5.88331) rotate(134.185) scale(43.0753 39.4556)">
<stop stop-color="#29E7E8"/>
<stop offset="1" stop-color="#651FFF"/>
</radialGradient>
</defs>
</svg>
