<svg width="24" height="24" viewBox="0 0 24 24" fill="none" xmlns="http://www.w3.org/2000/svg">
<path d="M12 24C18.6274 24 24 18.6274 24 12C24 5.37258 18.6274 0 12 0C5.37258 0 0 5.37258 0 12C0 18.6274 5.37258 24 12 24Z" fill="#C0C1FD"/>
<path d="M5.97092 11.4522C6.32001 11.0977 6.66364 10.7377 7.01274 10.3832C8.68728 8.68679 10.3673 6.99589 12.0418 5.29407C12.1891 5.14134 12.2709 5.13589 12.4236 5.28861C13.7 6.58679 14.9927 7.87407 16.2746 9.1668C17.0109 9.90861 17.7309 10.6559 18.4727 11.3923C18.6473 11.5613 18.6418 11.665 18.4346 11.7686C18.3473 11.6813 18.2873 11.7741 18.2218 11.8068C17.4036 12.1559 16.5636 12.3795 15.6636 12.385C15.1836 12.385 14.7146 12.3413 14.24 12.2759C13.8473 11.7741 13.2964 11.545 12.7018 11.3977C12.2764 11.2941 11.84 11.2286 11.4364 11.0377C11.0764 10.8686 10.8418 10.6068 10.8473 10.2032C10.8527 9.83225 11.0655 9.56498 11.3927 9.39043C11.7691 9.18861 12.1782 9.17225 12.5818 9.24316C13.0727 9.33043 13.4491 9.5868 13.5582 10.1213C13.5855 10.2522 13.6455 10.3286 13.7982 10.3068C13.8855 10.2959 13.9782 10.3068 14.0709 10.3068C14.3927 10.3068 14.4255 10.2686 14.3382 9.94679C14.1473 9.20498 13.6236 8.80134 12.9255 8.59407C12.4618 8.4577 12.4509 8.46316 12.4673 7.9777C12.4727 7.74861 12.4127 7.68861 12.1836 7.69407C11.9764 7.69952 11.8836 7.74316 11.9164 7.96679C11.9273 8.05407 11.9055 8.15225 11.9218 8.23952C11.9655 8.46316 11.8564 8.53407 11.66 8.57225C10.5091 8.78498 10.0182 9.4177 10.0618 10.5741C10.0455 10.6886 9.98546 10.6886 9.88728 10.6668C9.71274 10.6286 9.53274 10.5959 9.35274 10.585C8.45819 10.525 7.61819 10.7322 6.80001 11.0868C6.52728 11.2068 6.28728 11.4195 5.97092 11.4522Z" fill="#00FFB4"/>
<path d="M14.2346 12.2766C14.7036 12.3421 15.1782 12.3857 15.6582 12.3857C16.5582 12.3857 17.3982 12.1621 18.2164 11.8075C18.2818 11.7802 18.3418 11.6875 18.4291 11.7693C18.2655 11.9493 18.1018 12.1293 17.9327 12.3093C17.8891 12.3421 17.8455 12.3748 17.8073 12.413C15.9964 14.2348 14.1855 16.0512 12.38 17.8784C12.2764 17.9821 12.2327 18.0421 12.0909 17.9002C10.6182 16.4057 9.14001 14.9221 7.66183 13.4384C7.29092 13.0675 6.9091 12.6912 6.52728 12.3148C6.33637 12.113 6.14546 11.9057 5.94364 11.7148C5.82364 11.6002 5.82364 11.5293 5.96546 11.453C6.28183 11.4148 6.52183 11.2021 6.80001 11.0821C7.61819 10.733 8.45819 10.5202 9.35274 10.5802C9.53274 10.5912 9.70728 10.6239 9.88728 10.6621C9.98546 10.6839 10.0455 10.6784 10.0618 10.5693C10.1491 10.8366 10.2418 11.093 10.4546 11.2948C10.7709 11.6002 11.1527 11.7693 11.5618 11.8893C12.0691 12.0366 12.6036 12.1021 13.0836 12.3257C13.4764 12.5112 13.6727 12.8112 13.64 13.253C13.6127 13.6402 13.3891 13.9457 12.98 14.0875C12.5436 14.2402 12.1018 14.2675 11.6491 14.1475C11.2291 14.0384 10.88 13.8257 10.7655 13.4002C10.6836 13.0948 10.5255 13.0457 10.2691 13.0839C10.2255 13.0893 10.1764 13.0893 10.1327 13.0839C9.87637 13.0457 9.85455 13.1657 9.90364 13.3784C10.0946 14.1966 10.6618 14.6166 11.42 14.8239C11.8891 14.9548 11.9055 14.9439 11.8891 15.4239C11.8782 15.653 11.9436 15.7184 12.1727 15.7075C12.3691 15.7021 12.4782 15.6693 12.4455 15.4457C12.4291 15.3475 12.4509 15.2439 12.44 15.1457C12.4182 14.9657 12.4782 14.8948 12.6746 14.873C13.1873 14.8184 13.6618 14.6275 14.0109 14.2348C14.5346 13.6512 14.5564 12.9802 14.2346 12.2766Z" fill="#05DA9B"/>
<path d="M6.52729 12.3145C6.90911 12.6908 7.29093 13.0617 7.66729 13.4435C9.14547 14.9272 10.6237 16.4108 12.0964 17.9054C12.2382 18.0472 12.2818 17.9872 12.3855 17.8835C14.1909 16.0617 16.0018 14.2399 17.8127 12.4181C17.8509 12.3799 17.8946 12.3526 17.9382 12.3145C18.14 12.5108 18.3309 12.7181 18.5382 12.9035C18.6691 13.0181 18.6473 13.089 18.5327 13.2035C16.4873 15.249 14.4418 17.2945 12.4073 19.3454C12.2709 19.4817 12.2 19.4817 12.0691 19.3454C10.7546 18.0199 9.43456 16.6999 8.11456 15.3745C7.40002 14.6545 6.68547 13.9345 5.96002 13.2199C5.82911 13.089 5.80729 13.0126 5.95456 12.8817C6.15093 12.7072 6.33638 12.5108 6.52729 12.3145Z" fill="#302591"/>
<path d="M7.00727 7.99868C6.73455 6.8805 6.06909 6.24777 5 5.9805C6.09091 5.72414 6.72909 5.06414 7.01273 3.96777C7.28 5.08596 7.94545 5.71868 9.01455 5.9805C7.94545 6.24232 7.28545 6.8805 7.00727 7.99868Z" fill="#00FFB4"/>
<path d="M18.7891 17.0925C18.6255 16.4215 18.2491 16.0615 17.6218 15.9034C18.2382 15.7343 18.6255 15.3852 18.7836 14.7197C18.9691 15.3634 19.3455 15.7561 20 15.8979C19.3564 16.0561 18.9746 16.427 18.7891 17.0925Z" fill="#00FFB4"/>
<path d="M14.2346 12.2766C14.5564 12.9748 14.54 13.6457 14.0164 14.2457C13.6673 14.6439 13.1982 14.8294 12.68 14.8839C12.4891 14.9057 12.4291 14.9766 12.4455 15.1566C12.4564 15.2548 12.4346 15.3584 12.4509 15.4566C12.4891 15.6857 12.38 15.713 12.1782 15.7184C11.9491 15.7239 11.8891 15.6639 11.8946 15.4348C11.9109 14.9548 11.8946 14.9603 11.4255 14.8348C10.6618 14.6275 10.0946 14.2075 9.9091 13.3894C9.86001 13.1766 9.88183 13.0512 10.1382 13.0948C10.1818 13.1003 10.2309 13.1003 10.2746 13.0948C10.5309 13.0566 10.6891 13.1057 10.7709 13.4112C10.8855 13.8366 11.2346 14.0494 11.6546 14.1584C12.1073 14.273 12.5491 14.2457 12.9855 14.0984C13.3946 13.9566 13.6237 13.6566 13.6455 13.2639C13.6727 12.8221 13.4818 12.5166 13.0891 12.3366C12.6037 12.113 12.0746 12.0475 11.5673 11.9003C11.1582 11.7803 10.7709 11.6112 10.46 11.3057C10.2527 11.1039 10.1546 10.8475 10.0673 10.5803C10.0182 9.41845 10.5091 8.78572 11.6491 8.56209C11.8455 8.5239 11.9546 8.45299 11.9109 8.22936C11.8946 8.14209 11.9218 8.0439 11.9055 7.95663C11.8727 7.73845 11.9655 7.68936 12.1727 7.6839C12.4018 7.67845 12.4618 7.7439 12.4564 7.96754C12.44 8.45299 12.4509 8.44754 12.9146 8.5839C13.6127 8.79118 14.1364 9.19481 14.3273 9.93663C14.4091 10.2584 14.3818 10.2966 14.06 10.2966C13.9673 10.2966 13.8746 10.2857 13.7873 10.2966C13.6346 10.3184 13.5746 10.2421 13.5473 10.1112C13.4382 9.57663 13.0618 9.32027 12.5709 9.23299C12.1673 9.16209 11.7582 9.17845 11.3818 9.38027C11.0546 9.55481 10.8418 9.82209 10.8364 10.193C10.8309 10.5966 11.0655 10.8584 11.4255 11.0275C11.8291 11.2184 12.2655 11.2784 12.6909 11.3875C13.2909 11.5457 13.8364 11.7748 14.2346 12.2766Z" fill="#360B90"/>
<path d="M23.5 12C23.5 18.3513 18.3513 23.5 12 23.5C5.64873 23.5 0.5 18.3513 0.5 12C0.5 5.64873 5.64873 0.5 12 0.5C18.3513 0.5 23.5 5.64873 23.5 12Z" stroke="white" stroke-opacity="0.3"/>
</svg>
