<svg width="24" height="24" viewBox="0 0 24 24" fill="none" xmlns="http://www.w3.org/2000/svg">
<path d="M11.9999 24C18.6274 24 23.9999 18.6274 23.9999 12C23.9999 5.37258 18.6274 0 11.9999 0C5.37252 0 -6.10352e-05 5.37258 -6.10352e-05 12C-6.10352e-05 18.6274 5.37252 24 11.9999 24Z" fill="#F0B90B"/>
<path d="M12 4L13.9821 6.02985L8.99105 11.0209L7.00896 9.03881L12 4Z" fill="white"/>
<path d="M15.009 7.00879L16.991 9.03864L8.99105 17.0386L7.00896 15.0565L15.009 7.00879Z" fill="white"/>
<path d="M5.98209 10.0176L7.96418 12.0474L5.98209 14.0295L4 12.0474L5.98209 10.0176Z" fill="white"/>
<path d="M18.0179 10.0176L20 12.0474L12 20.0474L10.0179 18.0653L18.0179 10.0176Z" fill="white"/>
<path d="M23.4999 12C23.4999 18.3513 18.3512 23.5 11.9999 23.5C5.64866 23.5 0.499939 18.3513 0.499939 12C0.499939 5.64873 5.64866 0.5 11.9999 0.5C18.3512 0.5 23.4999 5.64873 23.4999 12Z" stroke="black" stroke-opacity="0.097"/>
</svg>
