<svg width="100" height="100" viewBox="0 0 100 100" fill="none" xmlns="http://www.w3.org/2000/svg">
<rect width="100" height="100" fill="white"/>
<rect x="56.5294" y="13" width="4.35294" height="4.35294" transform="rotate(90 56.5294 13)" fill="#FF9900"/>
<rect x="43.4706" y="87" width="4.35294" height="4.35294" transform="rotate(-90 43.4706 87)" fill="#FF9900"/>
<rect x="87" y="56.5294" width="4.35294" height="4.35294" transform="rotate(-180 87 56.5294)" fill="#FF9900"/>
<rect x="13" y="43.4706" width="4.35294" height="4.35294" fill="#FF9900"/>
<rect x="52.1765" y="13" width="4.35294" height="4.35294" transform="rotate(90 52.1765 13)" fill="#FF9900"/>
<rect x="47.8235" y="87" width="4.35294" height="4.35294" transform="rotate(-90 47.8235 87)" fill="#FF9900"/>
<rect x="87" y="52.1765" width="4.35294" height="4.35294" transform="rotate(-180 87 52.1765)" fill="#FF9900"/>
<rect x="13" y="47.8235" width="4.35294" height="4.35294" fill="#FF9900"/>
<rect x="47.8235" y="13" width="4.35294" height="4.35294" transform="rotate(90 47.8235 13)" fill="#FF9900"/>
<rect x="52.1765" y="87" width="4.35294" height="4.35294" transform="rotate(-90 52.1765 87)" fill="#FF9900"/>
<rect x="87" y="47.8235" width="4.35294" height="4.35294" transform="rotate(-180 87 47.8235)" fill="#FF9900"/>
<rect x="13" y="52.1765" width="4.35294" height="4.35294" fill="#FF9900"/>
<rect x="34.7647" y="21.7059" width="4.35294" height="4.35294" transform="rotate(-90 34.7647 21.7059)" fill="#FF9900"/>
<rect x="65.2353" y="78.2941" width="4.35294" height="4.35294" transform="rotate(90 65.2353 78.2941)" fill="#FF9900"/>
<rect x="78.2941" y="34.7647" width="4.35294" height="4.35294" fill="#FF9900"/>
<rect x="21.7059" y="65.2353" width="4.35294" height="4.35294" transform="rotate(-180 21.7059 65.2353)" fill="#FF9900"/>
<rect x="26.0588" y="26.0588" width="4.35294" height="4.35294" transform="rotate(-90 26.0588 26.0588)" fill="#FF9900"/>
<rect x="73.9412" y="73.9412" width="4.35294" height="4.35294" transform="rotate(90 73.9412 73.9412)" fill="#FF9900"/>
<rect x="73.9412" y="26.0588" width="4.35294" height="4.35294" fill="#FF9900"/>
<rect x="26.0588" y="73.9412" width="4.35294" height="4.35294" transform="rotate(-180 26.0588 73.9412)" fill="#FF9900"/>
<rect x="56.5294" y="21.7059" width="4.35294" height="4.35294" transform="rotate(-90 56.5294 21.7059)" fill="#FF9900"/>
<rect x="43.4706" y="78.2941" width="4.35294" height="4.35294" transform="rotate(90 43.4706 78.2941)" fill="#FF9900"/>
<rect x="78.2941" y="56.5294" width="4.35294" height="4.35294" fill="#FF9900"/>
<rect x="21.7059" y="43.4706" width="4.35294" height="4.35294" transform="rotate(-180 21.7059 43.4706)" fill="#FF9900"/>
<rect x="65.2353" y="26.0588" width="4.35294" height="4.35294" transform="rotate(-90 65.2353 26.0588)" fill="#FF9900"/>
<rect x="34.7647" y="73.9412" width="4.35294" height="4.35294" transform="rotate(90 34.7647 73.9412)" fill="#FF9900"/>
<rect x="73.9412" y="65.2353" width="4.35294" height="4.35294" fill="#FF9900"/>
<rect x="26.0588" y="34.7647" width="4.35294" height="4.35294" transform="rotate(-180 26.0588 34.7647)" fill="#FF9900"/>
<rect x="60.8824" y="39.1176" width="26.1176" height="4.35294" transform="rotate(-180 60.8824 39.1176)" fill="#FF9900"/>
<rect x="60.8824" y="52.1765" width="26.1176" height="4.35294" transform="rotate(-180 60.8824 52.1765)" fill="#FF9900"/>
<rect x="60.8824" y="65.2353" width="26.1176" height="4.35294" transform="rotate(-180 60.8824 65.2353)" fill="#FF9900"/>
<rect x="39.1176" y="21.7059" width="4.35294" height="4.35294" transform="rotate(-90 39.1176 21.7059)" fill="#FF9900"/>
<rect x="43.4706" y="34.7647" width="4.35294" height="4.35294" transform="rotate(-90 43.4706 34.7647)" fill="#FF9900"/>
<rect x="60.8824" y="47.8235" width="8.70588" height="4.35294" transform="rotate(-90 60.8824 47.8235)" fill="#FF9900"/>
<rect x="60.8824" y="60.8824" width="8.70588" height="4.35294" transform="rotate(-90 60.8824 60.8824)" fill="#FF9900"/>
<rect x="39.1176" y="60.8824" width="21.7647" height="4.35294" transform="rotate(-90 39.1176 60.8824)" fill="#FF9900"/>
<rect x="43.4706" y="69.5882" width="4.35294" height="4.35294" transform="rotate(-90 43.4706 69.5882)" fill="#FF9900"/>
<rect x="52.1765" y="34.7647" width="4.35294" height="4.35294" transform="rotate(-90 52.1765 34.7647)" fill="#FF9900"/>
<rect x="52.1765" y="69.5882" width="4.35294" height="4.35294" transform="rotate(-90 52.1765 69.5882)" fill="#FF9900"/>
<rect x="60.8824" y="78.2941" width="4.35294" height="4.35294" transform="rotate(90 60.8824 78.2941)" fill="#FF9900"/>
<rect x="78.2941" y="39.1176" width="4.35294" height="4.35294" fill="#FF9900"/>
<rect x="21.7059" y="60.8824" width="4.35294" height="4.35294" transform="rotate(-180 21.7059 60.8824)" fill="#FF9900"/>
<rect x="30.4118" y="26.0588" width="4.35294" height="4.35294" transform="rotate(-90 30.4118 26.0588)" fill="#FF9900"/>
<rect x="69.5882" y="73.9412" width="4.35294" height="4.35294" transform="rotate(90 69.5882 73.9412)" fill="#FF9900"/>
<rect x="73.9412" y="30.4118" width="4.35294" height="4.35294" fill="#FF9900"/>
<rect x="26.0588" y="69.5882" width="4.35294" height="4.35294" transform="rotate(-180 26.0588 69.5882)" fill="#FF9900"/>
<rect x="60.8824" y="21.7059" width="4.35294" height="4.35294" transform="rotate(-90 60.8824 21.7059)" fill="#FF9900"/>
<rect x="39.1176" y="78.2941" width="4.35294" height="4.35294" transform="rotate(90 39.1176 78.2941)" fill="#FF9900"/>
<rect x="78.2941" y="60.8824" width="4.35294" height="4.35294" fill="#FF9900"/>
<rect x="21.7059" y="39.1176" width="4.35294" height="4.35294" transform="rotate(-180 21.7059 39.1176)" fill="#FF9900"/>
<rect x="69.5882" y="26.0588" width="4.35294" height="4.35294" transform="rotate(-90 69.5882 26.0588)" fill="#FF9900"/>
<rect x="30.4118" y="73.9412" width="4.35294" height="4.35294" transform="rotate(90 30.4118 73.9412)" fill="#FF9900"/>
<rect x="73.9412" y="69.5882" width="4.35294" height="4.35294" fill="#FF9900"/>
<rect x="26.0588" y="30.4118" width="4.35294" height="4.35294" transform="rotate(-180 26.0588 30.4118)" fill="#FF9900"/>
</svg>
