<svg width="24" height="24" viewBox="0 0 24 24" fill="none" xmlns="http://www.w3.org/2000/svg">
<path d="M12 24C18.6274 24 24 18.6274 24 12C24 5.37258 18.6274 0 12 0C5.37258 0 0 5.37258 0 12C0 18.6274 5.37258 24 12 24Z" fill="#FF512F"/>
<path d="M23.5 12C23.5 18.3513 18.3513 23.5 12 23.5C5.64873 23.5 0.5 18.3513 0.5 12C0.5 5.64873 5.64873 0.5 12 0.5C18.3513 0.5 23.5 5.64873 23.5 12Z" stroke="black" stroke-opacity="0.097"/>
<path d="M21 16.986C20.5226 17.8126 19.9267 18.5431 19.2379 19.1999C18.2414 20.1515 17.0944 20.8563 15.8129 21.3497C15.1593 21.5996 14.4865 21.7791 13.7976 21.8816C13.3875 21.9425 12.971 21.9777 12.5513 21.9969C11.2762 22.0482 10.0395 21.8528 8.84121 21.4362C7.6013 21.0037 6.48635 20.3565 5.49314 19.4915C4.49352 18.6168 3.68934 17.5948 3.09021 16.4157C2.61924 15.4898 2.29244 14.5158 2.12904 13.4874C2.05535 13.0196 1.98167 12.5518 2.00409 12.0777C2.07778 12.0616 2.15788 12.1065 2.22837 12.0488C2.28924 12.0809 2.35011 12.1129 2.41099 12.1449C2.5007 12.2315 2.59361 12.3148 2.64487 12.4301C2.65769 12.5038 2.67371 12.5743 2.68332 12.648C2.69934 12.7601 2.61604 12.9043 2.6641 12.9651C2.71536 13.0292 2.87555 12.9972 2.97808 13.0324C3.50992 13.199 3.79507 13.5771 3.88798 14.1153C3.8976 14.1762 3.87837 14.2435 3.9809 14.2467C4.33973 14.2595 4.55439 14.471 4.68255 14.785C4.721 14.8779 4.76585 14.9003 4.85877 14.8971C5.01255 14.8907 5.16634 14.9131 5.31372 14.9644C5.67576 15.0893 5.94809 15.3232 6.13392 15.6596C6.16916 15.7269 6.19159 15.7718 6.26528 15.6917C6.3646 15.5827 6.47353 15.4802 6.57926 15.3777C6.72984 15.2655 6.86441 15.1342 6.99256 14.9964C7.06305 14.958 7.12712 14.9131 7.15596 14.833H7.15276C7.17198 14.833 7.18479 14.8202 7.18479 14.801C7.20402 14.801 7.21683 14.7882 7.21683 14.7689V14.7721C7.24567 14.7753 7.26489 14.7593 7.27771 14.7369C7.34179 14.676 7.40586 14.6152 7.47315 14.5543C7.63334 14.4453 7.75829 14.298 7.89286 14.1634C7.91208 14.1442 7.93451 14.125 7.95373 14.1057C8.05626 14.0481 8.13315 13.9616 8.20684 13.8718C8.39587 13.7693 8.46635 13.9295 8.55927 14.0352C8.56567 14.1057 8.56567 14.1698 8.5048 14.2243C8.38626 14.33 8.27092 14.4421 8.15558 14.5511C7.70383 14.9772 7.25208 15.4001 6.79712 15.8262C6.68178 15.9287 6.56644 16.0313 6.45431 16.137C6.40945 16.1787 6.33256 16.2171 6.33256 16.278C6.32615 16.4606 6.32935 16.6432 6.30693 16.8226C6.33256 16.8387 6.35499 16.8547 6.38062 16.8707C6.56324 16.6656 6.74906 16.4606 6.93169 16.2523C7.11431 16.0889 7.30014 15.9287 7.47635 15.7621C7.95053 15.3168 8.4183 14.8715 8.88927 14.4229C9.12956 14.2051 9.36665 13.9872 9.60694 13.7661C9.74471 13.638 9.79277 13.6412 9.93374 13.7917C10.0587 13.9231 10.0619 13.9616 9.92092 14.0929C9.60694 14.3877 9.29296 14.6824 8.97898 14.974C8.54325 15.3809 8.10752 15.7846 7.67179 16.1915C7.44751 16.3997 7.22645 16.6144 6.98615 16.8419C7.04703 16.8451 7.08227 16.8451 7.11751 16.8483C7.29693 16.8899 7.48917 17.0117 7.61412 16.7554C7.63975 16.7361 7.66858 16.7233 7.69101 16.7009C8.2613 16.1658 8.8316 15.634 9.39869 15.0989C9.54607 14.9612 9.59413 14.9612 9.72549 15.0989C9.86325 15.2399 9.86005 15.2719 9.72549 15.4097C9.69665 15.4386 9.66782 15.4706 9.63898 15.5026C9.54286 15.5955 9.44675 15.6853 9.34743 15.7782C9.30898 15.7942 9.27694 15.8166 9.25772 15.8551C9.1616 15.9287 9.07509 16.012 8.9982 16.105C8.70024 16.3805 8.39907 16.6592 8.10111 16.9348C8.02422 17.0021 7.95053 17.0693 7.87363 17.1366C7.82557 17.1783 7.81596 17.2071 7.85761 17.2648C8.20363 17.7293 8.22927 18.2227 7.97616 18.7354C7.95693 18.7706 7.9249 18.8058 7.95693 18.8507C8.08509 19.0333 8.15558 19.2416 8.21325 19.4594C9.02704 18.8924 9.92413 19.2095 10.2669 19.9208C10.3118 20.0105 10.3502 19.9657 10.4015 19.9368C10.8533 19.6741 11.3338 19.6292 11.8369 19.735C12.154 19.8023 12.1508 19.8087 12.1733 19.4691C12.2373 19.3089 12.3046 19.1519 12.4168 19.0205C12.4392 19.0045 12.4616 18.9885 12.452 18.9564C12.4712 18.95 12.4937 18.95 12.5097 18.9372C13.1248 18.4214 13.9578 18.7193 14.1981 19.3153C14.2238 19.3761 14.2558 19.389 14.3199 19.3793C14.4576 19.3601 14.5954 19.3922 14.73 19.4242C14.8709 19.4594 14.9927 19.5972 15.1176 19.5876C15.2426 19.578 15.3387 19.4178 15.4733 19.3601C15.563 19.3217 15.6142 19.2672 15.6495 19.1743C15.72 18.9789 15.8642 18.8475 16.05 18.761C16.2935 18.6457 16.5498 18.604 16.8125 18.6617C16.9535 18.6937 17.0304 18.6649 17.0977 18.5207C17.3059 18.0914 17.8249 17.9152 18.1838 18.1587C18.2382 18.1971 18.2799 18.1779 18.328 18.1523C18.5939 18.0177 18.8598 18.0177 19.1193 18.1715C19.1642 18.1971 19.1994 18.2131 19.2507 18.1779C19.3115 18.1362 19.2763 18.0946 19.2603 18.0529C19.1898 17.8575 19.2186 17.6749 19.35 17.5115C19.5006 17.3224 19.7953 17.2552 20.0356 17.3513C20.0933 17.3737 20.151 17.425 20.1862 17.3224C20.2567 17.1238 20.4041 17.0021 20.5899 16.9155C20.6187 16.9091 20.6444 16.9059 20.6732 16.8995C20.7982 16.8963 20.9007 16.9348 21 16.986Z" fill="#FEFEFD"/>
<path d="M11.4395 9.51716C11.5068 9.51716 11.5613 9.49793 11.6061 9.44026C12.1444 8.75783 12.7884 8.18434 13.4836 7.6653C13.4964 7.65569 13.5061 7.64288 13.5157 7.63006C13.7848 7.46025 14.0379 7.27443 14.3166 7.12064C14.9158 6.79064 15.5341 6.50549 16.2069 6.36132C16.6299 6.2684 17.056 6.20753 17.4885 6.27161C17.575 6.28442 17.6263 6.31967 17.6391 6.40617C17.6391 6.50229 17.6391 6.59841 17.6391 6.69773C17.6391 6.72977 17.6391 6.7586 17.6391 6.79064C17.5974 7.51472 17.3764 8.19074 17.0496 8.83152C16.4216 10.065 15.5245 11.0807 14.4832 11.9777C14.4064 12.045 14.3583 12.1123 14.3391 12.2116C14.259 12.6185 14.1693 13.0254 14.0828 13.4291C14.0667 13.506 14.0443 13.5797 13.977 13.6374C13.6086 13.961 13.2433 14.2878 12.8781 14.6114C12.8332 14.6498 12.7948 14.6947 12.7275 14.6882C12.641 14.5633 12.6378 14.4031 12.5641 14.2749C12.4712 13.9514 12.3719 13.6278 12.2373 13.317C12.2501 13.1984 12.2085 13.1568 12.0803 13.176C11.8304 13.2145 11.5805 13.1984 11.3402 13.1183C11.2633 13.0927 11.2153 13.1055 11.1608 13.1632C11.0262 13.3074 10.8853 13.4451 10.7475 13.5829C10.6962 13.6342 10.6482 13.6886 10.5745 13.6181C10.5489 13.5925 10.52 13.5637 10.4944 13.538C10.4784 13.5284 10.4624 13.5156 10.4463 13.506H10.4495C10.4463 13.4868 10.4367 13.474 10.4175 13.474C10.4175 13.4547 10.4047 13.4419 10.3855 13.4419C10.3855 13.4195 10.3726 13.4099 10.3534 13.4099C10.3086 13.3266 10.2413 13.2657 10.1612 13.2209C10.1388 13.1344 10.1708 13.0703 10.2317 13.0062C10.3534 12.8812 10.4656 12.7467 10.5809 12.6153C10.6258 12.5673 10.6546 12.5192 10.6097 12.4487C10.4848 12.2437 10.4527 12.013 10.4495 11.7791C10.4688 11.7214 10.4495 11.6926 10.3919 11.6734C9.9209 11.5228 9.44992 11.3722 8.97895 11.2184C8.91808 11.1415 8.95652 11.0871 9.01099 11.0262C9.1039 10.9269 9.20963 10.8372 9.25769 10.7058C9.53323 10.5008 9.72866 10.222 9.94332 9.9657C10.001 9.89522 10.0555 9.85036 10.142 9.82793C10.5745 9.73182 11.007 9.62288 11.4395 9.51716ZM14.7332 9.16152C14.7396 9.13589 14.7332 9.11987 14.7011 9.12948C14.7075 9.10065 14.7011 9.08783 14.6691 9.09745C14.6595 9.00133 14.5762 8.9757 14.5153 8.93725C14.1789 8.729 13.7399 8.76104 13.442 9.01735C13.1408 9.27366 13.0479 9.69978 13.2049 10.081C13.3395 10.5008 13.929 10.7378 14.3775 10.5488C14.4032 10.5424 14.432 10.5392 14.4448 10.5104C14.464 10.5072 14.48 10.5008 14.4768 10.4783C14.8677 10.3758 15.1465 9.60366 14.7684 9.20317C14.7684 9.17434 14.7652 9.15832 14.7332 9.16152Z" fill="#FEFEFD"/>
</svg>
