<?xml version="1.0" encoding="UTF-8"?>
<svg width="169px" height="169px" viewBox="0 0 169 169" version="1.1" xmlns="http://www.w3.org/2000/svg" xmlns:xlink="http://www.w3.org/1999/xlink">
    <title>Path</title>
    <g id="Page-1" stroke="none" stroke-width="1" fill="none" fill-rule="evenodd">
        <g id="EverSpace_Logo_-flutter-(2)" transform="translate(-289.000000, -0.000000)" fill="#2F40F2" fill-rule="nonzero">
            <path d="M411.34,158.799544 L411.34,158.799544 C418.067576,155.440495 424.280418,151.136965 429.79,146.019544 L430.1,145.719544 L430.2,145.639544 C430.99,144.899544 431.79,144.159544 432.58,143.369544 C434.77416,141.179818 436.840888,138.866016 438.77,136.439544 C440.103333,134.739544 441.406667,132.982878 442.68,131.169544 C443.977997,129.306254 445.173115,127.373367 446.26,125.379544 C452.060247,115.218213 455.629447,103.937905 456.73,92.2895442 C456.848582,91.575761 456.905458,90.8530898 456.9,90.1295442 C457.112679,88.1134225 457.209505,86.0867587 457.19,84.0595442 L457.06,83.9995442 C457.043473,80.5445352 454.235044,77.7539942 450.78,77.7595442 L420.53,77.7595442 L420.08,75.4295442 C415.985126,52.7565971 396.239752,36.2712322 373.2,36.2895442 C368.901013,36.2660775 364.620846,36.8587679 360.49,38.0495442 C354.201479,39.7580728 348.344005,42.7737008 343.3,46.8995442 C334.39597,54.042365 328.361293,64.1522239 326.3,75.3795442 L325.91,77.7095442 L302.04,77.7095442 L302.5,74.4795442 C303.350255,68.0640401 305.086822,61.7975896 307.66,55.8595442 C314.164638,40.7907795 325.644181,28.4110889 340.18,20.7895442 C372.275012,3.9981158 411.860736,13.9633916 432.18,43.9495442 L432.35,43.8295442 C435.959253,49.127964 438.83532,54.8901905 440.9,60.9595442 C441.517105,63.1609506 443.286966,64.8497359 445.51487,65.3630115 C447.742774,65.8762872 450.073147,65.1321344 451.591263,63.4226508 C453.109378,61.7131672 453.572944,59.3111868 452.8,57.1595442 C443.659253,29.9771968 421.267802,9.34667244 393.429355,2.45797389 C365.590909,-4.43072465 336.162384,3.37680718 315.4,23.1595442 C314.32,24.2395442 313.19,25.3195442 312.16,26.3995442 L309.1,29.7995442 C296.211226,44.9335416 289.147452,64.1709802 289.179888,84.0495442 L289.31,84.1095442 C289.320555,85.7786076 289.995108,87.3748095 291.184682,88.5456203 C292.374256,89.7164312 293.98098,90.3655244 295.65,90.3495442 L325.9,90.3495442 L326.29,92.6795442 C327.382109,98.7321147 329.65902,104.509352 332.99,109.679544 C335.766244,114.036356 339.23521,117.910655 343.26,121.149544 C358.372714,133.429709 379.454119,135.229776 396.43,125.689544 C398.866329,124.375278 400.050654,121.535401 399.27,118.879544 C398.599767,116.039117 396.058403,114.036705 393.14,114.049544 C391.975319,114.092817 390.841761,114.437363 389.85,115.049544 C380.13869,120.18755 368.599753,120.556559 358.58,116.049544 C357.103255,115.353097 355.66456,114.578672 354.27,113.729544 C347.267494,109.196123 342.084524,102.342142 339.63,94.3695442 L339.46,93.8095442 C339.15472,92.7640436 338.907673,91.7024125 338.72,90.6295442 C338.30461,88.4979991 338.096971,86.3311851 338.1,84.1595442 C338.097044,81.9117525 338.304617,79.6686239 338.72,77.4595442 C338.913248,76.3660106 339.180529,75.2868616 339.52,74.2295442 C343.912069,59.289426 357.622672,49.0292601 373.195,49.0292601 C388.767328,49.0292601 402.477931,59.289426 406.87,74.2295442 L407.95,77.8595442 L368.95,77.8595442 C365.470606,77.8595444 362.65,80.6801504 362.65,84.1595442 C362.65,87.638938 365.470606,90.459544 368.95,90.4595442 L444.31,90.4595442 L443.91,93.6395442 C440.025219,122.817634 418.597539,146.603154 389.981802,153.501848 C361.366064,160.400542 331.453803,148.992075 314.7,124.789544 L314.53,124.899544 C310.70417,119.457182 307.673688,113.497233 305.53,107.199544 C304.71032,104.593707 302.311448,102.807656 299.58,102.769544 L299.58,102.769544 C297.5642,102.75295 295.663758,103.708116 294.474312,105.335674 C293.284867,106.963232 292.951985,109.063996 293.58,110.979544 C299.201509,127.415844 309.780445,141.705093 323.86,151.879544 C324.63,152.449544 325.41,153.019544 326.2,153.559544 C327.54,154.469544 328.9,155.329544 330.3,156.159544 C331.7,156.989544 332.83,157.609544 334.12,158.299544 C335.41,158.989544 336.4,159.519544 337.57,160.079544 C339.96,161.199544 342.4,162.229544 344.89,163.129544 C345.05,163.189544 345.19,163.269544 345.35,163.319544 C345.455281,163.3221 345.555542,163.365068 345.63,163.439544 C348.02,164.229544 350.4,164.969544 352.84,165.589544 C356.126274,166.442501 359.467568,167.067323 362.84,167.459544 C366.263894,167.920552 369.715219,168.147745 373.17,168.139758 C374.31,168.139758 375.44,168.139758 376.58,168.029544 C382.13329,167.871404 387.651233,167.089835 393.03,165.699544 C393.83,165.529544 394.68,165.309544 395.47,165.079544 C399.965181,163.908685 404.338345,162.311442 408.53,160.309544 C409.52,159.709544 410.43,159.289544 411.34,158.799544 Z" id="Path"></path>
        </g>
    </g>
</svg>