<svg width="128" height="128" viewBox="0 0 32 32" fill="none" xmlns="http://www.w3.org/2000/svg">
    <path d="M16 32C24.8366 32 32 24.8366 32 16C32 7.16344 24.8366 0 16 0C7.16344 0 0 7.16344 0 16C0 24.8366 7.16344 32 16 32Z" fill="#201A2D"/>
    <path d="M15.9974 30C8.26579 29.9987 2 23.7304 2 15.9987C2 8.26835 8.26835 2 15.9987 2C23.7304 2 29.9987 8.26579 30 15.9974C30.0003 17.8364 29.6384 19.6574 28.9348 21.3564C28.2312 23.0554 27.1998 24.5992 25.8995 25.8995C24.5992 27.1998 23.0554 28.2312 21.3564 28.9348C19.6574 29.6384 17.8364 30.0003 15.9974 30V30ZM15.9974 3.09171C8.87443 3.09683 3.10452 8.87443 3.10708 15.9974C3.10965 23.1204 8.88596 28.8929 16.0077 28.8929C23.1307 28.8929 28.9057 23.1204 28.9083 15.9974C28.909 14.302 28.5754 12.6231 27.9268 11.0566C27.2781 9.49021 26.3271 8.067 25.128 6.86839C23.9289 5.66978 22.5053 4.71929 20.9386 4.07125C19.3719 3.42322 17.6929 3.09036 15.9974 3.09171V3.09171Z" fill="white"/>
    <mask id="mask0" mask-type="alpha" maskUnits="userSpaceOnUse" x="2" y="2" width="28" height="28">
        <circle cx="16" cy="16" r="14" fill="#C4C4C4"/>
    </mask>
    <g mask="url(#mask0)">
        <path fill-rule="evenodd" clip-rule="evenodd" d="M11 19V12H9V19H7.3V15H6.7V19H3V21H9V28H11V21H15.7H16.3H21V28H23V21H29V19H25.3V15H24.7V19H23V12H21V19H19.3V14H18.7V19H16.3V15H15.7V19H13.3V14H12.7V19H11Z" fill="white"/>
    </g>
    <path d="M9.5 10C9.5 11.3048 8.60828 12.9328 7.21689 14.2637C5.83224 15.5881 4.07468 16.5 2.5 16.5V17.5C4.42532 17.5 6.41776 16.4119 7.90811 14.9863C9.39172 13.5672 10.5 11.6952 10.5 10H9.5ZM21.5 10C21.5 11.6952 22.6083 13.5672 24.0919 14.9863C25.5822 16.4119 27.5747 17.5 29.5 17.5V16.5C27.9253 16.5 26.1678 15.5881 24.7831 14.2637C23.3917 12.9328 22.5 11.3048 22.5 10H21.5ZM9.5 10C9.5 11.6821 10.345 13.0684 11.568 14.0197C12.7856 14.9667 14.3951 15.5 16 15.5V14.5C14.6049 14.5 13.2144 14.0333 12.182 13.2303C11.155 12.4315 10.5 11.3179 10.5 10H9.5ZM16 15.5C17.6049 15.5 19.2144 14.9667 20.432 14.0197C21.655 13.0684 22.5 11.6821 22.5 10H21.5C21.5 11.3179 20.845 12.4315 19.818 13.2303C18.7856 14.0333 17.3951 14.5 16 14.5V15.5Z" fill="white"/>
</svg>
