<svg width="24" height="24" viewBox="0 0 24 24" fill="none" xmlns="http://www.w3.org/2000/svg">
<path d="M12 24C18.6274 24 24 18.6274 24 12C24 5.37258 18.6274 0 12 0C5.37258 0 0 5.37258 0 12C0 18.6274 5.37258 24 12 24Z" fill="#3E51DB"/>
<path d="M23.5 12C23.5 18.3513 18.3513 23.5 12 23.5C5.64873 23.5 0.5 18.3513 0.5 12C0.5 5.64873 5.64873 0.5 12 0.5C18.3513 0.5 23.5 5.64873 23.5 12Z" stroke="black" stroke-opacity="0.097"/>
<path d="M20 11.9949C20 14.9582 18.3866 17.5511 15.9923 18.9299C15.9615 18.9505 15.9204 18.9711 15.8895 18.9916C15.4785 19.218 15.0469 19.4032 14.5947 19.5576C14.2248 19.681 13.8446 19.7736 13.4644 19.8662C12.9917 19.9588 12.4984 20 11.9949 20C11.5941 20 11.1933 19.9691 10.8131 19.9074C10.772 19.8868 10.7206 19.8971 10.6795 19.8868C7.65832 19.2489 5.5517 17.5203 4.4727 14.5981C4.31856 14.1762 4.2158 13.7132 4.10276 13.2707C4.0411 12.8592 4 12.4373 4 12.0052C4 11.645 4.02055 11.2849 4.07193 10.9351C4.26718 10.2045 4.32884 9.43281 4.77071 8.74342C5.21259 10.5749 6.8054 11.6039 8.3571 11.4907C9.13809 11.429 9.02505 11.573 9.03532 10.8013C9.0456 9.87525 9.03532 9.87526 8.11047 9.78265C7.1034 9.69005 6.39435 8.91834 6.45601 7.98201C6.51766 7.05597 7.2781 6.346 8.19268 6.36658C9.13809 6.38716 9.83687 7.14857 9.83687 8.16722C9.83687 9.81352 9.84714 11.4598 9.83687 13.0958C9.83687 13.4251 9.86769 13.7441 9.9499 14.063C10.3918 15.8019 12.2107 16.9441 13.9371 16.5839C15.7354 16.2032 16.9274 14.5055 16.6602 12.7048C16.4033 10.9556 14.9955 9.79294 13.1355 9.79294C12.2826 9.79294 12.3854 9.71063 12.3854 10.5132C12.3854 11.4187 12.3854 11.4187 13.2999 11.4804C14.1734 11.5421 14.8619 12.1698 14.9338 12.9724C15.0161 13.8984 14.5434 14.6084 13.6904 14.8347C12.632 15.1023 11.6044 14.3408 11.5838 13.2399C11.5633 11.573 11.5838 9.91641 11.5735 8.25982C11.5633 6.56208 10.7103 5.34793 9.17919 4.7923C9.08671 4.76144 8.97367 4.77173 8.93256 4.6071C9.693 4.3087 10.4637 4.11321 11.255 4.03089C11.2961 4.03089 11.3372 4.0206 11.3783 4.0206C11.5838 4.00002 11.7893 4.00002 11.9949 4.00002C16.4136 3.98973 20 7.57044 20 11.9949Z" fill="white"/>
</svg>
