<svg width="24" height="24" viewBox="0 0 24 24" fill="none" xmlns="http://www.w3.org/2000/svg">
<path d="M12 24C18.6274 24 24 18.6274 24 12C24 5.37258 18.6274 0 12 0C5.37258 0 0 5.37258 0 12C0 18.6274 5.37258 24 12 24Z" fill="#F5F5F5"/>
<path d="M23.5 12C23.5 18.3513 18.3513 23.5 12 23.5C5.64873 23.5 0.5 18.3513 0.5 12C0.5 5.64873 5.64873 0.5 12 0.5C18.3513 0.5 23.5 5.64873 23.5 12Z" stroke="black" stroke-opacity="0.097"/>
<path d="M11.9997 3.00004L8.53491 6.46484L11.9997 9.92965L15.4645 6.46484L11.9997 3.00004Z" fill="#002060"/>
<path d="M11.9997 14.0704L8.53491 17.5352L11.9997 21L15.4645 17.5352L11.9997 14.0704Z" fill="#002060"/>
<path d="M17.5352 8.56254L14.0704 12.0273L17.5352 15.4921L21 12.0273L17.5352 8.56254Z" fill="#002060"/>
<path d="M13.0209 12.024L15.4609 9.58398L17.9008 12.024L15.4609 14.464L13.0209 12.024Z" fill="#4E87F7"/>
<path d="M6.46481 8.56254L3 12.0273L6.46481 15.4921L9.92961 12.0273L6.46481 8.56254Z" fill="#002060"/>
<path d="M6.0918 12.024L8.53181 9.58398L10.9718 12.024L8.53181 14.464L6.0918 12.024Z" fill="#4E87F7"/>
<path d="M9.55627 8.55915L11.9963 6.11914L14.4363 8.55915L11.9963 10.9992L9.55627 8.55915Z" fill="#4E87F7"/>
<path d="M9.55627 15.4884L11.9963 13.0483L14.4363 15.4884L11.9963 17.9284L9.55627 15.4884Z" fill="#4E87F7"/>
</svg>
