<svg width="24" height="24" viewBox="0 0 24 24" fill="none" xmlns="http://www.w3.org/2000/svg">
<path d="M12 24C18.6274 24 24 18.6274 24 12C24 5.37258 18.6274 0 12 0C5.37258 0 0 5.37258 0 12C0 18.6274 5.37258 24 12 24Z" fill="#F4F4F4"/>
<path d="M23.5 12C23.5 18.3513 18.3513 23.5 12 23.5C5.64873 23.5 0.5 18.3513 0.5 12C0.5 5.64873 5.64873 0.5 12 0.5C18.3513 0.5 23.5 5.64873 23.5 12Z" stroke="black" stroke-opacity="0.097"/>
<path d="M5.20979 4.52734C5.65883 4.99262 6.09705 5.4633 6.55692 5.91775C7.95273 7.31897 9.35395 8.7202 10.7552 10.1214C10.9013 10.2675 11.0365 10.4352 11.2042 10.5488C11.5992 10.8193 11.6749 11.1872 11.6695 11.6417C11.6479 13.1836 11.6587 14.72 11.6641 16.2619C11.6641 16.4296 11.6154 16.5487 11.4964 16.6677C10.7606 17.3926 10.0302 18.1176 9.29985 18.848C8.63441 19.5134 7.96896 20.1789 7.2981 20.8443C7.25482 20.8876 7.20613 20.9255 7.12498 20.9904C7.11957 20.8551 7.10875 20.7632 7.10875 20.6712C7.10875 18.8426 7.10875 17.0139 7.10334 15.1853C7.10334 15.0122 7.14662 14.8823 7.27646 14.7579C7.5632 14.4874 7.83371 14.1953 8.12585 13.9247C8.26652 13.7895 8.25029 13.7137 8.12044 13.5839C7.17908 12.6534 6.24854 11.712 5.30717 10.7815C5.17192 10.6516 5.12323 10.5164 5.12323 10.3324C5.12864 8.52543 5.12864 6.71304 5.12864 4.90605C5.12864 4.79785 5.12864 4.68965 5.12864 4.58145C5.15569 4.56521 5.18274 4.54357 5.20979 4.52734ZM5.76704 6.04218C5.71293 6.07464 5.72375 6.12333 5.72375 6.16661C5.72375 7.50833 5.72375 8.85004 5.71834 10.1918C5.71834 10.327 5.78327 10.4082 5.86983 10.4947C6.75168 11.3712 7.63353 12.2476 8.50456 13.1349C8.67228 13.3026 8.76966 13.3026 8.93737 13.1349C9.51626 12.5398 10.1006 11.95 10.6957 11.3766C10.8796 11.198 10.8904 11.0952 10.7011 10.9113C9.12132 9.34777 7.54697 7.77342 5.97262 6.19907C5.91311 6.13415 5.86442 6.04759 5.76704 6.04218ZM7.72009 19.508C7.74173 19.5188 7.76878 19.5351 7.79043 19.5459C8.80212 18.5234 9.81382 17.5063 10.8255 16.4891C10.9229 16.3918 10.8742 16.3377 10.8039 16.2727C10.1547 15.6235 9.50544 14.9797 8.85622 14.3251C8.74802 14.2169 8.67228 14.2223 8.56948 14.3305C8.34767 14.5631 8.12044 14.7958 7.8824 15.0176C7.75255 15.1366 7.70386 15.2665 7.70386 15.4396C7.70927 16.7272 7.70927 18.0148 7.70927 19.3024C7.70927 19.3673 7.71468 19.4377 7.72009 19.508ZM11.0473 11.8797C10.9337 11.9825 10.8688 12.042 10.8039 12.1015C10.3115 12.5884 9.83005 13.0862 9.33231 13.5677C9.18083 13.7137 9.17001 13.8003 9.3269 13.9518C9.83005 14.4387 10.3224 14.9418 10.8201 15.4342C10.8796 15.4937 10.9229 15.5802 11.0473 15.5802C11.0473 14.363 11.0473 13.1565 11.0473 11.8797Z" fill="#F67F6A"/>
<path d="M16.8199 20.9998C16.4466 20.6102 16.0788 20.2207 15.7 19.8366C14.6505 18.7816 13.6009 17.732 12.5459 16.6879C12.4215 16.5634 12.362 16.4444 12.362 16.2659C12.3674 14.5887 12.3674 12.917 12.362 11.2399C12.362 11.0722 12.4107 10.9531 12.5297 10.8395C14.0824 9.29764 15.6351 7.75575 17.1824 6.20845C17.7234 5.66744 18.2644 5.12642 18.8 4.59082C18.9083 4.63951 18.8704 4.72607 18.8704 4.78559C18.8758 6.65749 18.8704 8.53481 18.8758 10.4067C18.8758 10.5744 18.8 10.6718 18.6973 10.7746C17.7613 11.7106 16.8254 12.6465 15.884 13.5771C15.7433 13.7177 15.7271 13.7935 15.8786 13.9341C16.1815 14.2154 16.4683 14.513 16.7658 14.8052C16.8524 14.8917 16.9119 14.9729 16.9119 15.1081C16.9065 17.0287 16.9065 18.9439 16.9065 20.8645C16.9065 20.8915 16.9011 20.9186 16.8957 20.9402C16.8686 20.9673 16.847 20.9835 16.8199 20.9998ZM18.3023 5.97581C18.2374 6.00827 18.2158 6.01369 18.2049 6.02451C16.5386 7.68542 14.8777 9.34633 13.206 11.0018C13.0815 11.1263 13.1356 11.1912 13.233 11.2832C13.866 11.9107 14.499 12.5383 15.1266 13.1767C15.251 13.3065 15.3267 13.3282 15.4674 13.1875C16.3547 12.2894 17.2473 11.4022 18.1454 10.5149C18.2644 10.3959 18.3077 10.2769 18.3077 10.1146C18.3023 8.82695 18.3077 7.53934 18.3077 6.24632C18.3023 6.16517 18.3023 6.08943 18.3023 5.97581ZM16.2843 19.6202C16.306 19.512 16.3168 19.4903 16.3168 19.4633C16.3168 18.0891 16.3168 16.7095 16.3222 15.3353C16.3222 15.2271 16.2789 15.1514 16.2032 15.0757C15.9489 14.8214 15.6892 14.5725 15.4404 14.3128C15.3376 14.2046 15.2726 14.1938 15.159 14.3074C14.5206 14.9566 13.8768 15.595 13.2276 16.2334C13.0924 16.3687 13.1194 16.439 13.2384 16.5526C13.6821 16.9854 14.1203 17.4237 14.5585 17.8673C15.1266 18.4354 15.6838 19.0088 16.2843 19.6202ZM12.9787 11.8512C12.9787 13.1496 12.9787 14.3778 12.9787 15.6708C13.6117 15.0324 14.2014 14.4427 14.7911 13.853C14.8561 13.788 14.8561 13.7394 14.7911 13.6744C14.2014 13.0793 13.6117 12.4842 12.9787 11.8512Z" fill="#05B6C0"/>
</svg>
