<?xml version="1.0" encoding="UTF-8"?>
<svg width="25px" height="25px" viewBox="0 0 25 25" version="1.1" xmlns="http://www.w3.org/2000/svg" xmlns:xlink="http://www.w3.org/1999/xlink">
    <!-- Generator: Sketch 64 (93537) - https://sketch.com -->
    <title>Token / EURS</title>
    <desc>Created with Sketch.</desc>
    <defs>
        <circle id="path-1" cx="12.5" cy="12.5" r="12.5"></circle>
        <linearGradient x1="35.9052082%" y1="62.7157029%" x2="84.4161455%" y2="18.9010749%" id="linearGradient-3">
            <stop stop-color="#15BCFF" offset="0%"></stop>
            <stop stop-color="#3073EC" offset="49%"></stop>
            <stop stop-color="#B030EC" offset="100%"></stop>
        </linearGradient>
    </defs>
    <g id="Token-/-EURS" stroke="none" stroke-width="1" fill="none" fill-rule="evenodd">
        <mask id="mask-2" fill="white">
            <use xlink:href="#path-1"></use>
        </mask>
        <use id="Oval" fill="#FFFFFF" xlink:href="#path-1"></use>
        <g id="EURS" mask="url(#mask-2)">
            <g transform="translate(0.032342, 0.000000)">
                <ellipse id="Oval" fill="#FFFFFF" fill-rule="nonzero" cx="2.37419146" cy="2.3771022" rx="2.37419146" ry="2.3771022"></ellipse>
                <path d="M-5.51520882e-15,12.4902975 C-5.51520882e-15,19.3884217 5.58505821,24.9802829 12.4741268,24.9802829 C14.1773931,24.9825655 15.8629251,24.6344725 17.4259379,23.9576326 C16.8235141,23.8957194 16.2247127,23.8025581 15.6319534,23.6785252 C14.3094006,23.393273 13.0974558,22.9590341 11.996119,22.3758085 C9.70181113,21.157611 8.08796895,19.3755929 7.1545925,17.0297542 L2.99385511,17.0297542 L4.25776197,14.0362225 L6.41591203,14.0362225 C6.34032284,13.4495227 6.3013298,12.8586862 6.29915912,12.267141 C6.29915912,11.6970677 6.31856404,11.1852091 6.35737387,10.7315653 L2.99385511,10.7315653 L4.25776197,7.75614489 L6.96021992,7.75614489 C7.8157611,5.24234584 9.40362225,3.3049806 11.7238034,1.94404916 C12.9362394,1.23022187 14.2526337,0.709949341 15.6254851,0.402005175 C14.5964389,0.134344768 13.5374131,-0.000750580974 12.4741268,-3.11042258e-06 C5.58505821,-3.11042258e-06 -5.51520882e-15,5.59217335 -5.51520882e-15,12.4902975 L-5.51520882e-15,12.4902975 Z M19.834088,2.4045925 C16.0003234,2.89683053 12.1856404,4.48771022 10.7668176,7.75679172 L22.3205045,7.75679172 L21.0371928,10.7322122 L10.0323415,10.7322122 C9.98016386,11.1727038 9.95418284,11.7105433 9.95439712,12.3457309 C9.95461406,12.9809185 10.0064683,13.5444157 10.1099612,14.0362225 L19.5213454,14.0362225 L18.2373868,17.0297542 L11.2962484,17.0297542 C12.8719276,19.6313066 16.8906856,21.3205045 21.097348,21.5155239 C23.5613375,19.1603962 24.9531226,15.8987943 24.9485881,12.4902975 C24.9485881,8.34799483 22.9346701,4.67690815 19.834088,2.4045925 Z" id="Shape" fill="url(#linearGradient-3)" fill-rule="evenodd"></path>
            </g>
        </g>
    </g>
</svg>