<svg width="718" height="718" viewBox="0 0 718 718" fill="none" xmlns="http://www.w3.org/2000/svg">
<path d="M359.009 0C161.052 0 0 161.052 0 358.991C0 556.93 161.052 718 359.009 718C556.966 718 718 556.948 718 358.991C718 161.035 556.966 0 359.009 0ZM359.009 53.4035C527.514 53.4035 664.632 190.486 664.632 358.991C664.621 385.814 663.718 395.546 657.573 415.901C655.188 423.799 647.811 429.091 639.561 429.091H543.028C535.238 429.091 528.231 424.354 525.329 417.125L421.374 158.185C418.472 150.956 411.465 146.219 403.676 146.219H311.968C304.068 146.219 296.986 151.09 294.159 158.467L195.157 416.844C192.33 424.221 185.248 429.091 177.348 429.091H73.405C65.1533 429.091 57.6806 423.813 55.7234 415.797C50.7717 395.516 53.4219 385.785 53.4035 359.009C53.4035 190.486 190.504 53.4035 359.009 53.4035ZM402.744 366.884C404.286 371.037 401.215 375.455 396.784 375.455H316.477C312.065 375.455 308.994 371.069 310.504 366.922L338.586 289.805C342.515 276.971 345.888 264.136 349.159 251.375C350.786 245.027 360.01 244.943 361.802 251.246C362.258 252.848 362.696 254.406 363.111 255.91C366.3 267.471 369.967 278.769 374.111 289.805L402.744 366.884ZM359.009 664.632C308.141 664.59 258.089 651.843 213.398 627.547C172.139 605.116 136.656 573.499 109.658 535.202C106.753 531.081 109.762 525.507 114.804 525.507H239.411C247.425 525.507 254.584 520.497 257.329 512.968L279.501 452.146C282.246 444.617 289.405 439.607 297.419 439.607H417.4C425.304 439.607 432.389 444.483 435.213 451.865L458.691 513.249C461.515 520.632 468.6 525.507 476.504 525.507H603.196C608.238 525.507 611.247 531.081 608.342 535.202C581.346 573.497 545.865 605.112 504.61 627.542C459.922 651.838 409.874 664.587 359.009 664.632Z" fill="url(#paint0_linear_26_10985)"/>
<defs>
<linearGradient id="paint0_linear_26_10985" x1="463.938" y1="101.215" x2="85.1423" y2="698.08" gradientUnits="userSpaceOnUse">
<stop stop-color="#00B3FB"/>
<stop offset="1" stop-color="#006AE9"/>
</linearGradient>
</defs>
</svg>
