<svg width="40" height="40" viewBox="0 0 40 40" fill="none" xmlns="http://www.w3.org/2000/svg"><rect fill="#22222B" width="40" height="40" rx="12"/><g transform="translate(4 4)"><circle cx="16" cy="16" r="14" fill="#fff"/><svg width="32" height="32" viewBox="0 0 32 32" xmlns="http://www.w3.org/2000/svg"><path fill-rule="evenodd" clip-rule="evenodd" d="M0 16C0 7.163 7.163 0 16 0s16 7.163 16 16-7.163 16-16 16S0 24.837 0 16z" fill="#22222B"/><path fill-rule="evenodd" clip-rule="evenodd" d="M12.084 11.169c1.24.44 2.544.535 4.026.577l.293-.014a14.891 14.891 0 002.904-.375c.62-.136 1.209-.346 1.713-.744.526-.43.526-.923 0-1.354a2.989 2.989 0 00-1.009-.524c-2.681-.808-5.351-.819-8.022 0-.4.126-.778.315-1.083.608-.4.378-.4.798 0 1.175.326.326.746.504 1.178.65zm3.9 5.56c-1.787-.02-3.543-.168-5.246-.766-.547-.188-1.073-.42-1.504-.818-.589-.535-.589-1.122.01-1.658.58-.514 1.284-.776 2.009-.965 1.146-.315 2.281-.535 3.501-.367.88.125 1.785.056 2.685-.013l.238-.018a8.088 8.088 0 014.794 1.143c1.03.62 1.01 1.469-.01 2.12-1.136.734-2.45.965-3.764 1.164-.894.147-1.808.178-2.713.178zm.01 6.022c-2.312-.031-4.594-.22-6.78-1.028-.527-.189-1.031-.43-1.473-.776-.988-.756-.988-1.647 0-2.403.724-.55 1.577-.822 2.433-1.097l.08-.025c1.22-.389 2.44-.399 3.701-.22 1.745.262 3.512.167 5.257-.137a2.832 2.832 0 011.03.02c1.22.232 2.419.515 3.512 1.123.6.336 1.22.703 1.24 1.49.022.819-.61 1.217-1.219 1.553-1.577.87-3.312 1.144-5.068 1.353a23.25 23.25 0 01-2.712.147z" fill="#fff"/></svg></g></svg>