<svg fill="none" height="480" viewBox="0 0 480 480" width="480" xmlns="http://www.w3.org/2000/svg"><linearGradient id="a" gradientUnits="userSpaceOnUse" x1="240" x2="240" y1="0" y2="701.818"><stop offset="0" stop-color="#08021e"/><stop offset="1" stop-color="#1f0777"/></linearGradient><mask id="b" height="480" maskUnits="userSpaceOnUse" width="480" x="0" y="0"><circle cx="240" cy="240" fill="url(#a)" r="240"/></mask><g mask="url(#b)"><circle cx="240" cy="240" fill="#31d8a4" r="240"/><circle cx="240" cy="240" fill="#fff" r="208"/></g><circle cx="240" cy="240" fill="#0e052f" r="184"/><path d="M56 240c0 101.62 82.38 184 184 184V56C138.38 56 56 138.38 56 240z" fill="#627eea"/><path d="M240 424c101.62 0 184-82.38 184-184S341.62 56 240 56z" fill="#f7931a"/><g fill="#fff"><path d="M379.989 207.493c-1.732-18.539-17.764-24.776-38.008-26.579l.07-25.717-15.683-.016-.075 25.039c-4.123-.013-8.331.067-12.531.146l.079-25.203-15.685-.025-.073 25.708c-3.397.061-6.738.127-9.989.115l-.002-.08-21.641-.038-.045 16.716s11.592-.204 11.399.007c6.355.013 8.408 3.696 9.004 6.878l-.076 29.293c.435.001 1.004.023 1.659.106l-1.66.002-.114 41.039c-.289 1.99-1.472 5.169-5.918 5.172.207.175-11.4-.016-11.4-.016l-3.17 18.682 20.424.031c3.796.012 7.534.084 11.197.111l-.063 26.004 15.675.019.071-25.717c4.304.086 8.469.124 12.537.133l-.079 25.61 15.684.016.075-25.953c26.387-1.47 44.864-8.071 47.225-32.779 1.909-19.891-7.449-28.791-22.413-32.396 9.115-4.605 14.819-12.737 13.526-26.308zm-22.111 55.576c-.034 19.437-33.395 17.173-44.031 17.168l.106-34.458c10.64.023 43.99-2.978 43.925 17.29zm-7.159-48.625c-.05 17.685-27.866 15.572-36.716 15.559l.085-31.24c8.85.013 36.683-2.765 36.631 15.681z"/><path d="M151.743 156v61.786l52.222 23.335z" fill-opacity=".602"/><path d="M151.743 156l-52.23 85.121 52.23-23.335z"/><path d="M151.743 281.16v41.982L204 250.845z" fill-opacity=".602"/><path d="M151.743 323.142v-41.989l-52.23-30.308z"/><path d="M151.743 271.443l52.222-30.321-52.222-23.322z" fill-opacity=".2"/><path d="M99.514 241.122l52.229 30.321V217.8z" fill-opacity=".602"/></g></svg>