<svg xmlns="http://www.w3.org/2000/svg" viewBox="0 0 87 87"><defs><style>.cls-1{fill:#221536;}.cls-2{fill:none;}.cls-3{fill:#fff;}.cls-4{fill:#ffd83f;}</style></defs><g id="Layer_2" data-name="Layer 2"><g id="_POLAR" data-name="$POLAR"><g id="Logo"><circle class="cls-1" cx="43.5" cy="43.5" r="43.5"/><path class="cls-2" d="M32.88,58.73c.55-3.93,3.6-6.3,4.55-7,1.94-1.51,4.28-2.18,9-3.5,3.87-1.1,6.28-1.41,8.39-3.63a9.57,9.57,0,0,0,1.64-2.32,64.45,64.45,0,0,1-10.09,2.69c-3,.54-6,1.24-9,1.78a14.43,14.43,0,0,0-4,1.17,11.11,11.11,0,0,0-4.2,3.19A10.88,10.88,0,0,0,27,57.5a13.15,13.15,0,0,0,2.3,7.82,26,26,0,0,0,8.29,3.54C37.25,68.59,32.09,64.44,32.88,58.73Z"/><path class="cls-2" d="M25.08,60.23a12,12,0,0,1-1.89-4.73,11.25,11.25,0,0,1,1.9-7.58c.75-1.1,2.37-3.06,7-4.93,6.44-2.61,8.39-.84,18.05-3.13a31.6,31.6,0,0,0,9.29-3.78,15.53,15.53,0,0,0,4.24-3.72,15.36,15.36,0,0,0,1.79-2.93A26.43,26.43,0,0,0,62,25.22a5.94,5.94,0,0,1-.41,3.36,6.82,6.82,0,0,1-3.11,3A22.68,22.68,0,0,1,52,34.15c-7,1.31-10.16,1.31-14.34,2.08-5.16,1-10,1.85-13.9,5.58a18.55,18.55,0,0,0-5.09,9.47,26.12,26.12,0,0,0,10.65,14A19.76,19.76,0,0,1,25.08,60.23Z"/><path class="cls-2" d="M53.07,21.55a4.39,4.39,0,0,1-.44,2.94c-1.07,2.18-3.33,3.19-9.67,5.12-2.3.7-5.24,1.55-8.68,2.44a76.68,76.68,0,0,0,16-1.37c4.27-.83,7-1.76,8.26-4.15a6.49,6.49,0,0,0,.53-3.89,26.05,26.05,0,0,0-9.9-4.55C49.6,18.21,52.49,19.14,53.07,21.55Z"/><path class="cls-3" d="M23.74,41.81c3.89-3.73,8.74-4.62,13.9-5.58,4.18-.77,7.35-.77,14.34-2.08a22.68,22.68,0,0,0,6.53-2.61,6.82,6.82,0,0,0,3.11-3A5.94,5.94,0,0,0,62,25.22a27.8,27.8,0,0,0-3-2.58,6.49,6.49,0,0,1-.53,3.89c-1.22,2.39-4,3.32-8.26,4.15a76.68,76.68,0,0,1-16,1.37c3.44-.89,6.38-1.74,8.68-2.44,6.34-1.93,8.6-2.94,9.67-5.12a4.39,4.39,0,0,0,.44-2.94c-.58-2.41-3.47-3.34-3.89-3.46A26.06,26.06,0,0,0,18.65,51.28,18.55,18.55,0,0,1,23.74,41.81Z"/><path class="cls-4" d="M65.41,29.43a15.36,15.36,0,0,1-1.79,2.93,15.53,15.53,0,0,1-4.24,3.72,31.6,31.6,0,0,1-9.29,3.78C40.43,42.15,38.48,40.38,32,43c-4.58,1.87-6.2,3.83-6.95,4.93a11.25,11.25,0,0,0-1.9,7.58,12,12,0,0,0,1.89,4.73,19.76,19.76,0,0,0,4.22,5.09h0A13.15,13.15,0,0,1,27,57.5a10.88,10.88,0,0,1,2.14-6.43,11.11,11.11,0,0,1,4.2-3.19,14.43,14.43,0,0,1,4-1.17c3-.54,6-1.24,9-1.78a64.45,64.45,0,0,0,10.09-2.69,9.57,9.57,0,0,1-1.64,2.32c-2.11,2.22-4.52,2.53-8.39,3.63-4.68,1.32-7,2-9,3.5-1,.74-4,3.11-4.55,7-.79,5.71,4.37,9.86,4.71,10.13A26,26,0,0,0,65.41,29.43Z"/></g></g></g></svg>