<svg width="24" height="24" viewBox="0 0 24 24" fill="none" xmlns="http://www.w3.org/2000/svg">
<path d="M12 24C18.6274 24 24 18.6274 24 12C24 5.37258 18.6274 0 12 0C5.37258 0 0 5.37258 0 12C0 18.6274 5.37258 24 12 24Z" fill="#F5F5F5"/>
<path d="M23.5 12C23.5 18.3513 18.3513 23.5 12 23.5C5.64873 23.5 0.5 18.3513 0.5 12C0.5 5.64873 5.64873 0.5 12 0.5C18.3513 0.5 23.5 5.64873 23.5 12Z" stroke="black" stroke-opacity="0.097"/>
<path d="M21.8 12C21.8 17.4124 17.4124 21.8 12 21.8C6.58761 21.8 2.2 17.4124 2.2 12C2.2 6.58761 6.58761 2.2 12 2.2C17.4124 2.2 21.8 6.58761 21.8 12Z" stroke="#015590" stroke-width="0.4"/>
<path d="M12.0077 13.6166C12.01 13.0064 12.0181 12.3959 12.01 11.7857C12.0081 11.6326 12.0563 11.5554 12.194 11.4945C13.1038 11.0934 14.0102 10.6853 14.9178 10.2792C15.9692 9.80901 17.0202 9.33807 18.072 8.8683C18.3003 8.76648 18.3184 8.77959 18.3678 9.02836C18.649 10.44 18.507 11.8254 18.1179 13.197C17.714 14.6202 17.0676 15.9072 16.034 16.9852C15.0084 18.0552 13.773 18.7614 12.3471 19.1444C12.238 19.1737 12.1338 19.24 12.0123 19.2061C12.0146 17.8164 12.0181 16.4268 12.0185 15.0371C12.0189 14.5639 12.0115 14.0902 12.0077 13.6166Z" fill="#00BFF7"/>
<path d="M5.64606 9.91205C5.64991 9.88775 5.65339 9.86384 5.65724 9.83954C5.77218 9.78362 5.76331 9.66868 5.76909 9.57264C5.79262 9.17923 5.9064 8.80935 6.03522 8.4414C6.06878 8.34575 6.10079 8.33186 6.18217 8.39473C6.37502 8.54361 6.60489 8.63347 6.79851 8.7839C6.89301 8.85718 7.0091 8.90732 7.13831 8.89806L7.13368 8.89459C7.14988 8.94357 7.18999 8.95244 7.23396 8.95437C7.76468 9.26486 8.29694 9.57303 8.82611 9.8866C9.73057 10.4219 10.6323 10.9619 11.5379 11.4957C11.6324 11.5513 11.6683 11.6068 11.6675 11.721C11.656 14.1354 11.6502 16.5495 11.6428 18.9639C11.6428 18.9898 11.6405 19.0156 11.6428 19.0411C11.6552 19.173 11.6274 19.2204 11.4754 19.171C10.5548 18.8694 9.72092 18.417 9.00507 17.7613C7.96601 16.8094 7.08393 15.7337 6.4483 14.4683C6.43442 14.4405 6.42825 14.4093 6.4186 14.3796C6.4294 14.3136 6.40665 14.2546 6.38929 14.1921C6.3056 13.8886 6.14129 13.6178 6.04641 13.317C5.72127 12.2895 5.57509 11.2454 5.69195 10.1693C5.70083 10.0821 5.7178 9.98726 5.64606 9.91205Z" fill="#015590"/>
<path d="M18.0476 8.41395C18.0392 8.49726 17.9728 8.50305 17.9235 8.52542C17.0981 8.8953 16.2719 9.26364 15.4469 9.6339C14.5521 10.0354 13.6584 10.4396 12.7636 10.8411C12.506 10.9568 12.2433 11.0614 11.9895 11.184C11.8885 11.2326 11.8144 11.2245 11.7226 11.1694C11.1021 10.796 10.4792 10.4265 9.85664 10.0574C8.74314 9.39709 7.62887 8.73755 6.51498 8.07763C6.48181 8.05795 6.45019 8.03558 6.41702 8.0163C6.30169 7.94957 6.2963 7.88555 6.40699 7.80108C6.90299 7.42272 7.42947 7.0941 7.99798 6.83646C9.02856 6.36938 10.1124 6.08513 11.2324 5.95322C12.2676 5.83134 13.2913 5.91465 14.3029 6.18502C15.4442 6.4901 16.4555 7.03432 17.3665 7.77447C17.5848 7.95189 17.7834 8.15361 17.9902 8.34491C18.0133 8.36574 18.0307 8.39312 18.0476 8.41395Z" fill="#8BDDFA"/>
<path d="M16.1539 19.9073C15.8314 20.1402 15.4751 20.2887 15.1125 20.421C13.7448 20.9201 12.3336 21.1041 10.888 20.9433C9.50914 20.7901 8.23018 20.3319 7.05573 19.5887C6.13084 19.0032 5.32358 18.2893 4.6679 17.4088C3.83094 16.2845 3.31488 15.0286 3.11586 13.6417C3.08231 13.4068 3.1309 13.1854 3.19416 12.9605C3.4113 12.1872 3.68283 11.4336 4.03999 10.7154C4.38673 10.0181 4.80135 9.36085 5.33438 8.78578C5.36408 8.75377 5.39879 8.72561 5.44623 8.68164C5.48094 8.77266 5.47439 8.84942 5.45587 8.9281C5.17123 10.133 5.14037 11.3422 5.40265 12.5552C5.61054 13.5171 5.98042 14.4142 6.47989 15.2608C7.01138 16.1614 7.67207 16.9583 8.42032 17.6841C8.73582 17.9904 9.04438 18.3032 9.41426 18.5512C10.0684 18.9901 10.7781 19.2979 11.5205 19.5552C12.656 19.9482 13.8185 20.0766 15.0099 20.0157C15.3177 19.9999 15.6212 19.9551 15.9256 19.9092C16 19.8976 16.0775 19.9073 16.1539 19.9073Z" fill="#00BFF7"/>
<path d="M12.7887 3.06176C12.8304 3.05906 12.8728 3.05444 12.9079 3.08491C12.9365 3.20254 13.0425 3.17593 13.1146 3.17979C13.3414 3.19136 13.5539 3.34718 13.7904 3.24728C14.244 3.34101 14.6906 3.47137 15.0971 3.68775C15.4369 3.86864 15.6949 4.16909 15.9576 4.45027C16.6985 5.24441 17.2825 6.1454 17.7399 7.12853C17.8028 7.26352 17.8359 7.41202 17.883 7.55434C17.8745 7.59908 17.8506 7.63032 17.8047 7.64151C17.4013 7.32562 17.0013 7.00588 16.5597 6.74207C14.8915 5.74504 13.093 5.37053 11.165 5.58999C9.75331 5.75083 8.41302 6.14578 7.17109 6.83849C5.56891 7.73253 4.45155 9.07668 3.65933 10.7097C3.42985 11.1826 3.23121 11.6689 3.07385 12.1711C3.06691 12.1927 3.05225 12.212 3.016 12.2776C2.98475 11.8224 3.0025 11.4163 3.04145 11.0136C3.1722 9.65869 3.56098 8.38204 4.30113 7.23267C5.60748 5.20507 7.43606 3.87867 9.76064 3.23687C9.84048 3.21489 9.92456 3.20756 10.0063 3.19329C10.1961 3.26695 10.3801 3.19753 10.5629 3.16397C11.1372 3.05868 11.7126 3.02512 12.295 3.08568C12.4574 3.10265 12.6271 3.12386 12.7887 3.06176Z" fill="#015590"/>
<path d="M16.4116 4.37012C16.55 4.40097 16.6538 4.47927 16.7541 4.54908C17.3754 4.98337 17.974 5.44543 18.4974 5.99814C19.3787 6.92882 20.0355 7.99526 20.4691 9.2021C20.7572 10.0047 20.9022 10.8332 20.9739 11.681C21.0302 12.3451 20.9936 13.0024 20.8914 13.6561C20.763 14.4784 20.5057 15.2618 20.1405 16.0119C19.7231 16.8689 19.17 17.6276 18.4978 18.2968C18.0616 18.7311 17.6076 19.1503 16.9824 19.3139C16.4918 19.4423 15.9969 19.5376 15.4932 19.5985C14.6466 19.7011 13.8043 19.6753 12.9627 19.5515C12.9372 19.5476 12.9118 19.5426 12.8875 19.5349C12.8408 19.5198 12.7687 19.5291 12.7625 19.4666C12.7552 19.3895 12.835 19.386 12.8855 19.3706C13.4409 19.202 13.9601 18.9536 14.4669 18.674C14.9521 18.4063 15.3929 18.0812 15.8056 17.7128C16.1751 17.3831 16.5219 17.0298 16.8269 16.6414C17.2909 16.0505 17.6639 15.4041 17.969 14.7152C18.264 14.0484 18.4673 13.3537 18.6432 12.6506C18.7331 12.2919 18.7998 11.9224 18.8291 11.5541C18.8758 10.9667 18.9074 10.3777 18.8461 9.78604C18.7546 8.90589 18.5591 8.05427 18.2097 7.24084C17.7661 6.20834 17.1953 5.25452 16.4289 4.42566C16.4216 4.4164 16.4212 4.40213 16.4116 4.37012Z" fill="#8BDDFA"/>
<path d="M5.64606 9.91211C5.7178 9.98732 5.70083 10.0822 5.69157 10.1686C5.57432 11.2447 5.72089 12.2884 6.04603 13.3163C6.1413 13.6171 6.30522 13.8879 6.38891 14.1914C6.40627 14.2539 6.42902 14.3129 6.41822 14.3788C6.06223 13.7201 5.84238 13.0123 5.70623 12.2814C5.56005 11.4969 5.51994 10.7055 5.64606 9.91211Z" fill="#08598D"/>
<path d="M7.1375 8.89765C7.00829 8.9069 6.8922 8.85676 6.7977 8.78348C6.60409 8.63345 6.37421 8.54319 6.18136 8.39431C6.09998 8.33145 6.06797 8.34572 6.03441 8.44098C5.90598 8.80894 5.79181 9.17882 5.76828 9.57223C5.7625 9.66865 5.77137 9.7832 5.65643 9.83913C5.69115 9.31767 5.84041 8.82128 5.98466 8.32373C6.00934 8.23811 6.0483 8.23232 6.1239 8.27938C6.45984 8.4892 6.79963 8.69246 7.1375 8.89765Z" fill="#08598D"/>
<path d="M12.7887 3.06107C12.6271 3.12317 12.4574 3.10195 12.2954 3.08537C11.713 3.02481 11.1376 3.05837 10.5633 3.16366C10.3808 3.19722 10.1965 3.26626 10.0067 3.19298C10.6493 3.02289 11.3061 2.98972 11.9657 3.00244C12.2403 3.00746 12.5145 3.04063 12.7887 3.06107Z" fill="#08598D"/>
<path d="M13.7907 3.24636C13.5539 3.34626 13.3414 3.19044 13.115 3.17887C13.0429 3.17501 12.9368 3.20162 12.9083 3.08398C13.2072 3.11137 13.5018 3.16112 13.7907 3.24636Z" fill="#08598D"/>
<path d="M17.8046 7.64088C17.8505 7.62969 17.8741 7.59845 17.8829 7.55371C17.9921 7.61195 17.9882 7.72959 18.063 7.86921C17.9342 7.78513 17.8629 7.7211 17.8046 7.64088Z" fill="#08598D"/>
<path d="M7.23315 8.95431C7.18918 8.95239 7.14907 8.94313 7.13287 8.89453C7.17376 8.90186 7.21194 8.91382 7.23315 8.95431Z" fill="#08598D"/>
</svg>
