<svg width="256" height="256" viewBox="0 0 256 256" fill="none" xmlns="http://www.w3.org/2000/svg">
<g clip-path="url(#clip0_237_2)">
<path d="M127.879 255.886C198.498 255.886 255.745 198.639 255.745 128.021C255.745 57.4023 198.498 0.154907 127.879 0.154907C57.2611 0.154907 0.0137939 57.4023 0.0137939 128.021C0.0137939 198.639 57.2611 255.886 127.879 255.886Z" fill="#FFE908"/>
<path fill-rule="evenodd" clip-rule="evenodd" d="M127.879 0.154907C198.497 0.154907 255.745 57.4023 255.745 128.021C255.745 198.639 198.497 255.886 127.879 255.886C203.039 202.404 182.181 55.4781 127.879 0.154907Z" fill="url(#paint0_linear_237_2)"/>
<path fill-rule="evenodd" clip-rule="evenodd" d="M190.882 239.313C172.287 249.863 150.786 255.886 127.88 255.886C89.3165 255.886 54.74 238.815 31.2966 211.817C120.554 106.757 128.058 123.775 190.882 239.313Z" fill="url(#paint1_linear_237_2)"/>
<path fill-rule="evenodd" clip-rule="evenodd" d="M0.0137939 128.021C0.0137939 75.6749 31.4686 30.6756 76.5074 10.8934C169.084 137.837 139.109 171.261 0.0137939 128.021Z" fill="#FFFCDB"/>
<path fill-rule="evenodd" clip-rule="evenodd" d="M10.9128 179.757C3.90641 163.939 0.0137939 146.434 0.0137939 128.02C0.0137939 116.959 1.41843 106.225 4.05904 95.9884C99.6176 110.962 140.133 121.715 10.9128 179.757Z" fill="#FFF369"/>
<path d="M127.88 207.124C171.567 207.124 206.983 171.708 206.983 128.02C206.983 84.3329 171.567 48.9169 127.88 48.9169C84.1916 48.9169 48.7759 84.3329 48.7759 128.02C48.7759 171.708 84.1916 207.124 127.88 207.124Z" fill="#FFE908"/>
<path d="M47.266 76.9642H32.7864V91.4435H47.266V76.9642Z" fill="black"/>
<path d="M47.266 92.8541H32.7864V107.333H47.266V92.8541Z" fill="black"/>
<path d="M47.266 108.744H32.7864V123.223H47.266V108.744Z" fill="black"/>
<path d="M63.1559 108.744H48.6763V123.223H63.1559V108.744Z" fill="black"/>
<path d="M79.0455 108.744H64.5662V123.223H79.0455V108.744Z" fill="black"/>
<path d="M47.266 124.634H32.7864V139.113H47.266V124.634Z" fill="black"/>
<path d="M47.266 140.523H32.7864V155.003H47.266V140.523Z" fill="black"/>
<path d="M63.1559 76.9642H48.6763V91.4435H63.1559V76.9642Z" fill="black"/>
<path d="M79.0455 76.9642H64.5662V91.4435H79.0455V76.9642Z" fill="black"/>
<path d="M79.0455 92.8541H64.5662V107.333H79.0455V92.8541Z" fill="black"/>
<path d="M188.921 76.9642H174.442V91.4435H188.921V76.9642Z" fill="black"/>
<path d="M204.811 76.9642H190.332V91.4435H204.811V76.9642Z" fill="black"/>
<path d="M220.701 76.9642H206.221V91.4435H220.701V76.9642Z" fill="black"/>
<path d="M188.921 92.8541H174.442V107.333H188.921V92.8541Z" fill="black"/>
<path d="M188.921 108.744H174.442V123.223H188.921V108.744Z" fill="black"/>
<path d="M204.811 108.744H190.332V123.223H204.811V108.744Z" fill="black"/>
<path d="M188.921 124.634H174.442V139.113H188.921V124.634Z" fill="black"/>
<path d="M188.921 140.523H174.442V155.003H188.921V140.523Z" fill="black"/>
<path d="M204.811 140.523H190.332V155.003H204.811V140.523Z" fill="black"/>
<path d="M220.701 140.523H206.221V155.003H220.701V140.523Z" fill="black"/>
<path fill-rule="evenodd" clip-rule="evenodd" d="M125.743 18.3364C146.229 18.3364 162.837 36.6819 162.837 59.3114C162.837 61.3967 162.696 63.4454 162.424 65.4464C161.906 69.261 168.598 68.5001 159.509 76.2977C153.665 90.4497 140.744 100.286 125.743 100.286C110.377 100.286 97.2241 90.1332 91.6029 75.4737C89.9095 74.2721 89.0052 72.2834 87.3383 69.4961C86.855 66.8578 88.6489 62.1072 88.6489 59.3114C88.6489 36.6819 105.256 18.3364 125.743 18.3364Z" fill="black"/>
<path fill-rule="evenodd" clip-rule="evenodd" d="M69.8993 41.3063C71.8943 39.6445 81.91 36.3729 92.2127 39.4404C102.553 42.5191 100.648 52.4315 93.939 56.8577C92.4616 57.8325 86.4557 60.1145 85.469 57.2735C83.4337 51.4142 68.1155 45.7699 69.8993 41.3063Z" fill="#DEC400"/>
<path fill-rule="evenodd" clip-rule="evenodd" d="M83.0129 38.178C86.9171 38.4243 89.0439 38.497 92.2125 39.4404C102.553 42.5188 100.648 52.4315 93.9388 56.8578C92.4614 57.8325 83.866 59.8186 85.4688 57.2735C87.4649 54.1033 90.8877 46.698 83.0129 38.178Z" fill="#706419"/>
<path fill-rule="evenodd" clip-rule="evenodd" d="M77.5812 39.7654C80.7245 40.4159 88.5284 46.2535 86.2162 51.3291C85.3239 53.2872 84.8742 54.1264 81.7738 55.3643C65.0185 62.0553 62.2357 36.5901 77.5812 39.7654Z" fill="#706419"/>
<path fill-rule="evenodd" clip-rule="evenodd" d="M176.166 41.6403C174.171 39.9785 164.155 36.7069 153.853 39.7744C143.512 42.8531 145.417 52.7655 152.126 57.1917C153.604 58.1665 159.609 60.4484 160.596 57.6074C162.632 51.7482 177.95 46.1039 176.166 41.6403Z" fill="#DEC400"/>
<path fill-rule="evenodd" clip-rule="evenodd" d="M163.052 38.512C159.148 38.7583 157.021 38.831 153.853 39.7744C143.512 42.8528 145.417 52.7655 152.126 57.1918C153.604 58.1665 162.199 60.1525 160.596 57.6075C158.6 54.4373 155.177 47.032 163.052 38.512Z" fill="#706419"/>
<path fill-rule="evenodd" clip-rule="evenodd" d="M168.484 40.0994C165.341 40.7499 157.537 46.5875 159.849 51.6631C160.741 53.6211 161.191 54.4604 164.292 55.6982C181.047 62.3893 183.83 36.924 168.484 40.0994Z" fill="#706419"/>
<path fill-rule="evenodd" clip-rule="evenodd" d="M176.166 41.6403C174.171 39.9785 164.155 36.7069 153.853 39.7744C143.512 42.8531 145.417 52.7655 152.126 57.1917C153.604 58.1665 159.609 60.4484 160.596 57.6074C162.632 51.7482 177.95 46.1039 176.166 41.6403Z" fill="url(#paint2_linear_237_2)"/>
<path fill-rule="evenodd" clip-rule="evenodd" d="M58.2748 61.5143C60.4317 55.3453 61.5382 45.3915 71.842 45.3915C79.5623 45.3915 80.287 43.6208 83.7591 49.2748C90.1714 59.7163 96.1922 54.3265 96.2124 54.7467C96.3949 58.558 102.613 59.9861 102.981 61.7154C104.748 70.0197 116.552 74.799 123.171 78.9928C128.192 82.1745 133.933 82.8794 137.535 77.7344C140.994 72.7947 149.814 64.571 149.814 58.8281C149.814 55.0617 154.344 53.5327 156.88 51.2485C159.127 49.2244 159.548 58.4729 164.801 51.4795C168.268 46.8644 170.181 44.088 177.793 44.3104C181.208 44.4104 185.437 47.594 187.542 50.5425C189.503 53.2879 190.992 58.8632 191.202 62.3349C191.654 62.739 195.574 64.2974 197.95 69.6193C199.149 72.3062 189.188 73.3306 187.767 72.7828C186.546 72.3125 179.258 68.6416 179.22 68.6416C174.611 68.6416 174.159 75.5741 170.81 71.38C169.603 69.869 164.305 69.5163 162.435 71.3818C158.104 75.7044 136.082 84.705 129.598 87.4882C126.139 88.9731 112.66 94.6995 109.075 91.4931C99.3572 82.8 98.8523 86.0948 91.4995 73.269C89.3456 69.5119 80.7427 69.4126 79.4989 72.7731C78.4771 75.5323 74.9715 72.3611 70.0291 69.822C65.8518 67.6766 62.9966 67.643 59.8582 72.5726C58.3393 74.9576 54.1127 69.7999 54.4665 68.4039C54.6296 65.7069 57.2661 64.3993 58.2748 61.5143Z" fill="black"/>
<path fill-rule="evenodd" clip-rule="evenodd" d="M97.4685 45.0206C96.181 41.2727 88.7846 37.1734 90.2695 42.0004C90.9797 44.3082 92.2974 44.7519 92.1421 49.6569C92.0518 52.4998 94.2927 59.8805 99.2012 60.8844C99.2411 60.8926 99.5624 66.5376 100.413 68.2878C101.544 70.6142 120.105 86.9561 125.723 87.3087C132.349 87.7241 142.88 75.105 149.922 68.4587C151.685 66.7947 150.515 60.9612 150.989 59.8898C151.846 57.9527 156.877 54.5336 156.807 52.1684C156.777 51.1702 157.321 48.6326 158.518 46.3849C159.585 44.3817 161.023 42.6054 160.72 41.5709C159.836 38.5534 153.546 43.3939 151.918 43.3939C140.862 43.3939 119.291 28.1261 108.324 29.7337C104.531 30.2894 102.146 38.1045 99.9091 42.9461C99.8352 43.1065 97.4976 44.9989 97.4685 45.0206Z" fill="#FFE908"/>
<path fill-rule="evenodd" clip-rule="evenodd" d="M93.8732 51.7795C93.1937 49.8013 93.4799 46.0919 92.1298 44.0935C90.9222 42.306 89.5686 39.7217 90.2695 42.0004C90.9793 44.3077 92.2973 44.7518 92.1421 49.6572C92.0518 52.5001 94.2927 59.8804 99.2011 60.8843C99.241 60.8925 99.5623 66.5376 100.413 68.2878C101.544 70.6141 120.105 86.956 125.723 87.3086C132.349 87.724 142.88 75.105 149.922 68.4587C151.684 66.7947 150.516 60.9612 150.989 59.8898C151.846 57.9526 156.877 54.5335 156.807 52.1683C156.777 51.1705 157.321 48.6325 158.518 46.3848C159.585 44.3816 161.27 42.4974 160.72 41.5708C160.603 41.3719 160.524 42.3142 160.073 42.9669C159.028 44.4775 157.123 47.0405 156.248 48.9168C155.786 49.9061 155.651 51.5638 154.768 53.9708C154.033 55.977 151.233 56.4715 150.803 59.9275C150.603 61.5359 150.132 64.8284 148.976 66.8085C143.975 75.3766 129.407 84.2064 126.639 84.056C121.721 83.7888 109.448 71.6381 105.637 68.4695C99.4336 63.3125 101.473 62.5106 100.431 58.9184C100.399 58.8057 96.6601 57.2514 95.4104 54.9411C94.7909 53.7965 94.6289 53.1532 93.8732 51.7795Z" fill="#DEC400"/>
<path fill-rule="evenodd" clip-rule="evenodd" d="M97.4685 45.0206C96.9199 43.3095 95.7172 42.9289 95.6313 42.5427C95.4925 43.8555 95.5179 44.9082 96.5016 49.0162C96.574 49.3185 98.8131 51.1455 99.7773 52.0576C100.732 52.9599 99.3269 41.5605 106.538 36.3099C109.615 34.0689 112.798 34.413 120.797 34.9145C134.869 35.7964 138.945 41.9448 152.059 54.4933C153.589 55.9577 153.565 49.0494 154.68 46.9626C155.173 46.0393 156.319 46.0729 157.515 43.8257C158.582 41.8228 157.925 42.5875 157.622 41.5534C156.738 38.5359 153.546 43.3939 151.918 43.3939C140.862 43.3939 119.291 28.1261 108.324 29.7337C104.531 30.2894 102.146 38.1045 99.9091 42.9461C99.8352 43.1065 97.4976 44.9989 97.4685 45.0206Z" fill="#DEC400"/>
<path fill-rule="evenodd" clip-rule="evenodd" d="M108.045 52.3453C105.796 51.8714 103.988 55.43 104.783 56.1289C106.385 57.5362 114.543 60.1279 119.452 61.131C119.491 61.1389 107.741 66.2506 109.685 66.3286C119.237 66.7108 130.281 66.9481 139.843 66.5313C137.675 64.5016 135.962 61.8561 136.436 60.7854C137.292 58.8487 146.306 58.2113 146.166 55.8498C146.009 53.1928 145.637 53.5074 145.574 52.4994C135.07 54.1556 139.032 54.7717 127.132 54.9605C112.637 55.1904 112.345 53.2514 108.045 52.3453Z" fill="#DEC400"/>
<path fill-rule="evenodd" clip-rule="evenodd" d="M97.3357 48.8482C97.3357 44.5798 98.6045 27.826 98.9415 22.6884C99.5751 23.4971 102.911 24.5398 102.896 24.4924C102.83 24.28 103.183 19.356 103.385 18.3514C103.559 18.8384 104.22 19.2347 105.326 21.4036C106.035 17.8106 107.25 14.8468 107.648 14.3251C108.24 15.8421 108.336 16.0459 109.353 17.8173C109.657 18.3461 116.005 10.5926 119.582 7.30604C119.235 9.32195 118.457 14.9737 118.495 16.9228C119.863 15.4365 120.804 13.3918 122.87 10.9412C122.969 12.2865 122.599 16.1701 123.391 15.6436C124.288 15.0457 132.447 7.06011 133.019 6.45557C132.906 6.96981 132.293 13.184 132.34 13.8452C134.126 13.0873 143.025 10.6333 145.153 10.4482C143.686 11.5289 141.692 14.2759 145.364 12.3749C147.136 11.4573 146.839 11.6349 147.937 11.1304C147.136 12.1047 141.31 17.5207 149.934 13.7154C149.451 14.5651 147.276 17.5625 153.07 17.3147C154.865 17.2382 157.407 17.4505 157.977 17.5024C157.795 17.7166 153.615 21.2718 156.839 21.9059C157.998 22.1339 158.51 22.191 160.067 22.5903C157.075 23.8759 156.363 24.2326 156.602 24.4092C157.019 24.7174 161.449 25.9097 162.401 26.1463C160.495 26.4452 159.733 26.2702 156.037 27.1666C155.959 27.1856 157.518 28.2447 159.353 29.3612C158.978 29.3329 156.131 29.6598 155.026 30.2371C154.172 31.0271 158.09 35.3507 159.193 36.7143C154.514 35.3048 156.769 37.5626 159.137 42.6792C153.796 38.4317 157.52 43.4841 157.964 44.023C156.977 43.6028 151.857 41.116 154.912 45.3911C154.027 45.0511 152.839 44.7589 152.236 45.3903C151.663 45.9893 153.654 48.4676 154.113 49.2288C150.693 47.7052 152.991 50.8921 154.246 52.6546C151.956 51.5097 150.283 50.4152 147.042 48.6874C147.204 52.3583 147.343 56.8517 147.523 60.404C145.772 56.5614 140.659 43.4875 139.691 41.422C139.169 42.6583 138.375 47.9511 137.514 50.1916C135.937 48.4328 128.892 40.1502 125.348 36.608C127.959 41.5653 132.563 48.7187 133.011 50.0192C130.62 48.2694 114.231 35.4153 113.781 35.3287L104.488 38.1007L99.7774 52.0575L97.3357 48.8482Z" fill="black" stroke="black" stroke-width="1.11953" stroke-miterlimit="22.9256"/>
<path d="M96.3061 56.8298C97.3902 56.8298 98.2694 55.9506 98.2694 54.8665C98.2694 53.782 97.3902 52.9032 96.3061 52.9032C95.2216 52.9032 94.3428 53.782 94.3428 54.8665C94.3428 55.9506 95.2216 56.8298 96.3061 56.8298Z" fill="black" stroke="black" stroke-width="1.11953" stroke-miterlimit="22.9256"/>
<path d="M152.805 55.9338C153.889 55.9338 154.768 55.0549 154.768 53.9709C154.768 52.8864 153.889 52.0076 152.805 52.0076C151.721 52.0076 150.842 52.8864 150.842 53.9709C150.842 55.0549 151.721 55.9338 152.805 55.9338Z" fill="black" stroke="black" stroke-width="1.11953" stroke-miterlimit="22.9256"/>
<path fill-rule="evenodd" clip-rule="evenodd" d="M104.733 55.3374C105.366 55.6318 116.445 59.3677 119.452 61.131C119.344 61.2862 119.039 61.5426 118.819 61.7822C118.426 61.5004 118.26 61.3116 117.973 61.4989C117.698 61.6777 117.292 62.2214 117.288 62.4681C117.223 66.3801 110.376 65.4703 111.049 60.8791C111.376 58.6505 112.238 59.5405 108.076 57.9489C106.88 57.4918 105.307 57.069 104.886 56.9111C104.855 56.8999 104.805 56.6241 104.733 55.3374Z" fill="black" stroke="black" stroke-width="1.11953" stroke-miterlimit="22.9256"/>
<path fill-rule="evenodd" clip-rule="evenodd" d="M120.047 59.4353C117.184 57.7041 109.012 53.9067 107.337 52.5632C106.99 52.2852 107.236 51.9859 107.523 51.9721C108.881 51.9064 116.813 55.8845 119.364 57.8362C119.713 58.3195 119.888 58.7423 120.047 59.4353Z" fill="black" stroke="black" stroke-width="1.11953" stroke-miterlimit="22.9256"/>
<path fill-rule="evenodd" clip-rule="evenodd" d="M119.893 74.4442C128.653 77.8252 134.059 72.4749 135.747 71.093C131.568 79.7825 121.575 80.7031 119.893 74.4442Z" fill="black" stroke="black" stroke-width="1.11953" stroke-miterlimit="22.9256"/>
<path fill-rule="evenodd" clip-rule="evenodd" d="M146.17 55.7853C145.537 56.0797 134.457 59.8156 131.451 61.5789C131.559 61.7341 131.863 61.9905 132.084 62.2301C132.477 61.9483 132.642 61.7595 132.93 61.9468C133.205 62.1256 133.611 62.6693 133.615 62.916C133.68 66.828 140.527 65.9182 139.854 61.327C139.527 59.0984 138.664 59.9884 142.826 58.3968C144.023 57.9396 145.595 57.5168 146.017 57.359C146.047 57.3478 146.098 57.072 146.17 55.7853Z" fill="black" stroke="black" stroke-width="1.11953" stroke-miterlimit="22.9256"/>
<path fill-rule="evenodd" clip-rule="evenodd" d="M130.855 59.8831C133.719 58.1519 141.89 54.3544 143.566 53.011C143.913 52.733 143.666 52.4337 143.38 52.4199C142.021 52.3542 134.09 56.3323 131.538 58.284C131.189 58.7673 131.014 59.1901 130.855 59.8831Z" fill="black" stroke="black" stroke-width="1.11953" stroke-miterlimit="22.9256"/>
<path fill-rule="evenodd" clip-rule="evenodd" d="M59.9438 56.2834C61.2869 48.7769 66.0755 43.5382 73.957 43.0038C82.5125 42.4239 87.7762 53.1173 90.1713 59.7166C87.4888 55.9173 82.5275 48.0477 78.2747 46.2602C69.7692 42.6848 63.4831 49.209 59.9438 56.2834Z" fill="#FEFEFE"/>
<path fill-rule="evenodd" clip-rule="evenodd" d="M190.202 56.2271C188.859 48.7206 184.07 43.482 176.189 42.9476C167.633 42.3677 162.369 53.0611 159.974 59.6603C162.657 55.861 167.618 47.9914 171.871 46.2039C180.376 42.6285 186.663 49.1528 190.202 56.2271Z" fill="#FEFEFE"/>
<path fill-rule="evenodd" clip-rule="evenodd" d="M94.5852 69.4981C90.6822 70.6426 92.1021 76.6594 96.5257 78.485C102.152 80.8072 106.004 78.1659 105.866 75.7447C105.776 74.1613 102.996 73.0989 101.301 72.0973C98.395 70.3795 97.2542 68.7152 94.5852 69.4981Z" fill="#DEC400"/>
<path fill-rule="evenodd" clip-rule="evenodd" d="M59.9815 74.3139C59.6654 74.096 58.6806 72.2237 59.9072 70.1533C61.0171 68.2804 62.0015 64.7781 64.0088 63.8743C66.5423 62.7334 71.0548 63.3462 71.4728 66.3648C71.6791 67.8549 71.1003 69.1308 70.2726 70.5974C69.1953 72.5062 68.0153 74.6281 65.9647 75.4961C63.9323 76.3559 64.56 75.3741 62.3724 75.3431C62.0019 75.3379 60.5226 74.6867 59.9815 74.3139Z" fill="#FFE908"/>
<path fill-rule="evenodd" clip-rule="evenodd" d="M69.3555 64.1015C70.2198 63.8138 71.3554 65.4121 71.4729 66.3648C71.6573 67.8576 71.1005 69.1308 70.2728 70.5974C69.1954 72.5062 68.0155 74.6281 65.9648 75.4961C63.9325 76.3559 64.2049 76.5377 62.3726 75.3431C57.512 72.1756 66.1428 65.171 69.3555 64.1015Z" fill="#DEC400"/>
<path fill-rule="evenodd" clip-rule="evenodd" d="M49.1184 72.9895C48.5504 71.9065 50.0233 70.837 50.8812 70.0772C51.4238 69.5969 53.8335 68.0807 54.6455 67.8269C55.6829 67.5023 57.9929 67.7885 58.5422 68.8062C59.3304 70.2657 58.6307 72.4514 57.198 73.6007C55.1582 75.2371 52.1859 78.2076 49.8998 74.7957C49.6184 74.3758 49.0497 72.5189 49.1184 72.9895Z" fill="#FFE908"/>
<path fill-rule="evenodd" clip-rule="evenodd" d="M85.1644 71.7553C84.5554 71.6546 81.1863 65.7072 86.0705 63.0972C87.8759 62.1322 91.6652 62.6196 92.6268 64.5967C93.0821 65.5337 93.9807 69.4834 93.0937 70.2402C92.0745 71.1097 92.6429 70.8168 90.6792 71.7561C89.1578 72.4834 86.4489 72.7924 85.1644 71.7553Z" fill="#FFE908"/>
<path fill-rule="evenodd" clip-rule="evenodd" d="M89.829 67.2399C89.3693 66.8313 83.9478 64.4012 86.0704 63.0973C87.8143 62.0255 91.6651 62.6196 92.6268 64.5967C93.082 65.5338 93.9807 69.4835 93.0936 70.2403C92.0745 71.1098 92.6428 70.8172 90.6791 71.7561C89.1581 72.4835 91.1135 68.277 89.829 67.2399Z" fill="#DEC400"/>
<path fill-rule="evenodd" clip-rule="evenodd" d="M70.534 75.1364C69.6059 74.1919 69.4465 71.9644 69.8947 70.7639C71.2867 67.0377 71.9681 64.5415 76.3697 64.5415C78.1323 64.5415 79.6485 65.2718 80.509 66.6936C80.9811 67.4747 81.0509 69.1932 80.6986 70.0459C80.3478 70.8952 79.9564 71.8077 79.4988 72.7731C79.0047 73.8142 78.8099 74.686 77.6356 75.0465C74.8987 75.8865 73.4836 74.5255 70.534 75.1364Z" fill="#FFE908"/>
<path fill-rule="evenodd" clip-rule="evenodd" d="M70.5337 75.1364C69.606 74.1919 76.3612 72.4865 76.8094 71.2859C78.2014 67.5601 71.9682 64.5415 76.3698 64.5415C78.1323 64.5415 79.6485 65.2718 80.5087 66.6936C80.9812 67.4747 81.0509 69.1932 80.6987 70.0459C80.3475 70.8952 79.9564 71.8077 79.4989 72.7731C79.0048 73.8142 78.81 74.686 77.6356 75.0465C74.8987 75.8865 73.4836 74.5255 70.5337 75.1364Z" fill="#DEC400"/>
<path fill-rule="evenodd" clip-rule="evenodd" d="M58.1172 68.4931C59.6682 69.0805 58.8233 72.3111 57.1981 73.6008C55.1244 75.2465 51.6781 78.4976 49.8999 74.7957C49.8614 74.7155 55.1982 67.3874 58.1172 68.4931Z" fill="#DEC400"/>
<path d="M89.5209 73.5246C91.738 73.1638 93.3266 71.5852 93.0683 69.9985C92.8105 68.4121 90.8035 67.418 88.5865 67.7784C86.369 68.1389 84.7808 69.7178 85.0387 71.3042C85.2969 72.891 87.3035 73.8851 89.5209 73.5246Z" fill="#FFF9C9" stroke="#FFF9C9" stroke-width="1.11953" stroke-miterlimit="22.9256"/>
<path d="M74.1449 77.6079C76.5142 77.5254 78.3935 75.8681 78.3424 73.9067C78.2909 71.9449 76.3287 70.4219 73.9594 70.5044C71.5901 70.5873 69.7108 72.2445 69.7623 74.206C69.8134 76.1674 71.7756 77.6907 74.1449 77.6079Z" fill="#FFF9C9" stroke="#FFF9C9" stroke-width="1.27065" stroke-miterlimit="22.9256"/>
<path d="M63.5432 76.154C65.5677 76.082 67.1735 74.6441 67.1298 72.9421C67.0862 71.2396 65.4095 69.9178 63.385 69.9899C61.3601 70.0615 59.7543 71.4997 59.798 73.2018C59.842 74.9039 61.5187 76.2257 63.5432 76.154Z" fill="#FFF9C9" stroke="#FFF9C9" stroke-width="1.09416" stroke-miterlimit="22.9256"/>
<path d="M51.568 76.1663C53.0902 76.1088 54.2978 74.9583 54.265 73.597C54.2321 72.2353 52.9712 71.178 51.449 71.2355C49.9264 71.293 48.7188 72.4431 48.7516 73.8048C48.7845 75.1662 50.0454 76.2234 51.568 76.1663Z" fill="#FFF9C9" stroke="#FFF9C9" stroke-width="0.848633" stroke-miterlimit="22.9256"/>
<path fill-rule="evenodd" clip-rule="evenodd" d="M157.36 69.7216C161.263 70.8665 159.843 76.8832 155.42 78.7088C149.793 81.0311 145.941 78.3897 146.08 75.9686C146.17 74.3852 148.95 73.3227 150.644 72.3211C153.55 70.6034 154.691 68.939 157.36 69.7216Z" fill="#DEC400"/>
<path fill-rule="evenodd" clip-rule="evenodd" d="M191.964 74.5378C192.28 74.3199 193.265 72.4476 192.038 70.3773C190.928 68.5043 189.944 65.002 187.937 64.0982C185.403 62.957 180.891 63.5701 180.473 66.5888C180.266 68.0789 180.845 69.3548 181.673 70.821C182.75 72.7302 183.93 74.852 185.981 75.72C188.013 76.5799 187.385 75.598 189.573 75.567C189.944 75.5618 191.423 74.9103 191.964 74.5378Z" fill="#FFE908"/>
<path fill-rule="evenodd" clip-rule="evenodd" d="M182.59 64.3254C181.726 64.0373 180.59 65.6356 180.473 66.5887C180.289 68.081 180.845 69.3547 181.673 70.8209C182.75 72.7301 183.93 74.852 185.981 75.72C188.013 76.5798 187.741 76.7611 189.573 75.567C194.433 72.3991 185.803 65.3949 182.59 64.3254Z" fill="#DEC400"/>
<path fill-rule="evenodd" clip-rule="evenodd" d="M166.781 71.9793C167.39 71.8785 170.759 65.9312 165.875 63.3212C164.069 62.3561 160.28 62.8431 159.319 64.8206C158.863 65.7577 157.965 69.7074 158.852 70.4642C159.871 71.3337 159.302 71.0407 161.266 71.98C162.788 72.7074 165.496 73.0163 166.781 71.9793Z" fill="#FFE908"/>
<path fill-rule="evenodd" clip-rule="evenodd" d="M162.116 67.4639C162.576 67.0553 167.998 64.6251 165.875 63.3213C164.131 62.2495 160.28 62.8432 159.319 64.8207C158.863 65.7577 157.965 69.7074 158.852 70.4642C159.871 71.3338 159.302 71.0408 161.266 71.9797C162.787 72.7074 160.832 68.501 162.116 67.4639Z" fill="#DEC400"/>
<path fill-rule="evenodd" clip-rule="evenodd" d="M181.412 75.3603C182.34 74.4158 182.499 72.1883 182.051 70.9878C180.659 67.2616 179.978 64.765 175.576 64.765C173.814 64.765 172.297 65.4957 171.437 66.9175C170.964 67.6982 170.895 69.4167 171.247 70.2694C171.598 71.1187 171.989 72.0315 172.447 72.997C172.941 74.0381 173.136 74.9099 174.31 75.2703C177.047 76.1104 178.462 74.749 181.412 75.3603Z" fill="#FFE908"/>
<path fill-rule="evenodd" clip-rule="evenodd" d="M181.412 75.3603C182.34 74.4158 175.584 72.71 175.136 71.5098C173.744 67.784 179.978 64.765 175.576 64.765C173.814 64.765 172.297 65.4957 171.437 66.9175C170.964 67.6982 170.895 69.4167 171.247 70.2694C171.598 71.1187 171.989 72.0315 172.447 72.997C172.941 74.0381 173.136 74.9099 174.31 75.2703C177.047 76.1104 178.462 74.749 181.412 75.3603Z" fill="#DEC400"/>
<path d="M162.424 73.7485C160.207 73.388 158.618 71.8095 158.876 70.2227C159.135 68.636 161.141 67.6422 163.359 68.0027C165.576 68.3632 167.164 69.9417 166.906 71.5285C166.648 73.1152 164.641 74.1094 162.424 73.7485Z" fill="#FFF9C9" stroke="#FFF9C9" stroke-width="1.11953" stroke-miterlimit="22.9256"/>
<path d="M177.8 77.8322C175.43 77.7494 173.551 76.0925 173.603 74.1307C173.654 72.1692 175.616 70.6463 177.985 70.7288C180.354 70.8116 182.234 72.4685 182.183 74.4303C182.132 76.3918 180.169 77.9151 177.8 77.8322Z" fill="#FFF9C9" stroke="#FFF9C9" stroke-width="1.27065" stroke-miterlimit="22.9256"/>
<path d="M188.402 76.3769C186.377 76.3049 184.771 74.867 184.815 73.1649C184.859 71.4625 186.535 70.1411 188.56 70.2127C190.585 70.2844 192.19 71.7226 192.147 73.4247C192.103 75.1267 190.426 76.4485 188.402 76.3769Z" fill="#FFF9C9" stroke="#FFF9C9" stroke-width="1.09416" stroke-miterlimit="22.9256"/>
<path fill-rule="evenodd" clip-rule="evenodd" d="M201.312 70.1585C201.879 69.0755 200.407 68.006 199.549 67.2462C199.006 66.766 196.596 65.2497 195.784 64.996C194.747 64.6717 192.437 64.9575 191.888 65.9752C191.099 67.4347 191.799 69.6204 193.232 70.7698C195.272 72.4062 198.244 75.3766 200.53 71.9647C200.811 71.5449 201.38 69.6883 201.312 70.1585Z" fill="#FFE908"/>
<path fill-rule="evenodd" clip-rule="evenodd" d="M192.313 65.6622C190.762 66.2496 191.607 69.4802 193.232 70.7699C195.306 72.4156 198.752 75.6667 200.53 71.9648C200.569 71.8845 195.232 64.5565 192.313 65.6622Z" fill="#DEC400"/>
<path d="M198.863 73.3354C197.34 73.2779 196.133 72.1278 196.165 70.7661C196.198 69.4047 197.459 68.3475 198.982 68.4049C200.504 68.462 201.712 69.6126 201.679 70.9739C201.646 72.3356 200.385 73.3928 198.863 73.3354Z" fill="#FFF9C9" stroke="#FFF9C9" stroke-width="0.848633" stroke-miterlimit="22.9256"/>
<path d="M110.422 140.523H95.9426V155.003H110.422V140.523Z" fill="black"/>
<path d="M110.422 124.634H95.9426V139.113H110.422V124.634Z" fill="black"/>
<path d="M110.422 108.744H95.9426V123.223H110.422V108.744Z" fill="black"/>
<path d="M141.727 140.523H127.247V155.003H141.727V140.523Z" fill="black"/>
<path d="M157.616 140.523H143.137V155.003H157.616V140.523Z" fill="black"/>
<path d="M141.727 124.634H127.247V139.113H141.727V124.634Z" fill="black"/>
<path d="M141.727 108.744H127.247V123.223H141.727V108.744Z" fill="black"/>
<path d="M47.4466 176.883H41.4011V182.928H47.4466V176.883Z" fill="black"/>
<path d="M54.1973 176.883H48.1519V182.928H54.1973V176.883Z" fill="black"/>
<path d="M60.9481 176.883H54.9026V182.928H60.9481V176.883Z" fill="black"/>
<path d="M47.4466 183.634H41.4011V189.679H47.4466V183.634Z" fill="black"/>
<path d="M47.4466 190.385H41.4011V196.43H47.4466V190.385Z" fill="black"/>
<path d="M54.1973 190.385H48.1519V196.43H54.1973V190.385Z" fill="black"/>
<path d="M60.9481 190.385H54.9026V196.43H60.9481V190.385Z" fill="black"/>
<path d="M47.4466 197.135H41.4011V203.181H47.4466V197.135Z" fill="black"/>
<path d="M47.4466 203.886H41.4011V209.932H47.4466V203.886Z" fill="black"/>
<path d="M54.1973 203.886H48.1519V209.932H54.1973V203.886Z" fill="black"/>
<path d="M60.9481 203.886H54.9026V209.932H60.9481V203.886Z" fill="black"/>
<path d="M66.9937 183.634H60.9482V189.679H66.9937V183.634Z" fill="black"/>
<path d="M66.9937 197.135H60.9482V203.181H66.9937V197.135Z" fill="black"/>
<path d="M78.7226 176.883H72.6768V182.928H78.7226V176.883Z" fill="black"/>
<path d="M78.7226 183.634H72.6768V189.679H78.7226V183.634Z" fill="black"/>
<path d="M78.7226 190.385H72.6768V196.43H78.7226V190.385Z" fill="black"/>
<path d="M78.7226 197.135H72.6768V203.181H78.7226V197.135Z" fill="black"/>
<path d="M78.7226 203.886H72.6768V209.932H78.7226V203.886Z" fill="black"/>
<path d="M85.473 203.886H79.4275V209.932H85.473V203.886Z" fill="black"/>
<path d="M92.2241 203.886H86.1782V209.932H92.2241V203.886Z" fill="black"/>
<path d="M103.953 183.634H97.907V189.679H103.953V183.634Z" fill="black"/>
<path d="M103.953 190.385H97.907V196.43H103.953V190.385Z" fill="black"/>
<path d="M103.953 197.135H97.907V203.181H103.953V197.135Z" fill="black"/>
<path d="M103.953 176.884L103.953 182.929H109.999V176.884H103.953Z" fill="black"/>
<path d="M110.704 176.884V182.929H116.749V176.884H110.704Z" fill="black"/>
<path d="M103.953 203.886L103.953 209.932H109.999V203.886H103.953Z" fill="black"/>
<path d="M110.704 203.886V209.932H116.749V203.886H110.704Z" fill="black"/>
<path d="M122.795 183.634H116.749V189.679H122.795V183.634Z" fill="black"/>
<path d="M122.795 190.385H116.749V196.43H122.795V190.385Z" fill="black"/>
<path d="M122.795 197.135H116.749V203.181H122.795V197.135Z" fill="black"/>
<path d="M134.523 183.634H128.478V189.679H134.523V183.634Z" fill="black"/>
<path d="M134.523 190.385H128.478V196.43H134.523V190.385Z" fill="black"/>
<path d="M134.523 197.135H128.478V203.181H134.523V197.135Z" fill="black"/>
<path d="M134.523 176.884V182.929H140.569V176.884H134.523Z" fill="black"/>
<path d="M141.273 176.884V182.929H147.319V176.884H141.273Z" fill="black"/>
<path d="M134.523 203.886V209.932H140.569V203.886H134.523Z" fill="black"/>
<path d="M141.273 203.886V209.932H147.319V203.886H141.273Z" fill="black"/>
<path d="M159.048 176.883H153.003V182.928H159.048V176.883Z" fill="black"/>
<path d="M159.048 183.634H153.003V189.679H159.048V183.634Z" fill="black"/>
<path d="M159.048 190.385H153.003V196.43H159.048V190.385Z" fill="black"/>
<path d="M165.799 190.385H159.754V196.43H165.799V190.385Z" fill="black"/>
<path d="M159.048 197.135H153.003V203.181H159.048V197.135Z" fill="black"/>
<path d="M159.048 203.886H153.003V209.932H159.048V203.886Z" fill="black"/>
<path d="M171.775 197.135H165.73V203.181H171.775V197.135Z" fill="black"/>
<path d="M177.864 203.886H171.819V209.932H177.864V203.886Z" fill="black"/>
<path d="M171.845 183.386H165.799V189.431H171.845V183.386Z" fill="black"/>
<path d="M177.891 176.883H171.845V182.928H177.891V176.883Z" fill="black"/>
<path d="M190.444 203.886H184.398V209.932H190.444V203.886Z" fill="black"/>
<path d="M197.195 203.886H191.149V209.932H197.195V203.886Z" fill="black"/>
<path d="M203.945 203.886H197.9V209.932H203.945V203.886Z" fill="black"/>
<path d="M209.991 197.135H203.945V203.181H209.991V197.135Z" fill="black"/>
<path d="M197.195 190.243H191.149V196.289H197.195V190.243Z" fill="black"/>
<path d="M203.945 190.243H197.9V196.289H203.945V190.243Z" fill="black"/>
<path d="M191.149 183.493H185.104V189.538H191.149V183.493Z" fill="black"/>
<path d="M197.288 176.883H191.242V182.928H197.288V176.883Z" fill="black"/>
<path d="M204.039 176.883H197.993V182.928H204.039V176.883Z" fill="black"/>
<path d="M210.79 176.883H204.744V182.928H210.79V176.883Z" fill="black"/>
</g>
<defs>
<linearGradient id="paint0_linear_237_2" x1="264.842" y1="168.592" x2="118.782" y2="87.4487" gradientUnits="userSpaceOnUse">
<stop stop-color="#DEC400"/>
<stop offset="0.858824" stop-color="#EEE17F" stop-opacity="0.501961"/>
<stop offset="1" stop-color="#FEFEFE" stop-opacity="0"/>
</linearGradient>
<linearGradient id="paint1_linear_237_2" x1="180.134" y1="231.195" x2="42.0445" y2="166.693" gradientUnits="userSpaceOnUse">
<stop stop-color="#BDA704"/>
<stop offset="1" stop-color="#FFF47F"/>
</linearGradient>
<linearGradient id="paint2_linear_237_2" x1="146.596" y1="48.7471" x2="176.31" y2="48.7471" gradientUnits="userSpaceOnUse">
<stop stop-color="#2B2A29" stop-opacity="0"/>
<stop offset="0.34902" stop-color="#161515" stop-opacity="0.501961"/>
<stop offset="1"/>
</linearGradient>
<clipPath id="clip0_237_2">
<rect width="256" height="256" fill="white"/>
</clipPath>
</defs>
</svg>
