<svg width="40" height="40" viewBox="0 0 40 40" fill="none" xmlns="http://www.w3.org/2000/svg"><rect fill="#E8CB00" width="40" height="40" rx="12"/><g transform="translate(4 4)"><circle cx="16" cy="16" r="14" fill="#fff"/><svg width="32" height="32" viewBox="0 0 32 32" xmlns="http://www.w3.org/2000/svg"><path fill-rule="evenodd" clip-rule="evenodd" d="M0 16C0 7.163 7.163 0 16 0s16 7.163 16 16-7.163 16-16 16S0 24.837 0 16z" fill="#E8CB00"/><path d="M14.762 5.424c-.743.178-1.383.597-1.903 1.054 2.71.221 4.502.711 6.192 1.608a8.39 8.39 0 012.724 1.128c1.345.844 2.972 2.284 4.051 4.047.058-.134.131-.331.198-.59.142-.56.254-1.41.097-2.542-.072-.518-.241-.866-.463-1.118-.226-.256-.535-.443-.928-.586-.397-.144-.856-.236-1.368-.32l-.479-.074c-.366-.055-.75-.114-1.123-.188-1.483-.295-2.503-.74-3.681-1.548l-.006-.004-.005-.004c-1.303-.955-2.407-1.078-3.306-.863zM9.41 7.344c.557-.298 1.314-.472 2.365-.434-1.824 1.97-3.824 5.169-4.287 8.017-.452 2.777-.399 5.007 1.126 7.123.112.234.223.457.336.673.182.362.392.733.636 1.116a8.008 8.008 0 01-1.97-.696c-1.172-.605-2.22-1.58-2.277-3.156-.049-1.363.206-2.337.54-3.25.093-.255.197-.514.304-.781.267-.666.552-1.378.739-2.186.134-.58.239-1.193.34-1.784.052-.3.102-.596.155-.878.162-.862.35-1.64.658-2.29.303-.64.717-1.144 1.335-1.474zM15.233 26.66a7.319 7.319 0 01-4.584-2.186c1.497.17 3.531.207 5.04-.09l.04-.006.045-.012c.23-.048.449-.105.65-.17 2.693-.876 4.62-2.741 5.351-3.486 1.5-1.527 3.485-4.433 4.152-6.385.433.765.829 1.79.722 3.318-.03.441-.182.998-.64 1.577-.461.583-1.253 1.212-2.598 1.756l-.01.004-.011.005c-1.583.743-2.924 2.027-4.106 3.16-.168.16-.333.319-.495.472-.664.626-1.275 1.168-1.873 1.54-.595.37-1.142.55-1.683.502z" fill="#fff"/><path fill-rule="evenodd" clip-rule="evenodd" d="M10.44 23.49c-.262-.405-.49-.796-.71-1.217a8.83 8.83 0 01-.7-1.901c-.253-1.05-.288-2.077-.256-3.231.116-4.195 4.097-8.825 10.022-8.139a3.493 3.493 0 00.11.06c3.138 1.931 3.408 4.902 3.313 6.657-.176 3.23-2.332 6.607-6.638 7.728l-.033.006-.171.026h-.002c-.905.134-2.181.323-4.934.01zm10.605-7.59c.128 3.43-2.364 6.104-5.438 6.104S9.913 19.329 9.913 15.9c0-3.295 2.94-6.172 6.014-6.172 3.074 0 5.118 2.877 5.118 6.172z" fill="#fff"/><path d="M22.588 18.34c.372-.494.742-1.027 1.085-1.568.7-1.103 1.229-2.146 1.465-2.905-.94-1.576-2.39-2.91-3.636-3.728 1.534 1.96 1.68 4.21 1.603 5.634a9.168 9.168 0 01-.517 2.567zM16.517 8.053c-3.7.403-6.496 2.787-7.808 5.641.317-.972.79-1.976 1.356-2.94.762-1.299 1.662-2.476 2.497-3.349h.077c1.575.121 2.81.33 3.878.648z" fill="#fff"/></svg></g></svg>