<svg width="24" height="24" viewBox="0 0 24 24" fill="none" xmlns="http://www.w3.org/2000/svg">
<path d="M12 24C18.6274 24 24 18.6274 24 12C24 5.37258 18.6274 0 12 0C5.37258 0 0 5.37258 0 12C0 18.6274 5.37258 24 12 24Z" fill="#45302D"/>
<path d="M9.40405 19.6H8.28522V15.0998V14.4658V6H18.0066L17.7331 6.74589C17.7207 6.79561 17.298 7.93931 16.6889 9.13272C15.7814 10.9229 14.9733 11.8179 14.1529 11.9671C13.8048 12.0292 13.3075 11.9795 12.8351 11.4201C12.5119 11.0347 12.226 10.8607 11.9649 10.8856C11.1693 10.9726 10.1748 12.8124 9.62781 13.8442L9.59052 13.981H14.2896L13.7923 15.0998H9.40405V19.6ZM9.40405 7.11883V11.9671C10.1251 10.7737 10.9083 9.87861 11.853 9.77916C12.4995 9.717 13.121 10.0278 13.6929 10.7115C13.8421 10.8856 13.9167 10.8731 13.954 10.8731C14.5755 10.7612 15.6322 8.95868 16.3905 7.11883H9.40405Z" fill="#FDFEFD"/>
<path d="M23.5 12C23.5 18.3513 18.3513 23.5 12 23.5C5.64873 23.5 0.5 18.3513 0.5 12C0.5 5.64873 5.64873 0.5 12 0.5C18.3513 0.5 23.5 5.64873 23.5 12Z" stroke="black" stroke-opacity="0.097"/>
</svg>
