<svg width="24" height="24" viewBox="0 0 24 24" fill="none" xmlns="http://www.w3.org/2000/svg">
<path fill-rule="evenodd" clip-rule="evenodd" d="M0 12C0 5.37259 5.37259 0 12 0C18.6274 0 24 5.37259 24 12C24 18.6274 18.6274 24 12 24C5.37259 24 0 18.6274 0 12Z" fill="#E0E0E0"/>
<path d="M8.42955 19.5344C8.12909 19.534 7.84104 19.4145 7.62842 19.2022C7.4158 18.9899 7.29591 18.7021 7.29498 18.4016V16.0758L14.4587 11.3898L7.34407 6.75343V3.13126C7.34514 3.00801 7.39485 2.89018 7.48238 2.80342C7.56992 2.71665 7.68818 2.66796 7.81144 2.66797C7.90274 2.66835 7.99178 2.69646 8.06675 2.74859L19.5005 10.4498C19.6543 10.5532 19.7803 10.6927 19.8674 10.8563C19.9545 11.0198 20 11.2022 20 11.3875C20 11.5727 19.9545 11.7552 19.8674 11.9187C19.7803 12.0822 19.6543 12.2218 19.5005 12.3251L9.05758 19.3358C8.87363 19.4623 8.65569 19.5301 8.43246 19.5303L8.42955 19.5344Z" fill="url(#paint0_linear)"/>
<path d="M15.5185 21.3321C15.2945 21.3318 15.0759 21.2636 14.8916 21.1364L4.49948 14.1368C4.34573 14.0335 4.21977 13.8939 4.13267 13.7304C4.04556 13.5668 4 13.3844 4 13.1992C4 13.0139 4.04556 12.8315 4.13267 12.6679C4.21977 12.5044 4.34573 12.3648 4.49948 12.2615L15.9835 4.54976C16.0584 4.49795 16.1472 4.47005 16.2382 4.46973C16.3615 4.46972 16.4798 4.51841 16.5673 4.60517C16.6548 4.69194 16.7045 4.80977 16.7056 4.93301V8.51313L9.5419 13.1992L16.6548 17.8332V20.1999C16.6562 20.352 16.6263 20.5028 16.567 20.6429C16.5077 20.783 16.4203 20.9094 16.3101 21.0143C16.0968 21.2169 15.8144 21.3307 15.5202 21.3327L15.5185 21.3321Z" fill="url(#paint1_linear)"/>
<path d="M10.6174 13.9028L13.9352 16.0645L10.6414 18.2757L7.33588 16.0504L10.6174 13.9028Z" fill="#264FA1"/>
<path d="M13.382 10.6854L10.0642 8.52378L13.358 6.3125L16.6641 8.53779L13.382 10.6854Z" fill="#264FA1"/>
<path d="M23.5 12C23.5 18.3513 18.3513 23.5 12 23.5C5.64873 23.5 0.5 18.3513 0.5 12C0.5 5.64873 5.64873 0.5 12 0.5C18.3513 0.5 23.5 5.64873 23.5 12Z" stroke="#B5B0B0" stroke-opacity="0.3"/>
<defs>
<linearGradient id="paint0_linear" x1="13.6475" y1="4.57388" x2="13.6475" y2="18.2188" gradientUnits="userSpaceOnUse">
<stop offset="0.1" stop-color="#264FA1"/>
<stop offset="0.484" stop-color="#288EC3"/>
<stop offset="0.8" stop-color="#2BBEDE"/>
</linearGradient>
<linearGradient id="paint1_linear" x1="10.3528" y1="20.4221" x2="10.3528" y2="7.63996" gradientUnits="userSpaceOnUse">
<stop offset="0.1" stop-color="#264FA1"/>
<stop offset="0.484" stop-color="#288EC3"/>
<stop offset="0.8" stop-color="#2BBEDE"/>
</linearGradient>
</defs>
</svg>
