<svg width="480" height="480" viewBox="0 0 480 480" fill="none" xmlns="http://www.w3.org/2000/svg">
<mask id="mask0-891013" mask-type="alpha" maskUnits="userSpaceOnUse" x="0" y="0" width="480" height="480">
<circle cx="240" cy="240" r="240" fill="url(#paint0_linear-420583)"/>
</mask>
<g mask="url(#mask0-891013)">
<circle cx="240" cy="240" r="240" fill="#31D8A4"/>
<circle cx="240" cy="240" r="208" fill="white"/>
</g>
<circle cx="240" cy="240" r="184" fill="#0E052F"/>
<path d="M240 424C341.62 424 424 341.62 424 240C424 138.38 341.62 56 240 56C138.38 56 56 138.38 56 240C56 341.62 138.38 424 240 424Z" fill="#BFBBBB"/>
<path fill-rule="evenodd" clip-rule="evenodd" d="M175.911 276.961L159.5 283.332L167.412 251.604L184.018 244.934L207.95 148H266.933L249.464 219.254L265.679 212.688L257.859 244.312L241.449 250.879L231.697 290.934H320.5L310.461 332H162.398L175.911 276.961Z" fill="white"/>
<defs>
<linearGradient id="paint0_linear-420583" x1="240" y1="0" x2="240" y2="701.818" gradientUnits="userSpaceOnUse">
<stop stop-color="#08021E"/>
<stop offset="1" stop-color="#1F0777"/>
</linearGradient>
</defs>
</svg>