<svg width="24" height="24" viewBox="0 0 24 24" fill="none" xmlns="http://www.w3.org/2000/svg">
<path d="M12 24C18.6274 24 24 18.6274 24 12C24 5.37258 18.6274 0 12 0C5.37258 0 0 5.37258 0 12C0 18.6274 5.37258 24 12 24Z" fill="#EE7BAA"/>
<path d="M5.73542 20.2339C5.73542 20.1692 5.6892 20.13 5.65686 20.0837C5.24093 19.4801 4.95018 18.7992 4.80176 18.0813C4.65334 17.3634 4.65026 16.6231 4.79271 15.904C4.96116 14.8568 5.21777 13.8257 5.55981 12.8217C5.57566 12.7435 5.56509 12.6622 5.52978 12.5906C5.20483 11.4239 4.98826 10.2297 4.88282 9.02313C4.82761 8.49224 4.85489 7.95601 4.96369 7.43347C5.17164 6.58318 5.76314 6.25508 6.58108 6.54621C7.2211 6.80366 7.80611 7.18087 8.30475 7.65759C8.47573 7.80778 8.63978 7.9672 8.80152 8.1197C8.80893 8.13041 8.81858 8.13938 8.8298 8.146C8.84101 8.15262 8.85353 8.15673 8.86649 8.15805C8.87944 8.15937 8.89253 8.15786 8.90485 8.15363C8.91717 8.14941 8.92842 8.14256 8.93784 8.13356C9.6001 7.7118 10.3472 7.44121 11.1259 7.34104C12.1272 7.22956 13.1394 7.40842 14.0419 7.8563C14.2729 7.9672 14.2729 7.9672 14.4393 7.77081C14.973 7.14927 15.5368 6.56239 16.2877 6.19039C16.471 6.10336 16.6653 6.04194 16.8653 6.00786C16.9478 6.01259 17.0305 6.01027 17.1126 6.00092C17.2465 5.99367 17.3792 6.02928 17.4915 6.10259C17.6574 6.19387 17.7973 6.32586 17.8982 6.48614C17.8982 6.48614 17.8982 6.51156 17.9166 6.52311C17.9207 6.53137 17.9228 6.54046 17.9228 6.54968C17.9228 6.55889 17.9207 6.56799 17.9166 6.57625C18.1797 7.11779 18.3231 7.7096 18.3372 8.31148C18.3994 9.60012 18.3274 10.8917 18.1223 12.1655C18.1202 12.3133 18.1629 12.4583 18.2447 12.5814C18.7622 13.672 19.1574 14.8165 19.4231 15.9941C19.5746 16.7041 19.5766 17.4379 19.429 18.1487C19.2814 18.8596 18.9875 19.532 18.5659 20.123C18.5497 20.1461 18.5174 20.1646 18.5313 20.1993C18.5313 20.1993 18.5313 20.227 18.5105 20.2362C18.5076 20.2404 18.5038 20.2438 18.4994 20.2462C18.495 20.2486 18.4901 20.2499 18.485 20.2501C18.2329 20.582 17.9522 20.8912 17.6463 21.1743C17.045 21.7048 16.3521 22.1213 15.6015 22.4035C14.5999 22.7615 13.5478 22.958 12.4845 22.9858C11.5931 23.0322 10.6994 22.9647 9.82509 22.7848C9.6726 22.7524 9.52472 22.697 9.36298 22.6623C7.93156 22.3158 6.6673 21.4776 5.79087 20.294C5.77701 20.294 5.77701 20.264 5.76314 20.2547C5.76314 20.2409 5.73542 20.2547 5.72848 20.2316L5.73542 20.2339Z" fill="#292B5E"/>
<path d="M18.4989 20.2363C18.4828 20.2109 18.4989 20.2016 18.5197 20.1993C18.5405 20.197 18.5267 20.234 18.4989 20.2363Z" fill="#EE7BAA"/>
<path d="M5.73313 20.2341C5.76085 20.2156 5.76316 20.2341 5.76778 20.2572C5.7724 20.2803 5.73081 20.2641 5.73313 20.2341Z" fill="#EE7BAA"/>
<path d="M5.76547 20.2524L5.79319 20.2917C5.76547 20.2963 5.74698 20.2894 5.76547 20.2524Z" fill="#EE7BAA"/>
<path d="M18.4758 20.2531L18.5021 20.2388C18.4997 20.2531 18.4997 20.2674 18.4758 20.2531Z" fill="#EE7BAA"/>
<path d="M18.3996 13.9744C18.5418 14.315 18.6638 14.6637 18.7646 15.0188C18.8432 15.266 18.9079 15.5178 18.9795 15.7697C18.9795 15.7697 18.9795 15.7836 18.9795 15.7928L19.0049 15.9129C18.9818 15.9291 18.9518 15.9361 18.9587 15.9753C18.9634 16.0658 18.9493 16.1563 18.9171 16.241C18.6969 17.1645 18.2507 18.0188 17.6186 18.7272C17.2418 19.1572 16.8043 19.53 16.3201 19.834C15.6598 20.2454 14.9384 20.5495 14.1828 20.7351C13.6828 20.8576 13.1747 20.9448 12.6625 20.9962C12.4568 21.0193 12.2512 21.0262 12.0456 21.0424C11.7544 21.0655 11.4633 21.0585 11.1722 21.0424C10.6931 21.0384 10.2154 20.9928 9.74425 20.906C9.26235 20.8254 8.78951 20.6977 8.3325 20.5248C7.73084 20.2855 7.1721 19.9499 6.67815 19.5313C6.16475 19.0938 5.7309 18.5709 5.39579 17.9855C5.25738 17.7718 5.15294 17.538 5.08618 17.2923C5.06157 16.9869 5.06543 16.6798 5.09773 16.3751C5.11455 16.1159 5.15241 15.8586 5.21095 15.6056C5.29875 15.2498 5.36344 14.8871 5.442 14.5266C5.442 14.5104 5.4628 14.4989 5.47435 14.485C5.77544 14.4729 6.07438 14.5406 6.34081 14.6814C6.70145 14.8694 7.03684 15.1023 7.33896 15.3746C7.49839 15.5086 7.65089 15.6472 7.81263 15.7743C7.86519 15.8251 7.92903 15.8626 7.99892 15.8839C8.0688 15.9052 8.14274 15.9096 8.21466 15.8968C8.31578 15.8722 8.4074 15.8183 8.47807 15.742C8.65002 15.5673 8.80335 15.3753 8.93556 15.1689C9.17911 14.7766 9.46334 14.4111 9.78353 14.0784C10.0521 13.8153 10.3649 13.6018 10.7077 13.4476C11.1051 13.2616 11.5399 13.1691 11.9786 13.1773C12.3771 13.191 12.7693 13.2812 13.1338 13.443C13.654 13.6757 14.1157 14.0214 14.4855 14.455C14.7166 14.7253 14.9476 15.0165 15.1972 15.2822C15.283 15.3695 15.3783 15.447 15.4813 15.5132C15.5644 15.574 15.6669 15.6023 15.7694 15.593C15.8719 15.5836 15.9675 15.5372 16.0382 15.4624C16.1699 15.3399 16.2947 15.2128 16.4171 15.0811C16.666 14.8072 16.9416 14.5588 17.2397 14.3395C17.5403 14.1185 17.8961 13.985 18.2679 13.9536C18.3129 13.9474 18.3587 13.9547 18.3996 13.9744Z" fill="#FBFDFC"/>
<path d="M18.3996 13.9746C18.0041 13.994 17.6221 14.1246 17.2975 14.3513C16.9499 14.6111 16.6288 14.9044 16.3386 15.227C16.2762 15.2894 16.2161 15.354 16.1537 15.4141C15.858 15.7029 15.6223 15.7076 15.3173 15.428C15.0226 15.125 14.7434 14.8073 14.4809 14.476C14.1939 14.121 13.8396 13.8262 13.4383 13.6085C13.037 13.3908 12.5967 13.2546 12.1426 13.2075C11.3904 13.1502 10.6452 13.3862 10.0631 13.866C9.60542 14.2625 9.21524 14.7307 8.90785 15.2524C8.80443 15.4131 8.68936 15.566 8.56358 15.7099C8.27707 16.0195 8.0437 16.0218 7.72253 15.7468C7.34922 15.403 6.94553 15.0937 6.51643 14.8226C6.22852 14.641 5.89961 14.5345 5.55986 14.513C5.53397 14.5075 5.50905 14.4982 5.48592 14.4853C5.52724 14.1859 5.60483 13.8926 5.71698 13.6119C5.92814 13.0968 5.94862 12.5233 5.77474 11.9945C5.42684 10.7926 5.24494 9.5488 5.23407 8.29762C5.23407 8.26527 5.23407 8.23523 5.23407 8.2052C5.23916 8.20149 5.24329 8.19662 5.2461 8.19099C5.24892 8.18536 5.25034 8.17914 5.25024 8.17285C5.26842 7.99722 5.33212 7.82939 5.43505 7.68593C5.53798 7.54248 5.67657 7.42838 5.83712 7.35491C6.08088 7.26024 6.35123 7.26024 6.59499 7.35491C6.99535 7.49779 7.36759 7.70972 7.69481 7.98107C8.0102 8.22838 8.30963 8.4954 8.5913 8.78052C8.6999 8.88912 8.80618 9.00003 8.90785 9.11786C8.97485 9.19873 8.9841 9.19873 9.0719 9.13866C9.49185 8.83864 9.95142 8.59836 10.4374 8.4247C10.602 8.36167 10.7722 8.31447 10.9458 8.28375C11.0289 8.26989 11.0636 8.29531 11.0659 8.37387C11.0611 8.50195 11.1012 8.62769 11.1792 8.72937C11.2573 8.83104 11.3684 8.90226 11.4934 8.93071C11.8321 9.04516 12.199 9.04516 12.5377 8.93071C12.7105 8.88449 12.8692 8.7964 12.9998 8.67424C13.0655 8.60941 13.1153 8.53035 13.1454 8.44318C13.1731 8.35538 13.2009 8.33921 13.2933 8.35307C13.4293 8.38353 13.5623 8.42606 13.6907 8.48015C13.9376 8.57358 14.1764 8.68718 14.4047 8.8198C14.4164 8.82984 14.4303 8.83706 14.4453 8.84091C14.4603 8.84476 14.476 8.84514 14.4911 8.84202C14.5063 8.8389 14.5205 8.83236 14.5328 8.82291C14.545 8.81345 14.5549 8.80133 14.5618 8.78745C14.8958 8.32833 15.2684 7.89855 15.6755 7.50279C15.9831 7.18737 16.3456 6.93057 16.7452 6.74493C16.9601 6.63934 17.2043 6.60922 17.4384 6.65944C17.4569 6.65944 17.4708 6.68023 17.4916 6.67792C17.4916 6.67792 17.4916 6.69409 17.51 6.69178V6.71027C17.5116 6.71702 17.515 6.72321 17.5199 6.72811C17.5248 6.73301 17.531 6.73644 17.5378 6.73799C17.7188 6.97152 17.8315 7.25064 17.8635 7.54438C18.0001 8.35871 18.0343 9.18693 17.9652 10.0097C17.9276 10.7688 17.8504 11.5254 17.7342 12.2764C17.7271 12.3756 17.7522 12.4745 17.8058 12.5583C18.0332 13.0175 18.2316 13.4905 18.3996 13.9746Z" fill="#F6A52B"/>
<path d="M5.08157 17.281C5.18555 17.4889 5.28259 17.6992 5.3935 17.9025C5.68353 18.4334 6.05636 18.9147 6.49794 19.3281C7.10377 19.8917 7.82187 20.3208 8.60517 20.5874C9.27555 20.8215 9.97561 20.96 10.6847 20.9987C11.8179 21.0777 12.9565 20.9865 14.0627 20.7283C15.3794 20.4494 16.5801 19.7765 17.5054 18.799C18.2254 18.0345 18.719 17.085 18.931 16.0564C18.931 16.0148 18.931 15.9732 18.9472 15.9316C18.9634 15.89 18.9611 15.8877 18.9611 15.8623L19.0073 15.9108V15.957C19.0124 16.0768 19.0279 16.1958 19.0535 16.3129C19.0734 16.4345 19.0865 16.5571 19.0928 16.6802C19.1232 17.2248 19.0671 17.7707 18.9264 18.2976C18.8542 18.5603 18.7575 18.8156 18.6376 19.0601C18.6014 19.172 18.555 19.2803 18.499 19.3836C18.3093 19.8048 18.042 20.1865 17.7111 20.5088C16.8195 21.4049 15.6799 22.0133 14.4393 22.2556C13.3019 22.5046 12.1331 22.5778 10.9735 22.4728C9.54325 22.355 8.20082 21.9506 7.08251 21.0218C6.03586 20.2098 5.33707 19.0303 5.12778 17.7223C5.09775 17.5767 5.09775 17.4289 5.08157 17.281Z" fill="#AFAFD1"/>
<path d="M17.4222 6.67567C16.8422 6.62022 16.4194 6.92983 15.9989 7.26717C15.4605 7.73233 14.981 8.26152 14.571 8.84297C14.5271 8.90304 14.4947 8.91228 14.43 8.87531C14.0723 8.66397 13.6886 8.50008 13.2886 8.38779C13.2193 8.3693 13.2008 8.38779 13.18 8.45479C13.1414 8.56584 13.0765 8.66588 12.9908 8.74636C12.9051 8.82684 12.8011 8.88536 12.6879 8.9169C12.303 9.07846 11.8713 9.08837 11.4795 8.94463C11.2484 8.85683 10.9711 8.66505 11.0428 8.33233C11.0428 8.29306 11.0428 8.27688 10.9942 8.28612C10.5701 8.37391 10.1612 8.5242 9.7812 8.73206C9.51925 8.86241 9.27015 9.01713 9.0372 9.19417C8.98175 9.23807 8.95171 9.19417 8.92398 9.1572C8.6589 8.85823 8.37571 8.57581 8.07601 8.31154C7.66324 7.91533 7.17858 7.60164 6.64809 7.38732C5.97572 7.15626 5.46509 7.4266 5.28717 8.11514C5.28717 8.13825 5.27331 8.16135 5.26638 8.18446C5.23865 8.15904 5.2479 8.1267 5.25252 8.09897C5.28486 7.90719 5.30335 7.71311 5.35187 7.52133C5.39188 7.39279 5.44859 7.27005 5.52054 7.15626C5.59965 7.08053 5.69107 7.01881 5.79087 6.97373C5.99945 6.90998 6.22298 6.91484 6.42859 6.98759L6.56722 7.02687C6.7679 7.11166 6.96381 7.20731 7.1541 7.31338C7.20673 7.36234 7.26488 7.40498 7.32739 7.44046L7.41057 7.49591C7.41057 7.50747 7.4383 7.49591 7.44754 7.5144C7.48657 7.56282 7.53753 7.60025 7.59542 7.623C7.63012 7.67525 7.68139 7.71431 7.74098 7.7339C7.82736 7.82834 7.92606 7.91072 8.03442 7.97882C8.03442 8.0181 8.08294 8.02503 8.11067 8.04352C8.1384 8.07817 8.15919 8.11745 8.20771 8.1267C8.20771 8.15442 8.20771 8.16366 8.24237 8.15673C8.2262 8.19139 8.26317 8.17291 8.26779 8.18446C8.42176 8.35461 8.5853 8.51584 8.75762 8.66737C8.87546 8.74823 8.96557 8.66737 9.05569 8.61191C9.0591 8.6142 9.06313 8.61542 9.06724 8.61542C9.07135 8.61542 9.07537 8.6142 9.07879 8.61191L9.10652 8.59112C9.12038 8.59112 9.12962 8.59112 9.12962 8.57725L9.15966 8.55877C9.17583 8.55877 9.18508 8.55877 9.1897 8.5426C9.20767 8.54576 9.22618 8.54236 9.24187 8.53304C9.25756 8.52371 9.26938 8.50907 9.27519 8.49176C9.41682 8.43193 9.5549 8.36404 9.68878 8.28843C10.3052 7.99083 10.9798 7.83304 11.6643 7.82632C12.102 7.82094 12.5386 7.87298 12.9628 7.98113C13.0067 7.99255 13.0499 8.00644 13.0922 8.02272L13.1939 8.04814C13.4527 8.14518 13.7114 8.23529 13.9564 8.35544C14.0395 8.39472 14.1204 8.434 14.1874 8.4779C14.2117 8.49599 14.2396 8.50873 14.2692 8.51529C14.2987 8.52186 14.3294 8.52209 14.359 8.51598C14.3887 8.50987 14.4168 8.49756 14.4413 8.47984C14.4659 8.46213 14.4865 8.43942 14.5017 8.4132C14.5756 8.31616 14.6472 8.21912 14.7165 8.12207C14.8297 8.01375 14.9354 7.89797 15.0331 7.77549C15.1771 7.61177 15.3315 7.45742 15.4952 7.31338C15.6153 7.2071 15.7401 7.11005 15.8649 7.0107C16.0012 6.93214 16.1237 6.83279 16.2531 6.7473C16.4024 6.6713 16.5568 6.60568 16.7152 6.5509C16.8197 6.51659 16.9303 6.50461 17.0397 6.51576C17.1492 6.5269 17.2551 6.56092 17.3506 6.61559C17.3922 6.62022 17.4291 6.63177 17.4222 6.67567Z" fill="#FFD852"/>
<path d="M18.4989 19.3832C18.6592 19.0617 18.7936 18.7279 18.901 18.385C19.088 17.715 19.1437 17.0152 19.065 16.324C19.0336 16.2019 19.0204 16.0757 19.0257 15.9497C19.2867 17.0577 19.1365 18.2228 18.6029 19.2284C18.5752 19.2908 18.5752 19.3763 18.4989 19.3832Z" fill="#FBFDFC"/>
<path d="M13.0968 8.00623C12.8005 7.93102 12.4994 7.87544 12.1957 7.83987C11.6912 7.7982 11.1833 7.83326 10.6893 7.94384C10.267 8.05529 9.85736 8.21015 9.46697 8.40595C9.4069 8.43599 9.35837 8.49837 9.27982 8.4822C9.93497 8.08342 10.6771 7.84952 11.4425 7.80059C11.9725 7.76479 12.5047 7.82028 13.016 7.96464C13.0437 7.96695 13.0853 7.96233 13.0968 8.00623Z" fill="#AFAFD1"/>
<path d="M15.8672 6.99951C15.7702 7.12774 15.6523 7.23867 15.5183 7.32761C15.2711 7.55018 15.0395 7.7895 14.8251 8.04388C14.7997 8.07392 14.7789 8.10858 14.7327 8.10396C15.0553 7.68275 15.4375 7.31071 15.8672 6.99951Z" fill="#AFAFD1"/>
<path d="M14.7327 8.10323C14.6634 8.33429 14.4185 8.54917 14.2591 8.49603C14.0996 8.44289 14.028 8.37357 13.8917 8.32043C13.6606 8.21876 13.4296 8.12634 13.1985 8.0293C13.4109 8.07592 13.6166 8.14888 13.8108 8.24649C13.9541 8.30887 14.095 8.3805 14.2336 8.45444C14.254 8.469 14.2772 8.47911 14.3017 8.4841C14.3262 8.48909 14.3515 8.48885 14.3759 8.4834C14.4004 8.47795 14.4234 8.46741 14.4434 8.45246C14.4635 8.43752 14.4802 8.41851 14.4924 8.39667C14.571 8.29501 14.6519 8.20028 14.7327 8.10323Z" fill="#AFAFD1"/>
<path d="M17.4222 6.6756C17.3324 6.59842 17.2238 6.54626 17.1074 6.52436C16.991 6.50246 16.8708 6.51159 16.7591 6.55083C16.5881 6.59935 16.4264 6.67329 16.26 6.73567C16.5997 6.53696 16.9532 6.37985 17.3437 6.57393C17.3922 6.60348 17.4378 6.63752 17.48 6.6756H17.4222Z" fill="#AFAFD1"/>
<path d="M6.57183 7.02702C6.41471 7.02702 6.27146 6.94846 6.10972 6.94615C6.01179 6.93914 5.91347 6.95235 5.82086 6.98494C5.72824 7.01754 5.64332 7.06882 5.57136 7.13561C5.55458 7.1459 5.53677 7.15442 5.51822 7.16103C5.6048 7.0524 5.72202 6.97229 5.85469 6.93109C5.98735 6.88989 6.12933 6.8895 6.26222 6.92997C6.37091 6.94113 6.47622 6.97414 6.57183 7.02702Z" fill="#AFAFD1"/>
<path d="M5.51824 7.16553C5.44975 7.30633 5.39258 7.45235 5.34726 7.60222C5.30566 7.79719 5.27786 7.99484 5.26408 8.19372H5.24098C5.2374 7.87418 5.30695 7.55804 5.4443 7.2695C5.46582 7.23272 5.49056 7.19792 5.51824 7.16553Z" fill="#AFAFD1"/>
<path d="M7.15412 7.31297C6.997 7.29218 6.88609 7.17434 6.74515 7.11889C6.68508 7.09578 6.60652 7.08885 6.56955 7.01953C6.78323 7.07419 6.98262 7.17428 7.15412 7.31297Z" fill="#AFAFD1"/>
<path d="M8.75763 8.67187C8.66521 8.67187 8.62593 8.58176 8.57741 8.52631C8.47574 8.41309 8.34635 8.33453 8.26779 8.18896C8.44399 8.33628 8.60782 8.49779 8.75763 8.67187Z" fill="#AFAFD1"/>
<path d="M16.26 6.7334C16.1508 6.84776 16.0185 6.93756 15.8718 6.9968C15.988 6.89088 16.1187 6.80218 16.26 6.7334Z" fill="#AFAFD1"/>
<path d="M8.03212 7.98125C7.90887 7.9361 7.80514 7.84952 7.73868 7.73633C7.84661 7.80501 7.94524 7.88733 8.03212 7.98125Z" fill="#AFAFD1"/>
<path d="M7.32509 7.44495C7.25808 7.41491 7.17952 7.40336 7.15179 7.31787C7.22055 7.34274 7.2807 7.38685 7.32509 7.44495Z" fill="#AFAFD1"/>
<path d="M7.7387 7.73591C7.70501 7.73877 7.67145 7.729 7.64455 7.70851C7.61765 7.68801 7.59932 7.65825 7.59314 7.625C7.6499 7.64968 7.69984 7.68773 7.7387 7.73591Z" fill="#AFAFD1"/>
<path d="M7.59313 7.6252C7.56012 7.62522 7.52797 7.6147 7.50137 7.59517C7.47477 7.57563 7.4551 7.5481 7.44525 7.5166C7.50256 7.54038 7.55328 7.57764 7.59313 7.6252Z" fill="#AFAFD1"/>
<path d="M8.20077 8.12664C8.1407 8.12664 8.11528 8.0966 8.10373 8.04346L8.20077 8.12664Z" fill="#AFAFD1"/>
<path d="M9.27751 8.47998C9.27751 8.54005 9.23592 8.53774 9.19202 8.53081L9.27751 8.47998Z" fill="#AFAFD1"/>
<path d="M8.10146 8.0437C8.05756 8.0437 8.02752 8.02753 8.02521 7.979L8.10146 8.0437Z" fill="#AFAFD1"/>
<path d="M9.12501 8.57275V8.59355H9.09497L9.12501 8.57275Z" fill="#AFAFD1"/>
<path d="M9.18507 8.5376C9.18507 8.56301 9.18507 8.56995 9.15503 8.55377L9.18507 8.5376Z" fill="#AFAFD1"/>
<path d="M8.23778 8.15894C8.20774 8.1705 8.1985 8.15894 8.20312 8.12891L8.23778 8.15894Z" fill="#AFAFD1"/>
<path d="M9.07493 8.60742V8.62173H9.05109L9.07493 8.60742Z" fill="#AFAFD1"/>
<path d="M7.44526 7.5189L7.40829 7.50042C7.42447 7.49811 7.44064 7.4958 7.44526 7.5189Z" fill="#AFAFD1"/>
<path d="M8.26864 8.19219C8.24718 8.19219 8.23765 8.19219 8.24241 8.16357L8.26864 8.19219Z" fill="#AFAFD1"/>
<path d="M17.499 6.69009L17.4799 6.67578L17.499 6.69009Z" fill="#AFAFD1"/>
<path d="M17.5294 6.73662L17.5008 6.70801L17.5294 6.73662Z" fill="#FFD852"/>
<path d="M13.1315 16.9966C13.0586 17.2817 12.9298 17.5495 12.7526 17.7845C12.6734 17.905 12.5643 18.003 12.436 18.0688C12.3077 18.1346 12.1645 18.166 12.0204 18.1599C11.8764 18.1539 11.7363 18.1106 11.614 18.0342C11.4916 17.9579 11.3911 17.8512 11.3223 17.7244C11.1645 17.4805 11.0532 17.2094 10.9942 16.925C10.9452 16.8514 10.9217 16.7637 10.9272 16.6754C10.9261 16.6484 10.9172 16.6223 10.9017 16.6001C10.8861 16.578 10.8645 16.5608 10.8394 16.5507C10.7042 16.4887 10.5858 16.395 10.4945 16.2776C10.4032 16.1601 10.3416 16.0223 10.3149 15.876C10.297 15.8175 10.2869 15.7569 10.2849 15.6958V15.6657C10.278 15.6097 10.278 15.5531 10.2849 15.497C10.2849 15.3815 10.308 15.266 10.442 15.266C10.576 15.266 10.6038 15.3677 10.613 15.4786C10.6222 15.5895 10.6823 15.7235 10.7308 15.839C10.7614 15.9096 10.806 15.9731 10.8619 16.0259C10.9178 16.0787 10.9839 16.1195 11.0561 16.1458C11.1283 16.1722 11.2051 16.1836 11.2819 16.1793C11.3587 16.175 11.4337 16.1552 11.5026 16.1209C11.5965 16.081 11.6797 16.0193 11.7452 15.941C11.8106 15.8627 11.8566 15.7699 11.8792 15.6703C11.9069 15.5802 11.9716 15.497 11.9508 15.3931C11.9508 15.3792 11.9508 15.363 11.9369 15.3561C11.924 15.3491 11.9099 15.3444 11.8954 15.3422C11.7167 15.2997 11.551 15.2144 11.4125 15.0936C11.2741 14.9729 11.167 14.8203 11.1005 14.6491C10.955 14.3002 11.0844 14.0714 11.461 14.0229C11.9037 13.9639 12.3533 13.9826 12.7895 14.0784C13.1685 14.1615 13.2748 14.425 13.0899 14.7715C13.0084 14.9179 12.8951 15.0441 12.7583 15.1408C12.6215 15.2376 12.4648 15.3025 12.2997 15.3307C12.2682 15.4222 12.2732 15.5223 12.3136 15.6103C12.3542 15.7404 12.41 15.8653 12.4799 15.9823C12.5712 16.0919 12.6941 16.1707 12.8318 16.2079C12.9695 16.2451 13.1153 16.2389 13.2493 16.1902C13.387 16.1095 13.488 15.9787 13.5312 15.8251C13.5501 15.7651 13.5749 15.707 13.6052 15.6519C13.6052 15.6172 13.619 15.5802 13.6283 15.5456C13.6309 15.5107 13.6444 15.4775 13.6667 15.4506C13.6891 15.4237 13.7192 15.4044 13.753 15.3954C13.786 15.3873 13.8206 15.3904 13.8516 15.4042C13.8826 15.418 13.9081 15.4417 13.924 15.4716C13.924 15.4855 13.924 15.5017 13.9379 15.5109C13.9369 15.5155 13.9369 15.5202 13.9379 15.5248C13.9524 15.6956 13.9304 15.8676 13.8735 16.0293C13.8165 16.191 13.7258 16.3388 13.6075 16.4629C13.5348 16.537 13.4463 16.5938 13.3487 16.6292C13.3164 16.6375 13.2876 16.6558 13.2664 16.6816C13.2452 16.7074 13.2328 16.7392 13.2309 16.7725C13.2299 16.8145 13.2206 16.856 13.2036 16.8945C13.1865 16.9329 13.162 16.9676 13.1315 16.9966Z" fill="#292B5E"/>
<path d="M13.5798 15.6589C13.5774 15.7967 13.5314 15.9303 13.4484 16.0403C13.3653 16.1503 13.2495 16.2312 13.1177 16.2712C12.968 16.3013 12.8126 16.2812 12.6756 16.2139C12.5385 16.1466 12.4275 16.036 12.3598 15.8992C12.2792 15.7586 12.2369 15.5992 12.2373 15.4371C12.2373 15.3978 12.2373 15.3586 12.2766 15.3354C12.2892 15.4886 12.3566 15.6322 12.4666 15.7396C12.5765 15.847 12.7216 15.9111 12.8751 15.92C13.005 15.9393 13.1377 15.9255 13.2609 15.8798C13.3841 15.8342 13.4937 15.7582 13.5798 15.6589Z" fill="#AFAFD1"/>
<path d="M11.9208 15.3564C11.9716 15.4327 11.9393 15.5113 11.9208 15.5875C11.9101 15.6955 11.8742 15.7996 11.816 15.8912C11.7577 15.9828 11.6788 16.0595 11.5855 16.115C11.4922 16.1706 11.3872 16.2034 11.2788 16.2109C11.1705 16.2184 11.062 16.2004 10.9619 16.1582C10.6754 16.0265 10.6176 15.7585 10.5922 15.4789C10.6475 15.5972 10.7363 15.6967 10.8476 15.7649C10.959 15.8331 11.0879 15.867 11.2184 15.8625C11.3536 15.8736 11.4893 15.8482 11.6112 15.7888C11.7332 15.7295 11.8369 15.6384 11.9116 15.5251C11.9334 15.4715 11.9367 15.4121 11.9208 15.3564Z" fill="#AFAFD1"/>
<path d="M13.1315 16.9971C13.15 16.8931 13.1708 16.7892 13.1846 16.6852C13.1855 16.6734 13.1903 16.6622 13.1982 16.6534C13.2062 16.6446 13.2169 16.6387 13.2285 16.6367C13.7484 16.4495 13.8894 16.0267 13.9217 15.5322C13.9493 15.6692 13.9406 15.811 13.8963 15.9435C13.8671 16.145 13.7966 16.3382 13.6893 16.5112C13.5819 16.6841 13.44 16.833 13.2724 16.9486C13.2271 16.9692 13.1799 16.9854 13.1315 16.9971Z" fill="#AFAFD1"/>
<path d="M10.2849 15.6963C10.3261 15.9156 10.4197 16.1216 10.5576 16.297C10.6084 16.3525 10.6615 16.4264 10.7262 16.4449C10.9804 16.5188 10.9781 16.7245 10.9943 16.9255C10.8303 16.8375 10.6874 16.7148 10.5757 16.566C10.4639 16.4171 10.386 16.2457 10.3473 16.0637C10.2898 15.9503 10.2681 15.8222 10.2849 15.6963Z" fill="#AFAFD1"/>
<path d="M10.2687 15.4976V15.6662C10.2552 15.6402 10.2481 15.6113 10.2481 15.5819C10.2481 15.5525 10.2552 15.5236 10.2687 15.4976Z" fill="#AFAFD1"/>
<path d="M11.87 15.3403L11.9116 15.3542L11.87 15.3403Z" fill="#AFAFD1"/>
<path d="M13.9125 15.5183L13.8986 15.479L13.9125 15.5183Z" fill="#AFAFD1"/>
<path d="M17.6001 8.85213C17.5846 9.41551 17.5275 9.97696 17.4291 10.5319C17.4291 10.5643 17.4291 10.6082 17.3898 10.6174C17.3506 10.6266 17.3436 10.5804 17.3436 10.5481C16.8785 9.89206 16.3258 9.30279 15.7008 8.79668C15.4906 8.62801 15.4929 8.6257 15.7008 8.4062C15.9619 8.10793 16.2693 7.8536 16.6112 7.65296C17.0918 7.38724 17.4522 7.56053 17.5539 8.1012C17.585 8.3503 17.6004 8.6011 17.6001 8.85213Z" fill="#EE7BAA"/>
<path d="M5.66612 9.14773C5.65487 8.88772 5.70555 8.62876 5.81399 8.39218C5.88097 8.28612 5.9848 8.20857 6.10551 8.17444C6.22622 8.14032 6.35529 8.15204 6.46788 8.20733C6.82126 8.34267 7.14815 8.53896 7.43369 8.78728C7.52842 8.86122 7.61391 8.95364 7.70403 9.03682C7.73868 9.06686 7.73868 9.09228 7.70403 9.12693C7.2317 9.57215 6.80803 10.0663 6.44015 10.6011C6.32 10.7744 6.2091 10.9592 6.10512 11.1394C6.08202 11.1741 6.06584 11.2272 6.01963 11.2203C5.97342 11.2134 5.98497 11.1556 5.97804 11.1209C5.80776 10.4754 5.70325 9.81431 5.66612 9.14773Z" fill="#EE7BAA"/>
<path d="M14.2267 10.6202C13.9606 10.6219 13.7047 10.518 13.515 10.3314C13.4657 10.2847 13.4264 10.2285 13.3995 10.1661C13.3726 10.1037 13.3587 10.0365 13.3587 9.9686C13.3587 9.90068 13.3726 9.83347 13.3995 9.7711C13.4264 9.70872 13.4657 9.65249 13.515 9.60584C13.7217 9.41913 13.9823 9.30285 14.2593 9.27378C14.5362 9.24472 14.8153 9.30436 15.0562 9.4441C15.4605 9.71906 15.4259 10.1789 14.9799 10.44C14.7504 10.5686 14.4896 10.631 14.2267 10.6202Z" fill="#FBFDFC"/>
<path d="M9.44619 9.55699C9.69645 9.56191 9.93502 9.6638 10.1116 9.84119C10.1605 9.8874 10.1994 9.9431 10.226 10.0049C10.2527 10.0667 10.2664 10.1332 10.2664 10.2005C10.2664 10.2677 10.2527 10.3343 10.226 10.3961C10.1994 10.4579 10.1605 10.5136 10.1116 10.5598C9.90386 10.7519 9.63964 10.8719 9.35824 10.9019C9.07683 10.9318 8.79327 10.8702 8.54969 10.7261C8.14997 10.4373 8.2008 9.9752 8.65367 9.72335C8.89763 9.59638 9.17177 9.53883 9.44619 9.55699Z" fill="#FBFDFC"/>
<path d="M9.34453 11.759C9.98917 11.7405 10.3912 12.332 10.4513 12.8241C10.4575 12.8479 10.4556 12.873 10.446 12.8956C10.4364 12.9182 10.4196 12.9369 10.3981 12.9489C10.3427 12.9766 10.308 12.9489 10.2711 12.9027C10.1056 12.7231 9.91582 12.5676 9.70728 12.4406C9.53208 12.3373 9.32876 12.292 9.12629 12.3111C8.92383 12.3302 8.73255 12.4127 8.57973 12.5469C8.54276 12.5769 8.50117 12.6092 8.45034 12.5723C8.39951 12.5353 8.40644 12.4845 8.4203 12.4313C8.47664 12.2318 8.5984 12.0571 8.76602 11.9352C8.93364 11.8132 9.13739 11.7512 9.34453 11.759Z" fill="#292B5E"/>
<path d="M14.631 11.724C14.8458 11.7147 15.0575 11.7781 15.2319 11.9039C15.4063 12.0296 15.5332 12.2105 15.5922 12.4172C15.6107 12.4819 15.6454 12.5605 15.5737 12.609C15.5021 12.6575 15.4536 12.5836 15.4074 12.542C15.2342 12.3914 15.0149 12.3043 14.7855 12.2951C14.5562 12.2858 14.3306 12.355 14.1458 12.4911C14.0072 12.5882 13.8801 12.7014 13.7461 12.8054C13.7068 12.8354 13.6699 12.8816 13.6098 12.8493C13.5497 12.8169 13.5636 12.7615 13.5682 12.7106C13.6027 12.4482 13.7278 12.206 13.9219 12.0259C14.1159 11.8457 14.3667 11.739 14.631 11.724Z" fill="#292B5E"/>
<path d="M12.2235 16.5028L12.2396 16.3711L12.3344 16.452C12.4605 16.5624 12.6164 16.6332 12.7826 16.6553C12.8242 16.6553 12.845 16.6784 12.8358 16.72C12.804 17.0431 12.6696 17.3475 12.4522 17.5888C12.4011 17.6511 12.336 17.7004 12.2621 17.7327C12.1883 17.765 12.1079 17.7794 12.0274 17.7747C11.947 17.7699 11.8688 17.7462 11.7992 17.7055C11.7297 17.6647 11.6708 17.6081 11.6273 17.5402C11.4339 17.2886 11.3219 16.9839 11.3062 16.6668C11.3062 16.6137 11.3316 16.6045 11.3709 16.5998C11.5405 16.58 11.7009 16.5118 11.833 16.4034C11.8838 16.3642 11.8769 16.3896 11.8838 16.4289C11.9208 16.6738 11.9624 16.9164 11.9993 17.159C11.9993 17.2006 12.0248 17.2329 12.064 17.2306C12.0809 17.2308 12.0973 17.2247 12.1101 17.2137C12.1228 17.2026 12.1311 17.1873 12.1334 17.1705C12.1657 16.9395 12.1934 16.7269 12.2235 16.5051V16.5028Z" fill="#EE7BAA"/>
<path d="M12.1126 14.5013C11.9669 14.5062 11.8235 14.464 11.7036 14.3811C11.6805 14.3627 11.6505 14.3465 11.6551 14.3118C11.6597 14.2772 11.699 14.2702 11.7244 14.2679C11.9656 14.246 12.2087 14.2553 12.4476 14.2957C12.4776 14.2957 12.51 14.3118 12.5169 14.3442C12.5238 14.3765 12.4915 14.395 12.4661 14.4112C12.3601 14.4763 12.2368 14.5077 12.1126 14.5013Z" fill="#FBFDFC"/>
<path d="M23.5 12C23.5 18.3513 18.3513 23.5 12 23.5C5.64873 23.5 0.5 18.3513 0.5 12C0.5 5.64873 5.64873 0.5 12 0.5C18.3513 0.5 23.5 5.64873 23.5 12Z" stroke="black" stroke-opacity="0.097"/>
</svg>
