<svg width="24" height="24" viewBox="0 0 24 24" fill="none" xmlns="http://www.w3.org/2000/svg">
<path d="M12 24C18.6274 24 24 18.6274 24 12C24 5.37258 18.6274 0 12 0C5.37258 0 0 5.37258 0 12C0 18.6274 5.37258 24 12 24Z" fill="#042751"/>
<path d="M23.5 12C23.5 18.3513 18.3513 23.5 12 23.5C5.64873 23.5 0.5 18.3513 0.5 12C0.5 5.64873 5.64873 0.5 12 0.5C18.3513 0.5 23.5 5.64873 23.5 12Z" stroke="white" stroke-opacity="0.3"/>
<path d="M19.049 8.21757C18.4148 7.50016 17.5587 7.1416 16.4801 7.1416C15.8462 7.1416 15.2841 7.2727 14.7945 7.53403C14.3139 7.79098 13.9302 8.12501 13.6426 8.53759V7.22511H10.3557V12.2464C10.3557 12.7807 10.2167 13.2 9.93901 13.5063C9.66075 13.8123 9.28263 13.965 8.80464 13.965C8.33746 13.965 7.96226 13.8123 7.67845 13.5063C7.39493 13.2 7.25302 12.7805 7.25302 12.2464V7.22511H4V12.6639C4 13.8979 4.31418 14.8743 4.94224 15.5917C5.57089 16.3085 6.43021 16.6674 7.51961 16.6674C8.1538 16.6674 8.71588 16.5366 9.20525 16.2752C9.69403 16.0145 10.0783 15.6723 10.3557 15.2495V16.5839H13.6426V11.2665C13.6861 10.8709 13.8198 10.55 14.0443 10.3029C14.322 9.99752 14.7057 9.84394 15.1948 9.84394C15.662 9.84394 16.0348 9.99752 16.3131 10.3029C16.5905 10.6089 16.7297 11.0285 16.7297 11.5629V16.5842H20V11.1287C20 9.90526 19.6826 8.93469 19.0487 8.21728L19.049 8.21757Z" fill="white"/>
</svg>
