<svg width="24" height="24" viewBox="0 0 24 24" fill="none" xmlns="http://www.w3.org/2000/svg">
<path d="M12 24C18.6274 24 24 18.6274 24 12C24 5.37258 18.6274 0 12 0C5.37258 0 0 5.37258 0 12C0 18.6274 5.37258 24 12 24Z" fill="#171D2C"/>
<path d="M6.01242 15.6866C6.00898 15.1381 6.20721 14.6644 6.54429 14.2417C6.86077 13.8451 7.18166 13.4515 7.49519 13.0524C8.02707 12.3752 8.02511 11.6105 7.49078 10.9347C7.17087 10.5303 6.84065 10.1341 6.52565 9.72525C5.93489 8.95809 5.824 8.12409 6.28523 7.26601C6.74743 6.40645 7.48931 5.97201 8.47504 6.0069C8.93872 6.02361 9.34646 6.21184 9.70807 6.49737C10.1124 6.81682 10.5113 7.14364 10.9151 7.46406C11.6236 8.0258 12.3758 8.02334 13.0877 7.45817C13.4783 7.14757 13.864 6.83058 14.2565 6.52195C15.2187 5.7651 16.4463 5.83784 17.3025 6.69789C18.1504 7.54958 18.2181 8.76888 17.4669 9.73164C17.1548 10.1317 16.832 10.5239 16.517 10.9215C15.9664 11.6159 15.9694 12.3816 16.5233 13.0789C16.8545 13.4957 17.1995 13.9011 17.5169 14.3277C18.0709 15.0728 18.1572 15.8812 17.7245 16.7054C17.2849 17.5423 16.5704 17.9832 15.62 17.9915C15.1122 17.9959 14.6647 17.7949 14.2693 17.4809C13.8654 17.16 13.4665 16.8341 13.0617 16.5147C12.3724 15.9712 11.6207 15.9721 10.9283 16.5186C10.5108 16.8479 10.105 17.1929 9.6806 17.5128C8.94902 18.0647 8.15857 18.1522 7.32886 17.7522C6.53644 17.3703 6.01634 16.5437 6.01242 15.6866ZM7.70912 6.5819C7.18019 6.60697 6.87941 6.79077 6.70081 7.15248C6.51878 7.52157 6.58207 7.86853 6.83476 8.18454C7.69342 9.25886 8.55306 10.3317 9.41269 11.405C9.78707 11.8724 9.78511 12.124 9.40533 12.5983C8.56091 13.6525 7.71157 14.7027 6.87892 15.7657C6.7489 15.9318 6.64144 16.15 6.61495 16.356C6.56147 16.7683 6.76509 17.0863 7.12524 17.2858C7.50403 17.4952 7.86613 17.4342 8.19782 17.1683C9.27629 16.3029 10.3533 15.4355 11.4313 14.57C11.8714 14.2167 12.126 14.2167 12.5652 14.5685C13.6309 15.4232 14.6971 16.2783 15.7609 17.1359C16.0008 17.329 16.2594 17.4499 16.5739 17.3915C17.3344 17.2494 17.643 16.4174 17.1548 15.8016C16.3109 14.7366 15.4576 13.679 14.6083 12.6184C14.1986 12.1073 14.2006 11.8847 14.6157 11.3667C15.4498 10.3258 16.2824 9.28294 17.1185 8.24302C17.3226 7.98943 17.4522 7.71766 17.3791 7.38347C17.2157 6.63744 16.3992 6.3519 15.7918 6.83599C14.7167 7.69259 13.6481 8.55706 12.576 9.41711C12.128 9.77636 11.8704 9.77685 11.4239 9.41809C10.3646 8.56787 9.31015 7.71176 8.24394 6.87088C8.05896 6.7259 7.82541 6.64333 7.70912 6.5819Z" fill="white"/>
<path d="M23.5 12C23.5 18.3513 18.3513 23.5 12 23.5C5.64873 23.5 0.5 18.3513 0.5 12C0.5 5.64873 5.64873 0.5 12 0.5C18.3513 0.5 23.5 5.64873 23.5 12Z" stroke="white" stroke-opacity="0.3"/>
</svg>
