<svg width="24" height="24" viewBox="0 0 24 24" fill="none" xmlns="http://www.w3.org/2000/svg">
<path d="M24 12C24 5.37258 18.6274 2.2213e-07 12 1.43099e-07C5.37258 6.40674e-08 2.2213e-07 5.37258 1.43099e-07 12C6.40674e-08 18.6274 5.37258 24 12 24C18.6274 24 24 18.6274 24 12Z" fill="#1258FF"/>
<path d="M12 0.5C18.3513 0.5 23.5 5.64872 23.5 12C23.5 18.3513 18.3513 23.5 12 23.5C5.64873 23.5 0.5 18.3513 0.5 12C0.5 5.64872 5.64873 0.5 12 0.5Z" stroke="black" stroke-opacity="0.097"/>
<path d="M3.00052 12.009C2.9548 8.19468 5.9331 3.80561 10.701 3.08716C12.8237 2.76712 14.8092 3.11981 16.6837 4.1583C17.2324 4.46527 17.3956 4.91594 17.1409 5.3666C16.8731 5.8238 16.4225 5.9087 15.8738 5.5952C12.164 3.48557 7.37 4.90941 5.48897 8.73025C4.33292 11.0815 4.38517 13.4459 5.63919 15.7711C5.76328 16.0062 5.83513 16.3066 5.81554 16.5679C5.78941 16.9075 5.4759 17.1361 5.13627 17.1753C4.75746 17.221 4.48967 17.0577 4.29373 16.7377C3.68631 15.7384 3.31402 14.6542 3.15074 13.5047C3.08543 13.0018 3.05277 12.5054 3.00052 12.009Z" fill="white"/>
<path d="M21.3079 11.7933C21.3079 16.5939 18.0357 20.4082 13.5944 21.1201C11.537 21.4467 9.6168 21.0744 7.78801 20.1143C7.37654 19.8987 7.20672 19.5787 7.26551 19.1933C7.31776 18.8537 7.58554 18.5598 7.93824 18.5337C8.14071 18.5206 8.37584 18.5663 8.55871 18.6643C10.3875 19.6179 12.3012 19.9053 14.2737 19.2848C16.9189 18.4488 18.6823 16.7049 19.4073 13.9813C19.9167 12.0546 19.662 10.2323 18.728 8.48844C18.4603 7.98553 18.5844 7.51527 19.022 7.28014C19.4465 7.05808 19.9037 7.21483 20.1715 7.69815C20.9291 9.06974 21.3014 10.5393 21.3079 11.7933Z" fill="white"/>
<path d="M12.1967 5.62793C12.471 6.00022 12.7453 6.35944 13.0131 6.7252C13.9079 7.9335 14.8027 9.13527 15.4624 10.4938C16.3702 12.3683 15.9391 14.3734 14.3259 15.4968C13.9275 15.7711 13.4311 15.9214 12.9608 16.0846C12.7649 16.15 12.6735 16.2087 12.68 16.4308C12.6931 16.8357 12.6865 17.2342 12.68 17.6391C12.68 17.7371 12.68 17.835 12.6669 17.933C12.6277 18.2204 12.4318 18.3967 12.164 18.3837C11.8766 18.3641 11.7264 18.1877 11.7134 17.92C11.6938 17.4497 11.6872 16.986 11.7068 16.5157C11.7199 16.261 11.635 16.15 11.3868 16.0977C10.7598 15.9671 10.1981 15.6797 9.71476 15.2552C8.42155 14.1252 8.0166 12.2311 8.8918 10.742C9.89763 9.02424 11.021 7.38487 12.0987 5.71284C12.1183 5.68018 12.151 5.66712 12.1967 5.62793ZM12.7061 15.1311C12.8106 15.1115 12.9086 15.1049 12.9935 15.0788C14.5088 14.589 15.3709 12.93 14.77 11.4474C14.4108 10.5591 13.8556 9.74922 13.3723 8.91974C13.1894 8.60623 12.9608 8.32538 12.6996 7.94656C12.7061 10.4024 12.7061 12.7536 12.7061 15.1311ZM11.6807 15.1049C11.7591 14.7 11.6938 14.38 11.3998 14.086C10.8055 13.4852 10.2438 12.8516 9.66904 12.2311C9.62332 12.1789 9.56453 12.1397 9.49922 12.0874C9.20531 13.4394 10.3875 15.0788 11.6807 15.1049ZM11.7068 12.9822C11.7068 12.61 11.7134 12.3422 11.7003 12.0744C11.6938 11.9307 11.7003 11.7348 11.6154 11.6433C11.1908 11.1731 10.7336 10.7289 10.2699 10.2587C10.1393 10.4742 10.0217 10.6375 9.94988 10.8138C9.91723 10.8922 9.92376 11.0359 9.96948 11.0947C10.5181 11.7086 11.0798 12.3095 11.7068 12.9822ZM11.6872 8.20129C11.6676 8.19475 11.648 8.18169 11.635 8.17516C11.3998 8.54092 11.1582 8.90014 10.9296 9.2659C10.8969 9.31815 10.8904 9.44224 10.9296 9.48796C11.1582 9.74922 11.3998 9.99088 11.6872 10.2979C11.6872 9.53368 11.6872 8.86748 11.6872 8.20129Z" fill="white"/>
</svg>
