<svg width="48" height="48" viewBox="0 0 48 48" fill="none" xmlns="http://www.w3.org/2000/svg">
<rect width="48" height="48" rx="24" fill="url(#paint0_linear_1525_9521)"/>
<path d="M24.0004 27.2249C26.562 27.2249 28.4126 27.9027 29.9149 28.9952C31.4035 30.0741 32.5031 31.5125 33.6566 33.1168C34.193 33.8637 34.8233 34.3062 35.4536 34.4861C35.9365 34.6382 36.4327 34.6243 36.8752 34.4722C37.3177 34.3201 37.7201 34.0434 38.0285 33.6423C38.5113 32.9784 38.6319 32.3422 38.6319 31.54C38.6588 28.3174 38.0686 23.1582 36.3117 19.2441C35.145 16.6161 33.4686 14.569 31.1083 14.1541C29.4588 13.8499 28.3187 14.5414 27.2325 15.1914C26.1998 15.8001 25.2207 16.3672 24.0004 16.3672C22.7799 16.3672 21.801 15.8001 20.7684 15.1914C19.6821 14.5413 18.5421 13.8497 16.8791 14.1541C14.5322 14.5691 12.8558 16.6161 11.6757 19.2441C9.93224 23.1583 9.34225 28.3172 9.35553 31.54C9.35553 32.3422 9.47614 32.9783 9.97242 33.6423C10.2809 34.0434 10.6832 34.3201 11.1257 34.4722C11.5682 34.6244 12.0644 34.6382 12.5473 34.4861C13.1776 34.3063 13.8079 33.8638 14.3443 33.1168C15.4843 31.5125 16.5972 30.0739 18.0726 28.9952C19.5881 27.9025 21.4257 27.2249 24.0004 27.2249ZM23.3165 14.874V13.3526C23.3165 12.5088 23.6518 11.7621 24.1748 11.2087C24.7112 10.6555 25.4488 10.3235 26.2536 10.3235C26.6828 10.3235 27.0717 10.1437 27.3533 9.83947C27.6483 9.5491 27.8227 9.14781 27.8227 8.7053C27.8227 8.31808 28.1177 8 28.5065 8C28.882 8 29.1772 8.3181 29.1772 8.7053C29.1772 9.53523 28.8553 10.2958 28.3189 10.8353C27.796 11.3885 27.0583 11.7343 26.2536 11.7343C25.8244 11.7343 25.4222 11.9142 25.1405 12.2045C24.8589 12.4949 24.6845 12.8962 24.6845 13.3525V14.8739C25.3283 14.7079 25.9317 14.3482 26.5486 13.9749C27.8496 13.2005 29.2039 12.3844 31.3363 12.7717C34.2063 13.2696 36.2042 15.6347 37.559 18.6499C39.3964 22.7854 40.0133 28.1794 39.9998 31.5407C39.9998 32.6196 39.7048 33.6846 39.1012 34.5007C38.6184 35.123 38.0015 35.5796 37.3041 35.8147C36.6068 36.0498 35.829 36.0636 35.0644 35.8424C34.1658 35.5657 33.2808 34.9572 32.5566 33.9475C31.4838 32.4536 30.4511 31.0983 29.1367 30.144C27.8492 29.2172 26.2534 28.6365 24.0002 28.6365C21.7473 28.6365 20.1513 29.2174 18.8637 30.144C17.5495 31.0983 16.5034 32.4538 15.4306 33.9475C14.7064 34.9572 13.8346 35.5657 12.9227 35.8424C12.1718 36.0636 11.3938 36.0498 10.6965 35.8147C9.9991 35.5795 9.36878 35.123 8.89943 34.5007C8.29601 33.6846 8.00082 32.6196 8.00082 31.5407C7.97393 28.1797 8.60424 22.7856 10.4416 18.6499C11.7827 15.6348 13.781 13.2696 16.6508 12.7717C18.7966 12.3844 20.1511 13.2005 21.4519 13.9749C22.0688 14.3483 22.6729 14.708 23.3165 14.874ZM31.2828 18.4147C31.8461 18.4147 32.302 18.8849 32.302 19.4658C32.302 20.0467 31.846 20.5169 31.2828 20.5169C30.7195 20.5169 30.2636 20.0467 30.2636 19.4658C30.2636 18.8849 30.7195 18.4147 31.2828 18.4147ZM31.2828 22.6331C31.8461 22.6331 32.302 23.1033 32.302 23.6843C32.302 24.2652 31.846 24.7354 31.2828 24.7354C30.7195 24.7354 30.2636 24.2652 30.2636 23.6843C30.2636 23.1033 30.7195 22.6331 31.2828 22.6331ZM28.2117 21.582C28.2117 20.9872 28.6676 20.517 29.2309 20.517C29.8076 20.517 30.2636 20.9872 30.2636 21.582C30.2636 22.1629 29.8076 22.6331 29.2309 22.6331C28.6676 22.6331 28.2117 22.1629 28.2117 21.582ZM32.302 21.582C32.302 20.9872 32.758 20.517 33.3347 20.517C33.898 20.517 34.3539 20.9872 34.3539 21.582C34.3539 22.1629 33.898 22.6331 33.3347 22.6331C32.758 22.6331 32.302 22.1629 32.302 21.582ZM16.7185 18.4147C17.1343 18.4147 17.4829 18.7605 17.4829 19.203V20.7799H19.0118C19.441 20.7799 19.7896 21.1396 19.7896 21.582C19.7896 22.0109 19.4409 22.3704 19.0118 22.3704H17.4829V23.9472C17.4829 24.3899 17.1341 24.7355 16.7185 24.7355C16.2892 24.7355 15.9541 24.3897 15.9541 23.9472V22.3704H14.4119C13.9961 22.3704 13.6475 22.0107 13.6475 21.5682C13.6475 21.1394 13.9963 20.7799 14.4119 20.7799H15.9541V19.203C15.9541 18.7604 16.2894 18.4147 16.7185 18.4147Z" fill="white"/>
<defs>
<linearGradient id="paint0_linear_1525_9521" x1="48" y1="-2.62959e-06" x2="4.36481" y2="43.2904" gradientUnits="userSpaceOnUse">
<stop stop-color="#FF0089"/>
<stop offset="0.744792" stop-color="#9A0065"/>
</linearGradient>
</defs>
</svg>
