<svg width="24" height="24" viewBox="0 0 24 24" fill="none" xmlns="http://www.w3.org/2000/svg">
<path fill-rule="evenodd" clip-rule="evenodd" d="M0 12C0 5.37259 5.37259 0 12 0C18.6274 0 24 5.37259 24 12C24 18.6274 18.6274 24 12 24C5.37259 24 0 18.6274 0 12Z" fill="black"/>
<path fill-rule="evenodd" clip-rule="evenodd" d="M17.1183 9.5415C17.0961 9.53425 17.075 9.52262 17.0563 9.50659C16.8692 9.3547 16.7661 9.2301 16.7027 9.11862C16.6314 8.99323 16.6105 8.8792 16.5977 8.75153C16.5915 8.66408 16.6438 8.58272 16.7267 8.55099C16.7267 8.55099 16.8985 8.4509 17.0119 8.37167C17.0203 8.27438 17.0263 8.15647 17.0219 8.04435C17.0184 7.9585 17.0091 7.87688 16.9833 7.81958C16.9322 7.70631 16.8506 7.62752 16.7692 7.5413C16.6654 7.43131 16.5589 7.315 16.4669 7.15934C16.4006 7.04715 16.3442 6.91432 16.3024 6.74943C16.2865 6.67996 16.2997 6.6071 16.3387 6.54723C16.457 6.35578 16.3042 6.12882 16.1066 6.05319C15.9319 5.98634 15.7289 6.07642 15.5509 6.35839C15.5156 6.41183 15.4648 6.45344 15.4051 6.47787C15.1251 6.59669 14.9288 6.71175 14.7859 6.84839C14.6262 7.00107 14.5429 7.1836 14.473 7.42634C14.426 7.58462 14.4075 7.72279 14.4034 7.85965C14.3931 8.20128 14.4605 8.53619 14.4623 9.07104C14.46 9.65253 14.2975 10.1665 13.9924 10.5639C13.6804 10.9704 13.2268 11.2619 12.6486 11.3749C12.2694 11.4488 12.0148 11.4776 11.8176 11.6015C11.6389 11.7138 11.5153 11.9046 11.3723 12.2655C11.3385 12.3587 11.2345 12.4072 11.1401 12.3739C11.0457 12.3406 10.9964 12.238 11.0302 12.1449C11.1886 11.6638 11.3583 11.4194 11.5826 11.2597C11.807 11.0999 12.1003 11.0324 12.5434 10.9193C12.9817 10.8079 13.3188 10.5691 13.5417 10.2451C13.7591 9.92873 13.8599 9.52864 13.8402 9.08318C13.8201 8.5369 13.7377 8.1968 13.7404 7.8475C13.7419 7.65723 13.767 7.46491 13.8298 7.24429C13.9385 6.87486 14.0803 6.60329 14.3274 6.37443C14.5061 6.20887 14.7432 6.06475 15.076 5.92663C15.4861 5.39682 15.9716 5.35298 16.3345 5.51117C16.7971 5.71287 17.0782 6.27142 16.8524 6.73159C16.8833 6.83827 16.9251 6.92348 16.973 6.99662C17.1316 7.23857 17.3243 7.38785 17.4221 7.64135C17.4618 7.74465 17.481 7.88772 17.4786 8.03889C17.4758 8.22442 17.4483 8.42246 17.427 8.54463C17.4192 8.58952 17.3945 8.65795 17.3198 8.71472C17.2574 8.762 17.1244 8.82232 17.0197 8.8659C17.0296 8.90536 17.0461 8.94565 17.0738 8.98912C17.1197 9.06087 17.1891 9.1404 17.2948 9.2363C17.2993 9.24019 17.3037 9.24423 17.3076 9.24845C17.321 9.25279 17.334 9.25877 17.3464 9.26635C17.4597 9.32776 17.5894 9.3821 17.7227 9.43435C17.9038 9.50524 18.0907 9.56919 18.256 9.63018C18.4224 9.34297 18.7629 8.73965 19.0263 8.17239C19.1327 7.94295 19.2273 7.72152 19.287 7.52964C19.3124 7.4479 19.3347 7.37405 19.3424 7.3079C19.3456 7.28006 19.3548 7.25569 19.3489 7.23495C19.3047 7.06767 19.1247 6.92785 18.9236 6.80108C18.4403 6.49657 17.8209 6.29765 17.8209 6.29765C17.7235 6.27436 17.6636 6.17741 17.6872 6.08127C17.7108 5.98519 17.809 5.92603 17.9064 5.94931C17.9064 5.94931 18.8008 6.10521 19.3932 6.44379C19.6702 6.60214 19.8697 6.81416 19.959 7.03878C20.0094 7.17612 20.0155 7.36445 19.9652 7.58368C19.9251 7.75878 19.8493 7.96112 19.7448 8.16955C19.6157 8.42713 19.4449 8.69585 19.2705 8.94789C19.0359 9.28713 18.7957 9.59259 18.6363 9.7882C18.7177 9.8286 18.7868 9.86979 18.8447 9.91415C18.9911 10.0265 19.0712 10.1663 19.1071 10.3547C19.1527 10.5963 19.1138 10.7966 19.0587 10.9973C19.0198 11.1388 18.9697 11.2797 18.9521 11.4495C18.937 11.5961 18.953 11.7664 19.032 11.9866C19.1006 12.2053 19.2356 12.5896 19.3357 13.0633C19.408 13.4053 19.4622 13.7914 19.4726 14.1928C19.4854 14.6942 19.4319 15.2161 19.2502 15.7047L19.2485 15.7097C18.7359 17.2485 17.7577 18.571 16.4729 19.5089C15.2083 20.432 13.646 20.9793 11.9352 20.9997C10.6331 21.0106 9.39945 20.7141 8.31088 20.172C7.55981 19.7979 6.877 19.3076 6.28983 18.7241C4.85418 17.2975 3.98188 15.3222 4.00029 13.1552C4.01814 11.6618 4.45783 10.27 5.21128 9.0923C5.98182 7.88783 7.0775 6.90673 8.37661 6.27147L8.3793 6.27011C8.3793 6.27011 8.94549 5.96398 9.69702 5.88819C10.1298 5.84456 10.6189 5.88546 11.1007 6.08613C11.4521 6.23761 11.7716 6.43779 12.0326 6.642C12.5153 7.01953 12.8025 7.39659 12.8025 7.39659C12.8883 7.50389 12.897 7.65264 12.8243 7.76902C12.7516 7.8854 12.6129 7.94456 12.4771 7.91713C12.0758 7.82261 11.7629 7.82198 11.473 7.84519C11.0927 7.87568 10.7494 7.94008 10.3309 7.9156C9.92908 7.89209 9.46041 7.79327 8.83255 7.50139C8.74006 7.46334 8.6963 7.35832 8.73487 7.26702C8.77352 7.17579 8.87994 7.13262 8.97246 7.17067C9.38092 7.31799 9.71213 7.38856 9.99833 7.41588C10.4856 7.46233 10.8379 7.36987 11.214 7.3017C11.3744 7.27262 11.5383 7.24762 11.7146 7.23469C11.682 7.20606 11.6481 7.17728 11.6132 7.14821C11.3939 6.96601 11.1373 6.76942 10.8436 6.6209C10.4692 6.42568 10.0766 6.36483 9.72441 6.36848C9.07457 6.3753 8.56101 6.583 8.53994 6.59162C7.32576 7.22363 6.31161 8.17661 5.6104 9.33415C4.93373 10.4511 4.55131 11.7598 4.568 13.1552C4.58497 15.1539 5.42853 16.9516 6.76247 18.2579C7.30475 18.789 7.92731 19.2399 8.61261 19.5894C9.60961 20.0979 10.7368 20.3956 11.9352 20.4056C13.5261 20.4245 14.9892 19.9462 16.187 19.1175C17.4234 18.2621 18.3794 17.0369 18.9036 15.5968C19.0204 15.1453 19.0165 14.6758 18.961 14.2301C18.9154 13.8641 18.8271 13.5172 18.738 13.2085C18.61 12.765 18.4714 12.4035 18.3953 12.1985C18.284 11.8565 18.2717 11.5925 18.3062 11.3684C18.3324 11.1973 18.3837 11.0503 18.4373 10.9091C18.4944 10.7585 18.5639 10.6195 18.5457 10.4327C18.5396 10.3667 18.5103 10.3209 18.4549 10.2792C18.3744 10.2185 18.2693 10.1604 18.1378 10.0933C17.9624 10.0038 17.7521 9.90731 17.5507 9.80225C17.4093 9.72855 17.2725 9.6522 17.1544 9.57069C17.1408 9.56228 17.1287 9.55249 17.1183 9.5415ZM14.877 15.4712C14.8745 15.4739 14.8719 15.4766 14.8692 15.4792C13.3948 16.9741 11.571 17.3985 9.99193 17.0392C9.09806 16.8358 8.2764 16.3815 7.645 15.7197C7.04649 15.0924 6.62416 14.277 6.44456 13.3349C6.27457 12.3839 6.24434 11.5521 6.33261 10.8141C6.44384 9.88421 6.73626 9.10396 7.15926 8.4247C7.20945 8.33908 7.32067 8.30978 7.40746 8.3593C7.49425 8.40885 7.52393 8.51858 7.47368 8.60413C7.11509 9.25436 6.88419 9.99181 6.82449 10.8592C6.77667 11.5547 6.84151 12.3327 7.04317 13.2165C7.2194 14.0314 7.61525 14.7194 8.135 15.2652C8.68164 15.8393 9.37126 16.2554 10.1389 16.4596C11.5424 16.833 13.1799 16.5211 14.5709 15.2635C14.5922 15.1314 14.666 14.7924 14.8959 14.4244C15.0467 14.1831 15.271 13.9405 15.5833 13.7275C15.6871 13.6612 15.8131 13.6013 15.9385 13.5364C16.0174 13.4955 16.0969 13.454 16.1586 13.3925C16.2125 13.3388 16.2562 13.2706 16.2583 13.1645C16.2649 13.02 16.2312 12.8455 16.1808 12.6737C16.0613 12.266 15.8739 11.8788 15.8739 11.8788C15.8217 11.7943 15.8489 11.684 15.9346 11.6326C16.0203 11.5812 16.1321 11.6081 16.1842 11.6925C16.1842 11.6925 16.4665 12.0716 16.6692 12.4905C16.777 12.7131 16.85 12.9475 16.8714 13.146C16.897 13.4575 16.7925 13.675 16.6428 13.8415C16.5524 13.942 16.4382 14.0211 16.3157 14.0847C16.1775 14.1566 16.0255 14.2025 15.9056 14.2663C15.6452 14.3939 15.4498 14.5547 15.3069 14.7197C15.0152 15.0565 14.9213 15.3804 14.9213 15.3804C14.9207 15.3841 14.92 15.3877 14.9191 15.3913L14.9185 15.3939L14.9173 15.3984L14.916 15.4027L14.9147 15.4071L14.9128 15.4126L14.9112 15.4167L14.9094 15.421L14.9076 15.4252L14.9061 15.4283L14.9041 15.4322L14.9021 15.4362L14.8999 15.44L14.8976 15.4438L14.8953 15.4476L14.8928 15.4513L14.8902 15.455L14.8875 15.4586L14.8847 15.4622L14.8818 15.4657L14.8788 15.4691L14.877 15.4712ZM12.0983 13.9119C12.3256 13.891 12.6295 13.8504 12.9264 13.7747C13.1247 13.724 13.3203 13.6601 13.4849 13.5721C13.6744 13.4711 13.9447 13.273 14.217 13.057C14.7419 12.6405 15.2719 12.1615 15.2719 12.1615C15.3187 12.1164 15.3939 12.1173 15.4396 12.1634C15.4854 12.2096 15.4845 12.2838 15.4377 12.3289C15.4377 12.3289 14.9334 12.8469 14.431 13.3024C14.1545 13.553 13.8776 13.783 13.6817 13.9046C13.4964 14.0192 13.2742 14.1106 13.0466 14.183C12.6862 14.2975 12.3123 14.3606 12.0607 14.3937C11.9115 14.4125 11.6292 14.3915 11.4119 14.352C11.2691 14.326 11.1522 14.2867 11.097 14.2559C10.9788 14.1898 10.9504 14.0933 10.9448 14.0308C10.9381 13.954 10.954 13.8024 11.1722 13.738C11.3327 13.6919 11.5425 13.6172 11.743 13.5198C11.8611 13.4625 11.9766 13.3983 12.0738 13.3241C12.2953 13.1592 12.6111 12.8972 12.9209 12.6172C13.2125 12.3534 13.4998 12.0755 13.689 11.8407C13.8543 11.6371 14.0787 11.3902 14.3079 11.1488C14.7845 10.6466 15.278 10.1694 15.278 10.1694C15.3233 10.1226 15.3984 10.1209 15.4458 10.1656C15.4931 10.2102 15.4948 10.2843 15.4495 10.3311C15.4495 10.3311 14.9931 10.8347 14.5557 11.3627C14.3501 11.611 14.1496 11.8645 14.0033 12.0722C13.8523 12.2853 13.6366 12.5352 13.4016 12.7803C13.0484 13.1487 12.6523 13.5052 12.3898 13.7191C12.302 13.7887 12.2028 13.8533 12.0983 13.9119ZM10.8918 3.65972C10.8212 3.65989 10.7476 3.66239 10.6723 3.66801C10.4012 3.6884 10.1019 3.73852 9.83989 3.90674C9.48917 4.12066 9.25741 4.35263 9.10867 4.57822C8.78856 5.06375 8.83505 5.48859 8.83505 5.48859C8.85456 5.5856 8.79053 5.67994 8.69221 5.69918C8.59382 5.71838 8.49815 5.65524 8.47872 5.55823C8.47872 5.55823 8.33539 5.01009 8.68032 4.33523C8.83274 4.03707 9.08719 3.71965 9.49231 3.41134C9.84046 3.15898 10.2445 3.03994 10.619 3.00918C11.2438 2.95782 11.77 3.13869 11.77 3.13869C11.8942 3.17534 11.9827 3.28379 11.9923 3.41139C12.002 3.53894 11.9309 3.65918 11.8135 3.7136C11.4103 3.87757 11.2624 4.06052 11.1004 4.2632C10.9628 4.43546 10.8185 4.61759 10.5604 4.80681C10.3875 4.93353 10.1659 5.06593 9.85758 5.19877C9.76798 5.24321 9.65871 5.20749 9.6137 5.11915C9.56866 5.03076 9.60484 4.92301 9.6944 4.87857C9.95294 4.73265 10.1358 4.59627 10.2757 4.46861C10.5395 4.22803 10.6384 4.01269 10.7768 3.81202C10.8124 3.76038 10.85 3.70967 10.8918 3.65972Z" fill="white"/>
<path d="M23.5 12C23.5 18.3513 18.3513 23.5 12 23.5C5.64873 23.5 0.5 18.3513 0.5 12C0.5 5.64873 5.64873 0.5 12 0.5C18.3513 0.5 23.5 5.64873 23.5 12Z" stroke="white" stroke-opacity="0.3"/>
</svg>
