<svg id="Calque_1" data-name="Calque 1" xmlns="http://www.w3.org/2000/svg" xmlns:xlink="http://www.w3.org/1999/xlink" viewBox="0 0 250 250"><defs><style>.cls-1{fill:#e4f9ff;}.cls-2{fill:#b5936e;}.cls-3{fill:#804e27;}.cls-4{fill:#c4a382;}.cls-5{fill:none;stroke:#804e27;stroke-width:1.04px;}.cls-13,.cls-14,.cls-18,.cls-6,.cls-7{fill-rule:evenodd;}.cls-6{fill:url(#Dégradé_sans_nom_7);}.cls-7{fill:url(#Dégradé_sans_nom_7-2);}.cls-19,.cls-8{fill:#ffe292;}.cls-9{fill:#f38302;}.cls-10{fill:#9a6634;}.cls-11{fill:url(#Dégradé_sans_nom_7-3);}.cls-12{fill:url(#Dégradé_sans_nom_7-4);}.cls-13{fill:url(#Dégradé_sans_nom_7-5);}.cls-14{fill:url(#Dégradé_sans_nom_7-6);}.cls-15{fill:#804e25;}.cls-16{fill:#9a9999;}.cls-17{fill:#c6c6c6;}.cls-18{fill:url(#Dégradé_sans_nom_7-7);}.cls-19{isolation:isolate;opacity:0.4;}.cls-20{fill:#3c3c3b;}</style><linearGradient id="Dégradé_sans_nom_7" x1="5.44" y1="246.35" x2="5.44" y2="248.14" gradientTransform="matrix(42.35, 0, 0, -42.6, -168.45, 10603.41)" gradientUnits="userSpaceOnUse"><stop offset="0" stop-color="#ff770d"/><stop offset="1" stop-color="#ffed7d"/></linearGradient><linearGradient id="Dégradé_sans_nom_7-2" x1="5.88" y1="246.35" x2="5.88" y2="248.14" gradientTransform="matrix(42.35, 0, 0, -42.6, -59.17, 10603.41)" xlink:href="#Dégradé_sans_nom_7"/><linearGradient id="Dégradé_sans_nom_7-3" x1="2.77" y1="244.07" x2="0.75" y2="246.95" gradientTransform="matrix(158.95, 0, 0, -23.9, -172.64, 5968.64)" xlink:href="#Dégradé_sans_nom_7"/><linearGradient id="Dégradé_sans_nom_7-4" x1="2.95" y1="242.59" x2="1.15" y2="244.33" gradientTransform="matrix(144.31, 0, 0, -18.7, -165.32, 4748.9)" xlink:href="#Dégradé_sans_nom_7"/><linearGradient id="Dégradé_sans_nom_7-5" x1="9.52" y1="246.63" x2="9.52" y2="248.4" gradientTransform="matrix(23.01, 0, 0, -55.06, -168.45, 13784.75)" xlink:href="#Dégradé_sans_nom_7"/><linearGradient id="Dégradé_sans_nom_7-6" x1="10.46" y1="246.63" x2="10.46" y2="248.4" gradientTransform="matrix(23.01, 0, 0, -55.06, -40.87, 13784.75)" xlink:href="#Dégradé_sans_nom_7"/><linearGradient id="Dégradé_sans_nom_7-7" x1="5.47" y1="246.39" x2="4.65" y2="248.01" gradientTransform="matrix(48.1, 0, 0, -43.64, -117.74, 10931.24)" xlink:href="#Dégradé_sans_nom_7"/></defs><rect class="cls-1" width="250" height="250"/><g id="Treasure-Hunters-AO"><g id="ICON-_-CHEST-CLOSE-Copy" data-name="ICON-/-CHEST-CLOSE-Copy"><g id="Fichier-1TH-CHEST-CLOSE-Copy"><path id="Shape" class="cls-2" d="M167.88,46.1H83.71s-20.43,9.84-20.43,48h125C188.3,55.94,167.88,46.1,167.88,46.1Z"/><rect id="Rectangle-path" class="cls-3" x="53.06" y="84.7" width="145.06" height="2.34"/><rect id="Rectangle-path-2" data-name="Rectangle-path" class="cls-4" x="53.06" y="87.04" width="145.06" height="1.17"/><rect id="Rectangle-path-3" data-name="Rectangle-path" class="cls-3" x="53.06" y="73" width="145.06" height="2.34"/><rect id="Rectangle-path-4" data-name="Rectangle-path" class="cls-4" x="53.06" y="75.34" width="145.06" height="1.17"/><rect id="Rectangle-path-5" data-name="Rectangle-path" class="cls-3" x="53.06" y="61.31" width="145.06" height="2.34"/><rect id="Rectangle-path-6" data-name="Rectangle-path" class="cls-4" x="53.06" y="63.65" width="145.06" height="1.17"/><rect id="Rectangle-path-7" data-name="Rectangle-path" class="cls-3" x="72.94" y="49.61" width="105.28" height="2.34"/><rect id="Rectangle-path-8" data-name="Rectangle-path" class="cls-4" x="72.94" y="51.95" width="105.28" height="1.17"/><path id="Shape-2" data-name="Shape" class="cls-5" d="M84.2,47.24S64,57,64,94.64H187.57c0-37.67-20.18-47.4-20.18-47.4"/><path id="Shape-3" data-name="Shape" class="cls-6" d="M36.81,94.06s.62-50.42,48.89-50.42l1.24,2.46H84.47S64,55.94,64,94.06Z"/><path id="Shape-4" data-name="Shape" class="cls-7" d="M214.78,94.06s-.62-50.42-48.9-50.42l-1.23,2.46h2.47s20.43,9.84,20.43,48Z"/><path id="Shape-5" data-name="Shape" class="cls-8" d="M41.59,72.62a225.66,225.66,0,0,1,28-8.83C75.52,50.28,84.2,46.1,84.2,46.1h2.45l-1.23-2.43C59,43.67,47,59,41.59,72.62Z"/><path id="Shape-6" data-name="Shape" class="cls-9" d="M83.7,43.76l-3.4,2.45S59.93,56,59.93,94.06h4c0-38.12,20.42-48,20.42-48h2.3l-1.17-2.34Z"/><path id="Shape-7" data-name="Shape" class="cls-8" d="M166.16,43.67l-1.22,2.43h2.45s8.39,4.06,14.36,17c5.9-1.21,12.75-2.61,20.48-3.93C195.12,50.56,183.9,43.67,166.16,43.67Z"/><path id="Shape-8" data-name="Shape" class="cls-9" d="M167.89,43.76l3.42,2.45S191.68,56,191.68,94.06h-4c0-38.12-20.42-48-20.42-48H165l1.18-2.34Z"/><polygon id="Shape-9" data-name="Shape" class="cls-10" points="56.14 119.8 62.37 185.31 186.77 185.31 193 119.8 56.14 119.8"/><polygon id="Shape-10" data-name="Shape" class="cls-3" points="57.9 118.63 192.47 118.63 191.6 127.98 58.76 127.91 57.9 118.63"/><rect id="Rectangle-path-9" data-name="Rectangle-path" class="cls-3" x="53.06" y="173.61" width="145.06" height="2.34"/><rect id="Rectangle-path-10" data-name="Rectangle-path" class="cls-2" x="53.06" y="175.95" width="145.06" height="1.17"/><rect id="Rectangle-path-11" data-name="Rectangle-path" class="cls-3" x="53.06" y="160.74" width="145.06" height="2.34"/><rect id="Rectangle-path-12" data-name="Rectangle-path" class="cls-2" x="53.06" y="164.25" width="145.06" height="1.17"/><rect id="Rectangle-path-13" data-name="Rectangle-path" class="cls-3" x="53.06" y="149.04" width="145.06" height="2.34"/><rect id="Rectangle-path-14" data-name="Rectangle-path" class="cls-2" x="53.06" y="151.38" width="145.06" height="1.17"/><rect id="Rectangle-path-15" data-name="Rectangle-path" class="cls-3" x="53.06" y="137.34" width="145.06" height="2.34"/><rect id="Rectangle-path-16" data-name="Rectangle-path" class="cls-2" x="53.06" y="139.68" width="145.06" height="1.17"/><rect id="Rectangle-path-17" data-name="Rectangle-path" class="cls-3" x="53.06" y="124.48" width="145.06" height="2.34"/><rect id="Rectangle-path-18" data-name="Rectangle-path" class="cls-2" x="53.06" y="126.81" width="145.06" height="1.17"/><path id="Shape-11" data-name="Shape" class="cls-3" d="M191.14,121l-5.89,62H65.11l-5.88-62Zm1.25-1.17H58l6.11,64.34H186.28Z"/><rect id="Rectangle-path-19" data-name="Rectangle-path" class="cls-11" x="32" y="91.72" width="186" height="28.08" rx="3.29"/><path id="Shape-12" data-name="Shape" class="cls-8" d="M32,94.19v1H218v-1a3.77,3.77,0,0,0-.95-2.57,3.24,3.24,0,0,0-2.37-1.07H35.32A3.24,3.24,0,0,0,33,91.62,3.77,3.77,0,0,0,32,94.19Z"/><path id="Shape-13" data-name="Shape" class="cls-9" d="M218,115.5v-.38H32v.34a3.25,3.25,0,0,0,3.32,3.17H214.68A3.25,3.25,0,0,0,218,115.5Z"/><path id="Shape-14" data-name="Shape" class="cls-9" d="M132.77,104.59H128.6a16.47,16.47,0,0,0-16.47,15.21h7a9.45,9.45,0,0,1,9.39-8.19h4.36a9.46,9.46,0,0,1,9.42,8.19h7A16.46,16.46,0,0,0,132.77,104.59Z"/><rect id="Rectangle-path-20" data-name="Rectangle-path" class="cls-12" x="41.36" y="184.14" width="168.45" height="22.23" rx="3.29"/><path id="Shape-15" data-name="Shape" class="cls-8" d="M209.81,187.64V187a5.39,5.39,0,0,0-3.53-4.05H44.09c-1.83.76-3.32,2.23-2.73,4.05v.62Z"/><path id="Shape-16" data-name="Shape" class="cls-9" d="M209.81,202.07v-.39H41.36V202a3.24,3.24,0,0,0,3.31,3.17H206.5A3.25,3.25,0,0,0,209.81,202.07Z"/><polygon id="Shape-17" data-name="Shape" class="cls-13" points="64 184.13 43.23 184.13 37.12 119.8 57.89 119.8 64 184.13"/><polygon id="Shape-18" data-name="Shape" class="cls-9" points="57.9 119.8 54.54 119.8 60.65 184.13 64.01 184.13 57.9 119.8"/><polygon id="Shape-19" data-name="Shape" class="cls-8" points="37.11 119.8 43.22 184.13 46.27 184.13 40.16 119.8 37.11 119.8"/><polygon id="Shape-20" data-name="Shape" class="cls-14" points="186.37 184.13 207.14 184.13 213.25 119.8 192.47 119.8 186.37 184.13"/><polygon id="Shape-21" data-name="Shape" class="cls-9" points="192.46 119.8 195.82 119.8 189.72 184.13 186.35 184.13 192.46 119.8"/><polygon id="Shape-22" data-name="Shape" class="cls-8" points="213.26 119.8 207.15 184.13 204.09 184.13 210.2 119.8 213.26 119.8"/><path id="Shape-23" data-name="Shape" class="cls-15" d="M119.65,121a8.11,8.11,0,0,1,.09-1.21h-7v15.07a30.82,30.82,0,0,1,7-1.61Z"/><path id="Shape-24" data-name="Shape" class="cls-15" d="M142,121v12.25a30.82,30.82,0,0,1,7,1.61V119.8h-7A8.15,8.15,0,0,1,142,121Z"/><path id="Shape-25" data-name="Shape" class="cls-16" d="M113.89,126.11V114.32a8.56,8.56,0,0,1,8.56-8.56h5.1a8.56,8.56,0,0,1,8.56,8.56v11.79a31.8,31.8,0,0,1,7,1.55V114.32a15.58,15.58,0,0,0-15.58-15.58h-5.1a15.58,15.58,0,0,0-15.58,15.58v13.34A31.8,31.8,0,0,1,113.89,126.11Z"/><path id="Shape-26" data-name="Shape" class="cls-17" d="M109.21,116.83a16.5,16.5,0,0,1,4.84-11.45,14.27,14.27,0,0,1,11.52-4.3h4.11a12.36,12.36,0,0,1,8.07,1.68,14.49,14.49,0,0,0-11.12-4h-4.11A14.66,14.66,0,0,0,111,103.13a19.27,19.27,0,0,0-5.29,11.45v13.86c1.52-.35,2.54-.65,3.51-.88Z"/><path id="Shape-27" data-name="Shape" class="cls-15" d="M156.06,148.27c0,14.71-14.09,33.63-31.49,33.63S93.08,163,93.08,148.27s14.11-16.2,31.49-16.2S156.06,133.57,156.06,148.27Z"/><path id="Shape-28" data-name="Shape" class="cls-18" d="M152.71,140.58c0,15.44-12.6,34-28.14,34s-28.14-18.59-28.14-34,12.6-17,28.14-17S152.71,125.13,152.71,140.58Z"/><path id="Shape-29" data-name="Shape" class="cls-19" d="M124.57,127.21c18.75,0,24.47,3.12,24.47,13.37,0,13.67-11.29,30.39-24.47,30.39s-24.47-16.72-24.47-30.39C100.1,130.33,105.82,127.21,124.57,127.21Zm0-3.64c-15.54,0-28.14,1.58-28.14,17s12.6,34,28.14,34,28.14-18.59,28.14-34S140.11,123.57,124.57,123.57Z"/><path id="Shape-30" data-name="Shape" class="cls-20" d="M131.43,142a7,7,0,1,0-10.52,6v6.75a3.51,3.51,0,0,0,7,0V148A7,7,0,0,0,131.43,142Z"/><path id="Shape-31" data-name="Shape" class="cls-19" d="M124.42,135a7,7,0,0,1,3.5,13v6.75a3.51,3.51,0,0,1-7,0V148a7,7,0,0,1,3.51-13Zm0-2.33a9.36,9.36,0,0,0-8.83,6.22,9.27,9.27,0,0,0,3,10.33v5.53a5.85,5.85,0,0,0,11.69,0v-5.53a9.29,9.29,0,0,0-5.84-16.55Z"/><rect id="Rectangle-path-21" data-name="Rectangle-path" class="cls-8" x="118.57" y="94.06" width="11.7" height="23.4" rx="1.52"/><path id="Shape-32" data-name="Shape" class="cls-9" d="M128.8,94.06h-4.38v23.4h4.38a1.47,1.47,0,0,0,1.46-1.46V95.52A1.46,1.46,0,0,0,128.8,94.06Z"/><polygon id="Shape-33" data-name="Shape" class="cls-9" points="57.9 126.81 57.24 119.8 37.81 119.8 38.47 126.81 57.9 126.81"/><polygon id="Shape-34" data-name="Shape" class="cls-9" points="192.46 126.81 193.12 119.8 212.56 119.8 211.89 126.81 192.46 126.81"/></g></g></g></svg>