<svg width="256" height="256" viewBox="0 0 256 256" fill="none" xmlns="http://www.w3.org/2000/svg">
<circle cx="128" cy="128" r="128" fill="#04000A"/>
<path fill-rule="evenodd" clip-rule="evenodd" d="M211.268 44.731C165.28 -1.25704 90.7189 -1.25702 44.7308 44.7311C-1.25728 90.7191 -1.25728 165.281 44.7308 211.269C90.7189 257.257 165.28 257.257 211.268 211.269C257.257 165.281 257.257 90.7191 211.268 44.731ZM172.212 83.7878C147.795 59.3703 108.206 59.3703 83.7887 83.7878C59.3712 108.205 59.3712 147.794 83.7887 172.211C108.206 196.629 147.795 196.629 172.212 172.211C196.63 147.794 196.63 108.205 172.212 83.7878Z" fill="url(#paint0_linear)"/>
<path d="M211.269 44.731C165.281 -1.25703 90.7194 -1.25703 44.7313 44.7311C-1.25679 90.7191 -1.25678 165.281 44.7313 211.269C90.7194 257.257 165.281 257.257 211.269 211.269C256.993 165.545 257.255 91.5754 212.057 45.5269C246.569 80.7821 246.339 137.339 211.368 172.311C176.165 207.513 119.09 207.514 83.8874 172.311C48.6847 137.108 48.6847 80.033 83.8874 44.8302C119.075 9.64281 176.115 9.6274 211.322 44.7839C211.304 44.7663 211.286 44.7487 211.269 44.731Z" fill="url(#paint1_linear)"/>
<defs>
<linearGradient id="paint0_linear" x1="242.08" y1="34.1601" x2="183.281" y2="219.767" gradientUnits="userSpaceOnUse">
<stop offset="0.0001" stop-color="#1A7B05"/>
<stop offset="1" stop-color="#28BA08"/>
</linearGradient>
<linearGradient id="paint1_linear" x1="10.2402" y1="10.24" x2="280.398" y2="60.8463" gradientUnits="userSpaceOnUse">
<stop offset="0.0001" stop-color="#26B007"/>
<stop offset="1" stop-color="#39F50F"/>
</linearGradient>
</defs>
</svg>
