<svg width="24" height="24" viewBox="0 0 24 24" fill="none" xmlns="http://www.w3.org/2000/svg">
<path d="M12 24C18.6274 24 24 18.6274 24 12C24 5.37258 18.6274 0 12 0C5.37258 0 0 5.37258 0 12C0 18.6274 5.37258 24 12 24Z" fill="#005CC7"/>
<path d="M23.5 12C23.5 18.3513 18.3513 23.5 12 23.5C5.64873 23.5 0.5 18.3513 0.5 12C0.5 5.64873 5.64873 0.5 12 0.5C18.3513 0.5 23.5 5.64873 23.5 12Z" stroke="black" stroke-opacity="0.097"/>
<path d="M6.7746 15.1026V17.0557H8.73177V16.5674H11.4229V20.8574C6.91439 20.6133 3.24465 16.9163 3 12.417H7.29884V15.0677L6.7746 15.1026Z" fill="white"/>
<path d="M15.0928 16.5677V17.056H17.05V15.1029H16.5607V12.4521H20.8596C20.6149 16.9514 16.9102 20.6136 12.4017 20.8577V16.5677H15.0928Z" fill="white"/>
<path d="M11.4229 7.39462H15.1276V6.80166H17.0848V8.96411H15.1276V8.37119H11.4229V12.417L15.6169 12.4519V15.1026H15.1276V15.5909H8.73177V15.1026H8.27742V8.75483H8.76672V6.80166H6.80955V8.75483H7.29884V11.4055H3C3.24465 6.90632 6.94934 3.24415 11.4229 3V7.39462Z" fill="white"/>
</svg>
