<svg width="40" height="40" viewBox="0 0 40 40" fill="none" xmlns="http://www.w3.org/2000/svg"><rect fill="#01A8F1" width="40" height="40" rx="12"/><g transform="translate(4 4)"><circle cx="16" cy="16" r="14" fill="#fff"/><svg width="32" height="32" viewBox="0 0 32 32" xmlns="http://www.w3.org/2000/svg"><path fill-rule="evenodd" clip-rule="evenodd" d="M0 16C0 7.163 7.163 0 16 0s16 7.163 16 16-7.163 16-16 16S0 24.837 0 16z" fill="#01A8F1"/><path d="M11.052 7L9.25 8.803V16l1.802 1.799h7.21v3.597H14.66V19.6H9.25v3.601L11.052 25H21.87l1.802-1.799v-7.198L21.87 14.2h-7.21v-3.598h3.603v1.8h5.41V8.803L21.87 7 11.05 7z" fill="#fff"/></svg></g></svg>