<svg width="32" height="32" viewBox="0 0 32 32" fill="none" xmlns="http://www.w3.org/2000/svg">
<g clip-path="url(#clip0_6220_32820)">
<path d="M16 32C24.8366 32 32 24.8366 32 16C32 7.16344 24.8366 0 16 0C7.16344 0 0 7.16344 0 16C0 24.8366 7.16344 32 16 32Z" fill="#895CEA"/>
<path fill-rule="evenodd" clip-rule="evenodd" d="M26.6997 16C26.6997 17.0742 27.4501 18.0599 28.4834 18.1202C30.0732 18.213 31 18.3245 31 18.4444C31 18.5201 30.6311 18.5924 29.9596 18.6588L29.9596 18.6588C28.4054 18.8124 27.6284 18.8892 27.1602 19.1735C26.6921 19.4578 26.0657 20.3941 24.8129 22.2668L24.8128 22.2668C22.8992 25.1272 19.7115 27 16.1024 27C12.4968 27 9.31175 25.1309 7.39752 22.2752C6.13673 20.3943 5.50633 19.4539 5.03232 19.1693C4.55831 18.8847 3.78691 18.8158 2.24411 18.6779C1.44386 18.6064 1 18.5274 1 18.4444C1 18.3193 2.00935 18.2033 3.72814 18.1082C4.75741 18.0513 5.50512 17.0699 5.50512 16C5.50512 9.92487 10.2497 5 16.1024 5C21.9551 5 26.6997 9.92487 26.6997 16ZM15.9998 25.57C21.1479 25.57 25.3213 21.2854 25.3213 16C25.3213 10.7146 21.1479 6.42999 15.9998 6.42999C10.8518 6.42999 6.67841 10.7146 6.67841 16C6.67841 21.2854 10.8518 25.57 15.9998 25.57Z" fill="white"/>
<path d="M14.2584 16.6908V18.403C14.4852 18.4179 15.1352 18.4537 16.0335 18.4537C17.1112 18.4537 17.6514 18.4121 17.7523 18.4038V16.885V16.6925V16.464V14.498H22.5863V11.9C22.5863 11.6791 22.4072 11.5 22.1863 11.5H9.82432C9.6034 11.5 9.42432 11.6791 9.42432 11.9V14.498H14.2584V16.4632V16.6908Z" fill="white"/>
<path d="M17.7523 19.447V19.4454C17.654 19.452 17.1478 19.4803 16.0183 19.4803C15.1165 19.4803 14.4816 19.4553 14.2584 19.4454V19.4479V19.983V26.2831H17.7523V19.9813V19.447Z" fill="white"/>
<path d="M16.0018 20.6932C8.07747 20.6932 1.09766 18.5117 1.09766 18.5117C1.09766 18.5117 1.76724 18.1594 2.86593 18.2774C2.86593 18.2774 9.2262 19.4821 16.0018 19.4681C23.188 19.4533 25.8805 18.5657 28.8429 18.2774L30.8867 18.5156C30.8867 18.5156 23.9262 20.6932 16.0018 20.6932Z" fill="white"/>
</g>
<defs>
<clipPath id="clip0_6220_32820">
<rect width="32" height="32" fill="white"/>
</clipPath>
</defs>
</svg>
