<svg id="Layer_1" data-name="Layer 1" xmlns="http://www.w3.org/2000/svg" viewBox="0 0 122.88 122.88"><defs><style>.cls-1{fill-rule:evenodd;}</style></defs><title>cent-sign</title><path class="cls-1" d="M61.44,0A61.44,61.44,0,1,1,0,61.44,61.44,61.44,0,0,1,61.44,0Zm.84,75.18a6.94,6.94,0,0,0,5.11-1.78,6.51,6.51,0,0,0,1.78-5H83.85a17.44,17.44,0,0,1-4.5,12.21,20.29,20.29,0,0,1-11.86,6.25v7.78h-9.3V87a20.68,20.68,0,0,1-14.07-8Q39,72.34,39,61.54v-.82c0-6.95,1.7-12.67,5.06-17.19a20.5,20.5,0,0,1,14.1-8.06V28.21h9.3v7.35a19.36,19.36,0,0,1,12,6.59c2.91,3.47,4.35,7.87,4.35,13.17H69.17a8.49,8.49,0,0,0-1.92-6,6.61,6.61,0,0,0-5.11-2.08Q56.05,47.27,55,55a53.31,53.31,0,0,0-.34,6.76q0,7.55,1.83,10.48a6.27,6.27,0,0,0,5.76,2.92Zm-.84-64.7a51,51,0,1,1-51,51,51,51,0,0,1,51-51Z"/></svg>