<svg width="24" height="24" viewBox="0 0 24 24" fill="none" xmlns="http://www.w3.org/2000/svg">
<path d="M12 24C18.6274 24 24 18.6274 24 12C24 5.37258 18.6274 0 12 0C5.37258 0 0 5.37258 0 12C0 18.6274 5.37258 24 12 24Z" fill="#E31772"/>
<path d="M23.5 12C23.5 18.3513 18.3513 23.5 12 23.5C5.64873 23.5 0.5 18.3513 0.5 12C0.5 5.64873 5.64873 0.5 12 0.5C18.3513 0.5 23.5 5.64873 23.5 12Z" stroke="black" stroke-opacity="0.097"/>
<g clip-path="url(#clip0)">
<path d="M13.6967 4.11696C16.0279 4.58035 17.9275 5.69379 19.1761 7.68252C19.9599 8.92468 20.2189 10.3084 19.7938 11.7501C19.4152 13.018 18.6049 13.9255 17.3032 14.376C15.5763 14.9681 13.7897 15.0389 11.9897 14.9166C11.4385 14.878 10.8939 14.8008 10.3692 14.6334C9.97729 14.5112 9.61864 14.3181 9.33968 14.022C8.86148 13.5264 8.79506 12.7155 9.17364 12.1491C9.46588 11.7115 9.97065 11.6278 10.4754 11.9496C10.8606 12.1942 11.2525 12.4388 11.6776 12.6125C12.3218 12.8764 12.986 13.0051 13.6768 12.87C15.1711 12.5739 16.0279 11.0614 15.5099 9.54898C15.0317 8.16523 13.969 7.30923 12.6008 6.81366C9.43931 5.66804 5.96567 7.66322 5.37455 10.9263C4.64396 14.9617 7.47999 18.7203 11.6909 19.306C13.0856 19.4991 14.4538 19.3961 15.8154 19.0421C15.935 19.01 16.0545 18.9392 16.2205 19.0293C15.4368 19.4605 14.6199 19.7308 13.7631 19.8788C9.14707 20.6511 4.92291 17.7807 4.09933 13.3076C4.07941 13.2111 3.88015 11.9432 4.10597 10.6624C4.70373 7.3028 7.41357 4.56104 10.9005 4.10408C12.5676 3.88526 13.5439 4.08478 13.6967 4.11696Z" fill="white"/>
<path d="M17.1573 17.8505C13.4445 19.6011 9.84471 18.7579 7.68613 15.9711C6.37771 14.2785 6.24487 12.3476 7.04852 10.4104C7.93852 8.26075 10.4358 7.4305 12.5545 8.49888C13.0328 8.73702 13.4313 9.06526 13.7036 9.52865C14.0091 10.05 13.9493 10.552 13.5375 11.0025C13.1324 11.4466 12.6409 11.556 12.0763 11.3372C11.8306 11.2406 11.6114 11.099 11.3989 10.9381C11.1797 10.7772 10.9672 10.6099 10.7347 10.4619C10.2299 10.1336 9.7318 10.1465 9.22702 10.4747C8.35031 11.0476 8.05143 11.8971 8.04479 12.8496C8.03151 14.8706 9.04769 16.338 10.7679 17.3871C12.0564 18.1723 13.4777 18.346 14.9655 18.1143C15.5168 18.0307 16.0747 17.9341 16.6259 17.844C16.7721 17.8183 16.9315 17.8183 17.1573 17.8505Z" fill="white"/>
</g>
<defs>
<clipPath id="clip0">
<rect width="16" height="16" fill="white" transform="translate(4 4)"/>
</clipPath>
</defs>
</svg>
