<?xml version="1.0" encoding="UTF-8"?>
<svg width="40px" height="40px" viewBox="0 0 40 40" version="1.1" xmlns="http://www.w3.org/2000/svg" xmlns:xlink="http://www.w3.org/1999/xlink">
    <title>eth_wbtc_lp_yield_set</title>
    <defs>
        <linearGradient x1="50%" y1="1.70181381%" x2="50%" y2="100%" id="linearGradient-1">
            <stop stop-color="#500C2E" offset="0%"></stop>
            <stop stop-color="#491906" offset="100%"></stop>
        </linearGradient>
        <circle id="path-2" cx="20" cy="20" r="20"></circle>
        <linearGradient x1="50%" y1="0%" x2="50%" y2="98.5003278%" id="linearGradient-4">
            <stop stop-color="#E74F6E" offset="0%"></stop>
            <stop stop-color="#E7613B" offset="100%"></stop>
        </linearGradient>
    </defs>
    <g id="eth_wbtc_lp_yield_set" stroke="none" stroke-width="1" fill="none" fill-rule="evenodd">
        <g id="Group">
            <mask id="mask-3" fill="white">
                <use xlink:href="#path-2"></use>
            </mask>
            <use id="Mask" fill="url(#linearGradient-1)" xlink:href="#path-2"></use>
            <g mask="url(#mask-3)" fill="#FFFFFF" fill-rule="nonzero" id="Path">
                <g transform="translate(4.674359, 9.837884)">
                    <polygon fill-opacity="0.602" points="6.24313315 1.68886986e-14 6.24313315 7.36505645 12.4854337 10.146673"></polygon>
                    <polygon points="6.24313315 1.68886986e-14 2.83488869e-14 10.146673 6.24313315 7.36505645"></polygon>
                    <polygon fill-opacity="0.602" points="6.24313315 14.9194289 6.24313315 19.9238477 12.4895969 11.3058183"></polygon>
                    <polygon points="6.24313315 19.9238477 6.24313315 14.9185986 2.83488869e-14 11.3058183"></polygon>
                    <polygon fill-opacity="0.2" points="6.24313315 13.7611139 12.4854337 10.146673 6.24313315 7.36671712"></polygon>
                    <polygon fill-opacity="0.602" points="2.83488869e-14 10.146673 6.24313315 13.7611139 6.24313315 7.36671712"></polygon>
                </g>
            </g>
            <path d="M20,40 C31.045695,40 40,31.045695 40,20 C40,8.954305 31.045695,4.61852778e-14 20,4.61852778e-14 C19.960858,4.61852778e-14 20.0256298,40 20,40 Z" id="Oval-Copy-2" fill="url(#linearGradient-4)" mask="url(#mask-3)"></path>
            <path d="M27.4797959,9.83788413 L27.4793567,12.4298841 L30.0489257,12.4308774 C30.2477603,12.4308774 30.440545,12.4360399 30.6272493,12.4463343 L30.6266324,9.83788413 L32.5147343,9.83788413 L32.5159786,12.7932566 C34.0399877,13.3343947 34.8220474,14.4756365 34.8220474,16.1768716 L34.8220474,16.2574306 C34.8220474,17.7679122 34.0970162,18.8755986 32.4858359,19.338813 C34.358833,19.7214683 35.3658207,20.7888752 35.3658207,22.7222916 L35.3658207,22.8028506 C35.3658207,24.7769787 34.3960873,26.0519967 32.5156816,26.5688433 L32.5147343,29.6691676 L30.6266324,29.6691676 L30.627129,26.8264743 C30.5233232,26.8293574 30.4178595,26.8308013 30.3107425,26.8308013 L27.4793567,26.8298841 L27.4797959,29.6691676 L25.591694,29.6691676 L25.5913567,26.8298841 L25.5783567,26.8298841 L25.5791933,26.8937381 L22.4323567,26.8937381 L22.4323567,25.0056362 L24.3893567,25.0048841 L24.3893567,14.3058841 L22.4448574,14.306392 L22.4448574,12.4182901 L25.591694,12.4182901 L25.591694,9.83788413 L27.4797959,9.83788413 Z M29.6461307,20.4464994 L27.571736,20.4464994 L27.571736,24.5751489 L29.8072487,24.5751489 C31.418429,24.5751489 32.1434601,23.8501178 32.1434601,22.5410338 L32.1434601,22.4604748 C32.1434601,21.131251 31.418429,20.4464994 29.6461307,20.4464994 Z M29.5051524,14.6663901 L27.571736,14.6663901 L27.571736,18.351965 L29.5252921,18.351965 C31.0961929,18.351965 31.7205253,17.7880519 31.7205253,16.4991077 L31.7205253,16.4185487 C31.7205253,15.2101634 31.0357737,14.6663901 29.5051524,14.6663901 Z" id="Combined-Shape-Copy" fill="#FFFFFF" mask="url(#mask-3)"></path>
        </g>
    </g>
</svg>