<svg width="24" height="24" viewBox="0 0 24 24" fill="none" xmlns="http://www.w3.org/2000/svg">
<path d="M12 24C18.6274 24 24 18.6274 24 12C24 5.37258 18.6274 0 12 0C5.37258 0 0 5.37258 0 12C0 18.6274 5.37258 24 12 24Z" fill="#FEB221"/>
<path d="M23.5 12C23.5 18.3513 18.3513 23.5 12 23.5C5.64873 23.5 0.5 18.3513 0.5 12C0.5 5.64873 5.64873 0.5 12 0.5C18.3513 0.5 23.5 5.64873 23.5 12Z" stroke="black" stroke-opacity="0.097"/>
<path d="M14.6 16.9117L14.5957 16.9138C14.3464 16.8467 14.0971 16.786 13.85 16.7123C13.7676 16.6884 13.7395 16.7014 13.72 16.7816C13.6571 17.0309 13.5877 17.2802 13.5227 17.5273C13.2452 17.4731 12.9786 17.3842 12.7055 17.317C12.6925 17.3127 12.6773 17.3105 12.6643 17.3084C12.4129 17.2412 12.1593 17.1761 11.9078 17.1024C11.8363 17.0808 11.8124 17.0873 11.7908 17.1653C11.652 17.7029 11.5046 18.2383 11.3616 18.7737C11.0798 18.7173 10.8067 18.6328 10.5292 18.5569C10.2344 18.4789 9.94177 18.3965 9.64697 18.3163C9.79003 17.7787 9.93093 17.2433 10.0762 16.7079C10.0957 16.6342 10.0805 16.6082 10.0111 16.5909C9.7857 16.5345 9.56026 16.4738 9.33483 16.4131C9.27847 16.398 9.25246 16.3958 9.23295 16.4695C9.09205 17.0092 8.94465 17.549 8.79942 18.0887C8.50896 18.0324 8.22933 17.9413 7.9432 17.8676C7.68526 17.8004 7.42947 17.7289 7.17153 17.6639C7.10433 17.6465 7.08699 17.6227 7.1065 17.5511C7.24306 17.0504 7.37312 16.5497 7.51184 16.0511C7.53786 15.9558 7.52051 15.9232 7.42514 15.8972C6.64479 15.6935 5.86661 15.481 5.08843 15.2751C5.00606 15.2534 4.98438 15.2296 5.01039 15.1451C5.07542 14.9283 5.13395 14.7094 5.18597 14.4883C5.20765 14.3994 5.24233 14.3929 5.32036 14.4146C5.52846 14.4753 5.73872 14.5229 5.94464 14.5858C6.03785 14.614 6.07687 14.601 6.10071 14.4991C6.1484 14.2888 6.21343 14.0829 6.26329 13.8727C6.28279 13.7881 6.30664 13.7643 6.39985 13.7903C6.8919 13.9268 7.38829 14.0547 7.88034 14.1891C7.97355 14.2151 8.00607 14.2043 8.03208 14.1024C8.61734 11.9088 9.20694 9.71513 9.79653 7.52148C9.82038 7.43261 9.81388 7.39576 9.712 7.36974C9.21561 7.24402 8.72355 7.10529 8.22933 6.9774C8.14479 6.95572 8.12095 6.92971 8.14479 6.83867C8.28352 6.34012 8.41575 5.83722 8.54581 5.3365C8.56532 5.26063 8.58699 5.23245 8.67587 5.25847C9.17442 5.39719 9.67731 5.52508 10.1759 5.66381C10.2582 5.68766 10.2886 5.67248 10.3103 5.59011C10.4403 5.08939 10.5769 4.58867 10.7091 4.08794C10.7286 4.01641 10.746 3.98389 10.837 4.00774C11.3746 4.15947 11.9121 4.30254 12.4519 4.44777C12.3067 4.98751 12.1658 5.52725 12.0184 6.06699C12.001 6.12986 12.0097 6.15587 12.0726 6.17321C12.3045 6.23173 12.5386 6.29026 12.7684 6.35746C12.8334 6.37697 12.8464 6.35963 12.8616 6.3011C13.0046 5.76136 13.1499 5.22162 13.2929 4.68187C13.527 4.72089 13.7525 4.79459 13.9822 4.85528C14.3247 4.94849 14.6715 5.0287 15.0119 5.13925C14.8666 5.67899 14.7236 6.2209 14.5762 6.76064C14.561 6.81916 14.5632 6.83867 14.6282 6.85601C14.8883 6.92104 15.1484 6.99258 15.4085 7.06194C15.6708 7.13347 15.9353 7.20717 16.1976 7.2787C16.2171 7.28521 16.2366 7.29388 16.2561 7.30038C16.1911 7.54749 16.126 7.79243 16.0588 8.03954C16.0372 8.11541 16.0372 8.15443 16.1347 8.17394C16.3645 8.22596 16.5921 8.29749 16.8197 8.35602C16.876 8.37119 16.8847 8.38637 16.8695 8.44272C16.8023 8.68116 16.7438 8.92177 16.6744 9.15804C16.6571 9.21874 16.6766 9.23391 16.7243 9.24692C16.9844 9.31411 17.2445 9.38348 17.5047 9.45068L17.5025 9.45501L17.5068 9.45935C16.8977 11.7332 16.2886 14.007 15.6795 16.2831L15.673 16.2852C15.4216 16.218 15.1679 16.1552 14.9187 16.0815C14.8363 16.0576 14.8168 16.0815 14.7973 16.1552C14.7387 16.4088 14.6672 16.6602 14.6 16.9117ZM10.566 14.9001C10.5725 14.9045 10.5769 14.911 10.5834 14.911C11.4006 15.1299 12.2156 15.3488 13.0328 15.5699C13.1022 15.5894 13.126 15.5656 13.1434 15.4984C13.1976 15.2795 13.2626 15.0605 13.3168 14.8416C13.3363 14.7614 13.3623 14.7375 13.4468 14.7636C13.6289 14.8199 13.8153 14.8654 13.9974 14.9153C14.1968 14.9695 14.1968 14.9695 14.251 14.7679C14.6781 13.1725 15.1051 11.5793 15.5364 9.98391C15.5646 9.8777 15.5451 9.84302 15.4389 9.81917C15.2221 9.76932 15.0075 9.70429 14.7929 9.6501C14.7301 9.63492 14.7127 9.61758 14.7344 9.54822C14.7994 9.32495 14.8515 9.09518 14.9187 8.87192C14.9425 8.79171 14.923 8.76787 14.8471 8.74836C14.3702 8.62264 13.8955 8.49258 13.4187 8.36686C13.074 8.27582 12.7293 8.18694 12.3847 8.09807C12.1354 8.02871 11.8861 7.96368 11.6412 7.88781C11.5545 7.8618 11.5306 7.88781 11.5111 7.96801C11.0928 9.53955 10.6723 11.1089 10.2517 12.6805C10.0805 13.3177 9.90925 13.955 9.74018 14.5945C9.73151 14.6248 9.68165 14.6703 9.76619 14.6899C10.0328 14.7571 10.2994 14.8308 10.566 14.9001Z" fill="#FEFEFE"/>
<path d="M15.6838 16.2851C16.2929 14.0113 16.902 11.7374 17.5112 9.46143C17.7713 9.52862 18.0314 9.60015 18.2937 9.66518C18.3695 9.68469 18.3522 9.72371 18.3392 9.77573C18.0639 10.7967 17.7908 11.8176 17.5177 12.8386C17.199 14.0286 16.8782 15.2208 16.5639 16.413C16.5422 16.4932 16.5184 16.5127 16.4338 16.4889C16.1846 16.4152 15.9331 16.3523 15.6838 16.2851Z" fill="#010101"/>
<path d="M17.509 9.45303C17.2489 9.38367 16.9888 9.31647 16.7286 9.24927C16.681 9.23627 16.6593 9.22109 16.6788 9.1604C16.7482 8.92196 16.8067 8.68135 16.8739 8.44508C16.889 8.39089 16.8804 8.37355 16.824 8.35837C16.5942 8.29985 16.3688 8.22832 16.139 8.17629C16.0437 8.15462 16.0437 8.1156 16.0632 8.0419C16.1304 7.79696 16.1954 7.54984 16.2604 7.30273C16.5292 7.3721 16.7958 7.44363 17.0646 7.51083C17.1318 7.52817 17.1058 7.56719 17.0971 7.5997C17.0386 7.82514 16.9801 8.05274 16.9129 8.276C16.889 8.35837 16.9129 8.38655 16.9909 8.40606C17.212 8.46025 17.4288 8.52311 17.6499 8.57947C17.7171 8.59681 17.7453 8.61416 17.7214 8.69436C17.6412 8.9458 17.5762 9.19942 17.509 9.45303Z" fill="#010101"/>
<path d="M15.4107 7.06185C15.1506 6.99249 14.8905 6.92096 14.6303 6.85593C14.5653 6.84076 14.5631 6.81908 14.5783 6.76055C14.7257 6.22081 14.8688 5.6789 15.014 5.13916C15.2806 5.20852 15.5472 5.28006 15.816 5.34725C15.8984 5.36676 15.8485 5.41662 15.8399 5.44696C15.7011 5.97587 15.5581 6.5026 15.415 7.02934C15.4129 7.04018 15.4129 7.05102 15.4107 7.06185Z" fill="#010101"/>
<path d="M11.3594 18.7762C11.5024 18.2408 11.6498 17.7054 11.7886 17.1678C11.8081 17.0898 11.8341 17.0833 11.9056 17.105C12.1571 17.1787 12.4107 17.2415 12.6621 17.3109C12.5191 17.8485 12.3738 18.3839 12.2308 18.9215C12.2178 18.967 12.2199 19.0168 12.1462 18.9952C11.8839 18.9215 11.6217 18.8499 11.3594 18.7762Z" fill="#010101"/>
<path d="M13.2951 4.68381C13.1499 5.22355 13.0046 5.7633 12.8637 6.30304C12.8486 6.36156 12.8356 6.37674 12.7705 6.3594C12.5408 6.2922 12.3067 6.23367 12.0747 6.17515C12.0119 6.15997 12.0032 6.13179 12.0205 6.06893C12.1679 5.52919 12.311 4.98945 12.4541 4.44971C12.7359 4.52774 13.0198 4.58844 13.2951 4.68381Z" fill="#010101"/>
<path d="M8.80164 18.0908C8.94687 17.5511 9.09427 17.0135 9.23516 16.4716C9.25467 16.3979 9.28068 16.4001 9.33704 16.4153C9.56248 16.4759 9.78574 16.5366 10.0133 16.593C10.0827 16.6103 10.1001 16.6364 10.0784 16.7101C9.93098 17.2455 9.79008 17.783 9.64918 18.3184C9.36305 18.2491 9.07909 18.1819 8.80164 18.0908Z" fill="#010101"/>
<path d="M14.6 16.9121C14.6672 16.6606 14.7366 16.4092 14.8016 16.1556C14.819 16.084 14.8406 16.058 14.923 16.0819C15.1723 16.1556 15.4259 16.2184 15.6774 16.2856C15.6102 16.5457 15.5408 16.8037 15.4736 17.0638C15.4584 17.118 15.4411 17.1375 15.3782 17.118C15.1203 17.0465 14.8602 16.9814 14.6 16.9121Z" fill="#010101"/>
<path d="M13.5227 17.5273C13.5899 17.278 13.6593 17.0309 13.72 16.7816C13.7395 16.6993 13.7676 16.6884 13.85 16.7123C14.0971 16.786 14.3464 16.8467 14.5957 16.9139C14.5263 17.174 14.4591 17.4319 14.3898 17.692C14.3811 17.7267 14.3811 17.7701 14.3161 17.7506C14.0538 17.6725 13.7872 17.601 13.5227 17.5273Z" fill="#010101"/>
<path d="M12.3868 8.10029C12.2416 8.6487 12.0964 9.19712 11.949 9.74553C11.4894 11.4645 11.0277 13.1834 10.566 14.9002C10.2994 14.8308 10.0328 14.7571 9.76401 14.6921C9.67947 14.6726 9.72932 14.627 9.73799 14.5967C9.90707 13.9594 10.0805 13.3221 10.2496 12.6827C10.6701 11.1111 11.0906 9.54177 11.509 7.97023C11.5306 7.89003 11.5523 7.86185 11.639 7.89003C11.8883 7.9659 12.1376 8.03093 12.3868 8.10029Z" fill="#010101"/>
</svg>
