<svg width="800" height="800" viewBox="0 0 800 800" fill="none" xmlns="http://www.w3.org/2000/svg">
<circle cx="400" cy="400" r="400" fill="black"/>
<path d="M132.293 543.749C129.991 543.749 128.125 541.883 128.125 539.58V260.42C128.125 258.117 129.991 256.25 132.293 256.25H227.276C229.578 256.25 231.444 258.117 231.444 260.42V539.58C231.444 541.883 229.578 543.749 227.276 543.749H132.293Z" fill="white"/>
<path d="M272.774 408.186C272.774 408.202 272.787 408.215 272.803 408.215C272.809 408.215 272.814 408.216 272.819 408.22C272.823 408.222 272.825 408.225 272.828 408.229L350.137 541.671C350.883 542.958 352.257 543.75 353.743 543.75H462.891C465.193 543.75 467.059 541.883 467.059 539.58V260.42C467.059 258.117 465.193 256.251 462.891 256.251H367.908C365.606 256.251 363.74 258.117 363.74 260.42V349.568C363.74 350.318 363.942 351.055 364.326 351.7L384.424 385.484C386.077 388.263 384.075 391.786 380.842 391.786H368.615C367.132 391.786 365.76 390.998 365.014 389.716L288.49 258.321C287.743 257.039 286.372 256.251 284.889 256.251H276.941C274.64 256.251 272.774 258.117 272.774 260.42V408.186Z" fill="white"/>
<path d="M503.953 443.125C501.808 443.125 500.068 441.385 500.068 439.238V354.602C500.068 352.455 501.808 350.715 503.953 350.715H518.308C519.806 350.715 521.19 349.91 521.931 348.607L573.259 258.358C574 257.055 575.383 256.251 576.881 256.251H682.69C685.956 256.251 687.953 259.838 686.233 262.616L608.847 387.588C608.031 388.906 608.014 390.569 608.802 391.904L694.727 537.46C696.368 540.24 694.365 543.75 691.138 543.75H585.134C583.642 543.75 582.265 542.953 581.521 541.659L526.067 445.216C525.323 443.922 523.945 443.125 522.454 443.125H503.953Z" fill="white"/>
</svg>
