<svg width="24" height="24" viewBox="0 0 24 24" fill="none" xmlns="http://www.w3.org/2000/svg">
<path d="M12 24C18.6274 24 24 18.6274 24 12C24 5.37258 18.6274 0 12 0C5.37258 0 0 5.37258 0 12C0 18.6274 5.37258 24 12 24Z" fill="#BB2B38"/>
<path d="M23.5 12C23.5 18.3513 18.3513 23.5 12 23.5C5.64873 23.5 0.5 18.3513 0.5 12C0.5 5.64873 5.64873 0.5 12 0.5C18.3513 0.5 23.5 5.64873 23.5 12Z" stroke="black" stroke-opacity="0.097"/>
<path d="M20.3651 12.7486C19.6969 14.4475 18.3819 15.4 16.7115 15.9473C16.6404 15.9686 16.5267 16.0326 16.5338 15.8904C16.5409 15.7269 16.4272 15.535 16.6476 15.4213C16.8892 15.2933 17.1309 15.1867 17.3655 15.0446C18.4175 14.3906 19.0501 13.4665 19.1923 12.2297C19.2065 12.1231 19.2136 12.0165 19.1994 11.917C19.1638 11.5971 19.0146 11.526 18.7231 11.654C18.0621 11.9525 17.4152 11.9454 16.8324 11.4834C16.2353 11.0142 15.9936 10.3816 16.1358 9.64238C16.4201 8.171 18.2042 7.51705 19.4837 8.39846C20.0381 8.78229 20.3864 9.3083 20.5641 9.95514C20.5784 10.076 20.8414 11.3057 20.3651 12.7486Z" fill="white"/>
<path d="M14.4796 11.0213C14.4725 13.1182 13.2285 14.8739 11.153 15.7198C10.9895 15.7838 10.826 15.8691 10.6554 15.9046C10.5559 15.9259 10.3924 16.1036 10.3355 15.9117C10.2929 15.7482 10.2147 15.5137 10.4919 15.4071C10.8189 15.272 11.1245 15.0943 11.4089 14.8882C12.3614 14.1916 12.9229 13.2675 12.9798 12.0733C13.0082 11.59 12.8589 11.4976 12.4253 11.7037C11.7074 12.0378 10.8758 11.853 10.3426 11.2346C9.78821 10.5948 9.72424 9.69212 10.1792 8.98841C11.0677 7.60944 13.1006 7.70895 14.0033 9.18033C14.373 9.73477 14.4796 10.3674 14.4796 11.0213Z" fill="white"/>
<path d="M4.17281 15.9971C4.05908 15.6417 4.17281 15.4498 4.49979 15.3005C5.60155 14.7887 6.36922 13.9713 6.6962 12.7914C6.7815 12.4928 6.83125 12.1943 6.79571 11.8886C6.76728 11.5972 6.62512 11.5261 6.36212 11.6327C5.27457 12.1019 4.27233 11.7394 3.84584 10.7229C3.44068 9.76329 3.95246 8.57623 4.96181 8.16396C6.19152 7.65929 7.64869 8.37721 8.0965 9.71354C8.72201 11.583 7.93301 13.8149 6.19863 15.0446C5.58733 15.4711 4.91206 15.7768 4.17281 15.9971Z" fill="white"/>
</svg>
